# Created by Kenney (www.kenney.nl)

mtllib railroad-rail-corner-small.mtl

g railroad-rail-corner-small

v 0.01303887 0 1.128196 1 1 1
v -0.07224965 0 1.075987 1 1 1
v 0.01303887 0.1 1.128196 1 1 1
v -0.07224965 0.1 1.075987 1 1 1
v 0.3499999 0.1 3.814697E-06 1 1 1
v 0.2564378 0.1 0.5963393 1 1 1
v 0.25 0.1 3.576279E-06 1 1 1
v 0.1609817 0.1 0.5665379 1 1 1
v 0.3499999 0 3.814697E-06 1 1 1
v 0.2564378 0 0.5963393 1 1 1
v 0.25 0 3.576279E-06 1 1 1
v 0.1609817 0 0.5665379 1 1 1
v -0.4986923 0 0.8149374 1 1 1
v -0.5839808 0 0.7627276 1 1 1
v -0.4986923 0.1 0.8149374 1 1 1
v -0.5839808 0.1 0.7627276 1 1 1
v -0.25 0.1 2.622604E-06 1 1 1
v -0.316299 0.1 0.4175299 1 1 1
v -0.3499999 0.1 2.384186E-06 1 1 1
v -0.4117551 0.1 0.3877285 1 1 1
v -0.25 0 2.622604E-06 1 1 1
v -0.316299 0 0.4175299 1 1 1
v -0.3499999 0 2.384186E-06 1 1 1
v -0.4117551 0 0.3877285 1 1 1
v -0.7770739 0 1.952166 1 1 1
v -0.8329458 0 1.86923 1 1 1
v -0.7770739 0.1 1.952166 1 1 1
v -0.8329458 0.1 1.86923 1 1 1
v -0.3384459 0.1 1.582615 1 1 1
v -0.4105844 0.1 1.513362 1 1 1
v -0.3384459 0 1.582615 1 1 1
v -0.4105844 0 1.513362 1 1 1
v -1.112305 0 1.454551 1 1 1
v -1.168176 0 1.371616 1 1 1
v -1.112305 0.1 1.454551 1 1 1
v -1.168176 0.1 1.371616 1 1 1
v -0.7712772 0.1 1.167095 1 1 1
v -0.8434157 0.1 1.097842 1 1 1
v -0.7712772 0 1.167095 1 1 1
v -0.8434157 0 1.097842 1 1 1
v -1.880378 0 2.346164 1 1 1
v -1.886755 0 2.246367 1 1 1
v -1.880378 0.1 2.346164 1 1 1
v -1.886755 0.1 2.246367 1 1 1
v -1.294373 0.1 2.219167 1 1 1
v -1.329077 0.1 2.125382 1 1 1
v -1.294373 0 2.219167 1 1 1
v -1.329077 0 2.125382 1 1 1
v -1.918643 0 1.747385 1 1 1
v -1.92502 0 1.647589 1 1 1
v -1.918643 0.1 1.747385 1 1 1
v -1.92502 0.1 1.647589 1 1 1
v -1.502599 0.1 1.656457 1 1 1
v -1.537304 0.1 1.562672 1 1 1
v -1.502599 0 1.656457 1 1 1
v -1.537304 0 1.562672 1 1 1
v -1.999996 0 2.35 1 1 1
v -1.999996 0 2.25 1 1 1
v -1.999996 0.1 2.35 1 1 1
v -1.999996 0.1 2.25 1 1 1
v -1.999998 0 1.75 1 1 1
v -1.999998 0 1.65 1 1 1
v -1.999998 0.1 1.75 1 1 1
v -1.999998 0.1 1.65 1 1 1

vn -0.5220984 0 0.8528852
vn 0.7071068 0.7071068 1.459836E-06
vn 0.6749765 0.7071068 0.2107289
vn -0.7071068 0.7071068 -1.459836E-06
vn -0.6749765 0.7071068 -0.2107289
vn 0.603081 0.7071068 0.3691793
vn -0.603081 0.7071068 -0.3691793
vn 1 0 2.06452E-06
vn 0.954561 0 0.2980156
vn 0.8528852 0 0.5220984
vn -1 0 -2.06452E-06
vn -0.954561 0 -0.2980156
vn -0.8528852 0 -0.5220984
vn 2.06452E-06 0 -1
vn 0 -1 0
vn -0.8293579 0 0.5587178
vn 0.5100965 0.7071068 0.4896953
vn -0.5100965 0.7071068 -0.4896953
vn 0.3950732 0.7071068 0.5864446
vn -0.3950732 0.7071068 -0.5864446
vn 0.7213855 0 0.6925338
vn 0.5587178 0 0.8293579
vn -0.7213855 0 -0.6925338
vn -0.5587178 0 -0.8293579
vn 0.5220984 0 -0.8528852
vn -0.9979642 0 0.06377482
vn 0.245397 0.7071068 0.6631594
vn -0.245397 0.7071068 -0.6631594
vn 0.04509562 0.7071068 0.7056673
vn -0.04509562 0.7071068 -0.7056673
vn 0.3470438 0 0.937849
vn 0.06377482 0 0.9979642
vn -0.3470438 0 -0.937849
vn -0.06377482 0 -0.9979642
vn 0.8293579 0 -0.5587178
vn -0.9999999 0 2.205372E-06
vn 1.549721E-06 0.7071068 0.7071067
vn -1.549721E-06 0.7071068 -0.7071067
vn 2.205372E-06 0 0.9999999
vn -2.205372E-06 0 -0.9999999
vn 0.9979642 0 -0.06377482

vt 0.96875 0.025
vt 0.96875 0.225

usemtl colormap

f 3/2/1 2/1/1 1/1/1
f 2/1/1 3/2/1 4/2/1
f 7/2/4 6/2/3 5/2/2
f 6/2/3 7/2/4 8/2/5
f 8/2/5 3/2/6 6/2/3
f 3/2/6 8/2/5 4/2/7
f 6/2/3 9/1/8 5/2/2
f 9/1/8 6/2/3 10/1/9
f 3/2/6 10/1/9 6/2/3
f 10/1/9 3/2/6 1/1/10
f 12/1/12 7/2/4 11/1/11
f 7/2/4 12/1/12 8/2/5
f 2/1/13 8/2/5 12/1/12
f 8/2/5 2/1/13 4/2/7
f 7/2/14 9/1/14 11/1/14
f 9/1/14 7/2/14 5/2/14
f 2/1/15 10/1/15 1/1/15
f 10/1/15 2/1/15 12/1/15
f 12/1/15 9/1/15 10/1/15
f 9/1/15 12/1/15 11/1/15
f 15/2/1 14/1/1 13/1/1
f 14/1/1 15/2/1 16/2/1
f 19/2/4 18/2/3 17/2/2
f 18/2/3 19/2/4 20/2/5
f 20/2/5 15/2/6 18/2/3
f 15/2/6 20/2/5 16/2/7
f 18/2/3 21/1/8 17/2/2
f 21/1/8 18/2/3 22/1/9
f 15/2/6 22/1/9 18/2/3
f 22/1/9 15/2/6 13/1/10
f 24/1/12 19/2/4 23/1/11
f 19/2/4 24/1/12 20/2/5
f 14/1/13 20/2/5 24/1/12
f 20/2/5 14/1/13 16/2/7
f 19/2/14 21/1/14 23/1/14
f 21/1/14 19/2/14 17/2/14
f 14/1/15 22/1/15 13/1/15
f 22/1/15 14/1/15 24/1/15
f 24/1/15 21/1/15 22/1/15
f 21/1/15 24/1/15 23/1/15
f 27/2/16 26/1/16 25/1/16
f 26/1/16 27/2/16 28/2/16
f 4/2/7 29/2/17 3/2/6
f 29/2/17 4/2/7 30/2/18
f 30/2/18 27/2/19 29/2/17
f 27/2/19 30/2/18 28/2/20
f 29/2/17 1/1/10 3/2/6
f 1/1/10 29/2/17 31/1/21
f 27/2/19 31/1/21 29/2/17
f 31/1/21 27/2/19 25/1/22
f 32/1/23 4/2/7 2/1/13
f 4/2/7 32/1/23 30/2/18
f 26/1/24 30/2/18 32/1/23
f 30/2/18 26/1/24 28/2/20
f 4/2/25 1/1/25 2/1/25
f 1/1/25 4/2/25 3/2/25
f 26/1/15 31/1/15 25/1/15
f 31/1/15 26/1/15 32/1/15
f 32/1/15 1/1/15 31/1/15
f 1/1/15 32/1/15 2/1/15
f 35/2/16 34/1/16 33/1/16
f 34/1/16 35/2/16 36/2/16
f 16/2/7 37/2/17 15/2/6
f 37/2/17 16/2/7 38/2/18
f 38/2/18 35/2/19 37/2/17
f 35/2/19 38/2/18 36/2/20
f 37/2/17 13/1/10 15/2/6
f 13/1/10 37/2/17 39/1/21
f 35/2/19 39/1/21 37/2/17
f 39/1/21 35/2/19 33/1/22
f 40/1/23 16/2/7 14/1/13
f 16/2/7 40/1/23 38/2/18
f 34/1/24 38/2/18 40/1/23
f 38/2/18 34/1/24 36/2/20
f 16/2/25 13/1/25 14/1/25
f 13/1/25 16/2/25 15/2/25
f 34/1/15 39/1/15 33/1/15
f 39/1/15 34/1/15 40/1/15
f 40/1/15 13/1/15 39/1/15
f 13/1/15 40/1/15 14/1/15
f 43/2/26 42/1/26 41/1/26
f 42/1/26 43/2/26 44/2/26
f 28/2/20 45/2/27 27/2/19
f 45/2/27 28/2/20 46/2/28
f 46/2/28 43/2/29 45/2/27
f 43/2/29 46/2/28 44/2/30
f 45/2/27 25/1/22 27/2/19
f 25/1/22 45/2/27 47/1/31
f 43/2/29 47/1/31 45/2/27
f 47/1/31 43/2/29 41/1/32
f 48/1/33 28/2/20 26/1/24
f 28/2/20 48/1/33 46/2/28
f 42/1/34 46/2/28 48/1/33
f 46/2/28 42/1/34 44/2/30
f 28/2/35 25/1/35 26/1/35
f 25/1/35 28/2/35 27/2/35
f 42/1/15 47/1/15 41/1/15
f 47/1/15 42/1/15 48/1/15
f 48/1/15 25/1/15 47/1/15
f 25/1/15 48/1/15 26/1/15
f 51/2/26 50/1/26 49/1/26
f 50/1/26 51/2/26 52/2/26
f 36/2/20 53/2/27 35/2/19
f 53/2/27 36/2/20 54/2/28
f 54/2/28 51/2/29 53/2/27
f 51/2/29 54/2/28 52/2/30
f 53/2/27 33/1/22 35/2/19
f 33/1/22 53/2/27 55/1/31
f 51/2/29 55/1/31 53/2/27
f 55/1/31 51/2/29 49/1/32
f 56/1/33 36/2/20 34/1/24
f 36/2/20 56/1/33 54/2/28
f 50/1/34 54/2/28 56/1/33
f 54/2/28 50/1/34 52/2/30
f 36/2/35 33/1/35 34/1/35
f 33/1/35 36/2/35 35/2/35
f 50/1/15 55/1/15 49/1/15
f 55/1/15 50/1/15 56/1/15
f 56/1/15 33/1/15 55/1/15
f 33/1/15 56/1/15 34/1/15
f 59/2/36 58/1/36 57/1/36
f 58/1/36 59/2/36 60/2/36
f 44/2/30 59/2/37 43/2/29
f 59/2/37 44/2/30 60/2/38
f 60/2/38 59/2/37 59/2/37
f 59/2/37 60/2/38 60/2/38
f 59/2/37 41/1/32 43/2/29
f 41/1/32 59/2/37 57/1/39
f 59/2/37 57/1/39 59/2/37
f 57/1/39 59/2/37 57/1/39
f 58/1/40 44/2/30 42/1/34
f 44/2/30 58/1/40 60/2/38
f 58/1/40 60/2/38 58/1/40
f 60/2/38 58/1/40 60/2/38
f 44/2/41 41/1/41 42/1/41
f 41/1/41 44/2/41 43/2/41
f 58/1/15 57/1/15 57/1/15
f 57/1/15 58/1/15 58/1/15
f 58/1/15 41/1/15 57/1/15
f 41/1/15 58/1/15 42/1/15
f 63/2/36 62/1/36 61/1/36
f 62/1/36 63/2/36 64/2/36
f 52/2/30 63/2/37 51/2/29
f 63/2/37 52/2/30 64/2/38
f 64/2/38 63/2/37 63/2/37
f 63/2/37 64/2/38 64/2/38
f 63/2/37 49/1/32 51/2/29
f 49/1/32 63/2/37 61/1/39
f 63/2/37 61/1/39 63/2/37
f 61/1/39 63/2/37 61/1/39
f 62/1/40 52/2/30 50/1/34
f 52/2/30 62/1/40 64/2/38
f 62/1/40 64/2/38 62/1/40
f 64/2/38 62/1/40 64/2/38
f 52/2/41 49/1/41 50/1/41
f 49/1/41 52/2/41 51/2/41
f 62/1/15 61/1/15 61/1/15
f 61/1/15 62/1/15 62/1/15
f 62/1/15 49/1/15 61/1/15
f 49/1/15 62/1/15 50/1/15

g railroad-rail-corner-small




usemtl colormap

f 3/2/1 2/1/1 1/1/1
f 2/1/1 3/2/1 4/2/1
f 7/2/4 6/2/3 5/2/2
f 6/2/3 7/2/4 8/2/5
f 8/2/5 3/2/6 6/2/3
f 3/2/6 8/2/5 4/2/7
f 6/2/3 9/1/8 5/2/2
f 9/1/8 6/2/3 10/1/9
f 3/2/6 10/1/9 6/2/3
f 10/1/9 3/2/6 1/1/10
f 12/1/12 7/2/4 11/1/11
f 7/2/4 12/1/12 8/2/5
f 2/1/13 8/2/5 12/1/12
f 8/2/5 2/1/13 4/2/7
f 7/2/14 9/1/14 11/1/14
f 9/1/14 7/2/14 5/2/14
f 2/1/15 10/1/15 1/1/15
f 10/1/15 2/1/15 12/1/15
f 12/1/15 9/1/15 10/1/15
f 9/1/15 12/1/15 11/1/15
f 15/2/1 14/1/1 13/1/1
f 14/1/1 15/2/1 16/2/1
f 19/2/4 18/2/3 17/2/2
f 18/2/3 19/2/4 20/2/5
f 20/2/5 15/2/6 18/2/3
f 15/2/6 20/2/5 16/2/7
f 18/2/3 21/1/8 17/2/2
f 21/1/8 18/2/3 22/1/9
f 15/2/6 22/1/9 18/2/3
f 22/1/9 15/2/6 13/1/10
f 24/1/12 19/2/4 23/1/11
f 19/2/4 24/1/12 20/2/5
f 14/1/13 20/2/5 24/1/12
f 20/2/5 14/1/13 16/2/7
f 19/2/14 21/1/14 23/1/14
f 21/1/14 19/2/14 17/2/14
f 14/1/15 22/1/15 13/1/15
f 22/1/15 14/1/15 24/1/15
f 24/1/15 21/1/15 22/1/15
f 21/1/15 24/1/15 23/1/15
f 27/2/16 26/1/16 25/1/16
f 26/1/16 27/2/16 28/2/16
f 4/2/7 29/2/17 3/2/6
f 29/2/17 4/2/7 30/2/18
f 30/2/18 27/2/19 29/2/17
f 27/2/19 30/2/18 28/2/20
f 29/2/17 1/1/10 3/2/6
f 1/1/10 29/2/17 31/1/21
f 27/2/19 31/1/21 29/2/17
f 31/1/21 27/2/19 25/1/22
f 32/1/23 4/2/7 2/1/13
f 4/2/7 32/1/23 30/2/18
f 26/1/24 30/2/18 32/1/23
f 30/2/18 26/1/24 28/2/20
f 4/2/25 1/1/25 2/1/25
f 1/1/25 4/2/25 3/2/25
f 26/1/15 31/1/15 25/1/15
f 31/1/15 26/1/15 32/1/15
f 32/1/15 1/1/15 31/1/15
f 1/1/15 32/1/15 2/1/15
f 35/2/16 34/1/16 33/1/16
f 34/1/16 35/2/16 36/2/16
f 16/2/7 37/2/17 15/2/6
f 37/2/17 16/2/7 38/2/18
f 38/2/18 35/2/19 37/2/17
f 35/2/19 38/2/18 36/2/20
f 37/2/17 13/1/10 15/2/6
f 13/1/10 37/2/17 39/1/21
f 35/2/19 39/1/21 37/2/17
f 39/1/21 35/2/19 33/1/22
f 40/1/23 16/2/7 14/1/13
f 16/2/7 40/1/23 38/2/18
f 34/1/24 38/2/18 40/1/23
f 38/2/18 34/1/24 36/2/20
f 16/2/25 13/1/25 14/1/25
f 13/1/25 16/2/25 15/2/25
f 34/1/15 39/1/15 33/1/15
f 39/1/15 34/1/15 40/1/15
f 40/1/15 13/1/15 39/1/15
f 13/1/15 40/1/15 14/1/15
f 43/2/26 42/1/26 41/1/26
f 42/1/26 43/2/26 44/2/26
f 28/2/20 45/2/27 27/2/19
f 45/2/27 28/2/20 46/2/28
f 46/2/28 43/2/29 45/2/27
f 43/2/29 46/2/28 44/2/30
f 45/2/27 25/1/22 27/2/19
f 25/1/22 45/2/27 47/1/31
f 43/2/29 47/1/31 45/2/27
f 47/1/31 43/2/29 41/1/32
f 48/1/33 28/2/20 26/1/24
f 28/2/20 48/1/33 46/2/28
f 42/1/34 46/2/28 48/1/33
f 46/2/28 42/1/34 44/2/30
f 28/2/35 25/1/35 26/1/35
f 25/1/35 28/2/35 27/2/35
f 42/1/15 47/1/15 41/1/15
f 47/1/15 42/1/15 48/1/15
f 48/1/15 25/1/15 47/1/15
f 25/1/15 48/1/15 26/1/15
f 51/2/26 50/1/26 49/1/26
f 50/1/26 51/2/26 52/2/26
f 36/2/20 53/2/27 35/2/19
f 53/2/27 36/2/20 54/2/28
f 54/2/28 51/2/29 53/2/27
f 51/2/29 54/2/28 52/2/30
f 53/2/27 33/1/22 35/2/19
f 33/1/22 53/2/27 55/1/31
f 51/2/29 55/1/31 53/2/27
f 55/1/31 51/2/29 49/1/32
f 56/1/33 36/2/20 34/1/24
f 36/2/20 56/1/33 54/2/28
f 50/1/34 54/2/28 56/1/33
f 54/2/28 50/1/34 52/2/30
f 36/2/35 33/1/35 34/1/35
f 33/1/35 36/2/35 35/2/35
f 50/1/15 55/1/15 49/1/15
f 55/1/15 50/1/15 56/1/15
f 56/1/15 33/1/15 55/1/15
f 33/1/15 56/1/15 34/1/15
f 59/2/36 58/1/36 57/1/36
f 58/1/36 59/2/36 60/2/36
f 44/2/30 59/2/37 43/2/29
f 59/2/37 44/2/30 60/2/38
f 60/2/38 59/2/37 59/2/37
f 59/2/37 60/2/38 60/2/38
f 59/2/37 41/1/32 43/2/29
f 41/1/32 59/2/37 57/1/39
f 59/2/37 57/1/39 59/2/37
f 57/1/39 59/2/37 57/1/39
f 58/1/40 44/2/30 42/1/34
f 44/2/30 58/1/40 60/2/38
f 58/1/40 60/2/38 58/1/40
f 60/2/38 58/1/40 60/2/38
f 44/2/41 41/1/41 42/1/41
f 41/1/41 44/2/41 43/2/41
f 58/1/15 57/1/15 57/1/15
f 57/1/15 58/1/15 58/1/15
f 58/1/15 41/1/15 57/1/15
f 41/1/15 58/1/15 42/1/15
f 63/2/36 62/1/36 61/1/36
f 62/1/36 63/2/36 64/2/36
f 52/2/30 63/2/37 51/2/29
f 63/2/37 52/2/30 64/2/38
f 64/2/38 63/2/37 63/2/37
f 63/2/37 64/2/38 64/2/38
f 63/2/37 49/1/32 51/2/29
f 49/1/32 63/2/37 61/1/39
f 63/2/37 61/1/39 63/2/37
f 61/1/39 63/2/37 61/1/39
f 62/1/40 52/2/30 50/1/34
f 52/2/30 62/1/40 64/2/38
f 62/1/40 64/2/38 62/1/40
f 64/2/38 62/1/40 64/2/38
f 52/2/41 49/1/41 50/1/41
f 49/1/41 52/2/41 51/2/41
f 62/1/15 61/1/15 61/1/15
f 61/1/15 62/1/15 62/1/15
f 62/1/15 49/1/15 61/1/15
f 49/1/15 62/1/15 50/1/15

