# Created by Kenney (www.kenney.nl)

mtllib railroad-rail-corner-large-ramp.mtl

g railroad-rail-corner-large-ramp

v 0.1795964 0.06650329 1.085567 1 1 1
v 0.08419836 0.06826222 1.055632 1 1 1
v 0.1852717 0.165586 1.073303 1 1 1
v 0.08987361 0.1673448 1.043368 1 1 1
v 0.35 0.0999999 6.914139E-06 1 1 1
v 0.3077894 0.1144587 0.5458212 1 1 1
v 0.25 0.0999999 6.67572E-06 1 1 1
v 0.2090766 0.1158309 0.5298872 1 1 1
v 0.35 -1.192093E-07 6.914139E-06 1 1 1
v 0.305235 0.0147537 0.5530589 1 1 1
v 0.25 0 6.914139E-06 1 1 1
v 0.2065222 0.01612592 0.5371249 1 1 1
v -0.3927922 0.07705665 0.9059572 1 1 1
v -0.4881904 0.07881558 0.8760221 1 1 1
v -0.3871169 0.1761394 0.8936927 1 1 1
v -0.4825151 0.1778983 0.8637576 1 1 1
v -0.25 0.1 5.722046E-06 1 1 1
v -0.2844876 0.1226923 0.4502172 1 1 1
v -0.35 0.1000001 5.483627E-06 1 1 1
v -0.3832005 0.1240647 0.4342833 1 1 1
v -0.25 1.192093E-07 5.722046E-06 1 1 1
v -0.287042 0.02298737 0.4574552 1 1 1
v -0.35 1.192093E-07 5.483627E-06 1 1 1
v -0.3857549 0.0243597 0.4415212 1 1 1
v -0.2623129 0.2423806 2.057001 1 1 1
v -0.3476863 0.2435908 2.004944 1 1 1
v -0.2506429 0.3402553 2.040137 1 1 1
v -0.3360162 0.3414655 1.988081 1 1 1
v -0.004607677 0.2436541 1.57285 1 1 1
v -0.09540153 0.2452633 1.53097 1 1 1
v -0.01342857 0.1452324 1.588192 1 1 1
v -0.1042225 0.1468416 1.546312 1 1 1
v -0.7745533 0.249642 1.744659 1 1 1
v -0.8599267 0.2508523 1.692603 1 1 1
v -0.7628832 0.3475165 1.727796 1 1 1
v -0.8482566 0.3487269 1.675739 1 1 1
v -0.549371 0.2533094 1.321573 1 1 1
v -0.6401649 0.2549186 1.279694 1 1 1
v -0.5581918 0.1548877 1.336915 1 1 1
v -0.6489857 0.1564969 1.295036 1 1 1
v -0.8973454 0.4662838 2.889173 1 1 1
v -0.970086 0.4664419 2.820552 1 1 1
v -0.8815167 0.5636253 2.872618 1 1 1
v -0.9542572 0.5637836 2.803998 1 1 1
v -0.5448033 0.4487528 2.473793 1 1 1
v -0.6241492 0.4494561 2.412934 1 1 1
v -0.5588466 0.3512461 2.490975 1 1 1
v -0.6381925 0.3519495 2.430117 1 1 1
v -1.333788 0.4672329 2.477448 1 1 1
v -1.406529 0.467391 2.408828 1 1 1
v -1.31796 0.5645745 2.460894 1 1 1
v -1.3907 0.5647328 2.392273 1 1 1
v -1.020879 0.4529731 2.108643 1 1 1
v -1.100225 0.4536765 2.047785 1 1 1
v -1.034922 0.3554664 2.125826 1 1 1
v -1.114268 0.3561698 2.064967 1 1 1
v -1.687664 0.6956973 3.571549 1 1 1
v -1.744956 0.6947728 3.489594 1 1 1
v -1.670487 0.793335 3.558441 1 1 1
v -1.72778 0.7924106 3.476485 1 1 1
v -1.257324 0.6800331 3.23503 1 1 1
v -1.322782 0.6796409 3.159431 1 1 1
v -1.274245 0.5826473 3.250186 1 1 1
v -1.339702 0.5822551 3.174587 1 1 1
v -2.031418 0.6901511 3.079816 1 1 1
v -2.088711 0.6892266 2.99786 1 1 1
v -2.014242 0.7877889 3.066707 1 1 1
v -2.071535 0.7868645 2.984752 1 1 1
v -1.650068 0.67768 2.781437 1 1 1
v -1.715525 0.6772878 2.705838 1 1 1
v -1.666988 0.5802941 2.796593 1 1 1
v -1.732445 0.5799019 2.720994 1 1 1
v -2.619742 0.8905759 4.075366 1 1 1
v -2.656819 0.8888837 3.982509 1 1 1
v -2.605477 0.9892689 4.067871 1 1 1
v -2.642554 0.9875767 3.975014 1 1 1
v -2.120109 0.8984356 3.83835 1 1 1
v -2.168062 0.8970438 3.750609 1 1 1
v -2.136498 0.8003497 3.848864 1 1 1
v -2.184452 0.7989579 3.761122 1 1 1
v -2.842206 0.8804233 3.518224 1 1 1
v -2.879283 0.8787313 3.425366 1 1 1
v -2.82794 0.9791164 3.510729 1 1 1
v -2.865017 0.9774243 3.417872 1 1 1
v -2.407832 0.8900851 3.311904 1 1 1
v -2.455786 0.8886933 3.224163 1 1 1
v -2.424222 0.7919991 3.322417 1 1 1
v -2.472175 0.7906075 3.234676 1 1 1
v -3.678397 0.9967425 4.334743 1 1 1
v -3.687819 0.9957504 4.235193 1 1 1
v -3.673943 1.096633 4.333326 1 1 1
v -3.683364 1.095641 4.233776 1 1 1
v -3.125226 1.058455 4.237221 1 1 1
v -3.149516 1.05679 4.14023 1 1 1
v -3.135635 0.9590924 4.241534 1 1 1
v -3.159925 0.9574265 4.144543 1 1 1
v -3.734927 0.9907901 3.737442 1 1 1
v -3.744349 0.9897981 3.637891 1 1 1
v -3.730473 1.090681 3.736024 1 1 1
v -3.739894 1.089689 3.636474 1 1 1
v -3.270963 1.048461 3.655274 1 1 1
v -3.295252 1.046795 3.558284 1 1 1
v -3.281372 0.9490976 3.659588 1 1 1
v -3.305661 0.9474318 3.562597 1 1 1
v -3.999993 1 4.35 1 1 1
v -3.999993 1 4.25 1 1 1
v -3.999993 1.1 4.35 1 1 1
v -3.999993 1.1 4.25 1 1 1
v -3.999994 1 3.75 1 1 1
v -3.999995 0.9999999 3.65 1 1 1
v -3.999994 1.1 3.75 1 1 1
v -3.999994 1.1 3.65 1 1 1

vn -0.2944471 0.1339888 0.9462283
vn 0.707107 0.7071065 7.409483E-07
vn 0.7160676 0.6953173 0.06149064
vn -0.7071065 0.707107 -2.222842E-06
vn -0.6799428 0.7147244 -0.1638496
vn 0.7146968 0.688183 0.1249504
vn -0.6344362 0.7130576 -0.2983948
vn 1 -3.038888E-07 2.095716E-06
vn 0.9871284 -0.0137229 0.1593397
vn 0.9539812 -0.017589 0.2993503
vn -1 3.038888E-07 -2.095716E-06
vn -0.9871284 0.0137229 -0.1593397
vn -0.9539812 0.017589 -0.2993503
vn 2.095716E-06 -1.047857E-06 -1
vn -0.05675278 -0.9908267 0.1226437
vn -0.02554402 -0.99705 0.07237874
vn -3.03891E-07 -1 1.047857E-06
vn -0.5074638 0.2047206 0.8370006
vn 0.7043828 0.6845675 0.1876495
vn -0.5796365 0.707325 -0.4046145
vn 0.686201 0.68352 0.2488547
vn -0.521161 0.7006353 -0.4873411
vn 0.9079387 -0.01609198 0.4187939
vn 0.8537338 -0.01210236 0.520569
vn -0.9079387 0.01609198 -0.4187939
vn -0.8537338 0.01210236 -0.520569
vn 0.2944471 -0.1339888 -0.9462283
vn -0.1167009 -0.9787456 0.1686354
vn -0.08820891 -0.9842166 0.1534175
vn -0.6677031 0.2290374 0.7083181
vn 0.6603615 0.6845025 0.3088349
vn -0.4617593 0.69445 -0.5518311
vn 0.626279 0.6871907 0.3681624
vn -0.4024267 0.6894279 -0.6022806
vn 0.7934593 -0.007033929 0.6085828
vn 0.7274047 -0.001581892 0.6862069
vn -0.7934593 0.007033929 -0.6085828
vn -0.7274047 0.001581892 -0.6862069
vn 0.5074638 -0.2047206 -0.8370006
vn -0.1582875 -0.9734163 0.1655467
vn -0.1404329 -0.9750667 0.1718243
vn -0.8014084 0.2158712 0.557803
vn 0.5824985 0.6913949 0.4273974
vn -0.3432067 0.6858487 -0.6417326
vn 0.5265729 0.6969398 0.4868222
vn -0.2836643 0.6838673 -0.6722053
vn 0.6545724 0.003921807 0.7559891
vn 0.5729243 0.009243593 0.8195562
vn -0.6545724 -0.003921807 -0.7559891
vn -0.5729243 -0.009243593 -0.8195562
vn 0.6677031 -0.2290374 -0.7083181
vn -0.1717624 -0.9763781 0.1310857
vn -0.1692048 -0.9738583 0.1515579
vn -0.9177021 0.1602543 0.3635123
vn 0.4549769 0.7034135 0.5460819
vn -0.2231937 0.6837311 -0.6947635
vn 0.3630486 0.7098302 0.6036031
vn -0.161302 0.6859006 -0.7095928
vn 0.479539 0.01391757 0.8774102
vn 0.3707719 0.01692085 0.9285697
vn -0.479539 -0.01391757 -0.8774102
vn -0.3707719 -0.01692085 -0.9285697
vn 0.8014084 -0.2158712 -0.557803
vn -0.1426564 -0.9869307 0.07494609
vn -0.1638954 -0.9808594 0.1051338
vn -0.9945548 0.0456804 0.09367132
vn 0.2453541 0.7143829 0.6553307
vn -0.09814924 0.6908252 -0.7163289
vn 0.09811944 0.7133487 0.6939065
vn -0.03512245 0.6993188 -0.7139465
vn 0.2428935 0.01665774 0.9699099
vn 0.09421623 0.009920606 0.9955025
vn -0.2428935 -0.01665774 -0.9699099
vn -0.09421623 -0.009920606 -0.9955025
vn 0.9177021 -0.1602543 -0.3635123
vn -0.04454567 -0.9989069 0.01417043
vn -0.1040896 -0.9936322 0.0431322
vn -0.9999999 9.934106E-07 2.384186E-06
vn 2.384186E-06 0.707107 0.7071065
vn -9.536743E-07 0.7071065 -0.7071069
vn 2.384186E-06 3.403589E-07 0.9999999
vn -2.384186E-06 -3.403589E-07 -0.9999999
vn 0.9945548 -0.0456804 -0.09367132
vn -9.934099E-07 -1 3.403611E-07

vt 0.96875 0.025
vt 0.96875 0.225

usemtl colormap

f 3/2/1 2/1/1 1/1/1
f 2/1/1 3/2/1 4/2/1
f 7/2/4 6/2/3 5/2/2
f 6/2/3 7/2/4 8/2/5
f 8/2/5 3/2/6 6/2/3
f 3/2/6 8/2/5 4/2/7
f 6/2/3 9/1/8 5/2/2
f 9/1/8 6/2/3 10/1/9
f 3/2/6 10/1/9 6/2/3
f 10/1/9 3/2/6 1/1/10
f 12/1/12 7/2/4 11/1/11
f 7/2/4 12/1/12 8/2/5
f 2/1/13 8/2/5 12/1/12
f 8/2/5 2/1/13 4/2/7
f 7/2/14 9/1/14 11/1/14
f 9/1/14 7/2/14 5/2/14
f 2/1/15 10/1/16 1/1/15
f 10/1/16 2/1/15 12/1/16
f 12/1/16 9/1/17 10/1/16
f 9/1/17 12/1/16 11/1/17
f 15/2/1 14/1/1 13/1/1
f 14/1/1 15/2/1 16/2/1
f 19/2/4 18/2/3 17/2/2
f 18/2/3 19/2/4 20/2/5
f 20/2/5 15/2/6 18/2/3
f 15/2/6 20/2/5 16/2/7
f 18/2/3 21/1/8 17/2/2
f 21/1/8 18/2/3 22/1/9
f 15/2/6 22/1/9 18/2/3
f 22/1/9 15/2/6 13/1/10
f 24/1/12 19/2/4 23/1/11
f 19/2/4 24/1/12 20/2/5
f 14/1/13 20/2/5 24/1/12
f 20/2/5 14/1/13 16/2/7
f 19/2/14 21/1/14 23/1/14
f 21/1/14 19/2/14 17/2/14
f 14/1/15 22/1/16 13/1/15
f 22/1/16 14/1/15 24/1/16
f 24/1/16 21/1/17 22/1/16
f 21/1/17 24/1/16 23/1/17
f 27/2/18 26/1/18 25/1/18
f 26/1/18 27/2/18 28/2/18
f 4/2/7 29/2/19 3/2/6
f 29/2/19 4/2/7 30/2/20
f 30/2/20 27/2/21 29/2/19
f 27/2/21 30/2/20 28/2/22
f 29/2/19 1/1/10 3/2/6
f 1/1/10 29/2/19 31/1/23
f 27/2/21 31/1/23 29/2/19
f 31/1/23 27/2/21 25/1/24
f 32/1/25 4/2/7 2/1/13
f 4/2/7 32/1/25 30/2/20
f 26/1/26 30/2/20 32/1/25
f 30/2/20 26/1/26 28/2/22
f 4/2/27 1/1/27 2/1/27
f 1/1/27 4/2/27 3/2/27
f 26/1/28 31/1/29 25/1/28
f 31/1/29 26/1/28 32/1/29
f 32/1/29 1/1/15 31/1/29
f 1/1/15 32/1/29 2/1/15
f 35/2/18 34/1/18 33/1/18
f 34/1/18 35/2/18 36/2/18
f 16/2/7 37/2/19 15/2/6
f 37/2/19 16/2/7 38/2/20
f 38/2/20 35/2/21 37/2/19
f 35/2/21 38/2/20 36/2/22
f 37/2/19 13/1/10 15/2/6
f 13/1/10 37/2/19 39/1/23
f 35/2/21 39/1/23 37/2/19
f 39/1/23 35/2/21 33/1/24
f 40/1/25 16/2/7 14/1/13
f 16/2/7 40/1/25 38/2/20
f 34/1/26 38/2/20 40/1/25
f 38/2/20 34/1/26 36/2/22
f 16/2/27 13/1/27 14/1/27
f 13/1/27 16/2/27 15/2/27
f 34/1/28 39/1/29 33/1/28
f 39/1/29 34/1/28 40/1/29
f 40/1/29 13/1/15 39/1/29
f 13/1/15 40/1/29 14/1/15
f 43/2/30 42/1/30 41/1/30
f 42/1/30 43/2/30 44/2/30
f 28/2/22 45/2/31 27/2/21
f 45/2/31 28/2/22 46/2/32
f 46/2/32 43/2/33 45/2/31
f 43/2/33 46/2/32 44/2/34
f 45/2/31 25/1/24 27/2/21
f 25/1/24 45/2/31 47/1/35
f 43/2/33 47/1/35 45/2/31
f 47/1/35 43/2/33 41/1/36
f 48/1/37 28/2/22 26/1/26
f 28/2/22 48/1/37 46/2/32
f 42/1/38 46/2/32 48/1/37
f 46/2/32 42/1/38 44/2/34
f 28/2/39 25/1/39 26/1/39
f 25/1/39 28/2/39 27/2/39
f 42/1/40 47/1/41 41/1/40
f 47/1/41 42/1/40 48/1/41
f 48/1/41 25/1/28 47/1/41
f 25/1/28 48/1/41 26/1/28
f 51/2/30 50/1/30 49/1/30
f 50/1/30 51/2/30 52/2/30
f 36/2/22 53/2/31 35/2/21
f 53/2/31 36/2/22 54/2/32
f 54/2/32 51/2/33 53/2/31
f 51/2/33 54/2/32 52/2/34
f 53/2/31 33/1/24 35/2/21
f 33/1/24 53/2/31 55/1/35
f 51/2/33 55/1/35 53/2/31
f 55/1/35 51/2/33 49/1/36
f 56/1/37 36/2/22 34/1/26
f 36/2/22 56/1/37 54/2/32
f 50/1/38 54/2/32 56/1/37
f 54/2/32 50/1/38 52/2/34
f 36/2/39 33/1/39 34/1/39
f 33/1/39 36/2/39 35/2/39
f 50/1/40 55/1/41 49/1/40
f 55/1/41 50/1/40 56/1/41
f 56/1/41 33/1/28 55/1/41
f 33/1/28 56/1/41 34/1/28
f 59/2/42 58/1/42 57/1/42
f 58/1/42 59/2/42 60/2/42
f 44/2/34 61/2/43 43/2/33
f 61/2/43 44/2/34 62/2/44
f 62/2/44 59/2/45 61/2/43
f 59/2/45 62/2/44 60/2/46
f 61/2/43 41/1/36 43/2/33
f 41/1/36 61/2/43 63/1/47
f 59/2/45 63/1/47 61/2/43
f 63/1/47 59/2/45 57/1/48
f 64/1/49 44/2/34 42/1/38
f 44/2/34 64/1/49 62/2/44
f 58/1/50 62/2/44 64/1/49
f 62/2/44 58/1/50 60/2/46
f 44/2/51 41/1/51 42/1/51
f 41/1/51 44/2/51 43/2/51
f 58/1/52 63/1/53 57/1/52
f 63/1/53 58/1/52 64/1/53
f 64/1/53 41/1/40 63/1/53
f 41/1/40 64/1/53 42/1/40
f 67/2/42 66/1/42 65/1/42
f 66/1/42 67/2/42 68/2/42
f 52/2/34 69/2/43 51/2/33
f 69/2/43 52/2/34 70/2/44
f 70/2/44 67/2/45 69/2/43
f 67/2/45 70/2/44 68/2/46
f 69/2/43 49/1/36 51/2/33
f 49/1/36 69/2/43 71/1/47
f 67/2/45 71/1/47 69/2/43
f 71/1/47 67/2/45 65/1/48
f 72/1/49 52/2/34 50/1/38
f 52/2/34 72/1/49 70/2/44
f 66/1/50 70/2/44 72/1/49
f 70/2/44 66/1/50 68/2/46
f 52/2/51 49/1/51 50/1/51
f 49/1/51 52/2/51 51/2/51
f 66/1/52 71/1/53 65/1/52
f 71/1/53 66/1/52 72/1/53
f 72/1/53 49/1/40 71/1/53
f 49/1/40 72/1/53 50/1/40
f 75/2/54 74/1/54 73/1/54
f 74/1/54 75/2/54 76/2/54
f 60/2/46 77/2/55 59/2/45
f 77/2/55 60/2/46 78/2/56
f 78/2/56 75/2/57 77/2/55
f 75/2/57 78/2/56 76/2/58
f 77/2/55 57/1/48 59/2/45
f 57/1/48 77/2/55 79/1/59
f 75/2/57 79/1/59 77/2/55
f 79/1/59 75/2/57 73/1/60
f 80/1/61 60/2/46 58/1/50
f 60/2/46 80/1/61 78/2/56
f 74/1/62 78/2/56 80/1/61
f 78/2/56 74/1/62 76/2/58
f 60/2/63 57/1/63 58/1/63
f 57/1/63 60/2/63 59/2/63
f 74/1/64 79/1/65 73/1/64
f 79/1/65 74/1/64 80/1/65
f 80/1/65 57/1/52 79/1/65
f 57/1/52 80/1/65 58/1/52
f 83/2/54 82/1/54 81/1/54
f 82/1/54 83/2/54 84/2/54
f 68/2/46 85/2/55 67/2/45
f 85/2/55 68/2/46 86/2/56
f 86/2/56 83/2/57 85/2/55
f 83/2/57 86/2/56 84/2/58
f 85/2/55 65/1/48 67/2/45
f 65/1/48 85/2/55 87/1/59
f 83/2/57 87/1/59 85/2/55
f 87/1/59 83/2/57 81/1/60
f 88/1/61 68/2/46 66/1/50
f 68/2/46 88/1/61 86/2/56
f 82/1/62 86/2/56 88/1/61
f 86/2/56 82/1/62 84/2/58
f 68/2/63 65/1/63 66/1/63
f 65/1/63 68/2/63 67/2/63
f 82/1/64 87/1/65 81/1/64
f 87/1/65 82/1/64 88/1/65
f 88/1/65 65/1/52 87/1/65
f 65/1/52 88/1/65 66/1/52
f 91/2/66 90/1/66 89/1/66
f 90/1/66 91/2/66 92/2/66
f 76/2/58 93/2/67 75/2/57
f 93/2/67 76/2/58 94/2/68
f 94/2/68 91/2/69 93/2/67
f 91/2/69 94/2/68 92/2/70
f 93/2/67 73/1/60 75/2/57
f 73/1/60 93/2/67 95/1/71
f 91/2/69 95/1/71 93/2/67
f 95/1/71 91/2/69 89/1/72
f 96/1/73 76/2/58 74/1/62
f 76/2/58 96/1/73 94/2/68
f 90/1/74 94/2/68 96/1/73
f 94/2/68 90/1/74 92/2/70
f 76/2/75 73/1/75 74/1/75
f 73/1/75 76/2/75 75/2/75
f 90/1/76 95/1/77 89/1/76
f 95/1/77 90/1/76 96/1/77
f 96/1/77 73/1/64 95/1/77
f 73/1/64 96/1/77 74/1/64
f 99/2/66 98/1/66 97/1/66
f 98/1/66 99/2/66 100/2/66
f 84/2/58 101/2/67 83/2/57
f 101/2/67 84/2/58 102/2/68
f 102/2/68 99/2/69 101/2/67
f 99/2/69 102/2/68 100/2/70
f 101/2/67 81/1/60 83/2/57
f 81/1/60 101/2/67 103/1/71
f 99/2/69 103/1/71 101/2/67
f 103/1/71 99/2/69 97/1/72
f 104/1/73 84/2/58 82/1/62
f 84/2/58 104/1/73 102/2/68
f 98/1/74 102/2/68 104/1/73
f 102/2/68 98/1/74 100/2/70
f 84/2/75 81/1/75 82/1/75
f 81/1/75 84/2/75 83/2/75
f 98/1/76 103/1/77 97/1/76
f 103/1/77 98/1/76 104/1/77
f 104/1/77 81/1/64 103/1/77
f 81/1/64 104/1/77 82/1/64
f 107/2/78 106/1/78 105/1/78
f 106/1/78 107/2/78 108/2/78
f 92/2/70 107/2/79 91/2/69
f 107/2/79 92/2/70 108/2/80
f 108/2/80 107/2/79 107/2/79
f 107/2/79 108/2/80 108/2/80
f 107/2/79 89/1/72 91/2/69
f 89/1/72 107/2/79 105/1/81
f 107/2/79 105/1/81 107/2/79
f 105/1/81 107/2/79 105/1/81
f 106/1/82 92/2/70 90/1/74
f 92/2/70 106/1/82 108/2/80
f 106/1/82 108/2/80 106/1/82
f 108/2/80 106/1/82 108/2/80
f 92/2/83 89/1/83 90/1/83
f 89/1/83 92/2/83 91/2/83
f 106/1/84 105/1/84 105/1/84
f 105/1/84 106/1/84 106/1/84
f 106/1/84 89/1/76 105/1/84
f 89/1/76 106/1/84 90/1/76
f 111/2/78 110/1/78 109/1/78
f 110/1/78 111/2/78 112/2/78
f 100/2/70 111/2/79 99/2/69
f 111/2/79 100/2/70 112/2/80
f 112/2/80 111/2/79 111/2/79
f 111/2/79 112/2/80 112/2/80
f 111/2/79 97/1/72 99/2/69
f 97/1/72 111/2/79 109/1/81
f 111/2/79 109/1/81 111/2/79
f 109/1/81 111/2/79 109/1/81
f 110/1/82 100/2/70 98/1/74
f 100/2/70 110/1/82 112/2/80
f 110/1/82 112/2/80 110/1/82
f 112/2/80 110/1/82 112/2/80
f 100/2/83 97/1/83 98/1/83
f 97/1/83 100/2/83 99/2/83
f 110/1/84 109/1/84 109/1/84
f 109/1/84 110/1/84 110/1/84
f 110/1/84 97/1/76 109/1/84
f 97/1/76 110/1/84 98/1/76

g railroad-rail-corner-large-ramp




usemtl colormap

f 3/2/1 2/1/1 1/1/1
f 2/1/1 3/2/1 4/2/1
f 7/2/4 6/2/3 5/2/2
f 6/2/3 7/2/4 8/2/5
f 8/2/5 3/2/6 6/2/3
f 3/2/6 8/2/5 4/2/7
f 6/2/3 9/1/8 5/2/2
f 9/1/8 6/2/3 10/1/9
f 3/2/6 10/1/9 6/2/3
f 10/1/9 3/2/6 1/1/10
f 12/1/12 7/2/4 11/1/11
f 7/2/4 12/1/12 8/2/5
f 2/1/13 8/2/5 12/1/12
f 8/2/5 2/1/13 4/2/7
f 7/2/14 9/1/14 11/1/14
f 9/1/14 7/2/14 5/2/14
f 2/1/15 10/1/16 1/1/15
f 10/1/16 2/1/15 12/1/16
f 12/1/16 9/1/17 10/1/16
f 9/1/17 12/1/16 11/1/17
f 15/2/1 14/1/1 13/1/1
f 14/1/1 15/2/1 16/2/1
f 19/2/4 18/2/3 17/2/2
f 18/2/3 19/2/4 20/2/5
f 20/2/5 15/2/6 18/2/3
f 15/2/6 20/2/5 16/2/7
f 18/2/3 21/1/8 17/2/2
f 21/1/8 18/2/3 22/1/9
f 15/2/6 22/1/9 18/2/3
f 22/1/9 15/2/6 13/1/10
f 24/1/12 19/2/4 23/1/11
f 19/2/4 24/1/12 20/2/5
f 14/1/13 20/2/5 24/1/12
f 20/2/5 14/1/13 16/2/7
f 19/2/14 21/1/14 23/1/14
f 21/1/14 19/2/14 17/2/14
f 14/1/15 22/1/16 13/1/15
f 22/1/16 14/1/15 24/1/16
f 24/1/16 21/1/17 22/1/16
f 21/1/17 24/1/16 23/1/17
f 27/2/18 26/1/18 25/1/18
f 26/1/18 27/2/18 28/2/18
f 4/2/7 29/2/19 3/2/6
f 29/2/19 4/2/7 30/2/20
f 30/2/20 27/2/21 29/2/19
f 27/2/21 30/2/20 28/2/22
f 29/2/19 1/1/10 3/2/6
f 1/1/10 29/2/19 31/1/23
f 27/2/21 31/1/23 29/2/19
f 31/1/23 27/2/21 25/1/24
f 32/1/25 4/2/7 2/1/13
f 4/2/7 32/1/25 30/2/20
f 26/1/26 30/2/20 32/1/25
f 30/2/20 26/1/26 28/2/22
f 4/2/27 1/1/27 2/1/27
f 1/1/27 4/2/27 3/2/27
f 26/1/28 31/1/29 25/1/28
f 31/1/29 26/1/28 32/1/29
f 32/1/29 1/1/15 31/1/29
f 1/1/15 32/1/29 2/1/15
f 35/2/18 34/1/18 33/1/18
f 34/1/18 35/2/18 36/2/18
f 16/2/7 37/2/19 15/2/6
f 37/2/19 16/2/7 38/2/20
f 38/2/20 35/2/21 37/2/19
f 35/2/21 38/2/20 36/2/22
f 37/2/19 13/1/10 15/2/6
f 13/1/10 37/2/19 39/1/23
f 35/2/21 39/1/23 37/2/19
f 39/1/23 35/2/21 33/1/24
f 40/1/25 16/2/7 14/1/13
f 16/2/7 40/1/25 38/2/20
f 34/1/26 38/2/20 40/1/25
f 38/2/20 34/1/26 36/2/22
f 16/2/27 13/1/27 14/1/27
f 13/1/27 16/2/27 15/2/27
f 34/1/28 39/1/29 33/1/28
f 39/1/29 34/1/28 40/1/29
f 40/1/29 13/1/15 39/1/29
f 13/1/15 40/1/29 14/1/15
f 43/2/30 42/1/30 41/1/30
f 42/1/30 43/2/30 44/2/30
f 28/2/22 45/2/31 27/2/21
f 45/2/31 28/2/22 46/2/32
f 46/2/32 43/2/33 45/2/31
f 43/2/33 46/2/32 44/2/34
f 45/2/31 25/1/24 27/2/21
f 25/1/24 45/2/31 47/1/35
f 43/2/33 47/1/35 45/2/31
f 47/1/35 43/2/33 41/1/36
f 48/1/37 28/2/22 26/1/26
f 28/2/22 48/1/37 46/2/32
f 42/1/38 46/2/32 48/1/37
f 46/2/32 42/1/38 44/2/34
f 28/2/39 25/1/39 26/1/39
f 25/1/39 28/2/39 27/2/39
f 42/1/40 47/1/41 41/1/40
f 47/1/41 42/1/40 48/1/41
f 48/1/41 25/1/28 47/1/41
f 25/1/28 48/1/41 26/1/28
f 51/2/30 50/1/30 49/1/30
f 50/1/30 51/2/30 52/2/30
f 36/2/22 53/2/31 35/2/21
f 53/2/31 36/2/22 54/2/32
f 54/2/32 51/2/33 53/2/31
f 51/2/33 54/2/32 52/2/34
f 53/2/31 33/1/24 35/2/21
f 33/1/24 53/2/31 55/1/35
f 51/2/33 55/1/35 53/2/31
f 55/1/35 51/2/33 49/1/36
f 56/1/37 36/2/22 34/1/26
f 36/2/22 56/1/37 54/2/32
f 50/1/38 54/2/32 56/1/37
f 54/2/32 50/1/38 52/2/34
f 36/2/39 33/1/39 34/1/39
f 33/1/39 36/2/39 35/2/39
f 50/1/40 55/1/41 49/1/40
f 55/1/41 50/1/40 56/1/41
f 56/1/41 33/1/28 55/1/41
f 33/1/28 56/1/41 34/1/28
f 59/2/42 58/1/42 57/1/42
f 58/1/42 59/2/42 60/2/42
f 44/2/34 61/2/43 43/2/33
f 61/2/43 44/2/34 62/2/44
f 62/2/44 59/2/45 61/2/43
f 59/2/45 62/2/44 60/2/46
f 61/2/43 41/1/36 43/2/33
f 41/1/36 61/2/43 63/1/47
f 59/2/45 63/1/47 61/2/43
f 63/1/47 59/2/45 57/1/48
f 64/1/49 44/2/34 42/1/38
f 44/2/34 64/1/49 62/2/44
f 58/1/50 62/2/44 64/1/49
f 62/2/44 58/1/50 60/2/46
f 44/2/51 41/1/51 42/1/51
f 41/1/51 44/2/51 43/2/51
f 58/1/52 63/1/53 57/1/52
f 63/1/53 58/1/52 64/1/53
f 64/1/53 41/1/40 63/1/53
f 41/1/40 64/1/53 42/1/40
f 67/2/42 66/1/42 65/1/42
f 66/1/42 67/2/42 68/2/42
f 52/2/34 69/2/43 51/2/33
f 69/2/43 52/2/34 70/2/44
f 70/2/44 67/2/45 69/2/43
f 67/2/45 70/2/44 68/2/46
f 69/2/43 49/1/36 51/2/33
f 49/1/36 69/2/43 71/1/47
f 67/2/45 71/1/47 69/2/43
f 71/1/47 67/2/45 65/1/48
f 72/1/49 52/2/34 50/1/38
f 52/2/34 72/1/49 70/2/44
f 66/1/50 70/2/44 72/1/49
f 70/2/44 66/1/50 68/2/46
f 52/2/51 49/1/51 50/1/51
f 49/1/51 52/2/51 51/2/51
f 66/1/52 71/1/53 65/1/52
f 71/1/53 66/1/52 72/1/53
f 72/1/53 49/1/40 71/1/53
f 49/1/40 72/1/53 50/1/40
f 75/2/54 74/1/54 73/1/54
f 74/1/54 75/2/54 76/2/54
f 60/2/46 77/2/55 59/2/45
f 77/2/55 60/2/46 78/2/56
f 78/2/56 75/2/57 77/2/55
f 75/2/57 78/2/56 76/2/58
f 77/2/55 57/1/48 59/2/45
f 57/1/48 77/2/55 79/1/59
f 75/2/57 79/1/59 77/2/55
f 79/1/59 75/2/57 73/1/60
f 80/1/61 60/2/46 58/1/50
f 60/2/46 80/1/61 78/2/56
f 74/1/62 78/2/56 80/1/61
f 78/2/56 74/1/62 76/2/58
f 60/2/63 57/1/63 58/1/63
f 57/1/63 60/2/63 59/2/63
f 74/1/64 79/1/65 73/1/64
f 79/1/65 74/1/64 80/1/65
f 80/1/65 57/1/52 79/1/65
f 57/1/52 80/1/65 58/1/52
f 83/2/54 82/1/54 81/1/54
f 82/1/54 83/2/54 84/2/54
f 68/2/46 85/2/55 67/2/45
f 85/2/55 68/2/46 86/2/56
f 86/2/56 83/2/57 85/2/55
f 83/2/57 86/2/56 84/2/58
f 85/2/55 65/1/48 67/2/45
f 65/1/48 85/2/55 87/1/59
f 83/2/57 87/1/59 85/2/55
f 87/1/59 83/2/57 81/1/60
f 88/1/61 68/2/46 66/1/50
f 68/2/46 88/1/61 86/2/56
f 82/1/62 86/2/56 88/1/61
f 86/2/56 82/1/62 84/2/58
f 68/2/63 65/1/63 66/1/63
f 65/1/63 68/2/63 67/2/63
f 82/1/64 87/1/65 81/1/64
f 87/1/65 82/1/64 88/1/65
f 88/1/65 65/1/52 87/1/65
f 65/1/52 88/1/65 66/1/52
f 91/2/66 90/1/66 89/1/66
f 90/1/66 91/2/66 92/2/66
f 76/2/58 93/2/67 75/2/57
f 93/2/67 76/2/58 94/2/68
f 94/2/68 91/2/69 93/2/67
f 91/2/69 94/2/68 92/2/70
f 93/2/67 73/1/60 75/2/57
f 73/1/60 93/2/67 95/1/71
f 91/2/69 95/1/71 93/2/67
f 95/1/71 91/2/69 89/1/72
f 96/1/73 76/2/58 74/1/62
f 76/2/58 96/1/73 94/2/68
f 90/1/74 94/2/68 96/1/73
f 94/2/68 90/1/74 92/2/70
f 76/2/75 73/1/75 74/1/75
f 73/1/75 76/2/75 75/2/75
f 90/1/76 95/1/77 89/1/76
f 95/1/77 90/1/76 96/1/77
f 96/1/77 73/1/64 95/1/77
f 73/1/64 96/1/77 74/1/64
f 99/2/66 98/1/66 97/1/66
f 98/1/66 99/2/66 100/2/66
f 84/2/58 101/2/67 83/2/57
f 101/2/67 84/2/58 102/2/68
f 102/2/68 99/2/69 101/2/67
f 99/2/69 102/2/68 100/2/70
f 101/2/67 81/1/60 83/2/57
f 81/1/60 101/2/67 103/1/71
f 99/2/69 103/1/71 101/2/67
f 103/1/71 99/2/69 97/1/72
f 104/1/73 84/2/58 82/1/62
f 84/2/58 104/1/73 102/2/68
f 98/1/74 102/2/68 104/1/73
f 102/2/68 98/1/74 100/2/70
f 84/2/75 81/1/75 82/1/75
f 81/1/75 84/2/75 83/2/75
f 98/1/76 103/1/77 97/1/76
f 103/1/77 98/1/76 104/1/77
f 104/1/77 81/1/64 103/1/77
f 81/1/64 104/1/77 82/1/64
f 107/2/78 106/1/78 105/1/78
f 106/1/78 107/2/78 108/2/78
f 92/2/70 107/2/79 91/2/69
f 107/2/79 92/2/70 108/2/80
f 108/2/80 107/2/79 107/2/79
f 107/2/79 108/2/80 108/2/80
f 107/2/79 89/1/72 91/2/69
f 89/1/72 107/2/79 105/1/81
f 107/2/79 105/1/81 107/2/79
f 105/1/81 107/2/79 105/1/81
f 106/1/82 92/2/70 90/1/74
f 92/2/70 106/1/82 108/2/80
f 106/1/82 108/2/80 106/1/82
f 108/2/80 106/1/82 108/2/80
f 92/2/83 89/1/83 90/1/83
f 89/1/83 92/2/83 91/2/83
f 106/1/84 105/1/84 105/1/84
f 105/1/84 106/1/84 106/1/84
f 106/1/84 89/1/76 105/1/84
f 89/1/76 106/1/84 90/1/76
f 111/2/78 110/1/78 109/1/78
f 110/1/78 111/2/78 112/2/78
f 100/2/70 111/2/79 99/2/69
f 111/2/79 100/2/70 112/2/80
f 112/2/80 111/2/79 111/2/79
f 111/2/79 112/2/80 112/2/80
f 111/2/79 97/1/72 99/2/69
f 97/1/72 111/2/79 109/1/81
f 111/2/79 109/1/81 111/2/79
f 109/1/81 111/2/79 109/1/81
f 110/1/82 100/2/70 98/1/74
f 100/2/70 110/1/82 112/2/80
f 110/1/82 112/2/80 110/1/82
f 112/2/80 110/1/82 112/2/80
f 100/2/83 97/1/83 98/1/83
f 97/1/83 100/2/83 99/2/83
f 110/1/84 109/1/84 109/1/84
f 109/1/84 110/1/84 110/1/84
f 110/1/84 97/1/76 109/1/84
f 97/1/76 110/1/84 98/1/76

