# Created by Kenney (www.kenney.nl)

mtllib spline-track-damaged.mtl

g spline-track-damaged

v 0.35 0 0.5 1 1 1
v 0.25 0 0.5 1 1 1
v 0.35 0.1 0.5 1 1 1
v 0.25 0.1 0.5 1 1 1
v 0.35 0.1 -0.5 1 1 1
v 0.35 0.075 0 1 1 1
v 0.25 0.1 -0.5 1 1 1
v 0.25 0.075 0 1 1 1
v 0.35 0 -0.5 1 1 1
v 0.35 0 0 1 1 1
v 0.25 0 -0.5 1 1 1
v 0.25 0 0 1 1 1
v -0.25 0 0.5 1 1 1
v -0.35 0 0.5 1 1 1
v -0.25 0.1 0.5 1 1 1
v -0.35 0.1 0.5 1 1 1
v -0.25 0.1 -0.5 1 1 1
v -0.25 0.075 -1.443823E-15 1 1 1
v -0.35 0.1 -0.5 1 1 1
v -0.35 0.075 -1.443823E-15 1 1 1
v -0.25 0 -0.5 1 1 1
v -0.25 0 -1.443823E-15 1 1 1
v -0.35 0 -0.5 1 1 1
v -0.35 0 -1.443823E-15 1 1 1

vn 0 0 1
vn 0.6955897 0.7175429 0.03587715
vn 0.7180873 0.6950846 0.03475423
vn -0.6955897 0.7175429 0.03587715
vn -0.7180873 0.6950846 0.03475423
vn 1 0 0
vn 0.7180873 0.6950846 -0.03475423
vn 0.6955897 0.7175429 -0.03587715
vn -1 0 0
vn -0.7180873 0.6950846 -0.03475423
vn -0.6955897 0.7175429 -0.03587715
vn 0 0 -1
vn 0 -1 0

vt 0.96875 0.025
vt 0.96875 0.225
vt 0.96875 0.175

usemtl colormap

f 3/2/1 2/1/1 1/1/1
f 2/1/1 3/2/1 4/2/1
f 7/2/4 6/3/3 5/2/2
f 6/3/3 7/2/4 8/3/5
f 6/3/3 9/1/6 5/2/2
f 9/1/6 6/3/3 10/1/6
f 3/2/8 10/1/6 6/3/7
f 10/1/6 3/2/8 1/1/6
f 12/1/9 7/2/4 11/1/9
f 7/2/4 12/1/9 8/3/5
f 2/1/9 8/3/10 12/1/9
f 8/3/10 2/1/9 4/2/11
f 8/3/10 3/2/8 6/3/7
f 3/2/8 8/3/10 4/2/11
f 7/2/12 9/1/12 11/1/12
f 9/1/12 7/2/12 5/2/12
f 2/1/13 10/1/13 1/1/13
f 10/1/13 2/1/13 12/1/13
f 12/1/13 9/1/13 10/1/13
f 9/1/13 12/1/13 11/1/13
f 15/2/1 14/1/1 13/1/1
f 14/1/1 15/2/1 16/2/1
f 19/2/4 18/3/3 17/2/2
f 18/3/3 19/2/4 20/3/5
f 18/3/3 21/1/6 17/2/2
f 21/1/6 18/3/3 22/1/6
f 15/2/8 22/1/6 18/3/7
f 22/1/6 15/2/8 13/1/6
f 24/1/9 19/2/4 23/1/9
f 19/2/4 24/1/9 20/3/5
f 14/1/9 20/3/10 24/1/9
f 20/3/10 14/1/9 16/2/11
f 20/3/10 15/2/8 18/3/7
f 15/2/8 20/3/10 16/2/11
f 19/2/12 21/1/12 23/1/12
f 21/1/12 19/2/12 17/2/12
f 14/1/13 22/1/13 13/1/13
f 22/1/13 14/1/13 24/1/13
f 24/1/13 21/1/13 22/1/13
f 21/1/13 24/1/13 23/1/13

g spline-track-damaged




usemtl colormap

f 3/2/1 2/1/1 1/1/1
f 2/1/1 3/2/1 4/2/1
f 7/2/4 6/3/3 5/2/2
f 6/3/3 7/2/4 8/3/5
f 6/3/3 9/1/6 5/2/2
f 9/1/6 6/3/3 10/1/6
f 3/2/8 10/1/6 6/3/7
f 10/1/6 3/2/8 1/1/6
f 12/1/9 7/2/4 11/1/9
f 7/2/4 12/1/9 8/3/5
f 2/1/9 8/3/10 12/1/9
f 8/3/10 2/1/9 4/2/11
f 8/3/10 3/2/8 6/3/7
f 3/2/8 8/3/10 4/2/11
f 7/2/12 9/1/12 11/1/12
f 9/1/12 7/2/12 5/2/12
f 2/1/13 10/1/13 1/1/13
f 10/1/13 2/1/13 12/1/13
f 12/1/13 9/1/13 10/1/13
f 9/1/13 12/1/13 11/1/13
f 15/2/1 14/1/1 13/1/1
f 14/1/1 15/2/1 16/2/1
f 19/2/4 18/3/3 17/2/2
f 18/3/3 19/2/4 20/3/5
f 18/3/3 21/1/6 17/2/2
f 21/1/6 18/3/3 22/1/6
f 15/2/8 22/1/6 18/3/7
f 22/1/6 15/2/8 13/1/6
f 24/1/9 19/2/4 23/1/9
f 19/2/4 24/1/9 20/3/5
f 14/1/9 20/3/10 24/1/9
f 20/3/10 14/1/9 16/2/11
f 20/3/10 15/2/8 18/3/7
f 15/2/8 20/3/10 16/2/11
f 19/2/12 21/1/12 23/1/12
f 21/1/12 19/2/12 17/2/12
f 14/1/13 22/1/13 13/1/13
f 22/1/13 14/1/13 24/1/13
f 24/1/13 21/1/13 22/1/13
f 21/1/13 24/1/13 23/1/13

