# Created by Kenney (www.kenney.nl)

mtllib track-single-detailed.mtl

g track-single-detailed

v 0.5 0 0.1 1 1 1
v -0.5 0 0.1 1 1 1
v 0.5 0.05 0.1 1 1 1
v -0.5 0.05 0.1 1 1 1
v -0.5 0 -0.1 1 1 1
v -0.5 0.05 -0.1 1 1 1
v 0.5 0 -0.1 1 1 1
v 0.5 0.05 -0.1 1 1 1
v 0.45 0.075 -0.05 1 1 1
v 0.45 0.075 0.05 1 1 1
v 0.35 0.075 -0.05 1 1 1
v 0.35 0.075 0.05 1 1 1
v 0.35 0.05 -0.05 1 1 1
v 0.45 0.05 -0.05 1 1 1
v 0.45 0.05 0.05 1 1 1
v 0.35 0.05 0.05 1 1 1
v -0.45 0.075 -0.05 1 1 1
v -0.45 0.075 0.05 1 1 1
v -0.35 0.075 -0.05 1 1 1
v -0.35 0.075 0.05 1 1 1
v -0.35 0.05 -0.05 1 1 1
v -0.45 0.05 -0.05 1 1 1
v -0.45 0.05 0.05 1 1 1
v -0.35 0.05 0.05 1 1 1
v 0.25 0.05 -0.5 1 1 1
v 0.35 0.05 -0.5 1 1 1
v 0.25 0.15 -0.5 1 1 1
v 0.35 0.15 -0.5 1 1 1
v 0.35 0.05 0.5 1 1 1
v 0.25 0.05 0.5 1 1 1
v 0.35 0.15 0.5 1 1 1
v 0.25 0.15 0.5 1 1 1
v 0.25 0.15 2.887646E-15 1 1 1
v 0.35 0.15 2.887646E-15 1 1 1
v 0.25 0.05 2.887646E-15 1 1 1
v 0.35 0.05 2.887646E-15 1 1 1
v -0.35 0.05 -0.5 1 1 1
v -0.25 0.05 -0.5 1 1 1
v -0.35 0.15 -0.5 1 1 1
v -0.25 0.15 -0.5 1 1 1
v -0.25 0.05 0.5 1 1 1
v -0.35 0.05 0.5 1 1 1
v -0.25 0.15 0.5 1 1 1
v -0.35 0.15 0.5 1 1 1
v -0.35 0.15 2.887646E-15 1 1 1
v -0.25 0.15 2.887646E-15 1 1 1
v -0.35 0.05 2.887646E-15 1 1 1
v -0.25 0.05 2.887646E-15 1 1 1

vn 0 0 1
vn -1 0 0
vn -0.7071068 0.7071068 0
vn 0 -1 0
vn 0.7071068 0.7071068 0
vn 1 0 0
vn 0 0 -1
vn 0 1 0

vt 0.21875 0.275
vt 0.21875 0.475
vt 0.96875 0.225
vt 0.96875 0.025

usemtl colormap

f 3/2/1 2/1/1 1/1/1
f 2/1/1 3/2/1 4/2/1
f 2/1/2 6/2/3 5/1/2
f 6/2/3 2/1/2 4/2/3
f 2/1/4 7/1/4 1/1/4
f 7/1/4 2/1/4 5/1/4
f 6/2/3 3/2/5 8/2/5
f 3/2/5 6/2/3 4/2/3
f 3/2/5 7/1/6 8/2/5
f 7/1/6 3/2/5 1/1/6
f 6/2/7 7/1/7 5/1/7
f 7/1/7 6/2/7 8/2/7
f 11/3/8 10/3/5 9/3/5
f 10/3/5 11/3/8 12/3/8
f 11/3/7 14/4/7 13/4/7
f 14/4/7 11/3/7 9/3/7
f 10/3/5 14/4/6 9/3/5
f 14/4/6 10/3/5 15/4/6
f 10/3/1 16/4/1 15/4/1
f 16/4/1 10/3/1 12/3/1
f 20/3/1 18/3/1 24/4/1
f 23/4/1 24/4/1 18/3/1
f 23/4/2 18/3/3 22/4/2
f 17/3/3 22/4/2 18/3/3
f 17/3/7 19/3/7 22/4/7
f 21/4/7 22/4/7 19/3/7
f 20/3/8 19/3/8 18/3/3
f 17/3/3 18/3/3 19/3/8
f 27/3/7 26/4/7 25/4/7
f 26/4/7 27/3/7 28/3/7
f 31/3/1 30/4/1 29/4/1
f 30/4/1 31/3/1 32/3/1
f 31/3/5 33/3/3 32/3/3
f 33/3/3 31/3/5 34/3/5
f 34/3/5 27/3/3 33/3/3
f 27/3/3 34/3/5 28/3/5
f 35/4/2 27/3/3 25/4/2
f 27/3/3 35/4/2 33/3/3
f 30/4/2 33/3/3 35/4/2
f 33/3/3 30/4/2 32/3/3
f 36/4/6 31/3/5 29/4/6
f 31/3/5 36/4/6 34/3/5
f 26/4/6 34/3/5 36/4/6
f 34/3/5 26/4/6 28/3/5
f 26/4/4 35/4/4 25/4/4
f 35/4/4 26/4/4 36/4/4
f 36/4/4 30/4/4 35/4/4
f 30/4/4 36/4/4 29/4/4
f 39/3/7 38/4/7 37/4/7
f 38/4/7 39/3/7 40/3/7
f 43/3/1 42/4/1 41/4/1
f 42/4/1 43/3/1 44/3/1
f 43/3/5 45/3/3 44/3/3
f 45/3/3 43/3/5 46/3/5
f 46/3/5 39/3/3 45/3/3
f 39/3/3 46/3/5 40/3/5
f 47/4/2 39/3/3 37/4/2
f 39/3/3 47/4/2 45/3/3
f 42/4/2 45/3/3 47/4/2
f 45/3/3 42/4/2 44/3/3
f 48/4/6 43/3/5 41/4/6
f 43/3/5 48/4/6 46/3/5
f 38/4/6 46/3/5 48/4/6
f 46/3/5 38/4/6 40/3/5
f 38/4/4 47/4/4 37/4/4
f 47/4/4 38/4/4 48/4/4
f 48/4/4 42/4/4 47/4/4
f 42/4/4 48/4/4 41/4/4

g track-single-detailed




usemtl colormap

f 3/2/1 2/1/1 1/1/1
f 2/1/1 3/2/1 4/2/1
f 2/1/2 6/2/3 5/1/2
f 6/2/3 2/1/2 4/2/3
f 2/1/4 7/1/4 1/1/4
f 7/1/4 2/1/4 5/1/4
f 6/2/3 3/2/5 8/2/5
f 3/2/5 6/2/3 4/2/3
f 3/2/5 7/1/6 8/2/5
f 7/1/6 3/2/5 1/1/6
f 6/2/7 7/1/7 5/1/7
f 7/1/7 6/2/7 8/2/7
f 11/3/8 10/3/5 9/3/5
f 10/3/5 11/3/8 12/3/8
f 11/3/7 14/4/7 13/4/7
f 14/4/7 11/3/7 9/3/7
f 10/3/5 14/4/6 9/3/5
f 14/4/6 10/3/5 15/4/6
f 10/3/1 16/4/1 15/4/1
f 16/4/1 10/3/1 12/3/1
f 20/3/1 18/3/1 24/4/1
f 23/4/1 24/4/1 18/3/1
f 23/4/2 18/3/3 22/4/2
f 17/3/3 22/4/2 18/3/3
f 17/3/7 19/3/7 22/4/7
f 21/4/7 22/4/7 19/3/7
f 20/3/8 19/3/8 18/3/3
f 17/3/3 18/3/3 19/3/8
f 27/3/7 26/4/7 25/4/7
f 26/4/7 27/3/7 28/3/7
f 31/3/1 30/4/1 29/4/1
f 30/4/1 31/3/1 32/3/1
f 31/3/5 33/3/3 32/3/3
f 33/3/3 31/3/5 34/3/5
f 34/3/5 27/3/3 33/3/3
f 27/3/3 34/3/5 28/3/5
f 35/4/2 27/3/3 25/4/2
f 27/3/3 35/4/2 33/3/3
f 30/4/2 33/3/3 35/4/2
f 33/3/3 30/4/2 32/3/3
f 36/4/6 31/3/5 29/4/6
f 31/3/5 36/4/6 34/3/5
f 26/4/6 34/3/5 36/4/6
f 34/3/5 26/4/6 28/3/5
f 26/4/4 35/4/4 25/4/4
f 35/4/4 26/4/4 36/4/4
f 36/4/4 30/4/4 35/4/4
f 30/4/4 36/4/4 29/4/4
f 39/3/7 38/4/7 37/4/7
f 38/4/7 39/3/7 40/3/7
f 43/3/1 42/4/1 41/4/1
f 42/4/1 43/3/1 44/3/1
f 43/3/5 45/3/3 44/3/3
f 45/3/3 43/3/5 46/3/5
f 46/3/5 39/3/3 45/3/3
f 39/3/3 46/3/5 40/3/5
f 47/4/2 39/3/3 37/4/2
f 39/3/3 47/4/2 45/3/3
f 42/4/2 45/3/3 47/4/2
f 45/3/3 42/4/2 44/3/3
f 48/4/6 43/3/5 41/4/6
f 43/3/5 48/4/6 46/3/5
f 38/4/6 46/3/5 48/4/6
f 46/3/5 38/4/6 40/3/5
f 38/4/4 47/4/4 37/4/4
f 47/4/4 38/4/4 48/4/4
f 48/4/4 42/4/4 47/4/4
f 42/4/4 48/4/4 41/4/4

