# Created by Kenney (www.kenney.nl)

mtllib track.mtl

g track

v 0.5 0 0.1 1 1 1
v -0.5 0 0.1 1 1 1
v 0.5 0.05 0.1 1 1 1
v -0.5 0.05 0.1 1 1 1
v -0.5 0 -0.1 1 1 1
v -0.5 0.05 -0.1 1 1 1
v 0.5 0 -0.1 1 1 1
v 0.5 0.05 -0.1 1 1 1
v 0.5 0 -0.4 1 1 1
v 0.5 0 -0.5 1 1 1
v -0.5 0 -0.4 1 1 1
v -0.5 0 -0.5 1 1 1
v 0.5 0.05 -0.5 1 1 1
v 0.5 0.05 -0.4 1 1 1
v -0.5 0.05 -0.5 1 1 1
v -0.5 0.05 -0.4 1 1 1
v -0.5 0 0.4 1 1 1
v -0.5 0.05 0.4 1 1 1
v -0.5 0 0.5 1 1 1
v -0.5 0.05 0.5 1 1 1
v 0.5 0.05 0.4 1 1 1
v 0.5 0 0.4 1 1 1
v 0.5 0.05 0.5 1 1 1
v 0.5 0 0.5 1 1 1
v 0.25 0.05 -0.5 1 1 1
v 0.35 0.05 -0.5 1 1 1
v 0.25 0.15 -0.5 1 1 1
v 0.35 0.15 -0.5 1 1 1
v 0.35 0.05 0.5 1 1 1
v 0.25 0.05 0.5 1 1 1
v 0.35 0.15 0.5 1 1 1
v 0.25 0.15 0.5 1 1 1
v 0.25 0.15 0 1 1 1
v 0.35 0.15 0 1 1 1
v 0.25 0.05 0 1 1 1
v 0.35 0.05 0 1 1 1
v -0.35 0.05 -0.5 1 1 1
v -0.25 0.05 -0.5 1 1 1
v -0.35 0.15 -0.5 1 1 1
v -0.25 0.15 -0.5 1 1 1
v -0.25 0.05 0.5 1 1 1
v -0.35 0.05 0.5 1 1 1
v -0.25 0.15 0.5 1 1 1
v -0.35 0.15 0.5 1 1 1
v -0.35 0.15 0 1 1 1
v -0.25 0.15 0 1 1 1
v -0.35 0.05 0 1 1 1
v -0.25 0.05 0 1 1 1

vn 0 0 1
vn -1 0 0
vn -0.7071068 0.7071068 0
vn 0 -1 0
vn 0.7071068 0.7071068 0
vn 1 0 0
vn 0 0 -1

vt 0.21875 0.275
vt 0.21875 0.475
vt 0.96875 0.025
vt 0.96875 0.225

usemtl colormap

f 3/2/1 2/1/1 1/1/1
f 2/1/1 3/2/1 4/2/1
f 2/1/2 6/2/3 5/1/2
f 6/2/3 2/1/2 4/2/3
f 2/1/4 7/1/4 1/1/4
f 7/1/4 2/1/4 5/1/4
f 6/2/3 3/2/5 8/2/5
f 3/2/5 6/2/3 4/2/3
f 3/2/5 7/1/6 8/2/5
f 7/1/6 3/2/5 1/1/6
f 6/2/7 7/1/7 5/1/7
f 7/1/7 6/2/7 8/2/7
f 11/1/4 10/1/4 9/1/4
f 10/1/4 11/1/4 12/1/4
f 15/2/3 14/2/5 13/2/5
f 14/2/5 15/2/3 16/2/3
f 14/2/1 11/1/1 9/1/1
f 11/1/1 14/2/1 16/2/1
f 11/1/2 15/2/3 12/1/2
f 15/2/3 11/1/2 16/2/3
f 15/2/7 10/1/7 12/1/7
f 10/1/7 15/2/7 13/2/7
f 14/2/5 10/1/6 13/2/5
f 10/1/6 14/2/5 9/1/6
f 19/1/2 18/2/3 17/1/2
f 18/2/3 19/1/2 20/2/3
f 23/2/5 22/1/6 21/2/5
f 22/1/6 23/2/5 24/1/6
f 23/2/1 19/1/1 24/1/1
f 19/1/1 23/2/1 20/2/1
f 18/2/3 23/2/5 21/2/5
f 23/2/5 18/2/3 20/2/3
f 18/2/7 22/1/7 17/1/7
f 22/1/7 18/2/7 21/2/7
f 19/1/4 22/1/4 24/1/4
f 22/1/4 19/1/4 17/1/4
f 27/4/7 26/3/7 25/3/7
f 26/3/7 27/4/7 28/4/7
f 31/4/1 30/3/1 29/3/1
f 30/3/1 31/4/1 32/4/1
f 31/4/5 33/4/3 32/4/3
f 33/4/3 31/4/5 34/4/5
f 34/4/5 27/4/3 33/4/3
f 27/4/3 34/4/5 28/4/5
f 35/3/2 27/4/3 25/3/2
f 27/4/3 35/3/2 33/4/3
f 30/3/2 33/4/3 35/3/2
f 33/4/3 30/3/2 32/4/3
f 36/3/6 31/4/5 29/3/6
f 31/4/5 36/3/6 34/4/5
f 26/3/6 34/4/5 36/3/6
f 34/4/5 26/3/6 28/4/5
f 26/3/4 35/3/4 25/3/4
f 35/3/4 26/3/4 36/3/4
f 36/3/4 30/3/4 35/3/4
f 30/3/4 36/3/4 29/3/4
f 39/4/7 38/3/7 37/3/7
f 38/3/7 39/4/7 40/4/7
f 43/4/1 42/3/1 41/3/1
f 42/3/1 43/4/1 44/4/1
f 43/4/5 45/4/3 44/4/3
f 45/4/3 43/4/5 46/4/5
f 46/4/5 39/4/3 45/4/3
f 39/4/3 46/4/5 40/4/5
f 47/3/2 39/4/3 37/3/2
f 39/4/3 47/3/2 45/4/3
f 42/3/2 45/4/3 47/3/2
f 45/4/3 42/3/2 44/4/3
f 48/3/6 43/4/5 41/3/6
f 43/4/5 48/3/6 46/4/5
f 38/3/6 46/4/5 48/3/6
f 46/4/5 38/3/6 40/4/5
f 38/3/4 47/3/4 37/3/4
f 47/3/4 38/3/4 48/3/4
f 48/3/4 42/3/4 47/3/4
f 42/3/4 48/3/4 41/3/4

g track




usemtl colormap

f 3/2/1 2/1/1 1/1/1
f 2/1/1 3/2/1 4/2/1
f 2/1/2 6/2/3 5/1/2
f 6/2/3 2/1/2 4/2/3
f 2/1/4 7/1/4 1/1/4
f 7/1/4 2/1/4 5/1/4
f 6/2/3 3/2/5 8/2/5
f 3/2/5 6/2/3 4/2/3
f 3/2/5 7/1/6 8/2/5
f 7/1/6 3/2/5 1/1/6
f 6/2/7 7/1/7 5/1/7
f 7/1/7 6/2/7 8/2/7
f 11/1/4 10/1/4 9/1/4
f 10/1/4 11/1/4 12/1/4
f 15/2/3 14/2/5 13/2/5
f 14/2/5 15/2/3 16/2/3
f 14/2/1 11/1/1 9/1/1
f 11/1/1 14/2/1 16/2/1
f 11/1/2 15/2/3 12/1/2
f 15/2/3 11/1/2 16/2/3
f 15/2/7 10/1/7 12/1/7
f 10/1/7 15/2/7 13/2/7
f 14/2/5 10/1/6 13/2/5
f 10/1/6 14/2/5 9/1/6
f 19/1/2 18/2/3 17/1/2
f 18/2/3 19/1/2 20/2/3
f 23/2/5 22/1/6 21/2/5
f 22/1/6 23/2/5 24/1/6
f 23/2/1 19/1/1 24/1/1
f 19/1/1 23/2/1 20/2/1
f 18/2/3 23/2/5 21/2/5
f 23/2/5 18/2/3 20/2/3
f 18/2/7 22/1/7 17/1/7
f 22/1/7 18/2/7 21/2/7
f 19/1/4 22/1/4 24/1/4
f 22/1/4 19/1/4 17/1/4
f 27/4/7 26/3/7 25/3/7
f 26/3/7 27/4/7 28/4/7
f 31/4/1 30/3/1 29/3/1
f 30/3/1 31/4/1 32/4/1
f 31/4/5 33/4/3 32/4/3
f 33/4/3 31/4/5 34/4/5
f 34/4/5 27/4/3 33/4/3
f 27/4/3 34/4/5 28/4/5
f 35/3/2 27/4/3 25/3/2
f 27/4/3 35/3/2 33/4/3
f 30/3/2 33/4/3 35/3/2
f 33/4/3 30/3/2 32/4/3
f 36/3/6 31/4/5 29/3/6
f 31/4/5 36/3/6 34/4/5
f 26/3/6 34/4/5 36/3/6
f 34/4/5 26/3/6 28/4/5
f 26/3/4 35/3/4 25/3/4
f 35/3/4 26/3/4 36/3/4
f 36/3/4 30/3/4 35/3/4
f 30/3/4 36/3/4 29/3/4
f 39/4/7 38/3/7 37/3/7
f 38/3/7 39/4/7 40/4/7
f 43/4/1 42/3/1 41/3/1
f 42/3/1 43/4/1 44/4/1
f 43/4/5 45/4/3 44/4/3
f 45/4/3 43/4/5 46/4/5
f 46/4/5 39/4/3 45/4/3
f 39/4/3 46/4/5 40/4/5
f 47/3/2 39/4/3 37/3/2
f 39/4/3 47/3/2 45/4/3
f 42/3/2 45/4/3 47/3/2
f 45/4/3 42/3/2 44/4/3
f 48/3/6 43/4/5 41/3/6
f 43/4/5 48/3/6 46/4/5
f 38/3/6 46/4/5 48/3/6
f 46/4/5 38/3/6 40/4/5
f 38/3/4 47/3/4 37/3/4
f 47/3/4 38/3/4 48/3/4
f 48/3/4 42/3/4 47/3/4
f 42/3/4 48/3/4 41/3/4

