# Created by Kenney (www.kenney.nl)

mtllib train-connector.mtl

g train-connector

v -0.35 0.8 -0.1 1 1 1
v -0.35 0.1 -0.1 1 1 1
v -0.35 0.8 0.09999999 1 1 1
v -0.35 0.1 0.09999999 1 1 1
v 0.35 0.1 -0.09999999 1 1 1
v 0.35 0.8 -0.09999999 1 1 1
v 0.35 0.1 0.1 1 1 1
v 0.35 0.8 0.1 1 1 1
v 0.45 0.9 -0.09999999 1 1 1
v 0.45 0 -0.09999999 1 1 1
v 0.4 0.85 5.960467E-09 1 1 1
v 0.4 0.05 5.960467E-09 1 1 1
v -0.4 0.05 -5.960465E-09 1 1 1
v -0.4 0.85 -5.960465E-09 1 1 1
v -0.45 0 0.09999999 1 1 1
v -0.45 0.9 0.09999999 1 1 1
v -0.45 0.9 -0.1 1 1 1
v 0.45 0 0.1 1 1 1
v 0.45 0.9 0.1 1 1 1
v -0.45 0 -0.1 1 1 1

vn 1 0 0
vn -1 0 0
vn 0.8944272 0 0.4472136
vn -0.8944272 0 -0.4472136
vn 0 0.8944272 0.4472136
vn 0 1 0
vn 0 -0.8944272 -0.4472136
vn 0 -1 0
vn 0.8944272 0 -0.4472136
vn 0 0.8944272 -0.4472136
vn -0.8944272 0 0.4472136
vn 0 -0.8944272 0.4472136
vn 0 0 -1
vn 0 0 1

vt 0.59375 0.2027778
vt 0.59375 0.04722222
vt 0.59375 0.225
vt 0.59375 0.025
vt 0.59375 0.2138889
vt 0.59375 0.03611111

usemtl colormap

f 3/1/1 2/2/1 1/1/1
f 2/2/1 3/1/1 4/2/1
f 7/2/2 6/1/2 5/2/2
f 6/1/2 7/2/2 8/1/2
f 11/5/1 10/4/3 9/3/3
f 10/4/3 11/5/1 12/6/1
f 15/4/4 14/5/2 13/6/2
f 14/5/2 15/4/4 16/3/4
f 17/3/5 11/5/6 9/3/5
f 11/5/6 17/3/5 14/5/6
f 15/4/7 12/6/8 18/4/7
f 12/6/8 15/4/7 13/6/8
f 19/3/9 12/6/1 11/5/1
f 12/6/1 19/3/9 18/4/9
f 2/2/6 7/2/6 5/2/6
f 7/2/6 2/2/6 4/2/6
f 11/5/6 16/3/10 19/3/10
f 16/3/10 11/5/6 14/5/6
f 13/6/2 17/3/11 20/4/11
f 17/3/11 13/6/2 14/5/2
f 12/6/8 20/4/12 10/4/12
f 20/4/12 12/6/8 13/6/8
f 8/1/8 1/1/8 6/1/8
f 1/1/8 8/1/8 3/1/8
f 2/2/13 17/3/13 1/1/13
f 1/1/13 17/3/13 6/1/13
f 2/2/13 20/4/13 17/3/13
f 9/3/13 6/1/13 17/3/13
f 20/4/13 2/2/13 10/4/13
f 9/3/13 5/2/13 6/1/13
f 10/4/13 5/2/13 9/3/13
f 5/2/13 10/4/13 2/2/13
f 7/2/14 19/3/14 8/1/14
f 8/1/14 19/3/14 3/1/14
f 7/2/14 18/4/14 19/3/14
f 16/3/14 3/1/14 19/3/14
f 18/4/14 7/2/14 15/4/14
f 16/3/14 4/2/14 3/1/14
f 15/4/14 4/2/14 16/3/14
f 4/2/14 15/4/14 7/2/14

g train-connector




usemtl colormap

f 3/1/1 2/2/1 1/1/1
f 2/2/1 3/1/1 4/2/1
f 7/2/2 6/1/2 5/2/2
f 6/1/2 7/2/2 8/1/2
f 11/5/1 10/4/3 9/3/3
f 10/4/3 11/5/1 12/6/1
f 15/4/4 14/5/2 13/6/2
f 14/5/2 15/4/4 16/3/4
f 17/3/5 11/5/6 9/3/5
f 11/5/6 17/3/5 14/5/6
f 15/4/7 12/6/8 18/4/7
f 12/6/8 15/4/7 13/6/8
f 19/3/9 12/6/1 11/5/1
f 12/6/1 19/3/9 18/4/9
f 2/2/6 7/2/6 5/2/6
f 7/2/6 2/2/6 4/2/6
f 11/5/6 16/3/10 19/3/10
f 16/3/10 11/5/6 14/5/6
f 13/6/2 17/3/11 20/4/11
f 17/3/11 13/6/2 14/5/2
f 12/6/8 20/4/12 10/4/12
f 20/4/12 12/6/8 13/6/8
f 8/1/8 1/1/8 6/1/8
f 1/1/8 8/1/8 3/1/8
f 2/2/13 17/3/13 1/1/13
f 1/1/13 17/3/13 6/1/13
f 2/2/13 20/4/13 17/3/13
f 9/3/13 6/1/13 17/3/13
f 20/4/13 2/2/13 10/4/13
f 9/3/13 5/2/13 6/1/13
f 10/4/13 5/2/13 9/3/13
f 5/2/13 10/4/13 2/2/13
f 7/2/14 19/3/14 8/1/14
f 8/1/14 19/3/14 3/1/14
f 7/2/14 18/4/14 19/3/14
f 16/3/14 3/1/14 19/3/14
f 18/4/14 7/2/14 15/4/14
f 16/3/14 4/2/14 3/1/14
f 15/4/14 4/2/14 16/3/14
f 4/2/14 15/4/14 7/2/14

