# Created by Kenney (www.kenney.nl)

mtllib railroad-rail-straight-hill-complete.mtl

g railroad-rail-straight-hill-complete

v 0.3499999 0.104225 0.9929557 1 1 1
v 0.25 0.104225 0.9929557 1 1 1
v 0.3499999 0.2015601 0.9700236 1 1 1
v 0.25 0.2015601 0.9700236 1 1 1
v 0.3499999 0.1 4.291534E-06 1 1 1
v 0.3499999 0.1229666 0.4906583 1 1 1
v 0.25 0.1 4.291534E-06 1 1 1
v 0.25 0.1229666 0.4906583 1 1 1
v 0.3499999 0 4.291534E-06 1 1 1
v 0.3499999 0.02345705 0.5005498 1 1 1
v 0.25 0 4.291534E-06 1 1 1
v 0.25 0.02345705 0.5005498 1 1 1
v -0.25 0.104225 0.9929557 1 1 1
v -0.3499999 0.104225 0.9929557 1 1 1
v -0.25 0.2015601 0.9700236 1 1 1
v -0.3499999 0.2015601 0.9700236 1 1 1
v -0.25 0.1 4.291534E-06 1 1 1
v -0.25 0.1229666 0.4906583 1 1 1
v -0.3499999 0.1 4.291534E-06 1 1 1
v -0.3499999 0.1229666 0.4906583 1 1 1
v -0.25 0 4.291534E-06 1 1 1
v -0.25 0.02345705 0.5005498 1 1 1
v -0.3499999 0 4.291534E-06 1 1 1
v -0.3499999 0.02345705 0.5005498 1 1 1
v 0.3499999 0.4618717 1.923612 1 1 1
v 0.25 0.4618717 1.923612 1 1 1
v 0.3499999 0.5514067 1.879076 1 1 1
v 0.25 0.5514067 1.879076 1 1 1
v 0.3499999 0.3473787 1.432463 1 1 1
v 0.25 0.3473787 1.432463 1 1 1
v 0.3499999 0.2544043 1.469284 1 1 1
v 0.25 0.2544043 1.469284 1 1 1
v -0.25 0.4618717 1.923612 1 1 1
v -0.3499999 0.4618717 1.923612 1 1 1
v -0.25 0.5514067 1.879076 1 1 1
v -0.3499999 0.5514067 1.879076 1 1 1
v -0.25 0.3473787 1.432463 1 1 1
v -0.3499999 0.3473787 1.432463 1 1 1
v -0.25 0.2544043 1.469284 1 1 1
v -0.3499999 0.2544043 1.469284 1 1 1
v 0.3499999 0.8525389 2.8423 1 1 1
v 0.25 0.8525389 2.8423 1 1 1
v 0.3499999 0.9485854 2.81446 1 1 1
v 0.25 0.9485854 2.81446 1 1 1
v 0.3499999 0.7709186 2.333031 1 1 1
v 0.25 0.7709186 2.333031 1 1 1
v 0.3499999 0.679513 2.37359 1 1 1
v 0.25 0.679513 2.37359 1 1 1
v -0.25 0.8525389 2.8423 1 1 1
v -0.3499999 0.8525389 2.8423 1 1 1
v -0.25 0.9485854 2.81446 1 1 1
v -0.3499999 0.9485854 2.81446 1 1 1
v -0.25 0.7709186 2.333031 1 1 1
v -0.3499999 0.7709186 2.333031 1 1 1
v -0.25 0.679513 2.37359 1 1 1
v -0.3499999 0.679513 2.37359 1 1 1
v 0.3499999 0.9974467 3.828317 1 1 1
v 0.25 0.9974467 3.828317 1 1 1
v 0.3499999 1.097401 3.825285 1 1 1
v 0.25 1.097401 3.825285 1 1 1
v 0.3499999 1.055204 3.315953 1 1 1
v 0.25 1.055204 3.315953 1 1 1
v 0.3499999 0.9561913 3.32997 1 1 1
v 0.25 0.9561913 3.32997 1 1 1
v -0.25 0.9974467 3.828317 1 1 1
v -0.3499999 0.9974467 3.828317 1 1 1
v -0.25 1.097401 3.825285 1 1 1
v -0.3499999 1.097401 3.825285 1 1 1
v -0.25 1.055204 3.315953 1 1 1
v -0.3499999 1.055204 3.315953 1 1 1
v -0.25 0.9561913 3.32997 1 1 1
v -0.3499999 0.9561913 3.32997 1 1 1
v 0.3499999 1 3.999996 1 1 1
v 0.25 1 3.999996 1 1 1
v 0.3499999 1.1 3.999996 1 1 1
v 0.25 1.1 3.999996 1 1 1
v -0.25 1 3.999996 1 1 1
v -0.3499999 1 3.999996 1 1 1
v -0.25 1.1 3.999996 1 1 1
v -0.3499999 1.1 3.999996 1 1 1

vn 0 0.2293197 0.9733511
vn 0.7071068 0.7071068 -5.086011E-07
vn 0.7071068 0.703639 -0.06994402
vn -0.7071068 0.7071068 -5.086011E-07
vn -0.7071068 0.703639 -0.06994402
vn 0.7071068 0.6882632 -0.1621535
vn -0.7071068 0.6882632 -0.1621535
vn 1 0 0
vn -1 0 0
vn 0 -7.192706E-07 -1
vn 0 -0.9733511 0.2293197
vn 0 -0.9950958 0.09891579
vn 0 -1 7.192706E-07
vn 0 0.445363 0.8953501
vn 0.7071068 0.6574281 -0.2603619
vn -0.7071068 0.6574281 -0.2603619
vn 0.7071068 0.6331081 -0.3149192
vn -0.7071068 0.6331081 -0.3149192
vn 0 -0.2293197 -0.9733511
vn 0 -0.8953501 0.445363
vn 0 -0.9297437 0.3682073
vn 0 0.2784032 0.9604643
vn 0.7071068 0.646336 -0.2867923
vn -0.7071068 0.646336 -0.2867923
vn 0.7071068 0.6791508 -0.1968607
vn -0.7071068 0.6791508 -0.1968607
vn 0 -0.445363 -0.8953501
vn 0 -0.9604643 0.2784032
vn 0 -0.9140571 0.4055856
vn 0 0.03031767 0.9995403
vn 0.7071068 0.7001259 -0.09911492
vn -0.7071068 0.7001259 -0.09911492
vn 0.7071068 0.7067817 -0.02143783
vn -0.7071068 0.7067817 -0.02143783
vn 0 -0.2784032 -0.9604643
vn 0 -0.9995403 0.03031767
vn 0 -0.9901275 0.1401697
vn 0 7.152568E-07 1
vn 0.7071068 0.7071068 -5.057629E-07
vn -0.7071068 0.7071068 -5.057629E-07
vn 0 -0.03031767 -0.9995403
vn 0 -1 7.152568E-07

vt 0.96875 0.025
vt 0.96875 0.225

usemtl colormap

f 3/2/1 2/1/1 1/1/1
f 2/1/1 3/2/1 4/2/1
f 7/2/4 6/2/3 5/2/2
f 6/2/3 7/2/4 8/2/5
f 8/2/5 3/2/6 6/2/3
f 3/2/6 8/2/5 4/2/7
f 6/2/3 9/1/8 5/2/2
f 9/1/8 6/2/3 10/1/8
f 3/2/6 10/1/8 6/2/3
f 10/1/8 3/2/6 1/1/8
f 12/1/9 7/2/4 11/1/9
f 7/2/4 12/1/9 8/2/5
f 2/1/9 8/2/5 12/1/9
f 8/2/5 2/1/9 4/2/7
f 7/2/10 9/1/10 11/1/10
f 9/1/10 7/2/10 5/2/10
f 2/1/11 10/1/12 1/1/11
f 10/1/12 2/1/11 12/1/12
f 12/1/12 9/1/13 10/1/12
f 9/1/13 12/1/12 11/1/13
f 15/2/1 14/1/1 13/1/1
f 14/1/1 15/2/1 16/2/1
f 19/2/4 18/2/3 17/2/2
f 18/2/3 19/2/4 20/2/5
f 20/2/5 15/2/6 18/2/3
f 15/2/6 20/2/5 16/2/7
f 18/2/3 21/1/8 17/2/2
f 21/1/8 18/2/3 22/1/8
f 15/2/6 22/1/8 18/2/3
f 22/1/8 15/2/6 13/1/8
f 24/1/9 19/2/4 23/1/9
f 19/2/4 24/1/9 20/2/5
f 14/1/9 20/2/5 24/1/9
f 20/2/5 14/1/9 16/2/7
f 19/2/10 21/1/10 23/1/10
f 21/1/10 19/2/10 17/2/10
f 14/1/11 22/1/12 13/1/11
f 22/1/12 14/1/11 24/1/12
f 24/1/12 21/1/13 22/1/12
f 21/1/13 24/1/12 23/1/13
f 27/2/14 26/1/14 25/1/14
f 26/1/14 27/2/14 28/2/14
f 4/2/7 29/2/15 3/2/6
f 29/2/15 4/2/7 30/2/16
f 30/2/16 27/2/17 29/2/15
f 27/2/17 30/2/16 28/2/18
f 29/2/15 1/1/8 3/2/6
f 1/1/8 29/2/15 31/1/8
f 27/2/17 31/1/8 29/2/15
f 31/1/8 27/2/17 25/1/8
f 32/1/9 4/2/7 2/1/9
f 4/2/7 32/1/9 30/2/16
f 26/1/9 30/2/16 32/1/9
f 30/2/16 26/1/9 28/2/18
f 4/2/19 1/1/19 2/1/19
f 1/1/19 4/2/19 3/2/19
f 26/1/20 31/1/21 25/1/20
f 31/1/21 26/1/20 32/1/21
f 32/1/21 1/1/11 31/1/21
f 1/1/11 32/1/21 2/1/11
f 35/2/14 34/1/14 33/1/14
f 34/1/14 35/2/14 36/2/14
f 16/2/7 37/2/15 15/2/6
f 37/2/15 16/2/7 38/2/16
f 38/2/16 35/2/17 37/2/15
f 35/2/17 38/2/16 36/2/18
f 37/2/15 13/1/8 15/2/6
f 13/1/8 37/2/15 39/1/8
f 35/2/17 39/1/8 37/2/15
f 39/1/8 35/2/17 33/1/8
f 40/1/9 16/2/7 14/1/9
f 16/2/7 40/1/9 38/2/16
f 34/1/9 38/2/16 40/1/9
f 38/2/16 34/1/9 36/2/18
f 16/2/19 13/1/19 14/1/19
f 13/1/19 16/2/19 15/2/19
f 34/1/20 39/1/21 33/1/20
f 39/1/21 34/1/20 40/1/21
f 40/1/21 13/1/11 39/1/21
f 13/1/11 40/1/21 14/1/11
f 43/2/22 42/1/22 41/1/22
f 42/1/22 43/2/22 44/2/22
f 28/2/18 45/2/23 27/2/17
f 45/2/23 28/2/18 46/2/24
f 46/2/24 43/2/25 45/2/23
f 43/2/25 46/2/24 44/2/26
f 45/2/23 25/1/8 27/2/17
f 25/1/8 45/2/23 47/1/8
f 43/2/25 47/1/8 45/2/23
f 47/1/8 43/2/25 41/1/8
f 48/1/9 28/2/18 26/1/9
f 28/2/18 48/1/9 46/2/24
f 42/1/9 46/2/24 48/1/9
f 46/2/24 42/1/9 44/2/26
f 28/2/27 25/1/27 26/1/27
f 25/1/27 28/2/27 27/2/27
f 42/1/28 47/1/29 41/1/28
f 47/1/29 42/1/28 48/1/29
f 48/1/29 25/1/20 47/1/29
f 25/1/20 48/1/29 26/1/20
f 51/2/22 50/1/22 49/1/22
f 50/1/22 51/2/22 52/2/22
f 36/2/18 53/2/23 35/2/17
f 53/2/23 36/2/18 54/2/24
f 54/2/24 51/2/25 53/2/23
f 51/2/25 54/2/24 52/2/26
f 53/2/23 33/1/8 35/2/17
f 33/1/8 53/2/23 55/1/8
f 51/2/25 55/1/8 53/2/23
f 55/1/8 51/2/25 49/1/8
f 56/1/9 36/2/18 34/1/9
f 36/2/18 56/1/9 54/2/24
f 50/1/9 54/2/24 56/1/9
f 54/2/24 50/1/9 52/2/26
f 36/2/27 33/1/27 34/1/27
f 33/1/27 36/2/27 35/2/27
f 50/1/28 55/1/29 49/1/28
f 55/1/29 50/1/28 56/1/29
f 56/1/29 33/1/20 55/1/29
f 33/1/20 56/1/29 34/1/20
f 59/2/30 58/1/30 57/1/30
f 58/1/30 59/2/30 60/2/30
f 44/2/26 61/2/31 43/2/25
f 61/2/31 44/2/26 62/2/32
f 62/2/32 59/2/33 61/2/31
f 59/2/33 62/2/32 60/2/34
f 61/2/31 41/1/8 43/2/25
f 41/1/8 61/2/31 63/1/8
f 59/2/33 63/1/8 61/2/31
f 63/1/8 59/2/33 57/1/8
f 64/1/9 44/2/26 42/1/9
f 44/2/26 64/1/9 62/2/32
f 58/1/9 62/2/32 64/1/9
f 62/2/32 58/1/9 60/2/34
f 44/2/35 41/1/35 42/1/35
f 41/1/35 44/2/35 43/2/35
f 58/1/36 63/1/37 57/1/36
f 63/1/37 58/1/36 64/1/37
f 64/1/37 41/1/28 63/1/37
f 41/1/28 64/1/37 42/1/28
f 67/2/30 66/1/30 65/1/30
f 66/1/30 67/2/30 68/2/30
f 52/2/26 69/2/31 51/2/25
f 69/2/31 52/2/26 70/2/32
f 70/2/32 67/2/33 69/2/31
f 67/2/33 70/2/32 68/2/34
f 69/2/31 49/1/8 51/2/25
f 49/1/8 69/2/31 71/1/8
f 67/2/33 71/1/8 69/2/31
f 71/1/8 67/2/33 65/1/8
f 72/1/9 52/2/26 50/1/9
f 52/2/26 72/1/9 70/2/32
f 66/1/9 70/2/32 72/1/9
f 70/2/32 66/1/9 68/2/34
f 52/2/35 49/1/35 50/1/35
f 49/1/35 52/2/35 51/2/35
f 66/1/36 71/1/37 65/1/36
f 71/1/37 66/1/36 72/1/37
f 72/1/37 49/1/28 71/1/37
f 49/1/28 72/1/37 50/1/28
f 75/2/38 74/1/38 73/1/38
f 74/1/38 75/2/38 76/2/38
f 60/2/34 75/2/39 59/2/33
f 75/2/39 60/2/34 76/2/40
f 76/2/40 75/2/39 75/2/39
f 75/2/39 76/2/40 76/2/40
f 75/2/39 57/1/8 59/2/33
f 57/1/8 75/2/39 73/1/8
f 75/2/39 73/1/8 75/2/39
f 73/1/8 75/2/39 73/1/8
f 74/1/9 60/2/34 58/1/9
f 60/2/34 74/1/9 76/2/40
f 74/1/9 76/2/40 74/1/9
f 76/2/40 74/1/9 76/2/40
f 60/2/41 57/1/41 58/1/41
f 57/1/41 60/2/41 59/2/41
f 74/1/42 73/1/42 73/1/42
f 73/1/42 74/1/42 74/1/42
f 74/1/42 57/1/36 73/1/42
f 57/1/36 74/1/42 58/1/36
f 79/2/38 78/1/38 77/1/38
f 78/1/38 79/2/38 80/2/38
f 68/2/34 79/2/39 67/2/33
f 79/2/39 68/2/34 80/2/40
f 80/2/40 79/2/39 79/2/39
f 79/2/39 80/2/40 80/2/40
f 79/2/39 65/1/8 67/2/33
f 65/1/8 79/2/39 77/1/8
f 79/2/39 77/1/8 79/2/39
f 77/1/8 79/2/39 77/1/8
f 78/1/9 68/2/34 66/1/9
f 68/2/34 78/1/9 80/2/40
f 78/1/9 80/2/40 78/1/9
f 80/2/40 78/1/9 80/2/40
f 68/2/41 65/1/41 66/1/41
f 65/1/41 68/2/41 67/2/41
f 78/1/42 77/1/42 77/1/42
f 77/1/42 78/1/42 78/1/42
f 78/1/42 65/1/36 77/1/42
f 65/1/36 78/1/42 66/1/36

g railroad-rail-straight-hill-complete




usemtl colormap

f 3/2/1 2/1/1 1/1/1
f 2/1/1 3/2/1 4/2/1
f 7/2/4 6/2/3 5/2/2
f 6/2/3 7/2/4 8/2/5
f 8/2/5 3/2/6 6/2/3
f 3/2/6 8/2/5 4/2/7
f 6/2/3 9/1/8 5/2/2
f 9/1/8 6/2/3 10/1/8
f 3/2/6 10/1/8 6/2/3
f 10/1/8 3/2/6 1/1/8
f 12/1/9 7/2/4 11/1/9
f 7/2/4 12/1/9 8/2/5
f 2/1/9 8/2/5 12/1/9
f 8/2/5 2/1/9 4/2/7
f 7/2/10 9/1/10 11/1/10
f 9/1/10 7/2/10 5/2/10
f 2/1/11 10/1/12 1/1/11
f 10/1/12 2/1/11 12/1/12
f 12/1/12 9/1/13 10/1/12
f 9/1/13 12/1/12 11/1/13
f 15/2/1 14/1/1 13/1/1
f 14/1/1 15/2/1 16/2/1
f 19/2/4 18/2/3 17/2/2
f 18/2/3 19/2/4 20/2/5
f 20/2/5 15/2/6 18/2/3
f 15/2/6 20/2/5 16/2/7
f 18/2/3 21/1/8 17/2/2
f 21/1/8 18/2/3 22/1/8
f 15/2/6 22/1/8 18/2/3
f 22/1/8 15/2/6 13/1/8
f 24/1/9 19/2/4 23/1/9
f 19/2/4 24/1/9 20/2/5
f 14/1/9 20/2/5 24/1/9
f 20/2/5 14/1/9 16/2/7
f 19/2/10 21/1/10 23/1/10
f 21/1/10 19/2/10 17/2/10
f 14/1/11 22/1/12 13/1/11
f 22/1/12 14/1/11 24/1/12
f 24/1/12 21/1/13 22/1/12
f 21/1/13 24/1/12 23/1/13
f 27/2/14 26/1/14 25/1/14
f 26/1/14 27/2/14 28/2/14
f 4/2/7 29/2/15 3/2/6
f 29/2/15 4/2/7 30/2/16
f 30/2/16 27/2/17 29/2/15
f 27/2/17 30/2/16 28/2/18
f 29/2/15 1/1/8 3/2/6
f 1/1/8 29/2/15 31/1/8
f 27/2/17 31/1/8 29/2/15
f 31/1/8 27/2/17 25/1/8
f 32/1/9 4/2/7 2/1/9
f 4/2/7 32/1/9 30/2/16
f 26/1/9 30/2/16 32/1/9
f 30/2/16 26/1/9 28/2/18
f 4/2/19 1/1/19 2/1/19
f 1/1/19 4/2/19 3/2/19
f 26/1/20 31/1/21 25/1/20
f 31/1/21 26/1/20 32/1/21
f 32/1/21 1/1/11 31/1/21
f 1/1/11 32/1/21 2/1/11
f 35/2/14 34/1/14 33/1/14
f 34/1/14 35/2/14 36/2/14
f 16/2/7 37/2/15 15/2/6
f 37/2/15 16/2/7 38/2/16
f 38/2/16 35/2/17 37/2/15
f 35/2/17 38/2/16 36/2/18
f 37/2/15 13/1/8 15/2/6
f 13/1/8 37/2/15 39/1/8
f 35/2/17 39/1/8 37/2/15
f 39/1/8 35/2/17 33/1/8
f 40/1/9 16/2/7 14/1/9
f 16/2/7 40/1/9 38/2/16
f 34/1/9 38/2/16 40/1/9
f 38/2/16 34/1/9 36/2/18
f 16/2/19 13/1/19 14/1/19
f 13/1/19 16/2/19 15/2/19
f 34/1/20 39/1/21 33/1/20
f 39/1/21 34/1/20 40/1/21
f 40/1/21 13/1/11 39/1/21
f 13/1/11 40/1/21 14/1/11
f 43/2/22 42/1/22 41/1/22
f 42/1/22 43/2/22 44/2/22
f 28/2/18 45/2/23 27/2/17
f 45/2/23 28/2/18 46/2/24
f 46/2/24 43/2/25 45/2/23
f 43/2/25 46/2/24 44/2/26
f 45/2/23 25/1/8 27/2/17
f 25/1/8 45/2/23 47/1/8
f 43/2/25 47/1/8 45/2/23
f 47/1/8 43/2/25 41/1/8
f 48/1/9 28/2/18 26/1/9
f 28/2/18 48/1/9 46/2/24
f 42/1/9 46/2/24 48/1/9
f 46/2/24 42/1/9 44/2/26
f 28/2/27 25/1/27 26/1/27
f 25/1/27 28/2/27 27/2/27
f 42/1/28 47/1/29 41/1/28
f 47/1/29 42/1/28 48/1/29
f 48/1/29 25/1/20 47/1/29
f 25/1/20 48/1/29 26/1/20
f 51/2/22 50/1/22 49/1/22
f 50/1/22 51/2/22 52/2/22
f 36/2/18 53/2/23 35/2/17
f 53/2/23 36/2/18 54/2/24
f 54/2/24 51/2/25 53/2/23
f 51/2/25 54/2/24 52/2/26
f 53/2/23 33/1/8 35/2/17
f 33/1/8 53/2/23 55/1/8
f 51/2/25 55/1/8 53/2/23
f 55/1/8 51/2/25 49/1/8
f 56/1/9 36/2/18 34/1/9
f 36/2/18 56/1/9 54/2/24
f 50/1/9 54/2/24 56/1/9
f 54/2/24 50/1/9 52/2/26
f 36/2/27 33/1/27 34/1/27
f 33/1/27 36/2/27 35/2/27
f 50/1/28 55/1/29 49/1/28
f 55/1/29 50/1/28 56/1/29
f 56/1/29 33/1/20 55/1/29
f 33/1/20 56/1/29 34/1/20
f 59/2/30 58/1/30 57/1/30
f 58/1/30 59/2/30 60/2/30
f 44/2/26 61/2/31 43/2/25
f 61/2/31 44/2/26 62/2/32
f 62/2/32 59/2/33 61/2/31
f 59/2/33 62/2/32 60/2/34
f 61/2/31 41/1/8 43/2/25
f 41/1/8 61/2/31 63/1/8
f 59/2/33 63/1/8 61/2/31
f 63/1/8 59/2/33 57/1/8
f 64/1/9 44/2/26 42/1/9
f 44/2/26 64/1/9 62/2/32
f 58/1/9 62/2/32 64/1/9
f 62/2/32 58/1/9 60/2/34
f 44/2/35 41/1/35 42/1/35
f 41/1/35 44/2/35 43/2/35
f 58/1/36 63/1/37 57/1/36
f 63/1/37 58/1/36 64/1/37
f 64/1/37 41/1/28 63/1/37
f 41/1/28 64/1/37 42/1/28
f 67/2/30 66/1/30 65/1/30
f 66/1/30 67/2/30 68/2/30
f 52/2/26 69/2/31 51/2/25
f 69/2/31 52/2/26 70/2/32
f 70/2/32 67/2/33 69/2/31
f 67/2/33 70/2/32 68/2/34
f 69/2/31 49/1/8 51/2/25
f 49/1/8 69/2/31 71/1/8
f 67/2/33 71/1/8 69/2/31
f 71/1/8 67/2/33 65/1/8
f 72/1/9 52/2/26 50/1/9
f 52/2/26 72/1/9 70/2/32
f 66/1/9 70/2/32 72/1/9
f 70/2/32 66/1/9 68/2/34
f 52/2/35 49/1/35 50/1/35
f 49/1/35 52/2/35 51/2/35
f 66/1/36 71/1/37 65/1/36
f 71/1/37 66/1/36 72/1/37
f 72/1/37 49/1/28 71/1/37
f 49/1/28 72/1/37 50/1/28
f 75/2/38 74/1/38 73/1/38
f 74/1/38 75/2/38 76/2/38
f 60/2/34 75/2/39 59/2/33
f 75/2/39 60/2/34 76/2/40
f 76/2/40 75/2/39 75/2/39
f 75/2/39 76/2/40 76/2/40
f 75/2/39 57/1/8 59/2/33
f 57/1/8 75/2/39 73/1/8
f 75/2/39 73/1/8 75/2/39
f 73/1/8 75/2/39 73/1/8
f 74/1/9 60/2/34 58/1/9
f 60/2/34 74/1/9 76/2/40
f 74/1/9 76/2/40 74/1/9
f 76/2/40 74/1/9 76/2/40
f 60/2/41 57/1/41 58/1/41
f 57/1/41 60/2/41 59/2/41
f 74/1/42 73/1/42 73/1/42
f 73/1/42 74/1/42 74/1/42
f 74/1/42 57/1/36 73/1/42
f 57/1/36 74/1/42 58/1/36
f 79/2/38 78/1/38 77/1/38
f 78/1/38 79/2/38 80/2/38
f 68/2/34 79/2/39 67/2/33
f 79/2/39 68/2/34 80/2/40
f 80/2/40 79/2/39 79/2/39
f 79/2/39 80/2/40 80/2/40
f 79/2/39 65/1/8 67/2/33
f 65/1/8 79/2/39 77/1/8
f 79/2/39 77/1/8 79/2/39
f 77/1/8 79/2/39 77/1/8
f 78/1/9 68/2/34 66/1/9
f 68/2/34 78/1/9 80/2/40
f 78/1/9 80/2/40 78/1/9
f 80/2/40 78/1/9 80/2/40
f 68/2/41 65/1/41 66/1/41
f 65/1/41 68/2/41 67/2/41
f 78/1/42 77/1/42 77/1/42
f 77/1/42 78/1/42 78/1/42
f 78/1/42 65/1/36 77/1/42
f 65/1/36 78/1/42 66/1/36

