# Created by Kenney (www.kenney.nl)

mtllib railroad-rail-straight.mtl

g railroad-rail-straight

v 0.3499999 0 0.9987755 1 1 1
v 0.25 0 0.9987755 1 1 1
v 0.3499999 0.1 0.9987755 1 1 1
v 0.25 0.1 0.9987755 1 1 1
v 0.3499999 0.1 0 1 1 1
v 0.3499999 0.1 0.4981065 1 1 1
v 0.25 0.1 0 1 1 1
v 0.25 0.1 0.4981065 1 1 1
v 0.3499999 0 0 1 1 1
v 0.3499999 0 0.4981065 1 1 1
v 0.25 0 0 1 1 1
v 0.25 0 0.4981065 1 1 1
v -0.25 0 0.9987755 1 1 1
v -0.3499999 0 0.9987755 1 1 1
v -0.25 0.1 0.9987755 1 1 1
v -0.3499999 0.1 0.9987755 1 1 1
v -0.25 0.1 0 1 1 1
v -0.25 0.1 0.4981065 1 1 1
v -0.3499999 0.1 0 1 1 1
v -0.3499999 0.1 0.4981065 1 1 1
v -0.25 0 0 1 1 1
v -0.25 0 0.4981065 1 1 1
v -0.3499999 0 0 1 1 1
v -0.3499999 0 0.4981065 1 1 1
v 0.3499999 0 2 1 1 1
v 0.25 0 2 1 1 1
v 0.3499999 0.1 2 1 1 1
v 0.25 0.1 2 1 1 1
v 0.3499999 0.1 1.499881 1 1 1
v 0.25 0.1 1.499881 1 1 1
v 0.3499999 0 1.499881 1 1 1
v 0.25 0 1.499881 1 1 1
v -0.25 0 2 1 1 1
v -0.3499999 0 2 1 1 1
v -0.25 0.1 2 1 1 1
v -0.3499999 0.1 2 1 1 1
v -0.25 0.1 1.499881 1 1 1
v -0.3499999 0.1 1.499881 1 1 1
v -0.25 0 1.499881 1 1 1
v -0.3499999 0 1.499881 1 1 1
v 0.3499999 0 3.001224 1 1 1
v 0.25 0 3.001224 1 1 1
v 0.3499999 0.1 3.001224 1 1 1
v 0.25 0.1 3.001224 1 1 1
v 0.3499999 0.1 2.500119 1 1 1
v 0.25 0.1 2.500119 1 1 1
v 0.3499999 0 2.500119 1 1 1
v 0.25 0 2.500119 1 1 1
v -0.25 0 3.001224 1 1 1
v -0.3499999 0 3.001224 1 1 1
v -0.25 0.1 3.001224 1 1 1
v -0.3499999 0.1 3.001224 1 1 1
v -0.25 0.1 2.500119 1 1 1
v -0.3499999 0.1 2.500119 1 1 1
v -0.25 0 2.500119 1 1 1
v -0.3499999 0 2.500119 1 1 1
v 0.3499999 0 4 1 1 1
v 0.25 0 4 1 1 1
v 0.3499999 0.1 4 1 1 1
v 0.25 0.1 4 1 1 1
v 0.3499999 0.1 3.501894 1 1 1
v 0.25 0.1 3.501894 1 1 1
v 0.3499999 0 3.501894 1 1 1
v 0.25 0 3.501894 1 1 1
v -0.25 0 4 1 1 1
v -0.3499999 0 4 1 1 1
v -0.25 0.1 4 1 1 1
v -0.3499999 0.1 4 1 1 1
v -0.25 0.1 3.501894 1 1 1
v -0.3499999 0.1 3.501894 1 1 1
v -0.25 0 3.501894 1 1 1
v -0.3499999 0 3.501894 1 1 1

vn 0 0 1
vn 0.7071068 0.7071068 0
vn -0.7071068 0.7071068 0
vn 1 0 0
vn -1 0 0
vn 0 0 -1
vn 0 -1 0

vt 0.96875 0.025
vt 0.96875 0.225

usemtl colormap

f 3/2/1 2/1/1 1/1/1
f 2/1/1 3/2/1 4/2/1
f 7/2/3 6/2/2 5/2/2
f 6/2/2 7/2/3 8/2/3
f 8/2/3 3/2/2 6/2/2
f 3/2/2 8/2/3 4/2/3
f 6/2/2 9/1/4 5/2/2
f 9/1/4 6/2/2 10/1/4
f 3/2/2 10/1/4 6/2/2
f 10/1/4 3/2/2 1/1/4
f 12/1/5 7/2/3 11/1/5
f 7/2/3 12/1/5 8/2/3
f 2/1/5 8/2/3 12/1/5
f 8/2/3 2/1/5 4/2/3
f 7/2/6 9/1/6 11/1/6
f 9/1/6 7/2/6 5/2/6
f 2/1/7 10/1/7 1/1/7
f 10/1/7 2/1/7 12/1/7
f 12/1/7 9/1/7 10/1/7
f 9/1/7 12/1/7 11/1/7
f 15/2/1 14/1/1 13/1/1
f 14/1/1 15/2/1 16/2/1
f 19/2/3 18/2/2 17/2/2
f 18/2/2 19/2/3 20/2/3
f 20/2/3 15/2/2 18/2/2
f 15/2/2 20/2/3 16/2/3
f 18/2/2 21/1/4 17/2/2
f 21/1/4 18/2/2 22/1/4
f 15/2/2 22/1/4 18/2/2
f 22/1/4 15/2/2 13/1/4
f 24/1/5 19/2/3 23/1/5
f 19/2/3 24/1/5 20/2/3
f 14/1/5 20/2/3 24/1/5
f 20/2/3 14/1/5 16/2/3
f 19/2/6 21/1/6 23/1/6
f 21/1/6 19/2/6 17/2/6
f 14/1/7 22/1/7 13/1/7
f 22/1/7 14/1/7 24/1/7
f 24/1/7 21/1/7 22/1/7
f 21/1/7 24/1/7 23/1/7
f 27/2/1 26/1/1 25/1/1
f 26/1/1 27/2/1 28/2/1
f 4/2/3 29/2/2 3/2/2
f 29/2/2 4/2/3 30/2/3
f 30/2/3 27/2/2 29/2/2
f 27/2/2 30/2/3 28/2/3
f 29/2/2 1/1/4 3/2/2
f 1/1/4 29/2/2 31/1/4
f 27/2/2 31/1/4 29/2/2
f 31/1/4 27/2/2 25/1/4
f 32/1/5 4/2/3 2/1/5
f 4/2/3 32/1/5 30/2/3
f 26/1/5 30/2/3 32/1/5
f 30/2/3 26/1/5 28/2/3
f 4/2/6 1/1/6 2/1/6
f 1/1/6 4/2/6 3/2/6
f 26/1/7 31/1/7 25/1/7
f 31/1/7 26/1/7 32/1/7
f 32/1/7 1/1/7 31/1/7
f 1/1/7 32/1/7 2/1/7
f 35/2/1 34/1/1 33/1/1
f 34/1/1 35/2/1 36/2/1
f 16/2/3 37/2/2 15/2/2
f 37/2/2 16/2/3 38/2/3
f 38/2/3 35/2/2 37/2/2
f 35/2/2 38/2/3 36/2/3
f 37/2/2 13/1/4 15/2/2
f 13/1/4 37/2/2 39/1/4
f 35/2/2 39/1/4 37/2/2
f 39/1/4 35/2/2 33/1/4
f 40/1/5 16/2/3 14/1/5
f 16/2/3 40/1/5 38/2/3
f 34/1/5 38/2/3 40/1/5
f 38/2/3 34/1/5 36/2/3
f 16/2/6 13/1/6 14/1/6
f 13/1/6 16/2/6 15/2/6
f 34/1/7 39/1/7 33/1/7
f 39/1/7 34/1/7 40/1/7
f 40/1/7 13/1/7 39/1/7
f 13/1/7 40/1/7 14/1/7
f 43/2/1 42/1/1 41/1/1
f 42/1/1 43/2/1 44/2/1
f 28/2/3 45/2/2 27/2/2
f 45/2/2 28/2/3 46/2/3
f 46/2/3 43/2/2 45/2/2
f 43/2/2 46/2/3 44/2/3
f 45/2/2 25/1/4 27/2/2
f 25/1/4 45/2/2 47/1/4
f 43/2/2 47/1/4 45/2/2
f 47/1/4 43/2/2 41/1/4
f 48/1/5 28/2/3 26/1/5
f 28/2/3 48/1/5 46/2/3
f 42/1/5 46/2/3 48/1/5
f 46/2/3 42/1/5 44/2/3
f 28/2/6 25/1/6 26/1/6
f 25/1/6 28/2/6 27/2/6
f 42/1/7 47/1/7 41/1/7
f 47/1/7 42/1/7 48/1/7
f 48/1/7 25/1/7 47/1/7
f 25/1/7 48/1/7 26/1/7
f 51/2/1 50/1/1 49/1/1
f 50/1/1 51/2/1 52/2/1
f 36/2/3 53/2/2 35/2/2
f 53/2/2 36/2/3 54/2/3
f 54/2/3 51/2/2 53/2/2
f 51/2/2 54/2/3 52/2/3
f 53/2/2 33/1/4 35/2/2
f 33/1/4 53/2/2 55/1/4
f 51/2/2 55/1/4 53/2/2
f 55/1/4 51/2/2 49/1/4
f 56/1/5 36/2/3 34/1/5
f 36/2/3 56/1/5 54/2/3
f 50/1/5 54/2/3 56/1/5
f 54/2/3 50/1/5 52/2/3
f 36/2/6 33/1/6 34/1/6
f 33/1/6 36/2/6 35/2/6
f 50/1/7 55/1/7 49/1/7
f 55/1/7 50/1/7 56/1/7
f 56/1/7 33/1/7 55/1/7
f 33/1/7 56/1/7 34/1/7
f 59/2/1 58/1/1 57/1/1
f 58/1/1 59/2/1 60/2/1
f 44/2/3 61/2/2 43/2/2
f 61/2/2 44/2/3 62/2/3
f 62/2/3 59/2/2 61/2/2
f 59/2/2 62/2/3 60/2/3
f 61/2/2 41/1/4 43/2/2
f 41/1/4 61/2/2 63/1/4
f 59/2/2 63/1/4 61/2/2
f 63/1/4 59/2/2 57/1/4
f 64/1/5 44/2/3 42/1/5
f 44/2/3 64/1/5 62/2/3
f 58/1/5 62/2/3 64/1/5
f 62/2/3 58/1/5 60/2/3
f 44/2/6 41/1/6 42/1/6
f 41/1/6 44/2/6 43/2/6
f 58/1/7 63/1/7 57/1/7
f 63/1/7 58/1/7 64/1/7
f 64/1/7 41/1/7 63/1/7
f 41/1/7 64/1/7 42/1/7
f 67/2/1 66/1/1 65/1/1
f 66/1/1 67/2/1 68/2/1
f 52/2/3 69/2/2 51/2/2
f 69/2/2 52/2/3 70/2/3
f 70/2/3 67/2/2 69/2/2
f 67/2/2 70/2/3 68/2/3
f 69/2/2 49/1/4 51/2/2
f 49/1/4 69/2/2 71/1/4
f 67/2/2 71/1/4 69/2/2
f 71/1/4 67/2/2 65/1/4
f 72/1/5 52/2/3 50/1/5
f 52/2/3 72/1/5 70/2/3
f 66/1/5 70/2/3 72/1/5
f 70/2/3 66/1/5 68/2/3
f 52/2/6 49/1/6 50/1/6
f 49/1/6 52/2/6 51/2/6
f 66/1/7 71/1/7 65/1/7
f 71/1/7 66/1/7 72/1/7
f 72/1/7 49/1/7 71/1/7
f 49/1/7 72/1/7 50/1/7

g railroad-rail-straight




usemtl colormap

f 3/2/1 2/1/1 1/1/1
f 2/1/1 3/2/1 4/2/1
f 7/2/3 6/2/2 5/2/2
f 6/2/2 7/2/3 8/2/3
f 8/2/3 3/2/2 6/2/2
f 3/2/2 8/2/3 4/2/3
f 6/2/2 9/1/4 5/2/2
f 9/1/4 6/2/2 10/1/4
f 3/2/2 10/1/4 6/2/2
f 10/1/4 3/2/2 1/1/4
f 12/1/5 7/2/3 11/1/5
f 7/2/3 12/1/5 8/2/3
f 2/1/5 8/2/3 12/1/5
f 8/2/3 2/1/5 4/2/3
f 7/2/6 9/1/6 11/1/6
f 9/1/6 7/2/6 5/2/6
f 2/1/7 10/1/7 1/1/7
f 10/1/7 2/1/7 12/1/7
f 12/1/7 9/1/7 10/1/7
f 9/1/7 12/1/7 11/1/7
f 15/2/1 14/1/1 13/1/1
f 14/1/1 15/2/1 16/2/1
f 19/2/3 18/2/2 17/2/2
f 18/2/2 19/2/3 20/2/3
f 20/2/3 15/2/2 18/2/2
f 15/2/2 20/2/3 16/2/3
f 18/2/2 21/1/4 17/2/2
f 21/1/4 18/2/2 22/1/4
f 15/2/2 22/1/4 18/2/2
f 22/1/4 15/2/2 13/1/4
f 24/1/5 19/2/3 23/1/5
f 19/2/3 24/1/5 20/2/3
f 14/1/5 20/2/3 24/1/5
f 20/2/3 14/1/5 16/2/3
f 19/2/6 21/1/6 23/1/6
f 21/1/6 19/2/6 17/2/6
f 14/1/7 22/1/7 13/1/7
f 22/1/7 14/1/7 24/1/7
f 24/1/7 21/1/7 22/1/7
f 21/1/7 24/1/7 23/1/7
f 27/2/1 26/1/1 25/1/1
f 26/1/1 27/2/1 28/2/1
f 4/2/3 29/2/2 3/2/2
f 29/2/2 4/2/3 30/2/3
f 30/2/3 27/2/2 29/2/2
f 27/2/2 30/2/3 28/2/3
f 29/2/2 1/1/4 3/2/2
f 1/1/4 29/2/2 31/1/4
f 27/2/2 31/1/4 29/2/2
f 31/1/4 27/2/2 25/1/4
f 32/1/5 4/2/3 2/1/5
f 4/2/3 32/1/5 30/2/3
f 26/1/5 30/2/3 32/1/5
f 30/2/3 26/1/5 28/2/3
f 4/2/6 1/1/6 2/1/6
f 1/1/6 4/2/6 3/2/6
f 26/1/7 31/1/7 25/1/7
f 31/1/7 26/1/7 32/1/7
f 32/1/7 1/1/7 31/1/7
f 1/1/7 32/1/7 2/1/7
f 35/2/1 34/1/1 33/1/1
f 34/1/1 35/2/1 36/2/1
f 16/2/3 37/2/2 15/2/2
f 37/2/2 16/2/3 38/2/3
f 38/2/3 35/2/2 37/2/2
f 35/2/2 38/2/3 36/2/3
f 37/2/2 13/1/4 15/2/2
f 13/1/4 37/2/2 39/1/4
f 35/2/2 39/1/4 37/2/2
f 39/1/4 35/2/2 33/1/4
f 40/1/5 16/2/3 14/1/5
f 16/2/3 40/1/5 38/2/3
f 34/1/5 38/2/3 40/1/5
f 38/2/3 34/1/5 36/2/3
f 16/2/6 13/1/6 14/1/6
f 13/1/6 16/2/6 15/2/6
f 34/1/7 39/1/7 33/1/7
f 39/1/7 34/1/7 40/1/7
f 40/1/7 13/1/7 39/1/7
f 13/1/7 40/1/7 14/1/7
f 43/2/1 42/1/1 41/1/1
f 42/1/1 43/2/1 44/2/1
f 28/2/3 45/2/2 27/2/2
f 45/2/2 28/2/3 46/2/3
f 46/2/3 43/2/2 45/2/2
f 43/2/2 46/2/3 44/2/3
f 45/2/2 25/1/4 27/2/2
f 25/1/4 45/2/2 47/1/4
f 43/2/2 47/1/4 45/2/2
f 47/1/4 43/2/2 41/1/4
f 48/1/5 28/2/3 26/1/5
f 28/2/3 48/1/5 46/2/3
f 42/1/5 46/2/3 48/1/5
f 46/2/3 42/1/5 44/2/3
f 28/2/6 25/1/6 26/1/6
f 25/1/6 28/2/6 27/2/6
f 42/1/7 47/1/7 41/1/7
f 47/1/7 42/1/7 48/1/7
f 48/1/7 25/1/7 47/1/7
f 25/1/7 48/1/7 26/1/7
f 51/2/1 50/1/1 49/1/1
f 50/1/1 51/2/1 52/2/1
f 36/2/3 53/2/2 35/2/2
f 53/2/2 36/2/3 54/2/3
f 54/2/3 51/2/2 53/2/2
f 51/2/2 54/2/3 52/2/3
f 53/2/2 33/1/4 35/2/2
f 33/1/4 53/2/2 55/1/4
f 51/2/2 55/1/4 53/2/2
f 55/1/4 51/2/2 49/1/4
f 56/1/5 36/2/3 34/1/5
f 36/2/3 56/1/5 54/2/3
f 50/1/5 54/2/3 56/1/5
f 54/2/3 50/1/5 52/2/3
f 36/2/6 33/1/6 34/1/6
f 33/1/6 36/2/6 35/2/6
f 50/1/7 55/1/7 49/1/7
f 55/1/7 50/1/7 56/1/7
f 56/1/7 33/1/7 55/1/7
f 33/1/7 56/1/7 34/1/7
f 59/2/1 58/1/1 57/1/1
f 58/1/1 59/2/1 60/2/1
f 44/2/3 61/2/2 43/2/2
f 61/2/2 44/2/3 62/2/3
f 62/2/3 59/2/2 61/2/2
f 59/2/2 62/2/3 60/2/3
f 61/2/2 41/1/4 43/2/2
f 41/1/4 61/2/2 63/1/4
f 59/2/2 63/1/4 61/2/2
f 63/1/4 59/2/2 57/1/4
f 64/1/5 44/2/3 42/1/5
f 44/2/3 64/1/5 62/2/3
f 58/1/5 62/2/3 64/1/5
f 62/2/3 58/1/5 60/2/3
f 44/2/6 41/1/6 42/1/6
f 41/1/6 44/2/6 43/2/6
f 58/1/7 63/1/7 57/1/7
f 63/1/7 58/1/7 64/1/7
f 64/1/7 41/1/7 63/1/7
f 41/1/7 64/1/7 42/1/7
f 67/2/1 66/1/1 65/1/1
f 66/1/1 67/2/1 68/2/1
f 52/2/3 69/2/2 51/2/2
f 69/2/2 52/2/3 70/2/3
f 70/2/3 67/2/2 69/2/2
f 67/2/2 70/2/3 68/2/3
f 69/2/2 49/1/4 51/2/2
f 49/1/4 69/2/2 71/1/4
f 67/2/2 71/1/4 69/2/2
f 71/1/4 67/2/2 65/1/4
f 72/1/5 52/2/3 50/1/5
f 52/2/3 72/1/5 70/2/3
f 66/1/5 70/2/3 72/1/5
f 70/2/3 66/1/5 68/2/3
f 52/2/6 49/1/6 50/1/6
f 49/1/6 52/2/6 51/2/6
f 66/1/7 71/1/7 65/1/7
f 71/1/7 66/1/7 72/1/7
f 72/1/7 49/1/7 71/1/7
f 49/1/7 72/1/7 50/1/7

