# Created by Kenney (www.kenney.nl)

mtllib railroad-rail-straight-skew-right-side.mtl

g railroad-rail-straight-skew-right-side

v 0.3184199 0.1452885 0.9998521 1 1 1
v 0.2274427 0.1037774 0.9998521 1 1 1
v 0.2769089 0.2362655 0.9998521 1 1 1
v 0.1859317 0.1947546 0.9998521 1 1 1
v 0.3499999 0.1000007 3.814697E-06 1 1 1
v 0.317822 0.1774523 0.4995191 1 1 1
v 0.25 0.1000005 3.814697E-06 1 1 1
v 0.2204762 0.1545646 0.4995191 1 1 1
v 0.3499999 7.152557E-07 3.814697E-06 1 1 1
v 0.3407097 0.08010674 0.4995191 1 1 1
v 0.25 4.768372E-07 3.814697E-06 1 1 1
v 0.2433639 0.05721915 0.4995191 1 1 1
v -0.2274427 -0.1037774 0.9998521 1 1 1
v -0.3184199 -0.1452885 0.9998521 1 1 1
v -0.2689538 -0.01280034 0.9998521 1 1 1
v -0.359931 -0.05431128 0.9998521 1 1 1
v -0.25 0.09999955 3.814697E-06 1 1 1
v -0.2662516 0.04012644 0.4995191 1 1 1
v -0.3500004 0.09999931 3.814697E-06 1 1 1
v -0.3635969 0.01723874 0.4995191 1 1 1
v -0.25 -4.768372E-07 3.814697E-06 1 1 1
v -0.2433639 -0.05721903 0.4995191 1 1 1
v -0.3499999 -7.152557E-07 3.814697E-06 1 1 1
v -0.3407097 -0.08010674 0.4995191 1 1 1
v 0.2474875 0.2474874 2 1 1 1
v 0.1767769 0.1767766 2 1 1 1
v 0.1767769 0.3181981 2 1 1 1
v 0.1060662 0.2474873 2 1 1 1
v 0.2296362 0.2824311 1.499855 1 1 1
v 0.1476617 0.2251577 1.499855 1 1 1
v 0.2869096 0.200457 1.499855 1 1 1
v 0.2049351 0.1431836 1.499855 1 1 1
v -0.1767769 -0.1767766 2 1 1 1
v -0.2474875 -0.2474873 2 1 1 1
v -0.2474875 -0.106066 2 1 1 1
v -0.3181982 -0.1767766 2 1 1 1
v -0.2622089 -0.06120944 1.499855 1 1 1
v -0.344183 -0.1184828 1.499855 1 1 1
v -0.2049351 -0.1431835 1.499855 1 1 1
v -0.2869096 -0.200457 1.499855 1 1 1
v 0.1452885 0.3184199 3.000149 1 1 1
v 0.1037774 0.2274427 3.000149 1 1 1
v 0.05431175 0.3599309 3.000149 1 1 1
v 0.01280069 0.2689538 3.000149 1 1 1
v 0.1184831 0.3441828 2.500146 1 1 1
v 0.06120968 0.2622087 2.500146 1 1 1
v 0.2004571 0.2869093 2.500146 1 1 1
v 0.1431837 0.2049353 2.500146 1 1 1
v -0.1037774 -0.2274427 3.000149 1 1 1
v -0.1452885 -0.3184199 3.000149 1 1 1
v -0.1947546 -0.1859317 3.000149 1 1 1
v -0.2362657 -0.2769089 3.000149 1 1 1
v -0.2251577 -0.1476618 2.500146 1 1 1
v -0.2824311 -0.229636 2.500146 1 1 1
v -0.1431837 -0.2049353 2.500146 1 1 1
v -0.2004571 -0.2869093 2.500146 1 1 1
v 9.536743E-07 0.35 3.999996 1 1 1
v 4.768372E-07 0.25 3.999996 1 1 1
v -0.09999895 0.3500003 3.999996 1 1 1
v -0.09999943 0.2500002 3.999996 1 1 1
v -0.01723862 0.363597 3.500482 1 1 1
v -0.04012632 0.2662516 3.500482 1 1 1
v 0.08010674 0.3407094 3.500482 1 1 1
v 0.05721903 0.2433639 3.500482 1 1 1
v -4.768372E-07 -0.25 3.999996 1 1 1
v -9.536743E-07 -0.35 3.999996 1 1 1
v -0.1000009 -0.2499998 3.999996 1 1 1
v -0.1000009 -0.3499997 3.999996 1 1 1
v -0.1545649 -0.2204762 3.500482 1 1 1
v -0.1774521 -0.3178217 3.500482 1 1 1
v -0.05721903 -0.2433639 3.500482 1 1 1
v -0.08010674 -0.3407094 3.500482 1 1 1

vn 0 0 1
vn 0.7071053 0.7071082 0
vn 0.5264969 0.850177 0
vn -0.7071082 0.7071053 0
vn -0.850177 0.5264969 0
vn 0.3497785 0.9368324 0
vn -0.9368324 0.3497785 0
vn 1 2.02514E-06 0
vn 0.9734555 0.2288765 0
vn 0.9097713 0.4151098 0
vn -1 -2.02514E-06 0
vn -0.9734555 -0.2288765 0
vn -0.9097713 -0.4151098 0
vn 0 0 -1
vn 0.4151098 -0.9097713 0
vn 0.2288765 -0.9734555 0
vn 2.02514E-06 -1 0
vn 0.1746603 0.9846287 0
vn -0.9846287 0.1746603 0
vn 1.192093E-07 1 0
vn -1 1.192093E-07 0
vn 0.8197412 0.5727342 0
vn 0.7071069 0.7071067 0
vn -0.8197412 -0.5727342 0
vn -0.7071069 -0.7071067 0
vn 0.7071067 -0.7071069 0
vn 0.5727342 -0.8197412 0
vn -0.1746602 0.9846288 0
vn -0.9846288 -0.1746602 0
vn -0.3497779 0.9368325 0
vn -0.9368325 -0.3497779 0
vn 0.5727343 0.8197411 0
vn 0.4151103 0.909771 0
vn -0.5727343 -0.8197411 0
vn -0.4151103 -0.909771 0
vn 0.909771 -0.4151103 0
vn 0.8197411 -0.5727343 0
vn -0.5264968 0.850177 0
vn -0.850177 -0.5264968 0
vn -0.7071048 0.7071086 0
vn -0.7071086 -0.7071048 0
vn 0.2288766 0.9734554 0
vn 2.741814E-06 0.9999999 0
vn -0.2288766 -0.9734554 0
vn -2.741814E-06 -0.9999999 0
vn 0.9999999 -2.741814E-06 0
vn 0.9734554 -0.2288766 0

vt 0.96875 0.025
vt 0.96875 0.225

usemtl colormap

f 3/2/1 2/1/1 1/1/1
f 2/1/1 3/2/1 4/2/1
f 7/2/4 6/2/3 5/2/2
f 6/2/3 7/2/4 8/2/5
f 8/2/5 3/2/6 6/2/3
f 3/2/6 8/2/5 4/2/7
f 6/2/3 9/1/8 5/2/2
f 9/1/8 6/2/3 10/1/9
f 3/2/6 10/1/9 6/2/3
f 10/1/9 3/2/6 1/1/10
f 12/1/12 7/2/4 11/1/11
f 7/2/4 12/1/12 8/2/5
f 2/1/13 8/2/5 12/1/12
f 8/2/5 2/1/13 4/2/7
f 7/2/14 9/1/14 11/1/14
f 9/1/14 7/2/14 5/2/14
f 2/1/15 10/1/16 1/1/15
f 10/1/16 2/1/15 12/1/16
f 12/1/16 9/1/17 10/1/16
f 9/1/17 12/1/16 11/1/17
f 15/2/1 14/1/1 13/1/1
f 14/1/1 15/2/1 16/2/1
f 19/2/4 18/2/3 17/2/2
f 18/2/3 19/2/4 20/2/5
f 20/2/5 15/2/6 18/2/3
f 15/2/6 20/2/5 16/2/7
f 18/2/3 21/1/8 17/2/2
f 21/1/8 18/2/3 22/1/9
f 15/2/6 22/1/9 18/2/3
f 22/1/9 15/2/6 13/1/10
f 24/1/12 19/2/4 23/1/11
f 19/2/4 24/1/12 20/2/5
f 14/1/13 20/2/5 24/1/12
f 20/2/5 14/1/13 16/2/7
f 19/2/14 21/1/14 23/1/14
f 21/1/14 19/2/14 17/2/14
f 14/1/15 22/1/16 13/1/15
f 22/1/16 14/1/15 24/1/16
f 24/1/16 21/1/17 22/1/16
f 21/1/17 24/1/16 23/1/17
f 27/2/1 26/1/1 25/1/1
f 26/1/1 27/2/1 28/2/1
f 4/2/7 29/2/18 3/2/6
f 29/2/18 4/2/7 30/2/19
f 30/2/19 27/2/20 29/2/18
f 27/2/20 30/2/19 28/2/21
f 29/2/18 1/1/10 3/2/6
f 1/1/10 29/2/18 31/1/22
f 27/2/20 31/1/22 29/2/18
f 31/1/22 27/2/20 25/1/23
f 32/1/24 4/2/7 2/1/13
f 4/2/7 32/1/24 30/2/19
f 26/1/25 30/2/19 32/1/24
f 30/2/19 26/1/25 28/2/21
f 4/2/14 1/1/14 2/1/14
f 1/1/14 4/2/14 3/2/14
f 26/1/26 31/1/27 25/1/26
f 31/1/27 26/1/26 32/1/27
f 32/1/27 1/1/15 31/1/27
f 1/1/15 32/1/27 2/1/15
f 35/2/1 34/1/1 33/1/1
f 34/1/1 35/2/1 36/2/1
f 16/2/7 37/2/18 15/2/6
f 37/2/18 16/2/7 38/2/19
f 38/2/19 35/2/20 37/2/18
f 35/2/20 38/2/19 36/2/21
f 37/2/18 13/1/10 15/2/6
f 13/1/10 37/2/18 39/1/22
f 35/2/20 39/1/22 37/2/18
f 39/1/22 35/2/20 33/1/23
f 40/1/24 16/2/7 14/1/13
f 16/2/7 40/1/24 38/2/19
f 34/1/25 38/2/19 40/1/24
f 38/2/19 34/1/25 36/2/21
f 16/2/14 13/1/14 14/1/14
f 13/1/14 16/2/14 15/2/14
f 34/1/26 39/1/27 33/1/26
f 39/1/27 34/1/26 40/1/27
f 40/1/27 13/1/15 39/1/27
f 13/1/15 40/1/27 14/1/15
f 43/2/1 42/1/1 41/1/1
f 42/1/1 43/2/1 44/2/1
f 28/2/21 45/2/28 27/2/20
f 45/2/28 28/2/21 46/2/29
f 46/2/29 43/2/30 45/2/28
f 43/2/30 46/2/29 44/2/31
f 45/2/28 25/1/23 27/2/20
f 25/1/23 45/2/28 47/1/32
f 43/2/30 47/1/32 45/2/28
f 47/1/32 43/2/30 41/1/33
f 48/1/34 28/2/21 26/1/25
f 28/2/21 48/1/34 46/2/29
f 42/1/35 46/2/29 48/1/34
f 46/2/29 42/1/35 44/2/31
f 28/2/14 25/1/14 26/1/14
f 25/1/14 28/2/14 27/2/14
f 42/1/36 47/1/37 41/1/36
f 47/1/37 42/1/36 48/1/37
f 48/1/37 25/1/26 47/1/37
f 25/1/26 48/1/37 26/1/26
f 51/2/1 50/1/1 49/1/1
f 50/1/1 51/2/1 52/2/1
f 36/2/21 53/2/28 35/2/20
f 53/2/28 36/2/21 54/2/29
f 54/2/29 51/2/30 53/2/28
f 51/2/30 54/2/29 52/2/31
f 53/2/28 33/1/23 35/2/20
f 33/1/23 53/2/28 55/1/32
f 51/2/30 55/1/32 53/2/28
f 55/1/32 51/2/30 49/1/33
f 56/1/34 36/2/21 34/1/25
f 36/2/21 56/1/34 54/2/29
f 50/1/35 54/2/29 56/1/34
f 54/2/29 50/1/35 52/2/31
f 36/2/14 33/1/14 34/1/14
f 33/1/14 36/2/14 35/2/14
f 50/1/36 55/1/37 49/1/36
f 55/1/37 50/1/36 56/1/37
f 56/1/37 33/1/26 55/1/37
f 33/1/26 56/1/37 34/1/26
f 59/2/1 58/1/1 57/1/1
f 58/1/1 59/2/1 60/2/1
f 44/2/31 61/2/38 43/2/30
f 61/2/38 44/2/31 62/2/39
f 62/2/39 59/2/40 61/2/38
f 59/2/40 62/2/39 60/2/41
f 61/2/38 41/1/33 43/2/30
f 41/1/33 61/2/38 63/1/42
f 59/2/40 63/1/42 61/2/38
f 63/1/42 59/2/40 57/1/43
f 64/1/44 44/2/31 42/1/35
f 44/2/31 64/1/44 62/2/39
f 58/1/45 62/2/39 64/1/44
f 62/2/39 58/1/45 60/2/41
f 44/2/14 41/1/14 42/1/14
f 41/1/14 44/2/14 43/2/14
f 58/1/46 63/1/47 57/1/46
f 63/1/47 58/1/46 64/1/47
f 64/1/47 41/1/36 63/1/47
f 41/1/36 64/1/47 42/1/36
f 67/2/1 66/1/1 65/1/1
f 66/1/1 67/2/1 68/2/1
f 52/2/31 69/2/38 51/2/30
f 69/2/38 52/2/31 70/2/39
f 70/2/39 67/2/40 69/2/38
f 67/2/40 70/2/39 68/2/41
f 69/2/38 49/1/33 51/2/30
f 49/1/33 69/2/38 71/1/42
f 67/2/40 71/1/42 69/2/38
f 71/1/42 67/2/40 65/1/43
f 72/1/44 52/2/31 50/1/35
f 52/2/31 72/1/44 70/2/39
f 66/1/45 70/2/39 72/1/44
f 70/2/39 66/1/45 68/2/41
f 52/2/14 49/1/14 50/1/14
f 49/1/14 52/2/14 51/2/14
f 66/1/46 71/1/47 65/1/46
f 71/1/47 66/1/46 72/1/47
f 72/1/47 49/1/36 71/1/47
f 49/1/36 72/1/47 50/1/36

g railroad-rail-straight-skew-right-side




usemtl colormap

f 3/2/1 2/1/1 1/1/1
f 2/1/1 3/2/1 4/2/1
f 7/2/4 6/2/3 5/2/2
f 6/2/3 7/2/4 8/2/5
f 8/2/5 3/2/6 6/2/3
f 3/2/6 8/2/5 4/2/7
f 6/2/3 9/1/8 5/2/2
f 9/1/8 6/2/3 10/1/9
f 3/2/6 10/1/9 6/2/3
f 10/1/9 3/2/6 1/1/10
f 12/1/12 7/2/4 11/1/11
f 7/2/4 12/1/12 8/2/5
f 2/1/13 8/2/5 12/1/12
f 8/2/5 2/1/13 4/2/7
f 7/2/14 9/1/14 11/1/14
f 9/1/14 7/2/14 5/2/14
f 2/1/15 10/1/16 1/1/15
f 10/1/16 2/1/15 12/1/16
f 12/1/16 9/1/17 10/1/16
f 9/1/17 12/1/16 11/1/17
f 15/2/1 14/1/1 13/1/1
f 14/1/1 15/2/1 16/2/1
f 19/2/4 18/2/3 17/2/2
f 18/2/3 19/2/4 20/2/5
f 20/2/5 15/2/6 18/2/3
f 15/2/6 20/2/5 16/2/7
f 18/2/3 21/1/8 17/2/2
f 21/1/8 18/2/3 22/1/9
f 15/2/6 22/1/9 18/2/3
f 22/1/9 15/2/6 13/1/10
f 24/1/12 19/2/4 23/1/11
f 19/2/4 24/1/12 20/2/5
f 14/1/13 20/2/5 24/1/12
f 20/2/5 14/1/13 16/2/7
f 19/2/14 21/1/14 23/1/14
f 21/1/14 19/2/14 17/2/14
f 14/1/15 22/1/16 13/1/15
f 22/1/16 14/1/15 24/1/16
f 24/1/16 21/1/17 22/1/16
f 21/1/17 24/1/16 23/1/17
f 27/2/1 26/1/1 25/1/1
f 26/1/1 27/2/1 28/2/1
f 4/2/7 29/2/18 3/2/6
f 29/2/18 4/2/7 30/2/19
f 30/2/19 27/2/20 29/2/18
f 27/2/20 30/2/19 28/2/21
f 29/2/18 1/1/10 3/2/6
f 1/1/10 29/2/18 31/1/22
f 27/2/20 31/1/22 29/2/18
f 31/1/22 27/2/20 25/1/23
f 32/1/24 4/2/7 2/1/13
f 4/2/7 32/1/24 30/2/19
f 26/1/25 30/2/19 32/1/24
f 30/2/19 26/1/25 28/2/21
f 4/2/14 1/1/14 2/1/14
f 1/1/14 4/2/14 3/2/14
f 26/1/26 31/1/27 25/1/26
f 31/1/27 26/1/26 32/1/27
f 32/1/27 1/1/15 31/1/27
f 1/1/15 32/1/27 2/1/15
f 35/2/1 34/1/1 33/1/1
f 34/1/1 35/2/1 36/2/1
f 16/2/7 37/2/18 15/2/6
f 37/2/18 16/2/7 38/2/19
f 38/2/19 35/2/20 37/2/18
f 35/2/20 38/2/19 36/2/21
f 37/2/18 13/1/10 15/2/6
f 13/1/10 37/2/18 39/1/22
f 35/2/20 39/1/22 37/2/18
f 39/1/22 35/2/20 33/1/23
f 40/1/24 16/2/7 14/1/13
f 16/2/7 40/1/24 38/2/19
f 34/1/25 38/2/19 40/1/24
f 38/2/19 34/1/25 36/2/21
f 16/2/14 13/1/14 14/1/14
f 13/1/14 16/2/14 15/2/14
f 34/1/26 39/1/27 33/1/26
f 39/1/27 34/1/26 40/1/27
f 40/1/27 13/1/15 39/1/27
f 13/1/15 40/1/27 14/1/15
f 43/2/1 42/1/1 41/1/1
f 42/1/1 43/2/1 44/2/1
f 28/2/21 45/2/28 27/2/20
f 45/2/28 28/2/21 46/2/29
f 46/2/29 43/2/30 45/2/28
f 43/2/30 46/2/29 44/2/31
f 45/2/28 25/1/23 27/2/20
f 25/1/23 45/2/28 47/1/32
f 43/2/30 47/1/32 45/2/28
f 47/1/32 43/2/30 41/1/33
f 48/1/34 28/2/21 26/1/25
f 28/2/21 48/1/34 46/2/29
f 42/1/35 46/2/29 48/1/34
f 46/2/29 42/1/35 44/2/31
f 28/2/14 25/1/14 26/1/14
f 25/1/14 28/2/14 27/2/14
f 42/1/36 47/1/37 41/1/36
f 47/1/37 42/1/36 48/1/37
f 48/1/37 25/1/26 47/1/37
f 25/1/26 48/1/37 26/1/26
f 51/2/1 50/1/1 49/1/1
f 50/1/1 51/2/1 52/2/1
f 36/2/21 53/2/28 35/2/20
f 53/2/28 36/2/21 54/2/29
f 54/2/29 51/2/30 53/2/28
f 51/2/30 54/2/29 52/2/31
f 53/2/28 33/1/23 35/2/20
f 33/1/23 53/2/28 55/1/32
f 51/2/30 55/1/32 53/2/28
f 55/1/32 51/2/30 49/1/33
f 56/1/34 36/2/21 34/1/25
f 36/2/21 56/1/34 54/2/29
f 50/1/35 54/2/29 56/1/34
f 54/2/29 50/1/35 52/2/31
f 36/2/14 33/1/14 34/1/14
f 33/1/14 36/2/14 35/2/14
f 50/1/36 55/1/37 49/1/36
f 55/1/37 50/1/36 56/1/37
f 56/1/37 33/1/26 55/1/37
f 33/1/26 56/1/37 34/1/26
f 59/2/1 58/1/1 57/1/1
f 58/1/1 59/2/1 60/2/1
f 44/2/31 61/2/38 43/2/30
f 61/2/38 44/2/31 62/2/39
f 62/2/39 59/2/40 61/2/38
f 59/2/40 62/2/39 60/2/41
f 61/2/38 41/1/33 43/2/30
f 41/1/33 61/2/38 63/1/42
f 59/2/40 63/1/42 61/2/38
f 63/1/42 59/2/40 57/1/43
f 64/1/44 44/2/31 42/1/35
f 44/2/31 64/1/44 62/2/39
f 58/1/45 62/2/39 64/1/44
f 62/2/39 58/1/45 60/2/41
f 44/2/14 41/1/14 42/1/14
f 41/1/14 44/2/14 43/2/14
f 58/1/46 63/1/47 57/1/46
f 63/1/47 58/1/46 64/1/47
f 64/1/47 41/1/36 63/1/47
f 41/1/36 64/1/47 42/1/36
f 67/2/1 66/1/1 65/1/1
f 66/1/1 67/2/1 68/2/1
f 52/2/31 69/2/38 51/2/30
f 69/2/38 52/2/31 70/2/39
f 70/2/39 67/2/40 69/2/38
f 67/2/40 70/2/39 68/2/41
f 69/2/38 49/1/33 51/2/30
f 49/1/33 69/2/38 71/1/42
f 67/2/40 71/1/42 69/2/38
f 71/1/42 67/2/40 65/1/43
f 72/1/44 52/2/31 50/1/35
f 52/2/31 72/1/44 70/2/39
f 66/1/45 70/2/39 72/1/44
f 70/2/39 66/1/45 68/2/41
f 52/2/14 49/1/14 50/1/14
f 49/1/14 52/2/14 51/2/14
f 66/1/46 71/1/47 65/1/46
f 71/1/47 66/1/46 72/1/47
f 72/1/47 49/1/36 71/1/47
f 49/1/36 72/1/47 50/1/36

