# Created by Kenney (www.kenney.nl)

mtllib railroad-rail-corner-large.mtl

g railroad-rail-corner-large

v 0.1787792 0 1.088373 1 1 1
v 0.08332306 0 1.058572 1 1 1
v 0.1787792 0.1 1.088373 1 1 1
v 0.08332306 0.1 1.058572 1 1 1
v 0.35 0.1 6.914139E-06 1 1 1
v 0.3052314 0.1 0.5532908 1 1 1
v 0.25 0.1 6.67572E-06 1 1 1
v 0.2064953 0.1 0.537442 1 1 1
v 0.35 0 6.914139E-06 1 1 1
v 0.3052314 0 0.5532908 1 1 1
v 0.25 0 6.67572E-06 1 1 1
v 0.2064953 0 0.537442 1 1 1
v -0.3939574 0 0.9095638 1 1 1
v -0.4894135 0 0.8797623 1 1 1
v -0.3939574 0.1 0.9095638 1 1 1
v -0.4894135 0.1 0.8797623 1 1 1
v -0.25 0.1 5.722046E-06 1 1 1
v -0.2871851 0.1 0.4581976 1 1 1
v -0.35 0.1 5.483627E-06 1 1 1
v -0.3859212 0.1 0.4423486 1 1 1
v -0.25 0 5.722046E-06 1 1 1
v -0.2871851 0 0.4581976 1 1 1
v -0.35 0 5.483627E-06 1 1 1
v -0.3859212 0 0.4423486 1 1 1
v -0.272432 0 2.073658 1 1 1
v -0.3577205 0 2.021449 1 1 1
v -0.272432 0.1 2.073658 1 1 1
v -0.3577205 0.1 2.021449 1 1 1
v -0.01730072 0.1 1.596733 1 1 1
v -0.1081285 0.1 1.554897 1 1 1
v -0.01730072 0 1.596733 1 1 1
v -0.1081285 0 1.554897 1 1 1
v -0.7841631 0 1.760399 1 1 1
v -0.8694516 0 1.708189 1 1 1
v -0.7841631 0.1 1.760399 1 1 1
v -0.8694516 0.1 1.708189 1 1 1
v -0.5622679 0.1 1.345714 1 1 1
v -0.6530958 0.1 1.303877 1 1 1
v -0.5622679 0 1.345714 1 1 1
v -0.6530958 0 1.303877 1 1 1
v -0.9293773 0 2.922844 1 1 1
v -1.001516 0 2.853591 1 1 1
v -0.9293773 0.1 2.922844 1 1 1
v -1.001516 0.1 2.853591 1 1 1
v -0.578493 0.1 2.516513 1 1 1
v -0.6575389 0.1 2.455262 1 1 1
v -0.578493 0 2.516513 1 1 1
v -0.6575389 0 2.455262 1 1 1
v -1.362209 0 2.507324 1 1 1
v -1.434347 0 2.438071 1 1 1
v -1.362209 0.1 2.507324 1 1 1
v -1.434347 0.1 2.438071 1 1 1
v -1.052768 0.1 2.149004 1 1 1
v -1.131814 0.1 2.087753 1 1 1
v -1.052768 0 2.149004 1 1 1
v -1.131814 0 2.087753 1 1 1
v -1.749699 0 3.614057 1 1 1
v -1.805571 0 3.531121 1 1 1
v -1.749699 0.1 3.614057 1 1 1
v -1.805571 0.1 3.531121 1 1 1
v -1.320796 0.1 3.28994 1 1 1
v -1.385273 0.1 3.213502 1 1 1
v -1.320796 0 3.28994 1 1 1
v -1.385273 0 3.213502 1 1 1
v -2.08493 0 3.116442 1 1 1
v -2.140801 0 3.033506 1 1 1
v -2.08493 0.1 3.116442 1 1 1
v -2.140801 0.1 3.033506 1 1 1
v -1.707657 0.1 2.831313 1 1 1
v -1.772134 0.1 2.754875 1 1 1
v -1.707657 0 2.831313 1 1 1
v -1.772134 0 2.754875 1 1 1
v -2.710212 0 4.110087 1 1 1
v -2.744916 0 4.016302 1 1 1
v -2.710212 0.1 4.110087 1 1 1
v -2.744916 0.1 4.016302 1 1 1
v -2.213577 0.1 3.889833 1 1 1
v -2.259634 0.1 3.801071 1 1 1
v -2.213577 0 3.889833 1 1 1
v -2.259634 0 3.801071 1 1 1
v -2.918438 0 3.547378 1 1 1
v -2.953143 0 3.453593 1 1 1
v -2.918438 0.1 3.547378 1 1 1
v -2.953143 0.1 3.453593 1 1 1
v -2.489918 0.1 3.357259 1 1 1
v -2.535975 0.1 3.268497 1 1 1
v -2.489918 0 3.357259 1 1 1
v -2.535975 0 3.268497 1 1 1
v -3.783078 0 4.34304 1 1 1
v -3.789456 0 4.243243 1 1 1
v -3.783078 0.1 4.34304 1 1 1
v -3.789456 0.1 4.243243 1 1 1
v -3.235614 0.1 4.265027 1 1 1
v -3.257132 0.1 4.167369 1 1 1
v -3.235614 0 4.265027 1 1 1
v -3.257132 0 4.167369 1 1 1
v -3.821343 0 3.744261 1 1 1
v -3.827721 0 3.644465 1 1 1
v -3.821343 0.1 3.744261 1 1 1
v -3.827721 0.1 3.644465 1 1 1
v -3.364721 0.1 3.679082 1 1 1
v -3.386239 0.1 3.581425 1 1 1
v -3.364721 0 3.679082 1 1 1
v -3.386239 0 3.581425 1 1 1
v -3.999993 0 4.35 1 1 1
v -3.999993 0 4.25 1 1 1
v -3.999993 0.1 4.35 1 1 1
v -3.999993 0.1 4.25 1 1 1
v -3.999994 0 3.75 1 1 1
v -3.999995 0 3.65 1 1 1
v -3.999994 0.1 3.75 1 1 1
v -3.999995 0.1 3.65 1 1 1

vn -0.2980156 0 0.954561
vn 0.7071068 0.7071068 1.459836E-06
vn 0.6981695 0.7071068 0.1120685
vn -0.7071068 0.7071068 -1.459836E-06
vn -0.6981695 0.7071068 -0.1120685
vn 0.6749765 0.7071068 0.2107289
vn -0.6749765 0.7071068 -0.2107289
vn 1 0 2.06452E-06
vn 0.9873608 0 0.1584888
vn 0.954561 0 0.2980156
vn -1 0 -2.06452E-06
vn -0.9873608 0 -0.1584888
vn -0.954561 0 -0.2980156
vn 2.06452E-06 0 -1
vn 0 -1 0
vn -0.5220984 0 0.8528852
vn 0.64225 0.7071068 0.2958292
vn -0.64225 0.7071068 -0.2958292
vn 0.603081 0.7071068 0.3691793
vn -0.603081 0.7071068 -0.3691793
vn 0.9082786 0 0.4183657
vn 0.8528852 0 0.5220984
vn -0.9082786 0 -0.4183657
vn -0.8528852 0 -0.5220984
vn 0.2980156 0 -0.954561
vn -0.6925339 0 0.7213854
vn 0.5589387 0.7071068 0.4331137
vn -0.5589387 0.7071068 -0.4331137
vn 0.5100965 0.7071068 0.4896954
vn -0.5100965 0.7071068 -0.4896954
vn 0.7904587 0 0.6125153
vn 0.7213854 0 0.6925339
vn -0.7904587 0 -0.6125153
vn -0.7213854 0 -0.6925339
vn 0.5220984 0 -0.8528852
vn -0.8293579 0 0.5587178
vn 0.4559197 0.7071068 0.5404972
vn -0.4559197 0.7071068 -0.5404972
vn 0.3950732 0.7071068 0.5864446
vn -0.3950732 0.7071068 -0.5864446
vn 0.6447678 0 0.7643784
vn 0.5587178 0 0.8293579
vn -0.6447678 0 -0.7643784
vn -0.5587178 0 -0.8293579
vn 0.6925339 0 -0.7213854
vn -0.9378489 0 0.3470438
vn 0.3256711 0.7071068 0.627645
vn -0.3256711 0.7071068 -0.627645
vn 0.245397 0.7071068 0.6631593
vn -0.245397 0.7071068 -0.6631593
vn 0.4605685 0 0.8876241
vn 0.3470438 0 0.9378489
vn -0.4605685 0 -0.8876241
vn -0.3470438 0 -0.9378489
vn 0.8293579 0 -0.5587178
vn -0.9979644 0 0.06377453
vn 0.1521539 0.7071068 0.6905427
vn -0.1521539 0.7071068 -0.6905427
vn 0.04509538 0.7071068 0.7056673
vn -0.04509538 0.7071068 -0.7056673
vn 0.2151781 0 0.9765748
vn 0.06377453 0 0.9979644
vn -0.2151781 0 -0.9765748
vn -0.06377453 0 -0.9979644
vn 0.9378489 0 -0.3470438
vn -0.9999999 0 2.205372E-06
vn 1.549721E-06 0.7071068 0.7071067
vn -1.549721E-06 0.7071068 -0.7071067
vn 2.205372E-06 0 0.9999999
vn -2.205372E-06 0 -0.9999999
vn 0.9979644 0 -0.06377453

vt 0.96875 0.025
vt 0.96875 0.225

usemtl colormap

f 3/2/1 2/1/1 1/1/1
f 2/1/1 3/2/1 4/2/1
f 7/2/4 6/2/3 5/2/2
f 6/2/3 7/2/4 8/2/5
f 8/2/5 3/2/6 6/2/3
f 3/2/6 8/2/5 4/2/7
f 6/2/3 9/1/8 5/2/2
f 9/1/8 6/2/3 10/1/9
f 3/2/6 10/1/9 6/2/3
f 10/1/9 3/2/6 1/1/10
f 12/1/12 7/2/4 11/1/11
f 7/2/4 12/1/12 8/2/5
f 2/1/13 8/2/5 12/1/12
f 8/2/5 2/1/13 4/2/7
f 7/2/14 9/1/14 11/1/14
f 9/1/14 7/2/14 5/2/14
f 2/1/15 10/1/15 1/1/15
f 10/1/15 2/1/15 12/1/15
f 12/1/15 9/1/15 10/1/15
f 9/1/15 12/1/15 11/1/15
f 15/2/1 14/1/1 13/1/1
f 14/1/1 15/2/1 16/2/1
f 19/2/4 18/2/3 17/2/2
f 18/2/3 19/2/4 20/2/5
f 20/2/5 15/2/6 18/2/3
f 15/2/6 20/2/5 16/2/7
f 18/2/3 21/1/8 17/2/2
f 21/1/8 18/2/3 22/1/9
f 15/2/6 22/1/9 18/2/3
f 22/1/9 15/2/6 13/1/10
f 24/1/12 19/2/4 23/1/11
f 19/2/4 24/1/12 20/2/5
f 14/1/13 20/2/5 24/1/12
f 20/2/5 14/1/13 16/2/7
f 19/2/14 21/1/14 23/1/14
f 21/1/14 19/2/14 17/2/14
f 14/1/15 22/1/15 13/1/15
f 22/1/15 14/1/15 24/1/15
f 24/1/15 21/1/15 22/1/15
f 21/1/15 24/1/15 23/1/15
f 27/2/16 26/1/16 25/1/16
f 26/1/16 27/2/16 28/2/16
f 4/2/7 29/2/17 3/2/6
f 29/2/17 4/2/7 30/2/18
f 30/2/18 27/2/19 29/2/17
f 27/2/19 30/2/18 28/2/20
f 29/2/17 1/1/10 3/2/6
f 1/1/10 29/2/17 31/1/21
f 27/2/19 31/1/21 29/2/17
f 31/1/21 27/2/19 25/1/22
f 32/1/23 4/2/7 2/1/13
f 4/2/7 32/1/23 30/2/18
f 26/1/24 30/2/18 32/1/23
f 30/2/18 26/1/24 28/2/20
f 4/2/25 1/1/25 2/1/25
f 1/1/25 4/2/25 3/2/25
f 26/1/15 31/1/15 25/1/15
f 31/1/15 26/1/15 32/1/15
f 32/1/15 1/1/15 31/1/15
f 1/1/15 32/1/15 2/1/15
f 35/2/16 34/1/16 33/1/16
f 34/1/16 35/2/16 36/2/16
f 16/2/7 37/2/17 15/2/6
f 37/2/17 16/2/7 38/2/18
f 38/2/18 35/2/19 37/2/17
f 35/2/19 38/2/18 36/2/20
f 37/2/17 13/1/10 15/2/6
f 13/1/10 37/2/17 39/1/21
f 35/2/19 39/1/21 37/2/17
f 39/1/21 35/2/19 33/1/22
f 40/1/23 16/2/7 14/1/13
f 16/2/7 40/1/23 38/2/18
f 34/1/24 38/2/18 40/1/23
f 38/2/18 34/1/24 36/2/20
f 16/2/25 13/1/25 14/1/25
f 13/1/25 16/2/25 15/2/25
f 34/1/15 39/1/15 33/1/15
f 39/1/15 34/1/15 40/1/15
f 40/1/15 13/1/15 39/1/15
f 13/1/15 40/1/15 14/1/15
f 43/2/26 42/1/26 41/1/26
f 42/1/26 43/2/26 44/2/26
f 28/2/20 45/2/27 27/2/19
f 45/2/27 28/2/20 46/2/28
f 46/2/28 43/2/29 45/2/27
f 43/2/29 46/2/28 44/2/30
f 45/2/27 25/1/22 27/2/19
f 25/1/22 45/2/27 47/1/31
f 43/2/29 47/1/31 45/2/27
f 47/1/31 43/2/29 41/1/32
f 48/1/33 28/2/20 26/1/24
f 28/2/20 48/1/33 46/2/28
f 42/1/34 46/2/28 48/1/33
f 46/2/28 42/1/34 44/2/30
f 28/2/35 25/1/35 26/1/35
f 25/1/35 28/2/35 27/2/35
f 42/1/15 47/1/15 41/1/15
f 47/1/15 42/1/15 48/1/15
f 48/1/15 25/1/15 47/1/15
f 25/1/15 48/1/15 26/1/15
f 51/2/26 50/1/26 49/1/26
f 50/1/26 51/2/26 52/2/26
f 36/2/20 53/2/27 35/2/19
f 53/2/27 36/2/20 54/2/28
f 54/2/28 51/2/29 53/2/27
f 51/2/29 54/2/28 52/2/30
f 53/2/27 33/1/22 35/2/19
f 33/1/22 53/2/27 55/1/31
f 51/2/29 55/1/31 53/2/27
f 55/1/31 51/2/29 49/1/32
f 56/1/33 36/2/20 34/1/24
f 36/2/20 56/1/33 54/2/28
f 50/1/34 54/2/28 56/1/33
f 54/2/28 50/1/34 52/2/30
f 36/2/35 33/1/35 34/1/35
f 33/1/35 36/2/35 35/2/35
f 50/1/15 55/1/15 49/1/15
f 55/1/15 50/1/15 56/1/15
f 56/1/15 33/1/15 55/1/15
f 33/1/15 56/1/15 34/1/15
f 59/2/36 58/1/36 57/1/36
f 58/1/36 59/2/36 60/2/36
f 44/2/30 61/2/37 43/2/29
f 61/2/37 44/2/30 62/2/38
f 62/2/38 59/2/39 61/2/37
f 59/2/39 62/2/38 60/2/40
f 61/2/37 41/1/32 43/2/29
f 41/1/32 61/2/37 63/1/41
f 59/2/39 63/1/41 61/2/37
f 63/1/41 59/2/39 57/1/42
f 64/1/43 44/2/30 42/1/34
f 44/2/30 64/1/43 62/2/38
f 58/1/44 62/2/38 64/1/43
f 62/2/38 58/1/44 60/2/40
f 44/2/45 41/1/45 42/1/45
f 41/1/45 44/2/45 43/2/45
f 58/1/15 63/1/15 57/1/15
f 63/1/15 58/1/15 64/1/15
f 64/1/15 41/1/15 63/1/15
f 41/1/15 64/1/15 42/1/15
f 67/2/36 66/1/36 65/1/36
f 66/1/36 67/2/36 68/2/36
f 52/2/30 69/2/37 51/2/29
f 69/2/37 52/2/30 70/2/38
f 70/2/38 67/2/39 69/2/37
f 67/2/39 70/2/38 68/2/40
f 69/2/37 49/1/32 51/2/29
f 49/1/32 69/2/37 71/1/41
f 67/2/39 71/1/41 69/2/37
f 71/1/41 67/2/39 65/1/42
f 72/1/43 52/2/30 50/1/34
f 52/2/30 72/1/43 70/2/38
f 66/1/44 70/2/38 72/1/43
f 70/2/38 66/1/44 68/2/40
f 52/2/45 49/1/45 50/1/45
f 49/1/45 52/2/45 51/2/45
f 66/1/15 71/1/15 65/1/15
f 71/1/15 66/1/15 72/1/15
f 72/1/15 49/1/15 71/1/15
f 49/1/15 72/1/15 50/1/15
f 75/2/46 74/1/46 73/1/46
f 74/1/46 75/2/46 76/2/46
f 60/2/40 77/2/47 59/2/39
f 77/2/47 60/2/40 78/2/48
f 78/2/48 75/2/49 77/2/47
f 75/2/49 78/2/48 76/2/50
f 77/2/47 57/1/42 59/2/39
f 57/1/42 77/2/47 79/1/51
f 75/2/49 79/1/51 77/2/47
f 79/1/51 75/2/49 73/1/52
f 80/1/53 60/2/40 58/1/44
f 60/2/40 80/1/53 78/2/48
f 74/1/54 78/2/48 80/1/53
f 78/2/48 74/1/54 76/2/50
f 60/2/55 57/1/55 58/1/55
f 57/1/55 60/2/55 59/2/55
f 74/1/15 79/1/15 73/1/15
f 79/1/15 74/1/15 80/1/15
f 80/1/15 57/1/15 79/1/15
f 57/1/15 80/1/15 58/1/15
f 83/2/46 82/1/46 81/1/46
f 82/1/46 83/2/46 84/2/46
f 68/2/40 85/2/47 67/2/39
f 85/2/47 68/2/40 86/2/48
f 86/2/48 83/2/49 85/2/47
f 83/2/49 86/2/48 84/2/50
f 85/2/47 65/1/42 67/2/39
f 65/1/42 85/2/47 87/1/51
f 83/2/49 87/1/51 85/2/47
f 87/1/51 83/2/49 81/1/52
f 88/1/53 68/2/40 66/1/44
f 68/2/40 88/1/53 86/2/48
f 82/1/54 86/2/48 88/1/53
f 86/2/48 82/1/54 84/2/50
f 68/2/55 65/1/55 66/1/55
f 65/1/55 68/2/55 67/2/55
f 82/1/15 87/1/15 81/1/15
f 87/1/15 82/1/15 88/1/15
f 88/1/15 65/1/15 87/1/15
f 65/1/15 88/1/15 66/1/15
f 91/2/56 90/1/56 89/1/56
f 90/1/56 91/2/56 92/2/56
f 76/2/50 93/2/57 75/2/49
f 93/2/57 76/2/50 94/2/58
f 94/2/58 91/2/59 93/2/57
f 91/2/59 94/2/58 92/2/60
f 93/2/57 73/1/52 75/2/49
f 73/1/52 93/2/57 95/1/61
f 91/2/59 95/1/61 93/2/57
f 95/1/61 91/2/59 89/1/62
f 96/1/63 76/2/50 74/1/54
f 76/2/50 96/1/63 94/2/58
f 90/1/64 94/2/58 96/1/63
f 94/2/58 90/1/64 92/2/60
f 76/2/65 73/1/65 74/1/65
f 73/1/65 76/2/65 75/2/65
f 90/1/15 95/1/15 89/1/15
f 95/1/15 90/1/15 96/1/15
f 96/1/15 73/1/15 95/1/15
f 73/1/15 96/1/15 74/1/15
f 99/2/56 98/1/56 97/1/56
f 98/1/56 99/2/56 100/2/56
f 84/2/50 101/2/57 83/2/49
f 101/2/57 84/2/50 102/2/58
f 102/2/58 99/2/59 101/2/57
f 99/2/59 102/2/58 100/2/60
f 101/2/57 81/1/52 83/2/49
f 81/1/52 101/2/57 103/1/61
f 99/2/59 103/1/61 101/2/57
f 103/1/61 99/2/59 97/1/62
f 104/1/63 84/2/50 82/1/54
f 84/2/50 104/1/63 102/2/58
f 98/1/64 102/2/58 104/1/63
f 102/2/58 98/1/64 100/2/60
f 84/2/65 81/1/65 82/1/65
f 81/1/65 84/2/65 83/2/65
f 98/1/15 103/1/15 97/1/15
f 103/1/15 98/1/15 104/1/15
f 104/1/15 81/1/15 103/1/15
f 81/1/15 104/1/15 82/1/15
f 107/2/66 106/1/66 105/1/66
f 106/1/66 107/2/66 108/2/66
f 92/2/60 107/2/67 91/2/59
f 107/2/67 92/2/60 108/2/68
f 108/2/68 107/2/67 107/2/67
f 107/2/67 108/2/68 108/2/68
f 107/2/67 89/1/62 91/2/59
f 89/1/62 107/2/67 105/1/69
f 107/2/67 105/1/69 107/2/67
f 105/1/69 107/2/67 105/1/69
f 106/1/70 92/2/60 90/1/64
f 92/2/60 106/1/70 108/2/68
f 106/1/70 108/2/68 106/1/70
f 108/2/68 106/1/70 108/2/68
f 92/2/71 89/1/71 90/1/71
f 89/1/71 92/2/71 91/2/71
f 106/1/15 105/1/15 105/1/15
f 105/1/15 106/1/15 106/1/15
f 106/1/15 89/1/15 105/1/15
f 89/1/15 106/1/15 90/1/15
f 111/2/66 110/1/66 109/1/66
f 110/1/66 111/2/66 112/2/66
f 100/2/60 111/2/67 99/2/59
f 111/2/67 100/2/60 112/2/68
f 112/2/68 111/2/67 111/2/67
f 111/2/67 112/2/68 112/2/68
f 111/2/67 97/1/62 99/2/59
f 97/1/62 111/2/67 109/1/69
f 111/2/67 109/1/69 111/2/67
f 109/1/69 111/2/67 109/1/69
f 110/1/70 100/2/60 98/1/64
f 100/2/60 110/1/70 112/2/68
f 110/1/70 112/2/68 110/1/70
f 112/2/68 110/1/70 112/2/68
f 100/2/71 97/1/71 98/1/71
f 97/1/71 100/2/71 99/2/71
f 110/1/15 109/1/15 109/1/15
f 109/1/15 110/1/15 110/1/15
f 110/1/15 97/1/15 109/1/15
f 97/1/15 110/1/15 98/1/15

g railroad-rail-corner-large




usemtl colormap

f 3/2/1 2/1/1 1/1/1
f 2/1/1 3/2/1 4/2/1
f 7/2/4 6/2/3 5/2/2
f 6/2/3 7/2/4 8/2/5
f 8/2/5 3/2/6 6/2/3
f 3/2/6 8/2/5 4/2/7
f 6/2/3 9/1/8 5/2/2
f 9/1/8 6/2/3 10/1/9
f 3/2/6 10/1/9 6/2/3
f 10/1/9 3/2/6 1/1/10
f 12/1/12 7/2/4 11/1/11
f 7/2/4 12/1/12 8/2/5
f 2/1/13 8/2/5 12/1/12
f 8/2/5 2/1/13 4/2/7
f 7/2/14 9/1/14 11/1/14
f 9/1/14 7/2/14 5/2/14
f 2/1/15 10/1/15 1/1/15
f 10/1/15 2/1/15 12/1/15
f 12/1/15 9/1/15 10/1/15
f 9/1/15 12/1/15 11/1/15
f 15/2/1 14/1/1 13/1/1
f 14/1/1 15/2/1 16/2/1
f 19/2/4 18/2/3 17/2/2
f 18/2/3 19/2/4 20/2/5
f 20/2/5 15/2/6 18/2/3
f 15/2/6 20/2/5 16/2/7
f 18/2/3 21/1/8 17/2/2
f 21/1/8 18/2/3 22/1/9
f 15/2/6 22/1/9 18/2/3
f 22/1/9 15/2/6 13/1/10
f 24/1/12 19/2/4 23/1/11
f 19/2/4 24/1/12 20/2/5
f 14/1/13 20/2/5 24/1/12
f 20/2/5 14/1/13 16/2/7
f 19/2/14 21/1/14 23/1/14
f 21/1/14 19/2/14 17/2/14
f 14/1/15 22/1/15 13/1/15
f 22/1/15 14/1/15 24/1/15
f 24/1/15 21/1/15 22/1/15
f 21/1/15 24/1/15 23/1/15
f 27/2/16 26/1/16 25/1/16
f 26/1/16 27/2/16 28/2/16
f 4/2/7 29/2/17 3/2/6
f 29/2/17 4/2/7 30/2/18
f 30/2/18 27/2/19 29/2/17
f 27/2/19 30/2/18 28/2/20
f 29/2/17 1/1/10 3/2/6
f 1/1/10 29/2/17 31/1/21
f 27/2/19 31/1/21 29/2/17
f 31/1/21 27/2/19 25/1/22
f 32/1/23 4/2/7 2/1/13
f 4/2/7 32/1/23 30/2/18
f 26/1/24 30/2/18 32/1/23
f 30/2/18 26/1/24 28/2/20
f 4/2/25 1/1/25 2/1/25
f 1/1/25 4/2/25 3/2/25
f 26/1/15 31/1/15 25/1/15
f 31/1/15 26/1/15 32/1/15
f 32/1/15 1/1/15 31/1/15
f 1/1/15 32/1/15 2/1/15
f 35/2/16 34/1/16 33/1/16
f 34/1/16 35/2/16 36/2/16
f 16/2/7 37/2/17 15/2/6
f 37/2/17 16/2/7 38/2/18
f 38/2/18 35/2/19 37/2/17
f 35/2/19 38/2/18 36/2/20
f 37/2/17 13/1/10 15/2/6
f 13/1/10 37/2/17 39/1/21
f 35/2/19 39/1/21 37/2/17
f 39/1/21 35/2/19 33/1/22
f 40/1/23 16/2/7 14/1/13
f 16/2/7 40/1/23 38/2/18
f 34/1/24 38/2/18 40/1/23
f 38/2/18 34/1/24 36/2/20
f 16/2/25 13/1/25 14/1/25
f 13/1/25 16/2/25 15/2/25
f 34/1/15 39/1/15 33/1/15
f 39/1/15 34/1/15 40/1/15
f 40/1/15 13/1/15 39/1/15
f 13/1/15 40/1/15 14/1/15
f 43/2/26 42/1/26 41/1/26
f 42/1/26 43/2/26 44/2/26
f 28/2/20 45/2/27 27/2/19
f 45/2/27 28/2/20 46/2/28
f 46/2/28 43/2/29 45/2/27
f 43/2/29 46/2/28 44/2/30
f 45/2/27 25/1/22 27/2/19
f 25/1/22 45/2/27 47/1/31
f 43/2/29 47/1/31 45/2/27
f 47/1/31 43/2/29 41/1/32
f 48/1/33 28/2/20 26/1/24
f 28/2/20 48/1/33 46/2/28
f 42/1/34 46/2/28 48/1/33
f 46/2/28 42/1/34 44/2/30
f 28/2/35 25/1/35 26/1/35
f 25/1/35 28/2/35 27/2/35
f 42/1/15 47/1/15 41/1/15
f 47/1/15 42/1/15 48/1/15
f 48/1/15 25/1/15 47/1/15
f 25/1/15 48/1/15 26/1/15
f 51/2/26 50/1/26 49/1/26
f 50/1/26 51/2/26 52/2/26
f 36/2/20 53/2/27 35/2/19
f 53/2/27 36/2/20 54/2/28
f 54/2/28 51/2/29 53/2/27
f 51/2/29 54/2/28 52/2/30
f 53/2/27 33/1/22 35/2/19
f 33/1/22 53/2/27 55/1/31
f 51/2/29 55/1/31 53/2/27
f 55/1/31 51/2/29 49/1/32
f 56/1/33 36/2/20 34/1/24
f 36/2/20 56/1/33 54/2/28
f 50/1/34 54/2/28 56/1/33
f 54/2/28 50/1/34 52/2/30
f 36/2/35 33/1/35 34/1/35
f 33/1/35 36/2/35 35/2/35
f 50/1/15 55/1/15 49/1/15
f 55/1/15 50/1/15 56/1/15
f 56/1/15 33/1/15 55/1/15
f 33/1/15 56/1/15 34/1/15
f 59/2/36 58/1/36 57/1/36
f 58/1/36 59/2/36 60/2/36
f 44/2/30 61/2/37 43/2/29
f 61/2/37 44/2/30 62/2/38
f 62/2/38 59/2/39 61/2/37
f 59/2/39 62/2/38 60/2/40
f 61/2/37 41/1/32 43/2/29
f 41/1/32 61/2/37 63/1/41
f 59/2/39 63/1/41 61/2/37
f 63/1/41 59/2/39 57/1/42
f 64/1/43 44/2/30 42/1/34
f 44/2/30 64/1/43 62/2/38
f 58/1/44 62/2/38 64/1/43
f 62/2/38 58/1/44 60/2/40
f 44/2/45 41/1/45 42/1/45
f 41/1/45 44/2/45 43/2/45
f 58/1/15 63/1/15 57/1/15
f 63/1/15 58/1/15 64/1/15
f 64/1/15 41/1/15 63/1/15
f 41/1/15 64/1/15 42/1/15
f 67/2/36 66/1/36 65/1/36
f 66/1/36 67/2/36 68/2/36
f 52/2/30 69/2/37 51/2/29
f 69/2/37 52/2/30 70/2/38
f 70/2/38 67/2/39 69/2/37
f 67/2/39 70/2/38 68/2/40
f 69/2/37 49/1/32 51/2/29
f 49/1/32 69/2/37 71/1/41
f 67/2/39 71/1/41 69/2/37
f 71/1/41 67/2/39 65/1/42
f 72/1/43 52/2/30 50/1/34
f 52/2/30 72/1/43 70/2/38
f 66/1/44 70/2/38 72/1/43
f 70/2/38 66/1/44 68/2/40
f 52/2/45 49/1/45 50/1/45
f 49/1/45 52/2/45 51/2/45
f 66/1/15 71/1/15 65/1/15
f 71/1/15 66/1/15 72/1/15
f 72/1/15 49/1/15 71/1/15
f 49/1/15 72/1/15 50/1/15
f 75/2/46 74/1/46 73/1/46
f 74/1/46 75/2/46 76/2/46
f 60/2/40 77/2/47 59/2/39
f 77/2/47 60/2/40 78/2/48
f 78/2/48 75/2/49 77/2/47
f 75/2/49 78/2/48 76/2/50
f 77/2/47 57/1/42 59/2/39
f 57/1/42 77/2/47 79/1/51
f 75/2/49 79/1/51 77/2/47
f 79/1/51 75/2/49 73/1/52
f 80/1/53 60/2/40 58/1/44
f 60/2/40 80/1/53 78/2/48
f 74/1/54 78/2/48 80/1/53
f 78/2/48 74/1/54 76/2/50
f 60/2/55 57/1/55 58/1/55
f 57/1/55 60/2/55 59/2/55
f 74/1/15 79/1/15 73/1/15
f 79/1/15 74/1/15 80/1/15
f 80/1/15 57/1/15 79/1/15
f 57/1/15 80/1/15 58/1/15
f 83/2/46 82/1/46 81/1/46
f 82/1/46 83/2/46 84/2/46
f 68/2/40 85/2/47 67/2/39
f 85/2/47 68/2/40 86/2/48
f 86/2/48 83/2/49 85/2/47
f 83/2/49 86/2/48 84/2/50
f 85/2/47 65/1/42 67/2/39
f 65/1/42 85/2/47 87/1/51
f 83/2/49 87/1/51 85/2/47
f 87/1/51 83/2/49 81/1/52
f 88/1/53 68/2/40 66/1/44
f 68/2/40 88/1/53 86/2/48
f 82/1/54 86/2/48 88/1/53
f 86/2/48 82/1/54 84/2/50
f 68/2/55 65/1/55 66/1/55
f 65/1/55 68/2/55 67/2/55
f 82/1/15 87/1/15 81/1/15
f 87/1/15 82/1/15 88/1/15
f 88/1/15 65/1/15 87/1/15
f 65/1/15 88/1/15 66/1/15
f 91/2/56 90/1/56 89/1/56
f 90/1/56 91/2/56 92/2/56
f 76/2/50 93/2/57 75/2/49
f 93/2/57 76/2/50 94/2/58
f 94/2/58 91/2/59 93/2/57
f 91/2/59 94/2/58 92/2/60
f 93/2/57 73/1/52 75/2/49
f 73/1/52 93/2/57 95/1/61
f 91/2/59 95/1/61 93/2/57
f 95/1/61 91/2/59 89/1/62
f 96/1/63 76/2/50 74/1/54
f 76/2/50 96/1/63 94/2/58
f 90/1/64 94/2/58 96/1/63
f 94/2/58 90/1/64 92/2/60
f 76/2/65 73/1/65 74/1/65
f 73/1/65 76/2/65 75/2/65
f 90/1/15 95/1/15 89/1/15
f 95/1/15 90/1/15 96/1/15
f 96/1/15 73/1/15 95/1/15
f 73/1/15 96/1/15 74/1/15
f 99/2/56 98/1/56 97/1/56
f 98/1/56 99/2/56 100/2/56
f 84/2/50 101/2/57 83/2/49
f 101/2/57 84/2/50 102/2/58
f 102/2/58 99/2/59 101/2/57
f 99/2/59 102/2/58 100/2/60
f 101/2/57 81/1/52 83/2/49
f 81/1/52 101/2/57 103/1/61
f 99/2/59 103/1/61 101/2/57
f 103/1/61 99/2/59 97/1/62
f 104/1/63 84/2/50 82/1/54
f 84/2/50 104/1/63 102/2/58
f 98/1/64 102/2/58 104/1/63
f 102/2/58 98/1/64 100/2/60
f 84/2/65 81/1/65 82/1/65
f 81/1/65 84/2/65 83/2/65
f 98/1/15 103/1/15 97/1/15
f 103/1/15 98/1/15 104/1/15
f 104/1/15 81/1/15 103/1/15
f 81/1/15 104/1/15 82/1/15
f 107/2/66 106/1/66 105/1/66
f 106/1/66 107/2/66 108/2/66
f 92/2/60 107/2/67 91/2/59
f 107/2/67 92/2/60 108/2/68
f 108/2/68 107/2/67 107/2/67
f 107/2/67 108/2/68 108/2/68
f 107/2/67 89/1/62 91/2/59
f 89/1/62 107/2/67 105/1/69
f 107/2/67 105/1/69 107/2/67
f 105/1/69 107/2/67 105/1/69
f 106/1/70 92/2/60 90/1/64
f 92/2/60 106/1/70 108/2/68
f 106/1/70 108/2/68 106/1/70
f 108/2/68 106/1/70 108/2/68
f 92/2/71 89/1/71 90/1/71
f 89/1/71 92/2/71 91/2/71
f 106/1/15 105/1/15 105/1/15
f 105/1/15 106/1/15 106/1/15
f 106/1/15 89/1/15 105/1/15
f 89/1/15 106/1/15 90/1/15
f 111/2/66 110/1/66 109/1/66
f 110/1/66 111/2/66 112/2/66
f 100/2/60 111/2/67 99/2/59
f 111/2/67 100/2/60 112/2/68
f 112/2/68 111/2/67 111/2/67
f 111/2/67 112/2/68 112/2/68
f 111/2/67 97/1/62 99/2/59
f 97/1/62 111/2/67 109/1/69
f 111/2/67 109/1/69 111/2/67
f 109/1/69 111/2/67 109/1/69
f 110/1/70 100/2/60 98/1/64
f 100/2/60 110/1/70 112/2/68
f 110/1/70 112/2/68 110/1/70
f 112/2/68 110/1/70 112/2/68
f 100/2/71 97/1/71 98/1/71
f 97/1/71 100/2/71 99/2/71
f 110/1/15 109/1/15 109/1/15
f 109/1/15 110/1/15 110/1/15
f 110/1/15 97/1/15 109/1/15
f 97/1/15 110/1/15 98/1/15

