# Created by Kenney (www.kenney.nl)

mtllib spline-segment.mtl

g spline-segment

v -0.45 0.075 -0.05 1 1 1
v -0.45 0.075 0.05 1 1 1
v -0.3 0.075 -0.05 1 1 1
v -0.3 0.075 0.05 1 1 1
v -0.3 0.05 -0.05 1 1 1
v -0.45 0.05 -0.05 1 1 1
v -0.45 0.05 0.05 1 1 1
v -0.3 0.05 0.05 1 1 1
v 0.45 0.075 -0.05 1 1 1
v 0.45 0.075 0.05 1 1 1
v 0.3 0.075 -0.05 1 1 1
v 0.3 0.075 0.05 1 1 1
v 0.3 0.05 -0.05 1 1 1
v 0.45 0.05 -0.05 1 1 1
v 0.45 0.05 0.05 1 1 1
v 0.3 0.05 0.05 1 1 1
v 0.5 0 0.125 1 1 1
v -0.5 0 0.125 1 1 1
v 0.5 0.05 0.125 1 1 1
v -0.5 0.05 0.125 1 1 1
v -0.5 0 -0.125 1 1 1
v -0.5 0.05 -0.125 1 1 1
v -0.5 0 1.155058E-14 1 1 1
v -0.5 0.05 1.155058E-14 1 1 1
v 0.5 0 -0.125 1 1 1
v 0.5 0 1.155058E-14 1 1 1
v 0.5 0.05 -0.125 1 1 1
v 0.5 0.05 1.155058E-14 1 1 1

vn -0.7071068 0.7071068 0
vn 0 1 0
vn 0 0 -1
vn -1 0 0
vn 0 0 1
vn 0.7071068 0.7071068 0
vn 1 0 0
vn 0 -1 0

vt 0.96875 0.225
vt 0.96875 0.025
vt 0.21875 0.275
vt 0.21875 0.475

usemtl colormap

f 4/1/5 2/1/5 8/2/5
f 7/2/5 8/2/5 2/1/5
f 7/2/4 2/1/1 6/2/4
f 1/1/1 6/2/4 2/1/1
f 1/1/3 3/1/3 6/2/3
f 5/2/3 6/2/3 3/1/3
f 4/1/2 3/1/2 2/1/1
f 1/1/1 2/1/1 3/1/2
f 11/1/2 10/1/6 9/1/6
f 10/1/6 11/1/2 12/1/2
f 11/1/3 14/2/3 13/2/3
f 14/2/3 11/1/3 9/1/3
f 10/1/6 14/2/7 9/1/6
f 14/2/7 10/1/6 15/2/7
f 10/1/5 16/2/5 15/2/5
f 16/2/5 10/1/5 12/1/5
f 19/4/5 18/3/5 17/3/5
f 18/3/5 19/4/5 20/4/5
f 23/3/4 22/4/1 21/3/4
f 22/4/1 23/3/4 24/4/1
f 18/3/4 24/4/1 23/3/4
f 24/4/1 18/3/4 20/4/1
f 25/3/8 23/3/8 21/3/8
f 23/3/8 25/3/8 26/3/8
f 26/3/8 18/3/8 23/3/8
f 18/3/8 26/3/8 17/3/8
f 22/4/1 28/4/6 27/4/6
f 28/4/6 22/4/1 24/4/1
f 24/4/1 19/4/6 28/4/6
f 19/4/6 24/4/1 20/4/1
f 28/4/6 25/3/7 27/4/6
f 25/3/7 28/4/6 26/3/7
f 19/4/6 26/3/7 28/4/6
f 26/3/7 19/4/6 17/3/7
f 22/4/3 25/3/3 21/3/3
f 25/3/3 22/4/3 27/4/3

g spline-segment




usemtl colormap

f 4/1/5 2/1/5 8/2/5
f 7/2/5 8/2/5 2/1/5
f 7/2/4 2/1/1 6/2/4
f 1/1/1 6/2/4 2/1/1
f 1/1/3 3/1/3 6/2/3
f 5/2/3 6/2/3 3/1/3
f 4/1/2 3/1/2 2/1/1
f 1/1/1 2/1/1 3/1/2
f 11/1/2 10/1/6 9/1/6
f 10/1/6 11/1/2 12/1/2
f 11/1/3 14/2/3 13/2/3
f 14/2/3 11/1/3 9/1/3
f 10/1/6 14/2/7 9/1/6
f 14/2/7 10/1/6 15/2/7
f 10/1/5 16/2/5 15/2/5
f 16/2/5 10/1/5 12/1/5
f 19/4/5 18/3/5 17/3/5
f 18/3/5 19/4/5 20/4/5
f 23/3/4 22/4/1 21/3/4
f 22/4/1 23/3/4 24/4/1
f 18/3/4 24/4/1 23/3/4
f 24/4/1 18/3/4 20/4/1
f 25/3/8 23/3/8 21/3/8
f 23/3/8 25/3/8 26/3/8
f 26/3/8 18/3/8 23/3/8
f 18/3/8 26/3/8 17/3/8
f 22/4/1 28/4/6 27/4/6
f 28/4/6 22/4/1 24/4/1
f 24/4/1 19/4/6 28/4/6
f 19/4/6 24/4/1 20/4/1
f 28/4/6 25/3/7 27/4/6
f 25/3/7 28/4/6 26/3/7
f 19/4/6 26/3/7 28/4/6
f 26/3/7 19/4/6 17/3/7
f 22/4/3 25/3/3 21/3/3
f 25/3/3 22/4/3 27/4/3

