# Created by Kenney (www.kenney.nl)

mtllib floor.mtl

g floor

v -7.219114E-16 0 0 1 1 1
v 0.5 0 0 1 1 1
v -7.219114E-16 0.025 0 1 1 1
v 0.5 0.025 0 1 1 1
v -0.5 0 -0.5 1 1 1
v -7.219114E-16 0 -0.5 1 1 1
v -0.5 0.025 -0.5 1 1 1
v -7.219114E-16 0.025 -0.5 1 1 1
v -0.5 0.025 0 1 1 1
v 0.5 0.025 0.5 1 1 1
v -7.219114E-16 0.025 0.5 1 1 1
v -0.5 0 0 1 1 1
v 0.5 0 0.5 1 1 1
v -7.219114E-16 0 0.5 1 1 1
v -0.5 0 0.5 1 1 1
v 0.5 0 -0.5 1 1 1

vn 0 0 -1
vn 0 1 0
vn -1 0 0
vn 1 0 0
vn 0 0 1

vt 0.21875 0.025
vt 0.21875 0.225

usemtl colormap

f 3/2/1 2/1/1 1/1/1
f 2/1/1 3/2/1 4/2/1
f 7/2/1 6/1/1 5/1/1
f 6/1/1 7/2/1 8/2/1
f 7/2/2 3/2/2 8/2/2
f 3/2/2 7/2/2 9/2/2
f 3/2/2 10/2/2 4/2/2
f 10/2/2 3/2/2 11/2/2
f 12/1/3 7/2/3 5/1/3
f 7/2/3 12/1/3 9/2/3
f 3/2/4 6/1/4 8/2/4
f 6/1/4 3/2/4 1/1/4
f 10/2/4 2/1/4 4/2/4
f 2/1/4 10/2/4 13/1/4
f 3/2/5 12/1/5 1/1/5
f 12/1/5 3/2/5 9/2/5
f 10/2/5 14/1/5 13/1/5
f 14/1/5 10/2/5 11/2/5
f 14/1/3 3/2/3 1/1/3
f 3/2/3 14/1/3 11/2/3
f 14/1/2 12/1/2 15/1/2
f 12/1/2 14/1/2 1/1/2
f 2/1/2 6/1/2 1/1/2
f 6/1/2 2/1/2 16/1/2

g floor




usemtl colormap

f 3/2/1 2/1/1 1/1/1
f 2/1/1 3/2/1 4/2/1
f 7/2/1 6/1/1 5/1/1
f 6/1/1 7/2/1 8/2/1
f 7/2/2 3/2/2 8/2/2
f 3/2/2 7/2/2 9/2/2
f 3/2/2 10/2/2 4/2/2
f 10/2/2 3/2/2 11/2/2
f 12/1/3 7/2/3 5/1/3
f 7/2/3 12/1/3 9/2/3
f 3/2/4 6/1/4 8/2/4
f 6/1/4 3/2/4 1/1/4
f 10/2/4 2/1/4 4/2/4
f 2/1/4 10/2/4 13/1/4
f 3/2/5 12/1/5 1/1/5
f 12/1/5 3/2/5 9/2/5
f 10/2/5 14/1/5 13/1/5
f 14/1/5 10/2/5 11/2/5
f 14/1/3 3/2/3 1/1/3
f 3/2/3 14/1/3 11/2/3
f 14/1/2 12/1/2 15/1/2
f 12/1/2 14/1/2 1/1/2
f 2/1/2 6/1/2 1/1/2
f 6/1/2 2/1/2 16/1/2

