# Created by Kenney (www.kenney.nl)

mtllib bevel-lq-plate-2x6.mtl

g bevel-lq-plate-2x6

v -0.2385 0 -0.079 1 1 1
v 0.2385 0 -0.079 1 1 1
v -0.2385 0.032 -0.079 1 1 1
v 0.2385 0.032 -0.079 1 1 1
v -0.2385 0 0.079 1 1 1
v -0.2385 0.032 0.079 1 1 1
v 0.2385 0 0.079 1 1 1
v 0.2385 0.032 0.079 1 1 1
v 0.22275 0.05 -0.0535 1 1 1
v 0.22275 0.05 -0.0255 1 1 1
v 0.21275 0.05 -0.0635 1 1 1
v 0.21275 0.05 -0.0155 1 1 1
v 0.18475 0.05 -0.0635 1 1 1
v 0.18475 0.05 -0.0155 1 1 1
v 0.17475 0.05 -0.0535 1 1 1
v 0.17475 0.05 -0.0255 1 1 1
v 0.18475 0.032 -0.0635 1 1 1
v 0.17475 0.032 -0.0535 1 1 1
v 0.21275 0.032 -0.0635 1 1 1
v 0.17475 0.032 -0.0255 1 1 1
v 0.22275 0.032 -0.0535 1 1 1
v 0.18475 0.032 -0.0155 1 1 1
v 0.21275 0.032 -0.0155 1 1 1
v 0.22275 0.032 -0.0255 1 1 1
v -0.17475 0.05 -0.0535 1 1 1
v -0.17475 0.05 -0.0255 1 1 1
v -0.18475 0.05 -0.0635 1 1 1
v -0.18475 0.05 -0.0155 1 1 1
v -0.21275 0.05 -0.0635 1 1 1
v -0.21275 0.05 -0.0155 1 1 1
v -0.22275 0.05 -0.0535 1 1 1
v -0.22275 0.05 -0.0255 1 1 1
v -0.21275 0.032 -0.0635 1 1 1
v -0.22275 0.032 -0.0535 1 1 1
v -0.18475 0.032 -0.0635 1 1 1
v -0.22275 0.032 -0.0255 1 1 1
v -0.17475 0.032 -0.0535 1 1 1
v -0.21275 0.032 -0.0155 1 1 1
v -0.18475 0.032 -0.0155 1 1 1
v -0.17475 0.032 -0.0255 1 1 1
v -0.01575 0.05 0.0255 1 1 1
v -0.01575 0.05 0.0535 1 1 1
v -0.02575 0.05 0.0155 1 1 1
v -0.02575 0.05 0.0635 1 1 1
v -0.05375 0.05 0.0155 1 1 1
v -0.05375 0.05 0.0635 1 1 1
v -0.06375 0.05 0.0255 1 1 1
v -0.06375 0.05 0.0535 1 1 1
v -0.05375 0.032 0.0155 1 1 1
v -0.06375 0.032 0.0255 1 1 1
v -0.02575 0.032 0.0155 1 1 1
v -0.06375 0.032 0.0535 1 1 1
v -0.01575 0.032 0.0255 1 1 1
v -0.05375 0.032 0.0635 1 1 1
v -0.02575 0.032 0.0635 1 1 1
v -0.01575 0.032 0.0535 1 1 1
v -0.09525 0.05 -0.0535 1 1 1
v -0.09525 0.05 -0.0255 1 1 1
v -0.10525 0.05 -0.0635 1 1 1
v -0.10525 0.05 -0.0155 1 1 1
v -0.13325 0.05 -0.0635 1 1 1
v -0.13325 0.05 -0.0155 1 1 1
v -0.14325 0.05 -0.0535 1 1 1
v -0.14325 0.05 -0.0255 1 1 1
v -0.13325 0.032 -0.0635 1 1 1
v -0.14325 0.032 -0.0535 1 1 1
v -0.10525 0.032 -0.0635 1 1 1
v -0.14325 0.032 -0.0255 1 1 1
v -0.09525 0.032 -0.0535 1 1 1
v -0.13325 0.032 -0.0155 1 1 1
v -0.10525 0.032 -0.0155 1 1 1
v -0.09525 0.032 -0.0255 1 1 1
v 0.06375 0.05 0.0255 1 1 1
v 0.06375 0.05 0.0535 1 1 1
v 0.05375 0.05 0.0155 1 1 1
v 0.05375 0.05 0.0635 1 1 1
v 0.02575 0.05 0.0155 1 1 1
v 0.02575 0.05 0.0635 1 1 1
v 0.01575 0.05 0.0255 1 1 1
v 0.01575 0.05 0.0535 1 1 1
v 0.02575 0.032 0.0155 1 1 1
v 0.01575 0.032 0.0255 1 1 1
v 0.05375 0.032 0.0155 1 1 1
v 0.01575 0.032 0.0535 1 1 1
v 0.06375 0.032 0.0255 1 1 1
v 0.02575 0.032 0.0635 1 1 1
v 0.05375 0.032 0.0635 1 1 1
v 0.06375 0.032 0.0535 1 1 1
v -0.09525 0.05 0.0255 1 1 1
v -0.09525 0.05 0.0535 1 1 1
v -0.10525 0.05 0.0155 1 1 1
v -0.10525 0.05 0.0635 1 1 1
v -0.13325 0.05 0.0155 1 1 1
v -0.13325 0.05 0.0635 1 1 1
v -0.14325 0.05 0.0255 1 1 1
v -0.14325 0.05 0.0535 1 1 1
v -0.13325 0.032 0.0155 1 1 1
v -0.14325 0.032 0.0255 1 1 1
v -0.10525 0.032 0.0155 1 1 1
v -0.14325 0.032 0.0535 1 1 1
v -0.09525 0.032 0.0255 1 1 1
v -0.13325 0.032 0.0635 1 1 1
v -0.10525 0.032 0.0635 1 1 1
v -0.09525 0.032 0.0535 1 1 1
v -0.01575 0.05 -0.0535 1 1 1
v -0.01575 0.05 -0.0255 1 1 1
v -0.02575 0.05 -0.0635 1 1 1
v -0.02575 0.05 -0.0155 1 1 1
v -0.05375 0.05 -0.0635 1 1 1
v -0.05375 0.05 -0.0155 1 1 1
v -0.06375 0.05 -0.0535 1 1 1
v -0.06375 0.05 -0.0255 1 1 1
v -0.05375 0.032 -0.0635 1 1 1
v -0.06375 0.032 -0.0535 1 1 1
v -0.02575 0.032 -0.0635 1 1 1
v -0.06375 0.032 -0.0255 1 1 1
v -0.01575 0.032 -0.0535 1 1 1
v -0.05375 0.032 -0.0155 1 1 1
v -0.02575 0.032 -0.0155 1 1 1
v -0.01575 0.032 -0.0255 1 1 1
v 0.14325 0.05 -0.0535 1 1 1
v 0.14325 0.05 -0.0255 1 1 1
v 0.13325 0.05 -0.0635 1 1 1
v 0.13325 0.05 -0.0155 1 1 1
v 0.10525 0.05 -0.0635 1 1 1
v 0.10525 0.05 -0.0155 1 1 1
v 0.09525 0.05 -0.0535 1 1 1
v 0.09525 0.05 -0.0255 1 1 1
v 0.10525 0.032 -0.0635 1 1 1
v 0.09525 0.032 -0.0535 1 1 1
v 0.13325 0.032 -0.0635 1 1 1
v 0.09525 0.032 -0.0255 1 1 1
v 0.14325 0.032 -0.0535 1 1 1
v 0.10525 0.032 -0.0155 1 1 1
v 0.13325 0.032 -0.0155 1 1 1
v 0.14325 0.032 -0.0255 1 1 1
v 0.22275 0.05 0.0255 1 1 1
v 0.22275 0.05 0.0535 1 1 1
v 0.21275 0.05 0.0155 1 1 1
v 0.21275 0.05 0.0635 1 1 1
v 0.18475 0.05 0.0155 1 1 1
v 0.18475 0.05 0.0635 1 1 1
v 0.17475 0.05 0.0255 1 1 1
v 0.17475 0.05 0.0535 1 1 1
v 0.18475 0.032 0.0155 1 1 1
v 0.17475 0.032 0.0255 1 1 1
v 0.21275 0.032 0.0155 1 1 1
v 0.17475 0.032 0.0535 1 1 1
v 0.22275 0.032 0.0255 1 1 1
v 0.18475 0.032 0.0635 1 1 1
v 0.21275 0.032 0.0635 1 1 1
v 0.22275 0.032 0.0535 1 1 1
v 0.14325 0.05 0.0255 1 1 1
v 0.14325 0.05 0.0535 1 1 1
v 0.13325 0.05 0.0155 1 1 1
v 0.13325 0.05 0.0635 1 1 1
v 0.10525 0.05 0.0155 1 1 1
v 0.10525 0.05 0.0635 1 1 1
v 0.09525 0.05 0.0255 1 1 1
v 0.09525 0.05 0.0535 1 1 1
v 0.10525 0.032 0.0155 1 1 1
v 0.09525 0.032 0.0255 1 1 1
v 0.13325 0.032 0.0155 1 1 1
v 0.09525 0.032 0.0535 1 1 1
v 0.14325 0.032 0.0255 1 1 1
v 0.10525 0.032 0.0635 1 1 1
v 0.13325 0.032 0.0635 1 1 1
v 0.14325 0.032 0.0535 1 1 1
v -0.17475 0.05 0.0255 1 1 1
v -0.17475 0.05 0.0535 1 1 1
v -0.18475 0.05 0.0155 1 1 1
v -0.18475 0.05 0.0635 1 1 1
v -0.21275 0.05 0.0155 1 1 1
v -0.21275 0.05 0.0635 1 1 1
v -0.22275 0.05 0.0255 1 1 1
v -0.22275 0.05 0.0535 1 1 1
v -0.21275 0.032 0.0155 1 1 1
v -0.22275 0.032 0.0255 1 1 1
v -0.18475 0.032 0.0155 1 1 1
v -0.22275 0.032 0.0535 1 1 1
v -0.17475 0.032 0.0255 1 1 1
v -0.21275 0.032 0.0635 1 1 1
v -0.18475 0.032 0.0635 1 1 1
v -0.17475 0.032 0.0535 1 1 1
v 0.06375 0.05 -0.0535 1 1 1
v 0.06375 0.05 -0.0255 1 1 1
v 0.05375 0.05 -0.0635 1 1 1
v 0.05375 0.05 -0.0155 1 1 1
v 0.02575 0.05 -0.0635 1 1 1
v 0.02575 0.05 -0.0155 1 1 1
v 0.01575 0.05 -0.0535 1 1 1
v 0.01575 0.05 -0.0255 1 1 1
v 0.02575 0.032 -0.0635 1 1 1
v 0.01575 0.032 -0.0535 1 1 1
v 0.05375 0.032 -0.0635 1 1 1
v 0.01575 0.032 -0.0255 1 1 1
v 0.06375 0.032 -0.0535 1 1 1
v 0.02575 0.032 -0.0155 1 1 1
v 0.05375 0.032 -0.0155 1 1 1
v 0.06375 0.032 -0.0255 1 1 1

vn 0 0 -1
vn -1 0 0
vn 0 -1 0
vn 1 0 0
vn 0 0 1
vn 0 1 0
vn -0.3826834 0 -0.9238795
vn -0.9238795 0 -0.3826834
vn 0.3826834 0 -0.9238795
vn -0.9238795 0 0.3826834
vn 0.9238795 0 -0.3826834
vn -0.3826834 0 0.9238795
vn 0.3826834 0 0.9238795
vn 0.9238795 0 0.3826834

vt 0.59375 0.025
vt 0.59375 0.225

usemtl colormap

f 3/2/1 2/1/1 1/1/1
f 2/1/1 3/2/1 4/2/1
f 5/1/2 3/2/2 1/1/2
f 3/2/2 5/1/2 6/2/2
f 5/1/3 2/1/3 7/1/3
f 2/1/3 5/1/3 1/1/3
f 8/2/4 2/1/4 4/2/4
f 2/1/4 8/2/4 7/1/4
f 8/2/5 5/1/5 7/1/5
f 5/1/5 8/2/5 6/2/5
f 3/2/6 8/2/6 4/2/6
f 8/2/6 3/2/6 6/2/6
f 11/2/6 10/2/6 9/2/6
f 10/2/6 11/2/6 12/2/6
f 12/2/6 11/2/6 13/2/6
f 12/2/6 13/2/6 14/2/6
f 14/2/6 13/2/6 15/2/6
f 14/2/6 15/2/6 16/2/6
f 18/1/8 13/2/7 17/1/7
f 13/2/7 19/1/9 17/1/7
f 13/2/7 18/1/8 15/2/8
f 19/1/9 13/2/7 11/2/9
f 20/1/10 15/2/8 18/1/8
f 15/2/8 20/1/10 16/2/10
f 11/2/9 21/1/11 19/1/9
f 21/1/11 11/2/9 9/2/11
f 22/1/12 16/2/10 20/1/10
f 16/2/10 22/1/12 14/2/12
f 22/1/12 12/2/13 14/2/12
f 12/2/13 22/1/12 23/1/13
f 10/2/14 21/1/11 9/2/11
f 23/1/13 10/2/14 12/2/13
f 21/1/11 10/2/14 24/1/14
f 10/2/14 23/1/13 24/1/14
f 27/2/6 26/2/6 25/2/6
f 26/2/6 27/2/6 28/2/6
f 28/2/6 27/2/6 29/2/6
f 28/2/6 29/2/6 30/2/6
f 30/2/6 29/2/6 31/2/6
f 30/2/6 31/2/6 32/2/6
f 34/1/8 29/2/7 33/1/7
f 29/2/7 35/1/9 33/1/7
f 29/2/7 34/1/8 31/2/8
f 35/1/9 29/2/7 27/2/9
f 36/1/10 31/2/8 34/1/8
f 31/2/8 36/1/10 32/2/10
f 27/2/9 37/1/11 35/1/9
f 37/1/11 27/2/9 25/2/11
f 38/1/12 32/2/10 36/1/10
f 32/2/10 38/1/12 30/2/12
f 38/1/12 28/2/13 30/2/12
f 28/2/13 38/1/12 39/1/13
f 26/2/14 37/1/11 25/2/11
f 39/1/13 26/2/14 28/2/13
f 37/1/11 26/2/14 40/1/14
f 26/2/14 39/1/13 40/1/14
f 43/2/6 42/2/6 41/2/6
f 42/2/6 43/2/6 44/2/6
f 44/2/6 43/2/6 45/2/6
f 44/2/6 45/2/6 46/2/6
f 46/2/6 45/2/6 47/2/6
f 46/2/6 47/2/6 48/2/6
f 50/1/8 45/2/7 49/1/7
f 45/2/7 51/1/9 49/1/7
f 45/2/7 50/1/8 47/2/8
f 51/1/9 45/2/7 43/2/9
f 52/1/10 47/2/8 50/1/8
f 47/2/8 52/1/10 48/2/10
f 43/2/9 53/1/11 51/1/9
f 53/1/11 43/2/9 41/2/11
f 54/1/12 48/2/10 52/1/10
f 48/2/10 54/1/12 46/2/12
f 54/1/12 44/2/13 46/2/12
f 44/2/13 54/1/12 55/1/13
f 42/2/14 53/1/11 41/2/11
f 55/1/13 42/2/14 44/2/13
f 53/1/11 42/2/14 56/1/14
f 42/2/14 55/1/13 56/1/14
f 59/2/6 58/2/6 57/2/6
f 58/2/6 59/2/6 60/2/6
f 60/2/6 59/2/6 61/2/6
f 60/2/6 61/2/6 62/2/6
f 62/2/6 61/2/6 63/2/6
f 62/2/6 63/2/6 64/2/6
f 66/1/8 61/2/7 65/1/7
f 61/2/7 67/1/9 65/1/7
f 61/2/7 66/1/8 63/2/8
f 67/1/9 61/2/7 59/2/9
f 68/1/10 63/2/8 66/1/8
f 63/2/8 68/1/10 64/2/10
f 59/2/9 69/1/11 67/1/9
f 69/1/11 59/2/9 57/2/11
f 70/1/12 64/2/10 68/1/10
f 64/2/10 70/1/12 62/2/12
f 70/1/12 60/2/13 62/2/12
f 60/2/13 70/1/12 71/1/13
f 58/2/14 69/1/11 57/2/11
f 71/1/13 58/2/14 60/2/13
f 69/1/11 58/2/14 72/1/14
f 58/2/14 71/1/13 72/1/14
f 75/2/6 74/2/6 73/2/6
f 74/2/6 75/2/6 76/2/6
f 76/2/6 75/2/6 77/2/6
f 76/2/6 77/2/6 78/2/6
f 78/2/6 77/2/6 79/2/6
f 78/2/6 79/2/6 80/2/6
f 82/1/8 77/2/7 81/1/7
f 77/2/7 83/1/9 81/1/7
f 77/2/7 82/1/8 79/2/8
f 83/1/9 77/2/7 75/2/9
f 84/1/10 79/2/8 82/1/8
f 79/2/8 84/1/10 80/2/10
f 75/2/9 85/1/11 83/1/9
f 85/1/11 75/2/9 73/2/11
f 86/1/12 80/2/10 84/1/10
f 80/2/10 86/1/12 78/2/12
f 86/1/12 76/2/13 78/2/12
f 76/2/13 86/1/12 87/1/13
f 74/2/14 85/1/11 73/2/11
f 87/1/13 74/2/14 76/2/13
f 85/1/11 74/2/14 88/1/14
f 74/2/14 87/1/13 88/1/14
f 91/2/6 90/2/6 89/2/6
f 90/2/6 91/2/6 92/2/6
f 92/2/6 91/2/6 93/2/6
f 92/2/6 93/2/6 94/2/6
f 94/2/6 93/2/6 95/2/6
f 94/2/6 95/2/6 96/2/6
f 98/1/8 93/2/7 97/1/7
f 93/2/7 99/1/9 97/1/7
f 93/2/7 98/1/8 95/2/8
f 99/1/9 93/2/7 91/2/9
f 100/1/10 95/2/8 98/1/8
f 95/2/8 100/1/10 96/2/10
f 91/2/9 101/1/11 99/1/9
f 101/1/11 91/2/9 89/2/11
f 102/1/12 96/2/10 100/1/10
f 96/2/10 102/1/12 94/2/12
f 102/1/12 92/2/13 94/2/12
f 92/2/13 102/1/12 103/1/13
f 90/2/14 101/1/11 89/2/11
f 103/1/13 90/2/14 92/2/13
f 101/1/11 90/2/14 104/1/14
f 90/2/14 103/1/13 104/1/14
f 107/2/6 106/2/6 105/2/6
f 106/2/6 107/2/6 108/2/6
f 108/2/6 107/2/6 109/2/6
f 108/2/6 109/2/6 110/2/6
f 110/2/6 109/2/6 111/2/6
f 110/2/6 111/2/6 112/2/6
f 114/1/8 109/2/7 113/1/7
f 109/2/7 115/1/9 113/1/7
f 109/2/7 114/1/8 111/2/8
f 115/1/9 109/2/7 107/2/9
f 116/1/10 111/2/8 114/1/8
f 111/2/8 116/1/10 112/2/10
f 107/2/9 117/1/11 115/1/9
f 117/1/11 107/2/9 105/2/11
f 118/1/12 112/2/10 116/1/10
f 112/2/10 118/1/12 110/2/12
f 118/1/12 108/2/13 110/2/12
f 108/2/13 118/1/12 119/1/13
f 106/2/14 117/1/11 105/2/11
f 119/1/13 106/2/14 108/2/13
f 117/1/11 106/2/14 120/1/14
f 106/2/14 119/1/13 120/1/14
f 123/2/6 122/2/6 121/2/6
f 122/2/6 123/2/6 124/2/6
f 124/2/6 123/2/6 125/2/6
f 124/2/6 125/2/6 126/2/6
f 126/2/6 125/2/6 127/2/6
f 126/2/6 127/2/6 128/2/6
f 130/1/8 125/2/7 129/1/7
f 125/2/7 131/1/9 129/1/7
f 125/2/7 130/1/8 127/2/8
f 131/1/9 125/2/7 123/2/9
f 132/1/10 127/2/8 130/1/8
f 127/2/8 132/1/10 128/2/10
f 123/2/9 133/1/11 131/1/9
f 133/1/11 123/2/9 121/2/11
f 134/1/12 128/2/10 132/1/10
f 128/2/10 134/1/12 126/2/12
f 134/1/12 124/2/13 126/2/12
f 124/2/13 134/1/12 135/1/13
f 122/2/14 133/1/11 121/2/11
f 135/1/13 122/2/14 124/2/13
f 133/1/11 122/2/14 136/1/14
f 122/2/14 135/1/13 136/1/14
f 139/2/6 138/2/6 137/2/6
f 138/2/6 139/2/6 140/2/6
f 140/2/6 139/2/6 141/2/6
f 140/2/6 141/2/6 142/2/6
f 142/2/6 141/2/6 143/2/6
f 142/2/6 143/2/6 144/2/6
f 146/1/8 141/2/7 145/1/7
f 141/2/7 147/1/9 145/1/7
f 141/2/7 146/1/8 143/2/8
f 147/1/9 141/2/7 139/2/9
f 148/1/10 143/2/8 146/1/8
f 143/2/8 148/1/10 144/2/10
f 139/2/9 149/1/11 147/1/9
f 149/1/11 139/2/9 137/2/11
f 150/1/12 144/2/10 148/1/10
f 144/2/10 150/1/12 142/2/12
f 150/1/12 140/2/13 142/2/12
f 140/2/13 150/1/12 151/1/13
f 138/2/14 149/1/11 137/2/11
f 151/1/13 138/2/14 140/2/13
f 149/1/11 138/2/14 152/1/14
f 138/2/14 151/1/13 152/1/14
f 155/2/6 154/2/6 153/2/6
f 154/2/6 155/2/6 156/2/6
f 156/2/6 155/2/6 157/2/6
f 156/2/6 157/2/6 158/2/6
f 158/2/6 157/2/6 159/2/6
f 158/2/6 159/2/6 160/2/6
f 162/1/8 157/2/7 161/1/7
f 157/2/7 163/1/9 161/1/7
f 157/2/7 162/1/8 159/2/8
f 163/1/9 157/2/7 155/2/9
f 164/1/10 159/2/8 162/1/8
f 159/2/8 164/1/10 160/2/10
f 155/2/9 165/1/11 163/1/9
f 165/1/11 155/2/9 153/2/11
f 166/1/12 160/2/10 164/1/10
f 160/2/10 166/1/12 158/2/12
f 166/1/12 156/2/13 158/2/12
f 156/2/13 166/1/12 167/1/13
f 154/2/14 165/1/11 153/2/11
f 167/1/13 154/2/14 156/2/13
f 165/1/11 154/2/14 168/1/14
f 154/2/14 167/1/13 168/1/14
f 171/2/6 170/2/6 169/2/6
f 170/2/6 171/2/6 172/2/6
f 172/2/6 171/2/6 173/2/6
f 172/2/6 173/2/6 174/2/6
f 174/2/6 173/2/6 175/2/6
f 174/2/6 175/2/6 176/2/6
f 178/1/8 173/2/7 177/1/7
f 173/2/7 179/1/9 177/1/7
f 173/2/7 178/1/8 175/2/8
f 179/1/9 173/2/7 171/2/9
f 180/1/10 175/2/8 178/1/8
f 175/2/8 180/1/10 176/2/10
f 171/2/9 181/1/11 179/1/9
f 181/1/11 171/2/9 169/2/11
f 182/1/12 176/2/10 180/1/10
f 176/2/10 182/1/12 174/2/12
f 182/1/12 172/2/13 174/2/12
f 172/2/13 182/1/12 183/1/13
f 170/2/14 181/1/11 169/2/11
f 183/1/13 170/2/14 172/2/13
f 181/1/11 170/2/14 184/1/14
f 170/2/14 183/1/13 184/1/14
f 187/2/6 186/2/6 185/2/6
f 186/2/6 187/2/6 188/2/6
f 188/2/6 187/2/6 189/2/6
f 188/2/6 189/2/6 190/2/6
f 190/2/6 189/2/6 191/2/6
f 190/2/6 191/2/6 192/2/6
f 194/1/8 189/2/7 193/1/7
f 189/2/7 195/1/9 193/1/7
f 189/2/7 194/1/8 191/2/8
f 195/1/9 189/2/7 187/2/9
f 196/1/10 191/2/8 194/1/8
f 191/2/8 196/1/10 192/2/10
f 187/2/9 197/1/11 195/1/9
f 197/1/11 187/2/9 185/2/11
f 198/1/12 192/2/10 196/1/10
f 192/2/10 198/1/12 190/2/12
f 198/1/12 188/2/13 190/2/12
f 188/2/13 198/1/12 199/1/13
f 186/2/14 197/1/11 185/2/11
f 199/1/13 186/2/14 188/2/13
f 197/1/11 186/2/14 200/1/14
f 186/2/14 199/1/13 200/1/14

g bevel-lq-plate-2x6




usemtl colormap

f 3/2/1 2/1/1 1/1/1
f 2/1/1 3/2/1 4/2/1
f 5/1/2 3/2/2 1/1/2
f 3/2/2 5/1/2 6/2/2
f 5/1/3 2/1/3 7/1/3
f 2/1/3 5/1/3 1/1/3
f 8/2/4 2/1/4 4/2/4
f 2/1/4 8/2/4 7/1/4
f 8/2/5 5/1/5 7/1/5
f 5/1/5 8/2/5 6/2/5
f 3/2/6 8/2/6 4/2/6
f 8/2/6 3/2/6 6/2/6
f 11/2/6 10/2/6 9/2/6
f 10/2/6 11/2/6 12/2/6
f 12/2/6 11/2/6 13/2/6
f 12/2/6 13/2/6 14/2/6
f 14/2/6 13/2/6 15/2/6
f 14/2/6 15/2/6 16/2/6
f 18/1/8 13/2/7 17/1/7
f 13/2/7 19/1/9 17/1/7
f 13/2/7 18/1/8 15/2/8
f 19/1/9 13/2/7 11/2/9
f 20/1/10 15/2/8 18/1/8
f 15/2/8 20/1/10 16/2/10
f 11/2/9 21/1/11 19/1/9
f 21/1/11 11/2/9 9/2/11
f 22/1/12 16/2/10 20/1/10
f 16/2/10 22/1/12 14/2/12
f 22/1/12 12/2/13 14/2/12
f 12/2/13 22/1/12 23/1/13
f 10/2/14 21/1/11 9/2/11
f 23/1/13 10/2/14 12/2/13
f 21/1/11 10/2/14 24/1/14
f 10/2/14 23/1/13 24/1/14
f 27/2/6 26/2/6 25/2/6
f 26/2/6 27/2/6 28/2/6
f 28/2/6 27/2/6 29/2/6
f 28/2/6 29/2/6 30/2/6
f 30/2/6 29/2/6 31/2/6
f 30/2/6 31/2/6 32/2/6
f 34/1/8 29/2/7 33/1/7
f 29/2/7 35/1/9 33/1/7
f 29/2/7 34/1/8 31/2/8
f 35/1/9 29/2/7 27/2/9
f 36/1/10 31/2/8 34/1/8
f 31/2/8 36/1/10 32/2/10
f 27/2/9 37/1/11 35/1/9
f 37/1/11 27/2/9 25/2/11
f 38/1/12 32/2/10 36/1/10
f 32/2/10 38/1/12 30/2/12
f 38/1/12 28/2/13 30/2/12
f 28/2/13 38/1/12 39/1/13
f 26/2/14 37/1/11 25/2/11
f 39/1/13 26/2/14 28/2/13
f 37/1/11 26/2/14 40/1/14
f 26/2/14 39/1/13 40/1/14
f 43/2/6 42/2/6 41/2/6
f 42/2/6 43/2/6 44/2/6
f 44/2/6 43/2/6 45/2/6
f 44/2/6 45/2/6 46/2/6
f 46/2/6 45/2/6 47/2/6
f 46/2/6 47/2/6 48/2/6
f 50/1/8 45/2/7 49/1/7
f 45/2/7 51/1/9 49/1/7
f 45/2/7 50/1/8 47/2/8
f 51/1/9 45/2/7 43/2/9
f 52/1/10 47/2/8 50/1/8
f 47/2/8 52/1/10 48/2/10
f 43/2/9 53/1/11 51/1/9
f 53/1/11 43/2/9 41/2/11
f 54/1/12 48/2/10 52/1/10
f 48/2/10 54/1/12 46/2/12
f 54/1/12 44/2/13 46/2/12
f 44/2/13 54/1/12 55/1/13
f 42/2/14 53/1/11 41/2/11
f 55/1/13 42/2/14 44/2/13
f 53/1/11 42/2/14 56/1/14
f 42/2/14 55/1/13 56/1/14
f 59/2/6 58/2/6 57/2/6
f 58/2/6 59/2/6 60/2/6
f 60/2/6 59/2/6 61/2/6
f 60/2/6 61/2/6 62/2/6
f 62/2/6 61/2/6 63/2/6
f 62/2/6 63/2/6 64/2/6
f 66/1/8 61/2/7 65/1/7
f 61/2/7 67/1/9 65/1/7
f 61/2/7 66/1/8 63/2/8
f 67/1/9 61/2/7 59/2/9
f 68/1/10 63/2/8 66/1/8
f 63/2/8 68/1/10 64/2/10
f 59/2/9 69/1/11 67/1/9
f 69/1/11 59/2/9 57/2/11
f 70/1/12 64/2/10 68/1/10
f 64/2/10 70/1/12 62/2/12
f 70/1/12 60/2/13 62/2/12
f 60/2/13 70/1/12 71/1/13
f 58/2/14 69/1/11 57/2/11
f 71/1/13 58/2/14 60/2/13
f 69/1/11 58/2/14 72/1/14
f 58/2/14 71/1/13 72/1/14
f 75/2/6 74/2/6 73/2/6
f 74/2/6 75/2/6 76/2/6
f 76/2/6 75/2/6 77/2/6
f 76/2/6 77/2/6 78/2/6
f 78/2/6 77/2/6 79/2/6
f 78/2/6 79/2/6 80/2/6
f 82/1/8 77/2/7 81/1/7
f 77/2/7 83/1/9 81/1/7
f 77/2/7 82/1/8 79/2/8
f 83/1/9 77/2/7 75/2/9
f 84/1/10 79/2/8 82/1/8
f 79/2/8 84/1/10 80/2/10
f 75/2/9 85/1/11 83/1/9
f 85/1/11 75/2/9 73/2/11
f 86/1/12 80/2/10 84/1/10
f 80/2/10 86/1/12 78/2/12
f 86/1/12 76/2/13 78/2/12
f 76/2/13 86/1/12 87/1/13
f 74/2/14 85/1/11 73/2/11
f 87/1/13 74/2/14 76/2/13
f 85/1/11 74/2/14 88/1/14
f 74/2/14 87/1/13 88/1/14
f 91/2/6 90/2/6 89/2/6
f 90/2/6 91/2/6 92/2/6
f 92/2/6 91/2/6 93/2/6
f 92/2/6 93/2/6 94/2/6
f 94/2/6 93/2/6 95/2/6
f 94/2/6 95/2/6 96/2/6
f 98/1/8 93/2/7 97/1/7
f 93/2/7 99/1/9 97/1/7
f 93/2/7 98/1/8 95/2/8
f 99/1/9 93/2/7 91/2/9
f 100/1/10 95/2/8 98/1/8
f 95/2/8 100/1/10 96/2/10
f 91/2/9 101/1/11 99/1/9
f 101/1/11 91/2/9 89/2/11
f 102/1/12 96/2/10 100/1/10
f 96/2/10 102/1/12 94/2/12
f 102/1/12 92/2/13 94/2/12
f 92/2/13 102/1/12 103/1/13
f 90/2/14 101/1/11 89/2/11
f 103/1/13 90/2/14 92/2/13
f 101/1/11 90/2/14 104/1/14
f 90/2/14 103/1/13 104/1/14
f 107/2/6 106/2/6 105/2/6
f 106/2/6 107/2/6 108/2/6
f 108/2/6 107/2/6 109/2/6
f 108/2/6 109/2/6 110/2/6
f 110/2/6 109/2/6 111/2/6
f 110/2/6 111/2/6 112/2/6
f 114/1/8 109/2/7 113/1/7
f 109/2/7 115/1/9 113/1/7
f 109/2/7 114/1/8 111/2/8
f 115/1/9 109/2/7 107/2/9
f 116/1/10 111/2/8 114/1/8
f 111/2/8 116/1/10 112/2/10
f 107/2/9 117/1/11 115/1/9
f 117/1/11 107/2/9 105/2/11
f 118/1/12 112/2/10 116/1/10
f 112/2/10 118/1/12 110/2/12
f 118/1/12 108/2/13 110/2/12
f 108/2/13 118/1/12 119/1/13
f 106/2/14 117/1/11 105/2/11
f 119/1/13 106/2/14 108/2/13
f 117/1/11 106/2/14 120/1/14
f 106/2/14 119/1/13 120/1/14
f 123/2/6 122/2/6 121/2/6
f 122/2/6 123/2/6 124/2/6
f 124/2/6 123/2/6 125/2/6
f 124/2/6 125/2/6 126/2/6
f 126/2/6 125/2/6 127/2/6
f 126/2/6 127/2/6 128/2/6
f 130/1/8 125/2/7 129/1/7
f 125/2/7 131/1/9 129/1/7
f 125/2/7 130/1/8 127/2/8
f 131/1/9 125/2/7 123/2/9
f 132/1/10 127/2/8 130/1/8
f 127/2/8 132/1/10 128/2/10
f 123/2/9 133/1/11 131/1/9
f 133/1/11 123/2/9 121/2/11
f 134/1/12 128/2/10 132/1/10
f 128/2/10 134/1/12 126/2/12
f 134/1/12 124/2/13 126/2/12
f 124/2/13 134/1/12 135/1/13
f 122/2/14 133/1/11 121/2/11
f 135/1/13 122/2/14 124/2/13
f 133/1/11 122/2/14 136/1/14
f 122/2/14 135/1/13 136/1/14
f 139/2/6 138/2/6 137/2/6
f 138/2/6 139/2/6 140/2/6
f 140/2/6 139/2/6 141/2/6
f 140/2/6 141/2/6 142/2/6
f 142/2/6 141/2/6 143/2/6
f 142/2/6 143/2/6 144/2/6
f 146/1/8 141/2/7 145/1/7
f 141/2/7 147/1/9 145/1/7
f 141/2/7 146/1/8 143/2/8
f 147/1/9 141/2/7 139/2/9
f 148/1/10 143/2/8 146/1/8
f 143/2/8 148/1/10 144/2/10
f 139/2/9 149/1/11 147/1/9
f 149/1/11 139/2/9 137/2/11
f 150/1/12 144/2/10 148/1/10
f 144/2/10 150/1/12 142/2/12
f 150/1/12 140/2/13 142/2/12
f 140/2/13 150/1/12 151/1/13
f 138/2/14 149/1/11 137/2/11
f 151/1/13 138/2/14 140/2/13
f 149/1/11 138/2/14 152/1/14
f 138/2/14 151/1/13 152/1/14
f 155/2/6 154/2/6 153/2/6
f 154/2/6 155/2/6 156/2/6
f 156/2/6 155/2/6 157/2/6
f 156/2/6 157/2/6 158/2/6
f 158/2/6 157/2/6 159/2/6
f 158/2/6 159/2/6 160/2/6
f 162/1/8 157/2/7 161/1/7
f 157/2/7 163/1/9 161/1/7
f 157/2/7 162/1/8 159/2/8
f 163/1/9 157/2/7 155/2/9
f 164/1/10 159/2/8 162/1/8
f 159/2/8 164/1/10 160/2/10
f 155/2/9 165/1/11 163/1/9
f 165/1/11 155/2/9 153/2/11
f 166/1/12 160/2/10 164/1/10
f 160/2/10 166/1/12 158/2/12
f 166/1/12 156/2/13 158/2/12
f 156/2/13 166/1/12 167/1/13
f 154/2/14 165/1/11 153/2/11
f 167/1/13 154/2/14 156/2/13
f 165/1/11 154/2/14 168/1/14
f 154/2/14 167/1/13 168/1/14
f 171/2/6 170/2/6 169/2/6
f 170/2/6 171/2/6 172/2/6
f 172/2/6 171/2/6 173/2/6
f 172/2/6 173/2/6 174/2/6
f 174/2/6 173/2/6 175/2/6
f 174/2/6 175/2/6 176/2/6
f 178/1/8 173/2/7 177/1/7
f 173/2/7 179/1/9 177/1/7
f 173/2/7 178/1/8 175/2/8
f 179/1/9 173/2/7 171/2/9
f 180/1/10 175/2/8 178/1/8
f 175/2/8 180/1/10 176/2/10
f 171/2/9 181/1/11 179/1/9
f 181/1/11 171/2/9 169/2/11
f 182/1/12 176/2/10 180/1/10
f 176/2/10 182/1/12 174/2/12
f 182/1/12 172/2/13 174/2/12
f 172/2/13 182/1/12 183/1/13
f 170/2/14 181/1/11 169/2/11
f 183/1/13 170/2/14 172/2/13
f 181/1/11 170/2/14 184/1/14
f 170/2/14 183/1/13 184/1/14
f 187/2/6 186/2/6 185/2/6
f 186/2/6 187/2/6 188/2/6
f 188/2/6 187/2/6 189/2/6
f 188/2/6 189/2/6 190/2/6
f 190/2/6 189/2/6 191/2/6
f 190/2/6 191/2/6 192/2/6
f 194/1/8 189/2/7 193/1/7
f 189/2/7 195/1/9 193/1/7
f 189/2/7 194/1/8 191/2/8
f 195/1/9 189/2/7 187/2/9
f 196/1/10 191/2/8 194/1/8
f 191/2/8 196/1/10 192/2/10
f 187/2/9 197/1/11 195/1/9
f 197/1/11 187/2/9 185/2/11
f 198/1/12 192/2/10 196/1/10
f 192/2/10 198/1/12 190/2/12
f 198/1/12 188/2/13 190/2/12
f 188/2/13 198/1/12 199/1/13
f 186/2/14 197/1/11 185/2/11
f 199/1/13 186/2/14 188/2/13
f 197/1/11 186/2/14 200/1/14
f 186/2/14 199/1/13 200/1/14

