# Created by Kenney (www.kenney.nl)

mtllib bevel-lq-brick-slope-3x2.mtl

g bevel-lq-brick-slope-3x2

v 0.11925 0 0.079 1 1 1
v 0.11925 0 -0.079 1 1 1
v -0.11925 0 0.079 1 1 1
v -0.11925 0 -0.079 1 1 1
v -0.11925 0.016 -0.079 1 1 1
v 0.11925 0.096 -0.079 1 1 1
v 0.03975 0.096 -0.079 1 1 1
v 0.11925 0.096 0.079 1 1 1
v -0.11925 0.016 0.079 1 1 1
v 0.03975 0.096 0.079 1 1 1
v 0.1035 0.114 0.0255 1 1 1
v 0.1035 0.114 0.0535 1 1 1
v 0.0935 0.114 0.0155 1 1 1
v 0.0935 0.114 0.0635 1 1 1
v 0.0655 0.114 0.0155 1 1 1
v 0.0655 0.114 0.0635 1 1 1
v 0.0555 0.114 0.0255 1 1 1
v 0.0555 0.114 0.0535 1 1 1
v 0.0655 0.096 0.0155 1 1 1
v 0.0555 0.096 0.0255 1 1 1
v 0.0935 0.096 0.0155 1 1 1
v 0.0555 0.096 0.0535 1 1 1
v 0.1035 0.096 0.0255 1 1 1
v 0.0655 0.096 0.0635 1 1 1
v 0.0935 0.096 0.0635 1 1 1
v 0.1035 0.096 0.0535 1 1 1
v 0.1035 0.114 -0.0535 1 1 1
v 0.1035 0.114 -0.0255 1 1 1
v 0.0935 0.114 -0.0635 1 1 1
v 0.0935 0.114 -0.0155 1 1 1
v 0.0655 0.114 -0.0635 1 1 1
v 0.0655 0.114 -0.0155 1 1 1
v 0.0555 0.114 -0.0535 1 1 1
v 0.0555 0.114 -0.0255 1 1 1
v 0.0655 0.096 -0.0635 1 1 1
v 0.0555 0.096 -0.0535 1 1 1
v 0.0935 0.096 -0.0635 1 1 1
v 0.0555 0.096 -0.0255 1 1 1
v 0.1035 0.096 -0.0535 1 1 1
v 0.0655 0.096 -0.0155 1 1 1
v 0.0935 0.096 -0.0155 1 1 1
v 0.1035 0.096 -0.0255 1 1 1

vn 0 -1 0
vn 0 0 -1
vn 0 0 1
vn -0.4494595 0.8933007 0
vn -1 0 0
vn 1 0 0
vn 0 1 0
vn -0.3826834 0 -0.9238795
vn -0.9238795 0 -0.3826834
vn 0.3826834 0 -0.9238795
vn -0.9238795 0 0.3826834
vn 0.9238795 0 -0.3826834
vn -0.3826834 0 0.9238795
vn 0.3826834 0 0.9238795
vn 0.9238795 0 0.3826834

vt 0.59375 0.025
vt 0.59375 0.05833333
vt 0.59375 0.225

usemtl colormap

f 3/1/1 2/1/1 1/1/1
f 2/1/1 3/1/1 4/1/1
f 5/2/2 2/1/2 4/1/2
f 2/1/2 5/2/2 6/3/2
f 6/3/2 5/2/2 7/3/2
f 8/3/3 3/1/3 1/1/3
f 3/1/3 8/3/3 9/2/3
f 9/2/3 8/3/3 10/3/3
f 5/2/4 10/3/4 7/3/4
f 10/3/4 5/2/4 9/2/4
f 3/1/5 5/2/5 4/1/5
f 5/2/5 3/1/5 9/2/5
f 8/3/6 2/1/6 6/3/6
f 2/1/6 8/3/6 1/1/6
f 7/3/7 8/3/7 6/3/7
f 8/3/7 7/3/7 10/3/7
f 13/3/7 12/3/7 11/3/7
f 12/3/7 13/3/7 14/3/7
f 14/3/7 13/3/7 15/3/7
f 14/3/7 15/3/7 16/3/7
f 16/3/7 15/3/7 17/3/7
f 16/3/7 17/3/7 18/3/7
f 20/1/9 15/3/8 19/1/8
f 15/3/8 21/1/10 19/1/8
f 15/3/8 20/1/9 17/3/9
f 21/1/10 15/3/8 13/3/10
f 22/1/11 17/3/9 20/1/9
f 17/3/9 22/1/11 18/3/11
f 13/3/10 23/1/12 21/1/10
f 23/1/12 13/3/10 11/3/12
f 24/1/13 18/3/11 22/1/11
f 18/3/11 24/1/13 16/3/13
f 24/1/13 14/3/14 16/3/13
f 14/3/14 24/1/13 25/1/14
f 12/3/15 23/1/12 11/3/12
f 25/1/14 12/3/15 14/3/14
f 23/1/12 12/3/15 26/1/15
f 12/3/15 25/1/14 26/1/15
f 29/3/7 28/3/7 27/3/7
f 28/3/7 29/3/7 30/3/7
f 30/3/7 29/3/7 31/3/7
f 30/3/7 31/3/7 32/3/7
f 32/3/7 31/3/7 33/3/7
f 32/3/7 33/3/7 34/3/7
f 36/1/9 31/3/8 35/1/8
f 31/3/8 37/1/10 35/1/8
f 31/3/8 36/1/9 33/3/9
f 37/1/10 31/3/8 29/3/10
f 38/1/11 33/3/9 36/1/9
f 33/3/9 38/1/11 34/3/11
f 29/3/10 39/1/12 37/1/10
f 39/1/12 29/3/10 27/3/12
f 40/1/13 34/3/11 38/1/11
f 34/3/11 40/1/13 32/3/13
f 40/1/13 30/3/14 32/3/13
f 30/3/14 40/1/13 41/1/14
f 28/3/15 39/1/12 27/3/12
f 41/1/14 28/3/15 30/3/14
f 39/1/12 28/3/15 42/1/15
f 28/3/15 41/1/14 42/1/15

g bevel-lq-brick-slope-3x2




usemtl colormap

f 3/1/1 2/1/1 1/1/1
f 2/1/1 3/1/1 4/1/1
f 5/2/2 2/1/2 4/1/2
f 2/1/2 5/2/2 6/3/2
f 6/3/2 5/2/2 7/3/2
f 8/3/3 3/1/3 1/1/3
f 3/1/3 8/3/3 9/2/3
f 9/2/3 8/3/3 10/3/3
f 5/2/4 10/3/4 7/3/4
f 10/3/4 5/2/4 9/2/4
f 3/1/5 5/2/5 4/1/5
f 5/2/5 3/1/5 9/2/5
f 8/3/6 2/1/6 6/3/6
f 2/1/6 8/3/6 1/1/6
f 7/3/7 8/3/7 6/3/7
f 8/3/7 7/3/7 10/3/7
f 13/3/7 12/3/7 11/3/7
f 12/3/7 13/3/7 14/3/7
f 14/3/7 13/3/7 15/3/7
f 14/3/7 15/3/7 16/3/7
f 16/3/7 15/3/7 17/3/7
f 16/3/7 17/3/7 18/3/7
f 20/1/9 15/3/8 19/1/8
f 15/3/8 21/1/10 19/1/8
f 15/3/8 20/1/9 17/3/9
f 21/1/10 15/3/8 13/3/10
f 22/1/11 17/3/9 20/1/9
f 17/3/9 22/1/11 18/3/11
f 13/3/10 23/1/12 21/1/10
f 23/1/12 13/3/10 11/3/12
f 24/1/13 18/3/11 22/1/11
f 18/3/11 24/1/13 16/3/13
f 24/1/13 14/3/14 16/3/13
f 14/3/14 24/1/13 25/1/14
f 12/3/15 23/1/12 11/3/12
f 25/1/14 12/3/15 14/3/14
f 23/1/12 12/3/15 26/1/15
f 12/3/15 25/1/14 26/1/15
f 29/3/7 28/3/7 27/3/7
f 28/3/7 29/3/7 30/3/7
f 30/3/7 29/3/7 31/3/7
f 30/3/7 31/3/7 32/3/7
f 32/3/7 31/3/7 33/3/7
f 32/3/7 33/3/7 34/3/7
f 36/1/9 31/3/8 35/1/8
f 31/3/8 37/1/10 35/1/8
f 31/3/8 36/1/9 33/3/9
f 37/1/10 31/3/8 29/3/10
f 38/1/11 33/3/9 36/1/9
f 33/3/9 38/1/11 34/3/11
f 29/3/10 39/1/12 37/1/10
f 39/1/12 29/3/10 27/3/12
f 40/1/13 34/3/11 38/1/11
f 34/3/11 40/1/13 32/3/13
f 40/1/13 30/3/14 32/3/13
f 30/3/14 40/1/13 41/1/14
f 28/3/15 39/1/12 27/3/12
f 41/1/14 28/3/15 30/3/14
f 39/1/12 28/3/15 42/1/15
f 28/3/15 41/1/14 42/1/15

