# Created by Kenney (www.kenney.nl)

mtllib bevel-hq-brick-2x2.mtl

g bevel-hq-brick-2x2

v 0.0795 0 0.079 1 1 1
v 0.0795 0 -0.079 1 1 1
v -0.0795 0 0.079 1 1 1
v -0.0795 0 -0.079 1 1 1
v -0.0795 0.091 -0.079 1 1 1
v -0.0795 0.091 0.079 1 1 1
v -0.0745 0.096 0.074 1 1 1
v -0.0745 0.096 -0.074 1 1 1
v 0.0795 0.091 0.079 1 1 1
v 0.0745 0.096 0.074 1 1 1
v 0.0795 0.091 -0.079 1 1 1
v 0.0745 0.096 -0.074 1 1 1
v -0.02075 0.114 -0.05142893 1 1 1
v -0.02075 0.114 -0.02757107 1 1 1
v -0.02782107 0.114 -0.0585 1 1 1
v -0.02782107 0.114 -0.0205 1 1 1
v -0.05167893 0.114 -0.0585 1 1 1
v -0.05167893 0.114 -0.0205 1 1 1
v -0.05875 0.114 -0.05142893 1 1 1
v -0.05875 0.114 -0.02757107 1 1 1
v -0.02575 0.109 -0.0635 1 1 1
v -0.05375 0.109 -0.0635 1 1 1
v -0.01575 0.109 -0.0535 1 1 1
v -0.02575 0.096 -0.0635 1 1 1
v -0.05375 0.096 -0.0635 1 1 1
v -0.01575 0.096 -0.0535 1 1 1
v -0.06375 0.096 -0.0535 1 1 1
v -0.01575 0.109 -0.0255 1 1 1
v -0.01575 0.096 -0.0255 1 1 1
v -0.06375 0.109 -0.0535 1 1 1
v -0.06375 0.096 -0.0255 1 1 1
v -0.02575 0.109 -0.0155 1 1 1
v -0.02575 0.096 -0.0155 1 1 1
v -0.05375 0.096 -0.0155 1 1 1
v -0.06375 0.109 -0.0255 1 1 1
v -0.05375 0.109 -0.0155 1 1 1
v 0.05875 0.114 -0.05142893 1 1 1
v 0.05875 0.114 -0.02757107 1 1 1
v 0.05167893 0.114 -0.0585 1 1 1
v 0.05167893 0.114 -0.0205 1 1 1
v 0.02782107 0.114 -0.0585 1 1 1
v 0.02782107 0.114 -0.0205 1 1 1
v 0.02075 0.114 -0.05142893 1 1 1
v 0.02075 0.114 -0.02757107 1 1 1
v 0.05375 0.109 -0.0635 1 1 1
v 0.02575 0.109 -0.0635 1 1 1
v 0.06375 0.109 -0.0535 1 1 1
v 0.05375 0.096 -0.0635 1 1 1
v 0.02575 0.096 -0.0635 1 1 1
v 0.06375 0.096 -0.0535 1 1 1
v 0.01575 0.096 -0.0535 1 1 1
v 0.06375 0.109 -0.0255 1 1 1
v 0.06375 0.096 -0.0255 1 1 1
v 0.01575 0.109 -0.0535 1 1 1
v 0.01575 0.096 -0.0255 1 1 1
v 0.05375 0.109 -0.0155 1 1 1
v 0.05375 0.096 -0.0155 1 1 1
v 0.02575 0.096 -0.0155 1 1 1
v 0.01575 0.109 -0.0255 1 1 1
v 0.02575 0.109 -0.0155 1 1 1
v 0.05875 0.114 0.02757107 1 1 1
v 0.05875 0.114 0.05142893 1 1 1
v 0.05167893 0.114 0.0205 1 1 1
v 0.05167893 0.114 0.0585 1 1 1
v 0.02782107 0.114 0.0205 1 1 1
v 0.02782107 0.114 0.0585 1 1 1
v 0.02075 0.114 0.02757107 1 1 1
v 0.02075 0.114 0.05142893 1 1 1
v 0.05375 0.109 0.0155 1 1 1
v 0.02575 0.109 0.0155 1 1 1
v 0.06375 0.109 0.0255 1 1 1
v 0.05375 0.096 0.0155 1 1 1
v 0.02575 0.096 0.0155 1 1 1
v 0.06375 0.096 0.0255 1 1 1
v 0.01575 0.096 0.0255 1 1 1
v 0.06375 0.109 0.0535 1 1 1
v 0.06375 0.096 0.0535 1 1 1
v 0.01575 0.109 0.0255 1 1 1
v 0.01575 0.096 0.0535 1 1 1
v 0.05375 0.109 0.0635 1 1 1
v 0.05375 0.096 0.0635 1 1 1
v 0.02575 0.096 0.0635 1 1 1
v 0.01575 0.109 0.0535 1 1 1
v 0.02575 0.109 0.0635 1 1 1
v -0.02075 0.114 0.02757107 1 1 1
v -0.02075 0.114 0.05142893 1 1 1
v -0.02782107 0.114 0.0205 1 1 1
v -0.02782107 0.114 0.0585 1 1 1
v -0.05167893 0.114 0.0205 1 1 1
v -0.05167893 0.114 0.0585 1 1 1
v -0.05875 0.114 0.02757107 1 1 1
v -0.05875 0.114 0.05142893 1 1 1
v -0.02575 0.109 0.0155 1 1 1
v -0.05375 0.109 0.0155 1 1 1
v -0.01575 0.109 0.0255 1 1 1
v -0.02575 0.096 0.0155 1 1 1
v -0.05375 0.096 0.0155 1 1 1
v -0.01575 0.096 0.0255 1 1 1
v -0.06375 0.096 0.0255 1 1 1
v -0.01575 0.109 0.0535 1 1 1
v -0.01575 0.096 0.0535 1 1 1
v -0.06375 0.109 0.0255 1 1 1
v -0.06375 0.096 0.0535 1 1 1
v -0.02575 0.109 0.0635 1 1 1
v -0.02575 0.096 0.0635 1 1 1
v -0.05375 0.096 0.0635 1 1 1
v -0.06375 0.109 0.0535 1 1 1
v -0.05375 0.109 0.0635 1 1 1

vn 0 -1 0
vn -1 0 0
vn -0.9576361 0.2879809 0
vn -0.7071068 0.7071068 0
vn 0 0 1
vn 0 0.2879809 0.9576361
vn 0 0.7071068 0.7071068
vn 0 0 -1
vn 0 0.2879809 -0.9576361
vn 0 0.7071068 -0.7071068
vn 0 1 0
vn 1 0 0
vn 0.9576361 0.2879809 0
vn 0.7071068 0.7071068 0
vn 0.2596883 0.7345095 -0.6269431
vn 0.3556998 0.3688517 -0.8587352
vn 0.6269431 0.7345095 -0.2596884
vn -0.2596883 0.7345095 -0.6269431
vn -0.3556998 0.3688517 -0.8587352
vn -0.6269431 0.7345095 -0.2596884
vn 0.8587352 0.3688517 -0.3556998
vn 0.3826834 0 -0.9238795
vn -0.3826834 0 -0.9238795
vn 0.9238795 0 -0.3826834
vn -0.9238795 0 -0.3826834
vn 0.8587352 0.3688517 0.3556998
vn 0.6269431 0.7345095 0.2596884
vn 0.9238795 0 0.3826834
vn -0.8587352 0.3688517 -0.3556998
vn -0.9238795 0 0.3826834
vn 0.3556998 0.3688517 0.8587352
vn 0.3826834 0 0.9238795
vn 0.2596883 0.7345095 0.6269431
vn -0.3826834 0 0.9238795
vn -0.8587352 0.3688517 0.3556998
vn -0.6269431 0.7345095 0.2596884
vn -0.3556998 0.3688517 0.8587352
vn -0.2596883 0.7345095 0.6269431

vt 0.59375 0.025
vt 0.59375 0.2145833
vt 0.59375 0.225
vt 0.59375 0.1694444

usemtl colormap

f 3/1/1 2/1/1 1/1/1
f 2/1/1 3/1/1 4/1/1
f 3/1/2 5/2/3 4/1/2
f 5/2/3 3/1/2 6/2/3
f 7/3/4 5/2/3 6/2/3
f 5/2/3 7/3/4 8/3/4
f 9/2/6 3/1/5 1/1/5
f 3/1/5 9/2/6 6/2/6
f 10/3/7 6/2/6 9/2/6
f 6/2/6 10/3/7 7/3/7
f 5/2/9 2/1/8 4/1/8
f 2/1/8 5/2/9 11/2/9
f 8/3/10 11/2/9 5/2/9
f 11/2/9 8/3/10 12/3/10
f 8/3/11 10/3/11 12/3/11
f 10/3/11 8/3/11 7/3/11
f 2/1/12 9/2/13 1/1/12
f 9/2/13 2/1/12 11/2/13
f 12/3/14 9/2/13 11/2/13
f 9/2/13 12/3/14 10/3/14
f 15/3/11 14/3/11 13/3/11
f 14/3/11 15/3/11 16/3/11
f 16/3/11 15/3/11 17/3/11
f 16/3/11 17/3/11 18/3/11
f 18/3/11 17/3/11 19/3/11
f 18/3/11 19/3/11 20/3/11
f 13/3/17 21/4/16 15/3/15
f 21/4/16 17/3/18 15/3/15
f 17/3/18 21/4/16 22/4/19
f 22/4/19 19/3/20 17/3/18
f 21/4/16 13/3/17 23/4/21
f 24/1/22 22/4/19 21/4/16
f 23/4/21 24/1/22 21/4/16
f 22/4/19 24/1/22 25/1/23
f 24/1/22 23/4/21 26/1/24
f 27/1/25 22/4/19 25/1/23
f 13/3/17 28/4/26 23/4/21
f 28/4/26 26/1/24 23/4/21
f 28/4/26 13/3/17 14/3/27
f 26/1/24 28/4/26 29/1/28
f 22/4/19 27/1/25 30/4/29
f 19/3/20 22/4/19 30/4/29
f 31/1/30 30/4/29 27/1/25
f 14/3/27 32/4/31 28/4/26
f 32/4/31 29/1/28 28/4/26
f 29/1/28 32/4/31 33/1/32
f 32/4/31 14/3/27 16/3/33
f 32/4/31 34/1/34 33/1/32
f 35/4/35 19/3/20 30/4/29
f 30/4/29 31/1/30 35/4/35
f 34/1/34 35/4/35 31/1/30
f 19/3/20 35/4/35 20/3/36
f 16/3/33 36/4/37 32/4/31
f 34/1/34 32/4/31 36/4/37
f 35/4/35 34/1/34 36/4/37
f 36/4/37 20/3/36 35/4/35
f 36/4/37 16/3/33 18/3/38
f 20/3/36 36/4/37 18/3/38
f 39/3/11 38/3/11 37/3/11
f 38/3/11 39/3/11 40/3/11
f 40/3/11 39/3/11 41/3/11
f 40/3/11 41/3/11 42/3/11
f 42/3/11 41/3/11 43/3/11
f 42/3/11 43/3/11 44/3/11
f 37/3/17 45/4/16 39/3/15
f 45/4/16 41/3/18 39/3/15
f 41/3/18 45/4/16 46/4/19
f 46/4/19 43/3/20 41/3/18
f 45/4/16 37/3/17 47/4/21
f 48/1/22 46/4/19 45/4/16
f 47/4/21 48/1/22 45/4/16
f 46/4/19 48/1/22 49/1/23
f 48/1/22 47/4/21 50/1/24
f 51/1/25 46/4/19 49/1/23
f 37/3/17 52/4/26 47/4/21
f 52/4/26 50/1/24 47/4/21
f 52/4/26 37/3/17 38/3/27
f 50/1/24 52/4/26 53/1/28
f 46/4/19 51/1/25 54/4/29
f 43/3/20 46/4/19 54/4/29
f 55/1/30 54/4/29 51/1/25
f 38/3/27 56/4/31 52/4/26
f 56/4/31 53/1/28 52/4/26
f 53/1/28 56/4/31 57/1/32
f 56/4/31 38/3/27 40/3/33
f 56/4/31 58/1/34 57/1/32
f 59/4/35 43/3/20 54/4/29
f 54/4/29 55/1/30 59/4/35
f 58/1/34 59/4/35 55/1/30
f 43/3/20 59/4/35 44/3/36
f 40/3/33 60/4/37 56/4/31
f 58/1/34 56/4/31 60/4/37
f 59/4/35 58/1/34 60/4/37
f 60/4/37 44/3/36 59/4/35
f 60/4/37 40/3/33 42/3/38
f 44/3/36 60/4/37 42/3/38
f 63/3/11 62/3/11 61/3/11
f 62/3/11 63/3/11 64/3/11
f 64/3/11 63/3/11 65/3/11
f 64/3/11 65/3/11 66/3/11
f 66/3/11 65/3/11 67/3/11
f 66/3/11 67/3/11 68/3/11
f 61/3/17 69/4/16 63/3/15
f 69/4/16 65/3/18 63/3/15
f 65/3/18 69/4/16 70/4/19
f 70/4/19 67/3/20 65/3/18
f 69/4/16 61/3/17 71/4/21
f 72/1/22 70/4/19 69/4/16
f 71/4/21 72/1/22 69/4/16
f 70/4/19 72/1/22 73/1/23
f 72/1/22 71/4/21 74/1/24
f 75/1/25 70/4/19 73/1/23
f 61/3/17 76/4/26 71/4/21
f 76/4/26 74/1/24 71/4/21
f 76/4/26 61/3/17 62/3/27
f 74/1/24 76/4/26 77/1/28
f 70/4/19 75/1/25 78/4/29
f 67/3/20 70/4/19 78/4/29
f 79/1/30 78/4/29 75/1/25
f 62/3/27 80/4/31 76/4/26
f 80/4/31 77/1/28 76/4/26
f 77/1/28 80/4/31 81/1/32
f 80/4/31 62/3/27 64/3/33
f 80/4/31 82/1/34 81/1/32
f 83/4/35 67/3/20 78/4/29
f 78/4/29 79/1/30 83/4/35
f 82/1/34 83/4/35 79/1/30
f 67/3/20 83/4/35 68/3/36
f 64/3/33 84/4/37 80/4/31
f 82/1/34 80/4/31 84/4/37
f 83/4/35 82/1/34 84/4/37
f 84/4/37 68/3/36 83/4/35
f 84/4/37 64/3/33 66/3/38
f 68/3/36 84/4/37 66/3/38
f 87/3/11 86/3/11 85/3/11
f 86/3/11 87/3/11 88/3/11
f 88/3/11 87/3/11 89/3/11
f 88/3/11 89/3/11 90/3/11
f 90/3/11 89/3/11 91/3/11
f 90/3/11 91/3/11 92/3/11
f 85/3/17 93/4/16 87/3/15
f 93/4/16 89/3/18 87/3/15
f 89/3/18 93/4/16 94/4/19
f 94/4/19 91/3/20 89/3/18
f 93/4/16 85/3/17 95/4/21
f 96/1/22 94/4/19 93/4/16
f 95/4/21 96/1/22 93/4/16
f 94/4/19 96/1/22 97/1/23
f 96/1/22 95/4/21 98/1/24
f 99/1/25 94/4/19 97/1/23
f 85/3/17 100/4/26 95/4/21
f 100/4/26 98/1/24 95/4/21
f 100/4/26 85/3/17 86/3/27
f 98/1/24 100/4/26 101/1/28
f 94/4/19 99/1/25 102/4/29
f 91/3/20 94/4/19 102/4/29
f 103/1/30 102/4/29 99/1/25
f 86/3/27 104/4/31 100/4/26
f 104/4/31 101/1/28 100/4/26
f 101/1/28 104/4/31 105/1/32
f 104/4/31 86/3/27 88/3/33
f 104/4/31 106/1/34 105/1/32
f 107/4/35 91/3/20 102/4/29
f 102/4/29 103/1/30 107/4/35
f 106/1/34 107/4/35 103/1/30
f 91/3/20 107/4/35 92/3/36
f 88/3/33 108/4/37 104/4/31
f 106/1/34 104/4/31 108/4/37
f 107/4/35 106/1/34 108/4/37
f 108/4/37 92/3/36 107/4/35
f 108/4/37 88/3/33 90/3/38
f 92/3/36 108/4/37 90/3/38

g bevel-hq-brick-2x2




usemtl colormap

f 3/1/1 2/1/1 1/1/1
f 2/1/1 3/1/1 4/1/1
f 3/1/2 5/2/3 4/1/2
f 5/2/3 3/1/2 6/2/3
f 7/3/4 5/2/3 6/2/3
f 5/2/3 7/3/4 8/3/4
f 9/2/6 3/1/5 1/1/5
f 3/1/5 9/2/6 6/2/6
f 10/3/7 6/2/6 9/2/6
f 6/2/6 10/3/7 7/3/7
f 5/2/9 2/1/8 4/1/8
f 2/1/8 5/2/9 11/2/9
f 8/3/10 11/2/9 5/2/9
f 11/2/9 8/3/10 12/3/10
f 8/3/11 10/3/11 12/3/11
f 10/3/11 8/3/11 7/3/11
f 2/1/12 9/2/13 1/1/12
f 9/2/13 2/1/12 11/2/13
f 12/3/14 9/2/13 11/2/13
f 9/2/13 12/3/14 10/3/14
f 15/3/11 14/3/11 13/3/11
f 14/3/11 15/3/11 16/3/11
f 16/3/11 15/3/11 17/3/11
f 16/3/11 17/3/11 18/3/11
f 18/3/11 17/3/11 19/3/11
f 18/3/11 19/3/11 20/3/11
f 13/3/17 21/4/16 15/3/15
f 21/4/16 17/3/18 15/3/15
f 17/3/18 21/4/16 22/4/19
f 22/4/19 19/3/20 17/3/18
f 21/4/16 13/3/17 23/4/21
f 24/1/22 22/4/19 21/4/16
f 23/4/21 24/1/22 21/4/16
f 22/4/19 24/1/22 25/1/23
f 24/1/22 23/4/21 26/1/24
f 27/1/25 22/4/19 25/1/23
f 13/3/17 28/4/26 23/4/21
f 28/4/26 26/1/24 23/4/21
f 28/4/26 13/3/17 14/3/27
f 26/1/24 28/4/26 29/1/28
f 22/4/19 27/1/25 30/4/29
f 19/3/20 22/4/19 30/4/29
f 31/1/30 30/4/29 27/1/25
f 14/3/27 32/4/31 28/4/26
f 32/4/31 29/1/28 28/4/26
f 29/1/28 32/4/31 33/1/32
f 32/4/31 14/3/27 16/3/33
f 32/4/31 34/1/34 33/1/32
f 35/4/35 19/3/20 30/4/29
f 30/4/29 31/1/30 35/4/35
f 34/1/34 35/4/35 31/1/30
f 19/3/20 35/4/35 20/3/36
f 16/3/33 36/4/37 32/4/31
f 34/1/34 32/4/31 36/4/37
f 35/4/35 34/1/34 36/4/37
f 36/4/37 20/3/36 35/4/35
f 36/4/37 16/3/33 18/3/38
f 20/3/36 36/4/37 18/3/38
f 39/3/11 38/3/11 37/3/11
f 38/3/11 39/3/11 40/3/11
f 40/3/11 39/3/11 41/3/11
f 40/3/11 41/3/11 42/3/11
f 42/3/11 41/3/11 43/3/11
f 42/3/11 43/3/11 44/3/11
f 37/3/17 45/4/16 39/3/15
f 45/4/16 41/3/18 39/3/15
f 41/3/18 45/4/16 46/4/19
f 46/4/19 43/3/20 41/3/18
f 45/4/16 37/3/17 47/4/21
f 48/1/22 46/4/19 45/4/16
f 47/4/21 48/1/22 45/4/16
f 46/4/19 48/1/22 49/1/23
f 48/1/22 47/4/21 50/1/24
f 51/1/25 46/4/19 49/1/23
f 37/3/17 52/4/26 47/4/21
f 52/4/26 50/1/24 47/4/21
f 52/4/26 37/3/17 38/3/27
f 50/1/24 52/4/26 53/1/28
f 46/4/19 51/1/25 54/4/29
f 43/3/20 46/4/19 54/4/29
f 55/1/30 54/4/29 51/1/25
f 38/3/27 56/4/31 52/4/26
f 56/4/31 53/1/28 52/4/26
f 53/1/28 56/4/31 57/1/32
f 56/4/31 38/3/27 40/3/33
f 56/4/31 58/1/34 57/1/32
f 59/4/35 43/3/20 54/4/29
f 54/4/29 55/1/30 59/4/35
f 58/1/34 59/4/35 55/1/30
f 43/3/20 59/4/35 44/3/36
f 40/3/33 60/4/37 56/4/31
f 58/1/34 56/4/31 60/4/37
f 59/4/35 58/1/34 60/4/37
f 60/4/37 44/3/36 59/4/35
f 60/4/37 40/3/33 42/3/38
f 44/3/36 60/4/37 42/3/38
f 63/3/11 62/3/11 61/3/11
f 62/3/11 63/3/11 64/3/11
f 64/3/11 63/3/11 65/3/11
f 64/3/11 65/3/11 66/3/11
f 66/3/11 65/3/11 67/3/11
f 66/3/11 67/3/11 68/3/11
f 61/3/17 69/4/16 63/3/15
f 69/4/16 65/3/18 63/3/15
f 65/3/18 69/4/16 70/4/19
f 70/4/19 67/3/20 65/3/18
f 69/4/16 61/3/17 71/4/21
f 72/1/22 70/4/19 69/4/16
f 71/4/21 72/1/22 69/4/16
f 70/4/19 72/1/22 73/1/23
f 72/1/22 71/4/21 74/1/24
f 75/1/25 70/4/19 73/1/23
f 61/3/17 76/4/26 71/4/21
f 76/4/26 74/1/24 71/4/21
f 76/4/26 61/3/17 62/3/27
f 74/1/24 76/4/26 77/1/28
f 70/4/19 75/1/25 78/4/29
f 67/3/20 70/4/19 78/4/29
f 79/1/30 78/4/29 75/1/25
f 62/3/27 80/4/31 76/4/26
f 80/4/31 77/1/28 76/4/26
f 77/1/28 80/4/31 81/1/32
f 80/4/31 62/3/27 64/3/33
f 80/4/31 82/1/34 81/1/32
f 83/4/35 67/3/20 78/4/29
f 78/4/29 79/1/30 83/4/35
f 82/1/34 83/4/35 79/1/30
f 67/3/20 83/4/35 68/3/36
f 64/3/33 84/4/37 80/4/31
f 82/1/34 80/4/31 84/4/37
f 83/4/35 82/1/34 84/4/37
f 84/4/37 68/3/36 83/4/35
f 84/4/37 64/3/33 66/3/38
f 68/3/36 84/4/37 66/3/38
f 87/3/11 86/3/11 85/3/11
f 86/3/11 87/3/11 88/3/11
f 88/3/11 87/3/11 89/3/11
f 88/3/11 89/3/11 90/3/11
f 90/3/11 89/3/11 91/3/11
f 90/3/11 91/3/11 92/3/11
f 85/3/17 93/4/16 87/3/15
f 93/4/16 89/3/18 87/3/15
f 89/3/18 93/4/16 94/4/19
f 94/4/19 91/3/20 89/3/18
f 93/4/16 85/3/17 95/4/21
f 96/1/22 94/4/19 93/4/16
f 95/4/21 96/1/22 93/4/16
f 94/4/19 96/1/22 97/1/23
f 96/1/22 95/4/21 98/1/24
f 99/1/25 94/4/19 97/1/23
f 85/3/17 100/4/26 95/4/21
f 100/4/26 98/1/24 95/4/21
f 100/4/26 85/3/17 86/3/27
f 98/1/24 100/4/26 101/1/28
f 94/4/19 99/1/25 102/4/29
f 91/3/20 94/4/19 102/4/29
f 103/1/30 102/4/29 99/1/25
f 86/3/27 104/4/31 100/4/26
f 104/4/31 101/1/28 100/4/26
f 101/1/28 104/4/31 105/1/32
f 104/4/31 86/3/27 88/3/33
f 104/4/31 106/1/34 105/1/32
f 107/4/35 91/3/20 102/4/29
f 102/4/29 103/1/30 107/4/35
f 106/1/34 107/4/35 103/1/30
f 91/3/20 107/4/35 92/3/36
f 88/3/33 108/4/37 104/4/31
f 106/1/34 104/4/31 108/4/37
f 107/4/35 106/1/34 108/4/37
f 108/4/37 92/3/36 107/4/35
f 108/4/37 88/3/33 90/3/38
f 92/3/36 108/4/37 90/3/38

