# Created by Kenney (www.kenney.nl)

mtllib bevel-hq-brick-slope-3x2.mtl

g bevel-hq-brick-slope-3x2

v 0.11925 0 0.079 1 1 1
v 0.11925 0 -0.079 1 1 1
v -0.11925 0 0.079 1 1 1
v -0.11925 0 -0.079 1 1 1
v -0.11925 0.016 -0.079 1 1 1
v -0.11925 0.016 0.079 1 1 1
v 0.11425 0.096 -0.074 1 1 1
v 0.11425 0.096 0.074 1 1 1
v 0.03975 0.096 -0.074 1 1 1
v 0.03975 0.096 0.074 1 1 1
v 0.11925 0.091 0.079 1 1 1
v 0.11925 0.091 -0.079 1 1 1
v 0.0298125 0.091 -0.079 1 1 1
v 0.0298125 0.091 0.079 1 1 1
v 0.0985 0.114 0.02757107 1 1 1
v 0.0985 0.114 0.05142893 1 1 1
v 0.09142893 0.114 0.0205 1 1 1
v 0.09142893 0.114 0.0585 1 1 1
v 0.06757107 0.114 0.0205 1 1 1
v 0.06757107 0.114 0.0585 1 1 1
v 0.0605 0.114 0.02757107 1 1 1
v 0.0605 0.114 0.05142893 1 1 1
v 0.0935 0.109 0.0155 1 1 1
v 0.0655 0.109 0.0155 1 1 1
v 0.1035 0.109 0.0255 1 1 1
v 0.0935 0.096 0.0155 1 1 1
v 0.0655 0.096 0.0155 1 1 1
v 0.1035 0.096 0.0255 1 1 1
v 0.0555 0.096 0.0255 1 1 1
v 0.1035 0.109 0.0535 1 1 1
v 0.1035 0.096 0.0535 1 1 1
v 0.0555 0.109 0.0255 1 1 1
v 0.0555 0.096 0.0535 1 1 1
v 0.0935 0.109 0.0635 1 1 1
v 0.0935 0.096 0.0635 1 1 1
v 0.0655 0.096 0.0635 1 1 1
v 0.0555 0.109 0.0535 1 1 1
v 0.0655 0.109 0.0635 1 1 1
v 0.0985 0.114 -0.05142893 1 1 1
v 0.0985 0.114 -0.02757107 1 1 1
v 0.09142893 0.114 -0.0585 1 1 1
v 0.09142893 0.114 -0.0205 1 1 1
v 0.06757107 0.114 -0.0585 1 1 1
v 0.06757107 0.114 -0.0205 1 1 1
v 0.0605 0.114 -0.05142893 1 1 1
v 0.0605 0.114 -0.02757107 1 1 1
v 0.0935 0.109 -0.0635 1 1 1
v 0.0655 0.109 -0.0635 1 1 1
v 0.1035 0.109 -0.0535 1 1 1
v 0.0935 0.096 -0.0635 1 1 1
v 0.0655 0.096 -0.0635 1 1 1
v 0.1035 0.096 -0.0535 1 1 1
v 0.0555 0.096 -0.0535 1 1 1
v 0.1035 0.109 -0.0255 1 1 1
v 0.1035 0.096 -0.0255 1 1 1
v 0.0555 0.109 -0.0535 1 1 1
v 0.0555 0.096 -0.0255 1 1 1
v 0.0935 0.109 -0.0155 1 1 1
v 0.0935 0.096 -0.0155 1 1 1
v 0.0655 0.096 -0.0155 1 1 1
v 0.0555 0.109 -0.0255 1 1 1
v 0.0655 0.109 -0.0155 1 1 1

vn 0 -1 0
vn -1 0 0
vn 0 1 0
vn 1 0 0
vn 0.9576361 0.2879809 0
vn 0.7071068 0.7071068 0
vn 0 0 -1
vn 0 0.2879809 -0.9576361
vn 0 0.1391218 -0.9902753
vn 0 0.7071068 -0.7071068
vn 0 0 1
vn 0 0.2879809 0.9576361
vn 0 0.1391218 0.9902753
vn 0 0.7071068 0.7071068
vn -0.4494595 0.8933007 0
vn 0.2596883 0.7345095 -0.6269431
vn 0.3556998 0.3688517 -0.8587352
vn 0.6269431 0.7345095 -0.2596884
vn -0.2596883 0.7345095 -0.6269431
vn -0.3556998 0.3688517 -0.8587352
vn -0.6269431 0.7345095 -0.2596884
vn 0.8587352 0.3688517 -0.3556998
vn 0.3826834 0 -0.9238795
vn -0.3826834 0 -0.9238795
vn 0.9238795 0 -0.3826834
vn -0.9238795 0 -0.3826834
vn 0.8587352 0.3688517 0.3556998
vn 0.6269431 0.7345095 0.2596884
vn 0.9238795 0 0.3826834
vn -0.8587352 0.3688517 -0.3556998
vn -0.9238795 0 0.3826834
vn 0.3556998 0.3688517 0.8587352
vn 0.3826834 0 0.9238795
vn 0.2596883 0.7345095 0.6269431
vn -0.3826834 0 0.9238795
vn -0.8587352 0.3688517 0.3556998
vn -0.6269431 0.7345095 0.2596884
vn -0.3556998 0.3688517 0.8587352
vn -0.2596883 0.7345095 0.6269431

vt 0.59375 0.025
vt 0.59375 0.05833333
vt 0.59375 0.225
vt 0.59375 0.2145833
vt 0.59375 0.1694444

usemtl colormap

f 3/1/1 2/1/1 1/1/1
f 2/1/1 3/1/1 4/1/1
f 3/1/2 5/2/2 4/1/2
f 5/2/2 3/1/2 6/2/2
f 9/3/3 8/3/3 7/3/3
f 8/3/3 9/3/3 10/3/3
f 2/1/4 11/4/5 1/1/4
f 11/4/5 2/1/4 12/4/5
f 7/3/6 11/4/5 12/4/5
f 11/4/5 7/3/6 8/3/6
f 5/2/7 2/1/7 4/1/7
f 2/1/7 5/2/7 12/4/8
f 12/4/8 5/2/7 13/4/9
f 9/3/10 12/4/8 13/4/9
f 12/4/8 9/3/10 7/3/10
f 11/4/12 3/1/11 1/1/11
f 3/1/11 11/4/12 6/2/11
f 6/2/11 11/4/12 14/4/13
f 8/3/14 14/4/13 11/4/12
f 14/4/13 8/3/14 10/3/14
f 13/4/15 10/3/15 9/3/15
f 10/3/15 13/4/15 14/4/15
f 14/4/15 13/4/15 5/2/15
f 14/4/15 5/2/15 6/2/15
f 17/3/3 16/3/3 15/3/3
f 16/3/3 17/3/3 18/3/3
f 18/3/3 17/3/3 19/3/3
f 18/3/3 19/3/3 20/3/3
f 20/3/3 19/3/3 21/3/3
f 20/3/3 21/3/3 22/3/3
f 15/3/18 23/5/17 17/3/16
f 23/5/17 19/3/19 17/3/16
f 19/3/19 23/5/17 24/5/20
f 24/5/20 21/3/21 19/3/19
f 23/5/17 15/3/18 25/5/22
f 26/1/23 24/5/20 23/5/17
f 25/5/22 26/1/23 23/5/17
f 24/5/20 26/1/23 27/1/24
f 26/1/23 25/5/22 28/1/25
f 29/1/26 24/5/20 27/1/24
f 15/3/18 30/5/27 25/5/22
f 30/5/27 28/1/25 25/5/22
f 30/5/27 15/3/18 16/3/28
f 28/1/25 30/5/27 31/1/29
f 24/5/20 29/1/26 32/5/30
f 21/3/21 24/5/20 32/5/30
f 33/1/31 32/5/30 29/1/26
f 16/3/28 34/5/32 30/5/27
f 34/5/32 31/1/29 30/5/27
f 31/1/29 34/5/32 35/1/33
f 34/5/32 16/3/28 18/3/34
f 34/5/32 36/1/35 35/1/33
f 37/5/36 21/3/21 32/5/30
f 32/5/30 33/1/31 37/5/36
f 36/1/35 37/5/36 33/1/31
f 21/3/21 37/5/36 22/3/37
f 18/3/34 38/5/38 34/5/32
f 36/1/35 34/5/32 38/5/38
f 37/5/36 36/1/35 38/5/38
f 38/5/38 22/3/37 37/5/36
f 38/5/38 18/3/34 20/3/39
f 22/3/37 38/5/38 20/3/39
f 41/3/3 40/3/3 39/3/3
f 40/3/3 41/3/3 42/3/3
f 42/3/3 41/3/3 43/3/3
f 42/3/3 43/3/3 44/3/3
f 44/3/3 43/3/3 45/3/3
f 44/3/3 45/3/3 46/3/3
f 39/3/18 47/5/17 41/3/16
f 47/5/17 43/3/19 41/3/16
f 43/3/19 47/5/17 48/5/20
f 48/5/20 45/3/21 43/3/19
f 47/5/17 39/3/18 49/5/22
f 50/1/23 48/5/20 47/5/17
f 49/5/22 50/1/23 47/5/17
f 48/5/20 50/1/23 51/1/24
f 50/1/23 49/5/22 52/1/25
f 53/1/26 48/5/20 51/1/24
f 39/3/18 54/5/27 49/5/22
f 54/5/27 52/1/25 49/5/22
f 54/5/27 39/3/18 40/3/28
f 52/1/25 54/5/27 55/1/29
f 48/5/20 53/1/26 56/5/30
f 45/3/21 48/5/20 56/5/30
f 57/1/31 56/5/30 53/1/26
f 40/3/28 58/5/32 54/5/27
f 58/5/32 55/1/29 54/5/27
f 55/1/29 58/5/32 59/1/33
f 58/5/32 40/3/28 42/3/34
f 58/5/32 60/1/35 59/1/33
f 61/5/36 45/3/21 56/5/30
f 56/5/30 57/1/31 61/5/36
f 60/1/35 61/5/36 57/1/31
f 45/3/21 61/5/36 46/3/37
f 42/3/34 62/5/38 58/5/32
f 60/1/35 58/5/32 62/5/38
f 61/5/36 60/1/35 62/5/38
f 62/5/38 46/3/37 61/5/36
f 62/5/38 42/3/34 44/3/39
f 46/3/37 62/5/38 44/3/39

g bevel-hq-brick-slope-3x2




usemtl colormap

f 3/1/1 2/1/1 1/1/1
f 2/1/1 3/1/1 4/1/1
f 3/1/2 5/2/2 4/1/2
f 5/2/2 3/1/2 6/2/2
f 9/3/3 8/3/3 7/3/3
f 8/3/3 9/3/3 10/3/3
f 2/1/4 11/4/5 1/1/4
f 11/4/5 2/1/4 12/4/5
f 7/3/6 11/4/5 12/4/5
f 11/4/5 7/3/6 8/3/6
f 5/2/7 2/1/7 4/1/7
f 2/1/7 5/2/7 12/4/8
f 12/4/8 5/2/7 13/4/9
f 9/3/10 12/4/8 13/4/9
f 12/4/8 9/3/10 7/3/10
f 11/4/12 3/1/11 1/1/11
f 3/1/11 11/4/12 6/2/11
f 6/2/11 11/4/12 14/4/13
f 8/3/14 14/4/13 11/4/12
f 14/4/13 8/3/14 10/3/14
f 13/4/15 10/3/15 9/3/15
f 10/3/15 13/4/15 14/4/15
f 14/4/15 13/4/15 5/2/15
f 14/4/15 5/2/15 6/2/15
f 17/3/3 16/3/3 15/3/3
f 16/3/3 17/3/3 18/3/3
f 18/3/3 17/3/3 19/3/3
f 18/3/3 19/3/3 20/3/3
f 20/3/3 19/3/3 21/3/3
f 20/3/3 21/3/3 22/3/3
f 15/3/18 23/5/17 17/3/16
f 23/5/17 19/3/19 17/3/16
f 19/3/19 23/5/17 24/5/20
f 24/5/20 21/3/21 19/3/19
f 23/5/17 15/3/18 25/5/22
f 26/1/23 24/5/20 23/5/17
f 25/5/22 26/1/23 23/5/17
f 24/5/20 26/1/23 27/1/24
f 26/1/23 25/5/22 28/1/25
f 29/1/26 24/5/20 27/1/24
f 15/3/18 30/5/27 25/5/22
f 30/5/27 28/1/25 25/5/22
f 30/5/27 15/3/18 16/3/28
f 28/1/25 30/5/27 31/1/29
f 24/5/20 29/1/26 32/5/30
f 21/3/21 24/5/20 32/5/30
f 33/1/31 32/5/30 29/1/26
f 16/3/28 34/5/32 30/5/27
f 34/5/32 31/1/29 30/5/27
f 31/1/29 34/5/32 35/1/33
f 34/5/32 16/3/28 18/3/34
f 34/5/32 36/1/35 35/1/33
f 37/5/36 21/3/21 32/5/30
f 32/5/30 33/1/31 37/5/36
f 36/1/35 37/5/36 33/1/31
f 21/3/21 37/5/36 22/3/37
f 18/3/34 38/5/38 34/5/32
f 36/1/35 34/5/32 38/5/38
f 37/5/36 36/1/35 38/5/38
f 38/5/38 22/3/37 37/5/36
f 38/5/38 18/3/34 20/3/39
f 22/3/37 38/5/38 20/3/39
f 41/3/3 40/3/3 39/3/3
f 40/3/3 41/3/3 42/3/3
f 42/3/3 41/3/3 43/3/3
f 42/3/3 43/3/3 44/3/3
f 44/3/3 43/3/3 45/3/3
f 44/3/3 45/3/3 46/3/3
f 39/3/18 47/5/17 41/3/16
f 47/5/17 43/3/19 41/3/16
f 43/3/19 47/5/17 48/5/20
f 48/5/20 45/3/21 43/3/19
f 47/5/17 39/3/18 49/5/22
f 50/1/23 48/5/20 47/5/17
f 49/5/22 50/1/23 47/5/17
f 48/5/20 50/1/23 51/1/24
f 50/1/23 49/5/22 52/1/25
f 53/1/26 48/5/20 51/1/24
f 39/3/18 54/5/27 49/5/22
f 54/5/27 52/1/25 49/5/22
f 54/5/27 39/3/18 40/3/28
f 52/1/25 54/5/27 55/1/29
f 48/5/20 53/1/26 56/5/30
f 45/3/21 48/5/20 56/5/30
f 57/1/31 56/5/30 53/1/26
f 40/3/28 58/5/32 54/5/27
f 58/5/32 55/1/29 54/5/27
f 55/1/29 58/5/32 59/1/33
f 58/5/32 40/3/28 42/3/34
f 58/5/32 60/1/35 59/1/33
f 61/5/36 45/3/21 56/5/30
f 56/5/30 57/1/31 61/5/36
f 60/1/35 61/5/36 57/1/31
f 45/3/21 61/5/36 46/3/37
f 42/3/34 62/5/38 58/5/32
f 60/1/35 58/5/32 62/5/38
f 61/5/36 60/1/35 62/5/38
f 62/5/38 46/3/37 61/5/36
f 62/5/38 42/3/34 44/3/39
f 46/3/37 62/5/38 44/3/39

