# Created by Kenney (www.kenney.nl)

mtllib bevel-hq-brick-slope-corner-outside-inverted-2x2.mtl

g bevel-hq-brick-slope-corner-outside-inverted-2x2

v 0.0795 0 0.00025 1 1 1
v 0.0795 0 -0.07925 1 1 1
v 2.165734E-15 0 0.00025 1 1 1
v 2.165734E-15 0 -0.07925 1 1 1
v 0.0795 0.08 0.07925 1 1 1
v 0.0795 0.091 0.07925 1 1 1
v 0.0795 0.091 -0.07925 1 1 1
v 0.0745 0.096 -0.07425 1 1 1
v 0.0745 0.096 0.07425 1 1 1
v -0.0795 0.08 -0.07925 1 1 1
v -0.0795 0.091 -0.07925 1 1 1
v -0.0795 0.08 0.07925 1 1 1
v -0.0795 0.091 0.07925 1 1 1
v -0.0745 0.096 -0.07425 1 1 1
v -0.0745 0.096 0.07425 1 1 1
v -0.02075 0.114 0.02782107 1 1 1
v -0.02075 0.114 0.05167893 1 1 1
v -0.02782107 0.114 0.02075 1 1 1
v -0.02782107 0.114 0.05875 1 1 1
v -0.05167893 0.114 0.02075 1 1 1
v -0.05167893 0.114 0.05875 1 1 1
v -0.05875 0.114 0.02782107 1 1 1
v -0.05875 0.114 0.05167893 1 1 1
v -0.02575 0.109 0.01575 1 1 1
v -0.05375 0.109 0.01575 1 1 1
v -0.01575 0.109 0.02575 1 1 1
v -0.02575 0.096 0.01575 1 1 1
v -0.05375 0.096 0.01575 1 1 1
v -0.01575 0.096 0.02575 1 1 1
v -0.06375 0.096 0.02575 1 1 1
v -0.01575 0.109 0.05375 1 1 1
v -0.01575 0.096 0.05375 1 1 1
v -0.06375 0.109 0.02575 1 1 1
v -0.06375 0.096 0.05375 1 1 1
v -0.02575 0.109 0.06375 1 1 1
v -0.02575 0.096 0.06375 1 1 1
v -0.05375 0.096 0.06375 1 1 1
v -0.06375 0.109 0.05375 1 1 1
v -0.05375 0.109 0.06375 1 1 1
v 0.05875 0.114 -0.05117893 1 1 1
v 0.05875 0.114 -0.02732107 1 1 1
v 0.05167893 0.114 -0.05825 1 1 1
v 0.05167893 0.114 -0.02025 1 1 1
v 0.02782107 0.114 -0.05825 1 1 1
v 0.02782107 0.114 -0.02025 1 1 1
v 0.02075 0.114 -0.05117893 1 1 1
v 0.02075 0.114 -0.02732107 1 1 1
v 0.05375 0.109 -0.06325 1 1 1
v 0.02575 0.109 -0.06325 1 1 1
v 0.06375 0.109 -0.05325 1 1 1
v 0.05375 0.096 -0.06325 1 1 1
v 0.02575 0.096 -0.06325 1 1 1
v 0.06375 0.096 -0.05325 1 1 1
v 0.01575 0.096 -0.05325 1 1 1
v 0.06375 0.109 -0.02525 1 1 1
v 0.06375 0.096 -0.02525 1 1 1
v 0.01575 0.109 -0.05325 1 1 1
v 0.01575 0.096 -0.02525 1 1 1
v 0.05375 0.109 -0.01525 1 1 1
v 0.05375 0.096 -0.01525 1 1 1
v 0.02575 0.096 -0.01525 1 1 1
v 0.01575 0.109 -0.02525 1 1 1
v 0.02575 0.109 -0.01525 1 1 1
v 0.05875 0.114 0.02782107 1 1 1
v 0.05875 0.114 0.05167893 1 1 1
v 0.05167893 0.114 0.02075 1 1 1
v 0.05167893 0.114 0.05875 1 1 1
v 0.02782107 0.114 0.02075 1 1 1
v 0.02782107 0.114 0.05875 1 1 1
v 0.02075 0.114 0.02782107 1 1 1
v 0.02075 0.114 0.05167893 1 1 1
v 0.05375 0.109 0.01575 1 1 1
v 0.02575 0.109 0.01575 1 1 1
v 0.06375 0.109 0.02575 1 1 1
v 0.05375 0.096 0.01575 1 1 1
v 0.02575 0.096 0.01575 1 1 1
v 0.06375 0.096 0.02575 1 1 1
v 0.01575 0.096 0.02575 1 1 1
v 0.06375 0.109 0.05375 1 1 1
v 0.06375 0.096 0.05375 1 1 1
v 0.01575 0.109 0.02575 1 1 1
v 0.01575 0.096 0.05375 1 1 1
v 0.05375 0.109 0.06375 1 1 1
v 0.05375 0.096 0.06375 1 1 1
v 0.02575 0.096 0.06375 1 1 1
v 0.01575 0.109 0.05375 1 1 1
v 0.02575 0.109 0.06375 1 1 1
v -0.02075 0.114 -0.05117893 1 1 1
v -0.02075 0.114 -0.02732107 1 1 1
v -0.02782107 0.114 -0.05825 1 1 1
v -0.02782107 0.114 -0.02025 1 1 1
v -0.05167893 0.114 -0.05825 1 1 1
v -0.05167893 0.114 -0.02025 1 1 1
v -0.05875 0.114 -0.05117893 1 1 1
v -0.05875 0.114 -0.02732107 1 1 1
v -0.02575 0.109 -0.06325 1 1 1
v -0.05375 0.109 -0.06325 1 1 1
v -0.01575 0.109 -0.05325 1 1 1
v -0.02575 0.096 -0.06325 1 1 1
v -0.05375 0.096 -0.06325 1 1 1
v -0.01575 0.096 -0.05325 1 1 1
v -0.06375 0.096 -0.05325 1 1 1
v -0.01575 0.109 -0.02525 1 1 1
v -0.01575 0.096 -0.02525 1 1 1
v -0.06375 0.109 -0.05325 1 1 1
v -0.06375 0.096 -0.02525 1 1 1
v -0.02575 0.109 -0.01525 1 1 1
v -0.02575 0.096 -0.01525 1 1 1
v -0.05375 0.096 -0.01525 1 1 1
v -0.06375 0.109 -0.02525 1 1 1
v -0.05375 0.109 -0.01525 1 1 1

vn 0 -1 0
vn 1 0 0
vn 0.9576361 0.2879809 0
vn 0.7071068 0.7071068 0
vn -1 0 0
vn -0.9576361 0.2879809 0
vn -0.7071068 0.7071068 0
vn -0.7093199 -0.7048866 0
vn 0 0 -1
vn 0 0.2879809 -0.9576361
vn 0 0.7071068 -0.7071068
vn 0 0 1
vn 0 0.2879809 0.9576361
vn 0 0.7071068 0.7071068
vn 0 -0.7026457 0.71154
vn 0 1 0
vn 0.2596883 0.7345095 -0.6269431
vn 0.3556998 0.3688517 -0.8587352
vn 0.6269431 0.7345095 -0.2596884
vn -0.2596883 0.7345095 -0.6269431
vn -0.3556998 0.3688517 -0.8587352
vn -0.6269431 0.7345095 -0.2596884
vn 0.8587352 0.3688517 -0.3556998
vn 0.3826834 0 -0.9238795
vn -0.3826834 0 -0.9238795
vn 0.9238795 0 -0.3826834
vn -0.9238795 0 -0.3826834
vn 0.8587352 0.3688517 0.3556998
vn 0.6269431 0.7345095 0.2596884
vn 0.9238795 0 0.3826834
vn -0.8587352 0.3688517 -0.3556998
vn -0.9238795 0 0.3826834
vn 0.3556998 0.3688517 0.8587352
vn 0.3826834 0 0.9238795
vn 0.2596883 0.7345095 0.6269431
vn -0.3826834 0 0.9238795
vn -0.8587352 0.3688517 0.3556998
vn -0.6269431 0.7345095 0.2596884
vn -0.3556998 0.3688517 0.8587352
vn -0.2596883 0.7345095 0.6269431

vt 0.59375 0.025
vt 0.59375 0.1916666
vt 0.59375 0.2145833
vt 0.59375 0.225
vt 0.59375 0.1694444

usemtl colormap

f 3/1/1 2/1/1 1/1/1
f 2/1/1 3/1/1 4/1/1
f 1/1/2 6/3/3 5/2/2
f 2/1/2 6/3/3 1/1/2
f 6/3/3 2/1/2 7/3/3
f 8/4/4 6/3/3 7/3/3
f 6/3/3 8/4/4 9/4/4
f 12/2/5 11/3/6 10/2/5
f 11/3/6 12/2/5 13/3/6
f 13/3/6 14/4/7 11/3/6
f 14/4/7 13/3/6 15/4/7
f 3/1/8 10/2/8 4/1/8
f 10/2/8 3/1/8 12/2/8
f 10/2/9 2/1/9 4/1/9
f 2/1/9 10/2/9 7/3/10
f 7/3/10 10/2/9 11/3/10
f 14/4/11 7/3/10 11/3/10
f 7/3/10 14/4/11 8/4/11
f 6/3/13 12/2/12 5/2/12
f 12/2/12 6/3/13 13/3/13
f 9/4/14 13/3/13 6/3/13
f 13/3/13 9/4/14 15/4/14
f 5/2/15 3/1/15 1/1/15
f 3/1/15 5/2/15 12/2/15
f 14/4/16 9/4/16 8/4/16
f 9/4/16 14/4/16 15/4/16
f 18/4/16 17/4/16 16/4/16
f 17/4/16 18/4/16 19/4/16
f 19/4/16 18/4/16 20/4/16
f 19/4/16 20/4/16 21/4/16
f 21/4/16 20/4/16 22/4/16
f 21/4/16 22/4/16 23/4/16
f 16/4/19 24/5/18 18/4/17
f 24/5/18 20/4/20 18/4/17
f 20/4/20 24/5/18 25/5/21
f 25/5/21 22/4/22 20/4/20
f 24/5/18 16/4/19 26/5/23
f 27/1/24 25/5/21 24/5/18
f 26/5/23 27/1/24 24/5/18
f 25/5/21 27/1/24 28/1/25
f 27/1/24 26/5/23 29/1/26
f 30/1/27 25/5/21 28/1/25
f 16/4/19 31/5/28 26/5/23
f 31/5/28 29/1/26 26/5/23
f 31/5/28 16/4/19 17/4/29
f 29/1/26 31/5/28 32/1/30
f 25/5/21 30/1/27 33/5/31
f 22/4/22 25/5/21 33/5/31
f 34/1/32 33/5/31 30/1/27
f 17/4/29 35/5/33 31/5/28
f 35/5/33 32/1/30 31/5/28
f 32/1/30 35/5/33 36/1/34
f 35/5/33 17/4/29 19/4/35
f 35/5/33 37/1/36 36/1/34
f 38/5/37 22/4/22 33/5/31
f 33/5/31 34/1/32 38/5/37
f 37/1/36 38/5/37 34/1/32
f 22/4/22 38/5/37 23/4/38
f 19/4/35 39/5/39 35/5/33
f 37/1/36 35/5/33 39/5/39
f 38/5/37 37/1/36 39/5/39
f 39/5/39 23/4/38 38/5/37
f 39/5/39 19/4/35 21/4/40
f 23/4/38 39/5/39 21/4/40
f 42/4/16 41/4/16 40/4/16
f 41/4/16 42/4/16 43/4/16
f 43/4/16 42/4/16 44/4/16
f 43/4/16 44/4/16 45/4/16
f 45/4/16 44/4/16 46/4/16
f 45/4/16 46/4/16 47/4/16
f 40/4/19 48/5/18 42/4/17
f 48/5/18 44/4/20 42/4/17
f 44/4/20 48/5/18 49/5/21
f 49/5/21 46/4/22 44/4/20
f 48/5/18 40/4/19 50/5/23
f 51/1/24 49/5/21 48/5/18
f 50/5/23 51/1/24 48/5/18
f 49/5/21 51/1/24 52/1/25
f 51/1/24 50/5/23 53/1/26
f 54/1/27 49/5/21 52/1/25
f 40/4/19 55/5/28 50/5/23
f 55/5/28 53/1/26 50/5/23
f 55/5/28 40/4/19 41/4/29
f 53/1/26 55/5/28 56/1/30
f 49/5/21 54/1/27 57/5/31
f 46/4/22 49/5/21 57/5/31
f 58/1/32 57/5/31 54/1/27
f 41/4/29 59/5/33 55/5/28
f 59/5/33 56/1/30 55/5/28
f 56/1/30 59/5/33 60/1/34
f 59/5/33 41/4/29 43/4/35
f 59/5/33 61/1/36 60/1/34
f 62/5/37 46/4/22 57/5/31
f 57/5/31 58/1/32 62/5/37
f 61/1/36 62/5/37 58/1/32
f 46/4/22 62/5/37 47/4/38
f 43/4/35 63/5/39 59/5/33
f 61/1/36 59/5/33 63/5/39
f 62/5/37 61/1/36 63/5/39
f 63/5/39 47/4/38 62/5/37
f 63/5/39 43/4/35 45/4/40
f 47/4/38 63/5/39 45/4/40
f 66/4/16 65/4/16 64/4/16
f 65/4/16 66/4/16 67/4/16
f 67/4/16 66/4/16 68/4/16
f 67/4/16 68/4/16 69/4/16
f 69/4/16 68/4/16 70/4/16
f 69/4/16 70/4/16 71/4/16
f 64/4/19 72/5/18 66/4/17
f 72/5/18 68/4/20 66/4/17
f 68/4/20 72/5/18 73/5/21
f 73/5/21 70/4/22 68/4/20
f 72/5/18 64/4/19 74/5/23
f 75/1/24 73/5/21 72/5/18
f 74/5/23 75/1/24 72/5/18
f 73/5/21 75/1/24 76/1/25
f 75/1/24 74/5/23 77/1/26
f 78/1/27 73/5/21 76/1/25
f 64/4/19 79/5/28 74/5/23
f 79/5/28 77/1/26 74/5/23
f 79/5/28 64/4/19 65/4/29
f 77/1/26 79/5/28 80/1/30
f 73/5/21 78/1/27 81/5/31
f 70/4/22 73/5/21 81/5/31
f 82/1/32 81/5/31 78/1/27
f 65/4/29 83/5/33 79/5/28
f 83/5/33 80/1/30 79/5/28
f 80/1/30 83/5/33 84/1/34
f 83/5/33 65/4/29 67/4/35
f 83/5/33 85/1/36 84/1/34
f 86/5/37 70/4/22 81/5/31
f 81/5/31 82/1/32 86/5/37
f 85/1/36 86/5/37 82/1/32
f 70/4/22 86/5/37 71/4/38
f 67/4/35 87/5/39 83/5/33
f 85/1/36 83/5/33 87/5/39
f 86/5/37 85/1/36 87/5/39
f 87/5/39 71/4/38 86/5/37
f 87/5/39 67/4/35 69/4/40
f 71/4/38 87/5/39 69/4/40
f 90/4/16 89/4/16 88/4/16
f 89/4/16 90/4/16 91/4/16
f 91/4/16 90/4/16 92/4/16
f 91/4/16 92/4/16 93/4/16
f 93/4/16 92/4/16 94/4/16
f 93/4/16 94/4/16 95/4/16
f 88/4/19 96/5/18 90/4/17
f 96/5/18 92/4/20 90/4/17
f 92/4/20 96/5/18 97/5/21
f 97/5/21 94/4/22 92/4/20
f 96/5/18 88/4/19 98/5/23
f 99/1/24 97/5/21 96/5/18
f 98/5/23 99/1/24 96/5/18
f 97/5/21 99/1/24 100/1/25
f 99/1/24 98/5/23 101/1/26
f 102/1/27 97/5/21 100/1/25
f 88/4/19 103/5/28 98/5/23
f 103/5/28 101/1/26 98/5/23
f 103/5/28 88/4/19 89/4/29
f 101/1/26 103/5/28 104/1/30
f 97/5/21 102/1/27 105/5/31
f 94/4/22 97/5/21 105/5/31
f 106/1/32 105/5/31 102/1/27
f 89/4/29 107/5/33 103/5/28
f 107/5/33 104/1/30 103/5/28
f 104/1/30 107/5/33 108/1/34
f 107/5/33 89/4/29 91/4/35
f 107/5/33 109/1/36 108/1/34
f 110/5/37 94/4/22 105/5/31
f 105/5/31 106/1/32 110/5/37
f 109/1/36 110/5/37 106/1/32
f 94/4/22 110/5/37 95/4/38
f 91/4/35 111/5/39 107/5/33
f 109/1/36 107/5/33 111/5/39
f 110/5/37 109/1/36 111/5/39
f 111/5/39 95/4/38 110/5/37
f 111/5/39 91/4/35 93/4/40
f 95/4/38 111/5/39 93/4/40

g bevel-hq-brick-slope-corner-outside-inverted-2x2




usemtl colormap

f 3/1/1 2/1/1 1/1/1
f 2/1/1 3/1/1 4/1/1
f 1/1/2 6/3/3 5/2/2
f 2/1/2 6/3/3 1/1/2
f 6/3/3 2/1/2 7/3/3
f 8/4/4 6/3/3 7/3/3
f 6/3/3 8/4/4 9/4/4
f 12/2/5 11/3/6 10/2/5
f 11/3/6 12/2/5 13/3/6
f 13/3/6 14/4/7 11/3/6
f 14/4/7 13/3/6 15/4/7
f 3/1/8 10/2/8 4/1/8
f 10/2/8 3/1/8 12/2/8
f 10/2/9 2/1/9 4/1/9
f 2/1/9 10/2/9 7/3/10
f 7/3/10 10/2/9 11/3/10
f 14/4/11 7/3/10 11/3/10
f 7/3/10 14/4/11 8/4/11
f 6/3/13 12/2/12 5/2/12
f 12/2/12 6/3/13 13/3/13
f 9/4/14 13/3/13 6/3/13
f 13/3/13 9/4/14 15/4/14
f 5/2/15 3/1/15 1/1/15
f 3/1/15 5/2/15 12/2/15
f 14/4/16 9/4/16 8/4/16
f 9/4/16 14/4/16 15/4/16
f 18/4/16 17/4/16 16/4/16
f 17/4/16 18/4/16 19/4/16
f 19/4/16 18/4/16 20/4/16
f 19/4/16 20/4/16 21/4/16
f 21/4/16 20/4/16 22/4/16
f 21/4/16 22/4/16 23/4/16
f 16/4/19 24/5/18 18/4/17
f 24/5/18 20/4/20 18/4/17
f 20/4/20 24/5/18 25/5/21
f 25/5/21 22/4/22 20/4/20
f 24/5/18 16/4/19 26/5/23
f 27/1/24 25/5/21 24/5/18
f 26/5/23 27/1/24 24/5/18
f 25/5/21 27/1/24 28/1/25
f 27/1/24 26/5/23 29/1/26
f 30/1/27 25/5/21 28/1/25
f 16/4/19 31/5/28 26/5/23
f 31/5/28 29/1/26 26/5/23
f 31/5/28 16/4/19 17/4/29
f 29/1/26 31/5/28 32/1/30
f 25/5/21 30/1/27 33/5/31
f 22/4/22 25/5/21 33/5/31
f 34/1/32 33/5/31 30/1/27
f 17/4/29 35/5/33 31/5/28
f 35/5/33 32/1/30 31/5/28
f 32/1/30 35/5/33 36/1/34
f 35/5/33 17/4/29 19/4/35
f 35/5/33 37/1/36 36/1/34
f 38/5/37 22/4/22 33/5/31
f 33/5/31 34/1/32 38/5/37
f 37/1/36 38/5/37 34/1/32
f 22/4/22 38/5/37 23/4/38
f 19/4/35 39/5/39 35/5/33
f 37/1/36 35/5/33 39/5/39
f 38/5/37 37/1/36 39/5/39
f 39/5/39 23/4/38 38/5/37
f 39/5/39 19/4/35 21/4/40
f 23/4/38 39/5/39 21/4/40
f 42/4/16 41/4/16 40/4/16
f 41/4/16 42/4/16 43/4/16
f 43/4/16 42/4/16 44/4/16
f 43/4/16 44/4/16 45/4/16
f 45/4/16 44/4/16 46/4/16
f 45/4/16 46/4/16 47/4/16
f 40/4/19 48/5/18 42/4/17
f 48/5/18 44/4/20 42/4/17
f 44/4/20 48/5/18 49/5/21
f 49/5/21 46/4/22 44/4/20
f 48/5/18 40/4/19 50/5/23
f 51/1/24 49/5/21 48/5/18
f 50/5/23 51/1/24 48/5/18
f 49/5/21 51/1/24 52/1/25
f 51/1/24 50/5/23 53/1/26
f 54/1/27 49/5/21 52/1/25
f 40/4/19 55/5/28 50/5/23
f 55/5/28 53/1/26 50/5/23
f 55/5/28 40/4/19 41/4/29
f 53/1/26 55/5/28 56/1/30
f 49/5/21 54/1/27 57/5/31
f 46/4/22 49/5/21 57/5/31
f 58/1/32 57/5/31 54/1/27
f 41/4/29 59/5/33 55/5/28
f 59/5/33 56/1/30 55/5/28
f 56/1/30 59/5/33 60/1/34
f 59/5/33 41/4/29 43/4/35
f 59/5/33 61/1/36 60/1/34
f 62/5/37 46/4/22 57/5/31
f 57/5/31 58/1/32 62/5/37
f 61/1/36 62/5/37 58/1/32
f 46/4/22 62/5/37 47/4/38
f 43/4/35 63/5/39 59/5/33
f 61/1/36 59/5/33 63/5/39
f 62/5/37 61/1/36 63/5/39
f 63/5/39 47/4/38 62/5/37
f 63/5/39 43/4/35 45/4/40
f 47/4/38 63/5/39 45/4/40
f 66/4/16 65/4/16 64/4/16
f 65/4/16 66/4/16 67/4/16
f 67/4/16 66/4/16 68/4/16
f 67/4/16 68/4/16 69/4/16
f 69/4/16 68/4/16 70/4/16
f 69/4/16 70/4/16 71/4/16
f 64/4/19 72/5/18 66/4/17
f 72/5/18 68/4/20 66/4/17
f 68/4/20 72/5/18 73/5/21
f 73/5/21 70/4/22 68/4/20
f 72/5/18 64/4/19 74/5/23
f 75/1/24 73/5/21 72/5/18
f 74/5/23 75/1/24 72/5/18
f 73/5/21 75/1/24 76/1/25
f 75/1/24 74/5/23 77/1/26
f 78/1/27 73/5/21 76/1/25
f 64/4/19 79/5/28 74/5/23
f 79/5/28 77/1/26 74/5/23
f 79/5/28 64/4/19 65/4/29
f 77/1/26 79/5/28 80/1/30
f 73/5/21 78/1/27 81/5/31
f 70/4/22 73/5/21 81/5/31
f 82/1/32 81/5/31 78/1/27
f 65/4/29 83/5/33 79/5/28
f 83/5/33 80/1/30 79/5/28
f 80/1/30 83/5/33 84/1/34
f 83/5/33 65/4/29 67/4/35
f 83/5/33 85/1/36 84/1/34
f 86/5/37 70/4/22 81/5/31
f 81/5/31 82/1/32 86/5/37
f 85/1/36 86/5/37 82/1/32
f 70/4/22 86/5/37 71/4/38
f 67/4/35 87/5/39 83/5/33
f 85/1/36 83/5/33 87/5/39
f 86/5/37 85/1/36 87/5/39
f 87/5/39 71/4/38 86/5/37
f 87/5/39 67/4/35 69/4/40
f 71/4/38 87/5/39 69/4/40
f 90/4/16 89/4/16 88/4/16
f 89/4/16 90/4/16 91/4/16
f 91/4/16 90/4/16 92/4/16
f 91/4/16 92/4/16 93/4/16
f 93/4/16 92/4/16 94/4/16
f 93/4/16 94/4/16 95/4/16
f 88/4/19 96/5/18 90/4/17
f 96/5/18 92/4/20 90/4/17
f 92/4/20 96/5/18 97/5/21
f 97/5/21 94/4/22 92/4/20
f 96/5/18 88/4/19 98/5/23
f 99/1/24 97/5/21 96/5/18
f 98/5/23 99/1/24 96/5/18
f 97/5/21 99/1/24 100/1/25
f 99/1/24 98/5/23 101/1/26
f 102/1/27 97/5/21 100/1/25
f 88/4/19 103/5/28 98/5/23
f 103/5/28 101/1/26 98/5/23
f 103/5/28 88/4/19 89/4/29
f 101/1/26 103/5/28 104/1/30
f 97/5/21 102/1/27 105/5/31
f 94/4/22 97/5/21 105/5/31
f 106/1/32 105/5/31 102/1/27
f 89/4/29 107/5/33 103/5/28
f 107/5/33 104/1/30 103/5/28
f 104/1/30 107/5/33 108/1/34
f 107/5/33 89/4/29 91/4/35
f 107/5/33 109/1/36 108/1/34
f 110/5/37 94/4/22 105/5/31
f 105/5/31 106/1/32 110/5/37
f 109/1/36 110/5/37 106/1/32
f 94/4/22 110/5/37 95/4/38
f 91/4/35 111/5/39 107/5/33
f 109/1/36 107/5/33 111/5/39
f 110/5/37 109/1/36 111/5/39
f 111/5/39 95/4/38 110/5/37
f 111/5/39 91/4/35 93/4/40
f 95/4/38 111/5/39 93/4/40

