# Created by Kenney (www.kenney.nl)

mtllib bevel-hq-brick-slope-corner-inside-2x2.mtl

g bevel-hq-brick-slope-corner-inside-2x2

v 0.0795 0 0.0795 1 1 1
v -0.0795 0 0.0795 1 1 1
v 0.0795 0.091 0.0795 1 1 1
v -0.0795 0.016 0.0795 1 1 1
v -0.00496875 0.091 0.0795 1 1 1
v 0.0745 0.096 0.0745 1 1 1
v -1.082867E-15 0.096 0.0745 1 1 1
v 0.0795 0 -0.0795 1 1 1
v -0.0795 0 -0.0795 1 1 1
v -0.0795 0.091 -0.0795 1 1 1
v -0.0795 0.091 0.00496875 1 1 1
v -0.0745 0.096 -0.0745 1 1 1
v -0.0745 0.096 2.52669E-15 1 1 1
v 0.0795 0.091 -0.0795 1 1 1
v 0.0745 0.096 -0.0745 1 1 1
v 0 0.096 3.609557E-15 1 1 1
v 0.05875 0.114 0.02707107 1 1 1
v 0.05875 0.114 0.05092893 1 1 1
v 0.05167893 0.114 0.02 1 1 1
v 0.05167893 0.114 0.058 1 1 1
v 0.02782107 0.114 0.02 1 1 1
v 0.02782107 0.114 0.058 1 1 1
v 0.02075 0.114 0.02707107 1 1 1
v 0.02075 0.114 0.05092893 1 1 1
v 0.05375 0.109 0.015 1 1 1
v 0.02575 0.109 0.015 1 1 1
v 0.06375 0.109 0.025 1 1 1
v 0.05375 0.096 0.015 1 1 1
v 0.02575 0.096 0.015 1 1 1
v 0.06375 0.096 0.025 1 1 1
v 0.01575 0.096 0.025 1 1 1
v 0.06375 0.109 0.053 1 1 1
v 0.06375 0.096 0.053 1 1 1
v 0.01575 0.109 0.025 1 1 1
v 0.01575 0.096 0.053 1 1 1
v 0.05375 0.109 0.063 1 1 1
v 0.05375 0.096 0.063 1 1 1
v 0.02575 0.096 0.063 1 1 1
v 0.01575 0.109 0.053 1 1 1
v 0.02575 0.109 0.063 1 1 1
v -0.02075 0.114 -0.05192893 1 1 1
v -0.02075 0.114 -0.02807107 1 1 1
v -0.02782107 0.114 -0.059 1 1 1
v -0.02782107 0.114 -0.021 1 1 1
v -0.05167893 0.114 -0.059 1 1 1
v -0.05167893 0.114 -0.021 1 1 1
v -0.05875 0.114 -0.05192893 1 1 1
v -0.05875 0.114 -0.02807107 1 1 1
v -0.02575 0.109 -0.064 1 1 1
v -0.05375 0.109 -0.064 1 1 1
v -0.01575 0.109 -0.054 1 1 1
v -0.02575 0.096 -0.064 1 1 1
v -0.05375 0.096 -0.064 1 1 1
v -0.01575 0.096 -0.054 1 1 1
v -0.06375 0.096 -0.054 1 1 1
v -0.01575 0.109 -0.026 1 1 1
v -0.01575 0.096 -0.026 1 1 1
v -0.06375 0.109 -0.054 1 1 1
v -0.06375 0.096 -0.026 1 1 1
v -0.02575 0.109 -0.016 1 1 1
v -0.02575 0.096 -0.016 1 1 1
v -0.05375 0.096 -0.016 1 1 1
v -0.06375 0.109 -0.026 1 1 1
v -0.05375 0.109 -0.016 1 1 1
v 0.05875 0.114 -0.05192893 1 1 1
v 0.05875 0.114 -0.02807107 1 1 1
v 0.05167893 0.114 -0.059 1 1 1
v 0.05167893 0.114 -0.021 1 1 1
v 0.02782107 0.114 -0.059 1 1 1
v 0.02782107 0.114 -0.021 1 1 1
v 0.02075 0.114 -0.05192893 1 1 1
v 0.02075 0.114 -0.02807107 1 1 1
v 0.05375 0.109 -0.064 1 1 1
v 0.02575 0.109 -0.064 1 1 1
v 0.06375 0.109 -0.054 1 1 1
v 0.05375 0.096 -0.064 1 1 1
v 0.02575 0.096 -0.064 1 1 1
v 0.06375 0.096 -0.054 1 1 1
v 0.01575 0.096 -0.054 1 1 1
v 0.06375 0.109 -0.026 1 1 1
v 0.06375 0.096 -0.026 1 1 1
v 0.01575 0.109 -0.054 1 1 1
v 0.01575 0.096 -0.026 1 1 1
v 0.05375 0.109 -0.016 1 1 1
v 0.05375 0.096 -0.016 1 1 1
v 0.02575 0.096 -0.016 1 1 1
v 0.01575 0.109 -0.026 1 1 1
v 0.02575 0.109 -0.016 1 1 1

vn 0 0 1
vn 0 0.2879809 0.9576361
vn 0 0.2181942 0.9759054
vn 0 0.7071068 0.7071068
vn 0 -1 0
vn -1 0 0
vn -0.9576361 0.2879809 0
vn -0.9759054 0.2181942 0
vn -0.7071068 0.7071068 0
vn 1 0 0
vn 0.9576361 0.2879809 0
vn 0.7071068 0.7071068 0
vn -0.7093199 0.7048866 0
vn 0 1 0
vn 0 0.7048866 0.7093199
vn 0 0 -1
vn 0 0.2879809 -0.9576361
vn 0 0.7071068 -0.7071068
vn 0.2596883 0.7345095 -0.6269431
vn 0.3556998 0.3688517 -0.8587352
vn 0.6269431 0.7345095 -0.2596884
vn -0.2596883 0.7345095 -0.6269431
vn -0.3556998 0.3688517 -0.8587352
vn -0.6269431 0.7345095 -0.2596884
vn 0.8587352 0.3688517 -0.3556998
vn 0.3826834 0 -0.9238795
vn -0.3826834 0 -0.9238795
vn 0.9238795 0 -0.3826834
vn -0.9238795 0 -0.3826834
vn 0.8587352 0.3688517 0.3556998
vn 0.6269431 0.7345095 0.2596884
vn 0.9238795 0 0.3826834
vn -0.8587352 0.3688517 -0.3556998
vn -0.9238795 0 0.3826834
vn 0.3556998 0.3688517 0.8587352
vn 0.3826834 0 0.9238795
vn 0.2596883 0.7345095 0.6269431
vn -0.3826834 0 0.9238795
vn -0.8587352 0.3688517 0.3556998
vn -0.6269431 0.7345095 0.2596884
vn -0.3556998 0.3688517 0.8587352
vn -0.2596883 0.7345095 0.6269431

vt 0.59375 0.025
vt 0.59375 0.2145833
vt 0.59375 0.05833333
vt 0.59375 0.225
vt 0.59375 0.1694444

usemtl colormap

f 3/2/2 2/1/1 1/1/1
f 2/1/1 3/2/2 4/3/1
f 4/3/1 3/2/2 5/2/3
f 6/4/4 5/2/3 3/2/2
f 5/2/3 6/4/4 7/4/4
f 1/1/5 9/1/5 8/1/5
f 9/1/5 1/1/5 2/1/5
f 2/1/6 10/2/7 9/1/6
f 10/2/7 2/1/6 11/2/8
f 11/2/8 2/1/6 4/3/6
f 11/2/8 12/4/9 10/2/7
f 12/4/9 11/2/8 13/4/9
f 8/1/10 3/2/11 1/1/10
f 3/2/11 8/1/10 14/2/11
f 15/4/12 3/2/11 14/2/11
f 3/2/11 15/4/12 6/4/12
f 4/3/13 7/4/13 16/4/13
f 7/4/13 4/3/13 5/2/13
f 7/4/14 6/4/14 16/4/14
f 6/4/14 12/4/14 16/4/14
f 16/4/14 12/4/14 13/4/14
f 12/4/14 6/4/14 15/4/14
f 16/4/15 11/2/15 4/3/15
f 11/2/15 16/4/15 13/4/15
f 10/2/17 8/1/16 9/1/16
f 8/1/16 10/2/17 14/2/17
f 12/4/18 14/2/17 10/2/17
f 14/2/17 12/4/18 15/4/18
f 19/4/14 18/4/14 17/4/14
f 18/4/14 19/4/14 20/4/14
f 20/4/14 19/4/14 21/4/14
f 20/4/14 21/4/14 22/4/14
f 22/4/14 21/4/14 23/4/14
f 22/4/14 23/4/14 24/4/14
f 17/4/21 25/5/20 19/4/19
f 25/5/20 21/4/22 19/4/19
f 21/4/22 25/5/20 26/5/23
f 26/5/23 23/4/24 21/4/22
f 25/5/20 17/4/21 27/5/25
f 28/1/26 26/5/23 25/5/20
f 27/5/25 28/1/26 25/5/20
f 26/5/23 28/1/26 29/1/27
f 28/1/26 27/5/25 30/1/28
f 31/1/29 26/5/23 29/1/27
f 17/4/21 32/5/30 27/5/25
f 32/5/30 30/1/28 27/5/25
f 32/5/30 17/4/21 18/4/31
f 30/1/28 32/5/30 33/1/32
f 26/5/23 31/1/29 34/5/33
f 23/4/24 26/5/23 34/5/33
f 35/1/34 34/5/33 31/1/29
f 18/4/31 36/5/35 32/5/30
f 36/5/35 33/1/32 32/5/30
f 33/1/32 36/5/35 37/1/36
f 36/5/35 18/4/31 20/4/37
f 36/5/35 38/1/38 37/1/36
f 39/5/39 23/4/24 34/5/33
f 34/5/33 35/1/34 39/5/39
f 38/1/38 39/5/39 35/1/34
f 23/4/24 39/5/39 24/4/40
f 20/4/37 40/5/41 36/5/35
f 38/1/38 36/5/35 40/5/41
f 39/5/39 38/1/38 40/5/41
f 40/5/41 24/4/40 39/5/39
f 40/5/41 20/4/37 22/4/42
f 24/4/40 40/5/41 22/4/42
f 43/4/14 42/4/14 41/4/14
f 42/4/14 43/4/14 44/4/14
f 44/4/14 43/4/14 45/4/14
f 44/4/14 45/4/14 46/4/14
f 46/4/14 45/4/14 47/4/14
f 46/4/14 47/4/14 48/4/14
f 41/4/21 49/5/20 43/4/19
f 49/5/20 45/4/22 43/4/19
f 45/4/22 49/5/20 50/5/23
f 50/5/23 47/4/24 45/4/22
f 49/5/20 41/4/21 51/5/25
f 52/1/26 50/5/23 49/5/20
f 51/5/25 52/1/26 49/5/20
f 50/5/23 52/1/26 53/1/27
f 52/1/26 51/5/25 54/1/28
f 55/1/29 50/5/23 53/1/27
f 41/4/21 56/5/30 51/5/25
f 56/5/30 54/1/28 51/5/25
f 56/5/30 41/4/21 42/4/31
f 54/1/28 56/5/30 57/1/32
f 50/5/23 55/1/29 58/5/33
f 47/4/24 50/5/23 58/5/33
f 59/1/34 58/5/33 55/1/29
f 42/4/31 60/5/35 56/5/30
f 60/5/35 57/1/32 56/5/30
f 57/1/32 60/5/35 61/1/36
f 60/5/35 42/4/31 44/4/37
f 60/5/35 62/1/38 61/1/36
f 63/5/39 47/4/24 58/5/33
f 58/5/33 59/1/34 63/5/39
f 62/1/38 63/5/39 59/1/34
f 47/4/24 63/5/39 48/4/40
f 44/4/37 64/5/41 60/5/35
f 62/1/38 60/5/35 64/5/41
f 63/5/39 62/1/38 64/5/41
f 64/5/41 48/4/40 63/5/39
f 64/5/41 44/4/37 46/4/42
f 48/4/40 64/5/41 46/4/42
f 67/4/14 66/4/14 65/4/14
f 66/4/14 67/4/14 68/4/14
f 68/4/14 67/4/14 69/4/14
f 68/4/14 69/4/14 70/4/14
f 70/4/14 69/4/14 71/4/14
f 70/4/14 71/4/14 72/4/14
f 65/4/21 73/5/20 67/4/19
f 73/5/20 69/4/22 67/4/19
f 69/4/22 73/5/20 74/5/23
f 74/5/23 71/4/24 69/4/22
f 73/5/20 65/4/21 75/5/25
f 76/1/26 74/5/23 73/5/20
f 75/5/25 76/1/26 73/5/20
f 74/5/23 76/1/26 77/1/27
f 76/1/26 75/5/25 78/1/28
f 79/1/29 74/5/23 77/1/27
f 65/4/21 80/5/30 75/5/25
f 80/5/30 78/1/28 75/5/25
f 80/5/30 65/4/21 66/4/31
f 78/1/28 80/5/30 81/1/32
f 74/5/23 79/1/29 82/5/33
f 71/4/24 74/5/23 82/5/33
f 83/1/34 82/5/33 79/1/29
f 66/4/31 84/5/35 80/5/30
f 84/5/35 81/1/32 80/5/30
f 81/1/32 84/5/35 85/1/36
f 84/5/35 66/4/31 68/4/37
f 84/5/35 86/1/38 85/1/36
f 87/5/39 71/4/24 82/5/33
f 82/5/33 83/1/34 87/5/39
f 86/1/38 87/5/39 83/1/34
f 71/4/24 87/5/39 72/4/40
f 68/4/37 88/5/41 84/5/35
f 86/1/38 84/5/35 88/5/41
f 87/5/39 86/1/38 88/5/41
f 88/5/41 72/4/40 87/5/39
f 88/5/41 68/4/37 70/4/42
f 72/4/40 88/5/41 70/4/42

g bevel-hq-brick-slope-corner-inside-2x2




usemtl colormap

f 3/2/2 2/1/1 1/1/1
f 2/1/1 3/2/2 4/3/1
f 4/3/1 3/2/2 5/2/3
f 6/4/4 5/2/3 3/2/2
f 5/2/3 6/4/4 7/4/4
f 1/1/5 9/1/5 8/1/5
f 9/1/5 1/1/5 2/1/5
f 2/1/6 10/2/7 9/1/6
f 10/2/7 2/1/6 11/2/8
f 11/2/8 2/1/6 4/3/6
f 11/2/8 12/4/9 10/2/7
f 12/4/9 11/2/8 13/4/9
f 8/1/10 3/2/11 1/1/10
f 3/2/11 8/1/10 14/2/11
f 15/4/12 3/2/11 14/2/11
f 3/2/11 15/4/12 6/4/12
f 4/3/13 7/4/13 16/4/13
f 7/4/13 4/3/13 5/2/13
f 7/4/14 6/4/14 16/4/14
f 6/4/14 12/4/14 16/4/14
f 16/4/14 12/4/14 13/4/14
f 12/4/14 6/4/14 15/4/14
f 16/4/15 11/2/15 4/3/15
f 11/2/15 16/4/15 13/4/15
f 10/2/17 8/1/16 9/1/16
f 8/1/16 10/2/17 14/2/17
f 12/4/18 14/2/17 10/2/17
f 14/2/17 12/4/18 15/4/18
f 19/4/14 18/4/14 17/4/14
f 18/4/14 19/4/14 20/4/14
f 20/4/14 19/4/14 21/4/14
f 20/4/14 21/4/14 22/4/14
f 22/4/14 21/4/14 23/4/14
f 22/4/14 23/4/14 24/4/14
f 17/4/21 25/5/20 19/4/19
f 25/5/20 21/4/22 19/4/19
f 21/4/22 25/5/20 26/5/23
f 26/5/23 23/4/24 21/4/22
f 25/5/20 17/4/21 27/5/25
f 28/1/26 26/5/23 25/5/20
f 27/5/25 28/1/26 25/5/20
f 26/5/23 28/1/26 29/1/27
f 28/1/26 27/5/25 30/1/28
f 31/1/29 26/5/23 29/1/27
f 17/4/21 32/5/30 27/5/25
f 32/5/30 30/1/28 27/5/25
f 32/5/30 17/4/21 18/4/31
f 30/1/28 32/5/30 33/1/32
f 26/5/23 31/1/29 34/5/33
f 23/4/24 26/5/23 34/5/33
f 35/1/34 34/5/33 31/1/29
f 18/4/31 36/5/35 32/5/30
f 36/5/35 33/1/32 32/5/30
f 33/1/32 36/5/35 37/1/36
f 36/5/35 18/4/31 20/4/37
f 36/5/35 38/1/38 37/1/36
f 39/5/39 23/4/24 34/5/33
f 34/5/33 35/1/34 39/5/39
f 38/1/38 39/5/39 35/1/34
f 23/4/24 39/5/39 24/4/40
f 20/4/37 40/5/41 36/5/35
f 38/1/38 36/5/35 40/5/41
f 39/5/39 38/1/38 40/5/41
f 40/5/41 24/4/40 39/5/39
f 40/5/41 20/4/37 22/4/42
f 24/4/40 40/5/41 22/4/42
f 43/4/14 42/4/14 41/4/14
f 42/4/14 43/4/14 44/4/14
f 44/4/14 43/4/14 45/4/14
f 44/4/14 45/4/14 46/4/14
f 46/4/14 45/4/14 47/4/14
f 46/4/14 47/4/14 48/4/14
f 41/4/21 49/5/20 43/4/19
f 49/5/20 45/4/22 43/4/19
f 45/4/22 49/5/20 50/5/23
f 50/5/23 47/4/24 45/4/22
f 49/5/20 41/4/21 51/5/25
f 52/1/26 50/5/23 49/5/20
f 51/5/25 52/1/26 49/5/20
f 50/5/23 52/1/26 53/1/27
f 52/1/26 51/5/25 54/1/28
f 55/1/29 50/5/23 53/1/27
f 41/4/21 56/5/30 51/5/25
f 56/5/30 54/1/28 51/5/25
f 56/5/30 41/4/21 42/4/31
f 54/1/28 56/5/30 57/1/32
f 50/5/23 55/1/29 58/5/33
f 47/4/24 50/5/23 58/5/33
f 59/1/34 58/5/33 55/1/29
f 42/4/31 60/5/35 56/5/30
f 60/5/35 57/1/32 56/5/30
f 57/1/32 60/5/35 61/1/36
f 60/5/35 42/4/31 44/4/37
f 60/5/35 62/1/38 61/1/36
f 63/5/39 47/4/24 58/5/33
f 58/5/33 59/1/34 63/5/39
f 62/1/38 63/5/39 59/1/34
f 47/4/24 63/5/39 48/4/40
f 44/4/37 64/5/41 60/5/35
f 62/1/38 60/5/35 64/5/41
f 63/5/39 62/1/38 64/5/41
f 64/5/41 48/4/40 63/5/39
f 64/5/41 44/4/37 46/4/42
f 48/4/40 64/5/41 46/4/42
f 67/4/14 66/4/14 65/4/14
f 66/4/14 67/4/14 68/4/14
f 68/4/14 67/4/14 69/4/14
f 68/4/14 69/4/14 70/4/14
f 70/4/14 69/4/14 71/4/14
f 70/4/14 71/4/14 72/4/14
f 65/4/21 73/5/20 67/4/19
f 73/5/20 69/4/22 67/4/19
f 69/4/22 73/5/20 74/5/23
f 74/5/23 71/4/24 69/4/22
f 73/5/20 65/4/21 75/5/25
f 76/1/26 74/5/23 73/5/20
f 75/5/25 76/1/26 73/5/20
f 74/5/23 76/1/26 77/1/27
f 76/1/26 75/5/25 78/1/28
f 79/1/29 74/5/23 77/1/27
f 65/4/21 80/5/30 75/5/25
f 80/5/30 78/1/28 75/5/25
f 80/5/30 65/4/21 66/4/31
f 78/1/28 80/5/30 81/1/32
f 74/5/23 79/1/29 82/5/33
f 71/4/24 74/5/23 82/5/33
f 83/1/34 82/5/33 79/1/29
f 66/4/31 84/5/35 80/5/30
f 84/5/35 81/1/32 80/5/30
f 81/1/32 84/5/35 85/1/36
f 84/5/35 66/4/31 68/4/37
f 84/5/35 86/1/38 85/1/36
f 87/5/39 71/4/24 82/5/33
f 82/5/33 83/1/34 87/5/39
f 86/1/38 87/5/39 83/1/34
f 71/4/24 87/5/39 72/4/40
f 68/4/37 88/5/41 84/5/35
f 86/1/38 84/5/35 88/5/41
f 87/5/39 86/1/38 88/5/41
f 88/5/41 72/4/40 87/5/39
f 88/5/41 68/4/37 70/4/42
f 72/4/40 88/5/41 70/4/42

