# Created by Kenney (www.kenney.nl)

mtllib none-lq-brick-2x2.mtl

g none-lq-brick-2x2

v 0.0795 0.096 -0.079 1 1 1
v 0.0795 0.096 0.079 1 1 1
v -0.0795 0.096 -0.079 1 1 1
v -0.0795 0.096 0.079 1 1 1
v -0.0795 0 -0.079 1 1 1
v 0.0795 0 -0.079 1 1 1
v -0.0795 0 0.079 1 1 1
v 0.0795 0 0.079 1 1 1

vn 0 1 0
vn 0 0 -1
vn -1 0 0
vn 0 -1 0
vn 1 0 0
vn 0 0 1

vt 0.59375 0.225
vt 0.59375 0.025

usemtl colormap

f 3/1/1 2/1/1 1/1/1
f 2/1/1 3/1/1 4/1/1
f 3/1/2 6/2/2 5/2/2
f 6/2/2 3/1/2 1/1/2
f 7/2/3 3/1/3 5/2/3
f 3/1/3 7/2/3 4/1/3
f 7/2/4 6/2/4 8/2/4
f 6/2/4 7/2/4 5/2/4
f 2/1/5 6/2/5 1/1/5
f 6/2/5 2/1/5 8/2/5
f 2/1/6 7/2/6 8/2/6
f 7/2/6 2/1/6 4/1/6

g none-lq-brick-2x2




usemtl colormap

f 3/1/1 2/1/1 1/1/1
f 2/1/1 3/1/1 4/1/1
f 3/1/2 6/2/2 5/2/2
f 6/2/2 3/1/2 1/1/2
f 7/2/3 3/1/3 5/2/3
f 3/1/3 7/2/3 4/1/3
f 7/2/4 6/2/4 8/2/4
f 6/2/4 7/2/4 5/2/4
f 2/1/5 6/2/5 1/1/5
f 6/2/5 2/1/5 8/2/5
f 2/1/6 7/2/6 8/2/6
f 7/2/6 2/1/6 4/1/6

