# Created by Kenney (www.kenney.nl)

mtllib none-lq-brick-corner.mtl

g none-lq-brick-corner

v 0.0795 0.096 -0.079 1 1 1
v 0.0795 0.096 0.079 1 1 1
v -0.0795 0.096 -0.079 1 1 1
v 0 0.096 0 1 1 1
v -0.0795 0.096 0 1 1 1
v 0 0.096 0.079 1 1 1
v -0.0795 0 -0.079 1 1 1
v 0.0795 0 -0.079 1 1 1
v -0.0795 0 0 1 1 1
v 0.0795 0 0.079 1 1 1
v 0 0 0.079 1 1 1
v 0 0 0 1 1 1

vn 0 1 0
vn 0 0 -1
vn -1 0 0
vn 0 -1 0
vn 1 0 0
vn 0 0 1

vt 0.59375 0.225
vt 0.59375 0.025

usemtl colormap

f 3/1/1 2/1/1 1/1/1
f 2/1/1 3/1/1 4/1/1
f 4/1/1 3/1/1 5/1/1
f 6/1/1 2/1/1 4/1/1
f 3/1/2 8/2/2 7/2/2
f 8/2/2 3/1/2 1/1/2
f 9/2/3 3/1/3 7/2/3
f 3/1/3 9/2/3 5/1/3
f 11/2/4 8/2/4 10/2/4
f 8/2/4 11/2/4 12/2/4
f 8/2/4 12/2/4 7/2/4
f 7/2/4 12/2/4 9/2/4
f 2/1/5 8/2/5 1/1/5
f 8/2/5 2/1/5 10/2/5
f 2/1/6 11/2/6 10/2/6
f 11/2/6 2/1/6 6/1/6
f 11/2/3 4/1/3 12/2/3
f 4/1/3 11/2/3 6/1/3
f 4/1/6 9/2/6 12/2/6
f 9/2/6 4/1/6 5/1/6

g none-lq-brick-corner




usemtl colormap

f 3/1/1 2/1/1 1/1/1
f 2/1/1 3/1/1 4/1/1
f 4/1/1 3/1/1 5/1/1
f 6/1/1 2/1/1 4/1/1
f 3/1/2 8/2/2 7/2/2
f 8/2/2 3/1/2 1/1/2
f 9/2/3 3/1/3 7/2/3
f 3/1/3 9/2/3 5/1/3
f 11/2/4 8/2/4 10/2/4
f 8/2/4 11/2/4 12/2/4
f 8/2/4 12/2/4 7/2/4
f 7/2/4 12/2/4 9/2/4
f 2/1/5 8/2/5 1/1/5
f 8/2/5 2/1/5 10/2/5
f 2/1/6 11/2/6 10/2/6
f 11/2/6 2/1/6 6/1/6
f 11/2/3 4/1/3 12/2/3
f 4/1/3 11/2/3 6/1/3
f 4/1/6 9/2/6 12/2/6
f 9/2/6 4/1/6 5/1/6

