# Created by Kenney (www.kenney.nl)

mtllib none-hq-brick-slope-2x3.mtl

g none-hq-brick-slope-2x3

v -0.0795 0.016 -0.1185 1 1 1
v -0.00496875 0.091 -0.1185 1 1 1
v -0.0795 0.016 0.1185 1 1 1
v 0 0.096 -0.1135 1 1 1
v 0 0.096 0.1135 1 1 1
v -0.00496875 0.091 0.1185 1 1 1
v -0.0795 0 -0.1185 1 1 1
v -0.0795 0 0.1185 1 1 1
v 0.0745 0.096 -0.1135 1 1 1
v 0.0745 0.096 0.1135 1 1 1
v 0.0795 0 0.1185 1 1 1
v 0.0795 0 -0.1185 1 1 1
v 0.0795 0.091 0.1185 1 1 1
v 0.0795 0.091 -0.1185 1 1 1

vn -0.7093199 0.7048866 0
vn -1 0 0
vn 0 1 0
vn 0 -1 0
vn 0 0 1
vn 0 0.2879809 0.9576361
vn 0 0.2181942 0.9759054
vn 0 0.7071068 0.7071068
vn 1 0 0
vn 0.9576361 0.2879809 0
vn 0.7071068 0.7071068 0
vn 0 0 -1
vn 0 0.2879809 -0.9576361
vn 0 0.2181942 -0.9759054
vn 0 0.7071068 -0.7071068

vt 0.59375 0.05833333
vt 0.59375 0.2145833
vt 0.59375 0.225
vt 0.59375 0.025

usemtl colormap

f 3/1/1 2/2/1 1/1/1
f 2/2/1 3/1/1 4/3/1
f 4/3/1 3/1/1 5/3/1
f 5/3/1 3/1/1 6/2/1
f 8/4/2 1/1/2 7/4/2
f 1/1/2 8/4/2 3/1/2
f 4/3/3 10/3/3 9/3/3
f 10/3/3 4/3/3 5/3/3
f 8/4/4 12/4/4 11/4/4
f 12/4/4 8/4/4 7/4/4
f 13/2/6 8/4/5 11/4/5
f 8/4/5 13/2/6 3/1/5
f 3/1/5 13/2/6 6/2/7
f 10/3/8 6/2/7 13/2/6
f 6/2/7 10/3/8 5/3/8
f 12/4/9 13/2/10 11/4/9
f 13/2/10 12/4/9 14/2/10
f 9/3/11 13/2/10 14/2/10
f 13/2/10 9/3/11 10/3/11
f 1/1/12 12/4/12 7/4/12
f 12/4/12 1/1/12 14/2/13
f 14/2/13 1/1/12 2/2/14
f 4/3/15 14/2/13 2/2/14
f 14/2/13 4/3/15 9/3/15

g none-hq-brick-slope-2x3




usemtl colormap

f 3/1/1 2/2/1 1/1/1
f 2/2/1 3/1/1 4/3/1
f 4/3/1 3/1/1 5/3/1
f 5/3/1 3/1/1 6/2/1
f 8/4/2 1/1/2 7/4/2
f 1/1/2 8/4/2 3/1/2
f 4/3/3 10/3/3 9/3/3
f 10/3/3 4/3/3 5/3/3
f 8/4/4 12/4/4 11/4/4
f 12/4/4 8/4/4 7/4/4
f 13/2/6 8/4/5 11/4/5
f 8/4/5 13/2/6 3/1/5
f 3/1/5 13/2/6 6/2/7
f 10/3/8 6/2/7 13/2/6
f 6/2/7 10/3/8 5/3/8
f 12/4/9 13/2/10 11/4/9
f 13/2/10 12/4/9 14/2/10
f 9/3/11 13/2/10 14/2/10
f 13/2/10 9/3/11 10/3/11
f 1/1/12 12/4/12 7/4/12
f 12/4/12 1/1/12 14/2/13
f 14/2/13 1/1/12 2/2/14
f 4/3/15 14/2/13 2/2/14
f 14/2/13 4/3/15 9/3/15

