# Created by Kenney (www.kenney.nl)

mtllib none-lq-brick-slope-corner-inside-inverted-2x2.mtl

g none-lq-brick-slope-corner-inside-inverted-2x2

v 2.255973E-17 0 3.609557E-15 1 1 1
v -0.0795 0.08 0.0795 1 1 1
v -9.24949E-16 0 0.0795 1 1 1
v -0.0795 0 2.52669E-15 1 1 1
v 0.0795 0.096 -0.0795 1 1 1
v 0.0795 0.096 0.0795 1 1 1
v -0.0795 0.096 -0.0795 1 1 1
v -0.0795 0.096 0.0795 1 1 1
v -0.0795 0 -0.0795 1 1 1
v 0.0795 0 -0.0795 1 1 1
v 0.0795 0 0.0795 1 1 1

vn -0.7093199 -0.7048866 0
vn 0 -0.7048866 0.7093199
vn 0 1 0
vn -1 0 0
vn 1 0 0
vn 0 0 1
vn 0 0 -1
vn 0 -1 0

vt 0.59375 0.025
vt 0.59375 0.1916666
vt 0.59375 0.225

usemtl colormap

f 3/1/1 2/2/1 1/1/1
f 2/2/2 4/1/2 1/1/2
f 7/3/3 6/3/3 5/3/3
f 6/3/3 7/3/3 8/3/3
f 4/1/4 7/3/4 9/1/4
f 7/3/4 4/1/4 8/3/4
f 8/3/4 4/1/4 2/2/4
f 6/3/5 10/1/5 5/3/5
f 10/1/5 6/3/5 11/1/5
f 6/3/6 3/1/6 11/1/6
f 3/1/6 6/3/6 2/2/6
f 2/2/6 6/3/6 8/3/6
f 7/3/7 10/1/7 9/1/7
f 10/1/7 7/3/7 5/3/7
f 3/1/8 1/1/8 11/1/8
f 9/1/8 11/1/8 1/1/8
f 9/1/8 1/1/8 4/1/8
f 11/1/8 9/1/8 10/1/8

g none-lq-brick-slope-corner-inside-inverted-2x2




usemtl colormap

f 3/1/1 2/2/1 1/1/1
f 2/2/2 4/1/2 1/1/2
f 7/3/3 6/3/3 5/3/3
f 6/3/3 7/3/3 8/3/3
f 4/1/4 7/3/4 9/1/4
f 7/3/4 4/1/4 8/3/4
f 8/3/4 4/1/4 2/2/4
f 6/3/5 10/1/5 5/3/5
f 10/1/5 6/3/5 11/1/5
f 6/3/6 3/1/6 11/1/6
f 3/1/6 6/3/6 2/2/6
f 2/2/6 6/3/6 8/3/6
f 7/3/7 10/1/7 9/1/7
f 10/1/7 7/3/7 5/3/7
f 3/1/8 1/1/8 11/1/8
f 9/1/8 11/1/8 1/1/8
f 9/1/8 1/1/8 4/1/8
f 11/1/8 9/1/8 10/1/8

