# Created by Kenney (www.kenney.nl)

mtllib none-hq-plate-corner.mtl

g none-hq-plate-corner

v 0.0795 0 0.079 1 1 1
v 0.0795 0 -0.079 1 1 1
v 0 0 0.079 1 1 1
v 0 0 0 1 1 1
v -0.0795 0 -0.079 1 1 1
v -0.0795 0 0 1 1 1
v 0 0.027 0 1 1 1
v 0 0.027 0.079 1 1 1
v 0.005 0.032 0.074 1 1 1
v 0.005 0.032 -0.005 1 1 1
v -0.0795 0.027 -0.079 1 1 1
v -0.0795 0.027 0 1 1 1
v -0.0745 0.032 -0.074 1 1 1
v -0.0745 0.032 -0.005 1 1 1
v 0.0795 0.027 0.079 1 1 1
v 0.0745 0.032 0.074 1 1 1
v 0.0795 0.027 -0.079 1 1 1
v 0.0745 0.032 -0.074 1 1 1

vn 0 -1 0
vn -1 0 0
vn -0.895852 0.4443524 0
vn -0.9576361 0.2879809 0
vn -0.7071068 0.7071068 0
vn 0 0 1
vn 0 0.2879809 0.9576361
vn 0 0.7071068 0.7071068
vn 0 0.4443524 0.895852
vn 1 0 0
vn 0.9576361 0.2879809 0
vn 0.7071068 0.7071068 0
vn 0 1 0
vn 0 0 -1
vn 0 0.2879809 -0.9576361
vn 0 0.7071068 -0.7071068

vt 0.59375 0.025
vt 0.59375 0.19375
vt 0.59375 0.225

usemtl colormap

f 3/1/1 2/1/1 1/1/1
f 2/1/1 3/1/1 4/1/1
f 2/1/1 4/1/1 5/1/1
f 5/1/1 4/1/1 6/1/1
f 3/1/2 7/2/3 4/1/2
f 7/2/3 3/1/2 8/2/4
f 9/3/5 7/2/3 8/2/4
f 7/2/3 9/3/5 10/3/5
f 6/1/2 11/2/4 5/1/2
f 11/2/4 6/1/2 12/2/4
f 12/2/4 13/3/5 11/2/4
f 13/3/5 12/2/4 14/3/5
f 15/2/7 3/1/6 1/1/6
f 3/1/6 15/2/7 8/2/7
f 16/3/8 8/2/7 15/2/7
f 8/2/7 16/3/8 9/3/8
f 7/2/9 6/1/6 4/1/6
f 6/1/6 7/2/9 12/2/7
f 10/3/8 12/2/7 7/2/9
f 12/2/7 10/3/8 14/3/8
f 2/1/10 15/2/11 1/1/10
f 15/2/11 2/1/10 17/2/11
f 18/3/12 15/2/11 17/2/11
f 15/2/11 18/3/12 16/3/12
f 10/3/13 13/3/13 14/3/13
f 10/3/13 18/3/13 13/3/13
f 18/3/13 10/3/13 16/3/13
f 9/3/13 16/3/13 10/3/13
f 11/2/15 2/1/14 5/1/14
f 2/1/14 11/2/15 17/2/15
f 13/3/16 17/2/15 11/2/15
f 17/2/15 13/3/16 18/3/16

g none-hq-plate-corner




usemtl colormap

f 3/1/1 2/1/1 1/1/1
f 2/1/1 3/1/1 4/1/1
f 2/1/1 4/1/1 5/1/1
f 5/1/1 4/1/1 6/1/1
f 3/1/2 7/2/3 4/1/2
f 7/2/3 3/1/2 8/2/4
f 9/3/5 7/2/3 8/2/4
f 7/2/3 9/3/5 10/3/5
f 6/1/2 11/2/4 5/1/2
f 11/2/4 6/1/2 12/2/4
f 12/2/4 13/3/5 11/2/4
f 13/3/5 12/2/4 14/3/5
f 15/2/7 3/1/6 1/1/6
f 3/1/6 15/2/7 8/2/7
f 16/3/8 8/2/7 15/2/7
f 8/2/7 16/3/8 9/3/8
f 7/2/9 6/1/6 4/1/6
f 6/1/6 7/2/9 12/2/7
f 10/3/8 12/2/7 7/2/9
f 12/2/7 10/3/8 14/3/8
f 2/1/10 15/2/11 1/1/10
f 15/2/11 2/1/10 17/2/11
f 18/3/12 15/2/11 17/2/11
f 15/2/11 18/3/12 16/3/12
f 10/3/13 13/3/13 14/3/13
f 10/3/13 18/3/13 13/3/13
f 18/3/13 10/3/13 16/3/13
f 9/3/13 16/3/13 10/3/13
f 11/2/15 2/1/14 5/1/14
f 2/1/14 11/2/15 17/2/15
f 13/3/16 17/2/15 11/2/15
f 17/2/15 13/3/16 18/3/16

