# Created by Kenney (www.kenney.nl)

mtllib none-lq-plate-1x1.mtl

g none-lq-plate-1x1

v 0.03975 0.032 -0.0395 1 1 1
v 0.03975 0 -0.0395 1 1 1
v 0.03975 0.032 0.0395 1 1 1
v 0.03975 0 0.0395 1 1 1
v -0.03975 0 0.0395 1 1 1
v -0.03975 0 -0.0395 1 1 1
v -0.03975 0.032 0.0395 1 1 1
v -0.03975 0.032 -0.0395 1 1 1

vn 1 0 0
vn 0 -1 0
vn 0 0 1
vn -1 0 0
vn 0 1 0
vn 0 0 -1

vt 0.59375 0.225
vt 0.59375 0.025

usemtl colormap

f 3/1/1 2/2/1 1/1/1
f 2/2/1 3/1/1 4/2/1
f 5/2/2 2/2/2 4/2/2
f 2/2/2 5/2/2 6/2/2
f 3/1/3 5/2/3 4/2/3
f 5/2/3 3/1/3 7/1/3
f 5/2/4 8/1/4 6/2/4
f 8/1/4 5/2/4 7/1/4
f 8/1/5 3/1/5 1/1/5
f 3/1/5 8/1/5 7/1/5
f 8/1/6 2/2/6 6/2/6
f 2/2/6 8/1/6 1/1/6

g none-lq-plate-1x1




usemtl colormap

f 3/1/1 2/2/1 1/1/1
f 2/2/1 3/1/1 4/2/1
f 5/2/2 2/2/2 4/2/2
f 2/2/2 5/2/2 6/2/2
f 3/1/3 5/2/3 4/2/3
f 5/2/3 3/1/3 7/1/3
f 5/2/4 8/1/4 6/2/4
f 8/1/4 5/2/4 7/1/4
f 8/1/5 3/1/5 1/1/5
f 3/1/5 8/1/5 7/1/5
f 8/1/6 2/2/6 6/2/6
f 2/2/6 8/1/6 1/1/6

