# Created by Kenney (www.kenney.nl)

mtllib none-hq-brick-slope-corner-inside-2x2.mtl

g none-hq-brick-slope-corner-inside-2x2

v 0.0795 0 0.0795 1 1 1
v -0.0795 0 0.0795 1 1 1
v 0.0795 0.091 0.0795 1 1 1
v -0.0795 0.016 0.0795 1 1 1
v -0.00496875 0.091 0.0795 1 1 1
v 0.0745 0.096 0.0745 1 1 1
v -1.082867E-15 0.096 0.0745 1 1 1
v 0.0795 0 -0.0795 1 1 1
v -0.0795 0 -0.0795 1 1 1
v -0.0795 0.091 -0.0795 1 1 1
v -0.0795 0.091 0.00496875 1 1 1
v -0.0745 0.096 -0.0745 1 1 1
v -0.0745 0.096 2.52669E-15 1 1 1
v 0.0795 0.091 -0.0795 1 1 1
v 0.0745 0.096 -0.0745 1 1 1
v 0 0.096 3.609557E-15 1 1 1

vn 0 0 1
vn 0 0.2879809 0.9576361
vn 0 0.2181942 0.9759054
vn 0 0.7071068 0.7071068
vn 0 -1 0
vn -1 0 0
vn -0.9576361 0.2879809 0
vn -0.9759054 0.2181942 0
vn -0.7071068 0.7071068 0
vn 1 0 0
vn 0.9576361 0.2879809 0
vn 0.7071068 0.7071068 0
vn -0.7093199 0.7048866 0
vn 0 1 0
vn 0 0.7048866 0.7093199
vn 0 0 -1
vn 0 0.2879809 -0.9576361
vn 0 0.7071068 -0.7071068

vt 0.59375 0.025
vt 0.59375 0.2145833
vt 0.59375 0.05833333
vt 0.59375 0.225

usemtl colormap

f 3/2/2 2/1/1 1/1/1
f 2/1/1 3/2/2 4/3/1
f 4/3/1 3/2/2 5/2/3
f 6/4/4 5/2/3 3/2/2
f 5/2/3 6/4/4 7/4/4
f 1/1/5 9/1/5 8/1/5
f 9/1/5 1/1/5 2/1/5
f 2/1/6 10/2/7 9/1/6
f 10/2/7 2/1/6 11/2/8
f 11/2/8 2/1/6 4/3/6
f 11/2/8 12/4/9 10/2/7
f 12/4/9 11/2/8 13/4/9
f 8/1/10 3/2/11 1/1/10
f 3/2/11 8/1/10 14/2/11
f 15/4/12 3/2/11 14/2/11
f 3/2/11 15/4/12 6/4/12
f 4/3/13 7/4/13 16/4/13
f 7/4/13 4/3/13 5/2/13
f 7/4/14 6/4/14 16/4/14
f 6/4/14 12/4/14 16/4/14
f 16/4/14 12/4/14 13/4/14
f 12/4/14 6/4/14 15/4/14
f 16/4/15 11/2/15 4/3/15
f 11/2/15 16/4/15 13/4/15
f 10/2/17 8/1/16 9/1/16
f 8/1/16 10/2/17 14/2/17
f 12/4/18 14/2/17 10/2/17
f 14/2/17 12/4/18 15/4/18

g none-hq-brick-slope-corner-inside-2x2




usemtl colormap

f 3/2/2 2/1/1 1/1/1
f 2/1/1 3/2/2 4/3/1
f 4/3/1 3/2/2 5/2/3
f 6/4/4 5/2/3 3/2/2
f 5/2/3 6/4/4 7/4/4
f 1/1/5 9/1/5 8/1/5
f 9/1/5 1/1/5 2/1/5
f 2/1/6 10/2/7 9/1/6
f 10/2/7 2/1/6 11/2/8
f 11/2/8 2/1/6 4/3/6
f 11/2/8 12/4/9 10/2/7
f 12/4/9 11/2/8 13/4/9
f 8/1/10 3/2/11 1/1/10
f 3/2/11 8/1/10 14/2/11
f 15/4/12 3/2/11 14/2/11
f 3/2/11 15/4/12 6/4/12
f 4/3/13 7/4/13 16/4/13
f 7/4/13 4/3/13 5/2/13
f 7/4/14 6/4/14 16/4/14
f 6/4/14 12/4/14 16/4/14
f 16/4/14 12/4/14 13/4/14
f 12/4/14 6/4/14 15/4/14
f 16/4/15 11/2/15 4/3/15
f 11/2/15 16/4/15 13/4/15
f 10/2/17 8/1/16 9/1/16
f 8/1/16 10/2/17 14/2/17
f 12/4/18 14/2/17 10/2/17
f 14/2/17 12/4/18 15/4/18

