# Created by Kenney (www.kenney.nl)

mtllib none-lq-brick-slope-corner-outside-inverted-2x2.mtl

g none-lq-brick-slope-corner-outside-inverted-2x2

v 0.0795 0 0.00025 1 1 1
v 0.0795 0 -0.07925 1 1 1
v 2.030376E-15 0 0.00025 1 1 1
v 2.030376E-15 0 -0.07925 1 1 1
v 0.0795 0.096 -0.07925 1 1 1
v 0.0795 0.096 0.07925 1 1 1
v 0.0795 0.08 0.07925 1 1 1
v -0.0795 0.08 -0.07925 1 1 1
v -0.0795 0.096 -0.07925 1 1 1
v -0.0795 0.08 0.07925 1 1 1
v -0.0795 0.096 0.07925 1 1 1

vn 0 -1 0
vn 1 0 0
vn -1 0 0
vn -0.7093199 -0.7048866 0
vn 0 0 -1
vn 0 1 0
vn 0 0 1
vn 0 -0.7026457 0.71154

vt 0.59375 0.025
vt 0.59375 0.225
vt 0.59375 0.1916666

usemtl colormap

f 3/1/1 2/1/1 1/1/1
f 2/1/1 3/1/1 4/1/1
f 6/2/2 2/1/2 5/2/2
f 2/1/2 6/2/2 1/1/2
f 1/1/2 6/2/2 7/3/2
f 10/3/3 9/2/3 8/3/3
f 9/2/3 10/3/3 11/2/3
f 3/1/4 8/3/4 4/1/4
f 8/3/4 3/1/4 10/3/4
f 8/3/5 2/1/5 4/1/5
f 2/1/5 8/3/5 5/2/5
f 5/2/5 8/3/5 9/2/5
f 9/2/6 6/2/6 5/2/6
f 6/2/6 9/2/6 11/2/6
f 6/2/7 10/3/7 7/3/7
f 10/3/7 6/2/7 11/2/7
f 7/3/8 3/1/8 1/1/8
f 3/1/8 7/3/8 10/3/8

g none-lq-brick-slope-corner-outside-inverted-2x2




usemtl colormap

f 3/1/1 2/1/1 1/1/1
f 2/1/1 3/1/1 4/1/1
f 6/2/2 2/1/2 5/2/2
f 2/1/2 6/2/2 1/1/2
f 1/1/2 6/2/2 7/3/2
f 10/3/3 9/2/3 8/3/3
f 9/2/3 10/3/3 11/2/3
f 3/1/4 8/3/4 4/1/4
f 8/3/4 3/1/4 10/3/4
f 8/3/5 2/1/5 4/1/5
f 2/1/5 8/3/5 5/2/5
f 5/2/5 8/3/5 9/2/5
f 9/2/6 6/2/6 5/2/6
f 6/2/6 9/2/6 11/2/6
f 6/2/7 10/3/7 7/3/7
f 10/3/7 6/2/7 11/2/7
f 7/3/8 3/1/8 1/1/8
f 3/1/8 7/3/8 10/3/8

