# Created by Kenney (www.kenney.nl)

mtllib none-hq-brick-corner.mtl

g none-hq-brick-corner

v 0.0795 0 0.079 1 1 1
v 0.0795 0 -0.079 1 1 1
v 0 0 0.079 1 1 1
v 0 0 0 1 1 1
v -0.0795 0 -0.079 1 1 1
v -0.0795 0 0 1 1 1
v -0.0795 0.091 -0.079 1 1 1
v -0.0795 0.091 0 1 1 1
v -0.0745 0.096 -0.074 1 1 1
v -0.0745 0.096 -0.005 1 1 1
v 0.0795 0.091 0.079 1 1 1
v 0 0.091 0.079 1 1 1
v 0.0745 0.096 0.074 1 1 1
v 0.005 0.096 0.074 1 1 1
v 0.0795 0.091 -0.079 1 1 1
v 0.0745 0.096 -0.074 1 1 1
v 0 0.091 0 1 1 1
v 0.005 0.096 -0.005 1 1 1

vn 0 -1 0
vn -1 0 0
vn -0.9576361 0.2879809 0
vn -0.7071068 0.7071068 0
vn 0 0 1
vn 0 0.2879809 0.9576361
vn 0 0.7071068 0.7071068
vn 0 0 -1
vn 0 0.2879809 -0.9576361
vn 0 0.7071068 -0.7071068
vn 1 0 0
vn 0.9576361 0.2879809 0
vn 0.7071068 0.7071068 0
vn 0 0.4443524 0.895852
vn 0 1 0
vn -0.895852 0.4443524 0

vt 0.59375 0.025
vt 0.59375 0.2145833
vt 0.59375 0.225

usemtl colormap

f 3/1/1 2/1/1 1/1/1
f 2/1/1 3/1/1 4/1/1
f 2/1/1 4/1/1 5/1/1
f 5/1/1 4/1/1 6/1/1
f 6/1/2 7/2/3 5/1/2
f 7/2/3 6/1/2 8/2/3
f 8/2/3 9/3/4 7/2/3
f 9/3/4 8/2/3 10/3/4
f 11/2/6 3/1/5 1/1/5
f 3/1/5 11/2/6 12/2/6
f 13/3/7 12/2/6 11/2/6
f 12/2/6 13/3/7 14/3/7
f 7/2/9 2/1/8 5/1/8
f 2/1/8 7/2/9 15/2/9
f 9/3/10 15/2/9 7/2/9
f 15/2/9 9/3/10 16/3/10
f 2/1/11 11/2/12 1/1/11
f 11/2/12 2/1/11 15/2/12
f 16/3/13 11/2/12 15/2/12
f 11/2/12 16/3/13 13/3/13
f 17/2/14 6/1/5 4/1/5
f 6/1/5 17/2/14 8/2/6
f 18/3/7 8/2/6 17/2/14
f 8/2/6 18/3/7 10/3/7
f 18/3/15 9/3/15 10/3/15
f 18/3/15 16/3/15 9/3/15
f 16/3/15 18/3/15 13/3/15
f 14/3/15 13/3/15 18/3/15
f 3/1/2 17/2/16 4/1/2
f 17/2/16 3/1/2 12/2/3
f 14/3/4 17/2/16 12/2/3
f 17/2/16 14/3/4 18/3/4

g none-hq-brick-corner




usemtl colormap

f 3/1/1 2/1/1 1/1/1
f 2/1/1 3/1/1 4/1/1
f 2/1/1 4/1/1 5/1/1
f 5/1/1 4/1/1 6/1/1
f 6/1/2 7/2/3 5/1/2
f 7/2/3 6/1/2 8/2/3
f 8/2/3 9/3/4 7/2/3
f 9/3/4 8/2/3 10/3/4
f 11/2/6 3/1/5 1/1/5
f 3/1/5 11/2/6 12/2/6
f 13/3/7 12/2/6 11/2/6
f 12/2/6 13/3/7 14/3/7
f 7/2/9 2/1/8 5/1/8
f 2/1/8 7/2/9 15/2/9
f 9/3/10 15/2/9 7/2/9
f 15/2/9 9/3/10 16/3/10
f 2/1/11 11/2/12 1/1/11
f 11/2/12 2/1/11 15/2/12
f 16/3/13 11/2/12 15/2/12
f 11/2/12 16/3/13 13/3/13
f 17/2/14 6/1/5 4/1/5
f 6/1/5 17/2/14 8/2/6
f 18/3/7 8/2/6 17/2/14
f 8/2/6 18/3/7 10/3/7
f 18/3/15 9/3/15 10/3/15
f 18/3/15 16/3/15 9/3/15
f 16/3/15 18/3/15 13/3/15
f 14/3/15 13/3/15 18/3/15
f 3/1/2 17/2/16 4/1/2
f 17/2/16 3/1/2 12/2/3
f 14/3/4 17/2/16 12/2/3
f 17/2/16 14/3/4 18/3/4

