# Created by Kenney (www.kenney.nl)

mtllib none-lq-brick-slope-corner-inside-2x2.mtl

g none-lq-brick-slope-corner-inside-2x2

v -0.0795 0.016 0.0795 1 1 1
v 2.255973E-17 0.096 3.609557E-15 1 1 1
v -9.24949E-16 0.096 0.0795 1 1 1
v -0.0795 0.096 2.52669E-15 1 1 1
v -0.0795 0 -0.0795 1 1 1
v 0.0795 0 -0.0795 1 1 1
v -0.0795 0.096 -0.0795 1 1 1
v 0.0795 0.096 -0.0795 1 1 1
v 0.0795 0 0.0795 1 1 1
v -0.0795 0 0.0795 1 1 1
v 0.0795 0.096 0.0795 1 1 1

vn -0.7093199 0.7048866 0
vn 0 0.7048866 0.7093199
vn 0 0 -1
vn 0 0 1
vn 0 -1 0
vn -1 0 0
vn 1 0 0
vn 0 1 0

vt 0.59375 0.05833333
vt 0.59375 0.225
vt 0.59375 0.025

usemtl colormap

f 3/2/1 2/2/1 1/1/1
f 4/2/2 1/1/2 2/2/2
f 7/2/3 6/3/3 5/3/3
f 6/3/3 7/2/3 8/2/3
f 11/2/4 10/3/4 9/3/4
f 10/3/4 11/2/4 1/1/4
f 1/1/4 11/2/4 3/2/4
f 9/3/5 5/3/5 6/3/5
f 5/3/5 9/3/5 10/3/5
f 10/3/6 7/2/6 5/3/6
f 7/2/6 10/3/6 4/2/6
f 4/2/6 10/3/6 1/1/6
f 11/2/7 6/3/7 8/2/7
f 6/3/7 11/2/7 9/3/7
f 7/2/8 11/2/8 8/2/8
f 11/2/8 7/2/8 2/2/8
f 2/2/8 7/2/8 4/2/8
f 3/2/8 11/2/8 2/2/8

g none-lq-brick-slope-corner-inside-2x2




usemtl colormap

f 3/2/1 2/2/1 1/1/1
f 4/2/2 1/1/2 2/2/2
f 7/2/3 6/3/3 5/3/3
f 6/3/3 7/2/3 8/2/3
f 11/2/4 10/3/4 9/3/4
f 10/3/4 11/2/4 1/1/4
f 1/1/4 11/2/4 3/2/4
f 9/3/5 5/3/5 6/3/5
f 5/3/5 9/3/5 10/3/5
f 10/3/6 7/2/6 5/3/6
f 7/2/6 10/3/6 4/2/6
f 4/2/6 10/3/6 1/1/6
f 11/2/7 6/3/7 8/2/7
f 6/3/7 11/2/7 9/3/7
f 7/2/8 11/2/8 8/2/8
f 11/2/8 7/2/8 2/2/8
f 2/2/8 7/2/8 4/2/8
f 3/2/8 11/2/8 2/2/8

