# Created by Kenney (www.kenney.nl)

mtllib round-lq-brick-slope-2x3.mtl

g round-lq-brick-slope-2x3

v -0.0795 0.016 -0.1185 1 1 1
v 0 0.096 -0.1185 1 1 1
v -0.0795 0.016 0.1185 1 1 1
v 0 0.096 0.1185 1 1 1
v -0.0795 0 -0.1185 1 1 1
v -0.0795 0 0.1185 1 1 1
v 0.0795 0.096 -0.1185 1 1 1
v 0.0795 0.096 0.1185 1 1 1
v 0.0795 0 -0.1185 1 1 1
v 0.0795 0 0.1185 1 1 1
v 0.06375 0.114 2.165734E-15 1 1 1
v 0.05672056 0.114 0.01697056 1 1 1
v 0.05672056 0.114 -0.01697056 1 1 1
v 0.03975 0.114 -0.024 1 1 1
v 0.03975 0.114 0.024 1 1 1
v 0.02277944 0.114 -0.01697056 1 1 1
v 0.02277944 0.114 0.01697056 1 1 1
v 0.01575 0.114 7.219114E-16 1 1 1
v 0.02277944 0.096 0.01697056 1 1 1
v 0.03975 0.096 0.024 1 1 1
v 0.01575 0.096 7.219114E-16 1 1 1
v 0.05672056 0.096 0.01697056 1 1 1
v 0.06375 0.096 2.165734E-15 1 1 1
v 0.02277944 0.096 -0.01697056 1 1 1
v 0.03975 0.096 -0.024 1 1 1
v 0.05672056 0.096 -0.01697056 1 1 1
v 0.06375 0.114 0.079 1 1 1
v 0.05672056 0.114 0.09597056 1 1 1
v 0.05672056 0.114 0.06202944 1 1 1
v 0.03975 0.114 0.055 1 1 1
v 0.03975 0.114 0.103 1 1 1
v 0.02277944 0.114 0.06202944 1 1 1
v 0.02277944 0.114 0.09597056 1 1 1
v 0.01575 0.114 0.079 1 1 1
v 0.02277944 0.096 0.09597056 1 1 1
v 0.03975 0.096 0.103 1 1 1
v 0.01575 0.096 0.079 1 1 1
v 0.05672056 0.096 0.09597056 1 1 1
v 0.06375 0.096 0.079 1 1 1
v 0.02277944 0.096 0.06202944 1 1 1
v 0.03975 0.096 0.055 1 1 1
v 0.05672056 0.096 0.06202944 1 1 1
v 0.06375 0.114 -0.079 1 1 1
v 0.05672056 0.114 -0.06202944 1 1 1
v 0.05672056 0.114 -0.09597056 1 1 1
v 0.03975 0.114 -0.103 1 1 1
v 0.03975 0.114 -0.055 1 1 1
v 0.02277944 0.114 -0.09597056 1 1 1
v 0.02277944 0.114 -0.06202944 1 1 1
v 0.01575 0.114 -0.079 1 1 1
v 0.02277944 0.096 -0.06202944 1 1 1
v 0.03975 0.096 -0.055 1 1 1
v 0.01575 0.096 -0.079 1 1 1
v 0.05672056 0.096 -0.06202944 1 1 1
v 0.06375 0.096 -0.079 1 1 1
v 0.02277944 0.096 -0.09597056 1 1 1
v 0.03975 0.096 -0.103 1 1 1
v 0.05672056 0.096 -0.09597056 1 1 1

vn -0.7093199 0.7048866 0
vn -1 0 0
vn 0 1 0
vn 1 0 0
vn 0 0 1
vn 0 0 -1
vn 0 -1 0
vn -0.7071068 0 0.7071068
vn 0.7071068 0 0.7071068
vn -0.7071068 0 -0.7071068
vn 0.7071068 0 -0.7071068

vt 0.59375 0.05833333
vt 0.59375 0.225
vt 0.59375 0.025

usemtl colormap

f 3/1/1 2/2/1 1/1/1
f 2/2/1 3/1/1 4/2/1
f 6/3/2 1/1/2 5/3/2
f 1/1/2 6/3/2 3/1/2
f 2/2/3 8/2/3 7/2/3
f 8/2/3 2/2/3 4/2/3
f 8/2/4 9/3/4 7/2/4
f 9/3/4 8/2/4 10/3/4
f 8/2/5 6/3/5 10/3/5
f 6/3/5 8/2/5 3/1/5
f 3/1/5 8/2/5 4/2/5
f 1/1/6 9/3/6 5/3/6
f 9/3/6 1/1/6 7/2/6
f 7/2/6 1/1/6 2/2/6
f 6/3/7 9/3/7 10/3/7
f 9/3/7 6/3/7 5/3/7
f 13/2/3 12/2/3 11/2/3
f 12/2/3 13/2/3 14/2/3
f 12/2/3 14/2/3 15/2/3
f 15/2/3 14/2/3 16/2/3
f 15/2/3 16/2/3 17/2/3
f 17/2/3 16/2/3 18/2/3
f 19/3/8 15/2/5 17/2/8
f 18/2/2 19/3/8 17/2/8
f 15/2/5 19/3/8 20/3/5
f 19/3/8 18/2/2 21/3/2
f 20/3/5 12/2/9 15/2/5
f 12/2/9 20/3/5 22/3/9
f 23/3/4 12/2/9 22/3/9
f 12/2/9 23/3/4 11/2/4
f 16/2/10 21/3/2 18/2/2
f 21/3/2 16/2/10 24/3/10
f 16/2/10 25/3/6 24/3/10
f 25/3/6 16/2/10 14/2/6
f 26/3/11 11/2/4 23/3/4
f 14/2/6 26/3/11 25/3/6
f 11/2/4 26/3/11 13/2/11
f 26/3/11 14/2/6 13/2/11
f 29/2/3 28/2/3 27/2/3
f 28/2/3 29/2/3 30/2/3
f 28/2/3 30/2/3 31/2/3
f 31/2/3 30/2/3 32/2/3
f 31/2/3 32/2/3 33/2/3
f 33/2/3 32/2/3 34/2/3
f 35/3/8 31/2/5 33/2/8
f 34/2/2 35/3/8 33/2/8
f 31/2/5 35/3/8 36/3/5
f 35/3/8 34/2/2 37/3/2
f 36/3/5 28/2/9 31/2/5
f 28/2/9 36/3/5 38/3/9
f 39/3/4 28/2/9 38/3/9
f 28/2/9 39/3/4 27/2/4
f 32/2/10 37/3/2 34/2/2
f 37/3/2 32/2/10 40/3/10
f 32/2/10 41/3/6 40/3/10
f 41/3/6 32/2/10 30/2/6
f 42/3/11 27/2/4 39/3/4
f 30/2/6 42/3/11 41/3/6
f 27/2/4 42/3/11 29/2/11
f 42/3/11 30/2/6 29/2/11
f 45/2/3 44/2/3 43/2/3
f 44/2/3 45/2/3 46/2/3
f 44/2/3 46/2/3 47/2/3
f 47/2/3 46/2/3 48/2/3
f 47/2/3 48/2/3 49/2/3
f 49/2/3 48/2/3 50/2/3
f 51/3/8 47/2/5 49/2/8
f 50/2/2 51/3/8 49/2/8
f 47/2/5 51/3/8 52/3/5
f 51/3/8 50/2/2 53/3/2
f 52/3/5 44/2/9 47/2/5
f 44/2/9 52/3/5 54/3/9
f 55/3/4 44/2/9 54/3/9
f 44/2/9 55/3/4 43/2/4
f 48/2/10 53/3/2 50/2/2
f 53/3/2 48/2/10 56/3/10
f 48/2/10 57/3/6 56/3/10
f 57/3/6 48/2/10 46/2/6
f 58/3/11 43/2/4 55/3/4
f 46/2/6 58/3/11 57/3/6
f 43/2/4 58/3/11 45/2/11
f 58/3/11 46/2/6 45/2/11

g round-lq-brick-slope-2x3




usemtl colormap

f 3/1/1 2/2/1 1/1/1
f 2/2/1 3/1/1 4/2/1
f 6/3/2 1/1/2 5/3/2
f 1/1/2 6/3/2 3/1/2
f 2/2/3 8/2/3 7/2/3
f 8/2/3 2/2/3 4/2/3
f 8/2/4 9/3/4 7/2/4
f 9/3/4 8/2/4 10/3/4
f 8/2/5 6/3/5 10/3/5
f 6/3/5 8/2/5 3/1/5
f 3/1/5 8/2/5 4/2/5
f 1/1/6 9/3/6 5/3/6
f 9/3/6 1/1/6 7/2/6
f 7/2/6 1/1/6 2/2/6
f 6/3/7 9/3/7 10/3/7
f 9/3/7 6/3/7 5/3/7
f 13/2/3 12/2/3 11/2/3
f 12/2/3 13/2/3 14/2/3
f 12/2/3 14/2/3 15/2/3
f 15/2/3 14/2/3 16/2/3
f 15/2/3 16/2/3 17/2/3
f 17/2/3 16/2/3 18/2/3
f 19/3/8 15/2/5 17/2/8
f 18/2/2 19/3/8 17/2/8
f 15/2/5 19/3/8 20/3/5
f 19/3/8 18/2/2 21/3/2
f 20/3/5 12/2/9 15/2/5
f 12/2/9 20/3/5 22/3/9
f 23/3/4 12/2/9 22/3/9
f 12/2/9 23/3/4 11/2/4
f 16/2/10 21/3/2 18/2/2
f 21/3/2 16/2/10 24/3/10
f 16/2/10 25/3/6 24/3/10
f 25/3/6 16/2/10 14/2/6
f 26/3/11 11/2/4 23/3/4
f 14/2/6 26/3/11 25/3/6
f 11/2/4 26/3/11 13/2/11
f 26/3/11 14/2/6 13/2/11
f 29/2/3 28/2/3 27/2/3
f 28/2/3 29/2/3 30/2/3
f 28/2/3 30/2/3 31/2/3
f 31/2/3 30/2/3 32/2/3
f 31/2/3 32/2/3 33/2/3
f 33/2/3 32/2/3 34/2/3
f 35/3/8 31/2/5 33/2/8
f 34/2/2 35/3/8 33/2/8
f 31/2/5 35/3/8 36/3/5
f 35/3/8 34/2/2 37/3/2
f 36/3/5 28/2/9 31/2/5
f 28/2/9 36/3/5 38/3/9
f 39/3/4 28/2/9 38/3/9
f 28/2/9 39/3/4 27/2/4
f 32/2/10 37/3/2 34/2/2
f 37/3/2 32/2/10 40/3/10
f 32/2/10 41/3/6 40/3/10
f 41/3/6 32/2/10 30/2/6
f 42/3/11 27/2/4 39/3/4
f 30/2/6 42/3/11 41/3/6
f 27/2/4 42/3/11 29/2/11
f 42/3/11 30/2/6 29/2/11
f 45/2/3 44/2/3 43/2/3
f 44/2/3 45/2/3 46/2/3
f 44/2/3 46/2/3 47/2/3
f 47/2/3 46/2/3 48/2/3
f 47/2/3 48/2/3 49/2/3
f 49/2/3 48/2/3 50/2/3
f 51/3/8 47/2/5 49/2/8
f 50/2/2 51/3/8 49/2/8
f 47/2/5 51/3/8 52/3/5
f 51/3/8 50/2/2 53/3/2
f 52/3/5 44/2/9 47/2/5
f 44/2/9 52/3/5 54/3/9
f 55/3/4 44/2/9 54/3/9
f 44/2/9 55/3/4 43/2/4
f 48/2/10 53/3/2 50/2/2
f 53/3/2 48/2/10 56/3/10
f 48/2/10 57/3/6 56/3/10
f 57/3/6 48/2/10 46/2/6
f 58/3/11 43/2/4 55/3/4
f 46/2/6 58/3/11 57/3/6
f 43/2/4 58/3/11 45/2/11
f 58/3/11 46/2/6 45/2/11

