# Created by Kenney (www.kenney.nl)

mtllib round-lq-brick-slope-1x2.mtl

g round-lq-brick-slope-1x2

v 0.0795 0 0.0395 1 1 1
v 0.0795 0 -0.0395 1 1 1
v -0.0795 0 0.0395 1 1 1
v -0.0795 0 -0.0395 1 1 1
v -0.0795 0.016 -0.0395 1 1 1
v 0.0795 0.096 -0.0395 1 1 1
v 0 0.096 -0.0395 1 1 1
v 0.0795 0.096 0.0395 1 1 1
v -0.0795 0.016 0.0395 1 1 1
v 0 0.096 0.0395 1 1 1
v 0.06375 0.114 1.443823E-15 1 1 1
v 0.05672056 0.114 0.01697056 1 1 1
v 0.05672056 0.114 -0.01697056 1 1 1
v 0.03975 0.114 -0.024 1 1 1
v 0.03975 0.114 0.024 1 1 1
v 0.02277944 0.114 -0.01697056 1 1 1
v 0.02277944 0.114 0.01697056 1 1 1
v 0.01575 0.114 0 1 1 1
v 0.02277944 0.096 0.01697056 1 1 1
v 0.03975 0.096 0.024 1 1 1
v 0.01575 0.096 0 1 1 1
v 0.05672056 0.096 0.01697056 1 1 1
v 0.06375 0.096 1.443823E-15 1 1 1
v 0.02277944 0.096 -0.01697056 1 1 1
v 0.03975 0.096 -0.024 1 1 1
v 0.05672056 0.096 -0.01697056 1 1 1

vn 0 -1 0
vn 0 0 -1
vn 0 0 1
vn -0.7093199 0.7048866 0
vn -1 0 0
vn 1 0 0
vn 0 1 0
vn -0.7071068 0 0.7071068
vn 0.7071068 0 0.7071068
vn -0.7071068 0 -0.7071068
vn 0.7071068 0 -0.7071068

vt 0.59375 0.025
vt 0.59375 0.05833333
vt 0.59375 0.225

usemtl colormap

f 3/1/1 2/1/1 1/1/1
f 2/1/1 3/1/1 4/1/1
f 5/2/2 2/1/2 4/1/2
f 2/1/2 5/2/2 6/3/2
f 6/3/2 5/2/2 7/3/2
f 8/3/3 3/1/3 1/1/3
f 3/1/3 8/3/3 9/2/3
f 9/2/3 8/3/3 10/3/3
f 9/2/4 7/3/4 5/2/4
f 7/3/4 9/2/4 10/3/4
f 3/1/5 5/2/5 4/1/5
f 5/2/5 3/1/5 9/2/5
f 8/3/6 2/1/6 6/3/6
f 2/1/6 8/3/6 1/1/6
f 7/3/7 8/3/7 6/3/7
f 8/3/7 7/3/7 10/3/7
f 13/3/7 12/3/7 11/3/7
f 12/3/7 13/3/7 14/3/7
f 12/3/7 14/3/7 15/3/7
f 15/3/7 14/3/7 16/3/7
f 15/3/7 16/3/7 17/3/7
f 17/3/7 16/3/7 18/3/7
f 19/1/8 15/3/3 17/3/8
f 18/3/5 19/1/8 17/3/8
f 15/3/3 19/1/8 20/1/3
f 19/1/8 18/3/5 21/1/5
f 20/1/3 12/3/9 15/3/3
f 12/3/9 20/1/3 22/1/9
f 23/1/6 12/3/9 22/1/9
f 12/3/9 23/1/6 11/3/6
f 16/3/10 21/1/5 18/3/5
f 21/1/5 16/3/10 24/1/10
f 16/3/10 25/1/2 24/1/10
f 25/1/2 16/3/10 14/3/2
f 26/1/11 11/3/6 23/1/6
f 14/3/2 26/1/11 25/1/2
f 11/3/6 26/1/11 13/3/11
f 26/1/11 14/3/2 13/3/11

g round-lq-brick-slope-1x2




usemtl colormap

f 3/1/1 2/1/1 1/1/1
f 2/1/1 3/1/1 4/1/1
f 5/2/2 2/1/2 4/1/2
f 2/1/2 5/2/2 6/3/2
f 6/3/2 5/2/2 7/3/2
f 8/3/3 3/1/3 1/1/3
f 3/1/3 8/3/3 9/2/3
f 9/2/3 8/3/3 10/3/3
f 9/2/4 7/3/4 5/2/4
f 7/3/4 9/2/4 10/3/4
f 3/1/5 5/2/5 4/1/5
f 5/2/5 3/1/5 9/2/5
f 8/3/6 2/1/6 6/3/6
f 2/1/6 8/3/6 1/1/6
f 7/3/7 8/3/7 6/3/7
f 8/3/7 7/3/7 10/3/7
f 13/3/7 12/3/7 11/3/7
f 12/3/7 13/3/7 14/3/7
f 12/3/7 14/3/7 15/3/7
f 15/3/7 14/3/7 16/3/7
f 15/3/7 16/3/7 17/3/7
f 17/3/7 16/3/7 18/3/7
f 19/1/8 15/3/3 17/3/8
f 18/3/5 19/1/8 17/3/8
f 15/3/3 19/1/8 20/1/3
f 19/1/8 18/3/5 21/1/5
f 20/1/3 12/3/9 15/3/3
f 12/3/9 20/1/3 22/1/9
f 23/1/6 12/3/9 22/1/9
f 12/3/9 23/1/6 11/3/6
f 16/3/10 21/1/5 18/3/5
f 21/1/5 16/3/10 24/1/10
f 16/3/10 25/1/2 24/1/10
f 25/1/2 16/3/10 14/3/2
f 26/1/11 11/3/6 23/1/6
f 14/3/2 26/1/11 25/1/2
f 11/3/6 26/1/11 13/3/11
f 26/1/11 14/3/2 13/3/11

