# Created by Kenney (www.kenney.nl)

mtllib round-lq-brick-slope-corner-inside-2x2.mtl

g round-lq-brick-slope-corner-inside-2x2

v -0.0795 0.016 0.0795 1 1 1
v 2.255973E-17 0.096 3.609557E-15 1 1 1
v -9.24949E-16 0.096 0.0795 1 1 1
v -0.0795 0.096 2.52669E-15 1 1 1
v -0.0795 0 -0.0795 1 1 1
v 0.0795 0 -0.0795 1 1 1
v -0.0795 0.096 -0.0795 1 1 1
v 0.0795 0.096 -0.0795 1 1 1
v 0.0795 0 0.0795 1 1 1
v -0.0795 0 0.0795 1 1 1
v 0.0795 0.096 0.0795 1 1 1
v 0.06375 0.114 0.039 1 1 1
v 0.05672056 0.114 0.05597056 1 1 1
v 0.05672056 0.114 0.02202944 1 1 1
v 0.03975 0.114 0.015 1 1 1
v 0.03975 0.114 0.063 1 1 1
v 0.02277944 0.114 0.02202944 1 1 1
v 0.02277944 0.114 0.05597056 1 1 1
v 0.01575 0.114 0.039 1 1 1
v 0.02277944 0.096 0.05597056 1 1 1
v 0.03975 0.096 0.063 1 1 1
v 0.01575 0.096 0.039 1 1 1
v 0.05672056 0.096 0.05597056 1 1 1
v 0.06375 0.096 0.039 1 1 1
v 0.02277944 0.096 0.02202944 1 1 1
v 0.03975 0.096 0.015 1 1 1
v 0.05672056 0.096 0.02202944 1 1 1
v -0.01575 0.114 -0.04 1 1 1
v -0.02277944 0.114 -0.02302944 1 1 1
v -0.02277944 0.114 -0.05697056 1 1 1
v -0.03975 0.114 -0.064 1 1 1
v -0.03975 0.114 -0.016 1 1 1
v -0.05672056 0.114 -0.05697056 1 1 1
v -0.05672056 0.114 -0.02302944 1 1 1
v -0.06375 0.114 -0.04 1 1 1
v -0.05672056 0.096 -0.02302944 1 1 1
v -0.03975 0.096 -0.016 1 1 1
v -0.06375 0.096 -0.04 1 1 1
v -0.02277944 0.096 -0.02302944 1 1 1
v -0.01575 0.096 -0.04 1 1 1
v -0.05672056 0.096 -0.05697056 1 1 1
v -0.03975 0.096 -0.064 1 1 1
v -0.02277944 0.096 -0.05697056 1 1 1
v 0.06375 0.114 -0.04 1 1 1
v 0.05672056 0.114 -0.02302944 1 1 1
v 0.05672056 0.114 -0.05697056 1 1 1
v 0.03975 0.114 -0.064 1 1 1
v 0.03975 0.114 -0.016 1 1 1
v 0.02277944 0.114 -0.05697056 1 1 1
v 0.02277944 0.114 -0.02302944 1 1 1
v 0.01575 0.114 -0.04 1 1 1
v 0.02277944 0.096 -0.02302944 1 1 1
v 0.03975 0.096 -0.016 1 1 1
v 0.01575 0.096 -0.04 1 1 1
v 0.05672056 0.096 -0.02302944 1 1 1
v 0.06375 0.096 -0.04 1 1 1
v 0.02277944 0.096 -0.05697056 1 1 1
v 0.03975 0.096 -0.064 1 1 1
v 0.05672056 0.096 -0.05697056 1 1 1

vn -0.7093199 0.7048866 0
vn 0 0.7048866 0.7093199
vn 0 0 -1
vn 0 0 1
vn 0 -1 0
vn -1 0 0
vn 1 0 0
vn 0 1 0
vn -0.7071068 0 0.7071068
vn 0.7071068 0 0.7071068
vn -0.7071068 0 -0.7071068
vn 0.7071068 0 -0.7071068

vt 0.59375 0.05833333
vt 0.59375 0.225
vt 0.59375 0.025

usemtl colormap

f 3/2/1 2/2/1 1/1/1
f 4/2/2 1/1/2 2/2/2
f 7/2/3 6/3/3 5/3/3
f 6/3/3 7/2/3 8/2/3
f 11/2/4 10/3/4 9/3/4
f 10/3/4 11/2/4 1/1/4
f 1/1/4 11/2/4 3/2/4
f 9/3/5 5/3/5 6/3/5
f 5/3/5 9/3/5 10/3/5
f 10/3/6 7/2/6 5/3/6
f 7/2/6 10/3/6 4/2/6
f 4/2/6 10/3/6 1/1/6
f 11/2/7 6/3/7 8/2/7
f 6/3/7 11/2/7 9/3/7
f 7/2/8 11/2/8 8/2/8
f 11/2/8 7/2/8 2/2/8
f 2/2/8 7/2/8 4/2/8
f 3/2/8 11/2/8 2/2/8
f 14/2/8 13/2/8 12/2/8
f 13/2/8 14/2/8 15/2/8
f 13/2/8 15/2/8 16/2/8
f 16/2/8 15/2/8 17/2/8
f 16/2/8 17/2/8 18/2/8
f 18/2/8 17/2/8 19/2/8
f 20/3/9 16/2/4 18/2/9
f 19/2/6 20/3/9 18/2/9
f 16/2/4 20/3/9 21/3/4
f 20/3/9 19/2/6 22/3/6
f 21/3/4 13/2/10 16/2/4
f 13/2/10 21/3/4 23/3/10
f 24/3/7 13/2/10 23/3/10
f 13/2/10 24/3/7 12/2/7
f 17/2/11 22/3/6 19/2/6
f 22/3/6 17/2/11 25/3/11
f 17/2/11 26/3/3 25/3/11
f 26/3/3 17/2/11 15/2/3
f 27/3/12 12/2/7 24/3/7
f 15/2/3 27/3/12 26/3/3
f 12/2/7 27/3/12 14/2/12
f 27/3/12 15/2/3 14/2/12
f 30/2/8 29/2/8 28/2/8
f 29/2/8 30/2/8 31/2/8
f 29/2/8 31/2/8 32/2/8
f 32/2/8 31/2/8 33/2/8
f 32/2/8 33/2/8 34/2/8
f 34/2/8 33/2/8 35/2/8
f 36/3/9 32/2/4 34/2/9
f 35/2/6 36/3/9 34/2/9
f 32/2/4 36/3/9 37/3/4
f 36/3/9 35/2/6 38/3/6
f 37/3/4 29/2/10 32/2/4
f 29/2/10 37/3/4 39/3/10
f 40/3/7 29/2/10 39/3/10
f 29/2/10 40/3/7 28/2/7
f 33/2/11 38/3/6 35/2/6
f 38/3/6 33/2/11 41/3/11
f 33/2/11 42/3/3 41/3/11
f 42/3/3 33/2/11 31/2/3
f 43/3/12 28/2/7 40/3/7
f 31/2/3 43/3/12 42/3/3
f 28/2/7 43/3/12 30/2/12
f 43/3/12 31/2/3 30/2/12
f 46/2/8 45/2/8 44/2/8
f 45/2/8 46/2/8 47/2/8
f 45/2/8 47/2/8 48/2/8
f 48/2/8 47/2/8 49/2/8
f 48/2/8 49/2/8 50/2/8
f 50/2/8 49/2/8 51/2/8
f 52/3/9 48/2/4 50/2/9
f 51/2/6 52/3/9 50/2/9
f 48/2/4 52/3/9 53/3/4
f 52/3/9 51/2/6 54/3/6
f 53/3/4 45/2/10 48/2/4
f 45/2/10 53/3/4 55/3/10
f 56/3/7 45/2/10 55/3/10
f 45/2/10 56/3/7 44/2/7
f 49/2/11 54/3/6 51/2/6
f 54/3/6 49/2/11 57/3/11
f 49/2/11 58/3/3 57/3/11
f 58/3/3 49/2/11 47/2/3
f 59/3/12 44/2/7 56/3/7
f 47/2/3 59/3/12 58/3/3
f 44/2/7 59/3/12 46/2/12
f 59/3/12 47/2/3 46/2/12

g round-lq-brick-slope-corner-inside-2x2




usemtl colormap

f 3/2/1 2/2/1 1/1/1
f 4/2/2 1/1/2 2/2/2
f 7/2/3 6/3/3 5/3/3
f 6/3/3 7/2/3 8/2/3
f 11/2/4 10/3/4 9/3/4
f 10/3/4 11/2/4 1/1/4
f 1/1/4 11/2/4 3/2/4
f 9/3/5 5/3/5 6/3/5
f 5/3/5 9/3/5 10/3/5
f 10/3/6 7/2/6 5/3/6
f 7/2/6 10/3/6 4/2/6
f 4/2/6 10/3/6 1/1/6
f 11/2/7 6/3/7 8/2/7
f 6/3/7 11/2/7 9/3/7
f 7/2/8 11/2/8 8/2/8
f 11/2/8 7/2/8 2/2/8
f 2/2/8 7/2/8 4/2/8
f 3/2/8 11/2/8 2/2/8
f 14/2/8 13/2/8 12/2/8
f 13/2/8 14/2/8 15/2/8
f 13/2/8 15/2/8 16/2/8
f 16/2/8 15/2/8 17/2/8
f 16/2/8 17/2/8 18/2/8
f 18/2/8 17/2/8 19/2/8
f 20/3/9 16/2/4 18/2/9
f 19/2/6 20/3/9 18/2/9
f 16/2/4 20/3/9 21/3/4
f 20/3/9 19/2/6 22/3/6
f 21/3/4 13/2/10 16/2/4
f 13/2/10 21/3/4 23/3/10
f 24/3/7 13/2/10 23/3/10
f 13/2/10 24/3/7 12/2/7
f 17/2/11 22/3/6 19/2/6
f 22/3/6 17/2/11 25/3/11
f 17/2/11 26/3/3 25/3/11
f 26/3/3 17/2/11 15/2/3
f 27/3/12 12/2/7 24/3/7
f 15/2/3 27/3/12 26/3/3
f 12/2/7 27/3/12 14/2/12
f 27/3/12 15/2/3 14/2/12
f 30/2/8 29/2/8 28/2/8
f 29/2/8 30/2/8 31/2/8
f 29/2/8 31/2/8 32/2/8
f 32/2/8 31/2/8 33/2/8
f 32/2/8 33/2/8 34/2/8
f 34/2/8 33/2/8 35/2/8
f 36/3/9 32/2/4 34/2/9
f 35/2/6 36/3/9 34/2/9
f 32/2/4 36/3/9 37/3/4
f 36/3/9 35/2/6 38/3/6
f 37/3/4 29/2/10 32/2/4
f 29/2/10 37/3/4 39/3/10
f 40/3/7 29/2/10 39/3/10
f 29/2/10 40/3/7 28/2/7
f 33/2/11 38/3/6 35/2/6
f 38/3/6 33/2/11 41/3/11
f 33/2/11 42/3/3 41/3/11
f 42/3/3 33/2/11 31/2/3
f 43/3/12 28/2/7 40/3/7
f 31/2/3 43/3/12 42/3/3
f 28/2/7 43/3/12 30/2/12
f 43/3/12 31/2/3 30/2/12
f 46/2/8 45/2/8 44/2/8
f 45/2/8 46/2/8 47/2/8
f 45/2/8 47/2/8 48/2/8
f 48/2/8 47/2/8 49/2/8
f 48/2/8 49/2/8 50/2/8
f 50/2/8 49/2/8 51/2/8
f 52/3/9 48/2/4 50/2/9
f 51/2/6 52/3/9 50/2/9
f 48/2/4 52/3/9 53/3/4
f 52/3/9 51/2/6 54/3/6
f 53/3/4 45/2/10 48/2/4
f 45/2/10 53/3/4 55/3/10
f 56/3/7 45/2/10 55/3/10
f 45/2/10 56/3/7 44/2/7
f 49/2/11 54/3/6 51/2/6
f 54/3/6 49/2/11 57/3/11
f 49/2/11 58/3/3 57/3/11
f 58/3/3 49/2/11 47/2/3
f 59/3/12 44/2/7 56/3/7
f 47/2/3 59/3/12 58/3/3
f 44/2/7 59/3/12 46/2/12
f 59/3/12 47/2/3 46/2/12

