# Created by Kenney (www.kenney.nl)

mtllib round-hq-brick-1x2.mtl

g round-hq-brick-1x2

v 0.0795 0 0.0395 1 1 1
v 0.0795 0 -0.0395 1 1 1
v -0.0795 0 0.0395 1 1 1
v -0.0795 0 -0.0395 1 1 1
v -0.0795 0.091 -0.0395 1 1 1
v -0.0795 0.091 0.0395 1 1 1
v -0.0745 0.096 0.0345 1 1 1
v -0.0745 0.096 -0.0345 1 1 1
v 0.0795 0.091 0.0395 1 1 1
v 0.0745 0.096 0.0345 1 1 1
v 0.0795 0.091 -0.0395 1 1 1
v 0.0745 0.096 -0.0345 1 1 1
v 0.05833804 0.114 9.023893E-16 1 1 1
v 0.05289373 0.114 0.01314373 1 1 1
v 0.05289373 0.114 -0.01314373 1 1 1
v 0.03975 0.114 -0.01858804 1 1 1
v 0.03975 0.114 0.01858804 1 1 1
v 0.02660627 0.114 -0.01314373 1 1 1
v 0.02660627 0.114 0.01314373 1 1 1
v 0.02116196 0.114 1.804779E-16 1 1 1
v 0.02277944 0.109 0.01697056 1 1 1
v 0.03975 0.109 0.024 1 1 1
v 0.05672056 0.109 0.01697056 1 1 1
v 0.01575 0.109 1.804779E-16 1 1 1
v 0.02277944 0.096 0.01697056 1 1 1
v 0.03975 0.096 0.024 1 1 1
v 0.01575 0.096 1.804779E-16 1 1 1
v 0.05672056 0.096 0.01697056 1 1 1
v 0.02277944 0.096 -0.01697056 1 1 1
v 0.06375 0.096 9.023893E-16 1 1 1
v 0.02277944 0.109 -0.01697056 1 1 1
v 0.03975 0.096 -0.024 1 1 1
v 0.06375 0.109 9.023893E-16 1 1 1
v 0.05672056 0.096 -0.01697056 1 1 1
v 0.03975 0.109 -0.024 1 1 1
v 0.05672056 0.109 -0.01697056 1 1 1
v -0.02116196 0.114 9.023893E-16 1 1 1
v -0.02660627 0.114 0.01314373 1 1 1
v -0.02660627 0.114 -0.01314373 1 1 1
v -0.03975 0.114 -0.01858804 1 1 1
v -0.03975 0.114 0.01858804 1 1 1
v -0.05289373 0.114 -0.01314373 1 1 1
v -0.05289373 0.114 0.01314373 1 1 1
v -0.05833804 0.114 1.804779E-16 1 1 1
v -0.05672056 0.109 0.01697056 1 1 1
v -0.03975 0.109 0.024 1 1 1
v -0.02277944 0.109 0.01697056 1 1 1
v -0.06375 0.109 1.804779E-16 1 1 1
v -0.05672056 0.096 0.01697056 1 1 1
v -0.03975 0.096 0.024 1 1 1
v -0.06375 0.096 1.804779E-16 1 1 1
v -0.02277944 0.096 0.01697056 1 1 1
v -0.05672056 0.096 -0.01697056 1 1 1
v -0.01575 0.096 9.023893E-16 1 1 1
v -0.05672056 0.109 -0.01697056 1 1 1
v -0.03975 0.096 -0.024 1 1 1
v -0.01575 0.109 9.023893E-16 1 1 1
v -0.02277944 0.096 -0.01697056 1 1 1
v -0.03975 0.109 -0.024 1 1 1
v -0.02277944 0.109 -0.01697056 1 1 1

vn 0 -1 0
vn -1 0 0
vn -0.9576361 0.2879809 0
vn -0.7071068 0.7071068 0
vn 0 0 1
vn 0 0.2879809 0.9576361
vn 0 0.7071068 0.7071068
vn 0 0 -1
vn 0 0.2879809 -0.9576361
vn 0 0.7071068 -0.7071068
vn 0 1 0
vn 1 0 0
vn 0.9576361 0.2879809 0
vn 0.7071068 0.7071068 0
vn -0.4798415 0.7345095 0.4798415
vn -0.6572475 0.3688517 0.6572475
vn -0.6785983 0.7345095 0
vn 0 0.7345095 0.6785983
vn 0 0.3688517 0.9294882
vn 0.4798415 0.7345095 0.4798415
vn 0.6572475 0.3688517 0.6572475
vn 0.6785983 0.7345095 0
vn -0.9294882 0.3688517 0
vn -0.7071068 0 0.7071068
vn 0.7071068 0 0.7071068
vn -0.7071068 0 -0.7071068
vn -0.6572475 0.3688517 -0.6572475
vn -0.4798415 0.7345095 -0.4798415
vn 0 0.7345095 -0.6785983
vn 0.9294882 0.3688517 0
vn 0.7071068 0 -0.7071068
vn 0 0.3688517 -0.9294882
vn 0.4798415 0.7345095 -0.4798415
vn 0.6572475 0.3688517 -0.6572475

vt 0.59375 0.025
vt 0.59375 0.2145833
vt 0.59375 0.225
vt 0.59375 0.1694444

usemtl colormap

f 3/1/1 2/1/1 1/1/1
f 2/1/1 3/1/1 4/1/1
f 3/1/2 5/2/3 4/1/2
f 5/2/3 3/1/2 6/2/3
f 7/3/4 5/2/3 6/2/3
f 5/2/3 7/3/4 8/3/4
f 9/2/6 3/1/5 1/1/5
f 3/1/5 9/2/6 6/2/6
f 10/3/7 6/2/6 9/2/6
f 6/2/6 10/3/7 7/3/7
f 5/2/9 2/1/8 4/1/8
f 2/1/8 5/2/9 11/2/9
f 8/3/10 11/2/9 5/2/9
f 11/2/9 8/3/10 12/3/10
f 8/3/11 10/3/11 12/3/11
f 10/3/11 8/3/11 7/3/11
f 2/1/12 9/2/13 1/1/12
f 9/2/13 2/1/12 11/2/13
f 12/3/14 9/2/13 11/2/13
f 9/2/13 12/3/14 10/3/14
f 15/3/11 14/3/11 13/3/11
f 14/3/11 15/3/11 16/3/11
f 14/3/11 16/3/11 17/3/11
f 17/3/11 16/3/11 18/3/11
f 17/3/11 18/3/11 19/3/11
f 19/3/11 18/3/11 20/3/11
f 20/3/17 21/4/16 19/3/15
f 21/4/16 17/3/18 19/3/15
f 17/3/18 21/4/16 22/4/19
f 22/4/19 14/3/20 17/3/18
f 14/3/20 22/4/19 23/4/21
f 23/4/21 13/3/22 14/3/20
f 21/4/16 20/3/17 24/4/23
f 25/1/24 22/4/19 21/4/16
f 24/4/23 25/1/24 21/4/16
f 22/4/19 25/1/24 26/1/5
f 26/1/5 23/4/21 22/4/19
f 25/1/24 24/4/23 27/1/2
f 23/4/21 26/1/5 28/1/25
f 24/4/23 29/1/26 27/1/2
f 30/1/12 23/4/21 28/1/25
f 20/3/17 31/4/27 24/4/23
f 29/1/26 24/4/23 31/4/27
f 31/4/27 20/3/17 18/3/28
f 31/4/27 32/1/8 29/1/26
f 16/3/29 31/4/27 18/3/28
f 23/4/21 30/1/12 33/4/30
f 13/3/22 23/4/21 33/4/30
f 34/1/31 33/4/30 30/1/12
f 32/1/8 31/4/27 35/4/32
f 31/4/27 16/3/29 35/4/32
f 35/4/32 34/1/31 32/1/8
f 15/3/33 35/4/32 16/3/29
f 36/4/34 13/3/22 33/4/30
f 33/4/30 34/1/31 36/4/34
f 34/1/31 35/4/32 36/4/34
f 35/4/32 15/3/33 36/4/34
f 13/3/22 36/4/34 15/3/33
f 39/3/11 38/3/11 37/3/11
f 38/3/11 39/3/11 40/3/11
f 38/3/11 40/3/11 41/3/11
f 41/3/11 40/3/11 42/3/11
f 41/3/11 42/3/11 43/3/11
f 43/3/11 42/3/11 44/3/11
f 44/3/17 45/4/16 43/3/15
f 45/4/16 41/3/18 43/3/15
f 41/3/18 45/4/16 46/4/19
f 46/4/19 38/3/20 41/3/18
f 38/3/20 46/4/19 47/4/21
f 47/4/21 37/3/22 38/3/20
f 45/4/16 44/3/17 48/4/23
f 49/1/24 46/4/19 45/4/16
f 48/4/23 49/1/24 45/4/16
f 46/4/19 49/1/24 50/1/5
f 50/1/5 47/4/21 46/4/19
f 49/1/24 48/4/23 51/1/2
f 47/4/21 50/1/5 52/1/25
f 48/4/23 53/1/26 51/1/2
f 54/1/12 47/4/21 52/1/25
f 44/3/17 55/4/27 48/4/23
f 53/1/26 48/4/23 55/4/27
f 55/4/27 44/3/17 42/3/28
f 55/4/27 56/1/8 53/1/26
f 40/3/29 55/4/27 42/3/28
f 47/4/21 54/1/12 57/4/30
f 37/3/22 47/4/21 57/4/30
f 58/1/31 57/4/30 54/1/12
f 56/1/8 55/4/27 59/4/32
f 55/4/27 40/3/29 59/4/32
f 59/4/32 58/1/31 56/1/8
f 39/3/33 59/4/32 40/3/29
f 60/4/34 37/3/22 57/4/30
f 57/4/30 58/1/31 60/4/34
f 58/1/31 59/4/32 60/4/34
f 59/4/32 39/3/33 60/4/34
f 37/3/22 60/4/34 39/3/33

g round-hq-brick-1x2




usemtl colormap

f 3/1/1 2/1/1 1/1/1
f 2/1/1 3/1/1 4/1/1
f 3/1/2 5/2/3 4/1/2
f 5/2/3 3/1/2 6/2/3
f 7/3/4 5/2/3 6/2/3
f 5/2/3 7/3/4 8/3/4
f 9/2/6 3/1/5 1/1/5
f 3/1/5 9/2/6 6/2/6
f 10/3/7 6/2/6 9/2/6
f 6/2/6 10/3/7 7/3/7
f 5/2/9 2/1/8 4/1/8
f 2/1/8 5/2/9 11/2/9
f 8/3/10 11/2/9 5/2/9
f 11/2/9 8/3/10 12/3/10
f 8/3/11 10/3/11 12/3/11
f 10/3/11 8/3/11 7/3/11
f 2/1/12 9/2/13 1/1/12
f 9/2/13 2/1/12 11/2/13
f 12/3/14 9/2/13 11/2/13
f 9/2/13 12/3/14 10/3/14
f 15/3/11 14/3/11 13/3/11
f 14/3/11 15/3/11 16/3/11
f 14/3/11 16/3/11 17/3/11
f 17/3/11 16/3/11 18/3/11
f 17/3/11 18/3/11 19/3/11
f 19/3/11 18/3/11 20/3/11
f 20/3/17 21/4/16 19/3/15
f 21/4/16 17/3/18 19/3/15
f 17/3/18 21/4/16 22/4/19
f 22/4/19 14/3/20 17/3/18
f 14/3/20 22/4/19 23/4/21
f 23/4/21 13/3/22 14/3/20
f 21/4/16 20/3/17 24/4/23
f 25/1/24 22/4/19 21/4/16
f 24/4/23 25/1/24 21/4/16
f 22/4/19 25/1/24 26/1/5
f 26/1/5 23/4/21 22/4/19
f 25/1/24 24/4/23 27/1/2
f 23/4/21 26/1/5 28/1/25
f 24/4/23 29/1/26 27/1/2
f 30/1/12 23/4/21 28/1/25
f 20/3/17 31/4/27 24/4/23
f 29/1/26 24/4/23 31/4/27
f 31/4/27 20/3/17 18/3/28
f 31/4/27 32/1/8 29/1/26
f 16/3/29 31/4/27 18/3/28
f 23/4/21 30/1/12 33/4/30
f 13/3/22 23/4/21 33/4/30
f 34/1/31 33/4/30 30/1/12
f 32/1/8 31/4/27 35/4/32
f 31/4/27 16/3/29 35/4/32
f 35/4/32 34/1/31 32/1/8
f 15/3/33 35/4/32 16/3/29
f 36/4/34 13/3/22 33/4/30
f 33/4/30 34/1/31 36/4/34
f 34/1/31 35/4/32 36/4/34
f 35/4/32 15/3/33 36/4/34
f 13/3/22 36/4/34 15/3/33
f 39/3/11 38/3/11 37/3/11
f 38/3/11 39/3/11 40/3/11
f 38/3/11 40/3/11 41/3/11
f 41/3/11 40/3/11 42/3/11
f 41/3/11 42/3/11 43/3/11
f 43/3/11 42/3/11 44/3/11
f 44/3/17 45/4/16 43/3/15
f 45/4/16 41/3/18 43/3/15
f 41/3/18 45/4/16 46/4/19
f 46/4/19 38/3/20 41/3/18
f 38/3/20 46/4/19 47/4/21
f 47/4/21 37/3/22 38/3/20
f 45/4/16 44/3/17 48/4/23
f 49/1/24 46/4/19 45/4/16
f 48/4/23 49/1/24 45/4/16
f 46/4/19 49/1/24 50/1/5
f 50/1/5 47/4/21 46/4/19
f 49/1/24 48/4/23 51/1/2
f 47/4/21 50/1/5 52/1/25
f 48/4/23 53/1/26 51/1/2
f 54/1/12 47/4/21 52/1/25
f 44/3/17 55/4/27 48/4/23
f 53/1/26 48/4/23 55/4/27
f 55/4/27 44/3/17 42/3/28
f 55/4/27 56/1/8 53/1/26
f 40/3/29 55/4/27 42/3/28
f 47/4/21 54/1/12 57/4/30
f 37/3/22 47/4/21 57/4/30
f 58/1/31 57/4/30 54/1/12
f 56/1/8 55/4/27 59/4/32
f 55/4/27 40/3/29 59/4/32
f 59/4/32 58/1/31 56/1/8
f 39/3/33 59/4/32 40/3/29
f 60/4/34 37/3/22 57/4/30
f 57/4/30 58/1/31 60/4/34
f 58/1/31 59/4/32 60/4/34
f 59/4/32 39/3/33 60/4/34
f 37/3/22 60/4/34 39/3/33

