# Created by Kenney (www.kenney.nl)

mtllib round-hq-brick-slope-2x3.mtl

g round-hq-brick-slope-2x3

v -0.0795 0.016 -0.1185 1 1 1
v -0.00496875 0.091 -0.1185 1 1 1
v -0.0795 0.016 0.1185 1 1 1
v 0 0.096 -0.1135 1 1 1
v 0 0.096 0.1135 1 1 1
v -0.00496875 0.091 0.1185 1 1 1
v -0.0795 0 -0.1185 1 1 1
v -0.0795 0 0.1185 1 1 1
v 0.0745 0.096 -0.1135 1 1 1
v 0.0745 0.096 0.1135 1 1 1
v 0.0795 0 0.1185 1 1 1
v 0.0795 0 -0.1185 1 1 1
v 0.0795 0.091 0.1185 1 1 1
v 0.0795 0.091 -0.1185 1 1 1
v 0.05833804 0.114 1.263345E-15 1 1 1
v 0.05289373 0.114 0.01314373 1 1 1
v 0.05289373 0.114 -0.01314373 1 1 1
v 0.03975 0.114 -0.01858804 1 1 1
v 0.03975 0.114 0.01858804 1 1 1
v 0.02660627 0.114 -0.01314373 1 1 1
v 0.02660627 0.114 0.01314373 1 1 1
v 0.02116196 0.114 5.414336E-16 1 1 1
v 0.02277944 0.109 0.01697056 1 1 1
v 0.03975 0.109 0.024 1 1 1
v 0.05672056 0.109 0.01697056 1 1 1
v 0.01575 0.109 5.414336E-16 1 1 1
v 0.02277944 0.096 0.01697056 1 1 1
v 0.03975 0.096 0.024 1 1 1
v 0.01575 0.096 5.414336E-16 1 1 1
v 0.05672056 0.096 0.01697056 1 1 1
v 0.02277944 0.096 -0.01697056 1 1 1
v 0.06375 0.096 1.263345E-15 1 1 1
v 0.02277944 0.109 -0.01697056 1 1 1
v 0.03975 0.096 -0.024 1 1 1
v 0.06375 0.109 1.263345E-15 1 1 1
v 0.05672056 0.096 -0.01697056 1 1 1
v 0.03975 0.109 -0.024 1 1 1
v 0.05672056 0.109 -0.01697056 1 1 1
v 0.05833804 0.114 0.079 1 1 1
v 0.05289373 0.114 0.09214372 1 1 1
v 0.05289373 0.114 0.06585627 1 1 1
v 0.03975 0.114 0.06041196 1 1 1
v 0.03975 0.114 0.09758803 1 1 1
v 0.02660627 0.114 0.06585627 1 1 1
v 0.02660627 0.114 0.09214372 1 1 1
v 0.02116196 0.114 0.079 1 1 1
v 0.02277944 0.109 0.09597056 1 1 1
v 0.03975 0.109 0.103 1 1 1
v 0.05672056 0.109 0.09597056 1 1 1
v 0.01575 0.109 0.079 1 1 1
v 0.02277944 0.096 0.09597056 1 1 1
v 0.03975 0.096 0.103 1 1 1
v 0.01575 0.096 0.079 1 1 1
v 0.05672056 0.096 0.09597056 1 1 1
v 0.02277944 0.096 0.06202944 1 1 1
v 0.06375 0.096 0.079 1 1 1
v 0.02277944 0.109 0.06202944 1 1 1
v 0.03975 0.096 0.055 1 1 1
v 0.06375 0.109 0.079 1 1 1
v 0.05672056 0.096 0.06202944 1 1 1
v 0.03975 0.109 0.055 1 1 1
v 0.05672056 0.109 0.06202944 1 1 1
v 0.05833804 0.114 -0.079 1 1 1
v 0.05289373 0.114 -0.06585627 1 1 1
v 0.05289373 0.114 -0.09214372 1 1 1
v 0.03975 0.114 -0.09758803 1 1 1
v 0.03975 0.114 -0.06041196 1 1 1
v 0.02660627 0.114 -0.09214372 1 1 1
v 0.02660627 0.114 -0.06585627 1 1 1
v 0.02116196 0.114 -0.079 1 1 1
v 0.02277944 0.109 -0.06202944 1 1 1
v 0.03975 0.109 -0.055 1 1 1
v 0.05672056 0.109 -0.06202944 1 1 1
v 0.01575 0.109 -0.079 1 1 1
v 0.02277944 0.096 -0.06202944 1 1 1
v 0.03975 0.096 -0.055 1 1 1
v 0.01575 0.096 -0.079 1 1 1
v 0.05672056 0.096 -0.06202944 1 1 1
v 0.02277944 0.096 -0.09597056 1 1 1
v 0.06375 0.096 -0.079 1 1 1
v 0.02277944 0.109 -0.09597056 1 1 1
v 0.03975 0.096 -0.103 1 1 1
v 0.06375 0.109 -0.079 1 1 1
v 0.05672056 0.096 -0.09597056 1 1 1
v 0.03975 0.109 -0.103 1 1 1
v 0.05672056 0.109 -0.09597056 1 1 1

vn -0.7093199 0.7048866 0
vn -1 0 0
vn 0 1 0
vn 0 -1 0
vn 0 0 1
vn 0 0.2879809 0.9576361
vn 0 0.2181942 0.9759054
vn 0 0.7071068 0.7071068
vn 1 0 0
vn 0.9576361 0.2879809 0
vn 0.7071068 0.7071068 0
vn 0 0 -1
vn 0 0.2879809 -0.9576361
vn 0 0.2181942 -0.9759054
vn 0 0.7071068 -0.7071068
vn -0.4798415 0.7345095 0.4798415
vn -0.6572475 0.3688517 0.6572475
vn -0.6785983 0.7345095 0
vn 0 0.7345095 0.6785983
vn 0 0.3688517 0.9294882
vn 0.4798415 0.7345095 0.4798415
vn 0.6572475 0.3688517 0.6572475
vn 0.6785983 0.7345095 0
vn -0.9294882 0.3688517 0
vn -0.7071068 0 0.7071068
vn 0.7071068 0 0.7071068
vn -0.7071068 0 -0.7071068
vn -0.6572475 0.3688517 -0.6572475
vn -0.4798415 0.7345095 -0.4798415
vn 0 0.7345095 -0.6785983
vn 0.9294882 0.3688517 0
vn 0.7071068 0 -0.7071068
vn 0 0.3688517 -0.9294882
vn 0.4798415 0.7345095 -0.4798415
vn 0.6572475 0.3688517 -0.6572475

vt 0.59375 0.05833333
vt 0.59375 0.2145833
vt 0.59375 0.225
vt 0.59375 0.025
vt 0.59375 0.1694444

usemtl colormap

f 3/1/1 2/2/1 1/1/1
f 2/2/1 3/1/1 4/3/1
f 4/3/1 3/1/1 5/3/1
f 5/3/1 3/1/1 6/2/1
f 8/4/2 1/1/2 7/4/2
f 1/1/2 8/4/2 3/1/2
f 4/3/3 10/3/3 9/3/3
f 10/3/3 4/3/3 5/3/3
f 8/4/4 12/4/4 11/4/4
f 12/4/4 8/4/4 7/4/4
f 13/2/6 8/4/5 11/4/5
f 8/4/5 13/2/6 3/1/5
f 3/1/5 13/2/6 6/2/7
f 10/3/8 6/2/7 13/2/6
f 6/2/7 10/3/8 5/3/8
f 12/4/9 13/2/10 11/4/9
f 13/2/10 12/4/9 14/2/10
f 9/3/11 13/2/10 14/2/10
f 13/2/10 9/3/11 10/3/11
f 1/1/12 12/4/12 7/4/12
f 12/4/12 1/1/12 14/2/13
f 14/2/13 1/1/12 2/2/14
f 4/3/15 14/2/13 2/2/14
f 14/2/13 4/3/15 9/3/15
f 17/3/3 16/3/3 15/3/3
f 16/3/3 17/3/3 18/3/3
f 16/3/3 18/3/3 19/3/3
f 19/3/3 18/3/3 20/3/3
f 19/3/3 20/3/3 21/3/3
f 21/3/3 20/3/3 22/3/3
f 22/3/18 23/5/17 21/3/16
f 23/5/17 19/3/19 21/3/16
f 19/3/19 23/5/17 24/5/20
f 24/5/20 16/3/21 19/3/19
f 16/3/21 24/5/20 25/5/22
f 25/5/22 15/3/23 16/3/21
f 23/5/17 22/3/18 26/5/24
f 27/4/25 24/5/20 23/5/17
f 26/5/24 27/4/25 23/5/17
f 24/5/20 27/4/25 28/4/5
f 28/4/5 25/5/22 24/5/20
f 27/4/25 26/5/24 29/4/2
f 25/5/22 28/4/5 30/4/26
f 26/5/24 31/4/27 29/4/2
f 32/4/9 25/5/22 30/4/26
f 22/3/18 33/5/28 26/5/24
f 31/4/27 26/5/24 33/5/28
f 33/5/28 22/3/18 20/3/29
f 33/5/28 34/4/12 31/4/27
f 18/3/30 33/5/28 20/3/29
f 25/5/22 32/4/9 35/5/31
f 15/3/23 25/5/22 35/5/31
f 36/4/32 35/5/31 32/4/9
f 34/4/12 33/5/28 37/5/33
f 33/5/28 18/3/30 37/5/33
f 37/5/33 36/4/32 34/4/12
f 17/3/34 37/5/33 18/3/30
f 38/5/35 15/3/23 35/5/31
f 35/5/31 36/4/32 38/5/35
f 36/4/32 37/5/33 38/5/35
f 37/5/33 17/3/34 38/5/35
f 15/3/23 38/5/35 17/3/34
f 41/3/3 40/3/3 39/3/3
f 40/3/3 41/3/3 42/3/3
f 40/3/3 42/3/3 43/3/3
f 43/3/3 42/3/3 44/3/3
f 43/3/3 44/3/3 45/3/3
f 45/3/3 44/3/3 46/3/3
f 46/3/18 47/5/17 45/3/16
f 47/5/17 43/3/19 45/3/16
f 43/3/19 47/5/17 48/5/20
f 48/5/20 40/3/21 43/3/19
f 40/3/21 48/5/20 49/5/22
f 49/5/22 39/3/23 40/3/21
f 47/5/17 46/3/18 50/5/24
f 51/4/25 48/5/20 47/5/17
f 50/5/24 51/4/25 47/5/17
f 48/5/20 51/4/25 52/4/5
f 52/4/5 49/5/22 48/5/20
f 51/4/25 50/5/24 53/4/2
f 49/5/22 52/4/5 54/4/26
f 50/5/24 55/4/27 53/4/2
f 56/4/9 49/5/22 54/4/26
f 46/3/18 57/5/28 50/5/24
f 55/4/27 50/5/24 57/5/28
f 57/5/28 46/3/18 44/3/29
f 57/5/28 58/4/12 55/4/27
f 42/3/30 57/5/28 44/3/29
f 49/5/22 56/4/9 59/5/31
f 39/3/23 49/5/22 59/5/31
f 60/4/32 59/5/31 56/4/9
f 58/4/12 57/5/28 61/5/33
f 57/5/28 42/3/30 61/5/33
f 61/5/33 60/4/32 58/4/12
f 41/3/34 61/5/33 42/3/30
f 62/5/35 39/3/23 59/5/31
f 59/5/31 60/4/32 62/5/35
f 60/4/32 61/5/33 62/5/35
f 61/5/33 41/3/34 62/5/35
f 39/3/23 62/5/35 41/3/34
f 65/3/3 64/3/3 63/3/3
f 64/3/3 65/3/3 66/3/3
f 64/3/3 66/3/3 67/3/3
f 67/3/3 66/3/3 68/3/3
f 67/3/3 68/3/3 69/3/3
f 69/3/3 68/3/3 70/3/3
f 70/3/18 71/5/17 69/3/16
f 71/5/17 67/3/19 69/3/16
f 67/3/19 71/5/17 72/5/20
f 72/5/20 64/3/21 67/3/19
f 64/3/21 72/5/20 73/5/22
f 73/5/22 63/3/23 64/3/21
f 71/5/17 70/3/18 74/5/24
f 75/4/25 72/5/20 71/5/17
f 74/5/24 75/4/25 71/5/17
f 72/5/20 75/4/25 76/4/5
f 76/4/5 73/5/22 72/5/20
f 75/4/25 74/5/24 77/4/2
f 73/5/22 76/4/5 78/4/26
f 74/5/24 79/4/27 77/4/2
f 80/4/9 73/5/22 78/4/26
f 70/3/18 81/5/28 74/5/24
f 79/4/27 74/5/24 81/5/28
f 81/5/28 70/3/18 68/3/29
f 81/5/28 82/4/12 79/4/27
f 66/3/30 81/5/28 68/3/29
f 73/5/22 80/4/9 83/5/31
f 63/3/23 73/5/22 83/5/31
f 84/4/32 83/5/31 80/4/9
f 82/4/12 81/5/28 85/5/33
f 81/5/28 66/3/30 85/5/33
f 85/5/33 84/4/32 82/4/12
f 65/3/34 85/5/33 66/3/30
f 86/5/35 63/3/23 83/5/31
f 83/5/31 84/4/32 86/5/35
f 84/4/32 85/5/33 86/5/35
f 85/5/33 65/3/34 86/5/35
f 63/3/23 86/5/35 65/3/34

g round-hq-brick-slope-2x3




usemtl colormap

f 3/1/1 2/2/1 1/1/1
f 2/2/1 3/1/1 4/3/1
f 4/3/1 3/1/1 5/3/1
f 5/3/1 3/1/1 6/2/1
f 8/4/2 1/1/2 7/4/2
f 1/1/2 8/4/2 3/1/2
f 4/3/3 10/3/3 9/3/3
f 10/3/3 4/3/3 5/3/3
f 8/4/4 12/4/4 11/4/4
f 12/4/4 8/4/4 7/4/4
f 13/2/6 8/4/5 11/4/5
f 8/4/5 13/2/6 3/1/5
f 3/1/5 13/2/6 6/2/7
f 10/3/8 6/2/7 13/2/6
f 6/2/7 10/3/8 5/3/8
f 12/4/9 13/2/10 11/4/9
f 13/2/10 12/4/9 14/2/10
f 9/3/11 13/2/10 14/2/10
f 13/2/10 9/3/11 10/3/11
f 1/1/12 12/4/12 7/4/12
f 12/4/12 1/1/12 14/2/13
f 14/2/13 1/1/12 2/2/14
f 4/3/15 14/2/13 2/2/14
f 14/2/13 4/3/15 9/3/15
f 17/3/3 16/3/3 15/3/3
f 16/3/3 17/3/3 18/3/3
f 16/3/3 18/3/3 19/3/3
f 19/3/3 18/3/3 20/3/3
f 19/3/3 20/3/3 21/3/3
f 21/3/3 20/3/3 22/3/3
f 22/3/18 23/5/17 21/3/16
f 23/5/17 19/3/19 21/3/16
f 19/3/19 23/5/17 24/5/20
f 24/5/20 16/3/21 19/3/19
f 16/3/21 24/5/20 25/5/22
f 25/5/22 15/3/23 16/3/21
f 23/5/17 22/3/18 26/5/24
f 27/4/25 24/5/20 23/5/17
f 26/5/24 27/4/25 23/5/17
f 24/5/20 27/4/25 28/4/5
f 28/4/5 25/5/22 24/5/20
f 27/4/25 26/5/24 29/4/2
f 25/5/22 28/4/5 30/4/26
f 26/5/24 31/4/27 29/4/2
f 32/4/9 25/5/22 30/4/26
f 22/3/18 33/5/28 26/5/24
f 31/4/27 26/5/24 33/5/28
f 33/5/28 22/3/18 20/3/29
f 33/5/28 34/4/12 31/4/27
f 18/3/30 33/5/28 20/3/29
f 25/5/22 32/4/9 35/5/31
f 15/3/23 25/5/22 35/5/31
f 36/4/32 35/5/31 32/4/9
f 34/4/12 33/5/28 37/5/33
f 33/5/28 18/3/30 37/5/33
f 37/5/33 36/4/32 34/4/12
f 17/3/34 37/5/33 18/3/30
f 38/5/35 15/3/23 35/5/31
f 35/5/31 36/4/32 38/5/35
f 36/4/32 37/5/33 38/5/35
f 37/5/33 17/3/34 38/5/35
f 15/3/23 38/5/35 17/3/34
f 41/3/3 40/3/3 39/3/3
f 40/3/3 41/3/3 42/3/3
f 40/3/3 42/3/3 43/3/3
f 43/3/3 42/3/3 44/3/3
f 43/3/3 44/3/3 45/3/3
f 45/3/3 44/3/3 46/3/3
f 46/3/18 47/5/17 45/3/16
f 47/5/17 43/3/19 45/3/16
f 43/3/19 47/5/17 48/5/20
f 48/5/20 40/3/21 43/3/19
f 40/3/21 48/5/20 49/5/22
f 49/5/22 39/3/23 40/3/21
f 47/5/17 46/3/18 50/5/24
f 51/4/25 48/5/20 47/5/17
f 50/5/24 51/4/25 47/5/17
f 48/5/20 51/4/25 52/4/5
f 52/4/5 49/5/22 48/5/20
f 51/4/25 50/5/24 53/4/2
f 49/5/22 52/4/5 54/4/26
f 50/5/24 55/4/27 53/4/2
f 56/4/9 49/5/22 54/4/26
f 46/3/18 57/5/28 50/5/24
f 55/4/27 50/5/24 57/5/28
f 57/5/28 46/3/18 44/3/29
f 57/5/28 58/4/12 55/4/27
f 42/3/30 57/5/28 44/3/29
f 49/5/22 56/4/9 59/5/31
f 39/3/23 49/5/22 59/5/31
f 60/4/32 59/5/31 56/4/9
f 58/4/12 57/5/28 61/5/33
f 57/5/28 42/3/30 61/5/33
f 61/5/33 60/4/32 58/4/12
f 41/3/34 61/5/33 42/3/30
f 62/5/35 39/3/23 59/5/31
f 59/5/31 60/4/32 62/5/35
f 60/4/32 61/5/33 62/5/35
f 61/5/33 41/3/34 62/5/35
f 39/3/23 62/5/35 41/3/34
f 65/3/3 64/3/3 63/3/3
f 64/3/3 65/3/3 66/3/3
f 64/3/3 66/3/3 67/3/3
f 67/3/3 66/3/3 68/3/3
f 67/3/3 68/3/3 69/3/3
f 69/3/3 68/3/3 70/3/3
f 70/3/18 71/5/17 69/3/16
f 71/5/17 67/3/19 69/3/16
f 67/3/19 71/5/17 72/5/20
f 72/5/20 64/3/21 67/3/19
f 64/3/21 72/5/20 73/5/22
f 73/5/22 63/3/23 64/3/21
f 71/5/17 70/3/18 74/5/24
f 75/4/25 72/5/20 71/5/17
f 74/5/24 75/4/25 71/5/17
f 72/5/20 75/4/25 76/4/5
f 76/4/5 73/5/22 72/5/20
f 75/4/25 74/5/24 77/4/2
f 73/5/22 76/4/5 78/4/26
f 74/5/24 79/4/27 77/4/2
f 80/4/9 73/5/22 78/4/26
f 70/3/18 81/5/28 74/5/24
f 79/4/27 74/5/24 81/5/28
f 81/5/28 70/3/18 68/3/29
f 81/5/28 82/4/12 79/4/27
f 66/3/30 81/5/28 68/3/29
f 73/5/22 80/4/9 83/5/31
f 63/3/23 73/5/22 83/5/31
f 84/4/32 83/5/31 80/4/9
f 82/4/12 81/5/28 85/5/33
f 81/5/28 66/3/30 85/5/33
f 85/5/33 84/4/32 82/4/12
f 65/3/34 85/5/33 66/3/30
f 86/5/35 63/3/23 83/5/31
f 83/5/31 84/4/32 86/5/35
f 84/4/32 85/5/33 86/5/35
f 85/5/33 65/3/34 86/5/35
f 63/3/23 86/5/35 65/3/34

