# Created by Kenney (www.kenney.nl)

mtllib square-hq-brick-slope-corner-inside-2x2.mtl

g square-hq-brick-slope-corner-inside-2x2

v 0.0795 0 0.0795 1 1 1
v -0.0795 0 0.0795 1 1 1
v 0.0795 0.091 0.0795 1 1 1
v -0.0795 0.016 0.0795 1 1 1
v -0.00496875 0.091 0.0795 1 1 1
v 0.0745 0.096 0.0745 1 1 1
v -1.082867E-15 0.096 0.0745 1 1 1
v 0.0795 0 -0.0795 1 1 1
v -0.0795 0 -0.0795 1 1 1
v -0.0795 0.091 -0.0795 1 1 1
v -0.0795 0.091 0.00496875 1 1 1
v -0.0745 0.096 -0.0745 1 1 1
v -0.0745 0.096 2.52669E-15 1 1 1
v 0.0795 0.091 -0.0795 1 1 1
v 0.0745 0.096 -0.0745 1 1 1
v 0 0.096 3.609557E-15 1 1 1
v 0.01575 0.096 0.015 1 1 1
v 0.06375 0.096 0.015 1 1 1
v 0.01575 0.109 0.015 1 1 1
v 0.06375 0.109 0.015 1 1 1
v 0.02075 0.114 0.02 1 1 1
v 0.05875 0.114 0.02 1 1 1
v 0.06375 0.096 0.063 1 1 1
v 0.06375 0.109 0.063 1 1 1
v 0.05875 0.114 0.058 1 1 1
v 0.02075 0.114 0.058 1 1 1
v 0.01575 0.109 0.063 1 1 1
v 0.01575 0.096 0.063 1 1 1
v -0.06375 0.096 -0.064 1 1 1
v -0.01575 0.096 -0.064 1 1 1
v -0.06375 0.109 -0.064 1 1 1
v -0.01575 0.109 -0.064 1 1 1
v -0.05875 0.114 -0.059 1 1 1
v -0.02075 0.114 -0.059 1 1 1
v -0.01575 0.096 -0.016 1 1 1
v -0.01575 0.109 -0.016 1 1 1
v -0.02075 0.114 -0.021 1 1 1
v -0.05875 0.114 -0.021 1 1 1
v -0.06375 0.109 -0.016 1 1 1
v -0.06375 0.096 -0.016 1 1 1
v 0.01575 0.096 -0.064 1 1 1
v 0.06375 0.096 -0.064 1 1 1
v 0.01575 0.109 -0.064 1 1 1
v 0.06375 0.109 -0.064 1 1 1
v 0.02075 0.114 -0.059 1 1 1
v 0.05875 0.114 -0.059 1 1 1
v 0.06375 0.096 -0.016 1 1 1
v 0.06375 0.109 -0.016 1 1 1
v 0.05875 0.114 -0.021 1 1 1
v 0.02075 0.114 -0.021 1 1 1
v 0.01575 0.109 -0.016 1 1 1
v 0.01575 0.096 -0.016 1 1 1

vn 0 0 1
vn 0 0.2879809 0.9576361
vn 0 0.2181942 0.9759054
vn 0 0.7071068 0.7071068
vn 0 -1 0
vn -1 0 0
vn -0.9576361 0.2879809 0
vn -0.9759054 0.2181942 0
vn -0.7071068 0.7071068 0
vn 1 0 0
vn 0.9576361 0.2879809 0
vn 0.7071068 0.7071068 0
vn -0.7093199 0.7048866 0
vn 0 1 0
vn 0 0.7048866 0.7093199
vn 0 0 -1
vn 0 0.2879809 -0.9576361
vn 0 0.7071068 -0.7071068

vt 0.59375 0.025
vt 0.59375 0.2145833
vt 0.59375 0.05833333
vt 0.59375 0.225
vt 0.59375 0.1694444

usemtl colormap

f 3/2/2 2/1/1 1/1/1
f 2/1/1 3/2/2 4/3/1
f 4/3/1 3/2/2 5/2/3
f 6/4/4 5/2/3 3/2/2
f 5/2/3 6/4/4 7/4/4
f 1/1/5 9/1/5 8/1/5
f 9/1/5 1/1/5 2/1/5
f 2/1/6 10/2/7 9/1/6
f 10/2/7 2/1/6 11/2/8
f 11/2/8 2/1/6 4/3/6
f 11/2/8 12/4/9 10/2/7
f 12/4/9 11/2/8 13/4/9
f 8/1/10 3/2/11 1/1/10
f 3/2/11 8/1/10 14/2/11
f 15/4/12 3/2/11 14/2/11
f 3/2/11 15/4/12 6/4/12
f 4/3/13 7/4/13 16/4/13
f 7/4/13 4/3/13 5/2/13
f 7/4/14 6/4/14 16/4/14
f 6/4/14 12/4/14 16/4/14
f 16/4/14 12/4/14 13/4/14
f 12/4/14 6/4/14 15/4/14
f 16/4/15 11/2/15 4/3/15
f 11/2/15 16/4/15 13/4/15
f 10/2/17 8/1/16 9/1/16
f 8/1/16 10/2/17 14/2/17
f 12/4/18 14/2/17 10/2/17
f 14/2/17 12/4/18 15/4/18
f 19/5/17 18/1/16 17/1/16
f 18/1/16 19/5/17 20/5/17
f 21/4/18 20/5/17 19/5/17
f 20/5/17 21/4/18 22/4/18
f 18/1/10 24/5/11 23/1/10
f 24/5/11 18/1/10 20/5/11
f 22/4/12 24/5/11 20/5/11
f 24/5/11 22/4/12 25/4/12
f 21/4/14 25/4/14 22/4/14
f 25/4/14 21/4/14 26/4/14
f 21/4/9 27/5/7 26/4/9
f 27/5/7 21/4/9 19/5/7
f 19/5/7 28/1/6 27/5/7
f 28/1/6 19/5/7 17/1/6
f 27/5/2 25/4/4 26/4/4
f 25/4/4 27/5/2 24/5/2
f 28/1/1 24/5/2 27/5/2
f 24/5/2 28/1/1 23/1/1
f 31/5/17 30/1/16 29/1/16
f 30/1/16 31/5/17 32/5/17
f 33/4/18 32/5/17 31/5/17
f 32/5/17 33/4/18 34/4/18
f 30/1/10 36/5/11 35/1/10
f 36/5/11 30/1/10 32/5/11
f 34/4/12 36/5/11 32/5/11
f 36/5/11 34/4/12 37/4/12
f 33/4/14 37/4/14 34/4/14
f 37/4/14 33/4/14 38/4/14
f 33/4/9 39/5/7 38/4/9
f 39/5/7 33/4/9 31/5/7
f 31/5/7 40/1/6 39/5/7
f 40/1/6 31/5/7 29/1/6
f 39/5/2 37/4/4 38/4/4
f 37/4/4 39/5/2 36/5/2
f 40/1/1 36/5/2 39/5/2
f 36/5/2 40/1/1 35/1/1
f 43/5/17 42/1/16 41/1/16
f 42/1/16 43/5/17 44/5/17
f 45/4/18 44/5/17 43/5/17
f 44/5/17 45/4/18 46/4/18
f 42/1/10 48/5/11 47/1/10
f 48/5/11 42/1/10 44/5/11
f 46/4/12 48/5/11 44/5/11
f 48/5/11 46/4/12 49/4/12
f 45/4/14 49/4/14 46/4/14
f 49/4/14 45/4/14 50/4/14
f 45/4/9 51/5/7 50/4/9
f 51/5/7 45/4/9 43/5/7
f 43/5/7 52/1/6 51/5/7
f 52/1/6 43/5/7 41/1/6
f 51/5/2 49/4/4 50/4/4
f 49/4/4 51/5/2 48/5/2
f 52/1/1 48/5/2 51/5/2
f 48/5/2 52/1/1 47/1/1

g square-hq-brick-slope-corner-inside-2x2




usemtl colormap

f 3/2/2 2/1/1 1/1/1
f 2/1/1 3/2/2 4/3/1
f 4/3/1 3/2/2 5/2/3
f 6/4/4 5/2/3 3/2/2
f 5/2/3 6/4/4 7/4/4
f 1/1/5 9/1/5 8/1/5
f 9/1/5 1/1/5 2/1/5
f 2/1/6 10/2/7 9/1/6
f 10/2/7 2/1/6 11/2/8
f 11/2/8 2/1/6 4/3/6
f 11/2/8 12/4/9 10/2/7
f 12/4/9 11/2/8 13/4/9
f 8/1/10 3/2/11 1/1/10
f 3/2/11 8/1/10 14/2/11
f 15/4/12 3/2/11 14/2/11
f 3/2/11 15/4/12 6/4/12
f 4/3/13 7/4/13 16/4/13
f 7/4/13 4/3/13 5/2/13
f 7/4/14 6/4/14 16/4/14
f 6/4/14 12/4/14 16/4/14
f 16/4/14 12/4/14 13/4/14
f 12/4/14 6/4/14 15/4/14
f 16/4/15 11/2/15 4/3/15
f 11/2/15 16/4/15 13/4/15
f 10/2/17 8/1/16 9/1/16
f 8/1/16 10/2/17 14/2/17
f 12/4/18 14/2/17 10/2/17
f 14/2/17 12/4/18 15/4/18
f 19/5/17 18/1/16 17/1/16
f 18/1/16 19/5/17 20/5/17
f 21/4/18 20/5/17 19/5/17
f 20/5/17 21/4/18 22/4/18
f 18/1/10 24/5/11 23/1/10
f 24/5/11 18/1/10 20/5/11
f 22/4/12 24/5/11 20/5/11
f 24/5/11 22/4/12 25/4/12
f 21/4/14 25/4/14 22/4/14
f 25/4/14 21/4/14 26/4/14
f 21/4/9 27/5/7 26/4/9
f 27/5/7 21/4/9 19/5/7
f 19/5/7 28/1/6 27/5/7
f 28/1/6 19/5/7 17/1/6
f 27/5/2 25/4/4 26/4/4
f 25/4/4 27/5/2 24/5/2
f 28/1/1 24/5/2 27/5/2
f 24/5/2 28/1/1 23/1/1
f 31/5/17 30/1/16 29/1/16
f 30/1/16 31/5/17 32/5/17
f 33/4/18 32/5/17 31/5/17
f 32/5/17 33/4/18 34/4/18
f 30/1/10 36/5/11 35/1/10
f 36/5/11 30/1/10 32/5/11
f 34/4/12 36/5/11 32/5/11
f 36/5/11 34/4/12 37/4/12
f 33/4/14 37/4/14 34/4/14
f 37/4/14 33/4/14 38/4/14
f 33/4/9 39/5/7 38/4/9
f 39/5/7 33/4/9 31/5/7
f 31/5/7 40/1/6 39/5/7
f 40/1/6 31/5/7 29/1/6
f 39/5/2 37/4/4 38/4/4
f 37/4/4 39/5/2 36/5/2
f 40/1/1 36/5/2 39/5/2
f 36/5/2 40/1/1 35/1/1
f 43/5/17 42/1/16 41/1/16
f 42/1/16 43/5/17 44/5/17
f 45/4/18 44/5/17 43/5/17
f 44/5/17 45/4/18 46/4/18
f 42/1/10 48/5/11 47/1/10
f 48/5/11 42/1/10 44/5/11
f 46/4/12 48/5/11 44/5/11
f 48/5/11 46/4/12 49/4/12
f 45/4/14 49/4/14 46/4/14
f 49/4/14 45/4/14 50/4/14
f 45/4/9 51/5/7 50/4/9
f 51/5/7 45/4/9 43/5/7
f 43/5/7 52/1/6 51/5/7
f 52/1/6 43/5/7 41/1/6
f 51/5/2 49/4/4 50/4/4
f 49/4/4 51/5/2 48/5/2
f 52/1/1 48/5/2 51/5/2
f 48/5/2 52/1/1 47/1/1

