# Created by Kenney (www.kenney.nl)

mtllib square-lq-brick-slope-2x4.mtl

g square-lq-brick-slope-2x4

v -0.0795 0.016 -0.158 1 1 1
v 0 0.096 -0.158 1 1 1
v -0.0795 0.016 0.158 1 1 1
v 0 0.096 0.158 1 1 1
v -0.0795 0 -0.158 1 1 1
v -0.0795 0 0.158 1 1 1
v 0.0795 0.096 -0.158 1 1 1
v 0.0795 0.096 0.158 1 1 1
v 0.0795 0 -0.158 1 1 1
v 0.0795 0 0.158 1 1 1
v 0.01575 0.096 -0.1425 1 1 1
v 0.06375 0.096 -0.1425 1 1 1
v 0.01575 0.114 -0.1425 1 1 1
v 0.06375 0.114 -0.1425 1 1 1
v 0.01575 0.096 -0.09449999 1 1 1
v 0.01575 0.114 -0.09449999 1 1 1
v 0.06375 0.114 -0.09449999 1 1 1
v 0.06375 0.096 -0.09449999 1 1 1
v 0.01575 0.096 0.0155 1 1 1
v 0.06375 0.096 0.0155 1 1 1
v 0.01575 0.114 0.0155 1 1 1
v 0.06375 0.114 0.0155 1 1 1
v 0.01575 0.096 0.0635 1 1 1
v 0.01575 0.114 0.0635 1 1 1
v 0.06375 0.114 0.0635 1 1 1
v 0.06375 0.096 0.0635 1 1 1
v 0.01575 0.096 -0.0635 1 1 1
v 0.06375 0.096 -0.0635 1 1 1
v 0.01575 0.114 -0.0635 1 1 1
v 0.06375 0.114 -0.0635 1 1 1
v 0.01575 0.096 -0.0155 1 1 1
v 0.01575 0.114 -0.0155 1 1 1
v 0.06375 0.114 -0.0155 1 1 1
v 0.06375 0.096 -0.0155 1 1 1
v 0.01575 0.096 0.09449999 1 1 1
v 0.06375 0.096 0.09449999 1 1 1
v 0.01575 0.114 0.09449999 1 1 1
v 0.06375 0.114 0.09449999 1 1 1
v 0.01575 0.096 0.1425 1 1 1
v 0.01575 0.114 0.1425 1 1 1
v 0.06375 0.114 0.1425 1 1 1
v 0.06375 0.096 0.1425 1 1 1

vn -0.7093199 0.7048866 0
vn -1 0 0
vn 0 1 0
vn 1 0 0
vn 0 0 1
vn 0 0 -1
vn 0 -1 0

vt 0.59375 0.05833333
vt 0.59375 0.225
vt 0.59375 0.025

usemtl colormap

f 3/1/1 2/2/1 1/1/1
f 2/2/1 3/1/1 4/2/1
f 6/3/2 1/1/2 5/3/2
f 1/1/2 6/3/2 3/1/2
f 2/2/3 8/2/3 7/2/3
f 8/2/3 2/2/3 4/2/3
f 8/2/4 9/3/4 7/2/4
f 9/3/4 8/2/4 10/3/4
f 8/2/5 6/3/5 10/3/5
f 6/3/5 8/2/5 3/1/5
f 3/1/5 8/2/5 4/2/5
f 1/1/6 9/3/6 5/3/6
f 9/3/6 1/1/6 7/2/6
f 7/2/6 1/1/6 2/2/6
f 6/3/7 9/3/7 10/3/7
f 9/3/7 6/3/7 5/3/7
f 13/2/6 12/3/6 11/3/6
f 12/3/6 13/2/6 14/2/6
f 15/3/2 13/2/2 11/3/2
f 13/2/2 15/3/2 16/2/2
f 17/2/4 12/3/4 14/2/4
f 12/3/4 17/2/4 18/3/4
f 17/2/5 15/3/5 18/3/5
f 15/3/5 17/2/5 16/2/5
f 13/2/3 17/2/3 14/2/3
f 17/2/3 13/2/3 16/2/3
f 21/2/6 20/3/6 19/3/6
f 20/3/6 21/2/6 22/2/6
f 23/3/2 21/2/2 19/3/2
f 21/2/2 23/3/2 24/2/2
f 25/2/4 20/3/4 22/2/4
f 20/3/4 25/2/4 26/3/4
f 25/2/5 23/3/5 26/3/5
f 23/3/5 25/2/5 24/2/5
f 21/2/3 25/2/3 22/2/3
f 25/2/3 21/2/3 24/2/3
f 29/2/6 28/3/6 27/3/6
f 28/3/6 29/2/6 30/2/6
f 31/3/2 29/2/2 27/3/2
f 29/2/2 31/3/2 32/2/2
f 33/2/4 28/3/4 30/2/4
f 28/3/4 33/2/4 34/3/4
f 33/2/5 31/3/5 34/3/5
f 31/3/5 33/2/5 32/2/5
f 29/2/3 33/2/3 30/2/3
f 33/2/3 29/2/3 32/2/3
f 37/2/6 36/3/6 35/3/6
f 36/3/6 37/2/6 38/2/6
f 39/3/2 37/2/2 35/3/2
f 37/2/2 39/3/2 40/2/2
f 41/2/4 36/3/4 38/2/4
f 36/3/4 41/2/4 42/3/4
f 41/2/5 39/3/5 42/3/5
f 39/3/5 41/2/5 40/2/5
f 37/2/3 41/2/3 38/2/3
f 41/2/3 37/2/3 40/2/3

g square-lq-brick-slope-2x4




usemtl colormap

f 3/1/1 2/2/1 1/1/1
f 2/2/1 3/1/1 4/2/1
f 6/3/2 1/1/2 5/3/2
f 1/1/2 6/3/2 3/1/2
f 2/2/3 8/2/3 7/2/3
f 8/2/3 2/2/3 4/2/3
f 8/2/4 9/3/4 7/2/4
f 9/3/4 8/2/4 10/3/4
f 8/2/5 6/3/5 10/3/5
f 6/3/5 8/2/5 3/1/5
f 3/1/5 8/2/5 4/2/5
f 1/1/6 9/3/6 5/3/6
f 9/3/6 1/1/6 7/2/6
f 7/2/6 1/1/6 2/2/6
f 6/3/7 9/3/7 10/3/7
f 9/3/7 6/3/7 5/3/7
f 13/2/6 12/3/6 11/3/6
f 12/3/6 13/2/6 14/2/6
f 15/3/2 13/2/2 11/3/2
f 13/2/2 15/3/2 16/2/2
f 17/2/4 12/3/4 14/2/4
f 12/3/4 17/2/4 18/3/4
f 17/2/5 15/3/5 18/3/5
f 15/3/5 17/2/5 16/2/5
f 13/2/3 17/2/3 14/2/3
f 17/2/3 13/2/3 16/2/3
f 21/2/6 20/3/6 19/3/6
f 20/3/6 21/2/6 22/2/6
f 23/3/2 21/2/2 19/3/2
f 21/2/2 23/3/2 24/2/2
f 25/2/4 20/3/4 22/2/4
f 20/3/4 25/2/4 26/3/4
f 25/2/5 23/3/5 26/3/5
f 23/3/5 25/2/5 24/2/5
f 21/2/3 25/2/3 22/2/3
f 25/2/3 21/2/3 24/2/3
f 29/2/6 28/3/6 27/3/6
f 28/3/6 29/2/6 30/2/6
f 31/3/2 29/2/2 27/3/2
f 29/2/2 31/3/2 32/2/2
f 33/2/4 28/3/4 30/2/4
f 28/3/4 33/2/4 34/3/4
f 33/2/5 31/3/5 34/3/5
f 31/3/5 33/2/5 32/2/5
f 29/2/3 33/2/3 30/2/3
f 33/2/3 29/2/3 32/2/3
f 37/2/6 36/3/6 35/3/6
f 36/3/6 37/2/6 38/2/6
f 39/3/2 37/2/2 35/3/2
f 37/2/2 39/3/2 40/2/2
f 41/2/4 36/3/4 38/2/4
f 36/3/4 41/2/4 42/3/4
f 41/2/5 39/3/5 42/3/5
f 39/3/5 41/2/5 40/2/5
f 37/2/3 41/2/3 38/2/3
f 41/2/3 37/2/3 40/2/3

