# Created by Kenney (www.kenney.nl)

mtllib square-hq-brick-slope-corner-inside-inverted-2x2.mtl

g square-hq-brick-slope-corner-inside-inverted-2x2

v 0 0 3.609557E-15 1 1 1
v -0.0795 0.08 0.0795 1 1 1
v -1.082867E-15 0 0.0795 1 1 1
v -0.0795 0 2.52669E-15 1 1 1
v -0.0795 0 -0.0795 1 1 1
v -0.0795 0.091 -0.0795 1 1 1
v -0.0795 0.091 0.0795 1 1 1
v -0.0745 0.096 -0.0745 1 1 1
v -0.0745 0.096 0.0745 1 1 1
v 0.0795 0 0.0795 1 1 1
v 0.0795 0.091 0.0795 1 1 1
v 0.0795 0 -0.0795 1 1 1
v 0.0795 0.091 -0.0795 1 1 1
v 0.0745 0.096 -0.0745 1 1 1
v 0.0745 0.096 0.0745 1 1 1
v 0.01575 0.096 -0.064 1 1 1
v 0.06375 0.096 -0.064 1 1 1
v 0.01575 0.109 -0.064 1 1 1
v 0.06375 0.109 -0.064 1 1 1
v 0.02075 0.114 -0.059 1 1 1
v 0.05875 0.114 -0.059 1 1 1
v 0.06375 0.096 -0.016 1 1 1
v 0.06375 0.109 -0.016 1 1 1
v 0.05875 0.114 -0.021 1 1 1
v 0.02075 0.114 -0.021 1 1 1
v 0.01575 0.109 -0.016 1 1 1
v 0.01575 0.096 -0.016 1 1 1
v 0.01575 0.096 0.015 1 1 1
v 0.06375 0.096 0.015 1 1 1
v 0.01575 0.109 0.015 1 1 1
v 0.06375 0.109 0.015 1 1 1
v 0.02075 0.114 0.02 1 1 1
v 0.05875 0.114 0.02 1 1 1
v 0.06375 0.096 0.063 1 1 1
v 0.06375 0.109 0.063 1 1 1
v 0.05875 0.114 0.058 1 1 1
v 0.02075 0.114 0.058 1 1 1
v 0.01575 0.109 0.063 1 1 1
v 0.01575 0.096 0.063 1 1 1
v -0.06375 0.096 -0.064 1 1 1
v -0.01575 0.096 -0.064 1 1 1
v -0.06375 0.109 -0.064 1 1 1
v -0.01575 0.109 -0.064 1 1 1
v -0.05875 0.114 -0.059 1 1 1
v -0.02075 0.114 -0.059 1 1 1
v -0.01575 0.096 -0.016 1 1 1
v -0.01575 0.109 -0.016 1 1 1
v -0.02075 0.114 -0.021 1 1 1
v -0.05875 0.114 -0.021 1 1 1
v -0.06375 0.109 -0.016 1 1 1
v -0.06375 0.096 -0.016 1 1 1
v -0.06375 0.096 0.015 1 1 1
v -0.01575 0.096 0.015 1 1 1
v -0.06375 0.109 0.015 1 1 1
v -0.01575 0.109 0.015 1 1 1
v -0.05875 0.114 0.02 1 1 1
v -0.02075 0.114 0.02 1 1 1
v -0.01575 0.096 0.063 1 1 1
v -0.01575 0.109 0.063 1 1 1
v -0.02075 0.114 0.058 1 1 1
v -0.05875 0.114 0.058 1 1 1
v -0.06375 0.109 0.063 1 1 1
v -0.06375 0.096 0.063 1 1 1

vn -0.7093199 -0.7048866 0
vn 0 -0.7048866 0.7093199
vn -1 0 0
vn -0.9576361 0.2879809 0
vn -0.7071068 0.7071068 0
vn 1 0 0
vn 0.9576361 0.2879809 0
vn 0.7071068 0.7071068 0
vn 0 0 1
vn 0 0.2879809 0.9576361
vn 0 0.7071068 0.7071068
vn 0 0 -1
vn 0 0.2879809 -0.9576361
vn 0 0.7071068 -0.7071068
vn 0 -1 0
vn 0 1 0

vt 0.59375 0.025
vt 0.59375 0.1916666
vt 0.59375 0.2145833
vt 0.59375 0.225
vt 0.59375 0.1694444

usemtl colormap

f 3/1/1 2/2/1 1/1/1
f 2/2/2 4/1/2 1/1/2
f 4/1/3 6/3/4 5/1/3
f 6/3/4 4/1/3 7/3/4
f 7/3/4 4/1/3 2/2/3
f 7/3/4 8/4/5 6/3/4
f 8/4/5 7/3/4 9/4/5
f 12/1/6 11/3/7 10/1/6
f 11/3/7 12/1/6 13/3/7
f 14/4/8 11/3/7 13/3/7
f 11/3/7 14/4/8 15/4/8
f 11/3/10 3/1/9 10/1/9
f 3/1/9 11/3/10 2/2/9
f 2/2/9 11/3/10 7/3/10
f 15/4/11 7/3/10 11/3/10
f 7/3/10 15/4/11 9/4/11
f 6/3/13 12/1/12 5/1/12
f 12/1/12 6/3/13 13/3/13
f 8/4/14 13/3/13 6/3/13
f 13/3/13 8/4/14 14/4/14
f 3/1/15 1/1/15 10/1/15
f 5/1/15 10/1/15 1/1/15
f 5/1/15 1/1/15 4/1/15
f 10/1/15 5/1/15 12/1/15
f 8/4/16 15/4/16 14/4/16
f 15/4/16 8/4/16 9/4/16
f 18/5/13 17/1/12 16/1/12
f 17/1/12 18/5/13 19/5/13
f 20/4/14 19/5/13 18/5/13
f 19/5/13 20/4/14 21/4/14
f 17/1/6 23/5/7 22/1/6
f 23/5/7 17/1/6 19/5/7
f 21/4/8 23/5/7 19/5/7
f 23/5/7 21/4/8 24/4/8
f 20/4/16 24/4/16 21/4/16
f 24/4/16 20/4/16 25/4/16
f 20/4/5 26/5/4 25/4/5
f 26/5/4 20/4/5 18/5/4
f 18/5/4 27/1/3 26/5/4
f 27/1/3 18/5/4 16/1/3
f 26/5/10 24/4/11 25/4/11
f 24/4/11 26/5/10 23/5/10
f 27/1/9 23/5/10 26/5/10
f 23/5/10 27/1/9 22/1/9
f 30/5/13 29/1/12 28/1/12
f 29/1/12 30/5/13 31/5/13
f 32/4/14 31/5/13 30/5/13
f 31/5/13 32/4/14 33/4/14
f 29/1/6 35/5/7 34/1/6
f 35/5/7 29/1/6 31/5/7
f 33/4/8 35/5/7 31/5/7
f 35/5/7 33/4/8 36/4/8
f 32/4/16 36/4/16 33/4/16
f 36/4/16 32/4/16 37/4/16
f 32/4/5 38/5/4 37/4/5
f 38/5/4 32/4/5 30/5/4
f 30/5/4 39/1/3 38/5/4
f 39/1/3 30/5/4 28/1/3
f 38/5/10 36/4/11 37/4/11
f 36/4/11 38/5/10 35/5/10
f 39/1/9 35/5/10 38/5/10
f 35/5/10 39/1/9 34/1/9
f 42/5/13 41/1/12 40/1/12
f 41/1/12 42/5/13 43/5/13
f 44/4/14 43/5/13 42/5/13
f 43/5/13 44/4/14 45/4/14
f 41/1/6 47/5/7 46/1/6
f 47/5/7 41/1/6 43/5/7
f 45/4/8 47/5/7 43/5/7
f 47/5/7 45/4/8 48/4/8
f 44/4/16 48/4/16 45/4/16
f 48/4/16 44/4/16 49/4/16
f 44/4/5 50/5/4 49/4/5
f 50/5/4 44/4/5 42/5/4
f 42/5/4 51/1/3 50/5/4
f 51/1/3 42/5/4 40/1/3
f 50/5/10 48/4/11 49/4/11
f 48/4/11 50/5/10 47/5/10
f 51/1/9 47/5/10 50/5/10
f 47/5/10 51/1/9 46/1/9
f 54/5/13 53/1/12 52/1/12
f 53/1/12 54/5/13 55/5/13
f 56/4/14 55/5/13 54/5/13
f 55/5/13 56/4/14 57/4/14
f 53/1/6 59/5/7 58/1/6
f 59/5/7 53/1/6 55/5/7
f 57/4/8 59/5/7 55/5/7
f 59/5/7 57/4/8 60/4/8
f 56/4/16 60/4/16 57/4/16
f 60/4/16 56/4/16 61/4/16
f 56/4/5 62/5/4 61/4/5
f 62/5/4 56/4/5 54/5/4
f 54/5/4 63/1/3 62/5/4
f 63/1/3 54/5/4 52/1/3
f 62/5/10 60/4/11 61/4/11
f 60/4/11 62/5/10 59/5/10
f 63/1/9 59/5/10 62/5/10
f 59/5/10 63/1/9 58/1/9

g square-hq-brick-slope-corner-inside-inverted-2x2




usemtl colormap

f 3/1/1 2/2/1 1/1/1
f 2/2/2 4/1/2 1/1/2
f 4/1/3 6/3/4 5/1/3
f 6/3/4 4/1/3 7/3/4
f 7/3/4 4/1/3 2/2/3
f 7/3/4 8/4/5 6/3/4
f 8/4/5 7/3/4 9/4/5
f 12/1/6 11/3/7 10/1/6
f 11/3/7 12/1/6 13/3/7
f 14/4/8 11/3/7 13/3/7
f 11/3/7 14/4/8 15/4/8
f 11/3/10 3/1/9 10/1/9
f 3/1/9 11/3/10 2/2/9
f 2/2/9 11/3/10 7/3/10
f 15/4/11 7/3/10 11/3/10
f 7/3/10 15/4/11 9/4/11
f 6/3/13 12/1/12 5/1/12
f 12/1/12 6/3/13 13/3/13
f 8/4/14 13/3/13 6/3/13
f 13/3/13 8/4/14 14/4/14
f 3/1/15 1/1/15 10/1/15
f 5/1/15 10/1/15 1/1/15
f 5/1/15 1/1/15 4/1/15
f 10/1/15 5/1/15 12/1/15
f 8/4/16 15/4/16 14/4/16
f 15/4/16 8/4/16 9/4/16
f 18/5/13 17/1/12 16/1/12
f 17/1/12 18/5/13 19/5/13
f 20/4/14 19/5/13 18/5/13
f 19/5/13 20/4/14 21/4/14
f 17/1/6 23/5/7 22/1/6
f 23/5/7 17/1/6 19/5/7
f 21/4/8 23/5/7 19/5/7
f 23/5/7 21/4/8 24/4/8
f 20/4/16 24/4/16 21/4/16
f 24/4/16 20/4/16 25/4/16
f 20/4/5 26/5/4 25/4/5
f 26/5/4 20/4/5 18/5/4
f 18/5/4 27/1/3 26/5/4
f 27/1/3 18/5/4 16/1/3
f 26/5/10 24/4/11 25/4/11
f 24/4/11 26/5/10 23/5/10
f 27/1/9 23/5/10 26/5/10
f 23/5/10 27/1/9 22/1/9
f 30/5/13 29/1/12 28/1/12
f 29/1/12 30/5/13 31/5/13
f 32/4/14 31/5/13 30/5/13
f 31/5/13 32/4/14 33/4/14
f 29/1/6 35/5/7 34/1/6
f 35/5/7 29/1/6 31/5/7
f 33/4/8 35/5/7 31/5/7
f 35/5/7 33/4/8 36/4/8
f 32/4/16 36/4/16 33/4/16
f 36/4/16 32/4/16 37/4/16
f 32/4/5 38/5/4 37/4/5
f 38/5/4 32/4/5 30/5/4
f 30/5/4 39/1/3 38/5/4
f 39/1/3 30/5/4 28/1/3
f 38/5/10 36/4/11 37/4/11
f 36/4/11 38/5/10 35/5/10
f 39/1/9 35/5/10 38/5/10
f 35/5/10 39/1/9 34/1/9
f 42/5/13 41/1/12 40/1/12
f 41/1/12 42/5/13 43/5/13
f 44/4/14 43/5/13 42/5/13
f 43/5/13 44/4/14 45/4/14
f 41/1/6 47/5/7 46/1/6
f 47/5/7 41/1/6 43/5/7
f 45/4/8 47/5/7 43/5/7
f 47/5/7 45/4/8 48/4/8
f 44/4/16 48/4/16 45/4/16
f 48/4/16 44/4/16 49/4/16
f 44/4/5 50/5/4 49/4/5
f 50/5/4 44/4/5 42/5/4
f 42/5/4 51/1/3 50/5/4
f 51/1/3 42/5/4 40/1/3
f 50/5/10 48/4/11 49/4/11
f 48/4/11 50/5/10 47/5/10
f 51/1/9 47/5/10 50/5/10
f 47/5/10 51/1/9 46/1/9
f 54/5/13 53/1/12 52/1/12
f 53/1/12 54/5/13 55/5/13
f 56/4/14 55/5/13 54/5/13
f 55/5/13 56/4/14 57/4/14
f 53/1/6 59/5/7 58/1/6
f 59/5/7 53/1/6 55/5/7
f 57/4/8 59/5/7 55/5/7
f 59/5/7 57/4/8 60/4/8
f 56/4/16 60/4/16 57/4/16
f 60/4/16 56/4/16 61/4/16
f 56/4/5 62/5/4 61/4/5
f 62/5/4 56/4/5 54/5/4
f 54/5/4 63/1/3 62/5/4
f 63/1/3 54/5/4 52/1/3
f 62/5/10 60/4/11 61/4/11
f 60/4/11 62/5/10 59/5/10
f 63/1/9 59/5/10 62/5/10
f 59/5/10 63/1/9 58/1/9

