# Created by Kenney (www.kenney.nl)

mtllib square-hq-brick-slope-inverted-2x2.mtl

g square-hq-brick-slope-inverted-2x2

v 0 0 -0.079 1 1 1
v -0.0795 0.08 -0.079 1 1 1
v 0 0 0.079 1 1 1
v -0.0795 0.08 0.079 1 1 1
v 0.0795 0 0.079 1 1 1
v 0.0795 0 -0.079 1 1 1
v 0.0795 0.091 0.079 1 1 1
v 0.0795 0.091 -0.079 1 1 1
v 0.0745 0.096 -0.074 1 1 1
v 0.0745 0.096 0.074 1 1 1
v -0.0795 0.091 -0.079 1 1 1
v -0.0745 0.096 -0.074 1 1 1
v -0.0795 0.091 0.079 1 1 1
v -0.0745 0.096 0.074 1 1 1
v -0.06375 0.096 0.0155 1 1 1
v -0.01575 0.096 0.0155 1 1 1
v -0.06375 0.109 0.0155 1 1 1
v -0.01575 0.109 0.0155 1 1 1
v -0.05875 0.114 0.0205 1 1 1
v -0.02075 0.114 0.0205 1 1 1
v -0.01575 0.096 0.0635 1 1 1
v -0.01575 0.109 0.0635 1 1 1
v -0.02075 0.114 0.0585 1 1 1
v -0.05875 0.114 0.0585 1 1 1
v -0.06375 0.109 0.0635 1 1 1
v -0.06375 0.096 0.0635 1 1 1
v 0.01575 0.096 0.0155 1 1 1
v 0.06375 0.096 0.0155 1 1 1
v 0.01575 0.109 0.0155 1 1 1
v 0.06375 0.109 0.0155 1 1 1
v 0.02075 0.114 0.0205 1 1 1
v 0.05875 0.114 0.0205 1 1 1
v 0.06375 0.096 0.0635 1 1 1
v 0.06375 0.109 0.0635 1 1 1
v 0.05875 0.114 0.0585 1 1 1
v 0.02075 0.114 0.0585 1 1 1
v 0.01575 0.109 0.0635 1 1 1
v 0.01575 0.096 0.0635 1 1 1
v -0.06375 0.096 -0.0635 1 1 1
v -0.01575 0.096 -0.0635 1 1 1
v -0.06375 0.109 -0.0635 1 1 1
v -0.01575 0.109 -0.0635 1 1 1
v -0.05875 0.114 -0.0585 1 1 1
v -0.02075 0.114 -0.0585 1 1 1
v -0.01575 0.096 -0.0155 1 1 1
v -0.01575 0.109 -0.0155 1 1 1
v -0.02075 0.114 -0.0205 1 1 1
v -0.05875 0.114 -0.0205 1 1 1
v -0.06375 0.109 -0.0155 1 1 1
v -0.06375 0.096 -0.0155 1 1 1
v 0.01575 0.096 -0.0635 1 1 1
v 0.06375 0.096 -0.0635 1 1 1
v 0.01575 0.109 -0.0635 1 1 1
v 0.06375 0.109 -0.0635 1 1 1
v 0.02075 0.114 -0.0585 1 1 1
v 0.05875 0.114 -0.0585 1 1 1
v 0.06375 0.096 -0.0155 1 1 1
v 0.06375 0.109 -0.0155 1 1 1
v 0.05875 0.114 -0.0205 1 1 1
v 0.02075 0.114 -0.0205 1 1 1
v 0.01575 0.109 -0.0155 1 1 1
v 0.01575 0.096 -0.0155 1 1 1

vn -0.7093199 -0.7048866 0
vn 0 -1 0
vn 1 0 0
vn 0.9576361 0.2879809 0
vn 0.7071068 0.7071068 0
vn 0 0 -1
vn 0 0.2879809 -0.9576361
vn 0 0.7071068 -0.7071068
vn -1 0 0
vn -0.9576361 0.2879809 0
vn -0.7071068 0.7071068 0
vn 0 0 1
vn 0 0.2879809 0.9576361
vn 0 0.7071068 0.7071068
vn 0 1 0

vt 0.59375 0.025
vt 0.59375 0.1916666
vt 0.59375 0.2145833
vt 0.59375 0.225
vt 0.59375 0.1694444

usemtl colormap

f 3/1/1 2/2/1 1/1/1
f 2/2/1 3/1/1 4/2/1
f 3/1/2 6/1/2 5/1/2
f 6/1/2 3/1/2 1/1/2
f 6/1/3 7/3/4 5/1/3
f 7/3/4 6/1/3 8/3/4
f 9/4/5 7/3/4 8/3/4
f 7/3/4 9/4/5 10/4/5
f 2/2/6 6/1/6 1/1/6
f 6/1/6 2/2/6 8/3/7
f 8/3/7 2/2/6 11/3/7
f 11/3/7 9/4/8 8/3/7
f 9/4/8 11/3/7 12/4/8
f 4/2/9 11/3/10 2/2/9
f 11/3/10 4/2/9 13/3/10
f 13/3/10 12/4/11 11/3/10
f 12/4/11 13/3/10 14/4/11
f 7/3/13 3/1/12 5/1/12
f 3/1/12 7/3/13 4/2/12
f 4/2/12 7/3/13 13/3/13
f 10/4/14 13/3/13 7/3/13
f 13/3/13 10/4/14 14/4/14
f 12/4/15 10/4/15 9/4/15
f 10/4/15 12/4/15 14/4/15
f 17/5/7 16/1/6 15/1/6
f 16/1/6 17/5/7 18/5/7
f 19/4/8 18/5/7 17/5/7
f 18/5/7 19/4/8 20/4/8
f 16/1/3 22/5/4 21/1/3
f 22/5/4 16/1/3 18/5/4
f 20/4/5 22/5/4 18/5/4
f 22/5/4 20/4/5 23/4/5
f 19/4/15 23/4/15 20/4/15
f 23/4/15 19/4/15 24/4/15
f 19/4/11 25/5/10 24/4/11
f 25/5/10 19/4/11 17/5/10
f 17/5/10 26/1/9 25/5/10
f 26/1/9 17/5/10 15/1/9
f 25/5/13 23/4/14 24/4/14
f 23/4/14 25/5/13 22/5/13
f 26/1/12 22/5/13 25/5/13
f 22/5/13 26/1/12 21/1/12
f 29/5/7 28/1/6 27/1/6
f 28/1/6 29/5/7 30/5/7
f 31/4/8 30/5/7 29/5/7
f 30/5/7 31/4/8 32/4/8
f 28/1/3 34/5/4 33/1/3
f 34/5/4 28/1/3 30/5/4
f 32/4/5 34/5/4 30/5/4
f 34/5/4 32/4/5 35/4/5
f 31/4/15 35/4/15 32/4/15
f 35/4/15 31/4/15 36/4/15
f 31/4/11 37/5/10 36/4/11
f 37/5/10 31/4/11 29/5/10
f 29/5/10 38/1/9 37/5/10
f 38/1/9 29/5/10 27/1/9
f 37/5/13 35/4/14 36/4/14
f 35/4/14 37/5/13 34/5/13
f 38/1/12 34/5/13 37/5/13
f 34/5/13 38/1/12 33/1/12
f 41/5/7 40/1/6 39/1/6
f 40/1/6 41/5/7 42/5/7
f 43/4/8 42/5/7 41/5/7
f 42/5/7 43/4/8 44/4/8
f 40/1/3 46/5/4 45/1/3
f 46/5/4 40/1/3 42/5/4
f 44/4/5 46/5/4 42/5/4
f 46/5/4 44/4/5 47/4/5
f 43/4/15 47/4/15 44/4/15
f 47/4/15 43/4/15 48/4/15
f 43/4/11 49/5/10 48/4/11
f 49/5/10 43/4/11 41/5/10
f 41/5/10 50/1/9 49/5/10
f 50/1/9 41/5/10 39/1/9
f 49/5/13 47/4/14 48/4/14
f 47/4/14 49/5/13 46/5/13
f 50/1/12 46/5/13 49/5/13
f 46/5/13 50/1/12 45/1/12
f 53/5/7 52/1/6 51/1/6
f 52/1/6 53/5/7 54/5/7
f 55/4/8 54/5/7 53/5/7
f 54/5/7 55/4/8 56/4/8
f 52/1/3 58/5/4 57/1/3
f 58/5/4 52/1/3 54/5/4
f 56/4/5 58/5/4 54/5/4
f 58/5/4 56/4/5 59/4/5
f 55/4/15 59/4/15 56/4/15
f 59/4/15 55/4/15 60/4/15
f 55/4/11 61/5/10 60/4/11
f 61/5/10 55/4/11 53/5/10
f 53/5/10 62/1/9 61/5/10
f 62/1/9 53/5/10 51/1/9
f 61/5/13 59/4/14 60/4/14
f 59/4/14 61/5/13 58/5/13
f 62/1/12 58/5/13 61/5/13
f 58/5/13 62/1/12 57/1/12

g square-hq-brick-slope-inverted-2x2




usemtl colormap

f 3/1/1 2/2/1 1/1/1
f 2/2/1 3/1/1 4/2/1
f 3/1/2 6/1/2 5/1/2
f 6/1/2 3/1/2 1/1/2
f 6/1/3 7/3/4 5/1/3
f 7/3/4 6/1/3 8/3/4
f 9/4/5 7/3/4 8/3/4
f 7/3/4 9/4/5 10/4/5
f 2/2/6 6/1/6 1/1/6
f 6/1/6 2/2/6 8/3/7
f 8/3/7 2/2/6 11/3/7
f 11/3/7 9/4/8 8/3/7
f 9/4/8 11/3/7 12/4/8
f 4/2/9 11/3/10 2/2/9
f 11/3/10 4/2/9 13/3/10
f 13/3/10 12/4/11 11/3/10
f 12/4/11 13/3/10 14/4/11
f 7/3/13 3/1/12 5/1/12
f 3/1/12 7/3/13 4/2/12
f 4/2/12 7/3/13 13/3/13
f 10/4/14 13/3/13 7/3/13
f 13/3/13 10/4/14 14/4/14
f 12/4/15 10/4/15 9/4/15
f 10/4/15 12/4/15 14/4/15
f 17/5/7 16/1/6 15/1/6
f 16/1/6 17/5/7 18/5/7
f 19/4/8 18/5/7 17/5/7
f 18/5/7 19/4/8 20/4/8
f 16/1/3 22/5/4 21/1/3
f 22/5/4 16/1/3 18/5/4
f 20/4/5 22/5/4 18/5/4
f 22/5/4 20/4/5 23/4/5
f 19/4/15 23/4/15 20/4/15
f 23/4/15 19/4/15 24/4/15
f 19/4/11 25/5/10 24/4/11
f 25/5/10 19/4/11 17/5/10
f 17/5/10 26/1/9 25/5/10
f 26/1/9 17/5/10 15/1/9
f 25/5/13 23/4/14 24/4/14
f 23/4/14 25/5/13 22/5/13
f 26/1/12 22/5/13 25/5/13
f 22/5/13 26/1/12 21/1/12
f 29/5/7 28/1/6 27/1/6
f 28/1/6 29/5/7 30/5/7
f 31/4/8 30/5/7 29/5/7
f 30/5/7 31/4/8 32/4/8
f 28/1/3 34/5/4 33/1/3
f 34/5/4 28/1/3 30/5/4
f 32/4/5 34/5/4 30/5/4
f 34/5/4 32/4/5 35/4/5
f 31/4/15 35/4/15 32/4/15
f 35/4/15 31/4/15 36/4/15
f 31/4/11 37/5/10 36/4/11
f 37/5/10 31/4/11 29/5/10
f 29/5/10 38/1/9 37/5/10
f 38/1/9 29/5/10 27/1/9
f 37/5/13 35/4/14 36/4/14
f 35/4/14 37/5/13 34/5/13
f 38/1/12 34/5/13 37/5/13
f 34/5/13 38/1/12 33/1/12
f 41/5/7 40/1/6 39/1/6
f 40/1/6 41/5/7 42/5/7
f 43/4/8 42/5/7 41/5/7
f 42/5/7 43/4/8 44/4/8
f 40/1/3 46/5/4 45/1/3
f 46/5/4 40/1/3 42/5/4
f 44/4/5 46/5/4 42/5/4
f 46/5/4 44/4/5 47/4/5
f 43/4/15 47/4/15 44/4/15
f 47/4/15 43/4/15 48/4/15
f 43/4/11 49/5/10 48/4/11
f 49/5/10 43/4/11 41/5/10
f 41/5/10 50/1/9 49/5/10
f 50/1/9 41/5/10 39/1/9
f 49/5/13 47/4/14 48/4/14
f 47/4/14 49/5/13 46/5/13
f 50/1/12 46/5/13 49/5/13
f 46/5/13 50/1/12 45/1/12
f 53/5/7 52/1/6 51/1/6
f 52/1/6 53/5/7 54/5/7
f 55/4/8 54/5/7 53/5/7
f 54/5/7 55/4/8 56/4/8
f 52/1/3 58/5/4 57/1/3
f 58/5/4 52/1/3 54/5/4
f 56/4/5 58/5/4 54/5/4
f 58/5/4 56/4/5 59/4/5
f 55/4/15 59/4/15 56/4/15
f 59/4/15 55/4/15 60/4/15
f 55/4/11 61/5/10 60/4/11
f 61/5/10 55/4/11 53/5/10
f 53/5/10 62/1/9 61/5/10
f 62/1/9 53/5/10 51/1/9
f 61/5/13 59/4/14 60/4/14
f 59/4/14 61/5/13 58/5/13
f 62/1/12 58/5/13 61/5/13
f 58/5/13 62/1/12 57/1/12

