# Created by Kenney (www.kenney.nl)

mtllib square-lq-brick-1x1.mtl

g square-lq-brick-1x1

v 0.03975 0.096 -0.0395 1 1 1
v 0.03975 0 -0.0395 1 1 1
v 0.03975 0.096 0.0395 1 1 1
v 0.03975 0 0.0395 1 1 1
v -0.03975 0 -0.0395 1 1 1
v -0.03975 0.096 -0.0395 1 1 1
v -0.03975 0 0.0395 1 1 1
v -0.03975 0.096 0.0395 1 1 1
v -0.024 0.096 -0.024 1 1 1
v 0.024 0.096 -0.024 1 1 1
v -0.024 0.114 -0.024 1 1 1
v 0.024 0.114 -0.024 1 1 1
v -0.024 0.096 0.024 1 1 1
v -0.024 0.114 0.024 1 1 1
v 0.024 0.114 0.024 1 1 1
v 0.024 0.096 0.024 1 1 1

vn 1 0 0
vn -1 0 0
vn 0 0 1
vn 0 1 0
vn 0 -1 0
vn 0 0 -1

vt 0.59375 0.225
vt 0.59375 0.025

usemtl colormap

f 3/1/1 2/2/1 1/1/1
f 2/2/1 3/1/1 4/2/1
f 7/2/2 6/1/2 5/2/2
f 6/1/2 7/2/2 8/1/2
f 3/1/3 7/2/3 4/2/3
f 7/2/3 3/1/3 8/1/3
f 6/1/4 3/1/4 1/1/4
f 3/1/4 6/1/4 8/1/4
f 7/2/5 2/2/5 4/2/5
f 2/2/5 7/2/5 5/2/5
f 6/1/6 2/2/6 5/2/6
f 2/2/6 6/1/6 1/1/6
f 11/1/6 10/2/6 9/2/6
f 10/2/6 11/1/6 12/1/6
f 13/2/2 11/1/2 9/2/2
f 11/1/2 13/2/2 14/1/2
f 15/1/1 10/2/1 12/1/1
f 10/2/1 15/1/1 16/2/1
f 15/1/3 13/2/3 16/2/3
f 13/2/3 15/1/3 14/1/3
f 11/1/4 15/1/4 12/1/4
f 15/1/4 11/1/4 14/1/4

g square-lq-brick-1x1




usemtl colormap

f 3/1/1 2/2/1 1/1/1
f 2/2/1 3/1/1 4/2/1
f 7/2/2 6/1/2 5/2/2
f 6/1/2 7/2/2 8/1/2
f 3/1/3 7/2/3 4/2/3
f 7/2/3 3/1/3 8/1/3
f 6/1/4 3/1/4 1/1/4
f 3/1/4 6/1/4 8/1/4
f 7/2/5 2/2/5 4/2/5
f 2/2/5 7/2/5 5/2/5
f 6/1/6 2/2/6 5/2/6
f 2/2/6 6/1/6 1/1/6
f 11/1/6 10/2/6 9/2/6
f 10/2/6 11/1/6 12/1/6
f 13/2/2 11/1/2 9/2/2
f 11/1/2 13/2/2 14/1/2
f 15/1/1 10/2/1 12/1/1
f 10/2/1 15/1/1 16/2/1
f 15/1/3 13/2/3 16/2/3
f 13/2/3 15/1/3 14/1/3
f 11/1/4 15/1/4 12/1/4
f 15/1/4 11/1/4 14/1/4

