# Created by Kenney (www.kenney.nl)

mtllib square-lq-brick-corner.mtl

g square-lq-brick-corner

v 0.0795 0.096 -0.079 1 1 1
v 0.0795 0.096 0.079 1 1 1
v -0.0795 0.096 -0.079 1 1 1
v 0 0.096 0 1 1 1
v -0.0795 0.096 0 1 1 1
v 0 0.096 0.079 1 1 1
v -0.0795 0 -0.079 1 1 1
v 0.0795 0 -0.079 1 1 1
v -0.0795 0 0 1 1 1
v 0.0795 0 0.079 1 1 1
v 0 0 0.079 1 1 1
v 0 0 0 1 1 1
v 0.01575 0.096 -0.0635 1 1 1
v 0.06375 0.096 -0.0635 1 1 1
v 0.01575 0.114 -0.0635 1 1 1
v 0.06375 0.114 -0.0635 1 1 1
v 0.01575 0.096 -0.0155 1 1 1
v 0.01575 0.114 -0.0155 1 1 1
v 0.06375 0.114 -0.0155 1 1 1
v 0.06375 0.096 -0.0155 1 1 1
v 0.01575 0.096 0.0155 1 1 1
v 0.06375 0.096 0.0155 1 1 1
v 0.01575 0.114 0.0155 1 1 1
v 0.06375 0.114 0.0155 1 1 1
v 0.01575 0.096 0.0635 1 1 1
v 0.01575 0.114 0.0635 1 1 1
v 0.06375 0.114 0.0635 1 1 1
v 0.06375 0.096 0.0635 1 1 1
v -0.06375 0.096 -0.0635 1 1 1
v -0.01575 0.096 -0.0635 1 1 1
v -0.06375 0.114 -0.0635 1 1 1
v -0.01575 0.114 -0.0635 1 1 1
v -0.06375 0.096 -0.0155 1 1 1
v -0.06375 0.114 -0.0155 1 1 1
v -0.01575 0.114 -0.0155 1 1 1
v -0.01575 0.096 -0.0155 1 1 1

vn 0 1 0
vn 0 0 -1
vn -1 0 0
vn 0 -1 0
vn 1 0 0
vn 0 0 1

vt 0.59375 0.225
vt 0.59375 0.025

usemtl colormap

f 3/1/1 2/1/1 1/1/1
f 2/1/1 3/1/1 4/1/1
f 4/1/1 3/1/1 5/1/1
f 6/1/1 2/1/1 4/1/1
f 3/1/2 8/2/2 7/2/2
f 8/2/2 3/1/2 1/1/2
f 9/2/3 3/1/3 7/2/3
f 3/1/3 9/2/3 5/1/3
f 11/2/4 8/2/4 10/2/4
f 8/2/4 11/2/4 12/2/4
f 8/2/4 12/2/4 7/2/4
f 7/2/4 12/2/4 9/2/4
f 2/1/5 8/2/5 1/1/5
f 8/2/5 2/1/5 10/2/5
f 2/1/6 11/2/6 10/2/6
f 11/2/6 2/1/6 6/1/6
f 11/2/3 4/1/3 12/2/3
f 4/1/3 11/2/3 6/1/3
f 4/1/6 9/2/6 12/2/6
f 9/2/6 4/1/6 5/1/6
f 15/1/2 14/2/2 13/2/2
f 14/2/2 15/1/2 16/1/2
f 17/2/3 15/1/3 13/2/3
f 15/1/3 17/2/3 18/1/3
f 19/1/5 14/2/5 16/1/5
f 14/2/5 19/1/5 20/2/5
f 19/1/6 17/2/6 20/2/6
f 17/2/6 19/1/6 18/1/6
f 15/1/1 19/1/1 16/1/1
f 19/1/1 15/1/1 18/1/1
f 23/1/2 22/2/2 21/2/2
f 22/2/2 23/1/2 24/1/2
f 25/2/3 23/1/3 21/2/3
f 23/1/3 25/2/3 26/1/3
f 27/1/5 22/2/5 24/1/5
f 22/2/5 27/1/5 28/2/5
f 27/1/6 25/2/6 28/2/6
f 25/2/6 27/1/6 26/1/6
f 23/1/1 27/1/1 24/1/1
f 27/1/1 23/1/1 26/1/1
f 31/1/2 30/2/2 29/2/2
f 30/2/2 31/1/2 32/1/2
f 33/2/3 31/1/3 29/2/3
f 31/1/3 33/2/3 34/1/3
f 35/1/5 30/2/5 32/1/5
f 30/2/5 35/1/5 36/2/5
f 35/1/6 33/2/6 36/2/6
f 33/2/6 35/1/6 34/1/6
f 31/1/1 35/1/1 32/1/1
f 35/1/1 31/1/1 34/1/1

g square-lq-brick-corner




usemtl colormap

f 3/1/1 2/1/1 1/1/1
f 2/1/1 3/1/1 4/1/1
f 4/1/1 3/1/1 5/1/1
f 6/1/1 2/1/1 4/1/1
f 3/1/2 8/2/2 7/2/2
f 8/2/2 3/1/2 1/1/2
f 9/2/3 3/1/3 7/2/3
f 3/1/3 9/2/3 5/1/3
f 11/2/4 8/2/4 10/2/4
f 8/2/4 11/2/4 12/2/4
f 8/2/4 12/2/4 7/2/4
f 7/2/4 12/2/4 9/2/4
f 2/1/5 8/2/5 1/1/5
f 8/2/5 2/1/5 10/2/5
f 2/1/6 11/2/6 10/2/6
f 11/2/6 2/1/6 6/1/6
f 11/2/3 4/1/3 12/2/3
f 4/1/3 11/2/3 6/1/3
f 4/1/6 9/2/6 12/2/6
f 9/2/6 4/1/6 5/1/6
f 15/1/2 14/2/2 13/2/2
f 14/2/2 15/1/2 16/1/2
f 17/2/3 15/1/3 13/2/3
f 15/1/3 17/2/3 18/1/3
f 19/1/5 14/2/5 16/1/5
f 14/2/5 19/1/5 20/2/5
f 19/1/6 17/2/6 20/2/6
f 17/2/6 19/1/6 18/1/6
f 15/1/1 19/1/1 16/1/1
f 19/1/1 15/1/1 18/1/1
f 23/1/2 22/2/2 21/2/2
f 22/2/2 23/1/2 24/1/2
f 25/2/3 23/1/3 21/2/3
f 23/1/3 25/2/3 26/1/3
f 27/1/5 22/2/5 24/1/5
f 22/2/5 27/1/5 28/2/5
f 27/1/6 25/2/6 28/2/6
f 25/2/6 27/1/6 26/1/6
f 23/1/1 27/1/1 24/1/1
f 27/1/1 23/1/1 26/1/1
f 31/1/2 30/2/2 29/2/2
f 30/2/2 31/1/2 32/1/2
f 33/2/3 31/1/3 29/2/3
f 31/1/3 33/2/3 34/1/3
f 35/1/5 30/2/5 32/1/5
f 30/2/5 35/1/5 36/2/5
f 35/1/6 33/2/6 36/2/6
f 33/2/6 35/1/6 34/1/6
f 31/1/1 35/1/1 32/1/1
f 35/1/1 31/1/1 34/1/1

