# Created by Kenney (www.kenney.nl)

mtllib square-hq-brick-1x1.mtl

g square-hq-brick-1x1

v 0.03975 0 0.0395 1 1 1
v 0.03975 0 -0.0395 1 1 1
v -0.03975 0 0.0395 1 1 1
v -0.03975 0 -0.0395 1 1 1
v -0.03975 0.091 -0.0395 1 1 1
v -0.03975 0.091 0.0395 1 1 1
v -0.03475 0.096 -0.0345 1 1 1
v -0.03475 0.096 0.0345 1 1 1
v 0.03975 0.091 0.0395 1 1 1
v 0.03475 0.096 0.0345 1 1 1
v 0.03975 0.091 -0.0395 1 1 1
v 0.03475 0.096 -0.0345 1 1 1
v -0.024 0.096 -0.024 1 1 1
v 0.024 0.096 -0.024 1 1 1
v -0.024 0.109 -0.024 1 1 1
v 0.024 0.109 -0.024 1 1 1
v -0.019 0.114 -0.019 1 1 1
v 0.019 0.114 -0.019 1 1 1
v 0.024 0.096 0.024 1 1 1
v 0.024 0.109 0.024 1 1 1
v 0.019 0.114 0.019 1 1 1
v -0.019 0.114 0.019 1 1 1
v -0.024 0.109 0.024 1 1 1
v -0.024 0.096 0.024 1 1 1

vn 0 -1 0
vn -1 0 0
vn -0.9576361 0.2879809 0
vn -0.7071068 0.7071068 0
vn 0 0 1
vn 0 0.2879809 0.9576361
vn 0 0.7071068 0.7071068
vn 0 0 -1
vn 0 0.2879809 -0.9576361
vn 0 0.7071068 -0.7071068
vn 0 1 0
vn 1 0 0
vn 0.9576361 0.2879809 0
vn 0.7071068 0.7071068 0

vt 0.59375 0.025
vt 0.59375 0.2145833
vt 0.59375 0.225
vt 0.59375 0.1694444

usemtl colormap

f 3/1/1 2/1/1 1/1/1
f 2/1/1 3/1/1 4/1/1
f 3/1/2 5/2/3 4/1/2
f 5/2/3 3/1/2 6/2/3
f 6/2/3 7/3/4 5/2/3
f 7/3/4 6/2/3 8/3/4
f 9/2/6 3/1/5 1/1/5
f 3/1/5 9/2/6 6/2/6
f 10/3/7 6/2/6 9/2/6
f 6/2/6 10/3/7 8/3/7
f 5/2/9 2/1/8 4/1/8
f 2/1/8 5/2/9 11/2/9
f 7/3/10 11/2/9 5/2/9
f 11/2/9 7/3/10 12/3/10
f 7/3/11 10/3/11 12/3/11
f 10/3/11 7/3/11 8/3/11
f 2/1/12 9/2/13 1/1/12
f 9/2/13 2/1/12 11/2/13
f 12/3/14 9/2/13 11/2/13
f 9/2/13 12/3/14 10/3/14
f 15/4/9 14/1/8 13/1/8
f 14/1/8 15/4/9 16/4/9
f 17/3/10 16/4/9 15/4/9
f 16/4/9 17/3/10 18/3/10
f 14/1/12 20/4/13 19/1/12
f 20/4/13 14/1/12 16/4/13
f 18/3/14 20/4/13 16/4/13
f 20/4/13 18/3/14 21/3/14
f 17/3/11 21/3/11 18/3/11
f 21/3/11 17/3/11 22/3/11
f 17/3/4 23/4/3 22/3/4
f 23/4/3 17/3/4 15/4/3
f 15/4/3 24/1/2 23/4/3
f 24/1/2 15/4/3 13/1/2
f 23/4/6 21/3/7 22/3/7
f 21/3/7 23/4/6 20/4/6
f 24/1/5 20/4/6 23/4/6
f 20/4/6 24/1/5 19/1/5

g square-hq-brick-1x1




usemtl colormap

f 3/1/1 2/1/1 1/1/1
f 2/1/1 3/1/1 4/1/1
f 3/1/2 5/2/3 4/1/2
f 5/2/3 3/1/2 6/2/3
f 6/2/3 7/3/4 5/2/3
f 7/3/4 6/2/3 8/3/4
f 9/2/6 3/1/5 1/1/5
f 3/1/5 9/2/6 6/2/6
f 10/3/7 6/2/6 9/2/6
f 6/2/6 10/3/7 8/3/7
f 5/2/9 2/1/8 4/1/8
f 2/1/8 5/2/9 11/2/9
f 7/3/10 11/2/9 5/2/9
f 11/2/9 7/3/10 12/3/10
f 7/3/11 10/3/11 12/3/11
f 10/3/11 7/3/11 8/3/11
f 2/1/12 9/2/13 1/1/12
f 9/2/13 2/1/12 11/2/13
f 12/3/14 9/2/13 11/2/13
f 9/2/13 12/3/14 10/3/14
f 15/4/9 14/1/8 13/1/8
f 14/1/8 15/4/9 16/4/9
f 17/3/10 16/4/9 15/4/9
f 16/4/9 17/3/10 18/3/10
f 14/1/12 20/4/13 19/1/12
f 20/4/13 14/1/12 16/4/13
f 18/3/14 20/4/13 16/4/13
f 20/4/13 18/3/14 21/3/14
f 17/3/11 21/3/11 18/3/11
f 21/3/11 17/3/11 22/3/11
f 17/3/4 23/4/3 22/3/4
f 23/4/3 17/3/4 15/4/3
f 15/4/3 24/1/2 23/4/3
f 24/1/2 15/4/3 13/1/2
f 23/4/6 21/3/7 22/3/7
f 21/3/7 23/4/6 20/4/6
f 24/1/5 20/4/6 23/4/6
f 20/4/6 24/1/5 19/1/5

