# Created by Kenney (www.kenney.nl)

mtllib square-lq-brick-slope-inverted-1x2.mtl

g square-lq-brick-slope-inverted-1x2

v 0.0795 0.096 -0.0395 1 1 1
v 0.0795 0.096 0.0395 1 1 1
v -0.0795 0.096 -0.0395 1 1 1
v -0.0795 0.096 0.0395 1 1 1
v 0.0795 0 0.0395 1 1 1
v 0 0 0.0395 1 1 1
v -0.0795 0.08 0.0395 1 1 1
v 0.0795 0 -0.0395 1 1 1
v 0 0 -0.0395 1 1 1
v -0.0795 0.08 -0.0395 1 1 1
v 0.01575 0.096 -0.024 1 1 1
v 0.06375 0.096 -0.024 1 1 1
v 0.01575 0.114 -0.024 1 1 1
v 0.06375 0.114 -0.024 1 1 1
v 0.01575 0.096 0.024 1 1 1
v 0.01575 0.114 0.024 1 1 1
v 0.06375 0.114 0.024 1 1 1
v 0.06375 0.096 0.024 1 1 1
v -0.06375 0.096 -0.024 1 1 1
v -0.01575 0.096 -0.024 1 1 1
v -0.06375 0.114 -0.024 1 1 1
v -0.01575 0.114 -0.024 1 1 1
v -0.06375 0.096 0.024 1 1 1
v -0.06375 0.114 0.024 1 1 1
v -0.01575 0.114 0.024 1 1 1
v -0.01575 0.096 0.024 1 1 1

vn 0 1 0
vn 0 0 1
vn 1 0 0
vn 0 0 -1
vn -0.7093199 -0.7048866 0
vn -1 0 0
vn 0 -1 0

vt 0.59375 0.225
vt 0.59375 0.025
vt 0.59375 0.1916666

usemtl colormap

f 3/1/1 2/1/1 1/1/1
f 2/1/1 3/1/1 4/1/1
f 2/1/2 6/2/2 5/2/2
f 6/2/2 2/1/2 7/3/2
f 7/3/2 2/1/2 4/1/2
f 2/1/3 8/2/3 1/1/3
f 8/2/3 2/1/3 5/2/3
f 10/3/4 8/2/4 9/2/4
f 8/2/4 10/3/4 1/1/4
f 1/1/4 10/3/4 3/1/4
f 6/2/5 10/3/5 9/2/5
f 10/3/5 6/2/5 7/3/5
f 7/3/6 3/1/6 10/3/6
f 3/1/6 7/3/6 4/1/6
f 6/2/7 8/2/7 5/2/7
f 8/2/7 6/2/7 9/2/7
f 13/1/4 12/2/4 11/2/4
f 12/2/4 13/1/4 14/1/4
f 15/2/6 13/1/6 11/2/6
f 13/1/6 15/2/6 16/1/6
f 17/1/3 12/2/3 14/1/3
f 12/2/3 17/1/3 18/2/3
f 17/1/2 15/2/2 18/2/2
f 15/2/2 17/1/2 16/1/2
f 13/1/1 17/1/1 14/1/1
f 17/1/1 13/1/1 16/1/1
f 21/1/4 20/2/4 19/2/4
f 20/2/4 21/1/4 22/1/4
f 23/2/6 21/1/6 19/2/6
f 21/1/6 23/2/6 24/1/6
f 25/1/3 20/2/3 22/1/3
f 20/2/3 25/1/3 26/2/3
f 25/1/2 23/2/2 26/2/2
f 23/2/2 25/1/2 24/1/2
f 21/1/1 25/1/1 22/1/1
f 25/1/1 21/1/1 24/1/1

g square-lq-brick-slope-inverted-1x2




usemtl colormap

f 3/1/1 2/1/1 1/1/1
f 2/1/1 3/1/1 4/1/1
f 2/1/2 6/2/2 5/2/2
f 6/2/2 2/1/2 7/3/2
f 7/3/2 2/1/2 4/1/2
f 2/1/3 8/2/3 1/1/3
f 8/2/3 2/1/3 5/2/3
f 10/3/4 8/2/4 9/2/4
f 8/2/4 10/3/4 1/1/4
f 1/1/4 10/3/4 3/1/4
f 6/2/5 10/3/5 9/2/5
f 10/3/5 6/2/5 7/3/5
f 7/3/6 3/1/6 10/3/6
f 3/1/6 7/3/6 4/1/6
f 6/2/7 8/2/7 5/2/7
f 8/2/7 6/2/7 9/2/7
f 13/1/4 12/2/4 11/2/4
f 12/2/4 13/1/4 14/1/4
f 15/2/6 13/1/6 11/2/6
f 13/1/6 15/2/6 16/1/6
f 17/1/3 12/2/3 14/1/3
f 12/2/3 17/1/3 18/2/3
f 17/1/2 15/2/2 18/2/2
f 15/2/2 17/1/2 16/1/2
f 13/1/1 17/1/1 14/1/1
f 17/1/1 13/1/1 16/1/1
f 21/1/4 20/2/4 19/2/4
f 20/2/4 21/1/4 22/1/4
f 23/2/6 21/1/6 19/2/6
f 21/1/6 23/2/6 24/1/6
f 25/1/3 20/2/3 22/1/3
f 20/2/3 25/1/3 26/2/3
f 25/1/2 23/2/2 26/2/2
f 23/2/2 25/1/2 24/1/2
f 21/1/1 25/1/1 22/1/1
f 25/1/1 21/1/1 24/1/1

