# Created by Kenney (www.kenney.nl)

mtllib square-hq-brick-2x8.mtl

g square-hq-brick-2x8

v 0.318 0 0.079 1 1 1
v 0.318 0 -0.079 1 1 1
v -0.318 0 0.079 1 1 1
v -0.318 0 -0.079 1 1 1
v -0.318 0.091 -0.079 1 1 1
v -0.318 0.091 0.079 1 1 1
v -0.313 0.096 -0.074 1 1 1
v -0.313 0.096 0.074 1 1 1
v 0.318 0.091 0.079 1 1 1
v 0.313 0.096 0.074 1 1 1
v 0.318 0.091 -0.079 1 1 1
v 0.313 0.096 -0.074 1 1 1
v 0.01575 0.096 -0.0635 1 1 1
v 0.06375 0.096 -0.0635 1 1 1
v 0.01575 0.109 -0.0635 1 1 1
v 0.06375 0.109 -0.0635 1 1 1
v 0.02075 0.114 -0.0585 1 1 1
v 0.05875 0.114 -0.0585 1 1 1
v 0.06375 0.096 -0.0155 1 1 1
v 0.06375 0.109 -0.0155 1 1 1
v 0.05875 0.114 -0.0205 1 1 1
v 0.02075 0.114 -0.0205 1 1 1
v 0.01575 0.109 -0.0155 1 1 1
v 0.01575 0.096 -0.0155 1 1 1
v 0.17475 0.096 -0.0635 1 1 1
v 0.22275 0.096 -0.0635 1 1 1
v 0.17475 0.109 -0.0635 1 1 1
v 0.22275 0.109 -0.0635 1 1 1
v 0.17975 0.114 -0.0585 1 1 1
v 0.21775 0.114 -0.0585 1 1 1
v 0.22275 0.096 -0.0155 1 1 1
v 0.22275 0.109 -0.0155 1 1 1
v 0.21775 0.114 -0.0205 1 1 1
v 0.17975 0.114 -0.0205 1 1 1
v 0.17475 0.109 -0.0155 1 1 1
v 0.17475 0.096 -0.0155 1 1 1
v 0.25425 0.096 0.0155 1 1 1
v 0.30225 0.096 0.0155 1 1 1
v 0.25425 0.109 0.0155 1 1 1
v 0.30225 0.109 0.0155 1 1 1
v 0.25925 0.114 0.0205 1 1 1
v 0.29725 0.114 0.0205 1 1 1
v 0.30225 0.096 0.0635 1 1 1
v 0.30225 0.109 0.0635 1 1 1
v 0.29725 0.114 0.0585 1 1 1
v 0.25925 0.114 0.0585 1 1 1
v 0.25425 0.109 0.0635 1 1 1
v 0.25425 0.096 0.0635 1 1 1
v 0.09525 0.096 0.0155 1 1 1
v 0.14325 0.096 0.0155 1 1 1
v 0.09525 0.109 0.0155 1 1 1
v 0.14325 0.109 0.0155 1 1 1
v 0.10025 0.114 0.0205 1 1 1
v 0.13825 0.114 0.0205 1 1 1
v 0.14325 0.096 0.0635 1 1 1
v 0.14325 0.109 0.0635 1 1 1
v 0.13825 0.114 0.0585 1 1 1
v 0.10025 0.114 0.0585 1 1 1
v 0.09525 0.109 0.0635 1 1 1
v 0.09525 0.096 0.0635 1 1 1
v 0.25425 0.096 -0.0635 1 1 1
v 0.30225 0.096 -0.0635 1 1 1
v 0.25425 0.109 -0.0635 1 1 1
v 0.30225 0.109 -0.0635 1 1 1
v 0.25925 0.114 -0.0585 1 1 1
v 0.29725 0.114 -0.0585 1 1 1
v 0.30225 0.096 -0.0155 1 1 1
v 0.30225 0.109 -0.0155 1 1 1
v 0.29725 0.114 -0.0205 1 1 1
v 0.25925 0.114 -0.0205 1 1 1
v 0.25425 0.109 -0.0155 1 1 1
v 0.25425 0.096 -0.0155 1 1 1
v 0.01575 0.096 0.0155 1 1 1
v 0.06375 0.096 0.0155 1 1 1
v 0.01575 0.109 0.0155 1 1 1
v 0.06375 0.109 0.0155 1 1 1
v 0.02075 0.114 0.0205 1 1 1
v 0.05875 0.114 0.0205 1 1 1
v 0.06375 0.096 0.0635 1 1 1
v 0.06375 0.109 0.0635 1 1 1
v 0.05875 0.114 0.0585 1 1 1
v 0.02075 0.114 0.0585 1 1 1
v 0.01575 0.109 0.0635 1 1 1
v 0.01575 0.096 0.0635 1 1 1
v -0.22275 0.096 0.0155 1 1 1
v -0.17475 0.096 0.0155 1 1 1
v -0.22275 0.109 0.0155 1 1 1
v -0.17475 0.109 0.0155 1 1 1
v -0.21775 0.114 0.0205 1 1 1
v -0.17975 0.114 0.0205 1 1 1
v -0.17475 0.096 0.0635 1 1 1
v -0.17475 0.109 0.0635 1 1 1
v -0.17975 0.114 0.0585 1 1 1
v -0.21775 0.114 0.0585 1 1 1
v -0.22275 0.109 0.0635 1 1 1
v -0.22275 0.096 0.0635 1 1 1
v -0.14325 0.096 0.0155 1 1 1
v -0.09525 0.096 0.0155 1 1 1
v -0.14325 0.109 0.0155 1 1 1
v -0.09525 0.109 0.0155 1 1 1
v -0.13825 0.114 0.0205 1 1 1
v -0.10025 0.114 0.0205 1 1 1
v -0.09525 0.096 0.0635 1 1 1
v -0.09525 0.109 0.0635 1 1 1
v -0.10025 0.114 0.0585 1 1 1
v -0.13825 0.114 0.0585 1 1 1
v -0.14325 0.109 0.0635 1 1 1
v -0.14325 0.096 0.0635 1 1 1
v -0.06375 0.096 -0.0635 1 1 1
v -0.01575 0.096 -0.0635 1 1 1
v -0.06375 0.109 -0.0635 1 1 1
v -0.01575 0.109 -0.0635 1 1 1
v -0.05875 0.114 -0.0585 1 1 1
v -0.02075 0.114 -0.0585 1 1 1
v -0.01575 0.096 -0.0155 1 1 1
v -0.01575 0.109 -0.0155 1 1 1
v -0.02075 0.114 -0.0205 1 1 1
v -0.05875 0.114 -0.0205 1 1 1
v -0.06375 0.109 -0.0155 1 1 1
v -0.06375 0.096 -0.0155 1 1 1
v -0.14325 0.096 -0.0635 1 1 1
v -0.09525 0.096 -0.0635 1 1 1
v -0.14325 0.109 -0.0635 1 1 1
v -0.09525 0.109 -0.0635 1 1 1
v -0.13825 0.114 -0.0585 1 1 1
v -0.10025 0.114 -0.0585 1 1 1
v -0.09525 0.096 -0.0155 1 1 1
v -0.09525 0.109 -0.0155 1 1 1
v -0.10025 0.114 -0.0205 1 1 1
v -0.13825 0.114 -0.0205 1 1 1
v -0.14325 0.109 -0.0155 1 1 1
v -0.14325 0.096 -0.0155 1 1 1
v -0.30225 0.096 -0.0635 1 1 1
v -0.25425 0.096 -0.0635 1 1 1
v -0.30225 0.109 -0.0635 1 1 1
v -0.25425 0.109 -0.0635 1 1 1
v -0.29725 0.114 -0.0585 1 1 1
v -0.25925 0.114 -0.0585 1 1 1
v -0.25425 0.096 -0.0155 1 1 1
v -0.25425 0.109 -0.0155 1 1 1
v -0.25925 0.114 -0.0205 1 1 1
v -0.29725 0.114 -0.0205 1 1 1
v -0.30225 0.109 -0.0155 1 1 1
v -0.30225 0.096 -0.0155 1 1 1
v -0.22275 0.096 -0.0635 1 1 1
v -0.17475 0.096 -0.0635 1 1 1
v -0.22275 0.109 -0.0635 1 1 1
v -0.17475 0.109 -0.0635 1 1 1
v -0.21775 0.114 -0.0585 1 1 1
v -0.17975 0.114 -0.0585 1 1 1
v -0.17475 0.096 -0.0155 1 1 1
v -0.17475 0.109 -0.0155 1 1 1
v -0.17975 0.114 -0.0205 1 1 1
v -0.21775 0.114 -0.0205 1 1 1
v -0.22275 0.109 -0.0155 1 1 1
v -0.22275 0.096 -0.0155 1 1 1
v -0.30225 0.096 0.0155 1 1 1
v -0.25425 0.096 0.0155 1 1 1
v -0.30225 0.109 0.0155 1 1 1
v -0.25425 0.109 0.0155 1 1 1
v -0.29725 0.114 0.0205 1 1 1
v -0.25925 0.114 0.0205 1 1 1
v -0.25425 0.096 0.0635 1 1 1
v -0.25425 0.109 0.0635 1 1 1
v -0.25925 0.114 0.0585 1 1 1
v -0.29725 0.114 0.0585 1 1 1
v -0.30225 0.109 0.0635 1 1 1
v -0.30225 0.096 0.0635 1 1 1
v 0.09525 0.096 -0.0635 1 1 1
v 0.14325 0.096 -0.0635 1 1 1
v 0.09525 0.109 -0.0635 1 1 1
v 0.14325 0.109 -0.0635 1 1 1
v 0.10025 0.114 -0.0585 1 1 1
v 0.13825 0.114 -0.0585 1 1 1
v 0.14325 0.096 -0.0155 1 1 1
v 0.14325 0.109 -0.0155 1 1 1
v 0.13825 0.114 -0.0205 1 1 1
v 0.10025 0.114 -0.0205 1 1 1
v 0.09525 0.109 -0.0155 1 1 1
v 0.09525 0.096 -0.0155 1 1 1
v -0.06375 0.096 0.0155 1 1 1
v -0.01575 0.096 0.0155 1 1 1
v -0.06375 0.109 0.0155 1 1 1
v -0.01575 0.109 0.0155 1 1 1
v -0.05875 0.114 0.0205 1 1 1
v -0.02075 0.114 0.0205 1 1 1
v -0.01575 0.096 0.0635 1 1 1
v -0.01575 0.109 0.0635 1 1 1
v -0.02075 0.114 0.0585 1 1 1
v -0.05875 0.114 0.0585 1 1 1
v -0.06375 0.109 0.0635 1 1 1
v -0.06375 0.096 0.0635 1 1 1
v 0.17475 0.096 0.0155 1 1 1
v 0.22275 0.096 0.0155 1 1 1
v 0.17475 0.109 0.0155 1 1 1
v 0.22275 0.109 0.0155 1 1 1
v 0.17975 0.114 0.0205 1 1 1
v 0.21775 0.114 0.0205 1 1 1
v 0.22275 0.096 0.0635 1 1 1
v 0.22275 0.109 0.0635 1 1 1
v 0.21775 0.114 0.0585 1 1 1
v 0.17975 0.114 0.0585 1 1 1
v 0.17475 0.109 0.0635 1 1 1
v 0.17475 0.096 0.0635 1 1 1

vn 0 -1 0
vn -1 0 0
vn -0.9576361 0.2879809 0
vn -0.7071068 0.7071068 0
vn 0 0 1
vn 0 0.2879809 0.9576361
vn 0 0.7071068 0.7071068
vn 0 0 -1
vn 0 0.2879809 -0.9576361
vn 0 0.7071068 -0.7071068
vn 0 1 0
vn 1 0 0
vn 0.9576361 0.2879809 0
vn 0.7071068 0.7071068 0

vt 0.59375 0.025
vt 0.59375 0.2145833
vt 0.59375 0.225
vt 0.59375 0.1694444

usemtl colormap

f 3/1/1 2/1/1 1/1/1
f 2/1/1 3/1/1 4/1/1
f 3/1/2 5/2/3 4/1/2
f 5/2/3 3/1/2 6/2/3
f 6/2/3 7/3/4 5/2/3
f 7/3/4 6/2/3 8/3/4
f 9/2/6 3/1/5 1/1/5
f 3/1/5 9/2/6 6/2/6
f 10/3/7 6/2/6 9/2/6
f 6/2/6 10/3/7 8/3/7
f 5/2/9 2/1/8 4/1/8
f 2/1/8 5/2/9 11/2/9
f 7/3/10 11/2/9 5/2/9
f 11/2/9 7/3/10 12/3/10
f 7/3/11 10/3/11 12/3/11
f 10/3/11 7/3/11 8/3/11
f 2/1/12 9/2/13 1/1/12
f 9/2/13 2/1/12 11/2/13
f 12/3/14 9/2/13 11/2/13
f 9/2/13 12/3/14 10/3/14
f 15/4/9 14/1/8 13/1/8
f 14/1/8 15/4/9 16/4/9
f 17/3/10 16/4/9 15/4/9
f 16/4/9 17/3/10 18/3/10
f 14/1/12 20/4/13 19/1/12
f 20/4/13 14/1/12 16/4/13
f 18/3/14 20/4/13 16/4/13
f 20/4/13 18/3/14 21/3/14
f 17/3/11 21/3/11 18/3/11
f 21/3/11 17/3/11 22/3/11
f 17/3/4 23/4/3 22/3/4
f 23/4/3 17/3/4 15/4/3
f 15/4/3 24/1/2 23/4/3
f 24/1/2 15/4/3 13/1/2
f 23/4/6 21/3/7 22/3/7
f 21/3/7 23/4/6 20/4/6
f 24/1/5 20/4/6 23/4/6
f 20/4/6 24/1/5 19/1/5
f 27/4/9 26/1/8 25/1/8
f 26/1/8 27/4/9 28/4/9
f 29/3/10 28/4/9 27/4/9
f 28/4/9 29/3/10 30/3/10
f 26/1/12 32/4/13 31/1/12
f 32/4/13 26/1/12 28/4/13
f 30/3/14 32/4/13 28/4/13
f 32/4/13 30/3/14 33/3/14
f 29/3/11 33/3/11 30/3/11
f 33/3/11 29/3/11 34/3/11
f 29/3/4 35/4/3 34/3/4
f 35/4/3 29/3/4 27/4/3
f 27/4/3 36/1/2 35/4/3
f 36/1/2 27/4/3 25/1/2
f 35/4/6 33/3/7 34/3/7
f 33/3/7 35/4/6 32/4/6
f 36/1/5 32/4/6 35/4/6
f 32/4/6 36/1/5 31/1/5
f 39/4/9 38/1/8 37/1/8
f 38/1/8 39/4/9 40/4/9
f 41/3/10 40/4/9 39/4/9
f 40/4/9 41/3/10 42/3/10
f 38/1/12 44/4/13 43/1/12
f 44/4/13 38/1/12 40/4/13
f 42/3/14 44/4/13 40/4/13
f 44/4/13 42/3/14 45/3/14
f 41/3/11 45/3/11 42/3/11
f 45/3/11 41/3/11 46/3/11
f 41/3/4 47/4/3 46/3/4
f 47/4/3 41/3/4 39/4/3
f 39/4/3 48/1/2 47/4/3
f 48/1/2 39/4/3 37/1/2
f 47/4/6 45/3/7 46/3/7
f 45/3/7 47/4/6 44/4/6
f 48/1/5 44/4/6 47/4/6
f 44/4/6 48/1/5 43/1/5
f 51/4/9 50/1/8 49/1/8
f 50/1/8 51/4/9 52/4/9
f 53/3/10 52/4/9 51/4/9
f 52/4/9 53/3/10 54/3/10
f 50/1/12 56/4/13 55/1/12
f 56/4/13 50/1/12 52/4/13
f 54/3/14 56/4/13 52/4/13
f 56/4/13 54/3/14 57/3/14
f 53/3/11 57/3/11 54/3/11
f 57/3/11 53/3/11 58/3/11
f 53/3/4 59/4/3 58/3/4
f 59/4/3 53/3/4 51/4/3
f 51/4/3 60/1/2 59/4/3
f 60/1/2 51/4/3 49/1/2
f 59/4/6 57/3/7 58/3/7
f 57/3/7 59/4/6 56/4/6
f 60/1/5 56/4/6 59/4/6
f 56/4/6 60/1/5 55/1/5
f 63/4/9 62/1/8 61/1/8
f 62/1/8 63/4/9 64/4/9
f 65/3/10 64/4/9 63/4/9
f 64/4/9 65/3/10 66/3/10
f 62/1/12 68/4/13 67/1/12
f 68/4/13 62/1/12 64/4/13
f 66/3/14 68/4/13 64/4/13
f 68/4/13 66/3/14 69/3/14
f 65/3/11 69/3/11 66/3/11
f 69/3/11 65/3/11 70/3/11
f 65/3/4 71/4/3 70/3/4
f 71/4/3 65/3/4 63/4/3
f 63/4/3 72/1/2 71/4/3
f 72/1/2 63/4/3 61/1/2
f 71/4/6 69/3/7 70/3/7
f 69/3/7 71/4/6 68/4/6
f 72/1/5 68/4/6 71/4/6
f 68/4/6 72/1/5 67/1/5
f 75/4/9 74/1/8 73/1/8
f 74/1/8 75/4/9 76/4/9
f 77/3/10 76/4/9 75/4/9
f 76/4/9 77/3/10 78/3/10
f 74/1/12 80/4/13 79/1/12
f 80/4/13 74/1/12 76/4/13
f 78/3/14 80/4/13 76/4/13
f 80/4/13 78/3/14 81/3/14
f 77/3/11 81/3/11 78/3/11
f 81/3/11 77/3/11 82/3/11
f 77/3/4 83/4/3 82/3/4
f 83/4/3 77/3/4 75/4/3
f 75/4/3 84/1/2 83/4/3
f 84/1/2 75/4/3 73/1/2
f 83/4/6 81/3/7 82/3/7
f 81/3/7 83/4/6 80/4/6
f 84/1/5 80/4/6 83/4/6
f 80/4/6 84/1/5 79/1/5
f 87/4/9 86/1/8 85/1/8
f 86/1/8 87/4/9 88/4/9
f 89/3/10 88/4/9 87/4/9
f 88/4/9 89/3/10 90/3/10
f 86/1/12 92/4/13 91/1/12
f 92/4/13 86/1/12 88/4/13
f 90/3/14 92/4/13 88/4/13
f 92/4/13 90/3/14 93/3/14
f 89/3/11 93/3/11 90/3/11
f 93/3/11 89/3/11 94/3/11
f 89/3/4 95/4/3 94/3/4
f 95/4/3 89/3/4 87/4/3
f 87/4/3 96/1/2 95/4/3
f 96/1/2 87/4/3 85/1/2
f 95/4/6 93/3/7 94/3/7
f 93/3/7 95/4/6 92/4/6
f 96/1/5 92/4/6 95/4/6
f 92/4/6 96/1/5 91/1/5
f 99/4/9 98/1/8 97/1/8
f 98/1/8 99/4/9 100/4/9
f 101/3/10 100/4/9 99/4/9
f 100/4/9 101/3/10 102/3/10
f 98/1/12 104/4/13 103/1/12
f 104/4/13 98/1/12 100/4/13
f 102/3/14 104/4/13 100/4/13
f 104/4/13 102/3/14 105/3/14
f 101/3/11 105/3/11 102/3/11
f 105/3/11 101/3/11 106/3/11
f 101/3/4 107/4/3 106/3/4
f 107/4/3 101/3/4 99/4/3
f 99/4/3 108/1/2 107/4/3
f 108/1/2 99/4/3 97/1/2
f 107/4/6 105/3/7 106/3/7
f 105/3/7 107/4/6 104/4/6
f 108/1/5 104/4/6 107/4/6
f 104/4/6 108/1/5 103/1/5
f 111/4/9 110/1/8 109/1/8
f 110/1/8 111/4/9 112/4/9
f 113/3/10 112/4/9 111/4/9
f 112/4/9 113/3/10 114/3/10
f 110/1/12 116/4/13 115/1/12
f 116/4/13 110/1/12 112/4/13
f 114/3/14 116/4/13 112/4/13
f 116/4/13 114/3/14 117/3/14
f 113/3/11 117/3/11 114/3/11
f 117/3/11 113/3/11 118/3/11
f 113/3/4 119/4/3 118/3/4
f 119/4/3 113/3/4 111/4/3
f 111/4/3 120/1/2 119/4/3
f 120/1/2 111/4/3 109/1/2
f 119/4/6 117/3/7 118/3/7
f 117/3/7 119/4/6 116/4/6
f 120/1/5 116/4/6 119/4/6
f 116/4/6 120/1/5 115/1/5
f 123/4/9 122/1/8 121/1/8
f 122/1/8 123/4/9 124/4/9
f 125/3/10 124/4/9 123/4/9
f 124/4/9 125/3/10 126/3/10
f 122/1/12 128/4/13 127/1/12
f 128/4/13 122/1/12 124/4/13
f 126/3/14 128/4/13 124/4/13
f 128/4/13 126/3/14 129/3/14
f 125/3/11 129/3/11 126/3/11
f 129/3/11 125/3/11 130/3/11
f 125/3/4 131/4/3 130/3/4
f 131/4/3 125/3/4 123/4/3
f 123/4/3 132/1/2 131/4/3
f 132/1/2 123/4/3 121/1/2
f 131/4/6 129/3/7 130/3/7
f 129/3/7 131/4/6 128/4/6
f 132/1/5 128/4/6 131/4/6
f 128/4/6 132/1/5 127/1/5
f 135/4/9 134/1/8 133/1/8
f 134/1/8 135/4/9 136/4/9
f 137/3/10 136/4/9 135/4/9
f 136/4/9 137/3/10 138/3/10
f 134/1/12 140/4/13 139/1/12
f 140/4/13 134/1/12 136/4/13
f 138/3/14 140/4/13 136/4/13
f 140/4/13 138/3/14 141/3/14
f 137/3/11 141/3/11 138/3/11
f 141/3/11 137/3/11 142/3/11
f 137/3/4 143/4/3 142/3/4
f 143/4/3 137/3/4 135/4/3
f 135/4/3 144/1/2 143/4/3
f 144/1/2 135/4/3 133/1/2
f 143/4/6 141/3/7 142/3/7
f 141/3/7 143/4/6 140/4/6
f 144/1/5 140/4/6 143/4/6
f 140/4/6 144/1/5 139/1/5
f 147/4/9 146/1/8 145/1/8
f 146/1/8 147/4/9 148/4/9
f 149/3/10 148/4/9 147/4/9
f 148/4/9 149/3/10 150/3/10
f 146/1/12 152/4/13 151/1/12
f 152/4/13 146/1/12 148/4/13
f 150/3/14 152/4/13 148/4/13
f 152/4/13 150/3/14 153/3/14
f 149/3/11 153/3/11 150/3/11
f 153/3/11 149/3/11 154/3/11
f 149/3/4 155/4/3 154/3/4
f 155/4/3 149/3/4 147/4/3
f 147/4/3 156/1/2 155/4/3
f 156/1/2 147/4/3 145/1/2
f 155/4/6 153/3/7 154/3/7
f 153/3/7 155/4/6 152/4/6
f 156/1/5 152/4/6 155/4/6
f 152/4/6 156/1/5 151/1/5
f 159/4/9 158/1/8 157/1/8
f 158/1/8 159/4/9 160/4/9
f 161/3/10 160/4/9 159/4/9
f 160/4/9 161/3/10 162/3/10
f 158/1/12 164/4/13 163/1/12
f 164/4/13 158/1/12 160/4/13
f 162/3/14 164/4/13 160/4/13
f 164/4/13 162/3/14 165/3/14
f 161/3/11 165/3/11 162/3/11
f 165/3/11 161/3/11 166/3/11
f 161/3/4 167/4/3 166/3/4
f 167/4/3 161/3/4 159/4/3
f 159/4/3 168/1/2 167/4/3
f 168/1/2 159/4/3 157/1/2
f 167/4/6 165/3/7 166/3/7
f 165/3/7 167/4/6 164/4/6
f 168/1/5 164/4/6 167/4/6
f 164/4/6 168/1/5 163/1/5
f 171/4/9 170/1/8 169/1/8
f 170/1/8 171/4/9 172/4/9
f 173/3/10 172/4/9 171/4/9
f 172/4/9 173/3/10 174/3/10
f 170/1/12 176/4/13 175/1/12
f 176/4/13 170/1/12 172/4/13
f 174/3/14 176/4/13 172/4/13
f 176/4/13 174/3/14 177/3/14
f 173/3/11 177/3/11 174/3/11
f 177/3/11 173/3/11 178/3/11
f 173/3/4 179/4/3 178/3/4
f 179/4/3 173/3/4 171/4/3
f 171/4/3 180/1/2 179/4/3
f 180/1/2 171/4/3 169/1/2
f 179/4/6 177/3/7 178/3/7
f 177/3/7 179/4/6 176/4/6
f 180/1/5 176/4/6 179/4/6
f 176/4/6 180/1/5 175/1/5
f 183/4/9 182/1/8 181/1/8
f 182/1/8 183/4/9 184/4/9
f 185/3/10 184/4/9 183/4/9
f 184/4/9 185/3/10 186/3/10
f 182/1/12 188/4/13 187/1/12
f 188/4/13 182/1/12 184/4/13
f 186/3/14 188/4/13 184/4/13
f 188/4/13 186/3/14 189/3/14
f 185/3/11 189/3/11 186/3/11
f 189/3/11 185/3/11 190/3/11
f 185/3/4 191/4/3 190/3/4
f 191/4/3 185/3/4 183/4/3
f 183/4/3 192/1/2 191/4/3
f 192/1/2 183/4/3 181/1/2
f 191/4/6 189/3/7 190/3/7
f 189/3/7 191/4/6 188/4/6
f 192/1/5 188/4/6 191/4/6
f 188/4/6 192/1/5 187/1/5
f 195/4/9 194/1/8 193/1/8
f 194/1/8 195/4/9 196/4/9
f 197/3/10 196/4/9 195/4/9
f 196/4/9 197/3/10 198/3/10
f 194/1/12 200/4/13 199/1/12
f 200/4/13 194/1/12 196/4/13
f 198/3/14 200/4/13 196/4/13
f 200/4/13 198/3/14 201/3/14
f 197/3/11 201/3/11 198/3/11
f 201/3/11 197/3/11 202/3/11
f 197/3/4 203/4/3 202/3/4
f 203/4/3 197/3/4 195/4/3
f 195/4/3 204/1/2 203/4/3
f 204/1/2 195/4/3 193/1/2
f 203/4/6 201/3/7 202/3/7
f 201/3/7 203/4/6 200/4/6
f 204/1/5 200/4/6 203/4/6
f 200/4/6 204/1/5 199/1/5

g square-hq-brick-2x8




usemtl colormap

f 3/1/1 2/1/1 1/1/1
f 2/1/1 3/1/1 4/1/1
f 3/1/2 5/2/3 4/1/2
f 5/2/3 3/1/2 6/2/3
f 6/2/3 7/3/4 5/2/3
f 7/3/4 6/2/3 8/3/4
f 9/2/6 3/1/5 1/1/5
f 3/1/5 9/2/6 6/2/6
f 10/3/7 6/2/6 9/2/6
f 6/2/6 10/3/7 8/3/7
f 5/2/9 2/1/8 4/1/8
f 2/1/8 5/2/9 11/2/9
f 7/3/10 11/2/9 5/2/9
f 11/2/9 7/3/10 12/3/10
f 7/3/11 10/3/11 12/3/11
f 10/3/11 7/3/11 8/3/11
f 2/1/12 9/2/13 1/1/12
f 9/2/13 2/1/12 11/2/13
f 12/3/14 9/2/13 11/2/13
f 9/2/13 12/3/14 10/3/14
f 15/4/9 14/1/8 13/1/8
f 14/1/8 15/4/9 16/4/9
f 17/3/10 16/4/9 15/4/9
f 16/4/9 17/3/10 18/3/10
f 14/1/12 20/4/13 19/1/12
f 20/4/13 14/1/12 16/4/13
f 18/3/14 20/4/13 16/4/13
f 20/4/13 18/3/14 21/3/14
f 17/3/11 21/3/11 18/3/11
f 21/3/11 17/3/11 22/3/11
f 17/3/4 23/4/3 22/3/4
f 23/4/3 17/3/4 15/4/3
f 15/4/3 24/1/2 23/4/3
f 24/1/2 15/4/3 13/1/2
f 23/4/6 21/3/7 22/3/7
f 21/3/7 23/4/6 20/4/6
f 24/1/5 20/4/6 23/4/6
f 20/4/6 24/1/5 19/1/5
f 27/4/9 26/1/8 25/1/8
f 26/1/8 27/4/9 28/4/9
f 29/3/10 28/4/9 27/4/9
f 28/4/9 29/3/10 30/3/10
f 26/1/12 32/4/13 31/1/12
f 32/4/13 26/1/12 28/4/13
f 30/3/14 32/4/13 28/4/13
f 32/4/13 30/3/14 33/3/14
f 29/3/11 33/3/11 30/3/11
f 33/3/11 29/3/11 34/3/11
f 29/3/4 35/4/3 34/3/4
f 35/4/3 29/3/4 27/4/3
f 27/4/3 36/1/2 35/4/3
f 36/1/2 27/4/3 25/1/2
f 35/4/6 33/3/7 34/3/7
f 33/3/7 35/4/6 32/4/6
f 36/1/5 32/4/6 35/4/6
f 32/4/6 36/1/5 31/1/5
f 39/4/9 38/1/8 37/1/8
f 38/1/8 39/4/9 40/4/9
f 41/3/10 40/4/9 39/4/9
f 40/4/9 41/3/10 42/3/10
f 38/1/12 44/4/13 43/1/12
f 44/4/13 38/1/12 40/4/13
f 42/3/14 44/4/13 40/4/13
f 44/4/13 42/3/14 45/3/14
f 41/3/11 45/3/11 42/3/11
f 45/3/11 41/3/11 46/3/11
f 41/3/4 47/4/3 46/3/4
f 47/4/3 41/3/4 39/4/3
f 39/4/3 48/1/2 47/4/3
f 48/1/2 39/4/3 37/1/2
f 47/4/6 45/3/7 46/3/7
f 45/3/7 47/4/6 44/4/6
f 48/1/5 44/4/6 47/4/6
f 44/4/6 48/1/5 43/1/5
f 51/4/9 50/1/8 49/1/8
f 50/1/8 51/4/9 52/4/9
f 53/3/10 52/4/9 51/4/9
f 52/4/9 53/3/10 54/3/10
f 50/1/12 56/4/13 55/1/12
f 56/4/13 50/1/12 52/4/13
f 54/3/14 56/4/13 52/4/13
f 56/4/13 54/3/14 57/3/14
f 53/3/11 57/3/11 54/3/11
f 57/3/11 53/3/11 58/3/11
f 53/3/4 59/4/3 58/3/4
f 59/4/3 53/3/4 51/4/3
f 51/4/3 60/1/2 59/4/3
f 60/1/2 51/4/3 49/1/2
f 59/4/6 57/3/7 58/3/7
f 57/3/7 59/4/6 56/4/6
f 60/1/5 56/4/6 59/4/6
f 56/4/6 60/1/5 55/1/5
f 63/4/9 62/1/8 61/1/8
f 62/1/8 63/4/9 64/4/9
f 65/3/10 64/4/9 63/4/9
f 64/4/9 65/3/10 66/3/10
f 62/1/12 68/4/13 67/1/12
f 68/4/13 62/1/12 64/4/13
f 66/3/14 68/4/13 64/4/13
f 68/4/13 66/3/14 69/3/14
f 65/3/11 69/3/11 66/3/11
f 69/3/11 65/3/11 70/3/11
f 65/3/4 71/4/3 70/3/4
f 71/4/3 65/3/4 63/4/3
f 63/4/3 72/1/2 71/4/3
f 72/1/2 63/4/3 61/1/2
f 71/4/6 69/3/7 70/3/7
f 69/3/7 71/4/6 68/4/6
f 72/1/5 68/4/6 71/4/6
f 68/4/6 72/1/5 67/1/5
f 75/4/9 74/1/8 73/1/8
f 74/1/8 75/4/9 76/4/9
f 77/3/10 76/4/9 75/4/9
f 76/4/9 77/3/10 78/3/10
f 74/1/12 80/4/13 79/1/12
f 80/4/13 74/1/12 76/4/13
f 78/3/14 80/4/13 76/4/13
f 80/4/13 78/3/14 81/3/14
f 77/3/11 81/3/11 78/3/11
f 81/3/11 77/3/11 82/3/11
f 77/3/4 83/4/3 82/3/4
f 83/4/3 77/3/4 75/4/3
f 75/4/3 84/1/2 83/4/3
f 84/1/2 75/4/3 73/1/2
f 83/4/6 81/3/7 82/3/7
f 81/3/7 83/4/6 80/4/6
f 84/1/5 80/4/6 83/4/6
f 80/4/6 84/1/5 79/1/5
f 87/4/9 86/1/8 85/1/8
f 86/1/8 87/4/9 88/4/9
f 89/3/10 88/4/9 87/4/9
f 88/4/9 89/3/10 90/3/10
f 86/1/12 92/4/13 91/1/12
f 92/4/13 86/1/12 88/4/13
f 90/3/14 92/4/13 88/4/13
f 92/4/13 90/3/14 93/3/14
f 89/3/11 93/3/11 90/3/11
f 93/3/11 89/3/11 94/3/11
f 89/3/4 95/4/3 94/3/4
f 95/4/3 89/3/4 87/4/3
f 87/4/3 96/1/2 95/4/3
f 96/1/2 87/4/3 85/1/2
f 95/4/6 93/3/7 94/3/7
f 93/3/7 95/4/6 92/4/6
f 96/1/5 92/4/6 95/4/6
f 92/4/6 96/1/5 91/1/5
f 99/4/9 98/1/8 97/1/8
f 98/1/8 99/4/9 100/4/9
f 101/3/10 100/4/9 99/4/9
f 100/4/9 101/3/10 102/3/10
f 98/1/12 104/4/13 103/1/12
f 104/4/13 98/1/12 100/4/13
f 102/3/14 104/4/13 100/4/13
f 104/4/13 102/3/14 105/3/14
f 101/3/11 105/3/11 102/3/11
f 105/3/11 101/3/11 106/3/11
f 101/3/4 107/4/3 106/3/4
f 107/4/3 101/3/4 99/4/3
f 99/4/3 108/1/2 107/4/3
f 108/1/2 99/4/3 97/1/2
f 107/4/6 105/3/7 106/3/7
f 105/3/7 107/4/6 104/4/6
f 108/1/5 104/4/6 107/4/6
f 104/4/6 108/1/5 103/1/5
f 111/4/9 110/1/8 109/1/8
f 110/1/8 111/4/9 112/4/9
f 113/3/10 112/4/9 111/4/9
f 112/4/9 113/3/10 114/3/10
f 110/1/12 116/4/13 115/1/12
f 116/4/13 110/1/12 112/4/13
f 114/3/14 116/4/13 112/4/13
f 116/4/13 114/3/14 117/3/14
f 113/3/11 117/3/11 114/3/11
f 117/3/11 113/3/11 118/3/11
f 113/3/4 119/4/3 118/3/4
f 119/4/3 113/3/4 111/4/3
f 111/4/3 120/1/2 119/4/3
f 120/1/2 111/4/3 109/1/2
f 119/4/6 117/3/7 118/3/7
f 117/3/7 119/4/6 116/4/6
f 120/1/5 116/4/6 119/4/6
f 116/4/6 120/1/5 115/1/5
f 123/4/9 122/1/8 121/1/8
f 122/1/8 123/4/9 124/4/9
f 125/3/10 124/4/9 123/4/9
f 124/4/9 125/3/10 126/3/10
f 122/1/12 128/4/13 127/1/12
f 128/4/13 122/1/12 124/4/13
f 126/3/14 128/4/13 124/4/13
f 128/4/13 126/3/14 129/3/14
f 125/3/11 129/3/11 126/3/11
f 129/3/11 125/3/11 130/3/11
f 125/3/4 131/4/3 130/3/4
f 131/4/3 125/3/4 123/4/3
f 123/4/3 132/1/2 131/4/3
f 132/1/2 123/4/3 121/1/2
f 131/4/6 129/3/7 130/3/7
f 129/3/7 131/4/6 128/4/6
f 132/1/5 128/4/6 131/4/6
f 128/4/6 132/1/5 127/1/5
f 135/4/9 134/1/8 133/1/8
f 134/1/8 135/4/9 136/4/9
f 137/3/10 136/4/9 135/4/9
f 136/4/9 137/3/10 138/3/10
f 134/1/12 140/4/13 139/1/12
f 140/4/13 134/1/12 136/4/13
f 138/3/14 140/4/13 136/4/13
f 140/4/13 138/3/14 141/3/14
f 137/3/11 141/3/11 138/3/11
f 141/3/11 137/3/11 142/3/11
f 137/3/4 143/4/3 142/3/4
f 143/4/3 137/3/4 135/4/3
f 135/4/3 144/1/2 143/4/3
f 144/1/2 135/4/3 133/1/2
f 143/4/6 141/3/7 142/3/7
f 141/3/7 143/4/6 140/4/6
f 144/1/5 140/4/6 143/4/6
f 140/4/6 144/1/5 139/1/5
f 147/4/9 146/1/8 145/1/8
f 146/1/8 147/4/9 148/4/9
f 149/3/10 148/4/9 147/4/9
f 148/4/9 149/3/10 150/3/10
f 146/1/12 152/4/13 151/1/12
f 152/4/13 146/1/12 148/4/13
f 150/3/14 152/4/13 148/4/13
f 152/4/13 150/3/14 153/3/14
f 149/3/11 153/3/11 150/3/11
f 153/3/11 149/3/11 154/3/11
f 149/3/4 155/4/3 154/3/4
f 155/4/3 149/3/4 147/4/3
f 147/4/3 156/1/2 155/4/3
f 156/1/2 147/4/3 145/1/2
f 155/4/6 153/3/7 154/3/7
f 153/3/7 155/4/6 152/4/6
f 156/1/5 152/4/6 155/4/6
f 152/4/6 156/1/5 151/1/5
f 159/4/9 158/1/8 157/1/8
f 158/1/8 159/4/9 160/4/9
f 161/3/10 160/4/9 159/4/9
f 160/4/9 161/3/10 162/3/10
f 158/1/12 164/4/13 163/1/12
f 164/4/13 158/1/12 160/4/13
f 162/3/14 164/4/13 160/4/13
f 164/4/13 162/3/14 165/3/14
f 161/3/11 165/3/11 162/3/11
f 165/3/11 161/3/11 166/3/11
f 161/3/4 167/4/3 166/3/4
f 167/4/3 161/3/4 159/4/3
f 159/4/3 168/1/2 167/4/3
f 168/1/2 159/4/3 157/1/2
f 167/4/6 165/3/7 166/3/7
f 165/3/7 167/4/6 164/4/6
f 168/1/5 164/4/6 167/4/6
f 164/4/6 168/1/5 163/1/5
f 171/4/9 170/1/8 169/1/8
f 170/1/8 171/4/9 172/4/9
f 173/3/10 172/4/9 171/4/9
f 172/4/9 173/3/10 174/3/10
f 170/1/12 176/4/13 175/1/12
f 176/4/13 170/1/12 172/4/13
f 174/3/14 176/4/13 172/4/13
f 176/4/13 174/3/14 177/3/14
f 173/3/11 177/3/11 174/3/11
f 177/3/11 173/3/11 178/3/11
f 173/3/4 179/4/3 178/3/4
f 179/4/3 173/3/4 171/4/3
f 171/4/3 180/1/2 179/4/3
f 180/1/2 171/4/3 169/1/2
f 179/4/6 177/3/7 178/3/7
f 177/3/7 179/4/6 176/4/6
f 180/1/5 176/4/6 179/4/6
f 176/4/6 180/1/5 175/1/5
f 183/4/9 182/1/8 181/1/8
f 182/1/8 183/4/9 184/4/9
f 185/3/10 184/4/9 183/4/9
f 184/4/9 185/3/10 186/3/10
f 182/1/12 188/4/13 187/1/12
f 188/4/13 182/1/12 184/4/13
f 186/3/14 188/4/13 184/4/13
f 188/4/13 186/3/14 189/3/14
f 185/3/11 189/3/11 186/3/11
f 189/3/11 185/3/11 190/3/11
f 185/3/4 191/4/3 190/3/4
f 191/4/3 185/3/4 183/4/3
f 183/4/3 192/1/2 191/4/3
f 192/1/2 183/4/3 181/1/2
f 191/4/6 189/3/7 190/3/7
f 189/3/7 191/4/6 188/4/6
f 192/1/5 188/4/6 191/4/6
f 188/4/6 192/1/5 187/1/5
f 195/4/9 194/1/8 193/1/8
f 194/1/8 195/4/9 196/4/9
f 197/3/10 196/4/9 195/4/9
f 196/4/9 197/3/10 198/3/10
f 194/1/12 200/4/13 199/1/12
f 200/4/13 194/1/12 196/4/13
f 198/3/14 200/4/13 196/4/13
f 200/4/13 198/3/14 201/3/14
f 197/3/11 201/3/11 198/3/11
f 201/3/11 197/3/11 202/3/11
f 197/3/4 203/4/3 202/3/4
f 203/4/3 197/3/4 195/4/3
f 195/4/3 204/1/2 203/4/3
f 204/1/2 195/4/3 193/1/2
f 203/4/6 201/3/7 202/3/7
f 201/3/7 203/4/6 200/4/6
f 204/1/5 200/4/6 203/4/6
f 200/4/6 204/1/5 199/1/5

