# Created by Kenney (www.kenney.nl)

mtllib square-hq-brick-slope-inverted-1x2.mtl

g square-hq-brick-slope-inverted-1x2

v 0 0 -0.0395 1 1 1
v -0.0795 0.08 -0.0395 1 1 1
v 0 0 0.0395 1 1 1
v -0.0795 0.08 0.0395 1 1 1
v 0.0795 0 0.0395 1 1 1
v 0.0795 0 -0.0395 1 1 1
v 0.0795 0.091 -0.0395 1 1 1
v -0.0795 0.091 -0.0395 1 1 1
v -0.0745 0.096 -0.0345 1 1 1
v 0.0745 0.096 -0.0345 1 1 1
v -0.0795 0.091 0.0395 1 1 1
v -0.0745 0.096 0.0345 1 1 1
v 0.0795 0.091 0.0395 1 1 1
v 0.0745 0.096 0.0345 1 1 1
v 0.01575 0.096 -0.024 1 1 1
v 0.06375 0.096 -0.024 1 1 1
v 0.01575 0.109 -0.024 1 1 1
v 0.06375 0.109 -0.024 1 1 1
v 0.02075 0.114 -0.019 1 1 1
v 0.05875 0.114 -0.019 1 1 1
v 0.06375 0.096 0.024 1 1 1
v 0.06375 0.109 0.024 1 1 1
v 0.05875 0.114 0.019 1 1 1
v 0.02075 0.114 0.019 1 1 1
v 0.01575 0.109 0.024 1 1 1
v 0.01575 0.096 0.024 1 1 1
v -0.06375 0.096 -0.024 1 1 1
v -0.01575 0.096 -0.024 1 1 1
v -0.06375 0.109 -0.024 1 1 1
v -0.01575 0.109 -0.024 1 1 1
v -0.05875 0.114 -0.019 1 1 1
v -0.02075 0.114 -0.019 1 1 1
v -0.01575 0.096 0.024 1 1 1
v -0.01575 0.109 0.024 1 1 1
v -0.02075 0.114 0.019 1 1 1
v -0.05875 0.114 0.019 1 1 1
v -0.06375 0.109 0.024 1 1 1
v -0.06375 0.096 0.024 1 1 1

vn -0.7093199 -0.7048866 0
vn 0 -1 0
vn 0 0 -1
vn 0 0.2879809 -0.9576361
vn 0 0.7071068 -0.7071068
vn -1 0 0
vn -0.9576361 0.2879809 0
vn -0.7071068 0.7071068 0
vn 0 0 1
vn 0 0.2879809 0.9576361
vn 0 0.7071068 0.7071068
vn 0 1 0
vn 1 0 0
vn 0.9576361 0.2879809 0
vn 0.7071068 0.7071068 0

vt 0.59375 0.025
vt 0.59375 0.1916666
vt 0.59375 0.2145833
vt 0.59375 0.225
vt 0.59375 0.1694444

usemtl colormap

f 3/1/1 2/2/1 1/1/1
f 2/2/1 3/1/1 4/2/1
f 3/1/2 6/1/2 5/1/2
f 6/1/2 3/1/2 1/1/2
f 2/2/3 6/1/3 1/1/3
f 6/1/3 2/2/3 7/3/4
f 7/3/4 2/2/3 8/3/4
f 9/4/5 7/3/4 8/3/4
f 7/3/4 9/4/5 10/4/5
f 4/2/6 8/3/7 2/2/6
f 8/3/7 4/2/6 11/3/7
f 11/3/7 9/4/8 8/3/7
f 9/4/8 11/3/7 12/4/8
f 13/3/10 3/1/9 5/1/9
f 3/1/9 13/3/10 4/2/9
f 4/2/9 13/3/10 11/3/10
f 14/4/11 11/3/10 13/3/10
f 11/3/10 14/4/11 12/4/11
f 9/4/12 14/4/12 10/4/12
f 14/4/12 9/4/12 12/4/12
f 6/1/13 13/3/14 5/1/13
f 13/3/14 6/1/13 7/3/14
f 10/4/15 13/3/14 7/3/14
f 13/3/14 10/4/15 14/4/15
f 17/5/4 16/1/3 15/1/3
f 16/1/3 17/5/4 18/5/4
f 19/4/5 18/5/4 17/5/4
f 18/5/4 19/4/5 20/4/5
f 16/1/13 22/5/14 21/1/13
f 22/5/14 16/1/13 18/5/14
f 20/4/15 22/5/14 18/5/14
f 22/5/14 20/4/15 23/4/15
f 19/4/12 23/4/12 20/4/12
f 23/4/12 19/4/12 24/4/12
f 19/4/8 25/5/7 24/4/8
f 25/5/7 19/4/8 17/5/7
f 17/5/7 26/1/6 25/5/7
f 26/1/6 17/5/7 15/1/6
f 25/5/10 23/4/11 24/4/11
f 23/4/11 25/5/10 22/5/10
f 26/1/9 22/5/10 25/5/10
f 22/5/10 26/1/9 21/1/9
f 29/5/4 28/1/3 27/1/3
f 28/1/3 29/5/4 30/5/4
f 31/4/5 30/5/4 29/5/4
f 30/5/4 31/4/5 32/4/5
f 28/1/13 34/5/14 33/1/13
f 34/5/14 28/1/13 30/5/14
f 32/4/15 34/5/14 30/5/14
f 34/5/14 32/4/15 35/4/15
f 31/4/12 35/4/12 32/4/12
f 35/4/12 31/4/12 36/4/12
f 31/4/8 37/5/7 36/4/8
f 37/5/7 31/4/8 29/5/7
f 29/5/7 38/1/6 37/5/7
f 38/1/6 29/5/7 27/1/6
f 37/5/10 35/4/11 36/4/11
f 35/4/11 37/5/10 34/5/10
f 38/1/9 34/5/10 37/5/10
f 34/5/10 38/1/9 33/1/9

g square-hq-brick-slope-inverted-1x2




usemtl colormap

f 3/1/1 2/2/1 1/1/1
f 2/2/1 3/1/1 4/2/1
f 3/1/2 6/1/2 5/1/2
f 6/1/2 3/1/2 1/1/2
f 2/2/3 6/1/3 1/1/3
f 6/1/3 2/2/3 7/3/4
f 7/3/4 2/2/3 8/3/4
f 9/4/5 7/3/4 8/3/4
f 7/3/4 9/4/5 10/4/5
f 4/2/6 8/3/7 2/2/6
f 8/3/7 4/2/6 11/3/7
f 11/3/7 9/4/8 8/3/7
f 9/4/8 11/3/7 12/4/8
f 13/3/10 3/1/9 5/1/9
f 3/1/9 13/3/10 4/2/9
f 4/2/9 13/3/10 11/3/10
f 14/4/11 11/3/10 13/3/10
f 11/3/10 14/4/11 12/4/11
f 9/4/12 14/4/12 10/4/12
f 14/4/12 9/4/12 12/4/12
f 6/1/13 13/3/14 5/1/13
f 13/3/14 6/1/13 7/3/14
f 10/4/15 13/3/14 7/3/14
f 13/3/14 10/4/15 14/4/15
f 17/5/4 16/1/3 15/1/3
f 16/1/3 17/5/4 18/5/4
f 19/4/5 18/5/4 17/5/4
f 18/5/4 19/4/5 20/4/5
f 16/1/13 22/5/14 21/1/13
f 22/5/14 16/1/13 18/5/14
f 20/4/15 22/5/14 18/5/14
f 22/5/14 20/4/15 23/4/15
f 19/4/12 23/4/12 20/4/12
f 23/4/12 19/4/12 24/4/12
f 19/4/8 25/5/7 24/4/8
f 25/5/7 19/4/8 17/5/7
f 17/5/7 26/1/6 25/5/7
f 26/1/6 17/5/7 15/1/6
f 25/5/10 23/4/11 24/4/11
f 23/4/11 25/5/10 22/5/10
f 26/1/9 22/5/10 25/5/10
f 22/5/10 26/1/9 21/1/9
f 29/5/4 28/1/3 27/1/3
f 28/1/3 29/5/4 30/5/4
f 31/4/5 30/5/4 29/5/4
f 30/5/4 31/4/5 32/4/5
f 28/1/13 34/5/14 33/1/13
f 34/5/14 28/1/13 30/5/14
f 32/4/15 34/5/14 30/5/14
f 34/5/14 32/4/15 35/4/15
f 31/4/12 35/4/12 32/4/12
f 35/4/12 31/4/12 36/4/12
f 31/4/8 37/5/7 36/4/8
f 37/5/7 31/4/8 29/5/7
f 29/5/7 38/1/6 37/5/7
f 38/1/6 29/5/7 27/1/6
f 37/5/10 35/4/11 36/4/11
f 35/4/11 37/5/10 34/5/10
f 38/1/9 34/5/10 37/5/10
f 34/5/10 38/1/9 33/1/9

