# Created by Kenney (www.kenney.nl)

mtllib square-lq-brick-slope-1x2.mtl

g square-lq-brick-slope-1x2

v 0.0795 0 0.0395 1 1 1
v 0.0795 0 -0.0395 1 1 1
v -0.0795 0 0.0395 1 1 1
v -0.0795 0 -0.0395 1 1 1
v -0.0795 0.016 -0.0395 1 1 1
v 0.0795 0.096 -0.0395 1 1 1
v 0 0.096 -0.0395 1 1 1
v 0.0795 0.096 0.0395 1 1 1
v -0.0795 0.016 0.0395 1 1 1
v 0 0.096 0.0395 1 1 1
v 0.01575 0.096 -0.024 1 1 1
v 0.06375 0.096 -0.024 1 1 1
v 0.01575 0.114 -0.024 1 1 1
v 0.06375 0.114 -0.024 1 1 1
v 0.01575 0.096 0.024 1 1 1
v 0.01575 0.114 0.024 1 1 1
v 0.06375 0.114 0.024 1 1 1
v 0.06375 0.096 0.024 1 1 1

vn 0 -1 0
vn 0 0 -1
vn 0 0 1
vn -0.7093199 0.7048866 0
vn -1 0 0
vn 1 0 0
vn 0 1 0

vt 0.59375 0.025
vt 0.59375 0.05833333
vt 0.59375 0.225

usemtl colormap

f 3/1/1 2/1/1 1/1/1
f 2/1/1 3/1/1 4/1/1
f 5/2/2 2/1/2 4/1/2
f 2/1/2 5/2/2 6/3/2
f 6/3/2 5/2/2 7/3/2
f 8/3/3 3/1/3 1/1/3
f 3/1/3 8/3/3 9/2/3
f 9/2/3 8/3/3 10/3/3
f 9/2/4 7/3/4 5/2/4
f 7/3/4 9/2/4 10/3/4
f 3/1/5 5/2/5 4/1/5
f 5/2/5 3/1/5 9/2/5
f 8/3/6 2/1/6 6/3/6
f 2/1/6 8/3/6 1/1/6
f 7/3/7 8/3/7 6/3/7
f 8/3/7 7/3/7 10/3/7
f 13/3/2 12/1/2 11/1/2
f 12/1/2 13/3/2 14/3/2
f 15/1/5 13/3/5 11/1/5
f 13/3/5 15/1/5 16/3/5
f 17/3/6 12/1/6 14/3/6
f 12/1/6 17/3/6 18/1/6
f 17/3/3 15/1/3 18/1/3
f 15/1/3 17/3/3 16/3/3
f 13/3/7 17/3/7 14/3/7
f 17/3/7 13/3/7 16/3/7

g square-lq-brick-slope-1x2




usemtl colormap

f 3/1/1 2/1/1 1/1/1
f 2/1/1 3/1/1 4/1/1
f 5/2/2 2/1/2 4/1/2
f 2/1/2 5/2/2 6/3/2
f 6/3/2 5/2/2 7/3/2
f 8/3/3 3/1/3 1/1/3
f 3/1/3 8/3/3 9/2/3
f 9/2/3 8/3/3 10/3/3
f 9/2/4 7/3/4 5/2/4
f 7/3/4 9/2/4 10/3/4
f 3/1/5 5/2/5 4/1/5
f 5/2/5 3/1/5 9/2/5
f 8/3/6 2/1/6 6/3/6
f 2/1/6 8/3/6 1/1/6
f 7/3/7 8/3/7 6/3/7
f 8/3/7 7/3/7 10/3/7
f 13/3/2 12/1/2 11/1/2
f 12/1/2 13/3/2 14/3/2
f 15/1/5 13/3/5 11/1/5
f 13/3/5 15/1/5 16/3/5
f 17/3/6 12/1/6 14/3/6
f 12/1/6 17/3/6 18/1/6
f 17/3/3 15/1/3 18/1/3
f 15/1/3 17/3/3 16/3/3
f 13/3/7 17/3/7 14/3/7
f 17/3/7 13/3/7 16/3/7

