# Created by Kenney (www.kenney.nl)

mtllib square-hq-brick-slope-corner-outside-inverted-2x2.mtl

g square-hq-brick-slope-corner-outside-inverted-2x2

v 0.0795 0 0.00025 1 1 1
v 0.0795 0 -0.07925 1 1 1
v 2.165734E-15 0 0.00025 1 1 1
v 2.165734E-15 0 -0.07925 1 1 1
v 0.0795 0.08 0.07925 1 1 1
v 0.0795 0.091 0.07925 1 1 1
v 0.0795 0.091 -0.07925 1 1 1
v 0.0745 0.096 -0.07425 1 1 1
v 0.0745 0.096 0.07425 1 1 1
v -0.0795 0.08 -0.07925 1 1 1
v -0.0795 0.091 -0.07925 1 1 1
v -0.0795 0.08 0.07925 1 1 1
v -0.0795 0.091 0.07925 1 1 1
v -0.0745 0.096 -0.07425 1 1 1
v -0.0745 0.096 0.07425 1 1 1
v -0.06375 0.096 0.01575 1 1 1
v -0.01575 0.096 0.01575 1 1 1
v -0.06375 0.109 0.01575 1 1 1
v -0.01575 0.109 0.01575 1 1 1
v -0.05875 0.114 0.02075 1 1 1
v -0.02075 0.114 0.02075 1 1 1
v -0.01575 0.096 0.06375 1 1 1
v -0.01575 0.109 0.06375 1 1 1
v -0.02075 0.114 0.05875 1 1 1
v -0.05875 0.114 0.05875 1 1 1
v -0.06375 0.109 0.06375 1 1 1
v -0.06375 0.096 0.06375 1 1 1
v 0.01575 0.096 -0.06325 1 1 1
v 0.06375 0.096 -0.06325 1 1 1
v 0.01575 0.109 -0.06325 1 1 1
v 0.06375 0.109 -0.06325 1 1 1
v 0.02075 0.114 -0.05825 1 1 1
v 0.05875 0.114 -0.05825 1 1 1
v 0.06375 0.096 -0.01525 1 1 1
v 0.06375 0.109 -0.01525 1 1 1
v 0.05875 0.114 -0.02025 1 1 1
v 0.02075 0.114 -0.02025 1 1 1
v 0.01575 0.109 -0.01525 1 1 1
v 0.01575 0.096 -0.01525 1 1 1
v 0.01575 0.096 0.01575 1 1 1
v 0.06375 0.096 0.01575 1 1 1
v 0.01575 0.109 0.01575 1 1 1
v 0.06375 0.109 0.01575 1 1 1
v 0.02075 0.114 0.02075 1 1 1
v 0.05875 0.114 0.02075 1 1 1
v 0.06375 0.096 0.06375 1 1 1
v 0.06375 0.109 0.06375 1 1 1
v 0.05875 0.114 0.05875 1 1 1
v 0.02075 0.114 0.05875 1 1 1
v 0.01575 0.109 0.06375 1 1 1
v 0.01575 0.096 0.06375 1 1 1
v -0.06375 0.096 -0.06325 1 1 1
v -0.01575 0.096 -0.06325 1 1 1
v -0.06375 0.109 -0.06325 1 1 1
v -0.01575 0.109 -0.06325 1 1 1
v -0.05875 0.114 -0.05825 1 1 1
v -0.02075 0.114 -0.05825 1 1 1
v -0.01575 0.096 -0.01525 1 1 1
v -0.01575 0.109 -0.01525 1 1 1
v -0.02075 0.114 -0.02025 1 1 1
v -0.05875 0.114 -0.02025 1 1 1
v -0.06375 0.109 -0.01525 1 1 1
v -0.06375 0.096 -0.01525 1 1 1

vn 0 -1 0
vn 1 0 0
vn 0.9576361 0.2879809 0
vn 0.7071068 0.7071068 0
vn -1 0 0
vn -0.9576361 0.2879809 0
vn -0.7071068 0.7071068 0
vn -0.7093199 -0.7048866 0
vn 0 0 -1
vn 0 0.2879809 -0.9576361
vn 0 0.7071068 -0.7071068
vn 0 0 1
vn 0 0.2879809 0.9576361
vn 0 0.7071068 0.7071068
vn 0 -0.7026457 0.71154
vn 0 1 0

vt 0.59375 0.025
vt 0.59375 0.1916666
vt 0.59375 0.2145833
vt 0.59375 0.225
vt 0.59375 0.1694444

usemtl colormap

f 3/1/1 2/1/1 1/1/1
f 2/1/1 3/1/1 4/1/1
f 1/1/2 6/3/3 5/2/2
f 2/1/2 6/3/3 1/1/2
f 6/3/3 2/1/2 7/3/3
f 8/4/4 6/3/3 7/3/3
f 6/3/3 8/4/4 9/4/4
f 12/2/5 11/3/6 10/2/5
f 11/3/6 12/2/5 13/3/6
f 13/3/6 14/4/7 11/3/6
f 14/4/7 13/3/6 15/4/7
f 3/1/8 10/2/8 4/1/8
f 10/2/8 3/1/8 12/2/8
f 10/2/9 2/1/9 4/1/9
f 2/1/9 10/2/9 7/3/10
f 7/3/10 10/2/9 11/3/10
f 14/4/11 7/3/10 11/3/10
f 7/3/10 14/4/11 8/4/11
f 6/3/13 12/2/12 5/2/12
f 12/2/12 6/3/13 13/3/13
f 9/4/14 13/3/13 6/3/13
f 13/3/13 9/4/14 15/4/14
f 5/2/15 3/1/15 1/1/15
f 3/1/15 5/2/15 12/2/15
f 14/4/16 9/4/16 8/4/16
f 9/4/16 14/4/16 15/4/16
f 18/5/10 17/1/9 16/1/9
f 17/1/9 18/5/10 19/5/10
f 20/4/11 19/5/10 18/5/10
f 19/5/10 20/4/11 21/4/11
f 17/1/2 23/5/3 22/1/2
f 23/5/3 17/1/2 19/5/3
f 21/4/4 23/5/3 19/5/3
f 23/5/3 21/4/4 24/4/4
f 20/4/16 24/4/16 21/4/16
f 24/4/16 20/4/16 25/4/16
f 20/4/7 26/5/6 25/4/7
f 26/5/6 20/4/7 18/5/6
f 18/5/6 27/1/5 26/5/6
f 27/1/5 18/5/6 16/1/5
f 26/5/13 24/4/14 25/4/14
f 24/4/14 26/5/13 23/5/13
f 27/1/12 23/5/13 26/5/13
f 23/5/13 27/1/12 22/1/12
f 30/5/10 29/1/9 28/1/9
f 29/1/9 30/5/10 31/5/10
f 32/4/11 31/5/10 30/5/10
f 31/5/10 32/4/11 33/4/11
f 29/1/2 35/5/3 34/1/2
f 35/5/3 29/1/2 31/5/3
f 33/4/4 35/5/3 31/5/3
f 35/5/3 33/4/4 36/4/4
f 32/4/16 36/4/16 33/4/16
f 36/4/16 32/4/16 37/4/16
f 32/4/7 38/5/6 37/4/7
f 38/5/6 32/4/7 30/5/6
f 30/5/6 39/1/5 38/5/6
f 39/1/5 30/5/6 28/1/5
f 38/5/13 36/4/14 37/4/14
f 36/4/14 38/5/13 35/5/13
f 39/1/12 35/5/13 38/5/13
f 35/5/13 39/1/12 34/1/12
f 42/5/10 41/1/9 40/1/9
f 41/1/9 42/5/10 43/5/10
f 44/4/11 43/5/10 42/5/10
f 43/5/10 44/4/11 45/4/11
f 41/1/2 47/5/3 46/1/2
f 47/5/3 41/1/2 43/5/3
f 45/4/4 47/5/3 43/5/3
f 47/5/3 45/4/4 48/4/4
f 44/4/16 48/4/16 45/4/16
f 48/4/16 44/4/16 49/4/16
f 44/4/7 50/5/6 49/4/7
f 50/5/6 44/4/7 42/5/6
f 42/5/6 51/1/5 50/5/6
f 51/1/5 42/5/6 40/1/5
f 50/5/13 48/4/14 49/4/14
f 48/4/14 50/5/13 47/5/13
f 51/1/12 47/5/13 50/5/13
f 47/5/13 51/1/12 46/1/12
f 54/5/10 53/1/9 52/1/9
f 53/1/9 54/5/10 55/5/10
f 56/4/11 55/5/10 54/5/10
f 55/5/10 56/4/11 57/4/11
f 53/1/2 59/5/3 58/1/2
f 59/5/3 53/1/2 55/5/3
f 57/4/4 59/5/3 55/5/3
f 59/5/3 57/4/4 60/4/4
f 56/4/16 60/4/16 57/4/16
f 60/4/16 56/4/16 61/4/16
f 56/4/7 62/5/6 61/4/7
f 62/5/6 56/4/7 54/5/6
f 54/5/6 63/1/5 62/5/6
f 63/1/5 54/5/6 52/1/5
f 62/5/13 60/4/14 61/4/14
f 60/4/14 62/5/13 59/5/13
f 63/1/12 59/5/13 62/5/13
f 59/5/13 63/1/12 58/1/12

g square-hq-brick-slope-corner-outside-inverted-2x2




usemtl colormap

f 3/1/1 2/1/1 1/1/1
f 2/1/1 3/1/1 4/1/1
f 1/1/2 6/3/3 5/2/2
f 2/1/2 6/3/3 1/1/2
f 6/3/3 2/1/2 7/3/3
f 8/4/4 6/3/3 7/3/3
f 6/3/3 8/4/4 9/4/4
f 12/2/5 11/3/6 10/2/5
f 11/3/6 12/2/5 13/3/6
f 13/3/6 14/4/7 11/3/6
f 14/4/7 13/3/6 15/4/7
f 3/1/8 10/2/8 4/1/8
f 10/2/8 3/1/8 12/2/8
f 10/2/9 2/1/9 4/1/9
f 2/1/9 10/2/9 7/3/10
f 7/3/10 10/2/9 11/3/10
f 14/4/11 7/3/10 11/3/10
f 7/3/10 14/4/11 8/4/11
f 6/3/13 12/2/12 5/2/12
f 12/2/12 6/3/13 13/3/13
f 9/4/14 13/3/13 6/3/13
f 13/3/13 9/4/14 15/4/14
f 5/2/15 3/1/15 1/1/15
f 3/1/15 5/2/15 12/2/15
f 14/4/16 9/4/16 8/4/16
f 9/4/16 14/4/16 15/4/16
f 18/5/10 17/1/9 16/1/9
f 17/1/9 18/5/10 19/5/10
f 20/4/11 19/5/10 18/5/10
f 19/5/10 20/4/11 21/4/11
f 17/1/2 23/5/3 22/1/2
f 23/5/3 17/1/2 19/5/3
f 21/4/4 23/5/3 19/5/3
f 23/5/3 21/4/4 24/4/4
f 20/4/16 24/4/16 21/4/16
f 24/4/16 20/4/16 25/4/16
f 20/4/7 26/5/6 25/4/7
f 26/5/6 20/4/7 18/5/6
f 18/5/6 27/1/5 26/5/6
f 27/1/5 18/5/6 16/1/5
f 26/5/13 24/4/14 25/4/14
f 24/4/14 26/5/13 23/5/13
f 27/1/12 23/5/13 26/5/13
f 23/5/13 27/1/12 22/1/12
f 30/5/10 29/1/9 28/1/9
f 29/1/9 30/5/10 31/5/10
f 32/4/11 31/5/10 30/5/10
f 31/5/10 32/4/11 33/4/11
f 29/1/2 35/5/3 34/1/2
f 35/5/3 29/1/2 31/5/3
f 33/4/4 35/5/3 31/5/3
f 35/5/3 33/4/4 36/4/4
f 32/4/16 36/4/16 33/4/16
f 36/4/16 32/4/16 37/4/16
f 32/4/7 38/5/6 37/4/7
f 38/5/6 32/4/7 30/5/6
f 30/5/6 39/1/5 38/5/6
f 39/1/5 30/5/6 28/1/5
f 38/5/13 36/4/14 37/4/14
f 36/4/14 38/5/13 35/5/13
f 39/1/12 35/5/13 38/5/13
f 35/5/13 39/1/12 34/1/12
f 42/5/10 41/1/9 40/1/9
f 41/1/9 42/5/10 43/5/10
f 44/4/11 43/5/10 42/5/10
f 43/5/10 44/4/11 45/4/11
f 41/1/2 47/5/3 46/1/2
f 47/5/3 41/1/2 43/5/3
f 45/4/4 47/5/3 43/5/3
f 47/5/3 45/4/4 48/4/4
f 44/4/16 48/4/16 45/4/16
f 48/4/16 44/4/16 49/4/16
f 44/4/7 50/5/6 49/4/7
f 50/5/6 44/4/7 42/5/6
f 42/5/6 51/1/5 50/5/6
f 51/1/5 42/5/6 40/1/5
f 50/5/13 48/4/14 49/4/14
f 48/4/14 50/5/13 47/5/13
f 51/1/12 47/5/13 50/5/13
f 47/5/13 51/1/12 46/1/12
f 54/5/10 53/1/9 52/1/9
f 53/1/9 54/5/10 55/5/10
f 56/4/11 55/5/10 54/5/10
f 55/5/10 56/4/11 57/4/11
f 53/1/2 59/5/3 58/1/2
f 59/5/3 53/1/2 55/5/3
f 57/4/4 59/5/3 55/5/3
f 59/5/3 57/4/4 60/4/4
f 56/4/16 60/4/16 57/4/16
f 60/4/16 56/4/16 61/4/16
f 56/4/7 62/5/6 61/4/7
f 62/5/6 56/4/7 54/5/6
f 54/5/6 63/1/5 62/5/6
f 63/1/5 54/5/6 52/1/5
f 62/5/13 60/4/14 61/4/14
f 60/4/14 62/5/13 59/5/13
f 63/1/12 59/5/13 62/5/13
f 59/5/13 63/1/12 58/1/12

