# Created by Kenney (www.kenney.nl)

mtllib square-lq-brick-slope-corner-outside-2x2.mtl

g square-lq-brick-slope-corner-outside-2x2

v 0.0795 0 0.07925 1 1 1
v 0.0795 0 -0.07925 1 1 1
v -0.0795 0 0.07925 1 1 1
v -0.0795 0 -0.07925 1 1 1
v -0.0795 0.016 -0.07925 1 1 1
v -0.0795 0.016 0.07925 1 1 1
v 0.0795 0.016 0.07925 1 1 1
v 0.0795 0.096 -0.07925 1 1 1
v 0.0795 0.096 0.00025 1 1 1
v 2.030376E-15 0.096 -0.07925 1 1 1
v 2.030376E-15 0.096 0.00025 1 1 1
v 0.01575 0.096 -0.06375 1 1 1
v 0.06375 0.096 -0.06375 1 1 1
v 0.01575 0.114 -0.06375 1 1 1
v 0.06375 0.114 -0.06375 1 1 1
v 0.01575 0.096 -0.01575 1 1 1
v 0.01575 0.114 -0.01575 1 1 1
v 0.06375 0.114 -0.01575 1 1 1
v 0.06375 0.096 -0.01575 1 1 1

vn 0 -1 0
vn -1 0 0
vn 0 0 1
vn 0 1 0
vn 0 0 -1
vn 1 0 0
vn -0.7093199 0.7048866 0
vn 0 0.7026457 0.71154

vt 0.59375 0.025
vt 0.59375 0.05833333
vt 0.59375 0.225

usemtl colormap

f 3/1/1 2/1/1 1/1/1
f 2/1/1 3/1/1 4/1/1
f 3/1/2 5/2/2 4/1/2
f 5/2/2 3/1/2 6/2/2
f 7/2/3 3/1/3 1/1/3
f 3/1/3 7/2/3 6/2/3
f 10/3/4 9/3/4 8/3/4
f 9/3/4 10/3/4 11/3/4
f 5/2/5 2/1/5 4/1/5
f 2/1/5 5/2/5 8/3/5
f 8/3/5 5/2/5 10/3/5
f 9/3/6 2/1/6 8/3/6
f 2/1/6 9/3/6 1/1/6
f 1/1/6 9/3/6 7/2/6
f 6/2/7 10/3/7 5/2/7
f 10/3/7 6/2/7 11/3/7
f 9/3/8 6/2/8 7/2/8
f 6/2/8 9/3/8 11/3/8
f 14/3/5 13/1/5 12/1/5
f 13/1/5 14/3/5 15/3/5
f 16/1/2 14/3/2 12/1/2
f 14/3/2 16/1/2 17/3/2
f 18/3/6 13/1/6 15/3/6
f 13/1/6 18/3/6 19/1/6
f 18/3/3 16/1/3 19/1/3
f 16/1/3 18/3/3 17/3/3
f 14/3/4 18/3/4 15/3/4
f 18/3/4 14/3/4 17/3/4

g square-lq-brick-slope-corner-outside-2x2




usemtl colormap

f 3/1/1 2/1/1 1/1/1
f 2/1/1 3/1/1 4/1/1
f 3/1/2 5/2/2 4/1/2
f 5/2/2 3/1/2 6/2/2
f 7/2/3 3/1/3 1/1/3
f 3/1/3 7/2/3 6/2/3
f 10/3/4 9/3/4 8/3/4
f 9/3/4 10/3/4 11/3/4
f 5/2/5 2/1/5 4/1/5
f 2/1/5 5/2/5 8/3/5
f 8/3/5 5/2/5 10/3/5
f 9/3/6 2/1/6 8/3/6
f 2/1/6 9/3/6 1/1/6
f 1/1/6 9/3/6 7/2/6
f 6/2/7 10/3/7 5/2/7
f 10/3/7 6/2/7 11/3/7
f 9/3/8 6/2/8 7/2/8
f 6/2/8 9/3/8 11/3/8
f 14/3/5 13/1/5 12/1/5
f 13/1/5 14/3/5 15/3/5
f 16/1/2 14/3/2 12/1/2
f 14/3/2 16/1/2 17/3/2
f 18/3/6 13/1/6 15/3/6
f 13/1/6 18/3/6 19/1/6
f 18/3/3 16/1/3 19/1/3
f 16/1/3 18/3/3 17/3/3
f 14/3/4 18/3/4 15/3/4
f 18/3/4 14/3/4 17/3/4

