# Created by Kenney (www.kenney.nl)

mtllib bevel-lq-brick-slope-inverted-1x2.mtl

g bevel-lq-brick-slope-inverted-1x2

v 0.0795 0.096 -0.0395 1 1 1
v 0.0795 0.096 0.0395 1 1 1
v -0.0795 0.096 -0.0395 1 1 1
v -0.0795 0.096 0.0395 1 1 1
v 0.0795 0 0.0395 1 1 1
v 0 0 0.0395 1 1 1
v -0.0795 0.08 0.0395 1 1 1
v 0.0795 0 -0.0395 1 1 1
v 0 0 -0.0395 1 1 1
v -0.0795 0.08 -0.0395 1 1 1
v 0.06375 0.114 -0.014 1 1 1
v 0.06375 0.114 0.014 1 1 1
v 0.05375 0.114 -0.024 1 1 1
v 0.05375 0.114 0.024 1 1 1
v 0.02575 0.114 -0.024 1 1 1
v 0.02575 0.114 0.024 1 1 1
v 0.01575 0.114 -0.014 1 1 1
v 0.01575 0.114 0.014 1 1 1
v 0.02575 0.096 -0.024 1 1 1
v 0.01575 0.096 -0.014 1 1 1
v 0.05375 0.096 -0.024 1 1 1
v 0.01575 0.096 0.014 1 1 1
v 0.06375 0.096 -0.014 1 1 1
v 0.02575 0.096 0.024 1 1 1
v 0.05375 0.096 0.024 1 1 1
v 0.06375 0.096 0.014 1 1 1
v -0.01575 0.114 -0.014 1 1 1
v -0.01575 0.114 0.014 1 1 1
v -0.02575 0.114 -0.024 1 1 1
v -0.02575 0.114 0.024 1 1 1
v -0.05375 0.114 -0.024 1 1 1
v -0.05375 0.114 0.024 1 1 1
v -0.06375 0.114 -0.014 1 1 1
v -0.06375 0.114 0.014 1 1 1
v -0.05375 0.096 -0.024 1 1 1
v -0.06375 0.096 -0.014 1 1 1
v -0.02575 0.096 -0.024 1 1 1
v -0.06375 0.096 0.014 1 1 1
v -0.01575 0.096 -0.014 1 1 1
v -0.05375 0.096 0.024 1 1 1
v -0.02575 0.096 0.024 1 1 1
v -0.01575 0.096 0.014 1 1 1

vn 0 1 0
vn 0 0 1
vn 1 0 0
vn 0 0 -1
vn -0.7093199 -0.7048866 0
vn -1 0 0
vn 0 -1 0
vn -0.3826834 0 -0.9238795
vn -0.9238795 0 -0.3826834
vn 0.3826834 0 -0.9238795
vn -0.9238795 0 0.3826834
vn 0.9238795 0 -0.3826834
vn -0.3826834 0 0.9238795
vn 0.3826834 0 0.9238795
vn 0.9238795 0 0.3826834

vt 0.59375 0.225
vt 0.59375 0.025
vt 0.59375 0.1916666

usemtl colormap

f 3/1/1 2/1/1 1/1/1
f 2/1/1 3/1/1 4/1/1
f 2/1/2 6/2/2 5/2/2
f 6/2/2 2/1/2 7/3/2
f 7/3/2 2/1/2 4/1/2
f 2/1/3 8/2/3 1/1/3
f 8/2/3 2/1/3 5/2/3
f 10/3/4 8/2/4 9/2/4
f 8/2/4 10/3/4 1/1/4
f 1/1/4 10/3/4 3/1/4
f 6/2/5 10/3/5 9/2/5
f 10/3/5 6/2/5 7/3/5
f 7/3/6 3/1/6 10/3/6
f 3/1/6 7/3/6 4/1/6
f 6/2/7 8/2/7 5/2/7
f 8/2/7 6/2/7 9/2/7
f 13/1/1 12/1/1 11/1/1
f 12/1/1 13/1/1 14/1/1
f 14/1/1 13/1/1 15/1/1
f 14/1/1 15/1/1 16/1/1
f 16/1/1 15/1/1 17/1/1
f 16/1/1 17/1/1 18/1/1
f 20/2/9 15/1/8 19/2/8
f 15/1/8 21/2/10 19/2/8
f 15/1/8 20/2/9 17/1/9
f 21/2/10 15/1/8 13/1/10
f 22/2/11 17/1/9 20/2/9
f 17/1/9 22/2/11 18/1/11
f 13/1/10 23/2/12 21/2/10
f 23/2/12 13/1/10 11/1/12
f 24/2/13 18/1/11 22/2/11
f 18/1/11 24/2/13 16/1/13
f 24/2/13 14/1/14 16/1/13
f 14/1/14 24/2/13 25/2/14
f 12/1/15 23/2/12 11/1/12
f 25/2/14 12/1/15 14/1/14
f 23/2/12 12/1/15 26/2/15
f 12/1/15 25/2/14 26/2/15
f 29/1/1 28/1/1 27/1/1
f 28/1/1 29/1/1 30/1/1
f 30/1/1 29/1/1 31/1/1
f 30/1/1 31/1/1 32/1/1
f 32/1/1 31/1/1 33/1/1
f 32/1/1 33/1/1 34/1/1
f 36/2/9 31/1/8 35/2/8
f 31/1/8 37/2/10 35/2/8
f 31/1/8 36/2/9 33/1/9
f 37/2/10 31/1/8 29/1/10
f 38/2/11 33/1/9 36/2/9
f 33/1/9 38/2/11 34/1/11
f 29/1/10 39/2/12 37/2/10
f 39/2/12 29/1/10 27/1/12
f 40/2/13 34/1/11 38/2/11
f 34/1/11 40/2/13 32/1/13
f 40/2/13 30/1/14 32/1/13
f 30/1/14 40/2/13 41/2/14
f 28/1/15 39/2/12 27/1/12
f 41/2/14 28/1/15 30/1/14
f 39/2/12 28/1/15 42/2/15
f 28/1/15 41/2/14 42/2/15

g bevel-lq-brick-slope-inverted-1x2




usemtl colormap

f 3/1/1 2/1/1 1/1/1
f 2/1/1 3/1/1 4/1/1
f 2/1/2 6/2/2 5/2/2
f 6/2/2 2/1/2 7/3/2
f 7/3/2 2/1/2 4/1/2
f 2/1/3 8/2/3 1/1/3
f 8/2/3 2/1/3 5/2/3
f 10/3/4 8/2/4 9/2/4
f 8/2/4 10/3/4 1/1/4
f 1/1/4 10/3/4 3/1/4
f 6/2/5 10/3/5 9/2/5
f 10/3/5 6/2/5 7/3/5
f 7/3/6 3/1/6 10/3/6
f 3/1/6 7/3/6 4/1/6
f 6/2/7 8/2/7 5/2/7
f 8/2/7 6/2/7 9/2/7
f 13/1/1 12/1/1 11/1/1
f 12/1/1 13/1/1 14/1/1
f 14/1/1 13/1/1 15/1/1
f 14/1/1 15/1/1 16/1/1
f 16/1/1 15/1/1 17/1/1
f 16/1/1 17/1/1 18/1/1
f 20/2/9 15/1/8 19/2/8
f 15/1/8 21/2/10 19/2/8
f 15/1/8 20/2/9 17/1/9
f 21/2/10 15/1/8 13/1/10
f 22/2/11 17/1/9 20/2/9
f 17/1/9 22/2/11 18/1/11
f 13/1/10 23/2/12 21/2/10
f 23/2/12 13/1/10 11/1/12
f 24/2/13 18/1/11 22/2/11
f 18/1/11 24/2/13 16/1/13
f 24/2/13 14/1/14 16/1/13
f 14/1/14 24/2/13 25/2/14
f 12/1/15 23/2/12 11/1/12
f 25/2/14 12/1/15 14/1/14
f 23/2/12 12/1/15 26/2/15
f 12/1/15 25/2/14 26/2/15
f 29/1/1 28/1/1 27/1/1
f 28/1/1 29/1/1 30/1/1
f 30/1/1 29/1/1 31/1/1
f 30/1/1 31/1/1 32/1/1
f 32/1/1 31/1/1 33/1/1
f 32/1/1 33/1/1 34/1/1
f 36/2/9 31/1/8 35/2/8
f 31/1/8 37/2/10 35/2/8
f 31/1/8 36/2/9 33/1/9
f 37/2/10 31/1/8 29/1/10
f 38/2/11 33/1/9 36/2/9
f 33/1/9 38/2/11 34/1/11
f 29/1/10 39/2/12 37/2/10
f 39/2/12 29/1/10 27/1/12
f 40/2/13 34/1/11 38/2/11
f 34/1/11 40/2/13 32/1/13
f 40/2/13 30/1/14 32/1/13
f 30/1/14 40/2/13 41/2/14
f 28/1/15 39/2/12 27/1/12
f 41/2/14 28/1/15 30/1/14
f 39/2/12 28/1/15 42/2/15
f 28/1/15 41/2/14 42/2/15

