# Created by Kenney (www.kenney.nl)

mtllib bevel-hq-brick-slope-inverted-2x2.mtl

g bevel-hq-brick-slope-inverted-2x2

v 0 0 -0.079 1 1 1
v -0.0795 0.08 -0.079 1 1 1
v 0 0 0.079 1 1 1
v -0.0795 0.08 0.079 1 1 1
v 0.0795 0 0.079 1 1 1
v 0.0795 0 -0.079 1 1 1
v 0.0795 0.091 0.079 1 1 1
v 0.0795 0.091 -0.079 1 1 1
v 0.0745 0.096 -0.074 1 1 1
v 0.0745 0.096 0.074 1 1 1
v -0.0795 0.091 -0.079 1 1 1
v -0.0745 0.096 -0.074 1 1 1
v -0.0795 0.091 0.079 1 1 1
v -0.0745 0.096 0.074 1 1 1
v -0.02075 0.114 0.02757107 1 1 1
v -0.02075 0.114 0.05142893 1 1 1
v -0.02782107 0.114 0.0205 1 1 1
v -0.02782107 0.114 0.0585 1 1 1
v -0.05167893 0.114 0.0205 1 1 1
v -0.05167893 0.114 0.0585 1 1 1
v -0.05875 0.114 0.02757107 1 1 1
v -0.05875 0.114 0.05142893 1 1 1
v -0.02575 0.109 0.0155 1 1 1
v -0.05375 0.109 0.0155 1 1 1
v -0.01575 0.109 0.0255 1 1 1
v -0.02575 0.096 0.0155 1 1 1
v -0.05375 0.096 0.0155 1 1 1
v -0.01575 0.096 0.0255 1 1 1
v -0.06375 0.096 0.0255 1 1 1
v -0.01575 0.109 0.0535 1 1 1
v -0.01575 0.096 0.0535 1 1 1
v -0.06375 0.109 0.0255 1 1 1
v -0.06375 0.096 0.0535 1 1 1
v -0.02575 0.109 0.0635 1 1 1
v -0.02575 0.096 0.0635 1 1 1
v -0.05375 0.096 0.0635 1 1 1
v -0.06375 0.109 0.0535 1 1 1
v -0.05375 0.109 0.0635 1 1 1
v 0.05875 0.114 0.02757107 1 1 1
v 0.05875 0.114 0.05142893 1 1 1
v 0.05167893 0.114 0.0205 1 1 1
v 0.05167893 0.114 0.0585 1 1 1
v 0.02782107 0.114 0.0205 1 1 1
v 0.02782107 0.114 0.0585 1 1 1
v 0.02075 0.114 0.02757107 1 1 1
v 0.02075 0.114 0.05142893 1 1 1
v 0.05375 0.109 0.0155 1 1 1
v 0.02575 0.109 0.0155 1 1 1
v 0.06375 0.109 0.0255 1 1 1
v 0.05375 0.096 0.0155 1 1 1
v 0.02575 0.096 0.0155 1 1 1
v 0.06375 0.096 0.0255 1 1 1
v 0.01575 0.096 0.0255 1 1 1
v 0.06375 0.109 0.0535 1 1 1
v 0.06375 0.096 0.0535 1 1 1
v 0.01575 0.109 0.0255 1 1 1
v 0.01575 0.096 0.0535 1 1 1
v 0.05375 0.109 0.0635 1 1 1
v 0.05375 0.096 0.0635 1 1 1
v 0.02575 0.096 0.0635 1 1 1
v 0.01575 0.109 0.0535 1 1 1
v 0.02575 0.109 0.0635 1 1 1
v -0.02075 0.114 -0.05142893 1 1 1
v -0.02075 0.114 -0.02757107 1 1 1
v -0.02782107 0.114 -0.0585 1 1 1
v -0.02782107 0.114 -0.0205 1 1 1
v -0.05167893 0.114 -0.0585 1 1 1
v -0.05167893 0.114 -0.0205 1 1 1
v -0.05875 0.114 -0.05142893 1 1 1
v -0.05875 0.114 -0.02757107 1 1 1
v -0.02575 0.109 -0.0635 1 1 1
v -0.05375 0.109 -0.0635 1 1 1
v -0.01575 0.109 -0.0535 1 1 1
v -0.02575 0.096 -0.0635 1 1 1
v -0.05375 0.096 -0.0635 1 1 1
v -0.01575 0.096 -0.0535 1 1 1
v -0.06375 0.096 -0.0535 1 1 1
v -0.01575 0.109 -0.0255 1 1 1
v -0.01575 0.096 -0.0255 1 1 1
v -0.06375 0.109 -0.0535 1 1 1
v -0.06375 0.096 -0.0255 1 1 1
v -0.02575 0.109 -0.0155 1 1 1
v -0.02575 0.096 -0.0155 1 1 1
v -0.05375 0.096 -0.0155 1 1 1
v -0.06375 0.109 -0.0255 1 1 1
v -0.05375 0.109 -0.0155 1 1 1
v 0.05875 0.114 -0.05142893 1 1 1
v 0.05875 0.114 -0.02757107 1 1 1
v 0.05167893 0.114 -0.0585 1 1 1
v 0.05167893 0.114 -0.0205 1 1 1
v 0.02782107 0.114 -0.0585 1 1 1
v 0.02782107 0.114 -0.0205 1 1 1
v 0.02075 0.114 -0.05142893 1 1 1
v 0.02075 0.114 -0.02757107 1 1 1
v 0.05375 0.109 -0.0635 1 1 1
v 0.02575 0.109 -0.0635 1 1 1
v 0.06375 0.109 -0.0535 1 1 1
v 0.05375 0.096 -0.0635 1 1 1
v 0.02575 0.096 -0.0635 1 1 1
v 0.06375 0.096 -0.0535 1 1 1
v 0.01575 0.096 -0.0535 1 1 1
v 0.06375 0.109 -0.0255 1 1 1
v 0.06375 0.096 -0.0255 1 1 1
v 0.01575 0.109 -0.0535 1 1 1
v 0.01575 0.096 -0.0255 1 1 1
v 0.05375 0.109 -0.0155 1 1 1
v 0.05375 0.096 -0.0155 1 1 1
v 0.02575 0.096 -0.0155 1 1 1
v 0.01575 0.109 -0.0255 1 1 1
v 0.02575 0.109 -0.0155 1 1 1

vn -0.7093199 -0.7048866 0
vn 0 -1 0
vn 1 0 0
vn 0.9576361 0.2879809 0
vn 0.7071068 0.7071068 0
vn 0 0 -1
vn 0 0.2879809 -0.9576361
vn 0 0.7071068 -0.7071068
vn -1 0 0
vn -0.9576361 0.2879809 0
vn -0.7071068 0.7071068 0
vn 0 0 1
vn 0 0.2879809 0.9576361
vn 0 0.7071068 0.7071068
vn 0 1 0
vn 0.2596883 0.7345095 -0.6269431
vn 0.3556998 0.3688517 -0.8587352
vn 0.6269431 0.7345095 -0.2596884
vn -0.2596883 0.7345095 -0.6269431
vn -0.3556998 0.3688517 -0.8587352
vn -0.6269431 0.7345095 -0.2596884
vn 0.8587352 0.3688517 -0.3556998
vn 0.3826834 0 -0.9238795
vn -0.3826834 0 -0.9238795
vn 0.9238795 0 -0.3826834
vn -0.9238795 0 -0.3826834
vn 0.8587352 0.3688517 0.3556998
vn 0.6269431 0.7345095 0.2596884
vn 0.9238795 0 0.3826834
vn -0.8587352 0.3688517 -0.3556998
vn -0.9238795 0 0.3826834
vn 0.3556998 0.3688517 0.8587352
vn 0.3826834 0 0.9238795
vn 0.2596883 0.7345095 0.6269431
vn -0.3826834 0 0.9238795
vn -0.8587352 0.3688517 0.3556998
vn -0.6269431 0.7345095 0.2596884
vn -0.3556998 0.3688517 0.8587352
vn -0.2596883 0.7345095 0.6269431

vt 0.59375 0.025
vt 0.59375 0.1916666
vt 0.59375 0.2145833
vt 0.59375 0.225
vt 0.59375 0.1694444

usemtl colormap

f 3/1/1 2/2/1 1/1/1
f 2/2/1 3/1/1 4/2/1
f 3/1/2 6/1/2 5/1/2
f 6/1/2 3/1/2 1/1/2
f 6/1/3 7/3/4 5/1/3
f 7/3/4 6/1/3 8/3/4
f 9/4/5 7/3/4 8/3/4
f 7/3/4 9/4/5 10/4/5
f 2/2/6 6/1/6 1/1/6
f 6/1/6 2/2/6 8/3/7
f 8/3/7 2/2/6 11/3/7
f 11/3/7 9/4/8 8/3/7
f 9/4/8 11/3/7 12/4/8
f 4/2/9 11/3/10 2/2/9
f 11/3/10 4/2/9 13/3/10
f 13/3/10 12/4/11 11/3/10
f 12/4/11 13/3/10 14/4/11
f 7/3/13 3/1/12 5/1/12
f 3/1/12 7/3/13 4/2/12
f 4/2/12 7/3/13 13/3/13
f 10/4/14 13/3/13 7/3/13
f 13/3/13 10/4/14 14/4/14
f 12/4/15 10/4/15 9/4/15
f 10/4/15 12/4/15 14/4/15
f 17/4/15 16/4/15 15/4/15
f 16/4/15 17/4/15 18/4/15
f 18/4/15 17/4/15 19/4/15
f 18/4/15 19/4/15 20/4/15
f 20/4/15 19/4/15 21/4/15
f 20/4/15 21/4/15 22/4/15
f 15/4/18 23/5/17 17/4/16
f 23/5/17 19/4/19 17/4/16
f 19/4/19 23/5/17 24/5/20
f 24/5/20 21/4/21 19/4/19
f 23/5/17 15/4/18 25/5/22
f 26/1/23 24/5/20 23/5/17
f 25/5/22 26/1/23 23/5/17
f 24/5/20 26/1/23 27/1/24
f 26/1/23 25/5/22 28/1/25
f 29/1/26 24/5/20 27/1/24
f 15/4/18 30/5/27 25/5/22
f 30/5/27 28/1/25 25/5/22
f 30/5/27 15/4/18 16/4/28
f 28/1/25 30/5/27 31/1/29
f 24/5/20 29/1/26 32/5/30
f 21/4/21 24/5/20 32/5/30
f 33/1/31 32/5/30 29/1/26
f 16/4/28 34/5/32 30/5/27
f 34/5/32 31/1/29 30/5/27
f 31/1/29 34/5/32 35/1/33
f 34/5/32 16/4/28 18/4/34
f 34/5/32 36/1/35 35/1/33
f 37/5/36 21/4/21 32/5/30
f 32/5/30 33/1/31 37/5/36
f 36/1/35 37/5/36 33/1/31
f 21/4/21 37/5/36 22/4/37
f 18/4/34 38/5/38 34/5/32
f 36/1/35 34/5/32 38/5/38
f 37/5/36 36/1/35 38/5/38
f 38/5/38 22/4/37 37/5/36
f 38/5/38 18/4/34 20/4/39
f 22/4/37 38/5/38 20/4/39
f 41/4/15 40/4/15 39/4/15
f 40/4/15 41/4/15 42/4/15
f 42/4/15 41/4/15 43/4/15
f 42/4/15 43/4/15 44/4/15
f 44/4/15 43/4/15 45/4/15
f 44/4/15 45/4/15 46/4/15
f 39/4/18 47/5/17 41/4/16
f 47/5/17 43/4/19 41/4/16
f 43/4/19 47/5/17 48/5/20
f 48/5/20 45/4/21 43/4/19
f 47/5/17 39/4/18 49/5/22
f 50/1/23 48/5/20 47/5/17
f 49/5/22 50/1/23 47/5/17
f 48/5/20 50/1/23 51/1/24
f 50/1/23 49/5/22 52/1/25
f 53/1/26 48/5/20 51/1/24
f 39/4/18 54/5/27 49/5/22
f 54/5/27 52/1/25 49/5/22
f 54/5/27 39/4/18 40/4/28
f 52/1/25 54/5/27 55/1/29
f 48/5/20 53/1/26 56/5/30
f 45/4/21 48/5/20 56/5/30
f 57/1/31 56/5/30 53/1/26
f 40/4/28 58/5/32 54/5/27
f 58/5/32 55/1/29 54/5/27
f 55/1/29 58/5/32 59/1/33
f 58/5/32 40/4/28 42/4/34
f 58/5/32 60/1/35 59/1/33
f 61/5/36 45/4/21 56/5/30
f 56/5/30 57/1/31 61/5/36
f 60/1/35 61/5/36 57/1/31
f 45/4/21 61/5/36 46/4/37
f 42/4/34 62/5/38 58/5/32
f 60/1/35 58/5/32 62/5/38
f 61/5/36 60/1/35 62/5/38
f 62/5/38 46/4/37 61/5/36
f 62/5/38 42/4/34 44/4/39
f 46/4/37 62/5/38 44/4/39
f 65/4/15 64/4/15 63/4/15
f 64/4/15 65/4/15 66/4/15
f 66/4/15 65/4/15 67/4/15
f 66/4/15 67/4/15 68/4/15
f 68/4/15 67/4/15 69/4/15
f 68/4/15 69/4/15 70/4/15
f 63/4/18 71/5/17 65/4/16
f 71/5/17 67/4/19 65/4/16
f 67/4/19 71/5/17 72/5/20
f 72/5/20 69/4/21 67/4/19
f 71/5/17 63/4/18 73/5/22
f 74/1/23 72/5/20 71/5/17
f 73/5/22 74/1/23 71/5/17
f 72/5/20 74/1/23 75/1/24
f 74/1/23 73/5/22 76/1/25
f 77/1/26 72/5/20 75/1/24
f 63/4/18 78/5/27 73/5/22
f 78/5/27 76/1/25 73/5/22
f 78/5/27 63/4/18 64/4/28
f 76/1/25 78/5/27 79/1/29
f 72/5/20 77/1/26 80/5/30
f 69/4/21 72/5/20 80/5/30
f 81/1/31 80/5/30 77/1/26
f 64/4/28 82/5/32 78/5/27
f 82/5/32 79/1/29 78/5/27
f 79/1/29 82/5/32 83/1/33
f 82/5/32 64/4/28 66/4/34
f 82/5/32 84/1/35 83/1/33
f 85/5/36 69/4/21 80/5/30
f 80/5/30 81/1/31 85/5/36
f 84/1/35 85/5/36 81/1/31
f 69/4/21 85/5/36 70/4/37
f 66/4/34 86/5/38 82/5/32
f 84/1/35 82/5/32 86/5/38
f 85/5/36 84/1/35 86/5/38
f 86/5/38 70/4/37 85/5/36
f 86/5/38 66/4/34 68/4/39
f 70/4/37 86/5/38 68/4/39
f 89/4/15 88/4/15 87/4/15
f 88/4/15 89/4/15 90/4/15
f 90/4/15 89/4/15 91/4/15
f 90/4/15 91/4/15 92/4/15
f 92/4/15 91/4/15 93/4/15
f 92/4/15 93/4/15 94/4/15
f 87/4/18 95/5/17 89/4/16
f 95/5/17 91/4/19 89/4/16
f 91/4/19 95/5/17 96/5/20
f 96/5/20 93/4/21 91/4/19
f 95/5/17 87/4/18 97/5/22
f 98/1/23 96/5/20 95/5/17
f 97/5/22 98/1/23 95/5/17
f 96/5/20 98/1/23 99/1/24
f 98/1/23 97/5/22 100/1/25
f 101/1/26 96/5/20 99/1/24
f 87/4/18 102/5/27 97/5/22
f 102/5/27 100/1/25 97/5/22
f 102/5/27 87/4/18 88/4/28
f 100/1/25 102/5/27 103/1/29
f 96/5/20 101/1/26 104/5/30
f 93/4/21 96/5/20 104/5/30
f 105/1/31 104/5/30 101/1/26
f 88/4/28 106/5/32 102/5/27
f 106/5/32 103/1/29 102/5/27
f 103/1/29 106/5/32 107/1/33
f 106/5/32 88/4/28 90/4/34
f 106/5/32 108/1/35 107/1/33
f 109/5/36 93/4/21 104/5/30
f 104/5/30 105/1/31 109/5/36
f 108/1/35 109/5/36 105/1/31
f 93/4/21 109/5/36 94/4/37
f 90/4/34 110/5/38 106/5/32
f 108/1/35 106/5/32 110/5/38
f 109/5/36 108/1/35 110/5/38
f 110/5/38 94/4/37 109/5/36
f 110/5/38 90/4/34 92/4/39
f 94/4/37 110/5/38 92/4/39

g bevel-hq-brick-slope-inverted-2x2




usemtl colormap

f 3/1/1 2/2/1 1/1/1
f 2/2/1 3/1/1 4/2/1
f 3/1/2 6/1/2 5/1/2
f 6/1/2 3/1/2 1/1/2
f 6/1/3 7/3/4 5/1/3
f 7/3/4 6/1/3 8/3/4
f 9/4/5 7/3/4 8/3/4
f 7/3/4 9/4/5 10/4/5
f 2/2/6 6/1/6 1/1/6
f 6/1/6 2/2/6 8/3/7
f 8/3/7 2/2/6 11/3/7
f 11/3/7 9/4/8 8/3/7
f 9/4/8 11/3/7 12/4/8
f 4/2/9 11/3/10 2/2/9
f 11/3/10 4/2/9 13/3/10
f 13/3/10 12/4/11 11/3/10
f 12/4/11 13/3/10 14/4/11
f 7/3/13 3/1/12 5/1/12
f 3/1/12 7/3/13 4/2/12
f 4/2/12 7/3/13 13/3/13
f 10/4/14 13/3/13 7/3/13
f 13/3/13 10/4/14 14/4/14
f 12/4/15 10/4/15 9/4/15
f 10/4/15 12/4/15 14/4/15
f 17/4/15 16/4/15 15/4/15
f 16/4/15 17/4/15 18/4/15
f 18/4/15 17/4/15 19/4/15
f 18/4/15 19/4/15 20/4/15
f 20/4/15 19/4/15 21/4/15
f 20/4/15 21/4/15 22/4/15
f 15/4/18 23/5/17 17/4/16
f 23/5/17 19/4/19 17/4/16
f 19/4/19 23/5/17 24/5/20
f 24/5/20 21/4/21 19/4/19
f 23/5/17 15/4/18 25/5/22
f 26/1/23 24/5/20 23/5/17
f 25/5/22 26/1/23 23/5/17
f 24/5/20 26/1/23 27/1/24
f 26/1/23 25/5/22 28/1/25
f 29/1/26 24/5/20 27/1/24
f 15/4/18 30/5/27 25/5/22
f 30/5/27 28/1/25 25/5/22
f 30/5/27 15/4/18 16/4/28
f 28/1/25 30/5/27 31/1/29
f 24/5/20 29/1/26 32/5/30
f 21/4/21 24/5/20 32/5/30
f 33/1/31 32/5/30 29/1/26
f 16/4/28 34/5/32 30/5/27
f 34/5/32 31/1/29 30/5/27
f 31/1/29 34/5/32 35/1/33
f 34/5/32 16/4/28 18/4/34
f 34/5/32 36/1/35 35/1/33
f 37/5/36 21/4/21 32/5/30
f 32/5/30 33/1/31 37/5/36
f 36/1/35 37/5/36 33/1/31
f 21/4/21 37/5/36 22/4/37
f 18/4/34 38/5/38 34/5/32
f 36/1/35 34/5/32 38/5/38
f 37/5/36 36/1/35 38/5/38
f 38/5/38 22/4/37 37/5/36
f 38/5/38 18/4/34 20/4/39
f 22/4/37 38/5/38 20/4/39
f 41/4/15 40/4/15 39/4/15
f 40/4/15 41/4/15 42/4/15
f 42/4/15 41/4/15 43/4/15
f 42/4/15 43/4/15 44/4/15
f 44/4/15 43/4/15 45/4/15
f 44/4/15 45/4/15 46/4/15
f 39/4/18 47/5/17 41/4/16
f 47/5/17 43/4/19 41/4/16
f 43/4/19 47/5/17 48/5/20
f 48/5/20 45/4/21 43/4/19
f 47/5/17 39/4/18 49/5/22
f 50/1/23 48/5/20 47/5/17
f 49/5/22 50/1/23 47/5/17
f 48/5/20 50/1/23 51/1/24
f 50/1/23 49/5/22 52/1/25
f 53/1/26 48/5/20 51/1/24
f 39/4/18 54/5/27 49/5/22
f 54/5/27 52/1/25 49/5/22
f 54/5/27 39/4/18 40/4/28
f 52/1/25 54/5/27 55/1/29
f 48/5/20 53/1/26 56/5/30
f 45/4/21 48/5/20 56/5/30
f 57/1/31 56/5/30 53/1/26
f 40/4/28 58/5/32 54/5/27
f 58/5/32 55/1/29 54/5/27
f 55/1/29 58/5/32 59/1/33
f 58/5/32 40/4/28 42/4/34
f 58/5/32 60/1/35 59/1/33
f 61/5/36 45/4/21 56/5/30
f 56/5/30 57/1/31 61/5/36
f 60/1/35 61/5/36 57/1/31
f 45/4/21 61/5/36 46/4/37
f 42/4/34 62/5/38 58/5/32
f 60/1/35 58/5/32 62/5/38
f 61/5/36 60/1/35 62/5/38
f 62/5/38 46/4/37 61/5/36
f 62/5/38 42/4/34 44/4/39
f 46/4/37 62/5/38 44/4/39
f 65/4/15 64/4/15 63/4/15
f 64/4/15 65/4/15 66/4/15
f 66/4/15 65/4/15 67/4/15
f 66/4/15 67/4/15 68/4/15
f 68/4/15 67/4/15 69/4/15
f 68/4/15 69/4/15 70/4/15
f 63/4/18 71/5/17 65/4/16
f 71/5/17 67/4/19 65/4/16
f 67/4/19 71/5/17 72/5/20
f 72/5/20 69/4/21 67/4/19
f 71/5/17 63/4/18 73/5/22
f 74/1/23 72/5/20 71/5/17
f 73/5/22 74/1/23 71/5/17
f 72/5/20 74/1/23 75/1/24
f 74/1/23 73/5/22 76/1/25
f 77/1/26 72/5/20 75/1/24
f 63/4/18 78/5/27 73/5/22
f 78/5/27 76/1/25 73/5/22
f 78/5/27 63/4/18 64/4/28
f 76/1/25 78/5/27 79/1/29
f 72/5/20 77/1/26 80/5/30
f 69/4/21 72/5/20 80/5/30
f 81/1/31 80/5/30 77/1/26
f 64/4/28 82/5/32 78/5/27
f 82/5/32 79/1/29 78/5/27
f 79/1/29 82/5/32 83/1/33
f 82/5/32 64/4/28 66/4/34
f 82/5/32 84/1/35 83/1/33
f 85/5/36 69/4/21 80/5/30
f 80/5/30 81/1/31 85/5/36
f 84/1/35 85/5/36 81/1/31
f 69/4/21 85/5/36 70/4/37
f 66/4/34 86/5/38 82/5/32
f 84/1/35 82/5/32 86/5/38
f 85/5/36 84/1/35 86/5/38
f 86/5/38 70/4/37 85/5/36
f 86/5/38 66/4/34 68/4/39
f 70/4/37 86/5/38 68/4/39
f 89/4/15 88/4/15 87/4/15
f 88/4/15 89/4/15 90/4/15
f 90/4/15 89/4/15 91/4/15
f 90/4/15 91/4/15 92/4/15
f 92/4/15 91/4/15 93/4/15
f 92/4/15 93/4/15 94/4/15
f 87/4/18 95/5/17 89/4/16
f 95/5/17 91/4/19 89/4/16
f 91/4/19 95/5/17 96/5/20
f 96/5/20 93/4/21 91/4/19
f 95/5/17 87/4/18 97/5/22
f 98/1/23 96/5/20 95/5/17
f 97/5/22 98/1/23 95/5/17
f 96/5/20 98/1/23 99/1/24
f 98/1/23 97/5/22 100/1/25
f 101/1/26 96/5/20 99/1/24
f 87/4/18 102/5/27 97/5/22
f 102/5/27 100/1/25 97/5/22
f 102/5/27 87/4/18 88/4/28
f 100/1/25 102/5/27 103/1/29
f 96/5/20 101/1/26 104/5/30
f 93/4/21 96/5/20 104/5/30
f 105/1/31 104/5/30 101/1/26
f 88/4/28 106/5/32 102/5/27
f 106/5/32 103/1/29 102/5/27
f 103/1/29 106/5/32 107/1/33
f 106/5/32 88/4/28 90/4/34
f 106/5/32 108/1/35 107/1/33
f 109/5/36 93/4/21 104/5/30
f 104/5/30 105/1/31 109/5/36
f 108/1/35 109/5/36 105/1/31
f 93/4/21 109/5/36 94/4/37
f 90/4/34 110/5/38 106/5/32
f 108/1/35 106/5/32 110/5/38
f 109/5/36 108/1/35 110/5/38
f 110/5/38 94/4/37 109/5/36
f 110/5/38 90/4/34 92/4/39
f 94/4/37 110/5/38 92/4/39

