# Created by Kenney (www.kenney.nl)

mtllib bevel-lq-brick-slope-corner-inside-2x2.mtl

g bevel-lq-brick-slope-corner-inside-2x2

v -0.0795 0.016 0.0795 1 1 1
v 2.255973E-17 0.096 3.609557E-15 1 1 1
v -9.24949E-16 0.096 0.0795 1 1 1
v -0.0795 0.096 2.52669E-15 1 1 1
v -0.0795 0 -0.0795 1 1 1
v 0.0795 0 -0.0795 1 1 1
v -0.0795 0.096 -0.0795 1 1 1
v 0.0795 0.096 -0.0795 1 1 1
v 0.0795 0 0.0795 1 1 1
v -0.0795 0 0.0795 1 1 1
v 0.0795 0.096 0.0795 1 1 1
v 0.06375 0.114 0.025 1 1 1
v 0.06375 0.114 0.053 1 1 1
v 0.05375 0.114 0.015 1 1 1
v 0.05375 0.114 0.063 1 1 1
v 0.02575 0.114 0.015 1 1 1
v 0.02575 0.114 0.063 1 1 1
v 0.01575 0.114 0.025 1 1 1
v 0.01575 0.114 0.053 1 1 1
v 0.02575 0.096 0.015 1 1 1
v 0.01575 0.096 0.025 1 1 1
v 0.05375 0.096 0.015 1 1 1
v 0.01575 0.096 0.053 1 1 1
v 0.06375 0.096 0.025 1 1 1
v 0.02575 0.096 0.063 1 1 1
v 0.05375 0.096 0.063 1 1 1
v 0.06375 0.096 0.053 1 1 1
v -0.01575 0.114 -0.054 1 1 1
v -0.01575 0.114 -0.026 1 1 1
v -0.02575 0.114 -0.064 1 1 1
v -0.02575 0.114 -0.016 1 1 1
v -0.05375 0.114 -0.064 1 1 1
v -0.05375 0.114 -0.016 1 1 1
v -0.06375 0.114 -0.054 1 1 1
v -0.06375 0.114 -0.026 1 1 1
v -0.05375 0.096 -0.064 1 1 1
v -0.06375 0.096 -0.054 1 1 1
v -0.02575 0.096 -0.064 1 1 1
v -0.06375 0.096 -0.026 1 1 1
v -0.01575 0.096 -0.054 1 1 1
v -0.05375 0.096 -0.016 1 1 1
v -0.02575 0.096 -0.016 1 1 1
v -0.01575 0.096 -0.026 1 1 1
v 0.06375 0.114 -0.054 1 1 1
v 0.06375 0.114 -0.026 1 1 1
v 0.05375 0.114 -0.064 1 1 1
v 0.05375 0.114 -0.016 1 1 1
v 0.02575 0.114 -0.064 1 1 1
v 0.02575 0.114 -0.016 1 1 1
v 0.01575 0.114 -0.054 1 1 1
v 0.01575 0.114 -0.026 1 1 1
v 0.02575 0.096 -0.064 1 1 1
v 0.01575 0.096 -0.054 1 1 1
v 0.05375 0.096 -0.064 1 1 1
v 0.01575 0.096 -0.026 1 1 1
v 0.06375 0.096 -0.054 1 1 1
v 0.02575 0.096 -0.016 1 1 1
v 0.05375 0.096 -0.016 1 1 1
v 0.06375 0.096 -0.026 1 1 1

vn -0.7093199 0.7048866 0
vn 0 0.7048866 0.7093199
vn 0 0 -1
vn 0 0 1
vn 0 -1 0
vn -1 0 0
vn 1 0 0
vn 0 1 0
vn -0.3826834 0 -0.9238795
vn -0.9238795 0 -0.3826834
vn 0.3826834 0 -0.9238795
vn -0.9238795 0 0.3826834
vn 0.9238795 0 -0.3826834
vn -0.3826834 0 0.9238795
vn 0.3826834 0 0.9238795
vn 0.9238795 0 0.3826834

vt 0.59375 0.05833333
vt 0.59375 0.225
vt 0.59375 0.025

usemtl colormap

f 3/2/1 2/2/1 1/1/1
f 4/2/2 1/1/2 2/2/2
f 7/2/3 6/3/3 5/3/3
f 6/3/3 7/2/3 8/2/3
f 11/2/4 10/3/4 9/3/4
f 10/3/4 11/2/4 1/1/4
f 1/1/4 11/2/4 3/2/4
f 9/3/5 5/3/5 6/3/5
f 5/3/5 9/3/5 10/3/5
f 10/3/6 7/2/6 5/3/6
f 7/2/6 10/3/6 4/2/6
f 4/2/6 10/3/6 1/1/6
f 11/2/7 6/3/7 8/2/7
f 6/3/7 11/2/7 9/3/7
f 7/2/8 11/2/8 8/2/8
f 11/2/8 7/2/8 2/2/8
f 2/2/8 7/2/8 4/2/8
f 3/2/8 11/2/8 2/2/8
f 14/2/8 13/2/8 12/2/8
f 13/2/8 14/2/8 15/2/8
f 15/2/8 14/2/8 16/2/8
f 15/2/8 16/2/8 17/2/8
f 17/2/8 16/2/8 18/2/8
f 17/2/8 18/2/8 19/2/8
f 21/3/10 16/2/9 20/3/9
f 16/2/9 22/3/11 20/3/9
f 16/2/9 21/3/10 18/2/10
f 22/3/11 16/2/9 14/2/11
f 23/3/12 18/2/10 21/3/10
f 18/2/10 23/3/12 19/2/12
f 14/2/11 24/3/13 22/3/11
f 24/3/13 14/2/11 12/2/13
f 25/3/14 19/2/12 23/3/12
f 19/2/12 25/3/14 17/2/14
f 25/3/14 15/2/15 17/2/14
f 15/2/15 25/3/14 26/3/15
f 13/2/16 24/3/13 12/2/13
f 26/3/15 13/2/16 15/2/15
f 24/3/13 13/2/16 27/3/16
f 13/2/16 26/3/15 27/3/16
f 30/2/8 29/2/8 28/2/8
f 29/2/8 30/2/8 31/2/8
f 31/2/8 30/2/8 32/2/8
f 31/2/8 32/2/8 33/2/8
f 33/2/8 32/2/8 34/2/8
f 33/2/8 34/2/8 35/2/8
f 37/3/10 32/2/9 36/3/9
f 32/2/9 38/3/11 36/3/9
f 32/2/9 37/3/10 34/2/10
f 38/3/11 32/2/9 30/2/11
f 39/3/12 34/2/10 37/3/10
f 34/2/10 39/3/12 35/2/12
f 30/2/11 40/3/13 38/3/11
f 40/3/13 30/2/11 28/2/13
f 41/3/14 35/2/12 39/3/12
f 35/2/12 41/3/14 33/2/14
f 41/3/14 31/2/15 33/2/14
f 31/2/15 41/3/14 42/3/15
f 29/2/16 40/3/13 28/2/13
f 42/3/15 29/2/16 31/2/15
f 40/3/13 29/2/16 43/3/16
f 29/2/16 42/3/15 43/3/16
f 46/2/8 45/2/8 44/2/8
f 45/2/8 46/2/8 47/2/8
f 47/2/8 46/2/8 48/2/8
f 47/2/8 48/2/8 49/2/8
f 49/2/8 48/2/8 50/2/8
f 49/2/8 50/2/8 51/2/8
f 53/3/10 48/2/9 52/3/9
f 48/2/9 54/3/11 52/3/9
f 48/2/9 53/3/10 50/2/10
f 54/3/11 48/2/9 46/2/11
f 55/3/12 50/2/10 53/3/10
f 50/2/10 55/3/12 51/2/12
f 46/2/11 56/3/13 54/3/11
f 56/3/13 46/2/11 44/2/13
f 57/3/14 51/2/12 55/3/12
f 51/2/12 57/3/14 49/2/14
f 57/3/14 47/2/15 49/2/14
f 47/2/15 57/3/14 58/3/15
f 45/2/16 56/3/13 44/2/13
f 58/3/15 45/2/16 47/2/15
f 56/3/13 45/2/16 59/3/16
f 45/2/16 58/3/15 59/3/16

g bevel-lq-brick-slope-corner-inside-2x2




usemtl colormap

f 3/2/1 2/2/1 1/1/1
f 4/2/2 1/1/2 2/2/2
f 7/2/3 6/3/3 5/3/3
f 6/3/3 7/2/3 8/2/3
f 11/2/4 10/3/4 9/3/4
f 10/3/4 11/2/4 1/1/4
f 1/1/4 11/2/4 3/2/4
f 9/3/5 5/3/5 6/3/5
f 5/3/5 9/3/5 10/3/5
f 10/3/6 7/2/6 5/3/6
f 7/2/6 10/3/6 4/2/6
f 4/2/6 10/3/6 1/1/6
f 11/2/7 6/3/7 8/2/7
f 6/3/7 11/2/7 9/3/7
f 7/2/8 11/2/8 8/2/8
f 11/2/8 7/2/8 2/2/8
f 2/2/8 7/2/8 4/2/8
f 3/2/8 11/2/8 2/2/8
f 14/2/8 13/2/8 12/2/8
f 13/2/8 14/2/8 15/2/8
f 15/2/8 14/2/8 16/2/8
f 15/2/8 16/2/8 17/2/8
f 17/2/8 16/2/8 18/2/8
f 17/2/8 18/2/8 19/2/8
f 21/3/10 16/2/9 20/3/9
f 16/2/9 22/3/11 20/3/9
f 16/2/9 21/3/10 18/2/10
f 22/3/11 16/2/9 14/2/11
f 23/3/12 18/2/10 21/3/10
f 18/2/10 23/3/12 19/2/12
f 14/2/11 24/3/13 22/3/11
f 24/3/13 14/2/11 12/2/13
f 25/3/14 19/2/12 23/3/12
f 19/2/12 25/3/14 17/2/14
f 25/3/14 15/2/15 17/2/14
f 15/2/15 25/3/14 26/3/15
f 13/2/16 24/3/13 12/2/13
f 26/3/15 13/2/16 15/2/15
f 24/3/13 13/2/16 27/3/16
f 13/2/16 26/3/15 27/3/16
f 30/2/8 29/2/8 28/2/8
f 29/2/8 30/2/8 31/2/8
f 31/2/8 30/2/8 32/2/8
f 31/2/8 32/2/8 33/2/8
f 33/2/8 32/2/8 34/2/8
f 33/2/8 34/2/8 35/2/8
f 37/3/10 32/2/9 36/3/9
f 32/2/9 38/3/11 36/3/9
f 32/2/9 37/3/10 34/2/10
f 38/3/11 32/2/9 30/2/11
f 39/3/12 34/2/10 37/3/10
f 34/2/10 39/3/12 35/2/12
f 30/2/11 40/3/13 38/3/11
f 40/3/13 30/2/11 28/2/13
f 41/3/14 35/2/12 39/3/12
f 35/2/12 41/3/14 33/2/14
f 41/3/14 31/2/15 33/2/14
f 31/2/15 41/3/14 42/3/15
f 29/2/16 40/3/13 28/2/13
f 42/3/15 29/2/16 31/2/15
f 40/3/13 29/2/16 43/3/16
f 29/2/16 42/3/15 43/3/16
f 46/2/8 45/2/8 44/2/8
f 45/2/8 46/2/8 47/2/8
f 47/2/8 46/2/8 48/2/8
f 47/2/8 48/2/8 49/2/8
f 49/2/8 48/2/8 50/2/8
f 49/2/8 50/2/8 51/2/8
f 53/3/10 48/2/9 52/3/9
f 48/2/9 54/3/11 52/3/9
f 48/2/9 53/3/10 50/2/10
f 54/3/11 48/2/9 46/2/11
f 55/3/12 50/2/10 53/3/10
f 50/2/10 55/3/12 51/2/12
f 46/2/11 56/3/13 54/3/11
f 56/3/13 46/2/11 44/2/13
f 57/3/14 51/2/12 55/3/12
f 51/2/12 57/3/14 49/2/14
f 57/3/14 47/2/15 49/2/14
f 47/2/15 57/3/14 58/3/15
f 45/2/16 56/3/13 44/2/13
f 58/3/15 45/2/16 47/2/15
f 56/3/13 45/2/16 59/3/16
f 45/2/16 58/3/15 59/3/16

