# Created by Kenney (www.kenney.nl)

mtllib bevel-lq-brick-slope-2x4.mtl

g bevel-lq-brick-slope-2x4

v -0.0795 0.016 -0.158 1 1 1
v 0 0.096 -0.158 1 1 1
v -0.0795 0.016 0.158 1 1 1
v 0 0.096 0.158 1 1 1
v -0.0795 0 -0.158 1 1 1
v -0.0795 0 0.158 1 1 1
v 0.0795 0.096 -0.158 1 1 1
v 0.0795 0.096 0.158 1 1 1
v 0.0795 0 -0.158 1 1 1
v 0.0795 0 0.158 1 1 1
v 0.06375 0.114 -0.1325 1 1 1
v 0.06375 0.114 -0.1045 1 1 1
v 0.05375 0.114 -0.1425 1 1 1
v 0.05375 0.114 -0.09449999 1 1 1
v 0.02575 0.114 -0.1425 1 1 1
v 0.02575 0.114 -0.09449999 1 1 1
v 0.01575 0.114 -0.1325 1 1 1
v 0.01575 0.114 -0.1045 1 1 1
v 0.02575 0.096 -0.1425 1 1 1
v 0.01575 0.096 -0.1325 1 1 1
v 0.05375 0.096 -0.1425 1 1 1
v 0.01575 0.096 -0.1045 1 1 1
v 0.06375 0.096 -0.1325 1 1 1
v 0.02575 0.096 -0.09449999 1 1 1
v 0.05375 0.096 -0.09449999 1 1 1
v 0.06375 0.096 -0.1045 1 1 1
v 0.06375 0.114 0.0255 1 1 1
v 0.06375 0.114 0.0535 1 1 1
v 0.05375 0.114 0.0155 1 1 1
v 0.05375 0.114 0.0635 1 1 1
v 0.02575 0.114 0.0155 1 1 1
v 0.02575 0.114 0.0635 1 1 1
v 0.01575 0.114 0.0255 1 1 1
v 0.01575 0.114 0.0535 1 1 1
v 0.02575 0.096 0.0155 1 1 1
v 0.01575 0.096 0.0255 1 1 1
v 0.05375 0.096 0.0155 1 1 1
v 0.01575 0.096 0.0535 1 1 1
v 0.06375 0.096 0.0255 1 1 1
v 0.02575 0.096 0.0635 1 1 1
v 0.05375 0.096 0.0635 1 1 1
v 0.06375 0.096 0.0535 1 1 1
v 0.06375 0.114 -0.0535 1 1 1
v 0.06375 0.114 -0.0255 1 1 1
v 0.05375 0.114 -0.0635 1 1 1
v 0.05375 0.114 -0.0155 1 1 1
v 0.02575 0.114 -0.0635 1 1 1
v 0.02575 0.114 -0.0155 1 1 1
v 0.01575 0.114 -0.0535 1 1 1
v 0.01575 0.114 -0.0255 1 1 1
v 0.02575 0.096 -0.0635 1 1 1
v 0.01575 0.096 -0.0535 1 1 1
v 0.05375 0.096 -0.0635 1 1 1
v 0.01575 0.096 -0.0255 1 1 1
v 0.06375 0.096 -0.0535 1 1 1
v 0.02575 0.096 -0.0155 1 1 1
v 0.05375 0.096 -0.0155 1 1 1
v 0.06375 0.096 -0.0255 1 1 1
v 0.06375 0.114 0.1045 1 1 1
v 0.06375 0.114 0.1325 1 1 1
v 0.05375 0.114 0.09449999 1 1 1
v 0.05375 0.114 0.1425 1 1 1
v 0.02575 0.114 0.09449999 1 1 1
v 0.02575 0.114 0.1425 1 1 1
v 0.01575 0.114 0.1045 1 1 1
v 0.01575 0.114 0.1325 1 1 1
v 0.02575 0.096 0.09449999 1 1 1
v 0.01575 0.096 0.1045 1 1 1
v 0.05375 0.096 0.09449999 1 1 1
v 0.01575 0.096 0.1325 1 1 1
v 0.06375 0.096 0.1045 1 1 1
v 0.02575 0.096 0.1425 1 1 1
v 0.05375 0.096 0.1425 1 1 1
v 0.06375 0.096 0.1325 1 1 1

vn -0.7093199 0.7048866 0
vn -1 0 0
vn 0 1 0
vn 1 0 0
vn 0 0 1
vn 0 0 -1
vn 0 -1 0
vn -0.3826834 0 -0.9238795
vn -0.9238795 0 -0.3826834
vn 0.3826834 0 -0.9238795
vn -0.9238795 0 0.3826834
vn 0.9238795 0 -0.3826834
vn -0.3826834 0 0.9238795
vn 0.3826834 0 0.9238795
vn 0.9238795 0 0.3826834

vt 0.59375 0.05833333
vt 0.59375 0.225
vt 0.59375 0.025

usemtl colormap

f 3/1/1 2/2/1 1/1/1
f 2/2/1 3/1/1 4/2/1
f 6/3/2 1/1/2 5/3/2
f 1/1/2 6/3/2 3/1/2
f 2/2/3 8/2/3 7/2/3
f 8/2/3 2/2/3 4/2/3
f 8/2/4 9/3/4 7/2/4
f 9/3/4 8/2/4 10/3/4
f 8/2/5 6/3/5 10/3/5
f 6/3/5 8/2/5 3/1/5
f 3/1/5 8/2/5 4/2/5
f 1/1/6 9/3/6 5/3/6
f 9/3/6 1/1/6 7/2/6
f 7/2/6 1/1/6 2/2/6
f 6/3/7 9/3/7 10/3/7
f 9/3/7 6/3/7 5/3/7
f 13/2/3 12/2/3 11/2/3
f 12/2/3 13/2/3 14/2/3
f 14/2/3 13/2/3 15/2/3
f 14/2/3 15/2/3 16/2/3
f 16/2/3 15/2/3 17/2/3
f 16/2/3 17/2/3 18/2/3
f 20/3/9 15/2/8 19/3/8
f 15/2/8 21/3/10 19/3/8
f 15/2/8 20/3/9 17/2/9
f 21/3/10 15/2/8 13/2/10
f 22/3/11 17/2/9 20/3/9
f 17/2/9 22/3/11 18/2/11
f 13/2/10 23/3/12 21/3/10
f 23/3/12 13/2/10 11/2/12
f 24/3/13 18/2/11 22/3/11
f 18/2/11 24/3/13 16/2/13
f 24/3/13 14/2/14 16/2/13
f 14/2/14 24/3/13 25/3/14
f 12/2/15 23/3/12 11/2/12
f 25/3/14 12/2/15 14/2/14
f 23/3/12 12/2/15 26/3/15
f 12/2/15 25/3/14 26/3/15
f 29/2/3 28/2/3 27/2/3
f 28/2/3 29/2/3 30/2/3
f 30/2/3 29/2/3 31/2/3
f 30/2/3 31/2/3 32/2/3
f 32/2/3 31/2/3 33/2/3
f 32/2/3 33/2/3 34/2/3
f 36/3/9 31/2/8 35/3/8
f 31/2/8 37/3/10 35/3/8
f 31/2/8 36/3/9 33/2/9
f 37/3/10 31/2/8 29/2/10
f 38/3/11 33/2/9 36/3/9
f 33/2/9 38/3/11 34/2/11
f 29/2/10 39/3/12 37/3/10
f 39/3/12 29/2/10 27/2/12
f 40/3/13 34/2/11 38/3/11
f 34/2/11 40/3/13 32/2/13
f 40/3/13 30/2/14 32/2/13
f 30/2/14 40/3/13 41/3/14
f 28/2/15 39/3/12 27/2/12
f 41/3/14 28/2/15 30/2/14
f 39/3/12 28/2/15 42/3/15
f 28/2/15 41/3/14 42/3/15
f 45/2/3 44/2/3 43/2/3
f 44/2/3 45/2/3 46/2/3
f 46/2/3 45/2/3 47/2/3
f 46/2/3 47/2/3 48/2/3
f 48/2/3 47/2/3 49/2/3
f 48/2/3 49/2/3 50/2/3
f 52/3/9 47/2/8 51/3/8
f 47/2/8 53/3/10 51/3/8
f 47/2/8 52/3/9 49/2/9
f 53/3/10 47/2/8 45/2/10
f 54/3/11 49/2/9 52/3/9
f 49/2/9 54/3/11 50/2/11
f 45/2/10 55/3/12 53/3/10
f 55/3/12 45/2/10 43/2/12
f 56/3/13 50/2/11 54/3/11
f 50/2/11 56/3/13 48/2/13
f 56/3/13 46/2/14 48/2/13
f 46/2/14 56/3/13 57/3/14
f 44/2/15 55/3/12 43/2/12
f 57/3/14 44/2/15 46/2/14
f 55/3/12 44/2/15 58/3/15
f 44/2/15 57/3/14 58/3/15
f 61/2/3 60/2/3 59/2/3
f 60/2/3 61/2/3 62/2/3
f 62/2/3 61/2/3 63/2/3
f 62/2/3 63/2/3 64/2/3
f 64/2/3 63/2/3 65/2/3
f 64/2/3 65/2/3 66/2/3
f 68/3/9 63/2/8 67/3/8
f 63/2/8 69/3/10 67/3/8
f 63/2/8 68/3/9 65/2/9
f 69/3/10 63/2/8 61/2/10
f 70/3/11 65/2/9 68/3/9
f 65/2/9 70/3/11 66/2/11
f 61/2/10 71/3/12 69/3/10
f 71/3/12 61/2/10 59/2/12
f 72/3/13 66/2/11 70/3/11
f 66/2/11 72/3/13 64/2/13
f 72/3/13 62/2/14 64/2/13
f 62/2/14 72/3/13 73/3/14
f 60/2/15 71/3/12 59/2/12
f 73/3/14 60/2/15 62/2/14
f 71/3/12 60/2/15 74/3/15
f 60/2/15 73/3/14 74/3/15

g bevel-lq-brick-slope-2x4




usemtl colormap

f 3/1/1 2/2/1 1/1/1
f 2/2/1 3/1/1 4/2/1
f 6/3/2 1/1/2 5/3/2
f 1/1/2 6/3/2 3/1/2
f 2/2/3 8/2/3 7/2/3
f 8/2/3 2/2/3 4/2/3
f 8/2/4 9/3/4 7/2/4
f 9/3/4 8/2/4 10/3/4
f 8/2/5 6/3/5 10/3/5
f 6/3/5 8/2/5 3/1/5
f 3/1/5 8/2/5 4/2/5
f 1/1/6 9/3/6 5/3/6
f 9/3/6 1/1/6 7/2/6
f 7/2/6 1/1/6 2/2/6
f 6/3/7 9/3/7 10/3/7
f 9/3/7 6/3/7 5/3/7
f 13/2/3 12/2/3 11/2/3
f 12/2/3 13/2/3 14/2/3
f 14/2/3 13/2/3 15/2/3
f 14/2/3 15/2/3 16/2/3
f 16/2/3 15/2/3 17/2/3
f 16/2/3 17/2/3 18/2/3
f 20/3/9 15/2/8 19/3/8
f 15/2/8 21/3/10 19/3/8
f 15/2/8 20/3/9 17/2/9
f 21/3/10 15/2/8 13/2/10
f 22/3/11 17/2/9 20/3/9
f 17/2/9 22/3/11 18/2/11
f 13/2/10 23/3/12 21/3/10
f 23/3/12 13/2/10 11/2/12
f 24/3/13 18/2/11 22/3/11
f 18/2/11 24/3/13 16/2/13
f 24/3/13 14/2/14 16/2/13
f 14/2/14 24/3/13 25/3/14
f 12/2/15 23/3/12 11/2/12
f 25/3/14 12/2/15 14/2/14
f 23/3/12 12/2/15 26/3/15
f 12/2/15 25/3/14 26/3/15
f 29/2/3 28/2/3 27/2/3
f 28/2/3 29/2/3 30/2/3
f 30/2/3 29/2/3 31/2/3
f 30/2/3 31/2/3 32/2/3
f 32/2/3 31/2/3 33/2/3
f 32/2/3 33/2/3 34/2/3
f 36/3/9 31/2/8 35/3/8
f 31/2/8 37/3/10 35/3/8
f 31/2/8 36/3/9 33/2/9
f 37/3/10 31/2/8 29/2/10
f 38/3/11 33/2/9 36/3/9
f 33/2/9 38/3/11 34/2/11
f 29/2/10 39/3/12 37/3/10
f 39/3/12 29/2/10 27/2/12
f 40/3/13 34/2/11 38/3/11
f 34/2/11 40/3/13 32/2/13
f 40/3/13 30/2/14 32/2/13
f 30/2/14 40/3/13 41/3/14
f 28/2/15 39/3/12 27/2/12
f 41/3/14 28/2/15 30/2/14
f 39/3/12 28/2/15 42/3/15
f 28/2/15 41/3/14 42/3/15
f 45/2/3 44/2/3 43/2/3
f 44/2/3 45/2/3 46/2/3
f 46/2/3 45/2/3 47/2/3
f 46/2/3 47/2/3 48/2/3
f 48/2/3 47/2/3 49/2/3
f 48/2/3 49/2/3 50/2/3
f 52/3/9 47/2/8 51/3/8
f 47/2/8 53/3/10 51/3/8
f 47/2/8 52/3/9 49/2/9
f 53/3/10 47/2/8 45/2/10
f 54/3/11 49/2/9 52/3/9
f 49/2/9 54/3/11 50/2/11
f 45/2/10 55/3/12 53/3/10
f 55/3/12 45/2/10 43/2/12
f 56/3/13 50/2/11 54/3/11
f 50/2/11 56/3/13 48/2/13
f 56/3/13 46/2/14 48/2/13
f 46/2/14 56/3/13 57/3/14
f 44/2/15 55/3/12 43/2/12
f 57/3/14 44/2/15 46/2/14
f 55/3/12 44/2/15 58/3/15
f 44/2/15 57/3/14 58/3/15
f 61/2/3 60/2/3 59/2/3
f 60/2/3 61/2/3 62/2/3
f 62/2/3 61/2/3 63/2/3
f 62/2/3 63/2/3 64/2/3
f 64/2/3 63/2/3 65/2/3
f 64/2/3 65/2/3 66/2/3
f 68/3/9 63/2/8 67/3/8
f 63/2/8 69/3/10 67/3/8
f 63/2/8 68/3/9 65/2/9
f 69/3/10 63/2/8 61/2/10
f 70/3/11 65/2/9 68/3/9
f 65/2/9 70/3/11 66/2/11
f 61/2/10 71/3/12 69/3/10
f 71/3/12 61/2/10 59/2/12
f 72/3/13 66/2/11 70/3/11
f 66/2/11 72/3/13 64/2/13
f 72/3/13 62/2/14 64/2/13
f 62/2/14 72/3/13 73/3/14
f 60/2/15 71/3/12 59/2/12
f 73/3/14 60/2/15 62/2/14
f 71/3/12 60/2/15 74/3/15
f 60/2/15 73/3/14 74/3/15

