# Created by Kenney (www.kenney.nl)

mtllib bevel-lq-plate-1x2.mtl

g bevel-lq-plate-1x2

v 0.0795 0.032 -0.0395 1 1 1
v 0.0795 0 -0.0395 1 1 1
v 0.0795 0.032 0.0395 1 1 1
v 0.0795 0 0.0395 1 1 1
v -0.0795 0 0.0395 1 1 1
v -0.0795 0 -0.0395 1 1 1
v -0.0795 0.032 0.0395 1 1 1
v -0.0795 0.032 -0.0395 1 1 1
v -0.01575 0.05 -0.014 1 1 1
v -0.01575 0.05 0.014 1 1 1
v -0.02575 0.05 -0.024 1 1 1
v -0.02575 0.05 0.024 1 1 1
v -0.05375 0.05 -0.024 1 1 1
v -0.05375 0.05 0.024 1 1 1
v -0.06375 0.05 -0.014 1 1 1
v -0.06375 0.05 0.014 1 1 1
v -0.05375 0.032 -0.024 1 1 1
v -0.06375 0.032 -0.014 1 1 1
v -0.02575 0.032 -0.024 1 1 1
v -0.06375 0.032 0.014 1 1 1
v -0.01575 0.032 -0.014 1 1 1
v -0.05375 0.032 0.024 1 1 1
v -0.02575 0.032 0.024 1 1 1
v -0.01575 0.032 0.014 1 1 1
v 0.06375 0.05 -0.014 1 1 1
v 0.06375 0.05 0.014 1 1 1
v 0.05375 0.05 -0.024 1 1 1
v 0.05375 0.05 0.024 1 1 1
v 0.02575 0.05 -0.024 1 1 1
v 0.02575 0.05 0.024 1 1 1
v 0.01575 0.05 -0.014 1 1 1
v 0.01575 0.05 0.014 1 1 1
v 0.02575 0.032 -0.024 1 1 1
v 0.01575 0.032 -0.014 1 1 1
v 0.05375 0.032 -0.024 1 1 1
v 0.01575 0.032 0.014 1 1 1
v 0.06375 0.032 -0.014 1 1 1
v 0.02575 0.032 0.024 1 1 1
v 0.05375 0.032 0.024 1 1 1
v 0.06375 0.032 0.014 1 1 1

vn 1 0 0
vn 0 -1 0
vn 0 0 1
vn -1 0 0
vn 0 1 0
vn 0 0 -1
vn -0.3826834 0 -0.9238795
vn -0.9238795 0 -0.3826834
vn 0.3826834 0 -0.9238795
vn -0.9238795 0 0.3826834
vn 0.9238795 0 -0.3826834
vn -0.3826834 0 0.9238795
vn 0.3826834 0 0.9238795
vn 0.9238795 0 0.3826834

vt 0.59375 0.225
vt 0.59375 0.025

usemtl colormap

f 3/1/1 2/2/1 1/1/1
f 2/2/1 3/1/1 4/2/1
f 5/2/2 2/2/2 4/2/2
f 2/2/2 5/2/2 6/2/2
f 3/1/3 5/2/3 4/2/3
f 5/2/3 3/1/3 7/1/3
f 5/2/4 8/1/4 6/2/4
f 8/1/4 5/2/4 7/1/4
f 8/1/5 3/1/5 1/1/5
f 3/1/5 8/1/5 7/1/5
f 8/1/6 2/2/6 6/2/6
f 2/2/6 8/1/6 1/1/6
f 11/1/5 10/1/5 9/1/5
f 10/1/5 11/1/5 12/1/5
f 12/1/5 11/1/5 13/1/5
f 12/1/5 13/1/5 14/1/5
f 14/1/5 13/1/5 15/1/5
f 14/1/5 15/1/5 16/1/5
f 18/2/8 13/1/7 17/2/7
f 13/1/7 19/2/9 17/2/7
f 13/1/7 18/2/8 15/1/8
f 19/2/9 13/1/7 11/1/9
f 20/2/10 15/1/8 18/2/8
f 15/1/8 20/2/10 16/1/10
f 11/1/9 21/2/11 19/2/9
f 21/2/11 11/1/9 9/1/11
f 22/2/12 16/1/10 20/2/10
f 16/1/10 22/2/12 14/1/12
f 22/2/12 12/1/13 14/1/12
f 12/1/13 22/2/12 23/2/13
f 10/1/14 21/2/11 9/1/11
f 23/2/13 10/1/14 12/1/13
f 21/2/11 10/1/14 24/2/14
f 10/1/14 23/2/13 24/2/14
f 27/1/5 26/1/5 25/1/5
f 26/1/5 27/1/5 28/1/5
f 28/1/5 27/1/5 29/1/5
f 28/1/5 29/1/5 30/1/5
f 30/1/5 29/1/5 31/1/5
f 30/1/5 31/1/5 32/1/5
f 34/2/8 29/1/7 33/2/7
f 29/1/7 35/2/9 33/2/7
f 29/1/7 34/2/8 31/1/8
f 35/2/9 29/1/7 27/1/9
f 36/2/10 31/1/8 34/2/8
f 31/1/8 36/2/10 32/1/10
f 27/1/9 37/2/11 35/2/9
f 37/2/11 27/1/9 25/1/11
f 38/2/12 32/1/10 36/2/10
f 32/1/10 38/2/12 30/1/12
f 38/2/12 28/1/13 30/1/12
f 28/1/13 38/2/12 39/2/13
f 26/1/14 37/2/11 25/1/11
f 39/2/13 26/1/14 28/1/13
f 37/2/11 26/1/14 40/2/14
f 26/1/14 39/2/13 40/2/14

g bevel-lq-plate-1x2




usemtl colormap

f 3/1/1 2/2/1 1/1/1
f 2/2/1 3/1/1 4/2/1
f 5/2/2 2/2/2 4/2/2
f 2/2/2 5/2/2 6/2/2
f 3/1/3 5/2/3 4/2/3
f 5/2/3 3/1/3 7/1/3
f 5/2/4 8/1/4 6/2/4
f 8/1/4 5/2/4 7/1/4
f 8/1/5 3/1/5 1/1/5
f 3/1/5 8/1/5 7/1/5
f 8/1/6 2/2/6 6/2/6
f 2/2/6 8/1/6 1/1/6
f 11/1/5 10/1/5 9/1/5
f 10/1/5 11/1/5 12/1/5
f 12/1/5 11/1/5 13/1/5
f 12/1/5 13/1/5 14/1/5
f 14/1/5 13/1/5 15/1/5
f 14/1/5 15/1/5 16/1/5
f 18/2/8 13/1/7 17/2/7
f 13/1/7 19/2/9 17/2/7
f 13/1/7 18/2/8 15/1/8
f 19/2/9 13/1/7 11/1/9
f 20/2/10 15/1/8 18/2/8
f 15/1/8 20/2/10 16/1/10
f 11/1/9 21/2/11 19/2/9
f 21/2/11 11/1/9 9/1/11
f 22/2/12 16/1/10 20/2/10
f 16/1/10 22/2/12 14/1/12
f 22/2/12 12/1/13 14/1/12
f 12/1/13 22/2/12 23/2/13
f 10/1/14 21/2/11 9/1/11
f 23/2/13 10/1/14 12/1/13
f 21/2/11 10/1/14 24/2/14
f 10/1/14 23/2/13 24/2/14
f 27/1/5 26/1/5 25/1/5
f 26/1/5 27/1/5 28/1/5
f 28/1/5 27/1/5 29/1/5
f 28/1/5 29/1/5 30/1/5
f 30/1/5 29/1/5 31/1/5
f 30/1/5 31/1/5 32/1/5
f 34/2/8 29/1/7 33/2/7
f 29/1/7 35/2/9 33/2/7
f 29/1/7 34/2/8 31/1/8
f 35/2/9 29/1/7 27/1/9
f 36/2/10 31/1/8 34/2/8
f 31/1/8 36/2/10 32/1/10
f 27/1/9 37/2/11 35/2/9
f 37/2/11 27/1/9 25/1/11
f 38/2/12 32/1/10 36/2/10
f 32/1/10 38/2/12 30/1/12
f 38/2/12 28/1/13 30/1/12
f 28/1/13 38/2/12 39/2/13
f 26/1/14 37/2/11 25/1/11
f 39/2/13 26/1/14 28/1/13
f 37/2/11 26/1/14 40/2/14
f 26/1/14 39/2/13 40/2/14

