# Created by Kenney (www.kenney.nl)

mtllib bevel-hq-brick-slope-inverted-1x2.mtl

g bevel-hq-brick-slope-inverted-1x2

v 0 0 -0.0395 1 1 1
v -0.0795 0.08 -0.0395 1 1 1
v 0 0 0.0395 1 1 1
v -0.0795 0.08 0.0395 1 1 1
v 0.0795 0 0.0395 1 1 1
v 0.0795 0 -0.0395 1 1 1
v 0.0795 0.091 -0.0395 1 1 1
v -0.0795 0.091 -0.0395 1 1 1
v -0.0745 0.096 -0.0345 1 1 1
v 0.0745 0.096 -0.0345 1 1 1
v -0.0795 0.091 0.0395 1 1 1
v -0.0745 0.096 0.0345 1 1 1
v 0.0795 0.091 0.0395 1 1 1
v 0.0745 0.096 0.0345 1 1 1
v 0.05875 0.114 -0.01192893 1 1 1
v 0.05875 0.114 0.01192893 1 1 1
v 0.05167893 0.114 -0.019 1 1 1
v 0.05167893 0.114 0.019 1 1 1
v 0.02782107 0.114 -0.019 1 1 1
v 0.02782107 0.114 0.019 1 1 1
v 0.02075 0.114 -0.01192893 1 1 1
v 0.02075 0.114 0.01192893 1 1 1
v 0.05375 0.109 -0.024 1 1 1
v 0.02575 0.109 -0.024 1 1 1
v 0.06375 0.109 -0.014 1 1 1
v 0.05375 0.096 -0.024 1 1 1
v 0.02575 0.096 -0.024 1 1 1
v 0.06375 0.096 -0.014 1 1 1
v 0.01575 0.096 -0.014 1 1 1
v 0.06375 0.109 0.014 1 1 1
v 0.06375 0.096 0.014 1 1 1
v 0.01575 0.109 -0.014 1 1 1
v 0.01575 0.096 0.014 1 1 1
v 0.05375 0.109 0.024 1 1 1
v 0.05375 0.096 0.024 1 1 1
v 0.02575 0.096 0.024 1 1 1
v 0.01575 0.109 0.014 1 1 1
v 0.02575 0.109 0.024 1 1 1
v -0.02075 0.114 -0.01192893 1 1 1
v -0.02075 0.114 0.01192893 1 1 1
v -0.02782107 0.114 -0.019 1 1 1
v -0.02782107 0.114 0.019 1 1 1
v -0.05167893 0.114 -0.019 1 1 1
v -0.05167893 0.114 0.019 1 1 1
v -0.05875 0.114 -0.01192893 1 1 1
v -0.05875 0.114 0.01192893 1 1 1
v -0.02575 0.109 -0.024 1 1 1
v -0.05375 0.109 -0.024 1 1 1
v -0.01575 0.109 -0.014 1 1 1
v -0.02575 0.096 -0.024 1 1 1
v -0.05375 0.096 -0.024 1 1 1
v -0.01575 0.096 -0.014 1 1 1
v -0.06375 0.096 -0.014 1 1 1
v -0.01575 0.109 0.014 1 1 1
v -0.01575 0.096 0.014 1 1 1
v -0.06375 0.109 -0.014 1 1 1
v -0.06375 0.096 0.014 1 1 1
v -0.02575 0.109 0.024 1 1 1
v -0.02575 0.096 0.024 1 1 1
v -0.05375 0.096 0.024 1 1 1
v -0.06375 0.109 0.014 1 1 1
v -0.05375 0.109 0.024 1 1 1

vn -0.7093199 -0.7048866 0
vn 0 -1 0
vn 0 0 -1
vn 0 0.2879809 -0.9576361
vn 0 0.7071068 -0.7071068
vn -1 0 0
vn -0.9576361 0.2879809 0
vn -0.7071068 0.7071068 0
vn 0 0 1
vn 0 0.2879809 0.9576361
vn 0 0.7071068 0.7071068
vn 0 1 0
vn 1 0 0
vn 0.9576361 0.2879809 0
vn 0.7071068 0.7071068 0
vn 0.2596883 0.7345095 -0.6269431
vn 0.3556998 0.3688517 -0.8587352
vn 0.6269431 0.7345095 -0.2596884
vn -0.2596883 0.7345095 -0.6269431
vn -0.3556998 0.3688517 -0.8587352
vn -0.6269431 0.7345095 -0.2596884
vn 0.8587352 0.3688517 -0.3556998
vn 0.3826834 0 -0.9238795
vn -0.3826834 0 -0.9238795
vn 0.9238795 0 -0.3826834
vn -0.9238795 0 -0.3826834
vn 0.8587352 0.3688517 0.3556998
vn 0.6269431 0.7345095 0.2596884
vn 0.9238795 0 0.3826834
vn -0.8587352 0.3688517 -0.3556998
vn -0.9238795 0 0.3826834
vn 0.3556998 0.3688517 0.8587352
vn 0.3826834 0 0.9238795
vn 0.2596883 0.7345095 0.6269431
vn -0.3826834 0 0.9238795
vn -0.8587352 0.3688517 0.3556998
vn -0.6269431 0.7345095 0.2596884
vn -0.3556998 0.3688517 0.8587352
vn -0.2596883 0.7345095 0.6269431

vt 0.59375 0.025
vt 0.59375 0.1916666
vt 0.59375 0.2145833
vt 0.59375 0.225
vt 0.59375 0.1694444

usemtl colormap

f 3/1/1 2/2/1 1/1/1
f 2/2/1 3/1/1 4/2/1
f 3/1/2 6/1/2 5/1/2
f 6/1/2 3/1/2 1/1/2
f 2/2/3 6/1/3 1/1/3
f 6/1/3 2/2/3 7/3/4
f 7/3/4 2/2/3 8/3/4
f 9/4/5 7/3/4 8/3/4
f 7/3/4 9/4/5 10/4/5
f 4/2/6 8/3/7 2/2/6
f 8/3/7 4/2/6 11/3/7
f 11/3/7 9/4/8 8/3/7
f 9/4/8 11/3/7 12/4/8
f 13/3/10 3/1/9 5/1/9
f 3/1/9 13/3/10 4/2/9
f 4/2/9 13/3/10 11/3/10
f 14/4/11 11/3/10 13/3/10
f 11/3/10 14/4/11 12/4/11
f 9/4/12 14/4/12 10/4/12
f 14/4/12 9/4/12 12/4/12
f 6/1/13 13/3/14 5/1/13
f 13/3/14 6/1/13 7/3/14
f 10/4/15 13/3/14 7/3/14
f 13/3/14 10/4/15 14/4/15
f 17/4/12 16/4/12 15/4/12
f 16/4/12 17/4/12 18/4/12
f 18/4/12 17/4/12 19/4/12
f 18/4/12 19/4/12 20/4/12
f 20/4/12 19/4/12 21/4/12
f 20/4/12 21/4/12 22/4/12
f 15/4/18 23/5/17 17/4/16
f 23/5/17 19/4/19 17/4/16
f 19/4/19 23/5/17 24/5/20
f 24/5/20 21/4/21 19/4/19
f 23/5/17 15/4/18 25/5/22
f 26/1/23 24/5/20 23/5/17
f 25/5/22 26/1/23 23/5/17
f 24/5/20 26/1/23 27/1/24
f 26/1/23 25/5/22 28/1/25
f 29/1/26 24/5/20 27/1/24
f 15/4/18 30/5/27 25/5/22
f 30/5/27 28/1/25 25/5/22
f 30/5/27 15/4/18 16/4/28
f 28/1/25 30/5/27 31/1/29
f 24/5/20 29/1/26 32/5/30
f 21/4/21 24/5/20 32/5/30
f 33/1/31 32/5/30 29/1/26
f 16/4/28 34/5/32 30/5/27
f 34/5/32 31/1/29 30/5/27
f 31/1/29 34/5/32 35/1/33
f 34/5/32 16/4/28 18/4/34
f 34/5/32 36/1/35 35/1/33
f 37/5/36 21/4/21 32/5/30
f 32/5/30 33/1/31 37/5/36
f 36/1/35 37/5/36 33/1/31
f 21/4/21 37/5/36 22/4/37
f 18/4/34 38/5/38 34/5/32
f 36/1/35 34/5/32 38/5/38
f 37/5/36 36/1/35 38/5/38
f 38/5/38 22/4/37 37/5/36
f 38/5/38 18/4/34 20/4/39
f 22/4/37 38/5/38 20/4/39
f 41/4/12 40/4/12 39/4/12
f 40/4/12 41/4/12 42/4/12
f 42/4/12 41/4/12 43/4/12
f 42/4/12 43/4/12 44/4/12
f 44/4/12 43/4/12 45/4/12
f 44/4/12 45/4/12 46/4/12
f 39/4/18 47/5/17 41/4/16
f 47/5/17 43/4/19 41/4/16
f 43/4/19 47/5/17 48/5/20
f 48/5/20 45/4/21 43/4/19
f 47/5/17 39/4/18 49/5/22
f 50/1/23 48/5/20 47/5/17
f 49/5/22 50/1/23 47/5/17
f 48/5/20 50/1/23 51/1/24
f 50/1/23 49/5/22 52/1/25
f 53/1/26 48/5/20 51/1/24
f 39/4/18 54/5/27 49/5/22
f 54/5/27 52/1/25 49/5/22
f 54/5/27 39/4/18 40/4/28
f 52/1/25 54/5/27 55/1/29
f 48/5/20 53/1/26 56/5/30
f 45/4/21 48/5/20 56/5/30
f 57/1/31 56/5/30 53/1/26
f 40/4/28 58/5/32 54/5/27
f 58/5/32 55/1/29 54/5/27
f 55/1/29 58/5/32 59/1/33
f 58/5/32 40/4/28 42/4/34
f 58/5/32 60/1/35 59/1/33
f 61/5/36 45/4/21 56/5/30
f 56/5/30 57/1/31 61/5/36
f 60/1/35 61/5/36 57/1/31
f 45/4/21 61/5/36 46/4/37
f 42/4/34 62/5/38 58/5/32
f 60/1/35 58/5/32 62/5/38
f 61/5/36 60/1/35 62/5/38
f 62/5/38 46/4/37 61/5/36
f 62/5/38 42/4/34 44/4/39
f 46/4/37 62/5/38 44/4/39

g bevel-hq-brick-slope-inverted-1x2




usemtl colormap

f 3/1/1 2/2/1 1/1/1
f 2/2/1 3/1/1 4/2/1
f 3/1/2 6/1/2 5/1/2
f 6/1/2 3/1/2 1/1/2
f 2/2/3 6/1/3 1/1/3
f 6/1/3 2/2/3 7/3/4
f 7/3/4 2/2/3 8/3/4
f 9/4/5 7/3/4 8/3/4
f 7/3/4 9/4/5 10/4/5
f 4/2/6 8/3/7 2/2/6
f 8/3/7 4/2/6 11/3/7
f 11/3/7 9/4/8 8/3/7
f 9/4/8 11/3/7 12/4/8
f 13/3/10 3/1/9 5/1/9
f 3/1/9 13/3/10 4/2/9
f 4/2/9 13/3/10 11/3/10
f 14/4/11 11/3/10 13/3/10
f 11/3/10 14/4/11 12/4/11
f 9/4/12 14/4/12 10/4/12
f 14/4/12 9/4/12 12/4/12
f 6/1/13 13/3/14 5/1/13
f 13/3/14 6/1/13 7/3/14
f 10/4/15 13/3/14 7/3/14
f 13/3/14 10/4/15 14/4/15
f 17/4/12 16/4/12 15/4/12
f 16/4/12 17/4/12 18/4/12
f 18/4/12 17/4/12 19/4/12
f 18/4/12 19/4/12 20/4/12
f 20/4/12 19/4/12 21/4/12
f 20/4/12 21/4/12 22/4/12
f 15/4/18 23/5/17 17/4/16
f 23/5/17 19/4/19 17/4/16
f 19/4/19 23/5/17 24/5/20
f 24/5/20 21/4/21 19/4/19
f 23/5/17 15/4/18 25/5/22
f 26/1/23 24/5/20 23/5/17
f 25/5/22 26/1/23 23/5/17
f 24/5/20 26/1/23 27/1/24
f 26/1/23 25/5/22 28/1/25
f 29/1/26 24/5/20 27/1/24
f 15/4/18 30/5/27 25/5/22
f 30/5/27 28/1/25 25/5/22
f 30/5/27 15/4/18 16/4/28
f 28/1/25 30/5/27 31/1/29
f 24/5/20 29/1/26 32/5/30
f 21/4/21 24/5/20 32/5/30
f 33/1/31 32/5/30 29/1/26
f 16/4/28 34/5/32 30/5/27
f 34/5/32 31/1/29 30/5/27
f 31/1/29 34/5/32 35/1/33
f 34/5/32 16/4/28 18/4/34
f 34/5/32 36/1/35 35/1/33
f 37/5/36 21/4/21 32/5/30
f 32/5/30 33/1/31 37/5/36
f 36/1/35 37/5/36 33/1/31
f 21/4/21 37/5/36 22/4/37
f 18/4/34 38/5/38 34/5/32
f 36/1/35 34/5/32 38/5/38
f 37/5/36 36/1/35 38/5/38
f 38/5/38 22/4/37 37/5/36
f 38/5/38 18/4/34 20/4/39
f 22/4/37 38/5/38 20/4/39
f 41/4/12 40/4/12 39/4/12
f 40/4/12 41/4/12 42/4/12
f 42/4/12 41/4/12 43/4/12
f 42/4/12 43/4/12 44/4/12
f 44/4/12 43/4/12 45/4/12
f 44/4/12 45/4/12 46/4/12
f 39/4/18 47/5/17 41/4/16
f 47/5/17 43/4/19 41/4/16
f 43/4/19 47/5/17 48/5/20
f 48/5/20 45/4/21 43/4/19
f 47/5/17 39/4/18 49/5/22
f 50/1/23 48/5/20 47/5/17
f 49/5/22 50/1/23 47/5/17
f 48/5/20 50/1/23 51/1/24
f 50/1/23 49/5/22 52/1/25
f 53/1/26 48/5/20 51/1/24
f 39/4/18 54/5/27 49/5/22
f 54/5/27 52/1/25 49/5/22
f 54/5/27 39/4/18 40/4/28
f 52/1/25 54/5/27 55/1/29
f 48/5/20 53/1/26 56/5/30
f 45/4/21 48/5/20 56/5/30
f 57/1/31 56/5/30 53/1/26
f 40/4/28 58/5/32 54/5/27
f 58/5/32 55/1/29 54/5/27
f 55/1/29 58/5/32 59/1/33
f 58/5/32 40/4/28 42/4/34
f 58/5/32 60/1/35 59/1/33
f 61/5/36 45/4/21 56/5/30
f 56/5/30 57/1/31 61/5/36
f 60/1/35 61/5/36 57/1/31
f 45/4/21 61/5/36 46/4/37
f 42/4/34 62/5/38 58/5/32
f 60/1/35 58/5/32 62/5/38
f 61/5/36 60/1/35 62/5/38
f 62/5/38 46/4/37 61/5/36
f 62/5/38 42/4/34 44/4/39
f 46/4/37 62/5/38 44/4/39

