# Created by Kenney (www.kenney.nl)

mtllib none-hq-brick-slope-2x2.mtl

g none-hq-brick-slope-2x2

v -0.0795 0.016 -0.079 1 1 1
v -0.00496875 0.091 -0.079 1 1 1
v -0.0795 0.016 0.079 1 1 1
v 0 0.096 -0.074 1 1 1
v 0 0.096 0.074 1 1 1
v -0.00496875 0.091 0.079 1 1 1
v -0.0795 0 -0.079 1 1 1
v -0.0795 0 0.079 1 1 1
v 0.0745 0.096 -0.074 1 1 1
v 0.0745 0.096 0.074 1 1 1
v 0.0795 0 0.079 1 1 1
v 0.0795 0 -0.079 1 1 1
v 0.0795 0.091 0.079 1 1 1
v 0.0795 0.091 -0.079 1 1 1

vn -0.7093199 0.7048866 0
vn -1 0 0
vn 0 1 0
vn 0 -1 0
vn 1 0 0
vn 0.9576361 0.2879809 0
vn 0.7071068 0.7071068 0
vn 0 0 -1
vn 0 0.2879809 -0.9576361
vn 0 0.2181942 -0.9759054
vn 0 0.7071068 -0.7071068
vn 0 0 1
vn 0 0.2879809 0.9576361
vn 0 0.2181942 0.9759054
vn 0 0.7071068 0.7071068

vt 0.59375 0.05833333
vt 0.59375 0.2145833
vt 0.59375 0.225
vt 0.59375 0.025

usemtl colormap

f 3/1/1 2/2/1 1/1/1
f 2/2/1 3/1/1 4/3/1
f 4/3/1 3/1/1 5/3/1
f 5/3/1 3/1/1 6/2/1
f 8/4/2 1/1/2 7/4/2
f 1/1/2 8/4/2 3/1/2
f 4/3/3 10/3/3 9/3/3
f 10/3/3 4/3/3 5/3/3
f 8/4/4 12/4/4 11/4/4
f 12/4/4 8/4/4 7/4/4
f 12/4/5 13/2/6 11/4/5
f 13/2/6 12/4/5 14/2/6
f 9/3/7 13/2/6 14/2/6
f 13/2/6 9/3/7 10/3/7
f 1/1/8 12/4/8 7/4/8
f 12/4/8 1/1/8 14/2/9
f 14/2/9 1/1/8 2/2/10
f 4/3/11 14/2/9 2/2/10
f 14/2/9 4/3/11 9/3/11
f 13/2/13 8/4/12 11/4/12
f 8/4/12 13/2/13 3/1/12
f 3/1/12 13/2/13 6/2/14
f 10/3/15 6/2/14 13/2/13
f 6/2/14 10/3/15 5/3/15

g none-hq-brick-slope-2x2




usemtl colormap

f 3/1/1 2/2/1 1/1/1
f 2/2/1 3/1/1 4/3/1
f 4/3/1 3/1/1 5/3/1
f 5/3/1 3/1/1 6/2/1
f 8/4/2 1/1/2 7/4/2
f 1/1/2 8/4/2 3/1/2
f 4/3/3 10/3/3 9/3/3
f 10/3/3 4/3/3 5/3/3
f 8/4/4 12/4/4 11/4/4
f 12/4/4 8/4/4 7/4/4
f 12/4/5 13/2/6 11/4/5
f 13/2/6 12/4/5 14/2/6
f 9/3/7 13/2/6 14/2/6
f 13/2/6 9/3/7 10/3/7
f 1/1/8 12/4/8 7/4/8
f 12/4/8 1/1/8 14/2/9
f 14/2/9 1/1/8 2/2/10
f 4/3/11 14/2/9 2/2/10
f 14/2/9 4/3/11 9/3/11
f 13/2/13 8/4/12 11/4/12
f 8/4/12 13/2/13 3/1/12
f 3/1/12 13/2/13 6/2/14
f 10/3/15 6/2/14 13/2/13
f 6/2/14 10/3/15 5/3/15

