# Created by Kenney (www.kenney.nl)

mtllib none-hq-brick-slope-corner-outside-inverted-2x2.mtl

g none-hq-brick-slope-corner-outside-inverted-2x2

v 0.0795 0 0.00025 1 1 1
v 0.0795 0 -0.07925 1 1 1
v 2.165734E-15 0 0.00025 1 1 1
v 2.165734E-15 0 -0.07925 1 1 1
v 0.0795 0.08 0.07925 1 1 1
v 0.0795 0.091 0.07925 1 1 1
v 0.0795 0.091 -0.07925 1 1 1
v 0.0745 0.096 -0.07425 1 1 1
v 0.0745 0.096 0.07425 1 1 1
v -0.0795 0.08 -0.07925 1 1 1
v -0.0795 0.091 -0.07925 1 1 1
v -0.0795 0.08 0.07925 1 1 1
v -0.0795 0.091 0.07925 1 1 1
v -0.0745 0.096 -0.07425 1 1 1
v -0.0745 0.096 0.07425 1 1 1

vn 0 -1 0
vn 1 0 0
vn 0.9576361 0.2879809 0
vn 0.7071068 0.7071068 0
vn -1 0 0
vn -0.9576361 0.2879809 0
vn -0.7071068 0.7071068 0
vn -0.7093199 -0.7048866 0
vn 0 0 -1
vn 0 0.2879809 -0.9576361
vn 0 0.7071068 -0.7071068
vn 0 0 1
vn 0 0.2879809 0.9576361
vn 0 0.7071068 0.7071068
vn 0 -0.7026457 0.71154
vn 0 1 0

vt 0.59375 0.025
vt 0.59375 0.1916666
vt 0.59375 0.2145833
vt 0.59375 0.225

usemtl colormap

f 3/1/1 2/1/1 1/1/1
f 2/1/1 3/1/1 4/1/1
f 1/1/2 6/3/3 5/2/2
f 2/1/2 6/3/3 1/1/2
f 6/3/3 2/1/2 7/3/3
f 8/4/4 6/3/3 7/3/3
f 6/3/3 8/4/4 9/4/4
f 12/2/5 11/3/6 10/2/5
f 11/3/6 12/2/5 13/3/6
f 13/3/6 14/4/7 11/3/6
f 14/4/7 13/3/6 15/4/7
f 3/1/8 10/2/8 4/1/8
f 10/2/8 3/1/8 12/2/8
f 10/2/9 2/1/9 4/1/9
f 2/1/9 10/2/9 7/3/10
f 7/3/10 10/2/9 11/3/10
f 14/4/11 7/3/10 11/3/10
f 7/3/10 14/4/11 8/4/11
f 6/3/13 12/2/12 5/2/12
f 12/2/12 6/3/13 13/3/13
f 9/4/14 13/3/13 6/3/13
f 13/3/13 9/4/14 15/4/14
f 5/2/15 3/1/15 1/1/15
f 3/1/15 5/2/15 12/2/15
f 14/4/16 9/4/16 8/4/16
f 9/4/16 14/4/16 15/4/16

g none-hq-brick-slope-corner-outside-inverted-2x2




usemtl colormap

f 3/1/1 2/1/1 1/1/1
f 2/1/1 3/1/1 4/1/1
f 1/1/2 6/3/3 5/2/2
f 2/1/2 6/3/3 1/1/2
f 6/3/3 2/1/2 7/3/3
f 8/4/4 6/3/3 7/3/3
f 6/3/3 8/4/4 9/4/4
f 12/2/5 11/3/6 10/2/5
f 11/3/6 12/2/5 13/3/6
f 13/3/6 14/4/7 11/3/6
f 14/4/7 13/3/6 15/4/7
f 3/1/8 10/2/8 4/1/8
f 10/2/8 3/1/8 12/2/8
f 10/2/9 2/1/9 4/1/9
f 2/1/9 10/2/9 7/3/10
f 7/3/10 10/2/9 11/3/10
f 14/4/11 7/3/10 11/3/10
f 7/3/10 14/4/11 8/4/11
f 6/3/13 12/2/12 5/2/12
f 12/2/12 6/3/13 13/3/13
f 9/4/14 13/3/13 6/3/13
f 13/3/13 9/4/14 15/4/14
f 5/2/15 3/1/15 1/1/15
f 3/1/15 5/2/15 12/2/15
f 14/4/16 9/4/16 8/4/16
f 9/4/16 14/4/16 15/4/16

