# Created by Kenney (www.kenney.nl)

mtllib none-lq-brick-1x8.mtl

g none-lq-brick-1x8

v -0.318 0 -0.0395 1 1 1
v 0.318 0 -0.0395 1 1 1
v -0.318 0.096 -0.0395 1 1 1
v 0.318 0.096 -0.0395 1 1 1
v -0.318 0 0.0395 1 1 1
v -0.318 0.096 0.0395 1 1 1
v 0.318 0 0.0395 1 1 1
v 0.318 0.096 0.0395 1 1 1

vn 0 0 -1
vn -1 0 0
vn 0 -1 0
vn 1 0 0
vn 0 0 1
vn 0 1 0

vt 0.59375 0.025
vt 0.59375 0.225

usemtl colormap

f 3/2/1 2/1/1 1/1/1
f 2/1/1 3/2/1 4/2/1
f 5/1/2 3/2/2 1/1/2
f 3/2/2 5/1/2 6/2/2
f 5/1/3 2/1/3 7/1/3
f 2/1/3 5/1/3 1/1/3
f 8/2/4 2/1/4 4/2/4
f 2/1/4 8/2/4 7/1/4
f 8/2/5 5/1/5 7/1/5
f 5/1/5 8/2/5 6/2/5
f 3/2/6 8/2/6 4/2/6
f 8/2/6 3/2/6 6/2/6

g none-lq-brick-1x8




usemtl colormap

f 3/2/1 2/1/1 1/1/1
f 2/1/1 3/2/1 4/2/1
f 5/1/2 3/2/2 1/1/2
f 3/2/2 5/1/2 6/2/2
f 5/1/3 2/1/3 7/1/3
f 2/1/3 5/1/3 1/1/3
f 8/2/4 2/1/4 4/2/4
f 2/1/4 8/2/4 7/1/4
f 8/2/5 5/1/5 7/1/5
f 5/1/5 8/2/5 6/2/5
f 3/2/6 8/2/6 4/2/6
f 8/2/6 3/2/6 6/2/6

