# Created by Kenney (www.kenney.nl)

mtllib none-lq-brick-slope-2x2.mtl

g none-lq-brick-slope-2x2

v -0.0795 0.016 -0.079 1 1 1
v 0 0.096 -0.079 1 1 1
v -0.0795 0.016 0.079 1 1 1
v 0 0.096 0.079 1 1 1
v -0.0795 0 -0.079 1 1 1
v -0.0795 0 0.079 1 1 1
v 0.0795 0.096 -0.079 1 1 1
v 0.0795 0.096 0.079 1 1 1
v 0.0795 0 -0.079 1 1 1
v 0.0795 0 0.079 1 1 1

vn -0.7093199 0.7048866 0
vn -1 0 0
vn 0 1 0
vn 1 0 0
vn 0 0 1
vn 0 0 -1
vn 0 -1 0

vt 0.59375 0.05833333
vt 0.59375 0.225
vt 0.59375 0.025

usemtl colormap

f 3/1/1 2/2/1 1/1/1
f 2/2/1 3/1/1 4/2/1
f 6/3/2 1/1/2 5/3/2
f 1/1/2 6/3/2 3/1/2
f 2/2/3 8/2/3 7/2/3
f 8/2/3 2/2/3 4/2/3
f 8/2/4 9/3/4 7/2/4
f 9/3/4 8/2/4 10/3/4
f 8/2/5 6/3/5 10/3/5
f 6/3/5 8/2/5 3/1/5
f 3/1/5 8/2/5 4/2/5
f 1/1/6 9/3/6 5/3/6
f 9/3/6 1/1/6 7/2/6
f 7/2/6 1/1/6 2/2/6
f 6/3/7 9/3/7 10/3/7
f 9/3/7 6/3/7 5/3/7

g none-lq-brick-slope-2x2




usemtl colormap

f 3/1/1 2/2/1 1/1/1
f 2/2/1 3/1/1 4/2/1
f 6/3/2 1/1/2 5/3/2
f 1/1/2 6/3/2 3/1/2
f 2/2/3 8/2/3 7/2/3
f 8/2/3 2/2/3 4/2/3
f 8/2/4 9/3/4 7/2/4
f 9/3/4 8/2/4 10/3/4
f 8/2/5 6/3/5 10/3/5
f 6/3/5 8/2/5 3/1/5
f 3/1/5 8/2/5 4/2/5
f 1/1/6 9/3/6 5/3/6
f 9/3/6 1/1/6 7/2/6
f 7/2/6 1/1/6 2/2/6
f 6/3/7 9/3/7 10/3/7
f 9/3/7 6/3/7 5/3/7

