# Created by Kenney (www.kenney.nl)

mtllib round-lq-brick-slope-inverted-2x2.mtl

g round-lq-brick-slope-inverted-2x2

v 0 0 -0.079 1 1 1
v -0.0795 0.08 -0.079 1 1 1
v 0 0 0.079 1 1 1
v -0.0795 0.08 0.079 1 1 1
v 0.0795 0.096 -0.079 1 1 1
v 0.0795 0 -0.079 1 1 1
v 0.0795 0.096 0.079 1 1 1
v 0.0795 0 0.079 1 1 1
v -0.0795 0.096 -0.079 1 1 1
v -0.0795 0.096 0.079 1 1 1
v -0.01575 0.114 0.0395 1 1 1
v -0.02277944 0.114 0.05647056 1 1 1
v -0.02277944 0.114 0.02252944 1 1 1
v -0.03975 0.114 0.0155 1 1 1
v -0.03975 0.114 0.0635 1 1 1
v -0.05672056 0.114 0.02252944 1 1 1
v -0.05672056 0.114 0.05647056 1 1 1
v -0.06375 0.114 0.0395 1 1 1
v -0.05672056 0.096 0.05647056 1 1 1
v -0.03975 0.096 0.0635 1 1 1
v -0.06375 0.096 0.0395 1 1 1
v -0.02277944 0.096 0.05647056 1 1 1
v -0.01575 0.096 0.0395 1 1 1
v -0.05672056 0.096 0.02252944 1 1 1
v -0.03975 0.096 0.0155 1 1 1
v -0.02277944 0.096 0.02252944 1 1 1
v 0.06375 0.114 0.0395 1 1 1
v 0.05672056 0.114 0.05647056 1 1 1
v 0.05672056 0.114 0.02252944 1 1 1
v 0.03975 0.114 0.0155 1 1 1
v 0.03975 0.114 0.0635 1 1 1
v 0.02277944 0.114 0.02252944 1 1 1
v 0.02277944 0.114 0.05647056 1 1 1
v 0.01575 0.114 0.0395 1 1 1
v 0.02277944 0.096 0.05647056 1 1 1
v 0.03975 0.096 0.0635 1 1 1
v 0.01575 0.096 0.0395 1 1 1
v 0.05672056 0.096 0.05647056 1 1 1
v 0.06375 0.096 0.0395 1 1 1
v 0.02277944 0.096 0.02252944 1 1 1
v 0.03975 0.096 0.0155 1 1 1
v 0.05672056 0.096 0.02252944 1 1 1
v -0.01575 0.114 -0.0395 1 1 1
v -0.02277944 0.114 -0.02252944 1 1 1
v -0.02277944 0.114 -0.05647056 1 1 1
v -0.03975 0.114 -0.0635 1 1 1
v -0.03975 0.114 -0.0155 1 1 1
v -0.05672056 0.114 -0.05647056 1 1 1
v -0.05672056 0.114 -0.02252944 1 1 1
v -0.06375 0.114 -0.0395 1 1 1
v -0.05672056 0.096 -0.02252944 1 1 1
v -0.03975 0.096 -0.0155 1 1 1
v -0.06375 0.096 -0.0395 1 1 1
v -0.02277944 0.096 -0.02252944 1 1 1
v -0.01575 0.096 -0.0395 1 1 1
v -0.05672056 0.096 -0.05647056 1 1 1
v -0.03975 0.096 -0.0635 1 1 1
v -0.02277944 0.096 -0.05647056 1 1 1
v 0.06375 0.114 -0.0395 1 1 1
v 0.05672056 0.114 -0.02252944 1 1 1
v 0.05672056 0.114 -0.05647056 1 1 1
v 0.03975 0.114 -0.0635 1 1 1
v 0.03975 0.114 -0.0155 1 1 1
v 0.02277944 0.114 -0.05647056 1 1 1
v 0.02277944 0.114 -0.02252944 1 1 1
v 0.01575 0.114 -0.0395 1 1 1
v 0.02277944 0.096 -0.02252944 1 1 1
v 0.03975 0.096 -0.0155 1 1 1
v 0.01575 0.096 -0.0395 1 1 1
v 0.05672056 0.096 -0.02252944 1 1 1
v 0.06375 0.096 -0.0395 1 1 1
v 0.02277944 0.096 -0.05647056 1 1 1
v 0.03975 0.096 -0.0635 1 1 1
v 0.05672056 0.096 -0.05647056 1 1 1

vn -0.7093199 -0.7048866 0
vn 1 0 0
vn 0 0 -1
vn 0 -1 0
vn 0 0 1
vn 0 1 0
vn -1 0 0
vn -0.7071068 0 0.7071068
vn 0.7071068 0 0.7071068
vn -0.7071068 0 -0.7071068
vn 0.7071068 0 -0.7071068

vt 0.59375 0.025
vt 0.59375 0.1916666
vt 0.59375 0.225

usemtl colormap

f 3/1/1 2/2/1 1/1/1
f 2/2/1 3/1/1 4/2/1
f 7/3/2 6/1/2 5/3/2
f 6/1/2 7/3/2 8/1/2
f 2/2/3 6/1/3 1/1/3
f 6/1/3 2/2/3 5/3/3
f 5/3/3 2/2/3 9/3/3
f 3/1/4 6/1/4 8/1/4
f 6/1/4 3/1/4 1/1/4
f 7/3/5 3/1/5 8/1/5
f 3/1/5 7/3/5 4/2/5
f 4/2/5 7/3/5 10/3/5
f 9/3/6 7/3/6 5/3/6
f 7/3/6 9/3/6 10/3/6
f 4/2/7 9/3/7 2/2/7
f 9/3/7 4/2/7 10/3/7
f 13/3/6 12/3/6 11/3/6
f 12/3/6 13/3/6 14/3/6
f 12/3/6 14/3/6 15/3/6
f 15/3/6 14/3/6 16/3/6
f 15/3/6 16/3/6 17/3/6
f 17/3/6 16/3/6 18/3/6
f 19/1/8 15/3/5 17/3/8
f 18/3/7 19/1/8 17/3/8
f 15/3/5 19/1/8 20/1/5
f 19/1/8 18/3/7 21/1/7
f 20/1/5 12/3/9 15/3/5
f 12/3/9 20/1/5 22/1/9
f 23/1/2 12/3/9 22/1/9
f 12/3/9 23/1/2 11/3/2
f 16/3/10 21/1/7 18/3/7
f 21/1/7 16/3/10 24/1/10
f 16/3/10 25/1/3 24/1/10
f 25/1/3 16/3/10 14/3/3
f 26/1/11 11/3/2 23/1/2
f 14/3/3 26/1/11 25/1/3
f 11/3/2 26/1/11 13/3/11
f 26/1/11 14/3/3 13/3/11
f 29/3/6 28/3/6 27/3/6
f 28/3/6 29/3/6 30/3/6
f 28/3/6 30/3/6 31/3/6
f 31/3/6 30/3/6 32/3/6
f 31/3/6 32/3/6 33/3/6
f 33/3/6 32/3/6 34/3/6
f 35/1/8 31/3/5 33/3/8
f 34/3/7 35/1/8 33/3/8
f 31/3/5 35/1/8 36/1/5
f 35/1/8 34/3/7 37/1/7
f 36/1/5 28/3/9 31/3/5
f 28/3/9 36/1/5 38/1/9
f 39/1/2 28/3/9 38/1/9
f 28/3/9 39/1/2 27/3/2
f 32/3/10 37/1/7 34/3/7
f 37/1/7 32/3/10 40/1/10
f 32/3/10 41/1/3 40/1/10
f 41/1/3 32/3/10 30/3/3
f 42/1/11 27/3/2 39/1/2
f 30/3/3 42/1/11 41/1/3
f 27/3/2 42/1/11 29/3/11
f 42/1/11 30/3/3 29/3/11
f 45/3/6 44/3/6 43/3/6
f 44/3/6 45/3/6 46/3/6
f 44/3/6 46/3/6 47/3/6
f 47/3/6 46/3/6 48/3/6
f 47/3/6 48/3/6 49/3/6
f 49/3/6 48/3/6 50/3/6
f 51/1/8 47/3/5 49/3/8
f 50/3/7 51/1/8 49/3/8
f 47/3/5 51/1/8 52/1/5
f 51/1/8 50/3/7 53/1/7
f 52/1/5 44/3/9 47/3/5
f 44/3/9 52/1/5 54/1/9
f 55/1/2 44/3/9 54/1/9
f 44/3/9 55/1/2 43/3/2
f 48/3/10 53/1/7 50/3/7
f 53/1/7 48/3/10 56/1/10
f 48/3/10 57/1/3 56/1/10
f 57/1/3 48/3/10 46/3/3
f 58/1/11 43/3/2 55/1/2
f 46/3/3 58/1/11 57/1/3
f 43/3/2 58/1/11 45/3/11
f 58/1/11 46/3/3 45/3/11
f 61/3/6 60/3/6 59/3/6
f 60/3/6 61/3/6 62/3/6
f 60/3/6 62/3/6 63/3/6
f 63/3/6 62/3/6 64/3/6
f 63/3/6 64/3/6 65/3/6
f 65/3/6 64/3/6 66/3/6
f 67/1/8 63/3/5 65/3/8
f 66/3/7 67/1/8 65/3/8
f 63/3/5 67/1/8 68/1/5
f 67/1/8 66/3/7 69/1/7
f 68/1/5 60/3/9 63/3/5
f 60/3/9 68/1/5 70/1/9
f 71/1/2 60/3/9 70/1/9
f 60/3/9 71/1/2 59/3/2
f 64/3/10 69/1/7 66/3/7
f 69/1/7 64/3/10 72/1/10
f 64/3/10 73/1/3 72/1/10
f 73/1/3 64/3/10 62/3/3
f 74/1/11 59/3/2 71/1/2
f 62/3/3 74/1/11 73/1/3
f 59/3/2 74/1/11 61/3/11
f 74/1/11 62/3/3 61/3/11

g round-lq-brick-slope-inverted-2x2




usemtl colormap

f 3/1/1 2/2/1 1/1/1
f 2/2/1 3/1/1 4/2/1
f 7/3/2 6/1/2 5/3/2
f 6/1/2 7/3/2 8/1/2
f 2/2/3 6/1/3 1/1/3
f 6/1/3 2/2/3 5/3/3
f 5/3/3 2/2/3 9/3/3
f 3/1/4 6/1/4 8/1/4
f 6/1/4 3/1/4 1/1/4
f 7/3/5 3/1/5 8/1/5
f 3/1/5 7/3/5 4/2/5
f 4/2/5 7/3/5 10/3/5
f 9/3/6 7/3/6 5/3/6
f 7/3/6 9/3/6 10/3/6
f 4/2/7 9/3/7 2/2/7
f 9/3/7 4/2/7 10/3/7
f 13/3/6 12/3/6 11/3/6
f 12/3/6 13/3/6 14/3/6
f 12/3/6 14/3/6 15/3/6
f 15/3/6 14/3/6 16/3/6
f 15/3/6 16/3/6 17/3/6
f 17/3/6 16/3/6 18/3/6
f 19/1/8 15/3/5 17/3/8
f 18/3/7 19/1/8 17/3/8
f 15/3/5 19/1/8 20/1/5
f 19/1/8 18/3/7 21/1/7
f 20/1/5 12/3/9 15/3/5
f 12/3/9 20/1/5 22/1/9
f 23/1/2 12/3/9 22/1/9
f 12/3/9 23/1/2 11/3/2
f 16/3/10 21/1/7 18/3/7
f 21/1/7 16/3/10 24/1/10
f 16/3/10 25/1/3 24/1/10
f 25/1/3 16/3/10 14/3/3
f 26/1/11 11/3/2 23/1/2
f 14/3/3 26/1/11 25/1/3
f 11/3/2 26/1/11 13/3/11
f 26/1/11 14/3/3 13/3/11
f 29/3/6 28/3/6 27/3/6
f 28/3/6 29/3/6 30/3/6
f 28/3/6 30/3/6 31/3/6
f 31/3/6 30/3/6 32/3/6
f 31/3/6 32/3/6 33/3/6
f 33/3/6 32/3/6 34/3/6
f 35/1/8 31/3/5 33/3/8
f 34/3/7 35/1/8 33/3/8
f 31/3/5 35/1/8 36/1/5
f 35/1/8 34/3/7 37/1/7
f 36/1/5 28/3/9 31/3/5
f 28/3/9 36/1/5 38/1/9
f 39/1/2 28/3/9 38/1/9
f 28/3/9 39/1/2 27/3/2
f 32/3/10 37/1/7 34/3/7
f 37/1/7 32/3/10 40/1/10
f 32/3/10 41/1/3 40/1/10
f 41/1/3 32/3/10 30/3/3
f 42/1/11 27/3/2 39/1/2
f 30/3/3 42/1/11 41/1/3
f 27/3/2 42/1/11 29/3/11
f 42/1/11 30/3/3 29/3/11
f 45/3/6 44/3/6 43/3/6
f 44/3/6 45/3/6 46/3/6
f 44/3/6 46/3/6 47/3/6
f 47/3/6 46/3/6 48/3/6
f 47/3/6 48/3/6 49/3/6
f 49/3/6 48/3/6 50/3/6
f 51/1/8 47/3/5 49/3/8
f 50/3/7 51/1/8 49/3/8
f 47/3/5 51/1/8 52/1/5
f 51/1/8 50/3/7 53/1/7
f 52/1/5 44/3/9 47/3/5
f 44/3/9 52/1/5 54/1/9
f 55/1/2 44/3/9 54/1/9
f 44/3/9 55/1/2 43/3/2
f 48/3/10 53/1/7 50/3/7
f 53/1/7 48/3/10 56/1/10
f 48/3/10 57/1/3 56/1/10
f 57/1/3 48/3/10 46/3/3
f 58/1/11 43/3/2 55/1/2
f 46/3/3 58/1/11 57/1/3
f 43/3/2 58/1/11 45/3/11
f 58/1/11 46/3/3 45/3/11
f 61/3/6 60/3/6 59/3/6
f 60/3/6 61/3/6 62/3/6
f 60/3/6 62/3/6 63/3/6
f 63/3/6 62/3/6 64/3/6
f 63/3/6 64/3/6 65/3/6
f 65/3/6 64/3/6 66/3/6
f 67/1/8 63/3/5 65/3/8
f 66/3/7 67/1/8 65/3/8
f 63/3/5 67/1/8 68/1/5
f 67/1/8 66/3/7 69/1/7
f 68/1/5 60/3/9 63/3/5
f 60/3/9 68/1/5 70/1/9
f 71/1/2 60/3/9 70/1/9
f 60/3/9 71/1/2 59/3/2
f 64/3/10 69/1/7 66/3/7
f 69/1/7 64/3/10 72/1/10
f 64/3/10 73/1/3 72/1/10
f 73/1/3 64/3/10 62/3/3
f 74/1/11 59/3/2 71/1/2
f 62/3/3 74/1/11 73/1/3
f 59/3/2 74/1/11 61/3/11
f 74/1/11 62/3/3 61/3/11

