# Created by Kenney (www.kenney.nl)

mtllib round-lq-brick-1x1-round.mtl

g round-lq-brick-1x1-round

v 0.03975 0.096 0 1 1 1
v 0.0281075 0.096 0.0281075 1 1 1
v 0.0281075 0.096 -0.0281075 1 1 1
v 0 0.096 -0.03975 1 1 1
v 0 0.096 0.03975 1 1 1
v -0.0281075 0.096 -0.0281075 1 1 1
v -0.0281075 0.096 0.0281075 1 1 1
v -0.03975 0.096 0 1 1 1
v 0.02892608 0 0 1 1 1
v 0.02045383 0 -0.02045383 1 1 1
v 0.02045383 0 0.02045383 1 1 1
v 0 0 0.02892608 1 1 1
v 0 0 -0.02892608 1 1 1
v -0.02045383 0 0.02045383 1 1 1
v -0.02045383 0 -0.02045383 1 1 1
v -0.02892608 0 0 1 1 1
v -0.02045383 0.016 0.02045383 1 1 1
v 0 0.016 0.02892608 1 1 1
v -0.02892608 0.016 0 1 1 1
v 0.02045383 0.016 0.02045383 1 1 1
v 0.02892608 0.016 0 1 1 1
v -0.02045383 0.016 -0.02045383 1 1 1
v 0 0.016 -0.02892608 1 1 1
v 0.02045383 0.016 -0.02045383 1 1 1
v -0.03975 0.016 0 1 1 1
v -0.0281075 0.016 0.0281075 1 1 1
v -0.0281075 0.016 -0.0281075 1 1 1
v 0 0.016 0.03975 1 1 1
v 0.0281075 0.016 0.0281075 1 1 1
v 0 0.016 -0.03975 1 1 1
v 0.0281075 0.016 -0.0281075 1 1 1
v 0.03975 0.016 0 1 1 1
v 0.02475 0.114 -0.0005 1 1 1
v 0.01772056 0.114 0.01647056 1 1 1
v 0.01772056 0.114 -0.01747056 1 1 1
v 0.00075 0.114 -0.0245 1 1 1
v 0.00075 0.114 0.0235 1 1 1
v -0.01622056 0.114 -0.01747056 1 1 1
v -0.01622056 0.114 0.01647056 1 1 1
v -0.02325 0.114 -0.0005 1 1 1
v -0.01622056 0.096 0.01647056 1 1 1
v 0.00075 0.096 0.0235 1 1 1
v -0.02325 0.096 -0.0005 1 1 1
v 0.01772056 0.096 0.01647056 1 1 1
v 0.02475 0.096 -0.0005 1 1 1
v -0.01622056 0.096 -0.01747056 1 1 1
v 0.00075 0.096 -0.0245 1 1 1
v 0.01772056 0.096 -0.01747056 1 1 1

vn 0 1 0
vn 0 -1 0
vn -0.7071068 0 0.7071068
vn 0 0 1
vn -1 0 0
vn 0.7071068 0 0.7071068
vn 1 0 0
vn -0.7071068 0 -0.7071068
vn 0 0 -1
vn 0.7071068 0 -0.7071068

vt 0.59375 0.225
vt 0.59375 0.025
vt 0.59375 0.05833333

usemtl colormap

f 3/1/1 2/1/1 1/1/1
f 2/1/1 3/1/1 4/1/1
f 2/1/1 4/1/1 5/1/1
f 5/1/1 4/1/1 6/1/1
f 5/1/1 6/1/1 7/1/1
f 7/1/1 6/1/1 8/1/1
f 11/2/2 10/2/2 9/2/2
f 10/2/2 11/2/2 12/2/2
f 10/2/2 12/2/2 13/2/2
f 13/2/2 12/2/2 14/2/2
f 13/2/2 14/2/2 15/2/2
f 15/2/2 14/2/2 16/2/2
f 14/2/3 18/3/4 17/3/3
f 19/3/5 14/2/3 17/3/3
f 18/3/4 14/2/3 12/2/4
f 14/2/3 19/3/5 16/2/5
f 12/2/4 20/3/6 18/3/4
f 20/3/6 12/2/4 11/2/6
f 9/2/7 20/3/6 11/2/6
f 20/3/6 9/2/7 21/3/7
f 22/3/8 16/2/5 19/3/5
f 16/2/5 22/3/8 15/2/8
f 22/3/8 13/2/9 15/2/8
f 13/2/9 22/3/8 23/3/9
f 10/2/10 21/3/7 9/2/7
f 23/3/9 10/2/10 13/2/9
f 21/3/7 10/2/10 24/3/10
f 10/2/10 23/3/9 24/3/10
f 19/3/2 26/3/2 25/3/2
f 27/3/2 19/3/2 25/3/2
f 17/3/2 26/3/2 19/3/2
f 27/3/2 22/3/2 19/3/2
f 18/3/2 26/3/2 17/3/2
f 18/3/2 28/3/2 26/3/2
f 20/3/2 28/3/2 18/3/2
f 20/3/2 29/3/2 28/3/2
f 30/3/2 22/3/2 27/3/2
f 30/3/2 23/3/2 22/3/2
f 30/3/2 24/3/2 23/3/2
f 31/3/2 24/3/2 30/3/2
f 21/3/2 29/3/2 20/3/2
f 31/3/2 21/3/2 24/3/2
f 29/3/2 21/3/2 32/3/2
f 21/3/2 31/3/2 32/3/2
f 32/3/7 2/1/6 29/3/6
f 2/1/6 28/3/4 29/3/6
f 2/1/6 32/3/7 1/1/7
f 28/3/4 2/1/6 5/1/4
f 31/3/10 1/1/7 32/3/7
f 1/1/7 31/3/10 3/1/10
f 31/3/10 4/1/9 3/1/10
f 4/1/9 31/3/10 30/3/9
f 5/1/4 26/3/3 28/3/4
f 26/3/3 5/1/4 7/1/3
f 8/1/5 26/3/3 7/1/3
f 26/3/3 8/1/5 25/3/5
f 30/3/9 6/1/8 4/1/9
f 6/1/8 25/3/5 8/1/5
f 6/1/8 30/3/9 27/3/8
f 25/3/5 6/1/8 27/3/8
f 35/1/1 34/1/1 33/1/1
f 34/1/1 35/1/1 36/1/1
f 34/1/1 36/1/1 37/1/1
f 37/1/1 36/1/1 38/1/1
f 37/1/1 38/1/1 39/1/1
f 39/1/1 38/1/1 40/1/1
f 41/2/3 37/1/4 39/1/3
f 40/1/5 41/2/3 39/1/3
f 37/1/4 41/2/3 42/2/4
f 41/2/3 40/1/5 43/2/5
f 42/2/4 34/1/6 37/1/4
f 34/1/6 42/2/4 44/2/6
f 45/2/7 34/1/6 44/2/6
f 34/1/6 45/2/7 33/1/7
f 38/1/8 43/2/5 40/1/5
f 43/2/5 38/1/8 46/2/8
f 38/1/8 47/2/9 46/2/8
f 47/2/9 38/1/8 36/1/9
f 48/2/10 33/1/7 45/2/7
f 36/1/9 48/2/10 47/2/9
f 33/1/7 48/2/10 35/1/10
f 48/2/10 36/1/9 35/1/10

g round-lq-brick-1x1-round




usemtl colormap

f 3/1/1 2/1/1 1/1/1
f 2/1/1 3/1/1 4/1/1
f 2/1/1 4/1/1 5/1/1
f 5/1/1 4/1/1 6/1/1
f 5/1/1 6/1/1 7/1/1
f 7/1/1 6/1/1 8/1/1
f 11/2/2 10/2/2 9/2/2
f 10/2/2 11/2/2 12/2/2
f 10/2/2 12/2/2 13/2/2
f 13/2/2 12/2/2 14/2/2
f 13/2/2 14/2/2 15/2/2
f 15/2/2 14/2/2 16/2/2
f 14/2/3 18/3/4 17/3/3
f 19/3/5 14/2/3 17/3/3
f 18/3/4 14/2/3 12/2/4
f 14/2/3 19/3/5 16/2/5
f 12/2/4 20/3/6 18/3/4
f 20/3/6 12/2/4 11/2/6
f 9/2/7 20/3/6 11/2/6
f 20/3/6 9/2/7 21/3/7
f 22/3/8 16/2/5 19/3/5
f 16/2/5 22/3/8 15/2/8
f 22/3/8 13/2/9 15/2/8
f 13/2/9 22/3/8 23/3/9
f 10/2/10 21/3/7 9/2/7
f 23/3/9 10/2/10 13/2/9
f 21/3/7 10/2/10 24/3/10
f 10/2/10 23/3/9 24/3/10
f 19/3/2 26/3/2 25/3/2
f 27/3/2 19/3/2 25/3/2
f 17/3/2 26/3/2 19/3/2
f 27/3/2 22/3/2 19/3/2
f 18/3/2 26/3/2 17/3/2
f 18/3/2 28/3/2 26/3/2
f 20/3/2 28/3/2 18/3/2
f 20/3/2 29/3/2 28/3/2
f 30/3/2 22/3/2 27/3/2
f 30/3/2 23/3/2 22/3/2
f 30/3/2 24/3/2 23/3/2
f 31/3/2 24/3/2 30/3/2
f 21/3/2 29/3/2 20/3/2
f 31/3/2 21/3/2 24/3/2
f 29/3/2 21/3/2 32/3/2
f 21/3/2 31/3/2 32/3/2
f 32/3/7 2/1/6 29/3/6
f 2/1/6 28/3/4 29/3/6
f 2/1/6 32/3/7 1/1/7
f 28/3/4 2/1/6 5/1/4
f 31/3/10 1/1/7 32/3/7
f 1/1/7 31/3/10 3/1/10
f 31/3/10 4/1/9 3/1/10
f 4/1/9 31/3/10 30/3/9
f 5/1/4 26/3/3 28/3/4
f 26/3/3 5/1/4 7/1/3
f 8/1/5 26/3/3 7/1/3
f 26/3/3 8/1/5 25/3/5
f 30/3/9 6/1/8 4/1/9
f 6/1/8 25/3/5 8/1/5
f 6/1/8 30/3/9 27/3/8
f 25/3/5 6/1/8 27/3/8
f 35/1/1 34/1/1 33/1/1
f 34/1/1 35/1/1 36/1/1
f 34/1/1 36/1/1 37/1/1
f 37/1/1 36/1/1 38/1/1
f 37/1/1 38/1/1 39/1/1
f 39/1/1 38/1/1 40/1/1
f 41/2/3 37/1/4 39/1/3
f 40/1/5 41/2/3 39/1/3
f 37/1/4 41/2/3 42/2/4
f 41/2/3 40/1/5 43/2/5
f 42/2/4 34/1/6 37/1/4
f 34/1/6 42/2/4 44/2/6
f 45/2/7 34/1/6 44/2/6
f 34/1/6 45/2/7 33/1/7
f 38/1/8 43/2/5 40/1/5
f 43/2/5 38/1/8 46/2/8
f 38/1/8 47/2/9 46/2/8
f 47/2/9 38/1/8 36/1/9
f 48/2/10 33/1/7 45/2/7
f 36/1/9 48/2/10 47/2/9
f 33/1/7 48/2/10 35/1/10
f 48/2/10 36/1/9 35/1/10

