# Created by Kenney (www.kenney.nl)

mtllib round-lq-brick-slope-inverted-1x2.mtl

g round-lq-brick-slope-inverted-1x2

v 0.0795 0.096 -0.0395 1 1 1
v 0.0795 0.096 0.0395 1 1 1
v -0.0795 0.096 -0.0395 1 1 1
v -0.0795 0.096 0.0395 1 1 1
v 0.0795 0 0.0395 1 1 1
v 0 0 0.0395 1 1 1
v -0.0795 0.08 0.0395 1 1 1
v 0.0795 0 -0.0395 1 1 1
v 0 0 -0.0395 1 1 1
v -0.0795 0.08 -0.0395 1 1 1
v 0.06375 0.114 1.443823E-15 1 1 1
v 0.05672056 0.114 0.01697056 1 1 1
v 0.05672056 0.114 -0.01697056 1 1 1
v 0.03975 0.114 -0.024 1 1 1
v 0.03975 0.114 0.024 1 1 1
v 0.02277944 0.114 -0.01697056 1 1 1
v 0.02277944 0.114 0.01697056 1 1 1
v 0.01575 0.114 0 1 1 1
v 0.02277944 0.096 0.01697056 1 1 1
v 0.03975 0.096 0.024 1 1 1
v 0.01575 0.096 0 1 1 1
v 0.05672056 0.096 0.01697056 1 1 1
v 0.06375 0.096 1.443823E-15 1 1 1
v 0.02277944 0.096 -0.01697056 1 1 1
v 0.03975 0.096 -0.024 1 1 1
v 0.05672056 0.096 -0.01697056 1 1 1
v -0.01575 0.114 1.443823E-15 1 1 1
v -0.02277944 0.114 0.01697056 1 1 1
v -0.02277944 0.114 -0.01697056 1 1 1
v -0.03975 0.114 -0.024 1 1 1
v -0.03975 0.114 0.024 1 1 1
v -0.05672056 0.114 -0.01697056 1 1 1
v -0.05672056 0.114 0.01697056 1 1 1
v -0.06375 0.114 0 1 1 1
v -0.05672056 0.096 0.01697056 1 1 1
v -0.03975 0.096 0.024 1 1 1
v -0.06375 0.096 0 1 1 1
v -0.02277944 0.096 0.01697056 1 1 1
v -0.01575 0.096 1.443823E-15 1 1 1
v -0.05672056 0.096 -0.01697056 1 1 1
v -0.03975 0.096 -0.024 1 1 1
v -0.02277944 0.096 -0.01697056 1 1 1

vn 0 1 0
vn 0 0 1
vn 1 0 0
vn 0 0 -1
vn -0.7093199 -0.7048866 0
vn -1 0 0
vn 0 -1 0
vn -0.7071068 0 0.7071068
vn 0.7071068 0 0.7071068
vn -0.7071068 0 -0.7071068
vn 0.7071068 0 -0.7071068

vt 0.59375 0.225
vt 0.59375 0.025
vt 0.59375 0.1916666

usemtl colormap

f 3/1/1 2/1/1 1/1/1
f 2/1/1 3/1/1 4/1/1
f 2/1/2 6/2/2 5/2/2
f 6/2/2 2/1/2 7/3/2
f 7/3/2 2/1/2 4/1/2
f 2/1/3 8/2/3 1/1/3
f 8/2/3 2/1/3 5/2/3
f 10/3/4 8/2/4 9/2/4
f 8/2/4 10/3/4 1/1/4
f 1/1/4 10/3/4 3/1/4
f 6/2/5 10/3/5 9/2/5
f 10/3/5 6/2/5 7/3/5
f 7/3/6 3/1/6 10/3/6
f 3/1/6 7/3/6 4/1/6
f 6/2/7 8/2/7 5/2/7
f 8/2/7 6/2/7 9/2/7
f 13/1/1 12/1/1 11/1/1
f 12/1/1 13/1/1 14/1/1
f 12/1/1 14/1/1 15/1/1
f 15/1/1 14/1/1 16/1/1
f 15/1/1 16/1/1 17/1/1
f 17/1/1 16/1/1 18/1/1
f 19/2/8 15/1/2 17/1/8
f 18/1/6 19/2/8 17/1/8
f 15/1/2 19/2/8 20/2/2
f 19/2/8 18/1/6 21/2/6
f 20/2/2 12/1/9 15/1/2
f 12/1/9 20/2/2 22/2/9
f 23/2/3 12/1/9 22/2/9
f 12/1/9 23/2/3 11/1/3
f 16/1/10 21/2/6 18/1/6
f 21/2/6 16/1/10 24/2/10
f 16/1/10 25/2/4 24/2/10
f 25/2/4 16/1/10 14/1/4
f 26/2/11 11/1/3 23/2/3
f 14/1/4 26/2/11 25/2/4
f 11/1/3 26/2/11 13/1/11
f 26/2/11 14/1/4 13/1/11
f 29/1/1 28/1/1 27/1/1
f 28/1/1 29/1/1 30/1/1
f 28/1/1 30/1/1 31/1/1
f 31/1/1 30/1/1 32/1/1
f 31/1/1 32/1/1 33/1/1
f 33/1/1 32/1/1 34/1/1
f 35/2/8 31/1/2 33/1/8
f 34/1/6 35/2/8 33/1/8
f 31/1/2 35/2/8 36/2/2
f 35/2/8 34/1/6 37/2/6
f 36/2/2 28/1/9 31/1/2
f 28/1/9 36/2/2 38/2/9
f 39/2/3 28/1/9 38/2/9
f 28/1/9 39/2/3 27/1/3
f 32/1/10 37/2/6 34/1/6
f 37/2/6 32/1/10 40/2/10
f 32/1/10 41/2/4 40/2/10
f 41/2/4 32/1/10 30/1/4
f 42/2/11 27/1/3 39/2/3
f 30/1/4 42/2/11 41/2/4
f 27/1/3 42/2/11 29/1/11
f 42/2/11 30/1/4 29/1/11

g round-lq-brick-slope-inverted-1x2




usemtl colormap

f 3/1/1 2/1/1 1/1/1
f 2/1/1 3/1/1 4/1/1
f 2/1/2 6/2/2 5/2/2
f 6/2/2 2/1/2 7/3/2
f 7/3/2 2/1/2 4/1/2
f 2/1/3 8/2/3 1/1/3
f 8/2/3 2/1/3 5/2/3
f 10/3/4 8/2/4 9/2/4
f 8/2/4 10/3/4 1/1/4
f 1/1/4 10/3/4 3/1/4
f 6/2/5 10/3/5 9/2/5
f 10/3/5 6/2/5 7/3/5
f 7/3/6 3/1/6 10/3/6
f 3/1/6 7/3/6 4/1/6
f 6/2/7 8/2/7 5/2/7
f 8/2/7 6/2/7 9/2/7
f 13/1/1 12/1/1 11/1/1
f 12/1/1 13/1/1 14/1/1
f 12/1/1 14/1/1 15/1/1
f 15/1/1 14/1/1 16/1/1
f 15/1/1 16/1/1 17/1/1
f 17/1/1 16/1/1 18/1/1
f 19/2/8 15/1/2 17/1/8
f 18/1/6 19/2/8 17/1/8
f 15/1/2 19/2/8 20/2/2
f 19/2/8 18/1/6 21/2/6
f 20/2/2 12/1/9 15/1/2
f 12/1/9 20/2/2 22/2/9
f 23/2/3 12/1/9 22/2/9
f 12/1/9 23/2/3 11/1/3
f 16/1/10 21/2/6 18/1/6
f 21/2/6 16/1/10 24/2/10
f 16/1/10 25/2/4 24/2/10
f 25/2/4 16/1/10 14/1/4
f 26/2/11 11/1/3 23/2/3
f 14/1/4 26/2/11 25/2/4
f 11/1/3 26/2/11 13/1/11
f 26/2/11 14/1/4 13/1/11
f 29/1/1 28/1/1 27/1/1
f 28/1/1 29/1/1 30/1/1
f 28/1/1 30/1/1 31/1/1
f 31/1/1 30/1/1 32/1/1
f 31/1/1 32/1/1 33/1/1
f 33/1/1 32/1/1 34/1/1
f 35/2/8 31/1/2 33/1/8
f 34/1/6 35/2/8 33/1/8
f 31/1/2 35/2/8 36/2/2
f 35/2/8 34/1/6 37/2/6
f 36/2/2 28/1/9 31/1/2
f 28/1/9 36/2/2 38/2/9
f 39/2/3 28/1/9 38/2/9
f 28/1/9 39/2/3 27/1/3
f 32/1/10 37/2/6 34/1/6
f 37/2/6 32/1/10 40/2/10
f 32/1/10 41/2/4 40/2/10
f 41/2/4 32/1/10 30/1/4
f 42/2/11 27/1/3 39/2/3
f 30/1/4 42/2/11 41/2/4
f 27/1/3 42/2/11 29/1/11
f 42/2/11 30/1/4 29/1/11

