# Created by Kenney (www.kenney.nl)

mtllib round-hq-brick-slope-3x2.mtl

g round-hq-brick-slope-3x2

v 0.11925 0 0.079 1 1 1
v 0.11925 0 -0.079 1 1 1
v -0.11925 0 0.079 1 1 1
v -0.11925 0 -0.079 1 1 1
v -0.11925 0.016 -0.079 1 1 1
v -0.11925 0.016 0.079 1 1 1
v 0.11425 0.096 -0.074 1 1 1
v 0.11425 0.096 0.074 1 1 1
v 0.03975 0.096 -0.074 1 1 1
v 0.03975 0.096 0.074 1 1 1
v 0.11925 0.091 0.079 1 1 1
v 0.11925 0.091 -0.079 1 1 1
v 0.0298125 0.091 -0.079 1 1 1
v 0.0298125 0.091 0.079 1 1 1
v 0.09808803 0.114 0.0395 1 1 1
v 0.09264372 0.114 0.05264373 1 1 1
v 0.09264372 0.114 0.02635627 1 1 1
v 0.0795 0.114 0.02091196 1 1 1
v 0.0795 0.114 0.05808803 1 1 1
v 0.06635627 0.114 0.02635627 1 1 1
v 0.06635627 0.114 0.05264373 1 1 1
v 0.06091196 0.114 0.0395 1 1 1
v 0.06252944 0.109 0.05647056 1 1 1
v 0.0795 0.109 0.0635 1 1 1
v 0.09647056 0.109 0.05647056 1 1 1
v 0.0555 0.109 0.0395 1 1 1
v 0.06252944 0.096 0.05647056 1 1 1
v 0.0795 0.096 0.0635 1 1 1
v 0.0555 0.096 0.0395 1 1 1
v 0.09647056 0.096 0.05647056 1 1 1
v 0.06252944 0.096 0.02252944 1 1 1
v 0.1035 0.096 0.0395 1 1 1
v 0.06252944 0.109 0.02252944 1 1 1
v 0.0795 0.096 0.0155 1 1 1
v 0.1035 0.109 0.0395 1 1 1
v 0.09647056 0.096 0.02252944 1 1 1
v 0.0795 0.109 0.0155 1 1 1
v 0.09647056 0.109 0.02252944 1 1 1
v 0.09808803 0.114 -0.0395 1 1 1
v 0.09264372 0.114 -0.02635627 1 1 1
v 0.09264372 0.114 -0.05264373 1 1 1
v 0.0795 0.114 -0.05808803 1 1 1
v 0.0795 0.114 -0.02091196 1 1 1
v 0.06635627 0.114 -0.05264373 1 1 1
v 0.06635627 0.114 -0.02635627 1 1 1
v 0.06091196 0.114 -0.0395 1 1 1
v 0.06252944 0.109 -0.02252944 1 1 1
v 0.0795 0.109 -0.0155 1 1 1
v 0.09647056 0.109 -0.02252944 1 1 1
v 0.0555 0.109 -0.0395 1 1 1
v 0.06252944 0.096 -0.02252944 1 1 1
v 0.0795 0.096 -0.0155 1 1 1
v 0.0555 0.096 -0.0395 1 1 1
v 0.09647056 0.096 -0.02252944 1 1 1
v 0.06252944 0.096 -0.05647056 1 1 1
v 0.1035 0.096 -0.0395 1 1 1
v 0.06252944 0.109 -0.05647056 1 1 1
v 0.0795 0.096 -0.0635 1 1 1
v 0.1035 0.109 -0.0395 1 1 1
v 0.09647056 0.096 -0.05647056 1 1 1
v 0.0795 0.109 -0.0635 1 1 1
v 0.09647056 0.109 -0.05647056 1 1 1

vn 0 -1 0
vn -1 0 0
vn 0 1 0
vn 1 0 0
vn 0.9576361 0.2879809 0
vn 0.7071068 0.7071068 0
vn 0 0 -1
vn 0 0.2879809 -0.9576361
vn 0 0.1391218 -0.9902753
vn 0 0.7071068 -0.7071068
vn 0 0 1
vn 0 0.2879809 0.9576361
vn 0 0.1391218 0.9902753
vn 0 0.7071068 0.7071068
vn -0.4494595 0.8933007 0
vn -0.4798415 0.7345095 0.4798415
vn -0.6572475 0.3688517 0.6572475
vn -0.6785983 0.7345095 0
vn 0 0.7345095 0.6785983
vn 0 0.3688517 0.9294882
vn 0.4798415 0.7345095 0.4798415
vn 0.6572475 0.3688517 0.6572475
vn 0.6785983 0.7345095 0
vn -0.9294882 0.3688517 0
vn -0.7071068 0 0.7071068
vn 0.7071068 0 0.7071068
vn -0.7071068 0 -0.7071068
vn -0.6572475 0.3688517 -0.6572475
vn -0.4798415 0.7345095 -0.4798415
vn 0 0.7345095 -0.6785983
vn 0.9294882 0.3688517 0
vn 0.7071068 0 -0.7071068
vn 0 0.3688517 -0.9294882
vn 0.4798415 0.7345095 -0.4798415
vn 0.6572475 0.3688517 -0.6572475

vt 0.59375 0.025
vt 0.59375 0.05833333
vt 0.59375 0.225
vt 0.59375 0.2145833
vt 0.59375 0.1694444

usemtl colormap

f 3/1/1 2/1/1 1/1/1
f 2/1/1 3/1/1 4/1/1
f 3/1/2 5/2/2 4/1/2
f 5/2/2 3/1/2 6/2/2
f 9/3/3 8/3/3 7/3/3
f 8/3/3 9/3/3 10/3/3
f 2/1/4 11/4/5 1/1/4
f 11/4/5 2/1/4 12/4/5
f 7/3/6 11/4/5 12/4/5
f 11/4/5 7/3/6 8/3/6
f 5/2/7 2/1/7 4/1/7
f 2/1/7 5/2/7 12/4/8
f 12/4/8 5/2/7 13/4/9
f 9/3/10 12/4/8 13/4/9
f 12/4/8 9/3/10 7/3/10
f 11/4/12 3/1/11 1/1/11
f 3/1/11 11/4/12 6/2/11
f 6/2/11 11/4/12 14/4/13
f 8/3/14 14/4/13 11/4/12
f 14/4/13 8/3/14 10/3/14
f 13/4/15 10/3/15 9/3/15
f 10/3/15 13/4/15 14/4/15
f 14/4/15 13/4/15 5/2/15
f 14/4/15 5/2/15 6/2/15
f 17/3/3 16/3/3 15/3/3
f 16/3/3 17/3/3 18/3/3
f 16/3/3 18/3/3 19/3/3
f 19/3/3 18/3/3 20/3/3
f 19/3/3 20/3/3 21/3/3
f 21/3/3 20/3/3 22/3/3
f 22/3/18 23/5/17 21/3/16
f 23/5/17 19/3/19 21/3/16
f 19/3/19 23/5/17 24/5/20
f 24/5/20 16/3/21 19/3/19
f 16/3/21 24/5/20 25/5/22
f 25/5/22 15/3/23 16/3/21
f 23/5/17 22/3/18 26/5/24
f 27/1/25 24/5/20 23/5/17
f 26/5/24 27/1/25 23/5/17
f 24/5/20 27/1/25 28/1/11
f 28/1/11 25/5/22 24/5/20
f 27/1/25 26/5/24 29/1/2
f 25/5/22 28/1/11 30/1/26
f 26/5/24 31/1/27 29/1/2
f 32/1/4 25/5/22 30/1/26
f 22/3/18 33/5/28 26/5/24
f 31/1/27 26/5/24 33/5/28
f 33/5/28 22/3/18 20/3/29
f 33/5/28 34/1/7 31/1/27
f 18/3/30 33/5/28 20/3/29
f 25/5/22 32/1/4 35/5/31
f 15/3/23 25/5/22 35/5/31
f 36/1/32 35/5/31 32/1/4
f 34/1/7 33/5/28 37/5/33
f 33/5/28 18/3/30 37/5/33
f 37/5/33 36/1/32 34/1/7
f 17/3/34 37/5/33 18/3/30
f 38/5/35 15/3/23 35/5/31
f 35/5/31 36/1/32 38/5/35
f 36/1/32 37/5/33 38/5/35
f 37/5/33 17/3/34 38/5/35
f 15/3/23 38/5/35 17/3/34
f 41/3/3 40/3/3 39/3/3
f 40/3/3 41/3/3 42/3/3
f 40/3/3 42/3/3 43/3/3
f 43/3/3 42/3/3 44/3/3
f 43/3/3 44/3/3 45/3/3
f 45/3/3 44/3/3 46/3/3
f 46/3/18 47/5/17 45/3/16
f 47/5/17 43/3/19 45/3/16
f 43/3/19 47/5/17 48/5/20
f 48/5/20 40/3/21 43/3/19
f 40/3/21 48/5/20 49/5/22
f 49/5/22 39/3/23 40/3/21
f 47/5/17 46/3/18 50/5/24
f 51/1/25 48/5/20 47/5/17
f 50/5/24 51/1/25 47/5/17
f 48/5/20 51/1/25 52/1/11
f 52/1/11 49/5/22 48/5/20
f 51/1/25 50/5/24 53/1/2
f 49/5/22 52/1/11 54/1/26
f 50/5/24 55/1/27 53/1/2
f 56/1/4 49/5/22 54/1/26
f 46/3/18 57/5/28 50/5/24
f 55/1/27 50/5/24 57/5/28
f 57/5/28 46/3/18 44/3/29
f 57/5/28 58/1/7 55/1/27
f 42/3/30 57/5/28 44/3/29
f 49/5/22 56/1/4 59/5/31
f 39/3/23 49/5/22 59/5/31
f 60/1/32 59/5/31 56/1/4
f 58/1/7 57/5/28 61/5/33
f 57/5/28 42/3/30 61/5/33
f 61/5/33 60/1/32 58/1/7
f 41/3/34 61/5/33 42/3/30
f 62/5/35 39/3/23 59/5/31
f 59/5/31 60/1/32 62/5/35
f 60/1/32 61/5/33 62/5/35
f 61/5/33 41/3/34 62/5/35
f 39/3/23 62/5/35 41/3/34

g round-hq-brick-slope-3x2




usemtl colormap

f 3/1/1 2/1/1 1/1/1
f 2/1/1 3/1/1 4/1/1
f 3/1/2 5/2/2 4/1/2
f 5/2/2 3/1/2 6/2/2
f 9/3/3 8/3/3 7/3/3
f 8/3/3 9/3/3 10/3/3
f 2/1/4 11/4/5 1/1/4
f 11/4/5 2/1/4 12/4/5
f 7/3/6 11/4/5 12/4/5
f 11/4/5 7/3/6 8/3/6
f 5/2/7 2/1/7 4/1/7
f 2/1/7 5/2/7 12/4/8
f 12/4/8 5/2/7 13/4/9
f 9/3/10 12/4/8 13/4/9
f 12/4/8 9/3/10 7/3/10
f 11/4/12 3/1/11 1/1/11
f 3/1/11 11/4/12 6/2/11
f 6/2/11 11/4/12 14/4/13
f 8/3/14 14/4/13 11/4/12
f 14/4/13 8/3/14 10/3/14
f 13/4/15 10/3/15 9/3/15
f 10/3/15 13/4/15 14/4/15
f 14/4/15 13/4/15 5/2/15
f 14/4/15 5/2/15 6/2/15
f 17/3/3 16/3/3 15/3/3
f 16/3/3 17/3/3 18/3/3
f 16/3/3 18/3/3 19/3/3
f 19/3/3 18/3/3 20/3/3
f 19/3/3 20/3/3 21/3/3
f 21/3/3 20/3/3 22/3/3
f 22/3/18 23/5/17 21/3/16
f 23/5/17 19/3/19 21/3/16
f 19/3/19 23/5/17 24/5/20
f 24/5/20 16/3/21 19/3/19
f 16/3/21 24/5/20 25/5/22
f 25/5/22 15/3/23 16/3/21
f 23/5/17 22/3/18 26/5/24
f 27/1/25 24/5/20 23/5/17
f 26/5/24 27/1/25 23/5/17
f 24/5/20 27/1/25 28/1/11
f 28/1/11 25/5/22 24/5/20
f 27/1/25 26/5/24 29/1/2
f 25/5/22 28/1/11 30/1/26
f 26/5/24 31/1/27 29/1/2
f 32/1/4 25/5/22 30/1/26
f 22/3/18 33/5/28 26/5/24
f 31/1/27 26/5/24 33/5/28
f 33/5/28 22/3/18 20/3/29
f 33/5/28 34/1/7 31/1/27
f 18/3/30 33/5/28 20/3/29
f 25/5/22 32/1/4 35/5/31
f 15/3/23 25/5/22 35/5/31
f 36/1/32 35/5/31 32/1/4
f 34/1/7 33/5/28 37/5/33
f 33/5/28 18/3/30 37/5/33
f 37/5/33 36/1/32 34/1/7
f 17/3/34 37/5/33 18/3/30
f 38/5/35 15/3/23 35/5/31
f 35/5/31 36/1/32 38/5/35
f 36/1/32 37/5/33 38/5/35
f 37/5/33 17/3/34 38/5/35
f 15/3/23 38/5/35 17/3/34
f 41/3/3 40/3/3 39/3/3
f 40/3/3 41/3/3 42/3/3
f 40/3/3 42/3/3 43/3/3
f 43/3/3 42/3/3 44/3/3
f 43/3/3 44/3/3 45/3/3
f 45/3/3 44/3/3 46/3/3
f 46/3/18 47/5/17 45/3/16
f 47/5/17 43/3/19 45/3/16
f 43/3/19 47/5/17 48/5/20
f 48/5/20 40/3/21 43/3/19
f 40/3/21 48/5/20 49/5/22
f 49/5/22 39/3/23 40/3/21
f 47/5/17 46/3/18 50/5/24
f 51/1/25 48/5/20 47/5/17
f 50/5/24 51/1/25 47/5/17
f 48/5/20 51/1/25 52/1/11
f 52/1/11 49/5/22 48/5/20
f 51/1/25 50/5/24 53/1/2
f 49/5/22 52/1/11 54/1/26
f 50/5/24 55/1/27 53/1/2
f 56/1/4 49/5/22 54/1/26
f 46/3/18 57/5/28 50/5/24
f 55/1/27 50/5/24 57/5/28
f 57/5/28 46/3/18 44/3/29
f 57/5/28 58/1/7 55/1/27
f 42/3/30 57/5/28 44/3/29
f 49/5/22 56/1/4 59/5/31
f 39/3/23 49/5/22 59/5/31
f 60/1/32 59/5/31 56/1/4
f 58/1/7 57/5/28 61/5/33
f 57/5/28 42/3/30 61/5/33
f 61/5/33 60/1/32 58/1/7
f 41/3/34 61/5/33 42/3/30
f 62/5/35 39/3/23 59/5/31
f 59/5/31 60/1/32 62/5/35
f 60/1/32 61/5/33 62/5/35
f 61/5/33 41/3/34 62/5/35
f 39/3/23 62/5/35 41/3/34

