# Created by Kenney (www.kenney.nl)

mtllib round-hq-brick-slope-corner-outside-inverted-2x2.mtl

g round-hq-brick-slope-corner-outside-inverted-2x2

v 0.0795 0 0.00025 1 1 1
v 0.0795 0 -0.07925 1 1 1
v 2.165734E-15 0 0.00025 1 1 1
v 2.165734E-15 0 -0.07925 1 1 1
v 0.0795 0.08 0.07925 1 1 1
v 0.0795 0.091 0.07925 1 1 1
v 0.0795 0.091 -0.07925 1 1 1
v 0.0745 0.096 -0.07425 1 1 1
v 0.0745 0.096 0.07425 1 1 1
v -0.0795 0.08 -0.07925 1 1 1
v -0.0795 0.091 -0.07925 1 1 1
v -0.0795 0.08 0.07925 1 1 1
v -0.0795 0.091 0.07925 1 1 1
v -0.0745 0.096 -0.07425 1 1 1
v -0.0745 0.096 0.07425 1 1 1
v -0.02116196 0.114 0.03975 1 1 1
v -0.02660627 0.114 0.05289373 1 1 1
v -0.02660627 0.114 0.02660627 1 1 1
v -0.03975 0.114 0.02116196 1 1 1
v -0.03975 0.114 0.05833804 1 1 1
v -0.05289373 0.114 0.02660627 1 1 1
v -0.05289373 0.114 0.05289373 1 1 1
v -0.05833804 0.114 0.03975 1 1 1
v -0.05672056 0.109 0.05672056 1 1 1
v -0.03975 0.109 0.06375 1 1 1
v -0.02277944 0.109 0.05672056 1 1 1
v -0.06375 0.109 0.03975 1 1 1
v -0.05672056 0.096 0.05672056 1 1 1
v -0.03975 0.096 0.06375 1 1 1
v -0.06375 0.096 0.03975 1 1 1
v -0.02277944 0.096 0.05672056 1 1 1
v -0.05672056 0.096 0.02277944 1 1 1
v -0.01575 0.096 0.03975 1 1 1
v -0.05672056 0.109 0.02277944 1 1 1
v -0.03975 0.096 0.01575 1 1 1
v -0.01575 0.109 0.03975 1 1 1
v -0.02277944 0.096 0.02277944 1 1 1
v -0.03975 0.109 0.01575 1 1 1
v -0.02277944 0.109 0.02277944 1 1 1
v 0.05833804 0.114 -0.03925 1 1 1
v 0.05289373 0.114 -0.02610627 1 1 1
v 0.05289373 0.114 -0.05239373 1 1 1
v 0.03975 0.114 -0.05783804 1 1 1
v 0.03975 0.114 -0.02066196 1 1 1
v 0.02660627 0.114 -0.05239373 1 1 1
v 0.02660627 0.114 -0.02610627 1 1 1
v 0.02116196 0.114 -0.03925 1 1 1
v 0.02277944 0.109 -0.02227944 1 1 1
v 0.03975 0.109 -0.01525 1 1 1
v 0.05672056 0.109 -0.02227944 1 1 1
v 0.01575 0.109 -0.03925 1 1 1
v 0.02277944 0.096 -0.02227944 1 1 1
v 0.03975 0.096 -0.01525 1 1 1
v 0.01575 0.096 -0.03925 1 1 1
v 0.05672056 0.096 -0.02227944 1 1 1
v 0.02277944 0.096 -0.05622056 1 1 1
v 0.06375 0.096 -0.03925 1 1 1
v 0.02277944 0.109 -0.05622056 1 1 1
v 0.03975 0.096 -0.06325 1 1 1
v 0.06375 0.109 -0.03925 1 1 1
v 0.05672056 0.096 -0.05622056 1 1 1
v 0.03975 0.109 -0.06325 1 1 1
v 0.05672056 0.109 -0.05622056 1 1 1
v 0.05833804 0.114 0.03975 1 1 1
v 0.05289373 0.114 0.05289373 1 1 1
v 0.05289373 0.114 0.02660627 1 1 1
v 0.03975 0.114 0.02116196 1 1 1
v 0.03975 0.114 0.05833804 1 1 1
v 0.02660627 0.114 0.02660627 1 1 1
v 0.02660627 0.114 0.05289373 1 1 1
v 0.02116196 0.114 0.03975 1 1 1
v 0.02277944 0.109 0.05672056 1 1 1
v 0.03975 0.109 0.06375 1 1 1
v 0.05672056 0.109 0.05672056 1 1 1
v 0.01575 0.109 0.03975 1 1 1
v 0.02277944 0.096 0.05672056 1 1 1
v 0.03975 0.096 0.06375 1 1 1
v 0.01575 0.096 0.03975 1 1 1
v 0.05672056 0.096 0.05672056 1 1 1
v 0.02277944 0.096 0.02277944 1 1 1
v 0.06375 0.096 0.03975 1 1 1
v 0.02277944 0.109 0.02277944 1 1 1
v 0.03975 0.096 0.01575 1 1 1
v 0.06375 0.109 0.03975 1 1 1
v 0.05672056 0.096 0.02277944 1 1 1
v 0.03975 0.109 0.01575 1 1 1
v 0.05672056 0.109 0.02277944 1 1 1
v -0.02116196 0.114 -0.03925 1 1 1
v -0.02660627 0.114 -0.02610627 1 1 1
v -0.02660627 0.114 -0.05239373 1 1 1
v -0.03975 0.114 -0.05783804 1 1 1
v -0.03975 0.114 -0.02066196 1 1 1
v -0.05289373 0.114 -0.05239373 1 1 1
v -0.05289373 0.114 -0.02610627 1 1 1
v -0.05833804 0.114 -0.03925 1 1 1
v -0.05672056 0.109 -0.02227944 1 1 1
v -0.03975 0.109 -0.01525 1 1 1
v -0.02277944 0.109 -0.02227944 1 1 1
v -0.06375 0.109 -0.03925 1 1 1
v -0.05672056 0.096 -0.02227944 1 1 1
v -0.03975 0.096 -0.01525 1 1 1
v -0.06375 0.096 -0.03925 1 1 1
v -0.02277944 0.096 -0.02227944 1 1 1
v -0.05672056 0.096 -0.05622056 1 1 1
v -0.01575 0.096 -0.03925 1 1 1
v -0.05672056 0.109 -0.05622056 1 1 1
v -0.03975 0.096 -0.06325 1 1 1
v -0.01575 0.109 -0.03925 1 1 1
v -0.02277944 0.096 -0.05622056 1 1 1
v -0.03975 0.109 -0.06325 1 1 1
v -0.02277944 0.109 -0.05622056 1 1 1

vn 0 -1 0
vn 1 0 0
vn 0.9576361 0.2879809 0
vn 0.7071068 0.7071068 0
vn -1 0 0
vn -0.9576361 0.2879809 0
vn -0.7071068 0.7071068 0
vn -0.7093199 -0.7048866 0
vn 0 0 -1
vn 0 0.2879809 -0.9576361
vn 0 0.7071068 -0.7071068
vn 0 0 1
vn 0 0.2879809 0.9576361
vn 0 0.7071068 0.7071068
vn 0 -0.7026457 0.71154
vn 0 1 0
vn -0.4798415 0.7345095 0.4798415
vn -0.6572475 0.3688517 0.6572475
vn -0.6785983 0.7345095 0
vn 0 0.7345095 0.6785983
vn 0 0.3688517 0.9294882
vn 0.4798415 0.7345095 0.4798415
vn 0.6572475 0.3688517 0.6572475
vn 0.6785983 0.7345095 0
vn -0.9294882 0.3688517 0
vn -0.7071068 0 0.7071068
vn 0.7071068 0 0.7071068
vn -0.7071068 0 -0.7071068
vn -0.6572475 0.3688517 -0.6572475
vn -0.4798415 0.7345095 -0.4798415
vn 0 0.7345095 -0.6785983
vn 0.9294882 0.3688517 0
vn 0.7071068 0 -0.7071068
vn 0 0.3688517 -0.9294882
vn 0.4798415 0.7345095 -0.4798415
vn 0.6572475 0.3688517 -0.6572475

vt 0.59375 0.025
vt 0.59375 0.1916666
vt 0.59375 0.2145833
vt 0.59375 0.225
vt 0.59375 0.1694444

usemtl colormap

f 3/1/1 2/1/1 1/1/1
f 2/1/1 3/1/1 4/1/1
f 1/1/2 6/3/3 5/2/2
f 2/1/2 6/3/3 1/1/2
f 6/3/3 2/1/2 7/3/3
f 8/4/4 6/3/3 7/3/3
f 6/3/3 8/4/4 9/4/4
f 12/2/5 11/3/6 10/2/5
f 11/3/6 12/2/5 13/3/6
f 13/3/6 14/4/7 11/3/6
f 14/4/7 13/3/6 15/4/7
f 3/1/8 10/2/8 4/1/8
f 10/2/8 3/1/8 12/2/8
f 10/2/9 2/1/9 4/1/9
f 2/1/9 10/2/9 7/3/10
f 7/3/10 10/2/9 11/3/10
f 14/4/11 7/3/10 11/3/10
f 7/3/10 14/4/11 8/4/11
f 6/3/13 12/2/12 5/2/12
f 12/2/12 6/3/13 13/3/13
f 9/4/14 13/3/13 6/3/13
f 13/3/13 9/4/14 15/4/14
f 5/2/15 3/1/15 1/1/15
f 3/1/15 5/2/15 12/2/15
f 14/4/16 9/4/16 8/4/16
f 9/4/16 14/4/16 15/4/16
f 18/4/16 17/4/16 16/4/16
f 17/4/16 18/4/16 19/4/16
f 17/4/16 19/4/16 20/4/16
f 20/4/16 19/4/16 21/4/16
f 20/4/16 21/4/16 22/4/16
f 22/4/16 21/4/16 23/4/16
f 23/4/19 24/5/18 22/4/17
f 24/5/18 20/4/20 22/4/17
f 20/4/20 24/5/18 25/5/21
f 25/5/21 17/4/22 20/4/20
f 17/4/22 25/5/21 26/5/23
f 26/5/23 16/4/24 17/4/22
f 24/5/18 23/4/19 27/5/25
f 28/1/26 25/5/21 24/5/18
f 27/5/25 28/1/26 24/5/18
f 25/5/21 28/1/26 29/1/12
f 29/1/12 26/5/23 25/5/21
f 28/1/26 27/5/25 30/1/5
f 26/5/23 29/1/12 31/1/27
f 27/5/25 32/1/28 30/1/5
f 33/1/2 26/5/23 31/1/27
f 23/4/19 34/5/29 27/5/25
f 32/1/28 27/5/25 34/5/29
f 34/5/29 23/4/19 21/4/30
f 34/5/29 35/1/9 32/1/28
f 19/4/31 34/5/29 21/4/30
f 26/5/23 33/1/2 36/5/32
f 16/4/24 26/5/23 36/5/32
f 37/1/33 36/5/32 33/1/2
f 35/1/9 34/5/29 38/5/34
f 34/5/29 19/4/31 38/5/34
f 38/5/34 37/1/33 35/1/9
f 18/4/35 38/5/34 19/4/31
f 39/5/36 16/4/24 36/5/32
f 36/5/32 37/1/33 39/5/36
f 37/1/33 38/5/34 39/5/36
f 38/5/34 18/4/35 39/5/36
f 16/4/24 39/5/36 18/4/35
f 42/4/16 41/4/16 40/4/16
f 41/4/16 42/4/16 43/4/16
f 41/4/16 43/4/16 44/4/16
f 44/4/16 43/4/16 45/4/16
f 44/4/16 45/4/16 46/4/16
f 46/4/16 45/4/16 47/4/16
f 47/4/19 48/5/18 46/4/17
f 48/5/18 44/4/20 46/4/17
f 44/4/20 48/5/18 49/5/21
f 49/5/21 41/4/22 44/4/20
f 41/4/22 49/5/21 50/5/23
f 50/5/23 40/4/24 41/4/22
f 48/5/18 47/4/19 51/5/25
f 52/1/26 49/5/21 48/5/18
f 51/5/25 52/1/26 48/5/18
f 49/5/21 52/1/26 53/1/12
f 53/1/12 50/5/23 49/5/21
f 52/1/26 51/5/25 54/1/5
f 50/5/23 53/1/12 55/1/27
f 51/5/25 56/1/28 54/1/5
f 57/1/2 50/5/23 55/1/27
f 47/4/19 58/5/29 51/5/25
f 56/1/28 51/5/25 58/5/29
f 58/5/29 47/4/19 45/4/30
f 58/5/29 59/1/9 56/1/28
f 43/4/31 58/5/29 45/4/30
f 50/5/23 57/1/2 60/5/32
f 40/4/24 50/5/23 60/5/32
f 61/1/33 60/5/32 57/1/2
f 59/1/9 58/5/29 62/5/34
f 58/5/29 43/4/31 62/5/34
f 62/5/34 61/1/33 59/1/9
f 42/4/35 62/5/34 43/4/31
f 63/5/36 40/4/24 60/5/32
f 60/5/32 61/1/33 63/5/36
f 61/1/33 62/5/34 63/5/36
f 62/5/34 42/4/35 63/5/36
f 40/4/24 63/5/36 42/4/35
f 66/4/16 65/4/16 64/4/16
f 65/4/16 66/4/16 67/4/16
f 65/4/16 67/4/16 68/4/16
f 68/4/16 67/4/16 69/4/16
f 68/4/16 69/4/16 70/4/16
f 70/4/16 69/4/16 71/4/16
f 71/4/19 72/5/18 70/4/17
f 72/5/18 68/4/20 70/4/17
f 68/4/20 72/5/18 73/5/21
f 73/5/21 65/4/22 68/4/20
f 65/4/22 73/5/21 74/5/23
f 74/5/23 64/4/24 65/4/22
f 72/5/18 71/4/19 75/5/25
f 76/1/26 73/5/21 72/5/18
f 75/5/25 76/1/26 72/5/18
f 73/5/21 76/1/26 77/1/12
f 77/1/12 74/5/23 73/5/21
f 76/1/26 75/5/25 78/1/5
f 74/5/23 77/1/12 79/1/27
f 75/5/25 80/1/28 78/1/5
f 81/1/2 74/5/23 79/1/27
f 71/4/19 82/5/29 75/5/25
f 80/1/28 75/5/25 82/5/29
f 82/5/29 71/4/19 69/4/30
f 82/5/29 83/1/9 80/1/28
f 67/4/31 82/5/29 69/4/30
f 74/5/23 81/1/2 84/5/32
f 64/4/24 74/5/23 84/5/32
f 85/1/33 84/5/32 81/1/2
f 83/1/9 82/5/29 86/5/34
f 82/5/29 67/4/31 86/5/34
f 86/5/34 85/1/33 83/1/9
f 66/4/35 86/5/34 67/4/31
f 87/5/36 64/4/24 84/5/32
f 84/5/32 85/1/33 87/5/36
f 85/1/33 86/5/34 87/5/36
f 86/5/34 66/4/35 87/5/36
f 64/4/24 87/5/36 66/4/35
f 90/4/16 89/4/16 88/4/16
f 89/4/16 90/4/16 91/4/16
f 89/4/16 91/4/16 92/4/16
f 92/4/16 91/4/16 93/4/16
f 92/4/16 93/4/16 94/4/16
f 94/4/16 93/4/16 95/4/16
f 95/4/19 96/5/18 94/4/17
f 96/5/18 92/4/20 94/4/17
f 92/4/20 96/5/18 97/5/21
f 97/5/21 89/4/22 92/4/20
f 89/4/22 97/5/21 98/5/23
f 98/5/23 88/4/24 89/4/22
f 96/5/18 95/4/19 99/5/25
f 100/1/26 97/5/21 96/5/18
f 99/5/25 100/1/26 96/5/18
f 97/5/21 100/1/26 101/1/12
f 101/1/12 98/5/23 97/5/21
f 100/1/26 99/5/25 102/1/5
f 98/5/23 101/1/12 103/1/27
f 99/5/25 104/1/28 102/1/5
f 105/1/2 98/5/23 103/1/27
f 95/4/19 106/5/29 99/5/25
f 104/1/28 99/5/25 106/5/29
f 106/5/29 95/4/19 93/4/30
f 106/5/29 107/1/9 104/1/28
f 91/4/31 106/5/29 93/4/30
f 98/5/23 105/1/2 108/5/32
f 88/4/24 98/5/23 108/5/32
f 109/1/33 108/5/32 105/1/2
f 107/1/9 106/5/29 110/5/34
f 106/5/29 91/4/31 110/5/34
f 110/5/34 109/1/33 107/1/9
f 90/4/35 110/5/34 91/4/31
f 111/5/36 88/4/24 108/5/32
f 108/5/32 109/1/33 111/5/36
f 109/1/33 110/5/34 111/5/36
f 110/5/34 90/4/35 111/5/36
f 88/4/24 111/5/36 90/4/35

g round-hq-brick-slope-corner-outside-inverted-2x2




usemtl colormap

f 3/1/1 2/1/1 1/1/1
f 2/1/1 3/1/1 4/1/1
f 1/1/2 6/3/3 5/2/2
f 2/1/2 6/3/3 1/1/2
f 6/3/3 2/1/2 7/3/3
f 8/4/4 6/3/3 7/3/3
f 6/3/3 8/4/4 9/4/4
f 12/2/5 11/3/6 10/2/5
f 11/3/6 12/2/5 13/3/6
f 13/3/6 14/4/7 11/3/6
f 14/4/7 13/3/6 15/4/7
f 3/1/8 10/2/8 4/1/8
f 10/2/8 3/1/8 12/2/8
f 10/2/9 2/1/9 4/1/9
f 2/1/9 10/2/9 7/3/10
f 7/3/10 10/2/9 11/3/10
f 14/4/11 7/3/10 11/3/10
f 7/3/10 14/4/11 8/4/11
f 6/3/13 12/2/12 5/2/12
f 12/2/12 6/3/13 13/3/13
f 9/4/14 13/3/13 6/3/13
f 13/3/13 9/4/14 15/4/14
f 5/2/15 3/1/15 1/1/15
f 3/1/15 5/2/15 12/2/15
f 14/4/16 9/4/16 8/4/16
f 9/4/16 14/4/16 15/4/16
f 18/4/16 17/4/16 16/4/16
f 17/4/16 18/4/16 19/4/16
f 17/4/16 19/4/16 20/4/16
f 20/4/16 19/4/16 21/4/16
f 20/4/16 21/4/16 22/4/16
f 22/4/16 21/4/16 23/4/16
f 23/4/19 24/5/18 22/4/17
f 24/5/18 20/4/20 22/4/17
f 20/4/20 24/5/18 25/5/21
f 25/5/21 17/4/22 20/4/20
f 17/4/22 25/5/21 26/5/23
f 26/5/23 16/4/24 17/4/22
f 24/5/18 23/4/19 27/5/25
f 28/1/26 25/5/21 24/5/18
f 27/5/25 28/1/26 24/5/18
f 25/5/21 28/1/26 29/1/12
f 29/1/12 26/5/23 25/5/21
f 28/1/26 27/5/25 30/1/5
f 26/5/23 29/1/12 31/1/27
f 27/5/25 32/1/28 30/1/5
f 33/1/2 26/5/23 31/1/27
f 23/4/19 34/5/29 27/5/25
f 32/1/28 27/5/25 34/5/29
f 34/5/29 23/4/19 21/4/30
f 34/5/29 35/1/9 32/1/28
f 19/4/31 34/5/29 21/4/30
f 26/5/23 33/1/2 36/5/32
f 16/4/24 26/5/23 36/5/32
f 37/1/33 36/5/32 33/1/2
f 35/1/9 34/5/29 38/5/34
f 34/5/29 19/4/31 38/5/34
f 38/5/34 37/1/33 35/1/9
f 18/4/35 38/5/34 19/4/31
f 39/5/36 16/4/24 36/5/32
f 36/5/32 37/1/33 39/5/36
f 37/1/33 38/5/34 39/5/36
f 38/5/34 18/4/35 39/5/36
f 16/4/24 39/5/36 18/4/35
f 42/4/16 41/4/16 40/4/16
f 41/4/16 42/4/16 43/4/16
f 41/4/16 43/4/16 44/4/16
f 44/4/16 43/4/16 45/4/16
f 44/4/16 45/4/16 46/4/16
f 46/4/16 45/4/16 47/4/16
f 47/4/19 48/5/18 46/4/17
f 48/5/18 44/4/20 46/4/17
f 44/4/20 48/5/18 49/5/21
f 49/5/21 41/4/22 44/4/20
f 41/4/22 49/5/21 50/5/23
f 50/5/23 40/4/24 41/4/22
f 48/5/18 47/4/19 51/5/25
f 52/1/26 49/5/21 48/5/18
f 51/5/25 52/1/26 48/5/18
f 49/5/21 52/1/26 53/1/12
f 53/1/12 50/5/23 49/5/21
f 52/1/26 51/5/25 54/1/5
f 50/5/23 53/1/12 55/1/27
f 51/5/25 56/1/28 54/1/5
f 57/1/2 50/5/23 55/1/27
f 47/4/19 58/5/29 51/5/25
f 56/1/28 51/5/25 58/5/29
f 58/5/29 47/4/19 45/4/30
f 58/5/29 59/1/9 56/1/28
f 43/4/31 58/5/29 45/4/30
f 50/5/23 57/1/2 60/5/32
f 40/4/24 50/5/23 60/5/32
f 61/1/33 60/5/32 57/1/2
f 59/1/9 58/5/29 62/5/34
f 58/5/29 43/4/31 62/5/34
f 62/5/34 61/1/33 59/1/9
f 42/4/35 62/5/34 43/4/31
f 63/5/36 40/4/24 60/5/32
f 60/5/32 61/1/33 63/5/36
f 61/1/33 62/5/34 63/5/36
f 62/5/34 42/4/35 63/5/36
f 40/4/24 63/5/36 42/4/35
f 66/4/16 65/4/16 64/4/16
f 65/4/16 66/4/16 67/4/16
f 65/4/16 67/4/16 68/4/16
f 68/4/16 67/4/16 69/4/16
f 68/4/16 69/4/16 70/4/16
f 70/4/16 69/4/16 71/4/16
f 71/4/19 72/5/18 70/4/17
f 72/5/18 68/4/20 70/4/17
f 68/4/20 72/5/18 73/5/21
f 73/5/21 65/4/22 68/4/20
f 65/4/22 73/5/21 74/5/23
f 74/5/23 64/4/24 65/4/22
f 72/5/18 71/4/19 75/5/25
f 76/1/26 73/5/21 72/5/18
f 75/5/25 76/1/26 72/5/18
f 73/5/21 76/1/26 77/1/12
f 77/1/12 74/5/23 73/5/21
f 76/1/26 75/5/25 78/1/5
f 74/5/23 77/1/12 79/1/27
f 75/5/25 80/1/28 78/1/5
f 81/1/2 74/5/23 79/1/27
f 71/4/19 82/5/29 75/5/25
f 80/1/28 75/5/25 82/5/29
f 82/5/29 71/4/19 69/4/30
f 82/5/29 83/1/9 80/1/28
f 67/4/31 82/5/29 69/4/30
f 74/5/23 81/1/2 84/5/32
f 64/4/24 74/5/23 84/5/32
f 85/1/33 84/5/32 81/1/2
f 83/1/9 82/5/29 86/5/34
f 82/5/29 67/4/31 86/5/34
f 86/5/34 85/1/33 83/1/9
f 66/4/35 86/5/34 67/4/31
f 87/5/36 64/4/24 84/5/32
f 84/5/32 85/1/33 87/5/36
f 85/1/33 86/5/34 87/5/36
f 86/5/34 66/4/35 87/5/36
f 64/4/24 87/5/36 66/4/35
f 90/4/16 89/4/16 88/4/16
f 89/4/16 90/4/16 91/4/16
f 89/4/16 91/4/16 92/4/16
f 92/4/16 91/4/16 93/4/16
f 92/4/16 93/4/16 94/4/16
f 94/4/16 93/4/16 95/4/16
f 95/4/19 96/5/18 94/4/17
f 96/5/18 92/4/20 94/4/17
f 92/4/20 96/5/18 97/5/21
f 97/5/21 89/4/22 92/4/20
f 89/4/22 97/5/21 98/5/23
f 98/5/23 88/4/24 89/4/22
f 96/5/18 95/4/19 99/5/25
f 100/1/26 97/5/21 96/5/18
f 99/5/25 100/1/26 96/5/18
f 97/5/21 100/1/26 101/1/12
f 101/1/12 98/5/23 97/5/21
f 100/1/26 99/5/25 102/1/5
f 98/5/23 101/1/12 103/1/27
f 99/5/25 104/1/28 102/1/5
f 105/1/2 98/5/23 103/1/27
f 95/4/19 106/5/29 99/5/25
f 104/1/28 99/5/25 106/5/29
f 106/5/29 95/4/19 93/4/30
f 106/5/29 107/1/9 104/1/28
f 91/4/31 106/5/29 93/4/30
f 98/5/23 105/1/2 108/5/32
f 88/4/24 98/5/23 108/5/32
f 109/1/33 108/5/32 105/1/2
f 107/1/9 106/5/29 110/5/34
f 106/5/29 91/4/31 110/5/34
f 110/5/34 109/1/33 107/1/9
f 90/4/35 110/5/34 91/4/31
f 111/5/36 88/4/24 108/5/32
f 108/5/32 109/1/33 111/5/36
f 109/1/33 110/5/34 111/5/36
f 110/5/34 90/4/35 111/5/36
f 88/4/24 111/5/36 90/4/35

