# Created by Kenney (www.kenney.nl)

mtllib round-lq-brick-slope-corner-outside-2x2.mtl

g round-lq-brick-slope-corner-outside-2x2

v 0.0795 0 0.07925 1 1 1
v 0.0795 0 -0.07925 1 1 1
v -0.0795 0 0.07925 1 1 1
v -0.0795 0 -0.07925 1 1 1
v -0.0795 0.016 -0.07925 1 1 1
v -0.0795 0.016 0.07925 1 1 1
v 0.0795 0.016 0.07925 1 1 1
v 0.0795 0.096 -0.07925 1 1 1
v 0.0795 0.096 0.00025 1 1 1
v 2.030376E-15 0.096 -0.07925 1 1 1
v 2.030376E-15 0.096 0.00025 1 1 1
v 0.06375 0.114 -0.03975 1 1 1
v 0.05672056 0.114 -0.02277944 1 1 1
v 0.05672056 0.114 -0.05672056 1 1 1
v 0.03975 0.114 -0.06375 1 1 1
v 0.03975 0.114 -0.01575 1 1 1
v 0.02277944 0.114 -0.05672056 1 1 1
v 0.02277944 0.114 -0.02277944 1 1 1
v 0.01575 0.114 -0.03975 1 1 1
v 0.02277944 0.096 -0.02277944 1 1 1
v 0.03975 0.096 -0.01575 1 1 1
v 0.01575 0.096 -0.03975 1 1 1
v 0.05672056 0.096 -0.02277944 1 1 1
v 0.06375 0.096 -0.03975 1 1 1
v 0.02277944 0.096 -0.05672056 1 1 1
v 0.03975 0.096 -0.06375 1 1 1
v 0.05672056 0.096 -0.05672056 1 1 1

vn 0 -1 0
vn -1 0 0
vn 0 0 1
vn 0 1 0
vn 0 0 -1
vn 1 0 0
vn -0.7093199 0.7048866 0
vn 0 0.7026457 0.71154
vn -0.7071068 0 0.7071068
vn 0.7071068 0 0.7071068
vn -0.7071068 0 -0.7071068
vn 0.7071068 0 -0.7071068

vt 0.59375 0.025
vt 0.59375 0.05833333
vt 0.59375 0.225

usemtl colormap

f 3/1/1 2/1/1 1/1/1
f 2/1/1 3/1/1 4/1/1
f 3/1/2 5/2/2 4/1/2
f 5/2/2 3/1/2 6/2/2
f 7/2/3 3/1/3 1/1/3
f 3/1/3 7/2/3 6/2/3
f 10/3/4 9/3/4 8/3/4
f 9/3/4 10/3/4 11/3/4
f 5/2/5 2/1/5 4/1/5
f 2/1/5 5/2/5 8/3/5
f 8/3/5 5/2/5 10/3/5
f 9/3/6 2/1/6 8/3/6
f 2/1/6 9/3/6 1/1/6
f 1/1/6 9/3/6 7/2/6
f 6/2/7 10/3/7 5/2/7
f 10/3/7 6/2/7 11/3/7
f 9/3/8 6/2/8 7/2/8
f 6/2/8 9/3/8 11/3/8
f 14/3/4 13/3/4 12/3/4
f 13/3/4 14/3/4 15/3/4
f 13/3/4 15/3/4 16/3/4
f 16/3/4 15/3/4 17/3/4
f 16/3/4 17/3/4 18/3/4
f 18/3/4 17/3/4 19/3/4
f 20/1/9 16/3/3 18/3/9
f 19/3/2 20/1/9 18/3/9
f 16/3/3 20/1/9 21/1/3
f 20/1/9 19/3/2 22/1/2
f 21/1/3 13/3/10 16/3/3
f 13/3/10 21/1/3 23/1/10
f 24/1/6 13/3/10 23/1/10
f 13/3/10 24/1/6 12/3/6
f 17/3/11 22/1/2 19/3/2
f 22/1/2 17/3/11 25/1/11
f 17/3/11 26/1/5 25/1/11
f 26/1/5 17/3/11 15/3/5
f 27/1/12 12/3/6 24/1/6
f 15/3/5 27/1/12 26/1/5
f 12/3/6 27/1/12 14/3/12
f 27/1/12 15/3/5 14/3/12

g round-lq-brick-slope-corner-outside-2x2




usemtl colormap

f 3/1/1 2/1/1 1/1/1
f 2/1/1 3/1/1 4/1/1
f 3/1/2 5/2/2 4/1/2
f 5/2/2 3/1/2 6/2/2
f 7/2/3 3/1/3 1/1/3
f 3/1/3 7/2/3 6/2/3
f 10/3/4 9/3/4 8/3/4
f 9/3/4 10/3/4 11/3/4
f 5/2/5 2/1/5 4/1/5
f 2/1/5 5/2/5 8/3/5
f 8/3/5 5/2/5 10/3/5
f 9/3/6 2/1/6 8/3/6
f 2/1/6 9/3/6 1/1/6
f 1/1/6 9/3/6 7/2/6
f 6/2/7 10/3/7 5/2/7
f 10/3/7 6/2/7 11/3/7
f 9/3/8 6/2/8 7/2/8
f 6/2/8 9/3/8 11/3/8
f 14/3/4 13/3/4 12/3/4
f 13/3/4 14/3/4 15/3/4
f 13/3/4 15/3/4 16/3/4
f 16/3/4 15/3/4 17/3/4
f 16/3/4 17/3/4 18/3/4
f 18/3/4 17/3/4 19/3/4
f 20/1/9 16/3/3 18/3/9
f 19/3/2 20/1/9 18/3/9
f 16/3/3 20/1/9 21/1/3
f 20/1/9 19/3/2 22/1/2
f 21/1/3 13/3/10 16/3/3
f 13/3/10 21/1/3 23/1/10
f 24/1/6 13/3/10 23/1/10
f 13/3/10 24/1/6 12/3/6
f 17/3/11 22/1/2 19/3/2
f 22/1/2 17/3/11 25/1/11
f 17/3/11 26/1/5 25/1/11
f 26/1/5 17/3/11 15/3/5
f 27/1/12 12/3/6 24/1/6
f 15/3/5 27/1/12 26/1/5
f 12/3/6 27/1/12 14/3/12
f 27/1/12 15/3/5 14/3/12

