# Created by Kenney (www.kenney.nl)

mtllib round-lq-brick-1x1.mtl

g round-lq-brick-1x1

v 0.03975 0.096 -0.0395 1 1 1
v 0.03975 0 -0.0395 1 1 1
v 0.03975 0.096 0.0395 1 1 1
v 0.03975 0 0.0395 1 1 1
v -0.03975 0 -0.0395 1 1 1
v -0.03975 0.096 -0.0395 1 1 1
v -0.03975 0 0.0395 1 1 1
v -0.03975 0.096 0.0395 1 1 1
v 0.024 0.114 1.443823E-15 1 1 1
v 0.01697056 0.114 0.01697056 1 1 1
v 0.01697056 0.114 -0.01697056 1 1 1
v 7.219114E-16 0.114 -0.024 1 1 1
v 0 0.114 0.024 1 1 1
v -0.01697056 0.114 -0.01697056 1 1 1
v -0.01697056 0.114 0.01697056 1 1 1
v -0.024 0.114 0 1 1 1
v -0.01697056 0.096 0.01697056 1 1 1
v 0 0.096 0.024 1 1 1
v -0.024 0.096 0 1 1 1
v 0.01697056 0.096 0.01697056 1 1 1
v 0.024 0.096 1.443823E-15 1 1 1
v -0.01697056 0.096 -0.01697056 1 1 1
v 7.219114E-16 0.096 -0.024 1 1 1
v 0.01697056 0.096 -0.01697056 1 1 1

vn 1 0 0
vn -1 0 0
vn 0 0 1
vn 0 1 0
vn 0 -1 0
vn 0 0 -1
vn -0.7071068 0 0.7071068
vn 0.7071068 0 0.7071068
vn -0.7071068 0 -0.7071068
vn 0.7071068 0 -0.7071068

vt 0.59375 0.225
vt 0.59375 0.025

usemtl colormap

f 3/1/1 2/2/1 1/1/1
f 2/2/1 3/1/1 4/2/1
f 7/2/2 6/1/2 5/2/2
f 6/1/2 7/2/2 8/1/2
f 3/1/3 7/2/3 4/2/3
f 7/2/3 3/1/3 8/1/3
f 6/1/4 3/1/4 1/1/4
f 3/1/4 6/1/4 8/1/4
f 7/2/5 2/2/5 4/2/5
f 2/2/5 7/2/5 5/2/5
f 6/1/6 2/2/6 5/2/6
f 2/2/6 6/1/6 1/1/6
f 11/1/4 10/1/4 9/1/4
f 10/1/4 11/1/4 12/1/4
f 10/1/4 12/1/4 13/1/4
f 13/1/4 12/1/4 14/1/4
f 13/1/4 14/1/4 15/1/4
f 15/1/4 14/1/4 16/1/4
f 17/2/7 13/1/3 15/1/7
f 16/1/2 17/2/7 15/1/7
f 13/1/3 17/2/7 18/2/3
f 17/2/7 16/1/2 19/2/2
f 18/2/3 10/1/8 13/1/3
f 10/1/8 18/2/3 20/2/8
f 21/2/1 10/1/8 20/2/8
f 10/1/8 21/2/1 9/1/1
f 14/1/9 19/2/2 16/1/2
f 19/2/2 14/1/9 22/2/9
f 14/1/9 23/2/6 22/2/9
f 23/2/6 14/1/9 12/1/6
f 24/2/10 9/1/1 21/2/1
f 12/1/6 24/2/10 23/2/6
f 9/1/1 24/2/10 11/1/10
f 24/2/10 12/1/6 11/1/10

g round-lq-brick-1x1




usemtl colormap

f 3/1/1 2/2/1 1/1/1
f 2/2/1 3/1/1 4/2/1
f 7/2/2 6/1/2 5/2/2
f 6/1/2 7/2/2 8/1/2
f 3/1/3 7/2/3 4/2/3
f 7/2/3 3/1/3 8/1/3
f 6/1/4 3/1/4 1/1/4
f 3/1/4 6/1/4 8/1/4
f 7/2/5 2/2/5 4/2/5
f 2/2/5 7/2/5 5/2/5
f 6/1/6 2/2/6 5/2/6
f 2/2/6 6/1/6 1/1/6
f 11/1/4 10/1/4 9/1/4
f 10/1/4 11/1/4 12/1/4
f 10/1/4 12/1/4 13/1/4
f 13/1/4 12/1/4 14/1/4
f 13/1/4 14/1/4 15/1/4
f 15/1/4 14/1/4 16/1/4
f 17/2/7 13/1/3 15/1/7
f 16/1/2 17/2/7 15/1/7
f 13/1/3 17/2/7 18/2/3
f 17/2/7 16/1/2 19/2/2
f 18/2/3 10/1/8 13/1/3
f 10/1/8 18/2/3 20/2/8
f 21/2/1 10/1/8 20/2/8
f 10/1/8 21/2/1 9/1/1
f 14/1/9 19/2/2 16/1/2
f 19/2/2 14/1/9 22/2/9
f 14/1/9 23/2/6 22/2/9
f 23/2/6 14/1/9 12/1/6
f 24/2/10 9/1/1 21/2/1
f 12/1/6 24/2/10 23/2/6
f 9/1/1 24/2/10 11/1/10
f 24/2/10 12/1/6 11/1/10

