# Created by Kenney (www.kenney.nl)

mtllib round-hq-brick-slope-corner-outside-2x2.mtl

g round-hq-brick-slope-corner-outside-2x2

v 0.0795 0 0.07925 1 1 1
v 0.0795 0 -0.07925 1 1 1
v -0.0795 0 0.07925 1 1 1
v -0.0795 0 -0.07925 1 1 1
v -0.0795 0.016 -0.07925 1 1 1
v -0.0795 0.016 0.07925 1 1 1
v 0.0795 0.016 0.07925 1 1 1
v 0.0795 0.091 -0.07925 1 1 1
v -0.00496875 0.091 -0.07925 1 1 1
v 2.165734E-15 0.096 -0.07425 1 1 1
v 0.0745 0.096 -0.07425 1 1 1
v 0.0795 0.091 0.0051875 1 1 1
v 0.0745 0.096 0.00025 1 1 1
v 2.165734E-15 0.096 0.00025 1 1 1
v 0.05833804 0.114 -0.03975 1 1 1
v 0.05289373 0.114 -0.02660627 1 1 1
v 0.05289373 0.114 -0.05289373 1 1 1
v 0.03975 0.114 -0.05833804 1 1 1
v 0.03975 0.114 -0.02116196 1 1 1
v 0.02660627 0.114 -0.05289373 1 1 1
v 0.02660627 0.114 -0.02660627 1 1 1
v 0.02116196 0.114 -0.03975 1 1 1
v 0.02277944 0.109 -0.02277944 1 1 1
v 0.03975 0.109 -0.01575 1 1 1
v 0.05672056 0.109 -0.02277944 1 1 1
v 0.01575 0.109 -0.03975 1 1 1
v 0.02277944 0.096 -0.02277944 1 1 1
v 0.03975 0.096 -0.01575 1 1 1
v 0.01575 0.096 -0.03975 1 1 1
v 0.05672056 0.096 -0.02277944 1 1 1
v 0.02277944 0.096 -0.05672056 1 1 1
v 0.06375 0.096 -0.03975 1 1 1
v 0.02277944 0.109 -0.05672056 1 1 1
v 0.03975 0.096 -0.06375 1 1 1
v 0.06375 0.109 -0.03975 1 1 1
v 0.05672056 0.096 -0.05672056 1 1 1
v 0.03975 0.109 -0.06375 1 1 1
v 0.05672056 0.109 -0.05672056 1 1 1

vn 0 -1 0
vn -1 0 0
vn 0 0 1
vn 0 0 -1
vn 0 0.2879809 -0.9576361
vn 0 0.2181942 -0.9759054
vn 0 0.7071068 -0.7071068
vn 1 0 0
vn 0.9757451 0.2189097 0
vn 0.9576361 0.2879809 0
vn 0.7071068 0.7071068 0
vn 0 1 0
vn -0.7093199 0.7048866 0
vn 0 0.7026457 0.71154
vn -0.4798415 0.7345095 0.4798415
vn -0.6572475 0.3688517 0.6572475
vn -0.6785983 0.7345095 0
vn 0 0.7345095 0.6785983
vn 0 0.3688517 0.9294882
vn 0.4798415 0.7345095 0.4798415
vn 0.6572475 0.3688517 0.6572475
vn 0.6785983 0.7345095 0
vn -0.9294882 0.3688517 0
vn -0.7071068 0 0.7071068
vn 0.7071068 0 0.7071068
vn -0.7071068 0 -0.7071068
vn -0.6572475 0.3688517 -0.6572475
vn -0.4798415 0.7345095 -0.4798415
vn 0 0.7345095 -0.6785983
vn 0.9294882 0.3688517 0
vn 0.7071068 0 -0.7071068
vn 0 0.3688517 -0.9294882
vn 0.4798415 0.7345095 -0.4798415
vn 0.6572475 0.3688517 -0.6572475

vt 0.59375 0.025
vt 0.59375 0.05833333
vt 0.59375 0.2145833
vt 0.59375 0.225
vt 0.59375 0.1694444

usemtl colormap

f 3/1/1 2/1/1 1/1/1
f 2/1/1 3/1/1 4/1/1
f 3/1/2 5/2/2 4/1/2
f 5/2/2 3/1/2 6/2/2
f 7/2/3 3/1/3 1/1/3
f 3/1/3 7/2/3 6/2/3
f 5/2/4 2/1/4 4/1/4
f 2/1/4 5/2/4 8/3/5
f 8/3/5 5/2/4 9/3/6
f 10/4/7 8/3/5 9/3/6
f 8/3/5 10/4/7 11/4/7
f 1/1/8 12/3/9 7/2/8
f 2/1/8 12/3/9 1/1/8
f 12/3/9 2/1/8 8/3/10
f 11/4/11 12/3/9 8/3/10
f 12/3/9 11/4/11 13/4/11
f 10/4/12 13/4/12 11/4/12
f 13/4/12 10/4/12 14/4/12
f 6/2/13 9/3/13 5/2/13
f 9/3/13 6/2/13 10/4/13
f 10/4/13 6/2/13 14/4/13
f 12/3/14 6/2/14 7/2/14
f 6/2/14 12/3/14 14/4/14
f 14/4/14 12/3/14 13/4/14
f 17/4/12 16/4/12 15/4/12
f 16/4/12 17/4/12 18/4/12
f 16/4/12 18/4/12 19/4/12
f 19/4/12 18/4/12 20/4/12
f 19/4/12 20/4/12 21/4/12
f 21/4/12 20/4/12 22/4/12
f 22/4/17 23/5/16 21/4/15
f 23/5/16 19/4/18 21/4/15
f 19/4/18 23/5/16 24/5/19
f 24/5/19 16/4/20 19/4/18
f 16/4/20 24/5/19 25/5/21
f 25/5/21 15/4/22 16/4/20
f 23/5/16 22/4/17 26/5/23
f 27/1/24 24/5/19 23/5/16
f 26/5/23 27/1/24 23/5/16
f 24/5/19 27/1/24 28/1/3
f 28/1/3 25/5/21 24/5/19
f 27/1/24 26/5/23 29/1/2
f 25/5/21 28/1/3 30/1/25
f 26/5/23 31/1/26 29/1/2
f 32/1/8 25/5/21 30/1/25
f 22/4/17 33/5/27 26/5/23
f 31/1/26 26/5/23 33/5/27
f 33/5/27 22/4/17 20/4/28
f 33/5/27 34/1/4 31/1/26
f 18/4/29 33/5/27 20/4/28
f 25/5/21 32/1/8 35/5/30
f 15/4/22 25/5/21 35/5/30
f 36/1/31 35/5/30 32/1/8
f 34/1/4 33/5/27 37/5/32
f 33/5/27 18/4/29 37/5/32
f 37/5/32 36/1/31 34/1/4
f 17/4/33 37/5/32 18/4/29
f 38/5/34 15/4/22 35/5/30
f 35/5/30 36/1/31 38/5/34
f 36/1/31 37/5/32 38/5/34
f 37/5/32 17/4/33 38/5/34
f 15/4/22 38/5/34 17/4/33

g round-hq-brick-slope-corner-outside-2x2




usemtl colormap

f 3/1/1 2/1/1 1/1/1
f 2/1/1 3/1/1 4/1/1
f 3/1/2 5/2/2 4/1/2
f 5/2/2 3/1/2 6/2/2
f 7/2/3 3/1/3 1/1/3
f 3/1/3 7/2/3 6/2/3
f 5/2/4 2/1/4 4/1/4
f 2/1/4 5/2/4 8/3/5
f 8/3/5 5/2/4 9/3/6
f 10/4/7 8/3/5 9/3/6
f 8/3/5 10/4/7 11/4/7
f 1/1/8 12/3/9 7/2/8
f 2/1/8 12/3/9 1/1/8
f 12/3/9 2/1/8 8/3/10
f 11/4/11 12/3/9 8/3/10
f 12/3/9 11/4/11 13/4/11
f 10/4/12 13/4/12 11/4/12
f 13/4/12 10/4/12 14/4/12
f 6/2/13 9/3/13 5/2/13
f 9/3/13 6/2/13 10/4/13
f 10/4/13 6/2/13 14/4/13
f 12/3/14 6/2/14 7/2/14
f 6/2/14 12/3/14 14/4/14
f 14/4/14 12/3/14 13/4/14
f 17/4/12 16/4/12 15/4/12
f 16/4/12 17/4/12 18/4/12
f 16/4/12 18/4/12 19/4/12
f 19/4/12 18/4/12 20/4/12
f 19/4/12 20/4/12 21/4/12
f 21/4/12 20/4/12 22/4/12
f 22/4/17 23/5/16 21/4/15
f 23/5/16 19/4/18 21/4/15
f 19/4/18 23/5/16 24/5/19
f 24/5/19 16/4/20 19/4/18
f 16/4/20 24/5/19 25/5/21
f 25/5/21 15/4/22 16/4/20
f 23/5/16 22/4/17 26/5/23
f 27/1/24 24/5/19 23/5/16
f 26/5/23 27/1/24 23/5/16
f 24/5/19 27/1/24 28/1/3
f 28/1/3 25/5/21 24/5/19
f 27/1/24 26/5/23 29/1/2
f 25/5/21 28/1/3 30/1/25
f 26/5/23 31/1/26 29/1/2
f 32/1/8 25/5/21 30/1/25
f 22/4/17 33/5/27 26/5/23
f 31/1/26 26/5/23 33/5/27
f 33/5/27 22/4/17 20/4/28
f 33/5/27 34/1/4 31/1/26
f 18/4/29 33/5/27 20/4/28
f 25/5/21 32/1/8 35/5/30
f 15/4/22 25/5/21 35/5/30
f 36/1/31 35/5/30 32/1/8
f 34/1/4 33/5/27 37/5/32
f 33/5/27 18/4/29 37/5/32
f 37/5/32 36/1/31 34/1/4
f 17/4/33 37/5/32 18/4/29
f 38/5/34 15/4/22 35/5/30
f 35/5/30 36/1/31 38/5/34
f 36/1/31 37/5/32 38/5/34
f 37/5/32 17/4/33 38/5/34
f 15/4/22 38/5/34 17/4/33

