# Created by Kenney (www.kenney.nl)

mtllib square-lq-brick-slope-corner-inside-2x2.mtl

g square-lq-brick-slope-corner-inside-2x2

v -0.0795 0.016 0.0795 1 1 1
v 2.255973E-17 0.096 3.609557E-15 1 1 1
v -9.24949E-16 0.096 0.0795 1 1 1
v -0.0795 0.096 2.52669E-15 1 1 1
v -0.0795 0 -0.0795 1 1 1
v 0.0795 0 -0.0795 1 1 1
v -0.0795 0.096 -0.0795 1 1 1
v 0.0795 0.096 -0.0795 1 1 1
v 0.0795 0 0.0795 1 1 1
v -0.0795 0 0.0795 1 1 1
v 0.0795 0.096 0.0795 1 1 1
v 0.01575 0.096 0.015 1 1 1
v 0.06375 0.096 0.015 1 1 1
v 0.01575 0.114 0.015 1 1 1
v 0.06375 0.114 0.015 1 1 1
v 0.01575 0.096 0.063 1 1 1
v 0.01575 0.114 0.063 1 1 1
v 0.06375 0.114 0.063 1 1 1
v 0.06375 0.096 0.063 1 1 1
v -0.06375 0.096 -0.064 1 1 1
v -0.01575 0.096 -0.064 1 1 1
v -0.06375 0.114 -0.064 1 1 1
v -0.01575 0.114 -0.064 1 1 1
v -0.06375 0.096 -0.016 1 1 1
v -0.06375 0.114 -0.016 1 1 1
v -0.01575 0.114 -0.016 1 1 1
v -0.01575 0.096 -0.016 1 1 1
v 0.01575 0.096 -0.064 1 1 1
v 0.06375 0.096 -0.064 1 1 1
v 0.01575 0.114 -0.064 1 1 1
v 0.06375 0.114 -0.064 1 1 1
v 0.01575 0.096 -0.016 1 1 1
v 0.01575 0.114 -0.016 1 1 1
v 0.06375 0.114 -0.016 1 1 1
v 0.06375 0.096 -0.016 1 1 1

vn -0.7093199 0.7048866 0
vn 0 0.7048866 0.7093199
vn 0 0 -1
vn 0 0 1
vn 0 -1 0
vn -1 0 0
vn 1 0 0
vn 0 1 0

vt 0.59375 0.05833333
vt 0.59375 0.225
vt 0.59375 0.025

usemtl colormap

f 3/2/1 2/2/1 1/1/1
f 4/2/2 1/1/2 2/2/2
f 7/2/3 6/3/3 5/3/3
f 6/3/3 7/2/3 8/2/3
f 11/2/4 10/3/4 9/3/4
f 10/3/4 11/2/4 1/1/4
f 1/1/4 11/2/4 3/2/4
f 9/3/5 5/3/5 6/3/5
f 5/3/5 9/3/5 10/3/5
f 10/3/6 7/2/6 5/3/6
f 7/2/6 10/3/6 4/2/6
f 4/2/6 10/3/6 1/1/6
f 11/2/7 6/3/7 8/2/7
f 6/3/7 11/2/7 9/3/7
f 7/2/8 11/2/8 8/2/8
f 11/2/8 7/2/8 2/2/8
f 2/2/8 7/2/8 4/2/8
f 3/2/8 11/2/8 2/2/8
f 14/2/3 13/3/3 12/3/3
f 13/3/3 14/2/3 15/2/3
f 16/3/6 14/2/6 12/3/6
f 14/2/6 16/3/6 17/2/6
f 18/2/7 13/3/7 15/2/7
f 13/3/7 18/2/7 19/3/7
f 18/2/4 16/3/4 19/3/4
f 16/3/4 18/2/4 17/2/4
f 14/2/8 18/2/8 15/2/8
f 18/2/8 14/2/8 17/2/8
f 22/2/3 21/3/3 20/3/3
f 21/3/3 22/2/3 23/2/3
f 24/3/6 22/2/6 20/3/6
f 22/2/6 24/3/6 25/2/6
f 26/2/7 21/3/7 23/2/7
f 21/3/7 26/2/7 27/3/7
f 26/2/4 24/3/4 27/3/4
f 24/3/4 26/2/4 25/2/4
f 22/2/8 26/2/8 23/2/8
f 26/2/8 22/2/8 25/2/8
f 30/2/3 29/3/3 28/3/3
f 29/3/3 30/2/3 31/2/3
f 32/3/6 30/2/6 28/3/6
f 30/2/6 32/3/6 33/2/6
f 34/2/7 29/3/7 31/2/7
f 29/3/7 34/2/7 35/3/7
f 34/2/4 32/3/4 35/3/4
f 32/3/4 34/2/4 33/2/4
f 30/2/8 34/2/8 31/2/8
f 34/2/8 30/2/8 33/2/8

g square-lq-brick-slope-corner-inside-2x2




usemtl colormap

f 3/2/1 2/2/1 1/1/1
f 4/2/2 1/1/2 2/2/2
f 7/2/3 6/3/3 5/3/3
f 6/3/3 7/2/3 8/2/3
f 11/2/4 10/3/4 9/3/4
f 10/3/4 11/2/4 1/1/4
f 1/1/4 11/2/4 3/2/4
f 9/3/5 5/3/5 6/3/5
f 5/3/5 9/3/5 10/3/5
f 10/3/6 7/2/6 5/3/6
f 7/2/6 10/3/6 4/2/6
f 4/2/6 10/3/6 1/1/6
f 11/2/7 6/3/7 8/2/7
f 6/3/7 11/2/7 9/3/7
f 7/2/8 11/2/8 8/2/8
f 11/2/8 7/2/8 2/2/8
f 2/2/8 7/2/8 4/2/8
f 3/2/8 11/2/8 2/2/8
f 14/2/3 13/3/3 12/3/3
f 13/3/3 14/2/3 15/2/3
f 16/3/6 14/2/6 12/3/6
f 14/2/6 16/3/6 17/2/6
f 18/2/7 13/3/7 15/2/7
f 13/3/7 18/2/7 19/3/7
f 18/2/4 16/3/4 19/3/4
f 16/3/4 18/2/4 17/2/4
f 14/2/8 18/2/8 15/2/8
f 18/2/8 14/2/8 17/2/8
f 22/2/3 21/3/3 20/3/3
f 21/3/3 22/2/3 23/2/3
f 24/3/6 22/2/6 20/3/6
f 22/2/6 24/3/6 25/2/6
f 26/2/7 21/3/7 23/2/7
f 21/3/7 26/2/7 27/3/7
f 26/2/4 24/3/4 27/3/4
f 24/3/4 26/2/4 25/2/4
f 22/2/8 26/2/8 23/2/8
f 26/2/8 22/2/8 25/2/8
f 30/2/3 29/3/3 28/3/3
f 29/3/3 30/2/3 31/2/3
f 32/3/6 30/2/6 28/3/6
f 30/2/6 32/3/6 33/2/6
f 34/2/7 29/3/7 31/2/7
f 29/3/7 34/2/7 35/3/7
f 34/2/4 32/3/4 35/3/4
f 32/3/4 34/2/4 33/2/4
f 30/2/8 34/2/8 31/2/8
f 34/2/8 30/2/8 33/2/8

