# Created by Kenney (www.kenney.nl)

mtllib square-hq-brick-slope-corner-outside-2x2.mtl

g square-hq-brick-slope-corner-outside-2x2

v 0.0795 0 0.07925 1 1 1
v 0.0795 0 -0.07925 1 1 1
v -0.0795 0 0.07925 1 1 1
v -0.0795 0 -0.07925 1 1 1
v -0.0795 0.016 -0.07925 1 1 1
v -0.0795 0.016 0.07925 1 1 1
v 0.0795 0.016 0.07925 1 1 1
v 0.0795 0.091 -0.07925 1 1 1
v -0.00496875 0.091 -0.07925 1 1 1
v 2.165734E-15 0.096 -0.07425 1 1 1
v 0.0745 0.096 -0.07425 1 1 1
v 0.0795 0.091 0.0051875 1 1 1
v 0.0745 0.096 0.00025 1 1 1
v 2.165734E-15 0.096 0.00025 1 1 1
v 0.01575 0.096 -0.06375 1 1 1
v 0.06375 0.096 -0.06375 1 1 1
v 0.01575 0.109 -0.06375 1 1 1
v 0.06375 0.109 -0.06375 1 1 1
v 0.02075 0.114 -0.05875 1 1 1
v 0.05875 0.114 -0.05875 1 1 1
v 0.06375 0.096 -0.01575 1 1 1
v 0.06375 0.109 -0.01575 1 1 1
v 0.05875 0.114 -0.02075 1 1 1
v 0.02075 0.114 -0.02075 1 1 1
v 0.01575 0.109 -0.01575 1 1 1
v 0.01575 0.096 -0.01575 1 1 1

vn 0 -1 0
vn -1 0 0
vn 0 0 1
vn 0 0 -1
vn 0 0.2879809 -0.9576361
vn 0 0.2181942 -0.9759054
vn 0 0.7071068 -0.7071068
vn 1 0 0
vn 0.9757451 0.2189097 0
vn 0.9576361 0.2879809 0
vn 0.7071068 0.7071068 0
vn 0 1 0
vn -0.7093199 0.7048866 0
vn 0 0.7026457 0.71154
vn -0.7071068 0.7071068 0
vn -0.9576361 0.2879809 0
vn 0 0.7071068 0.7071068
vn 0 0.2879809 0.9576361

vt 0.59375 0.025
vt 0.59375 0.05833333
vt 0.59375 0.2145833
vt 0.59375 0.225
vt 0.59375 0.1694444

usemtl colormap

f 3/1/1 2/1/1 1/1/1
f 2/1/1 3/1/1 4/1/1
f 3/1/2 5/2/2 4/1/2
f 5/2/2 3/1/2 6/2/2
f 7/2/3 3/1/3 1/1/3
f 3/1/3 7/2/3 6/2/3
f 5/2/4 2/1/4 4/1/4
f 2/1/4 5/2/4 8/3/5
f 8/3/5 5/2/4 9/3/6
f 10/4/7 8/3/5 9/3/6
f 8/3/5 10/4/7 11/4/7
f 1/1/8 12/3/9 7/2/8
f 2/1/8 12/3/9 1/1/8
f 12/3/9 2/1/8 8/3/10
f 11/4/11 12/3/9 8/3/10
f 12/3/9 11/4/11 13/4/11
f 10/4/12 13/4/12 11/4/12
f 13/4/12 10/4/12 14/4/12
f 6/2/13 9/3/13 5/2/13
f 9/3/13 6/2/13 10/4/13
f 10/4/13 6/2/13 14/4/13
f 12/3/14 6/2/14 7/2/14
f 6/2/14 12/3/14 14/4/14
f 14/4/14 12/3/14 13/4/14
f 17/5/5 16/1/4 15/1/4
f 16/1/4 17/5/5 18/5/5
f 19/4/7 18/5/5 17/5/5
f 18/5/5 19/4/7 20/4/7
f 16/1/8 22/5/10 21/1/8
f 22/5/10 16/1/8 18/5/10
f 20/4/11 22/5/10 18/5/10
f 22/5/10 20/4/11 23/4/11
f 19/4/12 23/4/12 20/4/12
f 23/4/12 19/4/12 24/4/12
f 19/4/15 25/5/16 24/4/15
f 25/5/16 19/4/15 17/5/16
f 17/5/16 26/1/2 25/5/16
f 26/1/2 17/5/16 15/1/2
f 25/5/18 23/4/17 24/4/17
f 23/4/17 25/5/18 22/5/18
f 26/1/3 22/5/18 25/5/18
f 22/5/18 26/1/3 21/1/3

g square-hq-brick-slope-corner-outside-2x2




usemtl colormap

f 3/1/1 2/1/1 1/1/1
f 2/1/1 3/1/1 4/1/1
f 3/1/2 5/2/2 4/1/2
f 5/2/2 3/1/2 6/2/2
f 7/2/3 3/1/3 1/1/3
f 3/1/3 7/2/3 6/2/3
f 5/2/4 2/1/4 4/1/4
f 2/1/4 5/2/4 8/3/5
f 8/3/5 5/2/4 9/3/6
f 10/4/7 8/3/5 9/3/6
f 8/3/5 10/4/7 11/4/7
f 1/1/8 12/3/9 7/2/8
f 2/1/8 12/3/9 1/1/8
f 12/3/9 2/1/8 8/3/10
f 11/4/11 12/3/9 8/3/10
f 12/3/9 11/4/11 13/4/11
f 10/4/12 13/4/12 11/4/12
f 13/4/12 10/4/12 14/4/12
f 6/2/13 9/3/13 5/2/13
f 9/3/13 6/2/13 10/4/13
f 10/4/13 6/2/13 14/4/13
f 12/3/14 6/2/14 7/2/14
f 6/2/14 12/3/14 14/4/14
f 14/4/14 12/3/14 13/4/14
f 17/5/5 16/1/4 15/1/4
f 16/1/4 17/5/5 18/5/5
f 19/4/7 18/5/5 17/5/5
f 18/5/5 19/4/7 20/4/7
f 16/1/8 22/5/10 21/1/8
f 22/5/10 16/1/8 18/5/10
f 20/4/11 22/5/10 18/5/10
f 22/5/10 20/4/11 23/4/11
f 19/4/12 23/4/12 20/4/12
f 23/4/12 19/4/12 24/4/12
f 19/4/15 25/5/16 24/4/15
f 25/5/16 19/4/15 17/5/16
f 17/5/16 26/1/2 25/5/16
f 26/1/2 17/5/16 15/1/2
f 25/5/18 23/4/17 24/4/17
f 23/4/17 25/5/18 22/5/18
f 26/1/3 22/5/18 25/5/18
f 22/5/18 26/1/3 21/1/3

