# Created by Kenney (www.kenney.nl)

mtllib square-hq-plate-1x1-round.mtl

g square-hq-plate-1x1-round

v 0.02892608 0 0 1 1 1
v 0.02045383 0 -0.02045383 1 1 1
v 0.02045383 0 0.02045383 1 1 1
v 0 0 0.02892608 1 1 1
v 0 0 -0.02892608 1 1 1
v -0.02045383 0 0.02045383 1 1 1
v -0.02045383 0 -0.02045383 1 1 1
v -0.02892608 0 0 1 1 1
v 0.03433804 0.032 0 1 1 1
v 0.02428066 0.032 0.02428066 1 1 1
v 0.02428066 0.032 -0.02428066 1 1 1
v 0 0.032 -0.03433804 1 1 1
v 0 0.032 0.03433804 1 1 1
v -0.02428066 0.032 -0.02428066 1 1 1
v -0.02428066 0.032 0.02428066 1 1 1
v -0.03433804 0.032 0 1 1 1
v 0 0.027 0.03975 1 1 1
v -0.0281075 0.027 0.0281075 1 1 1
v 0.0281075 0.027 0.0281075 1 1 1
v -0.0281075 0.016 0.0281075 1 1 1
v 0 0.016 0.03975 1 1 1
v 0.0281075 0.016 0.0281075 1 1 1
v 0.03975 0.016 0 1 1 1
v -0.03975 0.027 0 1 1 1
v -0.0281075 0.027 -0.0281075 1 1 1
v -0.03975 0.016 0 1 1 1
v -0.0281075 0.016 -0.0281075 1 1 1
v 0 0.016 -0.03975 1 1 1
v 0.03975 0.027 0 1 1 1
v 0.0281075 0.016 -0.0281075 1 1 1
v 0 0.027 -0.03975 1 1 1
v 0.0281075 0.027 -0.0281075 1 1 1
v -0.02045383 0.016 0.02045383 1 1 1
v 0 0.016 0.02892608 1 1 1
v -0.02892608 0.016 0 1 1 1
v 0.02045383 0.016 0.02045383 1 1 1
v 0.02892608 0.016 0 1 1 1
v -0.02045383 0.016 -0.02045383 1 1 1
v 0 0.016 -0.02892608 1 1 1
v 0.02045383 0.016 -0.02045383 1 1 1
v 0.01933804 0.05 -0.0005 1 1 1
v 0.01389373 0.05 0.01264373 1 1 1
v 0.01389373 0.05 -0.01364373 1 1 1
v 0.00075 0.05 -0.01908804 1 1 1
v 0.00075 0.05 0.01808804 1 1 1
v -0.01239373 0.05 -0.01364373 1 1 1
v -0.01239373 0.05 0.01264373 1 1 1
v -0.01783804 0.05 -0.0005 1 1 1
v -0.01622056 0.045 0.01647056 1 1 1
v 0.00075 0.045 0.0235 1 1 1
v 0.01772056 0.045 0.01647056 1 1 1
v -0.02325 0.045 -0.0005 1 1 1
v -0.01622056 0.032 0.01647056 1 1 1
v 0.00075 0.032 0.0235 1 1 1
v -0.02325 0.032 -0.0005 1 1 1
v 0.01772056 0.032 0.01647056 1 1 1
v -0.01622056 0.032 -0.01747056 1 1 1
v 0.02475 0.032 -0.0005 1 1 1
v -0.01622056 0.045 -0.01747056 1 1 1
v 0.00075 0.032 -0.0245 1 1 1
v 0.02475 0.045 -0.0005 1 1 1
v 0.01772056 0.032 -0.01747056 1 1 1
v 0.00075 0.045 -0.0245 1 1 1
v 0.01772056 0.045 -0.01747056 1 1 1

vn 0 -1 0
vn 0 1 0
vn 0 0.7345095 0.6785983
vn 0 0.3688517 0.9294882
vn -0.4798415 0.7345095 0.4798415
vn 0.4798415 0.7345095 0.4798415
vn -0.6572475 0.3688517 0.6572475
vn -0.6785983 0.7345095 0
vn 0.6572475 0.3688517 0.6572475
vn 0.6785983 0.7345095 0
vn -0.7071068 0 0.7071068
vn 0 0 1
vn 0.7071068 0 0.7071068
vn 1 0 0
vn -0.9294882 0.3688517 0
vn -0.6572475 0.3688517 -0.6572475
vn -1 0 0
vn -0.4798415 0.7345095 -0.4798415
vn -0.7071068 0 -0.7071068
vn 0 0.7345095 -0.6785983
vn 0 0 -1
vn 0.9294882 0.3688517 0
vn 0.7071068 0 -0.7071068
vn 0 0.3688517 -0.9294882
vn 0.4798415 0.7345095 -0.4798415
vn 0.6572475 0.3688517 -0.6572475

vt 0.59375 0.025
vt 0.59375 0.225
vt 0.59375 0.19375
vt 0.59375 0.125
vt 0.59375 0.1694444

usemtl colormap

f 3/1/1 2/1/1 1/1/1
f 2/1/1 3/1/1 4/1/1
f 2/1/1 4/1/1 5/1/1
f 5/1/1 4/1/1 6/1/1
f 5/1/1 6/1/1 7/1/1
f 7/1/1 6/1/1 8/1/1
f 11/2/2 10/2/2 9/2/2
f 10/2/2 11/2/2 12/2/2
f 10/2/2 12/2/2 13/2/2
f 13/2/2 12/2/2 14/2/2
f 13/2/2 14/2/2 15/2/2
f 15/2/2 14/2/2 16/2/2
f 15/2/5 17/3/4 13/2/3
f 17/3/4 10/2/6 13/2/3
f 17/3/4 15/2/5 18/3/7
f 16/2/8 18/3/7 15/2/5
f 10/2/6 17/3/4 19/3/9
f 19/3/9 9/2/10 10/2/6
f 20/4/11 17/3/4 18/3/7
f 17/3/4 20/4/11 21/4/12
f 21/4/12 19/3/9 17/3/4
f 19/3/9 21/4/12 22/4/13
f 23/4/14 19/3/9 22/4/13
f 24/3/15 20/4/11 18/3/7
f 18/3/7 16/2/8 24/3/15
f 16/2/8 25/3/16 24/3/15
f 20/4/11 24/3/15 26/4/17
f 25/3/16 26/4/17 24/3/15
f 25/3/16 16/2/8 14/2/18
f 26/4/17 25/3/16 27/4/19
f 12/2/20 25/3/16 14/2/18
f 25/3/16 28/4/21 27/4/19
f 19/3/9 23/4/14 29/3/22
f 9/2/10 19/3/9 29/3/22
f 30/4/23 29/3/22 23/4/14
f 25/3/16 12/2/20 31/3/24
f 28/4/21 25/3/16 31/3/24
f 31/3/24 30/4/23 28/4/21
f 11/2/25 31/3/24 12/2/20
f 32/3/26 9/2/10 29/3/22
f 29/3/22 30/4/23 32/3/26
f 30/4/23 31/3/24 32/3/26
f 9/2/10 32/3/26 11/2/25
f 31/3/24 11/2/25 32/3/26
f 6/1/11 34/4/12 33/4/11
f 35/4/17 6/1/11 33/4/11
f 34/4/12 6/1/11 4/1/12
f 6/1/11 35/4/17 8/1/17
f 4/1/12 36/4/13 34/4/12
f 36/4/13 4/1/12 3/1/13
f 1/1/14 36/4/13 3/1/13
f 36/4/13 1/1/14 37/4/14
f 38/4/19 8/1/17 35/4/17
f 8/1/17 38/4/19 7/1/19
f 38/4/19 5/1/21 7/1/19
f 5/1/21 38/4/19 39/4/21
f 2/1/23 37/4/14 1/1/14
f 39/4/21 2/1/23 5/1/21
f 37/4/14 2/1/23 40/4/23
f 2/1/23 39/4/21 40/4/23
f 35/4/1 20/4/1 26/4/1
f 27/4/1 35/4/1 26/4/1
f 33/4/1 20/4/1 35/4/1
f 27/4/1 38/4/1 35/4/1
f 34/4/1 20/4/1 33/4/1
f 34/4/1 21/4/1 20/4/1
f 36/4/1 21/4/1 34/4/1
f 36/4/1 22/4/1 21/4/1
f 28/4/1 38/4/1 27/4/1
f 28/4/1 39/4/1 38/4/1
f 28/4/1 40/4/1 39/4/1
f 30/4/1 40/4/1 28/4/1
f 37/4/1 22/4/1 36/4/1
f 30/4/1 37/4/1 40/4/1
f 22/4/1 37/4/1 23/4/1
f 37/4/1 30/4/1 23/4/1
f 43/2/2 42/2/2 41/2/2
f 42/2/2 43/2/2 44/2/2
f 42/2/2 44/2/2 45/2/2
f 45/2/2 44/2/2 46/2/2
f 45/2/2 46/2/2 47/2/2
f 47/2/2 46/2/2 48/2/2
f 48/2/8 49/5/7 47/2/5
f 49/5/7 45/2/3 47/2/5
f 45/2/3 49/5/7 50/5/4
f 50/5/4 42/2/6 45/2/3
f 42/2/6 50/5/4 51/5/9
f 51/5/9 41/2/10 42/2/6
f 49/5/7 48/2/8 52/5/15
f 53/1/11 50/5/4 49/5/7
f 52/5/15 53/1/11 49/5/7
f 50/5/4 53/1/11 54/1/12
f 54/1/12 51/5/9 50/5/4
f 53/1/11 52/5/15 55/1/17
f 51/5/9 54/1/12 56/1/13
f 52/5/15 57/1/19 55/1/17
f 58/1/14 51/5/9 56/1/13
f 48/2/8 59/5/16 52/5/15
f 57/1/19 52/5/15 59/5/16
f 59/5/16 48/2/8 46/2/18
f 59/5/16 60/1/21 57/1/19
f 44/2/20 59/5/16 46/2/18
f 51/5/9 58/1/14 61/5/22
f 41/2/10 51/5/9 61/5/22
f 62/1/23 61/5/22 58/1/14
f 60/1/21 59/5/16 63/5/24
f 59/5/16 44/2/20 63/5/24
f 63/5/24 62/1/23 60/1/21
f 43/2/25 63/5/24 44/2/20
f 64/5/26 41/2/10 61/5/22
f 61/5/22 62/1/23 64/5/26
f 62/1/23 63/5/24 64/5/26
f 63/5/24 43/2/25 64/5/26
f 41/2/10 64/5/26 43/2/25

g square-hq-plate-1x1-round




usemtl colormap

f 3/1/1 2/1/1 1/1/1
f 2/1/1 3/1/1 4/1/1
f 2/1/1 4/1/1 5/1/1
f 5/1/1 4/1/1 6/1/1
f 5/1/1 6/1/1 7/1/1
f 7/1/1 6/1/1 8/1/1
f 11/2/2 10/2/2 9/2/2
f 10/2/2 11/2/2 12/2/2
f 10/2/2 12/2/2 13/2/2
f 13/2/2 12/2/2 14/2/2
f 13/2/2 14/2/2 15/2/2
f 15/2/2 14/2/2 16/2/2
f 15/2/5 17/3/4 13/2/3
f 17/3/4 10/2/6 13/2/3
f 17/3/4 15/2/5 18/3/7
f 16/2/8 18/3/7 15/2/5
f 10/2/6 17/3/4 19/3/9
f 19/3/9 9/2/10 10/2/6
f 20/4/11 17/3/4 18/3/7
f 17/3/4 20/4/11 21/4/12
f 21/4/12 19/3/9 17/3/4
f 19/3/9 21/4/12 22/4/13
f 23/4/14 19/3/9 22/4/13
f 24/3/15 20/4/11 18/3/7
f 18/3/7 16/2/8 24/3/15
f 16/2/8 25/3/16 24/3/15
f 20/4/11 24/3/15 26/4/17
f 25/3/16 26/4/17 24/3/15
f 25/3/16 16/2/8 14/2/18
f 26/4/17 25/3/16 27/4/19
f 12/2/20 25/3/16 14/2/18
f 25/3/16 28/4/21 27/4/19
f 19/3/9 23/4/14 29/3/22
f 9/2/10 19/3/9 29/3/22
f 30/4/23 29/3/22 23/4/14
f 25/3/16 12/2/20 31/3/24
f 28/4/21 25/3/16 31/3/24
f 31/3/24 30/4/23 28/4/21
f 11/2/25 31/3/24 12/2/20
f 32/3/26 9/2/10 29/3/22
f 29/3/22 30/4/23 32/3/26
f 30/4/23 31/3/24 32/3/26
f 9/2/10 32/3/26 11/2/25
f 31/3/24 11/2/25 32/3/26
f 6/1/11 34/4/12 33/4/11
f 35/4/17 6/1/11 33/4/11
f 34/4/12 6/1/11 4/1/12
f 6/1/11 35/4/17 8/1/17
f 4/1/12 36/4/13 34/4/12
f 36/4/13 4/1/12 3/1/13
f 1/1/14 36/4/13 3/1/13
f 36/4/13 1/1/14 37/4/14
f 38/4/19 8/1/17 35/4/17
f 8/1/17 38/4/19 7/1/19
f 38/4/19 5/1/21 7/1/19
f 5/1/21 38/4/19 39/4/21
f 2/1/23 37/4/14 1/1/14
f 39/4/21 2/1/23 5/1/21
f 37/4/14 2/1/23 40/4/23
f 2/1/23 39/4/21 40/4/23
f 35/4/1 20/4/1 26/4/1
f 27/4/1 35/4/1 26/4/1
f 33/4/1 20/4/1 35/4/1
f 27/4/1 38/4/1 35/4/1
f 34/4/1 20/4/1 33/4/1
f 34/4/1 21/4/1 20/4/1
f 36/4/1 21/4/1 34/4/1
f 36/4/1 22/4/1 21/4/1
f 28/4/1 38/4/1 27/4/1
f 28/4/1 39/4/1 38/4/1
f 28/4/1 40/4/1 39/4/1
f 30/4/1 40/4/1 28/4/1
f 37/4/1 22/4/1 36/4/1
f 30/4/1 37/4/1 40/4/1
f 22/4/1 37/4/1 23/4/1
f 37/4/1 30/4/1 23/4/1
f 43/2/2 42/2/2 41/2/2
f 42/2/2 43/2/2 44/2/2
f 42/2/2 44/2/2 45/2/2
f 45/2/2 44/2/2 46/2/2
f 45/2/2 46/2/2 47/2/2
f 47/2/2 46/2/2 48/2/2
f 48/2/8 49/5/7 47/2/5
f 49/5/7 45/2/3 47/2/5
f 45/2/3 49/5/7 50/5/4
f 50/5/4 42/2/6 45/2/3
f 42/2/6 50/5/4 51/5/9
f 51/5/9 41/2/10 42/2/6
f 49/5/7 48/2/8 52/5/15
f 53/1/11 50/5/4 49/5/7
f 52/5/15 53/1/11 49/5/7
f 50/5/4 53/1/11 54/1/12
f 54/1/12 51/5/9 50/5/4
f 53/1/11 52/5/15 55/1/17
f 51/5/9 54/1/12 56/1/13
f 52/5/15 57/1/19 55/1/17
f 58/1/14 51/5/9 56/1/13
f 48/2/8 59/5/16 52/5/15
f 57/1/19 52/5/15 59/5/16
f 59/5/16 48/2/8 46/2/18
f 59/5/16 60/1/21 57/1/19
f 44/2/20 59/5/16 46/2/18
f 51/5/9 58/1/14 61/5/22
f 41/2/10 51/5/9 61/5/22
f 62/1/23 61/5/22 58/1/14
f 60/1/21 59/5/16 63/5/24
f 59/5/16 44/2/20 63/5/24
f 63/5/24 62/1/23 60/1/21
f 43/2/25 63/5/24 44/2/20
f 64/5/26 41/2/10 61/5/22
f 61/5/22 62/1/23 64/5/26
f 62/1/23 63/5/24 64/5/26
f 63/5/24 43/2/25 64/5/26
f 41/2/10 64/5/26 43/2/25

