# Created by Kenney (www.kenney.nl)

mtllib square-hq-brick-slope-3x1.mtl

g square-hq-brick-slope-3x1

v 0.11925 0 0.0395 1 1 1
v 0.11925 0 -0.0395 1 1 1
v -0.11925 0 0.0395 1 1 1
v -0.11925 0 -0.0395 1 1 1
v -0.11925 0.016 -0.0395 1 1 1
v -0.11925 0.016 0.0395 1 1 1
v 0.11425 0.096 -0.0345 1 1 1
v 0.11425 0.096 0.0345 1 1 1
v 0.03975 0.096 -0.0345 1 1 1
v 0.03975 0.096 0.0345 1 1 1
v 0.11925 0.091 0.0395 1 1 1
v 0.0298125 0.091 0.0395 1 1 1
v 0.11925 0.091 -0.0395 1 1 1
v 0.0298125 0.091 -0.0395 1 1 1
v 0.0555 0.096 -0.024 1 1 1
v 0.1035 0.096 -0.024 1 1 1
v 0.0555 0.109 -0.024 1 1 1
v 0.1035 0.109 -0.024 1 1 1
v 0.0605 0.114 -0.019 1 1 1
v 0.0985 0.114 -0.019 1 1 1
v 0.1035 0.096 0.024 1 1 1
v 0.1035 0.109 0.024 1 1 1
v 0.0985 0.114 0.019 1 1 1
v 0.0605 0.114 0.019 1 1 1
v 0.0555 0.109 0.024 1 1 1
v 0.0555 0.096 0.024 1 1 1

vn 0 -1 0
vn -1 0 0
vn 0 1 0
vn 0 0 1
vn 0 0.2879809 0.9576361
vn 0 0.1391218 0.9902753
vn 0 0.7071068 0.7071068
vn 0 0 -1
vn 0 0.2879809 -0.9576361
vn 0 0.1391218 -0.9902753
vn 0 0.7071068 -0.7071068
vn 1 0 0
vn 0.9576361 0.2879809 0
vn 0.7071068 0.7071068 0
vn -0.4494595 0.8933007 0
vn -0.7071068 0.7071068 0
vn -0.9576361 0.2879809 0

vt 0.59375 0.025
vt 0.59375 0.05833333
vt 0.59375 0.225
vt 0.59375 0.2145833
vt 0.59375 0.1694444

usemtl colormap

f 3/1/1 2/1/1 1/1/1
f 2/1/1 3/1/1 4/1/1
f 3/1/2 5/2/2 4/1/2
f 5/2/2 3/1/2 6/2/2
f 9/3/3 8/3/3 7/3/3
f 8/3/3 9/3/3 10/3/3
f 11/4/5 3/1/4 1/1/4
f 3/1/4 11/4/5 6/2/4
f 6/2/4 11/4/5 12/4/6
f 8/3/7 12/4/6 11/4/5
f 12/4/6 8/3/7 10/3/7
f 5/2/8 2/1/8 4/1/8
f 2/1/8 5/2/8 13/4/9
f 13/4/9 5/2/8 14/4/10
f 9/3/11 13/4/9 14/4/10
f 13/4/9 9/3/11 7/3/11
f 2/1/12 11/4/13 1/1/12
f 11/4/13 2/1/12 13/4/13
f 7/3/14 11/4/13 13/4/13
f 11/4/13 7/3/14 8/3/14
f 14/4/15 10/3/15 9/3/15
f 10/3/15 14/4/15 12/4/15
f 12/4/15 14/4/15 5/2/15
f 12/4/15 5/2/15 6/2/15
f 17/5/9 16/1/8 15/1/8
f 16/1/8 17/5/9 18/5/9
f 19/3/11 18/5/9 17/5/9
f 18/5/9 19/3/11 20/3/11
f 16/1/12 22/5/13 21/1/12
f 22/5/13 16/1/12 18/5/13
f 20/3/14 22/5/13 18/5/13
f 22/5/13 20/3/14 23/3/14
f 19/3/3 23/3/3 20/3/3
f 23/3/3 19/3/3 24/3/3
f 19/3/16 25/5/17 24/3/16
f 25/5/17 19/3/16 17/5/17
f 17/5/17 26/1/2 25/5/17
f 26/1/2 17/5/17 15/1/2
f 25/5/5 23/3/7 24/3/7
f 23/3/7 25/5/5 22/5/5
f 26/1/4 22/5/5 25/5/5
f 22/5/5 26/1/4 21/1/4

g square-hq-brick-slope-3x1




usemtl colormap

f 3/1/1 2/1/1 1/1/1
f 2/1/1 3/1/1 4/1/1
f 3/1/2 5/2/2 4/1/2
f 5/2/2 3/1/2 6/2/2
f 9/3/3 8/3/3 7/3/3
f 8/3/3 9/3/3 10/3/3
f 11/4/5 3/1/4 1/1/4
f 3/1/4 11/4/5 6/2/4
f 6/2/4 11/4/5 12/4/6
f 8/3/7 12/4/6 11/4/5
f 12/4/6 8/3/7 10/3/7
f 5/2/8 2/1/8 4/1/8
f 2/1/8 5/2/8 13/4/9
f 13/4/9 5/2/8 14/4/10
f 9/3/11 13/4/9 14/4/10
f 13/4/9 9/3/11 7/3/11
f 2/1/12 11/4/13 1/1/12
f 11/4/13 2/1/12 13/4/13
f 7/3/14 11/4/13 13/4/13
f 11/4/13 7/3/14 8/3/14
f 14/4/15 10/3/15 9/3/15
f 10/3/15 14/4/15 12/4/15
f 12/4/15 14/4/15 5/2/15
f 12/4/15 5/2/15 6/2/15
f 17/5/9 16/1/8 15/1/8
f 16/1/8 17/5/9 18/5/9
f 19/3/11 18/5/9 17/5/9
f 18/5/9 19/3/11 20/3/11
f 16/1/12 22/5/13 21/1/12
f 22/5/13 16/1/12 18/5/13
f 20/3/14 22/5/13 18/5/13
f 22/5/13 20/3/14 23/3/14
f 19/3/3 23/3/3 20/3/3
f 23/3/3 19/3/3 24/3/3
f 19/3/16 25/5/17 24/3/16
f 25/5/17 19/3/16 17/5/17
f 17/5/17 26/1/2 25/5/17
f 26/1/2 17/5/17 15/1/2
f 25/5/5 23/3/7 24/3/7
f 23/3/7 25/5/5 22/5/5
f 26/1/4 22/5/5 25/5/5
f 22/5/5 26/1/4 21/1/4

