# Created by Kenney (www.kenney.nl)

mtllib tile_001.mtl

g tile_001

v 0.5 0 0.5
v 0.5 0 -0.5
v -0.5 0 0.5
v -0.5 0 -0.5
v 0.5 0.2 0.5
v -0.5 0.2 0.5
v -0.5 0.2 -0.5
v 0.5 0.2 -0.5
v -0.5 0.4 -0.5
v -0.5 0.4 0.5
v 0.5 0.4 -0.5
v 0.5 0.4 0.5
v 0.3915074 0.4 -0.2442743
v 0.1274355 0.4 -0.4066507
v -0.1452224 0.4 -0.2591459
v -0.1538085 0.4 0.05073516
v -0.2438422 0.4 0.03930164
v -0.4055476 0.4 0.1312111
v -0.4068044 0.4 0.3172069
v 0.3829212 0.4 0.06560675
v -0.2463557 0.4 0.4112931
v 0.1102633 0.4 0.2131115
v -0.08465028 0.4 0.3193837
v -0.08339354 0.4 0.1333879

vn 0 -1 0
vn 0 0 1
vn 0 0 -1
vn -1 0 0
vn 1 0 0
vn 0 1 0

vt 19.68504 19.68504
vt 19.68504 -19.68504
vt -19.68504 19.68504
vt -19.68504 -19.68504
vt 19.68504 0
vt -19.68504 0
vt 19.68504 7.874016
vt -19.68504 7.874016
vt -19.68504 15.74803
vt 19.68504 15.74803
vt -15.41368 -9.617099
vt -5.017147 -16.00987
vt 5.717417 -10.20259
vt 6.055453 1.997447
vt 9.600087 1.547309
vt 15.96644 5.165793
vt 16.01592 12.48846
vt -15.07564 2.582943
vt 9.699043 16.19264
vt -4.341075 8.390216
vt 3.332688 12.57416
vt 3.28321 5.251492

usemtl dirt

f 3/3/1 2/2/1 1/1/1
f 2/2/1 3/3/1 4/4/1
f 5/7/2 3/6/2 1/5/2
f 3/6/2 5/7/2 6/8/2
f 7/7/3 2/6/3 4/5/3
f 2/6/3 7/7/3 8/8/3
f 3/5/4 7/8/4 4/6/4
f 7/8/4 3/5/4 6/7/4
f 5/8/5 2/5/5 8/7/5
f 2/5/5 5/8/5 1/6/5
f 8/4/6 6/1/6 5/3/6
f 6/1/6 8/4/6 7/2/6

usemtl grass

f 6/7/4 9/9/4 7/8/4
f 9/9/4 6/7/4 10/10/4
f 9/10/3 8/8/3 7/7/3
f 8/8/3 9/10/3 11/9/3
f 12/10/2 6/8/2 5/7/2
f 6/8/2 12/10/2 10/9/2
f 11/4/6 14/12/6 13/11/6
f 14/12/6 11/4/6 9/2/6
f 14/12/6 9/2/6 15/13/6
f 15/13/6 9/2/6 16/14/6
f 16/14/6 9/2/6 17/15/6
f 17/15/6 9/2/6 18/16/6
f 18/16/6 9/2/6 19/17/6
f 19/17/6 9/2/6 10/1/6
f 20/18/6 11/4/6 13/11/6
f 20/18/6 12/3/6 11/4/6
f 12/3/6 21/19/6 10/1/6
f 21/19/6 12/3/6 20/18/6
f 10/1/6 21/19/6 19/17/6
f 21/19/6 20/18/6 22/20/6
f 21/19/6 22/20/6 23/21/6
f 23/21/6 22/20/6 24/22/6
f 16/14/6 24/22/6 22/20/6
f 24/22/6 16/14/6 17/15/6
f 12/9/5 8/7/5 11/10/5
f 8/7/5 12/9/5 5/8/5

g Group

v 0.3915074 0.4 -0.2442743
v 0.3829212 0.4 0.06560674
v 0.2906239 0.65 -0.1896976
v 0.2852147 0.65 0.005527526
v -0.04751584 0.65 -0.1990667
v 0.1242587 0.65 -0.2919947
v 0.1134402 0.65 0.09845549
v -0.05292505 0.65 -0.003841609
v -0.1538085 0.4 0.05073512
v 0.1102633 0.4 0.2131115

vn 0.9289725 0.3692526 0.02573977
vn -0.4421949 0.3692526 -0.8173837
vn -0.9289725 0.3692526 -0.02573977
vn 0.4421949 0.3692526 0.8173837
vn 0.4867775 0.3692526 -0.7916439
vn -0.4867775 0.3692526 0.7916439

vt -6.390316 -0.06538042
vt -18.59504 -0.06538042
vt -8.64819 10.52561
vt -16.33717 10.52561
vt 21.34891 -1.826654
vt 9.14418 -1.826654
vt 19.09103 8.764341
vt 11.40205 8.764341
vt 3.971789 8.54146
vt 4.184752 16.22749
vt 10.5216 4.514016
vt 10.94753 19.88607
vt 17.28438 8.172598
vt 17.49734 15.85862
vt 6.390316 -7.740325
vt 8.64819 2.85067
vt 18.59504 -7.740325
vt 16.33717 2.85067
vt -9.14418 -5.979052
vt -21.34891 -5.979052
vt -11.40205 4.611943
vt -19.09103 4.611943
vt 8.856226 2.010819
vt -3.348498 2.010819
vt 6.598352 12.60181
vt -1.090624 12.60181
vt 3.348498 -9.816525
vt -8.856226 -9.816525
vt 1.090624 0.7744708
vt -6.598352 0.7744708
vt -8.463657E-31 6.392769
vt 0.3380361 18.59281
vt 10.39653 0
vt 11.0726 24.40008
vt 21.13109 5.807273
vt 21.46913 18.00731

usemtl stone

f 27/25/7 26/24/7 25/23/7
f 26/24/7 27/25/7 28/26/7
f 29/29/8 14/28/8 15/27/8
f 14/28/8 29/29/8 30/30/8
f 30/33/6 28/32/6 27/31/6
f 28/32/6 30/33/6 31/34/6
f 31/34/6 30/33/6 29/35/6
f 31/34/6 29/35/6 32/36/6
f 33/39/9 29/38/9 15/37/9
f 29/38/9 33/39/9 32/40/9
f 28/43/10 34/42/10 26/41/10
f 34/42/10 28/43/10 31/44/10
f 30/47/11 25/46/11 14/45/11
f 25/46/11 30/47/11 27/48/11
f 31/51/12 33/50/12 34/49/12
f 33/50/12 31/51/12 32/52/12

usemtl grass

f 14/55/6 26/54/6 25/53/6
f 26/54/6 14/55/6 34/56/6
f 34/56/6 14/55/6 15/57/6
f 34/56/6 15/57/6 33/58/6

g Group

v -0.2438422 0.4 0.03930163
v -0.08339345 0.4 0.1333879
v -0.2443072 0.55 0.1081201
v -0.1432244 0.55 0.1673944
v -0.4068043 0.4 0.317207
v -0.4055476 0.4 0.1312112
v -0.3469733 0.55 0.2832004
v -0.3461816 0.55 0.1660231
v -0.1440162 0.55 0.2845717
v -0.2458906 0.55 0.3424747
v -0.2463556 0.4 0.4112932
v -0.08465019 0.4 0.3193836

vn 0.2820551 0.2215516 -0.4809989
vn -0.5575848 0.2215516 -0.003767431
vn -2.382308E-17 0.6 6.767922E-18
vn -0.2820551 0.2215516 0.4809989
vn 0.5575848 0.2215516 0.003767431
vn -0.2755297 0.2215516 -0.4847662
vn 0.2755297 0.2215516 0.4847662


usemtl stone

f 37/25/13 36/24/13 35/23/13
f 36/24/13 37/25/13 38/26/13
f 41/29/14 40/28/14 39/27/14
f 40/28/14 41/29/14 42/30/14
f 42/33/15 38/32/15 37/31/15
f 38/32/15 42/33/15 43/34/15
f 43/34/15 42/33/15 41/35/15
f 43/34/15 41/35/15 44/36/15
f 45/39/16 41/38/16 39/37/16
f 41/38/16 45/39/16 44/40/16
f 38/43/17 46/42/17 36/41/17
f 46/42/17 38/43/17 43/44/17
f 42/47/18 35/46/18 40/45/18
f 35/46/18 42/47/18 37/48/18
f 43/51/19 45/50/19 46/49/19
f 45/50/19 43/51/19 44/52/19

usemtl grass

f 40/55/15 36/54/15 35/53/15
f 36/54/15 40/55/15 46/56/15
f 46/56/15 40/55/15 39/57/15
f 46/56/15 39/57/15 45/58/15

