# Created by Kenney (www.kenney.nl)

mtllib tile_066.mtl

g tile_066

v 0.5 0.2 0.5
v -0.5 0.2 0.5
v 0.5 0.4 0.5
v -0.5 0.4 0.5
v -0.5 0.2 -0.5
v 0.5 0.2 -0.5
v -0.5 0.4 -0.5
v 0.5 0.4 -0.5
v 0.5 0 -0.5
v 0.5 0 0.5
v -0.5 0 -0.5
v -0.5 0 0.5

vn 0 0 1
vn 0 0 -1
vn 1 0 0
vn -1 0 0
vn 0 1 0
vn 0 -1 0

vt 19.68504 7.874016
vt -19.68504 7.874016
vt 19.68504 15.74803
vt -19.68504 15.74803
vt -19.68504 19.68504
vt 19.68504 19.68504
vt -19.68504 -19.68504
vt 19.68504 -19.68504
vt 19.68504 0
vt -19.68504 0

usemtl grass

f 3/3/1 2/2/1 1/1/1
f 2/2/1 3/3/1 4/4/1
f 7/3/2 6/2/2 5/1/2
f 6/2/2 7/3/2 8/4/2
f 3/4/3 6/1/3 8/3/3
f 6/1/3 3/4/3 1/2/3
f 2/1/4 7/4/4 5/2/4
f 7/4/4 2/1/4 4/3/4
f 8/7/5 4/6/5 3/5/5
f 4/6/5 8/7/5 7/8/5

usemtl dirt

f 1/2/3 9/9/3 6/1/3
f 9/9/3 1/2/3 10/10/3
f 12/9/4 5/2/4 11/10/4
f 5/2/4 12/9/4 2/1/4
f 5/1/2 9/10/2 11/9/2
f 9/10/2 5/1/2 6/2/2
f 1/1/1 12/10/1 10/9/1
f 12/10/1 1/1/1 2/2/1
f 6/7/5 2/6/5 1/5/5
f 2/6/5 6/7/5 5/8/5
f 12/5/6 9/8/6 10/6/6
f 9/8/6 12/5/6 11/7/6

g Component#2

v 0.2571736 0.8757848 -0.1199512
v 0.2048977 0.8757848 -0.1059439
v 0.2431663 0.8757848 -0.1722271
v 0.1908904 0.8757848 -0.1582198
v 0.3110061 0.5066 -0.2897291
v 0.3746756 0.5066 -0.05211135
v 0.07338837 0.5066 -0.2260596
v 0.1370579 0.5066 0.01155816
v 0.3581048 0.4656 -0.06167851
v 0.2047252 0.4656 -0.105645
v 0.1466251 0.4656 -0.005012643
v 0.0899592 0.4656 -0.2164924
v 0.1905916 0.4656 -0.1583923
v 0.2433389 0.4656 -0.1725259
v 0.2574725 0.4656 -0.1197786
v 0.301439 0.4656 -0.2731583
v 0.2047252 0.4 -0.105645
v 0.2574725 0.4 -0.1197786
v 0.1905916 0.4 -0.1583923
v 0.2433389 0.4 -0.1725259

vn 0 0.82 0
vn 0.7665969 0.206243 -0.2054091
vn -0.2054091 0.206243 -0.7665969
vn -0.7665969 0.206243 0.2054091
vn 0.2054091 0.206243 0.7665969
vn 0 -0.82 0
vn -0.2015413 -0.2569695 -0.752162
vn -0.752162 -0.2569695 0.2015413
vn 0.752162 -0.2569695 -0.2015413
vn 0.2015413 -0.2569695 0.752162
vn 0.2122317 0 0.7920591
vn -0.2122317 0 -0.7920591
vn 0.7920591 0 -0.2122317
vn -0.7920591 0 0.2122317

vt 4.606299 4.606299
vt 4.606299 7.204724
vt 7.204724 4.606299
vt 7.204724 7.204724
vt 11.81102 4.953579
vt 0 4.953579
vt 7.204724 23.26773
vt 4.606299 23.26773
vt 2.435299E-16 1.982919
vt 4.606299 20.29707
vt 11.81102 1.982919
vt 7.204724 20.29707
vt -5.65078E-17 1.982919
vt -11.81102 1.982919
vt -4.606299 20.29707
vt -7.204724 20.29707
vt -11.81102 4.953579
vt -4.606299 23.26773
vt -7.204724 23.26773
vt -0.6496063 0.6496063
vt -4.594584 7.21644
vt -0.6496063 11.16142
vt -11.16142 11.16142
vt -7.21644 7.21644
vt -7.21644 4.594584
vt -4.594584 4.594584
vt -11.16142 0.6496063
vt 0 8.561613
vt 11.81102 8.561613
vt 0.6496063 6.488693
vt 11.16142 6.488693
vt -0.6496063 6.488693
vt -11.16142 6.488693
vt -3.356916E-18 8.561613
vt -11.81102 8.561613
vt 11.16142 2.787385
vt 0.6496063 2.787385
vt 11.81102 4.860304
vt 0 4.860304
vt -0.6496063 2.787385
vt -11.81102 4.860304
vt -11.16142 2.787385
vt -4.594584 3.149606
vt -4.594584 0
vt -7.21644 3.149606
vt -7.21644 0
vt 4.594584 0
vt 4.594584 3.149606
vt 7.21644 0
vt 7.21644 3.149606

usemtl grass

f 15/13/7 14/12/7 13/11/7
f 14/12/7 15/13/7 16/14/7
f 15/17/8 18/16/8 17/15/8
f 18/16/8 15/17/8 13/18/8
f 19/21/9 15/20/9 17/19/9
f 15/20/9 19/21/9 16/22/9
f 14/25/10 19/24/10 20/23/10
f 19/24/10 14/25/10 16/26/10
f 13/28/11 20/27/11 18/16/11
f 20/27/11 13/28/11 14/29/11
f 23/32/12 22/31/12 21/30/12
f 22/31/12 23/32/12 24/33/12
f 22/31/12 24/33/12 25/34/12
f 25/34/12 24/33/12 26/35/12
f 27/36/12 21/30/12 22/31/12
f 21/30/12 27/36/12 28/37/12
f 28/37/12 27/36/12 26/35/12
f 28/37/12 26/35/12 24/33/12
f 28/40/13 19/39/13 17/38/13
f 19/39/13 28/40/13 24/41/13
f 20/44/14 24/43/14 23/42/14
f 24/43/14 20/44/14 19/45/14
f 17/48/15 21/47/15 28/46/15
f 21/47/15 17/48/15 18/49/15
f 20/51/16 21/50/16 18/49/16
f 21/50/16 20/51/16 23/52/16

usemtl _defaultMat

f 19/27/12 18/28/12 20/29/12
f 18/27/12 19/28/12 17/29/12

usemtl dirt

f 31/34/12 30/36/12 29/31/12
f 30/36/12 31/34/12 32/35/12
f 22/55/17 30/54/17 27/53/17
f 30/54/17 22/55/17 29/56/17
f 31/59/18 26/58/18 32/57/18
f 26/58/18 31/59/18 25/60/18
f 26/60/19 30/57/19 32/59/19
f 30/57/19 26/60/19 27/58/19
f 22/53/20 31/56/20 29/54/20
f 31/56/20 22/53/20 25/55/20

g Component#2

v -0.1076572 0.9802253 0.2803664
v -0.165604 0.9802253 0.2487727
v -0.07606353 0.9802253 0.2224195
v -0.1340104 0.9802253 0.1908258
v 0.08266746 0.53 0.1757024
v -0.0609401 0.53 0.4390973
v -0.1807274 0.53 0.03209487
v -0.324335 0.53 0.2954898
v -0.0675284 0.48 0.4167122
v -0.1660078 0.48 0.2488915
v -0.3019499 0.48 0.2889014
v -0.1741391 0.48 0.05448002
v -0.1341292 0.48 0.1904221
v -0.0756598 0.48 0.2223007
v -0.1075383 0.48 0.2807701
v 0.06028232 0.48 0.1822907
v -0.1660078 0.4 0.2488915
v -0.1075383 0.4 0.2807701
v -0.1341292 0.4 0.1904221
v -0.0756598 0.4 0.2223007

vn 0.8497586 0.2515159 0.4633034
vn 0.4633034 0.2515159 -0.8497586
vn -0.8497586 0.2515159 -0.4633034
vn -0.4633034 0.2515159 0.8497586
vn 0.4545795 -0.3133775 -0.8337578
vn -0.8337578 -0.3133775 -0.4545795
vn 0.8337578 -0.3133775 0.4545795
vn -0.4545795 -0.3133775 0.8337578
vn -0.4786918 0 0.877983
vn 0.4786918 0 -0.877983
vn 0.877983 0 0.4786918
vn -0.877983 0 -0.4786918


usemtl grass

f 35/13/5 34/12/5 33/11/5
f 34/12/5 35/13/5 36/14/5
f 35/17/21 38/16/21 37/15/21
f 38/16/21 35/17/21 33/18/21
f 39/21/22 35/20/22 37/19/22
f 35/20/22 39/21/22 36/22/22
f 34/25/23 39/24/23 40/23/23
f 39/24/23 34/25/23 36/26/23
f 33/28/24 40/27/24 38/16/24
f 40/27/24 33/28/24 34/29/24
f 43/32/6 42/31/6 41/30/6
f 42/31/6 43/32/6 44/33/6
f 42/31/6 44/33/6 45/34/6
f 45/34/6 44/33/6 46/35/6
f 47/36/6 41/30/6 42/31/6
f 41/30/6 47/36/6 48/37/6
f 48/37/6 47/36/6 46/35/6
f 48/37/6 46/35/6 44/33/6
f 48/40/25 39/39/25 37/38/25
f 39/39/25 48/40/25 44/41/25
f 40/44/26 44/43/26 43/42/26
f 44/43/26 40/44/26 39/45/26
f 37/48/27 41/47/27 48/46/27
f 41/47/27 37/48/27 38/49/27
f 40/51/28 41/50/28 38/49/28
f 41/50/28 40/51/28 43/52/28

usemtl _defaultMat

f 39/27/6 38/28/6 40/29/6
f 38/27/6 39/28/6 37/29/6

usemtl dirt

f 51/34/6 50/36/6 49/31/6
f 50/36/6 51/34/6 52/35/6
f 42/55/29 50/54/29 47/53/29
f 50/54/29 42/55/29 49/56/29
f 51/59/30 46/58/30 52/57/30
f 46/58/30 51/59/30 45/60/30
f 46/60/31 50/57/31 52/59/31
f 50/57/31 46/60/31 47/58/31
f 42/53/32 51/56/32 49/54/32
f 51/56/32 42/53/32 45/55/32

