# Created by Kenney (www.kenney.nl)

mtllib tile_077.mtl

g tile_077

v 0.5 0.2 -0.5
v 0.5 0 -0.5
v 0.5 0.2 0.5
v 0.5 0 0.5
v -0.5 0.2 -0.5
v -0.5 0.2 0.5
v -0.5 0 -0.5
v -0.5 0 0.5
v -0.5 0.4 -0.5
v -0.5 0.4 0.5
v 0.5 0.4 0.5
v 0.2131115 0.4 -0.1102633
v 0.5 0.4 -0.5
v 0.06560675 0.4 -0.3829212
v -0.2442743 0.4 -0.3915074
v -0.4066507 0.4 -0.1274355
v 0.05073516 0.4 0.1538085
v -0.2591459 0.4 0.1452224

vn 1 0 0
vn 0 1 0
vn -1 0 0
vn 0 0 -1
vn 0 -1 0
vn 0 0 1

vt 19.68504 7.874016
vt 19.68504 0
vt -19.68504 7.874016
vt -19.68504 0
vt -19.68504 -19.68504
vt -19.68504 19.68504
vt 19.68504 -19.68504
vt 19.68504 19.68504
vt -19.68504 15.74803
vt 19.68504 15.74803
vt -8.390216 -4.341075
vt -2.582943 -15.07564
vt 9.617099 -15.41368
vt 16.00987 -5.017147
vt -1.997447 6.055453
vt 10.20259 5.717417

usemtl dirt

f 3/3/1 2/2/1 1/1/1
f 2/2/1 3/3/1 4/4/1
f 5/7/2 3/6/2 1/5/2
f 3/6/2 5/7/2 6/8/2
f 8/2/3 5/3/3 7/4/3
f 5/3/3 8/2/3 6/1/3
f 5/1/4 2/4/4 7/2/4
f 2/4/4 5/1/4 1/3/4
f 4/8/5 7/5/5 2/7/5
f 7/5/5 4/8/5 8/6/5
f 3/1/6 8/4/6 4/2/6
f 8/4/6 3/1/6 6/3/6

usemtl grass

f 6/1/3 9/9/3 5/3/3
f 9/9/3 6/1/3 10/10/3
f 13/5/2 12/11/2 11/6/2
f 12/11/2 13/5/2 14/12/2
f 14/12/2 13/5/2 9/7/2
f 14/12/2 9/7/2 15/13/2
f 15/13/2 9/7/2 16/14/2
f 17/15/2 11/6/2 12/11/2
f 11/6/2 17/15/2 10/8/2
f 10/8/2 16/14/2 9/7/2
f 10/8/2 17/15/2 18/16/2
f 10/8/2 18/16/2 16/14/2
f 9/10/4 1/3/4 5/1/4
f 1/3/4 9/10/4 13/9/4
f 11/9/1 1/1/1 13/10/1
f 1/1/1 11/9/1 3/3/1
f 11/10/6 6/3/6 3/1/6
f 6/3/6 11/10/6 10/9/6

g Group

v -0.2442743 0.4 -0.3915074
v 0.0656068 0.4 -0.3829213
v -0.1896975 0.65 -0.290624
v 0.005527616 0.65 -0.2852147
v -0.2591459 0.4 0.1452225
v -0.4066506 0.4 -0.1274355
v -0.1990666 0.65 0.04751584
v -0.2919946 0.65 -0.1242586
v 0.09845555 0.65 -0.1134402
v -0.00384149 0.65 0.05292505
v 0.05073524 0.4 0.1538086
v 0.2131115 0.4 -0.1102633

vn 0.02573966 0.3692526 -0.9289727
vn -0.8173838 0.3692526 0.4421951
vn -0.02573966 0.3692526 0.9289727
vn 0.8173838 0.3692526 -0.4421951
vn -0.7916441 0.3692526 -0.4867775
vn 0.7916441 0.3692526 0.4867775

vt -6.390316 -0.06538042
vt -18.59504 -0.06538042
vt -8.64819 10.52561
vt -16.33717 10.52561
vt 21.34891 -1.826654
vt 9.14418 -1.826654
vt 19.09103 8.764341
vt 11.40205 8.764341
vt 3.971789 8.54146
vt 4.184752 16.22749
vt 10.5216 4.514016
vt 10.94753 19.88607
vt 17.28438 8.172598
vt 17.49734 15.85862
vt 6.390316 -7.740325
vt 8.64819 2.85067
vt 18.59504 -7.740325
vt 16.33717 2.85067
vt -9.14418 -5.979052
vt -21.34891 -5.979052
vt -11.40205 4.611943
vt -19.09103 4.611943
vt 8.856226 2.010819
vt -3.348498 2.010819
vt 6.598352 12.60181
vt -1.090624 12.60181
vt 3.348498 -9.816525
vt -8.856226 -9.816525
vt 1.090624 0.7744708
vt -6.598352 0.7744708
vt -8.463657E-31 6.392769
vt 0.3380361 18.59281
vt 10.39653 0
vt 11.0726 24.40008
vt 21.13109 5.807273
vt 21.46913 18.00731

usemtl stone

f 21/19/7 20/18/7 19/17/7
f 20/18/7 21/19/7 22/20/7
f 25/23/8 24/22/8 23/21/8
f 24/22/8 25/23/8 26/24/8
f 26/27/2 22/26/2 21/25/2
f 22/26/2 26/27/2 27/28/2
f 27/28/2 26/27/2 25/29/2
f 27/28/2 25/29/2 28/30/2
f 29/33/9 25/32/9 23/31/9
f 25/32/9 29/33/9 28/34/9
f 22/37/10 30/36/10 20/35/10
f 30/36/10 22/37/10 27/38/10
f 26/41/11 19/40/11 24/39/11
f 19/40/11 26/41/11 21/42/11
f 27/45/12 29/44/12 30/43/12
f 29/44/12 27/45/12 28/46/12

usemtl grass

f 24/49/2 20/48/2 19/47/2
f 20/48/2 24/49/2 30/50/2
f 30/50/2 24/49/2 23/51/2
f 30/50/2 23/51/2 29/52/2

