# Created by Kenney (www.kenney.nl)

mtllib tile_078.mtl

g tile_078

v -0.5 0.2 -0.5
v 0.5 0.2 -0.5
v -0.5 0.4 -0.5
v 0.5 0.4 -0.5
v 0.5 0.4 0.5
v 0.5 0.2 0.5
v -0.5 0.2 0.5
v -0.5 0.4 0.5
v 0.3193837 0.4 0.08465028
v 0.1333879 0.4 0.08339354
v 0.2131115 0.4 -0.1102633
v 0.05073516 0.4 0.1538085
v 0.03930164 0.4 0.2438422
v -0.2591459 0.4 0.1452224
v 0.06560675 0.4 -0.3829212
v 0.4112931 0.4 0.2463557
v -0.2442743 0.4 -0.3915074
v -0.4066507 0.4 -0.1274355
v 0.3172069 0.4 0.4068044
v 0.1312111 0.4 0.4055476
v 0.5 0 -0.5
v -0.5 0 -0.5
v 0.5 0 0.5
v -0.5 0 0.5

vn 0 0 -1
vn 1 0 0
vn -1 0 0
vn 0 0 1
vn 0 1 0
vn 0 -1 0

vt 19.68504 7.874016
vt -19.68504 7.874016
vt 19.68504 15.74803
vt -19.68504 15.74803
vt -12.57416 3.332688
vt -5.251492 3.28321
vt -8.390216 -4.341075
vt -1.997447 6.055453
vt -1.547309 9.600087
vt 10.20259 5.717417
vt -2.582943 -15.07564
vt -16.19264 9.699043
vt -19.68504 -19.68504
vt -19.68504 19.68504
vt 19.68504 -19.68504
vt 9.617099 -15.41368
vt 16.00987 -5.017147
vt -12.48846 16.01592
vt 19.68504 19.68504
vt -5.165793 15.96644
vt 19.68504 0
vt -19.68504 0

usemtl grass

f 3/3/1 2/2/1 1/1/1
f 2/2/1 3/3/1 4/4/1
f 5/4/2 2/1/2 4/3/2
f 2/1/2 5/4/2 6/2/2
f 7/1/3 3/4/3 1/2/3
f 3/4/3 7/1/3 8/3/3
f 5/3/4 7/2/4 6/1/4
f 7/2/4 5/3/4 8/4/4
f 11/7/5 10/6/5 9/5/5
f 10/6/5 11/7/5 12/8/5
f 10/6/5 12/8/5 13/9/5
f 13/9/5 12/8/5 14/10/5
f 9/5/5 15/11/5 11/7/5
f 16/12/5 15/11/5 9/5/5
f 16/12/5 4/13/5 15/11/5
f 4/13/5 16/12/5 5/14/5
f 15/11/5 4/13/5 3/15/5
f 15/11/5 3/15/5 17/16/5
f 17/16/5 3/15/5 18/17/5
f 19/18/5 5/14/5 16/12/5
f 5/14/5 19/18/5 8/19/5
f 8/19/5 13/9/5 14/10/5
f 8/19/5 14/10/5 18/17/5
f 8/19/5 18/17/5 3/15/5
f 8/19/5 19/18/5 20/20/5
f 8/19/5 20/20/5 13/9/5

usemtl dirt

f 23/19/6 22/13/6 21/15/6
f 22/13/6 23/19/6 24/14/6
f 6/2/2 21/21/2 2/1/2
f 21/21/2 6/2/2 23/22/2
f 6/1/4 24/22/4 23/21/4
f 24/22/4 6/1/4 7/2/4
f 1/1/1 21/22/1 22/21/1
f 21/22/1 1/1/1 2/2/1
f 1/15/5 6/14/5 2/13/5
f 6/14/5 1/15/5 7/19/5
f 24/21/3 1/2/3 22/22/3
f 1/2/3 24/21/3 7/1/3

g Group

v 0.03930164 0.4 0.2438422
v 0.1333879 0.4 0.08339354
v 0.1081201 0.55 0.2443072
v 0.1673944 0.55 0.1432245
v 0.3172069 0.4 0.4068044
v 0.1312111 0.4 0.4055476
v 0.2832004 0.55 0.3469734
v 0.1660231 0.55 0.3461816
v 0.2845717 0.55 0.1440163
v 0.3424747 0.55 0.2458907
v 0.4112931 0.4 0.2463557
v 0.3193836 0.4 0.08465025

vn -0.4809987 0.2215516 -0.2820551
vn -0.003767505 0.2215516 0.5575846
vn 6.76792E-18 0.6 2.382308E-17
vn 0.4809987 0.2215516 0.2820551
vn 0.003767505 0.2215516 -0.5575846
vn -0.4847663 0.2215516 0.2755296
vn 0.4847663 0.2215516 -0.2755296

vt -6.390316 -0.06538042
vt -18.59504 -0.06538042
vt -8.64819 10.52561
vt -16.33717 10.52561
vt 21.34891 -1.826654
vt 9.14418 -1.826654
vt 19.09103 8.764341
vt 11.40205 8.764341
vt 3.971789 8.54146
vt 4.184752 16.22749
vt 10.5216 4.514016
vt 10.94753 19.88607
vt 17.28438 8.172598
vt 17.49734 15.85862
vt 6.390316 -7.740325
vt 8.64819 2.85067
vt 18.59504 -7.740325
vt 16.33717 2.85067
vt -9.14418 -5.979052
vt -21.34891 -5.979052
vt -11.40205 4.611943
vt -19.09103 4.611943
vt 8.856226 2.010819
vt -3.348498 2.010819
vt 6.598352 12.60181
vt -1.090624 12.60181
vt 3.348498 -9.816525
vt -8.856226 -9.816525
vt 1.090624 0.7744708
vt -6.598352 0.7744708
vt -8.463657E-31 6.392769
vt 0.3380361 18.59281
vt 10.39653 0
vt 11.0726 24.40008
vt 21.13109 5.807273
vt 21.46913 18.00731

usemtl stone

f 27/25/7 26/24/7 25/23/7
f 26/24/7 27/25/7 28/26/7
f 31/29/8 30/28/8 29/27/8
f 30/28/8 31/29/8 32/30/8
f 32/33/9 28/32/9 27/31/9
f 28/32/9 32/33/9 33/34/9
f 33/34/9 32/33/9 31/35/9
f 33/34/9 31/35/9 34/36/9
f 35/39/10 31/38/10 29/37/10
f 31/38/10 35/39/10 34/40/10
f 28/43/11 36/42/11 26/41/11
f 36/42/11 28/43/11 33/44/11
f 32/47/12 25/46/12 30/45/12
f 25/46/12 32/47/12 27/48/12
f 33/51/13 35/50/13 36/49/13
f 35/50/13 33/51/13 34/52/13

usemtl grass

f 30/55/9 26/54/9 25/53/9
f 26/54/9 30/55/9 36/56/9
f 36/56/9 30/55/9 29/57/9
f 36/56/9 29/57/9 35/58/9

g Group

v -0.2442743 0.4 -0.3915074
v 0.0656068 0.4 -0.3829213
v -0.1896975 0.65 -0.290624
v 0.005527616 0.65 -0.2852147
v -0.2591459 0.4 0.1452225
v -0.4066506 0.4 -0.1274355
v -0.1990666 0.65 0.04751584
v -0.2919946 0.65 -0.1242586
v 0.09845555 0.65 -0.1134402
v -0.00384149 0.65 0.05292505
v 0.05073524 0.4 0.1538086
v 0.2131115 0.4 -0.1102633

vn 0.02573966 0.3692526 -0.9289727
vn -0.8173838 0.3692526 0.4421951
vn -0.02573966 0.3692526 0.9289727
vn 0.8173838 0.3692526 -0.4421951
vn -0.7916441 0.3692526 -0.4867775
vn 0.7916441 0.3692526 0.4867775


usemtl stone

f 39/25/14 38/24/14 37/23/14
f 38/24/14 39/25/14 40/26/14
f 43/29/15 42/28/15 41/27/15
f 42/28/15 43/29/15 44/30/15
f 44/33/5 40/32/5 39/31/5
f 40/32/5 44/33/5 45/34/5
f 45/34/5 44/33/5 43/35/5
f 45/34/5 43/35/5 46/36/5
f 47/39/16 43/38/16 41/37/16
f 43/38/16 47/39/16 46/40/16
f 40/43/17 48/42/17 38/41/17
f 48/42/17 40/43/17 45/44/17
f 44/47/18 37/46/18 42/45/18
f 37/46/18 44/47/18 39/48/18
f 45/51/19 47/50/19 48/49/19
f 47/50/19 45/51/19 46/52/19

usemtl grass

f 42/55/5 38/54/5 37/53/5
f 38/54/5 42/55/5 48/56/5
f 48/56/5 42/55/5 41/57/5
f 48/56/5 41/57/5 47/58/5

