# Created by Kenney (www.kenney.nl)

mtllib tile_010.mtl

g tile_010

v 0.04 0.173979 0.2950257
v -0.04 0.173979 0.2950257
v 0.04 0.293979 0.2950257
v -0.04 0.293979 0.2950257
v 0.04087734 0.306148 0.2950257
v -0.04087734 0.306148 0.2950257
v -0.03813494 0.3180364 0.2950257
v 0.03813494 0.3180364 0.2950257
v -0.03201562 0.3285915 0.2950257
v 0.03201562 0.3285915 0.2950257
v -0.02306127 0.3368785 0.2950257
v 0.02306127 0.3368785 0.2950257
v -0.01206482 0.3421637 0.2950257
v 0.01206482 0.3421637 0.2950257
v -2.616929E-15 0.343979 0.2950257
v 0.3150257 4.511946E-17 -0.3150257
v -0.3150257 4.511946E-17 -0.3150257
v 0.3150257 0 0.3150257
v -0.3150257 0 0.3150257
v 0.2950257 0.13 -0.2950257
v 0.2950257 0.13 0.2950257
v -0.2950257 0.13 -0.2950257
v -0.2950257 0.13 0.2950257
v 0.3150257 0.13 0.3150257
v 0.3150257 0.13 -0.3150257
v -0.3150257 0.13 -0.3150257
v -0.3150257 0.13 0.3150257
v 0.2950257 0.4 0.2950257
v -0.2950257 0.4 0.2950257
v -0.2950257 0.4 -0.2950257
v 0.2950257 0.4 -0.2950257

vn 0 0 1
vn 0 -1 0
vn 0 1 0
vn 0 0 -1
vn 1 0 0
vn -1 0 0

vt 1.574803 6.849566
vt -1.574803 6.849566
vt 1.574803 11.57398
vt -1.574803 11.57398
vt 1.609344 12.05307
vt -1.609344 12.05307
vt -1.501375 12.52112
vt 1.501375 12.52112
vt -1.260458 12.93667
vt 1.260458 12.93667
vt -0.9079242 13.26293
vt 0.9079242 13.26293
vt -0.4749928 13.47101
vt 0.4749928 13.47101
vt -5.295215E-13 13.54248
vt 12.40259 -12.40259
vt -12.40259 -12.40259
vt 12.40259 12.40259
vt -12.40259 12.40259
vt -11.61519 -11.61519
vt -11.61519 11.61519
vt 11.61519 -11.61519
vt 11.61519 11.61519
vt 12.40259 0
vt -12.40259 0
vt 12.40259 5.11811
vt -12.40259 5.11811
vt 12.40259 1.776357E-15
vt -12.40259 1.776357E-15
vt -12.40259 -9.503422E-30
vt 12.40259 3.167807E-30
vt -11.61519 5.11811
vt 11.61519 5.11811
vt 11.61519 15.74803
vt -11.61519 15.74803

usemtl grey

f 3/3/1 2/2/1 1/1/1
f 2/2/1 3/3/1 4/4/1
f 4/4/1 3/3/1 5/5/1
f 4/4/1 5/5/1 6/6/1
f 6/6/1 5/5/1 7/7/1
f 7/7/1 5/5/1 8/8/1
f 7/7/1 8/8/1 9/9/1
f 9/9/1 8/8/1 10/10/1
f 9/9/1 10/10/1 11/11/1
f 11/11/1 10/10/1 12/12/1
f 11/11/1 12/12/1 13/13/1
f 13/13/1 12/12/1 14/14/1
f 13/13/1 14/14/1 15/15/1

usemtl _defaultMat

f 18/18/2 17/17/2 16/16/2
f 17/17/2 18/18/2 19/19/2
f 22/22/3 21/21/3 20/20/3
f 21/21/3 22/22/3 23/23/3

usemtl brickLight

f 16/16/3 17/17/3 18/18/3
f 19/19/3 18/18/3 17/17/3
f 25/17/3 20/20/3 24/19/3
f 20/20/3 25/17/3 26/16/3
f 20/20/3 26/16/3 22/22/3
f 22/22/3 26/16/3 23/23/3
f 21/21/3 24/19/3 20/20/3
f 24/19/3 21/21/3 27/18/3
f 27/18/3 21/21/3 23/23/3
f 27/18/3 23/23/3 26/16/3
f 24/26/1 19/25/1 18/24/1
f 19/25/1 24/26/1 27/27/1
f 26/26/4 16/29/4 17/28/4
f 16/29/4 26/26/4 25/27/4
f 24/27/5 16/28/5 25/26/5
f 16/28/5 24/27/5 18/30/5
f 19/31/6 26/27/6 17/29/6
f 26/27/6 19/31/6 27/26/6

usemtl brick

f 24/19/2 20/20/2 25/17/2
f 26/16/2 25/17/2 20/20/2
f 22/22/2 26/16/2 20/20/2
f 23/23/2 26/16/2 22/22/2
f 20/20/2 24/19/2 21/21/2
f 20/20/2 21/21/2 22/22/2
f 23/23/2 22/22/2 21/21/2
f 27/18/2 21/21/2 24/19/2
f 23/23/2 21/21/2 27/18/2
f 26/16/2 23/23/2 27/18/2
f 21/33/1 1/1/1 23/32/1
f 1/1/1 21/33/1 28/34/1
f 1/1/1 28/34/1 3/3/1
f 3/3/1 28/34/1 5/5/1
f 5/5/1 28/34/1 8/8/1
f 8/8/1 28/34/1 10/10/1
f 10/10/1 28/34/1 12/12/1
f 12/12/1 28/34/1 14/14/1
f 14/14/1 28/34/1 15/15/1
f 2/2/1 23/32/1 1/1/1
f 23/32/1 2/2/1 29/35/1
f 29/35/1 15/15/1 28/34/1
f 29/35/1 2/2/1 4/4/1
f 29/35/1 4/4/1 6/6/1
f 29/35/1 6/6/1 7/7/1
f 29/35/1 7/7/1 9/9/1
f 29/35/1 9/9/1 11/11/1
f 29/35/1 11/11/1 13/13/1
f 29/35/1 13/13/1 15/15/1
f 23/33/6 30/35/6 22/32/6
f 30/35/6 23/33/6 29/34/6
f 30/22/3 28/21/3 31/20/3
f 28/21/3 30/22/3 29/23/3
f 18/24/4 19/25/4 24/26/4
f 27/27/4 24/26/4 19/25/4
f 17/28/1 16/29/1 26/26/1
f 25/27/1 26/26/1 16/29/1
f 25/26/6 16/28/6 24/27/6
f 18/30/6 24/27/6 16/28/6
f 28/35/5 20/33/5 31/34/5
f 20/33/5 28/35/5 21/32/5
f 30/34/4 20/32/4 22/33/4
f 20/32/4 30/34/4 31/35/4
f 17/29/5 26/27/5 19/31/5
f 27/26/5 19/31/5 26/27/5

