# Created by Kenney (www.kenney.nl)

mtllib tile_011.mtl

g tile_011

v -0.2950257 0 0.2189407
v -0.2950257 0.4 0.2189407
v -0.2950257 0 0.2950257
v -0.2950257 0.4 0.2950257
v -0.2950257 0 -0.2950257
v -0.2189407 0 -0.2950257
v -0.2950257 0.4 -0.2950257
v -0.2189407 0.4 -0.2950257
v 0.2950257 4.511946E-17 0.2950257
v 0.2189407 4.511946E-17 0.2950257
v 0.2950257 0.4 0.2950257
v 0.2189407 0.4 0.2950257
v -0.2189407 0.4 -0.2189407
v -0.2950257 0.4 -0.2189407
v -0.2189407 0.4 0.2950257
v -0.2189407 0.4 0.2189407
v 0.2950257 0.4 -0.2950257
v 0.2950257 4.511946E-17 -0.2950257
v 0.2950257 0.4 -0.2189407
v 0.2950257 4.511946E-17 -0.2189407
v -0.2950257 0 -0.2189407
v 0.2950257 0.4 0.2189407
v 0.2189407 0.4 0.2189407
v -0.2189407 0 0.2950257
v 0.2950257 4.511946E-17 0.2189407
v 0.2189407 4.511946E-17 -0.2950257
v 0.2189407 0.4 -0.2950257
v 0.2189407 0.4 -0.2189407
v -0.2950257 0.1100316 -0.04
v -0.2950257 0.2422007 -0.04087734
v -0.2950257 0.1100316 0.04
v -0.2950257 0.2300316 0.04
v -0.2950257 0.2422007 0.04087734
v -0.2950257 0.2540891 -0.03813494
v -0.2950257 0.2646441 -0.03201562
v -0.2950257 0.2729312 -0.02306127
v -0.2950257 0.2782164 -0.01206482
v -0.2950257 0.2800317 -2.165734E-15
v -0.2950257 0.2782164 0.01206482
v -0.2950257 0.2729312 0.02306127
v -0.2950257 0.2646441 0.03201562
v -0.2950257 0.2540891 0.03813494
v -0.2950257 0.2300316 -0.04

vn -1 0 0
vn 0 0 -1
vn 0 0 1
vn 0 1 0
vn 1 0 0
vn 0 -1 0

vt 8.619712 -1.048142E-14
vt 8.619712 15.74803
vt 11.61519 -1.048142E-14
vt 11.61519 15.74803
vt 11.61519 0
vt 8.619712 0
vt 11.61519 1.776357E-15
vt 8.619712 1.776357E-15
vt 8.619712 -11.61519
vt 8.619712 -8.619712
vt 11.61519 -11.61519
vt 11.61519 -8.619712
vt 8.619712 11.61519
vt 11.61519 11.61519
vt 8.619712 8.619712
vt 11.61519 8.619712
vt 11.61519 2.273919E-14
vt 8.619712 2.273919E-14
vt -11.61519 1.048142E-14
vt -11.61519 15.74803
vt -8.619712 1.048142E-14
vt -8.619712 15.74803
vt -11.61519 8.619712
vt -11.61519 11.61519
vt -8.619712 8.619712
vt -8.619712 11.61519
vt -8.619712 0
vt -11.61519 0
vt -8.619712 2.273919E-14
vt -11.61519 2.273919E-14
vt -8.619712 1.776357E-15
vt -11.61519 1.776357E-15
vt -11.61519 -8.619712
vt -8.619712 -8.619712
vt -11.61519 -11.61519
vt -8.619712 -11.61519
vt -1.574803 4.331954
vt -1.609344 9.53546
vt 1.574803 4.331954
vt 1.574803 9.056364
vt 1.609344 9.53546
vt -1.501375 10.00351
vt -1.260458 10.41906
vt -0.9079242 10.74532
vt -0.4749928 10.9534
vt -6.277917E-13 11.02487
vt 0.4749928 10.9534
vt 0.9079242 10.74532
vt 1.260458 10.41906
vt 1.501375 10.00351
vt -1.574803 9.056364

usemtl brickLight

f 3/3/1 2/2/1 1/1/1
f 2/2/1 3/3/1 4/4/1
f 7/4/2 6/6/2 5/5/2
f 6/6/2 7/4/2 8/2/2
f 11/4/3 10/8/3 9/7/3
f 10/8/3 11/4/3 12/2/3
f 7/11/4 13/10/4 8/9/4
f 13/10/4 7/11/4 14/12/4
f 16/15/4 4/14/4 15/13/4
f 4/14/4 16/15/4 2/16/4
f 19/2/5 18/17/5 17/4/5
f 18/17/5 19/2/5 20/18/5
f 21/21/1 7/20/1 5/19/1
f 7/20/1 21/21/1 14/22/1
f 23/25/4 11/24/4 22/23/4
f 11/24/4 23/25/4 12/26/4
f 15/22/3 3/28/3 24/27/3
f 3/28/3 15/22/3 4/20/3
f 11/20/5 25/29/5 22/22/5
f 25/29/5 11/20/5 9/30/5
f 27/22/2 18/32/2 26/31/2
f 18/32/2 27/22/2 17/20/2
f 17/35/4 28/34/4 19/33/4
f 28/34/4 17/35/4 27/36/4

usemtl brick

f 10/13/6 25/16/6 9/14/6
f 25/16/6 10/13/6 20/12/6
f 20/12/6 10/13/6 18/11/6
f 18/11/6 10/13/6 26/9/6
f 26/9/6 10/13/6 24/26/6
f 26/9/6 24/26/6 6/36/6
f 6/36/6 24/26/6 3/24/6
f 6/36/6 3/24/6 5/35/6
f 5/35/6 3/24/6 1/23/6
f 5/35/6 1/23/6 21/33/6
f 19/33/4 23/25/4 22/23/4
f 23/25/4 19/33/4 28/34/4
f 23/25/4 28/34/4 12/26/4
f 12/26/4 28/34/4 15/13/4
f 15/13/4 28/34/4 27/36/4
f 15/13/4 27/36/4 16/15/4
f 16/15/4 27/36/4 8/9/4
f 16/15/4 8/9/4 13/10/4
f 16/15/4 13/10/4 2/16/4
f 2/16/4 13/10/4 14/12/4
f 8/2/2 26/31/2 6/6/2
f 26/31/2 8/2/2 27/22/2
f 10/8/3 15/22/3 24/27/3
f 15/22/3 10/8/3 12/2/3
f 21/21/1 29/37/1 14/22/1
f 29/37/1 21/21/1 1/1/1
f 14/22/1 29/37/1 30/38/1
f 29/37/1 1/1/1 31/39/1
f 31/39/1 1/1/1 32/40/1
f 32/40/1 1/1/1 33/41/1
f 34/42/1 14/22/1 30/38/1
f 35/43/1 14/22/1 34/42/1
f 36/44/1 14/22/1 35/43/1
f 14/22/1 36/44/1 2/2/1
f 2/2/1 33/41/1 1/1/1
f 2/2/1 36/44/1 37/45/1
f 2/2/1 37/45/1 38/46/1
f 2/2/1 38/46/1 39/47/1
f 2/2/1 39/47/1 40/48/1
f 2/2/1 40/48/1 41/49/1
f 2/2/1 41/49/1 42/50/1
f 2/2/1 42/50/1 33/41/1
f 43/51/1 30/38/1 29/37/1
f 22/22/5 20/18/5 19/2/5
f 20/18/5 22/22/5 25/29/5

usemtl grey

f 31/39/1 43/51/1 29/37/1
f 43/51/1 31/39/1 34/42/1
f 34/42/1 31/39/1 35/43/1
f 35/43/1 31/39/1 36/44/1
f 36/44/1 31/39/1 37/45/1
f 37/45/1 31/39/1 38/46/1
f 38/46/1 31/39/1 39/47/1
f 39/47/1 31/39/1 40/48/1
f 40/48/1 31/39/1 41/49/1
f 41/49/1 31/39/1 42/50/1
f 42/50/1 31/39/1 32/40/1
f 42/50/1 32/40/1 33/41/1
f 34/42/1 30/38/1 43/51/1

