# Created by Kenney (www.kenney.nl)

mtllib tile_032.mtl

g tile_032

v -0.2950257 0.13 -0.2950257
v -0.2950257 0.4 -0.2950257
v -0.2950257 0.13 0.2950257
v -0.2950257 0.4 0.2950257
v 0.2950257 0.13 0.2950257
v 0.2950257 0.13 -0.2950257
v 0.2950257 0.4 -0.2950257
v 0.2950257 0.4 0.2950257
v -0.2950257 0 0.2950257
v 0.2950257 0 0.2950257
v 0.2950257 4.511946E-17 -0.2950257
v -0.2950257 4.511946E-17 -0.2950257

vn -1 0 0
vn 0 -1 0
vn 1 0 0
vn 0 0 -1
vn 0 0 1
vn 0 1 0

vt -11.61519 5.11811
vt -11.61519 15.74803
vt 11.61519 5.11811
vt 11.61519 15.74803
vt 11.61519 -11.61519
vt -11.61519 11.61519
vt -11.61519 -11.61519
vt 11.61519 11.61519
vt -11.61519 0
vt 11.61519 0
vt -11.61519 1.776357E-15
vt 11.61519 1.776357E-15
vt -11.61519 -8.90008E-30
vt 11.61519 2.966693E-30

usemtl brick

f 3/3/1 2/2/1 1/1/1
f 2/2/1 3/3/1 4/4/1
f 6/7/2 5/6/2 1/5/2
f 3/8/2 1/5/2 5/6/2
f 8/2/3 6/3/3 7/4/3
f 6/3/3 8/2/3 5/1/3
f 10/10/4 9/9/4 5/3/4
f 3/1/4 5/3/4 9/9/4
f 12/12/5 11/11/5 1/3/5
f 6/1/5 1/3/5 11/11/5
f 2/4/4 6/1/4 1/3/4
f 6/1/4 2/4/4 7/2/4
f 6/3/1 11/12/1 5/1/1
f 10/13/1 5/1/1 11/12/1
f 2/5/6 8/6/6 7/7/6
f 8/6/6 2/5/6 4/8/6
f 8/4/5 3/1/5 5/3/5
f 3/1/5 8/4/5 4/2/5
f 12/11/3 1/1/3 9/14/3
f 3/3/3 9/14/3 1/1/3

usemtl _defaultMat

f 1/5/6 5/6/6 6/7/6
f 5/6/6 1/5/6 3/8/6
f 10/8/2 12/7/2 11/5/2
f 12/7/2 10/8/2 9/6/2

usemtl brickLight

f 11/5/6 12/7/6 10/8/6
f 9/6/6 10/8/6 12/7/6
f 5/3/5 9/9/5 10/10/5
f 9/9/5 5/3/5 3/1/5
f 1/3/4 11/11/4 12/12/4
f 11/11/4 1/3/4 6/1/4
f 5/1/3 11/12/3 6/3/3
f 11/12/3 5/1/3 10/13/3
f 9/14/1 1/1/1 12/11/1
f 1/1/1 9/14/1 3/3/1

