# Created by Kenney (www.kenney.nl)

mtllib tile_028.mtl

g tile_028

v -0.2950257 0 -0.2950257
v -0.2950257 0.15 -0.2950257
v -0.2950257 0 0.2950257
v -0.2950257 0.15 0.2950257
v 0.2950257 4.511946E-17 0.2950257
v 0.2950257 0.15 0.2950257
v 0.2950257 4.511946E-17 -0.2950257
v 0.2950257 0.15 -0.2950257
v 0.05419797 0.4926 0.2297939
v 0.05419797 0.403 0.2297939
v 0.05419797 0.4926 0.3304288
v 0.05419797 0.403 0.3304288
v -0.2297939 0.403 -0.3304288
v 0.2297939 0.403 -0.3304288
v -0.05419797 0.403 -0.3304288
v 0.05419797 0.403 -0.3304288
v -0.05419797 0.4926 -0.3304288
v 0.05419797 0.4926 -0.3304288
v 0.3304288 0.2574 -0.3304288
v 0.3304288 0.4926 -0.3304288
v 0.2297939 0.4926 -0.3304288
v -0.3304288 0.2574 -0.3304288
v -0.3304288 0.4926 -0.3304288
v -0.2297939 0.4926 -0.3304288
v 0.05419797 0.4926 -0.2297939
v -0.05419797 0.4926 -0.2297939
v -0.2297939 0.403 0.05419797
v -0.3304288 0.403 0.05419797
v -0.2297939 0.4926 0.05419797
v -0.3304288 0.4926 0.05419797
v 0.2297939 0.3246 -0.2297939
v 0.2297939 0.403 -0.2297939
v 0.2297939 0.3246 0.2297939
v 0.2297939 0.403 -0.05419797
v 0.2297939 0.403 0.05419797
v 0.2297939 0.4926 -0.05419797
v 0.2297939 0.403 0.2297939
v 0.2297939 0.4926 0.05419797
v 0.2297939 0.2686 0.2297939
v 0.2297939 0.2686 -0.2297939
v 0.2297939 0.4926 -0.2297939
v 0.2297939 0.4926 0.2297939
v 0.2297939 0.403 0.3304288
v 0.2297939 0.4926 0.3304288
v -0.2297939 0.4926 -0.05419797
v -0.2297939 0.403 -0.05419797
v -0.2297939 0.3246 0.2297939
v -0.2297939 0.3246 -0.2297939
v -0.2297939 0.403 -0.2297939
v -0.2297939 0.403 0.2297939
v -0.2297939 0.2686 -0.2297939
v -0.2297939 0.2686 0.2297939
v -0.2297939 0.4926 -0.2297939
v -0.2297939 0.4926 0.2297939
v -0.2297939 0.4926 0.3304288
v -0.2297939 0.403 0.3304288
v 0.3304288 0.403 -0.2297939
v 0.3304288 0.4926 -0.2297939
v 0.05419797 0.403 -0.2297939
v -0.05419797 0.403 -0.2297939
v -0.3304288 0.403 -0.2297939
v -0.3304288 0.4926 -0.2297939
v 0.3304288 0.4926 -0.05419797
v 0.3304288 0.4926 0.05419797
v -0.05419797 0.403 0.2297939
v -0.05419797 0.4926 0.2297939
v -0.3304288 0.403 0.2297939
v -0.3304288 0.4926 0.2297939
v 0.3304288 0.403 0.2297939
v 0.3304288 0.4926 0.2297939
v -0.3304288 0.4926 0.3304288
v -0.3304288 0.2574 0.3304288
v 0.3304288 0.2574 0.3304288
v 0.3304288 0.403 -0.05419797
v -0.05419797 0.4926 0.3304288
v 0.3304288 0.403 0.05419797
v -0.05419797 0.403 0.3304288
v -0.3304288 0.4926 -0.05419797
v -0.3304288 0.403 -0.05419797
v 0.3304288 0.4926 0.3304288

vn -1 0 0
vn 1 0 0
vn 0 0 1
vn 0 0 -1
vn 0 -1 0
vn 0 1 0
vn 0 -0.3130671 0.9497311
vn 0 -0.3130671 -0.9497311
vn 0.9497311 -0.3130671 0
vn -0.9497311 -0.3130671 0

vt -11.61519 0
vt -11.61519 5.905512
vt 11.61519 0
vt 11.61519 5.905512
vt -11.61519 -2.517098E-29
vt 11.61519 1.776357E-15
vt 11.61519 11.61519
vt 11.61519 -11.61519
vt -11.61519 11.61519
vt -11.61519 -11.61519
vt -11.61519 1.776357E-15
vt 11.61519 1.671237E-30
vt -9.047006 19.3937
vt -9.047006 15.86614
vt -13.00901 19.3937
vt -13.00901 15.86614
vt 9.047006 15.86614
vt 2.133779 15.86614
vt -2.133779 15.86614
vt 2.133779 19.3937
vt -2.133779 19.3937
vt -13.00901 10.13386
vt 13.00901 10.13386
vt 13.00901 19.3937
vt 9.047006 19.3937
vt -2.133779 -13.00901
vt -2.133779 -9.047006
vt 2.133779 -13.00901
vt 2.133779 -9.047006
vt -9.047006 12.77953
vt 9.047006 12.77953
vt 9.047006 10.5748
vt -9.047006 10.5748
vt 13.00901 15.86614
vt -13.00901 -2.133779
vt -13.00901 2.133779
vt -9.047006 -2.133779
vt -9.047006 2.133779
vt 9.047006 9.047006
vt 9.047006 13.00901
vt 13.00901 9.047006
vt 13.00901 13.00901
vt -11.61519 9.24498
vt -13.00901 13.69713
vt 11.61519 9.24498
vt 13.00901 13.69713
vt -9.047006 -9.047006
vt -9.047006 -13.00901
vt -13.00901 -9.047006
vt -2.133779 9.047006
vt -2.133779 13.00901
vt 2.133779 9.047006
vt 2.133779 13.00901
vt -9.047006 9.047006
vt -9.047006 13.00901
vt -13.00901 9.047006
vt 9.047006 2.133779
vt 13.00901 2.133779
vt -13.00901 -13.00901
vt 9.047006 -2.133779
vt 13.00901 -2.133779
vt 9.047006 -9.047006
vt 13.00901 -9.047006
vt 9.047006 -13.00901
vt 13.00901 -13.00901
vt -13.00901 13.00901

usemtl brickLight

f 3/3/1 2/2/1 1/1/1
f 2/2/1 3/3/1 4/4/1
f 1/1/2 2/2/2 3/3/2
f 4/4/2 3/3/2 2/2/2
f 5/6/3 4/2/3 3/5/3
f 4/2/3 5/6/3 6/4/3
f 3/5/4 4/2/4 5/6/4
f 6/4/4 5/6/4 4/2/4
f 3/9/5 7/8/5 5/7/5
f 7/8/5 3/9/5 1/10/5
f 5/7/6 7/8/6 3/9/6
f 1/10/6 3/9/6 7/8/6
f 6/2/2 7/6/2 8/4/2
f 7/6/2 6/2/2 5/11/2
f 8/4/1 7/6/1 6/2/1
f 5/11/1 6/2/1 7/6/1
f 2/4/4 7/11/4 1/12/4
f 7/11/4 2/4/4 8/2/4
f 1/12/3 7/11/3 2/4/3
f 8/2/3 2/4/3 7/11/3

usemtl brick

f 11/15/2 10/14/2 9/13/2
f 10/14/2 11/15/2 12/16/2
f 15/18/4 14/14/4 13/17/4
f 14/14/4 15/18/4 16/19/4
f 16/19/4 15/18/4 17/20/4
f 16/19/4 17/20/4 18/21/4
f 14/14/4 19/22/4 13/17/4
f 19/22/4 14/14/4 20/15/4
f 20/15/4 14/14/4 21/13/4
f 22/23/4 13/17/4 19/22/4
f 13/17/4 22/23/4 23/24/4
f 13/17/4 23/24/4 24/25/4
f 17/28/6 25/27/6 18/26/6
f 25/27/6 17/28/6 26/29/6
f 29/13/3 28/16/3 27/14/3
f 28/16/3 29/13/3 30/15/3
f 33/31/1 32/14/1 31/30/1
f 32/14/1 33/31/1 34/19/1
f 34/19/1 33/31/1 35/18/1
f 34/19/1 35/18/1 36/21/1
f 35/18/1 33/31/1 37/17/1
f 38/20/1 36/21/1 35/18/1
f 31/30/1 39/32/1 33/31/1
f 39/32/1 31/30/1 40/33/1
f 32/14/1 21/15/1 14/16/1
f 21/15/1 32/14/1 41/13/1
f 43/34/1 42/25/1 37/17/1
f 42/25/1 43/34/1 44/24/1
f 29/21/2 46/18/2 45/20/2
f 27/19/2 46/18/2 29/21/2
f 47/30/2 46/18/2 27/19/2
f 48/31/2 46/18/2 47/30/2
f 46/18/2 48/31/2 49/17/2
f 47/30/2 27/19/2 50/14/2
f 47/30/2 51/32/2 48/31/2
f 51/32/2 47/30/2 52/33/2
f 13/34/2 53/25/2 49/17/2
f 53/25/2 13/34/2 24/24/2
f 55/15/2 50/14/2 54/13/2
f 50/14/2 55/15/2 56/16/2
f 58/24/3 32/17/3 57/34/3
f 32/17/3 58/24/3 41/25/3
f 32/17/3 48/30/3 31/31/3
f 48/30/3 32/17/3 49/14/3
f 49/14/3 32/17/3 59/18/3
f 49/14/3 59/18/3 60/19/3
f 25/20/3 60/19/3 59/18/3
f 60/19/3 25/20/3 26/21/3
f 51/33/3 31/31/3 48/30/3
f 31/31/3 51/33/3 40/32/3
f 53/13/3 61/16/3 49/14/3
f 61/16/3 53/13/3 62/15/3
f 36/37/6 64/36/6 63/35/6
f 64/36/6 36/37/6 38/38/6
f 50/17/4 33/30/4 47/31/4
f 33/30/4 50/17/4 10/19/4
f 10/19/4 50/17/4 65/18/4
f 65/18/4 9/21/4 10/19/4
f 9/21/4 65/18/4 66/20/4
f 37/14/4 33/30/4 10/19/4
f 39/33/4 47/31/4 33/30/4
f 47/31/4 39/33/4 52/32/4
f 68/24/4 50/17/4 67/34/4
f 50/17/4 68/24/4 54/25/4
f 42/13/4 69/16/4 37/14/4
f 69/16/4 42/13/4 70/15/4
f 68/41/6 55/40/6 54/39/6
f 55/40/6 68/41/6 71/42/6
f 6/45/7 72/44/7 4/43/7
f 72/44/7 6/45/7 73/46/7
f 22/46/8 8/43/8 2/45/8
f 8/43/8 22/46/8 19/44/8
f 14/48/6 59/27/6 32/47/6
f 59/27/6 14/48/6 16/26/6
f 32/47/6 74/35/6 57/49/6
f 74/35/6 32/47/6 34/37/6
f 66/52/6 11/51/6 9/50/6
f 11/51/6 66/52/6 75/53/6
f 10/50/6 43/55/6 37/54/6
f 43/55/6 10/50/6 12/51/6
f 69/56/6 35/38/6 37/54/6
f 35/38/6 69/56/6 76/36/6
f 4/9/5 8/8/5 6/7/5
f 8/8/5 4/9/5 2/10/5
f 27/57/6 67/41/6 50/39/6
f 67/41/6 27/57/6 28/58/6
f 50/39/6 77/53/6 65/52/6
f 77/53/6 50/39/6 56/40/6
f 21/48/6 58/49/6 20/59/6
f 58/49/6 21/48/6 41/47/6
f 36/13/4 74/16/4 34/14/4
f 74/16/4 36/13/4 63/15/4
f 78/61/6 29/57/6 45/60/6
f 29/57/6 78/61/6 30/58/6
f 60/14/1 17/15/1 15/16/1
f 17/15/1 60/14/1 26/13/1
f 24/64/6 62/63/6 53/62/6
f 62/63/6 24/64/6 23/65/6
f 22/22/1 61/14/1 23/15/1
f 61/14/1 22/22/1 72/23/1
f 61/14/1 72/23/1 79/19/1
f 79/19/1 72/23/1 28/18/1
f 79/19/1 28/18/1 78/21/1
f 28/18/1 72/23/1 67/17/1
f 67/17/1 72/23/1 68/25/1
f 68/25/1 72/23/1 71/24/1
f 30/20/1 78/21/1 28/18/1
f 62/13/1 23/15/1 61/14/1
f 61/63/6 46/60/6 49/62/6
f 46/60/6 61/63/6 79/61/6
f 15/28/6 49/62/6 60/29/6
f 49/62/6 15/28/6 13/64/6
f 73/44/9 8/45/9 19/46/9
f 8/45/9 73/44/9 6/43/9
f 2/43/10 72/46/10 22/44/10
f 72/46/10 2/43/10 4/45/10
f 77/34/1 66/25/1 65/17/1
f 66/25/1 77/34/1 75/24/1
f 78/24/4 46/17/4 79/34/4
f 46/17/4 78/24/4 45/25/4
f 42/54/6 80/66/6 70/56/6
f 80/66/6 42/54/6 44/55/6
f 25/25/2 16/34/2 18/24/2
f 16/34/2 25/25/2 59/17/2
f 64/24/3 35/17/3 76/34/3
f 35/17/3 64/24/3 38/25/3
f 73/23/3 43/17/3 72/22/3
f 43/17/3 73/23/3 80/24/3
f 72/22/3 43/17/3 12/18/3
f 43/17/3 80/24/3 44/25/3
f 77/19/3 72/22/3 12/18/3
f 11/20/3 77/19/3 12/18/3
f 77/19/3 11/20/3 75/21/3
f 56/14/3 72/22/3 77/19/3
f 72/22/3 56/14/3 71/15/3
f 71/15/3 56/14/3 55/13/3
f 73/42/5 22/59/5 19/65/5
f 22/59/5 73/42/5 72/66/5
f 51/62/6 39/54/6 40/47/6
f 39/54/6 51/62/6 52/39/6
f 64/21/2 74/18/2 63/20/2
f 76/19/2 74/18/2 64/21/2
f 73/22/2 74/18/2 76/19/2
f 73/22/2 57/17/2 74/18/2
f 19/23/2 57/17/2 73/22/2
f 19/23/2 58/25/2 57/17/2
f 58/25/2 19/23/2 20/24/2
f 73/22/2 76/19/2 69/14/2
f 73/22/2 69/14/2 80/15/2
f 80/15/2 69/14/2 70/13/2

usemtl _defaultMat

f 48/16/6 33/13/6 31/15/6
f 33/16/6 48/13/6 47/15/6

g Group

v 0 0.3246 0
v 0 0.5860423 0

vn -0.7919596 0 -0.7919596
vn 0.7919596 0 0.7919596
vn 0 0.6173642 -0.8810788
vn 0 -0.6173642 0.8810788
vn -0.8810788 0.6173642 0
vn 0.8810788 -0.6173642 0
vn 0.8810788 0.6173642 0
vn -0.8810788 -0.6173642 0
vn 0 0.6173642 0.8810788
vn 0 -0.6173642 -0.8810788

vt 11.42357 1.834102E-29
vt 2.411662E-13 1.121796E-29
vt 11.42357 10.293
vt 22.84714 0
vt -2.273737E-13 1.136868E-13
vt -16.15537 0
vt -8.077683 8.077683
vt -16.15537 16.15537
vt 0 16.15537
vt 16.15537 3.485055E-14
vt 2.273737E-13 7.018618E-14
vt 8.077683 13.08415
vt -2.273861E-13 -9.973744
vt 8.077683 3.110402
vt 16.15537 -9.973744
vt -8.077683 13.08415
vt -1.136868E-13 1.403724E-13
vt -16.15537 1.402035E-13
vt 1.703635E-13 -9.973744
vt -16.15537 -9.973744
vt -8.077683 3.110402

usemtl grass

f 82/69/11 31/68/11 81/67/11
f 47/70/11 82/69/11 81/67/11
f 81/67/12 31/68/12 82/69/12
f 81/67/12 82/69/12 47/70/12
f 81/73/5 48/72/5 31/71/5
f 48/72/5 81/73/5 47/74/5
f 31/71/5 47/74/5 81/73/5
f 47/74/5 31/71/5 33/75/5
f 31/71/6 48/72/6 81/73/6
f 47/74/6 81/73/6 48/72/6
f 81/73/6 47/74/6 31/71/6
f 33/75/6 31/71/6 47/74/6
f 82/78/13 31/77/13 48/76/13
f 48/76/14 31/77/14 82/78/14
f 47/81/15 82/80/15 48/79/15
f 48/79/16 82/80/16 47/81/16
f 33/84/17 31/83/17 82/82/17
f 82/82/18 31/83/18 33/84/18
f 82/87/19 47/86/19 33/85/19
f 33/85/20 47/86/20 82/87/20

