# Created by Kenney (www.kenney.nl)

mtllib tile_098.mtl

g tile_098

v 0.5 0.4 -0.5
v 0.5 0.4 0.5
v 0.375 0.4 -0.5
v 0.375 0.4 0.5
v 0.375 0.2 -0.5
v 0.5 0.2 -0.5
v 0.375 0.37 -0.5
v 0.5 0.2 0.5
v 0.375 0.2 0.5
v 0.375 0.37 0.5
v -0.5 0.2 0.375
v -0.5 0.37 0.375
v -0.5 0.2 0.5
v -0.5 0.4 0.375
v -0.5 0.4 0.5
v -0.5 0.2 -0.5
v -0.5 0.4 -0.5
v -0.5 0.2 -0.375
v -0.5 0.4 -0.375
v -0.5 0.37 -0.375
v -0.375 0.4 0.5
v -0.375 0.4 0.375
v -0.375 0.2 0.5
v -0.375 0.37 0.5
v -0.375 0.2 -0.5
v -0.375 0.37 -0.5
v -0.375 0.4 -0.5
v -0.375 0.4 -0.375
v -0.375 0.37 0.375
v 0.5 0 -0.5
v -0.5 0 -0.5
v 0.5 0 0.5
v -0.5 0 0.5
v -0.375 0.37 -0.375

vn 0 1 0
vn 0 0 -1
vn 0 0 1
vn -1 0 0
vn 1 0 0
vn 0 -1 0

vt -19.68504 -19.68504
vt -19.68504 19.68504
vt -14.76378 -19.68504
vt -14.76378 19.68504
vt -14.76378 7.874016
vt -19.68504 7.874016
vt -14.76378 14.56693
vt -19.68504 15.74803
vt -14.76378 15.74803
vt 19.68504 7.874016
vt 14.76378 7.874016
vt 19.68504 15.74803
vt 14.76378 14.56693
vt 14.76378 15.74803
vt 14.76378 19.68504
vt 19.68504 19.68504
vt 14.76378 14.76378
vt 19.68504 14.76378
vt 14.76378 -19.68504
vt 14.76378 -14.76378
vt 19.68504 -19.68504
vt 19.68504 -14.76378
vt 19.68504 14.56693
vt -19.68504 0
vt 19.68504 0
vt -19.68504 14.56693

usemtl grass

f 3/3/1 2/2/1 1/1/1
f 2/2/1 3/3/1 4/4/1
f 7/7/2 6/6/2 5/5/2
f 6/6/2 7/7/2 1/8/2
f 1/8/2 7/7/2 3/9/2
f 2/12/3 9/11/3 8/10/3
f 9/11/3 2/12/3 10/13/3
f 10/13/3 2/12/3 4/14/3
f 13/10/4 12/13/4 11/11/4
f 12/13/4 13/10/4 14/14/4
f 14/14/4 13/10/4 15/12/4
f 2/8/5 6/10/5 1/12/5
f 6/10/5 2/8/5 8/6/5
f 18/5/4 17/8/4 16/6/4
f 17/8/4 18/5/4 19/9/4
f 19/9/4 18/5/4 20/7/4
f 22/17/1 15/16/1 21/15/1
f 15/16/1 22/17/1 14/18/1
f 24/7/3 13/6/3 23/5/3
f 13/6/3 24/7/3 15/8/3
f 15/8/3 24/7/3 21/9/3
f 17/12/2 25/11/2 16/10/2
f 25/11/2 17/12/2 26/13/2
f 26/13/2 17/12/2 27/14/2
f 17/21/1 28/20/1 27/19/1
f 28/20/1 17/21/1 19/22/1

usemtl dirt

f 14/12/2 29/13/2 12/23/2
f 29/13/2 14/12/2 22/14/2
f 5/3/1 8/2/1 6/1/1
f 8/2/1 5/3/1 9/4/1
f 9/4/1 5/3/1 25/19/1
f 9/4/1 25/19/1 23/15/1
f 23/15/1 25/19/1 16/21/1
f 23/15/1 16/21/1 13/16/1
f 13/16/1 16/21/1 18/22/1
f 13/16/1 18/22/1 11/18/1
f 26/13/2 5/5/2 25/11/2
f 5/5/2 26/13/2 7/7/2
f 6/6/2 25/11/2 5/5/2
f 6/6/2 16/10/2 25/11/2
f 30/24/2 16/10/2 6/6/2
f 16/10/2 30/24/2 31/25/2
f 21/8/5 29/7/5 22/9/5
f 29/7/5 21/8/5 24/26/5
f 8/10/3 33/24/3 32/25/3
f 33/24/3 8/10/3 13/6/3
f 13/6/3 8/10/3 9/11/3
f 13/6/3 9/11/3 23/5/3
f 10/13/3 23/5/3 9/11/3
f 23/5/3 10/13/3 24/7/3
f 33/25/4 16/6/4 31/24/4
f 16/6/4 33/25/4 18/5/4
f 18/5/4 33/25/4 11/11/4
f 11/11/4 33/25/4 13/10/4
f 11/11/4 20/7/4 18/5/4
f 20/7/4 11/11/4 12/13/4
f 28/9/3 20/26/3 34/7/3
f 20/26/3 28/9/3 19/8/3
f 28/14/5 26/23/5 27/12/5
f 26/23/5 28/14/5 34/13/5
f 26/19/1 10/4/1 7/3/1
f 10/4/1 26/19/1 29/17/1
f 29/17/1 26/19/1 34/20/1
f 29/17/1 34/20/1 12/18/1
f 12/18/1 34/20/1 20/22/1
f 24/15/1 10/4/1 29/17/1
f 10/23/4 3/8/4 7/26/4
f 3/8/4 10/23/4 4/12/4
f 33/2/6 30/21/6 32/16/6
f 30/21/6 33/2/6 31/1/6
f 8/6/5 30/25/5 6/10/5
f 30/25/5 8/6/5 32/24/5

