# Created by Kenney (www.kenney.nl)

mtllib tile_088.mtl

g tile_088

v -0.5 0.2 -0.5
v -0.375 0.2 -0.5
v -0.5 0.4 -0.5
v -0.375 0.37 -0.5
v -0.375 0.4 -0.5
v 0.5 0.4 -0.5
v 0.5 0.2 -0.5
v 0.5 0.4 0.5
v 0.5 0.2 0.5
v -0.375 0.2 0.5
v -0.5 0.2 0.5
v -0.375 0.37 0.5
v -0.5 0.4 0.5
v -0.375 0.4 0.5
v 0.375 0.2 -0.5
v 0.375 0.37 -0.5
v 0.375 0.4 -0.5
v 0.375 0.2 0.5
v 0.375 0.37 0.5
v 0.375 0.4 0.5
v 0.5 0 0.5
v -0.5 0 0.5
v 0.5 0 -0.5
v -0.5 0 -0.5

vn 0 0 -1
vn 1 0 0
vn 0 0 1
vn 0 1 0
vn -1 0 0
vn 0 -1 0

vt 19.68504 7.874016
vt 14.76378 7.874016
vt 19.68504 15.74803
vt 14.76378 14.56693
vt 14.76378 15.74803
vt -19.68504 15.74803
vt -19.68504 7.874016
vt -14.76378 7.874016
vt -14.76378 14.56693
vt -14.76378 15.74803
vt 14.76378 19.68504
vt 19.68504 19.68504
vt 14.76378 -19.68504
vt 19.68504 -19.68504
vt -19.68504 -19.68504
vt -19.68504 19.68504
vt -14.76378 -19.68504
vt -14.76378 19.68504
vt 19.68504 14.56693
vt -19.68504 14.56693
vt 19.68504 0
vt -19.68504 0

usemtl grass

f 3/3/1 2/2/1 1/1/1
f 2/2/1 3/3/1 4/4/1
f 4/4/1 3/3/1 5/5/1
f 8/6/2 7/1/2 6/3/2
f 7/1/2 8/6/2 9/7/2
f 12/9/3 11/7/3 10/8/3
f 11/7/3 12/9/3 13/6/3
f 13/6/3 12/9/3 14/10/3
f 16/9/1 7/7/1 15/8/1
f 7/7/1 16/9/1 6/6/1
f 6/6/1 16/9/1 17/10/1
f 5/13/4 13/12/4 14/11/4
f 13/12/4 5/13/4 3/14/4
f 11/1/5 3/6/5 1/7/5
f 3/6/5 11/1/5 13/3/5
f 8/3/3 18/2/3 9/1/3
f 18/2/3 8/3/3 19/4/3
f 19/4/3 8/3/3 20/5/3
f 17/17/4 8/16/4 6/15/4
f 8/16/4 17/17/4 20/18/4

usemtl dirt

f 15/17/4 9/16/4 7/15/4
f 9/16/4 15/17/4 18/18/4
f 18/18/4 15/17/4 2/13/4
f 18/18/4 2/13/4 10/11/4
f 10/11/4 2/13/4 1/14/4
f 10/11/4 1/14/4 11/12/4
f 14/6/2 4/19/2 5/3/2
f 4/19/2 14/6/2 12/20/2
f 9/1/3 22/22/3 21/21/3
f 22/22/3 9/1/3 11/7/3
f 11/7/3 9/1/3 18/2/3
f 11/7/3 18/2/3 10/8/3
f 19/4/3 10/8/3 18/2/3
f 10/8/3 19/4/3 12/9/3
f 19/19/5 17/6/5 16/20/5
f 17/6/5 19/19/5 20/3/5
f 9/7/2 23/21/2 7/1/2
f 23/21/2 9/7/2 21/22/2
f 1/1/1 23/22/1 24/21/1
f 23/22/1 1/1/1 7/7/1
f 7/7/1 1/1/1 2/2/1
f 7/7/1 2/2/1 15/8/1
f 4/4/1 15/8/1 2/2/1
f 15/8/1 4/4/1 16/9/1
f 22/21/5 1/7/5 24/22/5
f 1/7/5 22/21/5 11/1/5
f 4/13/4 19/18/4 16/17/4
f 19/18/4 4/13/4 12/11/4
f 22/16/6 23/14/6 21/12/6
f 23/14/6 22/16/6 24/15/6

