# Created by Kenney (www.kenney.nl)

mtllib tile_117.mtl

g Group

v -0.0286783 0.382838 0.05756392
v -0.0286783 0.3525858 0.2552627
v 0.1451884 0.3367866 0.05051705
v 0.1451884 0.3065344 0.2482159
v -0.02109202 0.4692961 0.3004362
v -0.02109202 0.5077163 0.04935873
v 0.1997187 0.4108108 0.2914867
v 0.1997187 0.4492311 0.04040922
v 0.1144893 0.8776579 0.3346591
v 0.1144893 0.9076258 0.1388187
v 0.2867217 0.8320395 0.3276785
v 0.2006055 0.8698326 0.2332486
v 0.2867217 0.8620073 0.1318381
v 0.2264874 0.9653137 0.2478593

vn -0.258819 -0.9548117 -0.1461067
vn 0.258819 0.9548117 0.1461067
vn -0.05681394 -0.3571643 0.9323122
vn -0.9980787 0.0612485 0.009372337
vn -0.05681394 -0.0620213 -0.9964566
vn 0.8953422 -0.4402545 -0.0673684
vn -0.949169 0.311146 0.04761203
vn 0.01678183 0.2128525 -0.9769402
vn 0.01678183 -0.08903249 0.9958873
vn 0.9793883 -0.1996634 -0.0305528
vn 0.7179672 -0.08897701 -0.6903669
vn 0.1821465 0.7794195 -0.5994395
vn 0.1821465 0.5644968 0.8050877
vn 0.8932282 0.4444307 0.06800746
vn -0.5487562 0.8263635 0.1264514

vt -0.9566929 8.937008
vt -0.9566929 1.062992
vt -8.043307 8.937008
vt -8.043307 1.062992
vt 0 0
vt 0 10
vt 9 0
vt 9 10
vt 8.043307 -0.2333397
vt 0.9566929 -0.2333397
vt 9 4.60918
vt -3.85186E-34 4.60918
vt 0.99 1.1
vt 0.99 8.9
vt 8.01 1.1
vt 4.5 5
vt 8.01 8.9
vt -9.62965E-35 4.630425
vt -1.062992 -0.1898764
vt -10 4.630425
vt -8.937008 -0.1898764
vt -0.9566929 1.961782
vt -8.043307 1.961782
vt 2.707446E-17 6.804302
vt -9 6.804302
vt -3.256652E-17 6.416669
vt 10 6.416669
vt 1.062992 1.596368
vt 8.937008 1.596368
vt 0 4.716352
vt -10 4.716352
vt -1.1 21.67441
vt -8.9 21.67441
vt -8.865839E-17 4.066068
vt -9 4.066068
vt -0.99 21.0309
vt -8.01 21.0309
vt 9 4.714468
vt 0 4.714468
vt 8.01 21.6793
vt 0.99 21.6793
vt -6.266989E-17 4.190938
vt 1.1 21.14899
vt 10 4.190938
vt 8.9 21.14899
vt 0.7061294 21.65354
vt -4.540784 21.65354
vt 0.7061294 25.59055
vt 5.953043 21.65354
vt -0.99 9.120036
vt -8.01 9.120036
vt -4.5 14.6617
vt 8.01 16.15763
vt 0.99 16.15763
vt 4.5 21.6993
vt 1.1 10.83236
vt 5 16.10684
vt 8.9 10.83236
vt -5 22.09606
vt -1.1 16.82158
vt -8.9 16.82158

usemtl crystal

f 3/3/1 2/2/1 1/1/1
f 2/2/1 3/3/1 4/4/1
f 7/7/2 6/6/2 5/5/2
f 6/6/2 7/7/2 8/8/2
f 7/11/3 2/10/3 4/9/3
f 2/10/3 7/11/3 5/12/3
f 11/15/2 10/14/2 9/13/2
f 10/14/2 11/15/2 12/16/2
f 12/16/2 13/17/2 10/14/2
f 13/17/2 12/16/2 11/15/2
f 6/20/4 2/19/4 5/18/4
f 2/19/4 6/20/4 1/21/4
f 6/24/5 3/23/5 1/22/5
f 3/23/5 6/24/5 8/25/5
f 4/28/6 8/27/6 7/26/6
f 8/27/6 4/28/6 3/29/6
f 9/32/7 6/31/7 5/30/7
f 6/31/7 9/32/7 10/33/7
f 10/36/8 8/35/8 6/34/8
f 8/35/8 10/36/8 13/37/8
f 11/40/9 5/39/9 7/38/9
f 5/39/9 11/40/9 9/41/9
f 8/44/10 11/43/10 7/42/10
f 11/43/10 8/44/10 13/45/10
f 14/48/11 11/47/11 12/46/11
f 10/49/11 14/48/11 12/46/11
f 14/52/12 13/51/12 10/50/12
f 14/55/13 9/54/13 11/53/13
f 13/58/14 14/57/14 11/56/14
f 10/61/15 9/60/15 14/59/15

g Group

v -0.0742121 0.284463 -0.181352
v -0.0742121 0.3362268 0.01183324
v 0.1025996 0.3170424 -0.1900816
v 0.1025996 0.3688062 0.003103621
v -0.1205674 0.4526747 0.00858357
v -0.1205674 0.3869347 -0.2367616
v 0.1039834 0.4940505 -0.002503037
v 0.1039834 0.4283105 -0.2478482
v -0.1764408 0.8579859 -0.1289448
v -0.1764408 0.8067086 -0.320314
v -0.001291119 0.8902589 -0.1375924
v -0.08886596 0.8484838 -0.2289532
v -0.001291119 0.8389817 -0.3289616
v -0.1076041 0.9433653 -0.2543767

vn 0.1873813 -0.9488167 0.2542346
vn -0.1873813 0.9488167 -0.2542346
vn 0.04113248 0.04422954 0.9981744
vn -0.9255564 -0.3657089 0.09799141
vn 0.04113248 -0.4607832 -0.8865592
vn 0.9999361 -0.01091734 0.002925292
vn -0.9915512 -0.1252965 0.03357308
vn -0.01214981 -0.1967531 -0.9803779
vn -0.0121498 0.3197956 0.9474086
vn 0.9696728 0.2360791 -0.06325719
vn 0.7301284 -0.03860718 -0.6822185
vn -0.1318714 0.4838642 -0.8651506
vn -0.1318714 0.8516139 0.5073103
vn 0.6085082 0.766508 -0.2053852
vn -0.857901 0.4963072 -0.1329851


usemtl crystal

f 17/3/16 16/2/16 15/1/16
f 16/2/16 17/3/16 18/4/16
f 21/7/17 20/6/17 19/5/17
f 20/6/17 21/7/17 22/8/17
f 21/11/18 16/10/18 18/9/18
f 16/10/18 21/11/18 19/12/18
f 25/15/17 24/14/17 23/13/17
f 24/14/17 25/15/17 26/16/17
f 26/16/17 27/17/17 24/14/17
f 27/17/17 26/16/17 25/15/17
f 20/20/19 16/19/19 19/18/19
f 16/19/19 20/20/19 15/21/19
f 20/24/20 17/23/20 15/22/20
f 17/23/20 20/24/20 22/25/20
f 18/28/21 22/27/21 21/26/21
f 22/27/21 18/28/21 17/29/21
f 23/32/22 20/31/22 19/30/22
f 20/31/22 23/32/22 24/33/22
f 24/36/23 22/35/23 20/34/23
f 22/35/23 24/36/23 27/37/23
f 25/40/24 19/39/24 21/38/24
f 19/39/24 25/40/24 23/41/24
f 22/44/25 25/43/25 21/42/25
f 25/43/25 22/44/25 27/45/25
f 28/48/26 25/47/26 26/46/26
f 24/49/26 28/48/26 26/46/26
f 28/52/27 27/51/27 24/50/27
f 28/55/28 23/54/28 25/53/28
f 27/58/29 28/57/29 25/56/29
f 24/61/30 23/60/30 28/59/30

g Group

v -0.5 0 -0.5
v 0.5 0 -0.5
v -0.5 0.2 -0.5
v 0.5 0.2 -0.5
v 0.5 0 0.5
v -0.5 0 0.5
v 0.5 0.2 0.5
v -0.5 0.2 0.5
v 0.5 0.4 0.5
v -0.5 0.4 0.5
v 0.5 0.4 -0.5
v -0.5 0.4 -0.5

vn -3.382017E-14 0 -1
vn 3.382017E-14 0 1
vn -1 0 3.382017E-14
vn 1 0 -3.382017E-14
vn 0 1 0
vn 0 -1 0

vt -39.37008 0
vt 0 7.874016
vt -39.37008 7.874016
vt 39.37008 0
vt 2.273737E-13 0
vt 39.37008 7.874016
vt 2.273737E-13 7.874016
vt 5.684342E-14 0
vt 5.684342E-14 7.874016
vt 0 39.37008
vt 39.37008 39.37008
vt 39.37008 5.684342E-14
vt -2.273737E-13 0
vt -39.37008 39.37008
vt -39.37008 5.684342E-14
vt 39.37008 15.74803
vt 2.273737E-13 15.74803
vt 5.684342E-14 15.74803
vt -6.252776E-16 39.37008
vt 2.267484E-13 -1.776357E-16
vt 39.37008 5.666578E-14
vt 0 15.74803
vt -39.37008 15.74803
vt 4.317861E-14 15.74803

usemtl dirt

f 31/63/31 30/62/31 29/5/31
f 30/62/31 31/63/31 32/64/31
f 35/67/32 34/66/32 33/65/32
f 34/66/32 35/67/32 36/68/32
f 31/64/33 34/5/33 36/63/33
f 34/5/33 31/64/33 29/62/33
f 30/65/34 35/70/34 33/69/34
f 35/70/34 30/65/34 32/67/34
f 36/66/35 32/72/35 31/71/35
f 32/72/35 36/66/35 35/73/35
f 30/75/36 34/74/36 29/71/36
f 34/74/36 30/75/36 33/76/36

usemtl grass

f 37/77/32 36/68/32 35/67/32
f 36/68/32 37/77/32 38/78/32
f 32/67/34 37/79/34 35/70/34
f 37/79/34 32/67/34 39/77/34
f 38/81/35 39/72/35 40/80/35
f 39/72/35 38/81/35 37/82/35
f 40/84/33 36/63/33 38/83/33
f 36/63/33 40/84/33 31/64/33
f 40/85/31 32/64/31 31/63/31
f 32/64/31 40/85/31 39/84/31

