# Created by Kenney (www.kenney.nl)

mtllib tile_025.mtl

g tile_025

v 0.2051731 0.28 -0.2051731
v 0.2051731 0.33 -0.2051731
v 0.2051731 0.28 0.2051731
v 0.2051731 0.33 0.2051731
v 0.2051731 0.4 -0.2051731
v 0.2051731 0.4 -0.04839105
v 0.2051731 0.4 0.04839105
v 0.2051731 0.48 -0.04839105
v 0.2051731 0.4 0.2051731
v 0.2051731 0.48 0.04839105
v 0.2051731 0.4 -0.2950257
v 0.2051731 0.48 -0.2950257
v 0.2051731 0.48 -0.2051731
v 0.2051731 0.48 0.2051731
v 0.2051731 0.4 0.2950257
v 0.2051731 0.48 0.2950257
v 0.04839105 0.4 0.2051731
v 0.04839105 0.4 0.2950257
v 0.2950257 0.4 0.2051731
v 0.2950257 0.4 0.04839105
v 0.2950257 0.48 -0.04839105
v 0.2950257 0.4 -0.04839105
v 0.2950257 0.48 0.04839105
v 0.2950257 0 0.2950257
v 0.2950257 0.4 -0.2051731
v 0.2950257 4.511946E-17 -0.2950257
v 0.2950257 0.48 -0.2051731
v 0.2950257 0.48 -0.2950257
v 0.2950257 0.48 0.2950257
v 0.2950257 0.48 0.2051731
v -0.2051731 0.4 -0.2950257
v -0.04839105 0.4 -0.2950257
v 0.04839105 0.4 -0.2950257
v -0.04839105 0.48 -0.2950257
v 0.04839105 0.48 -0.2950257
v -0.2950257 4.511946E-17 -0.2950257
v -0.2950257 0.48 -0.2950257
v -0.2051731 0.48 -0.2950257
v -0.2051731 0.28 -0.2051731
v -0.2051731 0.28 0.2051731
v 0.04839105 0.4 -0.2051731
v -0.04839105 0.4 -0.2051731
v -0.2051731 0.4 -0.2051731
v -0.2051731 0.4 -0.04839105
v -0.2950257 0.4 -0.2051731
v -0.2950257 0.4 -0.04839105
v -0.2950257 0.48 -0.04839105
v -0.2051731 0.48 -0.04839105
v 0.04839105 0.48 -0.2051731
v -0.04839105 0.48 -0.2051731
v -0.2051731 0.33 -0.2051731
v -0.2051731 0.48 -0.2051731
v -0.2950257 0.48 -0.2051731
v -0.2051731 0.48 0.2051731
v -0.2051731 0.4 0.2051731
v -0.2051731 0.48 0.2950257
v -0.2051731 0.4 0.2950257
v -0.2051731 0.4 0.04839105
v -0.2051731 0.33 0.2051731
v -0.2051731 0.48 0.04839105
v -0.2950257 0.4 0.2051731
v -0.2950257 0.48 0.2051731
v -0.04839105 0.4 0.2051731
v 0.04839105 0.48 0.2051731
v -0.04839105 0.48 0.2051731
v 0.04839105 0.48 0.2950257
v -0.2950257 0.4 0.04839105
v -0.2950257 0.48 0.04839105
v -0.2950257 0.48 0.2950257
v -0.04839105 0.4 0.2950257
v -0.04839105 0.48 0.2950257
v -0.2950257 0 0.2950257

vn -1 0 0
vn 0 1 0
vn 1 0 0
vn 0 0 -1
vn 0 0 1
vn 0 -1 0

vt -8.077683 11.02362
vt -8.077683 12.99213
vt 8.077683 11.02362
vt 8.077683 12.99213
vt -8.077683 15.74803
vt -1.905159 15.74803
vt 1.905159 15.74803
vt -1.905159 18.89764
vt 8.077683 15.74803
vt 1.905159 18.89764
vt -11.61519 15.74803
vt -11.61519 18.89764
vt -8.077683 18.89764
vt 8.077683 18.89764
vt 11.61519 15.74803
vt 11.61519 18.89764
vt -8.077683 8.077683
vt -8.077683 11.61519
vt -1.905159 8.077683
vt -1.905159 11.61519
vt -8.077683 1.905159
vt -11.61519 8.077683
vt -11.61519 1.905159
vt -11.61519 1.735082E-29
vt 11.61519 1.776357E-15
vt -11.61519 1.776357E-15
vt -8.077683 -8.077683
vt 8.077683 -8.077683
vt 8.077683 8.077683
vt -1.905159 -8.077683
vt -8.077683 -11.61519
vt -1.905159 -11.61519
vt -11.61519 -8.077683
vt -11.61519 -1.905159
vt -8.077683 -1.905159
vt 1.905159 -11.61519
vt 1.905159 -8.077683
vt 8.077683 -11.61519
vt 8.077683 -1.905159
vt 11.61519 -8.077683
vt 11.61519 -1.905159
vt 11.61519 -11.61519
vt 8.077683 1.905159
vt 11.61519 1.905159
vt 8.077683 11.61519
vt 11.61519 8.077683
vt 11.61519 11.61519
vt 1.905159 8.077683
vt 1.905159 11.61519
vt -11.61519 -11.61519
vt -11.61519 8.881784E-16
vt 11.61519 8.881784E-16
vt 11.61519 2.362873E-28
vt -11.61519 11.61519

usemtl brick

f 3/3/1 2/2/1 1/1/1
f 2/2/1 3/3/1 4/4/1
f 4/4/1 5/5/1 2/2/1
f 5/5/1 4/4/1 6/6/1
f 6/6/1 4/4/1 7/7/1
f 6/6/1 7/7/1 8/8/1
f 7/7/1 4/4/1 9/9/1
f 10/10/1 8/8/1 7/7/1
f 5/5/1 12/12/1 11/11/1
f 12/12/1 5/5/1 13/13/1
f 15/15/1 14/14/1 9/9/1
f 14/14/1 15/15/1 16/16/1
f 17/19/2 15/18/2 9/17/2
f 15/18/2 17/19/2 18/20/2
f 19/22/2 7/21/2 9/17/2
f 7/21/2 19/22/2 20/23/2
f 23/8/3 22/7/3 21/10/3
f 20/6/3 22/7/3 23/8/3
f 24/24/3 22/7/3 20/6/3
f 24/24/3 25/9/3 22/7/3
f 26/25/3 25/9/3 24/24/3
f 26/25/3 27/14/3 25/9/3
f 27/14/3 26/25/3 28/16/3
f 24/24/3 20/6/3 19/5/3
f 24/24/3 19/5/3 29/12/3
f 29/12/3 19/5/3 30/13/3
f 32/7/4 11/5/4 31/9/4
f 11/5/4 32/7/4 33/6/4
f 33/6/4 32/7/4 34/10/4
f 33/6/4 34/10/4 35/8/4
f 11/5/4 26/26/4 31/9/4
f 26/26/4 11/5/4 28/12/4
f 28/12/4 11/5/4 12/13/4
f 36/25/4 31/9/4 26/26/4
f 31/9/4 36/25/4 37/16/4
f 31/9/4 37/16/4 38/14/4
f 39/28/2 3/17/2 1/27/2
f 3/17/2 39/28/2 40/29/2
f 11/31/2 41/30/2 5/27/2
f 41/30/2 11/31/2 33/32/2
f 5/27/2 22/34/2 25/33/2
f 22/34/2 5/27/2 6/35/2
f 31/38/2 42/37/2 32/36/2
f 42/37/2 31/38/2 43/28/2
f 45/40/2 44/39/2 43/28/2
f 44/39/2 45/40/2 46/41/2
f 23/16/5 7/9/5 20/15/5
f 7/9/5 23/16/5 10/14/5
f 8/13/4 22/11/4 6/5/4
f 22/11/4 8/13/4 21/12/4
f 47/16/4 44/9/4 46/15/4
f 44/9/4 47/16/4 48/14/4
f 49/10/5 42/6/5 41/7/5
f 42/6/5 49/10/5 50/8/5
f 43/5/5 41/7/5 42/6/5
f 43/5/5 5/9/5 41/7/5
f 51/2/5 5/9/5 43/5/5
f 5/9/5 51/2/5 2/4/5
f 39/1/5 2/4/5 51/2/5
f 2/4/5 39/1/5 1/3/5
f 52/13/5 45/11/5 43/5/5
f 45/11/5 52/13/5 53/12/5
f 27/16/5 5/9/5 25/15/5
f 5/9/5 27/16/5 13/14/5
f 56/12/3 55/5/3 54/13/3
f 55/5/3 56/12/3 57/11/3
f 59/2/3 58/6/3 55/5/3
f 59/2/3 44/7/3 58/6/3
f 51/4/3 44/7/3 59/2/3
f 44/7/3 51/4/3 43/9/3
f 58/6/3 44/7/3 60/8/3
f 60/8/3 44/7/3 48/10/3
f 59/2/3 39/3/3 51/4/3
f 39/3/3 59/2/3 40/1/3
f 31/15/3 52/14/3 43/9/3
f 52/14/3 31/15/3 38/16/3
f 62/16/4 55/9/4 61/15/4
f 55/9/4 62/16/4 54/14/4
f 55/9/4 4/2/4 59/4/4
f 3/1/4 59/4/4 4/2/4
f 59/4/4 3/1/4 40/3/4
f 4/2/4 55/9/4 17/6/4
f 17/6/4 55/9/4 63/7/4
f 63/7/4 64/8/4 17/6/4
f 64/8/4 63/7/4 65/10/4
f 9/5/4 4/2/4 17/6/4
f 14/13/4 19/11/4 9/5/4
f 19/11/4 14/13/4 30/12/4
f 38/38/2 53/40/2 52/28/2
f 53/40/2 38/38/2 37/42/2
f 66/12/3 17/5/3 64/13/3
f 17/5/3 66/12/3 18/11/3
f 60/13/5 67/11/5 58/5/5
f 67/11/5 60/13/5 68/12/5
f 8/35/2 23/23/2 21/34/2
f 23/23/2 8/35/2 10/21/2
f 34/36/2 49/30/2 35/32/2
f 49/30/2 34/36/2 50/37/2
f 47/41/2 60/43/2 48/39/2
f 60/43/2 47/41/2 68/44/2
f 62/46/2 56/45/2 54/29/2
f 56/45/2 62/46/2 69/47/2
f 42/5/1 34/12/1 32/11/1
f 34/12/1 42/5/1 50/13/1
f 70/15/1 65/14/1 63/9/1
f 65/14/1 70/15/1 71/16/1
f 49/14/3 33/15/3 35/16/3
f 33/15/3 49/14/3 41/9/3
f 55/29/2 70/49/2 63/48/2
f 70/49/2 55/29/2 57/45/2
f 58/43/2 61/46/2 55/29/2
f 61/46/2 58/43/2 67/44/2
f 65/48/2 66/20/2 64/19/2
f 66/20/2 65/48/2 71/49/2
f 12/31/2 27/33/2 28/50/2
f 27/33/2 12/31/2 13/27/2
f 24/52/5 15/9/5 72/51/5
f 15/9/5 24/52/5 29/16/5
f 72/51/5 15/9/5 18/7/5
f 15/9/5 29/16/5 16/14/5
f 70/6/5 72/51/5 18/7/5
f 66/10/5 70/6/5 18/7/5
f 70/6/5 66/10/5 71/8/5
f 57/5/5 72/51/5 70/6/5
f 72/51/5 57/5/5 69/12/5
f 69/12/5 57/5/5 56/13/5
f 36/26/1 45/5/1 37/12/1
f 45/5/1 36/26/1 72/53/1
f 45/5/1 72/53/1 46/6/1
f 46/6/1 72/53/1 47/8/1
f 47/8/1 72/53/1 67/7/1
f 67/7/1 72/53/1 61/9/1
f 61/9/1 72/53/1 62/14/1
f 62/14/1 72/53/1 69/16/1
f 68/10/1 47/8/1 67/7/1
f 53/13/1 37/12/1 45/5/1
f 14/17/2 29/54/2 30/22/2
f 29/54/2 14/17/2 16/18/2
f 24/47/6 36/50/6 26/42/6
f 36/50/6 24/47/6 72/54/6

usemtl brickLight

f 51/28/2 4/17/2 2/27/2
f 4/17/2 51/28/2 59/29/2

