# Created by Kenney (www.kenney.nl)

mtllib tile_015.mtl

g tile_015

v 0.2950257 0.2 -0.2569832
v 0.2950257 0.1 -0.2569832
v 0.2950257 0.2 -0.2189407
v 0.2950257 0.1 -0.2189407
v 0.2950257 0.4 0.2569832
v 0.2950257 0.3 -0.2189407
v 0.2950257 0.3 -0.2569832
v 0.2950257 0.4 -0.2569832
v 0.2950257 4.511946E-17 -0.2189407
v 0.2950257 0.3 0.2189407
v 0.2950257 0.3 0.2569832
v 0.2950257 0 0.2189407
v 0.2950257 0.2 0.2189407
v 0.2950257 0.1 0.2189407
v 0.2950257 0.2 0.2569832
v 0.2950257 0.1 0.2569832
v -0.2950257 4.511946E-17 -0.2189407
v -0.2950257 0.1 -0.2189407
v -0.2950257 0 0.2189407
v -0.2950257 0.2 -0.2189407
v -0.2950257 0.3 -0.2189407
v -0.2950257 0.3 0.2189407
v -0.2950257 0.4 0.2569832
v -0.2950257 0.4 -0.2569832
v -0.2950257 0.3 -0.2569832
v -0.2950257 0.1 0.2189407
v -0.2950257 0.2 0.2189407
v -0.2950257 0.1 0.2569832
v -0.2950257 0.2 0.2569832
v -0.2950257 0.3 0.2569832
v -0.2950257 0.2 -0.2569832
v -0.2950257 0.1 -0.2569832
v -0.2189407 4.511946E-17 -0.2950257
v 0.2189407 4.511946E-17 -0.2950257
v -0.2189407 0.1 -0.2950257
v 0.2189407 0.1 -0.2950257
v -0.2569832 0.2 -0.2950257
v -0.2569832 0.1 -0.2950257
v 0.2569832 0.1 -0.2950257
v 0.2189407 0.2 -0.2950257
v -0.2189407 0.2 -0.2950257
v 0.2189407 0.3 -0.2950257
v -0.2189407 0.3 -0.2950257
v -0.2569832 0.4 -0.2950257
v -0.2569832 0.3 -0.2950257
v 0.2569832 0.3 -0.2950257
v 0.2569832 0.4 -0.2950257
v 0.2569832 0.2 -0.2950257
v -0.2189407 0 0.2950257
v -0.2950257 0 0.2950257
v -0.2950257 4.511946E-17 -0.2950257
v 0.2189407 0 0.2950257
v 0.2950257 0 0.2950257
v 0.2950257 4.511946E-17 -0.2950257
v 0.2569832 0.1 0.2950257
v 0.2189407 0.1 0.2950257
v 0.2569832 0.2 0.2950257
v 0.04 0.1041999 0.2950257
v -0.2189407 0.1 0.2950257
v -0.2569832 0.1 0.2950257
v 0.2189407 0.2 0.2950257
v 0.04 0.2241999 0.2950257
v 0.2189407 0.3 0.2950257
v 0.04087734 0.2363689 0.2950257
v 0.03813494 0.2482573 0.2950257
v 0.03201562 0.2588123 0.2950257
v 0.02306127 0.2670994 0.2950257
v 0.01206482 0.2723846 0.2950257
v -1.173106E-15 0.2741998 0.2950257
v -0.2189407 0.3 0.2950257
v 0.2569832 0.4 0.2950257
v 0.2569832 0.3 0.2950257
v -0.2569832 0.3 0.2950257
v -0.2569832 0.4 0.2950257
v -0.01206482 0.2723846 0.2950257
v -0.02306127 0.2670994 0.2950257
v -0.03201562 0.2588123 0.2950257
v -0.03813494 0.2482573 0.2950257
v -0.04087734 0.2363689 0.2950257
v -0.04 0.2241999 0.2950257
v -0.2189407 0.2 0.2950257
v -0.04 0.1041999 0.2950257
v -0.2569832 0.2 0.2950257
v -0.2569832 0.4 -0.2569832
v -0.2569832 0.4 0.2569832
v 0.2569832 0.4 0.2569832
v 0.2569832 0.4 -0.2569832
v 0.2950257 0.4 -0.2950257
v -0.2950257 0.4 0.2950257
v -0.2950257 0.4 -0.2950257
v 0.2950257 0.4 0.2950257

vn 1 0 0
vn -1 0 0
vn 0 0 -1
vn 0 -1 0
vn 0 0 1
vn 0 1 0

vt 10.11745 7.874016
vt 10.11745 3.937008
vt 8.619712 7.874016
vt 8.619712 3.937008
vt -10.11745 15.74803
vt 8.619712 11.81102
vt 10.11745 11.81102
vt 10.11745 15.74803
vt 8.619712 4.17211E-15
vt -8.619712 11.81102
vt -10.11745 11.81102
vt -8.619712 2.395753E-15
vt -8.619712 7.874016
vt -8.619712 3.937008
vt -10.11745 7.874016
vt -10.11745 3.937008
vt -8.619712 6.526381E-14
vt 8.619712 6.348745E-14
vt 8.619712 1.707146E-14
vt -8.619712 1.567394E-14
vt -8.619712 11.61519
vt -11.61519 8.619712
vt -11.61519 11.61519
vt -11.61519 -8.619712
vt -11.61519 -11.61519
vt -8.619712 -11.61519
vt 8.619712 11.61519
vt 8.619712 -11.61519
vt 11.61519 11.61519
vt 11.61519 -11.61519
vt 11.61519 8.619712
vt 11.61519 -8.619712
vt 1.574803 4.102357
vt 1.574803 8.826766
vt 1.609344 9.305862
vt 1.501375 9.77391
vt 1.260458 10.18946
vt 0.9079242 10.51572
vt 0.4749928 10.7238
vt -3.738896E-13 10.79527
vt -0.4749928 10.7238
vt -0.9079242 10.51572
vt -1.260458 10.18946
vt -1.501375 9.77391
vt -1.609344 9.305862
vt -1.574803 8.826766
vt -1.574803 4.102357
vt 8.619712 -9.627377E-15
vt -8.619712 9.549737E-15
vt 10.11745 -10.11745
vt 10.11745 10.11745
vt 11.61519 -10.11745
vt 11.61519 10.11745
vt 10.11745 11.61519
vt -10.11745 11.61519
vt 10.11745 -11.61519
vt -10.11745 10.11745
vt -10.11745 -10.11745
vt -10.11745 -11.61519
vt -11.61519 10.11745
vt -11.61519 -10.11745
vt -11.61519 15.74803
vt -11.61519 1.567394E-14
vt -11.61519 9.549737E-15
vt 11.61519 1.707146E-14
vt 11.61519 15.74803
vt 11.61519 -9.627377E-15
vt 11.61519 6.264622E-14
vt 11.61519 4.472072E-14
vt -11.61519 6.76152E-14
vt -11.61519 -4.997228E-30

usemtl brick

f 3/3/1 2/2/1 1/1/1
f 2/2/1 3/3/1 4/4/1
f 3/3/1 5/5/1 4/4/1
f 6/6/1 5/5/1 3/3/1
f 7/7/1 5/5/1 6/6/1
f 5/5/1 7/7/1 8/8/1
f 4/4/1 5/5/1 9/9/1
f 9/9/1 5/5/1 10/10/1
f 10/10/1 5/5/1 11/11/1
f 10/10/1 12/12/1 9/9/1
f 12/12/1 10/10/1 13/13/1
f 12/12/1 13/13/1 14/14/1
f 15/15/1 14/14/1 13/13/1
f 14/14/1 15/15/1 16/16/1
f 19/18/2 18/14/2 17/17/2
f 18/14/2 19/18/2 20/13/2
f 20/13/2 19/18/2 21/10/2
f 22/6/2 21/10/2 19/18/2
f 23/8/2 21/10/2 22/6/2
f 24/5/2 21/10/2 23/8/2
f 21/10/2 24/5/2 25/11/2
f 22/6/2 19/18/2 26/4/2
f 22/6/2 26/4/2 27/3/2
f 28/2/2 27/3/2 26/4/2
f 27/3/2 28/2/2 29/1/2
f 23/8/2 22/6/2 30/7/2
f 31/15/2 18/14/2 20/13/2
f 18/14/2 31/15/2 32/16/2
f 35/4/3 34/20/3 33/19/3
f 34/20/3 35/4/3 36/14/3
f 35/4/3 37/1/3 36/14/3
f 37/1/3 35/4/3 38/2/3
f 36/14/3 37/1/3 39/16/3
f 39/16/3 37/1/3 40/13/3
f 40/13/3 37/1/3 41/3/3
f 40/13/3 41/3/3 42/10/3
f 42/10/3 41/3/3 43/6/3
f 43/6/3 44/8/3 42/10/3
f 44/8/3 43/6/3 45/7/3
f 42/10/3 44/8/3 46/11/3
f 46/11/3 44/8/3 47/5/3
f 48/15/3 39/16/3 40/13/3
f 50/23/4 19/22/4 49/21/4
f 17/24/4 49/21/4 19/22/4
f 51/25/4 49/21/4 17/24/4
f 33/26/4 49/21/4 51/25/4
f 33/26/4 52/27/4 49/21/4
f 34/28/4 52/27/4 33/26/4
f 34/28/4 53/29/4 52/27/4
f 54/30/4 53/29/4 34/28/4
f 54/30/4 12/31/4 53/29/4
f 12/31/4 54/30/4 9/32/4
f 57/1/5 56/4/5 55/2/5
f 56/4/5 57/1/5 58/33/5
f 56/4/5 58/33/5 59/14/5
f 59/14/5 58/33/5 60/16/5
f 58/33/5 57/1/5 61/3/5
f 58/33/5 61/3/5 62/34/5
f 62/34/5 61/3/5 63/6/5
f 62/34/5 63/6/5 64/35/5
f 64/35/5 63/6/5 65/36/5
f 65/36/5 63/6/5 66/37/5
f 66/37/5 63/6/5 67/38/5
f 67/38/5 63/6/5 68/39/5
f 68/39/5 63/6/5 69/40/5
f 70/10/5 69/40/5 63/6/5
f 63/6/5 71/8/5 70/10/5
f 71/8/5 63/6/5 72/7/5
f 70/10/5 71/8/5 73/11/5
f 73/11/5 71/8/5 74/5/5
f 70/10/5 75/41/5 69/40/5
f 70/10/5 76/42/5 75/41/5
f 70/10/5 77/43/5 76/42/5
f 70/10/5 78/44/5 77/43/5
f 70/10/5 79/45/5 78/44/5
f 70/10/5 80/46/5 79/45/5
f 81/13/5 80/46/5 70/10/5
f 80/46/5 81/13/5 82/47/5
f 83/15/5 82/47/5 81/13/5
f 60/16/5 82/47/5 83/15/5
f 82/47/5 60/16/5 58/33/5
f 56/4/5 49/49/5 52/48/5
f 49/49/5 56/4/5 59/14/5
f 24/52/6 85/51/6 84/50/6
f 85/51/6 24/52/6 23/53/6
f 74/54/6 84/50/6 85/51/6
f 71/55/6 84/50/6 74/54/6
f 71/55/6 44/56/6 84/50/6
f 86/57/6 44/56/6 71/55/6
f 87/58/6 44/56/6 86/57/6
f 44/56/6 87/58/6 47/59/6
f 5/60/6 87/58/6 86/57/6
f 87/58/6 5/60/6 8/61/6

usemtl brickLight

f 42/10/3 48/15/3 40/13/3
f 46/11/3 48/15/3 42/10/3
f 88/62/3 48/15/3 46/11/3
f 88/62/3 39/16/3 48/15/3
f 54/63/3 39/16/3 88/62/3
f 54/63/3 36/14/3 39/16/3
f 36/14/3 54/63/3 34/20/3
f 88/62/3 46/11/3 47/5/3
f 70/10/5 83/15/5 81/13/5
f 73/11/5 83/15/5 70/10/5
f 89/62/5 83/15/5 73/11/5
f 89/62/5 60/16/5 83/15/5
f 50/64/5 60/16/5 89/62/5
f 50/64/5 59/14/5 60/16/5
f 59/14/5 50/64/5 49/49/5
f 89/62/5 73/11/5 74/5/5
f 51/65/3 38/2/3 33/19/3
f 38/2/3 51/65/3 90/66/3
f 38/2/3 90/66/3 37/1/3
f 37/1/3 90/66/3 41/3/3
f 41/3/3 90/66/3 45/7/3
f 45/7/3 90/66/3 44/8/3
f 43/6/3 41/3/3 45/7/3
f 35/4/3 33/19/3 38/2/3
f 23/53/6 74/54/6 85/51/6
f 74/54/6 23/53/6 89/29/6
f 53/67/5 55/2/5 52/48/5
f 55/2/5 53/67/5 91/66/5
f 55/2/5 91/66/5 57/1/5
f 57/1/5 91/66/5 61/3/5
f 61/3/5 91/66/5 72/7/5
f 72/7/5 91/66/5 71/8/5
f 63/6/5 61/3/5 72/7/5
f 56/4/5 52/48/5 55/2/5
f 6/6/1 1/1/1 7/7/1
f 1/1/1 6/6/1 3/3/1
f 2/2/1 7/7/1 1/1/1
f 2/2/1 8/8/1 7/7/1
f 54/68/1 8/8/1 2/2/1
f 8/8/1 54/68/1 88/66/1
f 54/68/1 2/2/1 9/9/1
f 9/9/1 2/2/1 4/4/1
f 88/25/6 87/58/6 8/61/6
f 87/58/6 88/25/6 47/59/6
f 86/57/6 91/23/6 5/60/6
f 91/23/6 86/57/6 71/55/6
f 50/69/2 26/4/2 19/18/2
f 26/4/2 50/69/2 28/2/2
f 28/2/2 50/69/2 29/1/2
f 29/1/2 50/69/2 30/7/2
f 30/7/2 50/69/2 23/8/2
f 23/8/2 50/69/2 89/66/2
f 22/6/2 29/1/2 30/7/2
f 29/1/2 22/6/2 27/3/2
f 90/30/6 84/50/6 44/56/6
f 84/50/6 90/30/6 24/52/6
f 51/70/2 32/16/2 90/62/2
f 32/16/2 51/70/2 17/17/2
f 32/16/2 17/17/2 18/14/2
f 32/16/2 24/5/2 90/62/2
f 24/5/2 32/16/2 31/15/2
f 24/5/2 31/15/2 25/11/2
f 20/13/2 25/11/2 31/15/2
f 25/11/2 20/13/2 21/10/2
f 91/62/1 11/11/1 5/5/1
f 11/11/1 91/62/1 15/15/1
f 15/15/1 91/62/1 16/16/1
f 53/71/1 16/16/1 91/62/1
f 12/12/1 16/16/1 53/71/1
f 16/16/1 12/12/1 14/14/1
f 13/13/1 11/11/1 15/15/1
f 11/11/1 13/13/1 10/10/1

usemtl grey

f 62/34/5 82/47/5 58/33/5
f 82/47/5 62/34/5 80/46/5
f 80/46/5 62/34/5 64/35/5
f 80/46/5 64/35/5 79/45/5
f 79/45/5 64/35/5 78/44/5
f 78/44/5 64/35/5 65/36/5
f 78/44/5 65/36/5 77/43/5
f 77/43/5 65/36/5 66/37/5
f 77/43/5 66/37/5 76/42/5
f 76/42/5 66/37/5 67/38/5
f 76/42/5 67/38/5 75/41/5
f 75/41/5 67/38/5 68/39/5
f 75/41/5 68/39/5 69/40/5

