# Created by Kenney (www.kenney.nl)

mtllib tile_043.mtl

g tile_043

v -0.2950257 0.32 -0.2950257
v 0.2950257 0.32 -0.2950257
v -0.2950257 0.4 -0.2950257
v 0.2950257 0.4 -0.2950257
v -0.3472452 0 -0.3472452
v -0.3245283 0.19 -0.3245283
v -0.3472452 0 0.3472452
v -0.3245283 0.19 0.3245283
v 0.3472452 0 -0.3472452
v 0.3472452 0 0.3472452
v 0.3245283 0.19 -0.3245283
v 0.3245283 0.19 0.3245283
v 0.2950257 0.4 0.2950257
v 0.2950257 0.32 0.2950257
v -0.2950257 0.32 0.2950257
v -0.2950257 0.4 0.2950257

vn 0 0 -1
vn -0.9929281 0.1187175 0
vn 0.9929281 0.1187175 0
vn 0 0.1187175 0.9929281
vn 0 0.1187175 -0.9929281
vn 0 -1 0
vn 1 0 0
vn 0.9752024 0.2213152 0
vn 0 0.2213152 -0.9752024
vn 0 0 1
vn 0 1 0
vn -1 0 0
vn 0 0.2213152 0.9752024
vn -0.9752024 0.2213152 0

vt 11.61519 12.59842
vt -11.61519 12.59842
vt 11.61519 15.74803
vt -11.61519 15.74803
vt -13.67107 -1.622996
vt -12.7767 5.910596
vt 13.67107 -1.622996
vt 12.7767 5.910596
vt 12.7767 -12.7767
vt -12.7767 -12.7767
vt 12.7767 12.7767
vt -12.7767 12.7767
vt 12.7767 4.467142
vt -12.7767 4.467142
vt 11.61519 9.715397
vt -11.61519 9.715397
vt 11.61519 -11.61519
vt -11.61519 -11.61519
vt 11.61519 11.61519
vt -11.61519 11.61519
vt 13.67107 -13.67107
vt -13.67107 -13.67107
vt 13.67107 13.67107
vt -13.67107 13.67107

usemtl brick

f 3/3/1 2/2/1 1/1/1
f 2/2/1 3/3/1 4/4/1
f 7/7/2 6/6/2 5/5/2
f 6/6/2 7/7/2 8/8/2
f 11/8/3 10/5/3 9/7/3
f 10/5/3 11/8/3 12/6/3
f 12/8/4 7/5/4 10/7/4
f 7/5/4 12/8/4 8/6/4
f 6/8/5 9/5/5 5/7/5
f 9/5/5 6/8/5 11/6/5
f 12/11/6 6/10/6 11/9/6
f 6/10/6 12/11/6 8/12/6
f 13/4/7 2/1/7 4/3/7
f 2/1/7 13/4/7 14/2/7
f 2/15/8 12/14/8 11/13/8
f 12/14/8 2/15/8 14/16/8
f 1/15/9 11/14/9 6/13/9
f 11/14/9 1/15/9 2/16/9
f 14/19/6 1/18/6 2/17/6
f 1/18/6 14/19/6 15/20/6
f 13/3/10 15/2/10 14/1/10
f 15/2/10 13/3/10 16/4/10
f 3/17/11 13/20/11 4/18/11
f 13/20/11 3/17/11 16/19/11
f 15/1/12 3/4/12 1/2/12
f 3/4/12 15/1/12 16/3/12
f 14/15/13 8/14/13 12/13/13
f 8/14/13 14/15/13 15/16/13
f 8/13/14 1/16/14 6/14/14
f 1/16/14 8/13/14 15/15/14
f 10/23/6 5/22/6 9/21/6
f 5/22/6 10/23/6 7/24/6

