# Created by Kenney (www.kenney.nl)

mtllib tile_036.mtl

g tile_036

v 0.3392796 4.511946E-17 -0.3392796
v -0.3392796 4.511946E-17 -0.3392796
v 0.3392796 0 0.3392796
v -0.3392796 0 0.3392796
v 0.2950257 0.4 -0.2950257
v 0.2950257 0.4 0.2950257
v -0.2950257 0.4 -0.2950257
v -0.2950257 0.4 0.2950257
v 0.2950257 0.21 0.2950257
v -0.2950257 0.21 0.2950257
v -0.2950257 0.21 -0.2950257
v 0.2950257 0.21 -0.2950257

vn 0 -1 0
vn 0 1 0
vn 0 0 1
vn 0 0 -1
vn -1 0 0
vn 0.9785091 0.2062038 0
vn -0.9785091 0.2062038 0
vn 0 0.2062038 -0.9785091
vn 0 0.2062038 0.9785091
vn 1 0 0

vt 13.35746 -13.35746
vt -13.35746 -13.35746
vt 13.35746 13.35746
vt -13.35746 13.35746
vt -11.61519 -11.61519
vt -11.61519 11.61519
vt 11.61519 -11.61519
vt 11.61519 11.61519
vt 11.61519 8.267716
vt -11.61519 8.267716
vt 11.61519 15.74803
vt -11.61519 15.74803
vt 13.35746 -2.75436
vt -13.35746 -2.75436
vt 11.61519 5.69494
vt -11.61519 5.69494

usemtl brick

f 3/3/1 2/2/1 1/1/1
f 2/2/1 3/3/1 4/4/1
f 7/7/2 6/6/2 5/5/2
f 6/6/2 7/7/2 8/8/2
f 6/11/3 10/10/3 9/9/3
f 10/10/3 6/11/3 8/12/3
f 7/11/4 12/10/4 11/9/4
f 12/10/4 7/11/4 5/12/4
f 10/9/5 7/12/5 11/10/5
f 7/12/5 10/9/5 8/11/5
f 12/15/6 3/14/6 1/13/6
f 3/14/6 12/15/6 9/16/6
f 4/13/7 11/16/7 2/14/7
f 11/16/7 4/13/7 10/15/7
f 11/15/8 1/14/8 2/13/8
f 1/14/8 11/15/8 12/16/8
f 9/15/9 4/14/9 3/13/9
f 4/14/9 9/15/9 10/16/9
f 11/7/2 9/6/2 12/5/2
f 9/6/2 11/7/2 10/8/2
f 6/12/10 12/9/10 5/11/10
f 12/9/10 6/12/10 9/10/10

