# Created by Kenney (www.kenney.nl)

mtllib tile_110.mtl

g tile_110

v -0.5 0 -0.5
v -0.5 0.2 -0.5
v -0.5 0 0.5
v -0.5 0.2 0.5
v 0.5 0 0.5
v 0.5 0 -0.5
v 0.5 0.2 -0.5
v 0.5 0.2 0.5
v -0.5 0.4 -0.5
v 0.5 0.6 -0.5
v 0.5 0.6 0.5
v -0.5 0.4 0.5

vn -1 0 0
vn 0 -1 0
vn 1 0 0
vn 0 0 1
vn 0 0 -1
vn 0 1 0
vn -0.1961161 0.9805807 0

vt -19.68504 0
vt -19.68504 7.874016
vt 19.68504 0
vt 19.68504 7.874016
vt 19.68504 19.68504
vt 19.68504 -19.68504
vt -19.68504 19.68504
vt -19.68504 -19.68504
vt 19.68504 15.74803
vt -19.68504 23.62205
vt 19.68504 23.62205
vt 19.68504 23.93543
vt 19.68504 -16.21433
vt -19.68504 23.93543
vt -19.68504 -16.21433
vt -19.68504 15.74803

usemtl dirt

f 3/3/1 2/2/1 1/1/1
f 2/2/1 3/3/1 4/4/1
f 3/7/2 6/6/2 5/5/2
f 6/6/2 3/7/2 1/8/2
f 8/2/3 6/3/3 7/4/3
f 6/3/3 8/2/3 5/1/3
f 8/4/4 3/1/4 5/3/4
f 3/1/4 8/4/4 4/2/4
f 2/4/5 6/1/5 1/3/5
f 6/1/5 2/4/5 7/2/5
f 7/8/6 4/5/6 8/7/6
f 4/5/6 7/8/6 2/6/6

usemtl grass

f 9/9/5 7/2/5 2/4/5
f 7/2/5 9/9/5 10/10/5
f 11/10/3 7/4/3 10/11/3
f 7/4/3 11/10/3 8/2/3
f 10/14/7 12/13/7 11/12/7
f 12/13/7 10/14/7 9/15/7
f 4/4/1 9/16/1 2/2/1
f 9/16/1 4/4/1 12/9/1
f 11/11/4 4/2/4 8/4/4
f 4/2/4 11/11/4 12/16/4

