# Created by Kenney (www.kenney.nl)

mtllib tile_023.mtl

g tile_023

v -0.2950257 4.511946E-17 -0.2950257
v 0.2950257 4.511946E-17 -0.2950257
v -0.2950257 0.4 -0.2950257
v 0.2950257 0.4 -0.2950257
v 0.2950257 0 0.2950257
v -0.2950257 0 0.2950257
v -0.2950257 0.4 0.2950257
v 0.2950257 0.4 0.2950257
v -0.3487145 0.4 -0.3487145
v 0.3487145 0.4 -0.3487145
v -0.3487145 0.52 -0.3487145
v 0.3487145 0.52 -0.3487145
v 0.3487145 0.52 0.3487145
v 0.3487145 0.4 0.3487145
v -0.3487145 0.4 0.3487145
v -0.3487145 0.52 0.3487145
v -1.804779E-15 0.96 -3.880274E-15
v -1.804779E-15 0.52 -3.880274E-15

vn 0 0 -1
vn 0 -1 0
vn -1 0 0
vn 1 0 0
vn 0 0 1
vn 0.7837153 0.6211202 0
vn 0 0.6211202 -0.7837153
vn -0.7837153 0.6211202 0
vn 0 0.6211202 0.7837153
vn -0.7071068 0 0.7071068
vn 0 1 0

vt 11.61519 8.881784E-16
vt -11.61519 8.881784E-16
vt 11.61519 15.74803
vt -11.61519 15.74803
vt 11.61519 -11.61519
vt -11.61519 -11.61519
vt 11.61519 11.61519
vt -11.61519 11.61519
vt -11.61519 1.776357E-15
vt 11.61519 -1.409084E-29
vt 11.61519 1.776357E-15
vt -11.61519 1.735082E-29
vt 13.72892 15.74803
vt -13.72892 15.74803
vt 13.72892 20.47244
vt -13.72892 20.47244
vt 13.72892 13.72892
vt -13.72892 13.72892
vt -13.72892 -13.72892
vt 13.72892 -13.72892
vt 1.527667E-13 29.62074
vt 13.72892 7.517256
vt -13.72892 7.517256
vt 7.105427E-14 29.62074
vt -1.527667E-13 29.62074
vt -7.105427E-14 29.62074

usemtl brick

f 3/3/1 2/2/1 1/1/1
f 2/2/1 3/3/1 4/4/1
f 5/7/2 1/6/2 2/5/2
f 1/6/2 5/7/2 6/8/2
f 6/10/3 3/4/3 1/9/3
f 3/4/3 6/10/3 7/3/3
f 8/4/4 2/11/4 4/3/4
f 2/11/4 8/4/4 5/12/4
f 8/3/5 6/2/5 5/1/5
f 6/2/5 8/3/5 7/4/5

usemtl brickLight

f 11/15/1 10/14/1 9/13/1
f 10/14/1 11/15/1 12/16/1
f 13/16/4 10/13/4 12/15/4
f 10/13/4 13/16/4 14/14/4
f 15/13/3 11/16/3 9/14/3
f 11/16/3 15/13/3 16/15/3
f 14/17/2 8/7/2 4/5/2
f 8/7/2 14/17/2 15/18/2
f 8/7/2 15/18/2 7/8/2
f 7/8/2 15/18/2 9/19/2
f 10/20/2 4/5/2 9/19/2
f 4/5/2 10/20/2 14/17/2
f 9/19/2 4/5/2 3/6/2
f 9/19/2 3/6/2 7/8/2
f 13/15/5 15/14/5 14/13/5
f 15/14/5 13/15/5 16/16/5

usemtl roof

f 13/23/6 12/22/6 17/21/6
f 17/24/7 12/23/7 11/22/7
f 16/22/8 17/25/8 11/23/8
f 17/26/9 16/23/9 13/22/9

usemtl _defaultMat

f 17/13/10 11/16/10 18/14/10
f 18/11/11 16/4/11 13/12/11
f 13/12/11 11/3/11 18/4/11
f 16/11/11 18/4/11 11/12/11
f 11/12/11 13/3/11 12/4/11
f 17/26/10 18/23/10 13/22/10

