# Created by Kenney (www.kenney.nl)

mtllib tile_039.mtl

g tile_039

v 0.3481303 0 -0.3481303
v -0.3481303 0 -0.3481303
v 0.3481303 0 0.3481303
v -0.3481303 0 0.3481303
v 0.2950257 0.35 -0.2950257
v -0.2950257 0.35 -0.2950257
v 0.2950257 0.35 0.2950257
v -0.2950257 0.35 0.2950257
v 0.2950257 0.4 0.2950257
v -0.2950257 0.4 0.2950257
v 0.2950257 0.4 -0.2950257
v -0.2950257 0.4 -0.2950257

vn 0 -1 0
vn 0 0 1
vn 0 1 0
vn 0 0 -1
vn 1 0 0
vn 0 0.1500106 0.9886844
vn 0.9886844 0.1500106 0
vn -0.9886844 0.1500106 0
vn 0 0.1500106 -0.9886844
vn -1 0 0

vt 13.70592 -13.70592
vt -13.70592 -13.70592
vt 13.70592 13.70592
vt -13.70592 13.70592
vt 11.61519 -11.61519
vt -11.61519 -11.61519
vt 11.61519 11.61519
vt -11.61519 11.61519
vt 11.61519 13.77953
vt -11.61519 13.77953
vt 11.61519 15.74803
vt -11.61519 15.74803
vt 13.70592 -2.056033
vt -13.70592 -2.056033
vt 11.61519 11.8812
vt -11.61519 11.8812

usemtl brick

f 3/3/1 2/2/1 1/1/1
f 2/2/1 3/3/1 4/4/1
f 7/7/1 6/6/1 5/5/1
f 6/6/1 7/7/1 8/8/1
f 9/11/2 8/10/2 7/9/2
f 8/10/2 9/11/2 10/12/2
f 12/5/3 9/8/3 11/6/3
f 9/8/3 12/5/3 10/7/3
f 12/11/4 5/10/4 6/9/4
f 5/10/4 12/11/4 11/12/4
f 9/12/5 5/9/5 11/11/5
f 5/9/5 9/12/5 7/10/5
f 7/15/6 4/14/6 3/13/6
f 4/14/6 7/15/6 8/16/6
f 5/15/7 3/14/7 1/13/7
f 3/14/7 5/15/7 7/16/7
f 4/13/8 6/16/8 2/14/8
f 6/16/8 4/13/8 8/15/8
f 6/15/9 1/14/9 2/13/9
f 1/14/9 6/15/9 5/16/9
f 8/9/10 12/12/10 6/10/10
f 12/12/10 8/9/10 10/11/10

