# Created by Kenney (www.kenney.nl)

mtllib tile_037.mtl

g tile_037

v -0.3894339 9.023893E-17 -0.3894339
v -0.3894339 0.11 -0.3894339
v -0.3894339 0 0.3894339
v -0.3894339 0.11 0.3894339
v 0.3894339 0.11 -0.3894339
v 0.3894339 0.11 0.3894339
v 0.2950257 0.29 -0.2950257
v 0.2950257 0.29 0.2950257
v -0.2950257 0.29 -0.2950257
v -0.2950257 0.29 0.2950257
v 0.2950257 0.4 -0.2950257
v 0.2950257 0.4 0.2950257
v 0.3894339 9.023893E-17 -0.3894339
v 0.3894339 0 0.3894339
v -0.2950257 0.4 -0.2950257
v -0.2950257 0.4 0.2950257

vn -1 0 0
vn 0.8855836 0.4644799 0
vn -0.8855836 0.4644799 0
vn 0 -1 0
vn 1 0 0
vn 0 0.4644799 -0.8855836
vn 0 0 -1
vn 0 0 1
vn 0 1 0
vn 0 0.4644799 0.8855836

vt -15.33204 3.552714E-15
vt -15.33204 4.330709
vt 15.33204 -1.195045E-29
vt 15.33204 4.330709
vt 15.33204 -3.286222
vt -15.33204 -3.286222
vt 11.61519 4.715974
vt -11.61519 4.715974
vt 11.61519 -11.61519
vt -11.61519 -11.61519
vt 11.61519 11.61519
vt -11.61519 11.61519
vt 11.61519 15.74803
vt 11.61519 11.41732
vt -11.61519 15.74803
vt -11.61519 11.41732
vt 15.33204 3.552714E-15
vt -15.33204 2.51221E-29
vt 15.33204 -15.33204
vt -15.33204 -15.33204
vt 15.33204 15.33204
vt -15.33204 15.33204
vt 15.33204 8.881784E-16
vt -15.33204 8.881784E-16
vt 15.33204 2.664535E-15
vt -15.33204 2.664535E-15

usemtl brick

f 3/3/1 2/2/1 1/1/1
f 2/2/1 3/3/1 4/4/1
f 7/7/2 6/6/2 5/5/2
f 6/6/2 7/7/2 8/8/2
f 4/5/3 9/8/3 2/6/3
f 9/8/3 4/5/3 10/7/3
f 8/11/4 9/10/4 7/9/4
f 9/10/4 8/11/4 10/12/4
f 12/15/5 7/14/5 11/13/5
f 7/14/5 12/15/5 8/16/5
f 6/2/5 13/17/5 5/4/5
f 13/17/5 6/2/5 14/18/5
f 9/7/6 5/6/6 2/5/6
f 5/6/6 9/7/6 7/8/6
f 10/14/1 15/15/1 9/16/1
f 15/15/1 10/14/1 16/13/1
f 15/13/7 7/16/7 9/14/7
f 7/16/7 15/13/7 11/15/7
f 12/13/8 10/16/8 8/14/8
f 10/16/8 12/13/8 16/15/8
f 15/9/9 12/12/9 11/10/9
f 12/12/9 15/9/9 16/11/9
f 8/7/10 4/6/10 6/5/10
f 4/6/10 8/7/10 10/8/10
f 14/21/4 1/20/4 13/19/4
f 1/20/4 14/21/4 3/22/4
f 6/4/8 3/24/8 14/23/8
f 3/24/8 6/4/8 4/2/8
f 2/4/7 13/26/7 1/25/7
f 13/26/7 2/4/7 5/2/7

