# Created by Kenney (www.kenney.nl)

mtllib tile_108.mtl

g tile_108

v -0.5 0 -0.5
v -0.5 0.4 -0.5
v -0.5 0 0.5
v -0.5 0.4 0.5
v 0.5 0 0.5
v 0.5 0.4 0.5
v 0.5 0.4 -0.5
v 0.5 0 -0.5

vn -1 0 0
vn 0 0 1
vn 1 0 0
vn 0 0 -1
vn 0 1 0
vn 0 -1 0

vt -19.68504 -7.501878E-31
vt -19.68504 15.74803
vt 19.68504 -7.501878E-31
vt 19.68504 15.74803
vt 19.68504 2.905856E-29
vt -19.68504 2.905856E-29
vt 19.68504 7.501878E-31
vt -19.68504 7.501878E-31
vt 19.68504 0
vt -19.68504 0
vt -19.68504 -19.68504
vt -19.68504 19.68504
vt 19.68504 -19.68504
vt 19.68504 19.68504

usemtl grass

f 3/3/1 2/2/1 1/1/1
f 2/2/1 3/3/1 4/4/1
f 6/4/2 3/6/2 5/5/2
f 3/6/2 6/4/2 4/2/2
f 6/2/3 8/7/3 7/4/3
f 8/7/3 6/2/3 5/8/3
f 2/4/4 8/10/4 1/9/4
f 8/10/4 2/4/4 7/2/4
f 2/13/5 6/12/5 7/11/5
f 6/12/5 2/13/5 4/14/5

usemtl dirt

f 3/12/6 8/13/6 5/14/6
f 8/13/6 3/12/6 1/11/6

