# Created by Kenney (www.kenney.nl)

mtllib tile_067.mtl

g tile_067

v -0.5 0 -0.5
v -0.5 0.2 -0.5
v -0.5 0 0.5
v -0.5 0.2 0.5
v 0.5 0 -0.5
v 0.5 0.2 -0.5
v 0.5 0.2 0.5
v 0.5 0 0.5
v 0.5 0.4 0.5
v 0.1538085 0.4 -0.05073516
v 0.5 0.4 -0.5
v -0.5 0.4 -0.5
v -0.1102633 0.4 -0.2131115
v -0.3829212 0.4 -0.06560676
v -0.3915074 0.4 0.2442743
v 0.1452224 0.4 0.2591459
v -0.1274356 0.4 0.4066507
v -0.5 0.4 0.5

vn -1 0 0
vn 0 0 -1
vn 0 1 0
vn 0 0 1
vn 1 0 0
vn 0 -1 0

vt -19.68504 0
vt -19.68504 7.874016
vt 19.68504 0
vt 19.68504 7.874016
vt -19.68504 -19.68504
vt -19.68504 19.68504
vt 19.68504 -19.68504
vt 19.68504 19.68504
vt -6.055454 -1.997447
vt 4.341075 -8.390216
vt 15.07564 -2.582943
vt 15.41368 9.617099
vt -5.717417 10.20259
vt 5.017148 16.00987
vt -19.68504 15.74803
vt 19.68504 15.74803

usemtl dirt

f 3/3/1 2/2/1 1/1/1
f 2/2/1 3/3/1 4/4/1
f 2/4/2 5/1/2 1/3/2
f 5/1/2 2/4/2 6/2/2
f 2/7/3 7/6/3 6/5/3
f 7/6/3 2/7/3 4/8/3
f 7/4/4 3/1/4 8/3/4
f 3/1/4 7/4/4 4/2/4
f 7/2/5 5/3/5 6/4/5
f 5/3/5 7/2/5 8/1/5
f 8/8/6 1/5/6 5/7/6
f 1/5/6 8/8/6 3/6/6

usemtl grass

f 11/5/3 10/9/3 9/6/3
f 10/9/3 11/5/3 12/7/3
f 10/9/3 12/7/3 13/10/3
f 13/10/3 12/7/3 14/11/3
f 14/11/3 12/7/3 15/12/3
f 16/13/3 9/6/3 10/9/3
f 17/14/3 9/6/3 16/13/3
f 9/6/3 17/14/3 18/8/3
f 18/8/3 17/14/3 15/12/3
f 18/8/3 15/12/3 12/7/3
f 4/4/1 12/15/1 2/2/1
f 12/15/1 4/4/1 18/16/1
f 9/16/4 4/2/4 7/4/4
f 4/2/4 9/16/4 18/15/4
f 12/16/2 6/2/2 2/4/2
f 6/2/2 12/16/2 11/15/2
f 9/15/5 6/4/5 11/16/5
f 6/4/5 9/15/5 7/2/5

g Group

v -0.3915074 0.4 0.2442743
v -0.3829212 0.4 -0.06560674
v -0.2906239 0.65 0.1896976
v -0.2852147 0.65 -0.005527526
v -0.1274355 0.4 0.4066507
v 0.04751584 0.65 0.1990667
v -0.1242587 0.65 0.2919947
v -0.1134402 0.65 -0.09845549
v 0.05292505 0.65 0.003841609
v 0.1538085 0.4 -0.05073512
v -0.1102633 0.4 -0.2131115

vn -0.9289725 0.3692526 -0.02573979
vn 0.4421949 0.3692526 0.8173837
vn 0.9289725 0.3692526 0.02573979
vn -0.4421949 0.3692526 -0.8173837
vn -0.4867775 0.3692526 0.7916439
vn 0.4867775 0.3692526 -0.7916439

vt -6.390316 -0.06538042
vt -18.59504 -0.06538042
vt -8.64819 10.52561
vt -16.33717 10.52561
vt 21.34891 -1.826654
vt 9.14418 -1.826654
vt 19.09103 8.764341
vt 11.40205 8.764341
vt 3.971789 8.54146
vt 4.184752 16.22749
vt 10.5216 4.514016
vt 10.94753 19.88607
vt 17.28438 8.172598
vt 17.49734 15.85862
vt 6.390316 -7.740325
vt 8.64819 2.85067
vt 18.59504 -7.740325
vt 16.33717 2.85067
vt -9.14418 -5.979052
vt -21.34891 -5.979052
vt -11.40205 4.611943
vt -19.09103 4.611943
vt 8.856226 2.010819
vt -3.348498 2.010819
vt 6.598352 12.60181
vt -1.090624 12.60181
vt 3.348498 -9.816525
vt -8.856226 -9.816525
vt 1.090624 0.7744708
vt -6.598352 0.7744708
vt -8.463657E-31 6.392769
vt 0.3380361 18.59281
vt 10.39653 0
vt 11.0726 24.40008
vt 21.13109 5.807273
vt 21.46913 18.00731

usemtl stone

f 21/19/7 20/18/7 19/17/7
f 20/18/7 21/19/7 22/20/7
f 24/23/8 23/22/8 16/21/8
f 23/22/8 24/23/8 25/24/8
f 25/27/3 22/26/3 21/25/3
f 22/26/3 25/27/3 26/28/3
f 26/28/3 25/27/3 24/29/3
f 26/28/3 24/29/3 27/30/3
f 28/33/9 24/32/9 16/31/9
f 24/32/9 28/33/9 27/34/9
f 22/37/10 29/36/10 20/35/10
f 29/36/10 22/37/10 26/38/10
f 25/41/11 19/40/11 23/39/11
f 19/40/11 25/41/11 21/42/11
f 26/45/12 28/44/12 29/43/12
f 28/44/12 26/45/12 27/46/12

usemtl grass

f 23/49/3 20/48/3 19/47/3
f 20/48/3 23/49/3 29/50/3
f 29/50/3 23/49/3 16/51/3
f 29/50/3 16/51/3 28/52/3

