# Created by Kenney (www.kenney.nl)

mtllib tile_041.mtl

g tile_041

v -0.2189407 0 0.2950257
v -0.2950257 0 0.2189407
v -0.2950257 0 0.2950257
v -0.2950257 4.511946E-17 -0.2950257
v -0.2189407 4.511946E-17 -0.2950257
v 0.2189407 0 0.2950257
v 0.2189407 4.511946E-17 -0.2950257
v 0.2950257 0 0.2950257
v 0.2950257 0 0.2189407
v 0.2950257 4.511946E-17 -0.2950257
v 0.2950257 4.511946E-17 -0.2189407
v -0.2950257 4.511946E-17 -0.2189407
v -0.2189407 0.4 -0.2950257
v 0.2189407 0.4 -0.2950257
v -0.2950257 0.4 -0.2189407
v -0.2950257 0.4 0.2189407
v 0.2189407 0.4 0.2950257
v -0.2189407 0.4 0.2950257
v 0.2950257 0.4 -0.2189407
v 0.2950257 0.4 0.2189407
v 0.2189407 0.4 -0.2189407
v 0.2189407 0.4 0.2189407
v -0.2189407 0.4 0.2189407
v -0.2189407 0.4 -0.2189407
v 0.2950257 0.4 -0.2950257
v 0.2950257 0.4 0.2950257
v -0.2950257 0.4 0.2950257
v -0.2950257 0.4 -0.2950257

vn 0 -1 0
vn 0 0 -1
vn -1 0 0
vn 0 0 1
vn 0 1 0
vn 1 0 0

vt -8.619712 11.61519
vt -11.61519 8.619712
vt -11.61519 11.61519
vt -11.61519 -11.61519
vt -8.619712 -11.61519
vt 8.619712 11.61519
vt 8.619712 -11.61519
vt 11.61519 11.61519
vt 11.61519 8.619712
vt 11.61519 -11.61519
vt 11.61519 -8.619712
vt -11.61519 -8.619712
vt 8.619712 4.370203E-14
vt -8.619712 4.370203E-14
vt 8.619712 15.74803
vt -8.619712 15.74803
vt -8.619712 1.776357E-15
vt 8.619712 0
vt 8.619712 -2.016863E-30
vt -8.619712 -2.016863E-30
vt -8.619712 -8.619712
vt -8.619712 8.619712
vt 8.619712 8.619712
vt 8.619712 -8.619712
vt 8.619712 1.776357E-15
vt -8.619712 0
vt -11.61519 15.74803
vt -11.61519 0
vt 11.61519 -1.048142E-14
vt 11.61519 15.74803
vt -11.61519 2.273919E-14
vt 11.61519 0
vt -11.61519 1.048142E-14
vt 11.61519 2.273919E-14
vt -11.61519 1.776357E-15
vt 11.61519 1.776357E-15

usemtl brick

f 3/3/1 2/2/1 1/1/1
f 4/4/1 1/1/1 2/2/1
f 5/5/1 1/1/1 4/4/1
f 5/5/1 6/6/1 1/1/1
f 7/7/1 6/6/1 5/5/1
f 7/7/1 8/8/1 6/6/1
f 7/7/1 9/9/1 8/8/1
f 10/10/1 9/9/1 7/7/1
f 9/9/1 10/10/1 11/11/1
f 4/4/1 2/2/1 12/12/1
f 13/15/2 7/14/2 5/13/2
f 7/14/2 13/15/2 14/16/2
f 2/18/3 15/16/3 12/17/3
f 15/16/3 2/18/3 16/15/3
f 17/15/4 1/20/4 6/19/4
f 1/20/4 17/15/4 18/16/4
f 21/21/5 20/2/5 19/12/5
f 20/2/5 21/21/5 22/22/5
f 21/21/5 13/7/5 22/22/5
f 13/7/5 21/21/5 14/5/5
f 22/22/5 13/7/5 17/1/5
f 17/1/5 13/7/5 23/23/5
f 23/23/5 13/7/5 24/24/5
f 23/23/5 24/24/5 16/9/5
f 16/9/5 24/24/5 15/11/5
f 18/6/5 17/1/5 23/23/5
f 20/16/6 11/25/6 19/15/6
f 11/25/6 20/16/6 9/26/6

usemtl brickLight

f 14/5/5 19/12/5 25/4/5
f 19/12/5 14/5/5 21/21/5
f 26/27/6 9/26/6 20/16/6
f 9/26/6 26/27/6 8/28/6
f 26/30/4 6/19/4 8/29/4
f 6/19/4 26/30/4 17/15/4
f 14/16/2 10/31/2 7/14/2
f 10/31/2 14/16/2 25/27/2
f 3/32/3 16/15/3 2/18/3
f 16/15/3 3/32/3 27/30/3
f 18/16/4 3/33/4 1/20/4
f 3/33/4 18/16/4 27/27/4
f 16/9/5 18/6/5 23/23/5
f 18/6/5 16/9/5 27/8/5
f 28/30/2 5/13/2 4/34/2
f 5/13/2 28/30/2 13/15/2
f 12/17/3 28/27/3 4/35/3
f 28/27/3 12/17/3 15/16/3
f 22/22/5 26/3/5 20/2/5
f 26/3/5 22/22/5 17/1/5
f 28/10/5 24/24/5 13/7/5
f 24/24/5 28/10/5 15/11/5
f 19/15/6 10/36/6 25/30/6
f 10/36/6 19/15/6 11/25/6

