# Created by Kenney (www.kenney.nl)

mtllib tile_106.mtl

g tile_106

v 0.5 0.6 0.5
v -0.5 0.6 0.5
v 0.5 0.4 -0.5
v -0.5 0.4 -0.5
v -0.5 0.2 -0.5
v -0.5 0.2 0.5
v 0.5 0.2 -0.5
v 0.5 0.2 0.5
v 0.5 0 -0.5
v 0.5 0 0.5
v -0.5 0 -0.5
v -0.5 0 0.5

vn 0 0.9805807 -0.1961161
vn -1 0 0
vn 1 0 0
vn 0 0 1
vn 0 0 -1
vn 0 1 0
vn 0 -1 0

vt -19.68504 23.93543
vt 19.68504 23.93543
vt -19.68504 -16.21433
vt 19.68504 -16.21433
vt -19.68504 7.874016
vt -19.68504 15.74803
vt 19.68504 7.874016
vt 19.68504 23.62205
vt 19.68504 15.74803
vt -19.68504 23.62205
vt 19.68504 0
vt -19.68504 0
vt -19.68504 19.68504
vt 19.68504 19.68504
vt -19.68504 -19.68504
vt 19.68504 -19.68504

usemtl grass

f 3/3/1 2/2/1 1/1/1
f 2/2/1 3/3/1 4/4/1
f 6/7/2 4/6/2 5/5/2
f 4/6/2 6/7/2 2/8/2
f 1/10/3 7/7/3 3/9/3
f 7/7/3 1/10/3 8/5/3
f 1/8/4 6/5/4 8/7/4
f 6/5/4 1/8/4 2/10/4
f 4/9/5 7/5/5 5/7/5
f 7/5/5 4/9/5 3/6/5

usemtl dirt

f 8/5/3 9/11/3 7/7/3
f 9/11/3 8/5/3 10/12/3
f 5/7/5 9/12/5 11/11/5
f 9/12/5 5/7/5 7/5/5
f 8/7/4 12/12/4 10/11/4
f 12/12/4 8/7/4 6/5/4
f 7/15/6 6/14/6 8/13/6
f 6/14/6 7/15/6 5/16/6
f 12/13/7 9/16/7 10/14/7
f 9/16/7 12/13/7 11/15/7
f 12/11/2 5/5/2 11/12/2
f 5/5/2 12/11/2 6/7/2

