# Created by Kenney (www.kenney.nl)

mtllib tile_081.mtl

g tile_081

v 0.4043291 0.34 -0.2690301
v 0.375 0.34 -0.2834936
v 0.4043291 0.4 -0.2690301
v 0.375 0.4 -0.2834936
v 0.5 0.4 0.5
v -0.5 0.4 0.5
v 0.5 0.4 0.25
v 0.4021053 0.4 0.2435836
v 0.3058857 0.4 0.2244443
v 0.2129874 0.4 0.1929096
v 0.125 0.4 0.149519
v 0.04342895 0.4 0.09501497
v -0.03033006 0.4 0.03033005
v -0.09501497 0.4 -0.04342896
v -0.149519 0.4 -0.125
v -0.1929096 0.4 -0.2129874
v -0.2244443 0.4 -0.3058857
v -0.2435836 0.4 -0.4021054
v -0.25 0.4 -0.5
v -0.5 0.4 -0.5
v 0.5 0.4 -0.5
v 0.5 0.2 -0.5
v 0.5 0.4 -0.25
v 0.5 0.2 -0.25
v 0.5 0.34 -0.25
v 0.4021053 0.34 0.2435836
v 0.5 0.34 0.25
v -0.149519 0.34 -0.125
v -0.09501497 0.34 -0.04342896
v 0.3478096 0.34 -0.3016617
v 0.3478096 0.4 -0.3016617
v 0.25 0.4 -0.5
v 0.4673684 0.4 -0.2521388
v 0.4352952 0.4 -0.2585185
v 0.3232233 0.4 -0.3232233
v 0.3016616 0.4 -0.3478096
v 0.2834936 0.4 -0.375
v 0.2690301 0.4 -0.4043292
v 0.2585185 0.4 -0.4352952
v 0.2521388 0.4 -0.4673685
v -0.5 0.2 -0.5
v -0.5 0.2 0.5
v -0.2244443 0.34 -0.3058857
v -0.1929096 0.34 -0.2129874
v 0.5 0.2 0.5
v -0.03033006 0.34 0.03033005
v -0.2435836 0.34 -0.4021054
v -0.25 0.2 -0.5
v -0.25 0.34 -0.5
v 0.04342895 0.34 0.09501497
v 0.125 0.34 0.149519
v 0.2129874 0.34 0.1929096
v 0.3058857 0.34 0.2244443
v 0.4673684 0.34 -0.2521388
v 0.4352952 0.34 -0.2585185
v 0.3016616 0.34 -0.3478096
v 0.3232233 0.34 -0.3232233
v 0.2834936 0.34 -0.375
v 0.5 0.2 0.25
v 0.25 0.2 -0.5
v 0.25 0.34 -0.5
v 0.2521388 0.34 -0.4673685
v 0.2585185 0.34 -0.4352952
v 0.2690301 0.34 -0.4043292
v 0.5 0 -0.5
v 0.5 0 0.5
v -0.5 0 -0.5
v -0.5 0 0.5

vn -0.3826834 0 0.9238795
vn -0.5 0 0.8660254
vn 0 1 0
vn 1 0 0
vn 0.1305262 0 -0.9914449
vn 0.06540312 0 -0.9978589
vn 0.8660254 0 -0.5
vn 0.7933533 0 -0.6087614
vn -0.6087614 0 0.7933533
vn -1 0 0
vn 0.9659258 0 -0.258819
vn 0.9238795 0 -0.3826834
vn 0 0 1
vn 0.7071068 0 -0.7071068
vn 0.9914449 0 -0.1305262
vn 0 0 -1
vn 0.9978589 0 -0.06540311
vn 0.6087614 0 -0.7933533
vn 0.5 0 -0.8660254
vn 0.3826834 0 -0.9238795
vn 0.258819 0 -0.9659258
vn -0.06540312 0 0.9978589
vn -0.1305262 0 0.9914449
vn -0.258819 0 0.9659258
vn -0.7933533 0 0.6087614
vn -0.7071068 0 0.7071068
vn -0.8660254 0 0.5
vn -0.9914449 0 0.1305261
vn -0.9659258 0 0.258819
vn -0.9238795 0 0.3826834
vn -0.9978589 0 0.06540307
vn 0.3826834 0 -0.9238795
vn 0 -1 0
vn -0.7933533 0 0.6087614
vn -0.8660254 0 0.5
vn -0.9238795 0 0.3826834
vn -0.9659258 0 0.258819
vn -0.9914449 0 0.1305262
vn -0.9978589 0 0.06540311
vn -0.3826834 0 0.9238795
vn 0.7933533 0 -0.6087614
vn 0.8660254 0 -0.5
vn 0.9914449 0 -0.1305261
vn 0.9659258 0 -0.258819
vn 0.9238795 0 -0.3826834
vn 0.9978589 0 -0.06540307

vt 9.592237 13.38583
vt 8.304773 13.38583
vt 9.592237 15.74803
vt 8.304773 15.74803
vt -19.68504 19.68504
vt 19.68504 19.68504
vt -19.68504 9.842518
vt -15.83092 9.589906
vt -12.04274 8.83639
vt -8.385332 7.594866
vt -4.921261 5.886575
vt -1.709801 3.740747
vt 1.194097 1.194097
vt 3.740747 -1.709801
vt 5.886575 -4.921261
vt 7.594866 -8.385332
vt 8.83639 -12.04275
vt 9.589906 -15.83092
vt 9.842518 -19.68504
vt 19.68504 -19.68504
vt 19.68504 15.74803
vt 19.68504 7.874015
vt 9.842521 15.74803
vt 9.842521 7.874015
vt 9.842521 13.38583
vt -16.42423 13.38583
vt -20.28662 13.38583
vt -16.42423 15.74803
vt -20.28662 15.74803
vt 7.362285 15.74803
vt 7.362285 13.38583
vt 3.499896 15.74803
vt 3.499896 13.38583
vt 6.074821 13.38583
vt 4.787358 13.38583
vt 6.074821 15.74803
vt 4.787358 15.74803
vt -19.68504 -19.68504
vt -19.68504 -9.84252
vt -9.84252 -19.68504
vt -18.40033 -9.926723
vt -17.13761 -10.1779
vt -15.91847 -10.59174
vt -14.76378 -11.16117
vt -13.69329 -11.87644
vt -12.72533 -12.72533
vt -11.87644 -13.69329
vt -11.16117 -14.76378
vt -10.59174 -15.91847
vt -10.1779 -17.13761
vt -9.926723 -18.40033
vt -19.68504 7.874016
vt -19.68504 15.74803
vt 19.68504 7.874016
vt 14.244 15.74803
vt 14.244 13.38583
vt 10.38161 15.74803
vt 10.38161 13.38583
vt 10.8797 15.74803
vt 10.8797 13.38583
vt 7.01731 15.74803
vt 7.01731 13.38583
vt 3.751943 15.74803
vt 3.751943 13.38583
vt -0.1104467 15.74803
vt -0.1104467 13.38583
vt 17.39763 15.74803
vt 17.39763 13.38583
vt 13.53524 15.74803
vt 13.53524 13.38583
vt 9.842518 7.874016
vt 9.842518 13.38583
vt 9.842518 15.74803
vt 20.28662 15.74803
vt 20.28662 13.38583
vt 16.42423 15.74803
vt 16.42423 13.38583
vt 0.1104468 13.38583
vt -3.751942 13.38583
vt 0.1104468 15.74803
vt -3.751942 15.74803
vt -3.499895 13.38583
vt -7.362285 13.38583
vt -3.499895 15.74803
vt -7.362285 15.74803
vt -7.01731 13.38583
vt -10.8797 13.38583
vt -7.01731 15.74803
vt -10.8797 15.74803
vt -10.38161 13.38583
vt -14.244 13.38583
vt -10.38161 15.74803
vt -14.244 15.74803
vt -13.53524 13.38583
vt -17.39763 13.38583
vt -13.53524 15.74803
vt -17.39763 15.74803
vt 18.99916 13.38583
vt 17.7117 13.38583
vt 18.99916 15.74803
vt 17.7117 15.74803
vt 16.11017 13.38583
vt 14.8227 13.38583
vt 16.11017 15.74803
vt 14.8227 15.74803
vt 12.95654 13.38583
vt 11.66908 13.38583
vt 12.95654 15.74803
vt 11.66908 15.74803
vt -2.46448 15.74803
vt -1.177017 15.74803
vt -2.46448 13.38583
vt -1.177017 13.38583
vt -6.074822 15.74803
vt -4.787359 15.74803
vt -6.074822 13.38583
vt -4.787359 13.38583
vt -9.842518 15.74803
vt -9.842518 13.38583
vt -9.842518 7.874016
vt -9.84252 7.874016
vt -9.84252 13.38583
vt -9.84252 15.74803
vt -16.11017 15.74803
vt -14.82271 15.74803
vt -16.11017 13.38583
vt -14.82271 13.38583
vt -9.592237 15.74803
vt -8.304774 15.74803
vt -9.592237 13.38583
vt -8.304774 13.38583
vt 2.464479 13.38583
vt 1.177016 13.38583
vt 2.464479 15.74803
vt 1.177016 15.74803
vt -12.95654 15.74803
vt -11.66908 15.74803
vt -12.95654 13.38583
vt -11.66908 13.38583
vt -18.99916 15.74803
vt -17.7117 15.74803
vt -18.99916 13.38583
vt -17.7117 13.38583
vt 19.68504 0
vt -19.68504 0
vt 9.84252 13.38583

usemtl grass

f 3/3/1 2/2/2 1/1/1
f 2/2/2 3/3/1 4/4/2
f 7/7/3 6/6/3 5/5/3
f 6/6/3 7/7/3 8/8/3
f 6/6/3 8/8/3 9/9/3
f 6/6/3 9/9/3 10/10/3
f 6/6/3 10/10/3 11/11/3
f 6/6/3 11/11/3 12/12/3
f 6/6/3 12/12/3 13/13/3
f 6/6/3 13/13/3 14/14/3
f 6/6/3 14/14/3 15/15/3
f 6/6/3 15/15/3 16/16/3
f 6/6/3 16/16/3 17/17/3
f 6/6/3 17/17/3 18/18/3
f 6/6/3 18/18/3 19/19/3
f 6/6/3 19/19/3 20/20/3
f 23/23/4 22/22/4 21/21/4
f 22/22/4 23/23/4 24/24/4
f 24/24/4 23/23/4 25/25/4
f 8/28/5 27/27/6 26/26/5
f 27/27/6 8/28/5 7/29/6
f 14/32/8 28/31/7 15/30/7
f 28/31/7 14/32/8 29/33/8
f 4/36/2 30/35/9 2/34/2
f 30/35/9 4/36/2 31/37/9
f 32/40/3 23/39/3 21/38/3
f 23/39/3 32/40/3 33/41/3
f 33/41/3 32/40/3 34/42/3
f 34/42/3 32/40/3 3/43/3
f 3/43/3 32/40/3 4/44/3
f 4/44/3 32/40/3 31/45/3
f 31/45/3 32/40/3 35/46/3
f 35/46/3 32/40/3 36/47/3
f 36/47/3 32/40/3 37/48/3
f 37/48/3 32/40/3 38/49/3
f 38/49/3 32/40/3 39/50/3
f 39/50/3 32/40/3 40/51/3
f 42/54/10 20/53/10 41/52/10
f 20/53/10 42/54/10 6/21/10
f 16/57/12 43/56/11 17/55/11
f 43/56/11 16/57/12 44/58/12
f 15/61/7 44/60/12 16/59/12
f 44/60/12 15/61/7 28/62/7
f 5/21/13 42/52/13 45/54/13
f 42/52/13 5/21/13 6/53/13
f 13/65/14 29/64/8 14/63/8
f 29/64/8 13/65/14 46/66/14
f 17/69/11 47/68/15 18/67/15
f 47/68/15 17/69/11 43/70/11
f 20/21/16 48/71/16 41/54/16
f 48/71/16 20/21/16 49/72/16
f 49/72/16 20/21/16 19/73/16
f 18/76/15 49/75/17 19/74/17
f 49/75/17 18/76/15 47/77/15
f 13/80/14 50/79/18 46/78/14
f 50/79/18 13/80/14 12/81/18
f 12/84/18 51/83/19 50/82/18
f 51/83/19 12/84/18 11/85/19
f 11/88/19 52/87/20 51/86/19
f 52/87/20 11/88/19 10/89/20
f 10/92/20 53/91/21 52/90/20
f 53/91/21 10/92/20 9/93/21
f 9/96/21 26/95/5 53/94/21
f 26/95/5 9/96/21 8/97/5
f 23/100/22 54/99/23 25/98/22
f 54/99/23 23/100/22 33/101/23
f 33/104/23 55/103/24 54/102/23
f 55/103/24 33/104/23 34/105/24
f 34/108/24 1/107/1 55/106/24
f 1/107/1 34/108/24 3/109/1
f 56/112/25 35/111/26 36/110/25
f 35/111/26 56/112/25 57/113/26
f 58/116/27 36/115/25 37/114/27
f 36/115/25 58/116/27 56/117/25
f 5/53/4 27/119/4 7/118/4
f 45/52/4 27/119/4 5/53/4
f 27/119/4 45/52/4 59/120/4
f 61/122/16 22/52/16 60/121/16
f 22/52/16 61/122/16 21/53/16
f 21/53/16 61/122/16 32/123/16
f 62/126/28 39/125/29 40/124/28
f 39/125/29 62/126/28 63/127/29
f 64/130/30 37/129/27 38/128/30
f 37/129/27 64/130/30 58/131/27
f 31/134/9 57/133/26 30/132/9
f 57/133/26 31/134/9 35/135/26
f 63/138/29 38/137/30 39/136/29
f 38/137/30 63/138/29 64/139/30
f 61/142/31 40/141/28 32/140/31
f 40/141/28 61/142/31 62/143/28

usemtl water

f 1/1/32 2/2/19 3/3/32
f 4/4/19 3/3/32 2/2/19
f 5/5/33 6/6/33 7/7/33
f 8/8/33 7/7/33 6/6/33
f 9/9/33 8/8/33 6/6/33
f 10/10/33 9/9/33 6/6/33
f 11/11/33 10/10/33 6/6/33
f 12/12/33 11/11/33 6/6/33
f 13/13/33 12/12/33 6/6/33
f 14/14/33 13/13/33 6/6/33
f 15/15/33 14/14/33 6/6/33
f 16/16/33 15/15/33 6/6/33
f 17/17/33 16/16/33 6/6/33
f 18/18/33 17/17/33 6/6/33
f 19/19/33 18/18/33 6/6/33
f 20/20/33 19/19/33 6/6/33
f 21/21/10 22/22/10 23/23/10
f 24/24/10 23/23/10 22/22/10
f 25/25/10 23/23/10 24/24/10
f 22/22/10 65/144/10 24/24/10
f 66/145/10 24/24/10 65/144/10
f 59/120/10 24/24/10 66/145/10
f 45/52/10 59/120/10 66/145/10
f 59/120/10 45/52/10 27/119/10
f 5/53/10 27/119/10 45/52/10
f 7/118/10 27/119/10 5/53/10
f 24/24/10 59/120/10 25/146/10
f 27/119/10 25/146/10 59/120/10
f 26/26/23 27/27/22 8/28/23
f 7/29/22 8/28/23 27/27/22
f 67/144/13 65/145/13 41/54/13
f 22/52/13 41/54/13 65/145/13
f 48/71/13 41/54/13 22/52/13
f 60/121/13 48/71/13 22/52/13
f 41/54/13 48/71/13 20/21/13
f 49/72/13 20/21/13 48/71/13
f 19/73/13 20/21/13 49/72/13
f 48/71/13 60/121/13 49/72/13
f 60/121/13 22/52/13 61/122/13
f 61/122/13 49/72/13 60/121/13
f 21/53/13 61/122/13 22/52/13
f 32/123/13 61/122/13 21/53/13
f 15/30/35 28/31/35 14/32/34
f 29/33/34 14/32/34 28/31/35
f 2/34/19 30/35/18 4/36/19
f 31/37/18 4/36/19 30/35/18
f 67/145/4 41/52/4 68/144/4
f 42/54/4 68/144/4 41/52/4
f 41/52/4 20/53/4 42/54/4
f 6/21/4 42/54/4 20/53/4
f 66/144/16 68/145/16 45/54/16
f 42/52/16 45/54/16 68/145/16
f 45/54/16 42/52/16 5/21/16
f 6/53/16 5/21/16 42/52/16
f 21/38/33 23/39/33 32/40/33
f 33/41/33 32/40/33 23/39/33
f 34/42/33 32/40/33 33/41/33
f 3/43/33 32/40/33 34/42/33
f 4/44/33 32/40/33 3/43/33
f 31/45/33 32/40/33 4/44/33
f 35/46/33 32/40/33 31/45/33
f 36/47/33 32/40/33 35/46/33
f 37/48/33 32/40/33 36/47/33
f 38/49/33 32/40/33 37/48/33
f 39/50/33 32/40/33 38/49/33
f 40/51/33 32/40/33 39/50/33
f 22/38/33 24/39/33 60/40/33
f 60/40/33 24/39/33 42/6/33
f 24/39/33 59/7/33 42/6/33
f 45/5/33 42/6/33 59/7/33
f 48/19/33 60/40/33 42/6/33
f 41/20/33 48/19/33 42/6/33
f 17/55/37 43/56/37 16/57/36
f 44/58/36 16/57/36 43/56/37
f 16/59/36 44/60/36 15/61/35
f 28/62/35 15/61/35 44/60/36
f 65/20/3 67/38/3 66/6/3
f 68/5/3 66/6/3 67/38/3
f 25/39/3 26/8/3 27/7/3
f 26/8/3 25/39/3 54/41/3
f 26/8/3 54/41/3 55/42/3
f 26/8/3 55/42/3 1/43/3
f 26/8/3 1/43/3 2/44/3
f 26/8/3 2/44/3 53/9/3
f 53/9/3 2/44/3 30/45/3
f 53/9/3 30/45/3 57/46/3
f 53/9/3 57/46/3 56/47/3
f 53/9/3 56/47/3 52/10/3
f 52/10/3 56/47/3 58/48/3
f 52/10/3 58/48/3 64/49/3
f 52/10/3 64/49/3 63/50/3
f 52/10/3 63/50/3 62/51/3
f 52/10/3 62/51/3 61/40/3
f 52/10/3 61/40/3 49/19/3
f 52/10/3 49/19/3 51/11/3
f 51/11/3 49/19/3 50/12/3
f 50/12/3 49/19/3 46/13/3
f 46/13/3 49/19/3 29/14/3
f 29/14/3 49/19/3 28/15/3
f 28/15/3 49/19/3 44/16/3
f 44/16/3 49/19/3 43/17/3
f 43/17/3 49/19/3 47/18/3
f 27/7/33 26/8/33 25/39/33
f 54/41/33 25/39/33 26/8/33
f 55/42/33 54/41/33 26/8/33
f 1/43/33 55/42/33 26/8/33
f 2/44/33 1/43/33 26/8/33
f 53/9/33 2/44/33 26/8/33
f 30/45/33 2/44/33 53/9/33
f 57/46/33 30/45/33 53/9/33
f 56/47/33 57/46/33 53/9/33
f 52/10/33 56/47/33 53/9/33
f 58/48/33 56/47/33 52/10/33
f 64/49/33 58/48/33 52/10/33
f 63/50/33 64/49/33 52/10/33
f 62/51/33 63/50/33 52/10/33
f 61/40/33 62/51/33 52/10/33
f 49/19/33 61/40/33 52/10/33
f 51/11/33 49/19/33 52/10/33
f 50/12/33 49/19/33 51/11/33
f 46/13/33 49/19/33 50/12/33
f 29/14/33 49/19/33 46/13/33
f 28/15/33 49/19/33 29/14/33
f 44/16/33 49/19/33 28/15/33
f 43/17/33 49/19/33 44/16/33
f 47/18/33 49/19/33 43/17/33
f 14/63/34 29/64/34 13/65/26
f 46/66/26 13/65/26 29/64/34
f 18/67/38 47/68/38 17/69/37
f 43/70/37 17/69/37 47/68/38
f 19/74/39 49/75/39 18/76/38
f 47/77/38 18/76/38 49/75/39
f 46/78/26 50/79/9 13/80/26
f 12/81/9 13/80/26 50/79/9
f 50/82/9 51/83/2 12/84/9
f 11/85/2 12/84/9 51/83/2
f 51/86/2 52/87/40 11/88/2
f 10/89/40 11/88/2 52/87/40
f 52/90/40 53/91/24 10/92/40
f 9/93/24 10/92/40 53/91/24
f 53/94/24 26/95/23 9/96/24
f 8/97/23 9/96/24 26/95/23
f 25/98/6 54/99/5 23/100/6
f 33/101/5 23/100/6 54/99/5
f 54/102/5 55/103/21 33/104/5
f 34/105/21 33/104/5 55/103/21
f 55/106/21 1/107/32 34/108/21
f 3/109/32 34/108/21 1/107/32
f 36/110/41 35/111/14 56/112/41
f 57/113/14 56/112/41 35/111/14
f 37/114/42 36/115/41 58/116/42
f 56/117/41 58/116/42 36/115/41
f 49/72/16 60/121/16 48/71/16
f 60/121/16 49/72/16 61/122/16
f 25/146/4 59/120/4 24/24/4
f 59/120/4 25/146/4 27/119/4
f 40/124/43 39/125/44 62/126/43
f 63/127/44 62/126/43 39/125/44
f 38/128/45 37/129/42 64/130/45
f 58/131/42 64/130/45 37/129/42
f 30/132/18 57/133/14 31/134/18
f 35/135/14 31/134/18 57/133/14
f 39/136/44 38/137/45 63/138/44
f 64/139/45 63/138/44 38/137/45
f 32/140/46 40/141/43 61/142/46
f 62/143/43 61/142/46 40/141/43

usemtl dirt

f 41/54/16 65/145/16 67/144/16
f 65/145/16 41/54/16 22/52/16
f 22/52/16 41/54/16 48/71/16
f 22/52/16 48/71/16 60/121/16
f 68/144/10 41/52/10 67/145/10
f 41/52/10 68/144/10 42/54/10
f 45/54/13 68/145/13 66/144/13
f 68/145/13 45/54/13 42/52/13
f 60/40/3 24/39/3 22/38/3
f 42/6/3 24/39/3 60/40/3
f 42/6/3 59/7/3 24/39/3
f 59/7/3 42/6/3 45/5/3
f 42/6/3 60/40/3 48/19/3
f 42/6/3 48/19/3 41/20/3
f 66/6/33 67/38/33 65/20/33
f 67/38/33 66/6/33 68/5/33
f 24/24/4 65/144/4 22/22/4
f 65/144/4 24/24/4 66/145/4
f 66/145/4 24/24/4 59/120/4
f 66/145/4 59/120/4 45/52/4

