# Created by Kenney (www.kenney.nl)

mtllib tile_014.mtl

g tile_014

v 0.2950257 0.4 -0.2950257
v 0.2950257 4.511946E-17 -0.2950257
v 0.2950257 0.4 -0.2189407
v 0.2950257 4.511946E-17 -0.2189407
v 0.2950257 0.09230942 -0.2189407
v -0.2189407 0.4 0.2189407
v -0.2189407 0.4 0.2950257
v -0.2950257 0.4 0.2189407
v -0.2950257 0.4 0.2950257
v 0.2950257 0.4 0.2189407
v 0.2950257 0.4 0.2950257
v 0.2189407 0.4 0.2189407
v 0.2189407 0.4 0.2950257
v 0.2189407 0.4 -0.2950257
v 0.2189407 0.4 -0.2189407
v -0.2189407 0.4 -0.2950257
v -0.2189407 0.4 -0.2189407
v -0.2950257 0.4 -0.2950257
v -0.2950257 0.4 -0.2189407
v -0.2950257 4.511946E-17 -0.2950257
v -0.2189407 4.511946E-17 -0.2950257
v -0.2189407 0.09230942 -0.2950257
v 0.2189407 4.511946E-17 -0.2950257
v 0.2189407 0.09230942 -0.2950257
v 0.2950257 0 0.2950257
v 0.2189407 0 0.2950257
v 0.2189407 0.09230942 0.2950257
v -0.2950257 4.511946E-17 -0.2189407
v -0.2950257 0.09230942 -0.2189407
v -0.2189407 0 0.2950257
v -0.2950257 0 0.2950257
v -0.2189407 0.09230942 0.2950257
v 0.2950257 0.09230942 0.2189407
v 0.2950257 0 0.2189407
v -0.2950257 0 0.2189407
v -0.2950257 0.09230942 0.2189407
v 0.04 0.146628 0.2950257
v 0.04 0.266628 0.2950257
v 0.04087734 0.2787971 0.2950257
v 0.03813494 0.2906855 0.2950257
v 0.03201562 0.3012405 0.2950257
v 0.02306127 0.3095276 0.2950257
v 0.01206482 0.3148127 0.2950257
v -2.616929E-15 0.316628 0.2950257
v -0.04 0.146628 0.2950257
v -0.04 0.266628 0.2950257
v -0.04087734 0.2787971 0.2950257
v -0.03813494 0.2906855 0.2950257
v -0.03201562 0.3012405 0.2950257
v -0.02306127 0.3095276 0.2950257
v -0.01206482 0.3148127 0.2950257

vn 1 0 0
vn 0 1 0
vn 0 0 -1
vn 0 0 1
vn -1 0 0
vn 0 -1 0

vt 11.61519 15.74803
vt 11.61519 1.776357E-15
vt 8.619712 15.74803
vt 8.619712 1.776357E-15
vt 8.619712 3.634229
vt 8.619712 8.619712
vt 8.619712 11.61519
vt 11.61519 8.619712
vt 11.61519 11.61519
vt -11.61519 8.619712
vt -11.61519 11.61519
vt -8.619712 8.619712
vt -8.619712 11.61519
vt -11.61519 -11.61519
vt -11.61519 -8.619712
vt -8.619712 -11.61519
vt -8.619712 -8.619712
vt 8.619712 -11.61519
vt 8.619712 -8.619712
vt 11.61519 -11.61519
vt 11.61519 -8.619712
vt 11.61519 2.536199E-14
vt -8.619712 1.776357E-15
vt -11.61519 2.536199E-14
vt -8.619712 3.634229
vt -11.61519 15.74803
vt -8.619712 15.74803
vt 11.61519 -1.179282E-14
vt 8.619712 0
vt -11.61519 1.776357E-15
vt -8.619712 3.651254E-13
vt -8.619712 0
vt -11.61519 1.179282E-14
vt -11.61519 0
vt 8.619712 3.633491E-13
vt 11.61519 -2.871256E-14
vt 1.574803 5.772758
vt 1.574803 10.49717
vt 1.609344 10.97626
vt 1.501375 11.44431
vt 1.260458 11.85986
vt 0.9079242 12.18612
vt 0.4749928 12.3942
vt -4.66866E-13 12.46567
vt -1.574803 5.772758
vt -1.574803 10.49717
vt -1.609344 10.97626
vt -1.501375 11.44431
vt -1.260458 11.85986
vt -0.9079242 12.18612
vt -0.4749928 12.3942

usemtl brickLight

f 3/3/1 2/2/1 1/1/1
f 2/2/1 3/3/1 4/4/1
f 4/4/1 3/3/1 5/5/1
f 8/8/2 7/7/2 6/6/2
f 7/7/2 8/8/2 9/9/2
f 12/12/2 11/11/2 10/10/2
f 11/11/2 12/12/2 13/13/2
f 14/16/2 3/15/2 1/14/2
f 3/15/2 14/16/2 15/17/2
f 18/20/2 17/19/2 16/18/2
f 17/19/2 18/20/2 19/21/2
f 18/1/3 21/4/3 20/22/3
f 21/4/3 18/1/3 22/5/3
f 22/5/3 18/1/3 16/3/3
f 24/25/3 2/24/3 23/23/3
f 2/24/3 24/25/3 1/26/3
f 1/26/3 24/25/3 14/27/3
f 11/1/4 26/29/4 25/28/4
f 26/29/4 11/1/4 27/5/4
f 27/5/4 11/1/4 13/3/4
f 28/31/5 18/26/5 20/30/5
f 18/26/5 28/31/5 19/27/5
f 19/27/5 28/31/5 29/25/5
f 32/25/4 31/33/4 30/32/4
f 31/33/4 32/25/4 9/26/4
f 9/26/4 32/25/4 7/27/4
f 11/26/1 33/25/1 10/27/1
f 33/25/1 11/26/1 34/32/1
f 34/32/1 11/26/1 25/34/1
f 31/36/5 36/5/5 35/35/5
f 36/5/5 31/36/5 8/3/5
f 8/3/5 31/36/5 9/1/5

usemtl brick

f 3/15/2 12/12/2 10/10/2
f 12/12/2 3/15/2 15/17/2
f 12/12/2 15/17/2 13/13/2
f 15/17/2 16/18/2 13/13/2
f 16/18/2 15/17/2 14/16/2
f 13/13/2 16/18/2 6/6/2
f 6/6/2 16/18/2 17/19/2
f 6/6/2 17/19/2 8/8/2
f 8/8/2 17/19/2 19/21/2
f 7/7/2 13/13/2 6/6/2
f 36/5/5 19/27/5 29/25/5
f 19/27/5 36/5/5 8/3/5
f 27/5/4 37/37/4 32/25/4
f 37/37/4 27/5/4 13/3/4
f 37/37/4 13/3/4 38/38/4
f 38/38/4 13/3/4 39/39/4
f 39/39/4 13/3/4 40/40/4
f 40/40/4 13/3/4 41/41/4
f 41/41/4 13/3/4 42/42/4
f 42/42/4 13/3/4 43/43/4
f 43/43/4 13/3/4 44/44/4
f 45/45/4 32/25/4 37/37/4
f 32/25/4 45/45/4 7/27/4
f 7/27/4 44/44/4 13/3/4
f 7/27/4 45/45/4 46/46/4
f 7/27/4 46/46/4 47/47/4
f 7/27/4 47/47/4 48/48/4
f 7/27/4 48/48/4 49/49/4
f 7/27/4 49/49/4 50/50/4
f 7/27/4 50/50/4 51/51/4
f 7/27/4 51/51/4 44/44/4
f 10/27/1 5/5/1 3/3/1
f 5/5/1 10/27/1 33/25/1
f 16/3/3 24/25/3 22/5/3
f 24/25/3 16/3/3 14/27/3
f 31/11/6 35/10/6 30/13/6
f 20/14/6 30/13/6 35/10/6
f 21/16/6 30/13/6 20/14/6
f 21/16/6 26/7/6 30/13/6
f 23/18/6 26/7/6 21/16/6
f 23/18/6 25/9/6 26/7/6
f 2/20/6 25/9/6 23/18/6
f 4/21/6 25/9/6 2/20/6
f 25/9/6 4/21/6 34/8/6
f 20/14/6 35/10/6 28/15/6

usemtl brickDark

f 27/5/4 30/32/4 26/29/4
f 30/32/4 27/5/4 32/25/4
f 33/25/1 4/4/1 5/5/1
f 4/4/1 33/25/1 34/32/1
f 22/5/3 23/23/3 21/4/3
f 23/23/3 22/5/3 24/25/3
f 35/35/5 29/25/5 28/31/5
f 29/25/5 35/35/5 36/5/5

usemtl grey

f 38/38/4 45/45/4 37/37/4
f 45/45/4 38/38/4 46/46/4
f 46/46/4 38/38/4 39/39/4
f 46/46/4 39/39/4 47/47/4
f 47/47/4 39/39/4 48/48/4
f 48/48/4 39/39/4 40/40/4
f 48/48/4 40/40/4 49/49/4
f 49/49/4 40/40/4 41/41/4
f 49/49/4 41/41/4 50/50/4
f 50/50/4 41/41/4 42/42/4
f 50/50/4 42/42/4 51/51/4
f 51/51/4 42/42/4 43/43/4
f 51/51/4 43/43/4 44/44/4

