# Created by Kenney (www.kenney.nl)

mtllib tile_035.mtl

g tile_035

v 0.2950257 0.29 -0.2950257
v -0.2950257 0.29 -0.2950257
v 0.2950257 0.29 0.2950257
v -0.2950257 0.29 0.2950257
v 0.2950257 0.4 0.2950257
v -0.2950257 0.4 0.2950257
v -0.2950257 0.4 -0.2950257
v 0.2950257 0.4 -0.2950257
v 0.3894339 0.11 0.3894339
v -0.3894339 0.11 0.3894339
v -0.3463608 0.1921237 -0.1182439
v -0.3587511 0.1685004 -0.1545059
v -0.3463608 0.1921237 -0.215326
v -0.3726855 0.1419329 -0.1545059
v -0.3587511 0.1685004 -0.08450589
v -0.318492 0.2452588 -0.1182439
v -0.3894339 0.11 -0.3894339
v -0.3726855 0.1419329 -0.08450589
v -0.3563557 0.1730673 -0.05664635
v -0.3563557 0.1730673 0.04335364
v -0.3377765 0.2084907 0.04335364
v -0.318492 0.2452588 -0.215326
v -0.3377765 0.2084907 -0.05664635
v 0.3894339 0.11 -0.3894339
v 0.3894339 9.023893E-17 -0.3894339
v -0.3894339 9.023893E-17 -0.3894339
v 0.3894339 0 0.3894339
v -0.3894339 0 0.3894339

vn 0 -1 0
vn 0 0 1
vn -1 0 0
vn 1 0 0
vn 0 0.4644799 0.8855836
vn -0.8855836 0.4644799 0
vn 0.8855836 0.4644799 0
vn 0 1 0
vn 0 0.4644799 -0.8855836
vn 0 0 -1

vt 11.61519 -11.61519
vt -11.61519 -11.61519
vt 11.61519 11.61519
vt -11.61519 11.61519
vt 11.61519 11.41732
vt -11.61519 11.41732
vt 11.61519 15.74803
vt -11.61519 15.74803
vt 15.33204 -3.286222
vt -15.33204 -3.286222
vt 11.61519 4.715974
vt -11.61519 4.715974
vt -4.655273 0.3647246
vt -6.082909 -0.6854915
vt -8.477401 0.3647246
vt -6.082909 -1.866594
vt -3.327004 -0.6854915
vt -4.655273 2.726929
vt -3.327004 -1.866594
vt -2.230171 -0.4824609
vt 1.706836 -0.4824609
vt 1.706836 1.092342
vt -8.477401 2.726929
vt -2.230171 1.092342
vt 15.33204 -15.33204
vt -15.33204 -15.33204
vt 15.33204 15.33204
vt -15.33204 15.33204
vt 15.33204 8.881784E-16
vt -15.33204 8.881784E-16
vt 15.33204 4.330709
vt -15.33204 4.330709
vt -15.33204 3.552714E-15
vt 15.33204 -1.195045E-29
vt 15.33204 2.664535E-15
vt -15.33204 2.664535E-15
vt 15.33204 3.552714E-15
vt -15.33204 2.51221E-29

usemtl brick

f 3/3/1 2/2/1 1/1/1
f 2/2/1 3/3/1 4/4/1
f 5/7/2 4/6/2 3/5/2
f 4/6/2 5/7/2 6/8/2
f 4/5/3 7/8/3 2/6/3
f 7/8/3 4/5/3 6/7/3
f 5/8/4 1/5/4 8/7/4
f 1/5/4 5/8/4 3/6/4
f 3/11/5 10/10/5 9/9/5
f 10/10/5 3/11/5 4/12/5
f 13/15/6 12/14/6 11/13/6
f 12/14/6 13/15/6 14/16/6
f 11/13/6 12/14/6 15/17/6
f 11/13/6 15/17/6 16/18/6
f 13/15/6 17/10/6 14/16/6
f 17/10/6 13/15/6 2/12/6
f 14/16/6 17/10/6 10/9/6
f 14/16/6 10/9/6 18/19/6
f 18/19/6 10/9/6 15/17/6
f 15/17/6 10/9/6 19/20/6
f 19/20/6 10/9/6 20/21/6
f 20/21/6 10/9/6 21/22/6
f 21/22/6 10/9/6 4/11/6
f 2/12/6 22/23/6 4/11/6
f 22/23/6 2/12/6 13/15/6
f 4/11/6 22/23/6 16/18/6
f 4/11/6 16/18/6 23/24/6
f 23/24/6 16/18/6 15/17/6
f 23/24/6 15/17/6 19/20/6
f 4/11/6 23/24/6 21/22/6
f 1/11/7 9/10/7 24/9/7
f 9/10/7 1/11/7 3/12/7
f 27/27/1 26/26/1 25/25/1
f 26/26/1 27/27/1 28/28/1
f 9/31/2 28/30/2 27/29/2
f 28/30/2 9/31/2 10/32/2
f 7/1/8 5/4/8 8/2/8
f 5/4/8 7/1/8 6/3/8
f 2/11/9 24/10/9 17/9/9
f 24/10/9 2/11/9 1/12/9
f 28/34/3 17/32/3 26/33/3
f 17/32/3 28/34/3 10/31/3
f 7/7/10 1/6/10 2/5/10
f 1/6/10 7/7/10 8/8/10
f 17/31/10 25/36/10 26/35/10
f 25/36/10 17/31/10 24/32/10
f 9/32/4 25/37/4 24/31/4
f 25/37/4 9/32/4 27/38/4

usemtl grey

f 18/19/6 12/14/6 14/16/6
f 12/14/6 18/19/6 15/17/6
f 20/21/6 23/24/6 19/20/6
f 23/24/6 20/21/6 21/22/6
f 11/13/6 22/23/6 13/15/6
f 22/23/6 11/13/6 16/18/6

