# Created by Kenney (www.kenney.nl)

mtllib tile_087.mtl

g tile_087

v -0.5 0.2 -0.5
v 0.5 0.2 -0.5
v -0.5 0.4 -0.5
v 0.5 0.4 -0.5
v 0.5 0.4 0.5
v -0.5 0.4 0.5
v 0.5 0.2 0.5
v -0.5 0.2 0.5
v -0.5 0 -0.5
v 0.5 0 -0.5
v -0.5 0 0.5
v 0.5 0 0.5

vn 0 0 -1
vn 0 1 0
vn 1 0 0
vn 0 0 1
vn -1 0 0
vn 0 -1 0

vt 19.68504 7.874016
vt -19.68504 7.874016
vt 19.68504 15.74803
vt -19.68504 15.74803
vt -19.68504 -19.68504
vt -19.68504 19.68504
vt 19.68504 -19.68504
vt 19.68504 19.68504
vt 19.68504 0
vt -19.68504 0

usemtl grass

f 3/3/1 2/2/1 1/1/1
f 2/2/1 3/3/1 4/4/1
f 3/7/2 5/6/2 4/5/2
f 5/6/2 3/7/2 6/8/2
f 5/4/3 2/1/3 4/3/3
f 2/1/3 5/4/3 7/2/3
f 5/3/4 8/2/4 7/1/4
f 8/2/4 5/3/4 6/4/4
f 8/1/5 3/4/5 1/2/5
f 3/4/5 8/1/5 6/3/5

usemtl dirt

f 1/7/2 7/6/2 2/5/2
f 7/6/2 1/7/2 8/8/2
f 1/1/1 10/10/1 9/9/1
f 10/10/1 1/1/1 2/2/1
f 11/9/5 1/2/5 9/10/5
f 1/2/5 11/9/5 8/1/5
f 7/1/4 11/10/4 12/9/4
f 11/10/4 7/1/4 8/2/4
f 12/8/6 9/5/6 10/7/6
f 9/5/6 12/8/6 11/6/6
f 7/2/3 10/9/3 2/1/3
f 10/9/3 7/2/3 12/10/3

