# Created by Kenney (www.kenney.nl)

mtllib tile_054.mtl

g tile_054

v 0.2950257 0.4 -0.2950257
v 0.2950257 4.511946E-17 -0.2950257
v 0.2950257 0.4 0.2950257
v 0.2950257 0 0.2950257
v -0.2950257 0 0.2950257
v -0.2950257 0.4 0.2950257
v -0.2950257 4.511946E-17 -0.2950257
v -0.2950257 0.4 -0.2950257
v -0.3487145 0.52 -0.3487145
v -1.804779E-15 0.96 -4.602185E-15
v -0.3487145 0.52 0.3487145
v 0.3487145 0.52 -0.3487145
v 0.3487145 0.52 0.3487145
v -0.3487145 0.4 -0.3487145
v -0.3487145 0.4 0.3487145
v 0.3487145 0.4 -0.3487145
v 0.3487145 0.4 0.3487145
v -1.804779E-15 0.52 -4.602185E-15

vn 1 0 0
vn 0 0 1
vn 0 0 -1
vn 0 -1 0
vn -1 0 0
vn -0.7837153 0.6211202 0
vn 0 0.6211202 -0.7837153
vn 0 0.6211202 0.7837153
vn 0.7837153 0.6211202 0
vn -0.7071068 0 0.7071068
vn 0 1 0

vt 11.61519 15.74803
vt 11.61519 1.776357E-15
vt -11.61519 15.74803
vt -11.61519 1.735082E-29
vt 11.61519 8.881784E-16
vt -11.61519 8.881784E-16
vt 11.61519 -11.61519
vt -11.61519 -11.61519
vt 11.61519 11.61519
vt -11.61519 11.61519
vt -11.61519 1.776357E-15
vt 11.61519 -1.409084E-29
vt -13.72892 7.517256
vt -1.811884E-13 29.62074
vt 13.72892 7.517256
vt 7.105427E-14 29.62074
vt -7.105427E-14 29.62074
vt 1.811884E-13 29.62074
vt -13.72892 15.74803
vt -13.72892 20.47244
vt 13.72892 15.74803
vt 13.72892 20.47244
vt 13.72892 13.72892
vt -13.72892 13.72892
vt -13.72892 -13.72892
vt 13.72892 -13.72892

usemtl brick

f 3/3/1 2/2/1 1/1/1
f 2/2/1 3/3/1 4/4/1
f 3/1/2 5/6/2 4/5/2
f 5/6/2 3/1/2 6/3/2
f 8/1/3 2/6/3 7/5/3
f 2/6/3 8/1/3 1/3/3
f 4/9/4 7/8/4 2/7/4
f 7/8/4 4/9/4 5/10/4
f 5/12/5 8/3/5 7/11/5
f 8/3/5 5/12/5 6/1/5

usemtl grass

f 11/15/6 10/14/6 9/13/6
f 10/16/7 12/13/7 9/15/7
f 10/17/8 11/13/8 13/15/8
f 13/13/9 12/15/9 10/18/9

usemtl brickLight

f 15/21/5 9/20/5 14/19/5
f 9/20/5 15/21/5 11/22/5
f 9/22/3 16/19/3 14/21/3
f 16/19/3 9/22/3 12/20/3
f 13/20/1 16/21/1 12/22/1
f 16/21/1 13/20/1 17/19/1
f 17/23/4 3/9/4 1/7/4
f 3/9/4 17/23/4 15/24/4
f 3/9/4 15/24/4 6/10/4
f 6/10/4 15/24/4 14/25/4
f 16/26/4 1/7/4 14/25/4
f 1/7/4 16/26/4 17/23/4
f 14/25/4 1/7/4 8/8/4
f 14/25/4 8/8/4 6/10/4
f 13/22/2 15/19/2 17/21/2
f 15/19/2 13/22/2 11/20/2

usemtl _defaultMat

f 10/6/10 9/1/10 18/3/10
f 18/6/11 11/1/11 13/3/11
f 11/6/11 18/1/11 9/3/11
f 10/13/10 18/15/10 13/18/10
f 9/3/11 13/12/11 12/1/11
f 13/3/11 9/12/11 18/1/11

