# Created by Kenney (www.kenney.nl)

mtllib tile_052.mtl

g tile_052

v 0.2967073 0.47 0.2967073
v -1.534062E-15 0.47 -3.609557E-15
v -1.534062E-15 0.99 -3.609557E-15
v -0.2967073 0.47 -0.2967073
v 0.2967073 0.47 -0.2967073
v -0.333379 0.3 -0.333379
v 0.333379 0.3 -0.333379
v 0.333379 0.3 0.333379
v -0.333379 0.3 0.333379
v -0.2967073 0.47 0.2967073
v 0.2950257 4.511946E-17 -0.2950257
v -0.2950257 4.511946E-17 -0.2950257
v 0.2950257 0 0.2950257
v -0.2950257 0 0.2950257
v 0.2950257 0.15 -0.2950257
v 0.2950257 0.15 0.2950257
v 0.333379 0.23 -0.333379
v 0.333379 0.23 0.333379
v -0.2950257 0.15 0.2950257
v -0.333379 0.23 0.333379
v -0.2950257 0.15 -0.2950257
v -0.333379 0.23 -0.333379

vn -0.7071068 0 0.7071068
vn 0 0.4955905 -0.8685563
vn 0 0.2108655 -0.977515
vn 0.8685563 0.4955905 0
vn 0 0.2108655 0.977515
vn 0.977515 0.2108655 0
vn -0.977515 0.2108655 0
vn -0.8685563 0.4955905 0
vn 0 0.4955905 0.8685563
vn 0 -1 0
vn 1 0 0
vn 0.9017281 -0.4323035 0
vn 0 -0.4323035 0.9017281
vn 0 1 0
vn 0 -0.4323035 -0.9017281
vn -0.9017281 -0.4323035 0
vn 0 0 1
vn -1 0 0
vn 0 0 -1

vt 0 0
vt 11.68139 15.62467
vt 13.12516 8.77781
vt -11.68139 15.62467
vt 11.68139 10.28253
vt -11.68139 10.28253
vt 6.039613E-14 33.85318
vt -13.12516 8.77781
vt 1.421085E-13 33.85318
vt -1.421085E-13 33.85318
vt -6.039613E-14 33.85318
vt 11.61519 -11.61519
vt -11.61519 -11.61519
vt 11.61519 11.61519
vt -11.61519 11.61519
vt 11.61519 5.905512
vt 11.61519 1.776357E-15
vt -11.61519 5.905512
vt -11.61519 1.735082E-29
vt 13.12516 13.83931
vt 11.61519 10.34645
vt -13.12516 13.83931
vt -11.61519 10.34645
vt -11.68139 11.68139
vt 11.68139 11.68139
vt 6.039613E-14 -1.477362E-13
vt 11.68139 -11.68139
vt -11.68139 -11.68139
vt -13.12516 -13.12516
vt -13.12516 13.12516
vt 13.12516 -13.12516
vt 13.12516 13.12516
vt 11.61519 8.881784E-16
vt -11.61519 8.881784E-16
vt -11.61519 1.776357E-15
vt 11.61519 -1.409084E-29
vt 13.12516 11.81102
vt 13.12516 9.055119
vt -13.12516 11.81102
vt -13.12516 9.055119

usemtl _defaultMat

f 3/1/1 2/1/1 1/1/1
f 3/4/1 4/3/1 2/2/1

usemtl grass

f 3/7/2 5/6/2 4/5/2
f 4/2/3 7/8/3 6/3/3
f 7/8/3 4/2/3 5/4/3
f 1/6/4 5/5/4 3/9/4
f 1/2/5 9/8/5 8/3/5
f 9/8/5 1/2/5 10/4/5
f 5/2/6 8/8/6 7/3/6
f 8/8/6 5/2/6 1/4/6
f 9/3/7 4/4/7 6/8/7
f 4/4/7 9/3/7 10/2/7
f 10/5/8 3/10/8 4/6/8
f 3/11/9 10/6/9 1/5/9

usemtl brick

f 13/14/10 12/13/10 11/12/10
f 12/13/10 13/14/10 14/15/10
f 16/18/11 11/17/11 15/16/11
f 11/17/11 16/18/11 13/19/11
f 18/22/12 15/21/12 17/20/12
f 15/21/12 18/22/12 16/23/12
f 18/20/13 19/23/13 16/21/13
f 19/23/13 18/20/13 20/22/13
f 2/26/14 10/25/14 1/24/14
f 10/25/14 2/26/14 4/27/14
f 1/24/14 4/27/14 2/26/14
f 4/27/14 1/24/14 5/28/14
f 22/20/15 15/23/15 21/21/15
f 15/23/15 22/20/15 17/22/15
f 6/31/14 8/30/14 7/29/14
f 8/30/14 6/31/14 9/32/14
f 21/23/16 20/20/16 22/22/16
f 20/20/16 21/23/16 19/21/16
f 21/12/14 16/15/14 15/13/14
f 16/15/14 21/12/14 19/14/14
f 16/16/17 14/34/17 13/33/17
f 14/34/17 16/16/17 19/18/17
f 14/36/18 21/18/18 12/35/18
f 21/18/18 14/36/18 19/16/18
f 21/16/19 11/34/19 12/33/19
f 11/34/19 21/16/19 15/18/19

usemtl brickLight

f 8/39/11 17/38/11 7/37/11
f 17/38/11 8/39/11 18/40/11
f 20/38/18 6/39/18 22/40/18
f 6/39/18 20/38/18 9/37/18
f 8/37/17 20/40/17 18/38/17
f 20/40/17 8/37/17 9/39/17
f 6/37/19 17/40/19 22/38/19
f 17/40/19 6/37/19 7/39/19

