# Created by Kenney (www.kenney.nl)

mtllib tile_069.mtl

g tile_069

v 0.3569811 4.511946E-17 -0.3569811
v -0.3569811 4.511946E-17 -0.3569811
v 0.3569811 0 0.3569811
v -0.3569811 0 0.3569811
v -0.2950257 0.4 -0.2950257
v -0.340005 0.1096019 -0.2621188
v -0.340005 0.1096019 -0.1421188
v -0.3323519 0.1590127 -0.1421188
v -0.3233683 0.2170131 -0.02396533
v -0.3141845 0.2763061 -0.02396533
v -0.2950257 0.4 0.2950257
v -0.3141845 0.2763061 -0.1439653
v -0.3323519 0.1590127 -0.2621188
v -0.3233683 0.2170131 -0.1439653
v 0.2950257 0.4 0.2950257
v 0.2950257 0.4 -0.2950257

vn 0 -1 0
vn -0.9882163 0.1530633 0
vn 0 0.1530633 0.9882163
vn 0 1 0
vn 0.9882163 0.1530633 0
vn 0 0.1530633 -0.9882163

vt 14.05437 -14.05437
vt -14.05437 -14.05437
vt 14.05437 14.05437
vt -14.05437 14.05437
vt -11.61519 13.7846
vt -10.31964 2.215277
vt -14.05437 -2.15121
vt 14.05437 -2.15121
vt -5.595229 2.215277
vt -5.595229 4.183781
vt -0.9435169 6.494492
vt -0.9435169 8.856697
vt 11.61519 13.7846
vt -5.667926 8.856697
vt -10.31964 4.183781
vt -5.667926 6.494492
vt -11.61519 -11.61519
vt -11.61519 11.61519
vt 11.61519 -11.61519
vt 11.61519 11.61519

usemtl brick

f 3/3/1 2/2/1 1/1/1
f 2/2/1 3/3/1 4/4/1
f 2/7/2 6/6/2 5/5/2
f 6/6/2 2/7/2 4/8/2
f 6/6/2 4/8/2 7/9/2
f 7/9/2 4/8/2 8/10/2
f 8/10/2 4/8/2 9/11/2
f 9/11/2 4/8/2 10/12/2
f 10/12/2 4/8/2 11/13/2
f 5/5/2 12/14/2 11/13/2
f 11/13/2 12/14/2 10/12/2
f 12/14/2 5/5/2 13/15/2
f 13/15/2 5/5/2 6/6/2
f 12/14/2 13/15/2 14/16/2
f 8/10/2 14/16/2 13/15/2
f 14/16/2 8/10/2 9/11/2
f 15/13/3 4/7/3 3/8/3
f 4/7/3 15/13/3 11/5/3
f 5/19/4 15/18/4 16/17/4
f 15/18/4 5/19/4 11/20/4
f 16/13/5 3/7/5 1/8/5
f 3/7/5 16/13/5 15/5/5
f 5/13/6 1/7/6 2/8/6
f 1/7/6 5/13/6 16/5/6

usemtl grey

f 7/9/2 13/15/2 6/6/2
f 13/15/2 7/9/2 8/10/2
f 9/11/2 12/14/2 14/16/2
f 12/14/2 9/11/2 10/12/2

