# Created by Kenney (www.kenney.nl)

mtllib tile_022.mtl

g tile_022

v -0.2950257 0.2041 -0.2950257
v 0.2950257 0.2041 -0.2950257
v -0.2950257 0.308 -0.2950257
v 0.2950257 0.308 -0.2950257
v 0.2950257 0.2041 0.2950257
v -0.2950257 0.2041 0.2950257
v 0.2950257 0.308 0.2950257
v -0.2950257 0.308 0.2950257
v -0.2950257 0 0.2950257
v 0.2950257 0 0.2950257
v -0.2950257 0 -0.2950257
v 0.2950257 0 -0.2950257
v -0.3363293 0.4336 -0.3363293
v -0.3363293 0.4336 0.3363293
v 0.3363293 0.4336 -0.3363293
v 0.3363293 0.4336 0.3363293
v 1.353584E-15 0.4336 -5.324097E-15
v 1.353584E-15 0.7005 -5.324097E-15
v -0.2015386 0.5405655 0.2015386
v 0.2015386 0.5405655 0.2015386
v -0.2015386 0.5405655 -0.2015386
v 0.2015386 0.5405655 -0.2015386
v 0.05975703 0.8830515 -0.05975703
v 1.353584E-15 1.0274 -5.324097E-15
v -0.05975703 0.8830515 -0.05975703
v -0.05975703 0.8830515 0.05975703
v 0.05975703 0.8830515 0.05975703

vn 0 0 -1
vn 0 0 1
vn -1 0 0
vn 1 0 0
vn 0 1 0
vn 0 -1 0
vn -0.9499531 -0.3123924 0
vn 0.9499531 -0.3123924 0
vn 0 -0.3123924 -0.9499531
vn 0 -0.3123924 0.9499531
vn 0.7071068 0 0.7071068
vn 0 0.7833207 0.6216179
vn -0.6216179 0.7833207 0
vn 0.7071068 0 -0.7071068
vn 0.6216179 0.7833207 0
vn 0.9239566 0.3824974 0
vn -0.9239566 -0.3824974 0
vn 0 0.3824974 -0.9239566
vn -0.9239566 0.3824974 0
vn 0 0.3824974 0.9239566
vn 0 0.7833207 -0.6216179

vt 11.61519 8.035433
vt -11.61519 8.035433
vt 11.61519 12.12598
vt -11.61519 12.12598
vt -11.61519 -11.61519
vt -11.61519 11.61519
vt 11.61519 -11.61519
vt 11.61519 11.61519
vt -11.61519 0
vt 11.61519 0
vt 11.61519 1.889614E-30
vt -11.61519 1.889614E-30
vt -13.24131 20.35301
vt 13.24131 20.35301
vt -11.61519 15.14761
vt 11.61519 15.14761
vt 11.61519 -5.668841E-30
vt -11.61519 -5.668841E-30
vt -13.24131 -13.24131
vt -5.405407E-14 -2.225874E-13
vt 13.24131 -13.24131
vt 13.24131 13.24131
vt -13.24131 13.24131
vt 13.24131 0.2393614
vt -13.24131 0.2393614
vt 7.934591 7.014008
vt -5.252734E-14 -2.241141E-13
vt -2.352639 31.22222
vt 2.352639 31.22222
vt -7.934591 16.62878
vt 7.934591 16.62878
vt -7.934591 7.014008
vt -5.329071E-14 17.14344
vt 2.096101E-13 37.37295
vt -5.329071E-14 37.37295
vt -2.096101E-13 37.37295
vt 5.329071E-14 37.37295

usemtl brick

f 3/3/1 2/2/1 1/1/1
f 2/2/1 3/3/1 4/4/1
f 7/3/2 6/2/2 5/1/2
f 6/2/2 7/3/2 8/4/2
f 6/1/3 3/4/3 1/2/3
f 3/4/3 6/1/3 8/3/3
f 7/4/4 2/1/4 4/3/4
f 2/1/4 7/4/4 5/2/4
f 3/7/5 7/6/5 4/5/5
f 7/6/5 3/7/5 8/8/5
f 2/5/6 5/6/6 1/7/6
f 6/8/6 1/7/6 5/6/6
f 10/10/1 9/9/1 5/1/1
f 6/2/1 5/1/1 9/9/1
f 11/12/4 1/2/4 9/11/4
f 6/1/4 9/11/4 1/2/4
f 11/10/2 12/9/2 1/1/2
f 2/2/2 1/1/2 12/9/2
f 3/15/7 14/14/7 13/13/7
f 14/14/7 3/15/7 8/16/7
f 16/13/8 4/16/8 15/14/8
f 4/16/8 16/13/8 7/15/8
f 13/14/9 4/15/9 3/16/9
f 4/15/9 13/14/9 15/13/9
f 2/1/3 12/17/3 5/2/3
f 10/18/3 5/2/3 12/17/3
f 13/21/5 17/20/5 15/19/5
f 17/20/5 13/21/5 14/22/5
f 17/20/5 16/23/5 15/19/5
f 16/23/5 17/20/5 14/22/5
f 16/14/10 8/15/10 7/16/10
f 8/15/10 16/14/10 14/13/10

usemtl _defaultMat

f 1/7/5 5/6/5 2/5/5
f 5/6/5 1/7/5 6/8/5
f 19/15/11 17/14/11 18/13/11
f 17/15/11 19/14/11 14/13/11
f 19/26/12 20/25/12 18/24/12
f 10/8/6 11/5/6 12/7/6
f 11/5/6 10/8/6 9/6/6
f 19/23/13 18/27/13 21/22/13
f 23/23/11 18/27/11 22/22/11
f 18/23/11 23/27/11 24/22/11
f 25/30/14 18/29/14 21/28/14
f 18/30/14 25/29/14 24/28/14
f 22/28/11 17/31/11 15/29/11
f 17/28/11 22/31/11 18/29/11
f 18/26/15 20/33/15 22/32/15
f 21/26/5 20/33/5 22/32/5
f 20/26/5 21/33/5 19/32/5
f 26/30/11 18/29/11 24/28/11
f 18/30/11 26/29/11 19/28/11
f 25/30/5 27/29/5 23/28/5
f 27/30/5 25/29/5 26/28/5
f 27/30/14 18/29/14 24/28/14
f 18/30/14 27/29/14 20/28/14

usemtl brickLight

f 5/1/2 9/9/2 10/10/2
f 9/9/2 5/1/2 6/2/2
f 9/11/3 1/2/3 11/12/3
f 1/2/3 9/11/3 6/1/3
f 1/1/1 12/9/1 11/10/1
f 12/9/1 1/1/1 2/2/1
f 12/7/5 11/5/5 10/8/5
f 9/6/5 10/8/5 11/5/5
f 5/2/4 12/17/4 2/1/4
f 12/17/4 5/2/4 10/18/4
f 27/28/16 23/29/16 24/34/16
f 24/34/17 23/29/17 27/28/17
f 24/35/18 23/28/18 25/29/18
f 26/29/19 24/36/19 25/28/19
f 24/37/20 26/28/20 27/29/20

usemtl grass

f 13/25/13 19/26/13 21/32/13
f 19/26/13 13/25/13 14/24/13
f 19/31/19 25/28/19 21/30/19
f 25/28/19 19/31/19 26/29/19
f 20/26/12 14/25/12 16/24/12
f 14/25/12 20/26/12 19/32/12
f 27/29/20 19/30/20 20/31/20
f 19/30/20 27/29/20 26/28/20
f 21/31/18 23/28/18 22/30/18
f 23/28/18 21/31/18 25/29/18
f 22/26/15 16/25/15 15/24/15
f 16/25/15 22/26/15 20/32/15
f 13/24/21 22/32/21 15/25/21
f 22/32/21 13/24/21 21/26/21
f 23/29/16 20/30/16 22/31/16
f 20/30/16 23/29/16 27/28/16
f 22/31/17 20/30/17 23/29/17
f 27/28/17 23/29/17 20/30/17

usemtl roof

f 21/26/21 18/33/21 22/32/21

