# Created by Kenney (www.kenney.nl)

mtllib tile_049.mtl

g tile_049

v -0.2189407 0.4 0.2189407
v -0.2189407 0.4 0.2950257
v -0.2950257 0.4 0.2189407
v -0.2950257 0.4 0.2950257
v -0.2189407 0 0.2950257
v -0.2950257 0 0.2950257
v -0.2189407 0.09230942 0.2950257
v 0.2950257 0.4 -0.2950257
v 0.2950257 0.4 -0.2189407
v 0.2189407 0.4 -0.2950257
v 0.2189407 0.4 -0.2189407
v -0.2950257 4.511946E-17 -0.2950257
v -0.2950257 0.4 -0.2950257
v -0.2950257 4.511946E-17 -0.2189407
v -0.2950257 0.4 -0.2189407
v -0.2950257 0.09230942 -0.2189407
v 0.2950257 0.4 0.2189407
v 0.2950257 0.4 0.2950257
v 0.2189407 0.4 0.2189407
v 0.2189407 0.4 0.2950257
v 0.2950257 0 0.2950257
v 0.2189407 0 0.2950257
v 0.2189407 0.09230942 0.2950257
v 0.2950257 0.09230942 0.2189407
v 0.2950257 0 0.2189407
v -0.2189407 4.511946E-17 -0.2950257
v -0.2189407 0.09230942 -0.2950257
v -0.2189407 0.4 -0.2950257
v 0.2189407 4.511946E-17 -0.2950257
v 0.2950257 4.511946E-17 -0.2950257
v 0.2189407 0.09230942 -0.2950257
v 0.2950257 4.511946E-17 -0.2189407
v 0.2950257 0.09230942 -0.2189407
v -0.2950257 0 0.2189407
v -0.2950257 0.09230942 0.2189407
v -0.2189407 0.4 -0.2189407

vn 0 1 0
vn 0 0 1
vn -1 0 0
vn 1 0 0
vn 0 0 -1
vn 0 -1 0

vt 8.619712 8.619712
vt 8.619712 11.61519
vt 11.61519 8.619712
vt 11.61519 11.61519
vt -8.619712 1.179282E-14
vt -11.61519 1.179282E-14
vt -8.619712 3.634229
vt -11.61519 15.74803
vt -8.619712 15.74803
vt -11.61519 -11.61519
vt -11.61519 -8.619712
vt -8.619712 -11.61519
vt -8.619712 -8.619712
vt -11.61519 1.776357E-15
vt -8.619712 3.651254E-13
vt -11.61519 8.619712
vt -11.61519 11.61519
vt -8.619712 8.619712
vt -8.619712 11.61519
vt 11.61519 -1.179282E-14
vt 8.619712 -1.179282E-14
vt 11.61519 15.74803
vt 8.619712 3.634229
vt 8.619712 15.74803
vt -8.619712 0
vt -11.61519 0
vt 11.61519 2.536199E-14
vt 8.619712 1.776357E-15
vt -8.619712 1.776357E-15
vt -11.61519 2.536199E-14
vt 11.61519 1.776357E-15
vt 8.619712 3.633491E-13
vt 11.61519 -2.871256E-14
vt 8.619712 -11.61519
vt 8.619712 -8.619712
vt 11.61519 -11.61519
vt 11.61519 -8.619712

usemtl brickLight

f 3/3/1 2/2/1 1/1/1
f 2/2/1 3/3/1 4/4/1
f 7/7/2 6/6/2 5/5/2
f 6/6/2 7/7/2 4/8/2
f 4/8/2 7/7/2 2/9/2
f 10/12/1 9/11/1 8/10/1
f 9/11/1 10/12/1 11/13/1
f 14/15/3 13/8/3 12/14/3
f 13/8/3 14/15/3 15/9/3
f 15/9/3 14/15/3 16/7/3
f 19/18/1 18/17/1 17/16/1
f 18/17/1 19/18/1 20/19/1
f 18/22/2 22/21/2 21/20/2
f 22/21/2 18/22/2 23/23/2
f 23/23/2 18/22/2 20/24/2
f 18/8/4 24/7/4 17/9/4
f 24/7/4 18/8/4 25/25/4
f 25/25/4 18/8/4 21/26/4
f 13/22/5 26/28/5 12/27/5
f 26/28/5 13/22/5 27/23/5
f 27/23/5 13/22/5 28/24/5
f 31/7/5 30/30/5 29/29/5
f 30/30/5 31/7/5 8/8/5
f 8/8/5 31/7/5 10/9/5
f 9/24/4 30/31/4 8/22/4
f 30/31/4 9/24/4 32/28/4
f 32/28/4 9/24/4 33/23/4
f 6/33/3 35/23/3 34/32/3
f 35/23/3 6/33/3 3/24/3
f 3/24/3 6/33/3 4/22/3
f 13/36/1 36/35/1 28/34/1
f 36/35/1 13/36/1 15/37/1

usemtl brickDark

f 34/32/3 16/7/3 14/15/3
f 16/7/3 34/32/3 35/23/3
f 27/23/5 29/29/5 26/28/5
f 29/29/5 27/23/5 31/7/5
f 24/7/4 32/28/4 33/23/4
f 32/28/4 24/7/4 25/25/4
f 23/23/2 5/5/2 22/21/2
f 5/5/2 23/23/2 7/7/2

usemtl brick

f 35/23/3 15/9/3 16/7/3
f 15/9/3 35/23/3 3/24/3
f 28/24/5 31/7/5 27/23/5
f 31/7/5 28/24/5 10/9/5
f 9/11/1 19/18/1 17/16/1
f 19/18/1 9/11/1 11/13/1
f 19/18/1 11/13/1 20/19/1
f 11/13/1 28/34/1 20/19/1
f 28/34/1 11/13/1 10/12/1
f 20/19/1 28/34/1 1/1/1
f 1/1/1 28/34/1 36/35/1
f 1/1/1 36/35/1 3/3/1
f 3/3/1 36/35/1 15/37/1
f 2/2/1 20/19/1 1/1/1
f 17/9/4 33/23/4 9/24/4
f 33/23/4 17/9/4 24/7/4
f 20/24/2 7/7/2 23/23/2
f 7/7/2 20/24/2 2/9/2
f 6/17/6 34/16/6 5/19/6
f 12/10/6 5/19/6 34/16/6
f 26/12/6 5/19/6 12/10/6
f 26/12/6 22/2/6 5/19/6
f 29/34/6 22/2/6 26/12/6
f 29/34/6 21/4/6 22/2/6
f 30/36/6 21/4/6 29/34/6
f 32/37/6 21/4/6 30/36/6
f 21/4/6 32/37/6 25/3/6
f 12/10/6 34/16/6 14/11/6

