# Created by Kenney (www.kenney.nl)

mtllib tile_072.mtl

g tile_072

v 0.5 0.2 -0.5
v 0.5 0 -0.5
v 0.5 0.2 0.5
v 0.5 0 0.5
v -0.5 0 0.5
v -0.5 0.2 0.5
v -0.5 0 -0.5
v -0.5 0.2 -0.5
v -0.5 0.4 -0.5
v 0.5 0.4 -0.5
v 0.5 0.4 0.5
v -0.5 0.4 0.5
v 0.4068044 0.4 -0.3172069
v 0.2463557 0.4 -0.4112931
v 0.08465028 0.4 -0.3193837
v 0.08339354 0.4 -0.1333879
v -0.1102633 0.4 -0.2131115
v -0.3829212 0.4 -0.06560675
v -0.3915074 0.4 0.2442743
v 0.4055476 0.4 -0.1312111
v -0.1274355 0.4 0.4066507
v 0.1452224 0.4 0.2591459
v 0.2438422 0.4 -0.03930164
v 0.1538085 0.4 -0.05073516

vn 1 0 0
vn 0 0 1
vn 0 0 -1
vn 0 -1 0
vn -1 0 0
vn 0 1 0

vt 19.68504 7.874016
vt 19.68504 0
vt -19.68504 7.874016
vt -19.68504 0
vt 19.68504 19.68504
vt 19.68504 -19.68504
vt -19.68504 19.68504
vt -19.68504 -19.68504
vt 19.68504 15.74803
vt -19.68504 15.74803
vt -16.01592 -12.48846
vt -9.699043 -16.19264
vt -3.332688 -12.57416
vt -3.28321 -5.251492
vt 4.341075 -8.390216
vt 15.07564 -2.582943
vt 15.41368 9.617099
vt -15.96644 -5.165793
vt 5.017147 16.00987
vt -5.717417 10.20259
vt -9.600087 -1.547309
vt -6.055453 -1.997447

usemtl dirt

f 3/3/1 2/2/1 1/1/1
f 2/2/1 3/3/1 4/4/1
f 3/1/2 5/4/2 4/2/2
f 5/4/2 3/1/2 6/3/2
f 8/1/3 2/4/3 7/2/3
f 2/4/3 8/1/3 1/3/3
f 5/7/4 2/6/4 4/5/4
f 2/6/4 5/7/4 7/8/4
f 5/2/5 8/3/5 7/4/5
f 8/3/5 5/2/5 6/1/5
f 1/8/6 6/5/6 3/7/6
f 6/5/6 1/8/6 8/6/6

usemtl grass

f 9/9/3 1/3/3 8/1/3
f 1/3/3 9/9/3 10/10/3
f 11/10/1 1/1/1 10/9/1
f 1/1/1 11/10/1 3/3/1
f 11/9/2 6/3/2 3/1/2
f 6/3/2 11/9/2 12/10/2
f 10/8/6 14/12/6 13/11/6
f 14/12/6 10/8/6 9/6/6
f 14/12/6 9/6/6 15/13/6
f 15/13/6 9/6/6 16/14/6
f 16/14/6 9/6/6 17/15/6
f 17/15/6 9/6/6 18/16/6
f 18/16/6 9/6/6 19/17/6
f 19/17/6 9/6/6 12/5/6
f 20/18/6 10/8/6 13/11/6
f 20/18/6 11/7/6 10/8/6
f 11/7/6 21/19/6 12/5/6
f 12/5/6 21/19/6 19/17/6
f 21/19/6 11/7/6 22/20/6
f 22/20/6 11/7/6 20/18/6
f 22/20/6 20/18/6 23/21/6
f 22/20/6 23/21/6 24/22/6
f 16/14/6 24/22/6 23/21/6
f 24/22/6 16/14/6 17/15/6
f 6/1/5 9/10/5 8/3/5
f 9/10/5 6/1/5 12/9/5

g Group

v -0.3915074 0.4 0.2442743
v -0.3829212 0.4 -0.06560674
v -0.2906239 0.65 0.1896976
v -0.2852147 0.65 -0.005527526
v 0.04751584 0.65 0.1990667
v -0.1242587 0.65 0.2919947
v -0.1134402 0.65 -0.09845549
v 0.05292505 0.65 0.003841609
v 0.1538085 0.4 -0.05073512
v -0.1102633 0.4 -0.2131115

vn -0.9289725 0.3692526 -0.02573977
vn 0.4421949 0.3692526 0.8173837
vn 0.9289725 0.3692526 0.02573977
vn -0.4421949 0.3692526 -0.8173837
vn -0.4867775 0.3692526 0.7916439
vn 0.4867775 0.3692526 -0.7916439

vt -6.390316 -0.06538042
vt -18.59504 -0.06538042
vt -8.64819 10.52561
vt -16.33717 10.52561
vt 21.34891 -1.826654
vt 9.14418 -1.826654
vt 19.09103 8.764341
vt 11.40205 8.764341
vt 3.971789 8.54146
vt 4.184752 16.22749
vt 10.5216 4.514016
vt 10.94753 19.88607
vt 17.28438 8.172598
vt 17.49734 15.85862
vt 6.390316 -7.740325
vt 8.64819 2.85067
vt 18.59504 -7.740325
vt 16.33717 2.85067
vt -9.14418 -5.979052
vt -21.34891 -5.979052
vt -11.40205 4.611943
vt -19.09103 4.611943
vt 8.856226 2.010819
vt -3.348498 2.010819
vt 6.598352 12.60181
vt -1.090624 12.60181
vt 3.348498 -9.816525
vt -8.856226 -9.816525
vt 1.090624 0.7744708
vt -6.598352 0.7744708
vt -8.463657E-31 6.392769
vt 0.3380361 18.59281
vt 10.39653 0
vt 11.0726 24.40008
vt 21.13109 5.807273
vt 21.46913 18.00731

usemtl stone

f 27/25/7 26/24/7 25/23/7
f 26/24/7 27/25/7 28/26/7
f 29/29/8 21/28/8 22/27/8
f 21/28/8 29/29/8 30/30/8
f 30/33/6 28/32/6 27/31/6
f 28/32/6 30/33/6 31/34/6
f 31/34/6 30/33/6 29/35/6
f 31/34/6 29/35/6 32/36/6
f 33/39/9 29/38/9 22/37/9
f 29/38/9 33/39/9 32/40/9
f 28/43/10 34/42/10 26/41/10
f 34/42/10 28/43/10 31/44/10
f 30/47/11 25/46/11 21/45/11
f 25/46/11 30/47/11 27/48/11
f 31/51/12 33/50/12 34/49/12
f 33/50/12 31/51/12 32/52/12

usemtl grass

f 21/55/6 26/54/6 25/53/6
f 26/54/6 21/55/6 34/56/6
f 34/56/6 21/55/6 22/57/6
f 34/56/6 22/57/6 33/58/6

g Group

v 0.2438422 0.4 -0.03930166
v 0.0833935 0.4 -0.1333879
v 0.2443072 0.55 -0.1081201
v 0.1432245 0.55 -0.1673944
v 0.4068044 0.4 -0.3172069
v 0.3469734 0.55 -0.2832004
v 0.3461816 0.55 -0.1660231
v 0.1440163 0.55 -0.2845717
v 0.2458907 0.55 -0.3424747
v 0.2463557 0.4 -0.4112932
v 0.08465026 0.4 -0.3193837

vn -0.2820552 0.2215516 0.4809988
vn 0.5575848 0.2215516 0.00376761
vn 2.382308E-17 0.6 -6.767919E-18
vn 0.2820552 0.2215516 -0.4809988
vn -0.5575848 0.2215516 -0.00376761
vn 0.2755296 0.2215516 0.4847663
vn -0.2755296 0.2215516 -0.4847663


usemtl stone

f 37/25/13 36/24/13 35/23/13
f 36/24/13 37/25/13 38/26/13
f 40/29/14 20/28/14 39/27/14
f 20/28/14 40/29/14 41/30/14
f 41/33/15 38/32/15 37/31/15
f 38/32/15 41/33/15 42/34/15
f 42/34/15 41/33/15 40/35/15
f 42/34/15 40/35/15 43/36/15
f 44/39/16 40/38/16 39/37/16
f 40/38/16 44/39/16 43/40/16
f 38/43/17 45/42/17 36/41/17
f 45/42/17 38/43/17 42/44/17
f 41/47/18 35/46/18 20/45/18
f 35/46/18 41/47/18 37/48/18
f 42/51/19 44/50/19 45/49/19
f 44/50/19 42/51/19 43/52/19

usemtl grass

f 20/55/15 36/54/15 35/53/15
f 36/54/15 20/55/15 45/56/15
f 45/56/15 20/55/15 39/57/15
f 45/56/15 39/57/15 44/58/15

