# Created by Kenney (www.kenney.nl)

mtllib tile_099.mtl

g tile_099

v -0.5 0.37 -0.375
v -0.5 0.37 0.375
v -0.5 0.2 -0.375
v -0.5 0.2 0.375
v -0.5 0 0.5
v -0.5 0.2 -0.5
v -0.5 0 -0.5
v -0.5 0.2 0.5
v 0.5 0.2 -0.5
v 0.5 0 -0.5
v 0.5 0.2 -0.375
v 0.5 0 0.5
v 0.5 0.2 0.375
v 0.5 0.2 0.5
v 0.5 0.37 0.375
v 0.5 0.37 -0.375
v 0.5 0.4 -0.375
v -0.5 0.4 -0.375
v -0.375 0.37 0.375
v -0.5 0.4 0.375
v -0.375 0.4 0.375
v 0.375 0.2 0.5
v -0.375 0.2 0.5
v 0.375 0.37 0.5
v -0.375 0.37 0.5
v -0.375 0.4 0.5
v 0.5 0.4 0.375
v 0.375 0.37 0.375
v 0.375 0.4 0.375
v 0.375 0.4 0.5
v 0.5 0.4 0.5
v 0.5 0.4 -0.5
v -0.5 0.4 -0.5
v -0.5 0.4 0.5

vn -1 0 0
vn 1 0 0
vn 0 0 1
vn 0 -1 0
vn 0 0 -1
vn 0 1 0

vt -14.76378 14.56693
vt 14.76378 14.56693
vt -14.76378 7.874016
vt 14.76378 7.874016
vt 19.68504 0
vt -19.68504 7.874016
vt -19.68504 0
vt 19.68504 7.874016
vt 19.68504 14.56693
vt -19.68504 14.56693
vt 19.68504 15.74803
vt -19.68504 15.74803
vt 19.68504 19.68504
vt 19.68504 -19.68504
vt -19.68504 19.68504
vt -19.68504 -19.68504
vt 14.76378 15.74803
vt -14.76378 15.74803
vt -19.68504 14.76378
vt -14.76378 14.76378
vt -19.68504 -14.76378
vt 19.68504 -14.76378
vt -14.76378 19.68504
vt 14.76378 14.76378
vt 19.68504 14.76378
vt 14.76378 19.68504

usemtl dirt

f 3/3/1 2/2/1 1/1/1
f 2/2/1 3/3/1 4/4/1
f 3/3/1 5/5/1 4/4/1
f 6/6/1 5/5/1 3/3/1
f 5/5/1 6/6/1 7/7/1
f 4/4/1 5/5/1 8/8/1
f 11/4/2 10/5/2 9/8/2
f 10/5/2 11/4/2 12/7/2
f 12/7/2 11/4/2 13/3/2
f 12/7/2 13/3/2 14/6/2
f 11/4/2 15/1/2 13/3/2
f 15/1/2 11/4/2 16/2/2
f 17/11/3 1/10/3 16/9/3
f 1/10/3 17/11/3 18/12/3
f 5/15/4 10/14/4 12/13/4
f 10/14/4 5/15/4 7/16/4
f 20/11/5 19/2/5 2/9/5
f 19/2/5 20/11/5 21/17/5
f 24/2/3 23/3/3 22/4/3
f 23/3/3 24/2/3 25/1/3
f 8/6/3 22/4/3 23/3/3
f 8/6/3 14/8/3 22/4/3
f 5/7/3 14/8/3 8/6/3
f 14/8/3 5/7/3 12/5/3
f 26/12/2 19/1/2 21/18/2
f 19/1/2 26/12/2 25/10/2
f 28/1/5 27/12/5 15/10/5
f 27/12/5 28/1/5 29/18/5
f 6/8/5 10/7/5 7/5/5
f 10/7/5 6/8/5 9/6/5
f 16/21/6 28/20/6 15/19/6
f 28/20/6 16/21/6 1/22/6
f 28/20/6 1/22/6 24/23/6
f 24/23/6 1/22/6 19/24/6
f 19/24/6 1/22/6 2/25/6
f 25/26/6 24/23/6 19/24/6
f 11/21/6 14/15/6 13/19/6
f 14/15/6 11/21/6 22/23/6
f 22/23/6 11/21/6 9/16/6
f 22/23/6 9/16/6 6/14/6
f 22/23/6 6/14/6 23/26/6
f 23/26/6 6/14/6 4/25/6
f 4/25/6 6/14/6 3/22/6
f 8/13/6 23/26/6 4/25/6
f 24/9/1 29/17/1 28/2/1
f 29/17/1 24/9/1 30/11/1

usemtl grass

f 29/20/6 31/15/6 27/19/6
f 31/15/6 29/20/6 30/23/6
f 17/17/2 9/8/2 32/11/2
f 9/8/2 17/17/2 16/2/2
f 9/8/2 16/2/2 11/4/2
f 3/3/1 33/12/1 6/6/1
f 33/12/1 3/3/1 1/1/1
f 18/18/1 33/12/1 1/1/1
f 31/12/2 15/1/2 27/18/2
f 15/1/2 31/12/2 13/3/2
f 13/3/2 31/12/2 14/6/2
f 8/8/1 2/2/1 4/4/1
f 2/2/1 8/8/1 20/17/1
f 20/17/1 8/8/1 34/11/1
f 32/16/6 18/22/6 17/21/6
f 18/22/6 32/16/6 33/14/6
f 20/25/6 26/26/6 21/24/6
f 26/26/6 20/25/6 34/13/6
f 25/1/3 8/6/3 23/3/3
f 8/6/3 25/1/3 34/12/3
f 34/12/3 25/1/3 26/18/3
f 33/11/5 9/6/5 6/8/5
f 9/6/5 33/11/5 32/12/5
f 31/11/3 22/4/3 14/8/3
f 22/4/3 31/11/3 24/2/3
f 24/2/3 31/11/3 30/17/3

