# Created by Kenney (www.kenney.nl)

mtllib tile_004.mtl

g tile_004

v 0.5 0 0.5
v 0.5 0 -0.5
v -0.5 0 0.5
v -0.5 0 -0.5
v 0.5 0.2 0.5
v -0.5 0.2 0.5
v 0.375 0.2 0.5
v -0.375 0.2 0.5
v -0.5 0.2 -0.5
v -0.375 0.2 -0.5
v 0.375 0.2 -0.5
v 0.5 0.2 -0.5
v -0.375 0.57 -0.5
v 0.375 0.57 -0.5
v -0.375 0.6 -0.5
v -0.375 0.4 0.5
v -0.375 0.37 0.5
v 0.375 0.6 -0.5
v 0.375 0.37 0.5
v 0.375 0.4 0.5
v -0.5 0.6 -0.5
v -0.5 0.4 0.5
v 0.5 0.6 -0.5
v 0.5 0.4 0.5

vn 0 -1 0
vn 0 0 1
vn 0 0 -1
vn -1 0 0
vn 1 0 0
vn 0 1 0
vn 0 0.9805807 0.1961161

vt 19.68504 19.68504
vt 19.68504 -19.68504
vt -19.68504 19.68504
vt -19.68504 -19.68504
vt 19.68504 0
vt -19.68504 0
vt 19.68504 7.874016
vt -19.68504 7.874016
vt 14.76378 7.874016
vt -14.76378 7.874016
vt 14.76378 22.44094
vt -14.76378 22.44094
vt -14.76378 19.68504
vt -14.76378 -19.68504
vt 14.76378 19.68504
vt 14.76378 -19.68504
vt 19.68504 23.62205
vt 19.68504 22.44094
vt -19.68504 15.74803
vt -19.68504 14.56693
vt -19.68504 22.44094
vt -19.68504 23.62205
vt 19.68504 14.56693
vt 19.68504 15.74803
vt 14.76378 -16.44596
vt -14.76378 -16.44596
vt 14.76378 23.7038
vt -14.76378 23.7038
vt 14.76378 14.56693
vt -14.76378 14.56693
vt -14.76378 -16.21433
vt -19.68504 -16.21433
vt -14.76378 23.93543
vt -19.68504 23.93543
vt 19.68504 -16.21433
vt 14.76378 -16.21433
vt 19.68504 23.93543
vt 14.76378 23.93543
vt 14.76378 15.74803
vt 14.76378 23.62205
vt -14.76378 15.74803
vt -14.76378 23.62205

usemtl dirt

f 3/3/1 2/2/1 1/1/1
f 2/2/1 3/3/1 4/4/1
f 5/7/2 3/6/2 1/5/2
f 3/6/2 5/7/2 6/8/2
f 6/8/2 5/7/2 7/9/2
f 6/8/2 7/9/2 8/10/2
f 9/7/3 2/6/3 4/5/3
f 2/6/3 9/7/3 10/9/3
f 11/10/3 2/6/3 10/9/3
f 2/6/3 11/10/3 12/8/3
f 13/11/3 11/10/3 10/9/3
f 11/10/3 13/11/3 14/12/3
f 3/5/4 9/8/4 4/6/4
f 9/8/4 3/5/4 6/7/4
f 5/8/5 2/5/5 12/7/5
f 2/5/5 5/8/5 1/6/5
f 12/4/6 7/13/6 5/3/6
f 7/13/6 12/4/6 11/14/6
f 7/13/6 11/14/6 8/15/6
f 8/15/6 11/14/6 10/16/6
f 8/15/6 10/16/6 6/1/6
f 6/1/6 10/16/6 9/2/6
f 16/19/5 13/18/5 15/17/5
f 13/18/5 16/19/5 17/20/5
f 19/23/4 18/22/4 14/21/4
f 18/22/4 19/23/4 20/24/4
f 14/27/7 17/26/7 19/25/7
f 17/26/7 14/27/7 13/28/7
f 19/29/2 8/10/2 7/9/2
f 8/10/2 19/29/2 17/30/2

usemtl grass

f 6/7/4 21/22/4 9/8/4
f 21/22/4 6/7/4 22/24/4
f 15/33/7 22/32/7 16/31/7
f 22/32/7 15/33/7 21/34/7
f 24/19/5 12/7/5 23/17/5
f 12/7/5 24/19/5 5/8/5
f 23/37/7 20/36/7 24/35/7
f 20/36/7 23/37/7 18/38/7
f 24/24/2 7/9/2 5/7/2
f 7/9/2 24/24/2 19/29/2
f 19/29/2 24/24/2 20/39/2
f 9/7/3 13/11/3 10/9/3
f 13/11/3 9/7/3 21/17/3
f 13/11/3 21/17/3 15/40/3
f 17/30/2 6/8/2 8/10/2
f 6/8/2 17/30/2 22/19/2
f 22/19/2 17/30/2 16/41/2
f 14/12/3 12/8/3 11/10/3
f 12/8/3 14/12/3 23/22/3
f 23/22/3 14/12/3 18/42/3

