# Created by Kenney (www.kenney.nl)

mtllib tile_083.mtl

g tile_083

v -0.5 0.2 -0.5
v -0.5 0.4 -0.5
v -0.5 0.2 0.5
v -0.5 0.4332444 -0.4207092
v -0.5 0.4606837 -0.3392272
v -0.5 0.4821751 -0.2559785
v -0.5 0.4976065 -0.1713966
v -0.5 0.5068976 -0.08592205
v -0.5 0.51 0
v -0.5 0.5068976 0.08592205
v -0.5 0.4976065 0.1713966
v -0.5 0.4821751 0.2559785
v -0.5 0.4606837 0.3392272
v -0.5 0.4332444 0.4207092
v -0.5 0.4 0.5
v 0.5 0.4 -0.5
v 0.5 0.2 -0.5
v 0.5 0.4332444 -0.4207092
v 0.5 0.2 0.5
v 0.5 0.4606837 -0.3392272
v 0.5 0.4821751 -0.2559785
v 0.5 0.4976065 -0.1713966
v 0.5 0.5068976 -0.08592206
v 0.5 0.51 -2.279935E-09
v 0.5 0.5068976 0.08592205
v 0.5 0.4976065 0.1713966
v 0.5 0.4821751 0.2559785
v 0.5 0.4606837 0.3392272
v 0.5 0.4332444 0.4207092
v 0.5 0.4 0.5
v -0.375 0.2 -0.5
v -0.375 0.37 -0.5
v -0.375 0.4 -0.5
v 0.375 0.2 0.5
v 0.375 0.37 0.5
v 0.375 0.4 0.5
v 0.375 0.4821751 -0.2559785
v 0.375 0.4606837 -0.3392272
v -0.375 0.4332444 0.4207092
v -0.375 0.4606837 0.3392272
v -0.375 0.5068976 -0.08592206
v -0.375 0.4976065 -0.1713966
v -0.375 0.4821751 0.2559785
v 0.375 0.4976065 -0.1713966
v 0.375 0.4821751 0.2559785
v 0.375 0.4976065 0.1713966
v -0.375 0.4976065 0.1713966
v -0.375 0.5068976 0.08592205
v 0.375 0.5068976 0.08592205
v -0.375 0.51 -1.139967E-09
v -0.375 0.4606837 -0.3392272
v -0.375 0.4332444 -0.4207092
v 0.375 0.51 -1.139967E-09
v 0.375 0.5068976 -0.08592206
v 0.375 0.4332444 -0.4207092
v -0.375 0.4821751 -0.2559785
v 0.375 0.4 -0.5
v 0.375 0.4332444 0.4207092
v -0.375 0.2 0.5
v -0.375 0.37 0.5
v -0.375 0.4 0.5
v 0.375 0.4606837 0.3392272
v 0.375 0.2 -0.5
v 0.375 0.37 -0.5
v 0.5 0 0.5
v 0.5 0 -0.5
v -0.5 0 0.5
v -0.5 0 -0.5
v 0.375 0.4521751 -0.2559785
v -0.375 0.4521751 -0.2559785
v 0.375 0.4306838 -0.3392272
v -0.375 0.4306837 -0.3392272
v 0.375 0.4 -0.4284474
v 0.375 0.4032444 -0.4207092
v 0.375 0.4676065 -0.1713966
v 0.375 0.4768976 -0.08592207
v 0.375 0.48 -7.561058E-09
v 0.375 0.4768976 0.08592205
v 0.375 0.4676065 0.1713966
v 0.375 0.4521751 0.2559785
v 0.375 0.4306838 0.3392272
v 0.375 0.4032444 0.4207092
v 0.375 0.4 0.4284473
v -0.375 0.4032444 -0.4207092
v -0.375 0.4 -0.4284474
v -0.375 0.4676065 -0.1713966
v -0.375 0.4768976 -0.08592206
v -0.375 0.48 -1.139967E-09
v -0.375 0.4768976 0.08592205
v -0.375 0.4676065 0.1713966
v -0.375 0.4521751 0.2559785
v -0.375 0.4306837 0.3392272
v -0.375 0.4032444 0.4207092
v -0.375 0.4 0.4284473

vn -1 0 0
vn 1 0 0
vn 0 0 -1
vn 0 0 1
vn 0 0.9766445 -0.2148618
vn 0 0.9586052 -0.2847386
vn 0 0.9355733 0.3531325
vn 0 0.9586052 0.2847386
vn 0 0.9973959 -0.07212076
vn 0 0.9895971 -0.1438659
vn 0 0.9766445 0.2148618
vn 0 0.9895971 0.1438659
vn 0 0.9973959 0.07212076
vn 0 1 0
vn 0 0.9355733 -0.3531325
vn 0 0.9222217 -0.3866616
vn 0 0.9355733 0.3531324
vn 0 0.9222217 0.3866616
vn 0 -1 0
vn 0 0.9355733 -0.3531324
vn 0 0.9222216 -0.3866618
vn 0 0.9222217 0.3866615
vn 0 0.9222216 0.3866617

vt -19.68504 7.874015
vt -19.68504 15.74803
vt 19.68504 7.874015
vt -16.56335 17.05687
vt -13.3554 18.13715
vt -10.07789 18.98327
vt -6.747899 19.59081
vt -3.382758 19.9566
vt -1.293404E-07 20.07874
vt 3.382758 19.9566
vt 6.747898 19.59081
vt 10.07789 18.98327
vt 13.3554 18.13715
vt 16.56335 17.05687
vt 19.68504 15.74803
vt 19.68504 15.74803
vt 19.68504 7.874016
vt 16.56335 17.05687
vt -19.68504 7.874016
vt 13.3554 18.13716
vt 6.747899 19.59081
vt 3.382758 19.9566
vt -3.957923E-08 20.07874
vt -3.382758 19.9566
vt -6.747899 19.59081
vt -13.3554 18.13716
vt -16.56335 17.05687
vt -19.68504 15.74803
vt 19.68504 7.874016
vt 14.76378 7.874016
vt 14.76378 14.56693
vt 14.76378 15.74803
vt -19.68504 -5.012857
vt -14.76378 -5.012858
vt -19.68504 -8.39782
vt -14.76378 -8.39782
vt -14.76378 -10.25361
vt -19.68504 -10.25361
vt -14.76378 -6.868646
vt -19.68504 -6.868645
vt 14.76378 -1.206358
vt 19.68504 -1.206355
vt 14.76378 -4.59132
vt 19.68504 -4.591318
vt -14.76378 -8.39782
vt -14.76378 -5.012857
vt -19.68504 -5.012856
vt -19.68504 -3.122145
vt -14.76378 -3.122147
vt -19.68504 -6.507108
vt -14.76378 -6.507109
vt 19.68504 -6.507108
vt 14.76378 -6.50711
vt 19.68504 -3.122146
vt 14.76378 -3.122147
vt -14.76378 -4.59132
vt -19.68504 -4.591318
vt -14.76378 -1.206357
vt -19.68504 -1.206355
vt 19.68504 -4.591319
vt 14.76378 -4.591321
vt 19.68504 -1.206357
vt 14.76378 -1.206359
vt -14.76378 -2.660422
vt -19.68505 -2.660414
vt -14.76378 0.7245409
vt -19.68504 0.7245482
vt 14.76378 -6.868646
vt 19.68504 -6.868646
vt 14.76378 -10.25361
vt 19.68504 -10.25361
vt -19.68504 0.7245435
vt -14.76378 0.7245373
vt -19.68504 -2.660419
vt -14.76378 -2.660425
vt -19.68504 -6.868646
vt -14.76378 -6.868646
vt -19.68504 -10.25361
vt -14.76378 -10.25361
vt 19.68504 -2.660419
vt 14.76378 -2.660425
vt 19.68504 0.7245433
vt 14.76378 0.7245371
vt -19.68504 -1.206356
vt -14.76378 -1.206358
vt -19.68504 -4.591319
vt -14.76378 -4.591321
vt 14.76378 0.7245405
vt 19.68504 0.7245478
vt 14.76378 -2.660422
vt 19.68505 -2.660415
vt 14.76378 -12.06481
vt 14.76378 -8.679848
vt 19.68504 -12.06481
vt 19.68504 -8.679848
vt 14.76378 -5.012858
vt 19.68504 -5.012857
vt 14.76378 -8.39782
vt 19.68504 -8.39782
vt -19.68504 -12.06481
vt -19.68504 -8.679848
vt -14.76378 -12.06481
vt -14.76378 -8.679848
vt -14.76378 -6.507109
vt -19.68504 -6.507107
vt -14.76378 -3.122146
vt -19.68504 -3.122144
vt 19.68504 -8.679848
vt 19.68504 -12.06481
vt 14.76378 -8.679849
vt 14.76378 -3.122146
vt 19.68504 -3.122145
vt 14.76378 -6.507109
vt 19.68504 -6.507108
vt -14.76378 7.874016
vt -19.68504 7.874016
vt -14.76378 14.56693
vt -14.76378 15.74803
vt 19.68504 -8.39782
vt 14.76378 -8.39782
vt 19.68504 -5.012857
vt 14.76378 -5.012858
vt 19.68504 -10.25361
vt 14.76378 -10.25361
vt 14.76378 -6.868647
vt -14.76378 -8.679848
vt -14.76378 -12.06481
vt -19.68504 -12.06481
vt 19.68504 19.68504
vt 19.68504 -19.68504
vt -19.68504 19.68504
vt -19.68504 -19.68504
vt 19.68504 0
vt -19.68504 0
vt -14.76378 -19.68504
vt -14.76378 19.68504
vt 14.76378 -19.68504
vt 14.76378 19.68504
vt -14.76378 -5.30809
vt 14.76378 -5.308095
vt -14.76378 -8.693052
vt 14.76378 -8.693058
vt -19.68504 14.56693
vt -16.86801 15.74803
vt -16.56335 17.05687
vt -16.56335 15.87576
vt -13.3554 16.95605
vt -10.07789 17.80217
vt -10.07789 18.98327
vt -6.747899 18.4097
vt -6.747898 19.59081
vt -3.382758 18.7755
vt -3.382758 19.9566
vt -1.676721E-07 18.89764
vt 8.512673E-08 20.07874
vt 3.382758 18.7755
vt 3.382758 19.9566
vt 6.747898 18.4097
vt 6.747899 19.59081
vt 10.07789 17.80217
vt 10.07789 18.98327
vt 13.3554 16.95605
vt 16.56335 15.87576
vt 16.56335 17.05687
vt 16.86801 15.74803
vt 19.68504 14.56693
vt -14.76378 -7.245587
vt 14.76378 -7.245592
vt -14.76378 -10.63055
vt 14.76378 -10.63055
vt 16.86801 15.74803
vt 16.56335 15.87576
vt 13.3554 16.95605
vt 6.747899 18.4097
vt 3.382758 18.7755
vt 1.748879E-07 20.07874
vt 1.748879E-07 18.89764
vt -3.382758 18.7755
vt -6.747898 18.4097
vt -13.3554 18.13715
vt -13.3554 16.95605
vt -16.56335 15.87576
vt -16.86801 15.74803
vt -14.76378 -12.52149
vt -14.76378 -9.466878
vt 14.76378 -12.52149
vt 14.76378 -9.46688
vt -14.76378 -9.136535
vt 14.76378 -9.136538
vt 14.76378 -2.703043
vt -14.76378 -2.703081
vt 14.76378 0.6819193
vt -14.76378 0.6818814
vt 14.76378 -8.693052
vt -14.76378 -8.693058
vt 14.76378 -5.30809
vt -14.76378 -5.308095
vt -14.76378 0.6819189
vt 14.76378 0.6818811
vt -14.76378 -2.703044
vt 14.76378 -2.703082
vt 14.76378 -6.719094
vt -14.76378 -6.719102
vt 14.76378 -3.334131
vt -14.76378 -3.334139
vt 14.76378 -10.63055
vt -14.76378 -10.63055
vt 14.76378 -7.245587
vt -14.76378 -7.245591
vt 14.76378 -9.136535
vt 14.76378 -9.466882
vt -14.76378 -9.136538
vt -14.76378 -9.466885
vt -14.76378 -12.5215
vt 14.76378 -12.52149
vt -14.76378 -1.333993
vt 14.76378 -1.334005
vt -14.76378 -4.718956
vt 14.76378 -4.718968
vt -14.76378 -3.334132
vt 14.76378 -3.334139
vt -14.76378 -6.719094
vt 14.76378 -6.719102
vt 14.76378 -4.718955
vt -14.76378 -4.718967
vt 14.76378 -1.333992
vt -14.76378 -1.334005

usemtl grass

f 3/3/1 2/2/1 1/1/1
f 2/2/1 3/3/1 4/4/1
f 4/4/1 3/3/1 5/5/1
f 5/5/1 3/3/1 6/6/1
f 6/6/1 3/3/1 7/7/1
f 7/7/1 3/3/1 8/8/1
f 8/8/1 3/3/1 9/9/1
f 9/9/1 3/3/1 10/10/1
f 10/10/1 3/3/1 11/11/1
f 11/11/1 3/3/1 12/12/1
f 12/12/1 3/3/1 13/13/1
f 13/13/1 3/3/1 14/14/1
f 14/14/1 3/3/1 15/15/1
f 18/18/2 17/17/2 16/16/2
f 17/17/2 18/18/2 19/19/2
f 19/19/2 18/18/2 20/20/2
f 19/19/2 20/20/2 21/12/2
f 19/19/2 21/12/2 22/21/2
f 19/19/2 22/21/2 23/22/2
f 19/19/2 23/22/2 24/23/2
f 19/19/2 24/23/2 25/24/2
f 19/19/2 25/24/2 26/25/2
f 19/19/2 26/25/2 27/6/2
f 19/19/2 27/6/2 28/26/2
f 19/19/2 28/26/2 29/27/2
f 19/19/2 29/27/2 30/28/2
f 2/16/3 31/30/3 1/29/3
f 31/30/3 2/16/3 32/31/3
f 32/31/3 2/16/3 33/32/3
f 30/16/4 34/30/4 19/29/4
f 34/30/4 30/16/4 35/31/4
f 35/31/4 30/16/4 36/32/4
f 20/35/6 37/34/5 21/33/5
f 37/34/5 20/35/6 38/36/6
f 40/39/8 14/38/7 39/37/7
f 14/38/7 40/39/8 13/40/8
f 42/43/10 8/42/9 41/41/9
f 8/42/9 42/43/10 7/44/10
f 43/46/11 13/35/8 40/45/8
f 13/35/8 43/46/11 12/47/11
f 21/50/5 44/49/10 22/48/10
f 44/49/10 21/50/5 37/51/5
f 26/54/12 45/53/11 27/52/11
f 45/53/11 26/54/12 46/55/12
f 48/58/13 11/57/12 47/56/12
f 11/57/12 48/58/13 10/59/13
f 25/62/13 46/61/12 26/60/12
f 46/61/12 25/62/13 49/63/13
f 50/66/14 10/65/13 48/64/13
f 10/65/13 50/66/14 9/67/14
f 52/70/15 5/69/6 51/68/6
f 5/69/6 52/70/15 4/71/15
f 23/74/9 53/73/14 24/72/14
f 53/73/14 23/74/9 54/75/9
f 18/78/15 38/77/6 20/76/6
f 38/77/6 18/78/15 55/79/15
f 24/82/14 49/81/13 25/80/13
f 49/81/13 24/82/14 53/83/14
f 22/86/10 54/85/9 23/84/9
f 54/85/9 22/86/10 44/87/10
f 41/90/9 9/89/14 50/88/14
f 9/89/14 41/90/9 8/91/9
f 2/94/16 52/93/15 33/92/16
f 52/93/15 2/94/16 4/95/15
f 51/98/6 6/97/5 56/96/5
f 6/97/5 51/98/6 5/99/6
f 57/102/16 18/101/15 16/100/16
f 18/101/15 57/102/16 55/103/15
f 47/106/12 12/105/11 43/104/11
f 12/105/11 47/106/12 11/107/12
f 58/110/7 30/109/18 29/108/17
f 30/109/18 58/110/7 36/92/18
f 56/113/5 7/112/10 42/111/10
f 7/112/10 56/113/5 6/114/5
f 60/117/4 3/116/4 59/115/4
f 3/116/4 60/117/4 15/28/4
f 15/28/4 60/117/4 61/118/4
f 27/121/11 62/120/8 28/119/8
f 62/120/8 27/121/11 45/122/11
f 64/117/3 17/116/3 63/115/3
f 17/116/3 64/117/3 16/28/3
f 16/28/3 64/117/3 57/118/3
f 28/69/8 58/124/7 29/123/17
f 58/124/7 28/69/8 62/125/8
f 14/101/7 61/127/18 39/126/7
f 61/127/18 14/101/7 15/128/18

usemtl dirt

f 67/131/19 66/130/19 65/129/19
f 66/130/19 67/131/19 68/132/19
f 1/29/3 66/134/3 68/133/3
f 66/134/3 1/29/3 17/116/3
f 17/116/3 1/29/3 31/30/3
f 17/116/3 31/30/3 63/115/3
f 32/31/3 63/115/3 31/30/3
f 63/115/3 32/31/3 64/117/3
f 67/133/1 1/1/1 68/134/1
f 1/1/1 67/133/1 3/3/1
f 19/29/4 67/134/4 65/133/4
f 67/134/4 19/29/4 3/116/4
f 3/116/4 19/29/4 34/30/4
f 3/116/4 34/30/4 59/115/4
f 35/31/4 59/115/4 34/30/4
f 59/115/4 35/31/4 60/117/4
f 19/19/2 66/133/2 17/17/2
f 66/133/2 19/19/2 65/134/2
f 63/135/14 19/131/14 17/132/14
f 19/131/14 63/135/14 34/136/14
f 34/136/14 63/135/14 31/137/14
f 34/136/14 31/137/14 59/138/14
f 59/138/14 31/137/14 1/130/14
f 59/138/14 1/130/14 3/129/14
f 32/137/14 35/136/14 64/135/14
f 35/136/14 32/137/14 60/138/14
f 71/141/6 70/140/5 69/139/5
f 70/140/5 71/141/6 72/142/6
f 73/144/1 57/2/1 64/143/1
f 57/2/1 73/144/1 55/145/1
f 55/145/1 73/144/1 74/146/1
f 55/145/1 74/146/1 71/147/1
f 55/145/1 71/147/1 38/5/1
f 38/5/1 71/147/1 69/148/1
f 38/5/1 69/148/1 37/149/1
f 37/149/1 69/148/1 75/150/1
f 37/149/1 75/150/1 44/151/1
f 44/151/1 75/150/1 76/152/1
f 44/151/1 76/152/1 54/153/1
f 54/153/1 76/152/1 77/154/1
f 54/153/1 77/154/1 53/155/1
f 53/155/1 77/154/1 78/156/1
f 53/155/1 78/156/1 49/157/1
f 49/157/1 78/156/1 79/158/1
f 49/157/1 79/158/1 46/159/1
f 46/159/1 79/158/1 80/160/1
f 46/159/1 80/160/1 45/161/1
f 45/161/1 80/160/1 81/162/1
f 45/161/1 81/162/1 62/13/1
f 62/13/1 81/162/1 82/163/1
f 62/13/1 82/163/1 58/164/1
f 58/164/1 82/163/1 83/165/1
f 58/164/1 83/165/1 36/15/1
f 36/15/1 83/165/1 35/166/1
f 74/169/15 72/168/6 71/167/6
f 72/168/6 74/169/15 84/170/20
f 52/164/2 32/166/2 33/16/2
f 32/166/2 52/164/2 85/171/2
f 85/171/2 52/164/2 84/172/2
f 84/172/2 52/164/2 51/13/2
f 84/172/2 51/13/2 72/173/2
f 72/173/2 51/13/2 56/12/2
f 72/173/2 56/12/2 70/160/2
f 70/160/2 56/12/2 42/159/2
f 70/160/2 42/159/2 86/174/2
f 86/174/2 42/159/2 41/157/2
f 86/174/2 41/157/2 87/175/2
f 87/175/2 41/157/2 50/176/2
f 87/175/2 50/176/2 88/177/2
f 88/177/2 50/176/2 48/153/2
f 88/177/2 48/153/2 89/178/2
f 89/178/2 48/153/2 47/151/2
f 89/178/2 47/151/2 90/179/2
f 90/179/2 47/151/2 43/6/2
f 90/179/2 43/6/2 91/148/2
f 91/148/2 43/6/2 40/180/2
f 91/148/2 40/180/2 92/181/2
f 92/181/2 40/180/2 39/145/2
f 92/181/2 39/145/2 93/182/2
f 93/182/2 39/145/2 61/28/2
f 93/182/2 61/28/2 94/183/2
f 94/183/2 61/28/2 60/143/2
f 32/186/21 73/185/21 64/184/21
f 73/185/21 32/186/21 85/187/21
f 85/187/21 74/188/15 73/185/21
f 74/188/15 85/187/21 84/189/20
f 77/192/14 89/191/13 78/190/13
f 89/191/13 77/192/14 88/193/14
f 80/196/11 92/195/8 81/194/8
f 92/195/8 80/196/11 91/197/11
f 76/200/9 88/199/14 77/198/14
f 88/199/14 76/200/9 87/201/9
f 79/204/12 91/203/11 80/202/11
f 91/203/11 79/204/12 90/205/12
f 81/208/8 93/207/17 82/206/17
f 93/207/17 81/208/8 92/209/8
f 93/212/17 83/211/22 82/210/17
f 83/211/22 93/212/17 94/213/22
f 60/214/23 83/211/22 94/213/22
f 83/211/22 60/214/23 35/215/23
f 75/218/10 87/217/9 76/216/9
f 87/217/9 75/218/10 86/219/10
f 69/222/5 86/221/10 75/220/10
f 86/221/10 69/222/5 70/223/5
f 78/226/13 90/225/12 79/224/12
f 90/225/12 78/226/13 89/227/13

usemtl _defaultMat

f 73/57/2 35/58/2 64/59/2
f 35/57/2 73/58/2 83/59/2
f 74/211/2 83/212/2 73/213/2
f 83/211/2 74/212/2 71/213/2
f 83/211/2 71/212/2 69/213/2
f 83/211/2 69/212/2 75/213/2
f 83/211/2 75/212/2 76/213/2
f 83/211/2 76/212/2 77/213/2
f 83/211/2 77/212/2 78/213/2
f 83/211/2 78/212/2 79/213/2
f 83/211/2 79/212/2 80/213/2
f 83/211/2 80/212/2 81/213/2
f 83/211/2 81/212/2 82/213/2
f 85/120/2 60/121/2 32/122/2
f 60/120/2 85/121/2 84/122/2
f 60/120/2 84/121/2 72/122/2
f 60/120/2 72/121/2 70/122/2
f 60/120/2 70/121/2 86/122/2
f 60/120/2 86/121/2 87/122/2
f 60/120/2 87/121/2 88/122/2
f 60/120/2 88/121/2 89/122/2
f 60/120/2 89/121/2 90/122/2
f 60/120/2 90/121/2 91/122/2
f 60/120/2 91/121/2 92/122/2
f 60/120/2 92/121/2 94/122/2
f 94/120/2 92/121/2 93/122/2

