# Created by Kenney (www.kenney.nl)

mtllib tile_061.mtl

g tile_061

v -0.5 0.2 -0.4845481
v 0.5 0.2 -0.4845481
v -0.5 0.4 -0.4845481
v 0.5 0.4 -0.4845481
v 0.5 0.4 0.5154519
v 0.5 0.2 0.5154519
v -0.5 0.2 0.5154519
v -0.5 0.4 0.5154519
v -0.5 0 -0.4845481
v 0.5 0 -0.4845481
v 0.5 0 0.5154519
v -0.5 0 0.5154519

vn 0 0 -1
vn 1 0 0
vn -1 0 0
vn 0 0 1
vn 0 1 0
vn 0 -1 0

vt 19.68504 7.874016
vt -19.68504 7.874016
vt 19.68504 15.74803
vt -19.68504 15.74803
vt 19.0767 15.74803
vt 19.0767 7.874016
vt -20.29338 15.74803
vt -20.29338 7.874016
vt -19.0767 7.874016
vt -19.0767 15.74803
vt 20.29338 7.874016
vt 20.29338 15.74803
vt -19.68504 20.29338
vt 19.68504 20.29338
vt -19.68504 -19.0767
vt 19.68504 -19.0767
vt 19.68504 0
vt -19.68504 0
vt 19.0767 0
vt -20.29338 0
vt -19.0767 0
vt 20.29338 0

usemtl grass

f 3/3/1 2/2/1 1/1/1
f 2/2/1 3/3/1 4/4/1
f 5/7/2 2/6/2 4/5/2
f 2/6/2 5/7/2 6/8/2
f 7/11/3 3/10/3 1/9/3
f 3/10/3 7/11/3 8/12/3
f 5/3/4 7/2/4 6/1/4
f 7/2/4 5/3/4 8/4/4
f 4/15/5 8/14/5 5/13/5
f 8/14/5 4/15/5 3/16/5

usemtl dirt

f 1/1/1 10/18/1 9/17/1
f 10/18/1 1/1/1 2/2/1
f 12/13/6 10/16/6 11/14/6
f 10/16/6 12/13/6 9/15/6
f 6/8/2 10/19/2 2/6/2
f 10/19/2 6/8/2 11/20/2
f 2/15/5 7/14/5 6/13/5
f 7/14/5 2/15/5 1/16/5
f 12/22/3 1/9/3 9/21/3
f 1/9/3 12/22/3 7/11/3
f 6/1/4 12/18/4 11/17/4
f 12/18/4 6/1/4 7/2/4

g Component#2

v -0.1039366 1.055655 0.1096497
v -0.1039366 1.055655 0.1842297
v -0.1785166 1.055655 0.1096497
v -0.1785166 1.055655 0.1842297
v -0.3107266 0.5469 -0.02256029
v 0.02827344 0.5469 -0.02256029
v -0.3107266 0.5469 0.3164397
v 0.02827344 0.5469 0.3164397
v 0.009628441 0.4904 -0.003915289
v -0.1036003 0.4904 0.184566
v 0.009628441 0.4904 0.2977947
v -0.2920815 0.4904 0.2977947
v -0.1788528 0.4904 0.184566
v -0.1788528 0.4904 0.1093135
v -0.1036003 0.4904 0.1093135
v -0.2920815 0.4904 -0.003915289
v -0.1036003 0.4 0.184566
v -0.1036003 0.4 0.1093135
v -0.1788528 0.4 0.184566
v -0.1788528 0.4 0.1093135

vn 0 1.13 0
vn -3.817508E-31 0.2842129 -1.093674
vn -1.093674 0.2842129 3.817508E-31
vn 3.817508E-31 0.2842129 1.093674
vn 1.093674 0.2842129 -3.817508E-31
vn 0 -1.13 0
vn -1.07308 -0.3541165 3.745625E-31
vn 3.745625E-31 -0.3541165 1.07308
vn -3.745625E-31 -0.3541165 -1.07308
vn 1.07308 -0.3541165 -3.745625E-31
vn 1.13 0 -3.944305E-31
vn -1.13 0 3.944305E-31
vn -3.944305E-31 0 -1.13
vn 3.944305E-31 0 1.13

vt 4.606299 4.606299
vt 4.606299 7.204724
vt 7.204724 4.606299
vt 7.204724 7.204724
vt 11.81102 4.953579
vt 0 4.953579
vt 7.204724 23.26773
vt 4.606299 23.26773
vt 2.435299E-16 1.982919
vt 4.606299 20.29707
vt 11.81102 1.982919
vt 7.204724 20.29707
vt -5.65078E-17 1.982919
vt -11.81102 1.982919
vt -4.606299 20.29707
vt -7.204724 20.29707
vt -11.81102 4.953579
vt -4.606299 23.26773
vt -7.204724 23.26773
vt -0.6496063 0.6496063
vt -4.594584 7.21644
vt -0.6496063 11.16142
vt -11.16142 11.16142
vt -7.21644 7.21644
vt -7.21644 4.594584
vt -4.594584 4.594584
vt -11.16142 0.6496063
vt 0 8.561613
vt 11.81102 8.561613
vt 0.6496063 6.488693
vt 11.16142 6.488693
vt -0.6496063 6.488693
vt -11.16142 6.488693
vt -3.356916E-18 8.561613
vt -11.81102 8.561613
vt 11.16142 2.787385
vt 0.6496063 2.787385
vt 11.81102 4.860304
vt 0 4.860304
vt -0.6496063 2.787385
vt -11.81102 4.860304
vt -11.16142 2.787385
vt -4.594584 3.149606
vt -4.594584 0
vt -7.21644 3.149606
vt -7.21644 0
vt 4.594584 0
vt 4.594584 3.149606
vt 7.21644 0
vt 7.21644 3.149606

usemtl grass

f 15/25/7 14/24/7 13/23/7
f 14/24/7 15/25/7 16/26/7
f 15/29/8 18/28/8 17/27/8
f 18/28/8 15/29/8 13/30/8
f 19/33/9 15/32/9 17/31/9
f 15/32/9 19/33/9 16/34/9
f 14/37/10 19/36/10 20/35/10
f 19/36/10 14/37/10 16/38/10
f 13/40/11 20/39/11 18/28/11
f 20/39/11 13/40/11 14/41/11
f 23/44/12 22/43/12 21/42/12
f 22/43/12 23/44/12 24/45/12
f 22/43/12 24/45/12 25/46/12
f 25/46/12 24/45/12 26/47/12
f 27/48/12 21/42/12 22/43/12
f 21/42/12 27/48/12 28/49/12
f 28/49/12 27/48/12 26/47/12
f 28/49/12 26/47/12 24/45/12
f 28/52/13 19/51/13 17/50/13
f 19/51/13 28/52/13 24/53/13
f 20/56/14 24/55/14 23/54/14
f 24/55/14 20/56/14 19/57/14
f 17/60/15 21/59/15 28/58/15
f 21/59/15 17/60/15 18/61/15
f 20/63/16 21/62/16 18/61/16
f 21/62/16 20/63/16 23/64/16

usemtl _defaultMat

f 19/39/12 18/40/12 20/41/12
f 18/39/12 19/40/12 17/41/12

usemtl dirt

f 31/46/12 30/48/12 29/43/12
f 30/48/12 31/46/12 32/47/12
f 22/67/17 30/66/17 27/65/17
f 30/66/17 22/67/17 29/68/17
f 31/71/18 26/70/18 32/69/18
f 26/70/18 31/71/18 25/72/18
f 26/72/19 30/69/19 32/71/19
f 30/69/19 26/72/19 27/70/19
f 22/65/20 31/68/20 29/66/20
f 31/68/20 22/65/20 25/67/20

g Component#2

v -0.03277303 0.8873892 -0.3534789
v -0.06049304 0.8873892 -0.3054665
v -0.08078547 0.8873892 -0.3811989
v -0.1085055 0.8873892 -0.3331864
v -0.1167585 0.5092 -0.5154519
v 0.10148 0.5092 -0.3894519
v -0.2427585 0.5092 -0.2972135
v -0.02452005 0.5092 -0.1712135
v 0.08254685 0.4672 -0.3843788
v -0.06040153 0.4672 -0.305125
v -0.02959315 0.4672 -0.1901466
v -0.2238253 0.4672 -0.3022866
v -0.1088469 0.4672 -0.333095
v -0.08087696 0.4672 -0.3815404
v -0.03243156 0.4672 -0.3535704
v -0.1116853 0.4672 -0.4965188
v -0.06040153 0.4 -0.305125
v -0.03243156 0.4 -0.3535704
v -0.1088469 0.4 -0.333095
v -0.08087696 0.4 -0.3815404

vn 0 0.84 0
vn 0.4064983 0.2112733 -0.7040758
vn -0.7040758 0.2112733 -0.4064983
vn -0.4064983 0.2112733 0.7040758
vn 0.7040758 0.2112733 0.4064983
vn 0 -0.84 0
vn -0.6908182 -0.2632371 -0.3988441
vn -0.3988441 -0.2632371 0.6908182
vn 0.3988441 -0.2632371 -0.6908182
vn 0.6908182 -0.2632371 0.3988441
vn 0.7274613 0 0.42
vn -0.7274613 0 -0.42
vn 0.42 0 -0.7274613
vn -0.42 0 0.7274613


usemtl grass

f 35/25/21 34/24/21 33/23/21
f 34/24/21 35/25/21 36/26/21
f 35/29/22 38/28/22 37/27/22
f 38/28/22 35/29/22 33/30/22
f 39/33/23 35/32/23 37/31/23
f 35/32/23 39/33/23 36/34/23
f 34/37/24 39/36/24 40/35/24
f 39/36/24 34/37/24 36/38/24
f 33/40/25 40/39/25 38/28/25
f 40/39/25 33/40/25 34/41/25
f 43/44/26 42/43/26 41/42/26
f 42/43/26 43/44/26 44/45/26
f 42/43/26 44/45/26 45/46/26
f 45/46/26 44/45/26 46/47/26
f 47/48/26 41/42/26 42/43/26
f 41/42/26 47/48/26 48/49/26
f 48/49/26 47/48/26 46/47/26
f 48/49/26 46/47/26 44/45/26
f 48/52/27 39/51/27 37/50/27
f 39/51/27 48/52/27 44/53/27
f 40/56/28 44/55/28 43/54/28
f 44/55/28 40/56/28 39/57/28
f 37/60/29 41/59/29 48/58/29
f 41/59/29 37/60/29 38/61/29
f 40/63/30 41/62/30 38/61/30
f 41/62/30 40/63/30 43/64/30

usemtl _defaultMat

f 39/39/26 38/40/26 40/41/26
f 38/39/26 39/40/26 37/41/26

usemtl dirt

f 51/46/26 50/48/26 49/43/26
f 50/48/26 51/46/26 52/47/26
f 42/67/31 50/66/31 47/65/31
f 50/66/31 42/67/31 49/68/31
f 51/71/32 46/70/32 52/69/32
f 46/70/32 51/71/32 45/72/32
f 46/72/33 50/69/33 52/71/33
f 50/69/33 46/72/33 47/70/33
f 42/65/34 51/68/34 49/66/34
f 51/68/34 42/65/34 45/67/34

g Component#2

v 0.3213205 0.9802253 -0.1115015
v 0.3384026 0.9802253 -0.04775044
v 0.2575694 0.9802253 -0.09441946
v 0.2746515 0.9802253 -0.03066838
v 0.1142743 0.53 -0.177151
v 0.404052 0.53 -0.2547967
v 0.19192 0.53 0.1126268
v 0.4816977 0.53 0.03498104
v 0.3923848 0.48 -0.2345884
v 0.3387671 0.48 -0.04754002
v 0.4614894 0.48 0.02331376
v 0.2035873 0.48 0.09241843
v 0.2744411 0.48 -0.03030394
v 0.257205 0.48 -0.0946299
v 0.3215309 0.48 -0.111866
v 0.1344826 0.48 -0.1654837
v 0.3387671 0.4 -0.04754002
v 0.3215309 0.4 -0.111866
v 0.2744411 0.4 -0.03030394
v 0.257205 0.4 -0.0946299

vn -0.2504989 0.2515159 -0.9348744
vn -0.9348744 0.2515159 0.2504989
vn 0.2504989 0.2515159 0.9348744
vn 0.9348744 0.2515159 -0.2504989
vn -0.9172708 -0.3133775 0.245782
vn 0.245782 -0.3133775 0.9172708
vn -0.245782 -0.3133775 -0.9172708
vn 0.9172708 -0.3133775 -0.245782
vn 0.9659258 0 -0.258819
vn -0.9659258 0 0.258819
vn -0.258819 0 -0.9659258
vn 0.258819 0 0.9659258


usemtl grass

f 55/25/5 54/24/5 53/23/5
f 54/24/5 55/25/5 56/26/5
f 55/29/35 58/28/35 57/27/35
f 58/28/35 55/29/35 53/30/35
f 59/33/36 55/32/36 57/31/36
f 55/32/36 59/33/36 56/34/36
f 54/37/37 59/36/37 60/35/37
f 59/36/37 54/37/37 56/38/37
f 53/40/38 60/39/38 58/28/38
f 60/39/38 53/40/38 54/41/38
f 63/44/6 62/43/6 61/42/6
f 62/43/6 63/44/6 64/45/6
f 62/43/6 64/45/6 65/46/6
f 65/46/6 64/45/6 66/47/6
f 67/48/6 61/42/6 62/43/6
f 61/42/6 67/48/6 68/49/6
f 68/49/6 67/48/6 66/47/6
f 68/49/6 66/47/6 64/45/6
f 68/52/39 59/51/39 57/50/39
f 59/51/39 68/52/39 64/53/39
f 60/56/40 64/55/40 63/54/40
f 64/55/40 60/56/40 59/57/40
f 57/60/41 61/59/41 68/58/41
f 61/59/41 57/60/41 58/61/41
f 60/63/42 61/62/42 58/61/42
f 61/62/42 60/63/42 63/64/42

usemtl _defaultMat

f 59/39/6 58/40/6 60/41/6
f 58/39/6 59/40/6 57/41/6

usemtl dirt

f 71/46/6 70/48/6 69/43/6
f 70/48/6 71/46/6 72/47/6
f 62/67/43 70/66/43 67/65/43
f 70/66/43 62/67/43 69/68/43
f 71/71/44 66/70/44 72/69/44
f 66/70/44 71/71/44 65/72/44
f 66/72/45 70/69/45 72/71/45
f 70/69/45 66/72/45 67/70/45
f 62/65/46 71/68/46 69/66/46
f 71/68/46 62/65/46 65/67/46

