# Created by Kenney (www.kenney.nl)

mtllib tile_019.mtl

g tile_019

v 0.04227886 0.2215271 0.2950257
v -0.04772114 0.2215271 0.2950257
v 0.04227886 0.2815271 0.2950257
v -0.04772114 0.2815271 0.2950257
v 0.1988746 0.2525365 0.2950257
v 0.07887464 0.2525365 0.2950257
v 0.1988746 0.3325365 0.2950257
v 0.07887464 0.3325365 0.2950257
v -0.3150257 4.511946E-17 -0.3150257
v 0.3150257 4.511946E-17 -0.3150257
v -0.3150257 0.13 -0.3150257
v 0.3150257 0.13 -0.3150257
v 0.3150257 0 0.3150257
v -0.3150257 0 0.3150257
v -0.3150257 0.13 0.3150257
v 0.3150257 0.13 0.3150257
v 0.2950257 0.13 -0.2950257
v -0.2950257 0.13 -0.2950257
v -0.2950257 0.13 0.2950257
v 0.2950257 0.13 0.2950257
v -0.2950257 0.4 -0.2950257
v -0.2950257 0.4 0.2950257
v 0.2950257 0.4 -0.2950257
v 0.2950257 0.4 0.2950257

vn 0 0 1
vn 0 0 -1
vn 0 1 0
vn -1 0 0
vn 1 0 0
vn 0 -1 0

vt 1.664522 8.721539
vt -1.878785 8.721539
vt 1.664522 11.08374
vt -1.878785 11.08374
vt 7.82971 9.942382
vt 3.105301 9.942382
vt 7.82971 13.09199
vt 3.105301 13.09199
vt 12.40259 1.776357E-15
vt -12.40259 1.776357E-15
vt 12.40259 5.11811
vt -12.40259 5.11811
vt 12.40259 12.40259
vt -12.40259 -12.40259
vt 12.40259 -12.40259
vt -12.40259 12.40259
vt 12.40259 3.167807E-30
vt 12.40259 0
vt -12.40259 0
vt -11.61519 -11.61519
vt 11.61519 -11.61519
vt 11.61519 11.61519
vt -11.61519 11.61519
vt -12.40259 -9.503422E-30
vt -11.61519 5.11811
vt -11.61519 15.74803
vt 11.61519 5.11811
vt 11.61519 15.74803

usemtl grey

f 3/3/1 2/2/1 1/1/1
f 2/2/1 3/3/1 4/4/1
f 7/7/1 6/6/1 5/5/1
f 6/6/1 7/7/1 8/8/1

usemtl brickLight

f 11/11/2 10/10/2 9/9/2
f 10/10/2 11/11/2 12/12/2
f 10/15/3 9/14/3 13/13/3
f 14/16/3 13/13/3 9/14/3
f 14/17/4 11/12/4 9/10/4
f 11/12/4 14/17/4 15/11/4
f 16/11/1 14/19/1 13/18/1
f 14/19/1 16/11/1 15/12/1
f 12/14/3 17/20/3 16/16/3
f 17/20/3 12/14/3 11/15/3
f 17/20/3 11/15/3 18/21/3
f 18/21/3 11/15/3 19/22/3
f 20/23/3 16/16/3 17/20/3
f 16/16/3 20/23/3 15/13/3
f 15/13/3 20/23/3 19/22/3
f 15/13/3 19/22/3 11/15/3
f 16/12/5 10/9/5 12/11/5
f 10/9/5 16/12/5 13/24/5

usemtl brick

f 9/9/1 10/10/1 11/11/1
f 12/12/1 11/11/1 10/10/1
f 19/27/4 21/26/4 18/25/4
f 21/26/4 19/27/4 22/28/4
f 21/28/2 17/25/2 18/27/2
f 17/25/2 21/28/2 23/26/2
f 21/21/3 24/23/3 23/20/3
f 24/23/3 21/21/3 22/22/3
f 24/26/5 17/27/5 23/28/5
f 17/27/5 24/26/5 20/25/5
f 17/20/6 20/23/6 18/21/6
f 19/22/6 18/21/6 20/23/6
f 18/21/6 11/15/6 17/20/6
f 19/22/6 11/15/6 18/21/6
f 11/15/6 12/14/6 17/20/6
f 16/16/6 17/20/6 12/14/6
f 17/20/6 16/16/6 20/23/6
f 15/13/6 20/23/6 16/16/6
f 19/22/6 20/23/6 15/13/6
f 11/15/6 19/22/6 15/13/6
f 1/1/1 6/6/1 3/3/1
f 6/6/1 1/1/1 5/5/1
f 3/3/1 6/6/1 8/8/1
f 3/3/1 8/8/1 4/4/1
f 19/25/1 5/5/1 1/1/1
f 20/27/1 5/5/1 19/25/1
f 5/5/1 20/27/1 24/28/1
f 5/5/1 24/28/1 7/7/1
f 7/7/1 24/28/1 8/8/1
f 2/2/1 19/25/1 1/1/1
f 19/25/1 2/2/1 22/26/1
f 22/26/1 2/2/1 4/4/1
f 22/26/1 4/4/1 8/8/1
f 22/26/1 8/8/1 24/28/1
f 9/10/5 11/12/5 14/17/5
f 15/11/5 14/17/5 11/12/5
f 13/18/2 14/19/2 16/11/2
f 15/12/2 16/11/2 14/19/2
f 12/11/4 10/9/4 16/12/4
f 13/24/4 16/12/4 10/9/4

usemtl _defaultMat

f 13/13/6 9/14/6 10/15/6
f 9/14/6 13/13/6 14/16/6
f 18/21/3 20/23/3 17/20/3
f 20/23/3 18/21/3 19/22/3

