# Created by Kenney (www.kenney.nl)

mtllib tile_013.mtl

g tile_013

v 0.2950257 0.4 -0.2950257
v 0.2950257 0.4 -0.2189407
v 0.2189407 0.4 -0.2950257
v 0.2189407 0.4 -0.2189407
v -0.2950257 0 0.2189407
v -0.2950257 0.4 0.2189407
v -0.2950257 0 0.2950257
v -0.2950257 0.4 0.2950257
v -0.2189407 0 0.2950257
v -0.2189407 0.4 0.2950257
v 0.2189407 4.511946E-17 -0.2950257
v 0.2950257 4.511946E-17 -0.2950257
v -0.2189407 0.4 -0.2950257
v -0.2189407 0.4 -0.2189407
v -0.2950257 0.4 -0.2950257
v -0.2950257 0.4 -0.2189407
v 0.2950257 4.511946E-17 -0.2189407
v 0.2950257 0 0.2950257
v 0.2189407 0 0.2950257
v 0.2950257 0.4 0.2950257
v 0.2189407 0.4 0.2950257
v 0.2950257 0.4 0.2189407
v 0.2950257 0 0.2189407
v 0.2189407 0.4 0.2189407
v -0.2189407 0.4 0.2189407
v -0.2950257 4.511946E-17 -0.2950257
v -0.2189407 4.511946E-17 -0.2950257
v -0.2950257 4.511946E-17 -0.2189407
v 0.04 0.1100316 0.2950257
v 0.04 0.2300316 0.2950257
v 0.04087734 0.2422007 0.2950257
v 0.03813494 0.2540891 0.2950257
v 0.03201562 0.2646441 0.2950257
v 0.02306127 0.2729312 0.2950257
v 0.01206482 0.2782164 0.2950257
v -2.887646E-15 0.2800317 0.2950257
v -0.04 0.1100316 0.2950257
v -0.04 0.2300316 0.2950257
v -0.04087734 0.2422007 0.2950257
v -0.03813494 0.2540891 0.2950257
v -0.03201562 0.2646441 0.2950257
v -0.02306127 0.2729312 0.2950257
v -0.01206482 0.2782164 0.2950257

vn 0 1 0
vn -1 0 0
vn 0 0 1
vn 0 0 -1
vn 1 0 0
vn 0 -1 0

vt -11.61519 -11.61519
vt -11.61519 -8.619712
vt -8.619712 -11.61519
vt -8.619712 -8.619712
vt 8.619712 0
vt 8.619712 15.74803
vt 11.61519 0
vt 11.61519 15.74803
vt -8.619712 1.048142E-14
vt -11.61519 1.048142E-14
vt -8.619712 15.74803
vt -11.61519 15.74803
vt -8.619712 2.273919E-14
vt -11.61519 2.273919E-14
vt 8.619712 -11.61519
vt 8.619712 -8.619712
vt 11.61519 -11.61519
vt 11.61519 -8.619712
vt 11.61519 1.776357E-15
vt 8.619712 1.776357E-15
vt 11.61519 -1.048142E-14
vt 8.619712 -1.048142E-14
vt -8.619712 0
vt -11.61519 0
vt -11.61519 8.619712
vt -11.61519 11.61519
vt -8.619712 8.619712
vt -8.619712 11.61519
vt 8.619712 8.619712
vt 8.619712 11.61519
vt 11.61519 8.619712
vt 11.61519 11.61519
vt 11.61519 2.273919E-14
vt 8.619712 2.273919E-14
vt -11.61519 1.776357E-15
vt -8.619712 1.776357E-15
vt 1.574803 4.331954
vt 1.574803 9.056364
vt 1.609344 9.53546
vt 1.501375 10.00351
vt 1.260458 10.41906
vt 0.9079242 10.74532
vt 0.4749928 10.9534
vt -6.336464E-13 11.02487
vt -1.574803 4.331954
vt -1.574803 9.056364
vt -1.609344 9.53546
vt -1.501375 10.00351
vt -1.260458 10.41906
vt -0.9079242 10.74532
vt -0.4749928 10.9534

usemtl brickLight

f 3/3/1 2/2/1 1/1/1
f 2/2/1 3/3/1 4/4/1
f 7/7/2 6/6/2 5/5/2
f 6/6/2 7/7/2 8/8/2
f 10/11/3 7/10/3 9/9/3
f 7/10/3 10/11/3 8/12/3
f 3/11/4 12/14/4 11/13/4
f 12/14/4 3/11/4 1/12/4
f 15/17/1 14/16/1 13/15/1
f 14/16/1 15/17/1 16/18/1
f 2/6/5 12/19/5 1/8/5
f 12/19/5 2/6/5 17/20/5
f 20/8/3 19/22/3 18/21/3
f 19/22/3 20/8/3 21/6/3
f 20/12/5 23/23/5 22/11/5
f 23/23/5 20/12/5 18/24/5
f 24/27/1 20/26/1 22/25/1
f 20/26/1 24/27/1 21/28/1
f 6/31/1 10/30/1 25/29/1
f 10/30/1 6/31/1 8/32/1
f 15/8/4 27/34/4 26/33/4
f 27/34/4 15/8/4 13/6/4
f 28/36/2 15/12/2 26/35/2
f 15/12/2 28/36/2 16/11/2

usemtl brick

f 7/26/6 5/25/6 9/28/6
f 26/1/6 9/28/6 5/25/6
f 27/3/6 9/28/6 26/1/6
f 27/3/6 19/30/6 9/28/6
f 11/15/6 19/30/6 27/3/6
f 11/15/6 18/32/6 19/30/6
f 11/15/6 23/31/6 18/32/6
f 12/17/6 23/31/6 11/15/6
f 23/31/6 12/17/6 17/18/6
f 26/1/6 5/25/6 28/2/6
f 19/22/3 29/37/3 9/9/3
f 29/37/3 19/22/3 21/6/3
f 29/37/3 21/6/3 30/38/3
f 30/38/3 21/6/3 31/39/3
f 31/39/3 21/6/3 32/40/3
f 32/40/3 21/6/3 33/41/3
f 33/41/3 21/6/3 34/42/3
f 34/42/3 21/6/3 35/43/3
f 35/43/3 21/6/3 36/44/3
f 37/45/3 9/9/3 29/37/3
f 9/9/3 37/45/3 10/11/3
f 10/11/3 36/44/3 21/6/3
f 10/11/3 37/45/3 38/46/3
f 10/11/3 38/46/3 39/47/3
f 10/11/3 39/47/3 40/48/3
f 10/11/3 40/48/3 41/49/3
f 10/11/3 41/49/3 42/50/3
f 10/11/3 42/50/3 43/51/3
f 10/11/3 43/51/3 36/44/3
f 13/6/4 11/13/4 27/34/4
f 11/13/4 13/6/4 3/11/4
f 4/4/1 22/25/1 2/2/1
f 22/25/1 4/4/1 24/27/1
f 4/4/1 13/15/1 24/27/1
f 13/15/1 4/4/1 3/3/1
f 24/27/1 13/15/1 21/28/1
f 21/28/1 13/15/1 25/29/1
f 25/29/1 13/15/1 14/16/1
f 25/29/1 14/16/1 6/31/1
f 6/31/1 14/16/1 16/18/1
f 10/30/1 21/28/1 25/29/1
f 22/11/5 17/20/5 2/6/5
f 17/20/5 22/11/5 23/23/5
f 5/5/2 16/11/2 28/36/2
f 16/11/2 5/5/2 6/6/2

usemtl grey

f 30/38/3 37/45/3 29/37/3
f 37/45/3 30/38/3 38/46/3
f 38/46/3 30/38/3 31/39/3
f 38/46/3 31/39/3 39/47/3
f 39/47/3 31/39/3 40/48/3
f 40/48/3 31/39/3 32/40/3
f 40/48/3 32/40/3 41/49/3
f 41/49/3 32/40/3 33/41/3
f 41/49/3 33/41/3 42/50/3
f 42/50/3 33/41/3 34/42/3
f 42/50/3 34/42/3 43/51/3
f 43/51/3 34/42/3 35/43/3
f 43/51/3 35/43/3 36/44/3

