# Created by Kenney (www.kenney.nl)

mtllib tile_012.mtl

g tile_012

v 0.2950257 4.511946E-17 0.2950257
v 0.2189407 4.511946E-17 0.2950257
v 0.2950257 0.4 0.2950257
v 0.2189407 0.09230942 0.2950257
v 0.2189407 0.4 0.2950257
v 0.2950257 0.4 -0.2189407
v 0.2189407 0.4 -0.2189407
v 0.2950257 0.4 -0.2950257
v 0.2189407 0.4 -0.2950257
v -0.2189407 0.4 -0.2950257
v -0.2189407 0.4 -0.2189407
v -0.2950257 0.4 -0.2950257
v -0.2950257 0.4 -0.2189407
v -0.2189407 0.4 0.2950257
v -0.2950257 0.4 0.2950257
v -0.2189407 0.4 0.2189407
v -0.2950257 0.4 0.2189407
v 0.2950257 0.4 0.2189407
v 0.2189407 0.4 0.2189407
v -0.2950257 0 0.2189407
v -0.2950257 0.09230942 0.2189407
v -0.2950257 0 0.2950257
v -0.2950257 0 -0.2950257
v -0.2950257 0 -0.2189407
v -0.2950257 0.09230942 -0.2189407
v -0.2189407 0 -0.2950257
v -0.2189407 0.09230942 -0.2950257
v 0.2950257 4.511946E-17 -0.2950257
v 0.2950257 4.511946E-17 -0.2189407
v 0.2950257 0.09230942 -0.2189407
v -0.2189407 0 0.2950257
v -0.2189407 0.09230942 0.2950257
v 0.2950257 0.09230942 0.2189407
v 0.2950257 4.511946E-17 0.2189407
v 0.2189407 4.511946E-17 -0.2950257
v 0.2189407 0.09230942 -0.2950257
v -0.2950257 0.146628 -0.04
v -0.2950257 0.2787971 -0.04087734
v -0.2950257 0.146628 0.04
v -0.2950257 0.266628 0.04
v -0.2950257 0.2787971 0.04087734
v -0.2950257 0.2906855 -0.03813494
v -0.2950257 0.3012405 -0.03201562
v -0.2950257 0.3095276 -0.02306127
v -0.2950257 0.3148127 -0.01206482
v -0.2950257 0.316628 -2.165734E-15
v -0.2950257 0.3148127 0.01206482
v -0.2950257 0.3095276 0.02306127
v -0.2950257 0.3012405 0.03201562
v -0.2950257 0.2906855 0.03813494
v -0.2950257 0.266628 -0.04

vn 0 0 1
vn 0 1 0
vn -1 0 0
vn 0 0 -1
vn 1 0 0
vn 0 -1 0

vt 11.61519 1.776357E-15
vt 8.619712 1.776357E-15
vt 11.61519 15.74803
vt 8.619712 3.634229
vt 8.619712 15.74803
vt -11.61519 -8.619712
vt -8.619712 -8.619712
vt -11.61519 -11.61519
vt -8.619712 -11.61519
vt 8.619712 -11.61519
vt 8.619712 -8.619712
vt 11.61519 -11.61519
vt 11.61519 -8.619712
vt 8.619712 11.61519
vt 11.61519 11.61519
vt 8.619712 8.619712
vt 11.61519 8.619712
vt -11.61519 11.61519
vt -8.619712 11.61519
vt -11.61519 8.619712
vt -8.619712 8.619712
vt 8.619712 -1.179282E-14
vt 11.61519 -1.179282E-14
vt -11.61519 1.179282E-14
vt -11.61519 15.74803
vt -8.619712 1.179282E-14
vt -8.619712 15.74803
vt -8.619712 3.634229
vt 11.61519 -2.871256E-14
vt 8.619712 -2.871256E-14
vt 11.61519 2.536199E-14
vt 8.619712 2.536199E-14
vt -8.619712 0
vt -11.61519 0
vt -8.619712 2.536199E-14
vt -11.61519 2.536199E-14
vt -8.619712 3.651254E-13
vt -11.61519 1.776357E-15
vt -1.574803 5.772758
vt -1.609344 10.97626
vt 1.574803 5.772758
vt 1.574803 10.49717
vt 1.609344 10.97626
vt -1.501375 11.44431
vt -1.260458 11.85986
vt -0.9079242 12.18612
vt -0.4749928 12.3942
vt -4.716695E-13 12.46567
vt 0.4749928 12.3942
vt 0.9079242 12.18612
vt 1.260458 11.85986
vt 1.501375 11.44431
vt -1.574803 10.49717

usemtl brickLight

f 3/3/1 2/2/1 1/1/1
f 2/2/1 3/3/1 4/4/1
f 4/4/1 3/3/1 5/5/1
f 8/8/2 7/7/2 6/6/2
f 7/7/2 8/8/2 9/9/2
f 12/12/2 11/11/2 10/10/2
f 11/11/2 12/12/2 13/13/2
f 16/16/2 15/15/2 14/14/2
f 15/15/2 16/16/2 17/17/2
f 18/20/2 5/19/2 3/18/2
f 5/19/2 18/20/2 19/21/2
f 22/23/3 21/4/3 20/22/3
f 21/4/3 22/23/3 17/5/3
f 17/5/3 22/23/3 15/3/3
f 24/26/3 12/25/3 23/24/3
f 12/25/3 24/26/3 13/27/3
f 13/27/3 24/26/3 25/28/3
f 12/3/4 26/30/4 23/29/4
f 26/30/4 12/3/4 27/4/4
f 27/4/4 12/3/4 10/5/4
f 6/5/5 28/31/5 8/3/5
f 28/31/5 6/5/5 29/32/5
f 29/32/5 6/5/5 30/4/5
f 32/28/1 22/34/1 31/33/1
f 22/34/1 32/28/1 15/25/1
f 15/25/1 32/28/1 14/27/1
f 3/25/5 33/28/5 18/27/5
f 33/28/5 3/25/5 34/35/5
f 34/35/5 3/25/5 1/36/5
f 36/28/4 28/38/4 35/37/4
f 28/38/4 36/28/4 8/25/4
f 8/25/4 36/28/4 9/27/4

usemtl brick

f 6/6/2 19/21/2 18/20/2
f 19/21/2 6/6/2 7/7/2
f 14/14/2 19/21/2 7/7/2
f 19/21/2 14/14/2 5/19/2
f 14/14/2 7/7/2 9/9/2
f 14/14/2 9/9/2 10/10/2
f 14/14/2 10/10/2 16/16/2
f 16/16/2 10/10/2 11/11/2
f 16/16/2 11/11/2 17/17/2
f 17/17/2 11/11/2 13/13/2
f 10/5/4 36/28/4 27/4/4
f 36/28/4 10/5/4 9/27/4
f 2/14/6 34/17/6 1/15/6
f 34/17/6 2/14/6 29/13/6
f 29/13/6 2/14/6 28/12/6
f 28/12/6 2/14/6 35/10/6
f 35/10/6 2/14/6 31/19/6
f 35/10/6 31/19/6 26/9/6
f 26/9/6 31/19/6 22/18/6
f 26/9/6 22/18/6 23/8/6
f 23/8/6 22/18/6 20/20/6
f 23/8/6 20/20/6 24/6/6
f 18/27/5 30/4/5 6/5/5
f 30/4/5 18/27/5 33/28/5
f 25/28/3 37/39/3 13/27/3
f 37/39/3 25/28/3 21/4/3
f 13/27/3 37/39/3 38/40/3
f 37/39/3 21/4/3 39/41/3
f 39/41/3 21/4/3 40/42/3
f 40/42/3 21/4/3 41/43/3
f 42/44/3 13/27/3 38/40/3
f 43/45/3 13/27/3 42/44/3
f 44/46/3 13/27/3 43/45/3
f 45/47/3 13/27/3 44/46/3
f 13/27/3 45/47/3 17/5/3
f 17/5/3 41/43/3 21/4/3
f 17/5/3 45/47/3 46/48/3
f 17/5/3 46/48/3 47/49/3
f 17/5/3 47/49/3 48/50/3
f 17/5/3 48/50/3 49/51/3
f 17/5/3 49/51/3 50/52/3
f 17/5/3 50/52/3 41/43/3
f 51/53/3 38/40/3 37/39/3
f 5/5/1 32/28/1 4/4/1
f 32/28/1 5/5/1 14/27/1

usemtl brickDark

f 20/22/3 25/28/3 24/26/3
f 25/28/3 20/22/3 21/4/3
f 27/4/4 35/37/4 26/30/4
f 35/37/4 27/4/4 36/28/4
f 2/2/1 32/28/1 31/33/1
f 32/28/1 2/2/1 4/4/1
f 33/28/5 29/32/5 30/4/5
f 29/32/5 33/28/5 34/35/5

usemtl grey

f 39/41/3 51/53/3 37/39/3
f 51/53/3 39/41/3 42/44/3
f 42/44/3 39/41/3 43/45/3
f 43/45/3 39/41/3 44/46/3
f 44/46/3 39/41/3 45/47/3
f 45/47/3 39/41/3 46/48/3
f 46/48/3 39/41/3 47/49/3
f 47/49/3 39/41/3 48/50/3
f 48/50/3 39/41/3 49/51/3
f 49/51/3 39/41/3 50/52/3
f 50/52/3 39/41/3 40/42/3
f 50/52/3 40/42/3 41/43/3
f 42/44/3 38/40/3 51/53/3

