# Created by Kenney (www.kenney.nl)

mtllib tile_113.mtl

g tile_113

v 0.5 0.2 0.5
v -0.5 0.2 0.5
v 0.4999999 0.4 0.5
v -0.5 0.6 0.5
v -0.5 0.2 -0.5
v 0.5 0.2 -0.5
v -0.5 0.4 -0.5
v 0.5 0.4 -0.5
v -0.5 0 -0.5
v 0.5 0 -0.5
v 0.5 0 0.5
v -0.5 0 0.5

vn 0 0 1
vn 0 0 -1
vn 1 0 0
vn 0 0.9805807 -0.1961161
vn -1 0 0
vn 0.1961161 0.9805807 0
vn 0 1 0
vn 0 -1 0

vt 19.68504 7.874016
vt -19.68504 7.874016
vt 19.68504 15.74803
vt -19.68504 23.62205
vt 19.68504 15.74803
vt -19.68504 15.74803
vt 19.68504 15.74803
vt -19.68504 15.74803
vt 19.68504 -16.21433
vt -19.68504 -16.21433
vt 19.68504 23.93543
vt 19.68504 23.62205
vt 19.68504 -16.21432
vt -19.68504 -16.21432
vt -19.68504 23.93543
vt 19.68504 0
vt -19.68504 0
vt -19.68504 -19.68504
vt -19.68504 19.68504
vt 19.68504 -19.68504
vt 19.68504 19.68504

usemtl grass

f 3/3/1 2/2/1 1/1/1
f 2/2/1 3/3/1 4/4/1
f 7/5/2 6/2/2 5/1/2
f 6/2/2 7/5/2 8/6/2
f 3/8/3 6/1/3 8/7/3
f 6/1/3 3/8/3 1/2/3
f 4/11/4 8/10/4 7/9/4
f 2/1/5 7/6/5 5/2/5
f 7/6/5 2/1/5 4/12/5
f 4/15/6 3/14/6 8/13/6

usemtl dirt

f 5/1/2 10/17/2 9/16/2
f 10/17/2 5/1/2 6/2/2
f 1/2/3 10/16/3 6/1/3
f 10/16/3 1/2/3 11/17/3
f 5/20/7 1/19/7 6/18/7
f 1/19/7 5/20/7 2/21/7
f 11/21/8 9/18/8 10/20/8
f 9/18/8 11/21/8 12/19/8
f 1/1/1 12/17/1 11/16/1
f 12/17/1 1/1/1 2/2/1
f 12/16/5 5/2/5 9/17/5
f 5/2/5 12/16/5 2/1/5

