# Created by Kenney (www.kenney.nl)

mtllib tile_079.mtl

g tile_079

v -0.5 0 -0.5
v 0.5 0 -0.5
v -0.5 0.2 -0.5
v 0.5 0.2 -0.5
v -0.25 0.2 -0.5
v 0.25 0.2 -0.5
v 0.5 0 0.5
v -0.5 0 0.5
v 0.5 0.2 0.5
v -0.5 0.2 0.5
v 0.25 0.2 0.5
v -0.25 0.2 0.5
v 0.25 0.34 -0.5
v 0.5 0.4 -0.5
v 0.25 0.4 -0.5
v -0.25 0.34 -0.5
v -0.5 0.4 -0.5
v -0.25 0.4 -0.5
v 0.5 0.4 0.5
v 0.25 0.34 0.5
v -0.25 0.34 0.5
v 0.25 0.4 0.5
v -0.5 0.4 0.5
v -0.25 0.4 0.5

vn 0 0 -1
vn 0 -1 0
vn 0 0 1
vn 1 0 0
vn -1 0 0
vn 0 1 0

vt 19.68504 -1.912303E-14
vt -19.68504 -1.912303E-14
vt 19.68504 7.874016
vt -19.68504 7.874016
vt 9.842518 7.874016
vt -9.84252 7.874016
vt 19.68504 19.68504
vt 19.68504 -19.68504
vt -19.68504 19.68504
vt -19.68504 -19.68504
vt 19.68504 1.612316E-13
vt -19.68504 1.612316E-13
vt 9.84252 7.874016
vt -9.842518 7.874016
vt 19.68504 0
vt -19.68504 0
vt -9.84252 13.38583
vt -19.68504 15.74803
vt -9.84252 15.74803
vt 9.842518 13.38583
vt 19.68504 15.74803
vt 9.842518 15.74803
vt 9.84252 13.38583
vt -9.842518 13.38583
vt 9.84252 15.74803
vt -9.842518 15.74803
vt -9.84252 -19.68504
vt -9.84252 19.68504
vt 9.842518 -19.68504
vt 9.842518 19.68504
vt 19.68504 13.38583
vt -19.68504 13.38583

usemtl dirt

f 3/3/1 2/2/1 1/1/1
f 2/2/1 3/3/1 4/4/1
f 4/4/1 3/3/1 5/5/1
f 4/4/1 5/5/1 6/6/1
f 8/9/2 2/8/2 7/7/2
f 2/8/2 8/9/2 1/10/2
f 9/3/3 8/12/3 7/11/3
f 8/12/3 9/3/3 10/4/3
f 10/4/3 9/3/3 11/13/3
f 10/4/3 11/13/3 12/14/3
f 9/4/4 2/15/4 4/3/4
f 2/15/4 9/4/4 7/16/4
f 8/15/5 3/4/5 1/16/5
f 3/4/5 8/15/5 10/3/5

usemtl water

f 1/1/3 2/2/3 3/3/3
f 4/4/3 3/3/3 2/2/3
f 5/5/3 3/3/3 4/4/3
f 6/6/3 5/5/3 4/4/3
f 6/6/3 4/4/3 13/17/3
f 14/18/3 13/17/3 4/4/3
f 15/19/3 13/17/3 14/18/3
f 13/17/3 16/20/3 6/6/3
f 5/5/3 6/6/3 16/20/3
f 3/3/3 5/5/3 17/21/3
f 16/20/3 17/21/3 5/5/3
f 18/22/3 17/21/3 16/20/3
f 7/7/6 2/8/6 8/9/6
f 1/10/6 8/9/6 2/8/6
f 7/11/1 8/12/1 9/3/1
f 10/4/1 9/3/1 8/12/1
f 11/13/1 9/3/1 10/4/1
f 12/14/1 11/13/1 10/4/1
f 9/3/1 11/13/1 19/21/1
f 20/23/1 19/21/1 11/13/1
f 11/13/1 12/14/1 20/23/1
f 21/24/1 20/23/1 12/14/1
f 12/14/1 10/4/1 21/24/1
f 22/25/1 19/21/1 20/23/1
f 23/18/1 21/24/1 10/4/1
f 24/26/1 21/24/1 23/18/1
f 5/29/6 11/28/6 6/27/6
f 11/28/6 5/29/6 12/30/6
f 3/8/6 12/30/6 5/29/6
f 12/30/6 3/8/6 10/7/6
f 9/9/6 6/27/6 11/28/6
f 6/27/6 9/9/6 4/10/6
f 6/27/2 11/28/2 5/29/2
f 12/30/2 5/29/2 11/28/2
f 5/29/2 12/30/2 3/8/2
f 10/7/2 3/8/2 12/30/2
f 11/28/2 6/27/2 9/9/2
f 4/10/2 9/9/2 6/27/2
f 4/3/5 2/15/5 9/4/5
f 7/16/5 9/4/5 2/15/5
f 9/4/5 19/18/5 4/3/5
f 14/21/5 4/3/5 19/18/5
f 20/23/3 12/14/3 11/13/3
f 12/14/3 20/23/3 21/24/3
f 14/10/2 19/9/2 15/27/2
f 22/28/2 15/27/2 19/9/2
f 13/32/4 15/18/4 20/31/4
f 22/21/4 20/31/4 15/18/4
f 20/31/4 11/3/4 13/32/4
f 6/4/4 13/32/4 11/3/4
f 3/4/4 17/18/4 10/3/4
f 23/21/4 10/3/4 17/18/4
f 10/3/4 8/15/4 3/4/4
f 1/16/4 3/4/4 8/15/4
f 11/3/5 13/32/5 6/4/5
f 13/32/5 11/3/5 20/31/5
f 18/29/2 24/30/2 17/8/2
f 23/7/2 17/8/2 24/30/2
f 16/29/6 20/28/6 13/27/6
f 20/28/6 16/29/6 21/30/6
f 13/27/2 20/28/2 16/29/2
f 21/30/2 16/29/2 20/28/2
f 16/20/1 6/6/1 5/5/1
f 6/6/1 16/20/1 13/17/1
f 21/32/4 5/3/4 16/31/4
f 5/3/4 21/32/4 12/4/4
f 16/31/5 5/3/5 21/32/5
f 12/4/5 21/32/5 5/3/5
f 21/32/5 24/18/5 16/31/5
f 18/21/5 16/31/5 24/18/5

usemtl grass

f 13/17/1 4/4/1 6/6/1
f 4/4/1 13/17/1 14/18/1
f 14/18/1 13/17/1 15/19/1
f 15/27/6 19/9/6 14/10/6
f 19/9/6 15/27/6 22/28/6
f 20/31/5 15/18/5 13/32/5
f 15/18/5 20/31/5 22/21/5
f 19/18/4 4/3/4 14/21/4
f 4/3/4 19/18/4 9/4/4
f 10/3/5 17/18/5 3/4/5
f 17/18/5 10/3/5 23/21/5
f 19/21/3 11/13/3 9/3/3
f 11/13/3 19/21/3 20/23/3
f 20/23/3 19/21/3 22/25/3
f 17/8/6 24/30/6 18/29/6
f 24/30/6 17/8/6 23/7/6
f 21/24/3 10/4/3 12/14/3
f 10/4/3 21/24/3 23/18/3
f 23/18/3 21/24/3 24/26/3
f 17/21/1 5/5/1 3/3/1
f 5/5/1 17/21/1 16/20/1
f 16/20/1 17/21/1 18/22/1
f 24/18/4 16/31/4 18/21/4
f 16/31/4 24/18/4 21/32/4

