# Created by Kenney (www.kenney.nl)

mtllib tile_042.mtl

g tile_042

v -0.3102978 0.2527052 0.04506005
v -0.3014452 0.2917133 0.04506005
v -0.3102978 0.2527052 0.1350601
v -0.3014452 0.2917133 0.1350601
v -0.3154554 0.2299785 0.1697811
v -0.3066028 0.2689866 0.1697811
v -0.3154554 0.2299785 0.2345025
v -0.3066028 0.2689866 0.2345025
v -0.3398378 0.0619543 -0.207103
v -0.3339019 0.1116007 -0.207103
v -0.3398378 0.0619543 -0.1071029
v -0.3339019 0.1116007 -0.1071029
v 0.3245283 0.19 0.3245283
v -0.3245283 0.19 0.3245283
v 0.2950257 0.32 0.2950257
v -0.2950257 0.32 0.2950257
v 0.3472452 0 -0.3472452
v 0.3472452 0 0.3472452
v 0.3245283 0.19 -0.3245283
v -0.3245283 0.19 -0.3245283
v -0.3472452 0 -0.3472452
v -0.3472452 0 0.3472452
v -0.2950257 0.32 -0.2950257
v 0.2950257 0.32 -0.2950257
v 0.2950257 0.4 -0.2950257
v 0.2950257 0.4 0.2950257
v -0.2950257 0.4 -0.2950257
v -0.2950257 0.4 0.2950257

vn -0.9752024 0.2213152 0
vn -0.9929281 0.1187175 0
vn 0 0.2213152 0.9752024
vn 0.9929281 0.1187175 0
vn 0 0.2213152 -0.9752024
vn 0 1 0
vn 0 0 1
vn 0 0.1187175 -0.9929281
vn 0 -1 0
vn 0 0.1187175 0.9929281
vn 0.9752024 0.2213152 0
vn -1 0 0
vn 1 0 0
vn 0 0 -1

vt 1.774018 6.998625
vt 1.774018 8.573429
vt 5.317325 6.998625
vt 5.317325 8.573429
vt 6.684297 6.08112
vt 6.684297 7.655924
vt 9.232382 6.08112
vt 9.232382 7.655924
vt -8.15366 0.8335222
vt -8.15366 2.802026
vt -4.216651 0.8335222
vt -4.216651 2.802026
vt 12.7767 4.467142
vt -12.7767 4.467142
vt 11.61519 9.715397
vt -11.61519 9.715397
vt 13.67107 -1.622996
vt -13.67107 -1.622996
vt 12.7767 5.910596
vt -12.7767 5.910596
vt -11.61519 -11.61519
vt -11.61519 11.61519
vt 11.61519 -11.61519
vt 11.61519 11.61519
vt 11.61519 12.59842
vt -11.61519 12.59842
vt 11.61519 15.74803
vt -11.61519 15.74803
vt 13.67107 -13.67107
vt -13.67107 -13.67107
vt 13.67107 13.67107
vt -13.67107 13.67107
vt 12.7767 -12.7767
vt -12.7767 -12.7767
vt 12.7767 12.7767
vt -12.7767 12.7767

usemtl grey

f 3/3/1 2/2/1 1/1/1
f 2/2/1 3/3/1 4/4/1
f 7/7/1 6/6/1 5/5/1
f 6/6/1 7/7/1 8/8/1
f 11/11/2 10/10/2 9/9/2
f 10/10/2 11/11/2 12/12/2

usemtl brick

f 15/15/3 14/14/3 13/13/3
f 14/14/3 15/15/3 16/16/3
f 19/19/4 18/18/4 17/17/4
f 18/18/4 19/19/4 13/20/4
f 21/18/2 9/9/2 20/20/2
f 9/9/2 21/18/2 22/17/2
f 9/9/2 22/17/2 11/11/2
f 11/11/2 22/17/2 12/12/2
f 12/12/2 22/17/2 14/19/2
f 20/20/2 10/10/2 14/19/2
f 10/10/2 20/20/2 9/9/2
f 14/19/2 10/10/2 12/12/2
f 23/15/5 19/14/5 20/13/5
f 19/14/5 23/15/5 24/16/5
f 27/23/6 26/22/6 25/21/6
f 26/22/6 27/23/6 28/24/6
f 26/27/7 16/26/7 15/25/7
f 16/26/7 26/27/7 28/28/7
f 20/19/8 17/18/8 21/17/8
f 17/18/8 20/19/8 19/20/8
f 15/24/9 23/21/9 24/23/9
f 23/21/9 15/24/9 16/22/9
f 18/31/9 21/30/9 17/29/9
f 21/30/9 18/31/9 22/32/9
f 13/19/10 22/18/10 18/17/10
f 22/18/10 13/19/10 14/20/10
f 24/15/11 13/14/11 19/13/11
f 13/14/11 24/15/11 15/16/11
f 14/13/1 23/16/1 20/14/1
f 23/16/1 14/13/1 1/1/1
f 1/1/1 14/13/1 5/5/1
f 1/1/1 5/5/1 3/3/1
f 3/3/1 5/5/1 4/4/1
f 5/5/1 14/13/1 7/7/1
f 7/7/1 14/13/1 8/8/1
f 8/8/1 14/13/1 16/15/1
f 23/16/1 2/2/1 16/15/1
f 2/2/1 23/16/1 1/1/1
f 16/15/1 2/2/1 4/4/1
f 16/15/1 4/4/1 6/6/1
f 6/6/1 4/4/1 5/5/1
f 16/15/1 6/6/1 8/8/1
f 16/25/12 27/28/12 23/26/12
f 27/28/12 16/25/12 28/27/12
f 26/28/13 24/25/13 25/27/13
f 24/25/13 26/28/13 15/26/13
f 13/35/9 20/34/9 19/33/9
f 20/34/9 13/35/9 14/36/9
f 27/27/14 24/26/14 23/25/14
f 24/26/14 27/27/14 25/28/14

