# Created by Kenney (www.kenney.nl)

mtllib tile_053.mtl

g tile_053

v 0.2967073 0.47 0.2967073
v -1.534062E-15 0.47 -3.880274E-15
v -1.534062E-15 0.99 -3.880274E-15
v -0.2967073 0.47 -0.2967073
v -0.2950257 4.511946E-17 -0.2950257
v 0.2950257 4.511946E-17 -0.2950257
v -0.2950257 0.15 -0.2950257
v 0.2950257 0.15 -0.2950257
v 0.2950257 0.15 0.2950257
v -0.2950257 0.15 0.2950257
v 0.2950257 0 0.2950257
v -0.333379 0.23 -0.333379
v -0.333379 0.23 0.333379
v -0.2950257 0 0.2950257
v 0.333379 0.23 -0.333379
v 0.333379 0.23 0.333379
v 0.333379 0.3 -0.333379
v 0.333379 0.3 0.333379
v -0.333379 0.3 -0.333379
v -0.333379 0.3 0.333379
v 0.2967073 0.47 -0.2967073
v -0.2967073 0.47 0.2967073

vn -0.7071068 0 0.7071068
vn 0 0 -1
vn 0 1 0
vn 1 0 0
vn -0.9017281 -0.4323035 0
vn 0 0 1
vn 0.9017281 -0.4323035 0
vn 0 -0.4323035 0.9017281
vn 0 -0.4323035 -0.9017281
vn 0 -1 0
vn -1 0 0
vn 0 0.4955905 0.8685563
vn 0.8685563 0.4955905 0
vn 0 0.2108655 -0.977515
vn -0.977515 0.2108655 0
vn 0 0.4955905 -0.8685563
vn 0 0.2108655 0.977515
vn 0.977515 0.2108655 0
vn -0.8685563 0.4955905 0

vt 0 0
vt 11.68139 -11.68139
vt -11.68139 -11.68139
vt 6.039613E-14 -1.583944E-13
vt 11.61519 8.881784E-16
vt -11.61519 8.881784E-16
vt 11.61519 5.905512
vt -11.61519 5.905512
vt -11.61519 -11.61519
vt -11.61519 11.61519
vt 11.61519 -11.61519
vt 11.61519 11.61519
vt 11.61519 1.776357E-15
vt -11.61519 1.735082E-29
vt -13.12516 13.83931
vt 13.12516 13.83931
vt -11.61519 10.34645
vt 11.61519 10.34645
vt -13.12516 -13.12516
vt -13.12516 13.12516
vt 13.12516 -13.12516
vt 13.12516 13.12516
vt -11.68139 11.68139
vt 11.68139 11.68139
vt -11.61519 1.776357E-15
vt 11.61519 -1.409084E-29
vt 13.12516 9.055119
vt -13.12516 9.055119
vt 13.12516 11.81102
vt -13.12516 11.81102
vt 11.68139 10.28253
vt -11.68139 10.28253
vt -6.039613E-14 33.85318
vt 1.527667E-13 33.85318
vt 13.12516 8.77781
vt -13.12516 8.77781
vt 11.68139 15.62467
vt -11.68139 15.62467
vt 6.039613E-14 33.85318
vt -1.527667E-13 33.85318

usemtl _defaultMat

f 3/1/1 2/1/1 1/1/1
f 3/4/1 4/3/1 2/2/1

usemtl brick

f 7/7/2 6/6/2 5/5/2
f 6/6/2 7/7/2 8/8/2
f 7/11/3 9/10/3 8/9/3
f 9/10/3 7/11/3 10/12/3
f 9/8/4 6/13/4 8/7/4
f 6/13/4 9/8/4 11/14/4
f 7/17/5 13/16/5 12/15/5
f 13/16/5 7/17/5 10/18/5
f 9/7/6 14/6/6 11/5/6
f 14/6/6 9/7/6 10/8/6
f 16/15/7 8/18/7 15/16/7
f 8/18/7 16/15/7 9/17/7
f 19/21/3 18/20/3 17/19/3
f 18/20/3 19/21/3 20/22/3
f 16/16/8 10/17/8 9/18/8
f 10/17/8 16/16/8 13/15/8
f 12/16/9 8/17/9 7/18/9
f 8/17/9 12/16/9 15/15/9
f 21/3/3 2/4/3 1/23/3
f 2/4/3 21/3/3 4/2/3
f 2/4/3 22/24/3 1/23/3
f 22/24/3 2/4/3 4/2/3
f 11/12/10 5/9/10 6/11/10
f 5/9/10 11/12/10 14/10/10
f 14/26/11 7/8/11 5/25/11
f 7/8/11 14/26/11 10/7/11

usemtl brickLight

f 18/29/6 13/28/6 16/27/6
f 13/28/6 18/29/6 20/30/6
f 18/30/4 15/27/4 17/29/4
f 15/27/4 18/30/4 16/28/4
f 13/27/11 19/30/11 12/28/11
f 19/30/11 13/27/11 20/29/11
f 19/29/2 15/28/2 12/27/2
f 15/28/2 19/29/2 17/30/2

usemtl roof

f 3/33/12 22/32/12 1/31/12
f 1/32/13 21/31/13 3/34/13
f 4/37/14 17/36/14 19/35/14
f 17/36/14 4/37/14 21/38/14
f 20/35/15 4/38/15 19/36/15
f 4/38/15 20/35/15 22/37/15
f 3/39/16 21/32/16 4/31/16
f 1/37/17 20/36/17 18/35/17
f 20/36/17 1/37/17 22/38/17
f 21/37/18 18/36/18 17/35/18
f 18/36/18 21/37/18 1/38/18
f 22/31/19 3/40/19 4/32/19

