# Created by Kenney (www.kenney.nl)

mtllib tile_048.mtl

g tile_048

v -0.2569832 0.4 -0.2950257
v -0.2569832 0.4 -0.2569832
v -0.2950257 0.4 -0.2950257
v -0.2950257 0.4 -0.2569832
v 0.2189407 0.2 -0.2950257
v 0.2569832 0.2 -0.2950257
v 0.2189407 0.3 -0.2950257
v 0.2569832 0.3 -0.2950257
v 0.2950257 0.4 -0.2950257
v 0.2569832 0.1 -0.2950257
v 0.2950257 4.511946E-17 -0.2950257
v 0.2189407 0.1 -0.2950257
v 0.2189407 4.511946E-17 -0.2950257
v 0.2569832 0.4 -0.2950257
v -0.2569832 0.4 0.2569832
v -0.2569832 0.4 0.2950257
v -0.2950257 0.4 0.2569832
v -0.2950257 0.4 0.2950257
v 0.2950257 0.4 0.2569832
v 0.2950257 0.4 0.2950257
v 0.2569832 0.4 0.2569832
v 0.2569832 0.4 0.2950257
v -0.2950257 0 0.2189407
v -0.2950257 0.1 0.2189407
v -0.2950257 0 0.2950257
v -0.2950257 0.1 0.2569832
v -0.2950257 0.2 0.2569832
v -0.2950257 0.3 0.2569832
v -0.2950257 0.3 0.2189407
v -0.2950257 0.2 0.2189407
v 0.2950257 0.3 0.2569832
v 0.2950257 0.2 0.2569832
v 0.2950257 0.1 0.2569832
v 0.2950257 0 0.2950257
v 0.2950257 0 0.2189407
v 0.2950257 0.1 0.2189407
v 0.2950257 0.2 0.2189407
v 0.2950257 0.3 0.2189407
v 0.2189407 0 0.2950257
v 0.2569832 0.1 0.2950257
v 0.2569832 0.2 0.2950257
v 0.2189407 0.2 0.2950257
v 0.2569832 0.3 0.2950257
v 0.2189407 0.3 0.2950257
v 0.2189407 0.1 0.2950257
v -0.2950257 0.1 -0.2569832
v -0.2950257 4.511946E-17 -0.2950257
v -0.2950257 4.511946E-17 -0.2189407
v -0.2950257 0.1 -0.2189407
v -0.2950257 0.2 -0.2569832
v -0.2950257 0.3 -0.2569832
v -0.2950257 0.2 -0.2189407
v -0.2950257 0.3 -0.2189407
v -0.2189407 4.511946E-17 -0.2950257
v -0.2569832 0.1 -0.2950257
v -0.2569832 0.2 -0.2950257
v -0.2189407 0.2 -0.2950257
v -0.2569832 0.3 -0.2950257
v -0.2189407 0.3 -0.2950257
v -0.2189407 0.1 -0.2950257
v 0.2950257 0.4 -0.2569832
v 0.2569832 0.4 -0.2569832
v 0.2950257 0.3 -0.2569832
v 0.2950257 0.2 -0.2569832
v 0.2950257 0.3 -0.2189407
v 0.2950257 0.2 -0.2189407
v 0.2950257 0.1 -0.2569832
v 0.2950257 4.511946E-17 -0.2189407
v 0.2950257 0.1 -0.2189407
v -0.2189407 0.2 0.2950257
v -0.2569832 0.2 0.2950257
v -0.2189407 0.3 0.2950257
v -0.2569832 0.3 0.2950257
v -0.2569832 0.1 0.2950257
v -0.2189407 0.1 0.2950257
v -0.2189407 0 0.2950257

vn 0 1 0
vn 0 0 -1
vn -1 0 0
vn 1 0 0
vn 0 0 1
vn 0 -1 0

vt 10.11745 -11.61519
vt 10.11745 -10.11745
vt 11.61519 -11.61519
vt 11.61519 -10.11745
vt -8.619712 7.874016
vt -10.11745 7.874016
vt -8.619712 11.81102
vt -10.11745 11.81102
vt -11.61519 15.74803
vt -10.11745 3.937008
vt -11.61519 1.567394E-14
vt -8.619712 3.937008
vt -8.619712 1.567394E-14
vt -10.11745 15.74803
vt 10.11745 10.11745
vt 10.11745 11.61519
vt 11.61519 10.11745
vt 11.61519 11.61519
vt -11.61519 10.11745
vt -11.61519 11.61519
vt -10.11745 10.11745
vt -10.11745 11.61519
vt 8.619712 4.472072E-14
vt 8.619712 3.937008
vt 11.61519 4.472072E-14
vt 10.11745 3.937008
vt 10.11745 7.874016
vt 10.11745 11.81102
vt 10.11745 15.74803
vt 11.61519 15.74803
vt 8.619712 11.81102
vt 8.619712 7.874016
vt -11.61519 -4.997228E-30
vt -8.619712 -4.997228E-30
vt 8.619712 -9.627377E-15
vt 11.61519 -9.627377E-15
vt -11.61519 6.76152E-14
vt -8.619712 6.76152E-14
vt 8.619712 1.707146E-14
vt 11.61519 1.707146E-14
vt -11.61519 -10.11745
vt -10.11745 -10.11745
vt -11.61519 -11.61519
vt -10.11745 -11.61519
vt 11.61519 6.264622E-14
vt 8.619712 4.17211E-15
vt -11.61519 9.549737E-15
vt -8.619712 -3.144426E-15
vt -8.619712 11.61519
vt -11.61519 8.619712
vt -11.61519 -8.619712
vt -8.619712 -11.61519
vt 8.619712 11.61519
vt 8.619712 -11.61519
vt 11.61519 8.619712
vt 11.61519 -8.619712

usemtl brickLight

f 3/3/1 2/2/1 1/1/1
f 2/2/1 3/3/1 4/4/1
f 7/7/2 6/6/2 5/5/2
f 8/8/2 6/6/2 7/7/2
f 9/9/2 6/6/2 8/8/2
f 9/9/2 10/10/2 6/6/2
f 11/11/2 10/10/2 9/9/2
f 11/11/2 12/12/2 10/10/2
f 12/12/2 11/11/2 13/13/2
f 9/9/2 8/8/2 14/14/2
f 17/17/1 16/16/1 15/15/1
f 16/16/1 17/17/1 18/18/1
f 21/21/1 20/20/1 19/19/1
f 20/20/1 21/21/1 22/22/1
f 25/25/3 24/24/3 23/23/3
f 24/24/3 25/25/3 26/26/3
f 26/26/3 25/25/3 27/27/3
f 27/27/3 25/25/3 28/28/3
f 28/28/3 25/25/3 17/29/3
f 17/29/3 25/25/3 18/30/3
f 29/31/3 27/27/3 28/28/3
f 27/27/3 29/31/3 30/32/3
f 20/9/4 31/8/4 19/14/4
f 31/8/4 20/9/4 32/6/4
f 32/6/4 20/9/4 33/10/4
f 34/33/4 33/10/4 20/9/4
f 35/34/4 33/10/4 34/33/4
f 33/10/4 35/34/4 36/12/4
f 37/5/4 31/8/4 32/6/4
f 31/8/4 37/5/4 38/7/4
f 34/36/5 40/26/5 39/35/5
f 40/26/5 34/36/5 20/30/5
f 40/26/5 20/30/5 41/27/5
f 41/27/5 20/30/5 42/32/5
f 42/32/5 20/30/5 43/28/5
f 43/28/5 20/30/5 22/29/5
f 44/31/5 42/32/5 43/28/5
f 45/24/5 39/35/5 40/26/5
f 47/37/3 46/10/3 3/9/3
f 46/10/3 47/37/3 48/38/3
f 46/10/3 48/38/3 49/12/3
f 46/10/3 4/14/3 3/9/3
f 4/14/3 46/10/3 50/6/3
f 4/14/3 50/6/3 51/8/3
f 52/5/3 51/8/3 50/6/3
f 51/8/3 52/5/3 53/7/3
f 47/40/2 55/26/2 54/39/2
f 55/26/2 47/40/2 3/30/2
f 55/26/2 3/30/2 56/27/2
f 56/27/2 3/30/2 57/32/2
f 57/32/2 3/30/2 58/28/2
f 58/28/2 3/30/2 1/29/2
f 59/31/2 57/32/2 58/28/2
f 60/24/2 54/39/2 55/26/2
f 9/43/1 62/42/1 61/41/1
f 62/42/1 9/43/1 14/44/1
f 65/31/4 64/27/4 63/28/4
f 64/27/4 65/31/4 66/32/4
f 67/26/4 63/28/4 64/27/4
f 67/26/4 61/29/4 63/28/4
f 11/45/4 61/29/4 67/26/4
f 61/29/4 11/45/4 9/30/4
f 11/45/4 67/26/4 68/46/4
f 68/46/4 67/26/4 69/24/4
f 72/7/5 71/6/5 70/5/5
f 73/8/5 71/6/5 72/7/5
f 18/9/5 71/6/5 73/8/5
f 18/9/5 74/10/5 71/6/5
f 25/47/5 74/10/5 18/9/5
f 25/47/5 75/12/5 74/10/5
f 75/12/5 25/47/5 76/48/5
f 18/9/5 73/8/5 16/14/5

usemtl brick

f 25/20/6 23/50/6 76/49/6
f 48/51/6 76/49/6 23/50/6
f 47/43/6 76/49/6 48/51/6
f 54/52/6 76/49/6 47/43/6
f 54/52/6 39/53/6 76/49/6
f 13/54/6 39/53/6 54/52/6
f 13/54/6 34/18/6 39/53/6
f 11/3/6 34/18/6 13/54/6
f 11/3/6 35/55/6 34/18/6
f 35/55/6 11/3/6 68/56/6
f 4/4/1 15/15/1 2/2/1
f 15/15/1 4/4/1 17/17/1
f 16/16/1 2/2/1 15/15/1
f 22/22/1 2/2/1 16/16/1
f 22/22/1 1/1/1 2/2/1
f 21/21/1 1/1/1 22/22/1
f 62/42/1 1/1/1 21/21/1
f 1/1/1 62/42/1 14/44/1
f 19/19/1 62/42/1 21/21/1
f 62/42/1 19/19/1 61/41/1
f 66/32/4 67/26/4 64/27/4
f 67/26/4 66/32/4 69/24/4
f 66/32/4 19/14/4 69/24/4
f 65/31/4 19/14/4 66/32/4
f 63/28/4 19/14/4 65/31/4
f 19/14/4 63/28/4 61/29/4
f 69/24/4 19/14/4 68/46/4
f 68/46/4 19/14/4 38/7/4
f 38/7/4 19/14/4 31/8/4
f 38/7/4 35/34/4 68/46/4
f 35/34/4 38/7/4 37/5/4
f 35/34/4 37/5/4 36/12/4
f 32/6/4 36/12/4 37/5/4
f 36/12/4 32/6/4 33/10/4
f 23/23/3 49/12/3 48/38/3
f 49/12/3 23/23/3 52/5/3
f 52/5/3 23/23/3 53/7/3
f 29/31/3 53/7/3 23/23/3
f 17/29/3 53/7/3 29/31/3
f 4/14/3 53/7/3 17/29/3
f 53/7/3 4/14/3 51/8/3
f 29/31/3 23/23/3 24/24/3
f 29/31/3 24/24/3 30/32/3
f 26/26/3 30/32/3 24/24/3
f 30/32/3 26/26/3 27/27/3
f 17/29/3 29/31/3 28/28/3
f 50/6/3 49/12/3 52/5/3
f 49/12/3 50/6/3 46/10/3
f 22/29/5 44/31/5 43/28/5
f 44/31/5 22/29/5 72/7/5
f 72/7/5 22/29/5 73/8/5
f 73/8/5 22/29/5 16/14/5
f 70/5/5 44/31/5 72/7/5
f 44/31/5 70/5/5 42/32/5
f 71/6/5 42/32/5 70/5/5
f 71/6/5 41/27/5 42/32/5
f 74/10/5 41/27/5 71/6/5
f 75/12/5 41/27/5 74/10/5
f 45/24/5 41/27/5 75/12/5
f 41/27/5 45/24/5 40/26/5
f 76/48/5 45/24/5 75/12/5
f 45/24/5 76/48/5 39/35/5
f 60/24/2 13/13/2 54/39/2
f 13/13/2 60/24/2 12/12/2
f 60/24/2 56/27/2 12/12/2
f 56/27/2 60/24/2 55/26/2
f 12/12/2 56/27/2 10/10/2
f 10/10/2 56/27/2 5/5/2
f 5/5/2 56/27/2 57/32/2
f 5/5/2 57/32/2 7/7/2
f 7/7/2 57/32/2 59/31/2
f 59/31/2 1/29/2 7/7/2
f 1/29/2 59/31/2 58/28/2
f 7/7/2 1/29/2 8/8/2
f 8/8/2 1/29/2 14/14/2
f 6/6/2 10/10/2 5/5/2

