# Created by Kenney (www.kenney.nl)

mtllib tile_002.mtl

g tile_002

v 0.5 0 0.5
v 0.5 0 -0.5
v -0.5 0 0.5
v -0.5 0 -0.5
v 0.5 0.2 0.5
v -0.5 0.2 0.5
v -0.5 0.2 -0.5
v 0.5 0.2 -0.5
v -0.5 0.4 -0.5
v -0.5 0.4 0.5
v 0.5 0.4 -0.5
v 0.5 0.4 0.5
v 0.3915074 0.4 -0.2442743
v 0.1274355 0.4 -0.4066507
v -0.1452224 0.4 -0.2591459
v -0.1538085 0.4 0.05073516
v 0.3829212 0.4 0.06560675
v 0.1102633 0.4 0.2131115

vn 0 -1 0
vn 0 0 1
vn 0 0 -1
vn -1 0 0
vn 1 0 0
vn 0 1 0

vt 19.68504 19.68504
vt 19.68504 -19.68504
vt -19.68504 19.68504
vt -19.68504 -19.68504
vt 19.68504 0
vt -19.68504 0
vt 19.68504 7.874016
vt -19.68504 7.874016
vt -19.68504 15.74803
vt 19.68504 15.74803
vt -15.41368 -9.617099
vt -5.017147 -16.00987
vt 5.717417 -10.20259
vt 6.055453 1.997447
vt -15.07564 2.582943
vt -4.341075 8.390216

usemtl dirt

f 3/3/1 2/2/1 1/1/1
f 2/2/1 3/3/1 4/4/1
f 5/7/2 3/6/2 1/5/2
f 3/6/2 5/7/2 6/8/2
f 7/7/3 2/6/3 4/5/3
f 2/6/3 7/7/3 8/8/3
f 3/5/4 7/8/4 4/6/4
f 7/8/4 3/5/4 6/7/4
f 5/8/5 2/5/5 8/7/5
f 2/5/5 5/8/5 1/6/5
f 8/4/6 6/1/6 5/3/6
f 6/1/6 8/4/6 7/2/6

usemtl grass

f 6/7/4 9/9/4 7/8/4
f 9/9/4 6/7/4 10/10/4
f 9/10/3 8/8/3 7/7/3
f 8/8/3 9/10/3 11/9/3
f 12/10/2 6/8/2 5/7/2
f 6/8/2 12/10/2 10/9/2
f 11/4/6 14/12/6 13/11/6
f 14/12/6 11/4/6 9/2/6
f 14/12/6 9/2/6 15/13/6
f 15/13/6 9/2/6 16/14/6
f 16/14/6 9/2/6 10/1/6
f 17/15/6 11/4/6 13/11/6
f 17/15/6 12/3/6 11/4/6
f 12/3/6 18/16/6 10/1/6
f 18/16/6 12/3/6 17/15/6
f 10/1/6 18/16/6 16/14/6
f 12/9/5 8/7/5 11/10/5
f 8/7/5 12/9/5 5/8/5

g Group

v 0.3915074 0.4 -0.2442743
v 0.3829212 0.4 0.06560674
v 0.2906239 0.65 -0.1896976
v 0.2852147 0.65 0.005527526
v -0.04751584 0.65 -0.1990667
v 0.1242587 0.65 -0.2919947
v 0.1134402 0.65 0.09845549
v -0.05292505 0.65 -0.003841609
v -0.1538085 0.4 0.05073512
v 0.1102633 0.4 0.2131115

vn 0.9289725 0.3692526 0.02573977
vn -0.4421949 0.3692526 -0.8173837
vn -0.9289725 0.3692526 -0.02573977
vn 0.4421949 0.3692526 0.8173837
vn 0.4867775 0.3692526 -0.7916439
vn -0.4867775 0.3692526 0.7916439

vt -6.390316 -0.06538042
vt -18.59504 -0.06538042
vt -8.64819 10.52561
vt -16.33717 10.52561
vt 21.34891 -1.826654
vt 9.14418 -1.826654
vt 19.09103 8.764341
vt 11.40205 8.764341
vt 3.971789 8.54146
vt 4.184752 16.22749
vt 10.5216 4.514016
vt 10.94753 19.88607
vt 17.28438 8.172598
vt 17.49734 15.85862
vt 6.390316 -7.740325
vt 8.64819 2.85067
vt 18.59504 -7.740325
vt 16.33717 2.85067
vt -9.14418 -5.979052
vt -21.34891 -5.979052
vt -11.40205 4.611943
vt -19.09103 4.611943
vt 8.856226 2.010819
vt -3.348498 2.010819
vt 6.598352 12.60181
vt -1.090624 12.60181
vt 3.348498 -9.816525
vt -8.856226 -9.816525
vt 1.090624 0.7744708
vt -6.598352 0.7744708
vt -8.463657E-31 6.392769
vt 0.3380361 18.59281
vt 10.39653 0
vt 11.0726 24.40008
vt 21.13109 5.807273
vt 21.46913 18.00731

usemtl stone

f 21/19/7 20/18/7 19/17/7
f 20/18/7 21/19/7 22/20/7
f 23/23/8 14/22/8 15/21/8
f 14/22/8 23/23/8 24/24/8
f 24/27/6 22/26/6 21/25/6
f 22/26/6 24/27/6 25/28/6
f 25/28/6 24/27/6 23/29/6
f 25/28/6 23/29/6 26/30/6
f 27/33/9 23/32/9 15/31/9
f 23/32/9 27/33/9 26/34/9
f 22/37/10 28/36/10 20/35/10
f 28/36/10 22/37/10 25/38/10
f 24/41/11 19/40/11 14/39/11
f 19/40/11 24/41/11 21/42/11
f 25/45/12 27/44/12 28/43/12
f 27/44/12 25/45/12 26/46/12

usemtl grass

f 14/49/6 20/48/6 19/47/6
f 20/48/6 14/49/6 28/50/6
f 28/50/6 14/49/6 15/51/6
f 28/50/6 15/51/6 27/52/6

