# Created by Kenney (www.kenney.nl)

mtllib tile_062.mtl

g tile_062

v -0.4845481 0.2 -0.5
v 0.5154519 0.2 -0.5
v -0.4845481 0.4 -0.5
v 0.5154519 0.4 -0.5
v -0.4845481 0.2 0.5
v -0.4845481 0.4 0.5
v 0.5154519 0.4 0.5
v 0.5154519 0.2 0.5
v 0.5154519 0 0.5
v -0.4845481 0 0.5
v 0.5154519 0 -0.5
v -0.4845481 0 -0.5

vn 0 0 -1
vn -1 0 0
vn 0 1 0
vn 0 0 1
vn 1 0 0
vn 0 -1 0

vt 19.0767 7.874016
vt -20.29338 7.874016
vt 19.0767 15.74803
vt -20.29338 15.74803
vt -19.68504 7.874016
vt -19.68504 15.74803
vt 19.68504 7.874016
vt 19.68504 15.74803
vt -20.29338 -19.68504
vt -20.29338 19.68504
vt 19.0767 -19.68504
vt 19.0767 19.68504
vt 20.29338 7.874016
vt -19.0767 7.874016
vt 20.29338 15.74803
vt -19.0767 15.74803
vt 20.29338 0
vt -19.0767 0
vt 20.29338 -19.68504
vt -19.0767 -19.68504
vt 20.29338 19.68504
vt -19.0767 19.68504
vt 19.68504 0
vt -19.68504 0
vt 19.0767 0
vt -20.29338 0

usemtl grass

f 3/3/1 2/2/1 1/1/1
f 2/2/1 3/3/1 4/4/1
f 5/7/2 3/6/2 1/5/2
f 3/6/2 5/7/2 6/8/2
f 3/11/3 7/10/3 4/9/3
f 7/10/3 3/11/3 6/12/3
f 7/15/4 5/14/4 8/13/4
f 5/14/4 7/15/4 6/16/4
f 7/6/5 2/7/5 4/8/5
f 2/7/5 7/6/5 8/5/5

usemtl dirt

f 8/13/4 10/18/4 9/17/4
f 10/18/4 8/13/4 5/14/4
f 9/21/6 12/20/6 11/19/6
f 12/20/6 9/21/6 10/22/6
f 8/5/5 11/23/5 2/7/5
f 11/23/5 8/5/5 9/24/5
f 1/11/3 8/10/3 2/9/3
f 8/10/3 1/11/3 5/12/3
f 10/23/2 1/5/2 12/24/2
f 1/5/2 10/23/2 5/7/2
f 1/1/1 11/26/1 12/25/1
f 11/26/1 1/1/1 2/2/1

g Component#2

v -0.3534789 0.8873892 0.03277303
v -0.3054665 0.8873892 0.06049302
v -0.3811989 0.8873892 0.08078547
v -0.3331865 0.8873892 0.1085055
v -0.5154519 0.5092 0.1167585
v -0.3894519 0.5092 -0.10148
v -0.2972135 0.5092 0.2427585
v -0.1712135 0.5092 0.02452007
v -0.3843788 0.4672 -0.08254685
v -0.305125 0.4672 0.06040154
v -0.1901466 0.4672 0.02959315
v -0.3022866 0.4672 0.2238253
v -0.333095 0.4672 0.1088469
v -0.3815404 0.4672 0.08087696
v -0.3535704 0.4672 0.03243156
v -0.4965188 0.4672 0.1116853
v -0.305125 0.4 0.06040154
v -0.3535704 0.4 0.03243156
v -0.333095 0.4 0.1088469
v -0.3815404 0.4 0.08087696

vn 0 0.84 0
vn -0.7040757 0.2112733 -0.4064984
vn -0.4064984 0.2112733 0.7040757
vn 0.7040757 0.2112733 0.4064984
vn 0.4064984 0.2112733 -0.7040757
vn 0 -0.84 0
vn -0.3988441 -0.2632371 0.6908181
vn 0.6908181 -0.2632371 0.3988441
vn -0.6908181 -0.2632371 -0.3988441
vn 0.3988441 -0.2632371 -0.6908181
vn 0.4200001 0 -0.7274613
vn -0.4200001 0 0.7274613
vn -0.7274613 0 -0.4200001
vn 0.7274613 0 0.4200001

vt 4.606299 4.606299
vt 4.606299 7.204724
vt 7.204724 4.606299
vt 7.204724 7.204724
vt 11.81102 4.953579
vt 0 4.953579
vt 7.204724 23.26773
vt 4.606299 23.26773
vt 2.435299E-16 1.982919
vt 4.606299 20.29707
vt 11.81102 1.982919
vt 7.204724 20.29707
vt -5.65078E-17 1.982919
vt -11.81102 1.982919
vt -4.606299 20.29707
vt -7.204724 20.29707
vt -11.81102 4.953579
vt -4.606299 23.26773
vt -7.204724 23.26773
vt -0.6496063 0.6496063
vt -4.594584 7.21644
vt -0.6496063 11.16142
vt -11.16142 11.16142
vt -7.21644 7.21644
vt -7.21644 4.594584
vt -4.594584 4.594584
vt -11.16142 0.6496063
vt 0 8.561613
vt 11.81102 8.561613
vt 0.6496063 6.488693
vt 11.16142 6.488693
vt -0.6496063 6.488693
vt -11.16142 6.488693
vt -3.356916E-18 8.561613
vt -11.81102 8.561613
vt 11.16142 2.787385
vt 0.6496063 2.787385
vt 11.81102 4.860304
vt 0 4.860304
vt -0.6496063 2.787385
vt -11.81102 4.860304
vt -11.16142 2.787385
vt -4.594584 3.149606
vt -4.594584 0
vt -7.21644 3.149606
vt -7.21644 0
vt 4.594584 0
vt 4.594584 3.149606
vt 7.21644 0
vt 7.21644 3.149606

usemtl grass

f 15/29/7 14/28/7 13/27/7
f 14/28/7 15/29/7 16/30/7
f 15/33/8 18/32/8 17/31/8
f 18/32/8 15/33/8 13/34/8
f 19/37/9 15/36/9 17/35/9
f 15/36/9 19/37/9 16/38/9
f 14/41/10 19/40/10 20/39/10
f 19/40/10 14/41/10 16/42/10
f 13/44/11 20/43/11 18/32/11
f 20/43/11 13/44/11 14/45/11
f 23/48/12 22/47/12 21/46/12
f 22/47/12 23/48/12 24/49/12
f 22/47/12 24/49/12 25/50/12
f 25/50/12 24/49/12 26/51/12
f 27/52/12 21/46/12 22/47/12
f 21/46/12 27/52/12 28/53/12
f 28/53/12 27/52/12 26/51/12
f 28/53/12 26/51/12 24/49/12
f 28/56/13 19/55/13 17/54/13
f 19/55/13 28/56/13 24/57/13
f 20/60/14 24/59/14 23/58/14
f 24/59/14 20/60/14 19/61/14
f 17/64/15 21/63/15 28/62/15
f 21/63/15 17/64/15 18/65/15
f 20/67/16 21/66/16 18/65/16
f 21/66/16 20/67/16 23/68/16

usemtl _defaultMat

f 19/43/12 18/44/12 20/45/12
f 18/43/12 19/44/12 17/45/12

usemtl dirt

f 31/50/12 30/52/12 29/47/12
f 30/52/12 31/50/12 32/51/12
f 22/71/17 30/70/17 27/69/17
f 30/70/17 22/71/17 29/72/17
f 31/75/18 26/74/18 32/73/18
f 26/74/18 31/75/18 25/76/18
f 26/76/19 30/73/19 32/75/19
f 30/73/19 26/76/19 27/74/19
f 22/69/20 31/72/20 29/70/20
f 31/72/20 22/69/20 25/71/20

g Component#2

v -0.1115015 0.9802253 -0.3213205
v -0.04775043 0.9802253 -0.3384026
v -0.09441945 0.9802253 -0.2575694
v -0.03066836 0.9802253 -0.2746515
v -0.1771509 0.53 -0.1142743
v -0.2547967 0.53 -0.404052
v 0.1126268 0.53 -0.19192
v 0.03498107 0.53 -0.4816978
v -0.2345884 0.48 -0.3923848
v -0.04754001 0.48 -0.3387671
v 0.02331379 0.48 -0.4614895
v 0.09241849 0.48 -0.2035873
v -0.0303039 0.48 -0.2744411
v -0.09462987 0.48 -0.257205
v -0.111866 0.48 -0.321531
v -0.1654837 0.48 -0.1344826
v -0.04754001 0.4 -0.3387671
v -0.111866 0.4 -0.321531
v -0.0303039 0.4 -0.2744411
v -0.09462987 0.4 -0.257205

vn -0.9348744 0.2515159 0.250499
vn 0.250499 0.2515159 0.9348744
vn 0.9348744 0.2515159 -0.250499
vn -0.250499 0.2515159 -0.9348744
vn 0.2457822 -0.3133775 0.9172709
vn 0.9172709 -0.3133775 -0.2457822
vn -0.9172709 -0.3133775 0.2457822
vn -0.2457822 -0.3133775 -0.9172709
vn -0.2588192 0 -0.9659258
vn 0.2588192 0 0.9659258
vn -0.9659258 0 0.2588192
vn 0.9659258 0 -0.2588192


usemtl grass

f 35/29/3 34/28/3 33/27/3
f 34/28/3 35/29/3 36/30/3
f 35/33/21 38/32/21 37/31/21
f 38/32/21 35/33/21 33/34/21
f 39/37/22 35/36/22 37/35/22
f 35/36/22 39/37/22 36/38/22
f 34/41/23 39/40/23 40/39/23
f 39/40/23 34/41/23 36/42/23
f 33/44/24 40/43/24 38/32/24
f 40/43/24 33/44/24 34/45/24
f 43/48/6 42/47/6 41/46/6
f 42/47/6 43/48/6 44/49/6
f 42/47/6 44/49/6 45/50/6
f 45/50/6 44/49/6 46/51/6
f 47/52/6 41/46/6 42/47/6
f 41/46/6 47/52/6 48/53/6
f 48/53/6 47/52/6 46/51/6
f 48/53/6 46/51/6 44/49/6
f 48/56/25 39/55/25 37/54/25
f 39/55/25 48/56/25 44/57/25
f 40/60/26 44/59/26 43/58/26
f 44/59/26 40/60/26 39/61/26
f 37/64/27 41/63/27 48/62/27
f 41/63/27 37/64/27 38/65/27
f 40/67/28 41/66/28 38/65/28
f 41/66/28 40/67/28 43/68/28

usemtl _defaultMat

f 39/43/6 38/44/6 40/45/6
f 38/43/6 39/44/6 37/45/6

usemtl dirt

f 51/50/6 50/52/6 49/47/6
f 50/52/6 51/50/6 52/51/6
f 42/71/29 50/70/29 47/69/29
f 50/70/29 42/71/29 49/72/29
f 51/75/30 46/74/30 52/73/30
f 46/74/30 51/75/30 45/76/30
f 46/76/31 50/73/31 52/75/31
f 50/73/31 46/76/31 47/74/31
f 42/69/32 51/72/32 49/70/32
f 51/72/32 42/69/32 45/71/32

g Component#2

v 0.1096497 1.055655 0.1039366
v 0.1842298 1.055655 0.1039365
v 0.1096498 1.055655 0.1785166
v 0.1842298 1.055655 0.1785166
v -0.02256026 0.5469 0.3107266
v -0.02256029 0.5469 -0.02827344
v 0.3164398 0.5469 0.3107266
v 0.3164397 0.5469 -0.02827347
v -0.003915286 0.4904 -0.009628443
v 0.184566 0.4904 0.1036003
v 0.2977947 0.4904 -0.009628482
v 0.2977947 0.4904 0.2920816
v 0.184566 0.4904 0.1788528
v 0.1093135 0.4904 0.1788529
v 0.1093135 0.4904 0.1036003
v -0.003915258 0.4904 0.2920816
v 0.184566 0.4 0.1036003
v 0.1093135 0.4 0.1036003
v 0.184566 0.4 0.1788528
v 0.1093135 0.4 0.1788529

vn 0 1.13 0
vn -1.093674 0.2842129 1.192093E-07
vn 1.192093E-07 0.2842129 1.093674
vn 1.093674 0.2842129 -1.192093E-07
vn -1.192093E-07 0.2842129 -1.093674
vn 0 -1.13 0
vn 1.192093E-07 -0.3541165 1.073081
vn 1.073081 -0.3541165 -1.192093E-07
vn -1.073081 -0.3541165 1.192093E-07
vn -1.192093E-07 -0.3541165 -1.073081
vn -1.192093E-07 0 -1.13
vn 1.192093E-07 0 1.13
vn -1.13 0 1.192093E-07
vn 1.13 0 -1.192093E-07


usemtl grass

f 55/29/33 54/28/33 53/27/33
f 54/28/33 55/29/33 56/30/33
f 55/33/34 58/32/34 57/31/34
f 58/32/34 55/33/34 53/34/34
f 59/37/35 55/36/35 57/35/35
f 55/36/35 59/37/35 56/38/35
f 54/41/36 59/40/36 60/39/36
f 59/40/36 54/41/36 56/42/36
f 53/44/37 60/43/37 58/32/37
f 60/43/37 53/44/37 54/45/37
f 63/48/38 62/47/38 61/46/38
f 62/47/38 63/48/38 64/49/38
f 62/47/38 64/49/38 65/50/38
f 65/50/38 64/49/38 66/51/38
f 67/52/38 61/46/38 62/47/38
f 61/46/38 67/52/38 68/53/38
f 68/53/38 67/52/38 66/51/38
f 68/53/38 66/51/38 64/49/38
f 68/56/39 59/55/39 57/54/39
f 59/55/39 68/56/39 64/57/39
f 60/60/40 64/59/40 63/58/40
f 64/59/40 60/60/40 59/61/40
f 57/64/41 61/63/41 68/62/41
f 61/63/41 57/64/41 58/65/41
f 60/67/42 61/66/42 58/65/42
f 61/66/42 60/67/42 63/68/42

usemtl _defaultMat

f 59/43/38 58/44/38 60/45/38
f 58/43/38 59/44/38 57/45/38

usemtl dirt

f 71/50/38 70/52/38 69/47/38
f 70/52/38 71/50/38 72/51/38
f 62/71/43 70/70/43 67/69/43
f 70/70/43 62/71/43 69/72/43
f 71/75/44 66/74/44 72/73/44
f 66/74/44 71/75/44 65/76/44
f 66/76/45 70/73/45 72/75/45
f 70/73/45 66/76/45 67/74/45
f 62/69/46 71/72/46 69/70/46
f 71/72/46 62/69/46 65/71/46

