# Created by Kenney (www.kenney.nl)

mtllib tile_097.mtl

g tile_097

v 0.5 0.4 -0.5
v 0.5 0.2 -0.5
v 0.5 0.4 -0.375
v 0.5 0.37 -0.375
v 0.5 0.2 -0.375
v -0.5 0.2 -0.5
v -0.5 0.4 -0.5
v -0.5 0.2 -0.375
v -0.5 0.37 -0.375
v -0.5 0.4 -0.375
v 0.375 0.2 -0.5
v 0.375 0.37 -0.5
v 0.375 0.4 -0.5
v -0.375 0.4 -0.375
v -0.375 0.4 -0.5
v 0.5 0.4 0.375
v 0.5 0.37 0.375
v 0.5 0.4 0.5
v 0.5 0.2 0.5
v 0.5 0.2 0.375
v -0.5 0.2 0.5
v -0.5 0.4 0.5
v -0.375 0.2 -0.5
v -0.375 0.37 -0.5
v -0.5 0.4 0.375
v -0.5 0.2 0.375
v -0.5 0.37 0.375
v 0.375 0.4 -0.375
v 0.375 0.37 -0.375
v 0.5 0 0.5
v 0.5 0 -0.5
v -0.5 0 0.5
v -0.5 0 -0.5
v -0.375 0.37 -0.375

vn 1 0 0
vn -1 0 0
vn 0 0 -1
vn 0 1 0
vn 0 0 1
vn 0 -1 0

vt 19.68504 15.74803
vt 19.68504 7.874016
vt 14.76378 15.74803
vt 14.76378 14.56693
vt 14.76378 7.874016
vt -19.68504 7.874016
vt -19.68504 15.74803
vt -14.76378 7.874016
vt -14.76378 14.56693
vt -14.76378 15.74803
vt 14.76378 -14.76378
vt 19.68504 -14.76378
vt 14.76378 -19.68504
vt 19.68504 -19.68504
vt -19.68504 19.68504
vt 19.68504 19.68504
vt -19.68504 14.76378
vt 19.68504 14.76378
vt -19.68504 -14.76378
vt -14.76378 -14.76378
vt -19.68504 -19.68504
vt -14.76378 -19.68504
vt 19.68504 14.56693
vt 19.68504 0
vt -19.68504 0
vt -19.68504 14.56693

usemtl grass

f 3/3/1 2/2/1 1/1/1
f 2/2/1 3/3/1 4/4/1
f 2/2/1 4/4/1 5/5/1
f 8/8/2 7/7/2 6/6/2
f 7/7/2 8/8/2 9/9/2
f 10/10/2 7/7/2 9/9/2
f 12/9/3 2/6/3 11/8/3
f 2/6/3 12/9/3 1/7/3
f 1/7/3 12/9/3 13/10/3
f 15/13/4 10/12/4 14/11/4
f 10/12/4 15/13/4 7/14/4
f 18/7/1 17/9/1 16/10/1
f 19/6/1 17/9/1 18/7/1
f 17/9/1 19/6/1 20/8/1
f 18/1/5 21/6/5 19/2/5
f 21/6/5 18/1/5 22/7/5
f 7/1/3 23/5/3 6/2/3
f 23/5/3 7/1/3 24/4/3
f 24/4/3 7/1/3 15/3/3
f 16/17/4 22/16/4 18/15/4
f 22/16/4 16/17/4 25/18/4
f 21/2/2 27/4/2 26/5/2
f 27/4/2 21/2/2 25/3/2
f 25/3/2 21/2/2 22/1/2
f 1/21/4 28/20/4 3/19/4
f 28/20/4 1/21/4 13/22/4

usemtl dirt

f 3/1/5 29/4/5 4/23/5
f 29/4/5 3/1/5 28/3/5
f 32/15/6 31/14/6 30/16/6
f 31/14/6 32/15/6 33/21/6
f 8/8/2 27/4/2 9/9/2
f 27/4/2 8/8/2 26/5/2
f 8/8/2 32/24/2 26/5/2
f 6/6/2 32/24/2 8/8/2
f 32/24/2 6/6/2 33/25/2
f 26/5/2 32/24/2 21/2/2
f 24/13/4 34/11/4 12/22/4
f 27/18/4 12/22/4 34/11/4
f 27/18/4 29/20/4 12/22/4
f 27/18/4 4/19/4 29/20/4
f 4/19/4 27/18/4 17/17/4
f 27/18/4 34/11/4 9/12/4
f 24/4/3 11/8/3 23/5/3
f 11/8/3 24/4/3 12/9/3
f 2/6/3 23/5/3 11/8/3
f 2/6/3 6/2/3 23/5/3
f 31/25/3 6/2/3 2/6/3
f 6/2/3 31/25/3 33/24/3
f 5/5/1 31/24/1 2/2/1
f 31/24/1 5/5/1 30/25/1
f 30/25/1 5/5/1 20/8/1
f 30/25/1 20/8/1 19/6/1
f 5/5/1 17/9/1 20/8/1
f 17/9/1 5/5/1 4/4/1
f 19/2/5 32/25/5 30/24/5
f 32/25/5 19/2/5 21/6/5
f 25/1/3 17/26/3 27/23/3
f 17/26/3 25/1/3 16/7/3
f 29/9/2 13/7/2 12/26/2
f 13/7/2 29/9/2 28/10/2
f 20/17/4 21/16/4 19/15/4
f 21/16/4 20/17/4 5/19/4
f 21/16/4 5/19/4 2/21/4
f 21/16/4 2/21/4 11/22/4
f 21/16/4 11/22/4 23/13/4
f 21/16/4 23/13/4 8/12/4
f 8/12/4 23/13/4 6/14/4
f 21/16/4 8/12/4 26/18/4
f 34/9/5 10/7/5 9/26/5
f 10/7/5 34/9/5 14/10/5
f 14/3/1 24/23/1 15/1/1
f 24/23/1 14/3/1 34/4/1

