# Created by Kenney (www.kenney.nl)

mtllib tile_029.mtl

g tile_029

v 0.2950257 0.48 0.2051731
v 0.2950257 0.48 0.2950257
v 0.2051731 0.48 0.2051731
v 0.2051731 0.48 0.2950257
v -0.04839105 0.4 -0.2950257
v -0.04839105 0.48 -0.2950257
v -0.04839105 0.4 -0.2051731
v -0.04839105 0.48 -0.2051731
v -0.04839105 0.4 0.2051731
v -0.04839105 0.48 0.2051731
v -0.04839105 0.4 0.2950257
v -0.04839105 0.48 0.2950257
v 0.2950257 0.4 0.04839105
v 0.2051731 0.4 0.04839105
v 0.2950257 0.48 0.04839105
v 0.2051731 0.48 0.04839105
v -0.2051731 0.48 0.2051731
v -0.2051731 0.48 0.2950257
v -0.2950257 0.48 0.2051731
v -0.2950257 0.48 0.2950257
v 0.2950257 0.48 -0.04839105
v 0.2950257 0.4 -0.04839105
v 0.2950257 0.27 0.2950257
v 0.2950257 0.4 -0.2051731
v 0.2950257 0.27 -0.2950257
v 0.2950257 0.48 -0.2051731
v 0.2950257 0.48 -0.2950257
v 0.2950257 0.4 0.2051731
v 0.2051731 0.28 -0.2051731
v -0.2051731 0.28 -0.2051731
v 0.2051731 0.33 -0.2051731
v -0.2051731 0.33 -0.2051731
v 0.2051731 0.4 -0.2051731
v -0.2051731 0.4 -0.2051731
v 0.04839105 0.4 -0.2051731
v 0.04839105 0.48 -0.2051731
v 0.2051731 0.48 -0.2051731
v -0.2950257 0.4 -0.2051731
v -0.2051731 0.48 -0.2051731
v -0.2950257 0.48 -0.2051731
v -0.2051731 0.4 0.2051731
v -0.2051731 0.4 0.2950257
v -0.2950257 0.4 0.2051731
v -0.2051731 0.4 0.04839105
v -0.2950257 0.4 0.04839105
v 0.2051731 0.28 0.2051731
v 0.2051731 0.33 0.2051731
v 0.2051731 0.4 -0.04839105
v 0.2051731 0.48 -0.04839105
v 0.2051731 0.4 0.2051731
v 0.2051731 0.4 0.2950257
v 0.2051731 0.4 -0.2950257
v 0.2051731 0.48 -0.2950257
v -0.2051731 0.48 -0.04839105
v -0.2051731 0.48 0.04839105
v -0.2950257 0.48 -0.04839105
v -0.2950257 0.48 0.04839105
v -0.2950257 0.4 -0.04839105
v -0.2051731 0.4 -0.04839105
v -0.2051731 0.33 0.2051731
v 0.04839105 0.4 0.2051731
v 0.04839105 0.48 0.2051731
v -0.2051731 0.28 0.2051731
v -0.2051731 0.48 -0.2950257
v -0.2051731 0.4 -0.2950257
v -0.2950257 0.27 0.2950257
v 0.04839105 0.4 0.2950257
v 0.04839105 0.48 0.2950257
v -0.2950257 0.48 -0.2950257
v -0.2950257 0.27 -0.2950257
v 0.04839105 0.4 -0.2950257
v 0.04839105 0.48 -0.2950257
v -0.2950257 0 0.2950257
v 0.2950257 0 0.2950257
v -0.2950257 4.511946E-17 -0.2950257
v 0.2950257 4.511946E-17 -0.2950257

vn 0 1 0
vn -1 0 0
vn 0 0 1
vn 1 0 0
vn 0 0 -1
vn 0 -1 0

vt -11.61519 8.077683
vt -11.61519 11.61519
vt -8.077683 8.077683
vt -8.077683 11.61519
vt -11.61519 15.74803
vt -11.61519 18.89764
vt -8.077683 15.74803
vt -8.077683 18.89764
vt 8.077683 15.74803
vt 8.077683 18.89764
vt 11.61519 15.74803
vt 11.61519 18.89764
vt 8.077683 8.077683
vt 8.077683 11.61519
vt 11.61519 8.077683
vt 11.61519 11.61519
vt 1.905159 18.89764
vt 1.905159 15.74803
vt -1.905159 18.89764
vt -1.905159 15.74803
vt -11.61519 10.62992
vt 11.61519 10.62992
vt 8.077683 11.02362
vt -8.077683 11.02362
vt 8.077683 12.99213
vt -8.077683 12.99213
vt 1.905159 8.077683
vt 1.905159 11.61519
vt 8.077683 1.905159
vt 11.61519 1.905159
vt 8.077683 -1.905159
vt 11.61519 -1.905159
vt 1.905159 -11.61519
vt 1.905159 -8.077683
vt 8.077683 -11.61519
vt 8.077683 -8.077683
vt 11.61519 -8.077683
vt -11.61519 1.905159
vt -8.077683 1.905159
vt -1.905159 8.077683
vt -1.905159 11.61519
vt -11.61519 -1.905159
vt -8.077683 -1.905159
vt 11.61519 -11.61519
vt -11.61519 -11.61519
vt -11.61519 0
vt 11.61519 0
vt 11.61519 3.368596E-30
vt -11.61519 1.776357E-15
vt 11.61519 1.776357E-15
vt -8.077683 -8.077683
vt -1.905159 -8.077683
vt -8.077683 -11.61519
vt -1.905159 -11.61519
vt -11.61519 -8.077683
vt -11.61519 -1.209888E-29

usemtl brick

f 3/3/1 2/2/1 1/1/1
f 2/2/1 3/3/1 4/4/1
f 7/7/2 6/6/2 5/5/2
f 6/6/2 7/7/2 8/8/2
f 11/11/2 10/10/2 9/9/2
f 10/10/2 11/11/2 12/12/2
f 15/12/3 14/9/3 13/11/3
f 14/9/3 15/12/3 16/10/3
f 19/15/1 18/14/1 17/13/1
f 18/14/1 19/15/1 20/16/1
f 15/19/4 22/18/4 21/17/4
f 13/20/4 22/18/4 15/19/4
f 23/21/4 22/18/4 13/20/4
f 23/21/4 24/9/4 22/18/4
f 25/22/4 24/9/4 23/21/4
f 25/22/4 26/10/4 24/9/4
f 26/10/4 25/22/4 27/12/4
f 23/21/4 13/20/4 28/7/4
f 23/21/4 28/7/4 2/6/4
f 2/6/4 28/7/4 1/8/4
f 31/25/3 30/24/3 29/23/3
f 30/24/3 31/25/3 32/26/3
f 33/9/3 32/26/3 31/25/3
f 32/26/3 33/9/3 34/7/3
f 34/7/3 33/9/3 35/18/3
f 34/7/3 35/18/3 7/20/3
f 36/17/3 7/20/3 35/18/3
f 7/20/3 36/17/3 8/19/3
f 26/12/3 33/9/3 24/11/3
f 33/9/3 26/12/3 37/10/3
f 39/8/3 38/5/3 34/7/3
f 38/5/3 39/8/3 40/6/3
f 41/13/1 11/28/1 9/27/1
f 11/28/1 41/13/1 42/14/1
f 44/29/1 43/15/1 41/13/1
f 43/15/1 44/29/1 45/30/1
f 46/23/2 31/26/2 29/24/2
f 31/26/2 46/23/2 47/25/2
f 47/25/2 33/7/2 31/26/2
f 33/7/2 47/25/2 48/20/2
f 48/20/2 47/25/2 14/18/2
f 48/20/2 14/18/2 49/19/2
f 14/18/2 47/25/2 50/9/2
f 16/17/2 49/19/2 14/18/2
f 51/11/2 3/10/2 50/9/2
f 3/10/2 51/11/2 4/12/2
f 33/7/2 53/6/2 52/5/2
f 53/6/2 33/7/2 37/8/2
f 56/32/1 55/29/1 54/31/1
f 55/29/1 56/32/1 57/30/1
f 55/8/3 45/5/3 44/7/3
f 45/5/3 55/8/3 57/6/3
f 56/12/5 59/9/5 58/11/5
f 59/9/5 56/12/5 54/10/5
f 41/9/5 47/26/5 60/25/5
f 47/26/5 41/9/5 61/20/5
f 61/20/5 41/9/5 9/18/5
f 9/18/5 62/19/5 61/20/5
f 62/19/5 9/18/5 10/17/5
f 50/7/5 47/26/5 61/20/5
f 46/24/5 60/25/5 47/26/5
f 60/25/5 46/24/5 63/23/5
f 19/12/5 41/9/5 43/11/5
f 41/9/5 19/12/5 17/10/5
f 3/8/5 28/5/5 50/7/5
f 28/5/5 3/8/5 1/6/5
f 39/10/4 65/11/4 64/12/4
f 65/11/4 39/10/4 34/9/4
f 59/18/4 32/25/4 34/9/4
f 32/25/4 59/18/4 60/26/4
f 60/26/4 59/18/4 44/20/4
f 44/20/4 59/18/4 55/19/4
f 55/19/4 59/18/4 54/17/4
f 60/26/4 44/20/4 41/7/4
f 60/26/4 30/23/4 32/25/4
f 30/23/4 60/26/4 63/24/4
f 18/6/4 41/7/4 17/8/4
f 41/7/4 18/6/4 42/5/4
f 65/35/1 7/34/1 5/33/1
f 7/34/1 65/35/1 34/36/1
f 38/37/1 59/31/1 34/36/1
f 59/31/1 38/37/1 58/32/1
f 23/22/3 51/9/3 66/21/3
f 51/9/3 23/22/3 2/12/3
f 66/21/3 51/9/3 67/18/3
f 51/9/3 2/12/3 4/10/3
f 11/20/3 66/21/3 67/18/3
f 68/17/3 11/20/3 67/18/3
f 11/20/3 68/17/3 12/19/3
f 42/7/3 66/21/3 11/20/3
f 66/21/3 42/7/3 20/6/3
f 20/6/3 42/7/3 18/8/3
f 70/21/2 38/7/2 69/6/2
f 38/7/2 70/21/2 66/22/2
f 38/7/2 66/22/2 58/20/2
f 58/20/2 66/22/2 45/18/2
f 58/20/2 45/18/2 56/19/2
f 45/18/2 66/22/2 43/9/2
f 43/9/2 66/22/2 19/10/2
f 19/10/2 66/22/2 20/12/2
f 57/17/2 56/19/2 45/18/2
f 40/8/2 69/6/2 38/7/2
f 5/18/5 52/7/5 65/9/5
f 52/7/5 5/18/5 71/20/5
f 71/20/5 5/18/5 6/17/5
f 71/20/5 6/17/5 72/19/5
f 52/7/5 25/21/5 65/9/5
f 25/21/5 52/7/5 27/6/5
f 27/6/5 52/7/5 53/8/5
f 70/22/5 65/9/5 25/21/5
f 65/9/5 70/22/5 69/12/5
f 65/9/5 69/12/5 64/10/5
f 14/39/1 28/1/1 13/38/1
f 28/1/1 14/39/1 50/3/1
f 61/40/1 51/4/1 50/3/1
f 51/4/1 61/40/1 67/41/1
f 49/8/5 22/5/5 48/7/5
f 22/5/5 49/8/5 21/6/5
f 10/27/1 68/41/1 62/40/1
f 68/41/1 10/27/1 12/28/1
f 49/43/1 15/38/1 21/42/1
f 15/38/1 49/43/1 16/39/1
f 25/45/6 23/2/6 70/44/6
f 66/16/6 70/44/6 23/2/6
f 74/47/5 73/46/5 23/22/5
f 66/21/5 23/22/5 73/46/5
f 75/49/4 70/21/4 73/48/4
f 66/22/4 73/48/4 70/21/4
f 75/50/3 76/49/3 70/22/3
f 25/21/3 70/22/3 76/49/3
f 64/35/1 40/37/1 39/36/1
f 40/37/1 64/35/1 69/44/1
f 30/36/1 46/3/1 29/51/1
f 46/3/1 30/36/1 63/13/1
f 36/10/4 71/11/4 72/12/4
f 71/11/4 36/10/4 35/9/4
f 52/53/1 35/52/1 33/51/1
f 35/52/1 52/53/1 71/54/1
f 33/51/1 22/42/1 24/55/1
f 22/42/1 33/51/1 48/43/1
f 68/6/4 61/7/4 62/8/4
f 61/7/4 68/6/4 67/5/4
f 53/53/1 26/55/1 27/45/1
f 26/55/1 53/53/1 37/51/1
f 6/33/1 36/52/1 72/54/1
f 36/52/1 6/33/1 8/34/1
f 25/22/2 76/50/2 23/21/2
f 74/56/2 23/21/2 76/50/2

usemtl _defaultMat

f 32/9/1 47/12/1 31/10/1
f 47/9/1 32/12/1 60/10/1
f 70/44/1 23/2/1 25/45/1
f 23/2/1 70/44/1 66/16/1
f 74/16/6 75/45/6 76/44/6
f 75/45/6 74/16/6 73/2/6

usemtl brickLight

f 23/22/3 73/46/3 74/47/3
f 73/46/3 23/22/3 66/21/3
f 73/48/2 70/21/2 75/49/2
f 70/21/2 73/48/2 66/22/2
f 70/22/5 76/49/5 75/50/5
f 76/49/5 70/22/5 25/21/5
f 76/44/1 75/45/1 74/16/1
f 73/2/1 74/16/1 75/45/1
f 23/21/4 76/50/4 25/22/4
f 76/50/4 23/21/4 74/56/4

g Group

v 5.960464E-08 0.33 0
v 5.960464E-08 0.5914422 0
v 0.2051733 0.33 0.2051731
v -0.2051731 0.33 0.2051732
v 0.2051732 0.33 -0.2051732

vn -0.7071068 0 0.7071069
vn 0.7071068 0 -0.7071069
vn -0.7866776 0.6173642 1.192093E-07
vn 0.7866776 -0.6173642 -1.192093E-07
vn 1.192093E-07 0.6173642 0.7866776
vn -1.192093E-07 -0.6173642 -0.7866776
vn -1.192093E-07 0.6173642 -0.7866776
vn 1.192093E-07 -0.6173642 0.7866776
vn 0.7866776 0.6173642 -1.192093E-07
vn -0.7866776 -0.6173642 1.192093E-07

vt 11.42357 1.952431E-29
vt 2.009718E-13 1.682694E-29
vt 11.42357 10.293
vt 22.84714 0
vt -2.273737E-13 5.684342E-14
vt -16.15537 0
vt -16.15537 16.15537
vt 1.136868E-13 16.15537
vt 16.15537 3.485055E-14
vt 2.273737E-13 3.509309E-14
vt 8.077683 13.08415
vt -2.273861E-13 -9.973744
vt 8.077683 3.110402
vt 16.15537 -9.973744
vt -8.077683 13.08415
vt -5.684342E-14 1.403724E-13
vt -16.15537 7.001728E-14
vt 2.840503E-13 -9.973744
vt -16.15537 -9.973744
vt -8.077683 3.110402

usemtl grass

f 78/59/7 32/58/7 77/57/7
f 79/60/7 78/59/7 77/57/7
f 77/57/8 32/58/8 78/59/8
f 77/57/8 78/59/8 79/60/8
f 77/3/6 80/62/6 32/61/6
f 80/62/6 77/3/6 79/63/6
f 32/61/6 79/63/6 77/3/6
f 79/63/6 32/61/6 81/64/6
f 32/61/1 80/62/1 77/3/1
f 79/63/1 77/3/1 80/62/1
f 77/3/1 79/63/1 32/61/1
f 81/64/1 32/61/1 79/63/1
f 78/67/9 32/66/9 80/65/9
f 80/65/10 32/66/10 78/67/10
f 79/70/11 78/69/11 80/68/11
f 80/68/12 78/69/12 79/70/12
f 81/73/13 32/72/13 78/71/13
f 78/71/14 32/72/14 81/73/14
f 78/76/15 79/75/15 81/74/15
f 81/74/16 79/75/16 78/76/16

