# Created by Kenney (www.kenney.nl)

mtllib tile_082.mtl

g tile_082

v -0.08592205 0.5068976 -0.375
v -0.1713966 0.4976065 -0.375
v -0.08592205 0.5068976 -0.5
v -0.1713966 0.4976065 -0.5
v -0.4207092 0.4332444 -0.375
v -0.5 0.4 -0.375
v -0.4207092 0.4332444 -0.5
v -0.5 0.4 -0.5
v -0.2559785 0.4821751 -0.375
v -0.3392272 0.4606837 -0.375
v -0.2559785 0.4821751 -0.5
v -0.3392272 0.4606837 -0.5
v 1.139963E-09 0.51 -0.375
v -5.775291E-15 0.51 -0.5
v 0.2559785 0.4821751 -0.375
v 0.1713966 0.4976065 -0.375
v 0.2559785 0.4821751 -0.5
v 0.1713966 0.4976065 -0.5
v 0.3392272 0.4606837 -0.375
v 0.3392272 0.4606837 -0.5
v 0.08592206 0.5068976 -0.375
v 0.08592205 0.5068976 -0.5
v 0.4207092 0.4332444 -0.375
v 0.4207092 0.4332444 -0.5
v 0.5 0.2 0.5
v -0.5 0.2 0.5
v 0.5 0.4 0.5
v -0.5 0.4 0.5
v 0.4207092 0.4332444 0.5
v -0.4207092 0.4332444 0.5
v 0.3392272 0.4606837 0.5
v -0.3392272 0.4606837 0.5
v 0.2559785 0.4821751 0.5
v -0.2559785 0.4821751 0.5
v 0.1713966 0.4976065 0.5
v -0.1713966 0.4976065 0.5
v 0.08592206 0.5068976 0.5
v -0.08592205 0.5068976 0.5
v 2.279941E-09 0.51 0.5
v -0.5 0.2 -0.5
v 0.5 0.2 -0.5
v 0.5 0.4 -0.5
v 0.5 0.4 -0.375
v 0.5 0.2 -0.375
v 0.5 0.37 -0.375
v -0.5 0.2 -0.375
v -0.5 0.37 -0.375
v -0.5 0.2 0.375
v -0.5 0.37 0.375
v -0.5 0.4 0.375
v 0.5 0.4 0.375
v 0.5 0.37 0.375
v 0.5 0.2 0.375
v -0.1713966 0.4976065 0.375
v -0.2559785 0.4821751 0.375
v 0.08592206 0.5068976 0.375
v 1.139972E-09 0.51 0.375
v 0.1713966 0.4976065 0.375
v 0.3392272 0.4606837 0.375
v 0.2559785 0.4821751 0.375
v -0.3392272 0.4606837 0.375
v -0.08592205 0.5068976 0.375
v -0.4207092 0.4332444 0.375
v 0.4207092 0.4332444 0.375
v 0.5 0 0.5
v 0.5 0 -0.5
v -0.5 0 0.5
v -0.5 0 -0.5
v 7.561062E-09 0.48 0.375
v -0.08592205 0.4768976 0.375
v 1.139963E-09 0.48 -0.375
v -0.08592205 0.4768976 -0.375
v 0.3392272 0.4306838 0.375
v 0.2559785 0.4521751 0.375
v 0.3392272 0.4306837 -0.375
v 0.2559785 0.4521751 -0.375
v 0.1713966 0.4676065 0.375
v 0.1713966 0.4676065 -0.375
v 0.08592207 0.4768976 0.375
v 0.08592206 0.4768976 -0.375
v -0.3392272 0.4306838 0.375
v -0.4207092 0.4032444 0.375
v -0.3392272 0.4306837 -0.375
v -0.4207092 0.4032444 -0.375
v 0.4284474 0.4 0.375
v 0.4284474 0.4 -0.375
v 0.4207092 0.4032444 0.375
v 0.4207092 0.4032444 -0.375
v -0.1713966 0.4676065 0.375
v -0.2559785 0.4521751 0.375
v -0.1713966 0.4676065 -0.375
v -0.2559785 0.4521751 -0.375
v -0.4284473 0.4 0.375
v -0.4284473 0.4 -0.375

vn -0.07212076 0.9973959 0
vn -0.1438659 0.9895971 0
vn -0.3531325 0.9355733 0
vn -0.3866616 0.9222217 0
vn -0.2148618 0.9766445 0
vn -0.2847386 0.9586052 0
vn 0 1 0
vn 0.2148618 0.9766445 0
vn 0.1438659 0.9895971 0
vn 0.2847386 0.9586052 0
vn 0.07212076 0.9973959 0
vn 0.3531325 0.9355733 0
vn 0 0 1
vn 0 0 -1
vn 1 0 0
vn -1 0 0
vn 0.3866616 0.9222217 0
vn -0.3531324 0.9355733 0
vn 0 -1 0
vn 0.3866618 0.9222216 0
vn 0.3531324 0.9355733 0
vn -0.3866615 0.9222217 0
vn -0.3866617 0.9222216 0

vt -14.76378 -1.206357
vt -14.76378 -4.59132
vt -19.68504 -1.206355
vt -19.68504 -4.591318
vt -14.76378 -8.679848
vt -14.76378 -12.06481
vt -19.68504 -8.679848
vt -19.68504 -12.06481
vt -14.76378 -5.012857
vt -14.76378 -8.39782
vt -19.68504 -5.012856
vt -19.68504 -8.39782
vt -14.76378 0.7245409
vt -14.76378 -2.660422
vt -19.68504 0.7245482
vt -19.68505 -2.660414
vt 14.76378 -6.507109
vt 14.76378 -3.122146
vt 19.68504 -6.507108
vt 19.68504 -3.122145
vt 14.76378 -8.39782
vt 14.76378 -5.012858
vt 19.68504 -8.39782
vt 19.68504 -5.012857
vt 14.76378 -4.59132
vt 14.76378 -1.206358
vt 19.68504 -4.591318
vt 19.68504 -1.206355
vt 14.76378 -10.25361
vt 14.76378 -6.868646
vt 19.68504 -10.25361
vt 19.68504 -6.868646
vt 14.76378 -2.660422
vt 14.76378 0.7245405
vt 19.68505 -2.660415
vt 19.68504 0.7245478
vt 19.68504 7.874016
vt -19.68504 7.874016
vt 19.68504 15.74803
vt -19.68504 15.74803
vt 16.56335 17.05687
vt -16.56335 17.05687
vt 13.3554 18.13716
vt -13.3554 18.13716
vt 10.07789 18.98327
vt -10.07789 18.98327
vt 6.747899 19.59081
vt -6.747899 19.59081
vt 3.382758 19.9566
vt -3.382758 19.9566
vt -3.957923E-08 20.07874
vt 19.68504 15.74803
vt -19.68504 15.74803
vt 16.56335 17.05687
vt -16.56335 17.05687
vt -13.3554 18.13715
vt 13.3554 18.13715
vt -6.747899 19.59081
vt 6.747898 19.59081
vt -3.382758 19.9566
vt 3.382758 19.9566
vt -1.293404E-07 20.07874
vt 14.76378 15.74803
vt 14.76378 7.874016
vt 14.76378 14.56693
vt -14.76378 7.874016
vt -14.76378 15.74803
vt -14.76378 14.56693
vt -14.76378 -6.868646
vt -14.76378 -10.25361
vt -19.68504 -6.868645
vt -19.68504 -10.25361
vt -14.76378 -3.122146
vt -14.76378 -6.507109
vt -19.68504 -3.122144
vt -19.68504 -6.507107
vt 14.76378 -12.06481
vt 14.76378 -8.679848
vt 19.68504 -12.06481
vt 19.68504 -8.679848
vt 19.68504 -3.122146
vt 19.68504 -6.507108
vt 14.76378 -3.122147
vt 14.76378 -6.50711
vt -19.68504 -2.660419
vt -19.68504 0.7245435
vt -14.76378 -2.660425
vt -14.76378 0.7245373
vt -19.68504 -4.591319
vt -19.68504 -1.206356
vt -14.76378 -4.591321
vt -14.76378 -1.206358
vt -19.68504 -5.012857
vt -14.76378 -8.39782
vt -14.76378 -5.012858
vt 19.68504 -5.012857
vt 19.68504 -8.39782
vt 14.76378 -5.012858
vt 14.76378 -8.39782
vt 19.68504 -1.206357
vt 19.68504 -4.591319
vt 14.76378 -1.206359
vt 14.76378 -4.591321
vt 19.68504 -8.679848
vt 19.68504 -12.06481
vt 14.76378 -8.679849
vt 19.68504 0.7245433
vt 19.68504 -2.660419
vt 14.76378 0.7245371
vt 14.76378 -2.660425
vt -19.68504 -12.06481
vt -14.76378 -12.06481
vt -14.76378 -8.679848
vt -19.68504 -10.25361
vt -19.68504 -6.868646
vt -14.76378 -10.25361
vt -14.76378 -6.868646
vt 19.68504 -10.25361
vt 14.76378 -6.868647
vt 14.76378 -10.25361
vt -19.68504 -6.507108
vt -19.68504 -3.122145
vt -14.76378 -6.507109
vt -14.76378 -3.122147
vt 19.68504 19.68504
vt 19.68504 -19.68504
vt -19.68504 19.68504
vt -19.68504 -19.68504
vt 19.68504 0
vt -19.68504 0
vt -19.68504 14.76378
vt 19.68504 14.76378
vt -19.68504 -14.76378
vt 19.68504 -14.76378
vt 14.76378 0.6819193
vt 14.76378 -2.703043
vt -14.76378 0.6818814
vt -14.76378 -2.703081
vt -14.76378 -8.693052
vt -14.76378 -5.30809
vt 14.76378 -8.693058
vt 14.76378 -5.308095
vt -14.76378 -6.719094
vt -14.76378 -3.334132
vt 14.76378 -6.719102
vt 14.76378 -3.334139
vt -14.76378 -4.718956
vt -14.76378 -1.333993
vt 14.76378 -4.718968
vt 14.76378 -1.334005
vt 14.76378 -7.245587
vt 14.76378 -10.63055
vt -14.76378 -7.245591
vt -14.76378 -10.63055
vt -14.76378 -12.52149
vt -14.76378 -9.466878
vt 14.76378 -12.52149
vt 14.76378 -9.46688
vt -14.76378 -9.136535
vt 14.76378 -9.136538
vt -14.76378 -2.703044
vt -14.76378 0.6819189
vt 14.76378 -2.703082
vt 14.76378 0.6818811
vt 14.76378 -3.334131
vt 14.76378 -6.719094
vt -14.76378 -3.334139
vt -14.76378 -6.719102
vt 14.76378 -5.30809
vt 14.76378 -8.693052
vt -14.76378 -5.308095
vt -14.76378 -8.693058
vt 14.76378 -9.136535
vt 14.76378 -9.466882
vt -14.76378 -9.136538
vt -14.76378 -9.466885
vt 14.76378 -12.52149
vt -14.76378 -12.5215
vt 14.76378 -1.333992
vt 14.76378 -4.718955
vt -14.76378 -1.334005
vt -14.76378 -4.718967
vt 19.68504 14.56693
vt 16.86801 15.74803
vt 16.56335 15.87576
vt 16.56335 17.05687
vt 13.3554 16.95605
vt 10.07789 17.80217
vt 6.747899 18.4097
vt 3.382758 18.7755
vt 1.748879E-07 18.89764
vt -3.382758 18.7755
vt -6.747898 18.4097
vt -13.3554 18.13715
vt -10.07789 17.80217
vt -16.56335 17.05687
vt -13.3554 16.95605
vt -16.56335 15.87576
vt -16.86801 15.74803
vt -19.68504 14.56693
vt 6.747899 19.59081
vt -6.747898 19.59081
vt 3.382758 19.9566
vt -3.382758 19.9566
vt 1.748879E-07 20.07874
vt 16.86801 15.74803
vt 16.56335 15.87576
vt 13.3554 16.95605
vt 6.747898 18.4097
vt 10.07789 18.98327
vt 3.382758 18.7755
vt -1.676721E-07 18.89764
vt -10.07789 18.98327
vt 8.512673E-08 20.07874
vt -3.382758 18.7755
vt -6.747899 18.4097
vt -13.3554 16.95605
vt -16.56335 15.87576
vt -16.86801 15.74803
vt -14.76378 -10.63055
vt -14.76378 -7.245587
vt 14.76378 -10.63055
vt 14.76378 -7.245592

usemtl grass

f 3/3/1 2/2/2 1/1/1
f 2/2/2 3/3/1 4/4/2
f 7/7/3 6/6/4 5/5/3
f 6/6/4 7/7/3 8/8/4
f 11/11/5 10/10/6 9/9/5
f 10/10/6 11/11/5 12/12/6
f 14/15/7 1/14/1 13/13/7
f 1/14/1 14/15/7 3/16/1
f 17/19/8 16/18/9 15/17/8
f 16/18/9 17/19/8 18/20/9
f 20/23/10 15/22/8 19/21/10
f 15/22/8 20/23/10 17/24/8
f 18/27/9 21/26/11 16/25/9
f 21/26/11 18/27/9 22/28/11
f 24/31/12 19/30/10 23/29/12
f 19/30/10 24/31/12 20/32/10
f 22/35/11 13/34/7 21/33/11
f 13/34/7 22/35/11 14/36/7
f 27/39/13 26/38/13 25/37/13
f 26/38/13 27/39/13 28/40/13
f 28/40/13 27/39/13 29/41/13
f 28/40/13 29/41/13 30/42/13
f 30/42/13 29/41/13 31/43/13
f 30/42/13 31/43/13 32/44/13
f 32/44/13 31/43/13 33/45/13
f 32/44/13 33/45/13 34/46/13
f 34/46/13 33/45/13 35/47/13
f 34/46/13 35/47/13 36/48/13
f 36/48/13 35/47/13 37/49/13
f 36/48/13 37/49/13 38/50/13
f 38/50/13 37/49/13 39/51/13
f 8/52/14 41/38/14 40/37/14
f 41/38/14 8/52/14 42/53/14
f 42/53/14 8/52/14 7/54/14
f 42/53/14 7/54/14 24/55/14
f 24/55/14 7/54/14 20/56/14
f 20/56/14 7/54/14 12/57/14
f 20/56/14 12/57/14 17/46/14
f 17/46/14 12/57/14 11/45/14
f 17/46/14 11/45/14 18/58/14
f 18/58/14 11/45/14 4/59/14
f 18/58/14 4/59/14 22/60/14
f 22/60/14 4/59/14 3/61/14
f 22/60/14 3/61/14 14/62/14
f 43/63/15 41/37/15 42/39/15
f 41/37/15 43/63/15 44/64/15
f 44/64/15 43/63/15 45/65/15
f 46/66/16 8/40/16 40/38/16
f 8/40/16 46/66/16 6/67/16
f 6/67/16 46/66/16 47/68/16
f 12/71/6 5/70/3 10/69/6
f 5/70/3 12/71/6 7/72/3
f 4/75/2 9/74/5 2/73/2
f 9/74/5 4/75/2 11/76/5
f 26/37/16 49/65/16 48/64/16
f 49/65/16 26/37/16 50/63/16
f 50/63/16 26/37/16 28/39/16
f 27/40/15 52/68/15 51/67/15
f 52/68/15 27/40/15 53/66/15
f 53/66/15 27/40/15 25/38/15
f 42/79/17 23/78/12 43/77/17
f 23/78/12 42/79/17 24/80/12
f 54/83/2 34/82/5 36/81/2
f 34/82/5 54/83/2 55/84/5
f 56/87/11 39/86/7 37/85/11
f 39/86/7 56/87/11 57/88/7
f 58/91/9 37/90/11 35/89/9
f 37/90/11 58/91/9 56/92/11
f 59/94/10 33/93/8 31/12/10
f 33/93/8 59/94/10 60/95/8
f 55/98/5 32/97/6 34/96/5
f 32/97/6 55/98/5 61/99/6
f 62/102/1 36/101/2 38/100/1
f 36/101/2 62/102/1 54/103/2
f 63/106/3 28/105/4 30/104/18
f 28/105/4 63/106/3 50/77/4
f 57/109/7 38/108/1 39/107/7
f 38/108/1 57/109/7 62/110/1
f 51/112/17 29/7/12 27/111/17
f 29/7/12 51/112/17 64/113/12
f 64/116/12 31/115/10 29/114/12
f 31/115/10 64/116/12 59/117/10
f 61/119/6 30/118/18 32/32/6
f 30/118/18 61/119/6 63/120/3
f 60/123/8 35/122/9 33/121/8
f 35/122/9 60/123/8 58/124/9

usemtl dirt

f 67/127/19 66/126/19 65/125/19
f 66/126/19 67/127/19 68/128/19
f 25/37/13 67/130/13 65/129/13
f 67/130/13 25/37/13 26/38/13
f 45/133/7 49/132/7 52/131/7
f 49/132/7 45/133/7 47/134/7
f 44/64/15 66/129/15 41/37/15
f 66/129/15 44/64/15 65/130/15
f 65/130/15 44/64/15 53/66/15
f 65/130/15 53/66/15 25/38/15
f 44/64/15 52/68/15 53/66/15
f 52/68/15 44/64/15 45/65/15
f 40/37/14 66/130/14 68/129/14
f 66/130/14 40/37/14 41/38/14
f 67/129/16 40/38/16 68/130/16
f 40/38/16 67/129/16 46/66/16
f 46/66/16 67/129/16 48/64/16
f 48/64/16 67/129/16 26/37/16
f 48/64/16 47/68/16 46/66/16
f 47/68/16 48/64/16 49/65/16
f 53/131/7 26/125/7 25/127/7
f 26/125/7 53/131/7 44/133/7
f 26/125/7 44/133/7 41/128/7
f 26/125/7 41/128/7 40/126/7
f 26/125/7 40/126/7 48/132/7
f 48/132/7 40/126/7 46/134/7
f 71/137/7 70/136/1 69/135/7
f 70/136/1 71/137/7 72/138/1
f 75/141/10 74/140/8 73/139/10
f 74/140/8 75/141/10 76/142/8
f 76/145/8 77/144/9 74/143/8
f 77/144/9 76/145/8 78/146/9
f 78/149/9 79/148/11 77/147/9
f 79/148/11 78/149/9 80/150/11
f 83/153/6 82/152/18 81/151/6
f 82/152/18 83/153/6 84/154/18
f 45/157/20 85/156/20 52/155/20
f 85/156/20 45/157/20 86/158/20
f 86/158/20 87/159/12 85/156/20
f 87/159/12 86/158/20 88/160/21
f 80/163/11 69/162/7 79/161/11
f 69/162/7 80/163/11 71/164/7
f 91/167/2 90/166/5 89/165/2
f 90/166/5 91/167/2 92/168/5
f 92/171/5 81/170/6 90/169/5
f 81/170/6 92/171/5 83/172/6
f 84/175/18 93/174/22 82/173/18
f 93/174/22 84/175/18 94/176/22
f 94/176/22 49/177/23 93/174/22
f 49/177/23 94/176/22 47/178/23
f 72/181/1 89/180/2 70/179/1
f 89/180/2 72/181/1 91/182/2
f 43/39/13 86/184/13 45/183/13
f 86/184/13 43/39/13 88/185/13
f 88/185/13 43/39/13 23/186/13
f 88/185/13 23/186/13 75/187/13
f 75/187/13 23/186/13 76/188/13
f 76/188/13 23/186/13 19/57/13
f 76/188/13 19/57/13 78/189/13
f 78/189/13 19/57/13 15/45/13
f 78/189/13 15/45/13 80/190/13
f 80/190/13 15/45/13 71/191/13
f 9/46/13 71/191/13 15/45/13
f 9/46/13 72/192/13 71/191/13
f 9/46/13 91/193/13 72/192/13
f 10/194/13 91/193/13 9/46/13
f 10/194/13 92/195/13 91/193/13
f 5/196/13 92/195/13 10/194/13
f 5/196/13 83/197/13 92/195/13
f 5/196/13 84/198/13 83/197/13
f 5/196/13 94/199/13 84/198/13
f 6/40/13 94/199/13 5/196/13
f 94/199/13 6/40/13 47/200/13
f 9/46/13 15/45/13 16/201/13
f 9/46/13 16/201/13 2/202/13
f 2/202/13 16/201/13 21/203/13
f 2/202/13 21/203/13 1/204/13
f 1/204/13 21/203/13 13/205/13
f 50/52/14 93/206/14 49/183/14
f 93/206/14 50/52/14 63/186/14
f 93/206/14 63/186/14 82/207/14
f 82/207/14 63/186/14 81/208/14
f 81/208/14 63/186/14 90/188/14
f 90/188/14 63/186/14 61/57/14
f 90/188/14 61/57/14 89/209/14
f 89/209/14 61/57/14 55/210/14
f 89/209/14 55/210/14 70/211/14
f 70/211/14 55/210/14 69/212/14
f 69/212/14 55/210/14 60/213/14
f 60/213/14 55/210/14 58/202/14
f 58/202/14 55/210/14 54/201/14
f 58/202/14 54/201/14 56/204/14
f 56/204/14 54/201/14 62/203/14
f 56/204/14 62/203/14 57/214/14
f 60/213/14 79/215/14 69/212/14
f 60/213/14 77/216/14 79/215/14
f 59/56/14 77/216/14 60/213/14
f 59/56/14 74/195/14 77/216/14
f 64/196/14 74/195/14 59/56/14
f 64/196/14 73/217/14 74/195/14
f 64/196/14 87/218/14 73/217/14
f 64/196/14 85/219/14 87/218/14
f 51/53/14 85/219/14 64/196/14
f 85/219/14 51/53/14 52/200/14
f 88/222/21 73/221/10 87/220/12
f 73/221/10 88/222/21 75/223/10

usemtl _defaultMat

f 86/78/13 47/79/13 45/80/13
f 47/78/13 86/79/13 94/80/13
f 94/78/13 86/79/13 88/80/13
f 94/78/13 88/79/13 84/80/13
f 84/78/13 88/79/13 75/80/13
f 84/78/13 75/79/13 83/80/13
f 83/78/13 75/79/13 76/80/13
f 83/78/13 76/79/13 92/80/13
f 92/78/13 76/79/13 78/80/13
f 92/78/13 78/79/13 91/80/13
f 91/78/13 78/79/13 80/80/13
f 91/78/13 80/79/13 72/80/13
f 72/78/13 80/79/13 71/80/13
f 85/97/13 49/98/13 52/99/13
f 49/97/13 85/98/13 93/99/13
f 87/174/13 93/175/13 85/176/13
f 93/174/13 87/175/13 82/176/13
f 82/174/13 87/175/13 73/176/13
f 82/174/13 73/175/13 81/176/13
f 81/174/13 73/175/13 74/176/13
f 81/174/13 74/175/13 90/176/13
f 90/174/13 74/175/13 77/176/13
f 90/174/13 77/175/13 89/176/13
f 89/174/13 77/175/13 79/176/13
f 89/174/13 79/175/13 70/176/13
f 70/174/13 79/175/13 69/176/13

