# Created by Kenney (www.kenney.nl)

mtllib tile_047.mtl

g tile_047

v 0.2950257 0.4 -0.2950257
v 0.2950257 0.21 -0.2950257
v 0.2950257 0.4 0.2950257
v 0.2950257 0.21 0.2950257
v -0.2950257 0.21 -0.2950257
v -0.2950257 0.4 -0.2950257
v -0.2950257 0.21 0.2950257
v -0.2950257 0.4 0.2950257
v 0.1133574 0.2437661 0.2950257
v 0.1133574 0.2937661 0.2950257
v 0.03245567 0.2937661 0.2950257
v -0.007991322 0.342544 0.2950257
v -0.1179913 0.342544 0.2950257
v 0.03245567 0.2437661 0.2950257
v -0.1179913 0.262544 0.2950257
v -0.007991322 0.262544 0.2950257
v 0.3254803 0.21 0.3254803
v 0.3254803 0.21 -0.3254803
v -0.3254803 0.21 -0.3254803
v -0.3254803 0.21 0.3254803
v -0.3254803 9.023893E-17 -0.3254803
v 0.3254803 9.023893E-17 -0.3254803
v 0.3254803 0 0.3254803
v -0.3254803 0 0.3254803

vn 1 0 0
vn -1 0 0
vn 0 1 0
vn 0 0 1
vn 0 0 -1
vn 0 -1 0

vt 11.61519 15.74803
vt 11.61519 8.267716
vt -11.61519 15.74803
vt -11.61519 8.267716
vt -11.61519 -11.61519
vt -11.61519 11.61519
vt 11.61519 -11.61519
vt 11.61519 11.61519
vt 4.462889 9.597089
vt 4.462889 11.56559
vt 1.277782 11.56559
vt -0.314619 13.48599
vt -4.645328 13.48599
vt 1.277782 9.597089
vt -4.645328 10.33638
vt -0.314619 10.33638
vt -12.81418 12.81418
vt -12.81418 -12.81418
vt 12.81418 -12.81418
vt 12.81418 12.81418
vt 12.81418 2.664535E-15
vt -12.81418 2.664535E-15
vt 12.81418 8.267716
vt -12.81418 8.267716
vt 12.81418 3.552714E-15
vt -12.81418 3.272654E-29
vt 12.81418 8.881784E-16
vt -12.81418 8.881784E-16
vt -12.81418 3.552714E-15
vt 12.81418 -2.484666E-29

usemtl brick

f 3/3/1 2/2/1 1/1/1
f 2/2/1 3/3/1 4/4/1
f 7/2/2 6/3/2 5/4/2
f 6/3/2 7/2/2 8/1/2
f 6/7/3 3/6/3 1/5/3
f 3/6/3 6/7/3 8/8/3
f 4/2/4 9/9/4 7/4/4
f 9/9/4 4/2/4 3/1/4
f 9/9/4 3/1/4 10/10/4
f 10/10/4 3/1/4 11/11/4
f 11/11/4 3/1/4 12/12/4
f 12/12/4 3/1/4 13/13/4
f 14/14/4 7/4/4 9/9/4
f 15/15/4 7/4/4 14/14/4
f 7/4/4 15/15/4 8/3/4
f 8/3/4 15/15/4 13/13/4
f 8/3/4 13/13/4 3/1/4
f 15/15/4 14/14/4 16/16/4
f 11/11/4 16/16/4 14/14/4
f 16/16/4 11/11/4 12/12/4
f 6/1/5 2/4/5 5/2/5
f 2/4/5 6/1/5 1/3/5

usemtl brickLight

f 18/18/3 2/5/3 17/17/3
f 2/5/3 18/18/3 19/19/3
f 2/5/3 19/19/3 5/7/3
f 5/7/3 19/19/3 7/8/3
f 4/6/3 17/17/3 2/5/3
f 17/17/3 4/6/3 20/20/3
f 20/20/3 4/6/3 7/8/3
f 20/20/3 7/8/3 19/19/3
f 19/23/5 22/22/5 21/21/5
f 22/22/5 19/23/5 18/24/5
f 17/24/1 22/25/1 18/23/1
f 22/25/1 17/24/1 23/26/1
f 17/23/4 24/28/4 23/27/4
f 24/28/4 17/23/4 20/24/4
f 24/30/2 19/24/2 21/29/2
f 19/24/2 24/30/2 20/23/2

usemtl _defaultMat

f 23/20/6 21/8/6 22/19/6
f 21/20/6 23/8/6 24/19/6

usemtl grey

f 10/10/4 14/14/4 9/9/4
f 14/14/4 10/10/4 11/11/4
f 12/12/4 15/15/4 16/16/4
f 15/15/4 12/12/4 13/13/4

