# Created by Kenney (www.kenney.nl)

mtllib tile_112.mtl

g tile_112

v 0.5 0 0.5
v 0.5 0 -0.5
v -0.5 0 0.5
v -0.5 0 -0.5
v -0.5 0.2 -0.5
v 0.5 0.2 -0.5
v 0.5 0.2 0.5
v -0.5 0.2 0.5
v 0.5 0.4 -0.4999999
v 0.5 0.6 0.5
v -0.5 0.4 -0.5
v -0.5 0.4 0.5

vn 0 -1 0
vn 0 0 -1
vn 0 0 1
vn -1 0 0
vn 1 0 0
vn 0 1 0
vn 0 0.9805807 -0.1961161
vn -0.1961161 0.9805807 0

vt 19.68504 19.68504
vt 19.68504 -19.68504
vt -19.68504 19.68504
vt -19.68504 -19.68504
vt 19.68504 0
vt -19.68504 0
vt 19.68504 7.874016
vt -19.68504 7.874016
vt 19.68504 15.74803
vt -19.68504 23.62205
vt -19.68504 15.74803
vt 19.68504 15.74803
vt 19.68504 15.74803
vt -19.68504 15.74803
vt -19.68504 -16.21432
vt -19.68504 23.93543
vt 19.68504 -16.21432
vt 19.68504 23.62205
vt 19.68504 23.93543
vt 19.68504 -16.21433
vt -19.68504 -16.21433

usemtl dirt

f 3/3/1 2/2/1 1/1/1
f 2/2/1 3/3/1 4/4/1
f 5/7/2 2/6/2 4/5/2
f 2/6/2 5/7/2 6/8/2
f 7/7/3 3/6/3 1/5/3
f 3/6/3 7/7/3 8/8/3
f 3/5/4 5/8/4 4/6/4
f 5/8/4 3/5/4 8/7/4
f 7/8/5 2/5/5 6/7/5
f 2/5/5 7/8/5 1/6/5
f 6/4/6 8/1/6 7/3/6
f 8/1/6 6/4/6 5/2/6

usemtl grass

f 9/9/5 7/8/5 6/7/5
f 7/8/5 9/9/5 10/10/5
f 8/7/4 11/11/4 5/8/4
f 11/11/4 8/7/4 12/12/4
f 11/13/2 6/8/2 5/7/2
f 6/8/2 11/13/2 9/14/2
f 11/17/7 10/16/7 9/15/7
f 10/18/3 8/8/3 7/7/3
f 8/8/3 10/18/3 12/11/3
f 11/21/8 12/20/8 10/19/8

