# Created by Kenney (www.kenney.nl)

mtllib tile_033.mtl

g tile_033

v 0.2950257 0.4 -0.2950257
v 0.2950257 0.4 0.2950257
v -0.2950257 0.4 -0.2950257
v -0.2950257 0.4 0.2950257
v 0.3392796 4.511946E-17 -0.3392796
v -0.3392796 4.511946E-17 -0.3392796
v 0.3392796 0 0.3392796
v -0.3392796 0 0.3392796
v 0.06022713 0.3174182 0.2950257
v 0.08631961 0.2923749 0.2950257
v 0.06022713 0.2574182 0.2950257
v 0.1763196 0.2923749 0.2950257
v 0.08631961 0.3423749 0.2950257
v -0.03685492 0.3174182 0.2950257
v 0.2950257 0.21 0.2950257
v -0.2950257 0.21 0.2950257
v 0.1763196 0.3423749 0.2950257
v -0.03685492 0.2574182 0.2950257
v 0.2950257 0.21 -0.2950257
v -0.2950257 0.21 -0.2950257
v 0.1868871 0.09208503 0.3198743
v 0.1868871 0.1507956 0.307502
v 0.1168872 0.1507956 0.307502
v 0.1168872 0.09208503 0.3198743

vn 0 1 0
vn 0 -1 0
vn 0 0 1
vn 1 0 0
vn 0.9785091 0.2062038 0
vn 0 0 -1
vn 0 0.2062038 -0.9785091
vn -1 0 0
vn 0 0.2062038 0.9785091
vn -0.9785091 0.2062038 0

vt -11.61519 -11.61519
vt -11.61519 11.61519
vt 11.61519 -11.61519
vt 11.61519 11.61519
vt 13.35746 -13.35746
vt -13.35746 -13.35746
vt 13.35746 13.35746
vt -13.35746 13.35746
vt 2.371147 12.49678
vt 3.39841 11.51082
vt 2.371147 10.13458
vt 6.941717 11.51082
vt 3.39841 13.47933
vt -1.450981 12.49678
vt 11.61519 8.267716
vt -11.61519 8.267716
vt 11.61519 15.74803
vt 6.941717 13.47933
vt -1.450981 10.13458
vt -11.61519 15.74803
vt 13.35746 -2.75436
vt -13.35746 -2.75436
vt 11.61519 5.69494
vt -11.61519 5.69494
vt 7.357762 0.9506595
vt 7.357762 3.312864
vt 4.601857 3.312864
vt 4.601857 0.9506595

usemtl brick

f 3/3/1 2/2/1 1/1/1
f 2/2/1 3/3/1 4/4/1
f 7/7/2 6/6/2 5/5/2
f 6/6/2 7/7/2 8/8/2
f 11/11/3 10/10/3 9/9/3
f 10/10/3 11/11/3 12/12/3
f 9/9/3 10/10/3 13/13/3
f 9/9/3 13/13/3 14/14/3
f 11/11/3 15/15/3 12/12/3
f 15/15/3 11/11/3 16/16/3
f 12/12/3 15/15/3 2/17/3
f 12/12/3 2/17/3 17/18/3
f 17/18/3 2/17/3 13/13/3
f 18/19/3 16/16/3 11/11/3
f 16/16/3 18/19/3 4/20/3
f 4/20/3 18/19/3 14/14/3
f 4/20/3 14/14/3 13/13/3
f 4/20/3 13/13/3 2/17/3
f 2/20/4 19/15/4 1/17/4
f 19/15/4 2/20/4 15/16/4
f 19/23/5 7/22/5 5/21/5
f 7/22/5 19/23/5 15/24/5
f 3/17/6 19/16/6 20/15/6
f 19/16/6 3/17/6 1/20/6
f 20/23/7 5/22/7 6/21/7
f 5/22/7 20/23/7 19/24/7
f 16/15/8 3/20/8 20/16/8
f 3/20/8 16/15/8 4/17/8
f 7/21/9 21/25/9 8/22/9
f 21/25/9 7/21/9 15/23/9
f 21/25/9 15/23/9 22/26/9
f 22/26/9 15/23/9 23/27/9
f 24/28/9 8/22/9 21/25/9
f 8/22/9 24/28/9 16/24/9
f 16/24/9 24/28/9 23/27/9
f 16/24/9 23/27/9 15/23/9
f 8/21/10 20/24/10 6/22/10
f 20/24/10 8/21/10 16/23/10
f 20/3/1 15/2/1 19/1/1
f 15/2/1 20/3/1 16/4/1

usemtl grey

f 9/9/3 18/19/3 11/11/3
f 18/19/3 9/9/3 14/14/3
f 22/26/9 24/28/9 21/25/9
f 24/28/9 22/26/9 23/27/9
f 17/18/3 10/10/3 12/12/3
f 10/10/3 17/18/3 13/13/3

