# Created by Kenney (www.kenney.nl)

mtllib tile_046.mtl

g tile_046

v 0.335831 1.804779E-16 -0.335831
v -0.335831 1.804779E-16 -0.335831
v 0.335831 0 0.335831
v -0.335831 0 0.335831
v -0.335831 0.1 -0.335831
v 0.335831 0.1 -0.335831
v 0.335831 0.1 0.335831
v -0.335831 0.1 0.335831
v 0.2950257 0.1 -0.2950257
v -0.2950257 0.1 -0.2950257
v -0.2950257 0.1 0.2950257
v 0.2950257 0.1 0.2950257
v 0.2950257 0.4 0.2950257
v -0.2950257 0.4 0.2950257
v -0.2950257 0.4 -0.2950257
v -0.2950257 0.1593529 -0.164123
v -0.2950257 0.2207396 -0.1936221
v -0.2950257 0.1593529 -0.09940164
v -0.2950257 0.1836001 -0.06579728
v -0.2950257 0.1993529 -0.09940164
v -0.2950257 0.2207396 -0.09362207
v -0.2950257 0.2907396 -0.09362207
v -0.2950257 0.1836001 0.01420271
v -0.2950257 0.2436001 0.01420271
v -0.2950257 0.2907396 -0.1936221
v -0.2950257 0.2436001 -0.06579728
v -0.2950257 0.1993529 -0.164123
v 0.2950257 0.4 -0.2950257

vn 0 -1 0
vn 0 0 -1
vn 0 0 1
vn 1 0 0
vn 0 1 0
vn -1 0 0

vt 13.22169 -13.22169
vt -13.22169 -13.22169
vt 13.22169 13.22169
vt -13.22169 13.22169
vt 13.22169 6.217249E-15
vt -13.22169 6.217249E-15
vt 13.22169 3.937008
vt -13.22169 3.937008
vt 13.22169 8.881784E-16
vt -13.22169 8.881784E-16
vt 13.22169 7.105427E-15
vt -13.22169 3.147168E-29
vt -11.61519 -11.61519
vt 11.61519 -11.61519
vt 11.61519 11.61519
vt -11.61519 11.61519
vt -13.22169 7.105427E-15
vt 13.22169 -2.383467E-29
vt 11.61519 3.937008
vt -11.61519 3.937008
vt 11.61519 15.74803
vt -11.61519 15.74803
vt -6.461535 6.273735
vt -7.622916 8.690535
vt -3.91345 6.273735
vt -2.590444 7.228352
vt -3.91345 7.848538
vt -3.685908 8.690535
vt -3.685908 11.44644
vt 0.5591619 7.228352
vt 0.5591619 9.590557
vt -7.622916 11.44644
vt -2.590444 9.590557
vt -6.461535 7.848538

usemtl brickLight

f 3/3/1 2/2/1 1/1/1
f 2/2/1 3/3/1 4/4/1
f 5/7/2 1/6/2 2/5/2
f 1/6/2 5/7/2 6/8/2
f 7/7/3 4/10/3 3/9/3
f 4/10/3 7/7/3 8/8/3
f 7/8/4 1/11/4 6/7/4
f 1/11/4 7/8/4 3/12/4
f 6/2/5 9/13/5 7/4/5
f 9/13/5 6/2/5 5/1/5
f 9/13/5 5/1/5 10/14/5
f 10/14/5 5/1/5 11/15/5
f 12/16/5 7/4/5 9/13/5
f 7/4/5 12/16/5 8/3/5
f 8/3/5 12/16/5 11/15/5
f 8/3/5 11/15/5 5/1/5
f 4/18/6 5/8/6 2/17/6
f 5/8/6 4/18/6 8/7/6

usemtl brick

f 13/21/3 11/20/3 12/19/3
f 11/20/3 13/21/3 14/22/3
f 10/20/6 16/23/6 15/22/6
f 16/23/6 10/20/6 11/19/6
f 15/22/6 16/23/6 17/24/6
f 16/23/6 11/19/6 18/25/6
f 18/25/6 11/19/6 19/26/6
f 18/25/6 19/26/6 20/27/6
f 20/27/6 19/26/6 21/28/6
f 21/28/6 19/26/6 22/29/6
f 19/26/6 11/19/6 23/30/6
f 23/30/6 11/19/6 24/31/6
f 25/32/6 15/22/6 17/24/6
f 15/22/6 25/32/6 14/21/6
f 14/21/6 25/32/6 22/29/6
f 14/21/6 24/31/6 11/19/6
f 14/21/6 22/29/6 26/33/6
f 26/33/6 22/29/6 19/26/6
f 14/21/6 26/33/6 24/31/6
f 17/24/6 27/34/6 21/28/6
f 27/34/6 17/24/6 16/23/6
f 21/28/6 27/34/6 20/27/6
f 15/21/2 9/20/2 10/19/2
f 9/20/2 15/21/2 28/22/2
f 15/14/5 13/16/5 28/13/5
f 13/16/5 15/14/5 14/15/5
f 13/22/4 9/19/4 28/21/4
f 9/19/4 13/22/4 12/20/4

usemtl grey

f 23/30/6 26/33/6 19/26/6
f 26/33/6 23/30/6 24/31/6
f 21/28/6 25/32/6 17/24/6
f 25/32/6 21/28/6 22/29/6
f 18/25/6 27/34/6 16/23/6
f 27/34/6 18/25/6 20/27/6

