# Created by Kenney (www.kenney.nl)

mtllib tile_024.mtl

g tile_024

v -0.04839105 0.4 0.2051731
v -0.04839105 0.4 0.2950257
v -0.2051731 0.4 0.2051731
v -0.2051731 0.4 0.2950257
v -0.2950257 0.4 0.2051731
v -0.2051731 0.4 0.04839105
v -0.2950257 0.4 0.04839105
v 0.2950257 0.48 -0.04839105
v 0.2950257 0.4 -0.04839105
v 0.2950257 0.48 0.04839105
v 0.2950257 0.4 0.04839105
v 0.2950257 0.27 0.2950257
v 0.2950257 0.4 -0.2051731
v 0.2950257 0.27 -0.2950257
v 0.2950257 0.48 -0.2051731
v 0.2950257 0.48 -0.2950257
v 0.2950257 0.4 0.2051731
v 0.2950257 0.48 0.2950257
v 0.2950257 0.48 0.2051731
v 0.2051731 0.4 0.04839105
v 0.2051731 0.4 0.2051731
v 0.2051731 0.4 0.2950257
v 0.04839105 0.4 0.2051731
v 0.04839105 0.4 0.2950257
v -0.04839105 0.4 -0.2950257
v -0.04839105 0.4 -0.2051731
v -0.2051731 0.4 -0.2950257
v -0.2051731 0.4 -0.2051731
v -0.2051731 0.4 -0.04839105
v -0.2950257 0.4 -0.2051731
v -0.2950257 0.4 -0.04839105
v 0.04839105 0.48 -0.2950257
v 0.04839105 0.48 -0.2051731
v -0.04839105 0.48 -0.2950257
v -0.04839105 0.48 -0.2051731
v 0.04839105 0.4 -0.2950257
v 0.04839105 0.4 -0.2051731
v -0.2051731 0.48 -0.2051731
v -0.2950257 0.48 -0.2051731
v -0.2051731 0.48 -0.2950257
v -0.2950257 0.48 -0.2950257
v 0.2051731 0.48 0.04839105
v 0.2051731 0.48 0.2051731
v 0.2051731 0.48 0.2950257
v 0.2051731 0.48 -0.04839105
v 0.04839105 0.48 0.2051731
v 0.04839105 0.48 0.2950257
v -0.04839105 0.48 0.2051731
v -0.04839105 0.48 0.2950257
v 0.2051731 0.48 -0.2950257
v 0.2051731 0.48 -0.2051731
v 0.2051731 0.4 -0.04839105
v 0.2051731 0.4 -0.2950257
v -0.2950257 0.27 -0.2950257
v -0.2051731 0.48 0.2051731
v -0.2051731 0.48 0.2950257
v -0.2950257 0.48 0.2051731
v -0.2950257 0.48 0.2950257
v 0.2051731 0.4 -0.2051731
v -0.2051731 0.48 -0.04839105
v -0.2051731 0.48 0.04839105
v -0.2950257 0.48 -0.04839105
v -0.2950257 0.48 0.04839105
v -0.2950257 0.27 0.2950257
v 0.2051731 0.28 -0.2051731
v 0.2051731 0.28 0.2051731
v -0.2051731 0.28 -0.2051731
v -0.2051731 0.28 0.2051731
v 0.2051731 0.33 -0.2051731
v -0.2051731 0.33 -0.2051731
v 0.2051731 0.33 0.2051731
v -0.2051731 0.33 0.2051731
v -0.2950257 0 0.2950257
v 0.2950257 0 0.2950257
v 0.2950257 4.511946E-17 -0.2950257
v -0.2950257 4.511946E-17 -0.2950257

vn 0 1 0
vn 1 0 0
vn 0 0 1
vn 0 0 -1
vn -1 0 0
vn 0 -1 0

vt 1.905159 8.077683
vt 1.905159 11.61519
vt 8.077683 8.077683
vt 8.077683 11.61519
vt 11.61519 8.077683
vt 8.077683 1.905159
vt 11.61519 1.905159
vt 1.905159 18.89764
vt 1.905159 15.74803
vt -1.905159 18.89764
vt -1.905159 15.74803
vt -11.61519 10.62992
vt 8.077683 15.74803
vt 11.61519 10.62992
vt 8.077683 18.89764
vt 11.61519 18.89764
vt -8.077683 15.74803
vt -11.61519 18.89764
vt -8.077683 18.89764
vt -11.61519 1.905159
vt -11.61519 8.077683
vt -8.077683 1.905159
vt -8.077683 8.077683
vt -8.077683 11.61519
vt -1.905159 8.077683
vt -1.905159 11.61519
vt 1.905159 -11.61519
vt 1.905159 -8.077683
vt 8.077683 -11.61519
vt 8.077683 -8.077683
vt 8.077683 -1.905159
vt 11.61519 -8.077683
vt 11.61519 -1.905159
vt -1.905159 -11.61519
vt -1.905159 -8.077683
vt 11.61519 15.74803
vt 11.61519 -11.61519
vt -11.61519 11.61519
vt -11.61519 -1.905159
vt -8.077683 -1.905159
vt -11.61519 15.74803
vt -11.61519 -11.61519
vt -11.61519 -8.077683
vt -8.077683 -11.61519
vt -8.077683 -8.077683
vt 11.61519 11.61519
vt 8.077683 11.02362
vt -8.077683 11.02362
vt 8.077683 12.99213
vt -8.077683 12.99213
vt -11.61519 0
vt 11.61519 0
vt -11.61519 1.776357E-15
vt 11.61519 1.776357E-15
vt -11.61519 -1.209888E-29
vt 11.61519 3.368596E-30

usemtl brick

f 3/3/1 2/2/1 1/1/1
f 2/2/1 3/3/1 4/4/1
f 6/6/1 5/5/1 3/3/1
f 5/5/1 6/6/1 7/7/1
f 10/10/2 9/9/2 8/8/2
f 11/11/2 9/9/2 10/10/2
f 12/12/2 9/9/2 11/11/2
f 12/12/2 13/13/2 9/9/2
f 14/14/2 13/13/2 12/12/2
f 14/14/2 15/15/2 13/13/2
f 15/15/2 14/14/2 16/16/2
f 12/12/2 11/11/2 17/17/2
f 12/12/2 17/17/2 18/18/2
f 18/18/2 17/17/2 19/19/2
f 20/22/1 17/21/1 11/20/1
f 17/21/1 20/22/1 21/23/1
f 23/25/1 22/24/1 21/23/1
f 22/24/1 23/25/1 24/26/1
f 27/29/1 26/28/1 25/27/1
f 26/28/1 27/29/1 28/30/1
f 30/32/1 29/31/1 28/30/1
f 29/31/1 30/32/1 31/33/1
f 34/27/1 33/35/1 32/34/1
f 33/35/1 34/27/1 35/28/1
f 33/15/2 36/36/2 32/16/2
f 36/36/2 33/15/2 37/13/2
f 40/29/1 39/32/1 38/30/1
f 39/32/1 40/29/1 41/37/1
f 10/16/3 20/13/3 11/36/3
f 20/13/3 10/16/3 42/15/3
f 43/23/1 18/38/1 19/21/1
f 18/38/1 43/23/1 44/24/1
f 45/40/1 10/20/1 8/39/1
f 10/20/1 45/40/1 42/22/1
f 48/1/1 47/26/1 46/25/1
f 47/26/1 48/1/1 49/2/1
f 47/18/2 23/17/2 46/19/2
f 23/17/2 47/18/2 24/41/2
f 50/44/1 15/43/1 16/42/1
f 15/43/1 50/44/1 51/45/1
f 45/19/4 9/41/4 52/17/4
f 9/41/4 45/19/4 8/18/4
f 25/9/4 53/17/4 27/13/4
f 53/17/4 25/9/4 36/11/4
f 36/11/4 25/9/4 34/8/4
f 36/11/4 34/8/4 32/10/4
f 53/17/4 14/12/4 27/13/4
f 14/12/4 53/17/4 16/18/4
f 16/18/4 53/17/4 50/19/4
f 54/14/4 27/13/4 14/12/4
f 27/13/4 54/14/4 41/16/4
f 27/13/4 41/16/4 40/15/4
f 26/17/5 34/18/5 25/41/5
f 34/18/5 26/17/5 35/19/5
f 2/36/5 48/15/5 1/13/5
f 48/15/5 2/36/5 49/16/5
f 57/5/1 56/4/1 55/3/1
f 56/4/1 57/5/1 58/46/1
f 53/44/1 37/35/1 59/45/1
f 37/35/1 53/44/1 36/34/1
f 59/45/1 9/39/1 13/43/1
f 9/39/1 59/45/1 52/40/1
f 62/33/1 61/6/1 60/31/1
f 61/6/1 62/33/1 63/7/1
f 61/19/3 7/41/3 6/17/3
f 7/41/3 61/19/3 63/18/3
f 62/16/4 29/13/4 31/36/4
f 29/13/4 62/16/4 60/15/4
f 12/14/3 22/13/3 64/12/3
f 22/13/3 12/14/3 18/16/3
f 64/12/3 22/13/3 24/9/3
f 22/13/3 18/16/3 44/15/3
f 2/11/3 64/12/3 24/9/3
f 47/8/3 2/11/3 24/9/3
f 2/11/3 47/8/3 49/10/3
f 4/17/3 64/12/3 2/11/3
f 64/12/3 4/17/3 58/18/3
f 58/18/3 4/17/3 56/19/3
f 54/12/5 30/17/5 41/18/5
f 30/17/5 54/12/5 64/14/5
f 30/17/5 64/14/5 31/11/5
f 31/11/5 64/14/5 7/9/5
f 31/11/5 7/9/5 62/10/5
f 7/9/5 64/14/5 5/13/5
f 5/13/5 64/14/5 57/15/5
f 57/15/5 64/14/5 58/16/5
f 63/8/5 62/10/5 7/9/5
f 39/19/5 41/18/5 30/17/5
f 67/30/1 66/23/1 65/45/1
f 66/23/1 67/30/1 68/3/1
f 69/49/3 67/48/3 65/47/3
f 67/48/3 69/49/3 70/50/3
f 59/13/3 70/50/3 69/49/3
f 70/50/3 59/13/3 28/17/3
f 28/17/3 59/13/3 37/9/3
f 28/17/3 37/9/3 26/11/3
f 33/8/3 26/11/3 37/9/3
f 26/11/3 33/8/3 35/10/3
f 38/19/3 30/41/3 28/17/3
f 30/41/3 38/19/3 39/18/3
f 15/16/3 59/13/3 13/36/3
f 59/13/3 15/16/3 51/15/3
f 66/47/5 69/50/5 65/48/5
f 69/50/5 66/47/5 71/49/5
f 71/49/5 59/17/5 69/50/5
f 59/17/5 71/49/5 52/11/5
f 52/11/5 71/49/5 20/9/5
f 52/11/5 20/9/5 45/10/5
f 20/9/5 71/49/5 21/13/5
f 42/8/5 45/10/5 20/9/5
f 59/17/5 50/18/5 53/41/5
f 50/18/5 59/17/5 51/19/5
f 22/36/5 43/15/5 21/13/5
f 43/15/5 22/36/5 44/16/5
f 72/50/2 67/47/2 70/49/2
f 67/47/2 72/50/2 68/48/2
f 70/49/2 29/9/2 72/50/2
f 29/9/2 70/49/2 28/13/2
f 72/50/2 29/9/2 6/11/2
f 6/11/2 29/9/2 61/10/2
f 61/10/2 29/9/2 60/8/2
f 72/50/2 6/11/2 3/17/2
f 27/36/2 38/15/2 28/13/2
f 38/15/2 27/36/2 40/16/2
f 56/18/2 3/17/2 55/19/2
f 3/17/2 56/18/2 4/41/2
f 72/49/4 66/48/4 68/47/4
f 66/48/4 72/49/4 71/50/4
f 3/13/4 71/50/4 72/49/4
f 71/50/4 3/13/4 23/11/4
f 23/11/4 3/13/4 1/9/4
f 1/9/4 46/10/4 23/11/4
f 46/10/4 1/9/4 48/8/4
f 21/17/4 71/50/4 23/11/4
f 57/16/4 3/13/4 5/36/4
f 3/13/4 57/16/4 55/15/4
f 43/19/4 17/41/4 21/17/4
f 17/41/4 43/19/4 19/18/4
f 14/42/6 12/38/6 54/37/6
f 64/46/6 54/37/6 12/38/6
f 74/52/4 73/51/4 12/14/4
f 64/12/4 12/14/4 73/51/4
f 76/54/3 75/53/3 54/14/3
f 14/12/3 54/14/3 75/53/3
f 14/14/5 75/54/5 12/12/5
f 74/55/5 12/12/5 75/54/5
f 76/53/2 54/12/2 73/56/2
f 64/14/2 73/56/2 54/12/2

usemtl _defaultMat

f 74/46/6 76/42/6 75/37/6
f 76/42/6 74/46/6 73/38/6
f 54/37/1 12/38/1 14/42/1
f 12/38/1 54/37/1 64/46/1

usemtl brickLight

f 75/37/1 76/42/1 74/46/1
f 73/38/1 74/46/1 76/42/1
f 12/14/3 73/51/3 74/52/3
f 73/51/3 12/14/3 64/12/3
f 54/14/4 75/53/4 76/54/4
f 75/53/4 54/14/4 14/12/4
f 12/12/2 75/54/2 14/14/2
f 75/54/2 12/12/2 74/55/2
f 70/30/1 71/23/1 69/45/1
f 71/23/1 70/30/1 72/3/1
f 73/56/5 54/12/5 76/53/5
f 54/12/5 73/56/5 64/14/5

