# Created by Kenney (www.kenney.nl)

mtllib banner-double-high.mtl

g banner-double-high

v 0.3875 0 -0.44375 1 1 1
v 0.3875 1 -0.44375 1 1 1
v 0.3875 0 -0.40625 1 1 1
v 0.3875 1 -0.425 1 1 1
v 0.3875 1 -0.40625 1 1 1
v -0.4625 0 -0.44375 1 1 1
v -0.4625 1 -0.44375 1 1 1
v -0.4625 0 -0.40625 1 1 1
v -0.4625 1 -0.40625 1 1 1
v -0.40625 0 -0.3875 1 1 1
v -0.44375 0 -0.3875 1 1 1
v -0.40625 1 -0.3875 1 1 1
v -0.44375 1 -0.3875 1 1 1
v 0.44375 1 -0.4625 1 1 1
v 0.44375 0 -0.4625 1 1 1
v 0.4625 1 -0.44375 1 1 1
v 0.4625 0 -0.44375 1 1 1
v -0.3875 1 -0.44375 1 1 1
v -0.3875 1 -0.425 1 1 1
v -0.40625 1 -0.4625 1 1 1
v -0.3875 1 -0.40625 1 1 1
v -0.44375 1 -0.4625 1 1 1
v -0.44375 0 -0.4625 1 1 1
v 0.40625 0 -0.4625 1 1 1
v 0.40625 1 -0.4625 1 1 1
v -0.3875 0 -0.40625 1 1 1
v -0.3875 0 -0.44375 1 1 1
v -0.40625 0 -0.4625 1 1 1
v 0.4625 1 -0.40625 1 1 1
v 0.4625 0 -0.40625 1 1 1
v 0.40625 0 -0.3875 1 1 1
v 0.40625 1 -0.3875 1 1 1
v 0.44375 0 -0.3875 1 1 1
v 0.44375 1 -0.3875 1 1 1
v 0.4625 -2.003707E-32 0.44375 1 1 1
v 0.4625 -2.003707E-32 0.40625 1 1 1
v 0.44375 -2.003707E-32 0.4625 1 1 1
v 0.44375 -2.003707E-32 0.3875 1 1 1
v 0.40625 -2.003707E-32 0.4625 1 1 1
v 0.40625 -2.003707E-32 0.3875 1 1 1
v 0.3875 -2.003707E-32 0.44375 1 1 1
v 0.3875 -2.003707E-32 0.40625 1 1 1
v 0.4625 1 0.44375 1 1 1
v 0.44375 1 0.4625 1 1 1
v 0.44375 1 0.3875 1 1 1
v 0.4625 1 0.40625 1 1 1
v 0.40625 1 0.4625 1 1 1
v -0.40625 1 0.3875 1 1 1
v -0.40625 -2.003707E-32 0.3875 1 1 1
v -0.3875 1 0.40625 1 1 1
v -0.3875 -2.003707E-32 0.40625 1 1 1
v -0.40625 -2.003707E-32 0.4625 1 1 1
v -0.44375 -2.003707E-32 0.4625 1 1 1
v -0.40625 1 0.4625 1 1 1
v -0.44375 1 0.4625 1 1 1
v -0.3875 1 0.425 1 1 1
v -0.3875 1 0.44375 1 1 1
v -0.44375 1 0.3875 1 1 1
v -0.4625 1 0.40625 1 1 1
v -0.4625 1 0.44375 1 1 1
v -0.4625 -2.003707E-32 0.44375 1 1 1
v -0.44375 -2.003707E-32 0.3875 1 1 1
v -0.4625 -2.003707E-32 0.40625 1 1 1
v -0.3875 -2.003707E-32 0.44375 1 1 1
v 0.40625 1 0.3875 1 1 1
v 0.3875 1 0.44375 1 1 1
v 0.3875 1 0.40625 1 1 1
v 0.3875 1 0.425 1 1 1
v -0.3875 0.75 -0.425 1 1 1
v 0.3875 0.75 -0.425 1 1 1
v -0.3875 0.75 0.425 1 1 1
v 0.3875 0.75 0.425 1 1 1

vn -0.9238795 0 -0.3826834
vn -0.9238795 0 0.3826834
vn -1 0 0
vn 0.3826834 0 0.9238795
vn -0.3826834 0 0.9238795
vn 0.3826834 0 -0.9238795
vn 0.9238795 0 -0.3826834
vn 0 1 0
vn -0.3826834 0 -0.9238795
vn 0 -1 0
vn 0.9238795 0 0.3826834
vn 1 0 0
vn 0 0 -1
vn 0 0 1

vt 0.96875 0.275
vt 0.96875 0.475
vt 0.34375 0.425
vt 0.34375 0.475

usemtl colormap

f 3/1/2 2/2/1 1/1/1
f 2/2/1 3/1/2 4/2/3
f 4/2/3 3/1/2 5/2/2
f 8/1/2 7/2/1 6/1/1
f 7/2/1 8/1/2 9/2/2
f 12/2/4 11/1/5 10/1/4
f 11/1/5 12/2/4 13/2/5
f 16/2/7 15/1/6 14/2/6
f 15/1/6 16/2/7 17/1/7
f 20/2/8 19/2/8 18/2/8
f 19/2/8 20/2/8 21/2/8
f 21/2/8 20/2/8 12/2/8
f 12/2/8 20/2/8 22/2/8
f 12/2/8 22/2/8 13/2/8
f 13/2/8 22/2/8 7/2/8
f 13/2/8 7/2/8 9/2/8
f 6/1/1 22/2/9 23/1/9
f 22/2/9 6/1/1 7/2/1
f 25/2/9 15/1/6 24/1/9
f 15/1/6 25/2/9 14/2/6
f 10/1/10 27/1/10 26/1/10
f 27/1/10 10/1/10 28/1/10
f 28/1/10 10/1/10 11/1/10
f 28/1/10 11/1/10 23/1/10
f 23/1/10 11/1/10 8/1/10
f 23/1/10 8/1/10 6/1/10
f 29/2/11 17/1/7 16/2/7
f 17/1/7 29/2/11 30/1/11
f 11/1/5 9/2/2 8/1/2
f 9/2/2 11/1/5 13/2/5
f 19/2/12 27/1/7 18/2/7
f 27/1/7 19/2/12 26/1/11
f 26/1/11 19/2/12 21/2/11
f 31/1/5 5/2/2 3/1/2
f 5/2/2 31/1/5 32/2/5
f 34/2/4 31/1/5 33/1/4
f 31/1/5 34/2/4 32/2/5
f 33/1/10 17/1/10 30/1/10
f 17/1/10 33/1/10 15/1/10
f 15/1/10 33/1/10 31/1/10
f 15/1/10 31/1/10 24/1/10
f 24/1/10 31/1/10 3/1/10
f 24/1/10 3/1/10 1/1/10
f 34/2/4 30/1/11 29/2/11
f 30/1/11 34/2/4 33/1/4
f 18/2/7 28/1/6 20/2/6
f 28/1/6 18/2/7 27/1/7
f 12/2/4 26/1/11 21/2/11
f 26/1/11 12/2/4 10/1/4
f 14/2/8 29/2/8 16/2/8
f 29/2/8 14/2/8 34/2/8
f 34/2/8 14/2/8 25/2/8
f 34/2/8 25/2/8 32/2/8
f 32/2/8 25/2/8 2/2/8
f 32/2/8 2/2/8 5/2/8
f 5/2/8 2/2/8 4/2/8
f 22/2/9 28/1/6 23/1/9
f 28/1/6 22/2/9 20/2/6
f 1/1/1 25/2/9 24/1/9
f 25/2/9 1/1/1 2/2/1
f 37/1/10 36/1/10 35/1/10
f 36/1/10 37/1/10 38/1/10
f 38/1/10 37/1/10 39/1/10
f 38/1/10 39/1/10 40/1/10
f 40/1/10 39/1/10 41/1/10
f 40/1/10 41/1/10 42/1/10
f 44/2/4 35/1/11 43/2/11
f 35/1/11 44/2/4 37/1/4
f 46/2/7 38/1/6 45/2/6
f 38/1/6 46/2/7 36/1/7
f 44/2/4 39/1/5 37/1/4
f 39/1/5 44/2/4 47/2/5
f 50/2/7 49/1/6 48/2/6
f 49/1/6 50/2/7 51/1/7
f 54/2/4 53/1/5 52/1/4
f 53/1/5 54/2/4 55/2/5
f 48/2/8 56/2/8 50/2/8
f 56/2/8 48/2/8 57/2/8
f 57/2/8 48/2/8 54/2/8
f 54/2/8 48/2/8 58/2/8
f 54/2/8 58/2/8 55/2/8
f 55/2/8 58/2/8 59/2/8
f 55/2/8 59/2/8 60/2/8
f 53/1/5 60/2/2 61/1/2
f 60/2/2 53/1/5 55/2/5
f 63/1/1 58/2/9 62/1/9
f 58/2/9 63/1/1 59/2/1
f 56/2/12 51/1/7 50/2/7
f 51/1/7 56/2/12 64/1/11
f 64/1/11 56/2/12 57/2/11
f 65/2/9 38/1/6 40/1/9
f 38/1/6 65/2/9 45/2/6
f 52/1/10 51/1/10 64/1/10
f 51/1/10 52/1/10 49/1/10
f 49/1/10 52/1/10 53/1/10
f 49/1/10 53/1/10 62/1/10
f 62/1/10 53/1/10 61/1/10
f 62/1/10 61/1/10 63/1/10
f 43/2/11 36/1/7 46/2/7
f 36/1/7 43/2/11 35/1/11
f 39/1/5 66/2/2 41/1/2
f 66/2/2 39/1/5 47/2/5
f 45/2/8 43/2/8 46/2/8
f 43/2/8 45/2/8 44/2/8
f 44/2/8 45/2/8 65/2/8
f 44/2/8 65/2/8 47/2/8
f 47/2/8 65/2/8 67/2/8
f 47/2/8 67/2/8 66/2/8
f 66/2/8 67/2/8 68/2/8
f 42/1/1 65/2/9 40/1/9
f 65/2/9 42/1/1 67/2/1
f 58/2/9 49/1/6 62/1/9
f 49/1/6 58/2/9 48/2/6
f 54/2/4 64/1/11 57/2/11
f 64/1/11 54/2/4 52/1/4
f 41/1/2 67/2/1 42/1/1
f 67/2/1 41/1/2 68/2/3
f 68/2/3 41/1/2 66/2/2
f 61/1/2 59/2/1 63/1/1
f 59/2/1 61/1/2 60/2/2
f 19/4/13 70/3/13 69/3/13
f 70/3/13 19/4/13 4/4/13
f 69/3/14 70/3/14 19/4/14
f 4/4/14 19/4/14 70/3/14
f 56/4/13 72/3/13 71/3/13
f 72/3/13 56/4/13 68/4/13
f 71/3/14 72/3/14 56/4/14
f 68/4/14 56/4/14 72/3/14

g banner-double-high




usemtl colormap

f 3/1/2 2/2/1 1/1/1
f 2/2/1 3/1/2 4/2/3
f 4/2/3 3/1/2 5/2/2
f 8/1/2 7/2/1 6/1/1
f 7/2/1 8/1/2 9/2/2
f 12/2/4 11/1/5 10/1/4
f 11/1/5 12/2/4 13/2/5
f 16/2/7 15/1/6 14/2/6
f 15/1/6 16/2/7 17/1/7
f 20/2/8 19/2/8 18/2/8
f 19/2/8 20/2/8 21/2/8
f 21/2/8 20/2/8 12/2/8
f 12/2/8 20/2/8 22/2/8
f 12/2/8 22/2/8 13/2/8
f 13/2/8 22/2/8 7/2/8
f 13/2/8 7/2/8 9/2/8
f 6/1/1 22/2/9 23/1/9
f 22/2/9 6/1/1 7/2/1
f 25/2/9 15/1/6 24/1/9
f 15/1/6 25/2/9 14/2/6
f 10/1/10 27/1/10 26/1/10
f 27/1/10 10/1/10 28/1/10
f 28/1/10 10/1/10 11/1/10
f 28/1/10 11/1/10 23/1/10
f 23/1/10 11/1/10 8/1/10
f 23/1/10 8/1/10 6/1/10
f 29/2/11 17/1/7 16/2/7
f 17/1/7 29/2/11 30/1/11
f 11/1/5 9/2/2 8/1/2
f 9/2/2 11/1/5 13/2/5
f 19/2/12 27/1/7 18/2/7
f 27/1/7 19/2/12 26/1/11
f 26/1/11 19/2/12 21/2/11
f 31/1/5 5/2/2 3/1/2
f 5/2/2 31/1/5 32/2/5
f 34/2/4 31/1/5 33/1/4
f 31/1/5 34/2/4 32/2/5
f 33/1/10 17/1/10 30/1/10
f 17/1/10 33/1/10 15/1/10
f 15/1/10 33/1/10 31/1/10
f 15/1/10 31/1/10 24/1/10
f 24/1/10 31/1/10 3/1/10
f 24/1/10 3/1/10 1/1/10
f 34/2/4 30/1/11 29/2/11
f 30/1/11 34/2/4 33/1/4
f 18/2/7 28/1/6 20/2/6
f 28/1/6 18/2/7 27/1/7
f 12/2/4 26/1/11 21/2/11
f 26/1/11 12/2/4 10/1/4
f 14/2/8 29/2/8 16/2/8
f 29/2/8 14/2/8 34/2/8
f 34/2/8 14/2/8 25/2/8
f 34/2/8 25/2/8 32/2/8
f 32/2/8 25/2/8 2/2/8
f 32/2/8 2/2/8 5/2/8
f 5/2/8 2/2/8 4/2/8
f 22/2/9 28/1/6 23/1/9
f 28/1/6 22/2/9 20/2/6
f 1/1/1 25/2/9 24/1/9
f 25/2/9 1/1/1 2/2/1
f 37/1/10 36/1/10 35/1/10
f 36/1/10 37/1/10 38/1/10
f 38/1/10 37/1/10 39/1/10
f 38/1/10 39/1/10 40/1/10
f 40/1/10 39/1/10 41/1/10
f 40/1/10 41/1/10 42/1/10
f 44/2/4 35/1/11 43/2/11
f 35/1/11 44/2/4 37/1/4
f 46/2/7 38/1/6 45/2/6
f 38/1/6 46/2/7 36/1/7
f 44/2/4 39/1/5 37/1/4
f 39/1/5 44/2/4 47/2/5
f 50/2/7 49/1/6 48/2/6
f 49/1/6 50/2/7 51/1/7
f 54/2/4 53/1/5 52/1/4
f 53/1/5 54/2/4 55/2/5
f 48/2/8 56/2/8 50/2/8
f 56/2/8 48/2/8 57/2/8
f 57/2/8 48/2/8 54/2/8
f 54/2/8 48/2/8 58/2/8
f 54/2/8 58/2/8 55/2/8
f 55/2/8 58/2/8 59/2/8
f 55/2/8 59/2/8 60/2/8
f 53/1/5 60/2/2 61/1/2
f 60/2/2 53/1/5 55/2/5
f 63/1/1 58/2/9 62/1/9
f 58/2/9 63/1/1 59/2/1
f 56/2/12 51/1/7 50/2/7
f 51/1/7 56/2/12 64/1/11
f 64/1/11 56/2/12 57/2/11
f 65/2/9 38/1/6 40/1/9
f 38/1/6 65/2/9 45/2/6
f 52/1/10 51/1/10 64/1/10
f 51/1/10 52/1/10 49/1/10
f 49/1/10 52/1/10 53/1/10
f 49/1/10 53/1/10 62/1/10
f 62/1/10 53/1/10 61/1/10
f 62/1/10 61/1/10 63/1/10
f 43/2/11 36/1/7 46/2/7
f 36/1/7 43/2/11 35/1/11
f 39/1/5 66/2/2 41/1/2
f 66/2/2 39/1/5 47/2/5
f 45/2/8 43/2/8 46/2/8
f 43/2/8 45/2/8 44/2/8
f 44/2/8 45/2/8 65/2/8
f 44/2/8 65/2/8 47/2/8
f 47/2/8 65/2/8 67/2/8
f 47/2/8 67/2/8 66/2/8
f 66/2/8 67/2/8 68/2/8
f 42/1/1 65/2/9 40/1/9
f 65/2/9 42/1/1 67/2/1
f 58/2/9 49/1/6 62/1/9
f 49/1/6 58/2/9 48/2/6
f 54/2/4 64/1/11 57/2/11
f 64/1/11 54/2/4 52/1/4
f 41/1/2 67/2/1 42/1/1
f 67/2/1 41/1/2 68/2/3
f 68/2/3 41/1/2 66/2/2
f 61/1/2 59/2/1 63/1/1
f 59/2/1 61/1/2 60/2/2
f 19/4/13 70/3/13 69/3/13
f 70/3/13 19/4/13 4/4/13
f 69/3/14 70/3/14 19/4/14
f 4/4/14 19/4/14 70/3/14
f 56/4/13 72/3/13 71/3/13
f 72/3/13 56/4/13 68/4/13
f 71/3/14 72/3/14 56/4/14
f 68/4/14 56/4/14 72/3/14

