# Created by Kenney (www.kenney.nl)

mtllib corner.mtl

g corner

v 0.4670616 0.5 -0.2164749 1 1 1
v 0.4670616 0 -0.2164749 1 1 1
v 0.4264169 0.5 -0.09673934 1 1 1
v 0.4264169 0 -0.09673934 1 1 1
v 0.3704912 0.5 0.01666667 1 1 1
v 0.3704912 0 0.01666667 1 1 1
v 0.3002416 0.5 0.1218027 1 1 1
v 0.3002416 0 0.1218027 1 1 1
v 0.2168699 0.5 0.2168699 1 1 1
v 0.2168699 0 0.2168699 1 1 1
v -0.35 0.5 -0.5 1 1 1
v -0.5 0.5 -0.5 1 1 1
v -0.2875 0.3125 -0.5 1 1 1
v -0.5 0 -0.5 1 1 1
v 0.5 0 -0.5 1 1 1
v -0.1 0.25 -0.5 1 1 1
v 0.1 0.25 -0.5 1 1 1
v 0.2875 0.3125 -0.5 1 1 1
v 0.5 0.5 -0.5 1 1 1
v 0.35 0.5 -0.5 1 1 1
v 0.01666667 0 0.3704912 1 1 1
v -0.09673934 0 0.4264169 1 1 1
v 0.01666667 0.5 0.3704912 1 1 1
v -0.09673934 0.5 0.4264169 1 1 1
v 0.5 0.5 -0.4666667 1 1 1
v 0.49173 0.5 -0.3404914 1 1 1
v 0.35 0.5 -0.4715772 1 1 1
v 0.3426942 0.5 -0.3601123 1 1 1
v 0.3218619 0.5 -0.2553811 1 1 1
v 0.2875376 0.5 -0.154265 1 1 1
v 0.2403087 0.5 -0.05849426 1 1 1
v 0.1809832 0.5 0.03029257 1 1 1
v 0.1218027 0.5 0.3002416 1 1 1
v 0.1105763 0.5 0.1105763 1 1 1
v 0.03029257 0.5 0.1809832 1 1 1
v -0.05849426 0.5 0.2403087 1 1 1
v -0.154265 0.5 0.2875376 1 1 1
v -0.2164749 0.5 0.4670616 1 1 1
v -0.2553811 0.5 0.3218619 1 1 1
v -0.3404914 0.5 0.49173 1 1 1
v -0.3601123 0.5 0.3426942 1 1 1
v -0.4666667 0.5 0.5 1 1 1
v -0.4715772 0.5 0.35 1 1 1
v -0.5 0.5 0.5 1 1 1
v -0.5 0.5 0.35 1 1 1
v -0.3404914 0 0.49173 1 1 1
v -0.4666667 0 0.5 1 1 1
v -0.5 0 0.5 1 1 1
v 0.1218027 0 0.3002416 1 1 1
v -0.35 0.5 -0.4944928 1 1 1
v -0.3528063 0.5 -0.4516766 1 1 1
v -0.355737 0.5 -0.4369431 1 1 1
v -0.3605657 0.5 -0.4227182 1 1 1
v -0.3672099 0.5 -0.4092452 1 1 1
v -0.3755557 0.5 -0.3967548 1 1 1
v -0.3854605 0.5 -0.3854605 1 1 1
v -0.3967548 0.5 -0.3755557 1 1 1
v -0.4092452 0.5 -0.3672099 1 1 1
v -0.4227182 0.5 -0.3605657 1 1 1
v -0.4369431 0.5 -0.355737 1 1 1
v -0.4516766 0.5 -0.3528063 1 1 1
v -0.4944928 0.5 -0.35 1 1 1
v -0.5 0.5 -0.35 1 1 1
v -0.5 0 -0.4994033 1 1 1
v -0.5 0 -0.4710551 1 1 1
v -0.5 0.3125 -0.2875 1 1 1
v -0.5 0.25 -0.1 1 1 1
v -0.5 0.25 0.1 1 1 1
v -0.5 0.3125 0.2875 1 1 1
v 0.5 0 -0.4666667 1 1 1
v 0.49173 0 -0.3404914 1 1 1
v -0.2164749 0 0.4670616 1 1 1
v 0.2875 0.3125 -0.4736232 1 1 1
v 0.1 0.25 -0.4797613 1 1 1
v -0.3411715 0.3125 -0.3411715 1 1 1
v -0.3586255 0.3125 -0.3258647 1 1 1
v -0.1 0.25 -0.4863086 1 1 1
v -0.2875 0.3125 -0.4924467 1 1 1
v -0.2442379 0.25 -0.1767918 1 1 1
v -0.283977 0.25 -0.1502389 1 1 1
v -0.3779282 0.3125 -0.3129671 1 1 1
v 0.261362 0.3125 -0.271592 1 1 1
v 0.2296712 0.3125 -0.1782341 1 1 1
v -0.3987492 0.3125 -0.3026994 1 1 1
v -0.4207323 0.3125 -0.2952371 1 1 1
v -0.3026994 0.3125 -0.3987492 1 1 1
v -0.3129671 0.3125 -0.3779282 1 1 1
v -0.4736232 0.3125 0.2875 1 1 1
v -0.4797613 0.25 0.1 1 1 1
v -0.3268421 0.25 -0.1291002 1 1 1
v -0.3720995 0.25 -0.1137374 1 1 1
v 0.186066 0.3125 -0.08981131 1 1 1
v 0.05607213 0.25 -0.2501412 1 1 1
v 0.02333778 0.25 -0.1837625 1 1 1
v -0.1767918 0.25 -0.2442379 1 1 1
v -0.2083045 0.25 -0.2083045 1 1 1
v -0.3258647 0.3125 -0.3586255 1 1 1
v 0.1312922 0.3125 -0.007836657 1 1 1
v -0.01778068 0.25 -0.1222243 1 1 1
v -0.1782341 0.3125 0.2296712 1 1 1
v -0.271592 0.3125 0.261362 1 1 1
v -0.2501412 0.25 0.05607213 1 1 1
v -0.3202247 0.25 0.07986227 1 1 1
v -0.08981131 0.3125 0.186066 1 1 1
v -0.4189751 0.25 -0.1044133 1 1 1
v -0.4863086 0.25 -0.1 1 1 1
v -0.4435013 0.3125 -0.2907081 1 1 1
v -0.4924467 0.3125 -0.2875 1 1 1
v -0.3682877 0.3125 0.280596 1 1 1
v 0.280596 0.3125 -0.3682877 1 1 1
v -0.007836657 0.3125 0.1312922 1 1 1
v -0.1837625 0.25 0.02333778 1 1 1
v 0.09430116 0.25 -0.3928139 1 1 1
v 0.06628729 0.3125 0.06628729 1 1 1
v 0.07986227 0.25 -0.3202247 1 1 1
v -0.1044133 0.25 -0.4189751 1 1 1
v -0.2907081 0.3125 -0.4435013 1 1 1
v -0.06657971 0.25 -0.06657971 1 1 1
v -0.1222243 0.25 -0.01778068 1 1 1
v -0.1137374 0.25 -0.3720995 1 1 1
v -0.1291002 0.25 -0.3268421 1 1 1
v -0.1502389 0.25 -0.283977 1 1 1
v -0.3928139 0.25 0.09430116 1 1 1
v -0.2952371 0.3125 -0.4207323 1 1 1

vn 0.9659258 0 0.258819
vn 0.9238795 0 0.3826834
vn 0.8660254 0 0.5
vn 0.7933533 0 0.6087614
vn 0.7071068 0 0.7071068
vn 0 0 -1
vn 0.5 0 0.8660254
vn 0.3826834 0 0.9238795
vn 0 1 0
vn 0.1305262 0 0.9914449
vn 0.03271909 0 0.9994646
vn 0 0 1
vn 0.6087614 0 0.7933533
vn -1 0 0
vn 1 0 0
vn 0.9994646 0 0.03271909
vn 0.9914449 0 0.1305262
vn 0.258819 0 0.9659258
vn -0.7112119 0.702592 -0.02328267
vn -0.163262 0.9865682 -0.005344645
vn -0.7071068 0.7071068 0
vn -0.1601822 0.9870875 0
vn 0.4929101 0.7169931 0.4929101
vn 0.4243555 0.7169931 0.5530309
vn 0.6706764 0.3168382 0.6706764
vn 0.5773978 0.3168383 0.7524795
vn 0.1567657 0.9876226 0.005131976
vn 0.7018967 0.7119081 0.02297772
vn 0.1601822 0.9870875 0
vn 0.7071068 0.7071068 0
vn 0.09336032 0.9881703 0.1216695
vn 0.07668054 0.9881703 0.1328146
vn 0.3485401 0.7169931 0.6036892
vn -0.6913522 0.6983665 -0.1852473
vn -0.9161609 0.3168382 -0.2454846
vn -0.661258 0.6983665 -0.273902
vn -0.8762809 0.3168382 -0.3629674
vn 0.2667611 0.7169931 0.6440181
vn 0.1804176 0.7169931 0.6733277
vn 0.3629674 0.3168382 0.8762809
vn 0.2454846 0.3168382 0.9161609
vn 0.8762809 0.3168382 0.3629674
vn 0.6440181 0.7169931 0.2667611
vn 0.8214074 0.3168383 0.4742398
vn 0.6036892 0.7169931 0.3485401
vn 0.9486833 0.3162278 0
vn 0.9481246 0.3163802 0.03103838
vn -0.02328267 0.702592 -0.7112119
vn 0 0.7071068 -0.7071068
vn -0.005344645 0.9865682 -0.163262
vn 0 0.9870875 -0.1601822
vn 0.05868875 0.9881703 0.1416872
vn 0.03969277 0.9881703 0.1481354
vn -0.6198494 0.6983665 -0.3578703
vn -0.15368 0.9860681 -0.06365633
vn -0.1440564 0.9860681 -0.083171
vn 0.1216695 0.9881703 0.09336032
vn 0.1084427 0.9881703 0.1084427
vn 0.5530309 0.7169931 0.4243556
vn -0.5678351 0.6983664 -0.4357152
vn -0.131968 0.9860681 -0.1012626
vn -0.273902 0.6983665 -0.661258
vn -0.1852473 0.6983665 -0.6913522
vn -0.06365633 0.9860681 -0.15368
vn -0.04305248 0.9860681 -0.1606741
vn -0.3578703 0.6983665 -0.6198494
vn -0.3629674 0.3168382 -0.8762809
vn -0.4742398 0.3168383 -0.8214074
vn 0.02001764 0.9881703 0.1520491
vn 0.005131976 0.9876226 0.1567657
vn 0.09098721 0.7169931 0.6911166
vn 0.02297772 0.7119081 0.7018967
vn -0.09342287 0.6983663 -0.7096171
vn -0.1238014 0.3168383 -0.9403653
vn -0.2454846 0.3168382 -0.9161609
vn 0 0.3162278 -0.9486833
vn -0.03103838 0.3163802 -0.9481246
vn -0.9481246 0.3163802 -0.03103838
vn -0.7096171 0.6983663 -0.09342287
vn -0.9403653 0.3168383 -0.1238014
vn -0.4357152 0.6983664 -0.5678351
vn -0.5773978 0.3168383 -0.7524795
vn -0.083171 0.9860681 -0.1440564
vn -0.1649189 0.9860681 -0.02171199
vn 0.7524795 0.3168383 0.5773978
vn -0.7524795 0.3168383 -0.5773978
vn -0.5061049 0.6983665 -0.5061049
vn -0.6706764 0.3168382 -0.6706764
vn 0 0.7071068 0.7071068
vn 0.03103838 0.3163802 0.9481246
vn 0 0.3162278 0.9486833
vn 0.1238014 0.3168383 0.9403653
vn -0.1606741 0.9860681 -0.04305248
vn 0.1520491 0.9881703 0.02001764
vn 0.6911166 0.7169931 0.09098721
vn -0.8214074 0.3168383 -0.4742398
vn -0.1176216 0.9860681 -0.1176216
vn -0.1012626 0.9860681 -0.131968
vn 0.1481354 0.9881703 0.03969277
vn 0.1416872 0.9881703 0.05868875
vn 0.1328146 0.9881703 0.07668054
vn -0.02171199 0.9860681 -0.1649189
vn 0 0.9870875 0.1601822
vn 0.4742398 0.3168383 0.8214074
vn -0.9486833 0.3162278 0
vn 0.9403653 0.3168383 0.1238014
vn 0.9161609 0.3168382 0.2454846
vn 0.6733277 0.7169931 0.1804176
vn 0 -1 0

vt 0.90625 0.375
vt 0.28125 0.375
vt 0.53125 0.125

usemtl colormap

f 3/1/2 2/1/1 1/1/1
f 2/1/1 3/1/2 4/1/2
f 5/1/3 4/1/2 3/1/2
f 4/1/2 5/1/3 6/1/3
f 9/1/5 8/1/4 7/1/4
f 8/1/4 9/1/5 10/1/5
f 13/1/6 12/1/6 11/1/6
f 13/1/6 14/1/6 12/1/6
f 14/1/6 13/1/6 15/1/6
f 15/1/6 13/1/6 16/1/6
f 17/1/6 15/1/6 16/1/6
f 18/1/6 15/1/6 17/1/6
f 15/1/6 18/1/6 19/1/6
f 19/1/6 18/1/6 20/1/6
f 23/1/7 22/1/8 21/1/7
f 22/1/8 23/1/7 24/1/8
f 19/1/9 26/1/9 25/1/9
f 26/1/9 19/1/9 20/1/9
f 26/1/9 20/1/9 1/1/9
f 1/1/9 20/1/9 3/1/9
f 3/1/9 20/1/9 5/1/9
f 5/1/9 20/1/9 27/1/9
f 28/1/9 5/1/9 27/1/9
f 5/1/9 28/1/9 7/1/9
f 7/1/9 28/1/9 29/1/9
f 7/1/9 29/1/9 30/1/9
f 7/1/9 30/1/9 9/1/9
f 9/1/9 30/1/9 31/1/9
f 9/1/9 31/1/9 32/1/9
f 9/1/9 32/1/9 33/1/9
f 33/1/9 32/1/9 34/1/9
f 33/1/9 34/1/9 23/1/9
f 23/1/9 34/1/9 35/1/9
f 23/1/9 35/1/9 36/1/9
f 23/1/9 36/1/9 24/1/9
f 24/1/9 36/1/9 37/1/9
f 24/1/9 37/1/9 38/1/9
f 38/1/9 37/1/9 39/1/9
f 38/1/9 39/1/9 40/1/9
f 40/1/9 39/1/9 41/1/9
f 40/1/9 41/1/9 42/1/9
f 42/1/9 41/1/9 43/1/9
f 42/1/9 43/1/9 44/1/9
f 44/1/9 43/1/9 45/1/9
f 40/1/10 47/1/11 46/1/10
f 47/1/11 40/1/10 42/1/11
f 42/1/11 48/1/12 47/1/11
f 48/1/12 42/1/11 44/1/12
f 33/1/13 21/1/7 49/1/13
f 21/1/7 33/1/13 23/1/7
f 7/1/4 6/1/3 5/1/3
f 6/1/3 7/1/4 8/1/4
f 12/1/9 50/1/9 11/1/9
f 50/1/9 12/1/9 51/1/9
f 51/1/9 12/1/9 52/1/9
f 52/1/9 12/1/9 53/1/9
f 53/1/9 12/1/9 54/1/9
f 54/1/9 12/1/9 55/1/9
f 55/1/9 12/1/9 56/1/9
f 56/1/9 12/1/9 57/1/9
f 57/1/9 12/1/9 58/1/9
f 58/1/9 12/1/9 59/1/9
f 59/1/9 12/1/9 60/1/9
f 60/1/9 12/1/9 61/1/9
f 61/1/9 12/1/9 62/1/9
f 62/1/9 12/1/9 63/1/9
f 64/1/14 12/1/14 14/1/14
f 12/1/14 64/1/14 63/1/14
f 63/1/14 64/1/14 65/1/14
f 63/1/14 65/1/14 66/1/14
f 66/1/14 65/1/14 48/1/14
f 66/1/14 48/1/14 67/1/14
f 67/1/14 48/1/14 68/1/14
f 68/1/14 48/1/14 69/1/14
f 69/1/14 48/1/14 45/1/14
f 45/1/14 48/1/14 44/1/14
f 25/1/16 15/1/15 19/1/15
f 15/1/15 25/1/16 70/1/16
f 26/1/17 70/1/16 25/1/16
f 70/1/16 26/1/17 71/1/17
f 9/1/5 49/1/13 10/1/5
f 49/1/13 9/1/5 33/1/13
f 1/1/1 71/1/17 26/1/17
f 71/1/17 1/1/1 2/1/1
f 24/1/8 72/1/18 22/1/8
f 72/1/18 24/1/8 38/1/18
f 38/1/18 46/1/10 72/1/18
f 46/1/10 38/1/18 40/1/10
f 18/2/21 74/2/20 73/2/19
f 74/2/20 18/2/21 17/2/22
f 56/2/25 76/2/24 75/2/23
f 76/2/24 56/2/25 57/2/26
f 16/2/29 78/2/28 77/2/27
f 78/2/28 16/2/29 13/2/30
f 76/2/24 80/2/32 79/2/31
f 80/2/32 76/2/24 81/2/33
f 83/2/36 29/2/35 82/2/34
f 29/2/35 83/2/36 30/2/37
f 59/2/40 85/2/39 84/2/38
f 85/2/39 59/2/40 60/2/41
f 54/2/44 86/2/43 53/2/42
f 86/2/43 54/2/44 87/2/45
f 11/2/46 78/2/28 13/2/30
f 78/2/28 11/2/46 50/2/47
f 89/2/50 69/2/49 88/2/48
f 69/2/49 89/2/50 68/2/51
f 84/2/38 91/2/53 90/2/52
f 91/2/53 84/2/38 85/2/39
f 93/2/55 92/2/54 83/2/36
f 92/2/54 93/2/55 94/2/56
f 97/2/59 96/2/58 95/2/57
f 96/2/58 97/2/59 75/2/23
f 94/2/56 98/2/60 92/2/54
f 98/2/60 94/2/56 99/2/61
f 81/2/33 90/2/52 80/2/32
f 90/2/52 81/2/33 84/2/38
f 102/2/64 101/2/63 100/2/62
f 101/2/63 102/2/64 103/2/65
f 37/2/67 104/2/66 100/2/62
f 104/2/66 37/2/67 36/2/68
f 107/2/71 106/2/70 105/2/69
f 106/2/70 107/2/71 108/2/72
f 41/2/74 101/2/63 109/2/73
f 101/2/63 41/2/74 39/2/75
f 45/2/76 88/2/48 69/2/49
f 88/2/48 45/2/76 43/2/77
f 110/2/79 27/2/78 73/2/19
f 27/2/78 110/2/79 28/2/80
f 36/2/68 111/2/81 104/2/66
f 111/2/81 36/2/68 35/2/82
f 112/2/83 100/2/62 104/2/66
f 100/2/62 112/2/83 102/2/64
f 74/2/20 110/2/79 73/2/19
f 110/2/79 74/2/20 113/2/84
f 39/2/75 100/2/62 101/2/63
f 100/2/62 39/2/75 37/2/67
f 55/2/85 87/2/45 54/2/44
f 87/2/45 55/2/85 97/2/59
f 85/2/39 105/2/69 91/2/53
f 105/2/69 85/2/39 107/2/71
f 114/2/87 32/2/86 98/2/60
f 32/2/86 114/2/87 34/2/88
f 62/2/90 66/2/89 108/2/72
f 66/2/89 62/2/90 63/2/91
f 61/2/92 108/2/72 107/2/71
f 108/2/72 61/2/92 62/2/90
f 113/2/84 82/2/34 110/2/79
f 82/2/34 113/2/84 115/2/93
f 78/2/28 116/2/94 77/2/27
f 116/2/94 78/2/28 117/2/95
f 60/2/41 107/2/71 85/2/39
f 107/2/71 60/2/41 61/2/92
f 98/2/60 31/2/96 92/2/54
f 31/2/96 98/2/60 32/2/86
f 16/2/29 74/2/20 17/2/22
f 74/2/20 16/2/29 113/2/84
f 113/2/84 16/2/29 115/2/93
f 115/2/93 16/2/29 93/2/55
f 93/2/55 16/2/29 94/2/56
f 94/2/56 16/2/29 99/2/61
f 99/2/61 16/2/29 118/2/97
f 118/2/97 16/2/29 77/2/27
f 77/2/27 119/2/98 118/2/97
f 119/2/98 77/2/27 116/2/94
f 119/2/98 116/2/94 120/2/99
f 119/2/98 120/2/99 121/2/100
f 119/2/98 121/2/100 112/2/83
f 112/2/83 121/2/100 122/2/101
f 112/2/83 122/2/101 95/2/57
f 112/2/83 95/2/57 96/2/58
f 112/2/83 96/2/58 102/2/64
f 102/2/64 96/2/58 79/2/31
f 102/2/64 79/2/31 80/2/32
f 102/2/64 80/2/32 103/2/65
f 103/2/65 80/2/32 90/2/52
f 103/2/65 90/2/52 123/2/102
f 123/2/102 90/2/52 91/2/53
f 123/2/102 91/2/53 105/2/69
f 123/2/102 105/2/69 89/2/50
f 89/2/50 105/2/69 106/2/70
f 89/2/50 106/2/70 68/2/51
f 68/2/51 106/2/70 67/2/103
f 87/2/45 95/2/57 122/2/101
f 95/2/57 87/2/45 97/2/59
f 58/2/104 84/2/38 81/2/33
f 84/2/38 58/2/104 59/2/40
f 57/2/26 81/2/33 76/2/24
f 81/2/33 57/2/26 58/2/104
f 108/2/72 67/2/103 106/2/70
f 67/2/103 108/2/72 66/2/89
f 103/2/65 109/2/73 101/2/63
f 109/2/73 103/2/65 123/2/102
f 75/2/23 79/2/31 96/2/58
f 79/2/31 75/2/23 76/2/24
f 99/2/61 114/2/87 98/2/60
f 114/2/87 99/2/61 118/2/97
f 115/2/93 83/2/36 82/2/34
f 83/2/36 115/2/93 93/2/55
f 92/2/54 30/2/37 83/2/36
f 30/2/37 92/2/54 31/2/96
f 86/2/43 122/2/101 121/2/100
f 122/2/101 86/2/43 87/2/45
f 56/2/25 97/2/59 55/2/85
f 97/2/59 56/2/25 75/2/23
f 73/2/19 20/2/105 18/2/21
f 20/2/105 73/2/19 27/2/78
f 52/2/107 117/2/95 51/2/106
f 117/2/95 52/2/107 124/2/108
f 123/2/102 88/2/48 109/2/73
f 88/2/48 123/2/102 89/2/50
f 43/2/77 109/2/73 88/2/48
f 109/2/73 43/2/77 41/2/74
f 124/2/108 121/2/100 120/2/99
f 121/2/100 124/2/108 86/2/43
f 82/2/34 28/2/80 110/2/79
f 28/2/80 82/2/34 29/2/35
f 35/2/82 114/2/87 111/2/81
f 114/2/87 35/2/82 34/2/88
f 53/2/42 124/2/108 52/2/107
f 124/2/108 53/2/42 86/2/43
f 118/2/97 111/2/81 114/2/87
f 111/2/81 118/2/97 119/2/98
f 119/2/98 104/2/66 111/2/81
f 104/2/66 119/2/98 112/2/83
f 51/2/106 78/2/28 50/2/47
f 78/2/28 51/2/106 117/2/95
f 117/2/95 120/2/99 116/2/94
f 120/2/99 117/2/95 124/2/108
f 71/3/109 15/3/109 70/3/109
f 15/3/109 71/3/109 14/3/109
f 14/3/109 71/3/109 2/3/109
f 14/3/109 2/3/109 4/3/109
f 14/3/109 4/3/109 6/3/109
f 14/3/109 6/3/109 8/3/109
f 14/3/109 8/3/109 10/3/109
f 14/3/109 10/3/109 49/3/109
f 14/3/109 49/3/109 21/3/109
f 14/3/109 21/3/109 22/3/109
f 14/3/109 22/3/109 72/3/109
f 14/3/109 72/3/109 46/3/109
f 14/3/109 46/3/109 47/3/109
f 14/3/109 47/3/109 48/3/109
f 14/3/109 48/3/109 65/3/109
f 14/3/109 65/3/109 64/3/109

g corner




usemtl colormap

f 3/1/2 2/1/1 1/1/1
f 2/1/1 3/1/2 4/1/2
f 5/1/3 4/1/2 3/1/2
f 4/1/2 5/1/3 6/1/3
f 9/1/5 8/1/4 7/1/4
f 8/1/4 9/1/5 10/1/5
f 13/1/6 12/1/6 11/1/6
f 13/1/6 14/1/6 12/1/6
f 14/1/6 13/1/6 15/1/6
f 15/1/6 13/1/6 16/1/6
f 17/1/6 15/1/6 16/1/6
f 18/1/6 15/1/6 17/1/6
f 15/1/6 18/1/6 19/1/6
f 19/1/6 18/1/6 20/1/6
f 23/1/7 22/1/8 21/1/7
f 22/1/8 23/1/7 24/1/8
f 19/1/9 26/1/9 25/1/9
f 26/1/9 19/1/9 20/1/9
f 26/1/9 20/1/9 1/1/9
f 1/1/9 20/1/9 3/1/9
f 3/1/9 20/1/9 5/1/9
f 5/1/9 20/1/9 27/1/9
f 28/1/9 5/1/9 27/1/9
f 5/1/9 28/1/9 7/1/9
f 7/1/9 28/1/9 29/1/9
f 7/1/9 29/1/9 30/1/9
f 7/1/9 30/1/9 9/1/9
f 9/1/9 30/1/9 31/1/9
f 9/1/9 31/1/9 32/1/9
f 9/1/9 32/1/9 33/1/9
f 33/1/9 32/1/9 34/1/9
f 33/1/9 34/1/9 23/1/9
f 23/1/9 34/1/9 35/1/9
f 23/1/9 35/1/9 36/1/9
f 23/1/9 36/1/9 24/1/9
f 24/1/9 36/1/9 37/1/9
f 24/1/9 37/1/9 38/1/9
f 38/1/9 37/1/9 39/1/9
f 38/1/9 39/1/9 40/1/9
f 40/1/9 39/1/9 41/1/9
f 40/1/9 41/1/9 42/1/9
f 42/1/9 41/1/9 43/1/9
f 42/1/9 43/1/9 44/1/9
f 44/1/9 43/1/9 45/1/9
f 40/1/10 47/1/11 46/1/10
f 47/1/11 40/1/10 42/1/11
f 42/1/11 48/1/12 47/1/11
f 48/1/12 42/1/11 44/1/12
f 33/1/13 21/1/7 49/1/13
f 21/1/7 33/1/13 23/1/7
f 7/1/4 6/1/3 5/1/3
f 6/1/3 7/1/4 8/1/4
f 12/1/9 50/1/9 11/1/9
f 50/1/9 12/1/9 51/1/9
f 51/1/9 12/1/9 52/1/9
f 52/1/9 12/1/9 53/1/9
f 53/1/9 12/1/9 54/1/9
f 54/1/9 12/1/9 55/1/9
f 55/1/9 12/1/9 56/1/9
f 56/1/9 12/1/9 57/1/9
f 57/1/9 12/1/9 58/1/9
f 58/1/9 12/1/9 59/1/9
f 59/1/9 12/1/9 60/1/9
f 60/1/9 12/1/9 61/1/9
f 61/1/9 12/1/9 62/1/9
f 62/1/9 12/1/9 63/1/9
f 64/1/14 12/1/14 14/1/14
f 12/1/14 64/1/14 63/1/14
f 63/1/14 64/1/14 65/1/14
f 63/1/14 65/1/14 66/1/14
f 66/1/14 65/1/14 48/1/14
f 66/1/14 48/1/14 67/1/14
f 67/1/14 48/1/14 68/1/14
f 68/1/14 48/1/14 69/1/14
f 69/1/14 48/1/14 45/1/14
f 45/1/14 48/1/14 44/1/14
f 25/1/16 15/1/15 19/1/15
f 15/1/15 25/1/16 70/1/16
f 26/1/17 70/1/16 25/1/16
f 70/1/16 26/1/17 71/1/17
f 9/1/5 49/1/13 10/1/5
f 49/1/13 9/1/5 33/1/13
f 1/1/1 71/1/17 26/1/17
f 71/1/17 1/1/1 2/1/1
f 24/1/8 72/1/18 22/1/8
f 72/1/18 24/1/8 38/1/18
f 38/1/18 46/1/10 72/1/18
f 46/1/10 38/1/18 40/1/10
f 18/2/21 74/2/20 73/2/19
f 74/2/20 18/2/21 17/2/22
f 56/2/25 76/2/24 75/2/23
f 76/2/24 56/2/25 57/2/26
f 16/2/29 78/2/28 77/2/27
f 78/2/28 16/2/29 13/2/30
f 76/2/24 80/2/32 79/2/31
f 80/2/32 76/2/24 81/2/33
f 83/2/36 29/2/35 82/2/34
f 29/2/35 83/2/36 30/2/37
f 59/2/40 85/2/39 84/2/38
f 85/2/39 59/2/40 60/2/41
f 54/2/44 86/2/43 53/2/42
f 86/2/43 54/2/44 87/2/45
f 11/2/46 78/2/28 13/2/30
f 78/2/28 11/2/46 50/2/47
f 89/2/50 69/2/49 88/2/48
f 69/2/49 89/2/50 68/2/51
f 84/2/38 91/2/53 90/2/52
f 91/2/53 84/2/38 85/2/39
f 93/2/55 92/2/54 83/2/36
f 92/2/54 93/2/55 94/2/56
f 97/2/59 96/2/58 95/2/57
f 96/2/58 97/2/59 75/2/23
f 94/2/56 98/2/60 92/2/54
f 98/2/60 94/2/56 99/2/61
f 81/2/33 90/2/52 80/2/32
f 90/2/52 81/2/33 84/2/38
f 102/2/64 101/2/63 100/2/62
f 101/2/63 102/2/64 103/2/65
f 37/2/67 104/2/66 100/2/62
f 104/2/66 37/2/67 36/2/68
f 107/2/71 106/2/70 105/2/69
f 106/2/70 107/2/71 108/2/72
f 41/2/74 101/2/63 109/2/73
f 101/2/63 41/2/74 39/2/75
f 45/2/76 88/2/48 69/2/49
f 88/2/48 45/2/76 43/2/77
f 110/2/79 27/2/78 73/2/19
f 27/2/78 110/2/79 28/2/80
f 36/2/68 111/2/81 104/2/66
f 111/2/81 36/2/68 35/2/82
f 112/2/83 100/2/62 104/2/66
f 100/2/62 112/2/83 102/2/64
f 74/2/20 110/2/79 73/2/19
f 110/2/79 74/2/20 113/2/84
f 39/2/75 100/2/62 101/2/63
f 100/2/62 39/2/75 37/2/67
f 55/2/85 87/2/45 54/2/44
f 87/2/45 55/2/85 97/2/59
f 85/2/39 105/2/69 91/2/53
f 105/2/69 85/2/39 107/2/71
f 114/2/87 32/2/86 98/2/60
f 32/2/86 114/2/87 34/2/88
f 62/2/90 66/2/89 108/2/72
f 66/2/89 62/2/90 63/2/91
f 61/2/92 108/2/72 107/2/71
f 108/2/72 61/2/92 62/2/90
f 113/2/84 82/2/34 110/2/79
f 82/2/34 113/2/84 115/2/93
f 78/2/28 116/2/94 77/2/27
f 116/2/94 78/2/28 117/2/95
f 60/2/41 107/2/71 85/2/39
f 107/2/71 60/2/41 61/2/92
f 98/2/60 31/2/96 92/2/54
f 31/2/96 98/2/60 32/2/86
f 16/2/29 74/2/20 17/2/22
f 74/2/20 16/2/29 113/2/84
f 113/2/84 16/2/29 115/2/93
f 115/2/93 16/2/29 93/2/55
f 93/2/55 16/2/29 94/2/56
f 94/2/56 16/2/29 99/2/61
f 99/2/61 16/2/29 118/2/97
f 118/2/97 16/2/29 77/2/27
f 77/2/27 119/2/98 118/2/97
f 119/2/98 77/2/27 116/2/94
f 119/2/98 116/2/94 120/2/99
f 119/2/98 120/2/99 121/2/100
f 119/2/98 121/2/100 112/2/83
f 112/2/83 121/2/100 122/2/101
f 112/2/83 122/2/101 95/2/57
f 112/2/83 95/2/57 96/2/58
f 112/2/83 96/2/58 102/2/64
f 102/2/64 96/2/58 79/2/31
f 102/2/64 79/2/31 80/2/32
f 102/2/64 80/2/32 103/2/65
f 103/2/65 80/2/32 90/2/52
f 103/2/65 90/2/52 123/2/102
f 123/2/102 90/2/52 91/2/53
f 123/2/102 91/2/53 105/2/69
f 123/2/102 105/2/69 89/2/50
f 89/2/50 105/2/69 106/2/70
f 89/2/50 106/2/70 68/2/51
f 68/2/51 106/2/70 67/2/103
f 87/2/45 95/2/57 122/2/101
f 95/2/57 87/2/45 97/2/59
f 58/2/104 84/2/38 81/2/33
f 84/2/38 58/2/104 59/2/40
f 57/2/26 81/2/33 76/2/24
f 81/2/33 57/2/26 58/2/104
f 108/2/72 67/2/103 106/2/70
f 67/2/103 108/2/72 66/2/89
f 103/2/65 109/2/73 101/2/63
f 109/2/73 103/2/65 123/2/102
f 75/2/23 79/2/31 96/2/58
f 79/2/31 75/2/23 76/2/24
f 99/2/61 114/2/87 98/2/60
f 114/2/87 99/2/61 118/2/97
f 115/2/93 83/2/36 82/2/34
f 83/2/36 115/2/93 93/2/55
f 92/2/54 30/2/37 83/2/36
f 30/2/37 92/2/54 31/2/96
f 86/2/43 122/2/101 121/2/100
f 122/2/101 86/2/43 87/2/45
f 56/2/25 97/2/59 55/2/85
f 97/2/59 56/2/25 75/2/23
f 73/2/19 20/2/105 18/2/21
f 20/2/105 73/2/19 27/2/78
f 52/2/107 117/2/95 51/2/106
f 117/2/95 52/2/107 124/2/108
f 123/2/102 88/2/48 109/2/73
f 88/2/48 123/2/102 89/2/50
f 43/2/77 109/2/73 88/2/48
f 109/2/73 43/2/77 41/2/74
f 124/2/108 121/2/100 120/2/99
f 121/2/100 124/2/108 86/2/43
f 82/2/34 28/2/80 110/2/79
f 28/2/80 82/2/34 29/2/35
f 35/2/82 114/2/87 111/2/81
f 114/2/87 35/2/82 34/2/88
f 53/2/42 124/2/108 52/2/107
f 124/2/108 53/2/42 86/2/43
f 118/2/97 111/2/81 114/2/87
f 111/2/81 118/2/97 119/2/98
f 119/2/98 104/2/66 111/2/81
f 104/2/66 119/2/98 112/2/83
f 51/2/106 78/2/28 50/2/47
f 78/2/28 51/2/106 117/2/95
f 117/2/95 120/2/99 116/2/94
f 120/2/99 117/2/95 124/2/108
f 71/3/109 15/3/109 70/3/109
f 15/3/109 71/3/109 14/3/109
f 14/3/109 71/3/109 2/3/109
f 14/3/109 2/3/109 4/3/109
f 14/3/109 4/3/109 6/3/109
f 14/3/109 6/3/109 8/3/109
f 14/3/109 8/3/109 10/3/109
f 14/3/109 10/3/109 49/3/109
f 14/3/109 49/3/109 21/3/109
f 14/3/109 21/3/109 22/3/109
f 14/3/109 22/3/109 72/3/109
f 14/3/109 72/3/109 46/3/109
f 14/3/109 46/3/109 47/3/109
f 14/3/109 47/3/109 48/3/109
f 14/3/109 48/3/109 65/3/109
f 14/3/109 65/3/109 64/3/109

