# Created by Kenney (www.kenney.nl)

mtllib curve-wide-medium.mtl

g curve-wide-medium

v -0.8058147 0.25 0.2470132 1 1 1
v -0.996833 0.25 0.2850091 1 1 1
v -0.9030802 0.3125 -0.1159862 1 1 1
v -1.045885 0.3125 -0.08758047 1 1 1
v -0.4467147 0.25 0.09826912 1 1 1
v -0.6213901 0.25 0.1844095 1 1 1
v -0.634617 0.3125 -0.2271872 1 1 1
v -0.7652043 0.3125 -0.1627887 1 1 1
v -0.8954581 0.3125 1.055028 1 1 1
v -0.6047996 0.3125 0.997212 1 1 1
v -0.8791074 0.5 1.179224 1 1 1
v -0.5723777 0.5 1.118212 1 1 1
v -0.3241741 0.3125 0.9019524 1 1 1
v -0.276236 0.5 1.017685 1 1 1
v 0.1880251 0.3125 0.6062341 1 1 1
v -0.05838327 0.3125 0.7708789 1 1 1
v -0.04075022 0.25 0.3080882 1 1 1
v -0.2462856 0.25 0.4454226 1 1 1
v -1.200179 0.3125 1.075 1 1 1
v -1.35 0.3125 1.075 1 1 1
v -1.212455 0.25 0.7 1 1 1
v -1.35 0.25 0.7 1 1 1
v 0.7 0.25 -1.35 1 1 1
v 0.7 0.25 -1.212455 1 1 1
v 0.3 0.25 -1.35 1 1 1
v 0.682438 0.25 -0.9445105 1 1 1
v 0.6342126 0.25 -0.7020649 1 1 1
v 0.5547543 0.25 -0.4679883 1 1 1
v 0.4454226 0.25 -0.2462855 1 1 1
v 0.3080882 0.25 -0.04075019 1 1 1
v 0.3 0.25 -1.22555 1 1 1
v 0.2850091 0.25 -0.996833 1 1 1
v 0.145101 0.25 0.1451011 1 1 1
v 0.2470132 0.25 -0.8058147 1 1 1
v 0.1844095 0.25 -0.62139 1 1 1
v 0.09826912 0.25 -0.4467147 1 1 1
v -0.009934021 0.25 -0.2847773 1 1 1
v -0.1383485 0.25 -0.1383485 1 1 1
v -0.2847773 0.25 -0.009934018 1 1 1
v -0.4679883 0.25 0.5547543 1 1 1
v -0.7020649 0.25 0.6342126 1 1 1
v -0.9445105 0.25 0.682438 1 1 1
v -1.22555 0.25 0.3 1 1 1
v -1.35 0.25 0.3 1 1 1
v -1.237826 0.3125 -0.075 1 1 1
v -1.062236 0.5 -0.211777 1 1 1
v -1.241918 0.5 -0.2 1 1 1
v -0.4040825 0.3125 -0.4040825 1 1 1
v -0.5135526 0.3125 -0.3080799 1 1 1
v -0.3080799 0.3125 -0.5135526 1 1 1
v -1.35 0.3125 -0.075 1 1 1
v -1.35 0.5 -0.2 1 1 1
v -0.4926605 0.5 -0.4926605 1 1 1
v -0.5898111 0.5 -0.4074619 1 1 1
v 0.004250826 0.5 0.8793643 1 1 1
v 0.2642836 0.5 0.7056161 1 1 1
v -0.8131424 0.5 -0.2785214 1 1 1
v -0.9355019 0.5 -0.236986 1 1 1
v -0.1159862 0.3125 -0.90308 1 1 1
v -0.1627887 0.3125 -0.7652043 1 1 1
v -0.07499998 0.3125 -1.237826 1 1 1
v -0.08758045 0.3125 -1.045885 1 1 1
v 0.9019524 0.3125 -0.324174 1 1 1
v 0.7708789 0.3125 -0.05838324 1 1 1
v 1.075 0.3125 -1.200179 1 1 1
v 1.055028 0.3125 -0.895458 1 1 1
v 0.6062341 0.3125 0.1880252 1 1 1
v 0.7056161 0.5 0.2642836 1 1 1
v 0.4108351 0.3125 0.4108351 1 1 1
v 0.499413 0.5 0.4994131 1 1 1
v 1.179224 0.5 -0.8791073 1 1 1
v 0.997212 0.3125 -0.6047995 1 1 1
v 1.118212 0.5 -0.5723777 1 1 1
v 0.8793643 0.5 0.004250864 1 1 1
v -0.2271872 0.3125 -0.634617 1 1 1
v -0.6972511 0.5 -0.3356727 1 1 1
v -0.07499998 0.3125 -1.35 1 1 1
v -0.4074618 0.5 -0.5898111 1 1 1
v 1.017685 0.5 -0.276236 1 1 1
v -1.196087 0.5 1.2 1 1 1
v -0.3356727 0.5 -0.6972511 1 1 1
v -1.35 0.5 1.2 1 1 1
v -0.2 0.5 -1.241918 1 1 1
v -0.211777 0.5 -1.062236 1 1 1
v -0.2785214 0.5 -0.8131424 1 1 1
v -0.236986 0.5 -0.9355019 1 1 1
v 1.075 0.3125 -1.35 1 1 1
v -0.2 0.5 -1.35 1 1 1
v 1.2 0.5 -1.196087 1 1 1
v 1.2 0.5 -1.35 1 1 1
v -0.8706681 0 -0.4174007 1 1 1
v -0.7724121 0 -0.4658552 1 1 1
v -0.8706681 0.5 -0.4174007 1 1 1
v -0.7724121 0.5 -0.4658552 1 1 1
v 1.35 0.5 -1.35 1 1 1
v 1.35 0.5 -1.191176 1 1 1
v 1.32826 0.5 -0.8594864 1 1 1
v 1.263412 0.5 -0.5334715 1 1 1
v 1.156564 0.5 -0.2187103 1 1 1
v 1.009547 0.5 0.07941179 1 1 1
v 0.8248743 0.5 0.3557937 1 1 1
v 0.6057066 0.5 0.6057067 1 1 1
v 0.3557937 0.5 0.8248743 1 1 1
v 0.07941175 0.5 1.009547 1 1 1
v -0.2187103 0.5 1.156564 1 1 1
v -0.5334716 0.5 1.263412 1 1 1
v -0.8594864 0.5 1.32826 1 1 1
v -1.191177 0.5 1.35 1 1 1
v -1.35 0.5 1.35 1 1 1
v 1.35 0 -1.35 1 1 1
v -0.35 0 -1.35 1 1 1
v 1.35 0 -1.191176 1 1 1
v 1.32826 0 -0.8594864 1 1 1
v 1.263412 0 -0.5334715 1 1 1
v 1.156564 0 -0.2187103 1 1 1
v 1.009547 0 0.07941179 1 1 1
v 0.8248743 0 0.3557937 1 1 1
v 0.6057066 0 0.6057067 1 1 1
v 0.3557937 0 0.8248743 1 1 1
v 0.07941175 0 1.009547 1 1 1
v -0.2187103 0 1.156564 1 1 1
v -0.35 0 -1.246829 1 1 1
v -0.3608128 0 -1.081857 1 1 1
v -0.5334716 0 1.263412 1 1 1
v -0.3821857 0 -0.974408 1 1 1
v -0.4174007 0 -0.8706681 1 1 1
v -0.4658552 0 -0.7724121 1 1 1
v -0.5267202 0 -0.6813212 1 1 1
v -0.5989541 0 -0.5989541 1 1 1
v -0.8594864 0 1.32826 1 1 1
v -0.6813212 0 -0.5267202 1 1 1
v -1.191177 0 1.35 1 1 1
v -0.974408 0 -0.3821858 1 1 1
v -1.081857 0 -0.3608128 1 1 1
v -1.246829 0 -0.35 1 1 1
v -1.35 0 1.35 1 1 1
v -1.35 0 -0.35 1 1 1
v -1.246829 0.5 -0.35 1 1 1
v -1.081857 0.5 -0.3608128 1 1 1
v -0.6813212 0.5 -0.5267202 1 1 1
v -0.5989541 0.5 -0.5989541 1 1 1
v -0.4174007 0.5 -0.8706681 1 1 1
v -0.4658552 0.5 -0.7724121 1 1 1
v -0.974408 0.5 -0.3821858 1 1 1
v -1.35 0.5 -0.35 1 1 1
v -0.3608128 0.5 -1.081857 1 1 1
v -0.3821857 0.5 -0.974408 1 1 1
v -0.5267202 0.5 -0.6813212 1 1 1
v -0.35 0.5 -1.35 1 1 1
v -0.35 0.5 -1.246829 1 1 1

vn 0.02042067 0.9968827 0.076211
vn 0.01029844 0.9968827 0.07822444
vn 0.1373093 0.8476708 0.5124454
vn 0.06924708 0.8476708 0.5259839
vn 0.03944971 0.9968827 0.06832891
vn 0.0301935 0.9968827 0.07289357
vn 0.2652613 0.8476708 0.459446
vn 0.2030222 0.8476708 0.4901389
vn -0.07229639 0.8325937 -0.5491457
vn -0.1433558 0.8325937 -0.5350111
vn -0.1085326 0.5555234 -0.8243873
vn -0.2152082 0.5555233 -0.8031682
vn -0.2119623 0.8325937 -0.5117223
vn -0.3182016 0.5555233 -0.7682067
vn -0.3371834 0.8325937 -0.4394259
vn -0.2769421 0.8325937 -0.4796778
vn -0.05217805 0.99632 -0.06799976
vn -0.04285591 0.99632 -0.07422861
vn -0.01795032 0.8360721 -0.5483258
vn 0 0.8397514 -0.5429711
vn -0.002753066 0.9964538 -0.08409751
vn 0 0.9965927 -0.08248053
vn -0.08248053 0.9965927 0
vn -0.08409751 0.9964538 -0.002753069
vn 0.08248053 0.9965927 0
vn -0.08497854 0.99632 -0.01118764
vn -0.08279127 0.99632 -0.02218385
vn -0.07918739 0.99632 -0.0328005
vn -0.07422861 0.99632 -0.04285591
vn -0.06799976 0.99632 -0.05217806
vn 0.08068781 0.9967359 0.002641446
vn 0.07822444 0.9968827 0.01029844
vn -0.06060741 0.99632 -0.06060741
vn 0.076211 0.9968827 0.02042068
vn 0.07289357 0.9968827 0.03019351
vn 0.06832891 0.9968827 0.03944972
vn 0.06259512 0.9968827 0.04803094
vn 0.05579032 0.9968827 0.05579032
vn 0.04803093 0.9968827 0.06259512
vn -0.0328005 0.99632 -0.0791874
vn -0.02218385 0.99632 -0.08279127
vn -0.01118764 0.99632 -0.08497854
vn 0.002641444 0.9967359 0.08068781
vn 0 0.9965927 0.08248053
vn 0.01756814 0.8436211 0.5366515
vn 0.1085326 0.5555234 0.8243873
vn 0.02721942 0.5549059 0.8314677
vn 0.3751361 0.8476708 0.3751361
vn 0.3229617 0.8476708 0.4208918
vn 0.4208918 0.8476708 0.3229617
vn 0 0.8397514 0.5429711
vn 0 0.5547002 0.8320503
vn 0.5879599 0.5555234 0.5879599
vn 0.5061857 0.5555234 0.659674
vn -0.4157504 0.5555234 -0.7201009
vn -0.5061857 0.5555234 -0.659674
vn 0.3182016 0.5555233 0.7682067
vn 0.2152082 0.5555233 0.8031682
vn 0.5124455 0.8476708 0.1373094
vn 0.4901389 0.8476708 0.2030222
vn 0.5366515 0.8436211 0.01756816
vn 0.5259839 0.8476708 0.0692471
vn -0.5117223 0.8325937 -0.2119623
vn -0.4796778 0.8325937 -0.2769421
vn -0.5483258 0.8360721 -0.01795034
vn -0.5491457 0.8325937 -0.07229642
vn -0.4394259 0.8325937 -0.3371834
vn -0.659674 0.5555234 -0.5061857
vn -0.3916553 0.8325937 -0.3916553
vn -0.5879599 0.5555234 -0.5879599
vn -0.8243873 0.5555234 -0.1085327
vn -0.5350111 0.8325937 -0.1433558
vn -0.8031682 0.5555233 -0.2152083
vn -0.7201009 0.5555233 -0.4157504
vn 0.459446 0.8476708 0.2652613
vn 0.4157504 0.5555234 0.7201009
vn 0.5429711 0.8397514 0
vn 0.659674 0.5555234 0.5061857
vn -0.7682067 0.5555234 -0.3182016
vn -0.02721942 0.5549059 -0.8314677
vn 0.7201009 0.5555233 0.4157504
vn 0 0.5547002 -0.8320503
vn 0.8314677 0.5549059 0.02721945
vn 0.8243873 0.5555234 0.1085327
vn 0.7682067 0.5555234 0.3182016
vn 0.8031682 0.5555233 0.2152083
vn -0.5429711 0.8397514 0
vn 0.8320503 0.5547002 0
vn -0.8314677 0.5549059 -0.02721945
vn -0.8320503 0.5547002 0
vn -0.3826834 0 -0.9238795
vn -0.5 0 -0.8660254
vn 0 1 0
vn 0 -1 0
vn -0.03271907 0 -0.9994646
vn -0.1305262 0 -0.9914449
vn -0.6087614 0 -0.7933533
vn -0.7071068 0 -0.7071068
vn -0.9238795 0 -0.3826834
vn -0.8660254 0 -0.5
vn -0.258819 0 -0.9659258
vn 0 0 -1
vn 0.1305262 0 0.9914449
vn 0.03271907 0 0.9994646
vn -0.9914449 0 -0.1305262
vn -0.9659258 0 -0.2588191
vn 0.9659258 0 0.2588191
vn 0.9238795 0 0.3826834
vn 0 0 1
vn 0.3826834 0 0.9238795
vn 0.258819 0 0.9659258
vn 0.9914449 0 0.1305262
vn 0.8660254 0 0.5
vn -0.7933533 0 -0.6087614
vn 0.7933533 0 0.6087614
vn 0.6087614 0 0.7933533
vn 0.5 0 0.8660254
vn 0.7071068 0 0.7071068
vn -1 0 0
vn -0.9994646 0 -0.0327191
vn 1 0 0
vn 0.9994646 0 0.0327191

vt 0.28125 0.375
vt 0.90625 0.375

usemtl colormap

f 3/1/3 2/1/2 1/1/1
f 2/1/2 3/1/3 4/1/4
f 7/1/7 6/1/6 5/1/5
f 6/1/6 7/1/7 8/1/8
f 11/1/11 10/1/10 9/1/9
f 10/1/10 11/1/11 12/1/12
f 12/1/12 13/1/13 10/1/10
f 13/1/13 12/1/12 14/1/14
f 17/1/17 16/1/16 15/1/15
f 16/1/16 17/1/17 18/1/18
f 8/1/8 1/1/1 6/1/6
f 1/1/1 8/1/8 3/1/3
f 21/1/21 20/1/20 19/1/19
f 20/1/20 21/1/21 22/1/22
f 25/1/25 24/1/24 23/1/23
f 24/1/24 25/1/25 26/1/26
f 26/1/26 25/1/25 27/1/27
f 27/1/27 25/1/25 28/1/28
f 28/1/28 25/1/25 29/1/29
f 29/1/29 25/1/25 30/1/30
f 30/1/30 25/1/25 31/1/31
f 30/1/30 31/1/31 32/1/32
f 30/1/30 32/1/32 33/1/33
f 33/1/33 32/1/32 34/1/34
f 33/1/33 34/1/34 35/1/35
f 33/1/33 35/1/35 36/1/36
f 33/1/33 36/1/36 17/1/17
f 17/1/17 36/1/36 37/1/37
f 17/1/17 37/1/37 38/1/38
f 17/1/17 38/1/38 18/1/18
f 18/1/18 38/1/38 39/1/39
f 18/1/18 39/1/39 40/1/40
f 40/1/40 39/1/39 5/1/5
f 40/1/40 5/1/5 6/1/6
f 40/1/40 6/1/6 41/1/41
f 41/1/41 6/1/6 1/1/1
f 41/1/41 1/1/1 42/1/42
f 42/1/42 1/1/1 2/1/2
f 42/1/42 2/1/2 21/1/21
f 21/1/21 2/1/2 43/1/43
f 21/1/21 43/1/43 22/1/22
f 22/1/22 43/1/43 44/1/44
f 46/1/46 45/1/45 4/1/4
f 45/1/45 46/1/46 47/1/47
f 42/1/42 19/1/19 9/1/9
f 19/1/19 42/1/42 21/1/21
f 48/1/48 39/1/39 38/1/38
f 39/1/39 48/1/48 49/1/49
f 41/1/41 9/1/9 10/1/10
f 9/1/9 41/1/41 42/1/42
f 50/1/50 38/1/38 37/1/37
f 38/1/38 50/1/50 48/1/48
f 47/1/47 51/1/51 45/1/45
f 51/1/51 47/1/47 52/1/52
f 53/1/53 49/1/49 48/1/48
f 49/1/49 53/1/53 54/1/54
f 49/1/49 5/1/5 39/1/39
f 5/1/5 49/1/49 7/1/7
f 55/1/55 15/1/15 16/1/16
f 15/1/15 55/1/55 56/1/56
f 57/1/57 3/1/3 8/1/8
f 3/1/3 57/1/57 58/1/58
f 59/1/59 35/1/35 34/1/34
f 35/1/35 59/1/59 60/1/60
f 61/1/61 32/1/32 31/1/31
f 32/1/32 61/1/61 62/1/62
f 18/1/18 13/1/13 16/1/16
f 13/1/13 18/1/18 40/1/40
f 28/1/28 64/1/64 63/1/63
f 64/1/64 28/1/28 29/1/29
f 62/1/62 34/1/34 32/1/32
f 34/1/34 62/1/62 59/1/59
f 45/1/45 44/1/44 43/1/43
f 44/1/44 45/1/45 51/1/51
f 24/1/24 66/1/66 65/1/65
f 66/1/66 24/1/24 26/1/26
f 69/1/69 68/1/68 67/1/67
f 68/1/68 69/1/69 70/1/70
f 72/1/72 71/1/71 66/1/66
f 71/1/71 72/1/72 73/1/73
f 67/1/67 74/1/74 64/1/64
f 74/1/74 67/1/67 68/1/68
f 4/1/4 43/1/43 2/1/2
f 43/1/43 4/1/4 45/1/45
f 75/1/75 37/1/37 36/1/36
f 37/1/37 75/1/75 50/1/50
f 76/1/76 8/1/8 7/1/7
f 8/1/8 76/1/76 57/1/57
f 26/1/26 72/1/72 66/1/66
f 72/1/72 26/1/26 27/1/27
f 77/1/77 31/1/31 25/1/25
f 31/1/31 77/1/77 61/1/61
f 14/1/14 16/1/16 13/1/13
f 16/1/16 14/1/14 55/1/55
f 53/1/53 50/1/50 78/1/78
f 50/1/50 53/1/53 48/1/48
f 30/1/30 69/1/69 67/1/67
f 69/1/69 30/1/30 33/1/33
f 54/1/54 7/1/7 49/1/49
f 7/1/7 54/1/54 76/1/76
f 33/1/33 15/1/15 69/1/69
f 15/1/15 33/1/33 17/1/17
f 56/1/56 69/1/69 15/1/15
f 69/1/69 56/1/56 70/1/70
f 58/1/58 4/1/4 3/1/3
f 4/1/4 58/1/58 46/1/46
f 63/1/63 73/1/73 72/1/72
f 73/1/73 63/1/63 79/1/79
f 80/1/80 9/1/9 19/1/19
f 9/1/9 80/1/80 11/1/11
f 78/1/78 75/1/75 81/1/81
f 75/1/75 78/1/78 50/1/50
f 82/1/82 19/1/19 20/1/20
f 19/1/19 82/1/82 80/1/80
f 40/1/40 10/1/10 13/1/13
f 10/1/10 40/1/40 41/1/41
f 84/1/84 61/1/61 83/1/83
f 61/1/61 84/1/84 62/1/62
f 60/1/60 36/1/36 35/1/35
f 36/1/36 60/1/60 75/1/75
f 81/1/81 60/1/60 85/1/85
f 60/1/60 81/1/81 75/1/75
f 29/1/29 67/1/67 64/1/64
f 67/1/67 29/1/29 30/1/30
f 86/1/86 62/1/62 84/1/84
f 62/1/62 86/1/86 59/1/59
f 23/1/23 65/1/65 87/1/87
f 65/1/65 23/1/23 24/1/24
f 64/1/64 79/1/79 63/1/63
f 79/1/79 64/1/64 74/1/74
f 83/1/83 77/1/77 88/1/88
f 77/1/77 83/1/83 61/1/61
f 66/1/66 89/1/89 65/1/65
f 89/1/89 66/1/66 71/1/71
f 27/1/27 63/1/63 72/1/72
f 63/1/63 27/1/27 28/1/28
f 65/1/65 90/1/90 87/1/87
f 90/1/90 65/1/65 89/1/89
f 85/1/85 59/1/59 86/1/86
f 59/1/59 85/1/85 60/1/60
f 93/2/91 92/2/92 91/2/91
f 92/2/92 93/2/91 94/2/92
f 90/2/93 96/2/93 95/2/93
f 96/2/93 90/2/93 97/2/93
f 97/2/93 90/2/93 98/2/93
f 98/2/93 90/2/93 89/2/93
f 98/2/93 89/2/93 99/2/93
f 99/2/93 89/2/93 71/2/93
f 99/2/93 71/2/93 73/2/93
f 99/2/93 73/2/93 100/2/93
f 100/2/93 73/2/93 79/2/93
f 100/2/93 79/2/93 74/2/93
f 100/2/93 74/2/93 101/2/93
f 101/2/93 74/2/93 68/2/93
f 101/2/93 68/2/93 102/2/93
f 102/2/93 68/2/93 70/2/93
f 102/2/93 70/2/93 103/2/93
f 103/2/93 70/2/93 56/2/93
f 103/2/93 56/2/93 104/2/93
f 104/2/93 56/2/93 55/2/93
f 104/2/93 55/2/93 105/2/93
f 105/2/93 55/2/93 14/2/93
f 105/2/93 14/2/93 106/2/93
f 106/2/93 14/2/93 12/2/93
f 106/2/93 12/2/93 107/2/93
f 107/2/93 12/2/93 11/2/93
f 107/2/93 11/2/93 108/2/93
f 108/2/93 11/2/93 80/2/93
f 108/2/93 80/2/93 109/2/93
f 109/2/93 80/2/93 82/2/93
f 112/2/94 111/2/94 110/2/94
f 111/2/94 112/2/94 113/2/94
f 111/2/94 113/2/94 114/2/94
f 111/2/94 114/2/94 115/2/94
f 111/2/94 115/2/94 116/2/94
f 111/2/94 116/2/94 117/2/94
f 111/2/94 117/2/94 118/2/94
f 111/2/94 118/2/94 119/2/94
f 111/2/94 119/2/94 120/2/94
f 111/2/94 120/2/94 121/2/94
f 111/2/94 121/2/94 122/2/94
f 122/2/94 121/2/94 123/2/94
f 123/2/94 121/2/94 124/2/94
f 123/2/94 124/2/94 125/2/94
f 125/2/94 124/2/94 126/2/94
f 126/2/94 124/2/94 127/2/94
f 127/2/94 124/2/94 128/2/94
f 128/2/94 124/2/94 129/2/94
f 129/2/94 124/2/94 130/2/94
f 129/2/94 130/2/94 131/2/94
f 131/2/94 130/2/94 92/2/94
f 92/2/94 130/2/94 91/2/94
f 91/2/94 130/2/94 132/2/94
f 91/2/94 132/2/94 133/2/94
f 133/2/94 132/2/94 134/2/94
f 134/2/94 132/2/94 135/2/94
f 135/2/94 132/2/94 136/2/94
f 135/2/94 136/2/94 137/2/94
f 138/2/95 134/2/96 135/2/95
f 134/2/96 138/2/95 139/2/96
f 140/2/97 129/2/98 131/2/97
f 129/2/98 140/2/97 141/2/98
f 127/2/100 142/2/99 126/2/99
f 142/2/99 127/2/100 143/2/100
f 139/2/96 133/2/101 134/2/96
f 133/2/101 139/2/96 144/2/101
f 145/2/102 135/2/95 137/2/102
f 135/2/95 145/2/102 138/2/95
f 107/2/103 132/2/104 130/2/103
f 132/2/104 107/2/103 108/2/104
f 144/2/101 91/2/91 133/2/101
f 91/2/91 144/2/101 93/2/91
f 125/2/106 146/2/105 123/2/105
f 146/2/105 125/2/106 147/2/106
f 98/2/107 115/2/108 114/2/107
f 115/2/108 98/2/107 99/2/108
f 108/2/104 136/2/109 132/2/104
f 136/2/109 108/2/104 109/2/109
f 105/2/110 124/2/111 121/2/110
f 124/2/111 105/2/110 106/2/111
f 97/2/112 114/2/107 113/2/112
f 114/2/107 97/2/112 98/2/107
f 99/2/108 116/2/113 115/2/108
f 116/2/113 99/2/108 100/2/113
f 129/2/98 148/2/114 128/2/114
f 148/2/114 129/2/98 141/2/98
f 101/2/115 116/2/113 100/2/113
f 116/2/113 101/2/115 117/2/115
f 103/2/116 120/2/117 119/2/116
f 120/2/117 103/2/116 104/2/117
f 102/2/118 117/2/115 101/2/115
f 117/2/115 102/2/118 118/2/118
f 94/2/92 131/2/97 92/2/92
f 131/2/97 94/2/92 140/2/97
f 122/2/120 149/2/119 111/2/119
f 149/2/119 122/2/120 150/2/120
f 128/2/114 143/2/100 127/2/100
f 143/2/100 128/2/114 148/2/114
f 96/2/122 110/2/121 95/2/121
f 110/2/121 96/2/122 112/2/122
f 149/2/93 83/2/93 88/2/93
f 83/2/93 149/2/93 84/2/93
f 84/2/93 149/2/93 86/2/93
f 86/2/93 149/2/93 85/2/93
f 85/2/93 149/2/93 81/2/93
f 81/2/93 149/2/93 150/2/93
f 81/2/93 150/2/93 146/2/93
f 81/2/93 146/2/93 78/2/93
f 78/2/93 146/2/93 147/2/93
f 78/2/93 147/2/93 142/2/93
f 78/2/93 142/2/93 53/2/93
f 53/2/93 142/2/93 143/2/93
f 53/2/93 143/2/93 148/2/93
f 53/2/93 148/2/93 54/2/93
f 54/2/93 148/2/93 141/2/93
f 54/2/93 141/2/93 76/2/93
f 76/2/93 141/2/93 140/2/93
f 76/2/93 140/2/93 94/2/93
f 76/2/93 94/2/93 57/2/93
f 57/2/93 94/2/93 93/2/93
f 57/2/93 93/2/93 58/2/93
f 58/2/93 93/2/93 144/2/93
f 58/2/93 144/2/93 46/2/93
f 46/2/93 144/2/93 139/2/93
f 46/2/93 139/2/93 47/2/93
f 47/2/93 139/2/93 138/2/93
f 47/2/93 138/2/93 52/2/93
f 52/2/93 138/2/93 145/2/93
f 104/2/117 121/2/110 120/2/117
f 121/2/110 104/2/117 105/2/110
f 145/2/119 51/2/119 52/2/119
f 137/2/119 51/2/119 145/2/119
f 51/2/119 137/2/119 136/2/119
f 51/2/119 136/2/119 44/2/119
f 44/2/119 136/2/119 22/2/119
f 22/2/119 136/2/119 20/2/119
f 20/2/119 136/2/119 82/2/119
f 82/2/119 136/2/119 109/2/119
f 106/2/111 130/2/103 124/2/111
f 130/2/103 106/2/111 107/2/103
f 102/2/118 119/2/116 118/2/118
f 119/2/116 102/2/118 103/2/116
f 96/2/122 113/2/112 112/2/122
f 113/2/112 96/2/122 97/2/112
f 123/2/105 150/2/120 122/2/120
f 150/2/120 123/2/105 146/2/105
f 126/2/99 147/2/106 125/2/106
f 147/2/106 126/2/99 142/2/99
f 77/2/102 149/2/102 88/2/102
f 77/2/102 111/2/102 149/2/102
f 111/2/102 77/2/102 110/2/102
f 110/2/102 77/2/102 25/2/102
f 23/2/102 110/2/102 25/2/102
f 87/2/102 110/2/102 23/2/102
f 110/2/102 87/2/102 95/2/102
f 95/2/102 87/2/102 90/2/102

g curve-wide-medium




usemtl colormap

f 3/1/3 2/1/2 1/1/1
f 2/1/2 3/1/3 4/1/4
f 7/1/7 6/1/6 5/1/5
f 6/1/6 7/1/7 8/1/8
f 11/1/11 10/1/10 9/1/9
f 10/1/10 11/1/11 12/1/12
f 12/1/12 13/1/13 10/1/10
f 13/1/13 12/1/12 14/1/14
f 17/1/17 16/1/16 15/1/15
f 16/1/16 17/1/17 18/1/18
f 8/1/8 1/1/1 6/1/6
f 1/1/1 8/1/8 3/1/3
f 21/1/21 20/1/20 19/1/19
f 20/1/20 21/1/21 22/1/22
f 25/1/25 24/1/24 23/1/23
f 24/1/24 25/1/25 26/1/26
f 26/1/26 25/1/25 27/1/27
f 27/1/27 25/1/25 28/1/28
f 28/1/28 25/1/25 29/1/29
f 29/1/29 25/1/25 30/1/30
f 30/1/30 25/1/25 31/1/31
f 30/1/30 31/1/31 32/1/32
f 30/1/30 32/1/32 33/1/33
f 33/1/33 32/1/32 34/1/34
f 33/1/33 34/1/34 35/1/35
f 33/1/33 35/1/35 36/1/36
f 33/1/33 36/1/36 17/1/17
f 17/1/17 36/1/36 37/1/37
f 17/1/17 37/1/37 38/1/38
f 17/1/17 38/1/38 18/1/18
f 18/1/18 38/1/38 39/1/39
f 18/1/18 39/1/39 40/1/40
f 40/1/40 39/1/39 5/1/5
f 40/1/40 5/1/5 6/1/6
f 40/1/40 6/1/6 41/1/41
f 41/1/41 6/1/6 1/1/1
f 41/1/41 1/1/1 42/1/42
f 42/1/42 1/1/1 2/1/2
f 42/1/42 2/1/2 21/1/21
f 21/1/21 2/1/2 43/1/43
f 21/1/21 43/1/43 22/1/22
f 22/1/22 43/1/43 44/1/44
f 46/1/46 45/1/45 4/1/4
f 45/1/45 46/1/46 47/1/47
f 42/1/42 19/1/19 9/1/9
f 19/1/19 42/1/42 21/1/21
f 48/1/48 39/1/39 38/1/38
f 39/1/39 48/1/48 49/1/49
f 41/1/41 9/1/9 10/1/10
f 9/1/9 41/1/41 42/1/42
f 50/1/50 38/1/38 37/1/37
f 38/1/38 50/1/50 48/1/48
f 47/1/47 51/1/51 45/1/45
f 51/1/51 47/1/47 52/1/52
f 53/1/53 49/1/49 48/1/48
f 49/1/49 53/1/53 54/1/54
f 49/1/49 5/1/5 39/1/39
f 5/1/5 49/1/49 7/1/7
f 55/1/55 15/1/15 16/1/16
f 15/1/15 55/1/55 56/1/56
f 57/1/57 3/1/3 8/1/8
f 3/1/3 57/1/57 58/1/58
f 59/1/59 35/1/35 34/1/34
f 35/1/35 59/1/59 60/1/60
f 61/1/61 32/1/32 31/1/31
f 32/1/32 61/1/61 62/1/62
f 18/1/18 13/1/13 16/1/16
f 13/1/13 18/1/18 40/1/40
f 28/1/28 64/1/64 63/1/63
f 64/1/64 28/1/28 29/1/29
f 62/1/62 34/1/34 32/1/32
f 34/1/34 62/1/62 59/1/59
f 45/1/45 44/1/44 43/1/43
f 44/1/44 45/1/45 51/1/51
f 24/1/24 66/1/66 65/1/65
f 66/1/66 24/1/24 26/1/26
f 69/1/69 68/1/68 67/1/67
f 68/1/68 69/1/69 70/1/70
f 72/1/72 71/1/71 66/1/66
f 71/1/71 72/1/72 73/1/73
f 67/1/67 74/1/74 64/1/64
f 74/1/74 67/1/67 68/1/68
f 4/1/4 43/1/43 2/1/2
f 43/1/43 4/1/4 45/1/45
f 75/1/75 37/1/37 36/1/36
f 37/1/37 75/1/75 50/1/50
f 76/1/76 8/1/8 7/1/7
f 8/1/8 76/1/76 57/1/57
f 26/1/26 72/1/72 66/1/66
f 72/1/72 26/1/26 27/1/27
f 77/1/77 31/1/31 25/1/25
f 31/1/31 77/1/77 61/1/61
f 14/1/14 16/1/16 13/1/13
f 16/1/16 14/1/14 55/1/55
f 53/1/53 50/1/50 78/1/78
f 50/1/50 53/1/53 48/1/48
f 30/1/30 69/1/69 67/1/67
f 69/1/69 30/1/30 33/1/33
f 54/1/54 7/1/7 49/1/49
f 7/1/7 54/1/54 76/1/76
f 33/1/33 15/1/15 69/1/69
f 15/1/15 33/1/33 17/1/17
f 56/1/56 69/1/69 15/1/15
f 69/1/69 56/1/56 70/1/70
f 58/1/58 4/1/4 3/1/3
f 4/1/4 58/1/58 46/1/46
f 63/1/63 73/1/73 72/1/72
f 73/1/73 63/1/63 79/1/79
f 80/1/80 9/1/9 19/1/19
f 9/1/9 80/1/80 11/1/11
f 78/1/78 75/1/75 81/1/81
f 75/1/75 78/1/78 50/1/50
f 82/1/82 19/1/19 20/1/20
f 19/1/19 82/1/82 80/1/80
f 40/1/40 10/1/10 13/1/13
f 10/1/10 40/1/40 41/1/41
f 84/1/84 61/1/61 83/1/83
f 61/1/61 84/1/84 62/1/62
f 60/1/60 36/1/36 35/1/35
f 36/1/36 60/1/60 75/1/75
f 81/1/81 60/1/60 85/1/85
f 60/1/60 81/1/81 75/1/75
f 29/1/29 67/1/67 64/1/64
f 67/1/67 29/1/29 30/1/30
f 86/1/86 62/1/62 84/1/84
f 62/1/62 86/1/86 59/1/59
f 23/1/23 65/1/65 87/1/87
f 65/1/65 23/1/23 24/1/24
f 64/1/64 79/1/79 63/1/63
f 79/1/79 64/1/64 74/1/74
f 83/1/83 77/1/77 88/1/88
f 77/1/77 83/1/83 61/1/61
f 66/1/66 89/1/89 65/1/65
f 89/1/89 66/1/66 71/1/71
f 27/1/27 63/1/63 72/1/72
f 63/1/63 27/1/27 28/1/28
f 65/1/65 90/1/90 87/1/87
f 90/1/90 65/1/65 89/1/89
f 85/1/85 59/1/59 86/1/86
f 59/1/59 85/1/85 60/1/60
f 93/2/91 92/2/92 91/2/91
f 92/2/92 93/2/91 94/2/92
f 90/2/93 96/2/93 95/2/93
f 96/2/93 90/2/93 97/2/93
f 97/2/93 90/2/93 98/2/93
f 98/2/93 90/2/93 89/2/93
f 98/2/93 89/2/93 99/2/93
f 99/2/93 89/2/93 71/2/93
f 99/2/93 71/2/93 73/2/93
f 99/2/93 73/2/93 100/2/93
f 100/2/93 73/2/93 79/2/93
f 100/2/93 79/2/93 74/2/93
f 100/2/93 74/2/93 101/2/93
f 101/2/93 74/2/93 68/2/93
f 101/2/93 68/2/93 102/2/93
f 102/2/93 68/2/93 70/2/93
f 102/2/93 70/2/93 103/2/93
f 103/2/93 70/2/93 56/2/93
f 103/2/93 56/2/93 104/2/93
f 104/2/93 56/2/93 55/2/93
f 104/2/93 55/2/93 105/2/93
f 105/2/93 55/2/93 14/2/93
f 105/2/93 14/2/93 106/2/93
f 106/2/93 14/2/93 12/2/93
f 106/2/93 12/2/93 107/2/93
f 107/2/93 12/2/93 11/2/93
f 107/2/93 11/2/93 108/2/93
f 108/2/93 11/2/93 80/2/93
f 108/2/93 80/2/93 109/2/93
f 109/2/93 80/2/93 82/2/93
f 112/2/94 111/2/94 110/2/94
f 111/2/94 112/2/94 113/2/94
f 111/2/94 113/2/94 114/2/94
f 111/2/94 114/2/94 115/2/94
f 111/2/94 115/2/94 116/2/94
f 111/2/94 116/2/94 117/2/94
f 111/2/94 117/2/94 118/2/94
f 111/2/94 118/2/94 119/2/94
f 111/2/94 119/2/94 120/2/94
f 111/2/94 120/2/94 121/2/94
f 111/2/94 121/2/94 122/2/94
f 122/2/94 121/2/94 123/2/94
f 123/2/94 121/2/94 124/2/94
f 123/2/94 124/2/94 125/2/94
f 125/2/94 124/2/94 126/2/94
f 126/2/94 124/2/94 127/2/94
f 127/2/94 124/2/94 128/2/94
f 128/2/94 124/2/94 129/2/94
f 129/2/94 124/2/94 130/2/94
f 129/2/94 130/2/94 131/2/94
f 131/2/94 130/2/94 92/2/94
f 92/2/94 130/2/94 91/2/94
f 91/2/94 130/2/94 132/2/94
f 91/2/94 132/2/94 133/2/94
f 133/2/94 132/2/94 134/2/94
f 134/2/94 132/2/94 135/2/94
f 135/2/94 132/2/94 136/2/94
f 135/2/94 136/2/94 137/2/94
f 138/2/95 134/2/96 135/2/95
f 134/2/96 138/2/95 139/2/96
f 140/2/97 129/2/98 131/2/97
f 129/2/98 140/2/97 141/2/98
f 127/2/100 142/2/99 126/2/99
f 142/2/99 127/2/100 143/2/100
f 139/2/96 133/2/101 134/2/96
f 133/2/101 139/2/96 144/2/101
f 145/2/102 135/2/95 137/2/102
f 135/2/95 145/2/102 138/2/95
f 107/2/103 132/2/104 130/2/103
f 132/2/104 107/2/103 108/2/104
f 144/2/101 91/2/91 133/2/101
f 91/2/91 144/2/101 93/2/91
f 125/2/106 146/2/105 123/2/105
f 146/2/105 125/2/106 147/2/106
f 98/2/107 115/2/108 114/2/107
f 115/2/108 98/2/107 99/2/108
f 108/2/104 136/2/109 132/2/104
f 136/2/109 108/2/104 109/2/109
f 105/2/110 124/2/111 121/2/110
f 124/2/111 105/2/110 106/2/111
f 97/2/112 114/2/107 113/2/112
f 114/2/107 97/2/112 98/2/107
f 99/2/108 116/2/113 115/2/108
f 116/2/113 99/2/108 100/2/113
f 129/2/98 148/2/114 128/2/114
f 148/2/114 129/2/98 141/2/98
f 101/2/115 116/2/113 100/2/113
f 116/2/113 101/2/115 117/2/115
f 103/2/116 120/2/117 119/2/116
f 120/2/117 103/2/116 104/2/117
f 102/2/118 117/2/115 101/2/115
f 117/2/115 102/2/118 118/2/118
f 94/2/92 131/2/97 92/2/92
f 131/2/97 94/2/92 140/2/97
f 122/2/120 149/2/119 111/2/119
f 149/2/119 122/2/120 150/2/120
f 128/2/114 143/2/100 127/2/100
f 143/2/100 128/2/114 148/2/114
f 96/2/122 110/2/121 95/2/121
f 110/2/121 96/2/122 112/2/122
f 149/2/93 83/2/93 88/2/93
f 83/2/93 149/2/93 84/2/93
f 84/2/93 149/2/93 86/2/93
f 86/2/93 149/2/93 85/2/93
f 85/2/93 149/2/93 81/2/93
f 81/2/93 149/2/93 150/2/93
f 81/2/93 150/2/93 146/2/93
f 81/2/93 146/2/93 78/2/93
f 78/2/93 146/2/93 147/2/93
f 78/2/93 147/2/93 142/2/93
f 78/2/93 142/2/93 53/2/93
f 53/2/93 142/2/93 143/2/93
f 53/2/93 143/2/93 148/2/93
f 53/2/93 148/2/93 54/2/93
f 54/2/93 148/2/93 141/2/93
f 54/2/93 141/2/93 76/2/93
f 76/2/93 141/2/93 140/2/93
f 76/2/93 140/2/93 94/2/93
f 76/2/93 94/2/93 57/2/93
f 57/2/93 94/2/93 93/2/93
f 57/2/93 93/2/93 58/2/93
f 58/2/93 93/2/93 144/2/93
f 58/2/93 144/2/93 46/2/93
f 46/2/93 144/2/93 139/2/93
f 46/2/93 139/2/93 47/2/93
f 47/2/93 139/2/93 138/2/93
f 47/2/93 138/2/93 52/2/93
f 52/2/93 138/2/93 145/2/93
f 104/2/117 121/2/110 120/2/117
f 121/2/110 104/2/117 105/2/110
f 145/2/119 51/2/119 52/2/119
f 137/2/119 51/2/119 145/2/119
f 51/2/119 137/2/119 136/2/119
f 51/2/119 136/2/119 44/2/119
f 44/2/119 136/2/119 22/2/119
f 22/2/119 136/2/119 20/2/119
f 20/2/119 136/2/119 82/2/119
f 82/2/119 136/2/119 109/2/119
f 106/2/111 130/2/103 124/2/111
f 130/2/103 106/2/111 107/2/103
f 102/2/118 119/2/116 118/2/118
f 119/2/116 102/2/118 103/2/116
f 96/2/122 113/2/112 112/2/122
f 113/2/112 96/2/122 97/2/112
f 123/2/105 150/2/120 122/2/120
f 150/2/120 123/2/105 146/2/105
f 126/2/99 147/2/106 125/2/106
f 147/2/106 126/2/99 142/2/99
f 77/2/102 149/2/102 88/2/102
f 77/2/102 111/2/102 149/2/102
f 111/2/102 77/2/102 110/2/102
f 110/2/102 77/2/102 25/2/102
f 23/2/102 110/2/102 25/2/102
f 87/2/102 110/2/102 23/2/102
f 110/2/102 87/2/102 95/2/102
f 95/2/102 87/2/102 90/2/102

