# Created by Kenney (www.kenney.nl)

mtllib curve.mtl

g curve

v -0.06814834 1.602965E-31 -0.6140144 1 1 1
v -0.06814834 0.5 -0.6140144 1 1 1
v -0.1998008 1.602965E-31 -0.3859856 1 1 1
v -0.1998008 0.5 -0.3859856 1 1 1
v 1 0.5 -0.736695 1 1 1
v 0.8637033 0.5 -0.2280288 1 1 1
v 1 0.5 -1 1 1 1
v 0.85 0.5 -1 1 1 1
v 0.85 0.5 -0.7564428 1 1 1
v 0.6003983 0.5 0.2280288 1 1 1
v 0.7239256 0.5 -0.2859267 1 1 1
v 0.4803684 0.5 0.1359267 1 1 1
v 0.2280288 0.5 0.6003983 1 1 1
v 0.1359267 0.5 0.4803684 1 1 1
v -0.2280288 0.5 0.8637033 1 1 1
v -0.2859267 0.5 0.7239256 1 1 1
v -0.736695 0.5 1 1 1 1
v -0.7564428 0.5 0.85 1 1 1
v -1 0.5 1 1 1 1
v -1 0.5 0.85 1 1 1
v -0.3859856 2.404448E-31 -0.1998008 1 1 1
v -0.3859856 0.5 -0.1998008 1 1 1
v -0.8683475 3.205931E-31 1.732587E-14 1 1 1
v -0.6140144 3.205931E-31 -0.06814834 1 1 1
v -0.8683475 0.5 1.732587E-14 1 1 1
v -0.6140144 0.5 -0.06814834 1 1 1
v 1 0 -1 1 1 1
v 1 1.602965E-31 -0.736695 1 1 1
v 0.6003983 1.602965E-31 0.2280288 1 1 1
v 0.2280288 2.404448E-31 0.6003983 1 1 1
v 0.15 0.5 -1 1 1 1
v -3.862226E-14 0.5 -1 1 1 1
v 0.2125 0.3125 -1 1 1 1
v -3.862226E-14 0 -1 1 1 1
v 0.4 0.25 -1 1 1 1
v 0.6 0.25 -1 1 1 1
v 0.7875 0.3125 -1 1 1 1
v -1 3.205931E-31 1.155058E-14 1 1 1
v -1 0.5 1.155058E-14 1 1 1
v -3.645653E-14 1.602965E-31 -0.8683475 1 1 1
v -3.645653E-14 0.5 -0.8683475 1 1 1
v 0.15 0.5 -0.8485997 1 1 1
v 0.07162941 0.5 -0.5561166 1 1 1
v -0.07977097 0.5 -0.2938834 1 1 1
v -0.2938834 0.5 -0.07977097 1 1 1
v -0.5561166 0.5 0.07162941 1 1 1
v -0.8485997 0.5 0.15 1 1 1
v -1 0.5 0.15 1 1 1
v -1 0.3125 0.2125 1 1 1
v -1 3.205931E-31 1 1 1 1
v -1 0.25 0.4 1 1 1
v -1 0.25 0.6 1 1 1
v -1 0.3125 0.7875 1 1 1
v 0.8637033 1.602965E-31 -0.2280288 1 1 1
v -0.736695 3.205931E-31 1 1 1 1
v -0.2280288 3.205931E-31 0.8637033 1 1 1
v 0.1202788 0.25 -0.1403798 1 1 1
v -0.1403798 0.25 0.1202788 1 1 1
v -0.02975852 0.3125 -0.2555075 1 1 1
v -0.2555075 0.3125 -0.02975852 1 1 1
v 0.3045923 0.25 -0.4596201 1 1 1
v 0.1298701 0.3125 -0.5319925 1 1 1
v 0.430356 0.3125 0.09755076 1 1 1
v 0.09755076 0.3125 0.430356 1 1 1
v 0.2803186 0.25 -0.01757695 1 1 1
v -0.01757695 0.25 0.2803186 1 1 1
v 0.6656848 0.3125 -0.3100508 1 1 1
v -0.4596201 0.25 0.3045923 1 1 1
v -0.5319925 0.3125 0.1298701 1 1 1
v -0.8403714 0.3125 0.2125 1 1 1
v 0.4 0.25 -0.8156865 1 1 1
v 0.2125 0.3125 -0.8403714 1 1 1
v 0.7875 0.3125 -0.7646711 1 1 1
v 0.6 0.25 -0.789356 1 1 1
v -0.7646711 0.3125 0.7875 1 1 1
v 0.4909627 0.25 -0.382423 1 1 1
v -0.789356 0.25 0.6 1 1 1
v -0.382423 0.25 0.4909627 1 1 1
v -0.8156865 0.25 0.4 1 1 1
v -0.3100508 0.3125 0.6656848 1 1 1

vn -0.9238795 0 -0.3826834
vn -0.7933533 0 -0.6087614
vn 0 1 0
vn -0.6087614 0 -0.7933533
vn -0.1305262 0 -0.9914449
vn -0.3826834 0 -0.9238795
vn 1 0 0
vn 0.9914449 0 0.1305262
vn 0.7933533 0 0.6087614
vn 0.6087614 0 0.7933533
vn 0 0 -1
vn -1 0 0
vn -0.9914449 0 -0.1305262
vn 0.9238795 0 0.3826834
vn 0 -1 0
vn 0.3826834 0 0.9238795
vn 0.1305262 0 0.9914449
vn 0 0 1
vn 0.115794 0.9892913 0.08885183
vn 0.08885183 0.9892913 0.115794
vn 0.5439035 0.7280018 0.4173518
vn 0.4173518 0.7280018 0.5439035
vn 0.1348449 0.9892913 0.0558546
vn 0.633389 0.7280018 0.2623583
vn -0.5736365 0.6907925 -0.4401667
vn -0.4401667 0.6907925 -0.5736365
vn -0.1362715 0.9851377 -0.1045648
vn -0.1045648 0.9851377 -0.1362715
vn -0.6680139 0.6907926 -0.2767004
vn -0.8757104 0.3186804 -0.3627311
vn -0.7519897 0.3186804 -0.577022
vn 0.0558546 0.9892913 0.1348449
vn 0.2623583 0.7280018 0.6333889
vn 0.08948553 0.7280018 0.6797101
vn 0.3627311 0.3186804 0.8757104
vn 0.1237209 0.3186804 0.9397532
vn 0.1447064 0.9892913 0.01905096
vn 0.6797101 0.7280018 0.08948553
vn 0.1601822 0.9870875 0
vn 0.7071068 0.7071068 0
vn -0.7168672 0.6907926 -0.09437736
vn -0.170297 0.9851377 -0.02242002
vn -0.7071068 0.7071068 0
vn -0.1601822 0.9870875 0
vn 0 0.7071068 -0.7071068
vn -0.09437736 0.6907926 -0.7168672
vn 0 0.3162278 -0.9486833
vn -0.1237209 0.3186804 -0.9397532
vn 0.9397532 0.3186805 0.1237208
vn 0.8757104 0.3186804 0.3627311
vn -0.9397532 0.3186805 -0.1237208
vn -0.1586915 0.9851377 -0.06573217
vn 0.7519897 0.3186804 0.577022
vn -0.02242002 0.9851377 -0.170297
vn 0 0.9870875 -0.1601822
vn 0 0.7071068 0.7071068
vn 0 0.3162278 0.9486833
vn -0.06573217 0.9851377 -0.1586915
vn 0.01905096 0.9892913 0.1447064
vn 0 0.9870875 0.1601822
vn 0.577022 0.3186804 0.7519897
vn -0.2767004 0.6907926 -0.6680139
vn -0.3627311 0.3186804 -0.8757104
vn -0.577022 0.3186804 -0.7519897
vn 0.9486833 0.3162278 0
vn -0.9486833 0.3162278 0

vt 0.90625 0.375
vt 0.28125 0.375

usemtl colormap

f 3/1/2 2/1/1 1/1/1
f 2/1/1 3/1/2 4/1/2
f 7/1/3 6/1/3 5/1/3
f 6/1/3 7/1/3 8/1/3
f 6/1/3 8/1/3 9/1/3
f 9/1/3 10/1/3 6/1/3
f 10/1/3 9/1/3 11/1/3
f 10/1/3 11/1/3 12/1/3
f 10/1/3 12/1/3 13/1/3
f 13/1/3 12/1/3 14/1/3
f 13/1/3 14/1/3 15/1/3
f 15/1/3 14/1/3 16/1/3
f 15/1/3 16/1/3 17/1/3
f 17/1/3 16/1/3 18/1/3
f 17/1/3 18/1/3 19/1/3
f 19/1/3 18/1/3 20/1/3
f 21/1/4 4/1/2 3/1/2
f 4/1/2 21/1/4 22/1/4
f 25/1/5 24/1/6 23/1/5
f 24/1/6 25/1/5 26/1/6
f 5/1/8 27/1/7 7/1/7
f 27/1/7 5/1/8 28/1/8
f 13/1/10 29/1/9 10/1/9
f 29/1/9 13/1/10 30/1/10
f 33/1/11 32/1/11 31/1/11
f 33/1/11 34/1/11 32/1/11
f 34/1/11 33/1/11 27/1/11
f 27/1/11 33/1/11 35/1/11
f 36/1/11 27/1/11 35/1/11
f 37/1/11 27/1/11 36/1/11
f 27/1/11 37/1/11 7/1/11
f 7/1/11 37/1/11 8/1/11
f 39/1/11 23/1/5 38/1/11
f 23/1/5 39/1/11 25/1/5
f 40/1/13 32/1/12 34/1/12
f 32/1/12 40/1/13 41/1/13
f 31/1/3 43/1/3 42/1/3
f 43/1/3 31/1/3 32/1/3
f 43/1/3 32/1/3 41/1/3
f 41/1/3 44/1/3 43/1/3
f 44/1/3 41/1/3 2/1/3
f 44/1/3 2/1/3 4/1/3
f 44/1/3 4/1/3 45/1/3
f 45/1/3 4/1/3 22/1/3
f 45/1/3 22/1/3 46/1/3
f 46/1/3 22/1/3 26/1/3
f 46/1/3 26/1/3 47/1/3
f 47/1/3 26/1/3 25/1/3
f 47/1/3 25/1/3 48/1/3
f 48/1/3 25/1/3 39/1/3
f 39/1/12 49/1/12 48/1/12
f 38/1/12 49/1/12 39/1/12
f 49/1/12 38/1/12 50/1/12
f 49/1/12 50/1/12 51/1/12
f 51/1/12 50/1/12 52/1/12
f 52/1/12 50/1/12 53/1/12
f 53/1/12 50/1/12 20/1/12
f 20/1/12 50/1/12 19/1/12
f 10/1/9 54/1/14 6/1/14
f 54/1/14 10/1/9 29/1/9
f 23/1/15 50/1/15 38/1/15
f 23/1/15 55/1/15 50/1/15
f 24/1/15 55/1/15 23/1/15
f 21/1/15 55/1/15 24/1/15
f 21/1/15 56/1/15 55/1/15
f 3/1/15 56/1/15 21/1/15
f 1/1/15 56/1/15 3/1/15
f 40/1/15 56/1/15 1/1/15
f 56/1/15 40/1/15 30/1/15
f 34/1/15 30/1/15 40/1/15
f 34/1/15 29/1/15 30/1/15
f 34/1/15 54/1/15 29/1/15
f 27/1/15 54/1/15 34/1/15
f 54/1/15 27/1/15 28/1/15
f 6/1/14 28/1/8 5/1/8
f 28/1/8 6/1/14 54/1/14
f 15/1/16 55/1/17 56/1/16
f 55/1/17 15/1/16 17/1/17
f 17/1/17 50/1/18 55/1/17
f 50/1/18 17/1/17 19/1/18
f 24/1/6 22/1/4 21/1/4
f 22/1/4 24/1/6 26/1/6
f 13/1/10 56/1/16 30/1/10
f 56/1/16 13/1/10 15/1/16
f 1/1/1 41/1/13 40/1/13
f 41/1/13 1/1/1 2/1/1
f 59/2/21 58/2/20 57/2/19
f 58/2/20 59/2/21 60/2/22
f 62/2/24 57/2/19 61/2/23
f 57/2/19 62/2/24 59/2/21
f 65/2/27 64/2/26 63/2/25
f 64/2/26 65/2/27 66/2/28
f 63/2/25 11/2/30 67/2/29
f 11/2/30 63/2/25 12/2/31
f 60/2/22 68/2/32 58/2/20
f 68/2/32 60/2/22 69/2/33
f 46/2/35 70/2/34 69/2/33
f 70/2/34 46/2/35 47/2/36
f 35/2/39 72/2/38 71/2/37
f 72/2/38 35/2/39 33/2/40
f 37/2/43 74/2/42 73/2/41
f 74/2/42 37/2/43 36/2/44
f 20/2/47 75/2/46 53/2/45
f 75/2/46 20/2/47 18/2/48
f 43/2/50 72/2/38 42/2/49
f 72/2/38 43/2/50 62/2/24
f 67/2/29 9/2/51 73/2/41
f 9/2/51 67/2/29 11/2/30
f 74/2/42 67/2/29 73/2/41
f 67/2/29 74/2/42 76/2/52
f 44/2/53 62/2/24 43/2/50
f 62/2/24 44/2/53 59/2/21
f 77/2/54 53/2/45 75/2/46
f 53/2/45 77/2/54 52/2/55
f 47/2/36 49/2/56 70/2/34
f 49/2/56 47/2/36 48/2/57
f 36/2/44 76/2/52 74/2/42
f 76/2/52 36/2/44 35/2/39
f 76/2/52 35/2/39 71/2/37
f 71/2/37 65/2/27 76/2/52
f 65/2/27 71/2/37 61/2/23
f 65/2/27 61/2/23 57/2/19
f 65/2/27 57/2/19 66/2/28
f 66/2/28 57/2/19 58/2/20
f 66/2/28 58/2/20 78/2/58
f 78/2/58 58/2/20 68/2/32
f 78/2/58 68/2/32 77/2/54
f 77/2/54 68/2/32 79/2/59
f 77/2/54 79/2/59 52/2/55
f 52/2/55 79/2/59 51/2/60
f 44/2/53 60/2/22 59/2/21
f 60/2/22 44/2/53 45/2/61
f 16/2/63 64/2/26 80/2/62
f 64/2/26 16/2/63 14/2/64
f 45/2/61 69/2/33 60/2/22
f 69/2/33 45/2/61 46/2/35
f 78/2/58 75/2/46 80/2/62
f 75/2/46 78/2/58 77/2/54
f 31/2/65 72/2/38 33/2/40
f 72/2/38 31/2/65 42/2/49
f 18/2/48 80/2/62 75/2/46
f 80/2/62 18/2/48 16/2/63
f 69/2/33 79/2/59 68/2/32
f 79/2/59 69/2/33 70/2/34
f 70/2/34 51/2/60 79/2/59
f 51/2/60 70/2/34 49/2/56
f 72/2/38 61/2/23 71/2/37
f 61/2/23 72/2/38 62/2/24
f 66/2/28 80/2/62 64/2/26
f 80/2/62 66/2/28 78/2/58
f 76/2/52 63/2/25 67/2/29
f 63/2/25 76/2/52 65/2/27
f 64/2/26 12/2/31 63/2/25
f 12/2/31 64/2/26 14/2/64
f 37/2/43 9/2/51 8/2/66
f 9/2/51 37/2/43 73/2/41

g curve




usemtl colormap

f 3/1/2 2/1/1 1/1/1
f 2/1/1 3/1/2 4/1/2
f 7/1/3 6/1/3 5/1/3
f 6/1/3 7/1/3 8/1/3
f 6/1/3 8/1/3 9/1/3
f 9/1/3 10/1/3 6/1/3
f 10/1/3 9/1/3 11/1/3
f 10/1/3 11/1/3 12/1/3
f 10/1/3 12/1/3 13/1/3
f 13/1/3 12/1/3 14/1/3
f 13/1/3 14/1/3 15/1/3
f 15/1/3 14/1/3 16/1/3
f 15/1/3 16/1/3 17/1/3
f 17/1/3 16/1/3 18/1/3
f 17/1/3 18/1/3 19/1/3
f 19/1/3 18/1/3 20/1/3
f 21/1/4 4/1/2 3/1/2
f 4/1/2 21/1/4 22/1/4
f 25/1/5 24/1/6 23/1/5
f 24/1/6 25/1/5 26/1/6
f 5/1/8 27/1/7 7/1/7
f 27/1/7 5/1/8 28/1/8
f 13/1/10 29/1/9 10/1/9
f 29/1/9 13/1/10 30/1/10
f 33/1/11 32/1/11 31/1/11
f 33/1/11 34/1/11 32/1/11
f 34/1/11 33/1/11 27/1/11
f 27/1/11 33/1/11 35/1/11
f 36/1/11 27/1/11 35/1/11
f 37/1/11 27/1/11 36/1/11
f 27/1/11 37/1/11 7/1/11
f 7/1/11 37/1/11 8/1/11
f 39/1/11 23/1/5 38/1/11
f 23/1/5 39/1/11 25/1/5
f 40/1/13 32/1/12 34/1/12
f 32/1/12 40/1/13 41/1/13
f 31/1/3 43/1/3 42/1/3
f 43/1/3 31/1/3 32/1/3
f 43/1/3 32/1/3 41/1/3
f 41/1/3 44/1/3 43/1/3
f 44/1/3 41/1/3 2/1/3
f 44/1/3 2/1/3 4/1/3
f 44/1/3 4/1/3 45/1/3
f 45/1/3 4/1/3 22/1/3
f 45/1/3 22/1/3 46/1/3
f 46/1/3 22/1/3 26/1/3
f 46/1/3 26/1/3 47/1/3
f 47/1/3 26/1/3 25/1/3
f 47/1/3 25/1/3 48/1/3
f 48/1/3 25/1/3 39/1/3
f 39/1/12 49/1/12 48/1/12
f 38/1/12 49/1/12 39/1/12
f 49/1/12 38/1/12 50/1/12
f 49/1/12 50/1/12 51/1/12
f 51/1/12 50/1/12 52/1/12
f 52/1/12 50/1/12 53/1/12
f 53/1/12 50/1/12 20/1/12
f 20/1/12 50/1/12 19/1/12
f 10/1/9 54/1/14 6/1/14
f 54/1/14 10/1/9 29/1/9
f 23/1/15 50/1/15 38/1/15
f 23/1/15 55/1/15 50/1/15
f 24/1/15 55/1/15 23/1/15
f 21/1/15 55/1/15 24/1/15
f 21/1/15 56/1/15 55/1/15
f 3/1/15 56/1/15 21/1/15
f 1/1/15 56/1/15 3/1/15
f 40/1/15 56/1/15 1/1/15
f 56/1/15 40/1/15 30/1/15
f 34/1/15 30/1/15 40/1/15
f 34/1/15 29/1/15 30/1/15
f 34/1/15 54/1/15 29/1/15
f 27/1/15 54/1/15 34/1/15
f 54/1/15 27/1/15 28/1/15
f 6/1/14 28/1/8 5/1/8
f 28/1/8 6/1/14 54/1/14
f 15/1/16 55/1/17 56/1/16
f 55/1/17 15/1/16 17/1/17
f 17/1/17 50/1/18 55/1/17
f 50/1/18 17/1/17 19/1/18
f 24/1/6 22/1/4 21/1/4
f 22/1/4 24/1/6 26/1/6
f 13/1/10 56/1/16 30/1/10
f 56/1/16 13/1/10 15/1/16
f 1/1/1 41/1/13 40/1/13
f 41/1/13 1/1/1 2/1/1
f 59/2/21 58/2/20 57/2/19
f 58/2/20 59/2/21 60/2/22
f 62/2/24 57/2/19 61/2/23
f 57/2/19 62/2/24 59/2/21
f 65/2/27 64/2/26 63/2/25
f 64/2/26 65/2/27 66/2/28
f 63/2/25 11/2/30 67/2/29
f 11/2/30 63/2/25 12/2/31
f 60/2/22 68/2/32 58/2/20
f 68/2/32 60/2/22 69/2/33
f 46/2/35 70/2/34 69/2/33
f 70/2/34 46/2/35 47/2/36
f 35/2/39 72/2/38 71/2/37
f 72/2/38 35/2/39 33/2/40
f 37/2/43 74/2/42 73/2/41
f 74/2/42 37/2/43 36/2/44
f 20/2/47 75/2/46 53/2/45
f 75/2/46 20/2/47 18/2/48
f 43/2/50 72/2/38 42/2/49
f 72/2/38 43/2/50 62/2/24
f 67/2/29 9/2/51 73/2/41
f 9/2/51 67/2/29 11/2/30
f 74/2/42 67/2/29 73/2/41
f 67/2/29 74/2/42 76/2/52
f 44/2/53 62/2/24 43/2/50
f 62/2/24 44/2/53 59/2/21
f 77/2/54 53/2/45 75/2/46
f 53/2/45 77/2/54 52/2/55
f 47/2/36 49/2/56 70/2/34
f 49/2/56 47/2/36 48/2/57
f 36/2/44 76/2/52 74/2/42
f 76/2/52 36/2/44 35/2/39
f 76/2/52 35/2/39 71/2/37
f 71/2/37 65/2/27 76/2/52
f 65/2/27 71/2/37 61/2/23
f 65/2/27 61/2/23 57/2/19
f 65/2/27 57/2/19 66/2/28
f 66/2/28 57/2/19 58/2/20
f 66/2/28 58/2/20 78/2/58
f 78/2/58 58/2/20 68/2/32
f 78/2/58 68/2/32 77/2/54
f 77/2/54 68/2/32 79/2/59
f 77/2/54 79/2/59 52/2/55
f 52/2/55 79/2/59 51/2/60
f 44/2/53 60/2/22 59/2/21
f 60/2/22 44/2/53 45/2/61
f 16/2/63 64/2/26 80/2/62
f 64/2/26 16/2/63 14/2/64
f 45/2/61 69/2/33 60/2/22
f 69/2/33 45/2/61 46/2/35
f 78/2/58 75/2/46 80/2/62
f 75/2/46 78/2/58 77/2/54
f 31/2/65 72/2/38 33/2/40
f 72/2/38 31/2/65 42/2/49
f 18/2/48 80/2/62 75/2/46
f 80/2/62 18/2/48 16/2/63
f 69/2/33 79/2/59 68/2/32
f 79/2/59 69/2/33 70/2/34
f 70/2/34 51/2/60 79/2/59
f 51/2/60 70/2/34 49/2/56
f 72/2/38 61/2/23 71/2/37
f 61/2/23 72/2/38 62/2/24
f 66/2/28 80/2/62 64/2/26
f 80/2/62 66/2/28 78/2/58
f 76/2/52 63/2/25 67/2/29
f 63/2/25 76/2/52 65/2/27
f 64/2/26 12/2/31 63/2/25
f 12/2/31 64/2/26 14/2/64
f 37/2/43 9/2/51 8/2/66
f 9/2/51 37/2/43 73/2/41

