# Created by Kenney (www.kenney.nl)

mtllib end-hole-rounded.mtl

g end-hole-rounded

v -0.35 0 0.5 1 1 1
v -0.4625 0 0.4625 1 1 1
v -0.35 0.5 0.5 1 1 1
v -0.4625 0.5 0.4625 1 1 1
v 0 0 0.25 1 1 1
v 0.09567086 0 0.2309699 1 1 1
v 0 0.3 0.25 1 1 1
v 0.09567086 0.2936566 0.2309699 1 1 1
v 0.1767767 0 -0.1767767 1 1 1
v 0.09567086 0 -0.2309699 1 1 1
v 0.1767767 0.2755922 -0.1767767 1 1 1
v 0.1 0.25 -0.2280772 1 1 1
v 0.09567086 0.25 -0.2309699 1 1 1
v -0.09567086 0 -0.2309699 1 1 1
v -0.1767767 0 -0.1767767 1 1 1
v -0.09567086 0.25 -0.2309699 1 1 1
v -0.1 0.25 -0.2280772 1 1 1
v -0.1767767 0.2755922 -0.1767767 1 1 1
v -0.09567086 0 0.2309699 1 1 1
v -0.09567086 0.2936566 0.2309699 1 1 1
v -0.2309699 0.2936566 -0.09567086 1 1 1
v -0.2309699 0 -0.09567086 1 1 1
v -0.25 0.3 -1.443823E-15 1 1 1
v -0.25 0 -2.887646E-15 1 1 1
v 0.2309699 0.2936566 -0.09567086 1 1 1
v 0.25 0.3 0 1 1 1
v 0.2309699 0 -0.09567086 1 1 1
v 0.25 0 -1.443823E-15 1 1 1
v 0.5 0.5 -0.5 1 1 1
v 0.5 0 -0.5 1 1 1
v 0.5 0.5 0.35 1 1 1
v 0.5 0 0.35 1 1 1
v -0.5 0 0.35 1 1 1
v -0.5 0.5 0.35 1 1 1
v 0.1767767 0 0.1767767 1 1 1
v 0.1767767 0.2755922 0.1767767 1 1 1
v -0.5 0 -0.5 1 1 1
v -0.5 0.5 -0.5 1 1 1
v -0.35 0.5 -0.5 1 1 1
v -0.2875 0.3125 -0.5 1 1 1
v -0.1 0.25 -0.5 1 1 1
v 0.1 0.25 -0.5 1 1 1
v 0.2875 0.3125 -0.5 1 1 1
v 0.35 0.5 -0.5 1 1 1
v -0.2309699 0.2936566 0.09567086 1 1 1
v -0.2309699 0 0.09567086 1 1 1
v -0.1767767 0.2755922 0.1767767 1 1 1
v -0.1767767 0 0.1767767 1 1 1
v 0 0 -0.25 1 1 1
v 0 0.25 -0.25 1 1 1
v 0.4625 0.5 0.4625 1 1 1
v 0.4625 0 0.4625 1 1 1
v 0.35 0 0.5 1 1 1
v 0.35 0.5 0.5 1 1 1
v 0.2309699 0 0.09567086 1 1 1
v 0.2309699 0.2936566 0.09567086 1 1 1
v -0.35 0.5 0.35 1 1 1
v 0.35 0.5 0.35 1 1 1
v -0.2875 0.3125 0.2875 1 1 1
v 0.2875 0.3125 0.2875 1 1 1

vn -0.3162278 0 0.9486833
vn -0.7071068 0 0.7071068
vn 0 0 -1
vn -0.3826834 0 -0.9238795
vn -0.3675571 0 -0.930001
vn -0.3826834 0 0.9238795
vn -0.7276725 0 0.6859247
vn -0.5555702 0 0.8314696
vn 0.3826834 0 0.9238795
vn 0.7071068 0 0.7071068
vn 0.5555702 0 0.8314696
vn 0.7276725 0 0.6859247
vn 0.3826834 0 -0.9238795
vn 0.3675571 0 -0.930001
vn 0.930001 0 0.3675571
vn 0.9238795 0 0.3826834
vn 1 0 0
vn -0.930001 0 0.3675571
vn -1 0 0
vn -0.9238795 0 0.3826834
vn -0.9486833 0 0.3162278
vn -0.7071068 0 -0.7071068
vn 0.930001 0 -0.3675571
vn 0.9238795 0 -0.3826834
vn 0.7071068 0 -0.7071068
vn 0 0 1
vn 0.9486833 0 0.3162278
vn 0.3162278 0 0.9486833
vn -0.9238795 0 -0.3826834
vn -0.930001 0 -0.3675571
vn 0 -1 0
vn 0 1 0
vn 0.1601822 0.9870875 0
vn 0.2190823 0.9757063 0
vn 0.7071068 0.7071068 0
vn 0.3162278 0.9486833 0
vn 0.5135409 0.6874238 -0.5135409
vn 0.1622214 0.9733285 -0.1622214
vn -0.1622214 0.9733285 -0.1622214
vn -0.5135409 0.6874238 -0.5135409
vn 0 0.9486833 -0.3162278
vn 0.9486833 0.3162278 0
vn 0.6396021 0.4264015 -0.6396021
vn -0.2190823 0.9757063 0
vn -0.1601822 0.9870875 0
vn -0.3162278 0.9486833 0
vn -0.7071068 0.7071068 0
vn -0.9486833 0.3162278 0
vn -0.6396021 0.4264015 -0.6396021

vt 0.90625 0.375
vt 0.28125 0.375

usemtl colormap

f 3/1/1 2/1/2 1/1/1
f 2/1/2 3/1/1 4/1/2
f 7/1/3 6/1/4 5/1/3
f 6/1/4 7/1/3 8/1/5
f 11/1/7 10/1/6 9/1/2
f 10/1/6 11/1/7 12/1/8
f 10/1/6 12/1/8 13/1/6
f 16/1/9 15/1/10 14/1/9
f 15/1/10 16/1/9 17/1/11
f 15/1/10 17/1/11 18/1/12
f 20/1/14 5/1/3 19/1/13
f 5/1/3 20/1/14 7/1/3
f 23/1/17 22/1/16 21/1/15
f 22/1/16 23/1/17 24/1/17
f 27/1/20 26/1/19 25/1/18
f 26/1/19 27/1/20 28/1/19
f 21/1/15 15/1/10 18/1/12
f 15/1/10 21/1/15 22/1/16
f 31/1/17 30/1/17 29/1/17
f 30/1/17 31/1/17 32/1/17
f 2/1/2 34/1/21 33/1/21
f 34/1/21 2/1/2 4/1/2
f 8/1/5 35/1/22 6/1/4
f 35/1/22 8/1/5 36/1/22
f 33/1/19 38/1/19 37/1/19
f 38/1/19 33/1/19 34/1/19
f 40/1/3 38/1/3 39/1/3
f 40/1/3 37/1/3 38/1/3
f 37/1/3 40/1/3 30/1/3
f 30/1/3 40/1/3 41/1/3
f 42/1/3 30/1/3 41/1/3
f 43/1/3 30/1/3 42/1/3
f 30/1/3 43/1/3 29/1/3
f 29/1/3 43/1/3 44/1/3
f 47/1/25 46/1/24 45/1/23
f 46/1/24 47/1/25 48/1/25
f 50/1/26 14/1/9 49/1/26
f 14/1/9 50/1/26 16/1/9
f 13/1/6 49/1/26 10/1/6
f 49/1/26 13/1/6 50/1/26
f 23/1/17 46/1/24 24/1/17
f 46/1/24 23/1/17 45/1/23
f 51/1/10 32/1/27 31/1/27
f 32/1/27 51/1/10 52/1/10
f 51/1/10 53/1/28 52/1/10
f 53/1/28 51/1/10 54/1/28
f 35/1/22 56/1/30 55/1/29
f 56/1/30 35/1/22 36/1/22
f 52/1/31 30/1/31 32/1/31
f 30/1/31 52/1/31 27/1/31
f 27/1/31 52/1/31 53/1/31
f 30/1/31 27/1/31 9/1/31
f 30/1/31 9/1/31 10/1/31
f 30/1/31 10/1/31 37/1/31
f 37/1/31 10/1/31 49/1/31
f 27/1/31 53/1/31 28/1/31
f 37/1/31 49/1/31 14/1/31
f 53/1/31 55/1/31 28/1/31
f 55/1/31 53/1/31 35/1/31
f 35/1/31 53/1/31 6/1/31
f 6/1/31 53/1/31 1/1/31
f 37/1/31 14/1/31 15/1/31
f 6/1/31 1/1/31 5/1/31
f 37/1/31 15/1/31 22/1/31
f 5/1/31 1/1/31 19/1/31
f 19/1/31 1/1/31 48/1/31
f 48/1/31 1/1/31 46/1/31
f 46/1/31 1/1/31 24/1/31
f 37/1/31 22/1/31 24/1/31
f 37/1/31 24/1/31 1/1/31
f 37/1/31 1/1/31 2/1/31
f 37/1/31 2/1/31 33/1/31
f 38/1/32 57/1/32 39/1/32
f 57/1/32 38/1/32 3/1/32
f 3/1/32 38/1/32 4/1/32
f 4/1/32 38/1/32 34/1/32
f 54/1/32 57/1/32 3/1/32
f 54/1/32 58/1/32 57/1/32
f 54/1/32 44/1/32 58/1/32
f 51/1/32 44/1/32 54/1/32
f 31/1/32 44/1/32 51/1/32
f 44/1/32 31/1/32 29/1/32
f 47/1/25 19/1/13 48/1/25
f 19/1/13 47/1/25 20/1/14
f 54/1/26 1/1/26 53/1/26
f 1/1/26 54/1/26 3/1/26
f 9/1/2 25/1/18 11/1/7
f 25/1/18 9/1/2 27/1/20
f 55/1/29 26/1/19 28/1/19
f 26/1/19 55/1/29 56/1/30
f 40/2/35 17/2/34 41/2/33
f 17/2/34 40/2/35 18/2/36
f 18/2/36 40/2/35 21/2/36
f 21/2/36 40/2/35 23/2/36
f 59/2/37 23/2/36 40/2/35
f 59/2/37 45/2/36 23/2/36
f 45/2/36 59/2/37 47/2/38
f 8/2/41 60/2/40 36/2/39
f 7/2/41 60/2/40 8/2/41
f 60/2/40 7/2/41 59/2/37
f 59/2/37 7/2/41 20/2/41
f 59/2/37 20/2/41 47/2/38
f 57/2/43 40/2/35 39/2/42
f 40/2/35 57/2/43 59/2/37
f 11/2/46 42/2/45 12/2/44
f 25/2/46 42/2/45 11/2/46
f 25/2/46 43/2/47 42/2/45
f 26/2/46 43/2/47 25/2/46
f 43/2/47 26/2/46 60/2/40
f 56/2/46 60/2/40 26/2/46
f 60/2/40 56/2/46 36/2/39
f 42/2/45 13/2/32 12/2/44
f 13/2/32 42/2/45 41/2/33
f 13/2/32 41/2/33 50/2/32
f 50/2/32 41/2/33 16/2/32
f 16/2/32 41/2/33 17/2/34
f 60/2/40 44/2/48 43/2/47
f 44/2/48 60/2/40 58/2/49
f 59/2/37 58/2/49 60/2/40
f 58/2/49 59/2/37 57/2/43

g end-hole-rounded




usemtl colormap

f 3/1/1 2/1/2 1/1/1
f 2/1/2 3/1/1 4/1/2
f 7/1/3 6/1/4 5/1/3
f 6/1/4 7/1/3 8/1/5
f 11/1/7 10/1/6 9/1/2
f 10/1/6 11/1/7 12/1/8
f 10/1/6 12/1/8 13/1/6
f 16/1/9 15/1/10 14/1/9
f 15/1/10 16/1/9 17/1/11
f 15/1/10 17/1/11 18/1/12
f 20/1/14 5/1/3 19/1/13
f 5/1/3 20/1/14 7/1/3
f 23/1/17 22/1/16 21/1/15
f 22/1/16 23/1/17 24/1/17
f 27/1/20 26/1/19 25/1/18
f 26/1/19 27/1/20 28/1/19
f 21/1/15 15/1/10 18/1/12
f 15/1/10 21/1/15 22/1/16
f 31/1/17 30/1/17 29/1/17
f 30/1/17 31/1/17 32/1/17
f 2/1/2 34/1/21 33/1/21
f 34/1/21 2/1/2 4/1/2
f 8/1/5 35/1/22 6/1/4
f 35/1/22 8/1/5 36/1/22
f 33/1/19 38/1/19 37/1/19
f 38/1/19 33/1/19 34/1/19
f 40/1/3 38/1/3 39/1/3
f 40/1/3 37/1/3 38/1/3
f 37/1/3 40/1/3 30/1/3
f 30/1/3 40/1/3 41/1/3
f 42/1/3 30/1/3 41/1/3
f 43/1/3 30/1/3 42/1/3
f 30/1/3 43/1/3 29/1/3
f 29/1/3 43/1/3 44/1/3
f 47/1/25 46/1/24 45/1/23
f 46/1/24 47/1/25 48/1/25
f 50/1/26 14/1/9 49/1/26
f 14/1/9 50/1/26 16/1/9
f 13/1/6 49/1/26 10/1/6
f 49/1/26 13/1/6 50/1/26
f 23/1/17 46/1/24 24/1/17
f 46/1/24 23/1/17 45/1/23
f 51/1/10 32/1/27 31/1/27
f 32/1/27 51/1/10 52/1/10
f 51/1/10 53/1/28 52/1/10
f 53/1/28 51/1/10 54/1/28
f 35/1/22 56/1/30 55/1/29
f 56/1/30 35/1/22 36/1/22
f 52/1/31 30/1/31 32/1/31
f 30/1/31 52/1/31 27/1/31
f 27/1/31 52/1/31 53/1/31
f 30/1/31 27/1/31 9/1/31
f 30/1/31 9/1/31 10/1/31
f 30/1/31 10/1/31 37/1/31
f 37/1/31 10/1/31 49/1/31
f 27/1/31 53/1/31 28/1/31
f 37/1/31 49/1/31 14/1/31
f 53/1/31 55/1/31 28/1/31
f 55/1/31 53/1/31 35/1/31
f 35/1/31 53/1/31 6/1/31
f 6/1/31 53/1/31 1/1/31
f 37/1/31 14/1/31 15/1/31
f 6/1/31 1/1/31 5/1/31
f 37/1/31 15/1/31 22/1/31
f 5/1/31 1/1/31 19/1/31
f 19/1/31 1/1/31 48/1/31
f 48/1/31 1/1/31 46/1/31
f 46/1/31 1/1/31 24/1/31
f 37/1/31 22/1/31 24/1/31
f 37/1/31 24/1/31 1/1/31
f 37/1/31 1/1/31 2/1/31
f 37/1/31 2/1/31 33/1/31
f 38/1/32 57/1/32 39/1/32
f 57/1/32 38/1/32 3/1/32
f 3/1/32 38/1/32 4/1/32
f 4/1/32 38/1/32 34/1/32
f 54/1/32 57/1/32 3/1/32
f 54/1/32 58/1/32 57/1/32
f 54/1/32 44/1/32 58/1/32
f 51/1/32 44/1/32 54/1/32
f 31/1/32 44/1/32 51/1/32
f 44/1/32 31/1/32 29/1/32
f 47/1/25 19/1/13 48/1/25
f 19/1/13 47/1/25 20/1/14
f 54/1/26 1/1/26 53/1/26
f 1/1/26 54/1/26 3/1/26
f 9/1/2 25/1/18 11/1/7
f 25/1/18 9/1/2 27/1/20
f 55/1/29 26/1/19 28/1/19
f 26/1/19 55/1/29 56/1/30
f 40/2/35 17/2/34 41/2/33
f 17/2/34 40/2/35 18/2/36
f 18/2/36 40/2/35 21/2/36
f 21/2/36 40/2/35 23/2/36
f 59/2/37 23/2/36 40/2/35
f 59/2/37 45/2/36 23/2/36
f 45/2/36 59/2/37 47/2/38
f 8/2/41 60/2/40 36/2/39
f 7/2/41 60/2/40 8/2/41
f 60/2/40 7/2/41 59/2/37
f 59/2/37 7/2/41 20/2/41
f 59/2/37 20/2/41 47/2/38
f 57/2/43 40/2/35 39/2/42
f 40/2/35 57/2/43 59/2/37
f 11/2/46 42/2/45 12/2/44
f 25/2/46 42/2/45 11/2/46
f 25/2/46 43/2/47 42/2/45
f 26/2/46 43/2/47 25/2/46
f 43/2/47 26/2/46 60/2/40
f 56/2/46 60/2/40 26/2/46
f 60/2/40 56/2/46 36/2/39
f 42/2/45 13/2/32 12/2/44
f 13/2/32 42/2/45 41/2/33
f 13/2/32 41/2/33 50/2/32
f 50/2/32 41/2/33 16/2/32
f 16/2/32 41/2/33 17/2/34
f 60/2/40 44/2/48 43/2/47
f 44/2/48 60/2/40 58/2/49
f 59/2/37 58/2/49 60/2/40
f 58/2/49 59/2/37 57/2/43

