# Created by Kenney (www.kenney.nl)

mtllib fan-standing-four.mtl

g fan-standing-four

v 0 0.1 -0.25 1 1 1
v 0 0.1 -0.05 1 1 1
v -0.2 0.1535898 -0.25 1 1 1
v -0.2 0.1535898 -0.05 1 1 1
v -0.4 0.5 -0.25 1 1 1
v -0.4 0.5 -0.05 1 1 1
v -0.3464102 0.7 -0.25 1 1 1
v -0.3464102 0.7 -0.04999998 1 1 1
v 0 0.9 -0.04999998 1 1 1
v 0 0.9 -0.25 1 1 1
v -0.2 0.8464102 -0.04999998 1 1 1
v -0.2 0.8464102 -0.25 1 1 1
v -0.3464102 0.3 -0.25 1 1 1
v -0.3464102 0.3 -0.05 1 1 1
v 0.3464102 0.7 -0.04999998 1 1 1
v 0.3464102 0.7 -0.25 1 1 1
v 0.2 0.8464102 -0.04999998 1 1 1
v 0.2 0.8464102 -0.25 1 1 1
v 0.2 0.1535898 -0.25 1 1 1
v 0.2 0.1535898 -0.05 1 1 1
v 0.3464102 0.3 -0.25 1 1 1
v 0.4 0.5 -0.25 1 1 1
v 0.3464102 0.3 -0.05 1 1 1
v 0.4 0.5 -0.05 1 1 1
v 0.4 1.490119E-09 0.15 1 1 1
v 0.4 7.450597E-09 -0.25 1 1 1
v -0.4 1.490119E-09 0.15 1 1 1
v -0.4 7.450597E-09 -0.25 1 1 1
v 0.5 0.1 -0.25 1 1 1
v 0.5 0.1 0.15 1 1 1
v 0.5 0.9 -0.25 1 1 1
v 0.5 0.9 0.15 1 1 1
v 0.4 1 -0.25 1 1 1
v 0.4 1 0.15 1 1 1
v -0.4 1 -0.25 1 1 1
v -0.4 1 0.15 1 1 1
v -0.5 0.1 -0.25 1 1 1
v -0.5 0.9 -0.25 1 1 1
v -0.5 0.1 0.15 1 1 1
v -0.5 0.9 0.15 1 1 1
v 0.4707107 0.02928933 -0.25 1 1 1
v 0.4707107 0.02928932 0.15 1 1 1
v -0.4707107 0.9707107 -0.25 1 1 1
v -0.4707107 0.9707107 0.15 1 1 1
v 0.4707107 0.9707107 -0.25 1 1 1
v 0.4707107 0.9707107 0.15 1 1 1
v -0.4707107 0.02928933 -0.25 1 1 1
v -0.4707107 0.02928932 0.15 1 1 1

vn 0 1 0
vn 0.5 0.8660254 0
vn 1 0 0
vn 0.8660254 -0.5 0
vn 0 -1 0
vn 0.5 -0.8660254 0
vn 0.8660254 0.5 0
vn -0.8660254 -0.5 0
vn -0.5 -0.8660254 0
vn -0.5 0.8660254 0
vn -0.8660254 0.5 0
vn -1 0 0
vn 0 0 -1
vn 0.1950903 -0.9807853 0
vn -0.1950903 -0.9807853 0
vn 0.9807853 -0.1950903 0
vn 0.9807853 0.1950903 0
vn 0.1950903 0.9807853 0
vn -0.1950903 0.9807853 0
vn -0.9807853 -0.1950903 0
vn -0.9807853 0.1950903 0
vn 0.7071068 -0.7071068 0
vn -0.7071068 0.7071068 0
vn 0.7071068 0.7071068 0
vn -0.7071068 -0.7071068 0
vn 0 0 1

vt 0.28125 0.375
vt 0.90625 0.375

usemtl colormap

f 3/1/2 2/1/1 1/1/1
f 2/1/1 3/1/2 4/1/2
f 7/1/4 6/1/3 5/1/3
f 6/1/3 7/1/4 8/1/4
f 11/1/6 10/1/5 9/1/5
f 10/1/5 11/1/6 12/1/6
f 5/1/3 14/1/7 13/1/7
f 14/1/7 5/1/3 6/1/3
f 17/1/9 16/1/8 15/1/8
f 16/1/8 17/1/9 18/1/9
f 1/1/1 20/1/10 19/1/10
f 20/1/10 1/1/1 2/1/1
f 8/1/4 12/1/6 11/1/6
f 12/1/6 8/1/4 7/1/4
f 23/1/11 22/1/12 21/1/11
f 22/1/12 23/1/11 24/1/12
f 13/1/7 4/1/2 3/1/2
f 4/1/2 13/1/7 14/1/7
f 19/1/10 23/1/11 21/1/11
f 23/1/11 19/1/10 20/1/10
f 4/1/13 20/1/13 2/1/13
f 20/1/13 4/1/13 14/1/13
f 20/1/13 14/1/13 23/1/13
f 23/1/13 14/1/13 6/1/13
f 23/1/13 6/1/13 24/1/13
f 24/1/13 6/1/13 8/1/13
f 24/1/13 8/1/13 15/1/13
f 15/1/13 8/1/13 11/1/13
f 15/1/13 11/1/13 17/1/13
f 17/1/13 11/1/13 9/1/13
f 24/1/12 16/1/8 22/1/12
f 16/1/8 24/1/12 15/1/8
f 9/1/5 18/1/9 17/1/9
f 18/1/9 9/1/5 10/1/5
f 27/2/15 26/2/14 25/2/14
f 26/2/14 27/2/15 28/2/15
f 31/2/17 30/2/16 29/2/16
f 30/2/16 31/2/17 32/2/17
f 35/2/19 34/2/18 33/2/18
f 34/2/18 35/2/19 36/2/19
f 39/2/20 38/2/21 37/2/20
f 38/2/21 39/2/20 40/2/21
f 29/2/16 42/2/22 41/2/22
f 42/2/22 29/2/16 30/2/16
f 43/2/23 36/2/19 35/2/19
f 36/2/19 43/2/23 44/2/23
f 40/2/21 43/2/23 38/2/21
f 43/2/23 40/2/21 44/2/23
f 45/2/24 32/2/17 31/2/17
f 32/2/17 45/2/24 46/2/24
f 48/2/25 37/2/20 47/2/25
f 37/2/20 48/2/25 39/2/20
f 48/2/25 28/2/15 27/2/15
f 28/2/15 48/2/25 47/2/25
f 25/2/14 41/2/22 42/2/22
f 41/2/22 25/2/14 26/2/14
f 33/2/18 46/2/24 45/2/24
f 46/2/24 33/2/18 34/2/18
f 42/2/26 27/2/26 25/2/26
f 27/2/26 42/2/26 48/2/26
f 48/2/26 42/2/26 39/2/26
f 39/2/26 42/2/26 30/2/26
f 39/2/26 30/2/26 40/2/26
f 40/2/26 30/2/26 32/2/26
f 40/2/26 32/2/26 44/2/26
f 44/2/26 32/2/26 46/2/26
f 44/2/26 46/2/26 34/2/26
f 44/2/26 34/2/26 36/2/26
f 47/2/13 26/2/13 28/2/13
f 26/2/13 47/2/13 41/2/13
f 41/2/13 47/2/13 37/2/13
f 41/2/13 37/2/13 29/2/13
f 29/2/13 37/2/13 1/2/13
f 1/2/13 37/2/13 3/2/13
f 3/2/13 37/2/13 13/2/13
f 13/2/13 37/2/13 5/2/13
f 19/2/13 29/2/13 1/2/13
f 21/2/13 29/2/13 19/2/13
f 22/2/13 29/2/13 21/2/13
f 5/2/13 37/2/13 38/2/13
f 29/2/13 22/2/13 31/2/13
f 5/2/13 38/2/13 7/2/13
f 7/2/13 38/2/13 12/2/13
f 31/2/13 22/2/13 16/2/13
f 12/2/13 38/2/13 10/2/13
f 31/2/13 16/2/13 18/2/13
f 31/2/13 18/2/13 10/2/13
f 10/2/13 38/2/13 43/2/13
f 10/2/13 43/2/13 31/2/13
f 31/2/13 43/2/13 45/2/13
f 45/2/13 43/2/13 35/2/13
f 45/2/13 35/2/13 33/2/13

g fan-standing-four




usemtl colormap

f 3/1/2 2/1/1 1/1/1
f 2/1/1 3/1/2 4/1/2
f 7/1/4 6/1/3 5/1/3
f 6/1/3 7/1/4 8/1/4
f 11/1/6 10/1/5 9/1/5
f 10/1/5 11/1/6 12/1/6
f 5/1/3 14/1/7 13/1/7
f 14/1/7 5/1/3 6/1/3
f 17/1/9 16/1/8 15/1/8
f 16/1/8 17/1/9 18/1/9
f 1/1/1 20/1/10 19/1/10
f 20/1/10 1/1/1 2/1/1
f 8/1/4 12/1/6 11/1/6
f 12/1/6 8/1/4 7/1/4
f 23/1/11 22/1/12 21/1/11
f 22/1/12 23/1/11 24/1/12
f 13/1/7 4/1/2 3/1/2
f 4/1/2 13/1/7 14/1/7
f 19/1/10 23/1/11 21/1/11
f 23/1/11 19/1/10 20/1/10
f 4/1/13 20/1/13 2/1/13
f 20/1/13 4/1/13 14/1/13
f 20/1/13 14/1/13 23/1/13
f 23/1/13 14/1/13 6/1/13
f 23/1/13 6/1/13 24/1/13
f 24/1/13 6/1/13 8/1/13
f 24/1/13 8/1/13 15/1/13
f 15/1/13 8/1/13 11/1/13
f 15/1/13 11/1/13 17/1/13
f 17/1/13 11/1/13 9/1/13
f 24/1/12 16/1/8 22/1/12
f 16/1/8 24/1/12 15/1/8
f 9/1/5 18/1/9 17/1/9
f 18/1/9 9/1/5 10/1/5
f 27/2/15 26/2/14 25/2/14
f 26/2/14 27/2/15 28/2/15
f 31/2/17 30/2/16 29/2/16
f 30/2/16 31/2/17 32/2/17
f 35/2/19 34/2/18 33/2/18
f 34/2/18 35/2/19 36/2/19
f 39/2/20 38/2/21 37/2/20
f 38/2/21 39/2/20 40/2/21
f 29/2/16 42/2/22 41/2/22
f 42/2/22 29/2/16 30/2/16
f 43/2/23 36/2/19 35/2/19
f 36/2/19 43/2/23 44/2/23
f 40/2/21 43/2/23 38/2/21
f 43/2/23 40/2/21 44/2/23
f 45/2/24 32/2/17 31/2/17
f 32/2/17 45/2/24 46/2/24
f 48/2/25 37/2/20 47/2/25
f 37/2/20 48/2/25 39/2/20
f 48/2/25 28/2/15 27/2/15
f 28/2/15 48/2/25 47/2/25
f 25/2/14 41/2/22 42/2/22
f 41/2/22 25/2/14 26/2/14
f 33/2/18 46/2/24 45/2/24
f 46/2/24 33/2/18 34/2/18
f 42/2/26 27/2/26 25/2/26
f 27/2/26 42/2/26 48/2/26
f 48/2/26 42/2/26 39/2/26
f 39/2/26 42/2/26 30/2/26
f 39/2/26 30/2/26 40/2/26
f 40/2/26 30/2/26 32/2/26
f 40/2/26 32/2/26 44/2/26
f 44/2/26 32/2/26 46/2/26
f 44/2/26 46/2/26 34/2/26
f 44/2/26 34/2/26 36/2/26
f 47/2/13 26/2/13 28/2/13
f 26/2/13 47/2/13 41/2/13
f 41/2/13 47/2/13 37/2/13
f 41/2/13 37/2/13 29/2/13
f 29/2/13 37/2/13 1/2/13
f 1/2/13 37/2/13 3/2/13
f 3/2/13 37/2/13 13/2/13
f 13/2/13 37/2/13 5/2/13
f 19/2/13 29/2/13 1/2/13
f 21/2/13 29/2/13 19/2/13
f 22/2/13 29/2/13 21/2/13
f 5/2/13 37/2/13 38/2/13
f 29/2/13 22/2/13 31/2/13
f 5/2/13 38/2/13 7/2/13
f 7/2/13 38/2/13 12/2/13
f 31/2/13 22/2/13 16/2/13
f 12/2/13 38/2/13 10/2/13
f 31/2/13 16/2/13 18/2/13
f 31/2/13 18/2/13 10/2/13
f 10/2/13 38/2/13 43/2/13
f 10/2/13 43/2/13 31/2/13
f 31/2/13 43/2/13 45/2/13
f 45/2/13 43/2/13 35/2/13
f 45/2/13 35/2/13 33/2/13

g fan

v 0 0.4 -0.25 1 1 1
v -0.07071068 0.4292893 -0.25 1 1 1
v 0.07071068 0.4292893 -0.25 1 1 1
v -0.1 0.5 -0.25 1 1 1
v 0.1 0.5 -0.25 1 1 1
v 0.07071068 0.5707107 -0.25 1 1 1
v -0.07071068 0.5707107 -0.25 1 1 1
v 0 0.6 -0.25 1 1 1
v 0.07071068 0.5707107 -0.05 1 1 1
v 0.1 0.5 -0.05 1 1 1
v 0.07071068 0.4292893 -0.05 1 1 1
v 0 0.4 -0.05 1 1 1
v -0.07071068 0.4292893 -0.05 1 1 1
v -0.1 0.5 -0.05 1 1 1
v -0.07071068 0.5707107 -0.05 1 1 1
v 0 0.6 -0.05 1 1 1
v 0.07986456 0.5365754 -0.1080363 1 1 1
v 0.08999961 0.5129409 -0.1017035 1 1 1
v 0.275888 0.6253684 -0.1318283 1 1 1
v 0.275888 0.4005135 -0.0715786 1 1 1
v 0.07986456 0.4893065 -0.09537061 1 1 1
v 0.3114832 0.609381 -0.1275445 1 1 1
v 0.3114832 0.4165009 -0.07586241 1 1 1
v 0.3382358 0.5129409 -0.1017035 1 1 1
v 0.07986456 0.4634246 -0.1919632 1 1 1
v 0.08999961 0.487059 -0.198296 1 1 1
v 0.275888 0.3746316 -0.1681712 1 1 1
v 0.275888 0.5994865 -0.2284209 1 1 1
v 0.07986456 0.5106935 -0.2046289 1 1 1
v 0.3114832 0.390619 -0.172455 1 1 1
v 0.3114832 0.5834991 -0.2241371 1 1 1
v 0.3382358 0.487059 -0.198296 1 1 1
v -0.0106931 0.4201351 -0.09537061 1 1 1
v 0.01294137 0.41 -0.1017034 1 1 1
v -0.09948605 0.2241116 -0.07157861 1 1 1
v 0.1253688 0.2241116 -0.1318283 1 1 1
v 0.03657584 0.4201351 -0.1080363 1 1 1
v -0.08349866 0.1885164 -0.07586242 1 1 1
v 0.1093814 0.1885164 -0.1275445 1 1 1
v 0.01294135 0.1617638 -0.1017035 1 1 1
v 0.01069393 0.4201351 -0.2046289 1 1 1
v -0.01294054 0.41 -0.198296 1 1 1
v 0.09948686 0.2241116 -0.2284209 1 1 1
v -0.125368 0.2241116 -0.1681712 1 1 1
v -0.03657501 0.4201351 -0.1919632 1 1 1
v 0.08349946 0.1885164 -0.2241371 1 1 1
v -0.1093806 0.1885164 -0.172455 1 1 1
v -0.01294055 0.1617638 -0.198296 1 1 1
v -0.07986456 0.5106936 -0.09537061 1 1 1
v -0.08999961 0.4870591 -0.1017035 1 1 1
v -0.275888 0.5994865 -0.0715786 1 1 1
v -0.275888 0.3746316 -0.1318283 1 1 1
v -0.07986456 0.4634246 -0.1080363 1 1 1
v -0.3114832 0.5834991 -0.07586242 1 1 1
v -0.3114832 0.390619 -0.1275445 1 1 1
v -0.3382358 0.4870591 -0.1017035 1 1 1
v -0.07986456 0.4893065 -0.2046289 1 1 1
v -0.08999961 0.5129409 -0.198296 1 1 1
v -0.275888 0.4005136 -0.2284209 1 1 1
v -0.275888 0.6253684 -0.1681712 1 1 1
v -0.07986456 0.5365754 -0.1919632 1 1 1
v -0.3114832 0.416501 -0.2241371 1 1 1
v -0.3114832 0.609381 -0.172455 1 1 1
v -0.3382358 0.5129409 -0.198296 1 1 1
v -0.03657583 0.579865 -0.1080363 1 1 1
v -0.01294136 0.59 -0.1017035 1 1 1
v -0.1253688 0.7758883 -0.1318283 1 1 1
v 0.09948605 0.7758884 -0.07157861 1 1 1
v 0.01069311 0.579865 -0.09537062 1 1 1
v -0.1093814 0.8114836 -0.1275445 1 1 1
v 0.08349866 0.8114836 -0.07586242 1 1 1
v -0.01294136 0.8382362 -0.1017034 1 1 1
v 0.03657502 0.579865 -0.1919632 1 1 1
v 0.01294055 0.59 -0.198296 1 1 1
v 0.125368 0.7758884 -0.1681712 1 1 1
v -0.09948686 0.7758883 -0.2284209 1 1 1
v -0.01069393 0.579865 -0.2046289 1 1 1
v 0.1093806 0.8114836 -0.172455 1 1 1
v -0.08349947 0.8114836 -0.2241371 1 1 1
v 0.01294055 0.8382362 -0.198296 1 1 1

vn 0 0.2588192 0.9659258
vn 0 -0.2588192 -0.9659258
vn -0.4245824 0.8745388 -0.2343321
vn -0.001626263 0.9659246 -0.2588189
vn 0.7656959 0.6212862 -0.1664732
vn 0.7656959 -0.6212862 0.1664732
vn -0.001626263 -0.9659246 0.2588189
vn -0.4245824 -0.8745388 0.2343321
vn 0.2588191 -5.960464E-08 0.9659258
vn -0.2588191 5.960464E-08 -0.9659258
vn -0.8745388 0.4245825 0.234332
vn -0.9659245 0.001626323 0.2588187
vn -0.6212862 -0.7656958 0.1664731
vn -5.960464E-08 -1 -5.960464E-08
vn 0.6212861 -0.7656959 -0.1664732
vn 0.9659245 0.001626204 -0.2588187
vn 0.8745388 0.4245824 -0.234332
vn 0 -0.2588192 0.9659258
vn 0 0.2588192 -0.9659258
vn 0.4245824 0.8745388 0.2343321
vn 0.001626263 0.9659245 0.2588188
vn -0.7656959 0.6212862 0.1664732
vn -0.7656959 -0.6212862 -0.1664732
vn 0.001626263 -0.9659245 -0.2588188
vn 0.4245824 -0.8745388 -0.2343321
vn -0.2588191 -5.960464E-08 0.9659258
vn 0.2588191 5.960464E-08 -0.9659258
vn -0.8745388 -0.4245825 -0.234332
vn -0.9659245 -0.001626323 -0.2588187
vn -0.6212862 0.7656958 -0.1664731
vn 0 1 5.960464E-08
vn 0.6212862 0.7656959 0.1664732
vn 0.9659245 -0.001626204 0.2588187
vn 0.8745388 -0.4245824 0.234332

vt 0.96875 0.475
vt 0.96875 0.275
vt 0.96875 0.325
vt 0.96875 0.425

usemtl colormap

f 56/3/1 64/4/1 54/3/24
f 57/4/24 54/3/24 64/4/1
f 55/3/23 63/4/23 56/3/1
f 64/4/1 56/3/1 63/4/23
f 55/3/23 52/3/12 63/4/23
f 62/4/12 63/4/23 52/3/12
f 52/3/12 50/3/25 62/4/12
f 61/4/25 62/4/12 50/3/25
f 61/4/25 50/3/25 60/4/5
f 49/3/5 60/4/5 50/3/25
f 60/4/5 49/3/5 59/4/22
f 51/3/22 59/4/22 49/3/5
f 51/3/22 53/3/3 59/4/22
f 58/4/3 59/4/22 53/3/3
f 53/3/3 54/3/24 58/4/3
f 57/4/24 58/4/3 54/3/24
f 56/3/13 54/3/13 55/3/13
f 55/3/13 54/3/13 52/3/13
f 54/3/13 53/3/13 52/3/13
f 53/3/13 51/3/13 52/3/13
f 52/3/13 51/3/13 50/3/13
f 49/3/13 50/3/13 51/3/13
f 73/6/34 75/6/33 69/5/34
f 68/5/33 69/5/34 75/6/33
f 75/6/33 78/6/32 68/5/33
f 71/5/32 68/5/33 78/6/32
f 80/6/3 72/5/3 78/6/32
f 71/5/32 78/6/32 72/5/3
f 79/6/31 70/5/31 80/6/3
f 72/5/3 80/6/3 70/5/31
f 79/6/31 76/6/30 70/5/31
f 67/5/30 70/5/31 76/6/30
f 76/6/30 77/6/29 67/5/30
f 65/5/29 67/5/30 77/6/29
f 80/6/28 78/6/28 79/6/28
f 79/6/28 78/6/28 76/6/28
f 78/6/28 75/6/28 76/6/28
f 77/6/28 76/6/28 74/6/28
f 75/6/28 74/6/28 76/6/28
f 73/6/28 74/6/28 75/6/28
f 72/5/27 70/5/27 71/5/27
f 71/5/27 70/5/27 68/5/27
f 70/5/27 67/5/27 68/5/27
f 69/5/27 68/5/27 66/5/27
f 67/5/27 66/5/27 68/5/27
f 65/5/27 66/5/27 67/5/27
f 83/5/35 82/5/35 81/5/35
f 84/5/35 82/5/35 83/5/35
f 82/5/35 84/5/35 85/5/35
f 84/5/35 83/5/35 86/5/35
f 84/5/35 86/5/35 87/5/35
f 87/5/35 86/5/35 88/5/35
f 91/6/36 90/6/36 89/6/36
f 92/6/36 90/6/36 91/6/36
f 90/6/36 92/6/36 93/6/36
f 92/6/36 91/6/36 94/6/36
f 92/6/36 94/6/36 95/6/36
f 95/6/36 94/6/36 96/6/36
f 93/6/37 83/5/38 81/5/37
f 83/5/38 93/6/37 92/6/38
f 92/6/38 86/5/39 83/5/38
f 86/5/39 92/6/38 95/6/39
f 86/5/39 96/6/40 88/5/40
f 96/6/40 86/5/39 95/6/39
f 88/5/40 94/6/41 87/5/41
f 94/6/41 88/5/40 96/6/40
f 94/6/41 84/5/42 87/5/41
f 84/5/42 94/6/41 91/6/42
f 91/6/42 85/5/43 84/5/42
f 85/5/43 91/6/42 89/6/43
f 99/5/44 98/5/44 97/5/44
f 100/5/44 98/5/44 99/5/44
f 98/5/44 100/5/44 101/5/44
f 100/5/44 99/5/44 102/5/44
f 100/5/44 102/5/44 103/5/44
f 103/5/44 102/5/44 104/5/44
f 107/6/45 106/6/45 105/6/45
f 108/6/45 106/6/45 107/6/45
f 106/6/45 108/6/45 109/6/45
f 108/6/45 107/6/45 110/6/45
f 108/6/45 110/6/45 111/6/45
f 111/6/45 110/6/45 112/6/45
f 109/6/46 99/5/47 97/5/46
f 99/5/47 109/6/46 108/6/47
f 108/6/47 102/5/48 99/5/47
f 102/5/48 108/6/47 111/6/48
f 102/5/48 112/6/12 104/5/12
f 112/6/12 102/5/48 111/6/48
f 104/5/12 110/6/49 103/5/49
f 110/6/49 104/5/12 112/6/12
f 110/6/49 100/5/50 103/5/49
f 100/5/50 110/6/49 107/6/50
f 107/6/50 101/5/51 100/5/50
f 101/5/51 107/6/50 105/6/51
f 121/6/60 123/6/59 117/5/60
f 116/5/59 117/5/60 123/6/59
f 123/6/59 126/6/58 116/5/59
f 119/5/58 116/5/59 126/6/58
f 128/6/57 120/5/57 126/6/58
f 119/5/58 126/6/58 120/5/57
f 127/6/56 118/5/56 128/6/57
f 120/5/57 128/6/57 118/5/56
f 127/6/56 124/6/55 118/5/56
f 115/5/55 118/5/56 124/6/55
f 124/6/55 125/6/54 115/5/55
f 113/5/54 115/5/55 125/6/54
f 128/6/53 126/6/53 127/6/53
f 127/6/53 126/6/53 124/6/53
f 126/6/53 123/6/53 124/6/53
f 125/6/53 124/6/53 122/6/53
f 123/6/53 122/6/53 124/6/53
f 121/6/53 122/6/53 123/6/53
f 120/5/52 118/5/52 119/5/52
f 119/5/52 118/5/52 116/5/52
f 118/5/52 115/5/52 116/5/52
f 117/5/52 116/5/52 114/5/52
f 115/5/52 114/5/52 116/5/52
f 113/5/52 114/5/52 115/5/52

