# Created by Kenney (www.kenney.nl)

mtllib funnel.mtl

g funnel

v 0.85 0 0.5 1 1 1
v 0.5 0 -0.5 1 1 1
v -0.85 0 0.5 1 1 1
v -0.5 0 -0.5 1 1 1
v 0.5 0.5 -0.5 1 1 1
v 0.85 0.5 0.5 1 1 1
v -0.35 0.5 -0.5 1 1 1
v -0.5 0.5 -0.5 1 1 1
v -0.2875 0.3125 -0.5 1 1 1
v -0.1 0.25 -0.5 1 1 1
v 0.1 0.25 -0.5 1 1 1
v 0.2875 0.3125 -0.5 1 1 1
v 0.35 0.5 -0.5 1 1 1
v 0.7 0.5 0.5 1 1 1
v 0.575 0.3125 0.5 1 1 1
v 0.2 0.25 0.5 1 1 1
v -0.2 0.25 0.5 1 1 1
v -0.575 0.3125 0.5 1 1 1
v -0.85 0.5 0.5 1 1 1
v -0.7 0.5 0.5 1 1 1

vn 0 -1 0
vn 0.9438583 0 -0.3303504
vn 0 0 -1
vn 0 0 1
vn 0 1 0
vn -0.9438583 0 -0.3303504
vn 0.1502318 0.9885367 0.01502318
vn 0.09735681 0.9949538 0.02425784
vn 0.6241791 0.7615436 0.1745043
vn -0.5966216 0.7804624 0.1868716
vn -0.08767042 0.996111 0.008767043
vn -0.1329516 0.9905122 0.0347769
vn 0.900349 0.3001163 0.3151221
vn 0.8243636 0.5106255 0.2443077
vn -0.903729 0.3352755 0.2662032
vn -0.7988646 0.5325764 0.2796026
vn -0.6510523 0.7355919 0.1871775
vn 0.5808086 0.7967297 0.1669825

vt 0.90625 0.375
vt 0.28125 0.375

usemtl colormap

f 3/1/1 2/1/1 1/1/1
f 2/1/1 3/1/1 4/1/1
f 6/1/2 2/1/2 5/1/2
f 2/1/2 6/1/2 1/1/2
f 9/1/3 8/1/3 7/1/3
f 9/1/3 4/1/3 8/1/3
f 4/1/3 9/1/3 2/1/3
f 2/1/3 9/1/3 10/1/3
f 11/1/3 2/1/3 10/1/3
f 12/1/3 2/1/3 11/1/3
f 2/1/3 12/1/3 5/1/3
f 5/1/3 12/1/3 13/1/3
f 15/1/4 6/1/4 14/1/4
f 15/1/4 1/1/4 6/1/4
f 1/1/4 15/1/4 3/1/4
f 3/1/4 15/1/4 16/1/4
f 17/1/4 3/1/4 16/1/4
f 18/1/4 3/1/4 17/1/4
f 3/1/4 18/1/4 19/1/4
f 19/1/4 18/1/4 20/1/4
f 5/1/5 14/1/5 6/1/5
f 14/1/5 5/1/5 13/1/5
f 8/1/5 20/1/5 7/1/5
f 20/1/5 8/1/5 19/1/5
f 3/1/6 8/1/6 4/1/6
f 8/1/6 3/1/6 19/1/6
f 9/2/9 17/2/8 10/2/7
f 11/2/12 16/2/11 15/2/10
f 20/2/14 9/2/9 7/2/13
f 14/2/16 13/2/15 15/2/10
f 11/2/12 15/2/10 12/2/17
f 18/2/18 9/2/9 20/2/14
f 15/2/10 13/2/15 12/2/17
f 18/2/18 17/2/8 9/2/9
f 11/2/12 17/2/8 16/2/11
f 17/2/8 11/2/12 10/2/7

g funnel




usemtl colormap

f 3/1/1 2/1/1 1/1/1
f 2/1/1 3/1/1 4/1/1
f 6/1/2 2/1/2 5/1/2
f 2/1/2 6/1/2 1/1/2
f 9/1/3 8/1/3 7/1/3
f 9/1/3 4/1/3 8/1/3
f 4/1/3 9/1/3 2/1/3
f 2/1/3 9/1/3 10/1/3
f 11/1/3 2/1/3 10/1/3
f 12/1/3 2/1/3 11/1/3
f 2/1/3 12/1/3 5/1/3
f 5/1/3 12/1/3 13/1/3
f 15/1/4 6/1/4 14/1/4
f 15/1/4 1/1/4 6/1/4
f 1/1/4 15/1/4 3/1/4
f 3/1/4 15/1/4 16/1/4
f 17/1/4 3/1/4 16/1/4
f 18/1/4 3/1/4 17/1/4
f 3/1/4 18/1/4 19/1/4
f 19/1/4 18/1/4 20/1/4
f 5/1/5 14/1/5 6/1/5
f 14/1/5 5/1/5 13/1/5
f 8/1/5 20/1/5 7/1/5
f 20/1/5 8/1/5 19/1/5
f 3/1/6 8/1/6 4/1/6
f 8/1/6 3/1/6 19/1/6
f 9/2/9 17/2/8 10/2/7
f 11/2/12 16/2/11 15/2/10
f 20/2/14 9/2/9 7/2/13
f 14/2/16 13/2/15 15/2/10
f 11/2/12 15/2/10 12/2/17
f 18/2/18 9/2/9 20/2/14
f 15/2/10 13/2/15 12/2/17
f 18/2/18 17/2/8 9/2/9
f 11/2/12 17/2/8 16/2/11
f 17/2/8 11/2/12 10/2/7

