# Created by Kenney (www.kenney.nl)

mtllib marble-center-butterfly-low.mtl

g marble-center-butterfly-low

v 0.1902113 0 -2.887646E-15 1 1 1
v 0.1344997 -2.255973E-17 0.1344997 1 1 1
v 0.1344997 0 -0.1344997 1 1 1
v -7.219114E-16 -2.255973E-17 0 1 1 1
v -0.1344997 -2.255973E-17 0.1344997 1 1 1
v -0.1344997 -2.255973E-17 -0.1344997 1 1 1
v -0.1902113 -2.255973E-17 0 1 1 1

vn 0 1 0
vn 0 -1 0

vt 0.34375 0.275

usemtl colormap

f 3/1/1 2/1/1 1/1/1
f 2/1/1 3/1/1 4/1/1
f 6/1/1 5/1/1 4/1/1
f 5/1/1 6/1/1 7/1/1
f 1/1/2 2/1/2 3/1/2
f 4/1/2 3/1/2 2/1/2
f 4/1/2 5/1/2 6/1/2
f 7/1/2 6/1/2 5/1/2

g marble-center-butterfly-low




usemtl colormap

f 3/1/1 2/1/1 1/1/1
f 2/1/1 3/1/1 4/1/1
f 6/1/1 5/1/1 4/1/1
f 5/1/1 6/1/1 7/1/1
f 1/1/2 2/1/2 3/1/2
f 4/1/2 3/1/2 2/1/2
f 4/1/2 5/1/2 6/1/2
f 7/1/2 6/1/2 5/1/2

g (%ignore)

v 0 -0.2 0 1 1 1
v 0.08312539 -0.1618034 -0.08312539 1 1 1
v 0 -0.1618034 -0.117557 1 1 1
v 0.08312539 0.1618034 -0.08312539 1 1 1
v 0.117557 0.1618034 0 1 1 1
v 0 0.2 0 1 1 1
v -0.08312539 -0.1618034 -0.08312539 1 1 1
v -0.117557 -0.1618034 0 1 1 1
v 0.117557 -0.1618034 0 1 1 1
v 0.08312539 0.1618034 0.08312539 1 1 1
v -0.08312539 -0.1618034 0.08312539 1 1 1
v 0 0.1618034 -0.117557 1 1 1
v -0.08312539 0.1618034 -0.08312539 1 1 1
v 0.08312539 -0.1618034 0.08312539 1 1 1
v 0 0.1618034 0.117557 1 1 1
v -0.08312539 0.1618034 0.08312539 1 1 1
v -0.117557 0.1618034 0 1 1 1
v 0 -0.1618034 0.117557 1 1 1
v 0.1902113 0.06180339 0 1 1 1
v 0.1344997 0.06180339 0.1344997 1 1 1
v 0.1344997 -0.0618034 -0.1344997 1 1 1
v 0.1902113 -0.0618034 0 1 1 1
v -0.1344997 0.06180339 -0.1344997 1 1 1
v -0.1902113 0.06180339 0 1 1 1
v 0 -0.0618034 -0.1902113 1 1 1
v -7.219114E-16 0 -0.1902113 1 1 1
v 0 0.06180339 -0.1902113 1 1 1
v 0.1344997 0.06180339 -0.1344997 1 1 1
v 0 0.06180339 0.1902113 1 1 1
v -0.1344997 0.06180339 0.1344997 1 1 1
v 0 -0.0618034 0.1902113 1 1 1
v -0.1344997 -0.0618034 0.1344997 1 1 1
v 0.1344997 -0.0618034 0.1344997 1 1 1
v 0.1344997 0 0.1344997 1 1 1
v -0.1344997 -0.0618034 -0.1344997 1 1 1
v -0.1902113 -0.0618034 0 1 1 1
v 7.219114E-16 0 0.1902113 1 1 1
v -0.1344997 0 0.1344997 1 1 1
v -0.1902113 0 0 1 1 1
v -0.1344997 0 -0.1344997 1 1 1

vn 0.4480222 -0.7736616 -0.4480222
vn 0 -0.7736616 -0.6335991
vn 0.4480222 0.7736616 -0.4480222
vn 0.6335991 0.7736616 0
vn -0.4480222 -0.7736616 -0.4480222
vn -0.6335991 -0.7736616 0
vn 0.6335991 -0.7736616 0
vn 0.4480222 0.7736616 0.4480222
vn -0.4480222 -0.7736616 0.4480222
vn 0 0.7736616 -0.6335991
vn -0.4480222 0.7736616 -0.4480222
vn 0.4480222 -0.7736616 0.4480222
vn 0 0.7736616 0.6335991
vn -0.4480222 0.7736616 0.4480222
vn -0.6335991 0.7736616 0
vn 0 -0.7736616 0.6335991
vn 0.9573624 0.2888899 0
vn 0.6769574 0.2888899 0.6769574
vn 0.6769574 -0.2888899 -0.6769574
vn 0.9573624 -0.2888899 0
vn -0.6769574 0.2888899 -0.6769574
vn -0.9573624 0.2888899 0
vn 0 -0.2888899 -0.9573624
vn 0 0 -1
vn 0.7071068 0 -0.7071068
vn 0 0.2888899 -0.9573624
vn 0.6769574 0.2888899 -0.6769574
vn 0 0.2888899 0.9573624
vn -0.6769574 0.2888899 0.6769574
vn 0 -0.2888899 0.9573624
vn -0.6769574 -0.2888899 0.6769574
vn 0.6769574 -0.2888899 0.6769574
vn 0.7071068 0 0.7071068
vn 1 0 0
vn -0.6769574 -0.2888899 -0.6769574
vn -0.9573624 -0.2888899 0
vn 0 0 1
vn -0.7071068 0 0.7071068
vn -1 0 0
vn -0.7071068 0 -0.7071068

vt 0 0
vt -1.771147 4.532657
vt 1.771147 4.532657
vt 1.771147 0.6920802
vt -1.771147 0.6920802
vt 2.405597E-17 5.224737
vt -2.461006E-16 5.224737
vt 0 5.224737
vt 6.901898E-16 5.224737
vt -4.200332E-16 5.224737
vt -2.405597E-17 5.224737
vt 1.771147 9.443823
vt 2.865776 4.702122
vt -1.771147 9.443823
vt -2.865776 4.702122
vt 2.865776 8.373382
vt 1.771147 3.63168
vt -2.865776 8.373382
vt -1.771147 3.63168
vt 2.865776 5.440811
vt -2.865776 5.440811
vt 2.865776 7.874016
vt -2.865776 7.874016
vt 2.865776 10.30722
vt -2.865776 10.30722

usemtl glass

f 10/4/4 9/3/3 8/2/2
f 13/7/1 12/6/6 11/5/5
f 15/4/8 14/3/7 8/2/2
f 8/2/2 9/4/3 16/3/9
f 13/8/1 17/6/10 12/5/6
f 15/3/8 8/2/2 18/4/11
f 20/5/13 13/9/1 19/6/12
f 14/4/7 10/3/4 8/2/2
f 8/2/2 16/4/9 21/3/14
f 23/6/16 22/5/15 13/10/1
f 22/6/15 17/5/10 13/11/1
f 13/12/1 11/6/5 19/5/12
f 24/5/17 13/12/1 20/6/13
f 24/6/17 23/5/16 13/12/1
f 18/3/11 8/2/2 25/4/18
f 8/2/2 21/4/14 25/3/18
f 17/15/10 26/14/19 12/13/6
f 26/14/19 17/15/10 27/16/20
f 29/19/22 9/18/3 28/17/21
f 9/18/3 29/19/22 16/20/9
f 31/14/24 20/15/13 30/16/23
f 20/15/13 31/14/24 24/13/17
f 33/23/26 28/22/21 32/21/25
f 28/22/21 33/23/26 3/24/27
f 34/25/28 3/24/27 33/23/26
f 3/24/27 34/25/28 35/26/29
f 22/13/15 37/16/31 36/14/30
f 37/16/31 22/13/15 23/15/16
f 38/17/32 18/20/11 25/18/18
f 18/20/11 38/17/32 39/19/33
f 29/21/22 41/24/35 40/22/34
f 41/24/35 29/21/22 1/23/36
f 26/25/19 41/24/35 1/23/36
f 41/24/35 26/25/19 27/26/20
f 14/20/7 43/17/38 42/19/37
f 43/17/38 14/20/7 15/18/8
f 18/18/11 43/19/38 15/20/8
f 43/19/38 18/18/11 39/17/33
f 20/13/13 34/16/28 30/14/23
f 34/16/28 20/13/13 19/15/12
f 42/17/37 10/20/4 14/18/7
f 10/20/4 42/17/37 32/19/25
f 44/24/39 27/25/20 36/26/30
f 27/25/20 44/24/39 41/23/35
f 38/22/32 41/23/35 44/24/39
f 41/23/35 38/22/32 40/21/34
f 40/17/34 25/20/18 21/18/14
f 25/20/18 40/17/34 38/19/32
f 40/19/34 16/18/9 29/17/22
f 16/18/9 40/19/34 21/20/14
f 31/26/24 45/23/40 37/25/31
f 45/23/40 31/26/24 46/24/41
f 46/24/41 39/21/33 45/23/40
f 39/21/33 46/24/41 43/22/38
f 28/21/21 1/24/36 29/22/22
f 1/24/36 28/21/21 3/23/27
f 35/25/29 1/24/36 3/23/27
f 1/24/36 35/25/29 26/26/19
f 44/23/39 39/22/33 38/21/32
f 39/22/33 44/23/39 45/24/40
f 36/25/30 45/24/40 44/23/39
f 45/24/40 36/25/30 37/26/31
f 32/17/25 9/20/3 10/18/4
f 9/20/3 32/17/25 28/19/21
f 19/13/12 35/16/29 34/14/28
f 35/16/29 19/13/12 11/15/5
f 17/13/10 36/16/30 27/14/20
f 36/16/30 17/13/10 22/15/15
f 11/13/5 26/16/19 35/14/29
f 26/16/19 11/13/5 12/15/6
f 43/21/38 47/24/42 42/22/37
f 47/24/42 43/21/38 46/23/41
f 46/23/41 30/26/23 47/24/42
f 30/26/23 46/23/41 31/25/24
f 33/24/26 30/25/23 34/26/28
f 30/25/23 33/24/26 47/23/42
f 32/22/25 47/23/42 33/24/26
f 47/23/42 32/22/25 42/21/37
f 37/14/31 24/15/17 31/16/24
f 24/15/17 37/14/31 23/13/16

