# Created by Kenney (www.kenney.nl)

mtllib marble-center-low.mtl

g marble-center-low

v 0.1902113 0 -2.887646E-15 1 1 1
v 0.1344997 -2.255973E-17 0.1344997 1 1 1
v 0.1344997 0 -0.1344997 1 1 1
v -7.219114E-16 0 -0.1902113 1 1 1
v 7.219114E-16 -2.255973E-17 0.1902113 1 1 1
v -0.1344997 -2.255973E-17 0.1344997 1 1 1
v -0.1344997 -2.255973E-17 -0.1344997 1 1 1
v -0.1902113 -2.255973E-17 0 1 1 1

vn 0 1 0
vn 0 -1 0

vt 0.34375 0.275

usemtl colormap

f 3/1/1 2/1/1 1/1/1
f 2/1/1 3/1/1 4/1/1
f 2/1/1 4/1/1 5/1/1
f 5/1/1 4/1/1 6/1/1
f 6/1/1 4/1/1 7/1/1
f 6/1/1 7/1/1 8/1/1
f 1/1/2 2/1/2 3/1/2
f 4/1/2 3/1/2 2/1/2
f 5/1/2 4/1/2 2/1/2
f 6/1/2 4/1/2 5/1/2
f 7/1/2 4/1/2 6/1/2
f 8/1/2 7/1/2 6/1/2

g marble-center-low




usemtl colormap

f 3/1/1 2/1/1 1/1/1
f 2/1/1 3/1/1 4/1/1
f 2/1/1 4/1/1 5/1/1
f 5/1/1 4/1/1 6/1/1
f 6/1/1 4/1/1 7/1/1
f 6/1/1 7/1/1 8/1/1
f 1/1/2 2/1/2 3/1/2
f 4/1/2 3/1/2 2/1/2
f 5/1/2 4/1/2 2/1/2
f 6/1/2 4/1/2 5/1/2
f 7/1/2 4/1/2 6/1/2
f 8/1/2 7/1/2 6/1/2

g (%ignore)

v 0 -0.2 0 1 1 1
v 0 -0.1618034 -0.117557 1 1 1
v -0.08312539 -0.1618034 -0.08312539 1 1 1
v 0 0.1618034 -0.117557 1 1 1
v 0.08312539 0.1618034 -0.08312539 1 1 1
v 0 0.2 0 1 1 1
v 0.08312539 -0.1618034 -0.08312539 1 1 1
v 0.117557 0.1618034 0 1 1 1
v 0.08312539 0.1618034 0.08312539 1 1 1
v -0.08312539 0.1618034 0.08312539 1 1 1
v -0.117557 0.1618034 0 1 1 1
v 0 -0.1618034 0.117557 1 1 1
v 0.08312539 -0.1618034 0.08312539 1 1 1
v -0.117557 -0.1618034 0 1 1 1
v 0.117557 -0.1618034 0 1 1 1
v 0 0.1618034 0.117557 1 1 1
v -0.08312539 0.1618034 -0.08312539 1 1 1
v -0.08312539 -0.1618034 0.08312539 1 1 1
v 0.1902113 -0.0618034 0 1 1 1
v 0.1344997 -0.0618034 0.1344997 1 1 1
v 0.1344997 0.06180339 -0.1344997 1 1 1
v 0.1902113 0.06180339 0 1 1 1
v 0 -0.0618034 -0.1902113 1 1 1
v 0.1344997 -0.0618034 -0.1344997 1 1 1
v 0 -0.0618034 0.1902113 1 1 1
v -0.1344997 0.06180339 0.1344997 1 1 1
v -0.1344997 0 0.1344997 1 1 1
v -0.1902113 0.06180339 0 1 1 1
v -0.1902113 0 0 1 1 1
v -0.1344997 -0.0618034 0.1344997 1 1 1
v -0.1902113 -0.0618034 0 1 1 1
v 7.219114E-16 0 0.1902113 1 1 1
v 0 0.06180339 0.1902113 1 1 1
v -0.1344997 0.06180339 -0.1344997 1 1 1
v 0 0.06180339 -0.1902113 1 1 1
v 0.1344997 0 0.1344997 1 1 1
v 0.1344997 0.06180339 0.1344997 1 1 1
v -0.1344997 -0.0618034 -0.1344997 1 1 1
v -0.1344997 0 -0.1344997 1 1 1

vn 0 -0.7736616 -0.6335991
vn -0.4480222 -0.7736616 -0.4480222
vn 0 0.7736616 -0.6335991
vn 0.4480222 0.7736616 -0.4480222
vn 0.4480222 -0.7736616 -0.4480222
vn 0.6335991 0.7736616 0
vn 0.4480222 0.7736616 0.4480222
vn -0.4480222 0.7736616 0.4480222
vn -0.6335991 0.7736616 0
vn 0 -0.7736616 0.6335991
vn 0.4480222 -0.7736616 0.4480222
vn -0.6335991 -0.7736616 0
vn 0.6335991 -0.7736616 0
vn 0 0.7736616 0.6335991
vn -0.4480222 0.7736616 -0.4480222
vn -0.4480222 -0.7736616 0.4480222
vn 0.9573624 -0.2888899 0
vn 0.6769574 -0.2888899 0.6769574
vn 0.6769574 0.2888899 -0.6769574
vn 0.9573624 0.2888899 0
vn 0 -0.2888899 -0.9573624
vn 0.6769574 -0.2888899 -0.6769574
vn 0 -0.2888899 0.9573624
vn -0.6769574 0.2888899 0.6769574
vn -0.7071068 0 0.7071068
vn -0.9573624 0.2888899 0
vn -1 0 0
vn -0.6769574 -0.2888899 0.6769574
vn -0.9573624 -0.2888899 0
vn 0 0 1
vn 0 0.2888899 0.9573624
vn -0.6769574 0.2888899 -0.6769574
vn 0 0.2888899 -0.9573624
vn 0.7071068 0 0.7071068
vn 1 0 0
vn 0.6769574 0.2888899 0.6769574
vn -0.6769574 -0.2888899 -0.6769574
vn 0.7071068 0 -0.7071068
vn -0.7071068 0 -0.7071068
vn 0 0 -1

vt 0 0
vt -1.771147 4.532657
vt 1.771147 4.532657
vt 1.771147 0.6920802
vt -1.771147 0.6920802
vt -2.461006E-16 5.224737
vt 2.405597E-17 5.224737
vt 0 5.224737
vt -1.979886E-16 5.224737
vt -2.405597E-17 5.224737
vt 2.865776 8.373382
vt 1.771147 3.63168
vt -2.865776 8.373382
vt -1.771147 3.63168
vt 2.865776 4.702122
vt -2.865776 4.702122
vt 1.771147 9.443823
vt -1.771147 9.443823
vt 2.865776 10.30722
vt 2.865776 7.874016
vt -2.865776 10.30722
vt -2.865776 7.874016
vt 2.865776 5.440811
vt -2.865776 5.440811

usemtl glass

f 11/4/4 10/3/3 9/2/2
f 14/7/1 13/6/6 12/5/5
f 10/4/3 15/3/7 9/2/2
f 14/7/1 17/6/9 16/5/8
f 19/6/11 18/5/10 14/7/1
f 9/2/2 21/4/13 20/3/12
f 22/4/14 11/3/4 9/2/2
f 9/2/2 23/4/15 21/3/13
f 9/2/2 15/4/7 23/3/15
f 18/6/10 24/5/16 14/8/1
f 25/5/17 14/9/1 12/6/5
f 24/6/16 17/5/9 14/10/1
f 26/3/18 9/2/2 20/4/12
f 22/3/14 9/2/2 26/4/18
f 14/8/1 16/6/8 13/5/6
f 19/5/11 14/11/1 25/6/17
f 28/14/20 23/13/15 27/12/19
f 23/13/15 28/14/20 21/15/13
f 13/18/6 30/17/22 29/16/21
f 30/17/22 13/18/6 16/19/8
f 31/12/23 15/15/7 10/13/3
f 15/15/7 31/12/23 32/14/24
f 28/12/20 20/15/12 21/13/13
f 20/15/12 28/12/20 33/14/25
f 36/22/28 35/21/27 34/20/26
f 35/21/27 36/22/28 37/23/29
f 37/23/29 38/24/30 35/21/27
f 38/24/30 37/23/29 39/25/31
f 40/21/32 38/25/30 33/24/25
f 38/25/30 40/21/32 35/23/27
f 41/20/33 35/23/27 40/21/32
f 35/23/27 41/20/33 34/22/26
f 25/18/17 43/17/35 42/16/34
f 43/17/35 25/18/17 12/19/5
f 27/24/19 44/23/36 28/25/20
f 44/23/36 27/24/19 1/21/37
f 30/20/22 44/23/36 1/21/37
f 44/23/36 30/20/22 45/22/38
f 46/12/39 10/15/3 11/13/4
f 10/15/3 46/12/39 31/14/23
f 27/14/19 15/13/7 32/12/24
f 15/13/7 27/14/19 23/15/15
f 36/16/28 25/19/17 42/17/34
f 25/19/17 36/16/28 19/18/11
f 33/12/25 26/15/18 20/13/12
f 26/15/18 33/12/25 38/14/30
f 1/23/37 29/20/21 30/22/22
f 29/20/21 1/23/37 3/21/40
f 1/23/37 32/24/24 3/21/40
f 32/24/24 1/23/37 27/25/19
f 47/21/41 31/25/23 46/24/39
f 31/25/23 47/21/41 4/23/42
f 42/20/34 4/23/42 47/21/41
f 4/23/42 42/20/34 43/22/35
f 11/15/4 39/12/31 46/14/39
f 39/12/31 11/15/4 22/13/14
f 17/19/9 30/16/22 16/18/8
f 30/16/22 17/19/9 45/17/38
f 44/21/36 33/25/25 28/24/20
f 33/25/25 44/21/36 40/23/32
f 45/20/38 40/23/32 44/21/36
f 40/23/32 45/20/38 41/22/33
f 17/18/9 41/17/33 45/16/38
f 41/17/33 17/18/9 24/19/16
f 24/18/16 34/17/26 41/16/33
f 34/17/26 24/18/16 18/19/10
f 4/21/42 32/25/24 31/24/23
f 32/25/24 4/21/42 3/23/40
f 43/20/35 3/23/40 4/21/42
f 3/23/40 43/20/35 29/22/21
f 34/16/26 19/19/11 36/17/28
f 19/19/11 34/16/26 18/18/10
f 39/24/31 47/23/41 46/25/39
f 47/23/41 39/24/31 37/21/29
f 37/21/29 42/22/34 47/23/41
f 42/22/34 37/21/29 36/20/28
f 12/18/5 29/17/21 43/16/35
f 29/17/21 12/18/5 13/19/6
f 26/13/18 39/14/31 22/15/14
f 39/14/31 26/13/18 38/12/30

