# Created by Kenney (www.kenney.nl)

mtllib marble-low.mtl

g (%ignore)

v 0 -0.2 0 1 1 1
v 0 -0.1618034 -0.117557 1 1 1
v -0.08312539 -0.1618034 -0.08312539 1 1 1
v 0.08312539 -0.1618034 -0.08312539 1 1 1
v 0 0.1618034 -0.117557 1 1 1
v 0.08312539 0.1618034 -0.08312539 1 1 1
v 0 0.2 0 1 1 1
v -0.117557 -0.1618034 0 1 1 1
v 0.117557 0.1618034 0 1 1 1
v 0.08312539 0.1618034 0.08312539 1 1 1
v 0 0.1618034 0.117557 1 1 1
v 0.08312539 -0.1618034 0.08312539 1 1 1
v 0.117557 -0.1618034 0 1 1 1
v -0.08312539 0.1618034 0.08312539 1 1 1
v -0.117557 0.1618034 0 1 1 1
v -0.08312539 -0.1618034 0.08312539 1 1 1
v -0.08312539 0.1618034 -0.08312539 1 1 1
v 0 -0.1618034 0.117557 1 1 1
v 0.1902113 -0.0618034 0 1 1 1
v 0.1344997 -0.0618034 0.1344997 1 1 1
v 0.1344997 0.06180339 -0.1344997 1 1 1
v 0.1902113 0.06180339 0 1 1 1
v 0 -0.0618034 -0.1902113 1 1 1
v 0.1344997 -0.0618034 -0.1344997 1 1 1
v -0.1902113 -0.0618034 0 1 1 1
v -0.1344997 -0.0618034 0.1344997 1 1 1
v -0.1902113 0.06180339 0 1 1 1
v -0.1344997 0.06180339 0.1344997 1 1 1
v 0 -0.0618034 0.1902113 1 1 1
v 0.1344997 0.06180339 0.1344997 1 1 1
v 0 0.06180339 0.1902113 1 1 1
v -0.1344997 0.06180339 -0.1344997 1 1 1
v 0 0.06180339 -0.1902113 1 1 1
v -0.1344997 -0.0618034 -0.1344997 1 1 1

vn 0 -1 0
vn 0 -0.7736616 -0.6335991
vn -0.4480222 -0.7736616 -0.4480222
vn 0.4480222 -0.7736616 -0.4480222
vn 0 0.7736616 -0.6335991
vn 0.4480222 0.7736616 -0.4480222
vn 0 1 0
vn -0.6335991 -0.7736616 0
vn 0.6335991 0.7736616 0
vn 0.4480222 0.7736616 0.4480222
vn 0 0.7736616 0.6335991
vn 0.4480222 -0.7736616 0.4480222
vn 0.6335991 -0.7736616 0
vn -0.4480222 0.7736616 0.4480222
vn -0.6335991 0.7736616 0
vn -0.4480222 -0.7736616 0.4480222
vn -0.4480222 0.7736616 -0.4480222
vn 0 -0.7736616 0.6335991
vn 0.9573624 -0.2888899 0
vn 0.6769574 -0.2888899 0.6769574
vn 0.6769574 0.2888899 -0.6769574
vn 0.9573624 0.2888899 0
vn 0 -0.2888899 -0.9573624
vn 0.6769574 -0.2888899 -0.6769574
vn -0.9573624 -0.2888899 0
vn -0.6769574 -0.2888899 0.6769574
vn -0.9573624 0.2888899 0
vn -0.6769574 0.2888899 0.6769574
vn 0 -0.2888899 0.9573624
vn 0.6769574 0.2888899 0.6769574
vn 0 0.2888899 0.9573624
vn -0.6769574 0.2888899 -0.6769574
vn 0 0.2888899 -0.9573624
vn -0.6769574 -0.2888899 -0.6769574

vt 0 0
vt -1.771147 4.532657
vt 1.771147 4.532657
vt 1.771147 0.6920802
vt -1.771147 0.6920802
vt -2.405597E-17 5.224737
vt -2.461006E-16 5.224737
vt -1.979886E-16 5.224737
vt 2.220446E-16 5.224737
vt 2.461006E-16 5.224737
vt 2.865776 8.373382
vt 1.771147 3.63168
vt -2.865776 8.373382
vt -1.771147 3.63168
vt 2.865776 4.702122
vt -2.865776 4.702122
vt 1.771147 9.443823
vt -1.771147 9.443823
vt -2.865776 5.440811
vt -2.865776 10.30722
vt 2.865776 5.440811
vt 2.865776 10.30722

usemtl glass

f 3/3/3 2/2/2 1/1/1
f 2/3/2 4/2/4 1/1/1
f 7/6/7 6/5/6 5/4/5
f 8/3/8 3/2/3 1/1/1
f 7/7/7 10/5/10 9/4/9
f 11/5/11 10/4/10 7/8/7
f 1/1/1 13/3/13 12/2/12
f 15/5/15 14/4/14 7/7/7
f 8/2/8 1/1/1 16/3/16
f 17/4/17 7/9/7 5/5/5
f 1/1/1 12/3/12 18/2/18
f 14/5/14 11/4/11 7/10/7
f 15/4/15 7/6/7 17/5/17
f 7/10/7 9/5/9 6/4/6
f 1/1/1 4/3/4 13/2/13
f 16/2/16 1/1/1 18/3/18
f 20/13/20 13/12/13 19/11/19
f 13/12/13 20/13/20 12/14/12
f 6/17/6 22/16/22 21/15/21
f 22/16/22 6/17/6 9/18/9
f 23/11/23 4/14/4 2/12/2
f 4/14/4 23/11/23 24/13/24
f 16/12/16 25/13/25 8/14/8
f 25/13/25 16/12/16 26/11/26
f 26/21/26 27/20/27 25/19/25
f 27/20/27 26/21/26 28/22/28
f 20/11/20 18/14/18 12/12/12
f 18/14/18 20/11/20 29/13/29
f 10/18/10 22/15/22 9/17/9
f 22/15/22 10/18/10 30/16/30
f 31/22/31 26/19/26 29/21/29
f 26/19/26 31/22/31 28/20/28
f 17/17/17 33/16/33 32/15/32
f 33/16/33 17/17/17 5/18/5
f 30/22/30 29/19/29 20/21/20
f 29/19/29 30/22/30 31/20/31
f 5/17/5 21/16/21 33/15/33
f 21/16/21 5/17/5 6/18/6
f 27/15/27 17/18/17 32/16/32
f 17/18/17 27/15/27 15/17/15
f 22/20/22 24/21/24 21/22/21
f 24/21/24 22/20/22 19/19/19
f 28/15/28 15/18/15 27/16/27
f 15/18/15 28/15/28 14/17/14
f 32/22/32 23/19/23 34/21/34
f 23/19/23 32/22/32 33/20/33
f 34/11/34 2/14/2 3/12/3
f 2/14/2 34/11/34 23/13/23
f 11/17/11 28/16/28 31/15/31
f 28/16/28 11/17/11 14/18/14
f 33/22/33 24/19/24 23/21/23
f 24/19/24 33/22/33 21/20/21
f 25/21/25 32/20/32 34/19/34
f 32/20/32 25/21/25 27/22/27
f 10/17/10 31/16/31 30/15/30
f 31/16/31 10/17/10 11/18/11
f 3/14/3 25/11/25 34/13/34
f 25/11/25 3/14/3 8/12/8
f 29/11/29 16/14/16 18/12/18
f 16/14/16 29/11/29 26/13/26
f 30/20/30 19/21/19 22/22/22
f 19/21/19 30/20/30 20/19/20
f 19/13/19 4/12/4 24/11/24
f 4/12/4 19/13/19 13/14/13

