# Created by Kenney (www.kenney.nl)

mtllib ramp-start-c.mtl

g ramp-start-c

v 0.2875 0.6645 0.348 1 1 1
v 0.1 0.602 0.348 1 1 1
v 0.2875 0.5285 0.184 1 1 1
v 0.1 0.466 0.184 1 1 1
v 0.1 0.354 -0.004 1 1 1
v -0.1 0.354 -0.004 1 1 1
v -0.1 0.466 0.184 1 1 1
v -0.35 0.528 -0.228 1 1 1
v -0.2875 0.3405 -0.228 1 1 1
v -0.35 0.604 -0.004 1 1 1
v -0.2875 0.4165 -0.004 1 1 1
v -0.1 0.602 0.348 1 1 1
v -0.1 0.75 0.5 1 1 1
v -0.2875 0.6645 0.348 1 1 1
v -0.2875 0.8125 0.5 1 1 1
v 0.2875 0.4165 -0.004 1 1 1
v 0.35 0.604 -0.004 1 1 1
v 0.35 0.716 0.184 1 1 1
v 0.1 0.75 0.5 1 1 1
v -0.35 0.5 -0.5 1 1 1
v -0.2875 0.3125 -0.5 1 1 1
v 0.2875 0.3125 -0.5 1 1 1
v 0.35 0.5 -0.5 1 1 1
v 0.2875 0.3405 -0.228 1 1 1
v 0.35 0.528 -0.228 1 1 1
v -0.35 0.852 0.348 1 1 1
v -0.35 1 0.5 1 1 1
v 0.35 0.852 0.348 1 1 1
v 0.1 0.25 -0.5 1 1 1
v 0.1 0.278 -0.228 1 1 1
v -0.1 0.25 -0.5 1 1 1
v -0.1 0.278 -0.228 1 1 1
v 0.2875 0.8125 0.5 1 1 1
v -0.35 0.716 0.184 1 1 1
v -0.2875 0.5285 0.184 1 1 1
v 0.35 1 0.5 1 1 1
v -0.5 0.5 -0.5 1 1 1
v -0.5 0 -0.5 1 1 1
v 0.5 0 -0.5 1 1 1
v 0.5 0.5 -0.5 1 1 1
v 0.5 0.104 -0.004 1 1 1
v 0.5 0.028 -0.228 1 1 1
v -0.5 0.104 -0.004 1 1 1
v -0.5 0.028 -0.228 1 1 1
v 0.5 0.852 0.348 1 1 1
v 0.5 0.716 0.184 1 1 1
v -0.5 0.852 0.348 1 1 1
v -0.5 0.716 0.184 1 1 1
v 0.5 0.604 -0.004 1 1 1
v -0.5 1 0.5 1 1 1
v 0.5 0.528 -0.228 1 1 1
v 0.5 0.216 0.184 1 1 1
v -0.5 0.216 0.184 1 1 1
v 0.5 0.352 0.348 1 1 1
v 0.5 1 0.5 1 1 1
v 0.5 0.5 0.5 1 1 1
v -0.5 0.528 -0.228 1 1 1
v -0.5 0.604 -0.004 1 1 1
v -0.5 0.352 0.348 1 1 1
v -0.5 0.5 0.5 1 1 1

vn -0.6375691 0.5734488 -0.5144531
vn -0.1213882 0.7399483 -0.6616202
vn -0.6539167 0.6181989 -0.4361455
vn -0.1324577 0.8121527 -0.5682102
vn -0.145566 0.9001012 -0.410644
vn 0.145566 0.9001012 -0.410644
vn 0.1324577 0.8121527 -0.5682102
vn 0.9460712 0.3153571 -0.07415687
vn 0.6867336 0.7100955 -0.1554391
vn 0.9371259 0.3123753 -0.1556174
vn 0.6726325 0.6717279 -0.3103985
vn 0.1213882 0.7399483 -0.6616202
vn 0.124677 0.7108809 -0.6921735
vn 0.6375691 0.5734488 -0.5144531
vn 0.7241442 0.4941134 -0.4811104
vn -0.6726325 0.6717279 -0.3103985
vn -0.9371259 0.3123753 -0.1556174
vn -0.9228907 0.3076303 -0.2315949
vn -0.124677 0.7108809 -0.6921735
vn 0.948181 0.3160603 -0.03253562
vn 0.6909083 0.7191422 -0.07402934
vn -0.6909083 0.7191422 -0.07402934
vn -0.948181 0.3160603 -0.03253562
vn -0.6867336 0.7100955 -0.1554391
vn -0.9460712 0.3153571 -0.07415687
vn 0.909986 0.3033287 -0.2826963
vn 0.9066772 0.3022257 -0.2942724
vn -0.909986 0.3033287 -0.2826963
vn -0.1577428 0.9822893 -0.101118
vn -0.1552098 0.9656415 -0.208438
vn 0.1577428 0.9822893 -0.101118
vn 0.1552098 0.9656415 -0.208438
vn -0.7241442 0.4941134 -0.4811104
vn 0.9228907 0.3076303 -0.2315949
vn 0.6539167 0.6181989 -0.4361455
vn -0.9066772 0.3022257 -0.2942724
vn 0 0 -1
vn 0 -0.9080501 0.4188617
vn 0 -0.9770107 0.2131901
vn 0 0.7437055 -0.6685074
vn 0 0.8168834 -0.576803
vn 0 0.9080501 -0.4188617
vn 0 0.7164712 -0.6976167
vn 0 0.9770107 -0.2131901
vn 0 -0.8168834 0.576803
vn 1 0 0
vn -1 0 0
vn 0 -0.7437055 0.6685074
vn 0 -0.7164712 0.6976167
vn 0 0.9947433 -0.1024001
vn 0 0 1
vn 0 -0.9947433 0.1024001

vt 0.28125 0.375
vt 0.90625 0.375

usemtl colormap

f 3/1/3 2/1/2 1/1/1
f 2/1/2 3/1/3 4/1/4
f 6/1/6 4/1/4 5/1/5
f 4/1/4 6/1/6 7/1/7
f 10/1/10 9/1/9 8/1/8
f 9/1/9 10/1/10 11/1/11
f 14/1/14 13/1/13 12/1/12
f 13/1/13 14/1/14 15/1/15
f 3/1/3 17/1/17 16/1/16
f 17/1/17 3/1/3 18/1/18
f 12/1/12 19/1/19 2/1/2
f 19/1/19 12/1/12 13/1/13
f 8/1/8 21/1/21 20/1/20
f 21/1/21 8/1/8 9/1/9
f 24/1/24 23/1/23 22/1/22
f 23/1/23 24/1/24 25/1/25
f 27/1/27 14/1/14 26/1/26
f 14/1/14 27/1/27 15/1/15
f 16/1/16 25/1/25 24/1/24
f 25/1/25 16/1/16 17/1/17
f 1/1/1 18/1/18 3/1/3
f 18/1/18 1/1/1 28/1/28
f 31/1/31 30/1/30 29/1/29
f 30/1/30 31/1/31 32/1/32
f 2/1/2 33/1/33 1/1/1
f 33/1/33 2/1/2 19/1/19
f 26/1/26 35/1/35 34/1/34
f 35/1/35 26/1/26 14/1/14
f 24/1/24 5/1/5 16/1/16
f 5/1/5 24/1/24 30/1/30
f 32/1/32 5/1/5 30/1/30
f 5/1/5 32/1/32 6/1/6
f 32/1/32 11/1/11 6/1/6
f 11/1/11 32/1/32 9/1/9
f 7/1/7 14/1/14 12/1/12
f 14/1/14 7/1/7 35/1/35
f 29/1/29 24/1/24 22/1/22
f 24/1/24 29/1/29 30/1/30
f 4/1/4 12/1/12 2/1/2
f 12/1/12 4/1/4 7/1/7
f 34/1/34 11/1/11 10/1/10
f 11/1/11 34/1/34 35/1/35
f 5/1/5 3/1/3 16/1/16
f 3/1/3 5/1/5 4/1/4
f 11/1/11 7/1/7 6/1/6
f 7/1/7 11/1/11 35/1/35
f 33/1/33 28/1/28 1/1/1
f 28/1/28 33/1/33 36/1/36
f 21/1/21 32/1/32 31/1/31
f 32/1/32 21/1/21 9/1/9
f 21/2/37 37/2/37 20/2/37
f 21/2/37 38/2/37 37/2/37
f 38/2/37 21/2/37 39/2/37
f 39/2/37 21/2/37 31/2/37
f 29/2/37 39/2/37 31/2/37
f 22/2/37 39/2/37 29/2/37
f 39/2/37 22/2/37 40/2/37
f 40/2/37 22/2/37 23/2/37
f 43/2/38 42/2/39 41/2/38
f 42/2/39 43/2/38 44/2/39
f 46/2/41 28/2/40 45/2/40
f 28/2/40 46/2/41 18/2/41
f 34/2/41 47/2/40 26/2/40
f 47/2/40 34/2/41 48/2/41
f 17/2/42 46/2/41 49/2/42
f 46/2/41 17/2/42 18/2/41
f 47/2/40 27/2/43 26/2/40
f 27/2/43 47/2/40 50/2/43
f 51/2/44 17/2/42 49/2/42
f 17/2/42 51/2/44 25/2/44
f 52/2/45 43/2/38 41/2/38
f 43/2/38 52/2/45 53/2/45
f 51/2/46 39/2/46 40/2/46
f 39/2/46 51/2/46 42/2/46
f 42/2/46 51/2/46 49/2/46
f 42/2/46 49/2/46 41/2/46
f 41/2/46 49/2/46 46/2/46
f 41/2/46 46/2/46 52/2/46
f 52/2/46 46/2/46 45/2/46
f 52/2/46 45/2/46 54/2/46
f 54/2/46 45/2/46 55/2/46
f 54/2/46 55/2/46 56/2/46
f 44/2/47 37/2/47 38/2/47
f 37/2/47 44/2/47 57/2/47
f 57/2/47 44/2/47 43/2/47
f 57/2/47 43/2/47 58/2/47
f 58/2/47 43/2/47 53/2/47
f 58/2/47 53/2/47 48/2/47
f 48/2/47 53/2/47 59/2/47
f 48/2/47 59/2/47 47/2/47
f 47/2/47 59/2/47 60/2/47
f 47/2/47 60/2/47 50/2/47
f 56/2/49 59/2/48 54/2/48
f 59/2/48 56/2/49 60/2/49
f 37/2/50 8/2/44 20/2/50
f 8/2/44 37/2/50 57/2/44
f 59/2/48 52/2/45 54/2/48
f 52/2/45 59/2/48 53/2/45
f 33/2/51 55/2/51 36/2/51
f 33/2/51 56/2/51 55/2/51
f 56/2/51 33/2/51 60/2/51
f 60/2/51 33/2/51 19/2/51
f 13/2/51 60/2/51 19/2/51
f 15/2/51 60/2/51 13/2/51
f 60/2/51 15/2/51 50/2/51
f 50/2/51 15/2/51 27/2/51
f 23/2/50 51/2/44 40/2/50
f 51/2/44 23/2/50 25/2/44
f 28/2/40 55/2/43 45/2/40
f 55/2/43 28/2/40 36/2/43
f 8/2/44 58/2/42 10/2/42
f 58/2/42 8/2/44 57/2/44
f 58/2/42 34/2/41 10/2/42
f 34/2/41 58/2/42 48/2/41
f 44/2/39 39/2/52 42/2/39
f 39/2/52 44/2/39 38/2/52

g ramp-start-c




usemtl colormap

f 3/1/3 2/1/2 1/1/1
f 2/1/2 3/1/3 4/1/4
f 6/1/6 4/1/4 5/1/5
f 4/1/4 6/1/6 7/1/7
f 10/1/10 9/1/9 8/1/8
f 9/1/9 10/1/10 11/1/11
f 14/1/14 13/1/13 12/1/12
f 13/1/13 14/1/14 15/1/15
f 3/1/3 17/1/17 16/1/16
f 17/1/17 3/1/3 18/1/18
f 12/1/12 19/1/19 2/1/2
f 19/1/19 12/1/12 13/1/13
f 8/1/8 21/1/21 20/1/20
f 21/1/21 8/1/8 9/1/9
f 24/1/24 23/1/23 22/1/22
f 23/1/23 24/1/24 25/1/25
f 27/1/27 14/1/14 26/1/26
f 14/1/14 27/1/27 15/1/15
f 16/1/16 25/1/25 24/1/24
f 25/1/25 16/1/16 17/1/17
f 1/1/1 18/1/18 3/1/3
f 18/1/18 1/1/1 28/1/28
f 31/1/31 30/1/30 29/1/29
f 30/1/30 31/1/31 32/1/32
f 2/1/2 33/1/33 1/1/1
f 33/1/33 2/1/2 19/1/19
f 26/1/26 35/1/35 34/1/34
f 35/1/35 26/1/26 14/1/14
f 24/1/24 5/1/5 16/1/16
f 5/1/5 24/1/24 30/1/30
f 32/1/32 5/1/5 30/1/30
f 5/1/5 32/1/32 6/1/6
f 32/1/32 11/1/11 6/1/6
f 11/1/11 32/1/32 9/1/9
f 7/1/7 14/1/14 12/1/12
f 14/1/14 7/1/7 35/1/35
f 29/1/29 24/1/24 22/1/22
f 24/1/24 29/1/29 30/1/30
f 4/1/4 12/1/12 2/1/2
f 12/1/12 4/1/4 7/1/7
f 34/1/34 11/1/11 10/1/10
f 11/1/11 34/1/34 35/1/35
f 5/1/5 3/1/3 16/1/16
f 3/1/3 5/1/5 4/1/4
f 11/1/11 7/1/7 6/1/6
f 7/1/7 11/1/11 35/1/35
f 33/1/33 28/1/28 1/1/1
f 28/1/28 33/1/33 36/1/36
f 21/1/21 32/1/32 31/1/31
f 32/1/32 21/1/21 9/1/9
f 21/2/37 37/2/37 20/2/37
f 21/2/37 38/2/37 37/2/37
f 38/2/37 21/2/37 39/2/37
f 39/2/37 21/2/37 31/2/37
f 29/2/37 39/2/37 31/2/37
f 22/2/37 39/2/37 29/2/37
f 39/2/37 22/2/37 40/2/37
f 40/2/37 22/2/37 23/2/37
f 43/2/38 42/2/39 41/2/38
f 42/2/39 43/2/38 44/2/39
f 46/2/41 28/2/40 45/2/40
f 28/2/40 46/2/41 18/2/41
f 34/2/41 47/2/40 26/2/40
f 47/2/40 34/2/41 48/2/41
f 17/2/42 46/2/41 49/2/42
f 46/2/41 17/2/42 18/2/41
f 47/2/40 27/2/43 26/2/40
f 27/2/43 47/2/40 50/2/43
f 51/2/44 17/2/42 49/2/42
f 17/2/42 51/2/44 25/2/44
f 52/2/45 43/2/38 41/2/38
f 43/2/38 52/2/45 53/2/45
f 51/2/46 39/2/46 40/2/46
f 39/2/46 51/2/46 42/2/46
f 42/2/46 51/2/46 49/2/46
f 42/2/46 49/2/46 41/2/46
f 41/2/46 49/2/46 46/2/46
f 41/2/46 46/2/46 52/2/46
f 52/2/46 46/2/46 45/2/46
f 52/2/46 45/2/46 54/2/46
f 54/2/46 45/2/46 55/2/46
f 54/2/46 55/2/46 56/2/46
f 44/2/47 37/2/47 38/2/47
f 37/2/47 44/2/47 57/2/47
f 57/2/47 44/2/47 43/2/47
f 57/2/47 43/2/47 58/2/47
f 58/2/47 43/2/47 53/2/47
f 58/2/47 53/2/47 48/2/47
f 48/2/47 53/2/47 59/2/47
f 48/2/47 59/2/47 47/2/47
f 47/2/47 59/2/47 60/2/47
f 47/2/47 60/2/47 50/2/47
f 56/2/49 59/2/48 54/2/48
f 59/2/48 56/2/49 60/2/49
f 37/2/50 8/2/44 20/2/50
f 8/2/44 37/2/50 57/2/44
f 59/2/48 52/2/45 54/2/48
f 52/2/45 59/2/48 53/2/45
f 33/2/51 55/2/51 36/2/51
f 33/2/51 56/2/51 55/2/51
f 56/2/51 33/2/51 60/2/51
f 60/2/51 33/2/51 19/2/51
f 13/2/51 60/2/51 19/2/51
f 15/2/51 60/2/51 13/2/51
f 60/2/51 15/2/51 50/2/51
f 50/2/51 15/2/51 27/2/51
f 23/2/50 51/2/44 40/2/50
f 51/2/44 23/2/50 25/2/44
f 28/2/40 55/2/43 45/2/40
f 55/2/43 28/2/40 36/2/43
f 8/2/44 58/2/42 10/2/42
f 58/2/42 8/2/44 57/2/44
f 58/2/42 34/2/41 10/2/42
f 34/2/41 58/2/42 48/2/41
f 44/2/39 39/2/52 42/2/39
f 39/2/52 44/2/39 38/2/52

