# Created by Kenney (www.kenney.nl)

mtllib ramp-end-c.mtl

g ramp-end-c

v 0.5 0.148 -0.348 1 1 1
v 0.5 0 -0.5 1 1 1
v -0.5 0.148 -0.348 1 1 1
v -0.5 0 -0.5 1 1 1
v -0.35 0.5 -0.5 1 1 1
v -0.35 0.648 -0.348 1 1 1
v -0.5 0.5 -0.5 1 1 1
v -0.5 0.648 -0.348 1 1 1
v 0.5 0.5 -0.5 1 1 1
v 0.5 0.648 -0.348 1 1 1
v 0.35 0.5 -0.5 1 1 1
v 0.35 0.648 -0.348 1 1 1
v 0.5 0.5 0.5 1 1 1
v 0.5 0.472 0.228 1 1 1
v -0.5 0.5 0.5 1 1 1
v -0.5 0.472 0.228 1 1 1
v 0.35 1 0.5 1 1 1
v 0.5 1 0.5 1 1 1
v 0.2875 0.8125 0.5 1 1 1
v 0.1 0.75 0.5 1 1 1
v -0.1 0.75 0.5 1 1 1
v -0.2875 0.8125 0.5 1 1 1
v -0.5 1 0.5 1 1 1
v -0.35 1 0.5 1 1 1
v -0.2875 0.3125 -0.5 1 1 1
v -0.1 0.25 -0.5 1 1 1
v 0.1 0.25 -0.5 1 1 1
v 0.2875 0.3125 -0.5 1 1 1
v 0.5 0.784 -0.184 1 1 1
v 0.5 0.896 0.004 1 1 1
v 0.35 0.784 -0.184 1 1 1
v 0.35 0.896 0.004 1 1 1
v -0.35 0.896 0.004 1 1 1
v -0.35 0.9719999 0.228 1 1 1
v -0.5 0.896 0.004 1 1 1
v -0.5 0.9719999 0.228 1 1 1
v -0.5 0.284 -0.184 1 1 1
v -0.5 0.784 -0.184 1 1 1
v -0.5 0.396 0.004 1 1 1
v 0.5 0.284 -0.184 1 1 1
v 0.5 0.396 0.004 1 1 1
v -0.35 0.784 -0.184 1 1 1
v 0.5 0.9719999 0.228 1 1 1
v 0.35 0.9719999 0.228 1 1 1
v 0.1 0.398 -0.348 1 1 1
v 0.1 0.534 -0.184 1 1 1
v -0.1 0.398 -0.348 1 1 1
v -0.1 0.534 -0.184 1 1 1
v -0.2875 0.4605 -0.348 1 1 1
v 0.2875 0.4605 -0.348 1 1 1
v 0.2875 0.5965 -0.184 1 1 1
v -0.2875 0.5965 -0.184 1 1 1
v -0.2875 0.7085 0.004 1 1 1
v -0.2875 0.7845 0.228 1 1 1
v 0.2875 0.7845 0.228 1 1 1
v 0.1 0.722 0.228 1 1 1
v 0.1 0.646 0.004 1 1 1
v -0.1 0.646 0.004 1 1 1
v -0.1 0.722 0.228 1 1 1
v 0.2875 0.7085 0.004 1 1 1

vn 0 -0.7437055 0.6685074
vn 0 -0.7164712 0.6976167
vn 0 0.7164712 -0.6976167
vn 0 0.7437055 -0.6685074
vn 0 -0.9947433 0.1024001
vn 0 -0.9770107 0.2131901
vn 0 0 1
vn 0 0 -1
vn 0 0.8168834 -0.576803
vn 0 0.9080501 -0.4188617
vn 0 0.9770107 -0.2131901
vn -1 0 0
vn 0 -0.8168834 0.576803
vn 0 -0.9080501 0.4188617
vn 0 0.9947433 -0.1024001
vn 1 0 0
vn -0.1210018 0.7364502 -0.6655823
vn -0.1325687 0.8070593 -0.5753962
vn 0.1210018 0.7364502 -0.6655823
vn 0.1325687 0.8070593 -0.5753962
vn 0.9066772 0.3022257 -0.2942724
vn 0.4911439 0.6241026 -0.6076788
vn 0.9147861 0.3049287 -0.2649241
vn 0.6448728 0.5674946 -0.5119462
vn -0.6448728 0.5674946 -0.5119462
vn -0.9147861 0.3049287 -0.2649241
vn -0.6714745 0.6041134 -0.4291493
vn -0.9282804 0.3094268 -0.2062777
vn 0.9282804 0.3094268 -0.2062777
vn 0.6714745 0.6041134 -0.4291493
vn 0.9399827 0.3133276 -0.1351238
vn 0.7002212 0.6475765 -0.3005578
vn 0.9467078 0.3155693 -0.06449965
vn 0.7181703 0.6797222 -0.1490274
vn 0.948181 0.3160603 -0.03253562
vn 0.7201624 0.6901583 -0.0710457
vn -0.7181703 0.6797222 -0.1490274
vn -0.7201624 0.6901583 -0.0710457
vn -0.1583669 0.9641622 -0.2128642
vn -0.1610298 0.9817615 -0.1010637
vn -0.1472749 0.8962705 -0.4183411
vn 0.1472749 0.8962705 -0.4183411
vn 0.1583669 0.9641622 -0.2128642
vn -0.7002212 0.6475765 -0.3005578
vn -0.9399827 0.3133276 -0.1351238
vn -0.9467078 0.3155693 -0.06449965
vn -0.1080324 0.7122779 -0.6935338
vn 0.1080324 0.7122779 -0.6935338
vn -0.4911439 0.6241026 -0.6076788
vn 0.1610298 0.9817615 -0.1010637
vn -0.948181 0.3160603 -0.03253562
vn -0.9066772 0.3022257 -0.2942724

vt 0.90625 0.375
vt 0.28125 0.375

usemtl colormap

f 3/1/1 2/1/2 1/1/1
f 2/1/2 3/1/1 4/1/2
f 7/1/3 6/1/4 5/1/3
f 6/1/4 7/1/3 8/1/4
f 11/1/3 10/1/4 9/1/3
f 10/1/4 11/1/3 12/1/4
f 15/1/5 14/1/6 13/1/5
f 14/1/6 15/1/5 16/1/6
f 19/1/7 18/1/7 17/1/7
f 19/1/7 13/1/7 18/1/7
f 13/1/7 19/1/7 15/1/7
f 15/1/7 19/1/7 20/1/7
f 21/1/7 15/1/7 20/1/7
f 22/1/7 15/1/7 21/1/7
f 15/1/7 22/1/7 23/1/7
f 23/1/7 22/1/7 24/1/7
f 25/1/8 7/1/8 5/1/8
f 25/1/8 4/1/8 7/1/8
f 4/1/8 25/1/8 2/1/8
f 2/1/8 25/1/8 26/1/8
f 2/1/8 26/1/8 27/1/8
f 28/1/8 2/1/8 27/1/8
f 2/1/8 28/1/8 9/1/8
f 9/1/8 28/1/8 11/1/8
f 31/1/9 30/1/10 29/1/9
f 30/1/10 31/1/9 32/1/10
f 35/1/10 34/1/11 33/1/10
f 34/1/11 35/1/10 36/1/11
f 3/1/12 7/1/12 4/1/12
f 7/1/12 3/1/12 8/1/12
f 8/1/12 3/1/12 37/1/12
f 8/1/12 37/1/12 38/1/12
f 38/1/12 37/1/12 39/1/12
f 38/1/12 39/1/12 35/1/12
f 35/1/12 39/1/12 16/1/12
f 35/1/12 16/1/12 36/1/12
f 36/1/12 16/1/12 15/1/12
f 36/1/12 15/1/12 23/1/12
f 37/1/13 1/1/1 40/1/13
f 1/1/1 37/1/13 3/1/1
f 39/1/14 40/1/13 41/1/14
f 40/1/13 39/1/14 37/1/13
f 8/1/4 42/1/9 6/1/4
f 42/1/9 8/1/4 38/1/9
f 12/1/4 29/1/9 10/1/4
f 29/1/9 12/1/4 31/1/9
f 32/1/10 43/1/11 30/1/10
f 43/1/11 32/1/10 44/1/11
f 16/1/6 41/1/14 14/1/6
f 41/1/14 16/1/6 39/1/14
f 36/1/11 24/1/15 34/1/11
f 24/1/15 36/1/11 23/1/15
f 38/1/9 33/1/10 42/1/9
f 33/1/10 38/1/9 35/1/10
f 44/1/11 18/1/15 43/1/11
f 18/1/15 44/1/11 17/1/15
f 10/1/16 2/1/16 9/1/16
f 2/1/16 10/1/16 1/1/16
f 1/1/16 10/1/16 29/1/16
f 1/1/16 29/1/16 40/1/16
f 40/1/16 29/1/16 30/1/16
f 40/1/16 30/1/16 41/1/16
f 41/1/16 30/1/16 43/1/16
f 41/1/16 43/1/16 14/1/16
f 14/1/16 43/1/16 18/1/16
f 14/1/16 18/1/16 13/1/16
f 47/2/19 46/2/18 45/2/17
f 46/2/18 47/2/19 48/2/20
f 6/2/23 25/2/22 5/2/21
f 25/2/22 6/2/23 49/2/24
f 51/2/27 12/2/26 50/2/25
f 12/2/26 51/2/27 31/2/28
f 33/2/31 52/2/30 42/2/29
f 52/2/30 33/2/31 53/2/32
f 45/2/17 51/2/27 50/2/25
f 51/2/27 45/2/17 46/2/18
f 24/2/35 54/2/34 34/2/33
f 54/2/34 24/2/35 22/2/36
f 56/2/39 19/2/38 55/2/37
f 19/2/38 56/2/39 20/2/40
f 58/2/42 56/2/39 57/2/41
f 56/2/39 58/2/42 59/2/43
f 46/2/18 60/2/44 51/2/27
f 60/2/44 46/2/18 57/2/41
f 55/2/37 32/2/45 60/2/44
f 32/2/45 55/2/37 44/2/46
f 48/2/20 57/2/41 46/2/18
f 57/2/41 48/2/20 58/2/42
f 26/2/48 45/2/17 27/2/47
f 45/2/17 26/2/48 47/2/19
f 27/2/47 50/2/25 28/2/49
f 50/2/25 27/2/47 45/2/17
f 52/2/30 58/2/42 48/2/20
f 58/2/42 52/2/30 53/2/32
f 42/2/29 49/2/24 6/2/23
f 49/2/24 42/2/29 52/2/30
f 60/2/44 31/2/28 51/2/27
f 31/2/28 60/2/44 32/2/45
f 54/2/34 21/2/50 59/2/43
f 21/2/50 54/2/34 22/2/36
f 19/2/38 44/2/46 55/2/37
f 44/2/46 19/2/38 17/2/51
f 53/2/32 59/2/43 58/2/42
f 59/2/43 53/2/32 54/2/34
f 25/2/22 47/2/19 26/2/48
f 47/2/19 25/2/22 49/2/24
f 50/2/25 11/2/52 28/2/49
f 11/2/52 50/2/25 12/2/26
f 49/2/24 48/2/20 47/2/19
f 48/2/20 49/2/24 52/2/30
f 59/2/43 20/2/40 56/2/39
f 20/2/40 59/2/43 21/2/50
f 57/2/41 55/2/37 60/2/44
f 55/2/37 57/2/41 56/2/39
f 34/2/33 53/2/32 33/2/31
f 53/2/32 34/2/33 54/2/34

g ramp-end-c




usemtl colormap

f 3/1/1 2/1/2 1/1/1
f 2/1/2 3/1/1 4/1/2
f 7/1/3 6/1/4 5/1/3
f 6/1/4 7/1/3 8/1/4
f 11/1/3 10/1/4 9/1/3
f 10/1/4 11/1/3 12/1/4
f 15/1/5 14/1/6 13/1/5
f 14/1/6 15/1/5 16/1/6
f 19/1/7 18/1/7 17/1/7
f 19/1/7 13/1/7 18/1/7
f 13/1/7 19/1/7 15/1/7
f 15/1/7 19/1/7 20/1/7
f 21/1/7 15/1/7 20/1/7
f 22/1/7 15/1/7 21/1/7
f 15/1/7 22/1/7 23/1/7
f 23/1/7 22/1/7 24/1/7
f 25/1/8 7/1/8 5/1/8
f 25/1/8 4/1/8 7/1/8
f 4/1/8 25/1/8 2/1/8
f 2/1/8 25/1/8 26/1/8
f 2/1/8 26/1/8 27/1/8
f 28/1/8 2/1/8 27/1/8
f 2/1/8 28/1/8 9/1/8
f 9/1/8 28/1/8 11/1/8
f 31/1/9 30/1/10 29/1/9
f 30/1/10 31/1/9 32/1/10
f 35/1/10 34/1/11 33/1/10
f 34/1/11 35/1/10 36/1/11
f 3/1/12 7/1/12 4/1/12
f 7/1/12 3/1/12 8/1/12
f 8/1/12 3/1/12 37/1/12
f 8/1/12 37/1/12 38/1/12
f 38/1/12 37/1/12 39/1/12
f 38/1/12 39/1/12 35/1/12
f 35/1/12 39/1/12 16/1/12
f 35/1/12 16/1/12 36/1/12
f 36/1/12 16/1/12 15/1/12
f 36/1/12 15/1/12 23/1/12
f 37/1/13 1/1/1 40/1/13
f 1/1/1 37/1/13 3/1/1
f 39/1/14 40/1/13 41/1/14
f 40/1/13 39/1/14 37/1/13
f 8/1/4 42/1/9 6/1/4
f 42/1/9 8/1/4 38/1/9
f 12/1/4 29/1/9 10/1/4
f 29/1/9 12/1/4 31/1/9
f 32/1/10 43/1/11 30/1/10
f 43/1/11 32/1/10 44/1/11
f 16/1/6 41/1/14 14/1/6
f 41/1/14 16/1/6 39/1/14
f 36/1/11 24/1/15 34/1/11
f 24/1/15 36/1/11 23/1/15
f 38/1/9 33/1/10 42/1/9
f 33/1/10 38/1/9 35/1/10
f 44/1/11 18/1/15 43/1/11
f 18/1/15 44/1/11 17/1/15
f 10/1/16 2/1/16 9/1/16
f 2/1/16 10/1/16 1/1/16
f 1/1/16 10/1/16 29/1/16
f 1/1/16 29/1/16 40/1/16
f 40/1/16 29/1/16 30/1/16
f 40/1/16 30/1/16 41/1/16
f 41/1/16 30/1/16 43/1/16
f 41/1/16 43/1/16 14/1/16
f 14/1/16 43/1/16 18/1/16
f 14/1/16 18/1/16 13/1/16
f 47/2/19 46/2/18 45/2/17
f 46/2/18 47/2/19 48/2/20
f 6/2/23 25/2/22 5/2/21
f 25/2/22 6/2/23 49/2/24
f 51/2/27 12/2/26 50/2/25
f 12/2/26 51/2/27 31/2/28
f 33/2/31 52/2/30 42/2/29
f 52/2/30 33/2/31 53/2/32
f 45/2/17 51/2/27 50/2/25
f 51/2/27 45/2/17 46/2/18
f 24/2/35 54/2/34 34/2/33
f 54/2/34 24/2/35 22/2/36
f 56/2/39 19/2/38 55/2/37
f 19/2/38 56/2/39 20/2/40
f 58/2/42 56/2/39 57/2/41
f 56/2/39 58/2/42 59/2/43
f 46/2/18 60/2/44 51/2/27
f 60/2/44 46/2/18 57/2/41
f 55/2/37 32/2/45 60/2/44
f 32/2/45 55/2/37 44/2/46
f 48/2/20 57/2/41 46/2/18
f 57/2/41 48/2/20 58/2/42
f 26/2/48 45/2/17 27/2/47
f 45/2/17 26/2/48 47/2/19
f 27/2/47 50/2/25 28/2/49
f 50/2/25 27/2/47 45/2/17
f 52/2/30 58/2/42 48/2/20
f 58/2/42 52/2/30 53/2/32
f 42/2/29 49/2/24 6/2/23
f 49/2/24 42/2/29 52/2/30
f 60/2/44 31/2/28 51/2/27
f 31/2/28 60/2/44 32/2/45
f 54/2/34 21/2/50 59/2/43
f 21/2/50 54/2/34 22/2/36
f 19/2/38 44/2/46 55/2/37
f 44/2/46 19/2/38 17/2/51
f 53/2/32 59/2/43 58/2/42
f 59/2/43 53/2/32 54/2/34
f 25/2/22 47/2/19 26/2/48
f 47/2/19 25/2/22 49/2/24
f 50/2/25 11/2/52 28/2/49
f 11/2/52 50/2/25 12/2/26
f 49/2/24 48/2/20 47/2/19
f 48/2/20 49/2/24 52/2/30
f 59/2/43 20/2/40 56/2/39
f 20/2/40 59/2/43 21/2/50
f 57/2/41 55/2/37 60/2/44
f 55/2/37 57/2/41 56/2/39
f 34/2/33 53/2/32 33/2/31
f 53/2/32 34/2/33 54/2/34

