# Created by Kenney (www.kenney.nl)

mtllib ramp-long-b.mtl

g ramp-long-b

v -0.35 0.608 -0.316 1 1 1
v -0.2875 0.4205 -0.316 1 1 1
v -0.35 0.676 -0.152 1 1 1
v -0.2875 0.4885 -0.152 1 1 1
v -0.1 0.302 -0.504 1 1 1
v -0.2875 0.3645 -0.504 1 1 1
v -0.1 0.264 -0.728 1 1 1
v -0.2875 0.3265 -0.728 1 1 1
v 0.2875 0.3265 -0.728 1 1 1
v 0.2875 0.3645 -0.504 1 1 1
v 0.1 0.264 -0.728 1 1 1
v 0.1 0.302 -0.504 1 1 1
v -0.35 0.514 -0.728 1 1 1
v -0.35 0.552 -0.504 1 1 1
v -0.1 0.25 -1 1 1 1
v -0.2875 0.3125 -1 1 1 1
v 0.35 0.514 -0.728 1 1 1
v 0.35 0.552 -0.504 1 1 1
v -0.1 0.426 -0.152 1 1 1
v -0.1 0.358 -0.316 1 1 1
v -0.35 0.5 -1 1 1 1
v 0.2875 0.3125 -1 1 1 1
v 0.35 0.5 -1 1 1 1
v 0.1 0.358 -0.316 1 1 1
v 0.2875 0.4205 -0.316 1 1 1
v 0.1 0.25 -1 1 1 1
v 0.35 0.608 -0.316 1 1 1
v 0.1 0.426 -0.152 1 1 1
v 0.2875 0.4885 -0.152 1 1 1
v 0.1 0.698 0.504 1 1 1
v 0.1 0.736 0.728 1 1 1
v -0.1 0.698 0.504 1 1 1
v -0.1 0.736 0.728 1 1 1
v 0.2875 0.7605 0.504 1 1 1
v 0.2875 0.7985 0.728 1 1 1
v -0.35 0.986 0.728 1 1 1
v -0.2875 0.7985 0.728 1 1 1
v -0.35 1 1 1 1 1
v -0.2875 0.8125 1 1 1 1
v 0.1 0.574 0.152 1 1 1
v 0.1 0.642 0.316 1 1 1
v -0.1 0.574 0.152 1 1 1
v -0.1 0.642 0.316 1 1 1
v -0.35 0.892 0.316 1 1 1
v -0.2875 0.7045 0.316 1 1 1
v -0.35 0.948 0.504 1 1 1
v -0.2875 0.7605 0.504 1 1 1
v -0.35 0.824 0.152 1 1 1
v -0.2875 0.6365 0.152 1 1 1
v 0.2875 0.6365 0.152 1 1 1
v 0.2875 0.7045 0.316 1 1 1
v 0.35 0.824 0.152 1 1 1
v 0.35 0.892 0.316 1 1 1
v 0.2875 0.8125 1 1 1 1
v 0.1 0.75 1 1 1 1
v 0.35 0.676 -0.152 1 1 1
v 0.35 0.986 0.728 1 1 1
v 0.35 1 1 1 1 1
v 0.35 0.948 0.504 1 1 1
v -0.1 0.75 1 1 1 1
v -0.5 0.676 -0.152 1 1 1
v -0.5 0.608 -0.316 1 1 1
v 0.5 0.014 -0.728 1 1 1
v 0.5 0 -1 1 1 1
v -0.5 0.014 -0.728 1 1 1
v -0.5 0 -1 1 1 1
v 0.5 0.052 -0.504 1 1 1
v -0.5 0.052 -0.504 1 1 1
v 0.5 0.5 -1 1 1 1
v 0.5 0.514 -0.728 1 1 1
v 0.5 0.552 -0.504 1 1 1
v 0.5 0.108 -0.316 1 1 1
v -0.5 0.108 -0.316 1 1 1
v 0.5 0.176 -0.152 1 1 1
v -0.5 0.176 -0.152 1 1 1
v -0.5 0.514 -0.728 1 1 1
v -0.5 0.552 -0.504 1 1 1
v -0.5 0.5 -1 1 1 1
v 0.5 0.324 0.152 1 1 1
v -0.5 0.324 0.152 1 1 1
v 0.5 0.608 -0.316 1 1 1
v -0.5 0.824 0.152 1 1 1
v -0.5 0.892 0.316 1 1 1
v 0.5 0.824 0.152 1 1 1
v 0.5 0.892 0.316 1 1 1
v 0.5 0.448 0.504 1 1 1
v 0.5 0.392 0.316 1 1 1
v -0.5 0.448 0.504 1 1 1
v -0.5 0.392 0.316 1 1 1
v -0.5 0.948 0.504 1 1 1
v 0.5 0.948 0.504 1 1 1
v 0.5 1 1 1 1 1
v 0.5 0.5 1 1 1 1
v -0.5 0.5 1 1 1 1
v -0.5 1 1 1 1 1
v -0.5 0.486 0.728 1 1 1
v -0.5 0.986 0.728 1 1 1
v 0.5 0.676 -0.152 1 1 1
v 0.5 0.486 0.728 1 1 1
v 0.5 0.986 0.728 1 1 1

vn 0.9423316 0.3141105 -0.1155246
vn 0.6873792 0.6843859 -0.2431577
vn 0.9388147 0.3129383 -0.1438631
vn 0.6832943 0.6657923 -0.2997158
vn 0.1554796 0.9623963 -0.2227544
vn 0.6930756 0.7020528 -0.1636098
vn 0.1583898 0.9815038 -0.1075313
vn 0.6976494 0.7121222 -0.07853203
vn -0.6976494 0.7121222 -0.07853203
vn -0.6930756 0.7020528 -0.1636098
vn -0.1583898 0.9815038 -0.1075313
vn -0.1554796 0.9623963 -0.2227544
vn 0.9480641 0.3160214 -0.03612114
vn 0.9459129 0.3153043 -0.07636684
vn 0.1591543 0.9859486 -0.05074735
vn 0.6993888 0.7137965 -0.03673952
vn -0.9480641 0.3160214 -0.03612114
vn -0.9459129 0.3153043 -0.07636684
vn 0.1467468 0.9024523 -0.4050249
vn 0.1510161 0.9320717 -0.329297
vn 0.9485576 0.3161859 -0.01627427
vn -0.6993888 0.7137965 -0.03673952
vn -0.9485576 0.3161859 -0.01627427
vn -0.1510161 0.9320717 -0.329297
vn -0.6873792 0.6843859 -0.2431577
vn -0.1591543 0.9859486 -0.05074735
vn -0.9423316 0.3141105 -0.1155246
vn -0.1467468 0.9024523 -0.4050249
vn -0.6832943 0.6657923 -0.2997158
vn -0.1571572 0.9615316 -0.2252964
vn -0.1602069 0.981077 -0.1087279
vn 0.1571572 0.9615316 -0.2252964
vn 0.1602069 0.981077 -0.1087279
vn -0.7100623 0.6857404 -0.1599121
vn -0.7141837 0.6957388 -0.07674151
vn 0.9481461 0.3160487 -0.03364692
vn 0.7141837 0.6957388 -0.07674151
vn 0.7140361 0.6991835 -0.03598738
vn -0.147255 0.9013959 -0.4071872
vn -0.152162 0.930777 -0.3324168
vn 0.147255 0.9013959 -0.4071872
vn 0.152162 0.930777 -0.3324168
vn 0.9431276 0.3143759 -0.1080657
vn 0.7014917 0.6714644 -0.2388405
vn 0.9463021 0.315434 -0.07080836
vn 0.7100623 0.6857404 -0.1599121
vn 0.9395776 0.3131926 -0.1382186
vn 0.6912247 0.658837 -0.2968875
vn -0.6912247 0.658837 -0.2968875
vn -0.7014917 0.6714644 -0.2388405
vn -0.9395776 0.3131926 -0.1382186
vn -0.9431276 0.3143759 -0.1080657
vn -0.7140361 0.6991835 -0.03598738
vn -0.16081 0.9856806 -0.05073356
vn -0.9388147 0.3129383 -0.1438631
vn -0.9481461 0.3160487 -0.03364692
vn -0.9463021 0.315434 -0.07080836
vn 0.16081 0.9856806 -0.05073356
vn 0 0.9118361 -0.4105545
vn 0 0.9423268 -0.3346944
vn 0 -0.9939852 0.109514
vn 0 -0.998678 0.05140255
vn 0 -0.9739454 0.226783
vn 0 0.998678 -0.05140255
vn 0 0.9939852 -0.109514
vn 0 0.9739454 -0.226783
vn 0 -0.9423268 0.3346944
vn 0 -0.9118361 0.4105545
vn 0 0 -1
vn 0 0 1
vn -1 0 0
vn 1 0 0

vt 0.28125 0.375
vt 0.90625 0.375

usemtl colormap

f 3/1/3 2/1/2 1/1/1
f 2/1/2 3/1/3 4/1/4
f 7/1/7 6/1/6 5/1/5
f 6/1/6 7/1/7 8/1/8
f 11/1/11 10/1/10 9/1/9
f 10/1/10 11/1/11 12/1/12
f 14/1/14 8/1/8 13/1/13
f 8/1/8 14/1/14 6/1/6
f 16/1/16 7/1/7 15/1/15
f 7/1/7 16/1/16 8/1/8
f 7/1/7 12/1/12 11/1/11
f 12/1/12 7/1/7 5/1/5
f 10/1/10 17/1/17 9/1/9
f 17/1/17 10/1/10 18/1/18
f 20/1/20 4/1/4 19/1/19
f 4/1/4 20/1/20 2/1/2
f 13/1/13 16/1/16 21/1/21
f 16/1/16 13/1/13 8/1/8
f 9/1/9 23/1/23 22/1/22
f 23/1/23 9/1/9 17/1/17
f 5/1/5 24/1/24 12/1/12
f 24/1/24 5/1/5 20/1/20
f 12/1/12 25/1/25 10/1/10
f 25/1/25 12/1/12 24/1/24
f 15/1/15 11/1/11 26/1/26
f 11/1/11 15/1/15 7/1/7
f 25/1/25 18/1/18 10/1/10
f 18/1/18 25/1/25 27/1/27
f 6/1/6 20/1/20 5/1/5
f 20/1/20 6/1/6 2/1/2
f 24/1/24 19/1/19 28/1/28
f 19/1/19 24/1/24 20/1/20
f 25/1/25 28/1/28 29/1/29
f 28/1/28 25/1/25 24/1/24
f 1/1/1 6/1/6 14/1/14
f 6/1/6 1/1/1 2/1/2
f 32/1/32 31/1/31 30/1/30
f 31/1/31 32/1/32 33/1/33
f 30/1/30 35/1/35 34/1/34
f 35/1/35 30/1/30 31/1/31
f 38/1/21 37/1/37 36/1/36
f 37/1/37 38/1/21 39/1/38
f 42/1/41 41/1/40 40/1/39
f 41/1/40 42/1/41 43/1/42
f 46/1/45 45/1/44 44/1/43
f 45/1/44 46/1/45 47/1/46
f 48/1/47 4/1/4 3/1/3
f 4/1/4 48/1/47 49/1/48
f 40/1/39 51/1/50 50/1/49
f 51/1/50 40/1/39 41/1/40
f 36/1/36 47/1/46 46/1/45
f 47/1/46 36/1/36 37/1/37
f 43/1/42 30/1/30 41/1/40
f 30/1/30 43/1/42 32/1/32
f 28/1/28 50/1/49 29/1/29
f 50/1/49 28/1/28 40/1/39
f 51/1/50 52/1/51 50/1/49
f 52/1/51 51/1/50 53/1/52
f 45/1/44 32/1/32 43/1/42
f 32/1/32 45/1/44 47/1/46
f 31/1/31 54/1/53 35/1/35
f 54/1/53 31/1/31 55/1/54
f 29/1/29 27/1/27 25/1/25
f 27/1/27 29/1/29 56/1/55
f 19/1/19 40/1/39 28/1/28
f 40/1/39 19/1/19 42/1/41
f 54/1/53 57/1/56 35/1/35
f 57/1/56 54/1/53 58/1/23
f 50/1/49 56/1/55 29/1/29
f 56/1/55 50/1/49 52/1/51
f 26/1/26 9/1/9 22/1/22
f 9/1/9 26/1/26 11/1/11
f 34/1/34 53/1/52 51/1/50
f 53/1/52 34/1/34 59/1/57
f 44/1/43 49/1/48 48/1/47
f 49/1/48 44/1/43 45/1/44
f 37/1/37 60/1/58 33/1/33
f 60/1/58 37/1/37 39/1/38
f 41/1/40 34/1/34 51/1/50
f 34/1/34 41/1/40 30/1/30
f 49/1/48 43/1/42 42/1/41
f 43/1/42 49/1/48 45/1/44
f 47/1/46 33/1/33 32/1/32
f 33/1/33 47/1/46 37/1/37
f 4/1/4 42/1/41 19/1/19
f 42/1/41 4/1/4 49/1/48
f 35/1/35 59/1/57 34/1/34
f 59/1/57 35/1/35 57/1/56
f 33/1/33 55/1/54 31/1/31
f 55/1/54 33/1/33 60/1/58
f 1/2/60 61/2/59 3/2/59
f 61/2/59 1/2/60 62/2/60
f 65/2/61 64/2/62 63/2/61
f 64/2/62 65/2/61 66/2/62
f 68/2/63 63/2/61 67/2/63
f 63/2/61 68/2/63 65/2/61
f 23/2/64 70/2/65 69/2/64
f 70/2/65 23/2/64 17/2/65
f 17/2/65 71/2/66 70/2/65
f 71/2/66 17/2/65 18/2/66
f 72/2/67 68/2/63 67/2/63
f 68/2/63 72/2/67 73/2/67
f 75/2/68 72/2/67 74/2/68
f 72/2/67 75/2/68 73/2/67
f 76/2/65 14/2/66 13/2/65
f 14/2/66 76/2/65 77/2/66
f 16/2/69 78/2/69 21/2/69
f 16/2/69 66/2/69 78/2/69
f 66/2/69 16/2/69 64/2/69
f 64/2/69 16/2/69 15/2/69
f 26/2/69 64/2/69 15/2/69
f 22/2/69 64/2/69 26/2/69
f 64/2/69 22/2/69 69/2/69
f 69/2/69 22/2/69 23/2/69
f 78/2/64 13/2/65 21/2/64
f 13/2/65 78/2/64 76/2/65
f 79/2/68 75/2/68 74/2/68
f 75/2/68 79/2/68 80/2/68
f 18/2/66 81/2/60 71/2/66
f 81/2/60 18/2/66 27/2/60
f 77/2/66 1/2/60 14/2/66
f 1/2/60 77/2/66 62/2/60
f 82/2/59 44/2/60 48/2/59
f 44/2/60 82/2/59 83/2/60
f 52/2/59 85/2/60 84/2/59
f 85/2/60 52/2/59 53/2/60
f 88/2/63 87/2/67 86/2/63
f 87/2/67 88/2/63 89/2/67
f 83/2/60 46/2/66 44/2/60
f 46/2/66 83/2/60 90/2/66
f 89/2/67 79/2/68 87/2/67
f 79/2/68 89/2/67 80/2/68
f 53/2/60 91/2/66 85/2/60
f 91/2/66 53/2/60 59/2/66
f 61/2/59 48/2/59 3/2/59
f 48/2/59 61/2/59 82/2/59
f 54/2/70 92/2/70 58/2/70
f 54/2/70 93/2/70 92/2/70
f 93/2/70 54/2/70 94/2/70
f 94/2/70 54/2/70 55/2/70
f 60/2/70 94/2/70 55/2/70
f 39/2/70 94/2/70 60/2/70
f 94/2/70 39/2/70 95/2/70
f 95/2/70 39/2/70 38/2/70
f 65/2/71 78/2/71 66/2/71
f 78/2/71 65/2/71 76/2/71
f 76/2/71 65/2/71 68/2/71
f 76/2/71 68/2/71 77/2/71
f 77/2/71 68/2/71 73/2/71
f 77/2/71 73/2/71 62/2/71
f 62/2/71 73/2/71 75/2/71
f 62/2/71 75/2/71 61/2/71
f 61/2/71 75/2/71 80/2/71
f 61/2/71 80/2/71 82/2/71
f 82/2/71 80/2/71 89/2/71
f 82/2/71 89/2/71 83/2/71
f 83/2/71 89/2/71 88/2/71
f 83/2/71 88/2/71 90/2/71
f 90/2/71 88/2/71 96/2/71
f 90/2/71 96/2/71 97/2/71
f 97/2/71 96/2/71 94/2/71
f 97/2/71 94/2/71 95/2/71
f 81/2/60 56/2/59 98/2/59
f 56/2/59 81/2/60 27/2/60
f 96/2/61 86/2/63 99/2/61
f 86/2/63 96/2/61 88/2/63
f 70/2/72 64/2/72 69/2/72
f 64/2/72 70/2/72 63/2/72
f 63/2/72 70/2/72 71/2/72
f 63/2/72 71/2/72 67/2/72
f 67/2/72 71/2/72 81/2/72
f 67/2/72 81/2/72 72/2/72
f 72/2/72 81/2/72 98/2/72
f 72/2/72 98/2/72 74/2/72
f 74/2/72 98/2/72 84/2/72
f 74/2/72 84/2/72 79/2/72
f 79/2/72 84/2/72 85/2/72
f 79/2/72 85/2/72 87/2/72
f 87/2/72 85/2/72 91/2/72
f 87/2/72 91/2/72 86/2/72
f 86/2/72 91/2/72 100/2/72
f 86/2/72 100/2/72 99/2/72
f 99/2/72 100/2/72 92/2/72
f 99/2/72 92/2/72 93/2/72
f 90/2/66 36/2/65 46/2/66
f 36/2/65 90/2/66 97/2/65
f 56/2/59 84/2/59 98/2/59
f 84/2/59 56/2/59 52/2/59
f 94/2/62 99/2/61 93/2/62
f 99/2/61 94/2/62 96/2/61
f 97/2/65 38/2/64 36/2/65
f 38/2/64 97/2/65 95/2/64
f 59/2/66 100/2/65 91/2/66
f 100/2/65 59/2/66 57/2/65
f 57/2/65 92/2/64 100/2/65
f 92/2/64 57/2/65 58/2/64

g ramp-long-b




usemtl colormap

f 3/1/3 2/1/2 1/1/1
f 2/1/2 3/1/3 4/1/4
f 7/1/7 6/1/6 5/1/5
f 6/1/6 7/1/7 8/1/8
f 11/1/11 10/1/10 9/1/9
f 10/1/10 11/1/11 12/1/12
f 14/1/14 8/1/8 13/1/13
f 8/1/8 14/1/14 6/1/6
f 16/1/16 7/1/7 15/1/15
f 7/1/7 16/1/16 8/1/8
f 7/1/7 12/1/12 11/1/11
f 12/1/12 7/1/7 5/1/5
f 10/1/10 17/1/17 9/1/9
f 17/1/17 10/1/10 18/1/18
f 20/1/20 4/1/4 19/1/19
f 4/1/4 20/1/20 2/1/2
f 13/1/13 16/1/16 21/1/21
f 16/1/16 13/1/13 8/1/8
f 9/1/9 23/1/23 22/1/22
f 23/1/23 9/1/9 17/1/17
f 5/1/5 24/1/24 12/1/12
f 24/1/24 5/1/5 20/1/20
f 12/1/12 25/1/25 10/1/10
f 25/1/25 12/1/12 24/1/24
f 15/1/15 11/1/11 26/1/26
f 11/1/11 15/1/15 7/1/7
f 25/1/25 18/1/18 10/1/10
f 18/1/18 25/1/25 27/1/27
f 6/1/6 20/1/20 5/1/5
f 20/1/20 6/1/6 2/1/2
f 24/1/24 19/1/19 28/1/28
f 19/1/19 24/1/24 20/1/20
f 25/1/25 28/1/28 29/1/29
f 28/1/28 25/1/25 24/1/24
f 1/1/1 6/1/6 14/1/14
f 6/1/6 1/1/1 2/1/2
f 32/1/32 31/1/31 30/1/30
f 31/1/31 32/1/32 33/1/33
f 30/1/30 35/1/35 34/1/34
f 35/1/35 30/1/30 31/1/31
f 38/1/21 37/1/37 36/1/36
f 37/1/37 38/1/21 39/1/38
f 42/1/41 41/1/40 40/1/39
f 41/1/40 42/1/41 43/1/42
f 46/1/45 45/1/44 44/1/43
f 45/1/44 46/1/45 47/1/46
f 48/1/47 4/1/4 3/1/3
f 4/1/4 48/1/47 49/1/48
f 40/1/39 51/1/50 50/1/49
f 51/1/50 40/1/39 41/1/40
f 36/1/36 47/1/46 46/1/45
f 47/1/46 36/1/36 37/1/37
f 43/1/42 30/1/30 41/1/40
f 30/1/30 43/1/42 32/1/32
f 28/1/28 50/1/49 29/1/29
f 50/1/49 28/1/28 40/1/39
f 51/1/50 52/1/51 50/1/49
f 52/1/51 51/1/50 53/1/52
f 45/1/44 32/1/32 43/1/42
f 32/1/32 45/1/44 47/1/46
f 31/1/31 54/1/53 35/1/35
f 54/1/53 31/1/31 55/1/54
f 29/1/29 27/1/27 25/1/25
f 27/1/27 29/1/29 56/1/55
f 19/1/19 40/1/39 28/1/28
f 40/1/39 19/1/19 42/1/41
f 54/1/53 57/1/56 35/1/35
f 57/1/56 54/1/53 58/1/23
f 50/1/49 56/1/55 29/1/29
f 56/1/55 50/1/49 52/1/51
f 26/1/26 9/1/9 22/1/22
f 9/1/9 26/1/26 11/1/11
f 34/1/34 53/1/52 51/1/50
f 53/1/52 34/1/34 59/1/57
f 44/1/43 49/1/48 48/1/47
f 49/1/48 44/1/43 45/1/44
f 37/1/37 60/1/58 33/1/33
f 60/1/58 37/1/37 39/1/38
f 41/1/40 34/1/34 51/1/50
f 34/1/34 41/1/40 30/1/30
f 49/1/48 43/1/42 42/1/41
f 43/1/42 49/1/48 45/1/44
f 47/1/46 33/1/33 32/1/32
f 33/1/33 47/1/46 37/1/37
f 4/1/4 42/1/41 19/1/19
f 42/1/41 4/1/4 49/1/48
f 35/1/35 59/1/57 34/1/34
f 59/1/57 35/1/35 57/1/56
f 33/1/33 55/1/54 31/1/31
f 55/1/54 33/1/33 60/1/58
f 1/2/60 61/2/59 3/2/59
f 61/2/59 1/2/60 62/2/60
f 65/2/61 64/2/62 63/2/61
f 64/2/62 65/2/61 66/2/62
f 68/2/63 63/2/61 67/2/63
f 63/2/61 68/2/63 65/2/61
f 23/2/64 70/2/65 69/2/64
f 70/2/65 23/2/64 17/2/65
f 17/2/65 71/2/66 70/2/65
f 71/2/66 17/2/65 18/2/66
f 72/2/67 68/2/63 67/2/63
f 68/2/63 72/2/67 73/2/67
f 75/2/68 72/2/67 74/2/68
f 72/2/67 75/2/68 73/2/67
f 76/2/65 14/2/66 13/2/65
f 14/2/66 76/2/65 77/2/66
f 16/2/69 78/2/69 21/2/69
f 16/2/69 66/2/69 78/2/69
f 66/2/69 16/2/69 64/2/69
f 64/2/69 16/2/69 15/2/69
f 26/2/69 64/2/69 15/2/69
f 22/2/69 64/2/69 26/2/69
f 64/2/69 22/2/69 69/2/69
f 69/2/69 22/2/69 23/2/69
f 78/2/64 13/2/65 21/2/64
f 13/2/65 78/2/64 76/2/65
f 79/2/68 75/2/68 74/2/68
f 75/2/68 79/2/68 80/2/68
f 18/2/66 81/2/60 71/2/66
f 81/2/60 18/2/66 27/2/60
f 77/2/66 1/2/60 14/2/66
f 1/2/60 77/2/66 62/2/60
f 82/2/59 44/2/60 48/2/59
f 44/2/60 82/2/59 83/2/60
f 52/2/59 85/2/60 84/2/59
f 85/2/60 52/2/59 53/2/60
f 88/2/63 87/2/67 86/2/63
f 87/2/67 88/2/63 89/2/67
f 83/2/60 46/2/66 44/2/60
f 46/2/66 83/2/60 90/2/66
f 89/2/67 79/2/68 87/2/67
f 79/2/68 89/2/67 80/2/68
f 53/2/60 91/2/66 85/2/60
f 91/2/66 53/2/60 59/2/66
f 61/2/59 48/2/59 3/2/59
f 48/2/59 61/2/59 82/2/59
f 54/2/70 92/2/70 58/2/70
f 54/2/70 93/2/70 92/2/70
f 93/2/70 54/2/70 94/2/70
f 94/2/70 54/2/70 55/2/70
f 60/2/70 94/2/70 55/2/70
f 39/2/70 94/2/70 60/2/70
f 94/2/70 39/2/70 95/2/70
f 95/2/70 39/2/70 38/2/70
f 65/2/71 78/2/71 66/2/71
f 78/2/71 65/2/71 76/2/71
f 76/2/71 65/2/71 68/2/71
f 76/2/71 68/2/71 77/2/71
f 77/2/71 68/2/71 73/2/71
f 77/2/71 73/2/71 62/2/71
f 62/2/71 73/2/71 75/2/71
f 62/2/71 75/2/71 61/2/71
f 61/2/71 75/2/71 80/2/71
f 61/2/71 80/2/71 82/2/71
f 82/2/71 80/2/71 89/2/71
f 82/2/71 89/2/71 83/2/71
f 83/2/71 89/2/71 88/2/71
f 83/2/71 88/2/71 90/2/71
f 90/2/71 88/2/71 96/2/71
f 90/2/71 96/2/71 97/2/71
f 97/2/71 96/2/71 94/2/71
f 97/2/71 94/2/71 95/2/71
f 81/2/60 56/2/59 98/2/59
f 56/2/59 81/2/60 27/2/60
f 96/2/61 86/2/63 99/2/61
f 86/2/63 96/2/61 88/2/63
f 70/2/72 64/2/72 69/2/72
f 64/2/72 70/2/72 63/2/72
f 63/2/72 70/2/72 71/2/72
f 63/2/72 71/2/72 67/2/72
f 67/2/72 71/2/72 81/2/72
f 67/2/72 81/2/72 72/2/72
f 72/2/72 81/2/72 98/2/72
f 72/2/72 98/2/72 74/2/72
f 74/2/72 98/2/72 84/2/72
f 74/2/72 84/2/72 79/2/72
f 79/2/72 84/2/72 85/2/72
f 79/2/72 85/2/72 87/2/72
f 87/2/72 85/2/72 91/2/72
f 87/2/72 91/2/72 86/2/72
f 86/2/72 91/2/72 100/2/72
f 86/2/72 100/2/72 99/2/72
f 99/2/72 100/2/72 92/2/72
f 99/2/72 92/2/72 93/2/72
f 90/2/66 36/2/65 46/2/66
f 36/2/65 90/2/66 97/2/65
f 56/2/59 84/2/59 98/2/59
f 84/2/59 56/2/59 52/2/59
f 94/2/62 99/2/61 93/2/62
f 99/2/61 94/2/62 96/2/61
f 97/2/65 38/2/64 36/2/65
f 38/2/64 97/2/65 95/2/64
f 59/2/66 100/2/65 91/2/66
f 100/2/65 59/2/66 57/2/65
f 57/2/65 92/2/64 100/2/65
f 92/2/64 57/2/65 58/2/64

