# Created by Kenney (www.kenney.nl)

mtllib ramp-long-solid-b.mtl

g ramp-long-solid-b

v -0.35 0.5 -1 1 1 1
v -0.5 0.5 -1 1 1 1
v -0.2875 0.3125 -1 1 1 1
v -0.5 2.122962E-17 -1 1 1 1
v 0.5 2.122962E-17 -1 1 1 1
v -0.1 0.25 -1 1 1 1
v 0.1 0.25 -1 1 1 1
v 0.2875 0.3125 -1 1 1 1
v 0.5 0.5 -1 1 1 1
v 0.35 0.5 -1 1 1 1
v 0.5 0.986 0.728 1 1 1
v 0.5 1 1 1 1 1
v 0.35 0.986 0.728 1 1 1
v 0.35 1 1 1 1 1
v 0.5 0.608 -0.316 1 1 1
v 0.5 0.676 -0.152 1 1 1
v 0.35 0.608 -0.316 1 1 1
v 0.35 0.676 -0.152 1 1 1
v 0.5 0.824 0.152 1 1 1
v 0.5 0.892 0.316 1 1 1
v 0.35 0.824 0.152 1 1 1
v 0.35 0.892 0.316 1 1 1
v 0.2875 0.8125 1 1 1 1
v 0.5 2.122962E-17 1 1 1 1
v 0.1 0.75 1 1 1 1
v -0.1 0.75 1 1 1 1
v -0.2875 0.8125 1 1 1 1
v -0.5 1 1 1 1 1
v -0.35 1 1 1 1 1
v -0.5 0 1 1 1 1
v -0.35 0.514 -0.728 1 1 1
v -0.35 0.552 -0.504 1 1 1
v -0.5 0.514 -0.728 1 1 1
v -0.5 0.552 -0.504 1 1 1
v 0.5 0.948 0.504 1 1 1
v 0.35 0.948 0.504 1 1 1
v -0.35 0.676 -0.152 1 1 1
v -0.35 0.824 0.152 1 1 1
v -0.5 0.676 -0.152 1 1 1
v -0.5 0.824 0.152 1 1 1
v -0.35 0.892 0.316 1 1 1
v -0.35 0.948 0.504 1 1 1
v -0.5 0.892 0.316 1 1 1
v -0.5 0.948 0.504 1 1 1
v -0.5 0.608 -0.316 1 1 1
v -0.5 0.986 0.728 1 1 1
v -0.35 0.608 -0.316 1 1 1
v 0.5 0.552 -0.504 1 1 1
v 0.35 0.552 -0.504 1 1 1
v 0.5 0.514 -0.728 1 1 1
v 0.35 0.514 -0.728 1 1 1
v -0.35 0.986 0.728 1 1 1
v -0.2875 0.4205 -0.316 1 1 1
v -0.2875 0.4885 -0.152 1 1 1
v 0.1 0.302 -0.504 1 1 1
v 0.1 0.358 -0.316 1 1 1
v -0.1 0.302 -0.504 1 1 1
v -0.1 0.358 -0.316 1 1 1
v 0.1 0.426 -0.152 1 1 1
v -0.1 0.426 -0.152 1 1 1
v -0.2875 0.3645 -0.504 1 1 1
v -0.1 0.736 0.728 1 1 1
v -0.2875 0.7985 0.728 1 1 1
v 0.2875 0.6365 0.152 1 1 1
v 0.2875 0.7045 0.316 1 1 1
v 0.1 0.574 0.152 1 1 1
v 0.1 0.642 0.316 1 1 1
v 0.1 0.698 0.504 1 1 1
v 0.1 0.736 0.728 1 1 1
v -0.1 0.698 0.504 1 1 1
v 0.2875 0.7605 0.504 1 1 1
v 0.2875 0.7985 0.728 1 1 1
v 0.2875 0.3265 -0.728 1 1 1
v 0.1 0.264 -0.728 1 1 1
v -0.1 0.264 -0.728 1 1 1
v -0.2875 0.3265 -0.728 1 1 1
v -0.2875 0.7045 0.316 1 1 1
v -0.2875 0.7605 0.504 1 1 1
v 0.2875 0.4885 -0.152 1 1 1
v -0.2875 0.6365 0.152 1 1 1
v 0.2875 0.3645 -0.504 1 1 1
v 0.2875 0.4205 -0.316 1 1 1
v -0.1 0.574 0.152 1 1 1
v -0.1 0.642 0.316 1 1 1

vn 0 0 -1
vn 0 0.9939852 -0.109514
vn 0 0.998678 -0.05140255
vn 0 0.9423268 -0.3346944
vn 0 0.9118361 -0.4105545
vn 0 0 1
vn 0 0.9739454 -0.226783
vn 0 -1 0
vn -1 0 0
vn 1 0 0
vn 0.9423316 0.3141105 -0.1155246
vn 0.6873792 0.6843859 -0.2431577
vn 0.9388147 0.3129383 -0.1438631
vn 0.6832943 0.6657923 -0.2997158
vn -0.1554796 0.9623963 -0.2227544
vn -0.1510161 0.9320717 -0.329297
vn 0.1554796 0.9623963 -0.2227544
vn 0.1510161 0.9320717 -0.329297
vn -0.1467468 0.9024523 -0.4050249
vn 0.1467468 0.9024523 -0.4050249
vn 0.9459129 0.3153043 -0.07636684
vn 0.6930756 0.7020528 -0.1636098
vn 0.1602069 0.981077 -0.1087279
vn 0.16081 0.9856806 -0.05073356
vn 0.7141837 0.6957388 -0.07674151
vn 0.7140361 0.6991835 -0.03598738
vn -0.6912247 0.658837 -0.2968875
vn -0.7014917 0.6714644 -0.2388405
vn -0.147255 0.9013959 -0.4071872
vn -0.152162 0.930777 -0.3324168
vn -0.1571572 0.9615316 -0.2252964
vn -0.1602069 0.981077 -0.1087279
vn 0.1571572 0.9615316 -0.2252964
vn -0.7100623 0.6857404 -0.1599121
vn -0.9463021 0.315434 -0.07080836
vn -0.7141837 0.6957388 -0.07674151
vn -0.9481461 0.3160487 -0.03364692
vn -0.6993888 0.7137965 -0.03673952
vn -0.6976494 0.7121222 -0.07853203
vn -0.1591543 0.9859486 -0.05074735
vn -0.1583898 0.9815038 -0.1075313
vn 0.1591543 0.9859486 -0.05074735
vn 0.1583898 0.9815038 -0.1075313
vn 0.6993888 0.7137965 -0.03673952
vn 0.6976494 0.7121222 -0.07853203
vn -0.7140361 0.6991835 -0.03598738
vn -0.16081 0.9856806 -0.05073356
vn -0.9485576 0.3161859 -0.01627427
vn 0.9431276 0.3143759 -0.1080657
vn 0.7014917 0.6714644 -0.2388405
vn 0.9463021 0.315434 -0.07080836
vn 0.7100623 0.6857404 -0.1599121
vn -0.6832943 0.6657923 -0.2997158
vn 0.9395776 0.3131926 -0.1382186
vn 0.6912247 0.658837 -0.2968875
vn -0.6930756 0.7020528 -0.1636098
vn -0.9459129 0.3153043 -0.07636684
vn -0.6873792 0.6843859 -0.2431577
vn -0.9423316 0.3141105 -0.1155246
vn -0.9480641 0.3160214 -0.03612114
vn -0.9431276 0.3143759 -0.1080657
vn 0.147255 0.9013959 -0.4071872
vn 0.152162 0.930777 -0.3324168
vn 0.9485576 0.3161859 -0.01627427
vn 0.9480641 0.3160214 -0.03612114
vn 0.9481461 0.3160487 -0.03364692
vn -0.9388147 0.3129383 -0.1438631
vn -0.9395776 0.3131926 -0.1382186

vt 0.90625 0.375
vt 0.28125 0.375

usemtl colormap

f 3/1/1 2/1/1 1/1/1
f 3/1/1 4/1/1 2/1/1
f 4/1/1 3/1/1 5/1/1
f 5/1/1 3/1/1 6/1/1
f 7/1/1 5/1/1 6/1/1
f 8/1/1 5/1/1 7/1/1
f 5/1/1 8/1/1 9/1/1
f 9/1/1 8/1/1 10/1/1
f 13/1/2 12/1/3 11/1/2
f 12/1/3 13/1/2 14/1/3
f 17/1/4 16/1/5 15/1/4
f 16/1/5 17/1/4 18/1/5
f 21/1/5 20/1/4 19/1/5
f 20/1/4 21/1/5 22/1/4
f 23/1/6 12/1/6 14/1/6
f 23/1/6 24/1/6 12/1/6
f 24/1/6 23/1/6 25/1/6
f 26/1/6 24/1/6 25/1/6
f 27/1/6 24/1/6 26/1/6
f 28/1/6 24/1/6 27/1/6
f 28/1/6 27/1/6 29/1/6
f 24/1/6 28/1/6 30/1/6
f 33/1/2 32/1/7 31/1/2
f 32/1/7 33/1/2 34/1/7
f 22/1/4 35/1/7 20/1/4
f 35/1/7 22/1/4 36/1/7
f 39/1/5 38/1/5 37/1/5
f 38/1/5 39/1/5 40/1/5
f 43/1/4 42/1/7 41/1/4
f 42/1/7 43/1/4 44/1/7
f 40/1/5 41/1/4 38/1/5
f 41/1/4 40/1/5 43/1/4
f 2/1/3 31/1/2 1/1/3
f 31/1/2 2/1/3 33/1/2
f 30/1/8 5/1/8 24/1/8
f 5/1/8 30/1/8 4/1/8
f 30/1/9 2/1/9 4/1/9
f 2/1/9 30/1/9 33/1/9
f 33/1/9 30/1/9 34/1/9
f 34/1/9 30/1/9 45/1/9
f 45/1/9 30/1/9 39/1/9
f 39/1/9 30/1/9 40/1/9
f 40/1/9 30/1/9 43/1/9
f 43/1/9 30/1/9 44/1/9
f 44/1/9 30/1/9 46/1/9
f 46/1/9 30/1/9 28/1/9
f 45/1/4 37/1/5 47/1/4
f 37/1/5 45/1/4 39/1/5
f 34/1/7 47/1/4 32/1/7
f 47/1/4 34/1/7 45/1/4
f 49/1/7 15/1/4 48/1/7
f 15/1/4 49/1/7 17/1/4
f 51/1/2 48/1/7 50/1/2
f 48/1/7 51/1/2 49/1/7
f 46/1/2 29/1/3 52/1/2
f 29/1/3 46/1/2 28/1/3
f 44/1/7 52/1/2 42/1/7
f 52/1/2 44/1/7 46/1/2
f 10/1/3 50/1/2 9/1/3
f 50/1/2 10/1/3 51/1/2
f 18/1/5 19/1/5 16/1/5
f 19/1/5 18/1/5 21/1/5
f 36/1/7 11/1/2 35/1/7
f 11/1/2 36/1/7 13/1/2
f 50/1/10 5/1/10 9/1/10
f 5/1/10 50/1/10 24/1/10
f 24/1/10 50/1/10 48/1/10
f 24/1/10 48/1/10 15/1/10
f 24/1/10 15/1/10 16/1/10
f 24/1/10 16/1/10 19/1/10
f 24/1/10 19/1/10 20/1/10
f 24/1/10 20/1/10 35/1/10
f 24/1/10 35/1/10 11/1/10
f 24/1/10 11/1/10 12/1/10
f 37/2/13 53/2/12 47/2/11
f 53/2/12 37/2/13 54/2/14
f 57/2/17 56/2/16 55/2/15
f 56/2/16 57/2/17 58/2/18
f 56/2/16 60/2/20 59/2/19
f 60/2/20 56/2/16 58/2/18
f 47/2/11 61/2/22 32/2/21
f 61/2/22 47/2/11 53/2/12
f 63/2/25 26/2/24 62/2/23
f 26/2/24 63/2/25 27/2/26
f 66/2/29 65/2/28 64/2/27
f 65/2/28 66/2/29 67/2/30
f 70/2/33 69/2/32 68/2/31
f 69/2/32 70/2/33 62/2/23
f 72/2/36 36/2/35 71/2/34
f 36/2/35 72/2/36 13/2/37
f 7/2/40 73/2/39 8/2/38
f 73/2/39 7/2/40 74/2/41
f 3/2/44 75/2/43 6/2/42
f 75/2/43 3/2/44 76/2/45
f 69/2/32 23/2/46 72/2/36
f 23/2/46 69/2/32 25/2/47
f 23/2/46 13/2/37 72/2/36
f 13/2/37 23/2/46 14/2/48
f 42/2/51 77/2/50 41/2/49
f 77/2/50 42/2/51 78/2/52
f 59/2/19 64/2/27 79/2/53
f 64/2/27 59/2/19 66/2/29
f 38/2/54 54/2/14 37/2/13
f 54/2/14 38/2/54 80/2/55
f 82/2/58 49/2/57 81/2/56
f 49/2/57 82/2/58 17/2/59
f 73/2/39 10/2/48 8/2/38
f 10/2/48 73/2/39 51/2/60
f 67/2/30 71/2/34 65/2/28
f 71/2/34 67/2/30 68/2/31
f 71/2/34 22/2/61 65/2/28
f 22/2/61 71/2/34 36/2/35
f 61/2/22 58/2/18 57/2/17
f 58/2/18 61/2/22 53/2/12
f 54/2/14 83/2/62 60/2/20
f 83/2/62 54/2/14 80/2/55
f 60/2/20 66/2/29 59/2/19
f 66/2/29 60/2/20 83/2/62
f 74/2/41 57/2/17 55/2/15
f 57/2/17 74/2/41 75/2/43
f 68/2/31 72/2/36 71/2/34
f 72/2/36 68/2/31 69/2/32
f 83/2/62 67/2/30 66/2/29
f 67/2/30 83/2/62 84/2/63
f 31/2/65 3/2/44 1/2/64
f 3/2/44 31/2/65 76/2/45
f 77/2/50 70/2/33 84/2/63
f 70/2/33 77/2/50 78/2/52
f 52/2/66 78/2/52 42/2/51
f 78/2/52 52/2/66 63/2/25
f 76/2/45 57/2/17 75/2/43
f 57/2/17 76/2/45 61/2/22
f 80/2/55 84/2/63 83/2/62
f 84/2/63 80/2/55 77/2/50
f 62/2/23 25/2/47 69/2/32
f 25/2/47 62/2/23 26/2/24
f 41/2/49 80/2/55 38/2/54
f 80/2/55 41/2/49 77/2/50
f 56/2/16 79/2/53 82/2/58
f 79/2/53 56/2/16 59/2/19
f 32/2/21 76/2/45 31/2/65
f 76/2/45 32/2/21 61/2/22
f 74/2/41 81/2/56 73/2/39
f 81/2/56 74/2/41 55/2/15
f 6/2/42 74/2/41 7/2/40
f 74/2/41 6/2/42 75/2/43
f 81/2/56 51/2/60 73/2/39
f 51/2/60 81/2/56 49/2/57
f 58/2/18 54/2/14 60/2/20
f 54/2/14 58/2/18 53/2/12
f 55/2/15 82/2/58 81/2/56
f 82/2/58 55/2/15 56/2/16
f 29/2/64 63/2/25 52/2/66
f 63/2/25 29/2/64 27/2/26
f 84/2/63 68/2/31 67/2/30
f 68/2/31 84/2/63 70/2/33
f 79/2/53 17/2/59 82/2/58
f 17/2/59 79/2/53 18/2/67
f 64/2/27 18/2/67 79/2/53
f 18/2/67 64/2/27 21/2/68
f 65/2/28 21/2/68 64/2/27
f 21/2/68 65/2/28 22/2/61
f 78/2/52 62/2/23 70/2/33
f 62/2/23 78/2/52 63/2/25

g ramp-long-solid-b




usemtl colormap

f 3/1/1 2/1/1 1/1/1
f 3/1/1 4/1/1 2/1/1
f 4/1/1 3/1/1 5/1/1
f 5/1/1 3/1/1 6/1/1
f 7/1/1 5/1/1 6/1/1
f 8/1/1 5/1/1 7/1/1
f 5/1/1 8/1/1 9/1/1
f 9/1/1 8/1/1 10/1/1
f 13/1/2 12/1/3 11/1/2
f 12/1/3 13/1/2 14/1/3
f 17/1/4 16/1/5 15/1/4
f 16/1/5 17/1/4 18/1/5
f 21/1/5 20/1/4 19/1/5
f 20/1/4 21/1/5 22/1/4
f 23/1/6 12/1/6 14/1/6
f 23/1/6 24/1/6 12/1/6
f 24/1/6 23/1/6 25/1/6
f 26/1/6 24/1/6 25/1/6
f 27/1/6 24/1/6 26/1/6
f 28/1/6 24/1/6 27/1/6
f 28/1/6 27/1/6 29/1/6
f 24/1/6 28/1/6 30/1/6
f 33/1/2 32/1/7 31/1/2
f 32/1/7 33/1/2 34/1/7
f 22/1/4 35/1/7 20/1/4
f 35/1/7 22/1/4 36/1/7
f 39/1/5 38/1/5 37/1/5
f 38/1/5 39/1/5 40/1/5
f 43/1/4 42/1/7 41/1/4
f 42/1/7 43/1/4 44/1/7
f 40/1/5 41/1/4 38/1/5
f 41/1/4 40/1/5 43/1/4
f 2/1/3 31/1/2 1/1/3
f 31/1/2 2/1/3 33/1/2
f 30/1/8 5/1/8 24/1/8
f 5/1/8 30/1/8 4/1/8
f 30/1/9 2/1/9 4/1/9
f 2/1/9 30/1/9 33/1/9
f 33/1/9 30/1/9 34/1/9
f 34/1/9 30/1/9 45/1/9
f 45/1/9 30/1/9 39/1/9
f 39/1/9 30/1/9 40/1/9
f 40/1/9 30/1/9 43/1/9
f 43/1/9 30/1/9 44/1/9
f 44/1/9 30/1/9 46/1/9
f 46/1/9 30/1/9 28/1/9
f 45/1/4 37/1/5 47/1/4
f 37/1/5 45/1/4 39/1/5
f 34/1/7 47/1/4 32/1/7
f 47/1/4 34/1/7 45/1/4
f 49/1/7 15/1/4 48/1/7
f 15/1/4 49/1/7 17/1/4
f 51/1/2 48/1/7 50/1/2
f 48/1/7 51/1/2 49/1/7
f 46/1/2 29/1/3 52/1/2
f 29/1/3 46/1/2 28/1/3
f 44/1/7 52/1/2 42/1/7
f 52/1/2 44/1/7 46/1/2
f 10/1/3 50/1/2 9/1/3
f 50/1/2 10/1/3 51/1/2
f 18/1/5 19/1/5 16/1/5
f 19/1/5 18/1/5 21/1/5
f 36/1/7 11/1/2 35/1/7
f 11/1/2 36/1/7 13/1/2
f 50/1/10 5/1/10 9/1/10
f 5/1/10 50/1/10 24/1/10
f 24/1/10 50/1/10 48/1/10
f 24/1/10 48/1/10 15/1/10
f 24/1/10 15/1/10 16/1/10
f 24/1/10 16/1/10 19/1/10
f 24/1/10 19/1/10 20/1/10
f 24/1/10 20/1/10 35/1/10
f 24/1/10 35/1/10 11/1/10
f 24/1/10 11/1/10 12/1/10
f 37/2/13 53/2/12 47/2/11
f 53/2/12 37/2/13 54/2/14
f 57/2/17 56/2/16 55/2/15
f 56/2/16 57/2/17 58/2/18
f 56/2/16 60/2/20 59/2/19
f 60/2/20 56/2/16 58/2/18
f 47/2/11 61/2/22 32/2/21
f 61/2/22 47/2/11 53/2/12
f 63/2/25 26/2/24 62/2/23
f 26/2/24 63/2/25 27/2/26
f 66/2/29 65/2/28 64/2/27
f 65/2/28 66/2/29 67/2/30
f 70/2/33 69/2/32 68/2/31
f 69/2/32 70/2/33 62/2/23
f 72/2/36 36/2/35 71/2/34
f 36/2/35 72/2/36 13/2/37
f 7/2/40 73/2/39 8/2/38
f 73/2/39 7/2/40 74/2/41
f 3/2/44 75/2/43 6/2/42
f 75/2/43 3/2/44 76/2/45
f 69/2/32 23/2/46 72/2/36
f 23/2/46 69/2/32 25/2/47
f 23/2/46 13/2/37 72/2/36
f 13/2/37 23/2/46 14/2/48
f 42/2/51 77/2/50 41/2/49
f 77/2/50 42/2/51 78/2/52
f 59/2/19 64/2/27 79/2/53
f 64/2/27 59/2/19 66/2/29
f 38/2/54 54/2/14 37/2/13
f 54/2/14 38/2/54 80/2/55
f 82/2/58 49/2/57 81/2/56
f 49/2/57 82/2/58 17/2/59
f 73/2/39 10/2/48 8/2/38
f 10/2/48 73/2/39 51/2/60
f 67/2/30 71/2/34 65/2/28
f 71/2/34 67/2/30 68/2/31
f 71/2/34 22/2/61 65/2/28
f 22/2/61 71/2/34 36/2/35
f 61/2/22 58/2/18 57/2/17
f 58/2/18 61/2/22 53/2/12
f 54/2/14 83/2/62 60/2/20
f 83/2/62 54/2/14 80/2/55
f 60/2/20 66/2/29 59/2/19
f 66/2/29 60/2/20 83/2/62
f 74/2/41 57/2/17 55/2/15
f 57/2/17 74/2/41 75/2/43
f 68/2/31 72/2/36 71/2/34
f 72/2/36 68/2/31 69/2/32
f 83/2/62 67/2/30 66/2/29
f 67/2/30 83/2/62 84/2/63
f 31/2/65 3/2/44 1/2/64
f 3/2/44 31/2/65 76/2/45
f 77/2/50 70/2/33 84/2/63
f 70/2/33 77/2/50 78/2/52
f 52/2/66 78/2/52 42/2/51
f 78/2/52 52/2/66 63/2/25
f 76/2/45 57/2/17 75/2/43
f 57/2/17 76/2/45 61/2/22
f 80/2/55 84/2/63 83/2/62
f 84/2/63 80/2/55 77/2/50
f 62/2/23 25/2/47 69/2/32
f 25/2/47 62/2/23 26/2/24
f 41/2/49 80/2/55 38/2/54
f 80/2/55 41/2/49 77/2/50
f 56/2/16 79/2/53 82/2/58
f 79/2/53 56/2/16 59/2/19
f 32/2/21 76/2/45 31/2/65
f 76/2/45 32/2/21 61/2/22
f 74/2/41 81/2/56 73/2/39
f 81/2/56 74/2/41 55/2/15
f 6/2/42 74/2/41 7/2/40
f 74/2/41 6/2/42 75/2/43
f 81/2/56 51/2/60 73/2/39
f 51/2/60 81/2/56 49/2/57
f 58/2/18 54/2/14 60/2/20
f 54/2/14 58/2/18 53/2/12
f 55/2/15 82/2/58 81/2/56
f 82/2/58 55/2/15 56/2/16
f 29/2/64 63/2/25 52/2/66
f 63/2/25 29/2/64 27/2/26
f 84/2/63 68/2/31 67/2/30
f 68/2/31 84/2/63 70/2/33
f 79/2/53 17/2/59 82/2/58
f 17/2/59 79/2/53 18/2/67
f 64/2/27 18/2/67 79/2/53
f 18/2/67 64/2/27 21/2/68
f 65/2/28 21/2/68 64/2/27
f 21/2/68 65/2/28 22/2/61
f 78/2/52 62/2/23 70/2/33
f 62/2/23 78/2/52 63/2/25

