# Created by Kenney (www.kenney.nl)

mtllib ramp-end-solid-a.mtl

g ramp-end-solid-a

v 0.2875 0.3835 -0.184 1 1 1
v 0.2875 0.4115 0.004 1 1 1
v 0.1 0.321 -0.184 1 1 1
v 0.1 0.349 0.004 1 1 1
v -0.35 0.599 0.004 1 1 1
v -0.2875 0.4115 0.004 1 1 1
v -0.35 0.618 0.228 1 1 1
v -0.2875 0.4305 0.228 1 1 1
v 0.35 0.571 -0.184 1 1 1
v 0.35 0.599 0.004 1 1 1
v -0.1 0.321 -0.184 1 1 1
v -0.1 0.349 0.004 1 1 1
v -0.1 0.287 -0.348 1 1 1
v -0.2875 0.3495 -0.348 1 1 1
v -0.2875 0.3835 -0.184 1 1 1
v -0.35 0.537 -0.348 1 1 1
v -0.35 0.571 -0.184 1 1 1
v -0.1 0.368 0.228 1 1 1
v -0.1 0.375 0.5 1 1 1
v -0.2875 0.4375 0.5 1 1 1
v 0.1 0.368 0.228 1 1 1
v 0.1 0.375 0.5 1 1 1
v 0.2875 0.4305 0.228 1 1 1
v 0.35 0.618 0.228 1 1 1
v 0.2875 0.3495 -0.348 1 1 1
v 0.35 0.537 -0.348 1 1 1
v 0.1 0.287 -0.348 1 1 1
v 0.2875 0.4375 0.5 1 1 1
v 0.35 0.625 0.5 1 1 1
v -0.35 0.625 0.5 1 1 1
v 0.1 0.25 -0.5 1 1 1
v -0.1 0.25 -0.5 1 1 1
v -0.2875 0.3125 -0.5 1 1 1
v -0.35 0.5 -0.5 1 1 1
v 0.2875 0.3125 -0.5 1 1 1
v 0.35 0.5 -0.5 1 1 1
v -0.5 0.5 -0.5 1 1 1
v -0.5 0.537 -0.348 1 1 1
v 0.5 0.537 -0.348 1 1 1
v 0.5 0.571 -0.184 1 1 1
v 0.5 0.599 0.004 1 1 1
v 0.5 0.618 0.228 1 1 1
v -0.5 0 -0.5 1 1 1
v -0.5 0 0.5 1 1 1
v -0.5 0.571 -0.184 1 1 1
v -0.5 0.599 0.004 1 1 1
v -0.5 0.618 0.228 1 1 1
v -0.5 0.625 0.5 1 1 1
v 0.5 0.5 -0.5 1 1 1
v 0.5 0 0.5 1 1 1
v 0.5 0 -0.5 1 1 1
v 0.5 0.625 0.5 1 1 1

vn -0.7077981 0.6954784 -0.1238212
vn -0.7101771 0.6992695 -0.08167526
vn -0.1583061 0.9720282 -0.1734945
vn -0.1596753 0.9804669 -0.1148415
vn 0.9480612 0.3160204 -0.0362075
vn 0.7101771 0.6992695 -0.08167526
vn 0.9485437 0.3161812 -0.01715959
vn 0.7109948 0.7021266 -0.03878931
vn -0.9472347 0.3157449 -0.05524095
vn -0.9480612 0.3160204 -0.0362075
vn 0.1583061 0.9720282 -0.1734945
vn 0.1596753 0.9804669 -0.1148415
vn 0.156792 0.9634002 -0.2174312
vn 0.7042485 0.6925877 -0.1560651
vn 0.7077981 0.6954784 -0.1238212
vn 0.9463348 0.3154449 -0.07031984
vn 0.9472347 0.3157449 -0.05524095
vn 0.1604296 0.9855365 -0.05459066
vn 0.1605468 0.9867015 -0.02539305
vn 0.7106712 0.7032914 -0.01809941
vn -0.1604296 0.9855365 -0.05459066
vn -0.1605468 0.9867015 -0.02539305
vn -0.7109948 0.7021266 -0.03878931
vn -0.9485437 0.3161812 -0.01715959
vn -0.7042485 0.6925877 -0.1560651
vn -0.9463348 0.3154449 -0.07031984
vn -0.156792 0.9634002 -0.2174312
vn -0.7106712 0.7032914 -0.01809941
vn -0.9486519 0.3162173 -0.008137945
vn 0.9486519 0.3162173 -0.008137945
vn -0.1521596 0.9603142 -0.2337607
vn 0.1521596 0.9603142 -0.2337607
vn 0.6642264 0.7263225 -0.1768022
vn 0.9458851 0.315295 -0.07674944
vn -0.6642264 0.7263225 -0.1768022
vn -0.9458851 0.315295 -0.07674944
vn 0 0.971628 -0.2365147
vn 0 0.9755473 -0.21979
vn 0 0.9845282 -0.175226
vn 0 0.9932525 -0.1159726
vn 0 0.9984784 -0.05514626
vn -1 0 0
vn 0 -1 0
vn 0 0.999669 -0.02572677
vn 0 0 -1
vn 0 0 1
vn 1 0 0

vt 0.28125 0.375
vt 0.90625 0.375

usemtl colormap

f 3/1/3 2/1/2 1/1/1
f 2/1/2 3/1/3 4/1/4
f 7/1/7 6/1/6 5/1/5
f 6/1/6 7/1/7 8/1/8
f 2/1/2 9/1/9 1/1/1
f 9/1/9 2/1/2 10/1/10
f 11/1/11 4/1/4 3/1/3
f 4/1/4 11/1/11 12/1/12
f 14/1/14 11/1/11 13/1/13
f 11/1/11 14/1/14 15/1/15
f 17/1/17 14/1/14 16/1/16
f 14/1/14 17/1/17 15/1/15
f 8/1/8 19/1/19 18/1/18
f 19/1/19 8/1/8 20/1/20
f 18/1/18 22/1/22 21/1/21
f 22/1/22 18/1/18 19/1/19
f 4/1/4 23/1/23 2/1/2
f 23/1/23 4/1/4 21/1/21
f 23/1/23 10/1/10 2/1/2
f 10/1/10 23/1/23 24/1/24
f 1/1/1 26/1/26 25/1/25
f 26/1/26 1/1/1 9/1/9
f 27/1/27 1/1/1 25/1/25
f 1/1/1 27/1/27 3/1/3
f 28/1/28 24/1/24 23/1/23
f 24/1/24 28/1/28 29/1/29
f 12/1/12 21/1/21 4/1/4
f 21/1/21 12/1/12 18/1/18
f 15/1/15 12/1/12 11/1/11
f 12/1/12 15/1/15 6/1/6
f 30/1/30 8/1/8 7/1/7
f 8/1/8 30/1/30 20/1/20
f 32/1/32 27/1/27 31/1/31
f 27/1/27 32/1/32 13/1/13
f 13/1/13 3/1/3 27/1/27
f 3/1/3 13/1/13 11/1/11
f 33/1/33 13/1/13 32/1/32
f 13/1/13 33/1/33 14/1/14
f 16/1/16 33/1/33 34/1/34
f 33/1/33 16/1/16 14/1/14
f 25/1/25 36/1/36 35/1/35
f 36/1/36 25/1/25 26/1/26
f 31/1/31 25/1/25 35/1/35
f 25/1/25 31/1/31 27/1/27
f 5/1/5 15/1/15 17/1/17
f 15/1/15 5/1/5 6/1/6
f 21/1/21 28/1/28 23/1/23
f 28/1/28 21/1/21 22/1/22
f 6/1/6 18/1/18 12/1/12
f 18/1/18 6/1/6 8/1/8
f 37/2/37 16/2/38 34/2/37
f 16/2/38 37/2/37 38/2/38
f 26/2/38 40/2/39 39/2/38
f 40/2/39 26/2/38 9/2/39
f 10/2/40 42/2/41 41/2/40
f 42/2/41 10/2/40 24/2/41
f 44/2/42 37/2/42 43/2/42
f 37/2/42 44/2/42 38/2/42
f 38/2/42 44/2/42 45/2/42
f 45/2/42 44/2/42 46/2/42
f 46/2/42 44/2/42 47/2/42
f 47/2/42 44/2/42 48/2/42
f 36/2/37 39/2/38 49/2/37
f 39/2/38 36/2/37 26/2/38
f 9/2/39 41/2/40 40/2/39
f 41/2/40 9/2/39 10/2/40
f 38/2/38 17/2/39 16/2/38
f 17/2/39 38/2/38 45/2/39
f 44/2/43 51/2/43 50/2/43
f 51/2/43 44/2/43 43/2/43
f 47/2/41 30/2/44 7/2/41
f 30/2/44 47/2/41 48/2/44
f 24/2/41 52/2/44 42/2/41
f 52/2/44 24/2/41 29/2/44
f 46/2/40 7/2/41 5/2/40
f 7/2/41 46/2/40 47/2/41
f 33/2/45 37/2/45 34/2/45
f 33/2/45 43/2/45 37/2/45
f 43/2/45 33/2/45 51/2/45
f 51/2/45 33/2/45 32/2/45
f 31/2/45 51/2/45 32/2/45
f 35/2/45 51/2/45 31/2/45
f 51/2/45 35/2/45 49/2/45
f 49/2/45 35/2/45 36/2/45
f 28/2/46 52/2/46 29/2/46
f 28/2/46 50/2/46 52/2/46
f 50/2/46 28/2/46 44/2/46
f 44/2/46 28/2/46 22/2/46
f 19/2/46 44/2/46 22/2/46
f 20/2/46 44/2/46 19/2/46
f 44/2/46 20/2/46 48/2/46
f 48/2/46 20/2/46 30/2/46
f 45/2/39 5/2/40 17/2/39
f 5/2/40 45/2/39 46/2/40
f 39/2/47 51/2/47 49/2/47
f 51/2/47 39/2/47 50/2/47
f 50/2/47 39/2/47 40/2/47
f 50/2/47 40/2/47 41/2/47
f 50/2/47 41/2/47 42/2/47
f 50/2/47 42/2/47 52/2/47

g ramp-end-solid-a




usemtl colormap

f 3/1/3 2/1/2 1/1/1
f 2/1/2 3/1/3 4/1/4
f 7/1/7 6/1/6 5/1/5
f 6/1/6 7/1/7 8/1/8
f 2/1/2 9/1/9 1/1/1
f 9/1/9 2/1/2 10/1/10
f 11/1/11 4/1/4 3/1/3
f 4/1/4 11/1/11 12/1/12
f 14/1/14 11/1/11 13/1/13
f 11/1/11 14/1/14 15/1/15
f 17/1/17 14/1/14 16/1/16
f 14/1/14 17/1/17 15/1/15
f 8/1/8 19/1/19 18/1/18
f 19/1/19 8/1/8 20/1/20
f 18/1/18 22/1/22 21/1/21
f 22/1/22 18/1/18 19/1/19
f 4/1/4 23/1/23 2/1/2
f 23/1/23 4/1/4 21/1/21
f 23/1/23 10/1/10 2/1/2
f 10/1/10 23/1/23 24/1/24
f 1/1/1 26/1/26 25/1/25
f 26/1/26 1/1/1 9/1/9
f 27/1/27 1/1/1 25/1/25
f 1/1/1 27/1/27 3/1/3
f 28/1/28 24/1/24 23/1/23
f 24/1/24 28/1/28 29/1/29
f 12/1/12 21/1/21 4/1/4
f 21/1/21 12/1/12 18/1/18
f 15/1/15 12/1/12 11/1/11
f 12/1/12 15/1/15 6/1/6
f 30/1/30 8/1/8 7/1/7
f 8/1/8 30/1/30 20/1/20
f 32/1/32 27/1/27 31/1/31
f 27/1/27 32/1/32 13/1/13
f 13/1/13 3/1/3 27/1/27
f 3/1/3 13/1/13 11/1/11
f 33/1/33 13/1/13 32/1/32
f 13/1/13 33/1/33 14/1/14
f 16/1/16 33/1/33 34/1/34
f 33/1/33 16/1/16 14/1/14
f 25/1/25 36/1/36 35/1/35
f 36/1/36 25/1/25 26/1/26
f 31/1/31 25/1/25 35/1/35
f 25/1/25 31/1/31 27/1/27
f 5/1/5 15/1/15 17/1/17
f 15/1/15 5/1/5 6/1/6
f 21/1/21 28/1/28 23/1/23
f 28/1/28 21/1/21 22/1/22
f 6/1/6 18/1/18 12/1/12
f 18/1/18 6/1/6 8/1/8
f 37/2/37 16/2/38 34/2/37
f 16/2/38 37/2/37 38/2/38
f 26/2/38 40/2/39 39/2/38
f 40/2/39 26/2/38 9/2/39
f 10/2/40 42/2/41 41/2/40
f 42/2/41 10/2/40 24/2/41
f 44/2/42 37/2/42 43/2/42
f 37/2/42 44/2/42 38/2/42
f 38/2/42 44/2/42 45/2/42
f 45/2/42 44/2/42 46/2/42
f 46/2/42 44/2/42 47/2/42
f 47/2/42 44/2/42 48/2/42
f 36/2/37 39/2/38 49/2/37
f 39/2/38 36/2/37 26/2/38
f 9/2/39 41/2/40 40/2/39
f 41/2/40 9/2/39 10/2/40
f 38/2/38 17/2/39 16/2/38
f 17/2/39 38/2/38 45/2/39
f 44/2/43 51/2/43 50/2/43
f 51/2/43 44/2/43 43/2/43
f 47/2/41 30/2/44 7/2/41
f 30/2/44 47/2/41 48/2/44
f 24/2/41 52/2/44 42/2/41
f 52/2/44 24/2/41 29/2/44
f 46/2/40 7/2/41 5/2/40
f 7/2/41 46/2/40 47/2/41
f 33/2/45 37/2/45 34/2/45
f 33/2/45 43/2/45 37/2/45
f 43/2/45 33/2/45 51/2/45
f 51/2/45 33/2/45 32/2/45
f 31/2/45 51/2/45 32/2/45
f 35/2/45 51/2/45 31/2/45
f 51/2/45 35/2/45 49/2/45
f 49/2/45 35/2/45 36/2/45
f 28/2/46 52/2/46 29/2/46
f 28/2/46 50/2/46 52/2/46
f 50/2/46 28/2/46 44/2/46
f 44/2/46 28/2/46 22/2/46
f 19/2/46 44/2/46 22/2/46
f 20/2/46 44/2/46 19/2/46
f 44/2/46 20/2/46 48/2/46
f 48/2/46 20/2/46 30/2/46
f 45/2/39 5/2/40 17/2/39
f 5/2/40 45/2/39 46/2/40
f 39/2/47 51/2/47 49/2/47
f 51/2/47 39/2/47 50/2/47
f 50/2/47 39/2/47 40/2/47
f 50/2/47 40/2/47 41/2/47
f 50/2/47 41/2/47 42/2/47
f 50/2/47 42/2/47 52/2/47

