# Created by Kenney (www.kenney.nl)

mtllib ramp-long-c.mtl

g ramp-long-c

v -0.35 0.852 -0.152 1 1 1
v -0.5 0.852 -0.152 1 1 1
v -0.35 0.716 -0.316 1 1 1
v -0.5 0.716 -0.316 1 1 1
v -0.35 0.604 -0.504 1 1 1
v -0.5 0.604 -0.504 1 1 1
v -0.35 0.528 -0.728 1 1 1
v -0.5 0.528 -0.728 1 1 1
v 0.5 0.352 -0.152 1 1 1
v 0.5 0.216 -0.316 1 1 1
v -0.5 0.352 -0.152 1 1 1
v -0.5 0.216 -0.316 1 1 1
v 0.5 0.028 -0.728 1 1 1
v 0.5 0 -1 1 1 1
v -0.5 0.028 -0.728 1 1 1
v -0.5 0 -1 1 1 1
v 0.5 0.604 -0.504 1 1 1
v 0.35 0.604 -0.504 1 1 1
v 0.5 0.528 -0.728 1 1 1
v 0.35 0.528 -0.728 1 1 1
v 0.5 0.5 -1 1 1 1
v 0.35 0.5 -1 1 1 1
v -0.35 0.5 -1 1 1 1
v -0.5 0.5 -1 1 1 1
v -0.2875 0.3125 -1 1 1 1
v -0.1 0.25 -1 1 1 1
v 0.1 0.25 -1 1 1 1
v 0.2875 0.3125 -1 1 1 1
v 0.5 0.784 0.316 1 1 1
v 0.5 0.648 0.152 1 1 1
v -0.5 0.784 0.316 1 1 1
v -0.5 0.648 0.152 1 1 1
v 0.5 1.472 0.728 1 1 1
v 0.5 1.5 1 1 1 1
v 0.35 1.472 0.728 1 1 1
v 0.35 1.5 1 1 1 1
v -0.35 1.148 0.152 1 1 1
v -0.5 1.148 0.152 1 1 1
v 0.5 1.284 0.316 1 1 1
v 0.5 1.396 0.504 1 1 1
v 0.35 1.284 0.316 1 1 1
v 0.35 1.396 0.504 1 1 1
v 0.5 0.896 0.504 1 1 1
v -0.5 0.896 0.504 1 1 1
v 0.5 0.852 -0.152 1 1 1
v 0.5 1.148 0.152 1 1 1
v 0.35 0.852 -0.152 1 1 1
v 0.35 1.148 0.152 1 1 1
v -0.35 1.472 0.728 1 1 1
v -0.35 1.5 1 1 1 1
v -0.5 1.472 0.728 1 1 1
v -0.5 1.5 1 1 1 1
v -0.5 0.104 -0.504 1 1 1
v -0.5 1.284 0.316 1 1 1
v -0.5 1.396 0.504 1 1 1
v -0.5 0.9719999 0.728 1 1 1
v -0.5 1 1 1 1 1
v 0.5 0.716 -0.316 1 1 1
v 0.35 0.716 -0.316 1 1 1
v 0.5 1 1 1 1 1
v 0.5 0.9719999 0.728 1 1 1
v -0.35 1.284 0.316 1 1 1
v 0.5 0.104 -0.504 1 1 1
v -0.35 1.396 0.504 1 1 1
v 0.2875 1.3125 1 1 1 1
v 0.1 1.25 1 1 1 1
v -0.1 1.25 1 1 1 1
v -0.2875 1.3125 1 1 1 1
v 0.1 0.278 -0.728 1 1 1
v 0.1 0.354 -0.504 1 1 1
v -0.1 0.278 -0.728 1 1 1
v -0.1 0.354 -0.504 1 1 1
v 0.2875 0.4165 -0.504 1 1 1
v 0.2875 0.5285 -0.316 1 1 1
v -0.2875 0.3405 -0.728 1 1 1
v 0.1 0.466 -0.316 1 1 1
v -0.2875 0.5285 -0.316 1 1 1
v -0.2875 0.6645 -0.152 1 1 1
v -0.1 0.466 -0.316 1 1 1
v -0.2875 0.4165 -0.504 1 1 1
v 0.2875 0.3405 -0.728 1 1 1
v 0.2875 1.0965 0.316 1 1 1
v 0.2875 1.2085 0.504 1 1 1
v 0.1 1.034 0.316 1 1 1
v 0.1 1.146 0.504 1 1 1
v 0.1 0.898 0.152 1 1 1
v -0.1 0.898 0.152 1 1 1
v -0.1 1.034 0.316 1 1 1
v -0.1 1.146 0.504 1 1 1
v -0.2875 1.0965 0.316 1 1 1
v -0.2875 1.2085 0.504 1 1 1
v 0.2875 1.2845 0.728 1 1 1
v -0.1 0.602 -0.152 1 1 1
v -0.2875 1.2845 0.728 1 1 1
v 0.1 1.222 0.728 1 1 1
v -0.1 1.222 0.728 1 1 1
v -0.2875 0.9605 0.152 1 1 1
v 0.2875 0.6645 -0.152 1 1 1
v 0.2875 0.9605 0.152 1 1 1
v 0.1 0.602 -0.152 1 1 1

vn 0 0.7437055 -0.6685074
vn 0 0.8168834 -0.576803
vn 0 0.9080501 -0.4188617
vn 0 0.9770107 -0.2131901
vn 0 -0.7437055 0.6685074
vn 0 -0.8168834 0.576803
vn 0 -0.9770107 0.2131901
vn 0 -0.9947433 0.1024001
vn 0 0.9947433 -0.1024001
vn 0 0 -1
vn 0 -0.9080501 0.4188617
vn -1 0 0
vn 1 0 0
vn 0 0 1
vn -0.1552098 0.9656415 -0.208438
vn -0.145566 0.9001012 -0.410644
vn 0.1552098 0.9656415 -0.208438
vn 0.145566 0.9001012 -0.410644
vn -0.6726325 0.6717279 -0.3103985
vn -0.9371259 0.3123753 -0.1556174
vn -0.6539167 0.6181989 -0.4361455
vn -0.9228907 0.3076303 -0.2315949
vn 0.1577428 0.9822893 -0.101118
vn 0.6909083 0.7191422 -0.07402934
vn 0.6867336 0.7100955 -0.1554391
vn 0.948181 0.3160603 -0.03253562
vn 0.9460712 0.3153571 -0.07415687
vn -0.1324577 0.8121527 -0.5682102
vn 0.9228907 0.3076303 -0.2315949
vn 0.6539167 0.6181989 -0.4361455
vn 0.909986 0.3033287 -0.2826963
vn 0.6375691 0.5734488 -0.5144531
vn 0.1324577 0.8121527 -0.5682102
vn 0.6726325 0.6717279 -0.3103985
vn -0.6909083 0.7191422 -0.07402934
vn -0.6867336 0.7100955 -0.1554391
vn -0.1577428 0.9822893 -0.101118
vn -0.6714745 0.6041134 -0.4291493
vn -0.7002212 0.6475765 -0.3005578
vn -0.1325687 0.8070593 -0.5753962
vn -0.1472749 0.8962705 -0.4183411
vn -0.1210018 0.7364502 -0.6655823
vn 0.1210018 0.7364502 -0.6655823
vn 0.1325687 0.8070593 -0.5753962
vn 0.1472749 0.8962705 -0.4183411
vn 0.6714745 0.6041134 -0.4291493
vn 0.7002212 0.6475765 -0.3005578
vn -0.9399827 0.3133276 -0.1351238
vn -0.7181703 0.6797222 -0.1490274
vn -0.9467078 0.3155693 -0.06449965
vn 0.1213882 0.7399483 -0.6616202
vn -0.948181 0.3160603 -0.03253562
vn -0.9460712 0.3153571 -0.07415687
vn 0.9399827 0.3133276 -0.1351238
vn 0.9467078 0.3155693 -0.06449965
vn 0.7181703 0.6797222 -0.1490274
vn -0.1583669 0.9641622 -0.2128642
vn 0.1583669 0.9641622 -0.2128642
vn 0.6448728 0.5674946 -0.5119462
vn 0.7201624 0.6901583 -0.0710457
vn -0.7201624 0.6901583 -0.0710457
vn 0.9147861 0.3049287 -0.2649241
vn -0.6375691 0.5734488 -0.5144531
vn -0.909986 0.3033287 -0.2826963
vn -0.6448728 0.5674946 -0.5119462
vn -0.9147861 0.3049287 -0.2649241
vn -0.9282804 0.3094268 -0.2062777
vn 0.9371259 0.3123753 -0.1556174
vn -0.1213882 0.7399483 -0.6616202
vn 0.9282804 0.3094268 -0.2062777
vn -0.1610298 0.9817615 -0.1010637
vn 0.1610298 0.9817615 -0.1010637

vt 0.90625 0.375
vt 0.28125 0.375

usemtl colormap

f 3/1/2 2/1/1 1/1/1
f 2/1/1 3/1/2 4/1/2
f 7/1/4 6/1/3 5/1/3
f 6/1/3 7/1/4 8/1/4
f 11/1/5 10/1/6 9/1/5
f 10/1/6 11/1/5 12/1/6
f 15/1/7 14/1/8 13/1/7
f 14/1/8 15/1/7 16/1/8
f 19/1/4 18/1/3 17/1/3
f 18/1/3 19/1/4 20/1/4
f 22/1/9 19/1/4 21/1/9
f 19/1/4 22/1/9 20/1/4
f 25/1/10 24/1/10 23/1/10
f 25/1/10 16/1/10 24/1/10
f 16/1/10 25/1/10 14/1/10
f 14/1/10 25/1/10 26/1/10
f 27/1/10 14/1/10 26/1/10
f 28/1/10 14/1/10 27/1/10
f 14/1/10 28/1/10 21/1/10
f 21/1/10 28/1/10 22/1/10
f 31/1/6 30/1/5 29/1/6
f 30/1/5 31/1/6 32/1/5
f 35/1/4 34/1/9 33/1/4
f 34/1/9 35/1/4 36/1/9
f 2/1/1 37/1/1 1/1/1
f 37/1/1 2/1/1 38/1/1
f 24/1/9 7/1/4 23/1/9
f 7/1/4 24/1/9 8/1/4
f 41/1/2 40/1/3 39/1/2
f 40/1/3 41/1/2 42/1/3
f 44/1/11 29/1/6 43/1/11
f 29/1/6 44/1/11 31/1/6
f 47/1/1 46/1/1 45/1/1
f 46/1/1 47/1/1 48/1/1
f 51/1/4 50/1/9 49/1/4
f 50/1/9 51/1/4 52/1/9
f 15/1/12 24/1/12 16/1/12
f 24/1/12 15/1/12 8/1/12
f 8/1/12 15/1/12 53/1/12
f 8/1/12 53/1/12 6/1/12
f 6/1/12 53/1/12 12/1/12
f 6/1/12 12/1/12 4/1/12
f 4/1/12 12/1/12 11/1/12
f 4/1/12 11/1/12 2/1/12
f 2/1/12 11/1/12 32/1/12
f 2/1/12 32/1/12 38/1/12
f 38/1/12 32/1/12 31/1/12
f 38/1/12 31/1/12 54/1/12
f 54/1/12 31/1/12 44/1/12
f 54/1/12 44/1/12 55/1/12
f 55/1/12 44/1/12 56/1/12
f 55/1/12 56/1/12 51/1/12
f 51/1/12 56/1/12 57/1/12
f 51/1/12 57/1/12 52/1/12
f 18/1/3 58/1/2 17/1/3
f 58/1/2 18/1/3 59/1/2
f 57/1/8 61/1/7 60/1/8
f 61/1/7 57/1/8 56/1/7
f 38/1/1 62/1/2 37/1/1
f 62/1/2 38/1/1 54/1/2
f 19/1/13 14/1/13 21/1/13
f 14/1/13 19/1/13 13/1/13
f 13/1/13 19/1/13 17/1/13
f 13/1/13 17/1/13 63/1/13
f 63/1/13 17/1/13 58/1/13
f 63/1/13 58/1/13 10/1/13
f 10/1/13 58/1/13 45/1/13
f 10/1/13 45/1/13 9/1/13
f 9/1/13 45/1/13 46/1/13
f 9/1/13 46/1/13 30/1/13
f 30/1/13 46/1/13 39/1/13
f 30/1/13 39/1/13 29/1/13
f 29/1/13 39/1/13 40/1/13
f 29/1/13 40/1/13 43/1/13
f 43/1/13 40/1/13 33/1/13
f 43/1/13 33/1/13 61/1/13
f 61/1/13 33/1/13 34/1/13
f 61/1/13 34/1/13 60/1/13
f 10/1/6 53/1/11 63/1/11
f 53/1/11 10/1/6 12/1/6
f 48/1/1 39/1/2 46/1/1
f 39/1/2 48/1/1 41/1/2
f 6/1/3 3/1/2 5/1/3
f 3/1/2 6/1/3 4/1/2
f 56/1/7 43/1/11 61/1/7
f 43/1/11 56/1/7 44/1/11
f 42/1/3 33/1/4 40/1/3
f 33/1/4 42/1/3 35/1/4
f 30/1/5 11/1/5 9/1/5
f 11/1/5 30/1/5 32/1/5
f 54/1/2 64/1/3 62/1/2
f 64/1/3 54/1/2 55/1/3
f 53/1/11 13/1/7 63/1/11
f 13/1/7 53/1/11 15/1/7
f 55/1/3 49/1/4 64/1/3
f 49/1/4 55/1/3 51/1/4
f 58/1/2 47/1/1 45/1/1
f 47/1/1 58/1/2 59/1/2
f 65/1/14 34/1/14 36/1/14
f 65/1/14 60/1/14 34/1/14
f 60/1/14 65/1/14 57/1/14
f 57/1/14 65/1/14 66/1/14
f 67/1/14 57/1/14 66/1/14
f 68/1/14 57/1/14 67/1/14
f 57/1/14 68/1/14 52/1/14
f 52/1/14 68/1/14 50/1/14
f 71/2/17 70/2/16 69/2/15
f 70/2/16 71/2/17 72/2/18
f 74/2/21 18/2/20 73/2/19
f 18/2/20 74/2/21 59/2/22
f 25/2/24 71/2/17 26/2/23
f 71/2/17 25/2/24 75/2/25
f 7/2/27 25/2/24 23/2/26
f 25/2/24 7/2/27 75/2/25
f 70/2/16 74/2/21 73/2/19
f 74/2/21 70/2/16 76/2/28
f 1/2/31 77/2/30 3/2/29
f 77/2/30 1/2/31 78/2/32
f 80/2/34 79/2/33 72/2/18
f 79/2/33 80/2/34 77/2/30
f 27/2/37 81/2/36 28/2/35
f 81/2/36 27/2/37 69/2/15
f 71/2/17 80/2/34 72/2/18
f 80/2/34 71/2/17 75/2/25
f 84/2/40 83/2/39 82/2/38
f 83/2/39 84/2/40 85/2/41
f 87/2/43 84/2/40 86/2/42
f 84/2/40 87/2/43 88/2/44
f 90/2/46 89/2/45 88/2/44
f 89/2/45 90/2/46 91/2/47
f 92/2/49 42/2/48 83/2/39
f 42/2/48 92/2/49 35/2/50
f 79/2/33 78/2/32 93/2/51
f 78/2/32 79/2/33 77/2/30
f 81/2/36 22/2/52 28/2/35
f 22/2/52 81/2/36 20/2/53
f 49/2/55 91/2/47 64/2/54
f 91/2/47 49/2/55 94/2/56
f 89/2/45 95/2/57 85/2/41
f 95/2/57 89/2/45 96/2/58
f 97/2/59 88/2/44 87/2/43
f 88/2/44 97/2/59 90/2/46
f 85/2/41 92/2/49 83/2/39
f 92/2/49 85/2/41 95/2/57
f 88/2/44 85/2/41 84/2/40
f 85/2/41 88/2/44 89/2/45
f 78/2/32 87/2/43 93/2/51
f 87/2/43 78/2/32 97/2/59
f 50/2/26 94/2/56 49/2/55
f 94/2/56 50/2/26 68/2/60
f 65/2/61 35/2/50 92/2/49
f 35/2/50 65/2/61 36/2/52
f 37/2/62 78/2/32 1/2/31
f 78/2/32 37/2/62 97/2/59
f 99/2/65 47/2/64 98/2/63
f 47/2/64 99/2/65 48/2/66
f 83/2/39 41/2/67 82/2/38
f 41/2/67 83/2/39 42/2/48
f 91/2/47 96/2/58 89/2/45
f 96/2/58 91/2/47 94/2/56
f 72/2/18 76/2/28 70/2/16
f 76/2/28 72/2/18 79/2/33
f 3/2/29 80/2/34 5/2/68
f 80/2/34 3/2/29 77/2/30
f 81/2/36 70/2/16 73/2/19
f 70/2/16 81/2/36 69/2/15
f 76/2/28 93/2/51 100/2/69
f 93/2/51 76/2/28 79/2/33
f 82/2/38 48/2/66 99/2/65
f 48/2/66 82/2/38 41/2/67
f 86/2/42 82/2/38 99/2/65
f 82/2/38 86/2/42 84/2/40
f 74/2/21 100/2/69 98/2/63
f 100/2/69 74/2/21 76/2/28
f 93/2/51 86/2/42 100/2/69
f 86/2/42 93/2/51 87/2/43
f 64/2/54 90/2/46 62/2/70
f 90/2/46 64/2/54 91/2/47
f 96/2/58 66/2/71 95/2/57
f 66/2/71 96/2/58 67/2/72
f 73/2/19 20/2/53 81/2/36
f 20/2/53 73/2/19 18/2/20
f 62/2/70 97/2/59 37/2/62
f 97/2/59 62/2/70 90/2/46
f 95/2/57 65/2/61 92/2/49
f 65/2/61 95/2/57 66/2/71
f 94/2/56 67/2/72 96/2/58
f 67/2/72 94/2/56 68/2/60
f 98/2/63 59/2/22 74/2/21
f 59/2/22 98/2/63 47/2/64
f 26/2/23 69/2/15 27/2/37
f 69/2/15 26/2/23 71/2/17
f 5/2/68 75/2/25 7/2/27
f 75/2/25 5/2/68 80/2/34
f 100/2/69 99/2/65 98/2/63
f 99/2/65 100/2/69 86/2/42

g ramp-long-c




usemtl colormap

f 3/1/2 2/1/1 1/1/1
f 2/1/1 3/1/2 4/1/2
f 7/1/4 6/1/3 5/1/3
f 6/1/3 7/1/4 8/1/4
f 11/1/5 10/1/6 9/1/5
f 10/1/6 11/1/5 12/1/6
f 15/1/7 14/1/8 13/1/7
f 14/1/8 15/1/7 16/1/8
f 19/1/4 18/1/3 17/1/3
f 18/1/3 19/1/4 20/1/4
f 22/1/9 19/1/4 21/1/9
f 19/1/4 22/1/9 20/1/4
f 25/1/10 24/1/10 23/1/10
f 25/1/10 16/1/10 24/1/10
f 16/1/10 25/1/10 14/1/10
f 14/1/10 25/1/10 26/1/10
f 27/1/10 14/1/10 26/1/10
f 28/1/10 14/1/10 27/1/10
f 14/1/10 28/1/10 21/1/10
f 21/1/10 28/1/10 22/1/10
f 31/1/6 30/1/5 29/1/6
f 30/1/5 31/1/6 32/1/5
f 35/1/4 34/1/9 33/1/4
f 34/1/9 35/1/4 36/1/9
f 2/1/1 37/1/1 1/1/1
f 37/1/1 2/1/1 38/1/1
f 24/1/9 7/1/4 23/1/9
f 7/1/4 24/1/9 8/1/4
f 41/1/2 40/1/3 39/1/2
f 40/1/3 41/1/2 42/1/3
f 44/1/11 29/1/6 43/1/11
f 29/1/6 44/1/11 31/1/6
f 47/1/1 46/1/1 45/1/1
f 46/1/1 47/1/1 48/1/1
f 51/1/4 50/1/9 49/1/4
f 50/1/9 51/1/4 52/1/9
f 15/1/12 24/1/12 16/1/12
f 24/1/12 15/1/12 8/1/12
f 8/1/12 15/1/12 53/1/12
f 8/1/12 53/1/12 6/1/12
f 6/1/12 53/1/12 12/1/12
f 6/1/12 12/1/12 4/1/12
f 4/1/12 12/1/12 11/1/12
f 4/1/12 11/1/12 2/1/12
f 2/1/12 11/1/12 32/1/12
f 2/1/12 32/1/12 38/1/12
f 38/1/12 32/1/12 31/1/12
f 38/1/12 31/1/12 54/1/12
f 54/1/12 31/1/12 44/1/12
f 54/1/12 44/1/12 55/1/12
f 55/1/12 44/1/12 56/1/12
f 55/1/12 56/1/12 51/1/12
f 51/1/12 56/1/12 57/1/12
f 51/1/12 57/1/12 52/1/12
f 18/1/3 58/1/2 17/1/3
f 58/1/2 18/1/3 59/1/2
f 57/1/8 61/1/7 60/1/8
f 61/1/7 57/1/8 56/1/7
f 38/1/1 62/1/2 37/1/1
f 62/1/2 38/1/1 54/1/2
f 19/1/13 14/1/13 21/1/13
f 14/1/13 19/1/13 13/1/13
f 13/1/13 19/1/13 17/1/13
f 13/1/13 17/1/13 63/1/13
f 63/1/13 17/1/13 58/1/13
f 63/1/13 58/1/13 10/1/13
f 10/1/13 58/1/13 45/1/13
f 10/1/13 45/1/13 9/1/13
f 9/1/13 45/1/13 46/1/13
f 9/1/13 46/1/13 30/1/13
f 30/1/13 46/1/13 39/1/13
f 30/1/13 39/1/13 29/1/13
f 29/1/13 39/1/13 40/1/13
f 29/1/13 40/1/13 43/1/13
f 43/1/13 40/1/13 33/1/13
f 43/1/13 33/1/13 61/1/13
f 61/1/13 33/1/13 34/1/13
f 61/1/13 34/1/13 60/1/13
f 10/1/6 53/1/11 63/1/11
f 53/1/11 10/1/6 12/1/6
f 48/1/1 39/1/2 46/1/1
f 39/1/2 48/1/1 41/1/2
f 6/1/3 3/1/2 5/1/3
f 3/1/2 6/1/3 4/1/2
f 56/1/7 43/1/11 61/1/7
f 43/1/11 56/1/7 44/1/11
f 42/1/3 33/1/4 40/1/3
f 33/1/4 42/1/3 35/1/4
f 30/1/5 11/1/5 9/1/5
f 11/1/5 30/1/5 32/1/5
f 54/1/2 64/1/3 62/1/2
f 64/1/3 54/1/2 55/1/3
f 53/1/11 13/1/7 63/1/11
f 13/1/7 53/1/11 15/1/7
f 55/1/3 49/1/4 64/1/3
f 49/1/4 55/1/3 51/1/4
f 58/1/2 47/1/1 45/1/1
f 47/1/1 58/1/2 59/1/2
f 65/1/14 34/1/14 36/1/14
f 65/1/14 60/1/14 34/1/14
f 60/1/14 65/1/14 57/1/14
f 57/1/14 65/1/14 66/1/14
f 67/1/14 57/1/14 66/1/14
f 68/1/14 57/1/14 67/1/14
f 57/1/14 68/1/14 52/1/14
f 52/1/14 68/1/14 50/1/14
f 71/2/17 70/2/16 69/2/15
f 70/2/16 71/2/17 72/2/18
f 74/2/21 18/2/20 73/2/19
f 18/2/20 74/2/21 59/2/22
f 25/2/24 71/2/17 26/2/23
f 71/2/17 25/2/24 75/2/25
f 7/2/27 25/2/24 23/2/26
f 25/2/24 7/2/27 75/2/25
f 70/2/16 74/2/21 73/2/19
f 74/2/21 70/2/16 76/2/28
f 1/2/31 77/2/30 3/2/29
f 77/2/30 1/2/31 78/2/32
f 80/2/34 79/2/33 72/2/18
f 79/2/33 80/2/34 77/2/30
f 27/2/37 81/2/36 28/2/35
f 81/2/36 27/2/37 69/2/15
f 71/2/17 80/2/34 72/2/18
f 80/2/34 71/2/17 75/2/25
f 84/2/40 83/2/39 82/2/38
f 83/2/39 84/2/40 85/2/41
f 87/2/43 84/2/40 86/2/42
f 84/2/40 87/2/43 88/2/44
f 90/2/46 89/2/45 88/2/44
f 89/2/45 90/2/46 91/2/47
f 92/2/49 42/2/48 83/2/39
f 42/2/48 92/2/49 35/2/50
f 79/2/33 78/2/32 93/2/51
f 78/2/32 79/2/33 77/2/30
f 81/2/36 22/2/52 28/2/35
f 22/2/52 81/2/36 20/2/53
f 49/2/55 91/2/47 64/2/54
f 91/2/47 49/2/55 94/2/56
f 89/2/45 95/2/57 85/2/41
f 95/2/57 89/2/45 96/2/58
f 97/2/59 88/2/44 87/2/43
f 88/2/44 97/2/59 90/2/46
f 85/2/41 92/2/49 83/2/39
f 92/2/49 85/2/41 95/2/57
f 88/2/44 85/2/41 84/2/40
f 85/2/41 88/2/44 89/2/45
f 78/2/32 87/2/43 93/2/51
f 87/2/43 78/2/32 97/2/59
f 50/2/26 94/2/56 49/2/55
f 94/2/56 50/2/26 68/2/60
f 65/2/61 35/2/50 92/2/49
f 35/2/50 65/2/61 36/2/52
f 37/2/62 78/2/32 1/2/31
f 78/2/32 37/2/62 97/2/59
f 99/2/65 47/2/64 98/2/63
f 47/2/64 99/2/65 48/2/66
f 83/2/39 41/2/67 82/2/38
f 41/2/67 83/2/39 42/2/48
f 91/2/47 96/2/58 89/2/45
f 96/2/58 91/2/47 94/2/56
f 72/2/18 76/2/28 70/2/16
f 76/2/28 72/2/18 79/2/33
f 3/2/29 80/2/34 5/2/68
f 80/2/34 3/2/29 77/2/30
f 81/2/36 70/2/16 73/2/19
f 70/2/16 81/2/36 69/2/15
f 76/2/28 93/2/51 100/2/69
f 93/2/51 76/2/28 79/2/33
f 82/2/38 48/2/66 99/2/65
f 48/2/66 82/2/38 41/2/67
f 86/2/42 82/2/38 99/2/65
f 82/2/38 86/2/42 84/2/40
f 74/2/21 100/2/69 98/2/63
f 100/2/69 74/2/21 76/2/28
f 93/2/51 86/2/42 100/2/69
f 86/2/42 93/2/51 87/2/43
f 64/2/54 90/2/46 62/2/70
f 90/2/46 64/2/54 91/2/47
f 96/2/58 66/2/71 95/2/57
f 66/2/71 96/2/58 67/2/72
f 73/2/19 20/2/53 81/2/36
f 20/2/53 73/2/19 18/2/20
f 62/2/70 97/2/59 37/2/62
f 97/2/59 62/2/70 90/2/46
f 95/2/57 65/2/61 92/2/49
f 65/2/61 95/2/57 66/2/71
f 94/2/56 67/2/72 96/2/58
f 67/2/72 94/2/56 68/2/60
f 98/2/63 59/2/22 74/2/21
f 59/2/22 98/2/63 47/2/64
f 26/2/23 69/2/15 27/2/37
f 69/2/15 26/2/23 71/2/17
f 5/2/68 75/2/25 7/2/27
f 75/2/25 5/2/68 80/2/34
f 100/2/69 99/2/65 98/2/63
f 99/2/65 100/2/69 86/2/42

