# Created by Kenney (www.kenney.nl)

mtllib ramp-start-solid-b.mtl

g ramp-start-solid-b

v 0.2875 0.4885 0.348 1 1 1
v 0.2875 0.5625 0.5 1 1 1
v 0.1 0.426 0.348 1 1 1
v 0.1 0.5 0.5 1 1 1
v -0.35 0.552 -0.004 1 1 1
v -0.2875 0.3645 -0.004 1 1 1
v -0.35 0.608 0.184 1 1 1
v -0.2875 0.4205 0.184 1 1 1
v 0.1 0.302 -0.004 1 1 1
v 0.1 0.358 0.184 1 1 1
v -0.1 0.302 -0.004 1 1 1
v -0.1 0.358 0.184 1 1 1
v -0.1 0.426 0.348 1 1 1
v -0.1 0.5 0.5 1 1 1
v -0.2875 0.4885 0.348 1 1 1
v -0.2875 0.5625 0.5 1 1 1
v 0.35 0.676 0.348 1 1 1
v 0.35 0.75 0.5 1 1 1
v 0.1 0.264 -0.228 1 1 1
v -0.1 0.264 -0.228 1 1 1
v 0.2875 0.4205 0.184 1 1 1
v 0.35 0.608 0.184 1 1 1
v -0.35 0.676 0.348 1 1 1
v -0.35 0.75 0.5 1 1 1
v 0.2875 0.3125 -0.5 1 1 1
v 0.2875 0.3265 -0.228 1 1 1
v 0.1 0.25 -0.5 1 1 1
v -0.2875 0.3265 -0.228 1 1 1
v -0.1 0.25 -0.5 1 1 1
v -0.2875 0.3125 -0.5 1 1 1
v -0.35 0.514 -0.228 1 1 1
v -0.35 0.5 -0.5 1 1 1
v 0.2875 0.3645 -0.004 1 1 1
v 0.35 0.552 -0.004 1 1 1
v 0.35 0.5 -0.5 1 1 1
v 0.35 0.514 -0.228 1 1 1
v 0.5 0.552 -0.004 1 1 1
v 0.5 0.608 0.184 1 1 1
v 0.5 0.676 0.348 1 1 1
v 0.5 0.75 0.5 1 1 1
v -0.5 0.5 -0.5 1 1 1
v -0.5 0 -0.5 1 1 1
v 0.5 0 -0.5 1 1 1
v 0.5 0.5 -0.5 1 1 1
v 0.5 0.514 -0.228 1 1 1
v 0.5 0 0.5 1 1 1
v -0.5 0.676 0.348 1 1 1
v -0.5 0.75 0.5 1 1 1
v -0.5 2.179146E-15 0.5 1 1 1
v -0.5 0.514 -0.228 1 1 1
v -0.5 0.552 -0.004 1 1 1
v -0.5 0.608 0.184 1 1 1

vn -0.6832943 0.6657923 -0.2997158
vn -0.7417359 0.6030254 -0.2935781
vn -0.1467468 0.9024523 -0.4050249
vn -0.1512168 0.88877 -0.4326907
vn 0.9459129 0.3153043 -0.07636684
vn 0.6930756 0.7020528 -0.1636098
vn 0.9423316 0.3141105 -0.1155246
vn 0.6873792 0.6843859 -0.2431577
vn -0.1554796 0.9623963 -0.2227544
vn -0.1510161 0.9320717 -0.329297
vn 0.1554796 0.9623963 -0.2227544
vn 0.1510161 0.9320717 -0.329297
vn 0.1467468 0.9024523 -0.4050249
vn 0.1512168 0.88877 -0.4326907
vn 0.6832943 0.6657923 -0.2997158
vn 0.7417359 0.6030254 -0.2935781
vn -0.9388147 0.3129383 -0.1438631
vn -0.9376367 0.3125456 -0.1521603
vn -0.1583898 0.9815038 -0.1075313
vn 0.1583898 0.9815038 -0.1075313
vn -0.6873792 0.6843859 -0.2431577
vn -0.9423316 0.3141105 -0.1155246
vn 0.9388147 0.3129383 -0.1438631
vn 0.9376367 0.3125456 -0.1521603
vn -0.6993888 0.7137965 -0.03673952
vn -0.6976494 0.7121222 -0.07853203
vn -0.1591543 0.9859486 -0.05074735
vn 0.6976494 0.7121222 -0.07853203
vn 0.1591543 0.9859486 -0.05074735
vn 0.6993888 0.7137965 -0.03673952
vn 0.9480641 0.3160214 -0.03612114
vn 0.9485576 0.3161859 -0.01627427
vn -0.6930756 0.7020528 -0.1636098
vn -0.9459129 0.3153043 -0.07636684
vn -0.9485576 0.3161859 -0.01627427
vn -0.9480641 0.3160214 -0.03612114
vn 0 0.9739454 -0.226783
vn 0 0.9423268 -0.3346944
vn 0 0.9118361 -0.4105545
vn 0 0.8991093 -0.4377243
vn 0 0 -1
vn 1 0 0
vn 0 0 1
vn 0 -1 0
vn 0 0.998678 -0.05140255
vn 0 0.9939852 -0.109514
vn -1 0 0

vt 0.28125 0.375
vt 0.90625 0.375

usemtl colormap

f 3/1/3 2/1/2 1/1/1
f 2/1/2 3/1/3 4/1/4
f 7/1/7 6/1/6 5/1/5
f 6/1/6 7/1/7 8/1/8
f 11/1/11 10/1/10 9/1/9
f 10/1/10 11/1/11 12/1/12
f 15/1/15 14/1/14 13/1/13
f 14/1/14 15/1/15 16/1/16
f 2/1/2 17/1/17 1/1/1
f 17/1/17 2/1/2 18/1/18
f 20/1/20 9/1/9 19/1/19
f 9/1/9 20/1/20 11/1/11
f 1/1/1 22/1/22 21/1/21
f 22/1/22 1/1/1 17/1/17
f 13/1/13 4/1/4 3/1/3
f 4/1/4 13/1/13 14/1/14
f 24/1/24 15/1/15 23/1/23
f 15/1/15 24/1/24 16/1/16
f 23/1/23 8/1/8 7/1/7
f 8/1/8 23/1/23 15/1/15
f 27/1/27 26/1/26 25/1/25
f 26/1/26 27/1/27 19/1/19
f 28/1/28 11/1/11 20/1/20
f 11/1/11 28/1/28 6/1/6
f 10/1/10 1/1/1 21/1/21
f 1/1/1 10/1/10 3/1/3
f 30/1/30 20/1/20 29/1/29
f 20/1/20 30/1/30 28/1/28
f 12/1/12 3/1/3 10/1/10
f 3/1/3 12/1/12 13/1/13
f 5/1/5 28/1/28 31/1/31
f 28/1/28 5/1/5 6/1/6
f 31/1/31 30/1/30 32/1/32
f 30/1/30 31/1/31 28/1/28
f 29/1/29 19/1/19 27/1/27
f 19/1/19 29/1/29 20/1/20
f 9/1/9 21/1/21 33/1/33
f 21/1/21 9/1/9 10/1/10
f 21/1/21 34/1/34 33/1/33
f 34/1/34 21/1/21 22/1/22
f 19/1/19 33/1/33 26/1/26
f 33/1/33 19/1/19 9/1/9
f 8/1/8 13/1/13 12/1/12
f 13/1/13 8/1/8 15/1/15
f 26/1/26 35/1/35 25/1/25
f 35/1/35 26/1/26 36/1/36
f 33/1/33 36/1/36 26/1/26
f 36/1/36 33/1/33 34/1/34
f 6/1/6 12/1/12 11/1/11
f 12/1/12 6/1/6 8/1/8
f 34/2/37 38/2/38 37/2/37
f 38/2/38 34/2/37 22/2/38
f 17/2/39 40/2/40 39/2/39
f 40/2/40 17/2/39 18/2/40
f 30/2/41 41/2/41 32/2/41
f 30/2/41 42/2/41 41/2/41
f 42/2/41 30/2/41 43/2/41
f 43/2/41 30/2/41 29/2/41
f 27/2/41 43/2/41 29/2/41
f 25/2/41 43/2/41 27/2/41
f 43/2/41 25/2/41 44/2/41
f 44/2/41 25/2/41 35/2/41
f 45/2/42 43/2/42 44/2/42
f 43/2/42 45/2/42 46/2/42
f 46/2/42 45/2/42 37/2/42
f 46/2/42 37/2/42 38/2/42
f 46/2/42 38/2/42 39/2/42
f 46/2/42 39/2/42 40/2/42
f 47/2/39 24/2/40 23/2/39
f 24/2/40 47/2/39 48/2/40
f 2/2/43 40/2/43 18/2/43
f 2/2/43 46/2/43 40/2/43
f 46/2/43 2/2/43 49/2/43
f 49/2/43 2/2/43 4/2/43
f 49/2/43 4/2/43 14/2/43
f 16/2/43 49/2/43 14/2/43
f 49/2/43 16/2/43 48/2/43
f 48/2/43 16/2/43 24/2/43
f 49/2/44 43/2/44 46/2/44
f 43/2/44 49/2/44 42/2/44
f 22/2/38 39/2/39 38/2/38
f 39/2/39 22/2/38 17/2/39
f 41/2/45 31/2/46 32/2/45
f 31/2/46 41/2/45 50/2/46
f 50/2/46 5/2/37 31/2/46
f 5/2/37 50/2/46 51/2/37
f 36/2/46 37/2/37 45/2/46
f 37/2/37 36/2/46 34/2/37
f 49/2/47 41/2/47 42/2/47
f 41/2/47 49/2/47 50/2/47
f 50/2/47 49/2/47 51/2/47
f 51/2/47 49/2/47 52/2/47
f 52/2/47 49/2/47 47/2/47
f 47/2/47 49/2/47 48/2/47
f 51/2/37 7/2/38 5/2/37
f 7/2/38 51/2/37 52/2/38
f 35/2/45 45/2/46 44/2/45
f 45/2/46 35/2/45 36/2/46
f 7/2/38 47/2/39 23/2/39
f 47/2/39 7/2/38 52/2/38

g ramp-start-solid-b




usemtl colormap

f 3/1/3 2/1/2 1/1/1
f 2/1/2 3/1/3 4/1/4
f 7/1/7 6/1/6 5/1/5
f 6/1/6 7/1/7 8/1/8
f 11/1/11 10/1/10 9/1/9
f 10/1/10 11/1/11 12/1/12
f 15/1/15 14/1/14 13/1/13
f 14/1/14 15/1/15 16/1/16
f 2/1/2 17/1/17 1/1/1
f 17/1/17 2/1/2 18/1/18
f 20/1/20 9/1/9 19/1/19
f 9/1/9 20/1/20 11/1/11
f 1/1/1 22/1/22 21/1/21
f 22/1/22 1/1/1 17/1/17
f 13/1/13 4/1/4 3/1/3
f 4/1/4 13/1/13 14/1/14
f 24/1/24 15/1/15 23/1/23
f 15/1/15 24/1/24 16/1/16
f 23/1/23 8/1/8 7/1/7
f 8/1/8 23/1/23 15/1/15
f 27/1/27 26/1/26 25/1/25
f 26/1/26 27/1/27 19/1/19
f 28/1/28 11/1/11 20/1/20
f 11/1/11 28/1/28 6/1/6
f 10/1/10 1/1/1 21/1/21
f 1/1/1 10/1/10 3/1/3
f 30/1/30 20/1/20 29/1/29
f 20/1/20 30/1/30 28/1/28
f 12/1/12 3/1/3 10/1/10
f 3/1/3 12/1/12 13/1/13
f 5/1/5 28/1/28 31/1/31
f 28/1/28 5/1/5 6/1/6
f 31/1/31 30/1/30 32/1/32
f 30/1/30 31/1/31 28/1/28
f 29/1/29 19/1/19 27/1/27
f 19/1/19 29/1/29 20/1/20
f 9/1/9 21/1/21 33/1/33
f 21/1/21 9/1/9 10/1/10
f 21/1/21 34/1/34 33/1/33
f 34/1/34 21/1/21 22/1/22
f 19/1/19 33/1/33 26/1/26
f 33/1/33 19/1/19 9/1/9
f 8/1/8 13/1/13 12/1/12
f 13/1/13 8/1/8 15/1/15
f 26/1/26 35/1/35 25/1/25
f 35/1/35 26/1/26 36/1/36
f 33/1/33 36/1/36 26/1/26
f 36/1/36 33/1/33 34/1/34
f 6/1/6 12/1/12 11/1/11
f 12/1/12 6/1/6 8/1/8
f 34/2/37 38/2/38 37/2/37
f 38/2/38 34/2/37 22/2/38
f 17/2/39 40/2/40 39/2/39
f 40/2/40 17/2/39 18/2/40
f 30/2/41 41/2/41 32/2/41
f 30/2/41 42/2/41 41/2/41
f 42/2/41 30/2/41 43/2/41
f 43/2/41 30/2/41 29/2/41
f 27/2/41 43/2/41 29/2/41
f 25/2/41 43/2/41 27/2/41
f 43/2/41 25/2/41 44/2/41
f 44/2/41 25/2/41 35/2/41
f 45/2/42 43/2/42 44/2/42
f 43/2/42 45/2/42 46/2/42
f 46/2/42 45/2/42 37/2/42
f 46/2/42 37/2/42 38/2/42
f 46/2/42 38/2/42 39/2/42
f 46/2/42 39/2/42 40/2/42
f 47/2/39 24/2/40 23/2/39
f 24/2/40 47/2/39 48/2/40
f 2/2/43 40/2/43 18/2/43
f 2/2/43 46/2/43 40/2/43
f 46/2/43 2/2/43 49/2/43
f 49/2/43 2/2/43 4/2/43
f 49/2/43 4/2/43 14/2/43
f 16/2/43 49/2/43 14/2/43
f 49/2/43 16/2/43 48/2/43
f 48/2/43 16/2/43 24/2/43
f 49/2/44 43/2/44 46/2/44
f 43/2/44 49/2/44 42/2/44
f 22/2/38 39/2/39 38/2/38
f 39/2/39 22/2/38 17/2/39
f 41/2/45 31/2/46 32/2/45
f 31/2/46 41/2/45 50/2/46
f 50/2/46 5/2/37 31/2/46
f 5/2/37 50/2/46 51/2/37
f 36/2/46 37/2/37 45/2/46
f 37/2/37 36/2/46 34/2/37
f 49/2/47 41/2/47 42/2/47
f 41/2/47 49/2/47 50/2/47
f 50/2/47 49/2/47 51/2/47
f 51/2/47 49/2/47 52/2/47
f 52/2/47 49/2/47 47/2/47
f 47/2/47 49/2/47 48/2/47
f 51/2/37 7/2/38 5/2/37
f 7/2/38 51/2/37 52/2/38
f 35/2/45 45/2/46 44/2/45
f 45/2/46 35/2/45 36/2/46
f 7/2/38 47/2/39 23/2/39
f 47/2/39 7/2/38 52/2/38

