# Created by Kenney (www.kenney.nl)

mtllib s-curve-left.mtl

g s-curve-left

v -1 0.5 -1.368348 1 1 1
v -1 0 -1.368348 1 1 1
v -0.9318516 0.5 -1.114014 1 1 1
v -0.9318516 0 -1.114014 1 1 1
v -0.7719712 0 0.3637033 1 1 1
v -1.228029 0 0.1003983 1 1 1
v -0.7719712 0.5 0.3637033 1 1 1
v -1.228029 0.5 0.1003983 1 1 1
v -0.1316525 0 -0.5 1 1 1
v 0.263305 0 -0.5 1 1 1
v -0.1316525 0.5 -0.5 1 1 1
v 0.263305 0.5 -0.5 1 1 1
v -1 0.5 -1.5 1 1 1
v -1 0 -1.5 1 1 1
v -0.6140144 0 -0.6998008 1 1 1
v -0.3859856 0 -0.5681484 1 1 1
v -0.6140144 0.5 -0.6998008 1 1 1
v -0.3859856 0.5 -0.5681484 1 1 1
v -0.8001992 0 -0.8859856 1 1 1
v -0.8001992 0.5 -0.8859856 1 1 1
v -1.600398 0 -0.2719712 1 1 1
v -1.600398 0.5 -0.2719712 1 1 1
v -0.263305 0 0.5 1 1 1
v -0.263305 0.5 0.5 1 1 1
v 2 0 1.236695 1 1 1
v 1.863703 0 0.7280288 1 1 1
v 2 0 1.5 1 1 1
v 1 0 1.5 1 1 1
v 1.600398 0 0.2719712 1 1 1
v 1.228029 0 -0.1003983 1 1 1
v 1 0 1.368348 1 1 1
v 0.7719712 0 -0.3637033 1 1 1
v 0.9318516 0 1.114014 1 1 1
v 0.8001992 0 0.8859856 1 1 1
v 0.6140144 0 0.6998008 1 1 1
v 0.3859856 0 0.5681484 1 1 1
v 0.1316525 0 0.5 1 1 1
v -2 0 -1.5 1 1 1
v -1.863703 0 -0.7280288 1 1 1
v -2 0 -1.236695 1 1 1
v -2 0.5 -1.5 1 1 1
v -2 0.5 -1.236695 1 1 1
v 0.1316525 0.5 0.5 1 1 1
v -1.863703 0.5 -0.7280288 1 1 1
v 0.7719712 0.5 -0.3637033 1 1 1
v 1.600398 0.5 0.2719712 1 1 1
v 1.863703 0.5 0.7280288 1 1 1
v 0.8001992 0.5 0.8859856 1 1 1
v 0.9318516 0.5 1.114014 1 1 1
v -1.15 0.5 -1.5 1 1 1
v -1.071629 0.5 -1.056117 1 1 1
v -1.15 0.5 -1.3486 1 1 1
v -0.920229 0.5 -0.7938834 1 1 1
v -0.7061166 0.5 -0.5797709 1 1 1
v -0.4438834 0.5 -0.4283706 1 1 1
v -0.1514004 0.5 -0.35 1 1 1
v 0.2435571 0.5 -0.35 1 1 1
v 0.7140733 0.5 -0.2239255 1 1 1
v 1.135927 0.5 0.01963156 1 1 1
v 1.228029 0.5 -0.1003983 1 1 1
v 1.480368 0.5 0.3640733 1 1 1
v 1.723926 0.5 0.7859266 1 1 1
v 1.85 0.5 1.256443 1 1 1
v 1.85 0.5 1.5 1 1 1
v 2 0.5 1.5 1 1 1
v 2 0.5 1.236695 1 1 1
v 1 0.5 1.368348 1 1 1
v 1 0.5 1.5 1 1 1
v 0.3859856 0.5 0.5681484 1 1 1
v -1.85 0.5 -1.5 1 1 1
v -1.85 0.5 -1.256443 1 1 1
v -1.723926 0.5 -0.7859266 1 1 1
v -1.480368 0.5 -0.3640733 1 1 1
v -1.135927 0.5 -0.01963156 1 1 1
v -0.7140733 0.5 0.2239255 1 1 1
v -0.2435571 0.5 0.35 1 1 1
v 0.1514004 0.5 0.35 1 1 1
v 0.4438834 0.5 0.4283706 1 1 1
v 0.6140144 0.5 0.6998008 1 1 1
v 0.7061166 0.5 0.5797709 1 1 1
v 0.920229 0.5 0.7938834 1 1 1
v 1.071629 0.5 1.056117 1 1 1
v 1.15 0.5 1.5 1 1 1
v 1.15 0.5 1.3486 1 1 1
v -1.7875 0.3125 -1.5 1 1 1
v -1.6 0.25 -1.5 1 1 1
v -1.4 0.25 -1.5 1 1 1
v -1.2125 0.3125 -1.5 1 1 1
v 1.7875 0.3125 1.5 1 1 1
v 1.6 0.25 1.5 1 1 1
v 1.4 0.25 1.5 1 1 1
v 1.2125 0.3125 1.5 1 1 1
v -1.2125 0.3125 -1.340371 1 1 1
v -1.4 0.25 -1.315686 1 1 1
v -1.7875 0.3125 -1.264671 1 1 1
v -1.665685 0.3125 -0.8100507 1 1 1
v 0.1596286 0.3125 0.2875 1 1 1
v 0.4680075 0.3125 0.3701299 1 1 1
v -1.490963 0.25 -0.882423 1 1 1
v -1.6 0.25 -1.289356 1 1 1
v -1.304592 0.25 -0.9596202 1 1 1
v -1.280319 0.25 -0.5175769 1 1 1
v -1.120279 0.25 -0.6403798 1 1 1
v -0.9824231 0.25 -0.2196814 1 1 1
v -0.8596202 0.25 -0.3797212 1 1 1
v -0.617577 0.25 -0.009037356 1 1 1
v -0.5403798 0.25 -0.1954077 1 1 1
v -0.210644 0.25 0.1 1 1 1
v -0.1843135 0.25 -0.1 1 1 1
v 0.1843135 0.25 0.1 1 1 1
v 0.210644 0.25 -0.1 1 1 1
v 0.5403798 0.25 0.1954077 1 1 1
v 0.617577 0.25 0.009037356 1 1 1
v 0.8596202 0.25 0.3797212 1 1 1
v 0.9824231 0.25 0.2196814 1 1 1
v 1.120279 0.25 0.6403798 1 1 1
v 1.280319 0.25 0.5175769 1 1 1
v 1.304592 0.25 0.9596202 1 1 1
v 1.4 0.25 1.315686 1 1 1
v 1.490963 0.25 0.882423 1 1 1
v 1.6 0.25 1.289356 1 1 1
v -0.2353288 0.3125 0.2875 1 1 1
v -0.6899493 0.3125 0.1656848 1 1 1
v -0.4680075 0.3125 -0.3701299 1 1 1
v -0.7444925 0.3125 -0.5297585 1 1 1
v -1.12987 0.3125 -1.031992 1 1 1
v -1.430356 0.3125 -0.4024493 1 1 1
v -0.1596286 0.3125 -0.2875 1 1 1
v 1.430356 0.3125 0.4024493 1 1 1
v 1.665685 0.3125 0.8100507 1 1 1
v -0.9702414 0.3125 -0.7555075 1 1 1
v -1.097551 0.3125 -0.06964401 1 1 1
v 0.2353288 0.3125 -0.2875 1 1 1
v 0.9702414 0.3125 0.7555075 1 1 1
v 0.7444925 0.3125 0.5297585 1 1 1
v 0.6899493 0.3125 -0.1656848 1 1 1
v 1.097551 0.3125 0.06964401 1 1 1
v 1.12987 0.3125 1.031992 1 1 1
v 1.2125 0.3125 1.340371 1 1 1
v 1.7875 0.3125 1.264671 1 1 1

vn 0.9914449 0 -0.1305262
vn 0.9238795 0 -0.3826834
vn -0.3826834 0 0.9238795
vn -0.6087614 0 0.7933533
vn 0.1305262 0 -0.9914449
vn 1 0 0
vn 0.6087614 0 -0.7933533
vn 0.3826834 0 -0.9238795
vn 0.7933533 0 -0.6087614
vn -0.7933533 0 0.6087614
vn -0.1305262 0 0.9914449
vn 0 -1 0
vn -1 0 0
vn -0.9914449 0 0.1305262
vn -0.9238795 0 0.3826834
vn 0 1 0
vn 0 0 -1
vn 0 0 1
vn -0.7071068 0.7071068 0
vn -0.6797101 0.7280018 0.08948553
vn -0.1601822 0.9870875 0
vn -0.1447064 0.9892913 0.01905096
vn 0.7168672 0.6907926 -0.09437736
vn 0.6680139 0.6907926 -0.2767004
vn 0.9397532 0.3186805 -0.1237208
vn 0.8757104 0.3186804 -0.3627311
vn 0.08948553 0.7280018 -0.6797101
vn 0.2623583 0.7280018 -0.6333889
vn 0.1237209 0.3186804 -0.9397532
vn 0.3627311 0.3186804 -0.8757104
vn 0.1601822 0.9870875 0
vn 0.1586915 0.9851377 -0.06573217
vn 0.170297 0.9851377 -0.02242002
vn -0.1348449 0.9892913 0.0558546
vn 0.1362715 0.9851377 -0.1045648
vn -0.115794 0.9892913 0.08885183
vn 0.1045648 0.9851377 -0.1362715
vn -0.08885183 0.9892913 0.115794
vn 0.06573217 0.9851377 -0.1586915
vn -0.0558546 0.9892913 0.1348449
vn 0.02242002 0.9851377 -0.170297
vn -0.01905096 0.9892913 0.1447064
vn 0.01905096 0.9892913 -0.1447064
vn -0.02242002 0.9851377 0.170297
vn 0.0558546 0.9892913 -0.1348449
vn -0.06573217 0.9851377 0.1586915
vn 0.08885183 0.9892913 -0.115794
vn -0.1045648 0.9851377 0.1362715
vn 0.115794 0.9892913 -0.08885183
vn -0.1362715 0.9851377 0.1045648
vn 0.1348449 0.9892913 -0.0558546
vn 0.1447064 0.9892913 -0.01905096
vn -0.1586915 0.9851377 0.06573217
vn -0.170297 0.9851377 0.02242002
vn 0.09437736 0.6907926 -0.7168672
vn 0.2767004 0.6907926 -0.6680139
vn -0.2623583 0.7280018 0.6333889
vn -0.4173518 0.7280018 0.5439035
vn -0.9397532 0.3186805 0.1237208
vn -0.8757104 0.3186804 0.3627311
vn -0.633389 0.7280018 0.2623583
vn 0.5736365 0.6907925 -0.4401667
vn -0.08948553 0.7280018 0.6797101
vn -0.1237209 0.3186804 0.9397532
vn -0.3627311 0.3186804 0.8757104
vn -0.7519897 0.3186804 0.577022
vn -0.5736365 0.6907925 0.4401667
vn -0.6680139 0.6907926 0.2767004
vn 0.9486833 0.3162278 0
vn 0.7071068 0.7071068 0
vn -0.5439035 0.7280018 0.4173518
vn 0.4401667 0.6907925 -0.5736365
vn 0.7519897 0.3186804 -0.577022
vn 0.577022 0.3186804 -0.7519897
vn -0.09437736 0.6907926 0.7168672
vn -0.577022 0.3186804 0.7519897
vn -0.9486833 0.3162278 0
vn 0.5439035 0.7280018 -0.4173518
vn 0.4173518 0.7280018 -0.5439035
vn -0.2767004 0.6907926 0.6680139
vn -0.4401667 0.6907925 0.5736365
vn 0.633389 0.7280018 -0.2623583
vn 0.6797101 0.7280018 -0.08948553
vn -0.7168672 0.6907926 0.09437736

vt 0.90625 0.375
vt 0.28125 0.375

usemtl colormap

f 3/1/2 2/1/1 1/1/1
f 2/1/1 3/1/2 4/1/2
f 7/1/3 6/1/4 5/1/3
f 6/1/4 7/1/3 8/1/4
f 11/1/5 10/1/5 9/1/5
f 10/1/5 11/1/5 12/1/5
f 1/1/1 14/1/6 13/1/6
f 14/1/6 1/1/1 2/1/1
f 17/1/7 16/1/8 15/1/7
f 16/1/8 17/1/7 18/1/8
f 20/1/9 15/1/7 19/1/9
f 15/1/7 20/1/9 17/1/7
f 18/1/8 9/1/5 16/1/8
f 9/1/5 18/1/8 11/1/5
f 6/1/4 22/1/10 21/1/10
f 22/1/10 6/1/4 8/1/4
f 24/1/11 5/1/3 23/1/11
f 5/1/3 24/1/11 7/1/3
f 27/1/12 26/1/12 25/1/12
f 26/1/12 27/1/12 28/1/12
f 26/1/12 28/1/12 29/1/12
f 29/1/12 28/1/12 30/1/12
f 30/1/12 28/1/12 31/1/12
f 30/1/12 31/1/12 32/1/12
f 32/1/12 31/1/12 33/1/12
f 32/1/12 33/1/12 34/1/12
f 32/1/12 34/1/12 35/1/12
f 32/1/12 35/1/12 10/1/12
f 10/1/12 35/1/12 36/1/12
f 10/1/12 36/1/12 37/1/12
f 10/1/12 37/1/12 9/1/12
f 9/1/12 37/1/12 23/1/12
f 9/1/12 23/1/12 16/1/12
f 16/1/12 23/1/12 5/1/12
f 16/1/12 5/1/12 15/1/12
f 15/1/12 5/1/12 19/1/12
f 19/1/12 5/1/12 6/1/12
f 19/1/12 6/1/12 4/1/12
f 4/1/12 6/1/12 2/1/12
f 2/1/12 6/1/12 14/1/12
f 14/1/12 6/1/12 38/1/12
f 38/1/12 6/1/12 21/1/12
f 38/1/12 21/1/12 39/1/12
f 38/1/12 39/1/12 40/1/12
f 40/1/14 41/1/13 38/1/13
f 41/1/13 40/1/14 42/1/14
f 43/1/11 23/1/11 37/1/11
f 23/1/11 43/1/11 24/1/11
f 39/1/15 42/1/14 40/1/14
f 42/1/14 39/1/15 44/1/15
f 20/1/9 4/1/2 3/1/2
f 4/1/2 20/1/9 19/1/9
f 12/1/5 32/1/8 10/1/5
f 32/1/8 12/1/5 45/1/8
f 47/1/2 29/1/9 46/1/9
f 29/1/9 47/1/2 26/1/2
f 21/1/10 44/1/15 39/1/15
f 44/1/15 21/1/10 22/1/10
f 33/1/15 48/1/10 34/1/10
f 48/1/10 33/1/15 49/1/15
f 50/1/16 1/1/16 13/1/16
f 1/1/16 50/1/16 51/1/16
f 51/1/16 50/1/16 52/1/16
f 51/1/16 3/1/16 1/1/16
f 53/1/16 3/1/16 51/1/16
f 53/1/16 20/1/16 3/1/16
f 54/1/16 20/1/16 53/1/16
f 54/1/16 17/1/16 20/1/16
f 55/1/16 17/1/16 54/1/16
f 55/1/16 18/1/16 17/1/16
f 56/1/16 18/1/16 55/1/16
f 56/1/16 11/1/16 18/1/16
f 57/1/16 11/1/16 56/1/16
f 57/1/16 12/1/16 11/1/16
f 58/1/16 12/1/16 57/1/16
f 58/1/16 45/1/16 12/1/16
f 59/1/16 45/1/16 58/1/16
f 59/1/16 60/1/16 45/1/16
f 61/1/16 60/1/16 59/1/16
f 61/1/16 46/1/16 60/1/16
f 62/1/16 46/1/16 61/1/16
f 63/1/16 46/1/16 62/1/16
f 46/1/16 63/1/16 47/1/16
f 64/1/16 47/1/16 63/1/16
f 65/1/16 47/1/16 64/1/16
f 47/1/16 65/1/16 66/1/16
f 31/1/14 49/1/15 33/1/15
f 49/1/15 31/1/14 67/1/14
f 28/1/13 67/1/14 31/1/14
f 67/1/14 28/1/13 68/1/13
f 69/1/3 37/1/11 36/1/3
f 37/1/11 69/1/3 43/1/11
f 65/1/6 25/1/1 66/1/1
f 25/1/1 65/1/6 27/1/6
f 41/1/16 71/1/16 70/1/16
f 71/1/16 41/1/16 44/1/16
f 44/1/16 41/1/16 42/1/16
f 44/1/16 72/1/16 71/1/16
f 22/1/16 72/1/16 44/1/16
f 22/1/16 73/1/16 72/1/16
f 8/1/16 73/1/16 22/1/16
f 8/1/16 74/1/16 73/1/16
f 7/1/16 74/1/16 8/1/16
f 7/1/16 75/1/16 74/1/16
f 24/1/16 75/1/16 7/1/16
f 24/1/16 76/1/16 75/1/16
f 43/1/16 76/1/16 24/1/16
f 43/1/16 77/1/16 76/1/16
f 69/1/16 77/1/16 43/1/16
f 69/1/16 78/1/16 77/1/16
f 79/1/16 78/1/16 69/1/16
f 79/1/16 80/1/16 78/1/16
f 48/1/16 80/1/16 79/1/16
f 48/1/16 81/1/16 80/1/16
f 49/1/16 81/1/16 48/1/16
f 67/1/16 81/1/16 49/1/16
f 81/1/16 67/1/16 82/1/16
f 68/1/16 82/1/16 67/1/16
f 83/1/16 82/1/16 68/1/16
f 82/1/16 83/1/16 84/1/16
f 45/1/8 30/1/7 32/1/8
f 30/1/7 45/1/8 60/1/7
f 85/1/17 41/1/17 70/1/17
f 85/1/17 38/1/17 41/1/17
f 38/1/17 85/1/17 14/1/17
f 14/1/17 85/1/17 86/1/17
f 87/1/17 14/1/17 86/1/17
f 88/1/17 14/1/17 87/1/17
f 14/1/17 88/1/17 13/1/17
f 13/1/17 88/1/17 50/1/17
f 48/1/10 35/1/4 34/1/10
f 35/1/4 48/1/10 79/1/4
f 89/1/18 65/1/18 64/1/18
f 89/1/18 27/1/18 65/1/18
f 27/1/18 89/1/18 28/1/18
f 28/1/18 89/1/18 90/1/18
f 91/1/18 28/1/18 90/1/18
f 92/1/18 28/1/18 91/1/18
f 28/1/18 92/1/18 68/1/18
f 68/1/18 92/1/18 83/1/18
f 66/1/1 26/1/2 47/1/2
f 26/1/2 66/1/1 25/1/1
f 46/1/9 30/1/7 60/1/7
f 30/1/7 46/1/9 29/1/9
f 79/1/4 36/1/3 35/1/4
f 36/1/3 79/1/4 69/1/3
f 87/2/21 93/2/20 88/2/19
f 93/2/20 87/2/21 94/2/22
f 71/2/25 96/2/24 95/2/23
f 96/2/24 71/2/25 72/2/26
f 77/2/29 98/2/28 97/2/27
f 98/2/28 77/2/29 78/2/30
f 86/2/31 94/2/22 87/2/21
f 94/2/22 86/2/31 99/2/32
f 99/2/32 86/2/31 100/2/33
f 99/2/32 101/2/34 94/2/22
f 102/2/35 101/2/34 99/2/32
f 102/2/35 103/2/36 101/2/34
f 104/2/37 103/2/36 102/2/35
f 104/2/37 105/2/38 103/2/36
f 106/2/39 105/2/38 104/2/37
f 106/2/39 107/2/40 105/2/38
f 108/2/41 107/2/40 106/2/39
f 108/2/41 109/2/42 107/2/40
f 110/2/43 109/2/42 108/2/41
f 110/2/43 111/2/44 109/2/42
f 112/2/45 111/2/44 110/2/43
f 112/2/45 113/2/46 111/2/44
f 114/2/47 113/2/46 112/2/45
f 114/2/47 115/2/48 113/2/46
f 116/2/49 115/2/48 114/2/47
f 116/2/49 117/2/50 115/2/48
f 118/2/51 117/2/50 116/2/49
f 119/2/52 117/2/50 118/2/51
f 117/2/50 119/2/52 120/2/53
f 91/2/31 120/2/53 119/2/52
f 90/2/21 120/2/53 91/2/31
f 120/2/53 90/2/21 121/2/54
f 108/2/41 97/2/27 110/2/43
f 97/2/27 108/2/41 122/2/55
f 75/2/30 122/2/55 123/2/56
f 122/2/55 75/2/30 76/2/29
f 125/2/58 107/2/40 124/2/57
f 107/2/40 125/2/58 105/2/38
f 93/2/20 51/2/60 52/2/59
f 51/2/60 93/2/20 126/2/61
f 99/2/32 127/2/62 102/2/35
f 127/2/62 99/2/32 96/2/24
f 56/2/64 124/2/57 128/2/63
f 124/2/57 56/2/64 55/2/65
f 129/2/67 62/2/60 61/2/66
f 62/2/60 129/2/67 130/2/68
f 71/2/25 85/2/70 70/2/69
f 85/2/70 71/2/25 95/2/23
f 126/2/61 53/2/66 51/2/60
f 53/2/66 126/2/61 131/2/71
f 106/2/39 122/2/55 108/2/41
f 122/2/55 106/2/39 123/2/56
f 73/2/73 132/2/72 127/2/62
f 132/2/72 73/2/73 74/2/74
f 76/2/29 97/2/27 122/2/55
f 97/2/27 76/2/29 77/2/29
f 102/2/35 132/2/72 104/2/37
f 132/2/72 102/2/35 127/2/62
f 57/2/64 128/2/63 133/2/75
f 128/2/63 57/2/64 56/2/64
f 124/2/57 109/2/42 128/2/63
f 109/2/42 124/2/57 107/2/40
f 55/2/65 125/2/58 124/2/57
f 125/2/58 55/2/65 54/2/76
f 93/2/20 101/2/34 126/2/61
f 101/2/34 93/2/20 94/2/22
f 128/2/63 111/2/44 133/2/75
f 111/2/44 128/2/63 109/2/42
f 126/2/61 103/2/36 131/2/71
f 103/2/36 126/2/61 101/2/34
f 110/2/43 98/2/28 112/2/45
f 98/2/28 110/2/43 97/2/27
f 93/2/20 50/2/77 88/2/19
f 50/2/77 93/2/20 52/2/59
f 54/2/76 131/2/71 125/2/58
f 131/2/71 54/2/76 53/2/66
f 74/2/74 123/2/56 132/2/72
f 123/2/56 74/2/74 75/2/30
f 114/2/47 134/2/78 116/2/49
f 134/2/78 114/2/47 135/2/79
f 58/2/65 133/2/75 136/2/80
f 133/2/75 58/2/65 57/2/64
f 59/2/76 136/2/80 137/2/81
f 136/2/80 59/2/76 58/2/65
f 81/2/73 138/2/82 134/2/78
f 138/2/82 81/2/73 82/2/26
f 139/2/83 91/2/31 119/2/52
f 91/2/31 139/2/83 92/2/70
f 116/2/49 138/2/82 118/2/51
f 138/2/82 116/2/49 134/2/78
f 104/2/37 123/2/56 106/2/39
f 123/2/56 104/2/37 132/2/72
f 112/2/45 135/2/79 114/2/47
f 135/2/79 112/2/45 98/2/28
f 80/2/74 134/2/78 135/2/79
f 134/2/78 80/2/74 81/2/73
f 100/2/33 96/2/24 99/2/32
f 96/2/24 100/2/33 95/2/23
f 121/2/54 89/2/19 140/2/84
f 89/2/19 121/2/54 90/2/21
f 118/2/51 139/2/83 119/2/52
f 139/2/83 118/2/51 138/2/82
f 136/2/80 115/2/48 137/2/81
f 115/2/48 136/2/80 113/2/46
f 137/2/81 117/2/50 129/2/67
f 117/2/50 137/2/81 115/2/48
f 133/2/75 113/2/46 136/2/80
f 113/2/46 133/2/75 111/2/44
f 140/2/84 64/2/77 63/2/59
f 64/2/77 140/2/84 89/2/19
f 130/2/68 63/2/59 62/2/60
f 63/2/59 130/2/68 140/2/84
f 82/2/26 139/2/83 138/2/82
f 139/2/83 82/2/26 84/2/25
f 85/2/70 100/2/33 86/2/31
f 100/2/33 85/2/70 95/2/23
f 72/2/26 127/2/62 96/2/24
f 127/2/62 72/2/26 73/2/73
f 78/2/30 135/2/79 98/2/28
f 135/2/79 78/2/30 80/2/74
f 61/2/66 137/2/81 129/2/67
f 137/2/81 61/2/66 59/2/76
f 84/2/25 92/2/70 139/2/83
f 92/2/70 84/2/25 83/2/69
f 130/2/68 121/2/54 140/2/84
f 121/2/54 130/2/68 120/2/53
f 131/2/71 105/2/38 125/2/58
f 105/2/38 131/2/71 103/2/36
f 129/2/67 120/2/53 130/2/68
f 120/2/53 129/2/67 117/2/50

g s-curve-left




usemtl colormap

f 3/1/2 2/1/1 1/1/1
f 2/1/1 3/1/2 4/1/2
f 7/1/3 6/1/4 5/1/3
f 6/1/4 7/1/3 8/1/4
f 11/1/5 10/1/5 9/1/5
f 10/1/5 11/1/5 12/1/5
f 1/1/1 14/1/6 13/1/6
f 14/1/6 1/1/1 2/1/1
f 17/1/7 16/1/8 15/1/7
f 16/1/8 17/1/7 18/1/8
f 20/1/9 15/1/7 19/1/9
f 15/1/7 20/1/9 17/1/7
f 18/1/8 9/1/5 16/1/8
f 9/1/5 18/1/8 11/1/5
f 6/1/4 22/1/10 21/1/10
f 22/1/10 6/1/4 8/1/4
f 24/1/11 5/1/3 23/1/11
f 5/1/3 24/1/11 7/1/3
f 27/1/12 26/1/12 25/1/12
f 26/1/12 27/1/12 28/1/12
f 26/1/12 28/1/12 29/1/12
f 29/1/12 28/1/12 30/1/12
f 30/1/12 28/1/12 31/1/12
f 30/1/12 31/1/12 32/1/12
f 32/1/12 31/1/12 33/1/12
f 32/1/12 33/1/12 34/1/12
f 32/1/12 34/1/12 35/1/12
f 32/1/12 35/1/12 10/1/12
f 10/1/12 35/1/12 36/1/12
f 10/1/12 36/1/12 37/1/12
f 10/1/12 37/1/12 9/1/12
f 9/1/12 37/1/12 23/1/12
f 9/1/12 23/1/12 16/1/12
f 16/1/12 23/1/12 5/1/12
f 16/1/12 5/1/12 15/1/12
f 15/1/12 5/1/12 19/1/12
f 19/1/12 5/1/12 6/1/12
f 19/1/12 6/1/12 4/1/12
f 4/1/12 6/1/12 2/1/12
f 2/1/12 6/1/12 14/1/12
f 14/1/12 6/1/12 38/1/12
f 38/1/12 6/1/12 21/1/12
f 38/1/12 21/1/12 39/1/12
f 38/1/12 39/1/12 40/1/12
f 40/1/14 41/1/13 38/1/13
f 41/1/13 40/1/14 42/1/14
f 43/1/11 23/1/11 37/1/11
f 23/1/11 43/1/11 24/1/11
f 39/1/15 42/1/14 40/1/14
f 42/1/14 39/1/15 44/1/15
f 20/1/9 4/1/2 3/1/2
f 4/1/2 20/1/9 19/1/9
f 12/1/5 32/1/8 10/1/5
f 32/1/8 12/1/5 45/1/8
f 47/1/2 29/1/9 46/1/9
f 29/1/9 47/1/2 26/1/2
f 21/1/10 44/1/15 39/1/15
f 44/1/15 21/1/10 22/1/10
f 33/1/15 48/1/10 34/1/10
f 48/1/10 33/1/15 49/1/15
f 50/1/16 1/1/16 13/1/16
f 1/1/16 50/1/16 51/1/16
f 51/1/16 50/1/16 52/1/16
f 51/1/16 3/1/16 1/1/16
f 53/1/16 3/1/16 51/1/16
f 53/1/16 20/1/16 3/1/16
f 54/1/16 20/1/16 53/1/16
f 54/1/16 17/1/16 20/1/16
f 55/1/16 17/1/16 54/1/16
f 55/1/16 18/1/16 17/1/16
f 56/1/16 18/1/16 55/1/16
f 56/1/16 11/1/16 18/1/16
f 57/1/16 11/1/16 56/1/16
f 57/1/16 12/1/16 11/1/16
f 58/1/16 12/1/16 57/1/16
f 58/1/16 45/1/16 12/1/16
f 59/1/16 45/1/16 58/1/16
f 59/1/16 60/1/16 45/1/16
f 61/1/16 60/1/16 59/1/16
f 61/1/16 46/1/16 60/1/16
f 62/1/16 46/1/16 61/1/16
f 63/1/16 46/1/16 62/1/16
f 46/1/16 63/1/16 47/1/16
f 64/1/16 47/1/16 63/1/16
f 65/1/16 47/1/16 64/1/16
f 47/1/16 65/1/16 66/1/16
f 31/1/14 49/1/15 33/1/15
f 49/1/15 31/1/14 67/1/14
f 28/1/13 67/1/14 31/1/14
f 67/1/14 28/1/13 68/1/13
f 69/1/3 37/1/11 36/1/3
f 37/1/11 69/1/3 43/1/11
f 65/1/6 25/1/1 66/1/1
f 25/1/1 65/1/6 27/1/6
f 41/1/16 71/1/16 70/1/16
f 71/1/16 41/1/16 44/1/16
f 44/1/16 41/1/16 42/1/16
f 44/1/16 72/1/16 71/1/16
f 22/1/16 72/1/16 44/1/16
f 22/1/16 73/1/16 72/1/16
f 8/1/16 73/1/16 22/1/16
f 8/1/16 74/1/16 73/1/16
f 7/1/16 74/1/16 8/1/16
f 7/1/16 75/1/16 74/1/16
f 24/1/16 75/1/16 7/1/16
f 24/1/16 76/1/16 75/1/16
f 43/1/16 76/1/16 24/1/16
f 43/1/16 77/1/16 76/1/16
f 69/1/16 77/1/16 43/1/16
f 69/1/16 78/1/16 77/1/16
f 79/1/16 78/1/16 69/1/16
f 79/1/16 80/1/16 78/1/16
f 48/1/16 80/1/16 79/1/16
f 48/1/16 81/1/16 80/1/16
f 49/1/16 81/1/16 48/1/16
f 67/1/16 81/1/16 49/1/16
f 81/1/16 67/1/16 82/1/16
f 68/1/16 82/1/16 67/1/16
f 83/1/16 82/1/16 68/1/16
f 82/1/16 83/1/16 84/1/16
f 45/1/8 30/1/7 32/1/8
f 30/1/7 45/1/8 60/1/7
f 85/1/17 41/1/17 70/1/17
f 85/1/17 38/1/17 41/1/17
f 38/1/17 85/1/17 14/1/17
f 14/1/17 85/1/17 86/1/17
f 87/1/17 14/1/17 86/1/17
f 88/1/17 14/1/17 87/1/17
f 14/1/17 88/1/17 13/1/17
f 13/1/17 88/1/17 50/1/17
f 48/1/10 35/1/4 34/1/10
f 35/1/4 48/1/10 79/1/4
f 89/1/18 65/1/18 64/1/18
f 89/1/18 27/1/18 65/1/18
f 27/1/18 89/1/18 28/1/18
f 28/1/18 89/1/18 90/1/18
f 91/1/18 28/1/18 90/1/18
f 92/1/18 28/1/18 91/1/18
f 28/1/18 92/1/18 68/1/18
f 68/1/18 92/1/18 83/1/18
f 66/1/1 26/1/2 47/1/2
f 26/1/2 66/1/1 25/1/1
f 46/1/9 30/1/7 60/1/7
f 30/1/7 46/1/9 29/1/9
f 79/1/4 36/1/3 35/1/4
f 36/1/3 79/1/4 69/1/3
f 87/2/21 93/2/20 88/2/19
f 93/2/20 87/2/21 94/2/22
f 71/2/25 96/2/24 95/2/23
f 96/2/24 71/2/25 72/2/26
f 77/2/29 98/2/28 97/2/27
f 98/2/28 77/2/29 78/2/30
f 86/2/31 94/2/22 87/2/21
f 94/2/22 86/2/31 99/2/32
f 99/2/32 86/2/31 100/2/33
f 99/2/32 101/2/34 94/2/22
f 102/2/35 101/2/34 99/2/32
f 102/2/35 103/2/36 101/2/34
f 104/2/37 103/2/36 102/2/35
f 104/2/37 105/2/38 103/2/36
f 106/2/39 105/2/38 104/2/37
f 106/2/39 107/2/40 105/2/38
f 108/2/41 107/2/40 106/2/39
f 108/2/41 109/2/42 107/2/40
f 110/2/43 109/2/42 108/2/41
f 110/2/43 111/2/44 109/2/42
f 112/2/45 111/2/44 110/2/43
f 112/2/45 113/2/46 111/2/44
f 114/2/47 113/2/46 112/2/45
f 114/2/47 115/2/48 113/2/46
f 116/2/49 115/2/48 114/2/47
f 116/2/49 117/2/50 115/2/48
f 118/2/51 117/2/50 116/2/49
f 119/2/52 117/2/50 118/2/51
f 117/2/50 119/2/52 120/2/53
f 91/2/31 120/2/53 119/2/52
f 90/2/21 120/2/53 91/2/31
f 120/2/53 90/2/21 121/2/54
f 108/2/41 97/2/27 110/2/43
f 97/2/27 108/2/41 122/2/55
f 75/2/30 122/2/55 123/2/56
f 122/2/55 75/2/30 76/2/29
f 125/2/58 107/2/40 124/2/57
f 107/2/40 125/2/58 105/2/38
f 93/2/20 51/2/60 52/2/59
f 51/2/60 93/2/20 126/2/61
f 99/2/32 127/2/62 102/2/35
f 127/2/62 99/2/32 96/2/24
f 56/2/64 124/2/57 128/2/63
f 124/2/57 56/2/64 55/2/65
f 129/2/67 62/2/60 61/2/66
f 62/2/60 129/2/67 130/2/68
f 71/2/25 85/2/70 70/2/69
f 85/2/70 71/2/25 95/2/23
f 126/2/61 53/2/66 51/2/60
f 53/2/66 126/2/61 131/2/71
f 106/2/39 122/2/55 108/2/41
f 122/2/55 106/2/39 123/2/56
f 73/2/73 132/2/72 127/2/62
f 132/2/72 73/2/73 74/2/74
f 76/2/29 97/2/27 122/2/55
f 97/2/27 76/2/29 77/2/29
f 102/2/35 132/2/72 104/2/37
f 132/2/72 102/2/35 127/2/62
f 57/2/64 128/2/63 133/2/75
f 128/2/63 57/2/64 56/2/64
f 124/2/57 109/2/42 128/2/63
f 109/2/42 124/2/57 107/2/40
f 55/2/65 125/2/58 124/2/57
f 125/2/58 55/2/65 54/2/76
f 93/2/20 101/2/34 126/2/61
f 101/2/34 93/2/20 94/2/22
f 128/2/63 111/2/44 133/2/75
f 111/2/44 128/2/63 109/2/42
f 126/2/61 103/2/36 131/2/71
f 103/2/36 126/2/61 101/2/34
f 110/2/43 98/2/28 112/2/45
f 98/2/28 110/2/43 97/2/27
f 93/2/20 50/2/77 88/2/19
f 50/2/77 93/2/20 52/2/59
f 54/2/76 131/2/71 125/2/58
f 131/2/71 54/2/76 53/2/66
f 74/2/74 123/2/56 132/2/72
f 123/2/56 74/2/74 75/2/30
f 114/2/47 134/2/78 116/2/49
f 134/2/78 114/2/47 135/2/79
f 58/2/65 133/2/75 136/2/80
f 133/2/75 58/2/65 57/2/64
f 59/2/76 136/2/80 137/2/81
f 136/2/80 59/2/76 58/2/65
f 81/2/73 138/2/82 134/2/78
f 138/2/82 81/2/73 82/2/26
f 139/2/83 91/2/31 119/2/52
f 91/2/31 139/2/83 92/2/70
f 116/2/49 138/2/82 118/2/51
f 138/2/82 116/2/49 134/2/78
f 104/2/37 123/2/56 106/2/39
f 123/2/56 104/2/37 132/2/72
f 112/2/45 135/2/79 114/2/47
f 135/2/79 112/2/45 98/2/28
f 80/2/74 134/2/78 135/2/79
f 134/2/78 80/2/74 81/2/73
f 100/2/33 96/2/24 99/2/32
f 96/2/24 100/2/33 95/2/23
f 121/2/54 89/2/19 140/2/84
f 89/2/19 121/2/54 90/2/21
f 118/2/51 139/2/83 119/2/52
f 139/2/83 118/2/51 138/2/82
f 136/2/80 115/2/48 137/2/81
f 115/2/48 136/2/80 113/2/46
f 137/2/81 117/2/50 129/2/67
f 117/2/50 137/2/81 115/2/48
f 133/2/75 113/2/46 136/2/80
f 113/2/46 133/2/75 111/2/44
f 140/2/84 64/2/77 63/2/59
f 64/2/77 140/2/84 89/2/19
f 130/2/68 63/2/59 62/2/60
f 63/2/59 130/2/68 140/2/84
f 82/2/26 139/2/83 138/2/82
f 139/2/83 82/2/26 84/2/25
f 85/2/70 100/2/33 86/2/31
f 100/2/33 85/2/70 95/2/23
f 72/2/26 127/2/62 96/2/24
f 127/2/62 72/2/26 73/2/73
f 78/2/30 135/2/79 98/2/28
f 135/2/79 78/2/30 80/2/74
f 61/2/66 137/2/81 129/2/67
f 137/2/81 61/2/66 59/2/76
f 84/2/25 92/2/70 139/2/83
f 92/2/70 84/2/25 83/2/69
f 130/2/68 121/2/54 140/2/84
f 121/2/54 130/2/68 120/2/53
f 131/2/71 105/2/38 125/2/58
f 105/2/38 131/2/71 103/2/36
f 129/2/67 120/2/53 130/2/68
f 120/2/53 129/2/67 117/2/50

