# Created by Kenney (www.kenney.nl)

mtllib s-curve-short-left-c.mtl

g s-curve-short-left-c

v 0.1965898 0.25 0.3651851 1 1 1
v 0.3008821 0.25 0.5365987 1 1 1
v 0.03269572 0.3125 0.457407 1 1 1
v 0.5353043 0.3125 0.174593 1 1 1
v 0.6694641 0.3125 0.4102787 1 1 1
v 0.3714102 0.25 0.2668149 1 1 1
v 0.7289128 0.5 0.3899045 1 1 1
v 0.5899357 0.5 0.1438523 1 1 1
v 0.1225359 0.3125 0.5977213 1 1 1
v 0.8219516 0.5 0.6883216 1 1 1
v 0.7594602 0.3125 0.695407 1 1 1
v 0.06308722 0.5 0.6180955 1 1 1
v 0.1845398 0.3125 0.7605929 1 1 1
v 0.1220484 0.5 0.7676784 1 1 1
v 0.5719861 0.25 0.7166633 1 1 1
v 0.4911179 0.25 0.4714013 1 1 1
v -0.2125 0.3125 -1 1 1 1
v -0.15 0.5 -1 1 1 1
v -0.1220484 0.5 -0.7676784 1 1 1
v -0.5899357 0.5 -0.1438523 1 1 1
v -0.5353043 0.3125 -0.174593 1 1 1
v -0.3805414 0.3125 0.01744289 1 1 1
v -0.4911179 0.25 -0.4714013 1 1 1
v -0.6694641 0.3125 -0.4102787 1 1 1
v -0.7594602 0.3125 -0.695407 1 1 1
v -0.1350938 0.5 0.3582783 1 1 1
v -0.02193564 0.5 0.4881477 1 1 1
v -0.1225359 0.3125 -0.5977213 1 1 1
v -0.06308722 0.5 -0.6180955 1 1 1
v 0.02193564 0.5 -0.4881477 1 1 1
v -0.1845398 0.3125 -0.7605929 1 1 1
v -0.08454135 0.3125 0.3214429 1 1 1
v -0.03269572 0.3125 -0.457407 1 1 1
v -0.5719861 0.25 -0.7166633 1 1 1
v -0.7875 0.3125 -1 1 1 1
v 0.06711605 0.25 0.2109367 1 1 1
v -0.2254405 0.3125 0.1784176 1 1 1
v -0.85 0.5 -1 1 1 1
v -0.8219516 0.5 -0.6883216 1 1 1
v 0.3805414 0.3125 -0.01744289 1 1 1
v 0.2288839 0.25 0.09306334 1 1 1
v 0.07841409 0.25 -0.06205828 1 1 1
v -0.4310938 0.5 0.05427831 1 1 1
v 0.08454135 0.3125 -0.3214429 1 1 1
v 0.1350938 0.5 -0.3582783 1 1 1
v 0.2744493 0.5 -0.217204 1 1 1
v -0.1965898 0.25 -0.3651851 1 1 1
v -0.06711605 0.25 -0.2109367 1 1 1
v -0.2288839 0.25 -0.09306334 1 1 1
v 0.2254405 0.3125 -0.1784176 1 1 1
v -0.3008821 0.25 -0.5365987 1 1 1
v 0.4310938 0.5 -0.05427831 1 1 1
v -0.07841409 0.25 0.06205828 1 1 1
v -0.3714102 0.25 -0.2668149 1 1 1
v -0.2744493 0.5 0.217204 1 1 1
v -0.7289128 0.5 -0.3899045 1 1 1
v -0.3720138 0.25 -0.7393367 1 1 1
v 0.3720138 0.25 0.7393367 1 1 1
v 0.4 0.25 1 1 1 1
v 0.7875 0.3125 1 1 1 1
v 0.85 0.5 1 1 1 1
v -0.4 0.25 -1 1 1 1
v -0.6 0.25 -1 1 1 1
v 0.15 0.5 1 1 1 1
v 0.2125 0.3125 1 1 1 1
v 0.6 0.25 1 1 1 1
v -0.07958969 0 0.6669936 1 1 1
v -0.07958969 0.5 0.6669936 1 1 1
v -0.02793086 0 0.7846834 1 1 1
v -0.02793086 0.5 0.7846834 1 1 1
v 0 0.5 -1 1 1 1
v 0 0 -1 1 1 1
v 0.02793086 0.5 -0.7846834 1 1 1
v 0.02793086 0 -0.7846834 1 1 1
v -1 0 -1 1 1 1
v -1 0.5 -1 1 1 1
v -0.9719309 0 -0.6713166 1 1 1
v -0.9719309 0.5 -0.6713166 1 1 1
v 0.7210509 0.5 0.07007472 1 1 1
v 0.7210509 0 0.07007472 1 1 1
v 0.8715897 0.5 0.3410065 1 1 1
v 0.8715897 0 0.3410065 1 1 1
v 0.9719309 0.5 0.6713166 1 1 1
v 0.9719309 0 0.6713166 1 1 1
v 0.5524197 0.5 -0.1426833 1 1 1
v 0.5524197 0 -0.1426833 1 1 1
v -0.2564197 0 0.4466833 1 1 1
v -0.2564197 0.5 0.4466833 1 1 1
v -0.1530509 0 0.5619253 1 1 1
v -0.1530509 0.5 0.5619253 1 1 1
v -0.8715897 9.023893E-17 -0.3410065 1 1 1
v -0.8715897 0.5 -0.3410065 1 1 1
v 0.07958969 0.5 -0.6669936 1 1 1
v 0.07958969 9.023893E-17 -0.6669936 1 1 1
v -0.5524197 0 0.1426833 1 1 1
v -0.5524197 0.5 0.1426833 1 1 1
v -0.3920704 0 0.3102914 1 1 1
v -0.3920704 0.5 0.3102914 1 1 1
v 0.1530509 0.5 -0.5619253 1 1 1
v 0.1530509 0 -0.5619253 1 1 1
v 0.2564197 0.5 -0.4466833 1 1 1
v 0.2564197 0 -0.4466833 1 1 1
v 0.3920704 0.5 -0.3102914 1 1 1
v 0.3920704 0 -0.3102914 1 1 1
v -0.7210509 0 -0.07007472 1 1 1
v -0.7210509 0.5 -0.07007472 1 1 1
v 1 0.5 1 1 1 1
v 1 0 1 1 1 1
v 0 0 1 1 1 1
v 0 0.5 1 1 1 1

vn 0.1241442 0.9882907 -0.08871257
vn 0.1349059 0.9888219 -0.06349588
vn 0.5598924 0.7160169 -0.4169415
vn -0.5938146 0.6956376 0.4043174
vn -0.6608676 0.692816 0.2885485
vn -0.1383784 0.985656 0.09661025
vn -0.8705227 0.3177546 0.3757952
vn -0.7858546 0.3167318 0.5311434
vn 0.6186898 0.7211538 -0.3117051
vn -0.9300903 0.3179246 0.1840001
vn -0.7067457 0.6929179 0.1427426
vn 0.8436016 0.3122187 -0.4368704
vn 0.6685351 0.7251976 -0.1647706
vn 0.9196967 0.3144962 -0.2350532
vn -0.1672982 0.98524 0.03624297
vn -0.1557377 0.9852617 0.07074647
vn -0.6868794 0.7222212 0.08119868
vn -0.9425633 0.3141878 0.1134038
vn -0.9196967 0.3144962 0.2350532
vn 0.7858546 0.3167318 -0.5311434
vn 0.5938146 0.6956376 -0.4043174
vn 0.5358357 0.6999896 -0.4721172
vn 0.1557377 0.9852617 -0.07074647
vn 0.6608676 0.692816 -0.2885485
vn 0.7067457 0.6929179 -0.1427426
vn 0.6964113 0.3133765 -0.6456054
vn 0.7575036 0.3124401 -0.57321
vn -0.6186898 0.7211538 0.3117051
vn -0.8436016 0.3122187 0.4368704
vn -0.7575036 0.3124401 0.57321
vn -0.6685351 0.7251976 0.1647706
vn 0.5177449 0.7103857 -0.4767519
vn -0.5598924 0.7160169 0.4169415
vn 0.1672982 0.98524 -0.03624297
vn 0.7177052 0.6931382 -0.06677362
vn 0.1164709 0.9876047 -0.1052207
vn 0.5081928 0.7050111 -0.494671
vn 0.9447982 0.3160945 -0.08625966
vn 0.9300903 0.3179246 -0.1840001
vn -0.5358357 0.6999896 0.4721172
vn -0.1233062 0.986245 0.1100736
vn -0.1156275 0.9869093 0.1124283
vn 0.7132568 0.3155324 -0.6258626
vn -0.5177449 0.7103857 0.4767519
vn -0.6964113 0.3133765 0.6456054
vn -0.6801544 0.3144297 0.6622113
vn -0.1241442 0.9882907 0.08871257
vn -0.1164709 0.9876047 0.1052207
vn 0.1233062 0.986245 -0.1100736
vn -0.5081928 0.7050111 0.494671
vn -0.1349059 0.9888219 0.06349588
vn -0.7132568 0.3155324 0.6258626
vn 0.1156275 0.9869093 -0.1124283
vn 0.1383784 0.985656 -0.09661025
vn 0.6801544 0.3144297 -0.6622113
vn 0.8705227 0.3177546 -0.3757952
vn -0.1441982 0.9890212 0.03230752
vn 0.1441982 0.9890212 -0.03230752
vn 0.1487666 0.9887304 -0.01675713
vn -0.7177052 0.6931382 0.06677362
vn -0.9447982 0.3160945 0.08625966
vn -0.1487666 0.9887304 0.01675713
vn 0.1699179 0.9853151 -0.01679998
vn 0.9425633 0.3141878 -0.1134038
vn 0.6868794 0.7222212 -0.08119868
vn -0.1699179 0.9853151 0.01679998
vn -0.8718175 0 0.4898309
vn -0.9634209 0 0.2679929
vn 0.9916911 0 -0.1286421
vn 0.9634209 0 -0.2679929
vn -0.9963734 0 0.085089
vn -0.9819936 0 0.1889138
vn 0.8316721 0 -0.5552671
vn 0.9206559 0 -0.3903751
vn 0.9819936 0 -0.1889138
vn 0.7539518 0 -0.6569297
vn -0.7269636 0 0.686676
vn -0.7834139 0 0.6215002
vn -0.9206559 0 0.3903751
vn 0.8718175 0 -0.4898309
vn -0.7539518 0 0.6569297
vn -0.7158393 0 0.6982651
vn 0.7834139 0 -0.6215002
vn 0.7269636 0 -0.686676
vn 0.7158393 0 -0.6982651
vn -0.8316721 0 0.5552671
vn 0 0 1
vn -0.9916911 0 0.1286421
vn 0.9963734 0 -0.085089
vn 0 1 0
vn 0 -1 0
vn 0 0 -1

vt 0.28125 0.375
vt 0.90625 0.375

usemtl colormap

f 3/1/3 2/1/2 1/1/1
f 6/1/6 5/1/5 4/1/4
f 5/1/5 7/1/7 4/1/4
f 7/1/7 8/1/8 4/1/4
f 3/1/3 9/1/9 2/1/2
f 10/1/10 7/1/7 5/1/5
f 11/1/11 10/1/10 5/1/5
f 14/1/14 13/1/13 12/1/12
f 16/1/16 15/1/15 11/1/11
f 16/1/16 11/1/11 5/1/5
f 6/1/6 16/1/16 5/1/5
f 13/1/13 9/1/9 12/1/12
f 19/1/19 18/1/18 17/1/17
f 22/1/22 21/1/21 20/1/20
f 25/1/25 24/1/24 23/1/23
f 27/1/27 3/1/3 26/1/26
f 30/1/30 29/1/29 28/1/28
f 29/1/29 19/1/19 31/1/31
f 3/1/3 32/1/32 26/1/26
f 33/1/33 30/1/30 28/1/28
f 35/1/35 25/1/25 34/1/34
f 37/1/37 32/1/32 36/1/36
f 39/1/39 25/1/25 38/1/38
f 32/1/32 3/1/3 1/1/1
f 12/1/12 9/1/9 27/1/27
f 4/1/4 8/1/8 40/1/40
f 42/1/42 41/1/41 40/1/40
f 37/1/37 22/1/22 43/1/43
f 46/1/46 45/1/45 44/1/44
f 32/1/32 1/1/1 36/1/36
f 47/1/47 44/1/44 33/1/33
f 47/1/47 48/1/48 44/1/44
f 41/1/41 4/1/4 40/1/40
f 21/1/21 22/1/22 49/1/49
f 48/1/48 42/1/42 50/1/50
f 43/1/43 22/1/22 20/1/20
f 51/1/51 33/1/33 28/1/28
f 8/1/8 52/1/52 40/1/40
f 22/1/22 53/1/53 49/1/49
f 37/1/37 36/1/36 53/1/53
f 25/1/25 35/1/35 38/1/38
f 52/1/52 46/1/46 50/1/50
f 40/1/40 52/1/52 50/1/50
f 21/1/21 49/1/49 54/1/54
f 45/1/45 30/1/30 33/1/33
f 24/1/24 54/1/54 23/1/23
f 24/1/24 21/1/21 54/1/54
f 26/1/26 32/1/32 55/1/55
f 51/1/51 47/1/47 33/1/33
f 50/1/50 46/1/46 44/1/44
f 28/1/28 29/1/29 31/1/31
f 9/1/9 3/1/3 27/1/27
f 20/1/20 21/1/21 56/1/56
f 48/1/48 50/1/50 44/1/44
f 32/1/32 37/1/37 55/1/55
f 22/1/22 37/1/37 53/1/53
f 41/1/41 6/1/6 4/1/4
f 57/1/57 51/1/51 28/1/28
f 57/1/57 28/1/28 31/1/31
f 25/1/25 23/1/23 34/1/34
f 42/1/42 40/1/40 50/1/50
f 55/1/55 37/1/37 43/1/43
f 21/1/21 24/1/24 56/1/56
f 44/1/44 45/1/45 33/1/33
f 13/1/13 59/1/59 58/1/58
f 9/1/9 58/1/58 2/1/2
f 61/1/61 11/1/11 60/1/60
f 61/1/61 10/1/10 11/1/11
f 62/1/62 57/1/57 31/1/31
f 35/1/35 34/1/34 63/1/63
f 65/1/65 14/1/14 64/1/64
f 65/1/65 13/1/13 14/1/14
f 31/1/31 19/1/19 17/1/17
f 24/1/24 25/1/25 39/1/39
f 13/1/13 65/1/65 59/1/59
f 56/1/56 24/1/24 39/1/39
f 15/1/15 66/1/66 60/1/60
f 15/1/15 60/1/60 11/1/11
f 62/1/62 31/1/31 17/1/17
f 9/1/9 13/1/13 58/1/58
f 15/1/15 59/1/59 66/1/66
f 59/1/59 15/1/15 16/1/16
f 59/1/59 16/1/16 6/1/6
f 59/1/59 6/1/6 58/1/58
f 58/1/58 6/1/6 2/1/2
f 2/1/2 6/1/6 41/1/41
f 2/1/2 41/1/41 1/1/1
f 1/1/1 41/1/41 42/1/42
f 1/1/1 42/1/42 36/1/36
f 36/1/36 42/1/42 48/1/48
f 36/1/36 48/1/48 53/1/53
f 53/1/53 48/1/48 47/1/47
f 53/1/53 47/1/47 49/1/49
f 49/1/49 47/1/47 51/1/51
f 49/1/49 51/1/51 54/1/54
f 54/1/54 51/1/51 57/1/57
f 54/1/54 57/1/57 23/1/23
f 23/1/23 57/1/57 62/1/62
f 23/1/23 62/1/62 63/1/63
f 23/1/23 63/1/63 34/1/34
f 69/2/68 68/2/67 67/2/67
f 68/2/67 69/2/68 70/2/68
f 73/2/70 72/2/69 71/2/69
f 72/2/69 73/2/70 74/2/70
f 77/2/72 76/2/71 75/2/71
f 76/2/71 77/2/72 78/2/72
f 81/2/74 80/2/73 79/2/73
f 80/2/73 81/2/74 82/2/74
f 83/2/75 82/2/74 81/2/74
f 82/2/74 83/2/75 84/2/75
f 79/2/73 86/2/76 85/2/76
f 86/2/76 79/2/73 80/2/73
f 89/2/78 88/2/77 87/2/77
f 88/2/77 89/2/78 90/2/78
f 91/2/79 78/2/72 77/2/72
f 78/2/72 91/2/79 92/2/79
f 93/2/80 74/2/70 73/2/70
f 74/2/70 93/2/80 94/2/80
f 97/2/82 96/2/81 95/2/81
f 96/2/81 97/2/82 98/2/82
f 87/2/77 98/2/82 97/2/82
f 98/2/82 87/2/77 88/2/77
f 99/2/83 94/2/80 93/2/80
f 94/2/80 99/2/83 100/2/83
f 103/2/85 102/2/84 101/2/84
f 102/2/84 103/2/85 104/2/85
f 85/2/76 104/2/85 103/2/85
f 104/2/85 85/2/76 86/2/76
f 95/2/81 106/2/86 105/2/86
f 106/2/86 95/2/81 96/2/81
f 67/2/67 90/2/78 89/2/78
f 90/2/78 67/2/67 68/2/67
f 101/2/84 100/2/83 99/2/83
f 100/2/83 101/2/84 102/2/84
f 105/2/86 92/2/79 91/2/79
f 92/2/79 105/2/86 106/2/86
f 60/2/87 107/2/87 61/2/87
f 60/2/87 108/2/87 107/2/87
f 108/2/87 60/2/87 109/2/87
f 109/2/87 60/2/87 66/2/87
f 59/2/87 109/2/87 66/2/87
f 65/2/87 109/2/87 59/2/87
f 109/2/87 65/2/87 110/2/87
f 110/2/87 65/2/87 64/2/87
f 109/2/88 70/2/68 69/2/68
f 70/2/68 109/2/88 110/2/88
f 107/2/89 84/2/75 83/2/75
f 84/2/75 107/2/89 108/2/89
f 83/2/90 61/2/90 107/2/90
f 61/2/90 83/2/90 81/2/90
f 61/2/90 81/2/90 10/2/90
f 10/2/90 81/2/90 79/2/90
f 10/2/90 79/2/90 7/2/90
f 7/2/90 79/2/90 8/2/90
f 8/2/90 79/2/90 85/2/90
f 8/2/90 85/2/90 52/2/90
f 52/2/90 85/2/90 103/2/90
f 52/2/90 103/2/90 46/2/90
f 46/2/90 103/2/90 101/2/90
f 46/2/90 101/2/90 45/2/90
f 45/2/90 101/2/90 99/2/90
f 45/2/90 99/2/90 93/2/90
f 45/2/90 93/2/90 30/2/90
f 30/2/90 93/2/90 73/2/90
f 30/2/90 73/2/90 71/2/90
f 30/2/90 71/2/90 29/2/90
f 29/2/90 71/2/90 18/2/90
f 29/2/90 18/2/90 19/2/90
f 109/2/91 84/2/91 108/2/91
f 84/2/91 109/2/91 82/2/91
f 82/2/91 109/2/91 80/2/91
f 80/2/91 109/2/91 86/2/91
f 86/2/91 109/2/91 104/2/91
f 104/2/91 109/2/91 102/2/91
f 102/2/91 109/2/91 100/2/91
f 100/2/91 109/2/91 94/2/91
f 94/2/91 109/2/91 74/2/91
f 74/2/91 109/2/91 72/2/91
f 72/2/91 109/2/91 69/2/91
f 72/2/91 69/2/91 67/2/91
f 72/2/91 67/2/91 75/2/91
f 75/2/91 67/2/91 89/2/91
f 75/2/91 89/2/91 87/2/91
f 75/2/91 87/2/91 97/2/91
f 75/2/91 97/2/91 95/2/91
f 75/2/91 95/2/91 105/2/91
f 75/2/91 105/2/91 91/2/91
f 75/2/91 91/2/91 77/2/91
f 35/2/92 76/2/92 38/2/92
f 35/2/92 75/2/92 76/2/92
f 75/2/92 35/2/92 72/2/92
f 72/2/92 35/2/92 63/2/92
f 62/2/92 72/2/92 63/2/92
f 17/2/92 72/2/92 62/2/92
f 72/2/92 17/2/92 71/2/92
f 71/2/92 17/2/92 18/2/92
f 14/2/90 110/2/90 64/2/90
f 110/2/90 14/2/90 12/2/90
f 110/2/90 12/2/90 27/2/90
f 110/2/90 27/2/90 70/2/90
f 70/2/90 27/2/90 26/2/90
f 70/2/90 26/2/90 68/2/90
f 68/2/90 26/2/90 90/2/90
f 90/2/90 26/2/90 55/2/90
f 90/2/90 55/2/90 88/2/90
f 88/2/90 55/2/90 98/2/90
f 98/2/90 55/2/90 43/2/90
f 98/2/90 43/2/90 96/2/90
f 96/2/90 43/2/90 20/2/90
f 96/2/90 20/2/90 106/2/90
f 106/2/90 20/2/90 56/2/90
f 106/2/90 56/2/90 92/2/90
f 92/2/90 56/2/90 39/2/90
f 92/2/90 39/2/90 38/2/90
f 92/2/90 38/2/90 76/2/90
f 92/2/90 76/2/90 78/2/90

g s-curve-short-left-c




usemtl colormap

f 3/1/3 2/1/2 1/1/1
f 6/1/6 5/1/5 4/1/4
f 5/1/5 7/1/7 4/1/4
f 7/1/7 8/1/8 4/1/4
f 3/1/3 9/1/9 2/1/2
f 10/1/10 7/1/7 5/1/5
f 11/1/11 10/1/10 5/1/5
f 14/1/14 13/1/13 12/1/12
f 16/1/16 15/1/15 11/1/11
f 16/1/16 11/1/11 5/1/5
f 6/1/6 16/1/16 5/1/5
f 13/1/13 9/1/9 12/1/12
f 19/1/19 18/1/18 17/1/17
f 22/1/22 21/1/21 20/1/20
f 25/1/25 24/1/24 23/1/23
f 27/1/27 3/1/3 26/1/26
f 30/1/30 29/1/29 28/1/28
f 29/1/29 19/1/19 31/1/31
f 3/1/3 32/1/32 26/1/26
f 33/1/33 30/1/30 28/1/28
f 35/1/35 25/1/25 34/1/34
f 37/1/37 32/1/32 36/1/36
f 39/1/39 25/1/25 38/1/38
f 32/1/32 3/1/3 1/1/1
f 12/1/12 9/1/9 27/1/27
f 4/1/4 8/1/8 40/1/40
f 42/1/42 41/1/41 40/1/40
f 37/1/37 22/1/22 43/1/43
f 46/1/46 45/1/45 44/1/44
f 32/1/32 1/1/1 36/1/36
f 47/1/47 44/1/44 33/1/33
f 47/1/47 48/1/48 44/1/44
f 41/1/41 4/1/4 40/1/40
f 21/1/21 22/1/22 49/1/49
f 48/1/48 42/1/42 50/1/50
f 43/1/43 22/1/22 20/1/20
f 51/1/51 33/1/33 28/1/28
f 8/1/8 52/1/52 40/1/40
f 22/1/22 53/1/53 49/1/49
f 37/1/37 36/1/36 53/1/53
f 25/1/25 35/1/35 38/1/38
f 52/1/52 46/1/46 50/1/50
f 40/1/40 52/1/52 50/1/50
f 21/1/21 49/1/49 54/1/54
f 45/1/45 30/1/30 33/1/33
f 24/1/24 54/1/54 23/1/23
f 24/1/24 21/1/21 54/1/54
f 26/1/26 32/1/32 55/1/55
f 51/1/51 47/1/47 33/1/33
f 50/1/50 46/1/46 44/1/44
f 28/1/28 29/1/29 31/1/31
f 9/1/9 3/1/3 27/1/27
f 20/1/20 21/1/21 56/1/56
f 48/1/48 50/1/50 44/1/44
f 32/1/32 37/1/37 55/1/55
f 22/1/22 37/1/37 53/1/53
f 41/1/41 6/1/6 4/1/4
f 57/1/57 51/1/51 28/1/28
f 57/1/57 28/1/28 31/1/31
f 25/1/25 23/1/23 34/1/34
f 42/1/42 40/1/40 50/1/50
f 55/1/55 37/1/37 43/1/43
f 21/1/21 24/1/24 56/1/56
f 44/1/44 45/1/45 33/1/33
f 13/1/13 59/1/59 58/1/58
f 9/1/9 58/1/58 2/1/2
f 61/1/61 11/1/11 60/1/60
f 61/1/61 10/1/10 11/1/11
f 62/1/62 57/1/57 31/1/31
f 35/1/35 34/1/34 63/1/63
f 65/1/65 14/1/14 64/1/64
f 65/1/65 13/1/13 14/1/14
f 31/1/31 19/1/19 17/1/17
f 24/1/24 25/1/25 39/1/39
f 13/1/13 65/1/65 59/1/59
f 56/1/56 24/1/24 39/1/39
f 15/1/15 66/1/66 60/1/60
f 15/1/15 60/1/60 11/1/11
f 62/1/62 31/1/31 17/1/17
f 9/1/9 13/1/13 58/1/58
f 15/1/15 59/1/59 66/1/66
f 59/1/59 15/1/15 16/1/16
f 59/1/59 16/1/16 6/1/6
f 59/1/59 6/1/6 58/1/58
f 58/1/58 6/1/6 2/1/2
f 2/1/2 6/1/6 41/1/41
f 2/1/2 41/1/41 1/1/1
f 1/1/1 41/1/41 42/1/42
f 1/1/1 42/1/42 36/1/36
f 36/1/36 42/1/42 48/1/48
f 36/1/36 48/1/48 53/1/53
f 53/1/53 48/1/48 47/1/47
f 53/1/53 47/1/47 49/1/49
f 49/1/49 47/1/47 51/1/51
f 49/1/49 51/1/51 54/1/54
f 54/1/54 51/1/51 57/1/57
f 54/1/54 57/1/57 23/1/23
f 23/1/23 57/1/57 62/1/62
f 23/1/23 62/1/62 63/1/63
f 23/1/23 63/1/63 34/1/34
f 69/2/68 68/2/67 67/2/67
f 68/2/67 69/2/68 70/2/68
f 73/2/70 72/2/69 71/2/69
f 72/2/69 73/2/70 74/2/70
f 77/2/72 76/2/71 75/2/71
f 76/2/71 77/2/72 78/2/72
f 81/2/74 80/2/73 79/2/73
f 80/2/73 81/2/74 82/2/74
f 83/2/75 82/2/74 81/2/74
f 82/2/74 83/2/75 84/2/75
f 79/2/73 86/2/76 85/2/76
f 86/2/76 79/2/73 80/2/73
f 89/2/78 88/2/77 87/2/77
f 88/2/77 89/2/78 90/2/78
f 91/2/79 78/2/72 77/2/72
f 78/2/72 91/2/79 92/2/79
f 93/2/80 74/2/70 73/2/70
f 74/2/70 93/2/80 94/2/80
f 97/2/82 96/2/81 95/2/81
f 96/2/81 97/2/82 98/2/82
f 87/2/77 98/2/82 97/2/82
f 98/2/82 87/2/77 88/2/77
f 99/2/83 94/2/80 93/2/80
f 94/2/80 99/2/83 100/2/83
f 103/2/85 102/2/84 101/2/84
f 102/2/84 103/2/85 104/2/85
f 85/2/76 104/2/85 103/2/85
f 104/2/85 85/2/76 86/2/76
f 95/2/81 106/2/86 105/2/86
f 106/2/86 95/2/81 96/2/81
f 67/2/67 90/2/78 89/2/78
f 90/2/78 67/2/67 68/2/67
f 101/2/84 100/2/83 99/2/83
f 100/2/83 101/2/84 102/2/84
f 105/2/86 92/2/79 91/2/79
f 92/2/79 105/2/86 106/2/86
f 60/2/87 107/2/87 61/2/87
f 60/2/87 108/2/87 107/2/87
f 108/2/87 60/2/87 109/2/87
f 109/2/87 60/2/87 66/2/87
f 59/2/87 109/2/87 66/2/87
f 65/2/87 109/2/87 59/2/87
f 109/2/87 65/2/87 110/2/87
f 110/2/87 65/2/87 64/2/87
f 109/2/88 70/2/68 69/2/68
f 70/2/68 109/2/88 110/2/88
f 107/2/89 84/2/75 83/2/75
f 84/2/75 107/2/89 108/2/89
f 83/2/90 61/2/90 107/2/90
f 61/2/90 83/2/90 81/2/90
f 61/2/90 81/2/90 10/2/90
f 10/2/90 81/2/90 79/2/90
f 10/2/90 79/2/90 7/2/90
f 7/2/90 79/2/90 8/2/90
f 8/2/90 79/2/90 85/2/90
f 8/2/90 85/2/90 52/2/90
f 52/2/90 85/2/90 103/2/90
f 52/2/90 103/2/90 46/2/90
f 46/2/90 103/2/90 101/2/90
f 46/2/90 101/2/90 45/2/90
f 45/2/90 101/2/90 99/2/90
f 45/2/90 99/2/90 93/2/90
f 45/2/90 93/2/90 30/2/90
f 30/2/90 93/2/90 73/2/90
f 30/2/90 73/2/90 71/2/90
f 30/2/90 71/2/90 29/2/90
f 29/2/90 71/2/90 18/2/90
f 29/2/90 18/2/90 19/2/90
f 109/2/91 84/2/91 108/2/91
f 84/2/91 109/2/91 82/2/91
f 82/2/91 109/2/91 80/2/91
f 80/2/91 109/2/91 86/2/91
f 86/2/91 109/2/91 104/2/91
f 104/2/91 109/2/91 102/2/91
f 102/2/91 109/2/91 100/2/91
f 100/2/91 109/2/91 94/2/91
f 94/2/91 109/2/91 74/2/91
f 74/2/91 109/2/91 72/2/91
f 72/2/91 109/2/91 69/2/91
f 72/2/91 69/2/91 67/2/91
f 72/2/91 67/2/91 75/2/91
f 75/2/91 67/2/91 89/2/91
f 75/2/91 89/2/91 87/2/91
f 75/2/91 87/2/91 97/2/91
f 75/2/91 97/2/91 95/2/91
f 75/2/91 95/2/91 105/2/91
f 75/2/91 105/2/91 91/2/91
f 75/2/91 91/2/91 77/2/91
f 35/2/92 76/2/92 38/2/92
f 35/2/92 75/2/92 76/2/92
f 75/2/92 35/2/92 72/2/92
f 72/2/92 35/2/92 63/2/92
f 62/2/92 72/2/92 63/2/92
f 17/2/92 72/2/92 62/2/92
f 72/2/92 17/2/92 71/2/92
f 71/2/92 17/2/92 18/2/92
f 14/2/90 110/2/90 64/2/90
f 110/2/90 14/2/90 12/2/90
f 110/2/90 12/2/90 27/2/90
f 110/2/90 27/2/90 70/2/90
f 70/2/90 27/2/90 26/2/90
f 70/2/90 26/2/90 68/2/90
f 68/2/90 26/2/90 90/2/90
f 90/2/90 26/2/90 55/2/90
f 90/2/90 55/2/90 88/2/90
f 88/2/90 55/2/90 98/2/90
f 98/2/90 55/2/90 43/2/90
f 98/2/90 43/2/90 96/2/90
f 96/2/90 43/2/90 20/2/90
f 96/2/90 20/2/90 106/2/90
f 106/2/90 20/2/90 56/2/90
f 106/2/90 56/2/90 92/2/90
f 92/2/90 56/2/90 39/2/90
f 92/2/90 39/2/90 38/2/90
f 92/2/90 38/2/90 76/2/90
f 92/2/90 76/2/90 78/2/90

