# Created by Kenney (www.kenney.nl)

mtllib slant-solid-long-a.mtl

g slant-solid-long-a

v 0.5 0.5 -1 1 1 1
v 0.5 0.75 1 1 1 1
v 0.35 0.5 -1 1 1 1
v 0.35 0.75 1 1 1 1
v 0.5 0 1 1 1 1
v 0.5 0 -1 1 1 1
v -0.5 0 1 1 1 1
v -0.5 0 -1 1 1 1
v -0.35 0.5 -1 1 1 1
v -0.5 0.5 -1 1 1 1
v -0.2875 0.3125 -1 1 1 1
v -0.1 0.25 -1 1 1 1
v 0.1 0.25 -1 1 1 1
v 0.2875 0.3125 -1 1 1 1
v 0.2875 0.5625 1 1 1 1
v 0.1 0.5 1 1 1 1
v -0.1 0.5 1 1 1 1
v -0.2875 0.5625 1 1 1 1
v -0.5 0.75 1 1 1 1
v -0.35 0.75 1 1 1 1

vn 0 0.9922779 -0.1240347
vn 0 -1 0
vn 0 0 -1
vn 0 0 1
vn 1 0 0
vn -1 0 0
vn -0.1570264 0.9799681 -0.122496
vn -0.1609992 0.9793331 -0.1224166
vn 0.1570264 0.9799681 -0.122496
vn 0.1609992 0.9793331 -0.1224166
vn -0.6870494 0.7209998 -0.09012497
vn -0.7225413 0.6859893 -0.08574867
vn 0.6870494 0.7209998 -0.09012497
vn 0.7225413 0.6859893 -0.08574867
vn 0.947943 0.315981 -0.03949763
vn -0.947943 0.315981 -0.03949763

vt 0.90625 0.375
vt 0.28125 0.375

usemtl colormap

f 3/1/1 2/1/1 1/1/1
f 2/1/1 3/1/1 4/1/1
f 7/1/2 6/1/2 5/1/2
f 6/1/2 7/1/2 8/1/2
f 11/1/3 10/1/3 9/1/3
f 11/1/3 8/1/3 10/1/3
f 8/1/3 11/1/3 6/1/3
f 6/1/3 11/1/3 12/1/3
f 13/1/3 6/1/3 12/1/3
f 14/1/3 6/1/3 13/1/3
f 6/1/3 14/1/3 1/1/3
f 1/1/3 14/1/3 3/1/3
f 15/1/4 2/1/4 4/1/4
f 15/1/4 5/1/4 2/1/4
f 5/1/4 15/1/4 7/1/4
f 7/1/4 15/1/4 16/1/4
f 17/1/4 7/1/4 16/1/4
f 18/1/4 7/1/4 17/1/4
f 7/1/4 18/1/4 19/1/4
f 19/1/4 18/1/4 20/1/4
f 10/1/1 20/1/1 9/1/1
f 20/1/1 10/1/1 19/1/1
f 2/1/5 6/1/5 1/1/5
f 6/1/5 2/1/5 5/1/5
f 7/1/6 10/1/6 8/1/6
f 10/1/6 7/1/6 19/1/6
f 12/2/9 16/2/8 13/2/7
f 16/2/8 12/2/9 17/2/10
f 13/2/7 15/2/12 14/2/11
f 15/2/12 13/2/7 16/2/8
f 11/2/13 17/2/10 12/2/9
f 17/2/10 11/2/13 18/2/14
f 20/2/15 11/2/13 9/2/15
f 11/2/13 20/2/15 18/2/14
f 15/2/12 3/2/16 14/2/11
f 3/2/16 15/2/12 4/2/16

g slant-solid-long-a




usemtl colormap

f 3/1/1 2/1/1 1/1/1
f 2/1/1 3/1/1 4/1/1
f 7/1/2 6/1/2 5/1/2
f 6/1/2 7/1/2 8/1/2
f 11/1/3 10/1/3 9/1/3
f 11/1/3 8/1/3 10/1/3
f 8/1/3 11/1/3 6/1/3
f 6/1/3 11/1/3 12/1/3
f 13/1/3 6/1/3 12/1/3
f 14/1/3 6/1/3 13/1/3
f 6/1/3 14/1/3 1/1/3
f 1/1/3 14/1/3 3/1/3
f 15/1/4 2/1/4 4/1/4
f 15/1/4 5/1/4 2/1/4
f 5/1/4 15/1/4 7/1/4
f 7/1/4 15/1/4 16/1/4
f 17/1/4 7/1/4 16/1/4
f 18/1/4 7/1/4 17/1/4
f 7/1/4 18/1/4 19/1/4
f 19/1/4 18/1/4 20/1/4
f 10/1/1 20/1/1 9/1/1
f 20/1/1 10/1/1 19/1/1
f 2/1/5 6/1/5 1/1/5
f 6/1/5 2/1/5 5/1/5
f 7/1/6 10/1/6 8/1/6
f 10/1/6 7/1/6 19/1/6
f 12/2/9 16/2/8 13/2/7
f 16/2/8 12/2/9 17/2/10
f 13/2/7 15/2/12 14/2/11
f 15/2/12 13/2/7 16/2/8
f 11/2/13 17/2/10 12/2/9
f 17/2/10 11/2/13 18/2/14
f 20/2/15 11/2/13 9/2/15
f 11/2/13 20/2/15 18/2/14
f 15/2/12 3/2/16 14/2/11
f 3/2/16 15/2/12 4/2/16

