# Created by Kenney (www.kenney.nl)

mtllib slant-solid-long-b.mtl

g slant-solid-long-b

v 0.5 0.5 -1 1 1 1
v 0.5 0 -1 1 1 1
v 0.5 1 1 1 1 1
v 0.5 0 1 1 1 1
v -0.5 0 -1 1 1 1
v -0.5 0.5 -1 1 1 1
v -0.5 0 1 1 1 1
v -0.5 1 1 1 1 1
v -0.35 0.5 -1 1 1 1
v -0.2875 0.3125 -1 1 1 1
v -0.1 0.25 -1 1 1 1
v 0.1 0.25 -1 1 1 1
v 0.2875 0.3125 -1 1 1 1
v 0.35 0.5 -1 1 1 1
v 0.2875 0.8125 1 1 1 1
v 0.35 1 1 1 1 1
v 0.1 0.75 1 1 1 1
v -0.1 0.75 1 1 1 1
v -0.2875 0.8125 1 1 1 1
v -0.35 1 1 1 1 1

vn 1 0 0
vn -1 0 0
vn 0 0 -1
vn 0 0 1
vn 0 0.9701425 -0.2425356
vn 0 -1 0
vn -0.662863 0.7263851 -0.1815963
vn -0.7332633 0.6596433 -0.1649108
vn -0.1518442 0.9588931 -0.2397233
vn -0.1594608 0.9577289 -0.2394322
vn -0.9457324 0.3152441 -0.07881103
vn 0.1518442 0.9588931 -0.2397233
vn 0.1594608 0.9577289 -0.2394322
vn 0.662863 0.7263851 -0.1815963
vn 0.7332633 0.6596433 -0.1649108
vn 0.9457324 0.3152441 -0.07881103

vt 0.90625 0.375
vt 0.28125 0.375

usemtl colormap

f 3/1/1 2/1/1 1/1/1
f 2/1/1 3/1/1 4/1/1
f 7/1/2 6/1/2 5/1/2
f 6/1/2 7/1/2 8/1/2
f 10/1/3 6/1/3 9/1/3
f 10/1/3 5/1/3 6/1/3
f 5/1/3 10/1/3 2/1/3
f 2/1/3 10/1/3 11/1/3
f 12/1/3 2/1/3 11/1/3
f 13/1/3 2/1/3 12/1/3
f 2/1/3 13/1/3 1/1/3
f 1/1/3 13/1/3 14/1/3
f 3/1/4 7/1/4 4/1/4
f 7/1/4 3/1/4 15/1/4
f 15/1/4 3/1/4 16/1/4
f 7/1/4 15/1/4 17/1/4
f 18/1/4 7/1/4 17/1/4
f 19/1/4 7/1/4 18/1/4
f 7/1/4 19/1/4 8/1/4
f 8/1/4 19/1/4 20/1/4
f 14/1/5 3/1/5 1/1/5
f 3/1/5 14/1/5 16/1/5
f 7/1/6 2/1/6 4/1/6
f 2/1/6 7/1/6 5/1/6
f 6/1/5 20/1/5 9/1/5
f 20/1/5 6/1/5 8/1/5
f 12/2/9 15/2/8 13/2/7
f 15/2/8 12/2/9 17/2/10
f 15/2/8 14/2/11 13/2/7
f 14/2/11 15/2/8 16/2/11
f 10/2/14 18/2/13 11/2/12
f 18/2/13 10/2/14 19/2/15
f 20/2/16 10/2/14 9/2/16
f 10/2/14 20/2/16 19/2/15
f 11/2/12 17/2/10 12/2/9
f 17/2/10 11/2/12 18/2/13

g slant-solid-long-b




usemtl colormap

f 3/1/1 2/1/1 1/1/1
f 2/1/1 3/1/1 4/1/1
f 7/1/2 6/1/2 5/1/2
f 6/1/2 7/1/2 8/1/2
f 10/1/3 6/1/3 9/1/3
f 10/1/3 5/1/3 6/1/3
f 5/1/3 10/1/3 2/1/3
f 2/1/3 10/1/3 11/1/3
f 12/1/3 2/1/3 11/1/3
f 13/1/3 2/1/3 12/1/3
f 2/1/3 13/1/3 1/1/3
f 1/1/3 13/1/3 14/1/3
f 3/1/4 7/1/4 4/1/4
f 7/1/4 3/1/4 15/1/4
f 15/1/4 3/1/4 16/1/4
f 7/1/4 15/1/4 17/1/4
f 18/1/4 7/1/4 17/1/4
f 19/1/4 7/1/4 18/1/4
f 7/1/4 19/1/4 8/1/4
f 8/1/4 19/1/4 20/1/4
f 14/1/5 3/1/5 1/1/5
f 3/1/5 14/1/5 16/1/5
f 7/1/6 2/1/6 4/1/6
f 2/1/6 7/1/6 5/1/6
f 6/1/5 20/1/5 9/1/5
f 20/1/5 6/1/5 8/1/5
f 12/2/9 15/2/8 13/2/7
f 15/2/8 12/2/9 17/2/10
f 15/2/8 14/2/11 13/2/7
f 14/2/11 15/2/8 16/2/11
f 10/2/14 18/2/13 11/2/12
f 18/2/13 10/2/14 19/2/15
f 20/2/16 10/2/14 9/2/16
f 10/2/14 20/2/16 19/2/15
f 11/2/12 17/2/10 12/2/9
f 17/2/10 11/2/12 18/2/13

