# Created by Kenney (www.kenney.nl)

mtllib slant-long-a.mtl

g slant-long-a

v 0.5 0.25 1 1 1 1
v 0.5 0 -1 1 1 1
v -0.5 0.25 1 1 1 1
v -0.5 0 -1 1 1 1
v 0.5 0.5 -1 1 1 1
v 0.5 0.75 1 1 1 1
v 0.35 0.5 -1 1 1 1
v 0.35 0.75 1 1 1 1
v 0.2875 0.5625 1 1 1 1
v 0.1 0.5 1 1 1 1
v -0.1 0.5 1 1 1 1
v -0.2875 0.5625 1 1 1 1
v -0.5 0.75 1 1 1 1
v -0.35 0.75 1 1 1 1
v -0.35 0.5 -1 1 1 1
v -0.5 0.5 -1 1 1 1
v -0.2875 0.3125 -1 1 1 1
v -0.1 0.25 -1 1 1 1
v 0.1 0.25 -1 1 1 1
v 0.2875 0.3125 -1 1 1 1

vn 0 -0.9922779 0.1240347
vn 0 0.9922779 -0.1240347
vn 0 0 1
vn 0 0 -1
vn -1 0 0
vn 1 0 0
vn -0.6870494 0.7209998 -0.09012497
vn -0.7225413 0.6859893 -0.08574867
vn -0.1570264 0.9799681 -0.122496
vn -0.1609992 0.9793331 -0.1224166
vn 0.1570264 0.9799681 -0.122496
vn 0.1609992 0.9793331 -0.1224166
vn 0.6870494 0.7209998 -0.09012497
vn 0.7225413 0.6859893 -0.08574867
vn 0.947943 0.315981 -0.03949763
vn -0.947943 0.315981 -0.03949763

vt 0.90625 0.375
vt 0.28125 0.375

usemtl colormap

f 3/1/1 2/1/1 1/1/1
f 2/1/1 3/1/1 4/1/1
f 7/1/2 6/1/2 5/1/2
f 6/1/2 7/1/2 8/1/2
f 9/1/3 6/1/3 8/1/3
f 9/1/3 1/1/3 6/1/3
f 1/1/3 9/1/3 3/1/3
f 3/1/3 9/1/3 10/1/3
f 11/1/3 3/1/3 10/1/3
f 12/1/3 3/1/3 11/1/3
f 3/1/3 12/1/3 13/1/3
f 13/1/3 12/1/3 14/1/3
f 17/1/4 16/1/4 15/1/4
f 17/1/4 4/1/4 16/1/4
f 4/1/4 17/1/4 2/1/4
f 2/1/4 17/1/4 18/1/4
f 19/1/4 2/1/4 18/1/4
f 20/1/4 2/1/4 19/1/4
f 2/1/4 20/1/4 5/1/4
f 5/1/4 20/1/4 7/1/4
f 3/1/5 16/1/5 4/1/5
f 16/1/5 3/1/5 13/1/5
f 6/1/6 2/1/6 5/1/6
f 2/1/6 6/1/6 1/1/6
f 16/1/2 14/1/2 15/1/2
f 14/1/2 16/1/2 13/1/2
f 19/2/9 9/2/8 20/2/7
f 9/2/8 19/2/9 10/2/10
f 17/2/13 11/2/12 18/2/11
f 11/2/12 17/2/13 12/2/14
f 18/2/11 10/2/10 19/2/9
f 10/2/10 18/2/11 11/2/12
f 14/2/15 17/2/13 15/2/15
f 17/2/13 14/2/15 12/2/14
f 9/2/8 7/2/16 20/2/7
f 7/2/16 9/2/8 8/2/16

g slant-long-a




usemtl colormap

f 3/1/1 2/1/1 1/1/1
f 2/1/1 3/1/1 4/1/1
f 7/1/2 6/1/2 5/1/2
f 6/1/2 7/1/2 8/1/2
f 9/1/3 6/1/3 8/1/3
f 9/1/3 1/1/3 6/1/3
f 1/1/3 9/1/3 3/1/3
f 3/1/3 9/1/3 10/1/3
f 11/1/3 3/1/3 10/1/3
f 12/1/3 3/1/3 11/1/3
f 3/1/3 12/1/3 13/1/3
f 13/1/3 12/1/3 14/1/3
f 17/1/4 16/1/4 15/1/4
f 17/1/4 4/1/4 16/1/4
f 4/1/4 17/1/4 2/1/4
f 2/1/4 17/1/4 18/1/4
f 19/1/4 2/1/4 18/1/4
f 20/1/4 2/1/4 19/1/4
f 2/1/4 20/1/4 5/1/4
f 5/1/4 20/1/4 7/1/4
f 3/1/5 16/1/5 4/1/5
f 16/1/5 3/1/5 13/1/5
f 6/1/6 2/1/6 5/1/6
f 2/1/6 6/1/6 1/1/6
f 16/1/2 14/1/2 15/1/2
f 14/1/2 16/1/2 13/1/2
f 19/2/9 9/2/8 20/2/7
f 9/2/8 19/2/9 10/2/10
f 17/2/13 11/2/12 18/2/11
f 11/2/12 17/2/13 12/2/14
f 18/2/11 10/2/10 19/2/9
f 10/2/10 18/2/11 11/2/12
f 14/2/15 17/2/13 15/2/15
f 17/2/13 14/2/15 12/2/14
f 9/2/8 7/2/16 20/2/7
f 7/2/16 9/2/8 8/2/16

