# Created by Kenney (www.kenney.nl)

mtllib slant-c.mtl

g slant-c

v 0.5 0 -0.5 1 1 1
v -0.5 0 -0.5 1 1 1
v 0.5 1 0.5 1 1 1
v -0.5 1 0.5 1 1 1
v -0.1 1.25 0.5 1 1 1
v 0.1 0.25 -0.5 1 1 1
v -0.1 0.25 -0.5 1 1 1
v 0.1 1.25 0.5 1 1 1
v -0.5 0.5 -0.5 1 1 1
v -0.5 1.5 0.5 1 1 1
v -0.35 1.5 0.5 1 1 1
v -0.2875 0.3125 -0.5 1 1 1
v -0.35 0.5 -0.5 1 1 1
v -0.2875 1.3125 0.5 1 1 1
v 0.35 1.5 0.5 1 1 1
v 0.5 1.5 0.5 1 1 1
v 0.2875 1.3125 0.5 1 1 1
v 0.2875 0.3125 -0.5 1 1 1
v 0.35 0.5 -0.5 1 1 1
v 0.5 0.5 -0.5 1 1 1

vn 0 -0.7071068 0.7071068
vn 0 0.7071068 -0.7071068
vn -0.1232111 -0.7017189 0.7017189
vn 0.1065456 -0.7030818 0.7030818
vn -0.1065456 -0.7030818 0.7030818
vn 0.1232111 -0.7017189 0.7017189
vn -1 0 0
vn 1 0 0
vn -0.904534 -0.3015113 0.3015113
vn -0.4851899 -0.6183004 0.6183004
vn -0.7223014 -0.4890198 0.4890198
vn 0 0 1
vn 0 0 -1
vn 0.4851899 -0.6183004 0.6183004
vn 0.7223014 -0.4890198 0.4890198
vn 0.904534 -0.3015113 0.3015113
vn 0.1065456 0.7030818 -0.7030818
vn -0.1065456 0.7030818 -0.7030818
vn 0.1232111 0.7017189 -0.7017189
vn -0.1232111 0.7017189 -0.7017189
vn 0.904534 0.3015113 -0.3015113
vn 0.4851899 0.6183004 -0.6183004
vn 0.7223014 0.4890198 -0.4890198
vn -0.4851899 0.6183004 -0.6183004
vn -0.7223014 0.4890198 -0.4890198
vn -0.904534 0.3015113 -0.3015113

vt 0.90625 0.375
vt 0.28125 0.375

usemtl colormap

f 3/1/1 2/1/1 1/1/1
f 2/1/1 3/1/1 4/1/1
f 1/1/2 2/1/2 3/1/2
f 4/1/2 3/1/2 2/1/2
f 7/1/5 6/1/4 5/1/3
f 8/1/6 5/1/3 6/1/4
f 4/1/7 9/1/7 2/1/7
f 9/1/7 4/1/7 10/1/7
f 2/1/8 9/1/8 4/1/8
f 10/1/8 4/1/8 9/1/8
f 13/1/9 12/1/10 11/1/9
f 14/1/11 11/1/9 12/1/10
f 17/1/12 16/1/12 15/1/12
f 17/1/12 3/1/12 16/1/12
f 3/1/12 17/1/12 4/1/12
f 4/1/12 17/1/12 8/1/12
f 5/1/12 4/1/12 8/1/12
f 14/1/12 4/1/12 5/1/12
f 4/1/12 14/1/12 10/1/12
f 10/1/12 14/1/12 11/1/12
f 15/1/13 16/1/13 17/1/13
f 16/1/13 3/1/13 17/1/13
f 4/1/13 17/1/13 3/1/13
f 8/1/13 17/1/13 4/1/13
f 8/1/13 4/1/13 5/1/13
f 5/1/13 4/1/13 14/1/13
f 10/1/13 14/1/13 4/1/13
f 11/1/13 14/1/13 10/1/13
f 6/1/4 18/1/14 8/1/6
f 17/1/15 8/1/6 18/1/14
f 7/1/5 5/1/3 12/1/10
f 14/1/11 12/1/10 5/1/3
f 15/1/2 20/1/2 19/1/2
f 20/1/2 15/1/2 16/1/2
f 19/1/1 20/1/1 15/1/1
f 16/1/1 15/1/1 20/1/1
f 10/1/2 13/1/2 9/1/2
f 13/1/2 10/1/2 11/1/2
f 9/1/1 13/1/1 10/1/1
f 11/1/1 10/1/1 13/1/1
f 16/1/8 1/1/8 20/1/8
f 1/1/8 16/1/8 3/1/8
f 20/1/7 1/1/7 16/1/7
f 3/1/7 16/1/7 1/1/7
f 18/1/14 19/1/16 17/1/15
f 15/1/16 17/1/15 19/1/16
f 12/1/13 9/1/13 13/1/13
f 12/1/13 2/1/13 9/1/13
f 2/1/13 12/1/13 1/1/13
f 1/1/13 12/1/13 7/1/13
f 6/1/13 1/1/13 7/1/13
f 18/1/13 1/1/13 6/1/13
f 1/1/13 18/1/13 20/1/13
f 20/1/13 18/1/13 19/1/13
f 13/1/12 9/1/12 12/1/12
f 9/1/12 2/1/12 12/1/12
f 1/1/12 12/1/12 2/1/12
f 7/1/12 12/1/12 1/1/12
f 7/1/12 1/1/12 6/1/12
f 6/1/12 1/1/12 18/1/12
f 20/1/12 18/1/12 1/1/12
f 19/1/12 18/1/12 20/1/12
f 5/2/19 6/2/18 7/2/17
f 6/2/18 5/2/19 8/2/20
f 11/2/21 12/2/22 13/2/21
f 12/2/22 11/2/21 14/2/23
f 8/2/20 18/2/24 6/2/18
f 18/2/24 8/2/20 17/2/25
f 12/2/22 5/2/19 7/2/17
f 5/2/19 12/2/22 14/2/23
f 17/2/25 19/2/26 18/2/24
f 19/2/26 17/2/25 15/2/26

g slant-c




usemtl colormap

f 3/1/1 2/1/1 1/1/1
f 2/1/1 3/1/1 4/1/1
f 1/1/2 2/1/2 3/1/2
f 4/1/2 3/1/2 2/1/2
f 7/1/5 6/1/4 5/1/3
f 8/1/6 5/1/3 6/1/4
f 4/1/7 9/1/7 2/1/7
f 9/1/7 4/1/7 10/1/7
f 2/1/8 9/1/8 4/1/8
f 10/1/8 4/1/8 9/1/8
f 13/1/9 12/1/10 11/1/9
f 14/1/11 11/1/9 12/1/10
f 17/1/12 16/1/12 15/1/12
f 17/1/12 3/1/12 16/1/12
f 3/1/12 17/1/12 4/1/12
f 4/1/12 17/1/12 8/1/12
f 5/1/12 4/1/12 8/1/12
f 14/1/12 4/1/12 5/1/12
f 4/1/12 14/1/12 10/1/12
f 10/1/12 14/1/12 11/1/12
f 15/1/13 16/1/13 17/1/13
f 16/1/13 3/1/13 17/1/13
f 4/1/13 17/1/13 3/1/13
f 8/1/13 17/1/13 4/1/13
f 8/1/13 4/1/13 5/1/13
f 5/1/13 4/1/13 14/1/13
f 10/1/13 14/1/13 4/1/13
f 11/1/13 14/1/13 10/1/13
f 6/1/4 18/1/14 8/1/6
f 17/1/15 8/1/6 18/1/14
f 7/1/5 5/1/3 12/1/10
f 14/1/11 12/1/10 5/1/3
f 15/1/2 20/1/2 19/1/2
f 20/1/2 15/1/2 16/1/2
f 19/1/1 20/1/1 15/1/1
f 16/1/1 15/1/1 20/1/1
f 10/1/2 13/1/2 9/1/2
f 13/1/2 10/1/2 11/1/2
f 9/1/1 13/1/1 10/1/1
f 11/1/1 10/1/1 13/1/1
f 16/1/8 1/1/8 20/1/8
f 1/1/8 16/1/8 3/1/8
f 20/1/7 1/1/7 16/1/7
f 3/1/7 16/1/7 1/1/7
f 18/1/14 19/1/16 17/1/15
f 15/1/16 17/1/15 19/1/16
f 12/1/13 9/1/13 13/1/13
f 12/1/13 2/1/13 9/1/13
f 2/1/13 12/1/13 1/1/13
f 1/1/13 12/1/13 7/1/13
f 6/1/13 1/1/13 7/1/13
f 18/1/13 1/1/13 6/1/13
f 1/1/13 18/1/13 20/1/13
f 20/1/13 18/1/13 19/1/13
f 13/1/12 9/1/12 12/1/12
f 9/1/12 2/1/12 12/1/12
f 1/1/12 12/1/12 2/1/12
f 7/1/12 12/1/12 1/1/12
f 7/1/12 1/1/12 6/1/12
f 6/1/12 1/1/12 18/1/12
f 20/1/12 18/1/12 1/1/12
f 19/1/12 18/1/12 20/1/12
f 5/2/19 6/2/18 7/2/17
f 6/2/18 5/2/19 8/2/20
f 11/2/21 12/2/22 13/2/21
f 12/2/22 11/2/21 14/2/23
f 8/2/20 18/2/24 6/2/18
f 18/2/24 8/2/20 17/2/25
f 12/2/22 5/2/19 7/2/17
f 5/2/19 12/2/22 14/2/23
f 17/2/25 19/2/26 18/2/24
f 19/2/26 17/2/25 15/2/26

