# Created by Kenney (www.kenney.nl)

mtllib slant-solid-long-c.mtl

g slant-solid-long-c

v -0.5 9.023893E-17 -1 1 1 1
v -0.5 0.5 -1 1 1 1
v -0.5 0 1 1 1 1
v -0.5 1.5 1 1 1 1
v 0.5 0 1 1 1 1
v 0.5 1.5 1 1 1 1
v 0.2875 1.3125 1 1 1 1
v 0.35 1.5 1 1 1 1
v 0.1 1.25 1 1 1 1
v -0.1 1.25 1 1 1 1
v -0.2875 1.3125 1 1 1 1
v -0.35 1.5 1 1 1 1
v -0.35 0.5 -1 1 1 1
v -0.2875 0.3125 -1 1 1 1
v 0.5 9.023893E-17 -1 1 1 1
v -0.1 0.25 -1 1 1 1
v 0.1 0.25 -1 1 1 1
v 0.2875 0.3125 -1 1 1 1
v 0.5 0.5 -1 1 1 1
v 0.35 0.5 -1 1 1 1

vn -1 0 0
vn 0 0 1
vn 0 0 -1
vn 0 0.8944272 -0.4472136
vn 1 0 0
vn 0 -1 0
vn 0.1375371 0.8859271 -0.4429635
vn 0.1506056 0.8842252 -0.4421126
vn 0.6057476 0.7116572 -0.3558286
vn 0.7418048 0.599817 -0.2999085
vn -0.6057476 0.7116572 -0.3558286
vn -0.7418048 0.599817 -0.2999085
vn -0.1375371 0.8859271 -0.4429635
vn -0.1506056 0.8842252 -0.4421126
vn 0.9370427 0.3123475 -0.1561738
vn -0.9370427 0.3123475 -0.1561738

vt 0.90625 0.375
vt 0.28125 0.375

usemtl colormap

f 3/1/1 2/1/1 1/1/1
f 2/1/1 3/1/1 4/1/1
f 6/1/2 3/1/2 5/1/2
f 3/1/2 6/1/2 7/1/2
f 7/1/2 6/1/2 8/1/2
f 3/1/2 7/1/2 9/1/2
f 10/1/2 3/1/2 9/1/2
f 11/1/2 3/1/2 10/1/2
f 3/1/2 11/1/2 4/1/2
f 4/1/2 11/1/2 12/1/2
f 14/1/3 2/1/3 13/1/3
f 14/1/3 1/1/3 2/1/3
f 1/1/3 14/1/3 15/1/3
f 15/1/3 14/1/3 16/1/3
f 17/1/3 15/1/3 16/1/3
f 18/1/3 15/1/3 17/1/3
f 15/1/3 18/1/3 19/1/3
f 19/1/3 18/1/3 20/1/3
f 20/1/4 6/1/4 19/1/4
f 6/1/4 20/1/4 8/1/4
f 6/1/5 15/1/5 19/1/5
f 15/1/5 6/1/5 5/1/5
f 3/1/6 15/1/6 5/1/6
f 15/1/6 3/1/6 1/1/6
f 2/1/4 12/1/4 13/1/4
f 12/1/4 2/1/4 4/1/4
f 14/2/9 10/2/8 16/2/7
f 10/2/8 14/2/9 11/2/10
f 17/2/13 7/2/12 18/2/11
f 7/2/12 17/2/13 9/2/14
f 12/2/15 14/2/9 13/2/15
f 14/2/9 12/2/15 11/2/10
f 7/2/12 20/2/16 18/2/11
f 20/2/16 7/2/12 8/2/16
f 16/2/7 9/2/14 17/2/13
f 9/2/14 16/2/7 10/2/8

g slant-solid-long-c




usemtl colormap

f 3/1/1 2/1/1 1/1/1
f 2/1/1 3/1/1 4/1/1
f 6/1/2 3/1/2 5/1/2
f 3/1/2 6/1/2 7/1/2
f 7/1/2 6/1/2 8/1/2
f 3/1/2 7/1/2 9/1/2
f 10/1/2 3/1/2 9/1/2
f 11/1/2 3/1/2 10/1/2
f 3/1/2 11/1/2 4/1/2
f 4/1/2 11/1/2 12/1/2
f 14/1/3 2/1/3 13/1/3
f 14/1/3 1/1/3 2/1/3
f 1/1/3 14/1/3 15/1/3
f 15/1/3 14/1/3 16/1/3
f 17/1/3 15/1/3 16/1/3
f 18/1/3 15/1/3 17/1/3
f 15/1/3 18/1/3 19/1/3
f 19/1/3 18/1/3 20/1/3
f 20/1/4 6/1/4 19/1/4
f 6/1/4 20/1/4 8/1/4
f 6/1/5 15/1/5 19/1/5
f 15/1/5 6/1/5 5/1/5
f 3/1/6 15/1/6 5/1/6
f 15/1/6 3/1/6 1/1/6
f 2/1/4 12/1/4 13/1/4
f 12/1/4 2/1/4 4/1/4
f 14/2/9 10/2/8 16/2/7
f 10/2/8 14/2/9 11/2/10
f 17/2/13 7/2/12 18/2/11
f 7/2/12 17/2/13 9/2/14
f 12/2/15 14/2/9 13/2/15
f 14/2/9 12/2/15 11/2/10
f 7/2/12 20/2/16 18/2/11
f 20/2/16 7/2/12 8/2/16
f 16/2/7 9/2/14 17/2/13
f 9/2/14 16/2/7 10/2/8

