# Created by Kenney (www.kenney.nl)

mtllib slant-long-b.mtl

g slant-long-b

v 0.5 0.5 -1 1 1 1
v 0.5 0 -1 1 1 1
v 0.5 1 1 1 1 1
v 0.5 0.5 1 1 1 1
v -0.35 0.5 -1 1 1 1
v -0.35 1 1 1 1 1
v -0.5 0.5 -1 1 1 1
v -0.5 1 1 1 1 1
v -0.5 0 -1 1 1 1
v -0.5 0.5 1 1 1 1
v 0.35 0.5 -1 1 1 1
v 0.35 1 1 1 1 1
v -0.2875 0.3125 -1 1 1 1
v -0.1 0.25 -1 1 1 1
v 0.1 0.25 -1 1 1 1
v 0.2875 0.3125 -1 1 1 1
v 0.2875 0.8125 1 1 1 1
v 0.1 0.75 1 1 1 1
v -0.1 0.75 1 1 1 1
v -0.2875 0.8125 1 1 1 1

vn 1 0 0
vn 0 0.9701425 -0.2425356
vn -1 0 0
vn 0 0 -1
vn 0 -0.9701425 0.2425356
vn 0 0 1
vn -0.662863 0.7263851 -0.1815963
vn -0.7332633 0.6596433 -0.1649108
vn -0.1518442 0.9588931 -0.2397233
vn -0.1594608 0.9577289 -0.2394322
vn -0.9457324 0.3152441 -0.07881103
vn 0.1518442 0.9588931 -0.2397233
vn 0.1594608 0.9577289 -0.2394322
vn 0.9457324 0.3152441 -0.07881103
vn 0.662863 0.7263851 -0.1815963
vn 0.7332633 0.6596433 -0.1649108

vt 0.90625 0.375
vt 0.28125 0.375

usemtl colormap

f 3/1/1 2/1/1 1/1/1
f 2/1/1 3/1/1 4/1/1
f 7/1/2 6/1/2 5/1/2
f 6/1/2 7/1/2 8/1/2
f 10/1/3 7/1/3 9/1/3
f 7/1/3 10/1/3 8/1/3
f 11/1/2 3/1/2 1/1/2
f 3/1/2 11/1/2 12/1/2
f 13/1/4 7/1/4 5/1/4
f 13/1/4 9/1/4 7/1/4
f 9/1/4 13/1/4 2/1/4
f 2/1/4 13/1/4 14/1/4
f 15/1/4 2/1/4 14/1/4
f 16/1/4 2/1/4 15/1/4
f 2/1/4 16/1/4 1/1/4
f 1/1/4 16/1/4 11/1/4
f 10/1/5 2/1/5 4/1/5
f 2/1/5 10/1/5 9/1/5
f 17/1/6 3/1/6 12/1/6
f 17/1/6 4/1/6 3/1/6
f 4/1/6 17/1/6 10/1/6
f 10/1/6 17/1/6 18/1/6
f 19/1/6 10/1/6 18/1/6
f 20/1/6 10/1/6 19/1/6
f 10/1/6 20/1/6 8/1/6
f 8/1/6 20/1/6 6/1/6
f 15/2/9 17/2/8 16/2/7
f 17/2/8 15/2/9 18/2/10
f 17/2/8 11/2/11 16/2/7
f 11/2/11 17/2/8 12/2/11
f 14/2/12 18/2/10 15/2/9
f 18/2/10 14/2/12 19/2/13
f 6/2/14 13/2/15 5/2/14
f 13/2/15 6/2/14 20/2/16
f 13/2/15 19/2/13 14/2/12
f 19/2/13 13/2/15 20/2/16

g slant-long-b




usemtl colormap

f 3/1/1 2/1/1 1/1/1
f 2/1/1 3/1/1 4/1/1
f 7/1/2 6/1/2 5/1/2
f 6/1/2 7/1/2 8/1/2
f 10/1/3 7/1/3 9/1/3
f 7/1/3 10/1/3 8/1/3
f 11/1/2 3/1/2 1/1/2
f 3/1/2 11/1/2 12/1/2
f 13/1/4 7/1/4 5/1/4
f 13/1/4 9/1/4 7/1/4
f 9/1/4 13/1/4 2/1/4
f 2/1/4 13/1/4 14/1/4
f 15/1/4 2/1/4 14/1/4
f 16/1/4 2/1/4 15/1/4
f 2/1/4 16/1/4 1/1/4
f 1/1/4 16/1/4 11/1/4
f 10/1/5 2/1/5 4/1/5
f 2/1/5 10/1/5 9/1/5
f 17/1/6 3/1/6 12/1/6
f 17/1/6 4/1/6 3/1/6
f 4/1/6 17/1/6 10/1/6
f 10/1/6 17/1/6 18/1/6
f 19/1/6 10/1/6 18/1/6
f 20/1/6 10/1/6 19/1/6
f 10/1/6 20/1/6 8/1/6
f 8/1/6 20/1/6 6/1/6
f 15/2/9 17/2/8 16/2/7
f 17/2/8 15/2/9 18/2/10
f 17/2/8 11/2/11 16/2/7
f 11/2/11 17/2/8 12/2/11
f 14/2/12 18/2/10 15/2/9
f 18/2/10 14/2/12 19/2/13
f 6/2/14 13/2/15 5/2/14
f 13/2/15 6/2/14 20/2/16
f 13/2/15 19/2/13 14/2/12
f 19/2/13 13/2/15 20/2/16

