# Created by Kenney (www.kenney.nl)

mtllib split-large-right.mtl

g split-large-right

v 0.999761 0.5 -0.1702869 1 1 1
v 0.999761 2.404448E-31 -0.1702869 1 1 1
v 1.196391 0.5 0.1702869 1 1 1
v 1.196391 1.602965E-31 0.1702869 1 1 1
v 1.5 3.205931E-31 -0.5 1 1 1
v 0.7426407 3.205931E-31 -0.5 1 1 1
v 1.5 0.5 -0.5 1 1 1
v 0.7426407 0.5 -0.5 1 1 1
v -0.1784789 2.404448E-31 -0.006906016 1 1 1
v -0.1784789 0.5 -0.006906016 1 1 1
v 0.006906016 2.404448E-31 0.1784789 1 1 1
v 0.006906016 0.5 0.1784789 1 1 1
v 1.5 0.5 -0.65 1 1 1
v 0.3797024 0.5 -0.65 1 1 1
v 0.3831676 0.5 -0.6473411 1 1 1
v 0.6473411 0.5 -0.3831676 1 1 1
v 0.760359 0.5 -0.4822817 1 1 1
v 0.874773 0.5 -0.08677257 1 1 1
v 1.061572 0.5 0.2367726 1 1 1
v 1.204541 0.5 0.5819319 1 1 1
v 1.301236 0.5 0.9427995 1 1 1
v 1.346886 0.5 0.5336125 1 1 1
v 1.35 0.5 1.313201 1 1 1
v 1.448669 0.5 0.9134732 1 1 1
v 1.35 0.5 1.5 1 1 1
v 1.5 0.5 1.5 1 1 1
v 1.5 0.5 1.30337 1 1 1
v 1.5 0.5 -1.5 1 1 1
v 1.5 3.205931E-31 -1.5 1 1 1
v 1.5 0.5 -1.35 1 1 1
v 1.5 0.3125 -1.2875 1 1 1
v 1.5 0.25 -1.1 1 1 1
v 1.5 0.25 -0.9 1 1 1
v 1.5 0.3125 -0.7125 1 1 1
v -0.8557417 3.205931E-31 -0.3979239 1 1 1
v -1.108982 3.205931E-31 -0.4657795 1 1 1
v -0.8557417 0.5 -0.3979239 1 1 1
v -1.108982 0.5 -0.4657795 1 1 1
v -0.6135246 3.205931E-31 -0.2975942 1 1 1
v -0.6135246 0.5 -0.2975942 1 1 1
v -1.368913 4.007414E-31 -0.5 1 1 1
v -1.368913 0.5 -0.5 1 1 1
v -1.5 0.5 -1.35 1 1 1
v -1.5 0.3125 -1.2875 1 1 1
v -1.5 0.5 -1.5 1 1 1
v -1.5 3.205931E-31 -1.5 1 1 1
v -1.5 3.205931E-31 -0.5 1 1 1
v -1.5 0.25 -1.1 1 1 1
v -1.5 0.25 -0.9 1 1 1
v -1.5 0.3125 -0.7125 1 1 1
v -1.5 0.5 -0.65 1 1 1
v -1.5 0.5 -0.5 1 1 1
v 0.3979239 1.602965E-31 0.8557417 1 1 1
v 0.3979239 0.5 0.8557417 1 1 1
v 0.4657795 1.602965E-31 1.108982 1 1 1
v 0.4657795 0.5 1.108982 1 1 1
v 0.760359 2.404448E-31 -0.4822817 1 1 1
v 0.5 1.602965E-31 1.368913 1 1 1
v 0.5 0.5 1.368913 1 1 1
v 0.5 0 1.5 1 1 1
v 0.5 0.5 1.5 1 1 1
v 1.5 1.602965E-31 1.30337 1 1 1
v 1.5 0 1.5 1 1 1
v -0.3864754 3.205931E-31 -0.1665073 1 1 1
v -0.3864754 0.5 -0.1665073 1 1 1
v 1.448669 1.602965E-31 0.9134732 1 1 1
v 1.346886 1.602965E-31 0.5336125 1 1 1
v 0.2975942 1.602965E-31 0.6135246 1 1 1
v 0.1665073 2.404448E-31 0.3864754 1 1 1
v 0.1665073 0.5 0.3864754 1 1 1
v 0.2975942 0.5 0.6135246 1 1 1
v -1.359082 0.5 -0.65 1 1 1
v -1.079656 0.5 -0.6132129 1 1 1
v -0.8074223 0.5 -0.5402681 1 1 1
v -0.5470389 0.5 -0.4324138 1 1 1
v -0.302961 0.5 -0.2914954 1 1 1
v -0.07936481 0.5 -0.119924 1 1 1
v 0.119924 0.5 0.07936481 1 1 1
v 0.2914954 0.5 0.302961 1 1 1
v 0.4324138 0.5 0.5470389 1 1 1
v 0.5402681 0.5 0.8074223 1 1 1
v 0.6132129 0.5 1.079656 1 1 1
v 0.65 0.5 1.5 1 1 1
v 0.65 0.5 1.359082 1 1 1
v 1.2875 0.3125 1.5 1 1 1
v 1.1 0.25 1.5 1 1 1
v 0.9 0.25 1.5 1 1 1
v 0.7125 0.3125 1.5 1 1 1
v -0.3328461 0.261082 -0.8667539 1 1 1
v -0.347582 0.25 -0.8368726 1 1 1
v -0.4999851 0.25 -0.9 1 1 1
v -0.72689 0.25 -0.7775086 1 1 1
v -1.030779 0.25 -0.8589354 1 1 1
v -1.342696 0.25 -0.9 1 1 1
v -0.4362295 0.25 -0.6571131 1 1 1
v -0.1637705 0.25 -0.4998088 1 1 1
v -0.05241801 0.25 -0.6664596 1 1 1
v 0.08582533 0.25 -0.3082872 1 1 1
v 0.2179774 0.25 -0.4589778 1 1 1
v 0.3082872 0.25 -0.08582533 1 1 1
v 0.4589778 0.25 -0.2179774 1 1 1
v 0.4998088 0.25 0.1637705 1 1 1
v 0.6571131 0.25 0.4362295 1 1 1
v 0.6664596 0.25 0.05241801 1 1 1
v 0.7775086 0.25 0.72689 1 1 1
v 0.8368726 0.25 0.347582 1 1 1
v 0.8589354 0.25 1.030779 1 1 1
v 0.9 0.25 1.342696 1 1 1
v 0.967301 0.25 0.6624641 1 1 1
v 1.055513 0.25 0.9916767 1 1 1
v 1.1 0.25 1.329587 1 1 1
v 0.1955833 0.3125 -0.7125 1 1 1
v -1.067436 0.3125 -0.6746435 1 1 1
v -0.7872892 0.3125 -0.5995783 1 1 1
v -0.5193366 0.3125 -0.4885887 1 1 1
v -1.354985 0.3125 -0.7125 1 1 1
v 0.01850863 0.2924637 -0.7726088 1 1 1
v 0.1670148 0.3125 0.03806727 1 1 1
v -0.03806727 0.3125 -0.1670148 1 1 1
v 1.005397 0.3125 0.2644749 1 1 1
v 1.145231 0.3125 0.602065 1 1 1
v 0.8226947 0.3125 -0.05197492 1 1 1
v 0.6002502 0.3125 -0.34187 1 1 1
v 0.6746435 0.3125 1.067436 1 1 1
v 0.5995783 0.3125 0.7872892 1 1 1
v 0.34187 0.3125 -0.6002502 1 1 1
v -0.2681634 0.3125 -0.3435737 1 1 1
v 0.7125 0.3125 1.354985 1 1 1
v 1.2875 0.3125 1.317298 1 1 1
v 1.239805 0.3125 0.9550188 1 1 1
v 0.3435737 0.3125 0.2681634 1 1 1
v 0.4885887 0.3125 0.5193366 1 1 1

vn 0.8314696 0 -0.5555702
vn 0.8968728 0 -0.4422887
vn 0 0 1
vn -0.6593459 0 0.7518399
vn -0.7518399 0 0.6593459
vn 0 1 0
vn 1 0 0
vn -0.3214395 0 0.9469302
vn -0.1950903 0 0.9807853
vn -0.4422887 0 0.8968728
vn -0.06540313 0 0.9978589
vn -1 0 0
vn -0.9469302 0 0.3214395
vn -0.9807853 0 0.1950903
vn 0.7518399 0 -0.6593459
vn -0.9978589 0 0.06540313
vn 0 0 -1
vn 0.9978589 0 -0.06540313
vn -0.5555702 0 0.8314696
vn 0 -1 0
vn -0.8314696 0 0.5555702
vn 0.9807853 0 -0.1950903
vn 0.9469302 0 -0.3214395
vn -0.8968728 0 0.4422887
vn 0.7071068 0 -0.7071068
vn -0.1424912 0.9488813 0.281639
vn -0.07357119 0.9860681 0.1491876
vn -0.003980971 0.9999918 -0.0007918643
vn 0 0.9870875 0.1601822
vn 0 0.9870875 -0.1601822
vn 0.04929631 0.9881703 -0.1452222
vn 0.02991926 0.9881703 -0.1504143
vn 0.0100303 0.9881703 -0.1530327
vn 0.06782988 0.9881703 -0.1375454
vn 0.08520286 0.9881703 -0.1275151
vn -0.09241468 0.9860681 0.1383083
vn 0.101118 0.9881703 -0.115303
vn -0.1096769 0.9860681 0.1250625
vn 0.115303 0.9881703 -0.101118
vn -0.1250625 0.9860681 0.1096769
vn 0.1275151 0.9881703 -0.08520286
vn 0.1375454 0.9881703 -0.06782988
vn -0.1383083 0.9860681 0.09241468
vn 0.1452222 0.9881703 -0.04929631
vn -0.1491876 0.9860681 0.07357119
vn 0.1504143 0.9881703 -0.02991926
vn 0.1530327 0.9881703 -0.0100303
vn -0.1575143 0.9860681 0.05346889
vn 0.1601822 0.9870875 0
vn -0.1631458 0.9860681 0.03245172
vn -0.1601822 0.9870875 0
vn -0.1659859 0.9860681 0.01087929
vn 0 0.8684527 -0.4957721
vn 0 0.7071068 -0.7071068
vn 0 0.3162278 -0.9486833
vn 0.1359936 0.7169931 -0.683686
vn 0.2240691 0.7169931 -0.6600862
vn 0.1850392 0.3168382 -0.9302548
vn 0.3048788 0.3168382 -0.8981439
vn 0.3083107 0.7169931 -0.6251922
vn 0.04559122 0.7169931 -0.6955878
vn 0.06203354 0.3168383 -0.9464489
vn 0 0.9486833 -0.3162278
vn 0.5240926 0.7169931 -0.4596169
vn 0.4596169 0.7169931 -0.5240926
vn -0.8506655 0.3168382 0.4195018
vn -0.8981439 0.3168382 0.3048788
vn -0.6419281 0.6983665 0.3165639
vn -0.6777562 0.6983665 0.2300672
vn -0.5951164 0.6983665 0.3976441
vn -0.5381222 0.6983665 0.4719205
vn 0.683686 0.7169931 -0.1359936
vn 0.6600862 0.7169931 -0.2240691
vn -0.788632 0.3168382 0.526947
vn 0.4195018 0.3168382 -0.8506655
vn -0.6253761 0.3168382 0.7131047
vn -0.7131047 0.3168382 0.6253761
vn -0.4719205 0.6983665 0.5381222
vn -0.3018069 0.8684527 0.3933224
vn -0.5775218 0.3162277 0.752641
vn 0.387277 0.7169931 -0.579601
vn 0.526947 0.3168382 -0.788632
vn 0.6955878 0.7169931 -0.04559122
vn 0.7071068 0.7071068 0
vn -0.714208 0.6983664 0.04681166
vn -0.7071068 0.7071068 0
vn -0.7019877 0.6983665 0.139634
vn 0 0.7071068 0.7071068
vn 0.9464489 0.3168383 -0.06203353
vn 0.9486833 0.3162278 0
vn -0.1787964 0.9488781 0.2601196
vn 0.8981439 0.3168382 -0.3048788
vn 0.9302548 0.3168382 -0.1850392
vn 0.6253761 0.3168382 -0.7131047
vn -0.9302548 0.3168382 0.1850392
vn -0.9464489 0.3168383 0.06203353
vn 0.579601 0.7169931 -0.387277
vn 0.7131047 0.3168382 -0.6253761
vn 0.788632 0.3168382 -0.526947
vn 0.6251922 0.7169931 -0.3083107
vn 0.8506655 0.3168382 -0.4195018
vn 0 0.3162278 0.9486833
vn -0.9486833 0.3162278 0

vt 0.90625 0.375
vt 0.28125 0.375

usemtl colormap

f 3/1/2 2/1/1 1/1/1
f 2/1/1 3/1/2 4/1/2
f 7/1/3 6/1/3 5/1/3
f 6/1/3 7/1/3 8/1/3
f 11/1/5 10/1/4 9/1/4
f 10/1/4 11/1/5 12/1/5
f 13/1/6 8/1/6 7/1/6
f 8/1/6 13/1/6 14/1/6
f 8/1/6 14/1/6 15/1/6
f 8/1/6 15/1/6 16/1/6
f 16/1/6 17/1/6 8/1/6
f 18/1/6 17/1/6 16/1/6
f 18/1/6 1/1/6 17/1/6
f 19/1/6 1/1/6 18/1/6
f 19/1/6 3/1/6 1/1/6
f 20/1/6 3/1/6 19/1/6
f 21/1/6 3/1/6 20/1/6
f 21/1/6 22/1/6 3/1/6
f 23/1/6 22/1/6 21/1/6
f 22/1/6 23/1/6 24/1/6
f 25/1/6 24/1/6 23/1/6
f 26/1/6 24/1/6 25/1/6
f 24/1/6 26/1/6 27/1/6
f 30/1/7 29/1/7 28/1/7
f 29/1/7 30/1/7 31/1/7
f 29/1/7 31/1/7 5/1/7
f 5/1/7 31/1/7 32/1/7
f 5/1/7 32/1/7 33/1/7
f 5/1/7 33/1/7 34/1/7
f 5/1/7 34/1/7 13/1/7
f 5/1/7 13/1/7 7/1/7
f 37/1/8 36/1/9 35/1/8
f 36/1/9 37/1/8 38/1/9
f 40/1/10 35/1/8 39/1/10
f 35/1/8 40/1/10 37/1/8
f 38/1/9 41/1/11 36/1/9
f 41/1/11 38/1/9 42/1/11
f 45/1/12 44/1/12 43/1/12
f 46/1/12 44/1/12 45/1/12
f 44/1/12 46/1/12 47/1/12
f 44/1/12 47/1/12 48/1/12
f 48/1/12 47/1/12 49/1/12
f 49/1/12 47/1/12 50/1/12
f 50/1/12 47/1/12 51/1/12
f 51/1/12 47/1/12 52/1/12
f 55/1/14 54/1/13 53/1/13
f 54/1/13 55/1/14 56/1/14
f 1/1/1 57/1/15 17/1/15
f 57/1/15 1/1/1 2/1/1
f 60/1/12 59/1/16 58/1/16
f 59/1/16 60/1/12 61/1/12
f 45/1/17 29/1/17 46/1/17
f 29/1/17 45/1/17 28/1/17
f 26/1/7 62/1/18 27/1/18
f 62/1/18 26/1/7 63/1/7
f 65/1/19 39/1/10 64/1/19
f 39/1/10 65/1/19 40/1/10
f 10/1/4 64/1/19 9/1/4
f 64/1/19 10/1/4 65/1/19
f 63/1/20 66/1/20 62/1/20
f 66/1/20 63/1/20 60/1/20
f 66/1/20 60/1/20 67/1/20
f 67/1/20 60/1/20 4/1/20
f 4/1/20 60/1/20 2/1/20
f 2/1/20 60/1/20 57/1/20
f 57/1/20 60/1/20 6/1/20
f 6/1/20 60/1/20 58/1/20
f 55/1/20 6/1/20 58/1/20
f 53/1/20 6/1/20 55/1/20
f 68/1/20 6/1/20 53/1/20
f 69/1/20 6/1/20 68/1/20
f 11/1/20 6/1/20 69/1/20
f 46/1/20 6/1/20 11/1/20
f 46/1/20 11/1/20 9/1/20
f 46/1/20 9/1/20 64/1/20
f 46/1/20 64/1/20 39/1/20
f 46/1/20 39/1/20 35/1/20
f 46/1/20 35/1/20 36/1/20
f 46/1/20 36/1/20 41/1/20
f 46/1/20 41/1/20 47/1/20
f 29/1/20 6/1/20 46/1/20
f 6/1/20 29/1/20 5/1/20
f 69/1/21 12/1/5 11/1/5
f 12/1/5 69/1/21 70/1/21
f 27/1/18 66/1/22 24/1/22
f 66/1/22 27/1/18 62/1/18
f 24/1/22 67/1/23 22/1/23
f 67/1/23 24/1/22 66/1/22
f 53/1/13 71/1/24 68/1/24
f 71/1/24 53/1/13 54/1/13
f 28/1/6 43/1/6 30/1/6
f 43/1/6 28/1/6 45/1/6
f 6/1/25 17/1/15 57/1/15
f 17/1/15 6/1/25 8/1/25
f 22/1/23 4/1/2 3/1/2
f 4/1/2 22/1/23 67/1/23
f 42/1/6 51/1/6 52/1/6
f 42/1/6 72/1/6 51/1/6
f 38/1/6 72/1/6 42/1/6
f 38/1/6 73/1/6 72/1/6
f 37/1/6 73/1/6 38/1/6
f 37/1/6 74/1/6 73/1/6
f 40/1/6 74/1/6 37/1/6
f 40/1/6 75/1/6 74/1/6
f 65/1/6 75/1/6 40/1/6
f 65/1/6 76/1/6 75/1/6
f 10/1/6 76/1/6 65/1/6
f 10/1/6 77/1/6 76/1/6
f 12/1/6 77/1/6 10/1/6
f 12/1/6 78/1/6 77/1/6
f 70/1/6 78/1/6 12/1/6
f 70/1/6 79/1/6 78/1/6
f 71/1/6 79/1/6 70/1/6
f 54/1/6 79/1/6 71/1/6
f 54/1/6 80/1/6 79/1/6
f 56/1/6 80/1/6 54/1/6
f 59/1/6 80/1/6 56/1/6
f 80/1/6 59/1/6 81/1/6
f 61/1/6 81/1/6 59/1/6
f 61/1/6 82/1/6 81/1/6
f 83/1/6 82/1/6 61/1/6
f 82/1/6 83/1/6 84/1/6
f 85/1/3 26/1/3 25/1/3
f 85/1/3 63/1/3 26/1/3
f 63/1/3 85/1/3 60/1/3
f 60/1/3 85/1/3 86/1/3
f 87/1/3 60/1/3 86/1/3
f 88/1/3 60/1/3 87/1/3
f 60/1/3 88/1/3 61/1/3
f 61/1/3 88/1/3 83/1/3
f 41/1/11 52/1/3 47/1/3
f 52/1/3 41/1/11 42/1/11
f 68/1/24 70/1/21 69/1/21
f 70/1/21 68/1/24 71/1/24
f 58/1/16 56/1/14 55/1/14
f 56/1/14 58/1/16 59/1/16
f 91/2/28 90/2/27 89/2/26
f 48/2/29 33/2/30 32/2/29
f 33/2/30 48/2/29 91/2/28
f 91/2/28 48/2/29 92/2/31
f 92/2/31 48/2/29 93/2/32
f 93/2/32 48/2/29 94/2/33
f 94/2/33 48/2/29 49/2/30
f 95/2/34 91/2/28 92/2/31
f 95/2/34 90/2/27 91/2/28
f 96/2/35 90/2/27 95/2/34
f 96/2/35 97/2/36 90/2/27
f 98/2/37 97/2/36 96/2/35
f 98/2/37 99/2/38 97/2/36
f 100/2/39 99/2/38 98/2/37
f 100/2/39 101/2/40 99/2/38
f 102/2/41 101/2/40 100/2/39
f 103/2/42 101/2/40 102/2/41
f 103/2/42 104/2/43 101/2/40
f 105/2/44 104/2/43 103/2/42
f 105/2/44 106/2/45 104/2/43
f 107/2/46 106/2/45 105/2/44
f 108/2/47 106/2/45 107/2/46
f 106/2/45 108/2/47 109/2/48
f 87/2/49 109/2/48 108/2/47
f 87/2/49 110/2/50 109/2/48
f 86/2/51 110/2/50 87/2/49
f 110/2/50 86/2/51 111/2/52
f 14/2/55 34/2/54 112/2/53
f 34/2/54 14/2/55 13/2/55
f 73/2/58 114/2/57 113/2/56
f 114/2/57 73/2/58 74/2/59
f 92/2/31 115/2/60 95/2/34
f 115/2/60 92/2/31 114/2/57
f 93/2/32 114/2/57 92/2/31
f 114/2/57 93/2/32 113/2/56
f 72/2/62 113/2/56 116/2/61
f 113/2/56 72/2/62 73/2/58
f 91/2/28 34/2/54 33/2/30
f 34/2/54 91/2/28 89/2/63
f 34/2/54 89/2/63 117/2/63
f 34/2/54 117/2/63 112/2/53
f 98/2/37 118/2/64 100/2/39
f 118/2/64 98/2/37 119/2/65
f 120/2/68 20/2/67 19/2/66
f 20/2/67 120/2/68 121/2/69
f 123/2/71 104/2/43 122/2/70
f 104/2/43 123/2/71 101/2/40
f 105/2/44 124/2/72 107/2/46
f 124/2/72 105/2/44 125/2/73
f 122/2/70 19/2/66 18/2/74
f 19/2/66 122/2/70 120/2/68
f 74/2/59 115/2/60 114/2/57
f 115/2/60 74/2/59 75/2/75
f 51/2/55 116/2/61 50/2/54
f 116/2/61 51/2/55 72/2/62
f 126/2/78 16/2/77 15/2/76
f 16/2/77 126/2/78 123/2/71
f 15/2/76 112/2/79 126/2/78
f 112/2/79 15/2/76 14/2/80
f 75/2/75 127/2/81 115/2/60
f 127/2/81 75/2/75 76/2/82
f 128/2/83 87/2/49 108/2/47
f 87/2/49 128/2/83 88/2/84
f 111/2/52 85/2/86 129/2/85
f 85/2/86 111/2/52 86/2/51
f 121/2/69 110/2/50 130/2/87
f 110/2/50 121/2/69 109/2/48
f 31/2/88 48/2/29 32/2/29
f 48/2/29 31/2/88 44/2/88
f 84/2/89 88/2/84 128/2/83
f 88/2/84 84/2/89 83/2/90
f 89/2/26 97/2/36 117/2/91
f 97/2/36 89/2/26 90/2/27
f 130/2/87 111/2/52 129/2/85
f 111/2/52 130/2/87 110/2/50
f 81/2/92 124/2/72 125/2/73
f 124/2/72 81/2/92 82/2/93
f 122/2/70 106/2/45 120/2/68
f 106/2/45 122/2/70 104/2/43
f 123/2/71 18/2/74 16/2/77
f 18/2/74 123/2/71 122/2/70
f 112/2/79 99/2/38 126/2/78
f 99/2/38 112/2/79 97/2/36
f 97/2/36 112/2/79 117/2/91
f 76/2/82 119/2/65 127/2/81
f 119/2/65 76/2/82 77/2/94
f 121/2/69 21/2/95 20/2/67
f 21/2/95 121/2/69 130/2/87
f 130/2/87 23/2/96 21/2/95
f 23/2/96 130/2/87 129/2/85
f 78/2/98 131/2/97 118/2/64
f 131/2/97 78/2/98 79/2/99
f 94/2/33 113/2/56 93/2/32
f 113/2/56 94/2/33 116/2/61
f 100/2/39 131/2/97 102/2/41
f 131/2/97 100/2/39 118/2/64
f 120/2/68 109/2/48 121/2/69
f 109/2/48 120/2/68 106/2/45
f 82/2/93 128/2/83 124/2/72
f 128/2/83 82/2/93 84/2/89
f 79/2/99 132/2/100 131/2/97
f 132/2/100 79/2/99 80/2/101
f 30/2/102 44/2/88 31/2/88
f 44/2/88 30/2/102 43/2/102
f 103/2/42 125/2/73 105/2/44
f 125/2/73 103/2/42 132/2/100
f 96/2/35 119/2/65 98/2/37
f 119/2/65 96/2/35 127/2/81
f 95/2/34 127/2/81 96/2/35
f 127/2/81 95/2/34 115/2/60
f 49/2/30 116/2/61 94/2/33
f 116/2/61 49/2/30 50/2/54
f 80/2/101 125/2/73 132/2/100
f 125/2/73 80/2/101 81/2/92
f 126/2/78 101/2/40 123/2/71
f 101/2/40 126/2/78 99/2/38
f 129/2/85 25/2/103 23/2/96
f 25/2/103 129/2/85 85/2/86
f 107/2/46 128/2/83 108/2/47
f 128/2/83 107/2/46 124/2/72
f 77/2/94 118/2/64 119/2/65
f 118/2/64 77/2/94 78/2/98
f 102/2/41 132/2/100 103/2/42
f 132/2/100 102/2/41 131/2/97

g split-large-right




usemtl colormap

f 3/1/2 2/1/1 1/1/1
f 2/1/1 3/1/2 4/1/2
f 7/1/3 6/1/3 5/1/3
f 6/1/3 7/1/3 8/1/3
f 11/1/5 10/1/4 9/1/4
f 10/1/4 11/1/5 12/1/5
f 13/1/6 8/1/6 7/1/6
f 8/1/6 13/1/6 14/1/6
f 8/1/6 14/1/6 15/1/6
f 8/1/6 15/1/6 16/1/6
f 16/1/6 17/1/6 8/1/6
f 18/1/6 17/1/6 16/1/6
f 18/1/6 1/1/6 17/1/6
f 19/1/6 1/1/6 18/1/6
f 19/1/6 3/1/6 1/1/6
f 20/1/6 3/1/6 19/1/6
f 21/1/6 3/1/6 20/1/6
f 21/1/6 22/1/6 3/1/6
f 23/1/6 22/1/6 21/1/6
f 22/1/6 23/1/6 24/1/6
f 25/1/6 24/1/6 23/1/6
f 26/1/6 24/1/6 25/1/6
f 24/1/6 26/1/6 27/1/6
f 30/1/7 29/1/7 28/1/7
f 29/1/7 30/1/7 31/1/7
f 29/1/7 31/1/7 5/1/7
f 5/1/7 31/1/7 32/1/7
f 5/1/7 32/1/7 33/1/7
f 5/1/7 33/1/7 34/1/7
f 5/1/7 34/1/7 13/1/7
f 5/1/7 13/1/7 7/1/7
f 37/1/8 36/1/9 35/1/8
f 36/1/9 37/1/8 38/1/9
f 40/1/10 35/1/8 39/1/10
f 35/1/8 40/1/10 37/1/8
f 38/1/9 41/1/11 36/1/9
f 41/1/11 38/1/9 42/1/11
f 45/1/12 44/1/12 43/1/12
f 46/1/12 44/1/12 45/1/12
f 44/1/12 46/1/12 47/1/12
f 44/1/12 47/1/12 48/1/12
f 48/1/12 47/1/12 49/1/12
f 49/1/12 47/1/12 50/1/12
f 50/1/12 47/1/12 51/1/12
f 51/1/12 47/1/12 52/1/12
f 55/1/14 54/1/13 53/1/13
f 54/1/13 55/1/14 56/1/14
f 1/1/1 57/1/15 17/1/15
f 57/1/15 1/1/1 2/1/1
f 60/1/12 59/1/16 58/1/16
f 59/1/16 60/1/12 61/1/12
f 45/1/17 29/1/17 46/1/17
f 29/1/17 45/1/17 28/1/17
f 26/1/7 62/1/18 27/1/18
f 62/1/18 26/1/7 63/1/7
f 65/1/19 39/1/10 64/1/19
f 39/1/10 65/1/19 40/1/10
f 10/1/4 64/1/19 9/1/4
f 64/1/19 10/1/4 65/1/19
f 63/1/20 66/1/20 62/1/20
f 66/1/20 63/1/20 60/1/20
f 66/1/20 60/1/20 67/1/20
f 67/1/20 60/1/20 4/1/20
f 4/1/20 60/1/20 2/1/20
f 2/1/20 60/1/20 57/1/20
f 57/1/20 60/1/20 6/1/20
f 6/1/20 60/1/20 58/1/20
f 55/1/20 6/1/20 58/1/20
f 53/1/20 6/1/20 55/1/20
f 68/1/20 6/1/20 53/1/20
f 69/1/20 6/1/20 68/1/20
f 11/1/20 6/1/20 69/1/20
f 46/1/20 6/1/20 11/1/20
f 46/1/20 11/1/20 9/1/20
f 46/1/20 9/1/20 64/1/20
f 46/1/20 64/1/20 39/1/20
f 46/1/20 39/1/20 35/1/20
f 46/1/20 35/1/20 36/1/20
f 46/1/20 36/1/20 41/1/20
f 46/1/20 41/1/20 47/1/20
f 29/1/20 6/1/20 46/1/20
f 6/1/20 29/1/20 5/1/20
f 69/1/21 12/1/5 11/1/5
f 12/1/5 69/1/21 70/1/21
f 27/1/18 66/1/22 24/1/22
f 66/1/22 27/1/18 62/1/18
f 24/1/22 67/1/23 22/1/23
f 67/1/23 24/1/22 66/1/22
f 53/1/13 71/1/24 68/1/24
f 71/1/24 53/1/13 54/1/13
f 28/1/6 43/1/6 30/1/6
f 43/1/6 28/1/6 45/1/6
f 6/1/25 17/1/15 57/1/15
f 17/1/15 6/1/25 8/1/25
f 22/1/23 4/1/2 3/1/2
f 4/1/2 22/1/23 67/1/23
f 42/1/6 51/1/6 52/1/6
f 42/1/6 72/1/6 51/1/6
f 38/1/6 72/1/6 42/1/6
f 38/1/6 73/1/6 72/1/6
f 37/1/6 73/1/6 38/1/6
f 37/1/6 74/1/6 73/1/6
f 40/1/6 74/1/6 37/1/6
f 40/1/6 75/1/6 74/1/6
f 65/1/6 75/1/6 40/1/6
f 65/1/6 76/1/6 75/1/6
f 10/1/6 76/1/6 65/1/6
f 10/1/6 77/1/6 76/1/6
f 12/1/6 77/1/6 10/1/6
f 12/1/6 78/1/6 77/1/6
f 70/1/6 78/1/6 12/1/6
f 70/1/6 79/1/6 78/1/6
f 71/1/6 79/1/6 70/1/6
f 54/1/6 79/1/6 71/1/6
f 54/1/6 80/1/6 79/1/6
f 56/1/6 80/1/6 54/1/6
f 59/1/6 80/1/6 56/1/6
f 80/1/6 59/1/6 81/1/6
f 61/1/6 81/1/6 59/1/6
f 61/1/6 82/1/6 81/1/6
f 83/1/6 82/1/6 61/1/6
f 82/1/6 83/1/6 84/1/6
f 85/1/3 26/1/3 25/1/3
f 85/1/3 63/1/3 26/1/3
f 63/1/3 85/1/3 60/1/3
f 60/1/3 85/1/3 86/1/3
f 87/1/3 60/1/3 86/1/3
f 88/1/3 60/1/3 87/1/3
f 60/1/3 88/1/3 61/1/3
f 61/1/3 88/1/3 83/1/3
f 41/1/11 52/1/3 47/1/3
f 52/1/3 41/1/11 42/1/11
f 68/1/24 70/1/21 69/1/21
f 70/1/21 68/1/24 71/1/24
f 58/1/16 56/1/14 55/1/14
f 56/1/14 58/1/16 59/1/16
f 91/2/28 90/2/27 89/2/26
f 48/2/29 33/2/30 32/2/29
f 33/2/30 48/2/29 91/2/28
f 91/2/28 48/2/29 92/2/31
f 92/2/31 48/2/29 93/2/32
f 93/2/32 48/2/29 94/2/33
f 94/2/33 48/2/29 49/2/30
f 95/2/34 91/2/28 92/2/31
f 95/2/34 90/2/27 91/2/28
f 96/2/35 90/2/27 95/2/34
f 96/2/35 97/2/36 90/2/27
f 98/2/37 97/2/36 96/2/35
f 98/2/37 99/2/38 97/2/36
f 100/2/39 99/2/38 98/2/37
f 100/2/39 101/2/40 99/2/38
f 102/2/41 101/2/40 100/2/39
f 103/2/42 101/2/40 102/2/41
f 103/2/42 104/2/43 101/2/40
f 105/2/44 104/2/43 103/2/42
f 105/2/44 106/2/45 104/2/43
f 107/2/46 106/2/45 105/2/44
f 108/2/47 106/2/45 107/2/46
f 106/2/45 108/2/47 109/2/48
f 87/2/49 109/2/48 108/2/47
f 87/2/49 110/2/50 109/2/48
f 86/2/51 110/2/50 87/2/49
f 110/2/50 86/2/51 111/2/52
f 14/2/55 34/2/54 112/2/53
f 34/2/54 14/2/55 13/2/55
f 73/2/58 114/2/57 113/2/56
f 114/2/57 73/2/58 74/2/59
f 92/2/31 115/2/60 95/2/34
f 115/2/60 92/2/31 114/2/57
f 93/2/32 114/2/57 92/2/31
f 114/2/57 93/2/32 113/2/56
f 72/2/62 113/2/56 116/2/61
f 113/2/56 72/2/62 73/2/58
f 91/2/28 34/2/54 33/2/30
f 34/2/54 91/2/28 89/2/63
f 34/2/54 89/2/63 117/2/63
f 34/2/54 117/2/63 112/2/53
f 98/2/37 118/2/64 100/2/39
f 118/2/64 98/2/37 119/2/65
f 120/2/68 20/2/67 19/2/66
f 20/2/67 120/2/68 121/2/69
f 123/2/71 104/2/43 122/2/70
f 104/2/43 123/2/71 101/2/40
f 105/2/44 124/2/72 107/2/46
f 124/2/72 105/2/44 125/2/73
f 122/2/70 19/2/66 18/2/74
f 19/2/66 122/2/70 120/2/68
f 74/2/59 115/2/60 114/2/57
f 115/2/60 74/2/59 75/2/75
f 51/2/55 116/2/61 50/2/54
f 116/2/61 51/2/55 72/2/62
f 126/2/78 16/2/77 15/2/76
f 16/2/77 126/2/78 123/2/71
f 15/2/76 112/2/79 126/2/78
f 112/2/79 15/2/76 14/2/80
f 75/2/75 127/2/81 115/2/60
f 127/2/81 75/2/75 76/2/82
f 128/2/83 87/2/49 108/2/47
f 87/2/49 128/2/83 88/2/84
f 111/2/52 85/2/86 129/2/85
f 85/2/86 111/2/52 86/2/51
f 121/2/69 110/2/50 130/2/87
f 110/2/50 121/2/69 109/2/48
f 31/2/88 48/2/29 32/2/29
f 48/2/29 31/2/88 44/2/88
f 84/2/89 88/2/84 128/2/83
f 88/2/84 84/2/89 83/2/90
f 89/2/26 97/2/36 117/2/91
f 97/2/36 89/2/26 90/2/27
f 130/2/87 111/2/52 129/2/85
f 111/2/52 130/2/87 110/2/50
f 81/2/92 124/2/72 125/2/73
f 124/2/72 81/2/92 82/2/93
f 122/2/70 106/2/45 120/2/68
f 106/2/45 122/2/70 104/2/43
f 123/2/71 18/2/74 16/2/77
f 18/2/74 123/2/71 122/2/70
f 112/2/79 99/2/38 126/2/78
f 99/2/38 112/2/79 97/2/36
f 97/2/36 112/2/79 117/2/91
f 76/2/82 119/2/65 127/2/81
f 119/2/65 76/2/82 77/2/94
f 121/2/69 21/2/95 20/2/67
f 21/2/95 121/2/69 130/2/87
f 130/2/87 23/2/96 21/2/95
f 23/2/96 130/2/87 129/2/85
f 78/2/98 131/2/97 118/2/64
f 131/2/97 78/2/98 79/2/99
f 94/2/33 113/2/56 93/2/32
f 113/2/56 94/2/33 116/2/61
f 100/2/39 131/2/97 102/2/41
f 131/2/97 100/2/39 118/2/64
f 120/2/68 109/2/48 121/2/69
f 109/2/48 120/2/68 106/2/45
f 82/2/93 128/2/83 124/2/72
f 128/2/83 82/2/93 84/2/89
f 79/2/99 132/2/100 131/2/97
f 132/2/100 79/2/99 80/2/101
f 30/2/102 44/2/88 31/2/88
f 44/2/88 30/2/102 43/2/102
f 103/2/42 125/2/73 105/2/44
f 125/2/73 103/2/42 132/2/100
f 96/2/35 119/2/65 98/2/37
f 119/2/65 96/2/35 127/2/81
f 95/2/34 127/2/81 96/2/35
f 127/2/81 95/2/34 115/2/60
f 49/2/30 116/2/61 94/2/33
f 116/2/61 49/2/30 50/2/54
f 80/2/101 125/2/73 132/2/100
f 125/2/73 80/2/101 81/2/92
f 126/2/78 101/2/40 123/2/71
f 101/2/40 126/2/78 99/2/38
f 129/2/85 25/2/103 23/2/96
f 25/2/103 129/2/85 85/2/86
f 107/2/46 128/2/83 108/2/47
f 128/2/83 107/2/46 124/2/72
f 77/2/94 118/2/64 119/2/65
f 118/2/64 77/2/94 78/2/98
f 102/2/41 132/2/100 103/2/42
f 132/2/100 102/2/41 131/2/97

