# Created by Kenney (www.kenney.nl)

mtllib split-large-solid-right.mtl

g split-large-solid-right

v -0.3328461 0.261082 -0.8667539 1 1 1
v -0.347582 0.25 -0.8368726 1 1 1
v -0.4999851 0.25 -0.9 1 1 1
v -1.354985 0.3125 -0.7125 1 1 1
v -1.067436 0.3125 -0.6746435 1 1 1
v -1.359082 0.5 -0.65 1 1 1
v -1.079656 0.5 -0.6132129 1 1 1
v 1.5 0.25 -1.1 1 1 1
v 1.5 0.25 -0.9 1 1 1
v -1.5 0.25 -1.1 1 1 1
v -0.72689 0.25 -0.7775086 1 1 1
v -1.030779 0.25 -0.8589354 1 1 1
v -1.342696 0.25 -0.9 1 1 1
v -1.5 0.25 -0.9 1 1 1
v -0.4362295 0.25 -0.6571131 1 1 1
v -0.1637705 0.25 -0.4998088 1 1 1
v -0.05241801 0.25 -0.6664596 1 1 1
v 0.08582533 0.25 -0.3082872 1 1 1
v 0.2179774 0.25 -0.4589778 1 1 1
v 0.3082872 0.25 -0.08582533 1 1 1
v 0.4589778 0.25 -0.2179774 1 1 1
v 0.4998088 0.25 0.1637705 1 1 1
v 0.6571131 0.25 0.4362295 1 1 1
v 0.6664596 0.25 0.05241801 1 1 1
v 0.7775086 0.25 0.72689 1 1 1
v 0.8368726 0.25 0.347582 1 1 1
v 0.8589354 0.25 1.030779 1 1 1
v 0.9 0.25 1.342696 1 1 1
v 0.967301 0.25 0.6624641 1 1 1
v 0.9 0.25 1.5 1 1 1
v 1.055513 0.25 0.9916767 1 1 1
v 1.1 0.25 1.5 1 1 1
v 1.1 0.25 1.329587 1 1 1
v -0.7872892 0.3125 -0.5995783 1 1 1
v -0.5193366 0.3125 -0.4885887 1 1 1
v -0.8074223 0.5 -0.5402681 1 1 1
v -0.5470389 0.5 -0.4324138 1 1 1
v 0.1955833 0.3125 -0.7125 1 1 1
v 1.5 0.3125 -0.7125 1 1 1
v 0.3797024 0.5 -0.65 1 1 1
v 1.5 0.5 -0.65 1 1 1
v 0.34187 0.3125 -0.6002502 1 1 1
v 0.3831676 0.5 -0.6473411 1 1 1
v 0.01850863 0.2924637 -0.7726088 1 1 1
v -1.5 0.3125 -0.7125 1 1 1
v -1.5 0.5 -0.65 1 1 1
v -0.2681634 0.3125 -0.3435737 1 1 1
v -0.03806727 0.3125 -0.1670148 1 1 1
v -0.302961 0.5 -0.2914954 1 1 1
v -0.07936481 0.5 -0.119924 1 1 1
v 1.5 0.3125 -1.2875 1 1 1
v -1.5 0.3125 -1.2875 1 1 1
v 1.5 0.5 -1.35 1 1 1
v -1.5 0.5 -1.35 1 1 1
v 0.1670148 0.3125 0.03806727 1 1 1
v 0.3435737 0.3125 0.2681634 1 1 1
v 0.119924 0.5 0.07936481 1 1 1
v 0.2914954 0.5 0.302961 1 1 1
v 0.6473411 0.5 -0.3831676 1 1 1
v 0.874773 0.5 -0.08677257 1 1 1
v 0.6002502 0.3125 -0.34187 1 1 1
v 0.8226947 0.3125 -0.05197492 1 1 1
v 1.005397 0.3125 0.2644749 1 1 1
v 1.204541 0.5 0.5819319 1 1 1
v 1.301236 0.5 0.9427995 1 1 1
v 1.145231 0.3125 0.602065 1 1 1
v 1.239805 0.3125 0.9550188 1 1 1
v 0.4885887 0.3125 0.5193366 1 1 1
v 0.6746435 0.3125 1.067436 1 1 1
v 0.7125 0.3125 1.354985 1 1 1
v 0.6132129 0.5 1.079656 1 1 1
v 0.65 0.5 1.359082 1 1 1
v 0.5995783 0.3125 0.7872892 1 1 1
v 0.7125 0.3125 1.5 1 1 1
v 1.35 0.5 1.313201 1 1 1
v 1.2875 0.3125 1.317298 1 1 1
v 0.4324138 0.5 0.5470389 1 1 1
v 1.061572 0.5 0.2367726 1 1 1
v 1.2875 0.3125 1.5 1 1 1
v 0.5402681 0.5 0.8074223 1 1 1
v 1.35 0.5 1.5 1 1 1
v 0.65 0.5 1.5 1 1 1
v 1.5 0.5 -1.5 1 1 1
v 1.5 3.205931E-31 -1.5 1 1 1
v 1.5 0 1.5 1 1 1
v 1.5 0.5 1.5 1 1 1
v -1.5 0 1.5 1 1 1
v -1.5 0.5 1.5 1 1 1
v -1.5 3.205931E-31 -1.5 1 1 1
v -1.5 0.5 -1.5 1 1 1

vn -0.1424912 0.9488813 0.281639
vn -0.07357119 0.9860681 0.1491876
vn -0.003980971 0.9999918 -0.0007918643
vn 0.04559122 0.7169931 -0.6955878
vn 0.1359936 0.7169931 -0.683686
vn 0.06203354 0.3168383 -0.9464489
vn 0.1850392 0.3168382 -0.9302548
vn 0 0.9870875 0.1601822
vn 0 0.9870875 -0.1601822
vn 0.04929631 0.9881703 -0.1452222
vn 0.02991926 0.9881703 -0.1504143
vn 0.0100303 0.9881703 -0.1530327
vn 0.06782988 0.9881703 -0.1375454
vn 0.08520286 0.9881703 -0.1275151
vn -0.09241468 0.9860681 0.1383083
vn 0.101118 0.9881703 -0.115303
vn -0.1096769 0.9860681 0.1250625
vn 0.115303 0.9881703 -0.101118
vn -0.1250625 0.9860681 0.1096769
vn 0.1275151 0.9881703 -0.08520286
vn 0.1375454 0.9881703 -0.06782988
vn -0.1383083 0.9860681 0.09241468
vn 0.1452222 0.9881703 -0.04929631
vn -0.1491876 0.9860681 0.07357119
vn 0.1504143 0.9881703 -0.02991926
vn 0.1530327 0.9881703 -0.0100303
vn -0.1575143 0.9860681 0.05346889
vn 0.1601822 0.9870875 0
vn -0.1631458 0.9860681 0.03245172
vn -0.1601822 0.9870875 0
vn -0.1659859 0.9860681 0.01087929
vn 0.2240691 0.7169931 -0.6600862
vn 0.3083107 0.7169931 -0.6251922
vn 0.3048788 0.3168382 -0.8981439
vn 0.4195018 0.3168382 -0.8506655
vn 0 0.8684527 -0.4957721
vn 0 0.7071068 -0.7071068
vn 0 0.3162278 -0.9486833
vn -0.4719205 0.6983665 0.5381222
vn -0.3018069 0.8684527 0.3933224
vn -0.6253761 0.3168382 0.7131047
vn -0.5775218 0.3162277 0.752641
vn 0 0.9486833 -0.3162278
vn 0.387277 0.7169931 -0.579601
vn 0.4596169 0.7169931 -0.5240926
vn 0.526947 0.3168382 -0.788632
vn 0.6253761 0.3168382 -0.7131047
vn 0 0.7071068 0.7071068
vn 0 0.3162278 0.9486833
vn 0.5240926 0.7169931 -0.4596169
vn 0.579601 0.7169931 -0.387277
vn 0.7131047 0.3168382 -0.6253761
vn 0.788632 0.3168382 -0.526947
vn -0.7131047 0.3168382 0.6253761
vn -0.788632 0.3168382 0.526947
vn -0.5381222 0.6983665 0.4719205
vn -0.5951164 0.6983665 0.3976441
vn -0.6419281 0.6983665 0.3165639
vn -0.8981439 0.3168382 0.3048788
vn -0.9302548 0.3168382 0.1850392
vn -0.6777562 0.6983665 0.2300672
vn -0.7019877 0.6983665 0.139634
vn 0.6251922 0.7169931 -0.3083107
vn 0.683686 0.7169931 -0.1359936
vn 0.6955878 0.7169931 -0.04559122
vn 0.9302548 0.3168382 -0.1850392
vn 0.9464489 0.3168383 -0.06203353
vn 0.6600862 0.7169931 -0.2240691
vn 0.7071068 0.7071068 0
vn -0.9464489 0.3168383 0.06203353
vn -0.714208 0.6983664 0.04681166
vn 0.8506655 0.3168382 -0.4195018
vn -0.8506655 0.3168382 0.4195018
vn -0.7071068 0.7071068 0
vn 0.8981439 0.3168382 -0.3048788
vn -0.9486833 0.3162278 0
vn 0.9486833 0.3162278 0
vn -0.1787964 0.9488781 0.2601196
vn 1 0 0
vn 0 1 0
vn 0 0 1
vn 0 0 -1
vn 0 -1 0
vn -1 0 0

vt 0.28125 0.375
vt 0.90625 0.375

usemtl colormap

f 3/1/3 2/1/2 1/1/1
f 6/1/6 5/1/5 4/1/4
f 5/1/5 6/1/6 7/1/7
f 10/1/8 9/1/9 8/1/8
f 9/1/9 10/1/8 3/1/3
f 3/1/3 10/1/8 11/1/10
f 11/1/10 10/1/8 12/1/11
f 12/1/11 10/1/8 13/1/12
f 13/1/12 10/1/8 14/1/9
f 15/1/13 3/1/3 11/1/10
f 15/1/13 2/1/2 3/1/3
f 16/1/14 2/1/2 15/1/13
f 16/1/14 17/1/15 2/1/2
f 18/1/16 17/1/15 16/1/14
f 18/1/16 19/1/17 17/1/15
f 20/1/18 19/1/17 18/1/16
f 20/1/18 21/1/19 19/1/17
f 22/1/20 21/1/19 20/1/18
f 23/1/21 21/1/19 22/1/20
f 23/1/21 24/1/22 21/1/19
f 25/1/23 24/1/22 23/1/21
f 25/1/23 26/1/24 24/1/22
f 27/1/25 26/1/24 25/1/23
f 28/1/26 26/1/24 27/1/25
f 26/1/24 28/1/26 29/1/27
f 30/1/28 29/1/27 28/1/26
f 30/1/28 31/1/29 29/1/27
f 32/1/30 31/1/29 30/1/28
f 31/1/29 32/1/30 33/1/31
f 36/1/34 35/1/33 34/1/32
f 35/1/33 36/1/34 37/1/35
f 40/1/38 39/1/37 38/1/36
f 39/1/37 40/1/38 41/1/38
f 43/1/41 38/1/40 42/1/39
f 38/1/40 43/1/41 40/1/42
f 7/1/7 34/1/32 5/1/5
f 34/1/32 7/1/7 36/1/34
f 11/1/10 35/1/33 15/1/13
f 35/1/33 11/1/10 34/1/32
f 3/1/3 39/1/37 9/1/9
f 39/1/37 3/1/3 1/1/43
f 39/1/37 1/1/43 44/1/43
f 39/1/37 44/1/43 38/1/36
f 46/1/38 4/1/4 45/1/37
f 4/1/4 46/1/38 6/1/6
f 49/1/46 48/1/45 47/1/44
f 48/1/45 49/1/46 50/1/47
f 14/1/9 4/1/4 13/1/12
f 4/1/4 14/1/9 45/1/37
f 53/1/49 52/1/48 51/1/48
f 52/1/48 53/1/49 54/1/49
f 16/1/14 48/1/45 18/1/16
f 48/1/45 16/1/14 47/1/44
f 18/1/16 55/1/50 20/1/18
f 55/1/50 18/1/16 48/1/45
f 57/1/52 56/1/51 55/1/50
f 56/1/51 57/1/52 58/1/53
f 15/1/13 47/1/44 16/1/14
f 47/1/44 15/1/13 35/1/33
f 61/1/56 60/1/55 59/1/54
f 60/1/55 61/1/56 62/1/57
f 62/1/57 26/1/24 63/1/58
f 26/1/24 62/1/57 24/1/22
f 66/1/61 65/1/60 64/1/59
f 65/1/60 66/1/61 67/1/62
f 22/1/20 68/1/63 23/1/21
f 68/1/63 22/1/20 56/1/51
f 71/1/66 70/1/65 69/1/64
f 70/1/65 71/1/66 72/1/67
f 50/1/47 55/1/50 48/1/45
f 55/1/50 50/1/47 57/1/52
f 23/1/21 73/1/68 25/1/23
f 73/1/68 23/1/21 68/1/63
f 20/1/18 56/1/51 22/1/20
f 56/1/51 20/1/18 55/1/50
f 27/1/25 70/1/65 28/1/26
f 70/1/65 27/1/25 69/1/64
f 70/1/65 30/1/28 28/1/26
f 30/1/28 70/1/65 74/1/69
f 25/1/23 69/1/64 27/1/25
f 69/1/64 25/1/23 73/1/68
f 67/1/62 75/1/70 65/1/60
f 75/1/70 67/1/62 76/1/71
f 58/1/53 68/1/63 56/1/51
f 68/1/63 58/1/53 77/1/72
f 66/1/61 31/1/29 67/1/62
f 31/1/29 66/1/61 29/1/27
f 62/1/57 78/1/73 60/1/55
f 78/1/73 62/1/57 63/1/58
f 67/1/62 33/1/31 76/1/71
f 33/1/31 67/1/62 31/1/29
f 63/1/58 64/1/59 78/1/73
f 64/1/59 63/1/58 66/1/61
f 42/1/39 21/1/19 61/1/56
f 21/1/19 42/1/39 19/1/17
f 33/1/31 79/1/74 76/1/71
f 79/1/74 33/1/31 32/1/30
f 63/1/58 29/1/27 66/1/61
f 29/1/27 63/1/58 26/1/24
f 80/1/75 69/1/64 73/1/68
f 69/1/64 80/1/75 71/1/66
f 12/1/11 34/1/32 11/1/10
f 34/1/32 12/1/11 5/1/5
f 76/1/71 81/1/76 75/1/70
f 81/1/76 76/1/71 79/1/74
f 42/1/39 59/1/54 43/1/41
f 59/1/54 42/1/39 61/1/56
f 37/1/35 47/1/44 35/1/33
f 47/1/44 37/1/35 49/1/46
f 77/1/72 73/1/68 68/1/63
f 73/1/68 77/1/72 80/1/75
f 72/1/67 74/1/69 70/1/65
f 74/1/69 72/1/67 82/1/77
f 13/1/12 5/1/5 12/1/11
f 5/1/5 13/1/12 4/1/4
f 38/1/40 19/1/17 42/1/39
f 19/1/17 38/1/40 17/1/15
f 17/1/15 38/1/40 44/1/78
f 1/1/1 17/1/15 44/1/78
f 17/1/15 1/1/1 2/1/2
f 52/1/48 8/1/8 51/1/48
f 8/1/8 52/1/48 10/1/8
f 61/1/56 24/1/22 62/1/57
f 24/1/22 61/1/56 21/1/19
f 53/2/79 84/2/79 83/2/79
f 84/2/79 53/2/79 51/2/79
f 84/2/79 51/2/79 8/2/79
f 84/2/79 8/2/79 85/2/79
f 85/2/79 8/2/79 9/2/79
f 85/2/79 9/2/79 39/2/79
f 85/2/79 39/2/79 41/2/79
f 85/2/79 41/2/79 86/2/79
f 43/2/80 41/2/80 40/2/80
f 59/2/80 41/2/80 43/2/80
f 60/2/80 41/2/80 59/2/80
f 78/2/80 41/2/80 60/2/80
f 64/2/80 41/2/80 78/2/80
f 65/2/80 41/2/80 64/2/80
f 41/2/80 65/2/80 75/2/80
f 81/2/80 41/2/80 75/2/80
f 41/2/80 81/2/80 86/2/80
f 79/2/81 86/2/81 81/2/81
f 79/2/81 85/2/81 86/2/81
f 32/2/81 85/2/81 79/2/81
f 85/2/81 32/2/81 87/2/81
f 30/2/81 87/2/81 32/2/81
f 87/2/81 30/2/81 88/2/81
f 88/2/81 30/2/81 74/2/81
f 88/2/81 74/2/81 82/2/81
f 90/2/82 84/2/82 89/2/82
f 84/2/82 90/2/82 83/2/82
f 71/2/80 82/2/80 72/2/80
f 82/2/80 71/2/80 88/2/80
f 88/2/80 71/2/80 80/2/80
f 88/2/80 80/2/80 77/2/80
f 88/2/80 77/2/80 58/2/80
f 88/2/80 58/2/80 57/2/80
f 88/2/80 57/2/80 50/2/80
f 88/2/80 50/2/80 49/2/80
f 88/2/80 49/2/80 37/2/80
f 88/2/80 37/2/80 36/2/80
f 88/2/80 36/2/80 7/2/80
f 88/2/80 7/2/80 6/2/80
f 88/2/80 6/2/80 46/2/80
f 87/2/83 84/2/83 85/2/83
f 84/2/83 87/2/83 89/2/83
f 90/2/84 52/2/84 54/2/84
f 89/2/84 52/2/84 90/2/84
f 52/2/84 89/2/84 10/2/84
f 10/2/84 89/2/84 87/2/84
f 10/2/84 87/2/84 14/2/84
f 14/2/84 87/2/84 45/2/84
f 45/2/84 87/2/84 46/2/84
f 46/2/84 87/2/84 88/2/84
f 83/2/80 54/2/80 53/2/80
f 54/2/80 83/2/80 90/2/80

g split-large-solid-right




usemtl colormap

f 3/1/3 2/1/2 1/1/1
f 6/1/6 5/1/5 4/1/4
f 5/1/5 6/1/6 7/1/7
f 10/1/8 9/1/9 8/1/8
f 9/1/9 10/1/8 3/1/3
f 3/1/3 10/1/8 11/1/10
f 11/1/10 10/1/8 12/1/11
f 12/1/11 10/1/8 13/1/12
f 13/1/12 10/1/8 14/1/9
f 15/1/13 3/1/3 11/1/10
f 15/1/13 2/1/2 3/1/3
f 16/1/14 2/1/2 15/1/13
f 16/1/14 17/1/15 2/1/2
f 18/1/16 17/1/15 16/1/14
f 18/1/16 19/1/17 17/1/15
f 20/1/18 19/1/17 18/1/16
f 20/1/18 21/1/19 19/1/17
f 22/1/20 21/1/19 20/1/18
f 23/1/21 21/1/19 22/1/20
f 23/1/21 24/1/22 21/1/19
f 25/1/23 24/1/22 23/1/21
f 25/1/23 26/1/24 24/1/22
f 27/1/25 26/1/24 25/1/23
f 28/1/26 26/1/24 27/1/25
f 26/1/24 28/1/26 29/1/27
f 30/1/28 29/1/27 28/1/26
f 30/1/28 31/1/29 29/1/27
f 32/1/30 31/1/29 30/1/28
f 31/1/29 32/1/30 33/1/31
f 36/1/34 35/1/33 34/1/32
f 35/1/33 36/1/34 37/1/35
f 40/1/38 39/1/37 38/1/36
f 39/1/37 40/1/38 41/1/38
f 43/1/41 38/1/40 42/1/39
f 38/1/40 43/1/41 40/1/42
f 7/1/7 34/1/32 5/1/5
f 34/1/32 7/1/7 36/1/34
f 11/1/10 35/1/33 15/1/13
f 35/1/33 11/1/10 34/1/32
f 3/1/3 39/1/37 9/1/9
f 39/1/37 3/1/3 1/1/43
f 39/1/37 1/1/43 44/1/43
f 39/1/37 44/1/43 38/1/36
f 46/1/38 4/1/4 45/1/37
f 4/1/4 46/1/38 6/1/6
f 49/1/46 48/1/45 47/1/44
f 48/1/45 49/1/46 50/1/47
f 14/1/9 4/1/4 13/1/12
f 4/1/4 14/1/9 45/1/37
f 53/1/49 52/1/48 51/1/48
f 52/1/48 53/1/49 54/1/49
f 16/1/14 48/1/45 18/1/16
f 48/1/45 16/1/14 47/1/44
f 18/1/16 55/1/50 20/1/18
f 55/1/50 18/1/16 48/1/45
f 57/1/52 56/1/51 55/1/50
f 56/1/51 57/1/52 58/1/53
f 15/1/13 47/1/44 16/1/14
f 47/1/44 15/1/13 35/1/33
f 61/1/56 60/1/55 59/1/54
f 60/1/55 61/1/56 62/1/57
f 62/1/57 26/1/24 63/1/58
f 26/1/24 62/1/57 24/1/22
f 66/1/61 65/1/60 64/1/59
f 65/1/60 66/1/61 67/1/62
f 22/1/20 68/1/63 23/1/21
f 68/1/63 22/1/20 56/1/51
f 71/1/66 70/1/65 69/1/64
f 70/1/65 71/1/66 72/1/67
f 50/1/47 55/1/50 48/1/45
f 55/1/50 50/1/47 57/1/52
f 23/1/21 73/1/68 25/1/23
f 73/1/68 23/1/21 68/1/63
f 20/1/18 56/1/51 22/1/20
f 56/1/51 20/1/18 55/1/50
f 27/1/25 70/1/65 28/1/26
f 70/1/65 27/1/25 69/1/64
f 70/1/65 30/1/28 28/1/26
f 30/1/28 70/1/65 74/1/69
f 25/1/23 69/1/64 27/1/25
f 69/1/64 25/1/23 73/1/68
f 67/1/62 75/1/70 65/1/60
f 75/1/70 67/1/62 76/1/71
f 58/1/53 68/1/63 56/1/51
f 68/1/63 58/1/53 77/1/72
f 66/1/61 31/1/29 67/1/62
f 31/1/29 66/1/61 29/1/27
f 62/1/57 78/1/73 60/1/55
f 78/1/73 62/1/57 63/1/58
f 67/1/62 33/1/31 76/1/71
f 33/1/31 67/1/62 31/1/29
f 63/1/58 64/1/59 78/1/73
f 64/1/59 63/1/58 66/1/61
f 42/1/39 21/1/19 61/1/56
f 21/1/19 42/1/39 19/1/17
f 33/1/31 79/1/74 76/1/71
f 79/1/74 33/1/31 32/1/30
f 63/1/58 29/1/27 66/1/61
f 29/1/27 63/1/58 26/1/24
f 80/1/75 69/1/64 73/1/68
f 69/1/64 80/1/75 71/1/66
f 12/1/11 34/1/32 11/1/10
f 34/1/32 12/1/11 5/1/5
f 76/1/71 81/1/76 75/1/70
f 81/1/76 76/1/71 79/1/74
f 42/1/39 59/1/54 43/1/41
f 59/1/54 42/1/39 61/1/56
f 37/1/35 47/1/44 35/1/33
f 47/1/44 37/1/35 49/1/46
f 77/1/72 73/1/68 68/1/63
f 73/1/68 77/1/72 80/1/75
f 72/1/67 74/1/69 70/1/65
f 74/1/69 72/1/67 82/1/77
f 13/1/12 5/1/5 12/1/11
f 5/1/5 13/1/12 4/1/4
f 38/1/40 19/1/17 42/1/39
f 19/1/17 38/1/40 17/1/15
f 17/1/15 38/1/40 44/1/78
f 1/1/1 17/1/15 44/1/78
f 17/1/15 1/1/1 2/1/2
f 52/1/48 8/1/8 51/1/48
f 8/1/8 52/1/48 10/1/8
f 61/1/56 24/1/22 62/1/57
f 24/1/22 61/1/56 21/1/19
f 53/2/79 84/2/79 83/2/79
f 84/2/79 53/2/79 51/2/79
f 84/2/79 51/2/79 8/2/79
f 84/2/79 8/2/79 85/2/79
f 85/2/79 8/2/79 9/2/79
f 85/2/79 9/2/79 39/2/79
f 85/2/79 39/2/79 41/2/79
f 85/2/79 41/2/79 86/2/79
f 43/2/80 41/2/80 40/2/80
f 59/2/80 41/2/80 43/2/80
f 60/2/80 41/2/80 59/2/80
f 78/2/80 41/2/80 60/2/80
f 64/2/80 41/2/80 78/2/80
f 65/2/80 41/2/80 64/2/80
f 41/2/80 65/2/80 75/2/80
f 81/2/80 41/2/80 75/2/80
f 41/2/80 81/2/80 86/2/80
f 79/2/81 86/2/81 81/2/81
f 79/2/81 85/2/81 86/2/81
f 32/2/81 85/2/81 79/2/81
f 85/2/81 32/2/81 87/2/81
f 30/2/81 87/2/81 32/2/81
f 87/2/81 30/2/81 88/2/81
f 88/2/81 30/2/81 74/2/81
f 88/2/81 74/2/81 82/2/81
f 90/2/82 84/2/82 89/2/82
f 84/2/82 90/2/82 83/2/82
f 71/2/80 82/2/80 72/2/80
f 82/2/80 71/2/80 88/2/80
f 88/2/80 71/2/80 80/2/80
f 88/2/80 80/2/80 77/2/80
f 88/2/80 77/2/80 58/2/80
f 88/2/80 58/2/80 57/2/80
f 88/2/80 57/2/80 50/2/80
f 88/2/80 50/2/80 49/2/80
f 88/2/80 49/2/80 37/2/80
f 88/2/80 37/2/80 36/2/80
f 88/2/80 36/2/80 7/2/80
f 88/2/80 7/2/80 6/2/80
f 88/2/80 6/2/80 46/2/80
f 87/2/83 84/2/83 85/2/83
f 84/2/83 87/2/83 89/2/83
f 90/2/84 52/2/84 54/2/84
f 89/2/84 52/2/84 90/2/84
f 52/2/84 89/2/84 10/2/84
f 10/2/84 89/2/84 87/2/84
f 10/2/84 87/2/84 14/2/84
f 14/2/84 87/2/84 45/2/84
f 45/2/84 87/2/84 46/2/84
f 46/2/84 87/2/84 88/2/84
f 83/2/80 54/2/80 53/2/80
f 54/2/80 83/2/80 90/2/80

