# Created by Kenney (www.kenney.nl)

mtllib split-large-left.mtl

g split-large-left

v -0.347582 0.25 0.8368726 1 1 1
v -0.3328461 0.261082 0.8667539 1 1 1
v -0.4999851 0.25 0.9 1 1 1
v 1.005397 0.3125 -0.2644749 1 1 1
v 0.8226947 0.3125 0.05197492 1 1 1
v 0.8368726 0.25 -0.347582 1 1 1
v 0.6664596 0.25 -0.05241801 1 1 1
v -1.5 0.3125 1.2875 1 1 1
v 1.5 0.3125 1.2875 1 1 1
v -1.5 0.5 1.35 1 1 1
v 1.5 0.5 1.35 1 1 1
v 0.5402681 0.5 -0.8074223 1 1 1
v 0.5995783 0.3125 -0.7872892 1 1 1
v 0.4324138 0.5 -0.5470389 1 1 1
v 0.4885887 0.3125 -0.5193366 1 1 1
v 0.1955833 0.3125 0.7125 1 1 1
v 0.34187 0.3125 0.6002502 1 1 1
v 0.3797024 0.5 0.65 1 1 1
v 0.3831676 0.5 0.6473411 1 1 1
v 0.08582533 0.25 0.3082872 1 1 1
v -0.1637705 0.25 0.4998088 1 1 1
v -0.03806727 0.3125 0.1670148 1 1 1
v -0.2681634 0.3125 0.3435737 1 1 1
v 0.4998088 0.25 -0.1637705 1 1 1
v 0.3082872 0.25 0.08582533 1 1 1
v 0.3435737 0.3125 -0.2681634 1 1 1
v 0.1670148 0.3125 -0.03806727 1 1 1
v 0.2179774 0.25 0.4589778 1 1 1
v -0.05241801 0.25 0.6664596 1 1 1
v 0.01850863 0.2924637 0.7726088 1 1 1
v 1.239805 0.3125 -0.9550188 1 1 1
v 1.145231 0.3125 -0.602065 1 1 1
v 1.055513 0.25 -0.9916767 1 1 1
v 0.967301 0.25 -0.6624641 1 1 1
v 1.2875 0.3125 -1.317298 1 1 1
v 1.1 0.25 -1.329587 1 1 1
v 1.35 0.5 -1.313201 1 1 1
v 1.301236 0.5 -0.9427995 1 1 1
v 0.9 0.25 -1.342696 1 1 1
v 0.8589354 0.25 -1.030779 1 1 1
v 0.7125 0.3125 -1.354985 1 1 1
v 0.6746435 0.3125 -1.067436 1 1 1
v 0.119924 0.5 -0.07936481 1 1 1
v -0.07936481 0.5 0.119924 1 1 1
v 1.5 0.3125 0.7125 1 1 1
v 1.5 0.25 0.9 1 1 1
v 0.2914954 0.5 -0.302961 1 1 1
v 1.2875 0.3125 -1.5 1 1 1
v 1.35 0.5 -1.5 1 1 1
v -0.72689 0.25 0.7775086 1 1 1
v -1.030779 0.25 0.8589354 1 1 1
v -0.7872892 0.3125 0.5995783 1 1 1
v -1.067436 0.3125 0.6746435 1 1 1
v -0.8074223 0.5 0.5402681 1 1 1
v -1.079656 0.5 0.6132129 1 1 1
v -0.5193366 0.3125 0.4885887 1 1 1
v -0.5470389 0.5 0.4324138 1 1 1
v 0.6132129 0.5 -1.079656 1 1 1
v 0.6002502 0.3125 0.34187 1 1 1
v 0.6473411 0.5 0.3831676 1 1 1
v 0.7775086 0.25 -0.72689 1 1 1
v 0.6571131 0.25 -0.4362295 1 1 1
v 1.061572 0.5 -0.2367726 1 1 1
v 0.874773 0.5 0.08677257 1 1 1
v 0.65 0.5 -1.5 1 1 1
v 0.7125 0.3125 -1.5 1 1 1
v 0.65 0.5 -1.359082 1 1 1
v -1.354985 0.3125 0.7125 1 1 1
v -1.359082 0.5 0.65 1 1 1
v 0.9 0.25 -1.5 1 1 1
v 1.1 0.25 -1.5 1 1 1
v 0.4589778 0.25 0.2179774 1 1 1
v -0.4362295 0.25 0.6571131 1 1 1
v -1.5 0.25 1.1 1 1 1
v -1.342696 0.25 0.9 1 1 1
v -1.5 0.25 0.9 1 1 1
v 1.5 0.25 1.1 1 1 1
v -0.302961 0.5 0.2914954 1 1 1
v 1.5 0.5 0.65 1 1 1
v 1.204541 0.5 -0.5819319 1 1 1
v -1.5 0.3125 0.7125 1 1 1
v -1.5 0.5 0.65 1 1 1
v -0.6135246 3.205931E-31 0.2975942 1 1 1
v -0.3864754 3.205931E-31 0.1665073 1 1 1
v -0.6135246 0.5 0.2975942 1 1 1
v -0.3864754 0.5 0.1665073 1 1 1
v 0.5 1.602965E-31 -1.368913 1 1 1
v 0.5 0.5 -1.368913 1 1 1
v 0.4657795 1.602965E-31 -1.108982 1 1 1
v 0.4657795 0.5 -1.108982 1 1 1
v 0.5 0 -1.5 1 1 1
v 0.5 0.5 -1.5 1 1 1
v 0.2975942 1.602965E-31 -0.6135246 1 1 1
v 0.2975942 0.5 -0.6135246 1 1 1
v 0.1665073 2.404448E-31 -0.3864754 1 1 1
v 0.1665073 0.5 -0.3864754 1 1 1
v 1.5 0.5 -1.5 1 1 1
v 1.5 0 -1.5 1 1 1
v 1.5 0.5 -1.30337 1 1 1
v 1.5 1.602965E-31 -1.30337 1 1 1
v 1.448669 0.5 -0.9134732 1 1 1
v 1.448669 1.602965E-31 -0.9134732 1 1 1
v 0.3979239 1.602965E-31 -0.8557417 1 1 1
v 0.3979239 0.5 -0.8557417 1 1 1
v 1.346886 0.5 -0.5336125 1 1 1
v 1.196391 0.5 -0.1702869 1 1 1
v 0.999761 0.5 0.1702869 1 1 1
v 0.760359 0.5 0.4822817 1 1 1
v 0.7426407 0.5 0.5 1 1 1
v 1.5 0.5 0.5 1 1 1
v 1.5 3.205931E-31 0.5 1 1 1
v 0.7426407 3.205931E-31 0.5 1 1 1
v 1.5 3.205931E-31 1.5 1 1 1
v -1.5 3.205931E-31 1.5 1 1 1
v 0.006906016 2.404448E-31 -0.1784789 1 1 1
v -0.1784789 2.404448E-31 0.006906016 1 1 1
v -0.8557417 3.205931E-31 0.3979239 1 1 1
v -1.108982 3.205931E-31 0.4657795 1 1 1
v -1.368913 4.007414E-31 0.5 1 1 1
v -1.5 3.205931E-31 0.5 1 1 1
v 0.760359 2.404448E-31 0.4822817 1 1 1
v 0.999761 2.404448E-31 0.1702869 1 1 1
v 1.196391 1.602965E-31 -0.1702869 1 1 1
v 1.346886 1.602965E-31 -0.5336125 1 1 1
v -1.108982 0.5 0.4657795 1 1 1
v -0.8557417 0.5 0.3979239 1 1 1
v -1.5 0.5 0.5 1 1 1
v -1.5 0.5 1.5 1 1 1
v 0.006906016 0.5 -0.1784789 1 1 1
v -0.1784789 0.5 0.006906016 1 1 1
v -1.368913 0.5 0.5 1 1 1
v 1.5 0.5 1.5 1 1 1

vn -0.07357119 0.9860681 -0.1491876
vn -0.1424912 0.9488813 -0.281639
vn -0.003980971 0.9999918 0.0007918643
vn -0.6419281 0.6983665 -0.3165639
vn -0.5951164 0.6983665 -0.3976441
vn -0.1491876 0.9860681 -0.07357119
vn -0.1383083 0.9860681 -0.09241468
vn 0 0.7071068 -0.7071068
vn 0 0.3162278 -0.9486833
vn 0.8981439 0.3168382 0.3048788
vn 0.6600862 0.7169931 0.2240691
vn 0.8506655 0.3168382 0.4195018
vn 0.6251922 0.7169931 0.3083107
vn -0.3018069 0.8684527 -0.3933224
vn -0.4719205 0.6983665 -0.5381222
vn -0.5775218 0.3162277 -0.752641
vn -0.6253761 0.3168382 -0.7131047
vn 0.101118 0.9881703 0.115303
vn 0.08520286 0.9881703 0.1275151
vn 0.4596169 0.7169931 0.5240926
vn 0.387277 0.7169931 0.579601
vn 0.1275151 0.9881703 0.08520286
vn 0.115303 0.9881703 0.101118
vn 0.579601 0.7169931 0.387277
vn 0.5240926 0.7169931 0.4596169
vn -0.1096769 0.9860681 -0.1250625
vn -0.09241468 0.9860681 -0.1383083
vn -0.1787964 0.9488781 -0.2601196
vn -0.7019877 0.6983665 -0.139634
vn -0.6777562 0.6983665 -0.2300672
vn -0.1631458 0.9860681 -0.03245172
vn -0.1575143 0.9860681 -0.05346889
vn -0.714208 0.6983664 -0.04681166
vn -0.1659859 0.9860681 -0.01087929
vn -0.9464489 0.3168383 -0.06203353
vn -0.9302548 0.3168382 -0.1850392
vn 0.1530327 0.9881703 0.0100303
vn 0.1504143 0.9881703 0.02991926
vn 0.6955878 0.7169931 0.04559122
vn 0.683686 0.7169931 0.1359936
vn 0.7131047 0.3168382 0.6253761
vn 0.6253761 0.3168382 0.7131047
vn 0 0.7071068 0.7071068
vn 0 0.9870875 0.1601822
vn 0 0.8684527 0.4957721
vn 0 0.9486833 0.3162278
vn 0.788632 0.3168382 0.526947
vn -0.7071068 0.7071068 0
vn -0.9486833 0.3162278 0
vn 0.04929631 0.9881703 0.1452222
vn 0.02991926 0.9881703 0.1504143
vn 0.2240691 0.7169931 0.6600862
vn 0.1359936 0.7169931 0.683686
vn 0.3048788 0.3168382 0.8981439
vn 0.1850392 0.3168382 0.9302548
vn 0.3083107 0.7169931 0.6251922
vn 0.4195018 0.3168382 0.8506655
vn 0.9302548 0.3168382 0.1850392
vn -0.5381222 0.6983665 -0.4719205
vn -0.7131047 0.3168382 -0.6253761
vn 0.1452222 0.9881703 0.04929631
vn 0.1375454 0.9881703 0.06782988
vn -0.8506655 0.3168382 -0.4195018
vn -0.788632 0.3168382 -0.526947
vn 0.9486833 0.3162278 0
vn 0.7071068 0.7071068 0
vn 0.9464489 0.3168383 0.06203353
vn 0.04559122 0.7169931 0.6955878
vn 0.06203354 0.3168383 0.9464489
vn 0.1601822 0.9870875 0
vn -0.1601822 0.9870875 0
vn -0.1250625 0.9860681 -0.1096769
vn 0.06782988 0.9881703 0.1375454
vn 0 0.9870875 -0.1601822
vn 0.0100303 0.9881703 0.1530327
vn 0.526947 0.3168382 0.788632
vn 0 0.3162278 0.9486833
vn -0.8981439 0.3168382 -0.3048788
vn -0.4422887 0 -0.8968728
vn -0.5555702 0 -0.8314696
vn -0.9978589 0 -0.06540313
vn -0.9807853 0 -0.1950903
vn -1 0 0
vn -0.8968728 0 -0.4422887
vn -0.8314696 0 -0.5555702
vn 1 0 0
vn 0.9978589 0 0.06540313
vn 0.9807853 0 0.1950903
vn -0.9469302 0 -0.3214395
vn 0 1 0
vn 0 -1 0
vn -0.1950903 0 -0.9807853
vn -0.3214395 0 -0.9469302
vn 0 0 -1
vn 0.8968728 0 0.4422887
vn 0.8314696 0 0.5555702
vn -0.7518399 0 -0.6593459
vn 0.7518399 0 0.6593459
vn -0.6593459 0 -0.7518399
vn 0.7071068 0 0.7071068
vn 0.9469302 0 0.3214395
vn -0.06540313 0 -0.9978589
vn 0 0 1

vt 0.28125 0.375
vt 0.90625 0.375

usemtl colormap

f 3/1/3 2/1/2 1/1/1
f 6/1/6 5/1/5 4/1/4
f 5/1/5 6/1/6 7/1/7
f 10/1/9 9/1/8 8/1/8
f 9/1/8 10/1/9 11/1/9
f 14/1/12 13/1/11 12/1/10
f 13/1/11 14/1/12 15/1/13
f 18/1/16 17/1/15 16/1/14
f 17/1/15 18/1/16 19/1/17
f 22/1/20 21/1/19 20/1/18
f 21/1/19 22/1/20 23/1/21
f 26/1/24 25/1/23 24/1/22
f 25/1/23 26/1/24 27/1/25
f 28/1/26 16/1/14 17/1/15
f 16/1/14 28/1/26 29/1/27
f 16/1/14 29/1/27 30/1/28
f 33/1/31 32/1/30 31/1/29
f 32/1/30 33/1/31 34/1/32
f 36/1/34 31/1/29 35/1/33
f 31/1/29 36/1/34 33/1/31
f 31/1/29 37/1/35 35/1/33
f 37/1/35 31/1/29 38/1/36
f 41/1/39 40/1/38 39/1/37
f 40/1/38 41/1/39 42/1/40
f 29/1/27 2/1/2 30/1/28
f 2/1/2 29/1/27 1/1/1
f 44/1/42 27/1/25 43/1/41
f 27/1/25 44/1/42 22/1/20
f 16/1/45 46/1/44 45/1/43
f 46/1/44 16/1/45 30/1/46
f 46/1/44 30/1/46 2/1/46
f 46/1/44 2/1/46 3/1/3
f 43/1/41 26/1/24 47/1/47
f 26/1/24 43/1/41 27/1/25
f 35/1/33 49/1/49 48/1/48
f 49/1/49 35/1/33 37/1/35
f 52/1/52 51/1/51 50/1/50
f 51/1/51 52/1/52 53/1/53
f 54/1/54 53/1/53 52/1/52
f 53/1/53 54/1/54 55/1/55
f 57/1/57 52/1/52 56/1/56
f 52/1/52 57/1/57 54/1/54
f 12/1/10 42/1/40 58/1/58
f 42/1/40 12/1/10 13/1/11
f 17/1/15 60/1/60 59/1/59
f 60/1/60 17/1/15 19/1/17
f 13/1/11 62/1/62 61/1/61
f 62/1/62 13/1/11 15/1/13
f 34/1/32 4/1/4 32/1/30
f 4/1/4 34/1/32 6/1/6
f 5/1/5 63/1/63 4/1/4
f 63/1/63 5/1/5 64/1/64
f 67/1/67 66/1/66 65/1/65
f 66/1/66 67/1/67 41/1/39
f 55/1/55 68/1/68 53/1/53
f 68/1/68 55/1/55 69/1/69
f 70/1/70 41/1/39 39/1/37
f 41/1/39 70/1/70 66/1/66
f 42/1/40 61/1/61 40/1/38
f 61/1/61 42/1/40 13/1/11
f 48/1/48 36/1/34 35/1/33
f 36/1/34 48/1/48 71/1/71
f 15/1/13 24/1/22 62/1/62
f 24/1/22 15/1/13 26/1/24
f 71/1/71 33/1/31 36/1/34
f 33/1/31 71/1/71 70/1/70
f 33/1/31 70/1/70 34/1/32
f 34/1/32 70/1/70 39/1/37
f 39/1/37 6/1/6 34/1/32
f 6/1/6 39/1/37 40/1/38
f 6/1/6 40/1/38 61/1/61
f 6/1/6 61/1/61 7/1/7
f 7/1/7 61/1/61 62/1/62
f 7/1/7 62/1/62 72/1/72
f 72/1/72 62/1/62 24/1/22
f 72/1/72 24/1/22 25/1/23
f 72/1/72 25/1/23 28/1/26
f 28/1/26 25/1/23 20/1/18
f 28/1/26 20/1/18 29/1/27
f 29/1/27 20/1/18 21/1/19
f 29/1/27 21/1/19 1/1/1
f 1/1/1 21/1/19 73/1/73
f 1/1/1 73/1/73 3/1/3
f 3/1/3 73/1/73 50/1/50
f 74/1/74 3/1/3 50/1/50
f 74/1/74 50/1/50 51/1/51
f 74/1/74 51/1/51 75/1/75
f 74/1/74 75/1/75 76/1/44
f 77/1/74 3/1/3 74/1/74
f 3/1/3 77/1/74 46/1/44
f 56/1/56 50/1/50 73/1/73
f 50/1/50 56/1/56 52/1/52
f 78/1/76 56/1/56 23/1/21
f 56/1/56 78/1/76 57/1/57
f 79/1/77 16/1/45 45/1/43
f 16/1/45 79/1/77 18/1/77
f 47/1/47 15/1/13 14/1/12
f 15/1/13 47/1/47 26/1/24
f 72/1/72 17/1/15 59/1/59
f 17/1/15 72/1/72 28/1/26
f 74/1/74 9/1/8 77/1/74
f 9/1/8 74/1/74 8/1/8
f 32/1/30 38/1/36 31/1/29
f 38/1/36 32/1/30 80/1/78
f 59/1/59 64/1/64 5/1/5
f 64/1/64 59/1/59 60/1/60
f 53/1/53 75/1/75 51/1/51
f 75/1/75 53/1/53 68/1/68
f 7/1/7 59/1/59 5/1/5
f 59/1/59 7/1/7 72/1/72
f 58/1/58 41/1/39 67/1/67
f 41/1/39 58/1/58 42/1/40
f 69/1/69 81/1/43 68/1/68
f 81/1/43 69/1/69 82/1/77
f 27/1/25 20/1/18 25/1/23
f 20/1/18 27/1/25 22/1/20
f 44/1/42 23/1/21 22/1/20
f 23/1/21 44/1/42 78/1/76
f 4/1/4 80/1/78 32/1/30
f 80/1/78 4/1/4 63/1/63
f 68/1/68 76/1/44 75/1/75
f 76/1/44 68/1/68 81/1/43
f 23/1/21 73/1/73 21/1/19
f 73/1/73 23/1/21 56/1/56
f 85/2/79 84/2/80 83/2/79
f 84/2/80 85/2/79 86/2/80
f 89/2/82 88/2/81 87/2/81
f 88/2/81 89/2/82 90/2/82
f 87/2/81 92/2/83 91/2/83
f 92/2/83 87/2/81 88/2/81
f 95/2/85 94/2/84 93/2/84
f 94/2/84 95/2/85 96/2/85
f 99/2/87 98/2/86 97/2/86
f 98/2/86 99/2/87 100/2/87
f 101/2/88 100/2/87 99/2/87
f 100/2/87 101/2/88 102/2/88
f 103/2/89 90/2/82 89/2/82
f 90/2/82 103/2/89 104/2/89
f 97/2/90 101/2/90 99/2/90
f 101/2/90 97/2/90 49/2/90
f 101/2/90 49/2/90 37/2/90
f 37/2/90 105/2/90 101/2/90
f 105/2/90 37/2/90 38/2/90
f 105/2/90 38/2/90 106/2/90
f 106/2/90 38/2/90 80/2/90
f 106/2/90 80/2/90 63/2/90
f 106/2/90 63/2/90 107/2/90
f 107/2/90 63/2/90 64/2/90
f 107/2/90 64/2/90 108/2/90
f 108/2/90 64/2/90 60/2/90
f 108/2/90 60/2/90 109/2/90
f 19/2/90 109/2/90 60/2/90
f 18/2/90 109/2/90 19/2/90
f 79/2/90 109/2/90 18/2/90
f 109/2/90 79/2/90 110/2/90
f 113/2/91 112/2/91 111/2/91
f 112/2/91 113/2/91 114/2/91
f 112/2/91 114/2/91 115/2/91
f 112/2/91 115/2/91 95/2/91
f 115/2/91 114/2/91 116/2/91
f 112/2/91 95/2/91 93/2/91
f 116/2/91 114/2/91 84/2/91
f 112/2/91 93/2/91 103/2/91
f 84/2/91 114/2/91 83/2/91
f 112/2/91 103/2/91 89/2/91
f 112/2/91 89/2/91 87/2/91
f 83/2/91 114/2/91 117/2/91
f 117/2/91 114/2/91 118/2/91
f 118/2/91 114/2/91 119/2/91
f 119/2/91 114/2/91 120/2/91
f 91/2/91 112/2/91 87/2/91
f 91/2/91 121/2/91 112/2/91
f 91/2/91 122/2/91 121/2/91
f 91/2/91 123/2/91 122/2/91
f 91/2/91 124/2/91 123/2/91
f 91/2/91 102/2/91 124/2/91
f 98/2/91 102/2/91 91/2/91
f 102/2/91 98/2/91 100/2/91
f 125/2/92 117/2/93 118/2/92
f 117/2/93 125/2/92 126/2/93
f 109/2/94 111/2/94 112/2/94
f 111/2/94 109/2/94 110/2/94
f 107/2/96 123/2/95 106/2/95
f 123/2/95 107/2/96 122/2/96
f 127/2/83 81/2/83 82/2/83
f 120/2/83 81/2/83 127/2/83
f 81/2/83 120/2/83 114/2/83
f 81/2/83 114/2/83 76/2/83
f 76/2/83 114/2/83 74/2/83
f 74/2/83 114/2/83 8/2/83
f 8/2/83 114/2/83 10/2/83
f 10/2/83 114/2/83 128/2/83
f 115/2/97 96/2/85 95/2/85
f 96/2/85 115/2/97 129/2/97
f 108/2/98 122/2/96 107/2/96
f 122/2/96 108/2/98 121/2/98
f 65/2/90 58/2/90 67/2/90
f 58/2/90 65/2/90 92/2/90
f 58/2/90 92/2/90 12/2/90
f 12/2/90 92/2/90 88/2/90
f 88/2/90 14/2/90 12/2/90
f 14/2/90 88/2/90 90/2/90
f 14/2/90 90/2/90 104/2/90
f 14/2/90 104/2/90 47/2/90
f 47/2/90 104/2/90 94/2/90
f 47/2/90 94/2/90 96/2/90
f 47/2/90 96/2/90 43/2/90
f 43/2/90 96/2/90 129/2/90
f 43/2/90 129/2/90 44/2/90
f 44/2/90 129/2/90 130/2/90
f 44/2/90 130/2/90 78/2/90
f 78/2/90 130/2/90 86/2/90
f 78/2/90 86/2/90 57/2/90
f 57/2/90 86/2/90 85/2/90
f 57/2/90 85/2/90 54/2/90
f 54/2/90 85/2/90 126/2/90
f 54/2/90 126/2/90 55/2/90
f 55/2/90 126/2/90 125/2/90
f 55/2/90 125/2/90 69/2/90
f 69/2/90 125/2/90 131/2/90
f 69/2/90 131/2/90 82/2/90
f 82/2/90 131/2/90 127/2/90
f 116/2/99 129/2/97 115/2/97
f 129/2/97 116/2/99 130/2/99
f 126/2/93 83/2/79 117/2/93
f 83/2/79 126/2/93 85/2/79
f 108/2/98 112/2/100 121/2/98
f 112/2/100 108/2/98 109/2/100
f 106/2/95 124/2/101 105/2/101
f 124/2/101 106/2/95 123/2/95
f 84/2/80 130/2/99 116/2/99
f 130/2/99 84/2/80 86/2/80
f 119/2/102 125/2/92 118/2/92
f 125/2/92 119/2/102 131/2/102
f 66/2/94 92/2/94 65/2/94
f 66/2/94 91/2/94 92/2/94
f 91/2/94 66/2/94 98/2/94
f 98/2/94 66/2/94 70/2/94
f 71/2/94 98/2/94 70/2/94
f 48/2/94 98/2/94 71/2/94
f 98/2/94 48/2/94 97/2/94
f 97/2/94 48/2/94 49/2/94
f 79/2/86 111/2/86 110/2/86
f 111/2/86 79/2/86 45/2/86
f 111/2/86 45/2/86 113/2/86
f 113/2/86 45/2/86 46/2/86
f 113/2/86 46/2/86 77/2/86
f 113/2/86 77/2/86 9/2/86
f 113/2/86 9/2/86 11/2/86
f 113/2/86 11/2/86 132/2/86
f 93/2/84 104/2/89 103/2/89
f 104/2/89 93/2/84 94/2/84
f 105/2/101 102/2/88 101/2/88
f 102/2/88 105/2/101 124/2/101
f 127/2/94 119/2/102 120/2/94
f 119/2/102 127/2/94 131/2/102
f 10/2/90 132/2/90 11/2/90
f 132/2/90 10/2/90 128/2/90
f 132/2/103 114/2/103 113/2/103
f 114/2/103 132/2/103 128/2/103

g split-large-left




usemtl colormap

f 3/1/3 2/1/2 1/1/1
f 6/1/6 5/1/5 4/1/4
f 5/1/5 6/1/6 7/1/7
f 10/1/9 9/1/8 8/1/8
f 9/1/8 10/1/9 11/1/9
f 14/1/12 13/1/11 12/1/10
f 13/1/11 14/1/12 15/1/13
f 18/1/16 17/1/15 16/1/14
f 17/1/15 18/1/16 19/1/17
f 22/1/20 21/1/19 20/1/18
f 21/1/19 22/1/20 23/1/21
f 26/1/24 25/1/23 24/1/22
f 25/1/23 26/1/24 27/1/25
f 28/1/26 16/1/14 17/1/15
f 16/1/14 28/1/26 29/1/27
f 16/1/14 29/1/27 30/1/28
f 33/1/31 32/1/30 31/1/29
f 32/1/30 33/1/31 34/1/32
f 36/1/34 31/1/29 35/1/33
f 31/1/29 36/1/34 33/1/31
f 31/1/29 37/1/35 35/1/33
f 37/1/35 31/1/29 38/1/36
f 41/1/39 40/1/38 39/1/37
f 40/1/38 41/1/39 42/1/40
f 29/1/27 2/1/2 30/1/28
f 2/1/2 29/1/27 1/1/1
f 44/1/42 27/1/25 43/1/41
f 27/1/25 44/1/42 22/1/20
f 16/1/45 46/1/44 45/1/43
f 46/1/44 16/1/45 30/1/46
f 46/1/44 30/1/46 2/1/46
f 46/1/44 2/1/46 3/1/3
f 43/1/41 26/1/24 47/1/47
f 26/1/24 43/1/41 27/1/25
f 35/1/33 49/1/49 48/1/48
f 49/1/49 35/1/33 37/1/35
f 52/1/52 51/1/51 50/1/50
f 51/1/51 52/1/52 53/1/53
f 54/1/54 53/1/53 52/1/52
f 53/1/53 54/1/54 55/1/55
f 57/1/57 52/1/52 56/1/56
f 52/1/52 57/1/57 54/1/54
f 12/1/10 42/1/40 58/1/58
f 42/1/40 12/1/10 13/1/11
f 17/1/15 60/1/60 59/1/59
f 60/1/60 17/1/15 19/1/17
f 13/1/11 62/1/62 61/1/61
f 62/1/62 13/1/11 15/1/13
f 34/1/32 4/1/4 32/1/30
f 4/1/4 34/1/32 6/1/6
f 5/1/5 63/1/63 4/1/4
f 63/1/63 5/1/5 64/1/64
f 67/1/67 66/1/66 65/1/65
f 66/1/66 67/1/67 41/1/39
f 55/1/55 68/1/68 53/1/53
f 68/1/68 55/1/55 69/1/69
f 70/1/70 41/1/39 39/1/37
f 41/1/39 70/1/70 66/1/66
f 42/1/40 61/1/61 40/1/38
f 61/1/61 42/1/40 13/1/11
f 48/1/48 36/1/34 35/1/33
f 36/1/34 48/1/48 71/1/71
f 15/1/13 24/1/22 62/1/62
f 24/1/22 15/1/13 26/1/24
f 71/1/71 33/1/31 36/1/34
f 33/1/31 71/1/71 70/1/70
f 33/1/31 70/1/70 34/1/32
f 34/1/32 70/1/70 39/1/37
f 39/1/37 6/1/6 34/1/32
f 6/1/6 39/1/37 40/1/38
f 6/1/6 40/1/38 61/1/61
f 6/1/6 61/1/61 7/1/7
f 7/1/7 61/1/61 62/1/62
f 7/1/7 62/1/62 72/1/72
f 72/1/72 62/1/62 24/1/22
f 72/1/72 24/1/22 25/1/23
f 72/1/72 25/1/23 28/1/26
f 28/1/26 25/1/23 20/1/18
f 28/1/26 20/1/18 29/1/27
f 29/1/27 20/1/18 21/1/19
f 29/1/27 21/1/19 1/1/1
f 1/1/1 21/1/19 73/1/73
f 1/1/1 73/1/73 3/1/3
f 3/1/3 73/1/73 50/1/50
f 74/1/74 3/1/3 50/1/50
f 74/1/74 50/1/50 51/1/51
f 74/1/74 51/1/51 75/1/75
f 74/1/74 75/1/75 76/1/44
f 77/1/74 3/1/3 74/1/74
f 3/1/3 77/1/74 46/1/44
f 56/1/56 50/1/50 73/1/73
f 50/1/50 56/1/56 52/1/52
f 78/1/76 56/1/56 23/1/21
f 56/1/56 78/1/76 57/1/57
f 79/1/77 16/1/45 45/1/43
f 16/1/45 79/1/77 18/1/77
f 47/1/47 15/1/13 14/1/12
f 15/1/13 47/1/47 26/1/24
f 72/1/72 17/1/15 59/1/59
f 17/1/15 72/1/72 28/1/26
f 74/1/74 9/1/8 77/1/74
f 9/1/8 74/1/74 8/1/8
f 32/1/30 38/1/36 31/1/29
f 38/1/36 32/1/30 80/1/78
f 59/1/59 64/1/64 5/1/5
f 64/1/64 59/1/59 60/1/60
f 53/1/53 75/1/75 51/1/51
f 75/1/75 53/1/53 68/1/68
f 7/1/7 59/1/59 5/1/5
f 59/1/59 7/1/7 72/1/72
f 58/1/58 41/1/39 67/1/67
f 41/1/39 58/1/58 42/1/40
f 69/1/69 81/1/43 68/1/68
f 81/1/43 69/1/69 82/1/77
f 27/1/25 20/1/18 25/1/23
f 20/1/18 27/1/25 22/1/20
f 44/1/42 23/1/21 22/1/20
f 23/1/21 44/1/42 78/1/76
f 4/1/4 80/1/78 32/1/30
f 80/1/78 4/1/4 63/1/63
f 68/1/68 76/1/44 75/1/75
f 76/1/44 68/1/68 81/1/43
f 23/1/21 73/1/73 21/1/19
f 73/1/73 23/1/21 56/1/56
f 85/2/79 84/2/80 83/2/79
f 84/2/80 85/2/79 86/2/80
f 89/2/82 88/2/81 87/2/81
f 88/2/81 89/2/82 90/2/82
f 87/2/81 92/2/83 91/2/83
f 92/2/83 87/2/81 88/2/81
f 95/2/85 94/2/84 93/2/84
f 94/2/84 95/2/85 96/2/85
f 99/2/87 98/2/86 97/2/86
f 98/2/86 99/2/87 100/2/87
f 101/2/88 100/2/87 99/2/87
f 100/2/87 101/2/88 102/2/88
f 103/2/89 90/2/82 89/2/82
f 90/2/82 103/2/89 104/2/89
f 97/2/90 101/2/90 99/2/90
f 101/2/90 97/2/90 49/2/90
f 101/2/90 49/2/90 37/2/90
f 37/2/90 105/2/90 101/2/90
f 105/2/90 37/2/90 38/2/90
f 105/2/90 38/2/90 106/2/90
f 106/2/90 38/2/90 80/2/90
f 106/2/90 80/2/90 63/2/90
f 106/2/90 63/2/90 107/2/90
f 107/2/90 63/2/90 64/2/90
f 107/2/90 64/2/90 108/2/90
f 108/2/90 64/2/90 60/2/90
f 108/2/90 60/2/90 109/2/90
f 19/2/90 109/2/90 60/2/90
f 18/2/90 109/2/90 19/2/90
f 79/2/90 109/2/90 18/2/90
f 109/2/90 79/2/90 110/2/90
f 113/2/91 112/2/91 111/2/91
f 112/2/91 113/2/91 114/2/91
f 112/2/91 114/2/91 115/2/91
f 112/2/91 115/2/91 95/2/91
f 115/2/91 114/2/91 116/2/91
f 112/2/91 95/2/91 93/2/91
f 116/2/91 114/2/91 84/2/91
f 112/2/91 93/2/91 103/2/91
f 84/2/91 114/2/91 83/2/91
f 112/2/91 103/2/91 89/2/91
f 112/2/91 89/2/91 87/2/91
f 83/2/91 114/2/91 117/2/91
f 117/2/91 114/2/91 118/2/91
f 118/2/91 114/2/91 119/2/91
f 119/2/91 114/2/91 120/2/91
f 91/2/91 112/2/91 87/2/91
f 91/2/91 121/2/91 112/2/91
f 91/2/91 122/2/91 121/2/91
f 91/2/91 123/2/91 122/2/91
f 91/2/91 124/2/91 123/2/91
f 91/2/91 102/2/91 124/2/91
f 98/2/91 102/2/91 91/2/91
f 102/2/91 98/2/91 100/2/91
f 125/2/92 117/2/93 118/2/92
f 117/2/93 125/2/92 126/2/93
f 109/2/94 111/2/94 112/2/94
f 111/2/94 109/2/94 110/2/94
f 107/2/96 123/2/95 106/2/95
f 123/2/95 107/2/96 122/2/96
f 127/2/83 81/2/83 82/2/83
f 120/2/83 81/2/83 127/2/83
f 81/2/83 120/2/83 114/2/83
f 81/2/83 114/2/83 76/2/83
f 76/2/83 114/2/83 74/2/83
f 74/2/83 114/2/83 8/2/83
f 8/2/83 114/2/83 10/2/83
f 10/2/83 114/2/83 128/2/83
f 115/2/97 96/2/85 95/2/85
f 96/2/85 115/2/97 129/2/97
f 108/2/98 122/2/96 107/2/96
f 122/2/96 108/2/98 121/2/98
f 65/2/90 58/2/90 67/2/90
f 58/2/90 65/2/90 92/2/90
f 58/2/90 92/2/90 12/2/90
f 12/2/90 92/2/90 88/2/90
f 88/2/90 14/2/90 12/2/90
f 14/2/90 88/2/90 90/2/90
f 14/2/90 90/2/90 104/2/90
f 14/2/90 104/2/90 47/2/90
f 47/2/90 104/2/90 94/2/90
f 47/2/90 94/2/90 96/2/90
f 47/2/90 96/2/90 43/2/90
f 43/2/90 96/2/90 129/2/90
f 43/2/90 129/2/90 44/2/90
f 44/2/90 129/2/90 130/2/90
f 44/2/90 130/2/90 78/2/90
f 78/2/90 130/2/90 86/2/90
f 78/2/90 86/2/90 57/2/90
f 57/2/90 86/2/90 85/2/90
f 57/2/90 85/2/90 54/2/90
f 54/2/90 85/2/90 126/2/90
f 54/2/90 126/2/90 55/2/90
f 55/2/90 126/2/90 125/2/90
f 55/2/90 125/2/90 69/2/90
f 69/2/90 125/2/90 131/2/90
f 69/2/90 131/2/90 82/2/90
f 82/2/90 131/2/90 127/2/90
f 116/2/99 129/2/97 115/2/97
f 129/2/97 116/2/99 130/2/99
f 126/2/93 83/2/79 117/2/93
f 83/2/79 126/2/93 85/2/79
f 108/2/98 112/2/100 121/2/98
f 112/2/100 108/2/98 109/2/100
f 106/2/95 124/2/101 105/2/101
f 124/2/101 106/2/95 123/2/95
f 84/2/80 130/2/99 116/2/99
f 130/2/99 84/2/80 86/2/80
f 119/2/102 125/2/92 118/2/92
f 125/2/92 119/2/102 131/2/102
f 66/2/94 92/2/94 65/2/94
f 66/2/94 91/2/94 92/2/94
f 91/2/94 66/2/94 98/2/94
f 98/2/94 66/2/94 70/2/94
f 71/2/94 98/2/94 70/2/94
f 48/2/94 98/2/94 71/2/94
f 98/2/94 48/2/94 97/2/94
f 97/2/94 48/2/94 49/2/94
f 79/2/86 111/2/86 110/2/86
f 111/2/86 79/2/86 45/2/86
f 111/2/86 45/2/86 113/2/86
f 113/2/86 45/2/86 46/2/86
f 113/2/86 46/2/86 77/2/86
f 113/2/86 77/2/86 9/2/86
f 113/2/86 9/2/86 11/2/86
f 113/2/86 11/2/86 132/2/86
f 93/2/84 104/2/89 103/2/89
f 104/2/89 93/2/84 94/2/84
f 105/2/101 102/2/88 101/2/88
f 102/2/88 105/2/101 124/2/101
f 127/2/94 119/2/102 120/2/94
f 119/2/102 127/2/94 131/2/102
f 10/2/90 132/2/90 11/2/90
f 132/2/90 10/2/90 128/2/90
f 132/2/103 114/2/103 113/2/103
f 114/2/103 132/2/103 128/2/103

