# Created by Kenney (www.kenney.nl)

mtllib split-solid-left.mtl

g split-solid-left

v -0.01757695 0.25 0.2803186 1 1 1
v 0.02324413 0.2721608 0.3335177 1 1 1
v -0.2248711 0.25 0.4 1 1 1
v 0.430356 0.3125 0.09755076 1 1 1
v 0.4803684 0.5 0.1359267 1 1 1
v 0.3154067 0.3125 0.2125 1 1 1
v 0.4662951 0.5 0.15 1 1 1
v 0.6 0.25 -0.789356 1 1 1
v 0.4909627 0.25 -0.382423 1 1 1
v 0.6 0.25 -1 1 1 1
v 0.4 0.25 -1 1 1 1
v 0.4 0.25 -0.8156865 1 1 1
v 0.2803186 0.25 -0.01757695 1 1 1
v 0.3045923 0.25 -0.4596201 1 1 1
v 0.1202788 0.25 -0.1403798 1 1 1
v -0.1403798 0.25 0.1202788 1 1 1
v -0.4596201 0.25 0.3045923 1 1 1
v -1 0.25 0.6 1 1 1
v -0.8156865 0.25 0.4 1 1 1
v -1 0.25 0.4 1 1 1
v 0.2284271 0.25 0.6 1 1 1
v 1 0.25 0.4 1 1 1
v 1 0.25 0.6 1 1 1
v -1 0.3125 0.7875 1 1 1
v 1 0.3125 0.7875 1 1 1
v -1 0.5 0.85 1 1 1
v 1 0.5 0.85 1 1 1
v 0.1298701 0.3125 -0.5319925 1 1 1
v -0.02975852 0.3125 -0.2555075 1 1 1
v 0.7875 0.3125 -0.7646711 1 1 1
v 0.7875 0.3125 -1 1 1 1
v 0.85 0.5 -1 1 1 1
v 0.85 0.5 -0.7564428 1 1 1
v -0.2555075 0.3125 -0.02975852 1 1 1
v -0.07977097 0.5 -0.2938834 1 1 1
v -0.2938834 0.5 -0.07977097 1 1 1
v -0.5319925 0.3125 0.1298701 1 1 1
v -0.5561166 0.5 0.07162941 1 1 1
v 0.2125 0.3125 -0.8403714 1 1 1
v 0.2125 0.3125 -1 1 1 1
v 1 0.3125 0.2125 1 1 1
v -0.8403714 0.3125 0.2125 1 1 1
v -1 0.3125 0.2125 1 1 1
v -0.8485997 0.5 0.15 1 1 1
v -1 0.5 0.15 1 1 1
v 1 0.5 0.15 1 1 1
v 0.6656848 0.3125 -0.3100508 1 1 1
v 0.7239256 0.5 -0.2859267 1 1 1
v 0.07162941 0.5 -0.5561166 1 1 1
v 0.15 0.5 -1 1 1 1
v 0.15 0.5 -0.8485997 1 1 1
v 1 0.5 -1 1 1 1
v 1 0 -1 1 1 1
v 1 0 1 1 1 1
v 1 0.5 1 1 1 1
v -1 0.5 1 1 1 1
v -1 0.5 -1 1 1 1
v -1 0 -1 1 1 1
v -1 3.205931E-31 1 1 1 1

vn -0.1045648 0.9851377 -0.1362715
vn -0.1984461 0.9494509 -0.243233
vn -0.006928394 0.9999743 0.001856458
vn -0.5736365 0.6907925 -0.4401667
vn -0.7519897 0.3186804 -0.577022
vn -0.3648326 0.856618 -0.3648326
vn -0.6708204 0.3162277 -0.6708204
vn -0.170297 0.9851377 -0.02242002
vn -0.1586915 0.9851377 -0.06573217
vn -0.1601822 0.9870875 0
vn 0.1601822 0.9870875 0
vn 0.1447064 0.9892913 0.01905096
vn -0.1362715 0.9851377 -0.1045648
vn 0.1348449 0.9892913 0.0558546
vn 0.115794 0.9892913 0.08885183
vn 0.08885183 0.9892913 0.115794
vn 0.0558546 0.9892913 0.1348449
vn 0 0.9870875 -0.1601822
vn 0.01905096 0.9892913 0.1447064
vn 0 0.9870875 0.1601822
vn 0 0.7071068 -0.7071068
vn 0 0.3162278 -0.9486833
vn 0.633389 0.7280018 0.2623583
vn 0.5439035 0.7280018 0.4173518
vn -0.7168672 0.6907926 -0.09437736
vn -0.7071068 0.7071068 0
vn -0.9486833 0.3162278 0
vn -0.9397532 0.3186805 -0.1237208
vn 0.4173518 0.7280018 0.5439035
vn 0.7519897 0.3186804 0.577022
vn 0.577022 0.3186804 0.7519897
vn 0.2623583 0.7280018 0.6333889
vn 0.3627311 0.3186804 0.8757104
vn 0.6797101 0.7280018 0.08948553
vn 0.7071068 0.7071068 0
vn 0 0.7071068 0.7071068
vn 0 0.9486833 0.3162278
vn 0 0.856618 0.5159512
vn 0.08948553 0.7280018 0.6797101
vn 0.1237209 0.3186804 0.9397532
vn 0 0.3162278 0.9486833
vn -0.6680139 0.6907926 -0.2767004
vn -0.8757104 0.3186804 -0.3627311
vn 0.8757104 0.3186804 0.3627311
vn 0.9486833 0.3162278 0
vn 0.9397532 0.3186805 0.1237208
vn 1 0 0
vn 0 1 0
vn -1 0 0
vn 0 0 1
vn 0 0 -1
vn 0 -1 0

vt 0.28125 0.375
vt 0.90625 0.375

usemtl colormap

f 3/1/3 2/1/2 1/1/1
f 6/1/6 5/1/5 4/1/4
f 5/1/5 6/1/6 7/1/7
f 10/1/10 9/1/9 8/1/8
f 9/1/9 10/1/10 11/1/11
f 9/1/9 11/1/11 12/1/12
f 12/1/12 13/1/13 9/1/9
f 13/1/13 12/1/12 14/1/14
f 13/1/13 14/1/14 15/1/15
f 13/1/13 15/1/15 1/1/1
f 1/1/1 15/1/15 16/1/16
f 1/1/1 16/1/16 3/1/3
f 3/1/3 16/1/16 17/1/17
f 18/1/18 3/1/3 17/1/17
f 18/1/18 17/1/17 19/1/19
f 18/1/18 19/1/19 20/1/20
f 21/1/18 3/1/3 18/1/18
f 21/1/18 22/1/20 3/1/3
f 22/1/20 21/1/18 23/1/18
f 26/1/22 25/1/21 24/1/21
f 25/1/21 26/1/22 27/1/22
f 23/1/18 24/1/21 25/1/21
f 24/1/21 23/1/18 21/1/18
f 24/1/21 21/1/18 18/1/18
f 13/1/13 6/1/6 4/1/4
f 6/1/6 13/1/13 2/1/2
f 2/1/2 13/1/13 1/1/1
f 28/1/23 15/1/15 14/1/14
f 15/1/15 28/1/23 29/1/24
f 31/1/26 8/1/8 30/1/25
f 8/1/8 31/1/26 10/1/10
f 31/1/26 33/1/28 32/1/27
f 33/1/28 31/1/26 30/1/25
f 35/1/30 34/1/29 29/1/24
f 34/1/29 35/1/30 36/1/31
f 36/1/31 37/1/32 34/1/29
f 37/1/32 36/1/31 38/1/33
f 11/1/11 39/1/34 12/1/12
f 39/1/34 11/1/11 40/1/35
f 41/1/36 3/1/3 22/1/20
f 3/1/3 41/1/36 2/1/37
f 2/1/37 41/1/36 6/1/38
f 44/1/40 43/1/36 42/1/39
f 43/1/36 44/1/40 45/1/41
f 46/1/41 6/1/38 41/1/36
f 6/1/38 46/1/41 7/1/41
f 4/1/4 48/1/43 47/1/42
f 48/1/43 4/1/4 5/1/5
f 9/1/9 4/1/4 47/1/42
f 4/1/4 9/1/9 13/1/13
f 39/1/34 14/1/14 12/1/12
f 14/1/14 39/1/34 28/1/23
f 8/1/8 47/1/42 30/1/25
f 47/1/42 8/1/8 9/1/9
f 38/1/33 42/1/39 37/1/32
f 42/1/39 38/1/33 44/1/40
f 34/1/29 17/1/17 16/1/16
f 17/1/17 34/1/29 37/1/32
f 42/1/39 20/1/20 19/1/19
f 20/1/20 42/1/39 43/1/36
f 29/1/24 16/1/16 15/1/15
f 16/1/16 29/1/24 34/1/29
f 35/1/30 28/1/23 49/1/44
f 28/1/23 35/1/30 29/1/24
f 50/1/45 39/1/34 40/1/35
f 39/1/34 50/1/45 51/1/46
f 47/1/42 33/1/28 30/1/25
f 33/1/28 47/1/42 48/1/43
f 37/1/32 19/1/19 17/1/17
f 19/1/19 37/1/32 42/1/39
f 49/1/44 39/1/34 51/1/46
f 39/1/34 49/1/44 28/1/23
f 46/2/47 53/2/47 52/2/47
f 53/2/47 46/2/47 41/2/47
f 53/2/47 41/2/47 54/2/47
f 54/2/47 41/2/47 22/2/47
f 54/2/47 22/2/47 23/2/47
f 54/2/47 23/2/47 25/2/47
f 54/2/47 25/2/47 27/2/47
f 54/2/47 27/2/47 55/2/47
f 27/2/48 56/2/48 55/2/48
f 56/2/48 27/2/48 26/2/48
f 50/2/48 49/2/48 51/2/48
f 49/2/48 50/2/48 57/2/48
f 49/2/48 57/2/48 35/2/48
f 35/2/48 57/2/48 36/2/48
f 36/2/48 57/2/48 38/2/48
f 38/2/48 57/2/48 44/2/48
f 44/2/48 57/2/48 45/2/48
f 59/2/49 57/2/49 58/2/49
f 57/2/49 59/2/49 43/2/49
f 57/2/49 43/2/49 45/2/49
f 43/2/49 59/2/49 20/2/49
f 20/2/49 59/2/49 18/2/49
f 18/2/49 59/2/49 24/2/49
f 24/2/49 59/2/49 26/2/49
f 26/2/49 59/2/49 56/2/49
f 55/2/50 59/2/50 54/2/50
f 59/2/50 55/2/50 56/2/50
f 57/2/51 53/2/51 58/2/51
f 53/2/51 57/2/51 11/2/51
f 11/2/51 57/2/51 40/2/51
f 40/2/51 57/2/51 50/2/51
f 10/2/51 53/2/51 11/2/51
f 31/2/51 53/2/51 10/2/51
f 53/2/51 31/2/51 52/2/51
f 52/2/51 31/2/51 32/2/51
f 59/2/52 53/2/52 54/2/52
f 53/2/52 59/2/52 58/2/52
f 32/2/48 33/2/48 52/2/48
f 48/2/48 52/2/48 33/2/48
f 48/2/48 46/2/48 52/2/48
f 5/2/48 46/2/48 48/2/48
f 46/2/48 5/2/48 7/2/48

g split-solid-left




usemtl colormap

f 3/1/3 2/1/2 1/1/1
f 6/1/6 5/1/5 4/1/4
f 5/1/5 6/1/6 7/1/7
f 10/1/10 9/1/9 8/1/8
f 9/1/9 10/1/10 11/1/11
f 9/1/9 11/1/11 12/1/12
f 12/1/12 13/1/13 9/1/9
f 13/1/13 12/1/12 14/1/14
f 13/1/13 14/1/14 15/1/15
f 13/1/13 15/1/15 1/1/1
f 1/1/1 15/1/15 16/1/16
f 1/1/1 16/1/16 3/1/3
f 3/1/3 16/1/16 17/1/17
f 18/1/18 3/1/3 17/1/17
f 18/1/18 17/1/17 19/1/19
f 18/1/18 19/1/19 20/1/20
f 21/1/18 3/1/3 18/1/18
f 21/1/18 22/1/20 3/1/3
f 22/1/20 21/1/18 23/1/18
f 26/1/22 25/1/21 24/1/21
f 25/1/21 26/1/22 27/1/22
f 23/1/18 24/1/21 25/1/21
f 24/1/21 23/1/18 21/1/18
f 24/1/21 21/1/18 18/1/18
f 13/1/13 6/1/6 4/1/4
f 6/1/6 13/1/13 2/1/2
f 2/1/2 13/1/13 1/1/1
f 28/1/23 15/1/15 14/1/14
f 15/1/15 28/1/23 29/1/24
f 31/1/26 8/1/8 30/1/25
f 8/1/8 31/1/26 10/1/10
f 31/1/26 33/1/28 32/1/27
f 33/1/28 31/1/26 30/1/25
f 35/1/30 34/1/29 29/1/24
f 34/1/29 35/1/30 36/1/31
f 36/1/31 37/1/32 34/1/29
f 37/1/32 36/1/31 38/1/33
f 11/1/11 39/1/34 12/1/12
f 39/1/34 11/1/11 40/1/35
f 41/1/36 3/1/3 22/1/20
f 3/1/3 41/1/36 2/1/37
f 2/1/37 41/1/36 6/1/38
f 44/1/40 43/1/36 42/1/39
f 43/1/36 44/1/40 45/1/41
f 46/1/41 6/1/38 41/1/36
f 6/1/38 46/1/41 7/1/41
f 4/1/4 48/1/43 47/1/42
f 48/1/43 4/1/4 5/1/5
f 9/1/9 4/1/4 47/1/42
f 4/1/4 9/1/9 13/1/13
f 39/1/34 14/1/14 12/1/12
f 14/1/14 39/1/34 28/1/23
f 8/1/8 47/1/42 30/1/25
f 47/1/42 8/1/8 9/1/9
f 38/1/33 42/1/39 37/1/32
f 42/1/39 38/1/33 44/1/40
f 34/1/29 17/1/17 16/1/16
f 17/1/17 34/1/29 37/1/32
f 42/1/39 20/1/20 19/1/19
f 20/1/20 42/1/39 43/1/36
f 29/1/24 16/1/16 15/1/15
f 16/1/16 29/1/24 34/1/29
f 35/1/30 28/1/23 49/1/44
f 28/1/23 35/1/30 29/1/24
f 50/1/45 39/1/34 40/1/35
f 39/1/34 50/1/45 51/1/46
f 47/1/42 33/1/28 30/1/25
f 33/1/28 47/1/42 48/1/43
f 37/1/32 19/1/19 17/1/17
f 19/1/19 37/1/32 42/1/39
f 49/1/44 39/1/34 51/1/46
f 39/1/34 49/1/44 28/1/23
f 46/2/47 53/2/47 52/2/47
f 53/2/47 46/2/47 41/2/47
f 53/2/47 41/2/47 54/2/47
f 54/2/47 41/2/47 22/2/47
f 54/2/47 22/2/47 23/2/47
f 54/2/47 23/2/47 25/2/47
f 54/2/47 25/2/47 27/2/47
f 54/2/47 27/2/47 55/2/47
f 27/2/48 56/2/48 55/2/48
f 56/2/48 27/2/48 26/2/48
f 50/2/48 49/2/48 51/2/48
f 49/2/48 50/2/48 57/2/48
f 49/2/48 57/2/48 35/2/48
f 35/2/48 57/2/48 36/2/48
f 36/2/48 57/2/48 38/2/48
f 38/2/48 57/2/48 44/2/48
f 44/2/48 57/2/48 45/2/48
f 59/2/49 57/2/49 58/2/49
f 57/2/49 59/2/49 43/2/49
f 57/2/49 43/2/49 45/2/49
f 43/2/49 59/2/49 20/2/49
f 20/2/49 59/2/49 18/2/49
f 18/2/49 59/2/49 24/2/49
f 24/2/49 59/2/49 26/2/49
f 26/2/49 59/2/49 56/2/49
f 55/2/50 59/2/50 54/2/50
f 59/2/50 55/2/50 56/2/50
f 57/2/51 53/2/51 58/2/51
f 53/2/51 57/2/51 11/2/51
f 11/2/51 57/2/51 40/2/51
f 40/2/51 57/2/51 50/2/51
f 10/2/51 53/2/51 11/2/51
f 31/2/51 53/2/51 10/2/51
f 53/2/51 31/2/51 52/2/51
f 52/2/51 31/2/51 32/2/51
f 59/2/52 53/2/52 54/2/52
f 53/2/52 59/2/52 58/2/52
f 32/2/48 33/2/48 52/2/48
f 48/2/48 52/2/48 33/2/48
f 48/2/48 46/2/48 52/2/48
f 5/2/48 46/2/48 48/2/48
f 46/2/48 5/2/48 7/2/48

