# Created by Kenney (www.kenney.nl)

mtllib straight-wide-hole.mtl

g straight-wide-hole

v 0 0 0.25 1 1 1
v 0.09567086 0 0.2309699 1 1 1
v 0 0.25 0.25 1 1 1
v 0.09567086 0.25 0.2309699 1 1 1
v 0.85 0.5 -0.5 1 1 1
v 0.85 0 -0.5 1 1 1
v 0.85 0.5 0.5 1 1 1
v 0.85 0 0.5 1 1 1
v -0.2309699 0 -0.09567086 1 1 1
v -0.25 0 -4.331469E-15 1 1 1
v -0.2309699 0.2551616 -0.09567086 1 1 1
v -0.25 0.2583333 -1.443823E-15 1 1 1
v 0.2309699 0 0.09567086 1 1 1
v 0.2309699 0.2551616 0.09567086 1 1 1
v 0.1767767 0 0.1767767 1 1 1
v 0.2 0.25 0.1420206 1 1 1
v 0.1767767 0.25 0.1767767 1 1 1
v -0.2309699 0 0.09567086 1 1 1
v -0.1767767 0 0.1767767 1 1 1
v -0.2309699 0.2551616 0.09567086 1 1 1
v -0.2 0.25 0.1420206 1 1 1
v -0.1767767 0.25 0.1767767 1 1 1
v 0.1767767 0 -0.1767767 1 1 1
v 0.1767767 0.25 -0.1767767 1 1 1
v 0.2309699 0 -0.09567086 1 1 1
v 0.2 0.25 -0.1420206 1 1 1
v 0.2309699 0.2551616 -0.09567086 1 1 1
v -0.09567086 0 -0.2309699 1 1 1
v -0.1767767 0 -0.1767767 1 1 1
v -0.09567086 0.25 -0.2309699 1 1 1
v -0.1767767 0.25 -0.1767767 1 1 1
v 0.7 0.5 -0.5 1 1 1
v 0.7 0.5 0.5 1 1 1
v 0.09567086 0 -0.2309699 1 1 1
v 0 0 -0.25 1 1 1
v 0.09567086 0.25 -0.2309699 1 1 1
v 0 0.25 -0.25 1 1 1
v 0.575 0.3125 0.5 1 1 1
v -0.85 0 0.5 1 1 1
v 0.2 0.25 0.5 1 1 1
v -0.2 0.25 0.5 1 1 1
v -0.575 0.3125 0.5 1 1 1
v -0.85 0.5 0.5 1 1 1
v -0.7 0.5 0.5 1 1 1
v -0.7 0.5 -0.5 1 1 1
v -0.85 0.5 -0.5 1 1 1
v -0.575 0.3125 -0.5 1 1 1
v -0.85 0 -0.5 1 1 1
v -0.2 0.25 -0.5 1 1 1
v 0.2 0.25 -0.5 1 1 1
v 0.575 0.3125 -0.5 1 1 1
v -0.09567086 0 0.2309699 1 1 1
v -0.09567086 0.25 0.2309699 1 1 1
v 0.25 0 -4.331469E-15 1 1 1
v 0.25 0.2583333 -4.331469E-15 1 1 1
v -0.2 0.25 -0.1420206 1 1 1

vn 0 0 -1
vn -0.3826834 0 -0.9238795
vn 1 0 0
vn 0.9238795 0 0.3826834
vn 0.9269329 0 0.3752271
vn -0.9238795 0 -0.3826834
vn -0.9269329 0 -0.3752271
vn -0.7071068 0 -0.7071068
vn -0.8314696 0 -0.5555702
vn 0.9238795 0 -0.3826834
vn 0.7071068 0 -0.7071068
vn 0.9269329 0 -0.3752271
vn 0.8314696 0 -0.5555702
vn -0.7071068 0 0.7071068
vn -0.9238795 0 0.3826834
vn -0.8314696 0 0.5555702
vn -0.9269329 0 0.3752271
vn 0.3826834 0 0.9238795
vn 0.7071068 0 0.7071068
vn 0 1 0
vn -0.3826834 0 0.9238795
vn 0 0 1
vn 0.3826834 0 -0.9238795
vn -1 0 0
vn 0.8314696 0 0.5555702
vn 0 -1 0
vn -0.5429711 0.8397514 0
vn -0.8320503 0.5547002 0
vn -0.1337899 0.9910097 0
vn -0.08248053 0.9965927 0
vn 0.08248053 0.9965927 0
vn 0.1337899 0.9910097 0
vn -0.164399 0.986394 0
vn 0.8320503 0.5547002 0
vn 0.5429711 0.8397514 0
vn 0.164399 0.986394 0

vt 0.90625 0.375
vt 0.28125 0.375

usemtl colormap

f 3/1/1 2/1/2 1/1/1
f 2/1/2 3/1/1 4/1/2
f 7/1/3 6/1/3 5/1/3
f 6/1/3 7/1/3 8/1/3
f 11/1/5 10/1/3 9/1/4
f 10/1/3 11/1/5 12/1/3
f 15/1/8 14/1/7 13/1/6
f 14/1/7 15/1/8 16/1/9
f 16/1/9 15/1/8 17/1/8
f 20/1/12 19/1/11 18/1/10
f 19/1/11 20/1/12 21/1/13
f 19/1/11 21/1/13 22/1/11
f 25/1/15 24/1/14 23/1/14
f 24/1/14 25/1/15 26/1/16
f 26/1/16 25/1/15 27/1/17
f 12/1/3 18/1/10 10/1/3
f 18/1/10 12/1/3 20/1/12
f 30/1/18 29/1/19 28/1/18
f 29/1/19 30/1/18 31/1/19
f 32/1/20 7/1/20 5/1/20
f 7/1/20 32/1/20 33/1/20
f 36/1/21 35/1/22 34/1/21
f 35/1/22 36/1/21 37/1/22
f 38/1/22 7/1/22 33/1/22
f 38/1/22 8/1/22 7/1/22
f 8/1/22 38/1/22 39/1/22
f 39/1/22 38/1/22 40/1/22
f 41/1/22 39/1/22 40/1/22
f 42/1/22 39/1/22 41/1/22
f 39/1/22 42/1/22 43/1/22
f 43/1/22 42/1/22 44/1/22
f 47/1/1 46/1/1 45/1/1
f 47/1/1 48/1/1 46/1/1
f 48/1/1 47/1/1 6/1/1
f 6/1/1 47/1/1 49/1/1
f 50/1/1 6/1/1 49/1/1
f 51/1/1 6/1/1 50/1/1
f 6/1/1 51/1/1 5/1/1
f 5/1/1 51/1/1 32/1/1
f 4/1/2 15/1/8 2/1/2
f 15/1/8 4/1/2 17/1/8
f 37/1/22 28/1/18 35/1/22
f 28/1/18 37/1/22 30/1/18
f 53/1/23 1/1/1 52/1/23
f 1/1/1 53/1/23 3/1/1
f 24/1/14 34/1/21 23/1/14
f 34/1/21 24/1/14 36/1/21
f 46/1/20 44/1/20 45/1/20
f 44/1/20 46/1/20 43/1/20
f 39/1/24 46/1/24 48/1/24
f 46/1/24 39/1/24 43/1/24
f 13/1/6 55/1/24 54/1/24
f 55/1/24 13/1/6 14/1/7
f 54/1/24 27/1/17 25/1/15
f 27/1/17 54/1/24 55/1/24
f 56/1/25 29/1/19 31/1/19
f 29/1/19 56/1/25 9/1/4
f 9/1/4 56/1/25 11/1/5
f 22/1/11 52/1/23 19/1/11
f 52/1/23 22/1/11 53/1/23
f 48/1/26 29/1/26 9/1/26
f 48/1/26 28/1/26 29/1/26
f 48/1/26 35/1/26 28/1/26
f 48/1/26 9/1/26 10/1/26
f 48/1/26 34/1/26 35/1/26
f 48/1/26 10/1/26 39/1/26
f 6/1/26 34/1/26 48/1/26
f 18/1/26 39/1/26 10/1/26
f 34/1/26 6/1/26 23/1/26
f 19/1/26 39/1/26 18/1/26
f 23/1/26 6/1/26 25/1/26
f 52/1/26 39/1/26 19/1/26
f 1/1/26 39/1/26 52/1/26
f 2/1/26 39/1/26 1/1/26
f 2/1/26 8/1/26 39/1/26
f 15/1/26 8/1/26 2/1/26
f 8/1/26 15/1/26 6/1/26
f 25/1/26 6/1/26 54/1/26
f 6/1/26 15/1/26 13/1/26
f 6/1/26 13/1/26 54/1/26
f 38/2/27 32/2/28 51/2/27
f 32/2/28 38/2/27 33/2/28
f 50/2/30 24/2/20 26/2/29
f 24/2/20 50/2/30 49/2/31
f 24/2/20 49/2/31 36/2/20
f 36/2/20 49/2/31 37/2/20
f 37/2/20 49/2/31 30/2/20
f 30/2/20 49/2/31 31/2/20
f 31/2/20 49/2/31 56/2/32
f 50/2/30 38/2/27 51/2/27
f 38/2/27 50/2/30 55/2/33
f 55/2/33 40/2/30 38/2/27
f 55/2/33 50/2/30 27/2/33
f 27/2/33 50/2/30 26/2/29
f 40/2/30 55/2/33 14/2/33
f 40/2/30 14/2/33 16/2/29
f 17/2/20 40/2/30 16/2/29
f 40/2/30 17/2/20 41/2/31
f 41/2/31 17/2/20 4/2/20
f 41/2/31 4/2/20 3/2/20
f 41/2/31 3/2/20 53/2/20
f 41/2/31 53/2/20 22/2/20
f 41/2/31 22/2/20 21/2/32
f 44/2/34 47/2/35 45/2/34
f 47/2/35 44/2/34 42/2/35
f 49/2/31 11/2/36 56/2/32
f 11/2/36 49/2/31 47/2/35
f 11/2/36 47/2/35 12/2/36
f 42/2/35 12/2/36 47/2/35
f 42/2/35 20/2/36 12/2/36
f 41/2/31 20/2/36 42/2/35
f 20/2/36 41/2/31 21/2/32

g straight-wide-hole




usemtl colormap

f 3/1/1 2/1/2 1/1/1
f 2/1/2 3/1/1 4/1/2
f 7/1/3 6/1/3 5/1/3
f 6/1/3 7/1/3 8/1/3
f 11/1/5 10/1/3 9/1/4
f 10/1/3 11/1/5 12/1/3
f 15/1/8 14/1/7 13/1/6
f 14/1/7 15/1/8 16/1/9
f 16/1/9 15/1/8 17/1/8
f 20/1/12 19/1/11 18/1/10
f 19/1/11 20/1/12 21/1/13
f 19/1/11 21/1/13 22/1/11
f 25/1/15 24/1/14 23/1/14
f 24/1/14 25/1/15 26/1/16
f 26/1/16 25/1/15 27/1/17
f 12/1/3 18/1/10 10/1/3
f 18/1/10 12/1/3 20/1/12
f 30/1/18 29/1/19 28/1/18
f 29/1/19 30/1/18 31/1/19
f 32/1/20 7/1/20 5/1/20
f 7/1/20 32/1/20 33/1/20
f 36/1/21 35/1/22 34/1/21
f 35/1/22 36/1/21 37/1/22
f 38/1/22 7/1/22 33/1/22
f 38/1/22 8/1/22 7/1/22
f 8/1/22 38/1/22 39/1/22
f 39/1/22 38/1/22 40/1/22
f 41/1/22 39/1/22 40/1/22
f 42/1/22 39/1/22 41/1/22
f 39/1/22 42/1/22 43/1/22
f 43/1/22 42/1/22 44/1/22
f 47/1/1 46/1/1 45/1/1
f 47/1/1 48/1/1 46/1/1
f 48/1/1 47/1/1 6/1/1
f 6/1/1 47/1/1 49/1/1
f 50/1/1 6/1/1 49/1/1
f 51/1/1 6/1/1 50/1/1
f 6/1/1 51/1/1 5/1/1
f 5/1/1 51/1/1 32/1/1
f 4/1/2 15/1/8 2/1/2
f 15/1/8 4/1/2 17/1/8
f 37/1/22 28/1/18 35/1/22
f 28/1/18 37/1/22 30/1/18
f 53/1/23 1/1/1 52/1/23
f 1/1/1 53/1/23 3/1/1
f 24/1/14 34/1/21 23/1/14
f 34/1/21 24/1/14 36/1/21
f 46/1/20 44/1/20 45/1/20
f 44/1/20 46/1/20 43/1/20
f 39/1/24 46/1/24 48/1/24
f 46/1/24 39/1/24 43/1/24
f 13/1/6 55/1/24 54/1/24
f 55/1/24 13/1/6 14/1/7
f 54/1/24 27/1/17 25/1/15
f 27/1/17 54/1/24 55/1/24
f 56/1/25 29/1/19 31/1/19
f 29/1/19 56/1/25 9/1/4
f 9/1/4 56/1/25 11/1/5
f 22/1/11 52/1/23 19/1/11
f 52/1/23 22/1/11 53/1/23
f 48/1/26 29/1/26 9/1/26
f 48/1/26 28/1/26 29/1/26
f 48/1/26 35/1/26 28/1/26
f 48/1/26 9/1/26 10/1/26
f 48/1/26 34/1/26 35/1/26
f 48/1/26 10/1/26 39/1/26
f 6/1/26 34/1/26 48/1/26
f 18/1/26 39/1/26 10/1/26
f 34/1/26 6/1/26 23/1/26
f 19/1/26 39/1/26 18/1/26
f 23/1/26 6/1/26 25/1/26
f 52/1/26 39/1/26 19/1/26
f 1/1/26 39/1/26 52/1/26
f 2/1/26 39/1/26 1/1/26
f 2/1/26 8/1/26 39/1/26
f 15/1/26 8/1/26 2/1/26
f 8/1/26 15/1/26 6/1/26
f 25/1/26 6/1/26 54/1/26
f 6/1/26 15/1/26 13/1/26
f 6/1/26 13/1/26 54/1/26
f 38/2/27 32/2/28 51/2/27
f 32/2/28 38/2/27 33/2/28
f 50/2/30 24/2/20 26/2/29
f 24/2/20 50/2/30 49/2/31
f 24/2/20 49/2/31 36/2/20
f 36/2/20 49/2/31 37/2/20
f 37/2/20 49/2/31 30/2/20
f 30/2/20 49/2/31 31/2/20
f 31/2/20 49/2/31 56/2/32
f 50/2/30 38/2/27 51/2/27
f 38/2/27 50/2/30 55/2/33
f 55/2/33 40/2/30 38/2/27
f 55/2/33 50/2/30 27/2/33
f 27/2/33 50/2/30 26/2/29
f 40/2/30 55/2/33 14/2/33
f 40/2/30 14/2/33 16/2/29
f 17/2/20 40/2/30 16/2/29
f 40/2/30 17/2/20 41/2/31
f 41/2/31 17/2/20 4/2/20
f 41/2/31 4/2/20 3/2/20
f 41/2/31 3/2/20 53/2/20
f 41/2/31 53/2/20 22/2/20
f 41/2/31 22/2/20 21/2/32
f 44/2/34 47/2/35 45/2/34
f 47/2/35 44/2/34 42/2/35
f 49/2/31 11/2/36 56/2/32
f 11/2/36 49/2/31 47/2/35
f 11/2/36 47/2/35 12/2/36
f 42/2/35 12/2/36 47/2/35
f 42/2/35 20/2/36 12/2/36
f 41/2/31 20/2/36 42/2/35
f 20/2/36 41/2/31 21/2/32

