# Created by Kenney (www.kenney.nl)

mtllib tree-tall.mtl

g tree-tall

v -0.05445193 0 -0.1089039 1 1 1
v 0.05445193 0 -0.1089039 1 1 1
v -0.03861839 1.289638 -0.07723678 1 1 1
v 0.03861839 1.289638 -0.07723678 1 1 1
v -0.1089039 0 -0.05445193 1 1 1
v -0.07723678 1.289638 -0.03861839 1 1 1
v 0.05445193 0 0.1089039 1 1 1
v -0.05445193 0 0.1089039 1 1 1
v 0.03861839 1.289638 0.07723678 1 1 1
v -0.03861839 1.289638 0.07723678 1 1 1
v 0.1089039 0 -0.05445193 1 1 1
v 0.1089039 0 0.05445193 1 1 1
v 0.07723678 1.289638 -0.03861839 1 1 1
v 0.07723678 1.289638 0.03861839 1 1 1
v -0.1089039 0 0.05445193 1 1 1
v -0.07723678 1.289638 0.03861839 1 1 1
v -0.1875 1.289638 -0.375 1 1 1
v 0.1875 1.289638 -0.375 1 1 1
v -0.1118528 1.604923 -0.2237055 1 1 1
v 0.1118528 1.604923 -0.2237055 1 1 1
v -0.375 1.289638 -0.1875 1 1 1
v -0.2237055 1.604923 -0.1118528 1 1 1
v -0.375 1.289638 0.1875 1 1 1
v -0.2237055 1.604923 0.1118528 1 1 1
v 0.375 1.289638 0.1875 1 1 1
v 0.1875 1.289638 0.375 1 1 1
v 0.2237055 1.604923 0.1118528 1 1 1
v 0.1118528 1.604923 0.2237055 1 1 1
v 0.375 1.289638 -0.1875 1 1 1
v 0.2237055 1.604923 -0.1118528 1 1 1
v -0.1875 1.289638 0.375 1 1 1
v -0.1118528 1.604923 0.2237055 1 1 1
v 0.3169643 1.604923 -0.1584821 1 1 1
v 0.3169643 1.604923 0.1584821 1 1 1
v 0.1526455 1.922867 -0.07632275 1 1 1
v 0.1526455 1.922867 0.07632275 1 1 1
v 0.07632275 1.922867 -0.1526455 1 1 1
v -0.07632275 1.922867 -0.1526455 1 1 1
v 0.1584821 1.604923 -0.3169643 1 1 1
v -0.1584821 1.604923 -0.3169643 1 1 1
v -0.07632275 1.922867 0.1526455 1 1 1
v 0.07632275 1.922867 0.1526455 1 1 1
v -0.1584821 1.604923 0.3169643 1 1 1
v 0.1584821 1.604923 0.3169643 1 1 1
v -0.1526455 1.922867 0.07632275 1 1 1
v -0.3169643 1.604923 0.1584821 1 1 1
v -0.3169643 1.604923 -0.1584821 1 1 1
v -0.1526455 1.922867 -0.07632275 1 1 1
v -0.1002716 1.922867 -0.2005433 1 1 1
v 0.1002716 1.922867 -0.2005433 1 1 1
v -2.887646E-15 2.432687 -6.136247E-14 1 1 1
v -0.2005433 1.922867 -0.1002716 1 1 1
v -0.2005433 1.922867 0.1002716 1 1 1
v 0.2005433 1.922867 0.1002716 1 1 1
v 0.1002716 1.922867 0.2005433 1 1 1
v 0.2005433 1.922867 -0.1002716 1 1 1
v -0.1002716 1.922867 0.2005433 1 1 1

vn -0.3829734 0.02737492 -0.9233537
vn 0.3829734 0.02737492 -0.9233537
vn -0.382098 0.02737308 -0.9237164
vn 0.382098 0.02737308 -0.9237164
vn -0.9233537 0.02737492 -0.3829734
vn -0.9237164 0.02737308 -0.382098
vn 0.3829734 0.02737492 0.9233537
vn -0.3829734 0.02737492 0.9233537
vn 0.382098 0.02737308 0.9237164
vn -0.382098 0.02737308 0.9237164
vn 0.9233537 0.02737492 -0.3829734
vn 0.9233537 0.02737492 0.3829734
vn 0.9237164 0.02737308 -0.382098
vn 0.9237164 0.02737308 0.382098
vn 0 -1 0
vn -0.9237164 0.02737308 0.382098
vn -0.9233537 0.02737492 0.3829734
vn -0.3430584 0.4720124 -0.8121054
vn 0.3430584 0.4720124 -0.8121054
vn -0.3294327 0.4715649 -0.8179857
vn 0.3294327 0.4715649 -0.8179857
vn -0.8121054 0.4720124 -0.3430584
vn -0.8179857 0.4715649 -0.3294327
vn -0.8121054 0.4720124 0.3430584
vn -0.8179857 0.4715649 0.3294327
vn 0.8121054 0.4720124 0.3430584
vn 0.3430584 0.4720124 0.8121054
vn 0.8179857 0.4715649 0.3294327
vn 0.3294327 0.4715649 0.8179857
vn 0.8121054 0.4720124 -0.3430584
vn 0.8179857 0.4715649 -0.3294327
vn -0.3430584 0.4720124 0.8121054
vn -0.3294327 0.4715649 0.8179857
vn 0.7978907 0.4995452 -0.3373795
vn 0.7978907 0.4995452 0.3373795
vn 0.8040541 0.4990583 -0.3231682
vn 0.8040541 0.4990583 0.3231682
vn 0.3231682 0.4990583 -0.8040541
vn -0.3231682 0.4990583 -0.8040541
vn 0.3373795 0.4995452 -0.7978907
vn -0.3373795 0.4995452 -0.7978907
vn -0.3231682 0.4990583 0.8040541
vn 0.3231682 0.4990583 0.8040541
vn -0.3373795 0.4995452 0.7978907
vn 0.3373795 0.4995452 0.7978907
vn -0.8040541 0.4990583 0.3231682
vn -0.7978907 0.4995452 0.3373795
vn -0.7978907 0.4995452 -0.3373795
vn -0.8040541 0.4990583 -0.3231682
vn -0.3555629 0.4018683 -0.8438465
vn 0.3555629 0.4018683 -0.8438465
vn 0 1 0
vn -0.8438465 0.4018683 -0.3555629
vn -0.8438465 0.4018683 0.3555629
vn 0.8438465 0.4018683 0.3555629
vn 0.3555629 0.4018683 0.8438465
vn 0.8438465 0.4018683 -0.3555629
vn -0.3555629 0.4018683 0.8438465

vt 0.09375 0.225
vt 0.09375 0.025
vt 0.09375 0.075
vt 0.09375 0.175

usemtl colormap

f 3/2/3 2/1/2 1/1/1
f 2/1/2 3/2/3 4/2/4
f 5/1/5 3/2/3 1/1/1
f 3/2/3 5/1/5 6/2/6
f 9/2/9 8/1/8 7/1/7
f 8/1/8 9/2/9 10/2/10
f 13/2/13 12/1/12 11/1/11
f 12/1/12 13/2/13 14/2/14
f 7/1/15 11/1/15 12/1/15
f 11/1/15 7/1/15 2/1/15
f 2/1/15 7/1/15 8/1/15
f 2/1/15 8/1/15 1/1/15
f 1/1/15 8/1/15 15/1/15
f 1/1/15 15/1/15 5/1/15
f 4/2/4 11/1/11 2/1/2
f 11/1/11 4/2/4 13/2/13
f 9/2/9 12/1/12 14/2/14
f 12/1/12 9/2/9 7/1/7
f 15/1/17 10/2/10 16/2/16
f 10/2/10 15/1/17 8/1/8
f 15/1/17 6/2/6 5/1/5
f 6/2/6 15/1/17 16/2/16
f 19/4/20 18/3/19 17/3/18
f 18/3/19 19/4/20 20/4/21
f 23/3/24 22/4/23 21/3/22
f 22/4/23 23/3/24 24/4/25
f 27/4/28 26/3/27 25/3/26
f 26/3/27 27/4/28 28/4/29
f 22/4/23 17/3/18 21/3/22
f 17/3/18 22/4/23 19/4/20
f 20/4/21 29/3/30 18/3/19
f 29/3/30 20/4/21 30/4/31
f 26/3/15 29/3/15 25/3/15
f 29/3/15 26/3/15 18/3/15
f 18/3/15 26/3/15 31/3/15
f 18/3/15 31/3/15 17/3/15
f 17/3/15 31/3/15 23/3/15
f 17/3/15 23/3/15 21/3/15
f 28/4/29 31/3/32 26/3/27
f 31/3/32 28/4/29 32/4/33
f 32/4/33 23/3/24 31/3/32
f 23/3/24 32/4/33 24/4/25
f 30/4/31 25/3/26 29/3/30
f 25/3/26 30/4/31 27/4/28
f 35/3/36 34/4/35 33/4/34
f 34/4/35 35/3/36 36/3/37
f 39/4/40 38/3/39 37/3/38
f 38/3/39 39/4/40 40/4/41
f 43/4/44 42/3/43 41/3/42
f 42/3/43 43/4/44 44/4/45
f 33/4/34 37/3/38 35/3/36
f 37/3/38 33/4/34 39/4/40
f 46/4/47 41/3/42 45/3/46
f 41/3/42 46/4/47 43/4/44
f 44/4/45 36/3/37 42/3/43
f 36/3/37 44/4/45 34/4/35
f 40/4/15 46/4/15 47/4/15
f 46/4/15 40/4/15 43/4/15
f 43/4/15 40/4/15 39/4/15
f 43/4/15 39/4/15 44/4/15
f 44/4/15 39/4/15 33/4/15
f 44/4/15 33/4/15 34/4/15
f 46/4/47 48/3/49 47/4/48
f 48/3/49 46/4/47 45/3/46
f 40/4/41 48/3/49 38/3/39
f 48/3/49 40/4/41 47/4/48
f 51/4/52 50/3/51 49/3/50
f 53/3/54 51/4/52 52/3/53
f 51/4/52 55/3/56 54/3/55
f 51/4/52 56/3/57 50/3/51
f 51/4/52 49/3/50 52/3/53
f 51/4/52 57/3/58 55/3/56
f 54/3/55 56/3/57 51/4/52
f 51/4/52 53/3/54 57/3/58
f 55/3/15 56/3/15 54/3/15
f 56/3/15 55/3/15 50/3/15
f 50/3/15 55/3/15 57/3/15
f 50/3/15 57/3/15 49/3/15
f 49/3/15 57/3/15 53/3/15
f 49/3/15 53/3/15 52/3/15

g tree-tall




usemtl colormap

f 3/2/3 2/1/2 1/1/1
f 2/1/2 3/2/3 4/2/4
f 5/1/5 3/2/3 1/1/1
f 3/2/3 5/1/5 6/2/6
f 9/2/9 8/1/8 7/1/7
f 8/1/8 9/2/9 10/2/10
f 13/2/13 12/1/12 11/1/11
f 12/1/12 13/2/13 14/2/14
f 7/1/15 11/1/15 12/1/15
f 11/1/15 7/1/15 2/1/15
f 2/1/15 7/1/15 8/1/15
f 2/1/15 8/1/15 1/1/15
f 1/1/15 8/1/15 15/1/15
f 1/1/15 15/1/15 5/1/15
f 4/2/4 11/1/11 2/1/2
f 11/1/11 4/2/4 13/2/13
f 9/2/9 12/1/12 14/2/14
f 12/1/12 9/2/9 7/1/7
f 15/1/17 10/2/10 16/2/16
f 10/2/10 15/1/17 8/1/8
f 15/1/17 6/2/6 5/1/5
f 6/2/6 15/1/17 16/2/16
f 19/4/20 18/3/19 17/3/18
f 18/3/19 19/4/20 20/4/21
f 23/3/24 22/4/23 21/3/22
f 22/4/23 23/3/24 24/4/25
f 27/4/28 26/3/27 25/3/26
f 26/3/27 27/4/28 28/4/29
f 22/4/23 17/3/18 21/3/22
f 17/3/18 22/4/23 19/4/20
f 20/4/21 29/3/30 18/3/19
f 29/3/30 20/4/21 30/4/31
f 26/3/15 29/3/15 25/3/15
f 29/3/15 26/3/15 18/3/15
f 18/3/15 26/3/15 31/3/15
f 18/3/15 31/3/15 17/3/15
f 17/3/15 31/3/15 23/3/15
f 17/3/15 23/3/15 21/3/15
f 28/4/29 31/3/32 26/3/27
f 31/3/32 28/4/29 32/4/33
f 32/4/33 23/3/24 31/3/32
f 23/3/24 32/4/33 24/4/25
f 30/4/31 25/3/26 29/3/30
f 25/3/26 30/4/31 27/4/28
f 35/3/36 34/4/35 33/4/34
f 34/4/35 35/3/36 36/3/37
f 39/4/40 38/3/39 37/3/38
f 38/3/39 39/4/40 40/4/41
f 43/4/44 42/3/43 41/3/42
f 42/3/43 43/4/44 44/4/45
f 33/4/34 37/3/38 35/3/36
f 37/3/38 33/4/34 39/4/40
f 46/4/47 41/3/42 45/3/46
f 41/3/42 46/4/47 43/4/44
f 44/4/45 36/3/37 42/3/43
f 36/3/37 44/4/45 34/4/35
f 40/4/15 46/4/15 47/4/15
f 46/4/15 40/4/15 43/4/15
f 43/4/15 40/4/15 39/4/15
f 43/4/15 39/4/15 44/4/15
f 44/4/15 39/4/15 33/4/15
f 44/4/15 33/4/15 34/4/15
f 46/4/47 48/3/49 47/4/48
f 48/3/49 46/4/47 45/3/46
f 40/4/41 48/3/49 38/3/39
f 48/3/49 40/4/41 47/4/48
f 51/4/52 50/3/51 49/3/50
f 53/3/54 51/4/52 52/3/53
f 51/4/52 55/3/56 54/3/55
f 51/4/52 56/3/57 50/3/51
f 51/4/52 49/3/50 52/3/53
f 51/4/52 57/3/58 55/3/56
f 54/3/55 56/3/57 51/4/52
f 51/4/52 53/3/54 57/3/58
f 55/3/15 56/3/15 54/3/15
f 56/3/15 55/3/15 50/3/15
f 50/3/15 55/3/15 57/3/15
f 50/3/15 57/3/15 49/3/15
f 49/3/15 57/3/15 53/3/15
f 49/3/15 53/3/15 52/3/15

