# Created by Kenney (www.kenney.nl)

mtllib banner-hanging-high.mtl

g banner-hanging-high

v 0.4625 0 0.01875 1 1 1
v 0.4625 0 -0.01875 1 1 1
v 0.44375 0 0.0375 1 1 1
v 0.44375 0 -0.0375 1 1 1
v 0.40625 0 0.0375 1 1 1
v 0.40625 0 -0.0375 1 1 1
v 0.3875 0 0.01875 1 1 1
v 0.3875 0 -0.01875 1 1 1
v 0.4625 1 0.01875 1 1 1
v 0.44375 1 0.0375 1 1 1
v 0.44375 1 -0.0375 1 1 1
v 0.4625 1 -0.01875 1 1 1
v 0.40625 1 0.0375 1 1 1
v -0.40625 1 -0.0375 1 1 1
v -0.40625 0 -0.0375 1 1 1
v -0.3875 1 -0.01875 1 1 1
v -0.3875 0 -0.01875 1 1 1
v -0.40625 0 0.0375 1 1 1
v -0.44375 0 0.0375 1 1 1
v -0.40625 1 0.0375 1 1 1
v -0.44375 1 0.0375 1 1 1
v -0.3875 1 0 1 1 1
v -0.3875 1 0.01875 1 1 1
v -0.44375 1 -0.0375 1 1 1
v -0.4625 1 -0.01875 1 1 1
v -0.4625 1 0.01875 1 1 1
v -0.4625 0 0.01875 1 1 1
v -0.44375 0 -0.0375 1 1 1
v -0.4625 0 -0.01875 1 1 1
v -0.3875 0 0.01875 1 1 1
v 0.40625 1 -0.0375 1 1 1
v 0.3875 1 0.01875 1 1 1
v 0.3875 1 -0.01875 1 1 1
v 0.3875 1 0 1 1 1
v 1.443823E-15 0.65 0 1 1 1
v 0.134191 0.6613236 0 1 1 1
v -0.134191 0.6613236 0 1 1 1
v -0.264587 0.6949741 0 1 1 1
v 0.264587 0.6949741 0 1 1 1
v -0.3875 0.75 0 1 1 1
v 0.3875 0.75 0 1 1 1
v -0.264587 0.9449742 0 1 1 1
v -0.134191 0.9113236 0 1 1 1
v 1.443823E-15 0.9 0 1 1 1
v 0.134191 0.9113236 0 1 1 1
v 0.264587 0.9449742 0 1 1 1

vn 0 -1 0
vn 0.9238795 0 0.3826834
vn 0.3826834 0 0.9238795
vn 0.3826834 0 -0.9238795
vn 0.9238795 0 -0.3826834
vn -0.3826834 0 0.9238795
vn 0 1 0
vn -0.9238795 0 0.3826834
vn -0.3826834 0 -0.9238795
vn -0.9238795 0 -0.3826834
vn 1 0 0
vn -1 0 0
vn 0 0 -1
vn 0 0 1

vt 0.96875 0.275
vt 0.96875 0.475
vt 0.34375 0.405
vt 0.34375 0.4072647
vt 0.34375 0.4139948
vt 0.34375 0.425
vt 0.34375 0.4639948
vt 0.34375 0.475
vt 0.34375 0.4572647
vt 0.34375 0.455

usemtl colormap

f 3/1/1 2/1/1 1/1/1
f 2/1/1 3/1/1 4/1/1
f 4/1/1 3/1/1 5/1/1
f 4/1/1 5/1/1 6/1/1
f 6/1/1 5/1/1 7/1/1
f 6/1/1 7/1/1 8/1/1
f 10/2/3 1/1/2 9/2/2
f 1/1/2 10/2/3 3/1/3
f 12/2/5 4/1/4 11/2/4
f 4/1/4 12/2/5 2/1/5
f 10/2/3 5/1/6 3/1/3
f 5/1/6 10/2/3 13/2/6
f 16/2/5 15/1/4 14/2/4
f 15/1/4 16/2/5 17/1/5
f 20/2/3 19/1/6 18/1/3
f 19/1/6 20/2/3 21/2/6
f 14/2/7 22/2/7 16/2/7
f 22/2/7 14/2/7 23/2/7
f 23/2/7 14/2/7 20/2/7
f 20/2/7 14/2/7 24/2/7
f 20/2/7 24/2/7 21/2/7
f 21/2/7 24/2/7 25/2/7
f 21/2/7 25/2/7 26/2/7
f 19/1/6 26/2/8 27/1/8
f 26/2/8 19/1/6 21/2/6
f 29/1/10 24/2/9 28/1/9
f 24/2/9 29/1/10 25/2/10
f 22/2/11 17/1/5 16/2/5
f 17/1/5 22/2/11 30/1/2
f 30/1/2 22/2/11 23/2/2
f 31/2/9 4/1/4 6/1/9
f 4/1/4 31/2/9 11/2/4
f 18/1/1 17/1/1 30/1/1
f 17/1/1 18/1/1 15/1/1
f 15/1/1 18/1/1 19/1/1
f 15/1/1 19/1/1 28/1/1
f 28/1/1 19/1/1 27/1/1
f 28/1/1 27/1/1 29/1/1
f 9/2/2 2/1/5 12/2/5
f 2/1/5 9/2/2 1/1/2
f 5/1/6 32/2/8 7/1/8
f 32/2/8 5/1/6 13/2/6
f 11/2/7 9/2/7 12/2/7
f 9/2/7 11/2/7 10/2/7
f 10/2/7 11/2/7 31/2/7
f 10/2/7 31/2/7 13/2/7
f 13/2/7 31/2/7 33/2/7
f 13/2/7 33/2/7 32/2/7
f 32/2/7 33/2/7 34/2/7
f 8/1/10 31/2/9 6/1/9
f 31/2/9 8/1/10 33/2/10
f 24/2/9 15/1/4 28/1/9
f 15/1/4 24/2/9 14/2/4
f 20/2/3 30/1/2 23/2/2
f 30/1/2 20/2/3 18/1/3
f 7/1/8 33/2/10 8/1/10
f 33/2/10 7/1/8 34/2/12
f 34/2/12 7/1/8 32/2/8
f 27/1/8 25/2/10 29/1/10
f 25/2/10 27/1/8 26/2/8
f 37/4/13 36/4/13 35/3/13
f 36/4/13 37/4/13 38/5/13
f 36/4/13 38/5/13 39/5/13
f 39/5/13 38/5/13 40/6/13
f 39/5/13 40/6/13 41/6/13
f 41/6/13 40/6/13 42/7/13
f 42/7/13 40/6/13 22/8/13
f 41/6/13 42/7/13 43/9/13
f 41/6/13 43/9/13 44/10/13
f 45/9/13 41/6/13 44/10/13
f 46/7/13 41/6/13 45/9/13
f 41/6/13 46/7/13 34/8/13
f 35/3/14 36/4/14 37/4/14
f 38/5/14 37/4/14 36/4/14
f 39/5/14 38/5/14 36/4/14
f 40/6/14 38/5/14 39/5/14
f 41/6/14 40/6/14 39/5/14
f 42/7/14 40/6/14 41/6/14
f 22/8/14 40/6/14 42/7/14
f 43/9/14 42/7/14 41/6/14
f 44/10/14 43/9/14 41/6/14
f 44/10/14 41/6/14 45/9/14
f 45/9/14 41/6/14 46/7/14
f 34/8/14 46/7/14 41/6/14

g banner-hanging-high




usemtl colormap

f 3/1/1 2/1/1 1/1/1
f 2/1/1 3/1/1 4/1/1
f 4/1/1 3/1/1 5/1/1
f 4/1/1 5/1/1 6/1/1
f 6/1/1 5/1/1 7/1/1
f 6/1/1 7/1/1 8/1/1
f 10/2/3 1/1/2 9/2/2
f 1/1/2 10/2/3 3/1/3
f 12/2/5 4/1/4 11/2/4
f 4/1/4 12/2/5 2/1/5
f 10/2/3 5/1/6 3/1/3
f 5/1/6 10/2/3 13/2/6
f 16/2/5 15/1/4 14/2/4
f 15/1/4 16/2/5 17/1/5
f 20/2/3 19/1/6 18/1/3
f 19/1/6 20/2/3 21/2/6
f 14/2/7 22/2/7 16/2/7
f 22/2/7 14/2/7 23/2/7
f 23/2/7 14/2/7 20/2/7
f 20/2/7 14/2/7 24/2/7
f 20/2/7 24/2/7 21/2/7
f 21/2/7 24/2/7 25/2/7
f 21/2/7 25/2/7 26/2/7
f 19/1/6 26/2/8 27/1/8
f 26/2/8 19/1/6 21/2/6
f 29/1/10 24/2/9 28/1/9
f 24/2/9 29/1/10 25/2/10
f 22/2/11 17/1/5 16/2/5
f 17/1/5 22/2/11 30/1/2
f 30/1/2 22/2/11 23/2/2
f 31/2/9 4/1/4 6/1/9
f 4/1/4 31/2/9 11/2/4
f 18/1/1 17/1/1 30/1/1
f 17/1/1 18/1/1 15/1/1
f 15/1/1 18/1/1 19/1/1
f 15/1/1 19/1/1 28/1/1
f 28/1/1 19/1/1 27/1/1
f 28/1/1 27/1/1 29/1/1
f 9/2/2 2/1/5 12/2/5
f 2/1/5 9/2/2 1/1/2
f 5/1/6 32/2/8 7/1/8
f 32/2/8 5/1/6 13/2/6
f 11/2/7 9/2/7 12/2/7
f 9/2/7 11/2/7 10/2/7
f 10/2/7 11/2/7 31/2/7
f 10/2/7 31/2/7 13/2/7
f 13/2/7 31/2/7 33/2/7
f 13/2/7 33/2/7 32/2/7
f 32/2/7 33/2/7 34/2/7
f 8/1/10 31/2/9 6/1/9
f 31/2/9 8/1/10 33/2/10
f 24/2/9 15/1/4 28/1/9
f 15/1/4 24/2/9 14/2/4
f 20/2/3 30/1/2 23/2/2
f 30/1/2 20/2/3 18/1/3
f 7/1/8 33/2/10 8/1/10
f 33/2/10 7/1/8 34/2/12
f 34/2/12 7/1/8 32/2/8
f 27/1/8 25/2/10 29/1/10
f 25/2/10 27/1/8 26/2/8
f 37/4/13 36/4/13 35/3/13
f 36/4/13 37/4/13 38/5/13
f 36/4/13 38/5/13 39/5/13
f 39/5/13 38/5/13 40/6/13
f 39/5/13 40/6/13 41/6/13
f 41/6/13 40/6/13 42/7/13
f 42/7/13 40/6/13 22/8/13
f 41/6/13 42/7/13 43/9/13
f 41/6/13 43/9/13 44/10/13
f 45/9/13 41/6/13 44/10/13
f 46/7/13 41/6/13 45/9/13
f 41/6/13 46/7/13 34/8/13
f 35/3/14 36/4/14 37/4/14
f 38/5/14 37/4/14 36/4/14
f 39/5/14 38/5/14 36/4/14
f 40/6/14 38/5/14 39/5/14
f 41/6/14 40/6/14 39/5/14
f 42/7/14 40/6/14 41/6/14
f 22/8/14 40/6/14 42/7/14
f 43/9/14 42/7/14 41/6/14
f 44/10/14 43/9/14 41/6/14
f 44/10/14 41/6/14 45/9/14
f 45/9/14 41/6/14 46/7/14
f 34/8/14 46/7/14 41/6/14

