# Created by Kenney (www.kenney.nl)

mtllib bump-solid-d.mtl

g bump-solid-d

v -0.35 0.656 -1.504 1 1 1
v -0.5 0.656 -1.504 1 1 1
v -0.35 0.542 -1.728 1 1 1
v -0.5 0.542 -1.728 1 1 1
v -0.5 0.824 -1.316 1 1 1
v -0.35 0.824 -1.316 1 1 1
v -0.5 1.028 -1.152 1 1 1
v -0.35 1.028 -1.152 1 1 1
v 0.5 1.844 -0.496 1 1 1
v 0.5 1.958 -0.272 1 1 1
v 0.35 1.844 -0.496 1 1 1
v 0.35 1.958 -0.272 1 1 1
v -0.35 1.676 -0.684 1 1 1
v -0.35 1.844 -0.496 1 1 1
v -0.5 1.676 -0.684 1 1 1
v -0.5 1.844 -0.496 1 1 1
v 0.5 2 0 1 1 1
v 0.35 2 0 1 1 1
v 0.35 1.472 -0.848 1 1 1
v 0.5 1.472 -0.848 1 1 1
v 0.35 1.676 -0.684 1 1 1
v 0.5 1.676 -0.684 1 1 1
v -0.35 1.958 -0.272 1 1 1
v -0.5 1.958 -0.272 1 1 1
v 0.35 1.028 -1.152 1 1 1
v 0.5 1.028 -1.152 1 1 1
v -0.5 1.472 -0.848 1 1 1
v -0.35 1.472 -0.848 1 1 1
v 0.5 0.5 -2 1 1 1
v 0.5 0.542 -1.728 1 1 1
v 0.35 0.5 -2 1 1 1
v 0.35 0.542 -1.728 1 1 1
v 0.5 0.656 -1.504 1 1 1
v 0.5 0.824 -1.316 1 1 1
v 0.35 0.656 -1.504 1 1 1
v 0.35 0.824 -1.316 1 1 1
v -0.35 2 0 1 1 1
v -0.5 2 0 1 1 1
v -0.35 0.542 1.728 1 1 1
v -0.35 0.5 2 1 1 1
v -0.5 0.542 1.728 1 1 1
v -0.5 0.5 2 1 1 1
v 0.5 1.958 0.272 1 1 1
v 0.35 1.958 0.272 1 1 1
v -0.35 0.824 1.316 1 1 1
v -0.35 0.656 1.504 1 1 1
v -0.5 0.824 1.316 1 1 1
v -0.5 0.656 1.504 1 1 1
v 0.5 0.824 1.316 1 1 1
v 0.5 0.656 1.504 1 1 1
v 0.35 0.824 1.316 1 1 1
v 0.35 0.656 1.504 1 1 1
v -0.35 1.028 1.152 1 1 1
v -0.5 1.028 1.152 1 1 1
v 0.5 1.472 0.848 1 1 1
v 0.35 1.472 0.848 1 1 1
v 0.5 1.676 0.684 1 1 1
v 0.35 1.676 0.684 1 1 1
v 0.5 0.542 1.728 1 1 1
v 0.35 0.542 1.728 1 1 1
v -0.35 1.958 0.272 1 1 1
v -0.5 1.958 0.272 1 1 1
v -0.35 1.844 0.496 1 1 1
v -0.35 1.676 0.684 1 1 1
v -0.5 1.844 0.496 1 1 1
v -0.5 1.676 0.684 1 1 1
v 0.5 1.844 0.496 1 1 1
v 0.35 1.844 0.496 1 1 1
v -0.35 0.5 -2 1 1 1
v -0.5 0.5 -2 1 1 1
v -0.2875 0.3125 -2 1 1 1
v -0.5 0 -2 1 1 1
v 0.5 0 -2 1 1 1
v -0.1 0.25 -2 1 1 1
v 0.1 0.25 -2 1 1 1
v 0.2875 0.3125 -2 1 1 1
v 0.5 1.028 1.152 1 1 1
v 0.35 1.028 1.152 1 1 1
v 0.35 0.5 2 1 1 1
v 0.5 0.5 2 1 1 1
v 0.2875 0.3125 2 1 1 1
v 0.5 0 2 1 1 1
v -0.5 0 2 1 1 1
v 0.1 0.25 2 1 1 1
v -0.1 0.25 2 1 1 1
v -0.2875 0.3125 2 1 1 1
v -0.35 1.472 0.848 1 1 1
v -0.5 1.472 0.848 1 1 1
v 0.1 1.594 -0.496 1 1 1
v 0.1 1.708 -0.272 1 1 1
v -0.1 1.594 -0.496 1 1 1
v -0.1 1.708 -0.272 1 1 1
v -0.1 0.406 -1.504 1 1 1
v -0.2875 0.4685 -1.504 1 1 1
v -0.1 0.292 -1.728 1 1 1
v -0.2875 0.3545 -1.728 1 1 1
v -0.1 0.778 -1.152 1 1 1
v -0.1 1.222 -0.848 1 1 1
v -0.2875 0.8404999 -1.152 1 1 1
v -0.2875 1.2845 -0.848 1 1 1
v 0.1 0.778 -1.152 1 1 1
v 0.2875 0.8404999 -1.152 1 1 1
v 0.1 1.222 -0.848 1 1 1
v 0.2875 1.2845 -0.848 1 1 1
v -0.2875 0.6365 -1.316 1 1 1
v -0.2875 1.4885 -0.684 1 1 1
v -0.2875 1.6565 -0.496 1 1 1
v 0.1 0.292 -1.728 1 1 1
v -0.1 1.426 -0.684 1 1 1
v 0.1 1.426 -0.684 1 1 1
v 0.2875 0.4685 -1.504 1 1 1
v 0.2875 0.6365 -1.316 1 1 1
v -0.2875 1.7705 -0.272 1 1 1
v 0.1 1.75 0 1 1 1
v -0.1 1.75 0 1 1 1
v 0.1 0.574 -1.316 1 1 1
v 0.2875 0.3545 -1.728 1 1 1
v 0.1 0.406 -1.504 1 1 1
v 0.2875 1.7705 -0.272 1 1 1
v 0.2875 1.8125 0 1 1 1
v -0.2875 1.8125 0 1 1 1
v 0.2875 1.6565 -0.496 1 1 1
v 0.2875 1.4885 -0.684 1 1 1
v -0.1 0.574 -1.316 1 1 1
v 0.1 1.708 0.272 1 1 1
v -0.1 1.708 0.272 1 1 1
v 0.2875 1.7705 0.272 1 1 1
v 0.2875 0.6365 1.316 1 1 1
v 0.2875 0.4685 1.504 1 1 1
v 0.1 0.574 1.316 1 1 1
v 0.1 0.406 1.504 1 1 1
v -0.1 0.292 1.728 1 1 1
v -0.2875 0.3545 1.728 1 1 1
v -0.1 0.574 1.316 1 1 1
v -0.2875 0.6365 1.316 1 1 1
v -0.1 0.778 1.152 1 1 1
v -0.2875 0.8404999 1.152 1 1 1
v -0.2875 1.4885 0.684 1 1 1
v -0.2875 1.2845 0.848 1 1 1
v 0.2875 1.6565 0.496 1 1 1
v 0.1 1.594 0.496 1 1 1
v -0.1 1.594 0.496 1 1 1
v 0.2875 0.3545 1.728 1 1 1
v 0.1 1.222 0.848 1 1 1
v -0.1 1.222 0.848 1 1 1
v 0.1 1.426 0.684 1 1 1
v -0.1 1.426 0.684 1 1 1
v -0.2875 1.6565 0.496 1 1 1
v 0.1 0.292 1.728 1 1 1
v -0.1 0.406 1.504 1 1 1
v -0.2875 0.4685 1.504 1 1 1
v -0.2875 1.7705 0.272 1 1 1
v 0.2875 1.2845 0.848 1 1 1
v 0.2875 1.4885 0.684 1 1 1
v 0.2875 0.8404999 1.152 1 1 1
v 0.1 0.778 1.152 1 1 1

vn 0 0.8253237 -0.56466
vn 0 0.9517266 -0.3069468
vn 0 0.6884308 -0.725302
vn 0 0.5961926 -0.8028415
vn 0 1 0
vn 0 0.9882875 -0.1526032
vn 0 0.9517266 0.3069468
vn 0 0.9882875 0.1526032
vn 0 0.6884308 0.725302
vn 0 0.8253237 0.56466
vn 0 0.5961926 0.8028415
vn 0 0 -1
vn 0 0 1
vn 0 -1 0
vn -1 0 0
vn 1 0 0
vn -0.1339542 0.8136349 -0.5657336
vn -0.154889 0.9386889 -0.3080142
vn 0.1339542 0.8136349 -0.5657336
vn 0.154889 0.9386889 -0.3080142
vn 0.1336012 0.8217822 -0.5539176
vn 0.6499906 0.6269527 -0.4294678
vn 0.1511329 0.9421509 -0.2991833
vn 0.675246 0.7015929 -0.2276181
vn 0.09849066 0.595748 -0.7971097
vn 0.09735038 0.5908536 -0.8008838
vn 0.5870982 0.4841453 -0.6487827
vn 0.5882908 0.4799129 -0.6508437
vn -0.09849066 0.595748 -0.7971097
vn -0.5870982 0.4841453 -0.6487827
vn -0.09735038 0.5908536 -0.8008838
vn -0.5882908 0.4799129 -0.6508437
vn 0.1559725 0.9761923 -0.1507356
vn 0.6817034 0.7230595 -0.1116489
vn 0.9221982 0.3073994 -0.2346403
vn 0.8918148 0.2972716 -0.3410219
vn 0.6168079 0.5430611 -0.5697655
vn 0.9063383 0.3021127 -0.2954298
vn 0.6280028 0.5323336 -0.567656
vn 0.930716 0.3102387 -0.1936994
vn 0.6796184 0.6028937 -0.4178974
vn -0.1559725 0.9761923 -0.1507356
vn -0.1511329 0.9421509 -0.2991833
vn 0.1117849 0.6796985 -0.7249235
vn -0.1117849 0.6796985 -0.7249235
vn -0.6499906 0.6269527 -0.4294678
vn -0.9221982 0.3073994 -0.2346403
vn -0.6168079 0.5430611 -0.5697655
vn -0.8918148 0.2972716 -0.3410219
vn 0.9446129 0.3148709 -0.09253544
vn 0.718734 0.6610414 -0.2155125
vn -0.1626993 0.9866757 0
vn 0.1626993 0.9866757 0
vn -0.1132313 0.6881952 -0.7166353
vn -0.6817034 0.7230595 -0.1116489
vn -0.9475544 0.3158515 -0.04877118
vn -0.675246 0.7015929 -0.2276181
vn -0.9425591 0.3141864 -0.1134429
vn -0.1336012 0.8217822 -0.5539176
vn -0.718734 0.6610414 -0.2155125
vn -0.7295182 0.6839613 0
vn -0.8664856 0.2888285 -0.4071619
vn -0.9446129 0.3148709 -0.09253544
vn -0.9486833 0.3162278 0
vn 0.9486833 0.3162278 0
vn 0.7295182 0.6839613 0
vn 0.9475544 0.3158515 -0.04877118
vn 0.9425591 0.3141864 -0.1134429
vn -0.6796184 0.6028937 -0.4178974
vn -0.930716 0.3102387 -0.1936994
vn -0.8783759 0.292792 -0.3777944
vn -0.6280028 0.5323336 -0.567656
vn -0.9063383 0.3021127 -0.2954298
vn 0.8664856 0.2888285 -0.4071619
vn 0.8783759 0.292792 -0.3777944
vn 0.1132313 0.6881952 -0.7166353
vn -0.154889 0.9386889 0.3080142
vn 0.154889 0.9386889 0.3080142
vn -0.718734 0.6610414 0.2155125
vn -0.9446129 0.3148709 0.09253544
vn -0.6168079 0.5430611 0.5697655
vn -0.6499906 0.6269527 0.4294678
vn -0.1132313 0.6881952 0.7166353
vn -0.1336012 0.8217822 0.5539176
vn 0.1511329 0.9421509 0.2991833
vn 0.1559725 0.9761923 0.1507356
vn 0.675246 0.7015929 0.2276181
vn 0.6817034 0.7230595 0.1116489
vn 0.1132313 0.6881952 0.7166353
vn 0.6168079 0.5430611 0.5697655
vn 0.09849066 0.595748 0.7971097
vn 0.5870982 0.4841453 0.6487827
vn 0.9063383 0.3021127 0.2954298
vn 0.6280028 0.5323336 0.567656
vn 0.8783759 0.292792 0.3777944
vn 0.5882908 0.4799129 0.6508437
vn -0.6796184 0.6028937 0.4178974
vn -0.1339542 0.8136349 0.5657336
vn 0.1339542 0.8136349 0.5657336
vn -0.675246 0.7015929 0.2276181
vn -0.9425591 0.3141864 0.1134429
vn -0.6817034 0.7230595 0.1116489
vn -0.9475544 0.3158515 0.04877118
vn -0.09735038 0.5908536 0.8008838
vn 0.09735038 0.5908536 0.8008838
vn -0.1117849 0.6796985 0.7249235
vn 0.1117849 0.6796985 0.7249235
vn 0.6796184 0.6028937 0.4178974
vn -0.1511329 0.9421509 0.2991833
vn -0.1559725 0.9761923 0.1507356
vn -0.9221982 0.3073994 0.2346403
vn 0.1336012 0.8217822 0.5539176
vn 0.6499906 0.6269527 0.4294678
vn 0.9446129 0.3148709 0.09253544
vn 0.718734 0.6610414 0.2155125
vn -0.5882908 0.4799129 0.6508437
vn -0.6280028 0.5323336 0.567656
vn 0.8918148 0.2972716 0.3410219
vn 0.9221982 0.3073994 0.2346403
vn -0.930716 0.3102387 0.1936994
vn 0.8664856 0.2888285 0.4071619
vn -0.5870982 0.4841453 0.6487827
vn -0.8664856 0.2888285 0.4071619
vn -0.8918148 0.2972716 0.3410219
vn -0.09849066 0.595748 0.7971097
vn 0.9425591 0.3141864 0.1134429
vn 0.9475544 0.3158515 0.04877118
vn 0.930716 0.3102387 0.1936994
vn -0.9063383 0.3021127 0.2954298
vn -0.8783759 0.292792 0.3777944

vt 0.90625 0.375
vt 0.28125 0.375

usemtl colormap

f 3/1/2 2/1/1 1/1/1
f 2/1/1 3/1/2 4/1/2
f 7/1/4 6/1/3 5/1/3
f 6/1/3 7/1/4 8/1/4
f 11/1/1 10/1/2 9/1/1
f 10/1/2 11/1/1 12/1/2
f 2/1/1 6/1/3 1/1/1
f 6/1/3 2/1/1 5/1/3
f 15/1/3 14/1/1 13/1/3
f 14/1/1 15/1/3 16/1/1
f 12/1/2 17/1/5 10/1/2
f 17/1/5 12/1/2 18/1/5
f 21/1/3 20/1/4 19/1/4
f 20/1/4 21/1/3 22/1/3
f 21/1/3 9/1/1 22/1/3
f 9/1/1 21/1/3 11/1/1
f 16/1/1 23/1/2 14/1/1
f 23/1/2 16/1/1 24/1/2
f 19/1/4 26/1/4 25/1/4
f 26/1/4 19/1/4 20/1/4
f 27/1/4 8/1/4 7/1/4
f 8/1/4 27/1/4 28/1/4
f 15/1/3 28/1/4 27/1/4
f 28/1/4 15/1/3 13/1/3
f 31/1/6 30/1/2 29/1/6
f 30/1/2 31/1/6 32/1/2
f 35/1/1 34/1/3 33/1/1
f 34/1/3 35/1/1 36/1/3
f 24/1/2 37/1/5 23/1/2
f 37/1/5 24/1/2 38/1/5
f 41/1/7 40/1/8 39/1/7
f 40/1/8 41/1/7 42/1/8
f 18/1/5 43/1/7 17/1/5
f 43/1/7 18/1/5 44/1/7
f 32/1/2 33/1/1 30/1/2
f 33/1/1 32/1/2 35/1/1
f 47/1/9 46/1/10 45/1/9
f 46/1/10 47/1/9 48/1/10
f 51/1/9 50/1/10 49/1/9
f 50/1/10 51/1/9 52/1/10
f 53/1/11 47/1/9 45/1/9
f 47/1/9 53/1/11 54/1/11
f 57/1/9 56/1/11 55/1/11
f 56/1/11 57/1/9 58/1/9
f 48/1/10 39/1/7 46/1/10
f 39/1/7 48/1/10 41/1/7
f 50/1/10 60/1/7 59/1/7
f 60/1/7 50/1/10 52/1/10
f 38/1/5 61/1/7 37/1/5
f 61/1/7 38/1/5 62/1/7
f 65/1/10 64/1/9 63/1/10
f 64/1/9 65/1/10 66/1/9
f 68/1/10 57/1/9 67/1/10
f 57/1/9 68/1/10 58/1/9
f 25/1/4 34/1/3 36/1/3
f 34/1/3 25/1/4 26/1/4
f 70/1/6 3/1/2 69/1/6
f 3/1/2 70/1/6 4/1/2
f 71/1/12 70/1/12 69/1/12
f 71/1/12 72/1/12 70/1/12
f 72/1/12 71/1/12 73/1/12
f 73/1/12 71/1/12 74/1/12
f 75/1/12 73/1/12 74/1/12
f 76/1/12 73/1/12 75/1/12
f 73/1/12 76/1/12 29/1/12
f 29/1/12 76/1/12 31/1/12
f 77/1/11 51/1/9 49/1/9
f 51/1/9 77/1/11 78/1/11
f 44/1/7 67/1/10 43/1/7
f 67/1/10 44/1/7 68/1/10
f 81/1/13 80/1/13 79/1/13
f 81/1/13 82/1/13 80/1/13
f 82/1/13 81/1/13 83/1/13
f 83/1/13 81/1/13 84/1/13
f 85/1/13 83/1/13 84/1/13
f 86/1/13 83/1/13 85/1/13
f 83/1/13 86/1/13 42/1/13
f 42/1/13 86/1/13 40/1/13
f 60/1/7 80/1/8 59/1/7
f 80/1/8 60/1/7 79/1/8
f 64/1/9 88/1/11 87/1/11
f 88/1/11 64/1/9 66/1/9
f 87/1/11 54/1/11 53/1/11
f 54/1/11 87/1/11 88/1/11
f 83/1/14 73/1/14 82/1/14
f 73/1/14 83/1/14 72/1/14
f 62/1/7 63/1/10 61/1/7
f 63/1/10 62/1/7 65/1/10
f 83/1/15 70/1/15 72/1/15
f 70/1/15 83/1/15 4/1/15
f 4/1/15 83/1/15 2/1/15
f 2/1/15 83/1/15 5/1/15
f 5/1/15 83/1/15 7/1/15
f 7/1/15 83/1/15 27/1/15
f 27/1/15 83/1/15 15/1/15
f 15/1/15 83/1/15 16/1/15
f 16/1/15 83/1/15 24/1/15
f 24/1/15 83/1/15 38/1/15
f 38/1/15 83/1/15 62/1/15
f 62/1/15 83/1/15 47/1/15
f 62/1/15 47/1/15 65/1/15
f 47/1/15 83/1/15 48/1/15
f 48/1/15 83/1/15 41/1/15
f 41/1/15 83/1/15 42/1/15
f 65/1/15 47/1/15 54/1/15
f 65/1/15 54/1/15 66/1/15
f 66/1/15 54/1/15 88/1/15
f 30/1/16 73/1/16 29/1/16
f 73/1/16 30/1/16 82/1/16
f 82/1/16 30/1/16 33/1/16
f 82/1/16 33/1/16 34/1/16
f 82/1/16 34/1/16 26/1/16
f 82/1/16 26/1/16 20/1/16
f 82/1/16 20/1/16 22/1/16
f 82/1/16 22/1/16 9/1/16
f 82/1/16 9/1/16 10/1/16
f 82/1/16 10/1/16 17/1/16
f 82/1/16 17/1/16 43/1/16
f 82/1/16 43/1/16 49/1/16
f 49/1/16 43/1/16 67/1/16
f 82/1/16 49/1/16 50/1/16
f 82/1/16 50/1/16 59/1/16
f 82/1/16 59/1/16 80/1/16
f 49/1/16 67/1/16 77/1/16
f 77/1/16 67/1/16 57/1/16
f 77/1/16 57/1/16 55/1/16
f 55/1/11 78/1/11 77/1/11
f 78/1/11 55/1/11 56/1/11
f 91/2/19 90/2/18 89/2/17
f 90/2/18 91/2/19 92/2/20
f 95/2/23 94/2/22 93/2/21
f 94/2/22 95/2/23 96/2/24
f 99/2/27 98/2/26 97/2/25
f 98/2/26 99/2/27 100/2/28
f 103/2/31 102/2/30 101/2/29
f 102/2/30 103/2/31 104/2/32
f 71/2/34 95/2/23 74/2/33
f 95/2/23 71/2/34 96/2/24
f 6/2/36 94/2/22 1/2/35
f 94/2/22 6/2/36 105/2/37
f 14/2/40 106/2/39 13/2/38
f 106/2/39 14/2/40 107/2/41
f 74/2/33 108/2/43 75/2/42
f 108/2/43 74/2/33 95/2/23
f 109/2/44 103/2/31 98/2/26
f 103/2/31 109/2/44 110/2/45
f 109/2/44 89/2/17 110/2/45
f 89/2/17 109/2/44 91/2/19
f 100/2/28 109/2/44 98/2/26
f 109/2/44 100/2/28 106/2/39
f 112/2/48 35/2/47 111/2/46
f 35/2/47 112/2/48 36/2/49
f 23/2/50 107/2/41 14/2/40
f 107/2/41 23/2/50 113/2/51
f 92/2/20 114/2/52 90/2/18
f 114/2/52 92/2/20 115/2/53
f 101/2/29 112/2/48 116/2/54
f 112/2/48 101/2/29 102/2/30
f 117/2/57 31/2/56 76/2/55
f 31/2/56 117/2/57 32/2/58
f 95/2/23 118/2/59 108/2/43
f 118/2/59 95/2/23 93/2/21
f 98/2/26 101/2/29 97/2/25
f 101/2/29 98/2/26 103/2/31
f 118/2/59 112/2/48 111/2/46
f 112/2/48 118/2/59 116/2/54
f 90/2/18 120/2/61 119/2/60
f 120/2/61 90/2/18 114/2/52
f 108/2/43 111/2/46 117/2/57
f 111/2/46 108/2/43 118/2/59
f 102/2/30 36/2/49 112/2/48
f 36/2/49 102/2/30 25/2/62
f 120/2/61 12/2/63 119/2/60
f 12/2/63 120/2/61 18/2/64
f 37/2/65 113/2/51 23/2/50
f 113/2/51 37/2/65 121/2/66
f 3/2/68 71/2/34 69/2/67
f 71/2/34 3/2/68 96/2/24
f 119/2/60 11/2/70 122/2/69
f 11/2/70 119/2/60 12/2/63
f 1/2/35 96/2/24 3/2/68
f 96/2/24 1/2/35 94/2/22
f 123/2/72 19/2/71 104/2/32
f 19/2/71 123/2/72 21/2/73
f 104/2/32 25/2/62 102/2/30
f 25/2/62 104/2/32 19/2/71
f 28/2/75 99/2/27 8/2/74
f 99/2/27 28/2/75 100/2/28
f 107/2/41 92/2/20 91/2/19
f 92/2/20 107/2/41 113/2/51
f 106/2/39 91/2/19 109/2/44
f 91/2/19 106/2/39 107/2/41
f 110/2/45 122/2/69 123/2/72
f 122/2/69 110/2/45 89/2/17
f 93/2/21 116/2/54 118/2/59
f 116/2/54 93/2/21 124/2/76
f 94/2/22 124/2/76 93/2/21
f 124/2/76 94/2/22 105/2/37
f 110/2/45 104/2/32 103/2/31
f 104/2/32 110/2/45 123/2/72
f 13/2/38 100/2/28 28/2/75
f 100/2/28 13/2/38 106/2/39
f 89/2/17 119/2/60 122/2/69
f 119/2/60 89/2/17 90/2/18
f 122/2/69 21/2/73 123/2/72
f 21/2/73 122/2/69 11/2/70
f 115/2/53 125/2/77 114/2/52
f 125/2/77 115/2/53 126/2/78
f 127/2/79 18/2/64 120/2/61
f 18/2/64 127/2/79 44/2/80
f 130/2/83 129/2/82 128/2/81
f 129/2/82 130/2/83 131/2/84
f 105/2/37 97/2/25 124/2/76
f 97/2/25 105/2/37 99/2/27
f 133/2/87 85/2/86 132/2/85
f 85/2/86 133/2/87 86/2/88
f 136/2/91 135/2/90 134/2/89
f 135/2/90 136/2/91 137/2/92
f 87/2/95 138/2/94 64/2/93
f 138/2/94 87/2/95 139/2/96
f 125/2/77 140/2/97 127/2/79
f 140/2/97 125/2/77 141/2/98
f 126/2/78 141/2/98 125/2/77
f 141/2/98 126/2/78 142/2/99
f 81/2/102 60/2/101 143/2/100
f 60/2/101 81/2/102 79/2/103
f 146/2/106 145/2/105 144/2/104
f 145/2/105 146/2/106 147/2/107
f 148/2/108 147/2/107 142/2/99
f 147/2/107 148/2/108 138/2/94
f 149/2/109 81/2/102 143/2/100
f 81/2/102 149/2/109 84/2/110
f 143/2/100 52/2/111 129/2/82
f 52/2/111 143/2/100 60/2/101
f 134/2/89 131/2/84 130/2/83
f 131/2/84 134/2/89 150/2/112
f 132/2/85 84/2/110 149/2/109
f 84/2/110 132/2/85 85/2/86
f 114/2/52 127/2/79 120/2/61
f 127/2/79 114/2/52 125/2/77
f 8/2/74 105/2/37 6/2/36
f 105/2/37 8/2/74 99/2/27
f 75/2/42 117/2/57 76/2/55
f 117/2/57 75/2/42 108/2/43
f 135/2/90 150/2/112 134/2/89
f 150/2/112 135/2/90 151/2/113
f 61/2/114 121/2/66 37/2/65
f 121/2/66 61/2/114 152/2/115
f 131/2/84 132/2/85 149/2/109
f 132/2/85 131/2/84 150/2/112
f 153/2/116 146/2/106 144/2/104
f 146/2/106 153/2/116 154/2/117
f 46/2/119 135/2/90 45/2/118
f 135/2/90 46/2/119 151/2/113
f 140/2/97 44/2/80 127/2/79
f 44/2/80 140/2/97 68/2/120
f 141/2/98 154/2/117 140/2/97
f 154/2/117 141/2/98 146/2/106
f 147/2/107 139/2/96 145/2/105
f 139/2/96 147/2/107 138/2/94
f 152/2/115 142/2/99 126/2/78
f 142/2/99 152/2/115 148/2/108
f 53/2/121 139/2/96 87/2/95
f 139/2/96 53/2/121 137/2/92
f 128/2/81 78/2/123 155/2/122
f 78/2/123 128/2/81 51/2/124
f 111/2/46 32/2/58 117/2/57
f 32/2/58 111/2/46 35/2/47
f 97/2/25 116/2/54 124/2/76
f 116/2/54 97/2/25 101/2/29
f 156/2/125 134/2/89 130/2/83
f 134/2/89 156/2/125 136/2/91
f 128/2/81 156/2/125 130/2/83
f 156/2/125 128/2/81 155/2/122
f 129/2/82 51/2/124 128/2/81
f 51/2/124 129/2/82 52/2/111
f 129/2/82 149/2/109 143/2/100
f 149/2/109 129/2/82 131/2/84
f 40/2/127 133/2/87 39/2/126
f 133/2/87 40/2/127 86/2/88
f 155/2/122 144/2/104 156/2/125
f 144/2/104 155/2/122 153/2/116
f 64/2/93 148/2/108 63/2/128
f 148/2/108 64/2/93 138/2/94
f 153/2/116 58/2/129 154/2/117
f 58/2/129 153/2/116 56/2/130
f 39/2/126 151/2/113 46/2/119
f 151/2/113 39/2/126 133/2/87
f 151/2/113 132/2/85 150/2/112
f 132/2/85 151/2/113 133/2/87
f 145/2/105 137/2/92 136/2/91
f 137/2/92 145/2/105 139/2/96
f 45/2/118 137/2/92 53/2/121
f 137/2/92 45/2/118 135/2/90
f 144/2/104 136/2/91 156/2/125
f 136/2/91 144/2/104 145/2/105
f 155/2/122 56/2/130 153/2/116
f 56/2/130 155/2/122 78/2/123
f 121/2/66 126/2/78 115/2/53
f 126/2/78 121/2/66 152/2/115
f 154/2/117 68/2/120 140/2/97
f 68/2/120 154/2/117 58/2/129
f 63/2/128 152/2/115 61/2/114
f 152/2/115 63/2/128 148/2/108
f 142/2/99 146/2/106 141/2/98
f 146/2/106 142/2/99 147/2/107
f 113/2/51 115/2/53 92/2/20
f 115/2/53 113/2/51 121/2/66

g bump-solid-d




usemtl colormap

f 3/1/2 2/1/1 1/1/1
f 2/1/1 3/1/2 4/1/2
f 7/1/4 6/1/3 5/1/3
f 6/1/3 7/1/4 8/1/4
f 11/1/1 10/1/2 9/1/1
f 10/1/2 11/1/1 12/1/2
f 2/1/1 6/1/3 1/1/1
f 6/1/3 2/1/1 5/1/3
f 15/1/3 14/1/1 13/1/3
f 14/1/1 15/1/3 16/1/1
f 12/1/2 17/1/5 10/1/2
f 17/1/5 12/1/2 18/1/5
f 21/1/3 20/1/4 19/1/4
f 20/1/4 21/1/3 22/1/3
f 21/1/3 9/1/1 22/1/3
f 9/1/1 21/1/3 11/1/1
f 16/1/1 23/1/2 14/1/1
f 23/1/2 16/1/1 24/1/2
f 19/1/4 26/1/4 25/1/4
f 26/1/4 19/1/4 20/1/4
f 27/1/4 8/1/4 7/1/4
f 8/1/4 27/1/4 28/1/4
f 15/1/3 28/1/4 27/1/4
f 28/1/4 15/1/3 13/1/3
f 31/1/6 30/1/2 29/1/6
f 30/1/2 31/1/6 32/1/2
f 35/1/1 34/1/3 33/1/1
f 34/1/3 35/1/1 36/1/3
f 24/1/2 37/1/5 23/1/2
f 37/1/5 24/1/2 38/1/5
f 41/1/7 40/1/8 39/1/7
f 40/1/8 41/1/7 42/1/8
f 18/1/5 43/1/7 17/1/5
f 43/1/7 18/1/5 44/1/7
f 32/1/2 33/1/1 30/1/2
f 33/1/1 32/1/2 35/1/1
f 47/1/9 46/1/10 45/1/9
f 46/1/10 47/1/9 48/1/10
f 51/1/9 50/1/10 49/1/9
f 50/1/10 51/1/9 52/1/10
f 53/1/11 47/1/9 45/1/9
f 47/1/9 53/1/11 54/1/11
f 57/1/9 56/1/11 55/1/11
f 56/1/11 57/1/9 58/1/9
f 48/1/10 39/1/7 46/1/10
f 39/1/7 48/1/10 41/1/7
f 50/1/10 60/1/7 59/1/7
f 60/1/7 50/1/10 52/1/10
f 38/1/5 61/1/7 37/1/5
f 61/1/7 38/1/5 62/1/7
f 65/1/10 64/1/9 63/1/10
f 64/1/9 65/1/10 66/1/9
f 68/1/10 57/1/9 67/1/10
f 57/1/9 68/1/10 58/1/9
f 25/1/4 34/1/3 36/1/3
f 34/1/3 25/1/4 26/1/4
f 70/1/6 3/1/2 69/1/6
f 3/1/2 70/1/6 4/1/2
f 71/1/12 70/1/12 69/1/12
f 71/1/12 72/1/12 70/1/12
f 72/1/12 71/1/12 73/1/12
f 73/1/12 71/1/12 74/1/12
f 75/1/12 73/1/12 74/1/12
f 76/1/12 73/1/12 75/1/12
f 73/1/12 76/1/12 29/1/12
f 29/1/12 76/1/12 31/1/12
f 77/1/11 51/1/9 49/1/9
f 51/1/9 77/1/11 78/1/11
f 44/1/7 67/1/10 43/1/7
f 67/1/10 44/1/7 68/1/10
f 81/1/13 80/1/13 79/1/13
f 81/1/13 82/1/13 80/1/13
f 82/1/13 81/1/13 83/1/13
f 83/1/13 81/1/13 84/1/13
f 85/1/13 83/1/13 84/1/13
f 86/1/13 83/1/13 85/1/13
f 83/1/13 86/1/13 42/1/13
f 42/1/13 86/1/13 40/1/13
f 60/1/7 80/1/8 59/1/7
f 80/1/8 60/1/7 79/1/8
f 64/1/9 88/1/11 87/1/11
f 88/1/11 64/1/9 66/1/9
f 87/1/11 54/1/11 53/1/11
f 54/1/11 87/1/11 88/1/11
f 83/1/14 73/1/14 82/1/14
f 73/1/14 83/1/14 72/1/14
f 62/1/7 63/1/10 61/1/7
f 63/1/10 62/1/7 65/1/10
f 83/1/15 70/1/15 72/1/15
f 70/1/15 83/1/15 4/1/15
f 4/1/15 83/1/15 2/1/15
f 2/1/15 83/1/15 5/1/15
f 5/1/15 83/1/15 7/1/15
f 7/1/15 83/1/15 27/1/15
f 27/1/15 83/1/15 15/1/15
f 15/1/15 83/1/15 16/1/15
f 16/1/15 83/1/15 24/1/15
f 24/1/15 83/1/15 38/1/15
f 38/1/15 83/1/15 62/1/15
f 62/1/15 83/1/15 47/1/15
f 62/1/15 47/1/15 65/1/15
f 47/1/15 83/1/15 48/1/15
f 48/1/15 83/1/15 41/1/15
f 41/1/15 83/1/15 42/1/15
f 65/1/15 47/1/15 54/1/15
f 65/1/15 54/1/15 66/1/15
f 66/1/15 54/1/15 88/1/15
f 30/1/16 73/1/16 29/1/16
f 73/1/16 30/1/16 82/1/16
f 82/1/16 30/1/16 33/1/16
f 82/1/16 33/1/16 34/1/16
f 82/1/16 34/1/16 26/1/16
f 82/1/16 26/1/16 20/1/16
f 82/1/16 20/1/16 22/1/16
f 82/1/16 22/1/16 9/1/16
f 82/1/16 9/1/16 10/1/16
f 82/1/16 10/1/16 17/1/16
f 82/1/16 17/1/16 43/1/16
f 82/1/16 43/1/16 49/1/16
f 49/1/16 43/1/16 67/1/16
f 82/1/16 49/1/16 50/1/16
f 82/1/16 50/1/16 59/1/16
f 82/1/16 59/1/16 80/1/16
f 49/1/16 67/1/16 77/1/16
f 77/1/16 67/1/16 57/1/16
f 77/1/16 57/1/16 55/1/16
f 55/1/11 78/1/11 77/1/11
f 78/1/11 55/1/11 56/1/11
f 91/2/19 90/2/18 89/2/17
f 90/2/18 91/2/19 92/2/20
f 95/2/23 94/2/22 93/2/21
f 94/2/22 95/2/23 96/2/24
f 99/2/27 98/2/26 97/2/25
f 98/2/26 99/2/27 100/2/28
f 103/2/31 102/2/30 101/2/29
f 102/2/30 103/2/31 104/2/32
f 71/2/34 95/2/23 74/2/33
f 95/2/23 71/2/34 96/2/24
f 6/2/36 94/2/22 1/2/35
f 94/2/22 6/2/36 105/2/37
f 14/2/40 106/2/39 13/2/38
f 106/2/39 14/2/40 107/2/41
f 74/2/33 108/2/43 75/2/42
f 108/2/43 74/2/33 95/2/23
f 109/2/44 103/2/31 98/2/26
f 103/2/31 109/2/44 110/2/45
f 109/2/44 89/2/17 110/2/45
f 89/2/17 109/2/44 91/2/19
f 100/2/28 109/2/44 98/2/26
f 109/2/44 100/2/28 106/2/39
f 112/2/48 35/2/47 111/2/46
f 35/2/47 112/2/48 36/2/49
f 23/2/50 107/2/41 14/2/40
f 107/2/41 23/2/50 113/2/51
f 92/2/20 114/2/52 90/2/18
f 114/2/52 92/2/20 115/2/53
f 101/2/29 112/2/48 116/2/54
f 112/2/48 101/2/29 102/2/30
f 117/2/57 31/2/56 76/2/55
f 31/2/56 117/2/57 32/2/58
f 95/2/23 118/2/59 108/2/43
f 118/2/59 95/2/23 93/2/21
f 98/2/26 101/2/29 97/2/25
f 101/2/29 98/2/26 103/2/31
f 118/2/59 112/2/48 111/2/46
f 112/2/48 118/2/59 116/2/54
f 90/2/18 120/2/61 119/2/60
f 120/2/61 90/2/18 114/2/52
f 108/2/43 111/2/46 117/2/57
f 111/2/46 108/2/43 118/2/59
f 102/2/30 36/2/49 112/2/48
f 36/2/49 102/2/30 25/2/62
f 120/2/61 12/2/63 119/2/60
f 12/2/63 120/2/61 18/2/64
f 37/2/65 113/2/51 23/2/50
f 113/2/51 37/2/65 121/2/66
f 3/2/68 71/2/34 69/2/67
f 71/2/34 3/2/68 96/2/24
f 119/2/60 11/2/70 122/2/69
f 11/2/70 119/2/60 12/2/63
f 1/2/35 96/2/24 3/2/68
f 96/2/24 1/2/35 94/2/22
f 123/2/72 19/2/71 104/2/32
f 19/2/71 123/2/72 21/2/73
f 104/2/32 25/2/62 102/2/30
f 25/2/62 104/2/32 19/2/71
f 28/2/75 99/2/27 8/2/74
f 99/2/27 28/2/75 100/2/28
f 107/2/41 92/2/20 91/2/19
f 92/2/20 107/2/41 113/2/51
f 106/2/39 91/2/19 109/2/44
f 91/2/19 106/2/39 107/2/41
f 110/2/45 122/2/69 123/2/72
f 122/2/69 110/2/45 89/2/17
f 93/2/21 116/2/54 118/2/59
f 116/2/54 93/2/21 124/2/76
f 94/2/22 124/2/76 93/2/21
f 124/2/76 94/2/22 105/2/37
f 110/2/45 104/2/32 103/2/31
f 104/2/32 110/2/45 123/2/72
f 13/2/38 100/2/28 28/2/75
f 100/2/28 13/2/38 106/2/39
f 89/2/17 119/2/60 122/2/69
f 119/2/60 89/2/17 90/2/18
f 122/2/69 21/2/73 123/2/72
f 21/2/73 122/2/69 11/2/70
f 115/2/53 125/2/77 114/2/52
f 125/2/77 115/2/53 126/2/78
f 127/2/79 18/2/64 120/2/61
f 18/2/64 127/2/79 44/2/80
f 130/2/83 129/2/82 128/2/81
f 129/2/82 130/2/83 131/2/84
f 105/2/37 97/2/25 124/2/76
f 97/2/25 105/2/37 99/2/27
f 133/2/87 85/2/86 132/2/85
f 85/2/86 133/2/87 86/2/88
f 136/2/91 135/2/90 134/2/89
f 135/2/90 136/2/91 137/2/92
f 87/2/95 138/2/94 64/2/93
f 138/2/94 87/2/95 139/2/96
f 125/2/77 140/2/97 127/2/79
f 140/2/97 125/2/77 141/2/98
f 126/2/78 141/2/98 125/2/77
f 141/2/98 126/2/78 142/2/99
f 81/2/102 60/2/101 143/2/100
f 60/2/101 81/2/102 79/2/103
f 146/2/106 145/2/105 144/2/104
f 145/2/105 146/2/106 147/2/107
f 148/2/108 147/2/107 142/2/99
f 147/2/107 148/2/108 138/2/94
f 149/2/109 81/2/102 143/2/100
f 81/2/102 149/2/109 84/2/110
f 143/2/100 52/2/111 129/2/82
f 52/2/111 143/2/100 60/2/101
f 134/2/89 131/2/84 130/2/83
f 131/2/84 134/2/89 150/2/112
f 132/2/85 84/2/110 149/2/109
f 84/2/110 132/2/85 85/2/86
f 114/2/52 127/2/79 120/2/61
f 127/2/79 114/2/52 125/2/77
f 8/2/74 105/2/37 6/2/36
f 105/2/37 8/2/74 99/2/27
f 75/2/42 117/2/57 76/2/55
f 117/2/57 75/2/42 108/2/43
f 135/2/90 150/2/112 134/2/89
f 150/2/112 135/2/90 151/2/113
f 61/2/114 121/2/66 37/2/65
f 121/2/66 61/2/114 152/2/115
f 131/2/84 132/2/85 149/2/109
f 132/2/85 131/2/84 150/2/112
f 153/2/116 146/2/106 144/2/104
f 146/2/106 153/2/116 154/2/117
f 46/2/119 135/2/90 45/2/118
f 135/2/90 46/2/119 151/2/113
f 140/2/97 44/2/80 127/2/79
f 44/2/80 140/2/97 68/2/120
f 141/2/98 154/2/117 140/2/97
f 154/2/117 141/2/98 146/2/106
f 147/2/107 139/2/96 145/2/105
f 139/2/96 147/2/107 138/2/94
f 152/2/115 142/2/99 126/2/78
f 142/2/99 152/2/115 148/2/108
f 53/2/121 139/2/96 87/2/95
f 139/2/96 53/2/121 137/2/92
f 128/2/81 78/2/123 155/2/122
f 78/2/123 128/2/81 51/2/124
f 111/2/46 32/2/58 117/2/57
f 32/2/58 111/2/46 35/2/47
f 97/2/25 116/2/54 124/2/76
f 116/2/54 97/2/25 101/2/29
f 156/2/125 134/2/89 130/2/83
f 134/2/89 156/2/125 136/2/91
f 128/2/81 156/2/125 130/2/83
f 156/2/125 128/2/81 155/2/122
f 129/2/82 51/2/124 128/2/81
f 51/2/124 129/2/82 52/2/111
f 129/2/82 149/2/109 143/2/100
f 149/2/109 129/2/82 131/2/84
f 40/2/127 133/2/87 39/2/126
f 133/2/87 40/2/127 86/2/88
f 155/2/122 144/2/104 156/2/125
f 144/2/104 155/2/122 153/2/116
f 64/2/93 148/2/108 63/2/128
f 148/2/108 64/2/93 138/2/94
f 153/2/116 58/2/129 154/2/117
f 58/2/129 153/2/116 56/2/130
f 39/2/126 151/2/113 46/2/119
f 151/2/113 39/2/126 133/2/87
f 151/2/113 132/2/85 150/2/112
f 132/2/85 151/2/113 133/2/87
f 145/2/105 137/2/92 136/2/91
f 137/2/92 145/2/105 139/2/96
f 45/2/118 137/2/92 53/2/121
f 137/2/92 45/2/118 135/2/90
f 144/2/104 136/2/91 156/2/125
f 136/2/91 144/2/104 145/2/105
f 155/2/122 56/2/130 153/2/116
f 56/2/130 155/2/122 78/2/123
f 121/2/66 126/2/78 115/2/53
f 126/2/78 121/2/66 152/2/115
f 154/2/117 68/2/120 140/2/97
f 68/2/120 154/2/117 58/2/129
f 63/2/128 152/2/115 61/2/114
f 152/2/115 63/2/128 148/2/108
f 142/2/99 146/2/106 141/2/98
f 146/2/106 142/2/99 147/2/107
f 113/2/51 115/2/53 92/2/20
f 115/2/53 113/2/51 121/2/66

