# Created by Kenney (www.kenney.nl)

mtllib corner-solid.mtl

g corner-solid

v -0.1767918 0.25 -0.2442379 1 1 1
v -0.2083045 0.25 -0.2083045 1 1 1
v -0.3258647 0.3125 -0.3586255 1 1 1
v -0.3411715 0.3125 -0.3411715 1 1 1
v -0.3720995 0.25 -0.1137374 1 1 1
v -0.4189751 0.25 -0.1044133 1 1 1
v -0.4207323 0.3125 -0.2952371 1 1 1
v -0.4435013 0.3125 -0.2907081 1 1 1
v -0.271592 0.3125 0.261362 1 1 1
v -0.3682877 0.3125 0.280596 1 1 1
v -0.3202247 0.25 0.07986227 1 1 1
v -0.3928139 0.25 0.09430116 1 1 1
v -0.283977 0.25 -0.1502389 1 1 1
v -0.3268421 0.25 -0.1291002 1 1 1
v -0.3779282 0.3125 -0.3129671 1 1 1
v -0.3987492 0.3125 -0.3026994 1 1 1
v -0.355737 0.5 -0.4369431 1 1 1
v -0.2952371 0.3125 -0.4207323 1 1 1
v -0.3605657 0.5 -0.4227182 1 1 1
v -0.3026994 0.3125 -0.3987492 1 1 1
v -0.3586255 0.3125 -0.3258647 1 1 1
v -0.3854605 0.5 -0.3854605 1 1 1
v -0.3967548 0.5 -0.3755557 1 1 1
v 0.2875 0.3125 -0.4736232 1 1 1
v 0.1 0.25 -0.4797613 1 1 1
v 0.2875 0.3125 -0.5 1 1 1
v 0.1 0.25 -0.5 1 1 1
v 0.186066 0.3125 -0.08981131 1 1 1
v 0.1312922 0.3125 -0.007836657 1 1 1
v 0.02333778 0.25 -0.1837625 1 1 1
v -0.01778068 0.25 -0.1222243 1 1 1
v -0.007836657 0.3125 0.1312922 1 1 1
v -0.08981131 0.3125 0.186066 1 1 1
v -0.1222243 0.25 -0.01778068 1 1 1
v -0.1837625 0.25 0.02333778 1 1 1
v -0.1 0.25 -0.4863086 1 1 1
v -0.2875 0.3125 -0.4924467 1 1 1
v -0.1 0.25 -0.5 1 1 1
v -0.2875 0.3125 -0.5 1 1 1
v 0.09430116 0.25 -0.3928139 1 1 1
v 0.07986227 0.25 -0.3202247 1 1 1
v 0.05607213 0.25 -0.2501412 1 1 1
v -0.06657971 0.25 -0.06657971 1 1 1
v -0.1044133 0.25 -0.4189751 1 1 1
v -0.1137374 0.25 -0.3720995 1 1 1
v -0.1291002 0.25 -0.3268421 1 1 1
v -0.1502389 0.25 -0.283977 1 1 1
v -0.2501412 0.25 0.05607213 1 1 1
v -0.2442379 0.25 -0.1767918 1 1 1
v -0.4797613 0.25 0.1 1 1 1
v -0.4863086 0.25 -0.1 1 1 1
v -0.5 0.25 0.1 1 1 1
v -0.5 0.25 -0.1 1 1 1
v 0.1809832 0.5 0.03029257 1 1 1
v 0.06628729 0.3125 0.06628729 1 1 1
v 0.1105763 0.5 0.1105763 1 1 1
v -0.4369431 0.5 -0.355737 1 1 1
v -0.4516766 0.5 -0.3528063 1 1 1
v 0.35 0.5 -0.4715772 1 1 1
v 0.280596 0.3125 -0.3682877 1 1 1
v 0.3426942 0.5 -0.3601123 1 1 1
v -0.4924467 0.3125 -0.2875 1 1 1
v -0.5 0.3125 -0.2875 1 1 1
v -0.3672099 0.5 -0.4092452 1 1 1
v -0.3129671 0.3125 -0.3779282 1 1 1
v -0.3755557 0.5 -0.3967548 1 1 1
v -0.1782341 0.3125 0.2296712 1 1 1
v -0.4227182 0.5 -0.3605657 1 1 1
v -0.4944928 0.5 -0.35 1 1 1
v -0.5 0.5 -0.35 1 1 1
v -0.154265 0.5 0.2875376 1 1 1
v -0.05849426 0.5 0.2403087 1 1 1
v 0.35 0.5 -0.5 1 1 1
v -0.3601123 0.5 0.3426942 1 1 1
v -0.2553811 0.5 0.3218619 1 1 1
v 0.2403087 0.5 -0.05849426 1 1 1
v 0.2296712 0.3125 -0.1782341 1 1 1
v -0.2907081 0.3125 -0.4435013 1 1 1
v 0.261362 0.3125 -0.271592 1 1 1
v 0.3218619 0.5 -0.2553811 1 1 1
v 0.2875376 0.5 -0.154265 1 1 1
v -0.4736232 0.3125 0.2875 1 1 1
v -0.4715772 0.5 0.35 1 1 1
v -0.4092452 0.5 -0.3672099 1 1 1
v -0.3528063 0.5 -0.4516766 1 1 1
v -0.5 0.3125 0.2875 1 1 1
v -0.5 0.5 0.35 1 1 1
v 0.03029257 0.5 0.1809832 1 1 1
v -0.35 0.5 -0.4944928 1 1 1
v -0.35 0.5 -0.5 1 1 1
v -0.5 0 -0.5 1 1 1
v -0.5 0.5 -0.5 1 1 1
v -0.5 0 -0.4994033 1 1 1
v -0.5 0 -0.4710551 1 1 1
v -0.5 0 0.5 1 1 1
v -0.5 0.5 0.5 1 1 1
v 0.5 0 0.5 1 1 1
v 0.5 0 -0.5 1 1 1
v 0.5 0.5 -0.5 1 1 1
v 0.5 0.5 0.5 1 1 1
v -0.4666667 0.5 0.5 1 1 1
v 0.5 0.5 -0.4666667 1 1 1

vn 0.1216695 0.9881703 0.09336032
vn 0.1084427 0.9881703 0.1084427
vn 0.5530309 0.7169931 0.4243556
vn 0.4929101 0.7169931 0.4929101
vn 0.03969277 0.9881703 0.1481354
vn 0.02001764 0.9881703 0.1520491
vn 0.1804176 0.7169931 0.6733277
vn 0.09098721 0.7169931 0.6911166
vn -0.1852473 0.6983665 -0.6913522
vn -0.09342287 0.6983663 -0.7096171
vn -0.04305248 0.9860681 -0.1606741
vn -0.02171199 0.9860681 -0.1649189
vn 0.07668054 0.9881703 0.1328146
vn 0.05868875 0.9881703 0.1416872
vn 0.3485401 0.7169931 0.6036892
vn 0.2667611 0.7169931 0.6440181
vn 0.9161609 0.3168382 0.2454846
vn 0.6733277 0.7169931 0.1804176
vn 0.8762809 0.3168382 0.3629674
vn 0.6440181 0.7169931 0.2667611
vn 0.4243555 0.7169931 0.5530309
vn 0.6706764 0.3168382 0.6706764
vn 0.5773978 0.3168383 0.7524795
vn -0.7112119 0.702592 -0.02328267
vn -0.163262 0.9865682 -0.005344645
vn -0.7071068 0.7071068 0
vn -0.1601822 0.9870875 0
vn -0.6198494 0.6983665 -0.3578703
vn -0.5678351 0.6983664 -0.4357152
vn -0.1440564 0.9860681 -0.083171
vn -0.131968 0.9860681 -0.1012626
vn -0.4357152 0.6983664 -0.5678351
vn -0.3578703 0.6983665 -0.6198494
vn -0.1012626 0.9860681 -0.131968
vn -0.083171 0.9860681 -0.1440564
vn 0.1567657 0.9876226 0.005131976
vn 0.7018967 0.7119081 0.02297772
vn 0.1601822 0.9870875 0
vn 0.7071068 0.7071068 0
vn -0.1649189 0.9860681 -0.02171199
vn -0.1606741 0.9860681 -0.04305248
vn -0.15368 0.9860681 -0.06365633
vn -0.1176216 0.9860681 -0.1176216
vn 0.1520491 0.9881703 0.02001764
vn 0.1481354 0.9881703 0.03969277
vn 0.1416872 0.9881703 0.05868875
vn 0.1328146 0.9881703 0.07668054
vn -0.06365633 0.9860681 -0.15368
vn 0.09336032 0.9881703 0.1216695
vn -0.005344645 0.9865682 -0.163262
vn 0.005131976 0.9876226 0.1567657
vn 0 0.9870875 -0.1601822
vn 0 0.9870875 0.1601822
vn -0.7524795 0.3168383 -0.5773978
vn -0.5061049 0.6983665 -0.5061049
vn -0.6706764 0.3168382 -0.6706764
vn 0.2454846 0.3168382 0.9161609
vn 0.1238014 0.3168383 0.9403653
vn -0.9481246 0.3163802 -0.03103838
vn -0.7096171 0.6983663 -0.09342287
vn -0.9403653 0.3168383 -0.1238014
vn 0.02297772 0.7119081 0.7018967
vn 0 0.7071068 0.7071068
vn 0.8214074 0.3168383 0.4742398
vn 0.6036892 0.7169931 0.3485401
vn 0.7524795 0.3168383 0.5773978
vn -0.273902 0.6983665 -0.661258
vn 0.3629674 0.3168382 0.8762809
vn 0.03103838 0.3163802 0.9481246
vn 0 0.3162278 0.9486833
vn -0.3629674 0.3168382 -0.8762809
vn -0.4742398 0.3168383 -0.8214074
vn -0.9486833 0.3162278 0
vn -0.1238014 0.3168383 -0.9403653
vn -0.2454846 0.3168382 -0.9161609
vn -0.8214074 0.3168383 -0.4742398
vn -0.661258 0.6983665 -0.273902
vn 0.6911166 0.7169931 0.09098721
vn -0.6913522 0.6983665 -0.1852473
vn -0.9161609 0.3168382 -0.2454846
vn -0.8762809 0.3168382 -0.3629674
vn -0.02328267 0.702592 -0.7112119
vn -0.03103838 0.3163802 -0.9481246
vn 0.4742398 0.3168383 0.8214074
vn 0.9403653 0.3168383 0.1238014
vn 0 0.7071068 -0.7071068
vn 0 0.3162278 -0.9486833
vn -0.5773978 0.3168383 -0.7524795
vn 0.9481246 0.3163802 0.03103838
vn 0.9486833 0.3162278 0
vn -1 0 0
vn 0 -1 0
vn 0 1 0
vn 0 0 -1
vn 0 0 1
vn 1 0 0

vt 0.28125 0.375
vt 0.90625 0.375

usemtl colormap

f 3/1/3 2/1/2 1/1/1
f 2/1/2 3/1/3 4/1/4
f 7/1/7 6/1/6 5/1/5
f 6/1/6 7/1/7 8/1/8
f 11/1/11 10/1/10 9/1/9
f 10/1/10 11/1/11 12/1/12
f 15/1/15 14/1/14 13/1/13
f 14/1/14 15/1/15 16/1/16
f 19/1/19 18/1/18 17/1/17
f 18/1/18 19/1/19 20/1/20
f 22/1/22 21/1/21 4/1/4
f 21/1/21 22/1/22 23/1/23
f 26/1/26 25/1/25 24/1/24
f 25/1/25 26/1/26 27/1/27
f 30/1/30 29/1/29 28/1/28
f 29/1/29 30/1/30 31/1/31
f 34/1/34 33/1/33 32/1/32
f 33/1/33 34/1/34 35/1/35
f 38/1/38 37/1/37 36/1/36
f 37/1/37 38/1/38 39/1/39
f 27/1/27 40/1/40 25/1/25
f 40/1/40 27/1/27 38/1/38
f 40/1/40 38/1/38 41/1/41
f 41/1/41 38/1/38 42/1/42
f 42/1/42 38/1/38 30/1/30
f 30/1/30 38/1/38 31/1/31
f 31/1/31 38/1/38 43/1/43
f 43/1/43 38/1/38 36/1/36
f 36/1/36 34/1/34 43/1/43
f 34/1/34 36/1/36 44/1/44
f 34/1/34 44/1/44 45/1/45
f 34/1/34 45/1/45 46/1/46
f 34/1/34 46/1/46 35/1/35
f 35/1/35 46/1/46 47/1/47
f 35/1/35 47/1/47 1/1/1
f 35/1/35 1/1/1 2/1/2
f 35/1/35 2/1/2 48/1/48
f 48/1/48 2/1/2 49/1/49
f 48/1/48 49/1/49 13/1/13
f 48/1/48 13/1/13 11/1/11
f 11/1/11 13/1/13 14/1/14
f 11/1/11 14/1/14 12/1/12
f 12/1/12 14/1/14 5/1/5
f 12/1/12 5/1/5 6/1/6
f 12/1/12 6/1/6 50/1/50
f 50/1/50 6/1/6 51/1/51
f 50/1/50 51/1/51 52/1/52
f 52/1/52 51/1/51 53/1/53
f 55/1/55 54/1/54 29/1/29
f 54/1/54 55/1/55 56/1/56
f 57/1/57 8/1/8 7/1/7
f 8/1/8 57/1/57 58/1/58
f 60/1/60 59/1/59 24/1/24
f 59/1/59 60/1/60 61/1/61
f 62/1/62 53/1/53 51/1/51
f 53/1/53 62/1/62 63/1/63
f 16/1/16 5/1/5 14/1/14
f 5/1/5 16/1/16 7/1/7
f 66/1/66 65/1/65 64/1/64
f 65/1/65 66/1/66 3/1/3
f 48/1/48 9/1/9 67/1/67
f 9/1/9 48/1/48 11/1/11
f 68/1/68 7/1/7 16/1/16
f 7/1/7 68/1/68 57/1/57
f 69/1/69 63/1/63 62/1/62
f 63/1/63 69/1/69 70/1/70
f 64/1/64 20/1/20 19/1/19
f 20/1/20 64/1/64 65/1/65
f 71/1/71 33/1/33 67/1/67
f 33/1/33 71/1/71 72/1/72
f 20/1/20 47/1/47 46/1/46
f 47/1/47 20/1/20 65/1/65
f 24/1/24 73/1/73 26/1/26
f 73/1/73 24/1/24 59/1/59
f 25/1/25 60/1/60 24/1/24
f 60/1/60 25/1/25 40/1/40
f 43/1/43 32/1/32 55/1/55
f 32/1/32 43/1/43 34/1/34
f 74/1/74 9/1/9 10/1/10
f 9/1/9 74/1/74 75/1/75
f 29/1/29 76/1/76 28/1/28
f 76/1/76 29/1/29 54/1/54
f 42/1/42 28/1/28 77/1/77
f 28/1/28 42/1/42 30/1/30
f 78/1/78 45/1/45 44/1/44
f 45/1/45 78/1/78 18/1/18
f 35/1/35 67/1/67 33/1/33
f 67/1/67 35/1/35 48/1/48
f 58/1/58 62/1/62 8/1/8
f 62/1/62 58/1/58 69/1/69
f 4/1/4 49/1/49 2/1/2
f 49/1/49 4/1/4 21/1/21
f 77/1/77 80/1/80 79/1/79
f 80/1/80 77/1/77 81/1/81
f 65/1/65 1/1/1 47/1/47
f 1/1/1 65/1/65 3/1/3
f 83/1/83 10/1/10 82/1/82
f 10/1/10 83/1/83 74/1/74
f 31/1/31 55/1/55 29/1/29
f 55/1/55 31/1/31 43/1/43
f 40/1/40 79/1/79 60/1/60
f 79/1/79 40/1/40 41/1/41
f 8/1/8 51/1/51 6/1/6
f 51/1/51 8/1/8 62/1/62
f 41/1/41 77/1/77 79/1/79
f 77/1/77 41/1/41 42/1/42
f 23/1/23 15/1/15 21/1/21
f 15/1/15 23/1/23 84/1/84
f 28/1/28 81/1/81 77/1/77
f 81/1/81 28/1/28 76/1/76
f 12/1/12 82/1/82 10/1/10
f 82/1/82 12/1/12 50/1/50
f 84/1/84 16/1/16 15/1/15
f 16/1/16 84/1/84 68/1/68
f 21/1/21 13/1/13 49/1/49
f 13/1/13 21/1/21 15/1/15
f 17/1/17 78/1/78 85/1/85
f 78/1/78 17/1/17 18/1/18
f 37/1/37 44/1/44 36/1/36
f 44/1/44 37/1/37 78/1/78
f 50/1/50 86/1/86 82/1/82
f 86/1/86 50/1/50 52/1/52
f 87/1/87 82/1/82 86/1/86
f 82/1/82 87/1/87 83/1/83
f 22/1/22 3/1/3 66/1/66
f 3/1/3 22/1/22 4/1/4
f 72/1/72 32/1/32 33/1/33
f 32/1/32 72/1/72 88/1/88
f 75/1/75 67/1/67 9/1/9
f 67/1/67 75/1/75 71/1/71
f 85/1/85 37/1/37 89/1/89
f 37/1/37 85/1/85 78/1/78
f 79/1/79 61/1/61 60/1/60
f 61/1/61 79/1/79 80/1/80
f 18/1/18 46/1/46 45/1/45
f 46/1/46 18/1/18 20/1/20
f 90/1/90 37/1/37 39/1/39
f 37/1/37 90/1/90 89/1/89
f 88/1/88 55/1/55 32/1/32
f 55/1/55 88/1/88 56/1/56
f 93/2/91 92/2/91 91/2/91
f 92/2/91 93/2/91 70/2/91
f 70/2/91 93/2/91 94/2/91
f 70/2/91 94/2/91 63/2/91
f 63/2/91 94/2/91 95/2/91
f 63/2/91 95/2/91 53/2/91
f 53/2/91 95/2/91 52/2/91
f 52/2/91 95/2/91 86/2/91
f 86/2/91 95/2/91 87/2/91
f 87/2/91 95/2/91 96/2/91
f 95/2/92 98/2/92 97/2/92
f 98/2/92 95/2/92 94/2/92
f 98/2/92 94/2/92 91/2/92
f 91/2/92 94/2/92 93/2/92
f 90/2/93 85/2/93 89/2/93
f 85/2/93 90/2/93 92/2/93
f 85/2/93 92/2/93 17/2/93
f 17/2/93 92/2/93 19/2/93
f 19/2/93 92/2/93 64/2/93
f 64/2/93 92/2/93 66/2/93
f 66/2/93 92/2/93 22/2/93
f 22/2/93 92/2/93 23/2/93
f 23/2/93 92/2/93 84/2/93
f 84/2/93 92/2/93 68/2/93
f 68/2/93 92/2/93 57/2/93
f 57/2/93 92/2/93 58/2/93
f 58/2/93 92/2/93 69/2/93
f 69/2/93 92/2/93 70/2/93
f 39/2/94 92/2/94 90/2/94
f 39/2/94 91/2/94 92/2/94
f 91/2/94 39/2/94 98/2/94
f 98/2/94 39/2/94 38/2/94
f 27/2/94 98/2/94 38/2/94
f 26/2/94 98/2/94 27/2/94
f 98/2/94 26/2/94 99/2/94
f 99/2/94 26/2/94 73/2/94
f 100/2/95 95/2/95 97/2/95
f 95/2/95 100/2/95 101/2/95
f 96/2/95 95/2/95 101/2/95
f 102/2/96 98/2/96 99/2/96
f 98/2/96 102/2/96 97/2/96
f 97/2/96 102/2/96 100/2/96
f 73/2/93 59/2/93 99/2/93
f 61/2/93 99/2/93 59/2/93
f 80/2/93 99/2/93 61/2/93
f 81/2/93 99/2/93 80/2/93
f 76/2/93 99/2/93 81/2/93
f 76/2/93 102/2/93 99/2/93
f 76/2/93 100/2/93 102/2/93
f 54/2/93 100/2/93 76/2/93
f 56/2/93 100/2/93 54/2/93
f 88/2/93 100/2/93 56/2/93
f 72/2/93 100/2/93 88/2/93
f 100/2/93 72/2/93 101/2/93
f 101/2/93 72/2/93 71/2/93
f 101/2/93 71/2/93 75/2/93
f 101/2/93 75/2/93 74/2/93
f 101/2/93 74/2/93 83/2/93
f 101/2/93 83/2/93 96/2/93
f 96/2/93 83/2/93 87/2/93

g corner-solid




usemtl colormap

f 3/1/3 2/1/2 1/1/1
f 2/1/2 3/1/3 4/1/4
f 7/1/7 6/1/6 5/1/5
f 6/1/6 7/1/7 8/1/8
f 11/1/11 10/1/10 9/1/9
f 10/1/10 11/1/11 12/1/12
f 15/1/15 14/1/14 13/1/13
f 14/1/14 15/1/15 16/1/16
f 19/1/19 18/1/18 17/1/17
f 18/1/18 19/1/19 20/1/20
f 22/1/22 21/1/21 4/1/4
f 21/1/21 22/1/22 23/1/23
f 26/1/26 25/1/25 24/1/24
f 25/1/25 26/1/26 27/1/27
f 30/1/30 29/1/29 28/1/28
f 29/1/29 30/1/30 31/1/31
f 34/1/34 33/1/33 32/1/32
f 33/1/33 34/1/34 35/1/35
f 38/1/38 37/1/37 36/1/36
f 37/1/37 38/1/38 39/1/39
f 27/1/27 40/1/40 25/1/25
f 40/1/40 27/1/27 38/1/38
f 40/1/40 38/1/38 41/1/41
f 41/1/41 38/1/38 42/1/42
f 42/1/42 38/1/38 30/1/30
f 30/1/30 38/1/38 31/1/31
f 31/1/31 38/1/38 43/1/43
f 43/1/43 38/1/38 36/1/36
f 36/1/36 34/1/34 43/1/43
f 34/1/34 36/1/36 44/1/44
f 34/1/34 44/1/44 45/1/45
f 34/1/34 45/1/45 46/1/46
f 34/1/34 46/1/46 35/1/35
f 35/1/35 46/1/46 47/1/47
f 35/1/35 47/1/47 1/1/1
f 35/1/35 1/1/1 2/1/2
f 35/1/35 2/1/2 48/1/48
f 48/1/48 2/1/2 49/1/49
f 48/1/48 49/1/49 13/1/13
f 48/1/48 13/1/13 11/1/11
f 11/1/11 13/1/13 14/1/14
f 11/1/11 14/1/14 12/1/12
f 12/1/12 14/1/14 5/1/5
f 12/1/12 5/1/5 6/1/6
f 12/1/12 6/1/6 50/1/50
f 50/1/50 6/1/6 51/1/51
f 50/1/50 51/1/51 52/1/52
f 52/1/52 51/1/51 53/1/53
f 55/1/55 54/1/54 29/1/29
f 54/1/54 55/1/55 56/1/56
f 57/1/57 8/1/8 7/1/7
f 8/1/8 57/1/57 58/1/58
f 60/1/60 59/1/59 24/1/24
f 59/1/59 60/1/60 61/1/61
f 62/1/62 53/1/53 51/1/51
f 53/1/53 62/1/62 63/1/63
f 16/1/16 5/1/5 14/1/14
f 5/1/5 16/1/16 7/1/7
f 66/1/66 65/1/65 64/1/64
f 65/1/65 66/1/66 3/1/3
f 48/1/48 9/1/9 67/1/67
f 9/1/9 48/1/48 11/1/11
f 68/1/68 7/1/7 16/1/16
f 7/1/7 68/1/68 57/1/57
f 69/1/69 63/1/63 62/1/62
f 63/1/63 69/1/69 70/1/70
f 64/1/64 20/1/20 19/1/19
f 20/1/20 64/1/64 65/1/65
f 71/1/71 33/1/33 67/1/67
f 33/1/33 71/1/71 72/1/72
f 20/1/20 47/1/47 46/1/46
f 47/1/47 20/1/20 65/1/65
f 24/1/24 73/1/73 26/1/26
f 73/1/73 24/1/24 59/1/59
f 25/1/25 60/1/60 24/1/24
f 60/1/60 25/1/25 40/1/40
f 43/1/43 32/1/32 55/1/55
f 32/1/32 43/1/43 34/1/34
f 74/1/74 9/1/9 10/1/10
f 9/1/9 74/1/74 75/1/75
f 29/1/29 76/1/76 28/1/28
f 76/1/76 29/1/29 54/1/54
f 42/1/42 28/1/28 77/1/77
f 28/1/28 42/1/42 30/1/30
f 78/1/78 45/1/45 44/1/44
f 45/1/45 78/1/78 18/1/18
f 35/1/35 67/1/67 33/1/33
f 67/1/67 35/1/35 48/1/48
f 58/1/58 62/1/62 8/1/8
f 62/1/62 58/1/58 69/1/69
f 4/1/4 49/1/49 2/1/2
f 49/1/49 4/1/4 21/1/21
f 77/1/77 80/1/80 79/1/79
f 80/1/80 77/1/77 81/1/81
f 65/1/65 1/1/1 47/1/47
f 1/1/1 65/1/65 3/1/3
f 83/1/83 10/1/10 82/1/82
f 10/1/10 83/1/83 74/1/74
f 31/1/31 55/1/55 29/1/29
f 55/1/55 31/1/31 43/1/43
f 40/1/40 79/1/79 60/1/60
f 79/1/79 40/1/40 41/1/41
f 8/1/8 51/1/51 6/1/6
f 51/1/51 8/1/8 62/1/62
f 41/1/41 77/1/77 79/1/79
f 77/1/77 41/1/41 42/1/42
f 23/1/23 15/1/15 21/1/21
f 15/1/15 23/1/23 84/1/84
f 28/1/28 81/1/81 77/1/77
f 81/1/81 28/1/28 76/1/76
f 12/1/12 82/1/82 10/1/10
f 82/1/82 12/1/12 50/1/50
f 84/1/84 16/1/16 15/1/15
f 16/1/16 84/1/84 68/1/68
f 21/1/21 13/1/13 49/1/49
f 13/1/13 21/1/21 15/1/15
f 17/1/17 78/1/78 85/1/85
f 78/1/78 17/1/17 18/1/18
f 37/1/37 44/1/44 36/1/36
f 44/1/44 37/1/37 78/1/78
f 50/1/50 86/1/86 82/1/82
f 86/1/86 50/1/50 52/1/52
f 87/1/87 82/1/82 86/1/86
f 82/1/82 87/1/87 83/1/83
f 22/1/22 3/1/3 66/1/66
f 3/1/3 22/1/22 4/1/4
f 72/1/72 32/1/32 33/1/33
f 32/1/32 72/1/72 88/1/88
f 75/1/75 67/1/67 9/1/9
f 67/1/67 75/1/75 71/1/71
f 85/1/85 37/1/37 89/1/89
f 37/1/37 85/1/85 78/1/78
f 79/1/79 61/1/61 60/1/60
f 61/1/61 79/1/79 80/1/80
f 18/1/18 46/1/46 45/1/45
f 46/1/46 18/1/18 20/1/20
f 90/1/90 37/1/37 39/1/39
f 37/1/37 90/1/90 89/1/89
f 88/1/88 55/1/55 32/1/32
f 55/1/55 88/1/88 56/1/56
f 93/2/91 92/2/91 91/2/91
f 92/2/91 93/2/91 70/2/91
f 70/2/91 93/2/91 94/2/91
f 70/2/91 94/2/91 63/2/91
f 63/2/91 94/2/91 95/2/91
f 63/2/91 95/2/91 53/2/91
f 53/2/91 95/2/91 52/2/91
f 52/2/91 95/2/91 86/2/91
f 86/2/91 95/2/91 87/2/91
f 87/2/91 95/2/91 96/2/91
f 95/2/92 98/2/92 97/2/92
f 98/2/92 95/2/92 94/2/92
f 98/2/92 94/2/92 91/2/92
f 91/2/92 94/2/92 93/2/92
f 90/2/93 85/2/93 89/2/93
f 85/2/93 90/2/93 92/2/93
f 85/2/93 92/2/93 17/2/93
f 17/2/93 92/2/93 19/2/93
f 19/2/93 92/2/93 64/2/93
f 64/2/93 92/2/93 66/2/93
f 66/2/93 92/2/93 22/2/93
f 22/2/93 92/2/93 23/2/93
f 23/2/93 92/2/93 84/2/93
f 84/2/93 92/2/93 68/2/93
f 68/2/93 92/2/93 57/2/93
f 57/2/93 92/2/93 58/2/93
f 58/2/93 92/2/93 69/2/93
f 69/2/93 92/2/93 70/2/93
f 39/2/94 92/2/94 90/2/94
f 39/2/94 91/2/94 92/2/94
f 91/2/94 39/2/94 98/2/94
f 98/2/94 39/2/94 38/2/94
f 27/2/94 98/2/94 38/2/94
f 26/2/94 98/2/94 27/2/94
f 98/2/94 26/2/94 99/2/94
f 99/2/94 26/2/94 73/2/94
f 100/2/95 95/2/95 97/2/95
f 95/2/95 100/2/95 101/2/95
f 96/2/95 95/2/95 101/2/95
f 102/2/96 98/2/96 99/2/96
f 98/2/96 102/2/96 97/2/96
f 97/2/96 102/2/96 100/2/96
f 73/2/93 59/2/93 99/2/93
f 61/2/93 99/2/93 59/2/93
f 80/2/93 99/2/93 61/2/93
f 81/2/93 99/2/93 80/2/93
f 76/2/93 99/2/93 81/2/93
f 76/2/93 102/2/93 99/2/93
f 76/2/93 100/2/93 102/2/93
f 54/2/93 100/2/93 76/2/93
f 56/2/93 100/2/93 54/2/93
f 88/2/93 100/2/93 56/2/93
f 72/2/93 100/2/93 88/2/93
f 100/2/93 72/2/93 101/2/93
f 101/2/93 72/2/93 71/2/93
f 101/2/93 71/2/93 75/2/93
f 101/2/93 75/2/93 74/2/93
f 101/2/93 74/2/93 83/2/93
f 101/2/93 83/2/93 96/2/93
f 96/2/93 83/2/93 87/2/93

