# Created by Kenney (www.kenney.nl)

mtllib curve-large.mtl

g curve-large

v 0.05197492 0.3125 0.8226947 1 1 1
v -0.2644749 0.3125 1.005397 1 1 1
v -0.05241801 0.25 0.6664596 1 1 1
v -0.347582 0.25 0.8368726 1 1 1
v 0.34187 0.3125 0.6002502 1 1 1
v 0.2179774 0.25 0.4589778 1 1 1
v 0.8226947 0.3125 0.05197492 1 1 1
v 0.6002502 0.3125 0.34187 1 1 1
v 0.6664596 0.25 -0.05241801 1 1 1
v 0.4589778 0.25 0.2179774 1 1 1
v 0.6571131 0.25 -0.4362295 1 1 1
v 0.4998088 0.25 -0.1637705 1 1 1
v 0.4885887 0.3125 -0.5193366 1 1 1
v 0.3435737 0.3125 -0.2681634 1 1 1
v 0.08677257 0.5 0.874773 1 1 1
v 0.3831676 0.5 0.6473411 1 1 1
v 0.9 0.25 -1.342696 1 1 1
v 0.8589354 0.25 -1.030779 1 1 1
v 0.7125 0.3125 -1.354985 1 1 1
v 0.6746435 0.3125 -1.067436 1 1 1
v -0.1637705 0.25 0.4998088 1 1 1
v -0.4362295 0.25 0.6571131 1 1 1
v -0.2681634 0.3125 0.3435737 1 1 1
v -0.5193366 0.3125 0.4885887 1 1 1
v -0.7872892 0.3125 0.5995783 1 1 1
v -0.5470389 0.5 0.4324138 1 1 1
v -0.8074223 0.5 0.5402681 1 1 1
v -0.72689 0.25 0.7775086 1 1 1
v -0.602065 0.3125 1.145231 1 1 1
v -0.5819319 0.5 1.204541 1 1 1
v -0.2367726 0.5 1.061572 1 1 1
v 1.2875 0.3125 -1.317298 1 1 1
v 1.1 0.25 -1.329587 1 1 1
v 1.2875 0.3125 -1.5 1 1 1
v 1.1 0.25 -1.5 1 1 1
v 0.7775086 0.25 -0.72689 1 1 1
v 0.5995783 0.3125 -0.7872892 1 1 1
v 0.3082872 0.25 0.08582533 1 1 1
v 0.08582533 0.25 0.3082872 1 1 1
v 0.1670148 0.3125 -0.03806727 1 1 1
v -0.03806727 0.3125 0.1670148 1 1 1
v 1.239805 0.3125 -0.9550188 1 1 1
v 1.301236 0.5 -0.9427995 1 1 1
v 1.145231 0.3125 -0.602065 1 1 1
v 1.204541 0.5 -0.5819319 1 1 1
v 0.65 0.5 -1.359082 1 1 1
v 0.6132129 0.5 -1.079656 1 1 1
v 0.5402681 0.5 -0.8074223 1 1 1
v 1.055513 0.25 -0.9916767 1 1 1
v 0.2914954 0.5 -0.302961 1 1 1
v 0.119924 0.5 -0.07936481 1 1 1
v -0.302961 0.5 0.2914954 1 1 1
v 1.005397 0.3125 -0.2644749 1 1 1
v 0.967301 0.25 -0.6624641 1 1 1
v 0.8368726 0.25 -0.347582 1 1 1
v -1.030779 0.25 0.8589354 1 1 1
v -1.342696 0.25 0.9 1 1 1
v -1.067436 0.3125 0.6746435 1 1 1
v -1.354985 0.3125 0.7125 1 1 1
v 0.65 0.5 -1.5 1 1 1
v 0.7125 0.3125 -1.5 1 1 1
v 0.4324138 0.5 -0.5470389 1 1 1
v 1.35 0.5 -1.313201 1 1 1
v -1.317298 0.3125 1.2875 1 1 1
v -1.5 0.3125 1.2875 1 1 1
v -1.329587 0.25 1.1 1 1 1
v -1.5 0.25 1.1 1 1 1
v -1.5 0.25 0.9 1 1 1
v -1.5 0.3125 0.7125 1 1 1
v 0.6473411 0.5 0.3831676 1 1 1
v 1.061572 0.5 -0.2367726 1 1 1
v 0.874773 0.5 0.08677257 1 1 1
v -0.07936481 0.5 0.119924 1 1 1
v 1.35 0.5 -1.5 1 1 1
v 0.9 0.25 -1.5 1 1 1
v -0.6624641 0.25 0.967301 1 1 1
v -0.9916767 0.25 1.055513 1 1 1
v -0.9550188 0.3125 1.239805 1 1 1
v -0.9427995 0.5 1.301236 1 1 1
v -1.079656 0.5 0.6132129 1 1 1
v -1.359082 0.5 0.65 1 1 1
v -1.5 0.5 0.65 1 1 1
v -1.5 0.5 1.35 1 1 1
v -1.313201 0.5 1.35 1 1 1
v 0.006906016 2.404448E-31 -0.1784789 1 1 1
v 0.006906016 0.5 -0.1784789 1 1 1
v -0.1784789 2.404448E-31 0.006906016 1 1 1
v -0.1784789 0.5 0.006906016 1 1 1
v 1.5 0.5 -1.5 1 1 1
v 1.5 0 -1.5 1 1 1
v 1.5 0.5 -1.30337 1 1 1
v 1.5 1.602965E-31 -1.30337 1 1 1
v 0.5 0 -1.5 1 1 1
v 0.5 0.5 -1.5 1 1 1
v 0.5 1.602965E-31 -1.368913 1 1 1
v 0.5 0.5 -1.368913 1 1 1
v 0.760359 0.5 0.4822817 1 1 1
v 0.760359 2.404448E-31 0.4822817 1 1 1
v 0.4822817 0.5 0.760359 1 1 1
v 0.4822817 2.404448E-31 0.760359 1 1 1
v -1.5 3.205931E-31 1.5 1 1 1
v -1.5 0.5 1.5 1 1 1
v -1.30337 4.007414E-31 1.5 1 1 1
v -1.30337 0.5 1.5 1 1 1
v -0.6135246 3.205931E-31 0.2975942 1 1 1
v -0.3864754 3.205931E-31 0.1665073 1 1 1
v -0.6135246 0.5 0.2975942 1 1 1
v -0.3864754 0.5 0.1665073 1 1 1
v 0.4657795 1.602965E-31 -1.108982 1 1 1
v 0.4657795 0.5 -1.108982 1 1 1
v 0.3979239 1.602965E-31 -0.8557417 1 1 1
v 0.3979239 0.5 -0.8557417 1 1 1
v 1.448669 0.5 -0.9134732 1 1 1
v 1.448669 1.602965E-31 -0.9134732 1 1 1
v 1.346886 0.5 -0.5336125 1 1 1
v 1.346886 1.602965E-31 -0.5336125 1 1 1
v 0.2975942 1.602965E-31 -0.6135246 1 1 1
v 0.2975942 0.5 -0.6135246 1 1 1
v 0.1665073 2.404448E-31 -0.3864754 1 1 1
v 0.1665073 0.5 -0.3864754 1 1 1
v -1.5 3.205931E-31 0.5 1 1 1
v -1.368913 4.007414E-31 0.5 1 1 1
v -1.5 0.5 0.5 1 1 1
v -1.368913 0.5 0.5 1 1 1
v 1.196391 0.5 -0.1702869 1 1 1
v 0.999761 0.5 0.1702869 1 1 1
v 0.1702869 0.5 0.999761 1 1 1
v -0.1702869 0.5 1.196391 1 1 1
v -0.5336125 0.5 1.346886 1 1 1
v -0.9134732 0.5 1.448669 1 1 1
v -1.108982 3.205931E-31 0.4657795 1 1 1
v -0.9134732 3.205931E-31 1.448669 1 1 1
v -0.8557417 3.205931E-31 0.3979239 1 1 1
v -0.5336125 3.205931E-31 1.346886 1 1 1
v -0.1702869 3.205931E-31 1.196391 1 1 1
v 0.1702869 3.205931E-31 0.999761 1 1 1
v 0.999761 2.404448E-31 0.1702869 1 1 1
v 1.196391 1.602965E-31 -0.1702869 1 1 1
v -0.8557417 0.5 0.3979239 1 1 1
v -1.108982 0.5 0.4657795 1 1 1

vn -0.3976441 0.6983665 -0.5951164
vn -0.3165639 0.6983665 -0.6419281
vn -0.09241468 0.9860681 -0.1383083
vn -0.07357119 0.9860681 -0.1491876
vn -0.4719205 0.6983665 -0.5381222
vn -0.1096769 0.9860681 -0.1250625
vn -0.5951164 0.6983665 -0.3976441
vn -0.5381222 0.6983665 -0.4719205
vn -0.1383083 0.9860681 -0.09241468
vn -0.1250625 0.9860681 -0.1096769
vn 0.1375454 0.9881703 0.06782988
vn 0.1275151 0.9881703 0.08520286
vn 0.6251922 0.7169931 0.3083107
vn 0.579601 0.7169931 0.387277
vn -0.526947 0.3168382 -0.788632
vn -0.6253761 0.3168382 -0.7131047
vn 0.1530327 0.9881703 0.0100303
vn 0.1504143 0.9881703 0.02991926
vn 0.6955878 0.7169931 0.04559122
vn 0.683686 0.7169931 0.1359936
vn 0.08520286 0.9881703 0.1275151
vn 0.06782988 0.9881703 0.1375454
vn 0.387277 0.7169931 0.579601
vn 0.3083107 0.7169931 0.6251922
vn 0.2240691 0.7169931 0.6600862
vn 0.4195018 0.3168382 0.8506655
vn 0.3048788 0.3168382 0.8981439
vn 0.04929631 0.9881703 0.1452222
vn -0.2300672 0.6983665 -0.6777562
vn -0.3048788 0.3168382 -0.8981439
vn -0.4195018 0.3168382 -0.8506655
vn -0.714208 0.6983664 -0.04681166
vn -0.1659859 0.9860681 -0.01087929
vn -0.7071068 0.7071068 0
vn -0.1601822 0.9870875 0
vn 0.1452222 0.9881703 0.04929631
vn 0.6600862 0.7169931 0.2240691
vn 0.115303 0.9881703 0.101118
vn 0.101118 0.9881703 0.115303
vn 0.5240926 0.7169931 0.4596169
vn 0.4596169 0.7169931 0.5240926
vn -0.7019877 0.6983665 -0.139634
vn -0.9302548 0.3168382 -0.1850392
vn -0.6777562 0.6983665 -0.2300672
vn -0.8981439 0.3168382 -0.3048788
vn 0.9464489 0.3168383 0.06203353
vn 0.9302548 0.3168382 0.1850392
vn 0.8981439 0.3168382 0.3048788
vn -0.1631458 0.9860681 -0.03245172
vn 0.788632 0.3168382 0.526947
vn 0.7131047 0.3168382 0.6253761
vn 0.526947 0.3168382 0.788632
vn -0.6419281 0.6983665 -0.3165639
vn -0.1575143 0.9860681 -0.05346889
vn -0.1491876 0.9860681 -0.07357119
vn 0.02991926 0.9881703 0.1504143
vn 0.0100303 0.9881703 0.1530327
vn 0.1359936 0.7169931 0.683686
vn 0.04559122 0.7169931 0.6955878
vn 0.9486833 0.3162278 0
vn 0.7071068 0.7071068 0
vn 0.8506655 0.3168382 0.4195018
vn -0.9464489 0.3168383 -0.06203353
vn -0.04681166 0.6983664 -0.714208
vn 0 0.7071068 -0.7071068
vn -0.01087929 0.9860681 -0.1659859
vn 0 0.9870875 -0.1601822
vn 0 0.9870875 0.1601822
vn 0 0.7071068 0.7071068
vn -0.7131047 0.3168382 -0.6253761
vn -0.8506655 0.3168382 -0.4195018
vn -0.788632 0.3168382 -0.526947
vn 0.6253761 0.3168382 0.7131047
vn -0.9486833 0.3162278 0
vn 0.1601822 0.9870875 0
vn -0.05346889 0.9860681 -0.1575143
vn -0.03245172 0.9860681 -0.1631458
vn -0.139634 0.6983665 -0.7019877
vn -0.1850392 0.3168382 -0.9302548
vn 0.1850392 0.3168382 0.9302548
vn 0.06203354 0.3168383 0.9464489
vn 0 0.3162278 0.9486833
vn 0 0.3162278 -0.9486833
vn -0.06203354 0.3168383 -0.9464489
vn -0.7518399 0 -0.6593459
vn -0.6593459 0 -0.7518399
vn 1 0 0
vn 0.9978589 0 0.06540313
vn -1 0 0
vn -0.9978589 0 -0.06540313
vn 0.7518399 0 0.6593459
vn 0.6593459 0 0.7518399
vn 0 0 1
vn 0.06540313 0 0.9978589
vn -0.4422887 0 -0.8968728
vn -0.5555702 0 -0.8314696
vn -0.9807853 0 -0.1950903
vn -0.9469302 0 -0.3214395
vn 0.9807853 0 0.1950903
vn 0.9469302 0 0.3214395
vn -0.8968728 0 -0.4422887
vn -0.8314696 0 -0.5555702
vn 0 0 -1
vn -0.06540313 0 -0.9978589
vn 0 1 0
vn 0 -1 0
vn 0.8968728 0 0.4422887
vn 0.8314696 0 0.5555702
vn 0.5555702 0 0.8314696
vn 0.4422887 0 0.8968728
vn 0.3214395 0 0.9469302
vn -0.1950903 0 -0.9807853
vn -0.3214395 0 -0.9469302
vn 0.1950903 0 0.9807853

vt 0.28125 0.375
vt 0.90625 0.375

usemtl colormap

f 3/1/3 2/1/2 1/1/1
f 2/1/2 3/1/3 4/1/4
f 6/1/6 1/1/1 5/1/5
f 1/1/1 6/1/6 3/1/3
f 9/1/9 8/1/8 7/1/7
f 8/1/8 9/1/9 10/1/10
f 13/1/13 12/1/12 11/1/11
f 12/1/12 13/1/13 14/1/14
f 15/1/15 5/1/5 1/1/1
f 5/1/5 15/1/15 16/1/16
f 19/1/19 18/1/18 17/1/17
f 18/1/18 19/1/19 20/1/20
f 23/1/23 22/1/22 21/1/21
f 22/1/22 23/1/23 24/1/24
f 26/1/26 25/1/25 24/1/24
f 25/1/25 26/1/26 27/1/27
f 24/1/24 28/1/28 22/1/22
f 28/1/28 24/1/24 25/1/25
f 30/1/30 2/1/2 29/1/29
f 2/1/2 30/1/30 31/1/31
f 34/1/34 33/1/33 32/1/32
f 33/1/33 34/1/34 35/1/35
f 37/1/37 11/1/11 36/1/36
f 11/1/11 37/1/37 13/1/13
f 40/1/40 39/1/39 38/1/38
f 39/1/39 40/1/40 41/1/41
f 44/1/44 43/1/43 42/1/42
f 43/1/43 44/1/44 45/1/45
f 47/1/47 19/1/19 46/1/46
f 19/1/19 47/1/47 20/1/20
f 48/1/48 20/1/20 47/1/47
f 20/1/20 48/1/48 37/1/37
f 33/1/33 42/1/42 32/1/32
f 42/1/42 33/1/33 49/1/49
f 51/1/51 14/1/14 50/1/50
f 14/1/14 51/1/51 40/1/40
f 52/1/52 24/1/24 23/1/23
f 24/1/24 52/1/52 26/1/26
f 31/1/31 1/1/1 2/1/2
f 1/1/1 31/1/31 15/1/15
f 54/1/54 53/1/53 44/1/44
f 53/1/53 54/1/54 55/1/55
f 58/1/58 57/1/57 56/1/56
f 57/1/57 58/1/58 59/1/59
f 46/1/46 61/1/61 60/1/60
f 61/1/61 46/1/46 19/1/19
f 50/1/50 13/1/13 62/1/62
f 13/1/13 50/1/50 14/1/14
f 42/1/42 63/1/63 32/1/32
f 63/1/63 42/1/42 43/1/43
f 66/1/66 65/1/65 64/1/64
f 65/1/65 66/1/66 67/1/67
f 59/1/59 68/1/68 57/1/57
f 68/1/68 59/1/59 69/1/69
f 5/1/5 70/1/70 8/1/8
f 70/1/70 5/1/5 16/1/16
f 20/1/20 36/1/36 18/1/18
f 36/1/36 20/1/20 37/1/37
f 41/1/41 21/1/21 39/1/39
f 21/1/21 41/1/41 23/1/23
f 53/1/53 45/1/45 44/1/44
f 45/1/45 53/1/53 71/1/71
f 8/1/8 72/1/72 7/1/7
f 72/1/72 8/1/8 70/1/70
f 14/1/14 38/1/38 12/1/12
f 38/1/38 14/1/14 40/1/40
f 49/1/49 44/1/44 42/1/42
f 44/1/44 49/1/49 54/1/54
f 73/1/73 23/1/23 41/1/41
f 23/1/23 73/1/73 52/1/52
f 7/1/7 71/1/71 53/1/53
f 71/1/71 7/1/7 72/1/72
f 55/1/55 7/1/7 53/1/53
f 7/1/7 55/1/55 9/1/9
f 32/1/32 74/1/74 34/1/34
f 74/1/74 32/1/32 63/1/63
f 75/1/75 19/1/19 17/1/17
f 19/1/19 75/1/75 61/1/61
f 62/1/62 37/1/37 48/1/48
f 37/1/37 62/1/62 13/1/13
f 73/1/73 40/1/40 51/1/51
f 40/1/40 73/1/73 41/1/41
f 10/1/10 5/1/5 8/1/8
f 5/1/5 10/1/10 6/1/6
f 35/1/35 49/1/49 33/1/33
f 49/1/49 35/1/35 75/1/75
f 49/1/49 75/1/75 54/1/54
f 54/1/54 75/1/75 17/1/17
f 17/1/17 55/1/55 54/1/54
f 55/1/55 17/1/17 18/1/18
f 55/1/55 18/1/18 36/1/36
f 55/1/55 36/1/36 9/1/9
f 9/1/9 36/1/36 11/1/11
f 9/1/9 11/1/11 10/1/10
f 10/1/10 11/1/11 12/1/12
f 10/1/10 12/1/12 38/1/38
f 10/1/10 38/1/38 6/1/6
f 6/1/6 38/1/38 39/1/39
f 6/1/6 39/1/39 3/1/3
f 3/1/3 39/1/39 21/1/21
f 3/1/3 21/1/21 4/1/4
f 4/1/4 21/1/21 22/1/22
f 4/1/4 22/1/22 76/1/76
f 76/1/76 22/1/22 28/1/28
f 76/1/76 28/1/28 77/1/77
f 77/1/77 28/1/28 56/1/56
f 77/1/77 56/1/56 66/1/66
f 66/1/66 56/1/56 57/1/57
f 66/1/66 57/1/57 67/1/67
f 67/1/67 57/1/57 68/1/68
f 77/1/77 64/1/64 78/1/78
f 64/1/64 77/1/77 66/1/66
f 25/1/25 56/1/56 28/1/28
f 56/1/56 25/1/25 58/1/58
f 79/1/79 29/1/29 78/1/78
f 29/1/29 79/1/79 30/1/30
f 76/1/76 78/1/78 29/1/29
f 78/1/78 76/1/76 77/1/77
f 27/1/27 58/1/58 25/1/25
f 58/1/58 27/1/27 80/1/80
f 81/1/81 69/1/69 59/1/59
f 69/1/69 81/1/81 82/1/82
f 83/1/83 64/1/64 65/1/65
f 64/1/64 83/1/83 84/1/84
f 80/1/80 59/1/59 58/1/58
f 59/1/59 80/1/80 81/1/81
f 84/1/84 78/1/78 64/1/64
f 78/1/78 84/1/84 79/1/79
f 4/1/4 29/1/29 2/1/2
f 29/1/29 4/1/4 76/1/76
f 87/2/86 86/2/85 85/2/85
f 86/2/85 87/2/86 88/2/86
f 91/2/88 90/2/87 89/2/87
f 90/2/87 91/2/88 92/2/88
f 95/2/90 94/2/89 93/2/89
f 94/2/89 95/2/90 96/2/90
f 99/2/92 98/2/91 97/2/91
f 98/2/91 99/2/92 100/2/92
f 103/2/94 102/2/93 101/2/93
f 102/2/93 103/2/94 104/2/94
f 107/2/95 106/2/96 105/2/95
f 106/2/96 107/2/95 108/2/96
f 111/2/98 110/2/97 109/2/97
f 110/2/97 111/2/98 112/2/98
f 115/2/100 114/2/99 113/2/99
f 114/2/99 115/2/100 116/2/100
f 119/2/102 118/2/101 117/2/101
f 118/2/101 119/2/102 120/2/102
f 61/2/103 94/2/103 60/2/103
f 61/2/103 93/2/103 94/2/103
f 93/2/103 61/2/103 90/2/103
f 90/2/103 61/2/103 75/2/103
f 35/2/103 90/2/103 75/2/103
f 34/2/103 90/2/103 35/2/103
f 90/2/103 34/2/103 89/2/103
f 89/2/103 34/2/103 74/2/103
f 123/2/103 122/2/104 121/2/103
f 122/2/104 123/2/103 124/2/104
f 106/2/96 88/2/86 87/2/86
f 88/2/86 106/2/96 108/2/96
f 89/2/105 113/2/105 91/2/105
f 113/2/105 89/2/105 74/2/105
f 113/2/105 74/2/105 63/2/105
f 63/2/105 115/2/105 113/2/105
f 115/2/105 63/2/105 43/2/105
f 115/2/105 43/2/105 125/2/105
f 125/2/105 43/2/105 45/2/105
f 125/2/105 45/2/105 71/2/105
f 125/2/105 71/2/105 126/2/105
f 126/2/105 71/2/105 72/2/105
f 126/2/105 72/2/105 97/2/105
f 97/2/105 72/2/105 70/2/105
f 97/2/105 70/2/105 99/2/105
f 99/2/105 70/2/105 16/2/105
f 99/2/105 16/2/105 127/2/105
f 127/2/105 16/2/105 15/2/105
f 127/2/105 15/2/105 128/2/105
f 128/2/105 15/2/105 31/2/105
f 128/2/105 31/2/105 129/2/105
f 129/2/105 31/2/105 30/2/105
f 129/2/105 30/2/105 130/2/105
f 130/2/105 30/2/105 79/2/105
f 130/2/105 79/2/105 104/2/105
f 104/2/105 79/2/105 84/2/105
f 104/2/105 84/2/105 102/2/105
f 102/2/105 84/2/105 83/2/105
f 113/2/99 92/2/88 91/2/88
f 92/2/88 113/2/99 114/2/99
f 122/2/106 101/2/106 121/2/106
f 122/2/106 103/2/106 101/2/106
f 131/2/106 103/2/106 122/2/106
f 131/2/106 132/2/106 103/2/106
f 133/2/106 132/2/106 131/2/106
f 105/2/106 132/2/106 133/2/106
f 105/2/106 134/2/106 132/2/106
f 106/2/106 134/2/106 105/2/106
f 87/2/106 134/2/106 106/2/106
f 87/2/106 135/2/106 134/2/106
f 85/2/106 135/2/106 87/2/106
f 119/2/106 135/2/106 85/2/106
f 119/2/106 136/2/106 135/2/106
f 117/2/106 136/2/106 119/2/106
f 111/2/106 136/2/106 117/2/106
f 109/2/106 136/2/106 111/2/106
f 109/2/106 100/2/106 136/2/106
f 95/2/106 100/2/106 109/2/106
f 100/2/106 95/2/106 98/2/106
f 93/2/106 98/2/106 95/2/106
f 93/2/106 137/2/106 98/2/106
f 93/2/106 138/2/106 137/2/106
f 93/2/106 116/2/106 138/2/106
f 93/2/106 114/2/106 116/2/106
f 90/2/106 114/2/106 93/2/106
f 114/2/106 90/2/106 92/2/106
f 60/2/105 47/2/105 46/2/105
f 47/2/105 60/2/105 94/2/105
f 47/2/105 94/2/105 48/2/105
f 48/2/105 94/2/105 96/2/105
f 96/2/105 62/2/105 48/2/105
f 62/2/105 96/2/105 110/2/105
f 62/2/105 110/2/105 112/2/105
f 62/2/105 112/2/105 50/2/105
f 50/2/105 112/2/105 118/2/105
f 50/2/105 118/2/105 120/2/105
f 50/2/105 120/2/105 51/2/105
f 51/2/105 120/2/105 86/2/105
f 51/2/105 86/2/105 73/2/105
f 73/2/105 86/2/105 88/2/105
f 73/2/105 88/2/105 52/2/105
f 52/2/105 88/2/105 108/2/105
f 52/2/105 108/2/105 26/2/105
f 26/2/105 108/2/105 107/2/105
f 26/2/105 107/2/105 27/2/105
f 27/2/105 107/2/105 139/2/105
f 27/2/105 139/2/105 80/2/105
f 80/2/105 139/2/105 140/2/105
f 80/2/105 140/2/105 81/2/105
f 81/2/105 140/2/105 124/2/105
f 81/2/105 124/2/105 82/2/105
f 82/2/105 124/2/105 123/2/105
f 117/2/101 112/2/98 111/2/98
f 112/2/98 117/2/101 118/2/101
f 125/2/107 116/2/100 115/2/100
f 116/2/100 125/2/107 138/2/107
f 126/2/108 138/2/107 125/2/107
f 138/2/107 126/2/108 137/2/108
f 127/2/109 135/2/110 136/2/109
f 135/2/110 127/2/109 128/2/110
f 109/2/97 96/2/90 95/2/90
f 96/2/90 109/2/97 110/2/97
f 97/2/91 137/2/108 126/2/108
f 137/2/108 97/2/91 98/2/91
f 85/2/85 120/2/102 119/2/102
f 120/2/102 85/2/85 86/2/85
f 123/2/89 69/2/89 82/2/89
f 121/2/89 69/2/89 123/2/89
f 69/2/89 121/2/89 101/2/89
f 69/2/89 101/2/89 68/2/89
f 68/2/89 101/2/89 67/2/89
f 67/2/89 101/2/89 65/2/89
f 65/2/89 101/2/89 83/2/89
f 83/2/89 101/2/89 102/2/89
f 99/2/92 136/2/109 100/2/92
f 136/2/109 99/2/92 127/2/109
f 128/2/110 134/2/111 135/2/110
f 134/2/111 128/2/110 129/2/111
f 122/2/104 140/2/112 131/2/112
f 140/2/112 122/2/104 124/2/104
f 139/2/113 105/2/95 133/2/113
f 105/2/95 139/2/113 107/2/95
f 130/2/114 103/2/94 132/2/114
f 103/2/94 130/2/114 104/2/94
f 129/2/111 132/2/114 134/2/111
f 132/2/114 129/2/111 130/2/114
f 140/2/112 133/2/113 131/2/112
f 133/2/113 140/2/112 139/2/113

g curve-large




usemtl colormap

f 3/1/3 2/1/2 1/1/1
f 2/1/2 3/1/3 4/1/4
f 6/1/6 1/1/1 5/1/5
f 1/1/1 6/1/6 3/1/3
f 9/1/9 8/1/8 7/1/7
f 8/1/8 9/1/9 10/1/10
f 13/1/13 12/1/12 11/1/11
f 12/1/12 13/1/13 14/1/14
f 15/1/15 5/1/5 1/1/1
f 5/1/5 15/1/15 16/1/16
f 19/1/19 18/1/18 17/1/17
f 18/1/18 19/1/19 20/1/20
f 23/1/23 22/1/22 21/1/21
f 22/1/22 23/1/23 24/1/24
f 26/1/26 25/1/25 24/1/24
f 25/1/25 26/1/26 27/1/27
f 24/1/24 28/1/28 22/1/22
f 28/1/28 24/1/24 25/1/25
f 30/1/30 2/1/2 29/1/29
f 2/1/2 30/1/30 31/1/31
f 34/1/34 33/1/33 32/1/32
f 33/1/33 34/1/34 35/1/35
f 37/1/37 11/1/11 36/1/36
f 11/1/11 37/1/37 13/1/13
f 40/1/40 39/1/39 38/1/38
f 39/1/39 40/1/40 41/1/41
f 44/1/44 43/1/43 42/1/42
f 43/1/43 44/1/44 45/1/45
f 47/1/47 19/1/19 46/1/46
f 19/1/19 47/1/47 20/1/20
f 48/1/48 20/1/20 47/1/47
f 20/1/20 48/1/48 37/1/37
f 33/1/33 42/1/42 32/1/32
f 42/1/42 33/1/33 49/1/49
f 51/1/51 14/1/14 50/1/50
f 14/1/14 51/1/51 40/1/40
f 52/1/52 24/1/24 23/1/23
f 24/1/24 52/1/52 26/1/26
f 31/1/31 1/1/1 2/1/2
f 1/1/1 31/1/31 15/1/15
f 54/1/54 53/1/53 44/1/44
f 53/1/53 54/1/54 55/1/55
f 58/1/58 57/1/57 56/1/56
f 57/1/57 58/1/58 59/1/59
f 46/1/46 61/1/61 60/1/60
f 61/1/61 46/1/46 19/1/19
f 50/1/50 13/1/13 62/1/62
f 13/1/13 50/1/50 14/1/14
f 42/1/42 63/1/63 32/1/32
f 63/1/63 42/1/42 43/1/43
f 66/1/66 65/1/65 64/1/64
f 65/1/65 66/1/66 67/1/67
f 59/1/59 68/1/68 57/1/57
f 68/1/68 59/1/59 69/1/69
f 5/1/5 70/1/70 8/1/8
f 70/1/70 5/1/5 16/1/16
f 20/1/20 36/1/36 18/1/18
f 36/1/36 20/1/20 37/1/37
f 41/1/41 21/1/21 39/1/39
f 21/1/21 41/1/41 23/1/23
f 53/1/53 45/1/45 44/1/44
f 45/1/45 53/1/53 71/1/71
f 8/1/8 72/1/72 7/1/7
f 72/1/72 8/1/8 70/1/70
f 14/1/14 38/1/38 12/1/12
f 38/1/38 14/1/14 40/1/40
f 49/1/49 44/1/44 42/1/42
f 44/1/44 49/1/49 54/1/54
f 73/1/73 23/1/23 41/1/41
f 23/1/23 73/1/73 52/1/52
f 7/1/7 71/1/71 53/1/53
f 71/1/71 7/1/7 72/1/72
f 55/1/55 7/1/7 53/1/53
f 7/1/7 55/1/55 9/1/9
f 32/1/32 74/1/74 34/1/34
f 74/1/74 32/1/32 63/1/63
f 75/1/75 19/1/19 17/1/17
f 19/1/19 75/1/75 61/1/61
f 62/1/62 37/1/37 48/1/48
f 37/1/37 62/1/62 13/1/13
f 73/1/73 40/1/40 51/1/51
f 40/1/40 73/1/73 41/1/41
f 10/1/10 5/1/5 8/1/8
f 5/1/5 10/1/10 6/1/6
f 35/1/35 49/1/49 33/1/33
f 49/1/49 35/1/35 75/1/75
f 49/1/49 75/1/75 54/1/54
f 54/1/54 75/1/75 17/1/17
f 17/1/17 55/1/55 54/1/54
f 55/1/55 17/1/17 18/1/18
f 55/1/55 18/1/18 36/1/36
f 55/1/55 36/1/36 9/1/9
f 9/1/9 36/1/36 11/1/11
f 9/1/9 11/1/11 10/1/10
f 10/1/10 11/1/11 12/1/12
f 10/1/10 12/1/12 38/1/38
f 10/1/10 38/1/38 6/1/6
f 6/1/6 38/1/38 39/1/39
f 6/1/6 39/1/39 3/1/3
f 3/1/3 39/1/39 21/1/21
f 3/1/3 21/1/21 4/1/4
f 4/1/4 21/1/21 22/1/22
f 4/1/4 22/1/22 76/1/76
f 76/1/76 22/1/22 28/1/28
f 76/1/76 28/1/28 77/1/77
f 77/1/77 28/1/28 56/1/56
f 77/1/77 56/1/56 66/1/66
f 66/1/66 56/1/56 57/1/57
f 66/1/66 57/1/57 67/1/67
f 67/1/67 57/1/57 68/1/68
f 77/1/77 64/1/64 78/1/78
f 64/1/64 77/1/77 66/1/66
f 25/1/25 56/1/56 28/1/28
f 56/1/56 25/1/25 58/1/58
f 79/1/79 29/1/29 78/1/78
f 29/1/29 79/1/79 30/1/30
f 76/1/76 78/1/78 29/1/29
f 78/1/78 76/1/76 77/1/77
f 27/1/27 58/1/58 25/1/25
f 58/1/58 27/1/27 80/1/80
f 81/1/81 69/1/69 59/1/59
f 69/1/69 81/1/81 82/1/82
f 83/1/83 64/1/64 65/1/65
f 64/1/64 83/1/83 84/1/84
f 80/1/80 59/1/59 58/1/58
f 59/1/59 80/1/80 81/1/81
f 84/1/84 78/1/78 64/1/64
f 78/1/78 84/1/84 79/1/79
f 4/1/4 29/1/29 2/1/2
f 29/1/29 4/1/4 76/1/76
f 87/2/86 86/2/85 85/2/85
f 86/2/85 87/2/86 88/2/86
f 91/2/88 90/2/87 89/2/87
f 90/2/87 91/2/88 92/2/88
f 95/2/90 94/2/89 93/2/89
f 94/2/89 95/2/90 96/2/90
f 99/2/92 98/2/91 97/2/91
f 98/2/91 99/2/92 100/2/92
f 103/2/94 102/2/93 101/2/93
f 102/2/93 103/2/94 104/2/94
f 107/2/95 106/2/96 105/2/95
f 106/2/96 107/2/95 108/2/96
f 111/2/98 110/2/97 109/2/97
f 110/2/97 111/2/98 112/2/98
f 115/2/100 114/2/99 113/2/99
f 114/2/99 115/2/100 116/2/100
f 119/2/102 118/2/101 117/2/101
f 118/2/101 119/2/102 120/2/102
f 61/2/103 94/2/103 60/2/103
f 61/2/103 93/2/103 94/2/103
f 93/2/103 61/2/103 90/2/103
f 90/2/103 61/2/103 75/2/103
f 35/2/103 90/2/103 75/2/103
f 34/2/103 90/2/103 35/2/103
f 90/2/103 34/2/103 89/2/103
f 89/2/103 34/2/103 74/2/103
f 123/2/103 122/2/104 121/2/103
f 122/2/104 123/2/103 124/2/104
f 106/2/96 88/2/86 87/2/86
f 88/2/86 106/2/96 108/2/96
f 89/2/105 113/2/105 91/2/105
f 113/2/105 89/2/105 74/2/105
f 113/2/105 74/2/105 63/2/105
f 63/2/105 115/2/105 113/2/105
f 115/2/105 63/2/105 43/2/105
f 115/2/105 43/2/105 125/2/105
f 125/2/105 43/2/105 45/2/105
f 125/2/105 45/2/105 71/2/105
f 125/2/105 71/2/105 126/2/105
f 126/2/105 71/2/105 72/2/105
f 126/2/105 72/2/105 97/2/105
f 97/2/105 72/2/105 70/2/105
f 97/2/105 70/2/105 99/2/105
f 99/2/105 70/2/105 16/2/105
f 99/2/105 16/2/105 127/2/105
f 127/2/105 16/2/105 15/2/105
f 127/2/105 15/2/105 128/2/105
f 128/2/105 15/2/105 31/2/105
f 128/2/105 31/2/105 129/2/105
f 129/2/105 31/2/105 30/2/105
f 129/2/105 30/2/105 130/2/105
f 130/2/105 30/2/105 79/2/105
f 130/2/105 79/2/105 104/2/105
f 104/2/105 79/2/105 84/2/105
f 104/2/105 84/2/105 102/2/105
f 102/2/105 84/2/105 83/2/105
f 113/2/99 92/2/88 91/2/88
f 92/2/88 113/2/99 114/2/99
f 122/2/106 101/2/106 121/2/106
f 122/2/106 103/2/106 101/2/106
f 131/2/106 103/2/106 122/2/106
f 131/2/106 132/2/106 103/2/106
f 133/2/106 132/2/106 131/2/106
f 105/2/106 132/2/106 133/2/106
f 105/2/106 134/2/106 132/2/106
f 106/2/106 134/2/106 105/2/106
f 87/2/106 134/2/106 106/2/106
f 87/2/106 135/2/106 134/2/106
f 85/2/106 135/2/106 87/2/106
f 119/2/106 135/2/106 85/2/106
f 119/2/106 136/2/106 135/2/106
f 117/2/106 136/2/106 119/2/106
f 111/2/106 136/2/106 117/2/106
f 109/2/106 136/2/106 111/2/106
f 109/2/106 100/2/106 136/2/106
f 95/2/106 100/2/106 109/2/106
f 100/2/106 95/2/106 98/2/106
f 93/2/106 98/2/106 95/2/106
f 93/2/106 137/2/106 98/2/106
f 93/2/106 138/2/106 137/2/106
f 93/2/106 116/2/106 138/2/106
f 93/2/106 114/2/106 116/2/106
f 90/2/106 114/2/106 93/2/106
f 114/2/106 90/2/106 92/2/106
f 60/2/105 47/2/105 46/2/105
f 47/2/105 60/2/105 94/2/105
f 47/2/105 94/2/105 48/2/105
f 48/2/105 94/2/105 96/2/105
f 96/2/105 62/2/105 48/2/105
f 62/2/105 96/2/105 110/2/105
f 62/2/105 110/2/105 112/2/105
f 62/2/105 112/2/105 50/2/105
f 50/2/105 112/2/105 118/2/105
f 50/2/105 118/2/105 120/2/105
f 50/2/105 120/2/105 51/2/105
f 51/2/105 120/2/105 86/2/105
f 51/2/105 86/2/105 73/2/105
f 73/2/105 86/2/105 88/2/105
f 73/2/105 88/2/105 52/2/105
f 52/2/105 88/2/105 108/2/105
f 52/2/105 108/2/105 26/2/105
f 26/2/105 108/2/105 107/2/105
f 26/2/105 107/2/105 27/2/105
f 27/2/105 107/2/105 139/2/105
f 27/2/105 139/2/105 80/2/105
f 80/2/105 139/2/105 140/2/105
f 80/2/105 140/2/105 81/2/105
f 81/2/105 140/2/105 124/2/105
f 81/2/105 124/2/105 82/2/105
f 82/2/105 124/2/105 123/2/105
f 117/2/101 112/2/98 111/2/98
f 112/2/98 117/2/101 118/2/101
f 125/2/107 116/2/100 115/2/100
f 116/2/100 125/2/107 138/2/107
f 126/2/108 138/2/107 125/2/107
f 138/2/107 126/2/108 137/2/108
f 127/2/109 135/2/110 136/2/109
f 135/2/110 127/2/109 128/2/110
f 109/2/97 96/2/90 95/2/90
f 96/2/90 109/2/97 110/2/97
f 97/2/91 137/2/108 126/2/108
f 137/2/108 97/2/91 98/2/91
f 85/2/85 120/2/102 119/2/102
f 120/2/102 85/2/85 86/2/85
f 123/2/89 69/2/89 82/2/89
f 121/2/89 69/2/89 123/2/89
f 69/2/89 121/2/89 101/2/89
f 69/2/89 101/2/89 68/2/89
f 68/2/89 101/2/89 67/2/89
f 67/2/89 101/2/89 65/2/89
f 65/2/89 101/2/89 83/2/89
f 83/2/89 101/2/89 102/2/89
f 99/2/92 136/2/109 100/2/92
f 136/2/109 99/2/92 127/2/109
f 128/2/110 134/2/111 135/2/110
f 134/2/111 128/2/110 129/2/111
f 122/2/104 140/2/112 131/2/112
f 140/2/112 122/2/104 124/2/104
f 139/2/113 105/2/95 133/2/113
f 105/2/95 139/2/113 107/2/95
f 130/2/114 103/2/94 132/2/114
f 103/2/94 130/2/114 104/2/94
f 129/2/111 132/2/114 134/2/111
f 132/2/114 129/2/111 130/2/114
f 140/2/112 133/2/113 131/2/112
f 133/2/113 140/2/112 139/2/113

