# Created by Kenney (www.kenney.nl)

mtllib end-rounded.mtl

g end-rounded

v -0.35 0.5 -0.5 1 1 1
v -0.35 0.5 0.35 1 1 1
v -0.5 0.5 -0.5 1 1 1
v -0.35 0.5 0.5 1 1 1
v -0.4625 0.5 0.4625 1 1 1
v -0.5 0.5 0.35 1 1 1
v 0.35 0.5 0.5 1 1 1
v 0.35 0.5 0.35 1 1 1
v 0.35 0.5 -0.5 1 1 1
v 0.4625 0.5 0.4625 1 1 1
v 0.5 0.5 0.35 1 1 1
v 0.5 0.5 -0.5 1 1 1
v 0.35 0 0.5 1 1 1
v -0.35 0 0.5 1 1 1
v 0.5 0 0.35 1 1 1
v 0.4625 0 0.4625 1 1 1
v -0.5 0 0.35 1 1 1
v -0.4625 0 0.4625 1 1 1
v -0.2875 0.3125 -0.5 1 1 1
v -0.5 0 -0.5 1 1 1
v 0.5 0 -0.5 1 1 1
v -0.1 0.25 -0.5 1 1 1
v 0.1 0.25 -0.5 1 1 1
v 0.2875 0.3125 -0.5 1 1 1
v 0.2875 0.3125 0.2875 1 1 1
v -0.2875 0.3125 0.2875 1 1 1
v 0.1 0.25 0.1 1 1 1
v -0.1 0.25 0.1 1 1 1

vn 0 1 0
vn 0 0 1
vn 0.9486833 0 0.3162278
vn 0.7071068 0 0.7071068
vn 0.3162278 0 0.9486833
vn -0.9486833 0 0.3162278
vn -0.7071068 0 0.7071068
vn 0 0 -1
vn -1 0 0
vn 0 -1 0
vn 1 0 0
vn -0.3162278 0 0.9486833
vn 0 0.5562133 -0.8310396
vn 0 0.3162278 -0.9486833
vn -0.7071068 0.7071068 0
vn -0.9486833 0.3162278 0
vn -0.8310396 0.5562133 0
vn -0.1601822 0.9870875 0
vn -0.1211525 0.9852128 -0.1211525
vn 0.1601822 0.9870875 0
vn 0.1211525 0.9852128 -0.1211525
vn 0.9486833 0.3162278 0
vn 0.7071068 0.7071068 0
vn 0.8310396 0.5562133 0

vt 0.90625 0.375
vt 0.28125 0.375

usemtl colormap

f 3/1/1 2/1/1 1/1/1
f 2/1/1 3/1/1 4/1/1
f 4/1/1 3/1/1 5/1/1
f 5/1/1 3/1/1 6/1/1
f 7/1/1 2/1/1 4/1/1
f 7/1/1 8/1/1 2/1/1
f 7/1/1 9/1/1 8/1/1
f 10/1/1 9/1/1 7/1/1
f 11/1/1 9/1/1 10/1/1
f 9/1/1 11/1/1 12/1/1
f 7/1/2 14/1/2 13/1/2
f 14/1/2 7/1/2 4/1/2
f 10/1/4 15/1/3 11/1/3
f 15/1/3 10/1/4 16/1/4
f 10/1/4 13/1/5 16/1/4
f 13/1/5 10/1/4 7/1/5
f 18/1/7 6/1/6 17/1/6
f 6/1/6 18/1/7 5/1/7
f 19/1/8 3/1/8 1/1/8
f 19/1/8 20/1/8 3/1/8
f 20/1/8 19/1/8 21/1/8
f 21/1/8 19/1/8 22/1/8
f 23/1/8 21/1/8 22/1/8
f 24/1/8 21/1/8 23/1/8
f 21/1/8 24/1/8 12/1/8
f 12/1/8 24/1/8 9/1/8
f 17/1/9 3/1/9 20/1/9
f 3/1/9 17/1/9 6/1/9
f 16/1/10 21/1/10 15/1/10
f 21/1/10 16/1/10 20/1/10
f 20/1/10 16/1/10 13/1/10
f 20/1/10 13/1/10 14/1/10
f 20/1/10 14/1/10 18/1/10
f 20/1/10 18/1/10 17/1/10
f 11/1/11 21/1/11 12/1/11
f 21/1/11 11/1/11 15/1/11
f 4/1/12 18/1/7 14/1/12
f 18/1/7 4/1/12 5/1/7
f 26/2/13 8/2/14 25/2/13
f 8/2/14 26/2/13 2/2/14
f 25/2/17 9/2/16 24/2/15
f 9/2/16 25/2/17 8/2/16
f 23/2/18 25/2/17 24/2/15
f 25/2/17 23/2/18 27/2/19
f 22/2/20 27/2/19 23/2/18
f 27/2/19 22/2/20 28/2/21
f 27/2/19 26/2/13 25/2/13
f 26/2/13 27/2/19 28/2/21
f 2/2/22 19/2/23 1/2/22
f 19/2/23 2/2/22 26/2/24
f 19/2/23 28/2/21 22/2/20
f 28/2/21 19/2/23 26/2/24

g end-rounded




usemtl colormap

f 3/1/1 2/1/1 1/1/1
f 2/1/1 3/1/1 4/1/1
f 4/1/1 3/1/1 5/1/1
f 5/1/1 3/1/1 6/1/1
f 7/1/1 2/1/1 4/1/1
f 7/1/1 8/1/1 2/1/1
f 7/1/1 9/1/1 8/1/1
f 10/1/1 9/1/1 7/1/1
f 11/1/1 9/1/1 10/1/1
f 9/1/1 11/1/1 12/1/1
f 7/1/2 14/1/2 13/1/2
f 14/1/2 7/1/2 4/1/2
f 10/1/4 15/1/3 11/1/3
f 15/1/3 10/1/4 16/1/4
f 10/1/4 13/1/5 16/1/4
f 13/1/5 10/1/4 7/1/5
f 18/1/7 6/1/6 17/1/6
f 6/1/6 18/1/7 5/1/7
f 19/1/8 3/1/8 1/1/8
f 19/1/8 20/1/8 3/1/8
f 20/1/8 19/1/8 21/1/8
f 21/1/8 19/1/8 22/1/8
f 23/1/8 21/1/8 22/1/8
f 24/1/8 21/1/8 23/1/8
f 21/1/8 24/1/8 12/1/8
f 12/1/8 24/1/8 9/1/8
f 17/1/9 3/1/9 20/1/9
f 3/1/9 17/1/9 6/1/9
f 16/1/10 21/1/10 15/1/10
f 21/1/10 16/1/10 20/1/10
f 20/1/10 16/1/10 13/1/10
f 20/1/10 13/1/10 14/1/10
f 20/1/10 14/1/10 18/1/10
f 20/1/10 18/1/10 17/1/10
f 11/1/11 21/1/11 12/1/11
f 21/1/11 11/1/11 15/1/11
f 4/1/12 18/1/7 14/1/12
f 18/1/7 4/1/12 5/1/7
f 26/2/13 8/2/14 25/2/13
f 8/2/14 26/2/13 2/2/14
f 25/2/17 9/2/16 24/2/15
f 9/2/16 25/2/17 8/2/16
f 23/2/18 25/2/17 24/2/15
f 25/2/17 23/2/18 27/2/19
f 22/2/20 27/2/19 23/2/18
f 27/2/19 22/2/20 28/2/21
f 27/2/19 26/2/13 25/2/13
f 26/2/13 27/2/19 28/2/21
f 2/2/22 19/2/23 1/2/22
f 19/2/23 2/2/22 26/2/24
f 19/2/23 28/2/21 22/2/20
f 28/2/21 19/2/23 26/2/24

