# Created by Kenney (www.kenney.nl)

mtllib funnel-long.mtl

g funnel-long

v -0.2875 0.3125 -0.5 1 1 1
v -0.2 0.25 0.5 1 1 1
v -0.575 0.3125 0.5 1 1 1
v 0.2875 0.3125 -0.5 1 1 1
v 0.35 0.5 -0.5 1 1 1
v 0.575 0.3125 0.5 1 1 1
v -0.35 0.5 -0.5 1 1 1
v -0.7 0.5 0.5 1 1 1
v -0.1 0.25 -0.5 1 1 1
v 0.1 0.25 -0.5 1 1 1
v 0.7 0.5 0.5 1 1 1
v 0.2 0.25 0.5 1 1 1
v 0.575 0.3125 1.5 1 1 1
v 0.7 0.5 1.5 1 1 1
v 0.2 0.25 1.5 1 1 1
v -0.35 0.5 -1.5 1 1 1
v -0.2875 0.3125 -1.5 1 1 1
v 0.2875 0.3125 -1.5 1 1 1
v 0.1 0.25 -1.5 1 1 1
v -0.7 0.5 1.5 1 1 1
v -0.575 0.3125 1.5 1 1 1
v -0.1 0.25 -1.5 1 1 1
v -0.2 0.25 1.5 1 1 1
v 0.35 0.5 -1.5 1 1 1
v 0.85 0 1.5 1 1 1
v 0.85 0 0.5 1 1 1
v -0.85 0 1.5 1 1 1
v 0.5 0 -0.5 1 1 1
v 0.5 0 -1.5 1 1 1
v -0.5 0 -0.5 1 1 1
v -0.85 0 0.5 1 1 1
v -0.5 0 -1.5 1 1 1
v -0.85 0.5 0.5 1 1 1
v -0.85 0.5 1.5 1 1 1
v -0.5 0.5 -1.5 1 1 1
v 0.5 0.5 -1.5 1 1 1
v -0.5 0.5 -0.5 1 1 1
v 0.85 0.5 0.5 1 1 1
v 0.85 0.5 1.5 1 1 1
v 0.5 0.5 -0.5 1 1 1

vn 0.6679243 0.7387677 0.08999763
vn 0.08992264 0.9958749 0.01212172
vn 0.5637087 0.82188 0.08213206
vn -0.6816149 0.7252924 0.09670573
vn -0.9340585 0.3290849 0.1387002
vn -0.5721536 0.8149918 0.09180787
vn 0.9357198 0.3119066 0.1647505
vn 0.8348835 0.5381822 0.1154533
vn 0.1552095 0.9878529 0.007517759
vn -0.1465754 0.9890459 0.01742784
vn -0.824724 0.549816 0.1324112
vn -0.085076 0.9963649 0.004382586
vn -0.5429711 0.8397514 0
vn -0.8320503 0.5547002 0
vn -0.08248053 0.9965927 0
vn 0.9486833 0.3162278 0
vn 0.7071068 0.7071068 0
vn -0.7071068 0.7071068 0
vn -0.1601822 0.9870875 0
vn 0.8320503 0.5547002 0
vn 0.5429711 0.8397514 0
vn 0.1601822 0.9870875 0
vn 0.08248053 0.9965927 0
vn -0.9486833 0.3162278 0
vn 0 -1 0
vn -0.9858646 0 -0.1675435
vn -1 0 0
vn 0 0 -1
vn 0 1 0
vn 0.9858646 0 -0.1675435
vn 1 0 0
vn 0 0 1

vt 0.28125 0.375
vt 0.90625 0.375

usemtl colormap

f 3/1/3 2/1/2 1/1/1
f 6/1/6 5/1/5 4/1/4
f 8/1/8 1/1/1 7/1/7
f 1/1/1 2/1/2 9/1/9
f 10/1/10 6/1/6 4/1/4
f 3/1/3 1/1/1 8/1/8
f 11/1/11 5/1/5 6/1/6
f 10/1/10 12/1/12 6/1/6
f 13/1/13 11/1/11 6/1/6
f 11/1/11 13/1/13 14/1/14
f 12/1/12 13/1/13 6/1/6
f 13/1/13 12/1/12 15/1/15
f 7/1/7 17/1/17 16/1/16
f 17/1/17 7/1/7 1/1/1
f 19/1/19 4/1/4 18/1/18
f 4/1/4 19/1/19 10/1/10
f 20/1/20 3/1/3 8/1/8
f 3/1/3 20/1/20 21/1/21
f 17/1/17 9/1/9 22/1/22
f 9/1/9 17/1/17 1/1/1
f 22/1/22 10/1/10 19/1/19
f 10/1/10 22/1/22 9/1/9
f 2/1/2 10/1/10 9/1/9
f 10/1/10 2/1/2 12/1/12
f 2/1/2 15/1/15 12/1/12
f 15/1/15 2/1/2 23/1/23
f 4/1/4 24/1/24 18/1/18
f 24/1/24 4/1/4 5/1/5
f 3/1/3 23/1/23 2/1/2
f 23/1/23 3/1/3 21/1/21
f 27/2/25 26/2/25 25/2/25
f 26/2/25 27/2/25 28/2/25
f 28/2/25 27/2/25 29/2/25
f 29/2/25 27/2/25 30/2/25
f 30/2/25 27/2/25 31/2/25
f 32/2/25 29/2/25 30/2/25
f 27/2/27 33/2/26 31/2/26
f 33/2/26 27/2/27 34/2/27
f 17/2/28 35/2/28 16/2/28
f 17/2/28 32/2/28 35/2/28
f 32/2/28 17/2/28 29/2/28
f 29/2/28 17/2/28 22/2/28
f 19/2/28 29/2/28 22/2/28
f 18/2/28 29/2/28 19/2/28
f 29/2/28 18/2/28 36/2/28
f 36/2/28 18/2/28 24/2/28
f 31/2/26 37/2/26 30/2/26
f 37/2/26 31/2/26 33/2/26
f 35/2/29 7/2/29 16/2/29
f 7/2/29 35/2/29 37/2/29
f 7/2/29 37/2/29 8/2/29
f 8/2/29 37/2/29 33/2/29
f 8/2/29 33/2/29 20/2/29
f 20/2/29 33/2/29 34/2/29
f 39/2/31 26/2/30 38/2/30
f 26/2/30 39/2/31 25/2/31
f 38/2/30 28/2/30 40/2/30
f 28/2/30 38/2/30 26/2/30
f 40/2/30 29/2/31 36/2/31
f 29/2/31 40/2/30 28/2/30
f 30/2/26 35/2/27 32/2/27
f 35/2/27 30/2/26 37/2/26
f 24/2/29 40/2/29 36/2/29
f 5/2/29 40/2/29 24/2/29
f 11/2/29 40/2/29 5/2/29
f 11/2/29 38/2/29 40/2/29
f 38/2/29 11/2/29 39/2/29
f 14/2/29 39/2/29 11/2/29
f 13/2/32 39/2/32 14/2/32
f 13/2/32 25/2/32 39/2/32
f 25/2/32 13/2/32 27/2/32
f 27/2/32 13/2/32 15/2/32
f 23/2/32 27/2/32 15/2/32
f 21/2/32 27/2/32 23/2/32
f 27/2/32 21/2/32 34/2/32
f 34/2/32 21/2/32 20/2/32

g funnel-long




usemtl colormap

f 3/1/3 2/1/2 1/1/1
f 6/1/6 5/1/5 4/1/4
f 8/1/8 1/1/1 7/1/7
f 1/1/1 2/1/2 9/1/9
f 10/1/10 6/1/6 4/1/4
f 3/1/3 1/1/1 8/1/8
f 11/1/11 5/1/5 6/1/6
f 10/1/10 12/1/12 6/1/6
f 13/1/13 11/1/11 6/1/6
f 11/1/11 13/1/13 14/1/14
f 12/1/12 13/1/13 6/1/6
f 13/1/13 12/1/12 15/1/15
f 7/1/7 17/1/17 16/1/16
f 17/1/17 7/1/7 1/1/1
f 19/1/19 4/1/4 18/1/18
f 4/1/4 19/1/19 10/1/10
f 20/1/20 3/1/3 8/1/8
f 3/1/3 20/1/20 21/1/21
f 17/1/17 9/1/9 22/1/22
f 9/1/9 17/1/17 1/1/1
f 22/1/22 10/1/10 19/1/19
f 10/1/10 22/1/22 9/1/9
f 2/1/2 10/1/10 9/1/9
f 10/1/10 2/1/2 12/1/12
f 2/1/2 15/1/15 12/1/12
f 15/1/15 2/1/2 23/1/23
f 4/1/4 24/1/24 18/1/18
f 24/1/24 4/1/4 5/1/5
f 3/1/3 23/1/23 2/1/2
f 23/1/23 3/1/3 21/1/21
f 27/2/25 26/2/25 25/2/25
f 26/2/25 27/2/25 28/2/25
f 28/2/25 27/2/25 29/2/25
f 29/2/25 27/2/25 30/2/25
f 30/2/25 27/2/25 31/2/25
f 32/2/25 29/2/25 30/2/25
f 27/2/27 33/2/26 31/2/26
f 33/2/26 27/2/27 34/2/27
f 17/2/28 35/2/28 16/2/28
f 17/2/28 32/2/28 35/2/28
f 32/2/28 17/2/28 29/2/28
f 29/2/28 17/2/28 22/2/28
f 19/2/28 29/2/28 22/2/28
f 18/2/28 29/2/28 19/2/28
f 29/2/28 18/2/28 36/2/28
f 36/2/28 18/2/28 24/2/28
f 31/2/26 37/2/26 30/2/26
f 37/2/26 31/2/26 33/2/26
f 35/2/29 7/2/29 16/2/29
f 7/2/29 35/2/29 37/2/29
f 7/2/29 37/2/29 8/2/29
f 8/2/29 37/2/29 33/2/29
f 8/2/29 33/2/29 20/2/29
f 20/2/29 33/2/29 34/2/29
f 39/2/31 26/2/30 38/2/30
f 26/2/30 39/2/31 25/2/31
f 38/2/30 28/2/30 40/2/30
f 28/2/30 38/2/30 26/2/30
f 40/2/30 29/2/31 36/2/31
f 29/2/31 40/2/30 28/2/30
f 30/2/26 35/2/27 32/2/27
f 35/2/27 30/2/26 37/2/26
f 24/2/29 40/2/29 36/2/29
f 5/2/29 40/2/29 24/2/29
f 11/2/29 40/2/29 5/2/29
f 11/2/29 38/2/29 40/2/29
f 38/2/29 11/2/29 39/2/29
f 14/2/29 39/2/29 11/2/29
f 13/2/32 39/2/32 14/2/32
f 13/2/32 25/2/32 39/2/32
f 25/2/32 13/2/32 27/2/32
f 27/2/32 13/2/32 15/2/32
f 23/2/32 27/2/32 15/2/32
f 21/2/32 27/2/32 23/2/32
f 27/2/32 21/2/32 34/2/32
f 34/2/32 21/2/32 20/2/32

