# Created by Kenney (www.kenney.nl)

mtllib ramp-long-solid-d.mtl

g ramp-long-solid-d

v 0.2875 0.3125 -1 1 1 1
v 0.35 0.5 -1 1 1 1
v 0.2875 0.3545 -0.728 1 1 1
v 0.35 0.542 -0.728 1 1 1
v 0.2875 1.4885 0.316 1 1 1
v 0.35 1.676 0.316 1 1 1
v 0.2875 1.6565 0.504 1 1 1
v 0.35 1.844 0.504 1 1 1
v -0.1 1.222 0.152 1 1 1
v 0.1 1.222 0.152 1 1 1
v -0.1 1.426 0.316 1 1 1
v 0.1 1.426 0.316 1 1 1
v 0.1 0.25 -1 1 1 1
v 0.1 0.292 -0.728 1 1 1
v -0.2875 1.2845 0.152 1 1 1
v -0.2875 1.4885 0.316 1 1 1
v -0.35 1.676 0.316 1 1 1
v -0.35 1.844 0.504 1 1 1
v -0.2875 1.6565 0.504 1 1 1
v 0.2875 0.4685 -0.504 1 1 1
v 0.2875 0.6365 -0.316 1 1 1
v 0.1 0.406 -0.504 1 1 1
v 0.1 0.574 -0.316 1 1 1
v -0.1 0.406 -0.504 1 1 1
v -0.2875 0.4685 -0.504 1 1 1
v -0.1 0.292 -0.728 1 1 1
v -0.2875 0.3545 -0.728 1 1 1
v -0.35 0.824 -0.316 1 1 1
v -0.2875 0.6365 -0.316 1 1 1
v -0.35 1.028 -0.152 1 1 1
v -0.2875 0.8404999 -0.152 1 1 1
v 0.1 1.594 0.504 1 1 1
v -0.1 1.594 0.504 1 1 1
v 0.2875 1.2845 0.152 1 1 1
v 0.35 1.472 0.152 1 1 1
v 0.2875 1.7705 0.728 1 1 1
v 0.35 1.958 0.728 1 1 1
v 0.2875 1.8125 1 1 1 1
v 0.35 2 1 1 1 1
v -0.1 0.778 -0.152 1 1 1
v -0.35 1.958 0.728 1 1 1
v -0.2875 1.7705 0.728 1 1 1
v -0.35 1.472 0.152 1 1 1
v -0.35 0.542 -0.728 1 1 1
v -0.35 0.656 -0.504 1 1 1
v -0.35 2 1 1 1 1
v -0.2875 1.8125 1 1 1 1
v 0.1 1.708 0.728 1 1 1
v -0.1 1.708 0.728 1 1 1
v -0.1 0.574 -0.316 1 1 1
v 0.1 0.778 -0.152 1 1 1
v 0.2875 0.8404999 -0.152 1 1 1
v 0.35 0.824 -0.316 1 1 1
v 0.35 1.028 -0.152 1 1 1
v -0.1 1.75 1 1 1 1
v 0.1 1.75 1 1 1 1
v -0.35 0.5 -1 1 1 1
v -0.2875 0.3125 -1 1 1 1
v -0.1 0.25 -1 1 1 1
v 0.35 0.656 -0.504 1 1 1
v -0.5 1.676 0.316 1 1 1
v -0.5 1.844 0.504 1 1 1
v 0.5 1.472 0.152 1 1 1
v 0.5 1.676 0.316 1 1 1
v -0.5 0 -1 1 1 1
v -0.5 0.5 -1 1 1 1
v -0.5 0 1 1 1 1
v -0.5 0.542 -0.728 1 1 1
v -0.5 0.656 -0.504 1 1 1
v -0.5 0.824 -0.316 1 1 1
v -0.5 1.028 -0.152 1 1 1
v -0.5 1.472 0.152 1 1 1
v -0.5 1.958 0.728 1 1 1
v -0.5 2 1 1 1 1
v 0.5 0.542 -0.728 1 1 1
v 0.5 0.656 -0.504 1 1 1
v 0.5 0.824 -0.316 1 1 1
v 0.5 1.028 -0.152 1 1 1
v 0.5 0.5 -1 1 1 1
v 0.5 0 -1 1 1 1
v 0.5 1.958 0.728 1 1 1
v 0.5 2 1 1 1 1
v 0.5 1.844 0.504 1 1 1
v 0.5 0 1 1 1 1

vn -0.6817034 0.7230595 -0.1116489
vn -0.9475544 0.3158515 -0.04877118
vn -0.675246 0.7015929 -0.2276181
vn -0.9425591 0.3141864 -0.1134429
vn -0.6280028 0.5323336 -0.567656
vn -0.9063383 0.3021127 -0.2954298
vn -0.6796184 0.6028937 -0.4178974
vn -0.930716 0.3102387 -0.1936994
vn 0.09735038 0.5908536 -0.8008838
vn -0.09735038 0.5908536 -0.8008838
vn 0.1117849 0.6796985 -0.7249235
vn -0.1117849 0.6796985 -0.7249235
vn -0.1559725 0.9761923 -0.1507356
vn -0.1511329 0.9421509 -0.2991833
vn 0.5882908 0.4799129 -0.6508437
vn 0.6280028 0.5323336 -0.567656
vn 0.9063383 0.3021127 -0.2954298
vn 0.930716 0.3102387 -0.1936994
vn 0.6796184 0.6028937 -0.4178974
vn -0.6499906 0.6269527 -0.4294678
vn -0.6168079 0.5430611 -0.5697655
vn -0.1336012 0.8217822 -0.5539176
vn -0.1132313 0.6881952 -0.7166353
vn 0.1336012 0.8217822 -0.5539176
vn 0.6499906 0.6269527 -0.4294678
vn 0.1511329 0.9421509 -0.2991833
vn 0.675246 0.7015929 -0.2276181
vn 0.8918148 0.2972716 -0.3410219
vn 0.6168079 0.5430611 -0.5697655
vn 0.8664856 0.2888285 -0.4071619
vn 0.5870982 0.4841453 -0.6487827
vn -0.1339542 0.8136349 -0.5657336
vn 0.1339542 0.8136349 -0.5657336
vn -0.5882908 0.4799129 -0.6508437
vn -0.8783759 0.292792 -0.3777944
vn -0.718734 0.6610414 -0.2155125
vn -0.9446129 0.3148709 -0.09253544
vn -0.7254835 0.6801786 -0.1050276
vn 0.09849066 0.595748 -0.7971097
vn 0.9446129 0.3148709 -0.09253544
vn 0.718734 0.6610414 -0.2155125
vn 0.8783759 0.292792 -0.3777944
vn 0.9425591 0.3141864 -0.1134429
vn 0.9221982 0.3073994 -0.2346403
vn 0.9475544 0.3158515 -0.04877118
vn 0.7254835 0.6801786 -0.1050276
vn -0.154889 0.9386889 -0.3080142
vn 0.154889 0.9386889 -0.3080142
vn 0.1132313 0.6881952 -0.7166353
vn -0.09849066 0.595748 -0.7971097
vn -0.5870982 0.4841453 -0.6487827
vn -0.8918148 0.2972716 -0.3410219
vn -0.8664856 0.2888285 -0.4071619
vn 0.1608433 0.97542 -0.1506163
vn -0.1608433 0.97542 -0.1506163
vn 0.6817034 0.7230595 -0.1116489
vn 0.1559725 0.9761923 -0.1507356
vn -0.9221982 0.3073994 -0.2346403
vn 0 0.6884308 -0.725302
vn 0 0.8253237 -0.56466
vn 0 0.5961926 -0.8028415
vn -1 0 0
vn 0 0.9517266 -0.3069468
vn 0 0.9882875 -0.1526032
vn 0 0 -1
vn 1 0 0
vn 0 -1 0
vn 0 0 1

vt 0.28125 0.375
vt 0.90625 0.375

usemtl colormap

f 3/1/3 2/1/2 1/1/1
f 2/1/2 3/1/3 4/1/4
f 7/1/7 6/1/6 5/1/5
f 6/1/6 7/1/7 8/1/8
f 11/1/11 10/1/10 9/1/9
f 10/1/10 11/1/11 12/1/12
f 13/1/13 3/1/3 1/1/1
f 3/1/3 13/1/13 14/1/14
f 15/1/15 11/1/11 9/1/9
f 11/1/11 15/1/15 16/1/16
f 18/1/18 16/1/16 17/1/17
f 16/1/16 18/1/18 19/1/19
f 22/1/22 21/1/21 20/1/20
f 21/1/21 22/1/22 23/1/23
f 26/1/26 25/1/25 24/1/24
f 25/1/25 26/1/26 27/1/27
f 30/1/30 29/1/29 28/1/28
f 29/1/29 30/1/30 31/1/31
f 12/1/12 7/1/7 5/1/5
f 7/1/7 12/1/12 32/1/32
f 16/1/16 33/1/33 11/1/11
f 33/1/33 16/1/16 19/1/19
f 5/1/5 35/1/35 34/1/34
f 35/1/35 5/1/5 6/1/6
f 38/1/38 37/1/37 36/1/36
f 37/1/37 38/1/38 39/1/2
f 31/1/31 9/1/9 40/1/39
f 9/1/9 31/1/31 15/1/15
f 41/1/40 19/1/19 18/1/18
f 19/1/19 41/1/40 42/1/41
f 17/1/17 15/1/15 43/1/42
f 15/1/15 17/1/17 16/1/16
f 45/1/44 27/1/27 44/1/43
f 27/1/27 45/1/44 25/1/25
f 46/1/45 42/1/41 41/1/40
f 42/1/41 46/1/45 47/1/46
f 33/1/33 48/1/47 32/1/32
f 48/1/47 33/1/33 49/1/48
f 12/1/12 34/1/34 10/1/10
f 34/1/34 12/1/12 5/1/5
f 29/1/29 40/1/39 50/1/49
f 40/1/39 29/1/29 31/1/31
f 51/1/50 21/1/21 23/1/23
f 21/1/21 51/1/50 52/1/51
f 52/1/51 53/1/52 21/1/21
f 53/1/52 52/1/51 54/1/53
f 25/1/25 50/1/49 24/1/24
f 50/1/49 25/1/25 29/1/29
f 40/1/39 23/1/23 50/1/49
f 23/1/23 40/1/39 51/1/50
f 28/1/28 25/1/25 45/1/44
f 25/1/25 28/1/28 29/1/29
f 42/1/41 55/1/54 49/1/48
f 55/1/54 42/1/41 47/1/46
f 49/1/48 56/1/55 48/1/47
f 56/1/55 49/1/48 55/1/54
f 44/1/43 58/1/56 57/1/45
f 58/1/56 44/1/43 27/1/27
f 24/1/24 23/1/23 22/1/22
f 23/1/23 24/1/24 50/1/49
f 58/1/56 26/1/26 59/1/57
f 26/1/26 58/1/56 27/1/27
f 20/1/20 4/1/4 3/1/3
f 4/1/4 20/1/20 60/1/58
f 48/1/47 38/1/38 36/1/36
f 38/1/38 48/1/47 56/1/55
f 26/1/26 22/1/22 14/1/14
f 22/1/22 26/1/26 24/1/24
f 21/1/21 60/1/58 20/1/20
f 60/1/58 21/1/21 53/1/52
f 59/1/57 14/1/14 13/1/13
f 14/1/14 59/1/57 26/1/26
f 11/1/11 32/1/32 12/1/12
f 32/1/32 11/1/11 33/1/33
f 19/1/19 49/1/48 33/1/33
f 49/1/48 19/1/19 42/1/41
f 14/1/14 20/1/20 3/1/3
f 20/1/20 14/1/14 22/1/22
f 32/1/32 36/1/36 7/1/7
f 36/1/36 32/1/32 48/1/47
f 36/1/36 8/1/8 7/1/7
f 8/1/8 36/1/36 37/1/37
f 9/1/9 51/1/50 40/1/39
f 51/1/50 9/1/9 10/1/10
f 10/1/10 52/1/51 51/1/50
f 52/1/51 10/1/10 34/1/34
f 34/1/34 54/1/53 52/1/51
f 54/1/53 34/1/34 35/1/35
f 43/1/42 31/1/31 30/1/30
f 31/1/31 43/1/42 15/1/15
f 61/2/59 18/2/60 17/2/59
f 18/2/60 61/2/59 62/2/60
f 6/2/59 63/2/61 35/2/61
f 63/2/61 6/2/59 64/2/59
f 67/2/62 66/2/62 65/2/62
f 66/2/62 67/2/62 68/2/62
f 68/2/62 67/2/62 69/2/62
f 69/2/62 67/2/62 70/2/62
f 70/2/62 67/2/62 71/2/62
f 71/2/62 67/2/62 72/2/62
f 72/2/62 67/2/62 61/2/62
f 61/2/62 67/2/62 62/2/62
f 62/2/62 67/2/62 73/2/62
f 73/2/62 67/2/62 74/2/62
f 71/2/61 28/2/59 70/2/59
f 28/2/59 71/2/61 30/2/61
f 61/2/59 43/2/61 72/2/61
f 43/2/61 61/2/59 17/2/59
f 4/2/63 76/2/60 75/2/63
f 76/2/60 4/2/63 60/2/60
f 60/2/60 77/2/59 76/2/60
f 77/2/59 60/2/60 53/2/59
f 44/2/63 69/2/60 45/2/60
f 69/2/60 44/2/63 68/2/63
f 54/2/61 77/2/59 53/2/59
f 77/2/59 54/2/61 78/2/61
f 66/2/64 44/2/63 57/2/64
f 44/2/63 66/2/64 68/2/63
f 69/2/60 28/2/59 45/2/60
f 28/2/59 69/2/60 70/2/59
f 62/2/60 41/2/63 18/2/60
f 41/2/63 62/2/60 73/2/63
f 2/2/64 75/2/63 79/2/64
f 75/2/63 2/2/64 4/2/63
f 58/2/65 66/2/65 57/2/65
f 58/2/65 65/2/65 66/2/65
f 65/2/65 58/2/65 80/2/65
f 80/2/65 58/2/65 59/2/65
f 13/2/65 80/2/65 59/2/65
f 1/2/65 80/2/65 13/2/65
f 80/2/65 1/2/65 79/2/65
f 79/2/65 1/2/65 2/2/65
f 37/2/63 82/2/64 81/2/63
f 82/2/64 37/2/63 39/2/64
f 73/2/63 46/2/64 41/2/63
f 46/2/64 73/2/63 74/2/64
f 8/2/60 81/2/63 83/2/60
f 81/2/63 8/2/60 37/2/63
f 6/2/59 83/2/60 64/2/59
f 83/2/60 6/2/59 8/2/60
f 75/2/66 80/2/66 79/2/66
f 80/2/66 75/2/66 84/2/66
f 84/2/66 75/2/66 76/2/66
f 84/2/66 76/2/66 77/2/66
f 84/2/66 77/2/66 78/2/66
f 84/2/66 78/2/66 63/2/66
f 84/2/66 63/2/66 64/2/66
f 84/2/66 64/2/66 83/2/66
f 84/2/66 83/2/66 81/2/66
f 84/2/66 81/2/66 82/2/66
f 35/2/61 78/2/61 54/2/61
f 78/2/61 35/2/61 63/2/61
f 67/2/67 80/2/67 84/2/67
f 80/2/67 67/2/67 65/2/67
f 82/2/68 67/2/68 84/2/68
f 67/2/68 82/2/68 38/2/68
f 38/2/68 82/2/68 39/2/68
f 67/2/68 38/2/68 56/2/68
f 55/2/68 67/2/68 56/2/68
f 47/2/68 67/2/68 55/2/68
f 67/2/68 47/2/68 74/2/68
f 74/2/68 47/2/68 46/2/68
f 72/2/61 30/2/61 71/2/61
f 30/2/61 72/2/61 43/2/61

g ramp-long-solid-d




usemtl colormap

f 3/1/3 2/1/2 1/1/1
f 2/1/2 3/1/3 4/1/4
f 7/1/7 6/1/6 5/1/5
f 6/1/6 7/1/7 8/1/8
f 11/1/11 10/1/10 9/1/9
f 10/1/10 11/1/11 12/1/12
f 13/1/13 3/1/3 1/1/1
f 3/1/3 13/1/13 14/1/14
f 15/1/15 11/1/11 9/1/9
f 11/1/11 15/1/15 16/1/16
f 18/1/18 16/1/16 17/1/17
f 16/1/16 18/1/18 19/1/19
f 22/1/22 21/1/21 20/1/20
f 21/1/21 22/1/22 23/1/23
f 26/1/26 25/1/25 24/1/24
f 25/1/25 26/1/26 27/1/27
f 30/1/30 29/1/29 28/1/28
f 29/1/29 30/1/30 31/1/31
f 12/1/12 7/1/7 5/1/5
f 7/1/7 12/1/12 32/1/32
f 16/1/16 33/1/33 11/1/11
f 33/1/33 16/1/16 19/1/19
f 5/1/5 35/1/35 34/1/34
f 35/1/35 5/1/5 6/1/6
f 38/1/38 37/1/37 36/1/36
f 37/1/37 38/1/38 39/1/2
f 31/1/31 9/1/9 40/1/39
f 9/1/9 31/1/31 15/1/15
f 41/1/40 19/1/19 18/1/18
f 19/1/19 41/1/40 42/1/41
f 17/1/17 15/1/15 43/1/42
f 15/1/15 17/1/17 16/1/16
f 45/1/44 27/1/27 44/1/43
f 27/1/27 45/1/44 25/1/25
f 46/1/45 42/1/41 41/1/40
f 42/1/41 46/1/45 47/1/46
f 33/1/33 48/1/47 32/1/32
f 48/1/47 33/1/33 49/1/48
f 12/1/12 34/1/34 10/1/10
f 34/1/34 12/1/12 5/1/5
f 29/1/29 40/1/39 50/1/49
f 40/1/39 29/1/29 31/1/31
f 51/1/50 21/1/21 23/1/23
f 21/1/21 51/1/50 52/1/51
f 52/1/51 53/1/52 21/1/21
f 53/1/52 52/1/51 54/1/53
f 25/1/25 50/1/49 24/1/24
f 50/1/49 25/1/25 29/1/29
f 40/1/39 23/1/23 50/1/49
f 23/1/23 40/1/39 51/1/50
f 28/1/28 25/1/25 45/1/44
f 25/1/25 28/1/28 29/1/29
f 42/1/41 55/1/54 49/1/48
f 55/1/54 42/1/41 47/1/46
f 49/1/48 56/1/55 48/1/47
f 56/1/55 49/1/48 55/1/54
f 44/1/43 58/1/56 57/1/45
f 58/1/56 44/1/43 27/1/27
f 24/1/24 23/1/23 22/1/22
f 23/1/23 24/1/24 50/1/49
f 58/1/56 26/1/26 59/1/57
f 26/1/26 58/1/56 27/1/27
f 20/1/20 4/1/4 3/1/3
f 4/1/4 20/1/20 60/1/58
f 48/1/47 38/1/38 36/1/36
f 38/1/38 48/1/47 56/1/55
f 26/1/26 22/1/22 14/1/14
f 22/1/22 26/1/26 24/1/24
f 21/1/21 60/1/58 20/1/20
f 60/1/58 21/1/21 53/1/52
f 59/1/57 14/1/14 13/1/13
f 14/1/14 59/1/57 26/1/26
f 11/1/11 32/1/32 12/1/12
f 32/1/32 11/1/11 33/1/33
f 19/1/19 49/1/48 33/1/33
f 49/1/48 19/1/19 42/1/41
f 14/1/14 20/1/20 3/1/3
f 20/1/20 14/1/14 22/1/22
f 32/1/32 36/1/36 7/1/7
f 36/1/36 32/1/32 48/1/47
f 36/1/36 8/1/8 7/1/7
f 8/1/8 36/1/36 37/1/37
f 9/1/9 51/1/50 40/1/39
f 51/1/50 9/1/9 10/1/10
f 10/1/10 52/1/51 51/1/50
f 52/1/51 10/1/10 34/1/34
f 34/1/34 54/1/53 52/1/51
f 54/1/53 34/1/34 35/1/35
f 43/1/42 31/1/31 30/1/30
f 31/1/31 43/1/42 15/1/15
f 61/2/59 18/2/60 17/2/59
f 18/2/60 61/2/59 62/2/60
f 6/2/59 63/2/61 35/2/61
f 63/2/61 6/2/59 64/2/59
f 67/2/62 66/2/62 65/2/62
f 66/2/62 67/2/62 68/2/62
f 68/2/62 67/2/62 69/2/62
f 69/2/62 67/2/62 70/2/62
f 70/2/62 67/2/62 71/2/62
f 71/2/62 67/2/62 72/2/62
f 72/2/62 67/2/62 61/2/62
f 61/2/62 67/2/62 62/2/62
f 62/2/62 67/2/62 73/2/62
f 73/2/62 67/2/62 74/2/62
f 71/2/61 28/2/59 70/2/59
f 28/2/59 71/2/61 30/2/61
f 61/2/59 43/2/61 72/2/61
f 43/2/61 61/2/59 17/2/59
f 4/2/63 76/2/60 75/2/63
f 76/2/60 4/2/63 60/2/60
f 60/2/60 77/2/59 76/2/60
f 77/2/59 60/2/60 53/2/59
f 44/2/63 69/2/60 45/2/60
f 69/2/60 44/2/63 68/2/63
f 54/2/61 77/2/59 53/2/59
f 77/2/59 54/2/61 78/2/61
f 66/2/64 44/2/63 57/2/64
f 44/2/63 66/2/64 68/2/63
f 69/2/60 28/2/59 45/2/60
f 28/2/59 69/2/60 70/2/59
f 62/2/60 41/2/63 18/2/60
f 41/2/63 62/2/60 73/2/63
f 2/2/64 75/2/63 79/2/64
f 75/2/63 2/2/64 4/2/63
f 58/2/65 66/2/65 57/2/65
f 58/2/65 65/2/65 66/2/65
f 65/2/65 58/2/65 80/2/65
f 80/2/65 58/2/65 59/2/65
f 13/2/65 80/2/65 59/2/65
f 1/2/65 80/2/65 13/2/65
f 80/2/65 1/2/65 79/2/65
f 79/2/65 1/2/65 2/2/65
f 37/2/63 82/2/64 81/2/63
f 82/2/64 37/2/63 39/2/64
f 73/2/63 46/2/64 41/2/63
f 46/2/64 73/2/63 74/2/64
f 8/2/60 81/2/63 83/2/60
f 81/2/63 8/2/60 37/2/63
f 6/2/59 83/2/60 64/2/59
f 83/2/60 6/2/59 8/2/60
f 75/2/66 80/2/66 79/2/66
f 80/2/66 75/2/66 84/2/66
f 84/2/66 75/2/66 76/2/66
f 84/2/66 76/2/66 77/2/66
f 84/2/66 77/2/66 78/2/66
f 84/2/66 78/2/66 63/2/66
f 84/2/66 63/2/66 64/2/66
f 84/2/66 64/2/66 83/2/66
f 84/2/66 83/2/66 81/2/66
f 84/2/66 81/2/66 82/2/66
f 35/2/61 78/2/61 54/2/61
f 78/2/61 35/2/61 63/2/61
f 67/2/67 80/2/67 84/2/67
f 80/2/67 67/2/67 65/2/67
f 82/2/68 67/2/68 84/2/68
f 67/2/68 82/2/68 38/2/68
f 38/2/68 82/2/68 39/2/68
f 67/2/68 38/2/68 56/2/68
f 55/2/68 67/2/68 56/2/68
f 47/2/68 67/2/68 55/2/68
f 67/2/68 47/2/68 74/2/68
f 74/2/68 47/2/68 46/2/68
f 72/2/61 30/2/61 71/2/61
f 30/2/61 72/2/61 43/2/61

