# Created by Kenney (www.kenney.nl)

mtllib ramp-end-b.mtl

g ramp-end-b

v 0.5 0.236 0.228 1 1 1
v 0.5 0.198 0.004 1 1 1
v -0.5 0.236 0.228 1 1 1
v -0.5 0.198 0.004 1 1 1
v 0.5 0.698 0.004 1 1 1
v 0.5 0.736 0.228 1 1 1
v 0.35 0.698 0.004 1 1 1
v 0.35 0.736 0.228 1 1 1
v 0.5 0.074 -0.348 1 1 1
v 0.5 0 -0.5 1 1 1
v -0.5 0.074 -0.348 1 1 1
v -0.5 1.127987E-15 -0.5 1 1 1
v 0.35 0.75 0.5 1 1 1
v 0.5 0.75 0.5 1 1 1
v 0.2875 0.5625 0.5 1 1 1
v 0.5 0.25 0.5 1 1 1
v -0.5 0.25 0.5 1 1 1
v 0.1 0.5 0.5 1 1 1
v -0.1 0.5 0.5 1 1 1
v -0.2875 0.5625 0.5 1 1 1
v -0.5 0.75 0.5 1 1 1
v -0.35 0.75 0.5 1 1 1
v 0.5 0.142 -0.184 1 1 1
v -0.5 0.142 -0.184 1 1 1
v -0.35 0.5 -0.5 1 1 1
v -0.35 0.574 -0.348 1 1 1
v -0.5 0.5 -0.5 1 1 1
v -0.5 0.574 -0.348 1 1 1
v -0.35 0.642 -0.184 1 1 1
v -0.5 0.642 -0.184 1 1 1
v 0.5 0.5 -0.5 1 1 1
v 0.5 0.574 -0.348 1 1 1
v 0.35 0.5 -0.5 1 1 1
v 0.35 0.574 -0.348 1 1 1
v -0.35 0.698 0.004 1 1 1
v -0.5 0.698 0.004 1 1 1
v 0.5 0.642 -0.184 1 1 1
v 0.35 0.642 -0.184 1 1 1
v -0.2875 0.3125 -0.5 1 1 1
v -0.1 0.25 -0.5 1 1 1
v 0.1 0.25 -0.5 1 1 1
v 0.2875 0.3125 -0.5 1 1 1
v -0.35 0.736 0.228 1 1 1
v -0.5 0.736 0.228 1 1 1
v -0.1 0.324 -0.348 1 1 1
v -0.2875 0.3865 -0.348 1 1 1
v 0.2875 0.4545 -0.184 1 1 1
v 0.2875 0.5105 0.004 1 1 1
v -0.1 0.448 0.004 1 1 1
v -0.1 0.486 0.228 1 1 1
v -0.2875 0.5105 0.004 1 1 1
v -0.2875 0.5485 0.228 1 1 1
v 0.1 0.392 -0.184 1 1 1
v 0.1 0.448 0.004 1 1 1
v 0.1 0.324 -0.348 1 1 1
v -0.1 0.392 -0.184 1 1 1
v 0.2875 0.5485 0.228 1 1 1
v 0.1 0.486 0.228 1 1 1
v -0.2875 0.4545 -0.184 1 1 1
v 0.2875 0.3865 -0.348 1 1 1

vn 0 -0.9939852 0.109514
vn 0 -0.9739454 0.226783
vn 0 0.9739454 -0.226783
vn 0 0.9939852 -0.109514
vn 0 -0.9118361 0.4105545
vn 0 -0.8991093 0.4377243
vn 0 0 1
vn 0 -0.9423268 0.3346944
vn 0 -0.998678 0.05140255
vn 0 0.8991093 -0.4377243
vn 0 0.9118361 -0.4105545
vn 0 0.9423268 -0.3346944
vn 1 0 0
vn 0 0 -1
vn 0 0.998678 -0.05140255
vn -1 0 0
vn 0.1383658 0.8904608 -0.4335138
vn 0.147255 0.9013959 -0.4071872
vn 0.608939 0.7131888 -0.3472103
vn 0.6912247 0.658837 -0.2968875
vn -0.7014917 0.6714644 -0.2388405
vn -0.9431276 0.3143759 -0.1080657
vn -0.7100623 0.6857404 -0.1599121
vn -0.9463021 0.315434 -0.07080836
vn 0.1571572 0.9615316 -0.2252964
vn 0.1602069 0.981077 -0.1087279
vn 0.7100623 0.6857404 -0.1599121
vn 0.7141837 0.6957388 -0.07674151
vn -0.152162 0.930777 -0.3324168
vn -0.1571572 0.9615316 -0.2252964
vn -0.147255 0.9013959 -0.4071872
vn 0.152162 0.930777 -0.3324168
vn -0.7141837 0.6957388 -0.07674151
vn -0.1602069 0.981077 -0.1087279
vn 0.7014917 0.6714644 -0.2388405
vn -0.1383658 0.8904608 -0.4335138
vn 0.9481461 0.3160487 -0.03364692
vn 0.9485576 0.3161859 -0.01627427
vn 0.7140361 0.6991835 -0.03598738
vn -0.608939 0.7131888 -0.3472103
vn -0.9376367 0.3125456 -0.1521603
vn -0.6912247 0.658837 -0.2968875
vn -0.9395776 0.3131926 -0.1382186
vn 0.9431276 0.3143759 -0.1080657
vn 0.9463021 0.315434 -0.07080836
vn 0.16081 0.9856806 -0.05073356
vn 0.9376367 0.3125456 -0.1521603
vn 0.9395776 0.3131926 -0.1382186
vn -0.7140361 0.6991835 -0.03598738
vn -0.16081 0.9856806 -0.05073356
vn -0.9481461 0.3160487 -0.03364692
vn -0.9485576 0.3161859 -0.01627427

vt 0.90625 0.375
vt 0.28125 0.375

usemtl colormap

f 3/1/1 2/1/2 1/1/1
f 2/1/2 3/1/1 4/1/2
f 7/1/3 6/1/4 5/1/3
f 6/1/4 7/1/3 8/1/4
f 11/1/5 10/1/6 9/1/5
f 10/1/6 11/1/5 12/1/6
f 15/1/7 14/1/7 13/1/7
f 15/1/7 16/1/7 14/1/7
f 16/1/7 15/1/7 17/1/7
f 17/1/7 15/1/7 18/1/7
f 19/1/7 17/1/7 18/1/7
f 20/1/7 17/1/7 19/1/7
f 17/1/7 20/1/7 21/1/7
f 21/1/7 20/1/7 22/1/7
f 4/1/2 23/1/8 2/1/2
f 23/1/8 4/1/2 24/1/8
f 17/1/9 1/1/1 16/1/9
f 1/1/1 17/1/9 3/1/1
f 24/1/8 9/1/5 23/1/8
f 9/1/5 24/1/8 11/1/5
f 27/1/10 26/1/11 25/1/10
f 26/1/11 27/1/10 28/1/11
f 28/1/11 29/1/12 26/1/11
f 29/1/12 28/1/11 30/1/12
f 33/1/10 32/1/11 31/1/10
f 32/1/11 33/1/10 34/1/11
f 30/1/12 35/1/3 29/1/12
f 35/1/3 30/1/12 36/1/3
f 38/1/12 5/1/3 37/1/12
f 5/1/3 38/1/12 7/1/3
f 32/1/13 10/1/13 31/1/13
f 10/1/13 32/1/13 9/1/13
f 9/1/13 32/1/13 37/1/13
f 9/1/13 37/1/13 23/1/13
f 23/1/13 37/1/13 5/1/13
f 23/1/13 5/1/13 2/1/13
f 2/1/13 5/1/13 6/1/13
f 2/1/13 6/1/13 1/1/13
f 1/1/13 6/1/13 14/1/13
f 1/1/13 14/1/13 16/1/13
f 39/1/14 27/1/14 25/1/14
f 39/1/14 12/1/14 27/1/14
f 12/1/14 39/1/14 40/1/14
f 41/1/14 12/1/14 40/1/14
f 42/1/14 12/1/14 41/1/14
f 42/1/14 10/1/14 12/1/14
f 10/1/14 42/1/14 31/1/14
f 31/1/14 42/1/14 33/1/14
f 36/1/3 43/1/4 35/1/3
f 43/1/4 36/1/3 44/1/4
f 8/1/4 14/1/15 6/1/4
f 14/1/15 8/1/4 13/1/15
f 11/1/16 27/1/16 12/1/16
f 27/1/16 11/1/16 28/1/16
f 28/1/16 11/1/16 24/1/16
f 28/1/16 24/1/16 30/1/16
f 30/1/16 24/1/16 4/1/16
f 30/1/16 4/1/16 36/1/16
f 36/1/16 4/1/16 3/1/16
f 36/1/16 3/1/16 44/1/16
f 44/1/16 3/1/16 17/1/16
f 44/1/16 17/1/16 21/1/16
f 34/1/11 37/1/12 32/1/11
f 37/1/12 34/1/11 38/1/12
f 44/1/4 22/1/15 43/1/4
f 22/1/15 44/1/4 21/1/15
f 39/2/19 45/2/18 40/2/17
f 45/2/18 39/2/19 46/2/20
f 48/2/23 38/2/22 47/2/21
f 38/2/22 48/2/23 7/2/24
f 51/2/27 50/2/26 49/2/25
f 50/2/26 51/2/27 52/2/28
f 53/2/29 48/2/23 47/2/21
f 48/2/23 53/2/29 54/2/30
f 45/2/18 53/2/29 55/2/31
f 53/2/29 45/2/18 56/2/32
f 54/2/30 57/2/33 48/2/23
f 57/2/33 54/2/30 58/2/34
f 46/2/20 56/2/32 45/2/18
f 56/2/32 46/2/20 59/2/35
f 40/2/17 55/2/31 41/2/36
f 55/2/31 40/2/17 45/2/18
f 22/2/38 52/2/28 43/2/37
f 52/2/28 22/2/38 20/2/39
f 60/2/42 33/2/41 42/2/40
f 33/2/41 60/2/42 34/2/43
f 35/2/45 59/2/35 29/2/44
f 59/2/35 35/2/45 51/2/27
f 52/2/28 19/2/46 50/2/26
f 19/2/46 52/2/28 20/2/39
f 43/2/37 51/2/27 35/2/45
f 51/2/27 43/2/37 52/2/28
f 47/2/21 34/2/43 60/2/42
f 34/2/43 47/2/21 38/2/22
f 26/2/48 39/2/19 25/2/47
f 39/2/19 26/2/48 46/2/20
f 29/2/44 46/2/20 26/2/48
f 46/2/20 29/2/44 59/2/35
f 41/2/36 60/2/42 42/2/40
f 60/2/42 41/2/36 55/2/31
f 58/2/34 15/2/49 57/2/33
f 15/2/49 58/2/34 18/2/50
f 59/2/35 49/2/25 56/2/32
f 49/2/25 59/2/35 51/2/27
f 15/2/49 8/2/51 57/2/33
f 8/2/51 15/2/49 13/2/52
f 49/2/25 58/2/34 54/2/30
f 58/2/34 49/2/25 50/2/26
f 57/2/33 7/2/24 48/2/23
f 7/2/24 57/2/33 8/2/51
f 55/2/31 47/2/21 60/2/42
f 47/2/21 55/2/31 53/2/29
f 50/2/26 18/2/50 58/2/34
f 18/2/50 50/2/26 19/2/46
f 56/2/32 54/2/30 53/2/29
f 54/2/30 56/2/32 49/2/25

g ramp-end-b




usemtl colormap

f 3/1/1 2/1/2 1/1/1
f 2/1/2 3/1/1 4/1/2
f 7/1/3 6/1/4 5/1/3
f 6/1/4 7/1/3 8/1/4
f 11/1/5 10/1/6 9/1/5
f 10/1/6 11/1/5 12/1/6
f 15/1/7 14/1/7 13/1/7
f 15/1/7 16/1/7 14/1/7
f 16/1/7 15/1/7 17/1/7
f 17/1/7 15/1/7 18/1/7
f 19/1/7 17/1/7 18/1/7
f 20/1/7 17/1/7 19/1/7
f 17/1/7 20/1/7 21/1/7
f 21/1/7 20/1/7 22/1/7
f 4/1/2 23/1/8 2/1/2
f 23/1/8 4/1/2 24/1/8
f 17/1/9 1/1/1 16/1/9
f 1/1/1 17/1/9 3/1/1
f 24/1/8 9/1/5 23/1/8
f 9/1/5 24/1/8 11/1/5
f 27/1/10 26/1/11 25/1/10
f 26/1/11 27/1/10 28/1/11
f 28/1/11 29/1/12 26/1/11
f 29/1/12 28/1/11 30/1/12
f 33/1/10 32/1/11 31/1/10
f 32/1/11 33/1/10 34/1/11
f 30/1/12 35/1/3 29/1/12
f 35/1/3 30/1/12 36/1/3
f 38/1/12 5/1/3 37/1/12
f 5/1/3 38/1/12 7/1/3
f 32/1/13 10/1/13 31/1/13
f 10/1/13 32/1/13 9/1/13
f 9/1/13 32/1/13 37/1/13
f 9/1/13 37/1/13 23/1/13
f 23/1/13 37/1/13 5/1/13
f 23/1/13 5/1/13 2/1/13
f 2/1/13 5/1/13 6/1/13
f 2/1/13 6/1/13 1/1/13
f 1/1/13 6/1/13 14/1/13
f 1/1/13 14/1/13 16/1/13
f 39/1/14 27/1/14 25/1/14
f 39/1/14 12/1/14 27/1/14
f 12/1/14 39/1/14 40/1/14
f 41/1/14 12/1/14 40/1/14
f 42/1/14 12/1/14 41/1/14
f 42/1/14 10/1/14 12/1/14
f 10/1/14 42/1/14 31/1/14
f 31/1/14 42/1/14 33/1/14
f 36/1/3 43/1/4 35/1/3
f 43/1/4 36/1/3 44/1/4
f 8/1/4 14/1/15 6/1/4
f 14/1/15 8/1/4 13/1/15
f 11/1/16 27/1/16 12/1/16
f 27/1/16 11/1/16 28/1/16
f 28/1/16 11/1/16 24/1/16
f 28/1/16 24/1/16 30/1/16
f 30/1/16 24/1/16 4/1/16
f 30/1/16 4/1/16 36/1/16
f 36/1/16 4/1/16 3/1/16
f 36/1/16 3/1/16 44/1/16
f 44/1/16 3/1/16 17/1/16
f 44/1/16 17/1/16 21/1/16
f 34/1/11 37/1/12 32/1/11
f 37/1/12 34/1/11 38/1/12
f 44/1/4 22/1/15 43/1/4
f 22/1/15 44/1/4 21/1/15
f 39/2/19 45/2/18 40/2/17
f 45/2/18 39/2/19 46/2/20
f 48/2/23 38/2/22 47/2/21
f 38/2/22 48/2/23 7/2/24
f 51/2/27 50/2/26 49/2/25
f 50/2/26 51/2/27 52/2/28
f 53/2/29 48/2/23 47/2/21
f 48/2/23 53/2/29 54/2/30
f 45/2/18 53/2/29 55/2/31
f 53/2/29 45/2/18 56/2/32
f 54/2/30 57/2/33 48/2/23
f 57/2/33 54/2/30 58/2/34
f 46/2/20 56/2/32 45/2/18
f 56/2/32 46/2/20 59/2/35
f 40/2/17 55/2/31 41/2/36
f 55/2/31 40/2/17 45/2/18
f 22/2/38 52/2/28 43/2/37
f 52/2/28 22/2/38 20/2/39
f 60/2/42 33/2/41 42/2/40
f 33/2/41 60/2/42 34/2/43
f 35/2/45 59/2/35 29/2/44
f 59/2/35 35/2/45 51/2/27
f 52/2/28 19/2/46 50/2/26
f 19/2/46 52/2/28 20/2/39
f 43/2/37 51/2/27 35/2/45
f 51/2/27 43/2/37 52/2/28
f 47/2/21 34/2/43 60/2/42
f 34/2/43 47/2/21 38/2/22
f 26/2/48 39/2/19 25/2/47
f 39/2/19 26/2/48 46/2/20
f 29/2/44 46/2/20 26/2/48
f 46/2/20 29/2/44 59/2/35
f 41/2/36 60/2/42 42/2/40
f 60/2/42 41/2/36 55/2/31
f 58/2/34 15/2/49 57/2/33
f 15/2/49 58/2/34 18/2/50
f 59/2/35 49/2/25 56/2/32
f 49/2/25 59/2/35 51/2/27
f 15/2/49 8/2/51 57/2/33
f 8/2/51 15/2/49 13/2/52
f 49/2/25 58/2/34 54/2/30
f 58/2/34 49/2/25 50/2/26
f 57/2/33 7/2/24 48/2/23
f 7/2/24 57/2/33 8/2/51
f 55/2/31 47/2/21 60/2/42
f 47/2/21 55/2/31 53/2/29
f 50/2/26 18/2/50 58/2/34
f 18/2/50 50/2/26 19/2/46
f 56/2/32 54/2/30 53/2/29
f 54/2/30 56/2/32 49/2/25

