# Created by Kenney (www.kenney.nl)

mtllib ramp-end-solid-c.mtl

g ramp-end-solid-c

v -0.1 0.398 -0.348 1 1 1
v -0.1 0.534 -0.184 1 1 1
v -0.2875 0.4605 -0.348 1 1 1
v -0.2875 0.5965 -0.184 1 1 1
v 0.1 0.398 -0.348 1 1 1
v 0.1 0.534 -0.184 1 1 1
v 0.2875 0.4605 -0.348 1 1 1
v 0.35 0.648 -0.348 1 1 1
v 0.2875 0.5965 -0.184 1 1 1
v 0.35 0.784 -0.184 1 1 1
v -0.35 0.896 0.004 1 1 1
v -0.2875 0.7085 0.004 1 1 1
v -0.35 0.9719999 0.228 1 1 1
v -0.2875 0.7845 0.228 1 1 1
v 0.2875 0.3125 -0.5 1 1 1
v 0.1 0.25 -0.5 1 1 1
v -0.35 0.648 -0.348 1 1 1
v -0.35 0.784 -0.184 1 1 1
v 0.1 0.646 0.004 1 1 1
v -0.1 0.646 0.004 1 1 1
v 0.2875 0.7085 0.004 1 1 1
v 0.35 0.896 0.004 1 1 1
v -0.35 0.5 -0.5 1 1 1
v -0.2875 0.3125 -0.5 1 1 1
v -0.1 0.25 -0.5 1 1 1
v 0.2875 0.7845 0.228 1 1 1
v 0.35 0.9719999 0.228 1 1 1
v 0.2875 0.8125 0.5 1 1 1
v 0.35 1 0.5 1 1 1
v 0.1 0.722 0.228 1 1 1
v 0.1 0.75 0.5 1 1 1
v -0.35 1 0.5 1 1 1
v -0.2875 0.8125 0.5 1 1 1
v -0.1 0.722 0.228 1 1 1
v -0.1 0.75 0.5 1 1 1
v 0.35 0.5 -0.5 1 1 1
v 0.5 0.648 -0.348 1 1 1
v 0.5 0.784 -0.184 1 1 1
v -0.5 0.896 0.004 1 1 1
v -0.5 0.9719999 0.228 1 1 1
v -0.5 0 -0.5 1 1 1
v -0.5 0.5 -0.5 1 1 1
v -0.5 0 0.5 1 1 1
v -0.5 0.648 -0.348 1 1 1
v -0.5 0.784 -0.184 1 1 1
v -0.5 1 0.5 1 1 1
v 0.5 0.5 -0.5 1 1 1
v 0.5 0 -0.5 1 1 1
v 0.5 0 0.5 1 1 1
v 0.5 0.896 0.004 1 1 1
v 0.5 0.9719999 0.228 1 1 1
v 0.5 1 0.5 1 1 1

vn 0.1210018 0.7364502 -0.6655823
vn 0.1325687 0.8070593 -0.5753962
vn 0.6448728 0.5674946 -0.5119462
vn 0.6714745 0.6041134 -0.4291493
vn -0.1210018 0.7364502 -0.6655823
vn -0.1325687 0.8070593 -0.5753962
vn -0.6448728 0.5674946 -0.5119462
vn -0.9147861 0.3049287 -0.2649241
vn -0.6714745 0.6041134 -0.4291493
vn -0.9282804 0.3094268 -0.2062777
vn 0.9399827 0.3133276 -0.1351238
vn 0.7002212 0.6475765 -0.3005578
vn 0.9467078 0.3155693 -0.06449965
vn 0.7181703 0.6797222 -0.1490274
vn -0.4911439 0.6241026 -0.6076788
vn -0.1080324 0.7122779 -0.6935338
vn 0.9147861 0.3049287 -0.2649241
vn 0.9282804 0.3094268 -0.2062777
vn -0.1472749 0.8962705 -0.4183411
vn 0.1472749 0.8962705 -0.4183411
vn -0.7002212 0.6475765 -0.3005578
vn -0.9399827 0.3133276 -0.1351238
vn 0.9066772 0.3022257 -0.2942724
vn 0.4911439 0.6241026 -0.6076788
vn 0.1080324 0.7122779 -0.6935338
vn -0.7181703 0.6797222 -0.1490274
vn -0.9467078 0.3155693 -0.06449965
vn -0.7201624 0.6901583 -0.0710457
vn -0.948181 0.3160603 -0.03253562
vn -0.1583669 0.9641622 -0.2128642
vn -0.1610298 0.9817615 -0.1010637
vn 0.948181 0.3160603 -0.03253562
vn 0.7201624 0.6901583 -0.0710457
vn 0.1583669 0.9641622 -0.2128642
vn 0.1610298 0.9817615 -0.1010637
vn -0.9066772 0.3022257 -0.2942724
vn 0 0.7437055 -0.6685074
vn 0 0.8168834 -0.576803
vn 0 0.9080501 -0.4188617
vn 0 0.9770107 -0.2131901
vn -1 0 0
vn 1 0 0
vn 0 0 1
vn 0 0.7164712 -0.6976167
vn 0 0 -1
vn 0 0.9947433 -0.1024001
vn 0 -1 0

vt 0.28125 0.375
vt 0.90625 0.375

usemtl colormap

f 3/1/3 2/1/2 1/1/1
f 2/1/2 3/1/3 4/1/4
f 1/1/1 6/1/6 5/1/5
f 6/1/6 1/1/1 2/1/2
f 9/1/9 8/1/8 7/1/7
f 8/1/8 9/1/9 10/1/10
f 13/1/13 12/1/12 11/1/11
f 12/1/12 13/1/13 14/1/14
f 16/1/16 7/1/7 15/1/15
f 7/1/7 16/1/16 5/1/5
f 18/1/18 3/1/3 17/1/17
f 3/1/3 18/1/18 4/1/4
f 2/1/2 19/1/19 6/1/6
f 19/1/19 2/1/2 20/1/20
f 21/1/21 10/1/10 9/1/9
f 10/1/10 21/1/21 22/1/22
f 11/1/11 4/1/4 18/1/18
f 4/1/4 11/1/11 12/1/12
f 17/1/17 24/1/24 23/1/23
f 24/1/24 17/1/17 3/1/3
f 24/1/24 1/1/1 25/1/25
f 1/1/1 24/1/24 3/1/3
f 4/1/4 20/1/20 2/1/2
f 20/1/20 4/1/4 12/1/12
f 5/1/5 9/1/9 7/1/7
f 9/1/9 5/1/5 6/1/6
f 6/1/6 21/1/21 9/1/9
f 21/1/21 6/1/6 19/1/19
f 28/1/28 27/1/27 26/1/26
f 27/1/27 28/1/28 29/1/29
f 30/1/30 28/1/28 26/1/26
f 28/1/28 30/1/30 31/1/31
f 32/1/32 14/1/14 13/1/13
f 14/1/14 32/1/32 33/1/33
f 25/1/25 5/1/5 16/1/16
f 5/1/5 25/1/25 1/1/1
f 20/1/20 30/1/30 19/1/19
f 30/1/30 20/1/20 34/1/34
f 34/1/34 31/1/31 30/1/30
f 31/1/31 34/1/34 35/1/35
f 26/1/26 22/1/22 21/1/21
f 22/1/22 26/1/26 27/1/27
f 19/1/19 26/1/26 21/1/21
f 26/1/26 19/1/19 30/1/30
f 7/1/7 36/1/36 15/1/15
f 36/1/36 7/1/7 8/1/8
f 14/1/14 35/1/35 34/1/34
f 35/1/35 14/1/14 33/1/33
f 12/1/12 34/1/34 20/1/20
f 34/1/34 12/1/12 14/1/14
f 8/2/37 38/2/38 37/2/37
f 38/2/38 8/2/37 10/2/38
f 39/2/39 13/2/40 11/2/39
f 13/2/40 39/2/39 40/2/40
f 43/2/41 42/2/41 41/2/41
f 42/2/41 43/2/41 44/2/41
f 44/2/41 43/2/41 45/2/41
f 45/2/41 43/2/41 39/2/41
f 39/2/41 43/2/41 40/2/41
f 40/2/41 43/2/41 46/2/41
f 44/2/37 18/2/38 17/2/37
f 18/2/38 44/2/37 45/2/38
f 37/2/42 48/2/42 47/2/42
f 48/2/42 37/2/42 49/2/42
f 49/2/42 37/2/42 38/2/42
f 49/2/42 38/2/42 50/2/42
f 49/2/42 50/2/42 51/2/42
f 49/2/42 51/2/42 52/2/42
f 52/2/43 43/2/43 49/2/43
f 43/2/43 52/2/43 28/2/43
f 28/2/43 52/2/43 29/2/43
f 43/2/43 28/2/43 31/2/43
f 35/2/43 43/2/43 31/2/43
f 33/2/43 43/2/43 35/2/43
f 43/2/43 33/2/43 46/2/43
f 46/2/43 33/2/43 32/2/43
f 36/2/44 37/2/37 47/2/44
f 37/2/37 36/2/44 8/2/37
f 24/2/45 42/2/45 23/2/45
f 24/2/45 41/2/45 42/2/45
f 41/2/45 24/2/45 48/2/45
f 48/2/45 24/2/45 25/2/45
f 48/2/45 25/2/45 16/2/45
f 15/2/45 48/2/45 16/2/45
f 48/2/45 15/2/45 47/2/45
f 47/2/45 15/2/45 36/2/45
f 10/2/38 50/2/39 38/2/38
f 50/2/39 10/2/38 22/2/39
f 27/2/40 52/2/46 51/2/40
f 52/2/46 27/2/40 29/2/46
f 43/2/47 48/2/47 49/2/47
f 48/2/47 43/2/47 41/2/47
f 42/2/44 17/2/37 23/2/44
f 17/2/37 42/2/44 44/2/37
f 40/2/40 32/2/46 13/2/40
f 32/2/46 40/2/40 46/2/46
f 45/2/38 11/2/39 18/2/38
f 11/2/39 45/2/38 39/2/39
f 22/2/39 51/2/40 50/2/39
f 51/2/40 22/2/39 27/2/40

g ramp-end-solid-c




usemtl colormap

f 3/1/3 2/1/2 1/1/1
f 2/1/2 3/1/3 4/1/4
f 1/1/1 6/1/6 5/1/5
f 6/1/6 1/1/1 2/1/2
f 9/1/9 8/1/8 7/1/7
f 8/1/8 9/1/9 10/1/10
f 13/1/13 12/1/12 11/1/11
f 12/1/12 13/1/13 14/1/14
f 16/1/16 7/1/7 15/1/15
f 7/1/7 16/1/16 5/1/5
f 18/1/18 3/1/3 17/1/17
f 3/1/3 18/1/18 4/1/4
f 2/1/2 19/1/19 6/1/6
f 19/1/19 2/1/2 20/1/20
f 21/1/21 10/1/10 9/1/9
f 10/1/10 21/1/21 22/1/22
f 11/1/11 4/1/4 18/1/18
f 4/1/4 11/1/11 12/1/12
f 17/1/17 24/1/24 23/1/23
f 24/1/24 17/1/17 3/1/3
f 24/1/24 1/1/1 25/1/25
f 1/1/1 24/1/24 3/1/3
f 4/1/4 20/1/20 2/1/2
f 20/1/20 4/1/4 12/1/12
f 5/1/5 9/1/9 7/1/7
f 9/1/9 5/1/5 6/1/6
f 6/1/6 21/1/21 9/1/9
f 21/1/21 6/1/6 19/1/19
f 28/1/28 27/1/27 26/1/26
f 27/1/27 28/1/28 29/1/29
f 30/1/30 28/1/28 26/1/26
f 28/1/28 30/1/30 31/1/31
f 32/1/32 14/1/14 13/1/13
f 14/1/14 32/1/32 33/1/33
f 25/1/25 5/1/5 16/1/16
f 5/1/5 25/1/25 1/1/1
f 20/1/20 30/1/30 19/1/19
f 30/1/30 20/1/20 34/1/34
f 34/1/34 31/1/31 30/1/30
f 31/1/31 34/1/34 35/1/35
f 26/1/26 22/1/22 21/1/21
f 22/1/22 26/1/26 27/1/27
f 19/1/19 26/1/26 21/1/21
f 26/1/26 19/1/19 30/1/30
f 7/1/7 36/1/36 15/1/15
f 36/1/36 7/1/7 8/1/8
f 14/1/14 35/1/35 34/1/34
f 35/1/35 14/1/14 33/1/33
f 12/1/12 34/1/34 20/1/20
f 34/1/34 12/1/12 14/1/14
f 8/2/37 38/2/38 37/2/37
f 38/2/38 8/2/37 10/2/38
f 39/2/39 13/2/40 11/2/39
f 13/2/40 39/2/39 40/2/40
f 43/2/41 42/2/41 41/2/41
f 42/2/41 43/2/41 44/2/41
f 44/2/41 43/2/41 45/2/41
f 45/2/41 43/2/41 39/2/41
f 39/2/41 43/2/41 40/2/41
f 40/2/41 43/2/41 46/2/41
f 44/2/37 18/2/38 17/2/37
f 18/2/38 44/2/37 45/2/38
f 37/2/42 48/2/42 47/2/42
f 48/2/42 37/2/42 49/2/42
f 49/2/42 37/2/42 38/2/42
f 49/2/42 38/2/42 50/2/42
f 49/2/42 50/2/42 51/2/42
f 49/2/42 51/2/42 52/2/42
f 52/2/43 43/2/43 49/2/43
f 43/2/43 52/2/43 28/2/43
f 28/2/43 52/2/43 29/2/43
f 43/2/43 28/2/43 31/2/43
f 35/2/43 43/2/43 31/2/43
f 33/2/43 43/2/43 35/2/43
f 43/2/43 33/2/43 46/2/43
f 46/2/43 33/2/43 32/2/43
f 36/2/44 37/2/37 47/2/44
f 37/2/37 36/2/44 8/2/37
f 24/2/45 42/2/45 23/2/45
f 24/2/45 41/2/45 42/2/45
f 41/2/45 24/2/45 48/2/45
f 48/2/45 24/2/45 25/2/45
f 48/2/45 25/2/45 16/2/45
f 15/2/45 48/2/45 16/2/45
f 48/2/45 15/2/45 47/2/45
f 47/2/45 15/2/45 36/2/45
f 10/2/38 50/2/39 38/2/38
f 50/2/39 10/2/38 22/2/39
f 27/2/40 52/2/46 51/2/40
f 52/2/46 27/2/40 29/2/46
f 43/2/47 48/2/47 49/2/47
f 48/2/47 43/2/47 41/2/47
f 42/2/44 17/2/37 23/2/44
f 17/2/37 42/2/44 44/2/37
f 40/2/40 32/2/46 13/2/40
f 32/2/46 40/2/40 46/2/46
f 45/2/38 11/2/39 18/2/38
f 11/2/39 45/2/38 39/2/39
f 22/2/39 51/2/40 50/2/39
f 51/2/40 22/2/39 27/2/40

