# Created by Kenney (www.kenney.nl)

mtllib ramp-start-solid-c.mtl

g ramp-start-solid-c

v -0.35 0.5 -0.5 1 1 1
v -0.5 0.5 -0.5 1 1 1
v -0.2875 0.3125 -0.5 1 1 1
v -0.5 0 -0.5 1 1 1
v 0.5 0 -0.5 1 1 1
v -0.1 0.25 -0.5 1 1 1
v 0.1 0.25 -0.5 1 1 1
v 0.2875 0.3125 -0.5 1 1 1
v 0.5 0.5 -0.5 1 1 1
v 0.35 0.5 -0.5 1 1 1
v 0.5 0.716 0.184 1 1 1
v 0.5 0.852 0.348 1 1 1
v 0.35 0.716 0.184 1 1 1
v 0.35 0.852 0.348 1 1 1
v -0.35 0.852 0.348 1 1 1
v -0.35 1 0.5 1 1 1
v -0.5 0.852 0.348 1 1 1
v -0.5 1 0.5 1 1 1
v -0.35 0.604 -0.004 1 1 1
v -0.35 0.716 0.184 1 1 1
v -0.5 0.604 -0.004 1 1 1
v -0.5 0.716 0.184 1 1 1
v -0.35 0.528 -0.228 1 1 1
v -0.5 0.528 -0.228 1 1 1
v 0.5 0.604 -0.004 1 1 1
v 0.35 0.604 -0.004 1 1 1
v 0.5 0.528 -0.228 1 1 1
v 0.35 0.528 -0.228 1 1 1
v -0.5 0 0.5 1 1 1
v 0.5 0 0.5 1 1 1
v 0.5 1 0.5 1 1 1
v 0.2875 0.8125 0.5 1 1 1
v 0.35 1 0.5 1 1 1
v 0.1 0.75 0.5 1 1 1
v -0.1 0.75 0.5 1 1 1
v -0.2875 0.8125 0.5 1 1 1
v -0.1 0.278 -0.228 1 1 1
v -0.1 0.354 -0.004 1 1 1
v -0.2875 0.3405 -0.228 1 1 1
v -0.2875 0.4165 -0.004 1 1 1
v -0.1 0.602 0.348 1 1 1
v -0.2875 0.6645 0.348 1 1 1
v 0.2875 0.4165 -0.004 1 1 1
v 0.2875 0.5285 0.184 1 1 1
v 0.1 0.354 -0.004 1 1 1
v 0.1 0.466 0.184 1 1 1
v -0.1 0.466 0.184 1 1 1
v 0.2875 0.3405 -0.228 1 1 1
v 0.1 0.278 -0.228 1 1 1
v 0.1 0.602 0.348 1 1 1
v 0.2875 0.6645 0.348 1 1 1
v -0.2875 0.5285 0.184 1 1 1

vn 0 0 -1
vn 0 0.8168834 -0.576803
vn 0 0.7437055 -0.6685074
vn 0 0.7164712 -0.6976167
vn 0 0.9080501 -0.4188617
vn 0 0.9947433 -0.1024001
vn 0 0.9770107 -0.2131901
vn -1 0 0
vn 1 0 0
vn 0 0 1
vn 0 -1 0
vn 0.1552098 0.9656415 -0.208438
vn 0.145566 0.9001012 -0.410644
vn 0.6867336 0.7100955 -0.1554391
vn 0.6726325 0.6717279 -0.3103985
vn 0.1577428 0.9822893 -0.101118
vn 0.6909083 0.7191422 -0.07402934
vn 0.1213882 0.7399483 -0.6616202
vn 0.124677 0.7108809 -0.6921735
vn 0.6375691 0.5734488 -0.5144531
vn 0.7241442 0.4941134 -0.4811104
vn -0.6726325 0.6717279 -0.3103985
vn -0.9371259 0.3123753 -0.1556174
vn -0.6539167 0.6181989 -0.4361455
vn -0.9228907 0.3076303 -0.2315949
vn -0.145566 0.9001012 -0.410644
vn -0.1324577 0.8121527 -0.5682102
vn 0.1324577 0.8121527 -0.5682102
vn -0.6867336 0.7100955 -0.1554391
vn -0.1552098 0.9656415 -0.208438
vn -0.1213882 0.7399483 -0.6616202
vn -0.124677 0.7108809 -0.6921735
vn -0.6375691 0.5734488 -0.5144531
vn -0.909986 0.3033287 -0.2826963
vn 0.9460712 0.3153571 -0.07415687
vn 0.9371259 0.3123753 -0.1556174
vn -0.7241442 0.4941134 -0.4811104
vn -0.9066772 0.3022257 -0.2942724
vn 0.909986 0.3033287 -0.2826963
vn 0.9066772 0.3022257 -0.2942724
vn 0.6539167 0.6181989 -0.4361455
vn -0.6909083 0.7191422 -0.07402934
vn -0.948181 0.3160603 -0.03253562
vn -0.9460712 0.3153571 -0.07415687
vn 0.9228907 0.3076303 -0.2315949
vn 0.948181 0.3160603 -0.03253562
vn -0.1577428 0.9822893 -0.101118

vt 0.90625 0.375
vt 0.28125 0.375

usemtl colormap

f 3/1/1 2/1/1 1/1/1
f 3/1/1 4/1/1 2/1/1
f 4/1/1 3/1/1 5/1/1
f 5/1/1 3/1/1 6/1/1
f 7/1/1 5/1/1 6/1/1
f 8/1/1 5/1/1 7/1/1
f 5/1/1 8/1/1 9/1/1
f 9/1/1 8/1/1 10/1/1
f 13/1/2 12/1/3 11/1/2
f 12/1/3 13/1/2 14/1/3
f 17/1/3 16/1/4 15/1/3
f 16/1/4 17/1/3 18/1/4
f 21/1/5 20/1/2 19/1/5
f 20/1/2 21/1/5 22/1/2
f 2/1/6 23/1/7 1/1/6
f 23/1/7 2/1/6 24/1/7
f 20/1/2 17/1/3 15/1/3
f 17/1/3 20/1/2 22/1/2
f 26/1/5 11/1/2 25/1/5
f 11/1/2 26/1/5 13/1/2
f 10/1/6 27/1/7 9/1/6
f 27/1/7 10/1/6 28/1/7
f 29/1/8 2/1/8 4/1/8
f 2/1/8 29/1/8 24/1/8
f 24/1/8 29/1/8 21/1/8
f 21/1/8 29/1/8 22/1/8
f 22/1/8 29/1/8 17/1/8
f 17/1/8 29/1/8 18/1/8
f 23/1/7 21/1/5 19/1/5
f 21/1/5 23/1/7 24/1/7
f 28/1/7 25/1/5 27/1/7
f 25/1/5 28/1/7 26/1/5
f 27/1/9 5/1/9 9/1/9
f 5/1/9 27/1/9 30/1/9
f 30/1/9 27/1/9 25/1/9
f 30/1/9 25/1/9 11/1/9
f 30/1/9 11/1/9 12/1/9
f 30/1/9 12/1/9 31/1/9
f 31/1/10 29/1/10 30/1/10
f 29/1/10 31/1/10 32/1/10
f 32/1/10 31/1/10 33/1/10
f 29/1/10 32/1/10 34/1/10
f 35/1/10 29/1/10 34/1/10
f 36/1/10 29/1/10 35/1/10
f 29/1/10 36/1/10 18/1/10
f 18/1/10 36/1/10 16/1/10
f 29/1/11 5/1/11 30/1/11
f 5/1/11 29/1/11 4/1/11
f 14/1/3 31/1/4 12/1/3
f 31/1/4 14/1/3 33/1/4
f 39/2/14 38/2/13 37/2/12
f 38/2/13 39/2/14 40/2/15
f 3/2/17 37/2/12 6/2/16
f 37/2/12 3/2/17 39/2/14
f 42/2/20 35/2/19 41/2/18
f 35/2/19 42/2/20 36/2/21
f 44/2/24 26/2/23 43/2/22
f 26/2/23 44/2/24 13/2/25
f 38/2/13 46/2/27 45/2/26
f 46/2/27 38/2/13 47/2/28
f 49/2/30 43/2/22 48/2/29
f 43/2/22 49/2/30 45/2/26
f 37/2/12 45/2/26 49/2/30
f 45/2/26 37/2/12 38/2/13
f 41/2/18 34/2/32 50/2/31
f 34/2/32 41/2/18 35/2/19
f 51/2/33 13/2/25 44/2/24
f 13/2/25 51/2/33 14/2/34
f 46/2/27 51/2/33 44/2/24
f 51/2/33 46/2/27 50/2/31
f 19/2/36 39/2/14 23/2/35
f 39/2/14 19/2/36 40/2/15
f 32/2/37 14/2/34 51/2/33
f 14/2/34 32/2/37 33/2/38
f 16/2/40 42/2/20 15/2/39
f 42/2/20 16/2/40 36/2/21
f 47/2/28 42/2/20 41/2/18
f 42/2/20 47/2/28 52/2/41
f 48/2/29 10/2/43 8/2/42
f 10/2/43 48/2/29 28/2/44
f 15/2/39 52/2/41 20/2/45
f 52/2/41 15/2/39 42/2/20
f 47/2/28 50/2/31 46/2/27
f 50/2/31 47/2/28 41/2/18
f 45/2/26 44/2/24 43/2/22
f 44/2/24 45/2/26 46/2/27
f 40/2/15 47/2/28 38/2/13
f 47/2/28 40/2/15 52/2/41
f 20/2/45 40/2/15 19/2/36
f 40/2/15 20/2/45 52/2/41
f 50/2/31 32/2/37 51/2/33
f 32/2/37 50/2/31 34/2/32
f 43/2/22 28/2/44 48/2/29
f 28/2/44 43/2/22 26/2/23
f 23/2/35 3/2/17 1/2/46
f 3/2/17 23/2/35 39/2/14
f 7/2/47 48/2/29 8/2/42
f 48/2/29 7/2/47 49/2/30
f 6/2/16 49/2/30 7/2/47
f 49/2/30 6/2/16 37/2/12

g ramp-start-solid-c




usemtl colormap

f 3/1/1 2/1/1 1/1/1
f 3/1/1 4/1/1 2/1/1
f 4/1/1 3/1/1 5/1/1
f 5/1/1 3/1/1 6/1/1
f 7/1/1 5/1/1 6/1/1
f 8/1/1 5/1/1 7/1/1
f 5/1/1 8/1/1 9/1/1
f 9/1/1 8/1/1 10/1/1
f 13/1/2 12/1/3 11/1/2
f 12/1/3 13/1/2 14/1/3
f 17/1/3 16/1/4 15/1/3
f 16/1/4 17/1/3 18/1/4
f 21/1/5 20/1/2 19/1/5
f 20/1/2 21/1/5 22/1/2
f 2/1/6 23/1/7 1/1/6
f 23/1/7 2/1/6 24/1/7
f 20/1/2 17/1/3 15/1/3
f 17/1/3 20/1/2 22/1/2
f 26/1/5 11/1/2 25/1/5
f 11/1/2 26/1/5 13/1/2
f 10/1/6 27/1/7 9/1/6
f 27/1/7 10/1/6 28/1/7
f 29/1/8 2/1/8 4/1/8
f 2/1/8 29/1/8 24/1/8
f 24/1/8 29/1/8 21/1/8
f 21/1/8 29/1/8 22/1/8
f 22/1/8 29/1/8 17/1/8
f 17/1/8 29/1/8 18/1/8
f 23/1/7 21/1/5 19/1/5
f 21/1/5 23/1/7 24/1/7
f 28/1/7 25/1/5 27/1/7
f 25/1/5 28/1/7 26/1/5
f 27/1/9 5/1/9 9/1/9
f 5/1/9 27/1/9 30/1/9
f 30/1/9 27/1/9 25/1/9
f 30/1/9 25/1/9 11/1/9
f 30/1/9 11/1/9 12/1/9
f 30/1/9 12/1/9 31/1/9
f 31/1/10 29/1/10 30/1/10
f 29/1/10 31/1/10 32/1/10
f 32/1/10 31/1/10 33/1/10
f 29/1/10 32/1/10 34/1/10
f 35/1/10 29/1/10 34/1/10
f 36/1/10 29/1/10 35/1/10
f 29/1/10 36/1/10 18/1/10
f 18/1/10 36/1/10 16/1/10
f 29/1/11 5/1/11 30/1/11
f 5/1/11 29/1/11 4/1/11
f 14/1/3 31/1/4 12/1/3
f 31/1/4 14/1/3 33/1/4
f 39/2/14 38/2/13 37/2/12
f 38/2/13 39/2/14 40/2/15
f 3/2/17 37/2/12 6/2/16
f 37/2/12 3/2/17 39/2/14
f 42/2/20 35/2/19 41/2/18
f 35/2/19 42/2/20 36/2/21
f 44/2/24 26/2/23 43/2/22
f 26/2/23 44/2/24 13/2/25
f 38/2/13 46/2/27 45/2/26
f 46/2/27 38/2/13 47/2/28
f 49/2/30 43/2/22 48/2/29
f 43/2/22 49/2/30 45/2/26
f 37/2/12 45/2/26 49/2/30
f 45/2/26 37/2/12 38/2/13
f 41/2/18 34/2/32 50/2/31
f 34/2/32 41/2/18 35/2/19
f 51/2/33 13/2/25 44/2/24
f 13/2/25 51/2/33 14/2/34
f 46/2/27 51/2/33 44/2/24
f 51/2/33 46/2/27 50/2/31
f 19/2/36 39/2/14 23/2/35
f 39/2/14 19/2/36 40/2/15
f 32/2/37 14/2/34 51/2/33
f 14/2/34 32/2/37 33/2/38
f 16/2/40 42/2/20 15/2/39
f 42/2/20 16/2/40 36/2/21
f 47/2/28 42/2/20 41/2/18
f 42/2/20 47/2/28 52/2/41
f 48/2/29 10/2/43 8/2/42
f 10/2/43 48/2/29 28/2/44
f 15/2/39 52/2/41 20/2/45
f 52/2/41 15/2/39 42/2/20
f 47/2/28 50/2/31 46/2/27
f 50/2/31 47/2/28 41/2/18
f 45/2/26 44/2/24 43/2/22
f 44/2/24 45/2/26 46/2/27
f 40/2/15 47/2/28 38/2/13
f 47/2/28 40/2/15 52/2/41
f 20/2/45 40/2/15 19/2/36
f 40/2/15 20/2/45 52/2/41
f 50/2/31 32/2/37 51/2/33
f 32/2/37 50/2/31 34/2/32
f 43/2/22 28/2/44 48/2/29
f 28/2/44 43/2/22 26/2/23
f 23/2/35 3/2/17 1/2/46
f 3/2/17 23/2/35 39/2/14
f 7/2/47 48/2/29 8/2/42
f 48/2/29 7/2/47 49/2/30
f 6/2/16 49/2/30 7/2/47
f 49/2/30 6/2/16 37/2/12

