# Created by Kenney (www.kenney.nl)

mtllib ramp-long-a.mtl

g ramp-long-a

v 0.5 0.026 -0.504 1 1 1
v -0.5 0.026 -0.504 1 1 1
v 0.5 0.054 -0.316 1 1 1
v -0.5 0.054 -0.316 1 1 1
v 0.5 0.588 -0.152 1 1 1
v 0.5 0.662 0.152 1 1 1
v 0.35 0.588 -0.152 1 1 1
v 0.35 0.662 0.152 1 1 1
v 0.5 0.554 -0.316 1 1 1
v 0.35 0.554 -0.316 1 1 1
v 0.5 0.088 -0.152 1 1 1
v -0.5 0.088 -0.152 1 1 1
v 0.5 0.526 -0.504 1 1 1
v 0.35 0.526 -0.504 1 1 1
v -0.35 0.5 -1 1 1 1
v -0.35 0.507 -0.728 1 1 1
v -0.5 0.5 -1 1 1 1
v -0.5 0.507 -0.728 1 1 1
v 0.5 0.162 0.152 1 1 1
v -0.5 0.162 0.152 1 1 1
v 0.5 0.5 -1 1 1 1
v 0.5 0.507 -0.728 1 1 1
v 0.35 0.5 -1 1 1 1
v 0.35 0.507 -0.728 1 1 1
v -0.35 0.526 -0.504 1 1 1
v -0.35 0.554 -0.316 1 1 1
v -0.5 0.526 -0.504 1 1 1
v -0.5 0.554 -0.316 1 1 1
v -0.35 0.588 -0.152 1 1 1
v -0.35 0.662 0.152 1 1 1
v -0.5 0.588 -0.152 1 1 1
v -0.5 0.662 0.152 1 1 1
v 0.5 0.007 -0.728 1 1 1
v -0.5 0.007 -0.728 1 1 1
v 0.5 0 -1 1 1 1
v -0.5 0 -1 1 1 1
v -0.2875 0.3125 -1 1 1 1
v -0.1 0.25 -1 1 1 1
v 0.1 0.25 -1 1 1 1
v 0.2875 0.3125 -1 1 1 1
v 0.5 0.724 0.504 1 1 1
v 0.5 0.743 0.728 1 1 1
v 0.35 0.724 0.504 1 1 1
v 0.35 0.743 0.728 1 1 1
v 0.5 0.696 0.316 1 1 1
v 0.35 0.696 0.316 1 1 1
v -0.5 0.196 0.316 1 1 1
v -0.5 0.696 0.316 1 1 1
v -0.5 0.224 0.504 1 1 1
v -0.5 0.724 0.504 1 1 1
v -0.5 0.243 0.728 1 1 1
v -0.5 0.743 0.728 1 1 1
v -0.5 0.25 1 1 1 1
v -0.5 0.75 1 1 1 1
v 0.5 0.243 0.728 1 1 1
v 0.5 0.224 0.504 1 1 1
v 0.5 0.196 0.316 1 1 1
v 0.5 0.75 1 1 1 1
v 0.35 0.75 1 1 1 1
v -0.35 0.696 0.316 1 1 1
v 0.5 0.25 1 1 1 1
v -0.35 0.724 0.504 1 1 1
v -0.35 0.743 0.728 1 1 1
v 0.2875 0.5625 1 1 1 1
v 0.1 0.5 1 1 1 1
v -0.1 0.5 1 1 1 1
v -0.2875 0.5625 1 1 1 1
v -0.35 0.75 1 1 1 1
v 0.2875 0.3385 -0.504 1 1 1
v 0.2875 0.3665 -0.316 1 1 1
v 0.2875 0.4005 -0.152 1 1 1
v 0.2875 0.4745 0.152 1 1 1
v 0.1 0.338 -0.152 1 1 1
v 0.1 0.412 0.152 1 1 1
v 0.1 0.304 -0.316 1 1 1
v 0.2875 0.3195 -0.728 1 1 1
v 0.1 0.257 -0.728 1 1 1
v 0.1 0.276 -0.504 1 1 1
v -0.1 0.276 -0.504 1 1 1
v -0.1 0.304 -0.316 1 1 1
v -0.1 0.257 -0.728 1 1 1
v 0.1 0.474 0.504 1 1 1
v 0.1 0.493 0.728 1 1 1
v -0.1 0.474 0.504 1 1 1
v -0.1 0.493 0.728 1 1 1
v -0.2875 0.4745 0.152 1 1 1
v -0.2875 0.5085 0.316 1 1 1
v -0.2875 0.3385 -0.504 1 1 1
v -0.2875 0.3195 -0.728 1 1 1
v -0.2875 0.3665 -0.316 1 1 1
v -0.2875 0.4005 -0.152 1 1 1
v -0.1 0.338 -0.152 1 1 1
v -0.2875 0.5555 0.728 1 1 1
v -0.1 0.446 0.316 1 1 1
v -0.2875 0.5365 0.504 1 1 1
v 0.2875 0.5085 0.316 1 1 1
v 0.1 0.446 0.316 1 1 1
v -0.1 0.412 0.152 1 1 1
v 0.2875 0.5555 0.728 1 1 1
v 0.2875 0.5365 0.504 1 1 1

vn 0 -0.9932525 0.1159726
vn 0 -0.9845282 0.175226
vn 0 0.9755473 -0.21979
vn 0 0.9845282 -0.175226
vn 0 -0.9755473 0.21979
vn 0 0.9932525 -0.1159726
vn 0 0.999669 -0.02572677
vn 0 0.9984784 -0.05514626
vn 0 -0.9984784 0.05514626
vn 0 -0.999669 0.02572677
vn 0 0 -1
vn -1 0 0
vn 1 0 0
vn 0 0 1
vn -0.7012142 0.7081375 -0.08270402
vn -0.9480114 0.3160038 -0.03762801
vn -0.6998245 0.7032595 -0.125187
vn -0.9471303 0.3157101 -0.057195
vn -0.6994362 0.6972181 -0.1570859
vn -0.7042485 0.6925877 -0.1560651
vn -0.1563124 0.9636354 -0.2167334
vn -0.156792 0.9634002 -0.2174312
vn -0.1574717 0.9723279 -0.1725721
vn -0.703345 0.7106134 -0.01828784
vn -0.7026201 0.7104818 -0.03924984
vn -0.1597175 0.986836 -0.02539651
vn -0.1594882 0.9857062 -0.05428534
vn -0.1586938 0.9807063 -0.1141548
vn 0.1586938 0.9807063 -0.1141548
vn 0.1574717 0.9723279 -0.1725721
vn 0.1597175 0.986836 -0.02539651
vn 0.1594882 0.9857062 -0.05428534
vn -0.9485332 0.3161778 -0.01778206
vn -0.1596753 0.9804669 -0.1148415
vn -0.1604296 0.9855365 -0.05459066
vn 0.1596753 0.9804669 -0.1148415
vn 0.1604296 0.9855365 -0.05459066
vn 0.9463348 0.3154449 -0.07031984
vn 0.7042485 0.6925877 -0.1560651
vn 0.9472347 0.3157449 -0.05524095
vn 0.7077981 0.6954784 -0.1238212
vn 0.7012142 0.7081375 -0.08270402
vn 0.7026201 0.7104818 -0.03924984
vn 0.9471303 0.3157101 -0.057195
vn 0.6998245 0.7032595 -0.125187
vn 0.9462324 0.3154108 -0.07183516
vn 0.6994362 0.6972181 -0.1570859
vn -0.9486519 0.3162173 -0.008137945
vn 0.9485332 0.3161778 -0.01778206
vn 0.9480114 0.3160038 -0.03762801
vn 0.703345 0.7106134 -0.01828784
vn 0.1563124 0.9636354 -0.2167334
vn 0.9486519 0.3162173 -0.008137945
vn -0.9462324 0.3154108 -0.07183516
vn 0.9485437 0.3161812 -0.01715959
vn 0.7109948 0.7021266 -0.03878931
vn 0.7106712 0.7032914 -0.01809941
vn 0.1583061 0.9720282 -0.1734945
vn 0.7101771 0.6992695 -0.08167526
vn -0.7077981 0.6954784 -0.1238212
vn -0.1583061 0.9720282 -0.1734945
vn -0.1605468 0.9867015 -0.02539305
vn 0.1605468 0.9867015 -0.02539305
vn 0.156792 0.9634002 -0.2174312
vn -0.7109948 0.7021266 -0.03878931
vn -0.9485437 0.3161812 -0.01715959
vn -0.7106712 0.7032914 -0.01809941
vn -0.9463348 0.3154449 -0.07031984
vn -0.9472347 0.3157449 -0.05524095
vn -0.7101771 0.6992695 -0.08167526
vn -0.9480612 0.3160204 -0.0362075
vn 0.9480612 0.3160204 -0.0362075

vt 0.90625 0.375
vt 0.28125 0.375

usemtl colormap

f 3/1/2 2/1/1 1/1/1
f 2/1/1 3/1/2 4/1/2
f 7/1/3 6/1/3 5/1/3
f 6/1/3 7/1/3 8/1/3
f 9/1/4 7/1/3 5/1/3
f 7/1/3 9/1/4 10/1/4
f 12/1/5 3/1/2 11/1/5
f 3/1/2 12/1/5 4/1/2
f 14/1/6 9/1/4 13/1/6
f 9/1/4 14/1/6 10/1/4
f 17/1/7 16/1/8 15/1/7
f 16/1/8 17/1/7 18/1/8
f 19/1/5 12/1/5 11/1/5
f 12/1/5 19/1/5 20/1/5
f 23/1/7 22/1/8 21/1/7
f 22/1/8 23/1/7 24/1/8
f 27/1/6 26/1/4 25/1/6
f 26/1/4 27/1/6 28/1/4
f 22/1/8 14/1/6 13/1/6
f 14/1/6 22/1/8 24/1/8
f 31/1/3 30/1/3 29/1/3
f 30/1/3 31/1/3 32/1/3
f 26/1/4 31/1/3 29/1/3
f 31/1/3 26/1/4 28/1/4
f 2/1/1 33/1/9 1/1/1
f 33/1/9 2/1/1 34/1/9
f 34/1/9 35/1/10 33/1/9
f 35/1/10 34/1/9 36/1/10
f 16/1/8 27/1/6 25/1/6
f 27/1/6 16/1/8 18/1/8
f 37/1/11 17/1/11 15/1/11
f 37/1/11 36/1/11 17/1/11
f 36/1/11 37/1/11 35/1/11
f 35/1/11 37/1/11 38/1/11
f 39/1/11 35/1/11 38/1/11
f 40/1/11 35/1/11 39/1/11
f 35/1/11 40/1/11 21/1/11
f 21/1/11 40/1/11 23/1/11
f 43/1/6 42/1/8 41/1/6
f 42/1/8 43/1/6 44/1/8
f 46/1/4 41/1/6 45/1/4
f 41/1/6 46/1/4 43/1/6
f 34/1/12 17/1/12 36/1/12
f 17/1/12 34/1/12 18/1/12
f 18/1/12 34/1/12 2/1/12
f 18/1/12 2/1/12 27/1/12
f 27/1/12 2/1/12 4/1/12
f 27/1/12 4/1/12 28/1/12
f 28/1/12 4/1/12 12/1/12
f 28/1/12 12/1/12 31/1/12
f 31/1/12 12/1/12 20/1/12
f 31/1/12 20/1/12 32/1/12
f 32/1/12 20/1/12 47/1/12
f 32/1/12 47/1/12 48/1/12
f 48/1/12 47/1/12 49/1/12
f 48/1/12 49/1/12 50/1/12
f 50/1/12 49/1/12 51/1/12
f 50/1/12 51/1/12 52/1/12
f 52/1/12 51/1/12 53/1/12
f 52/1/12 53/1/12 54/1/12
f 51/1/9 56/1/1 55/1/9
f 56/1/1 51/1/9 49/1/1
f 47/1/2 19/1/5 57/1/2
f 19/1/5 47/1/2 20/1/5
f 49/1/1 57/1/2 56/1/1
f 57/1/2 49/1/1 47/1/2
f 44/1/8 58/1/7 42/1/8
f 58/1/7 44/1/8 59/1/7
f 32/1/3 60/1/4 30/1/3
f 60/1/4 32/1/3 48/1/4
f 22/1/13 35/1/13 21/1/13
f 35/1/13 22/1/13 33/1/13
f 33/1/13 22/1/13 13/1/13
f 33/1/13 13/1/13 1/1/13
f 1/1/13 13/1/13 9/1/13
f 1/1/13 9/1/13 3/1/13
f 3/1/13 9/1/13 5/1/13
f 3/1/13 5/1/13 11/1/13
f 11/1/13 5/1/13 6/1/13
f 11/1/13 6/1/13 19/1/13
f 19/1/13 6/1/13 45/1/13
f 19/1/13 45/1/13 57/1/13
f 57/1/13 45/1/13 41/1/13
f 57/1/13 41/1/13 56/1/13
f 56/1/13 41/1/13 42/1/13
f 56/1/13 42/1/13 55/1/13
f 55/1/13 42/1/13 58/1/13
f 55/1/13 58/1/13 61/1/13
f 50/1/6 63/1/8 62/1/6
f 63/1/8 50/1/6 52/1/8
f 64/1/14 58/1/14 59/1/14
f 64/1/14 61/1/14 58/1/14
f 61/1/14 64/1/14 53/1/14
f 53/1/14 64/1/14 65/1/14
f 66/1/14 53/1/14 65/1/14
f 67/1/14 53/1/14 66/1/14
f 53/1/14 67/1/14 54/1/14
f 54/1/14 67/1/14 68/1/14
f 48/1/4 62/1/6 60/1/4
f 62/1/6 48/1/4 50/1/6
f 53/1/10 55/1/9 61/1/10
f 55/1/9 53/1/10 51/1/9
f 52/1/8 68/1/7 63/1/8
f 68/1/7 52/1/8 54/1/7
f 8/1/3 45/1/4 6/1/3
f 45/1/4 8/1/3 46/1/4
f 70/2/17 14/2/16 69/2/15
f 14/2/16 70/2/17 10/2/18
f 73/2/21 72/2/20 71/2/19
f 72/2/20 73/2/21 74/2/22
f 70/2/17 73/2/21 71/2/19
f 73/2/21 70/2/17 75/2/23
f 39/2/26 76/2/25 40/2/24
f 76/2/25 39/2/26 77/2/27
f 79/2/29 75/2/23 78/2/28
f 75/2/23 79/2/29 80/2/30
f 38/2/31 77/2/27 39/2/26
f 77/2/27 38/2/31 81/2/32
f 69/2/15 24/2/33 76/2/25
f 24/2/33 69/2/15 14/2/16
f 81/2/32 78/2/28 77/2/27
f 78/2/28 81/2/32 79/2/29
f 84/2/36 83/2/35 82/2/34
f 83/2/35 84/2/36 85/2/37
f 60/2/40 86/2/39 30/2/38
f 86/2/39 60/2/40 87/2/41
f 81/2/32 88/2/42 79/2/29
f 88/2/42 81/2/32 89/2/43
f 29/2/46 90/2/45 26/2/44
f 90/2/45 29/2/46 91/2/47
f 88/2/42 80/2/30 79/2/29
f 80/2/30 88/2/42 90/2/45
f 76/2/25 23/2/48 40/2/24
f 23/2/48 76/2/25 24/2/33
f 25/2/50 89/2/43 16/2/49
f 89/2/43 25/2/50 88/2/42
f 37/2/51 81/2/32 38/2/31
f 81/2/32 37/2/51 89/2/43
f 78/2/28 70/2/17 69/2/15
f 70/2/17 78/2/28 75/2/23
f 75/2/23 92/2/52 73/2/21
f 92/2/52 75/2/23 80/2/30
f 16/2/49 37/2/51 15/2/53
f 37/2/51 16/2/49 89/2/43
f 76/2/25 78/2/28 69/2/15
f 78/2/28 76/2/25 77/2/27
f 80/2/30 91/2/47 92/2/52
f 91/2/47 80/2/30 90/2/45
f 71/2/19 10/2/18 70/2/17
f 10/2/18 71/2/19 7/2/54
f 68/2/53 93/2/56 63/2/55
f 93/2/56 68/2/53 67/2/57
f 26/2/44 88/2/42 25/2/50
f 88/2/42 26/2/44 90/2/45
f 87/2/41 84/2/36 94/2/58
f 84/2/36 87/2/41 95/2/59
f 74/2/22 96/2/60 72/2/20
f 96/2/60 74/2/22 97/2/61
f 94/2/58 82/2/34 97/2/61
f 82/2/34 94/2/58 84/2/36
f 95/2/59 85/2/37 84/2/36
f 85/2/37 95/2/59 93/2/56
f 85/2/37 65/2/62 83/2/35
f 65/2/62 85/2/37 66/2/63
f 30/2/38 91/2/47 29/2/46
f 91/2/47 30/2/38 86/2/39
f 92/2/52 74/2/22 73/2/21
f 74/2/22 92/2/52 98/2/64
f 64/2/67 44/2/66 99/2/65
f 44/2/66 64/2/67 59/2/48
f 96/2/60 8/2/68 72/2/20
f 8/2/68 96/2/60 46/2/69
f 86/2/39 94/2/58 98/2/64
f 94/2/58 86/2/39 87/2/41
f 100/2/70 46/2/69 96/2/60
f 46/2/69 100/2/70 43/2/71
f 91/2/47 98/2/64 92/2/52
f 98/2/64 91/2/47 86/2/39
f 82/2/34 99/2/65 100/2/70
f 99/2/65 82/2/34 83/2/35
f 99/2/65 43/2/71 100/2/70
f 43/2/71 99/2/65 44/2/66
f 98/2/64 97/2/61 74/2/22
f 97/2/61 98/2/64 94/2/58
f 97/2/61 100/2/70 96/2/60
f 100/2/70 97/2/61 82/2/34
f 72/2/20 7/2/54 71/2/19
f 7/2/54 72/2/20 8/2/68
f 83/2/35 64/2/67 99/2/65
f 64/2/67 83/2/35 65/2/62
f 93/2/56 66/2/63 85/2/37
f 66/2/63 93/2/56 67/2/57
f 63/2/55 95/2/59 62/2/72
f 95/2/59 63/2/55 93/2/56
f 62/2/72 87/2/41 60/2/40
f 87/2/41 62/2/72 95/2/59

g ramp-long-a




usemtl colormap

f 3/1/2 2/1/1 1/1/1
f 2/1/1 3/1/2 4/1/2
f 7/1/3 6/1/3 5/1/3
f 6/1/3 7/1/3 8/1/3
f 9/1/4 7/1/3 5/1/3
f 7/1/3 9/1/4 10/1/4
f 12/1/5 3/1/2 11/1/5
f 3/1/2 12/1/5 4/1/2
f 14/1/6 9/1/4 13/1/6
f 9/1/4 14/1/6 10/1/4
f 17/1/7 16/1/8 15/1/7
f 16/1/8 17/1/7 18/1/8
f 19/1/5 12/1/5 11/1/5
f 12/1/5 19/1/5 20/1/5
f 23/1/7 22/1/8 21/1/7
f 22/1/8 23/1/7 24/1/8
f 27/1/6 26/1/4 25/1/6
f 26/1/4 27/1/6 28/1/4
f 22/1/8 14/1/6 13/1/6
f 14/1/6 22/1/8 24/1/8
f 31/1/3 30/1/3 29/1/3
f 30/1/3 31/1/3 32/1/3
f 26/1/4 31/1/3 29/1/3
f 31/1/3 26/1/4 28/1/4
f 2/1/1 33/1/9 1/1/1
f 33/1/9 2/1/1 34/1/9
f 34/1/9 35/1/10 33/1/9
f 35/1/10 34/1/9 36/1/10
f 16/1/8 27/1/6 25/1/6
f 27/1/6 16/1/8 18/1/8
f 37/1/11 17/1/11 15/1/11
f 37/1/11 36/1/11 17/1/11
f 36/1/11 37/1/11 35/1/11
f 35/1/11 37/1/11 38/1/11
f 39/1/11 35/1/11 38/1/11
f 40/1/11 35/1/11 39/1/11
f 35/1/11 40/1/11 21/1/11
f 21/1/11 40/1/11 23/1/11
f 43/1/6 42/1/8 41/1/6
f 42/1/8 43/1/6 44/1/8
f 46/1/4 41/1/6 45/1/4
f 41/1/6 46/1/4 43/1/6
f 34/1/12 17/1/12 36/1/12
f 17/1/12 34/1/12 18/1/12
f 18/1/12 34/1/12 2/1/12
f 18/1/12 2/1/12 27/1/12
f 27/1/12 2/1/12 4/1/12
f 27/1/12 4/1/12 28/1/12
f 28/1/12 4/1/12 12/1/12
f 28/1/12 12/1/12 31/1/12
f 31/1/12 12/1/12 20/1/12
f 31/1/12 20/1/12 32/1/12
f 32/1/12 20/1/12 47/1/12
f 32/1/12 47/1/12 48/1/12
f 48/1/12 47/1/12 49/1/12
f 48/1/12 49/1/12 50/1/12
f 50/1/12 49/1/12 51/1/12
f 50/1/12 51/1/12 52/1/12
f 52/1/12 51/1/12 53/1/12
f 52/1/12 53/1/12 54/1/12
f 51/1/9 56/1/1 55/1/9
f 56/1/1 51/1/9 49/1/1
f 47/1/2 19/1/5 57/1/2
f 19/1/5 47/1/2 20/1/5
f 49/1/1 57/1/2 56/1/1
f 57/1/2 49/1/1 47/1/2
f 44/1/8 58/1/7 42/1/8
f 58/1/7 44/1/8 59/1/7
f 32/1/3 60/1/4 30/1/3
f 60/1/4 32/1/3 48/1/4
f 22/1/13 35/1/13 21/1/13
f 35/1/13 22/1/13 33/1/13
f 33/1/13 22/1/13 13/1/13
f 33/1/13 13/1/13 1/1/13
f 1/1/13 13/1/13 9/1/13
f 1/1/13 9/1/13 3/1/13
f 3/1/13 9/1/13 5/1/13
f 3/1/13 5/1/13 11/1/13
f 11/1/13 5/1/13 6/1/13
f 11/1/13 6/1/13 19/1/13
f 19/1/13 6/1/13 45/1/13
f 19/1/13 45/1/13 57/1/13
f 57/1/13 45/1/13 41/1/13
f 57/1/13 41/1/13 56/1/13
f 56/1/13 41/1/13 42/1/13
f 56/1/13 42/1/13 55/1/13
f 55/1/13 42/1/13 58/1/13
f 55/1/13 58/1/13 61/1/13
f 50/1/6 63/1/8 62/1/6
f 63/1/8 50/1/6 52/1/8
f 64/1/14 58/1/14 59/1/14
f 64/1/14 61/1/14 58/1/14
f 61/1/14 64/1/14 53/1/14
f 53/1/14 64/1/14 65/1/14
f 66/1/14 53/1/14 65/1/14
f 67/1/14 53/1/14 66/1/14
f 53/1/14 67/1/14 54/1/14
f 54/1/14 67/1/14 68/1/14
f 48/1/4 62/1/6 60/1/4
f 62/1/6 48/1/4 50/1/6
f 53/1/10 55/1/9 61/1/10
f 55/1/9 53/1/10 51/1/9
f 52/1/8 68/1/7 63/1/8
f 68/1/7 52/1/8 54/1/7
f 8/1/3 45/1/4 6/1/3
f 45/1/4 8/1/3 46/1/4
f 70/2/17 14/2/16 69/2/15
f 14/2/16 70/2/17 10/2/18
f 73/2/21 72/2/20 71/2/19
f 72/2/20 73/2/21 74/2/22
f 70/2/17 73/2/21 71/2/19
f 73/2/21 70/2/17 75/2/23
f 39/2/26 76/2/25 40/2/24
f 76/2/25 39/2/26 77/2/27
f 79/2/29 75/2/23 78/2/28
f 75/2/23 79/2/29 80/2/30
f 38/2/31 77/2/27 39/2/26
f 77/2/27 38/2/31 81/2/32
f 69/2/15 24/2/33 76/2/25
f 24/2/33 69/2/15 14/2/16
f 81/2/32 78/2/28 77/2/27
f 78/2/28 81/2/32 79/2/29
f 84/2/36 83/2/35 82/2/34
f 83/2/35 84/2/36 85/2/37
f 60/2/40 86/2/39 30/2/38
f 86/2/39 60/2/40 87/2/41
f 81/2/32 88/2/42 79/2/29
f 88/2/42 81/2/32 89/2/43
f 29/2/46 90/2/45 26/2/44
f 90/2/45 29/2/46 91/2/47
f 88/2/42 80/2/30 79/2/29
f 80/2/30 88/2/42 90/2/45
f 76/2/25 23/2/48 40/2/24
f 23/2/48 76/2/25 24/2/33
f 25/2/50 89/2/43 16/2/49
f 89/2/43 25/2/50 88/2/42
f 37/2/51 81/2/32 38/2/31
f 81/2/32 37/2/51 89/2/43
f 78/2/28 70/2/17 69/2/15
f 70/2/17 78/2/28 75/2/23
f 75/2/23 92/2/52 73/2/21
f 92/2/52 75/2/23 80/2/30
f 16/2/49 37/2/51 15/2/53
f 37/2/51 16/2/49 89/2/43
f 76/2/25 78/2/28 69/2/15
f 78/2/28 76/2/25 77/2/27
f 80/2/30 91/2/47 92/2/52
f 91/2/47 80/2/30 90/2/45
f 71/2/19 10/2/18 70/2/17
f 10/2/18 71/2/19 7/2/54
f 68/2/53 93/2/56 63/2/55
f 93/2/56 68/2/53 67/2/57
f 26/2/44 88/2/42 25/2/50
f 88/2/42 26/2/44 90/2/45
f 87/2/41 84/2/36 94/2/58
f 84/2/36 87/2/41 95/2/59
f 74/2/22 96/2/60 72/2/20
f 96/2/60 74/2/22 97/2/61
f 94/2/58 82/2/34 97/2/61
f 82/2/34 94/2/58 84/2/36
f 95/2/59 85/2/37 84/2/36
f 85/2/37 95/2/59 93/2/56
f 85/2/37 65/2/62 83/2/35
f 65/2/62 85/2/37 66/2/63
f 30/2/38 91/2/47 29/2/46
f 91/2/47 30/2/38 86/2/39
f 92/2/52 74/2/22 73/2/21
f 74/2/22 92/2/52 98/2/64
f 64/2/67 44/2/66 99/2/65
f 44/2/66 64/2/67 59/2/48
f 96/2/60 8/2/68 72/2/20
f 8/2/68 96/2/60 46/2/69
f 86/2/39 94/2/58 98/2/64
f 94/2/58 86/2/39 87/2/41
f 100/2/70 46/2/69 96/2/60
f 46/2/69 100/2/70 43/2/71
f 91/2/47 98/2/64 92/2/52
f 98/2/64 91/2/47 86/2/39
f 82/2/34 99/2/65 100/2/70
f 99/2/65 82/2/34 83/2/35
f 99/2/65 43/2/71 100/2/70
f 43/2/71 99/2/65 44/2/66
f 98/2/64 97/2/61 74/2/22
f 97/2/61 98/2/64 94/2/58
f 97/2/61 100/2/70 96/2/60
f 100/2/70 97/2/61 82/2/34
f 72/2/20 7/2/54 71/2/19
f 7/2/54 72/2/20 8/2/68
f 83/2/35 64/2/67 99/2/65
f 64/2/67 83/2/35 65/2/62
f 93/2/56 66/2/63 85/2/37
f 66/2/63 93/2/56 67/2/57
f 63/2/55 95/2/59 62/2/72
f 95/2/59 63/2/55 93/2/56
f 62/2/72 87/2/41 60/2/40
f 87/2/41 62/2/72 95/2/59

