# Created by Kenney (www.kenney.nl)

mtllib ramp-start-a.mtl

g ramp-start-a

v 0.5 0.088 0.348 1 1 1
v 0.5 0.054 0.184 1 1 1
v -0.5 0.088 0.348 1 1 1
v -0.5 0.054 0.184 1 1 1
v 0.5 0.526 -0.004 1 1 1
v 0.5 0.554 0.184 1 1 1
v 0.35 0.526 -0.004 1 1 1
v 0.35 0.554 0.184 1 1 1
v 0.35 0.625 0.5 1 1 1
v 0.5 0.625 0.5 1 1 1
v 0.2875 0.4375 0.5 1 1 1
v 0.5 0.125 0.5 1 1 1
v -0.5 0.125 0.5 1 1 1
v 0.1 0.375 0.5 1 1 1
v -0.1 0.375 0.5 1 1 1
v -0.2875 0.4375 0.5 1 1 1
v -0.5 0.625 0.5 1 1 1
v -0.35 0.625 0.5 1 1 1
v 0.5 0.588 0.348 1 1 1
v 0.35 0.588 0.348 1 1 1
v -0.35 0.588 0.348 1 1 1
v -0.5 0.588 0.348 1 1 1
v 0.5 0.026 -0.004 1 1 1
v -0.5 0.026 -0.004 1 1 1
v 0.5 0.007 -0.228 1 1 1
v -0.5 0.007 -0.228 1 1 1
v -0.35 0.5 -0.5 1 1 1
v -0.35 0.507 -0.228 1 1 1
v -0.5 0.5 -0.5 1 1 1
v -0.5 0.507 -0.228 1 1 1
v -0.2875 0.3125 -0.5 1 1 1
v -0.5 0 -0.5 1 1 1
v 0.5 0 -0.5 1 1 1
v -0.1 0.25 -0.5 1 1 1
v 0.1 0.25 -0.5 1 1 1
v 0.2875 0.3125 -0.5 1 1 1
v 0.5 0.5 -0.5 1 1 1
v 0.35 0.5 -0.5 1 1 1
v -0.5 0.526 -0.004 1 1 1
v -0.5 0.554 0.184 1 1 1
v 0.5 0.507 -0.228 1 1 1
v -0.35 0.526 -0.004 1 1 1
v -0.35 0.554 0.184 1 1 1
v 0.35 0.507 -0.228 1 1 1
v 0.2875 0.4005 0.348 1 1 1
v 0.1 0.257 -0.228 1 1 1
v 0.1 0.276 -0.004 1 1 1
v -0.1 0.257 -0.228 1 1 1
v -0.1 0.276 -0.004 1 1 1
v 0.1 0.338 0.348 1 1 1
v -0.1 0.338 0.348 1 1 1
v -0.2875 0.3195 -0.228 1 1 1
v 0.2875 0.3385 -0.004 1 1 1
v 0.2875 0.3665 0.184 1 1 1
v -0.2875 0.3385 -0.004 1 1 1
v 0.2875 0.3195 -0.228 1 1 1
v 0.1 0.304 0.184 1 1 1
v -0.1 0.304 0.184 1 1 1
v -0.2875 0.3665 0.184 1 1 1
v -0.2875 0.4005 0.348 1 1 1

vn 0 -0.9755473 0.21979
vn 0 -0.9845282 0.175226
vn 0 0.9932525 -0.1159726
vn 0 0.9845282 -0.175226
vn 0 0 1
vn 0 0.9755473 -0.21979
vn 0 0.971628 -0.2365147
vn 0 -0.971628 0.2365147
vn 0 -0.9932525 0.1159726
vn 0 -0.9984784 0.05514626
vn 0 0.999669 -0.02572677
vn 0 0.9984784 -0.05514626
vn 0 0 -1
vn -1 0 0
vn 1 0 0
vn 0 -0.999669 0.02572677
vn -0.6994362 0.6972181 -0.1570859
vn -0.9462324 0.3154108 -0.07183516
vn -0.7328136 0.6611243 -0.1609316
vn -0.9458851 0.315295 -0.07674944
vn -0.1594882 0.9857062 -0.05428534
vn -0.1586938 0.9807063 -0.1141548
vn 0.1594882 0.9857062 -0.05428534
vn 0.1586938 0.9807063 -0.1141548
vn -0.1563124 0.9636354 -0.2167334
vn -0.1595971 0.9591738 -0.2334831
vn 0.1563124 0.9636354 -0.2167334
vn 0.1595971 0.9591738 -0.2334831
vn 0.1597175 0.986836 -0.02539651
vn 0.703345 0.7106134 -0.01828784
vn 0.7026201 0.7104818 -0.03924984
vn -0.7012142 0.7081375 -0.08270402
vn -0.9480114 0.3160038 -0.03762801
vn -0.6998245 0.7032595 -0.125187
vn -0.9471303 0.3157101 -0.057195
vn 0.7012142 0.7081375 -0.08270402
vn -0.7026201 0.7104818 -0.03924984
vn -0.1574717 0.9723279 -0.1725721
vn 0.1574717 0.9723279 -0.1725721
vn 0.6998245 0.7032595 -0.125187
vn 0.9462324 0.3154108 -0.07183516
vn 0.6994362 0.6972181 -0.1570859
vn 0.9458851 0.315295 -0.07674944
vn 0.7328136 0.6611243 -0.1609316
vn -0.703345 0.7106134 -0.01828784
vn -0.1597175 0.986836 -0.02539651
vn 0.9471303 0.3157101 -0.057195
vn 0.9485332 0.3161778 -0.01778206
vn 0.9480114 0.3160038 -0.03762801
vn -0.9485332 0.3161778 -0.01778206
vn -0.9486519 0.3162173 -0.008137945
vn 0.9486519 0.3162173 -0.008137945

vt 0.90625 0.375
vt 0.28125 0.375

usemtl colormap

f 3/1/1 2/1/2 1/1/1
f 2/1/2 3/1/1 4/1/2
f 7/1/3 6/1/4 5/1/3
f 6/1/4 7/1/3 8/1/4
f 11/1/5 10/1/5 9/1/5
f 11/1/5 12/1/5 10/1/5
f 12/1/5 11/1/5 13/1/5
f 13/1/5 11/1/5 14/1/5
f 13/1/5 14/1/5 15/1/5
f 16/1/5 13/1/5 15/1/5
f 13/1/5 16/1/5 17/1/5
f 17/1/5 16/1/5 18/1/5
f 20/1/6 10/1/7 19/1/6
f 10/1/7 20/1/6 9/1/7
f 12/1/8 3/1/1 1/1/1
f 3/1/1 12/1/8 13/1/8
f 22/1/6 18/1/7 21/1/6
f 18/1/7 22/1/6 17/1/7
f 2/1/2 24/1/9 23/1/9
f 24/1/9 2/1/2 4/1/2
f 24/1/9 25/1/10 23/1/9
f 25/1/10 24/1/9 26/1/10
f 29/1/11 28/1/12 27/1/11
f 28/1/12 29/1/11 30/1/12
f 31/1/13 29/1/13 27/1/13
f 31/1/13 32/1/13 29/1/13
f 32/1/13 31/1/13 33/1/13
f 33/1/13 31/1/13 34/1/13
f 35/1/13 33/1/13 34/1/13
f 36/1/13 33/1/13 35/1/13
f 33/1/13 36/1/13 37/1/13
f 37/1/13 36/1/13 38/1/13
f 26/1/14 29/1/14 32/1/14
f 29/1/14 26/1/14 30/1/14
f 30/1/14 26/1/14 24/1/14
f 30/1/14 24/1/14 39/1/14
f 39/1/14 24/1/14 4/1/14
f 39/1/14 4/1/14 40/1/14
f 40/1/14 4/1/14 3/1/14
f 40/1/14 3/1/14 22/1/14
f 22/1/14 3/1/14 13/1/14
f 22/1/14 13/1/14 17/1/14
f 41/1/15 33/1/15 37/1/15
f 33/1/15 41/1/15 25/1/15
f 25/1/15 41/1/15 5/1/15
f 25/1/15 5/1/15 23/1/15
f 23/1/15 5/1/15 6/1/15
f 23/1/15 6/1/15 2/1/15
f 2/1/15 6/1/15 19/1/15
f 2/1/15 19/1/15 1/1/15
f 1/1/15 19/1/15 10/1/15
f 1/1/15 10/1/15 12/1/15
f 39/1/3 43/1/4 42/1/3
f 43/1/4 39/1/3 40/1/4
f 28/1/12 39/1/3 42/1/3
f 39/1/3 28/1/12 30/1/12
f 6/1/4 20/1/6 19/1/6
f 20/1/6 6/1/4 8/1/4
f 26/1/10 33/1/16 25/1/10
f 33/1/16 26/1/10 32/1/16
f 41/1/12 7/1/3 5/1/3
f 7/1/3 41/1/12 44/1/12
f 38/1/11 41/1/12 37/1/11
f 41/1/12 38/1/11 44/1/12
f 43/1/4 22/1/6 21/1/6
f 22/1/6 43/1/4 40/1/4
f 11/2/19 20/2/18 45/2/17
f 20/2/18 11/2/19 9/2/20
f 48/2/23 47/2/22 46/2/21
f 47/2/22 48/2/23 49/2/24
f 51/2/27 14/2/26 50/2/25
f 14/2/26 51/2/27 15/2/28
f 31/2/30 48/2/23 34/2/29
f 48/2/23 31/2/30 52/2/31
f 50/2/25 11/2/19 45/2/17
f 11/2/19 50/2/25 14/2/26
f 54/2/34 7/2/33 53/2/32
f 7/2/33 54/2/34 8/2/35
f 48/2/23 55/2/36 49/2/24
f 55/2/36 48/2/23 52/2/31
f 56/2/37 47/2/22 53/2/32
f 47/2/22 56/2/37 46/2/21
f 54/2/34 50/2/25 45/2/17
f 50/2/25 54/2/34 57/2/38
f 55/2/36 58/2/39 49/2/24
f 58/2/39 55/2/36 59/2/40
f 57/2/38 51/2/27 50/2/25
f 51/2/27 57/2/38 58/2/39
f 18/2/43 60/2/42 21/2/41
f 60/2/42 18/2/43 16/2/44
f 47/2/22 54/2/34 53/2/32
f 54/2/34 47/2/22 57/2/38
f 58/2/39 60/2/42 51/2/27
f 60/2/42 58/2/39 59/2/40
f 45/2/17 8/2/35 54/2/34
f 8/2/35 45/2/17 20/2/18
f 35/2/46 56/2/37 36/2/45
f 56/2/37 35/2/46 46/2/21
f 21/2/41 59/2/40 43/2/47
f 59/2/40 21/2/41 60/2/42
f 42/2/49 52/2/31 28/2/48
f 52/2/31 42/2/49 55/2/36
f 34/2/29 46/2/21 35/2/46
f 46/2/21 34/2/29 48/2/23
f 49/2/24 57/2/38 47/2/22
f 57/2/38 49/2/24 58/2/39
f 53/2/32 44/2/50 56/2/37
f 44/2/50 53/2/32 7/2/33
f 56/2/37 38/2/51 36/2/45
f 38/2/51 56/2/37 44/2/50
f 28/2/48 31/2/30 27/2/52
f 31/2/30 28/2/48 52/2/31
f 43/2/47 55/2/36 42/2/49
f 55/2/36 43/2/47 59/2/40
f 60/2/42 15/2/28 51/2/27
f 15/2/28 60/2/42 16/2/44

g ramp-start-a




usemtl colormap

f 3/1/1 2/1/2 1/1/1
f 2/1/2 3/1/1 4/1/2
f 7/1/3 6/1/4 5/1/3
f 6/1/4 7/1/3 8/1/4
f 11/1/5 10/1/5 9/1/5
f 11/1/5 12/1/5 10/1/5
f 12/1/5 11/1/5 13/1/5
f 13/1/5 11/1/5 14/1/5
f 13/1/5 14/1/5 15/1/5
f 16/1/5 13/1/5 15/1/5
f 13/1/5 16/1/5 17/1/5
f 17/1/5 16/1/5 18/1/5
f 20/1/6 10/1/7 19/1/6
f 10/1/7 20/1/6 9/1/7
f 12/1/8 3/1/1 1/1/1
f 3/1/1 12/1/8 13/1/8
f 22/1/6 18/1/7 21/1/6
f 18/1/7 22/1/6 17/1/7
f 2/1/2 24/1/9 23/1/9
f 24/1/9 2/1/2 4/1/2
f 24/1/9 25/1/10 23/1/9
f 25/1/10 24/1/9 26/1/10
f 29/1/11 28/1/12 27/1/11
f 28/1/12 29/1/11 30/1/12
f 31/1/13 29/1/13 27/1/13
f 31/1/13 32/1/13 29/1/13
f 32/1/13 31/1/13 33/1/13
f 33/1/13 31/1/13 34/1/13
f 35/1/13 33/1/13 34/1/13
f 36/1/13 33/1/13 35/1/13
f 33/1/13 36/1/13 37/1/13
f 37/1/13 36/1/13 38/1/13
f 26/1/14 29/1/14 32/1/14
f 29/1/14 26/1/14 30/1/14
f 30/1/14 26/1/14 24/1/14
f 30/1/14 24/1/14 39/1/14
f 39/1/14 24/1/14 4/1/14
f 39/1/14 4/1/14 40/1/14
f 40/1/14 4/1/14 3/1/14
f 40/1/14 3/1/14 22/1/14
f 22/1/14 3/1/14 13/1/14
f 22/1/14 13/1/14 17/1/14
f 41/1/15 33/1/15 37/1/15
f 33/1/15 41/1/15 25/1/15
f 25/1/15 41/1/15 5/1/15
f 25/1/15 5/1/15 23/1/15
f 23/1/15 5/1/15 6/1/15
f 23/1/15 6/1/15 2/1/15
f 2/1/15 6/1/15 19/1/15
f 2/1/15 19/1/15 1/1/15
f 1/1/15 19/1/15 10/1/15
f 1/1/15 10/1/15 12/1/15
f 39/1/3 43/1/4 42/1/3
f 43/1/4 39/1/3 40/1/4
f 28/1/12 39/1/3 42/1/3
f 39/1/3 28/1/12 30/1/12
f 6/1/4 20/1/6 19/1/6
f 20/1/6 6/1/4 8/1/4
f 26/1/10 33/1/16 25/1/10
f 33/1/16 26/1/10 32/1/16
f 41/1/12 7/1/3 5/1/3
f 7/1/3 41/1/12 44/1/12
f 38/1/11 41/1/12 37/1/11
f 41/1/12 38/1/11 44/1/12
f 43/1/4 22/1/6 21/1/6
f 22/1/6 43/1/4 40/1/4
f 11/2/19 20/2/18 45/2/17
f 20/2/18 11/2/19 9/2/20
f 48/2/23 47/2/22 46/2/21
f 47/2/22 48/2/23 49/2/24
f 51/2/27 14/2/26 50/2/25
f 14/2/26 51/2/27 15/2/28
f 31/2/30 48/2/23 34/2/29
f 48/2/23 31/2/30 52/2/31
f 50/2/25 11/2/19 45/2/17
f 11/2/19 50/2/25 14/2/26
f 54/2/34 7/2/33 53/2/32
f 7/2/33 54/2/34 8/2/35
f 48/2/23 55/2/36 49/2/24
f 55/2/36 48/2/23 52/2/31
f 56/2/37 47/2/22 53/2/32
f 47/2/22 56/2/37 46/2/21
f 54/2/34 50/2/25 45/2/17
f 50/2/25 54/2/34 57/2/38
f 55/2/36 58/2/39 49/2/24
f 58/2/39 55/2/36 59/2/40
f 57/2/38 51/2/27 50/2/25
f 51/2/27 57/2/38 58/2/39
f 18/2/43 60/2/42 21/2/41
f 60/2/42 18/2/43 16/2/44
f 47/2/22 54/2/34 53/2/32
f 54/2/34 47/2/22 57/2/38
f 58/2/39 60/2/42 51/2/27
f 60/2/42 58/2/39 59/2/40
f 45/2/17 8/2/35 54/2/34
f 8/2/35 45/2/17 20/2/18
f 35/2/46 56/2/37 36/2/45
f 56/2/37 35/2/46 46/2/21
f 21/2/41 59/2/40 43/2/47
f 59/2/40 21/2/41 60/2/42
f 42/2/49 52/2/31 28/2/48
f 52/2/31 42/2/49 55/2/36
f 34/2/29 46/2/21 35/2/46
f 46/2/21 34/2/29 48/2/23
f 49/2/24 57/2/38 47/2/22
f 57/2/38 49/2/24 58/2/39
f 53/2/32 44/2/50 56/2/37
f 44/2/50 53/2/32 7/2/33
f 56/2/37 38/2/51 36/2/45
f 38/2/51 56/2/37 44/2/50
f 28/2/48 31/2/30 27/2/52
f 31/2/30 28/2/48 52/2/31
f 43/2/47 55/2/36 42/2/49
f 55/2/36 43/2/47 59/2/40
f 60/2/42 15/2/28 51/2/27
f 15/2/28 60/2/42 16/2/44

