# Created by Kenney (www.kenney.nl)

mtllib ramp-long-d.mtl

g ramp-long-d

v 0.1 0.406 -0.504 1 1 1
v 0.1 0.574 -0.316 1 1 1
v -0.1 0.406 -0.504 1 1 1
v -0.1 0.574 -0.316 1 1 1
v 0.2875 0.4685 -0.504 1 1 1
v 0.35 0.656 -0.504 1 1 1
v 0.2875 0.6365 -0.316 1 1 1
v 0.35 0.824 -0.316 1 1 1
v 0.1 0.292 -0.728 1 1 1
v -0.1 0.292 -0.728 1 1 1
v -0.1 0.778 -0.152 1 1 1
v -0.2875 0.6365 -0.316 1 1 1
v -0.2875 0.8404999 -0.152 1 1 1
v -0.35 0.5 -1 1 1 1
v -0.2875 0.3125 -1 1 1 1
v -0.35 0.542 -0.728 1 1 1
v -0.2875 0.3545 -0.728 1 1 1
v -0.2875 0.4685 -0.504 1 1 1
v 0.1 0.778 -0.152 1 1 1
v -0.1 1.222 0.152 1 1 1
v -0.1 1.426 0.316 1 1 1
v -0.2875 1.2845 0.152 1 1 1
v -0.2875 1.4885 0.316 1 1 1
v 0.2875 0.8404999 -0.152 1 1 1
v -0.35 1.676 0.316 1 1 1
v -0.35 1.844 0.504 1 1 1
v -0.2875 1.6565 0.504 1 1 1
v 0.2875 1.2845 0.152 1 1 1
v 0.35 1.472 0.152 1 1 1
v 0.2875 1.4885 0.316 1 1 1
v 0.35 1.676 0.316 1 1 1
v 0.2875 1.6565 0.504 1 1 1
v 0.1 1.426 0.316 1 1 1
v 0.1 1.594 0.504 1 1 1
v 0.1 0.25 -1 1 1 1
v -0.1 0.25 -1 1 1 1
v -0.35 0.656 -0.504 1 1 1
v -0.35 0.824 -0.316 1 1 1
v -0.35 1.472 0.152 1 1 1
v 0.1 1.708 0.728 1 1 1
v 0.1 1.75 1 1 1 1
v -0.1 1.708 0.728 1 1 1
v -0.1 1.75 1 1 1 1
v 0.35 1.028 -0.152 1 1 1
v 0.1 1.222 0.152 1 1 1
v -0.2875 1.7705 0.728 1 1 1
v -0.2875 1.8125 1 1 1 1
v -0.35 1.958 0.728 1 1 1
v -0.35 2 1 1 1 1
v 0.35 1.844 0.504 1 1 1
v 0.2875 1.7705 0.728 1 1 1
v 0.35 1.958 0.728 1 1 1
v -0.1 1.594 0.504 1 1 1
v 0.2875 0.3545 -0.728 1 1 1
v -0.35 1.028 -0.152 1 1 1
v 0.2875 0.3125 -1 1 1 1
v 0.35 0.5 -1 1 1 1
v 0.35 0.542 -0.728 1 1 1
v 0.2875 1.8125 1 1 1 1
v 0.35 2 1 1 1 1
v 0.5 0.656 -0.504 1 1 1
v 0.5 0.542 -0.728 1 1 1
v 0.5 0.5 -1 1 1 1
v -0.5 0.5 -1 1 1 1
v -0.5 0.542 -0.728 1 1 1
v 0.5 0.156 -0.504 1 1 1
v -0.5 0.156 -0.504 1 1 1
v 0.5 0.324 -0.316 1 1 1
v -0.5 0.324 -0.316 1 1 1
v 0.5 0.042 -0.728 1 1 1
v 0.5 0 -1 1 1 1
v -0.5 0.042 -0.728 1 1 1
v -0.5 0 -1 1 1 1
v -0.5 0.656 -0.504 1 1 1
v -0.5 0.824 -0.316 1 1 1
v 0.5 0.824 -0.316 1 1 1
v 0.5 1.028 -0.152 1 1 1
v 0.5 1.472 0.152 1 1 1
v 0.5 1.676 0.316 1 1 1
v -0.5 0.528 -0.152 1 1 1
v -0.5 1.028 -0.152 1 1 1
v -0.5 0.9719999 0.152 1 1 1
v -0.5 1.472 0.152 1 1 1
v -0.5 1.176 0.316 1 1 1
v -0.5 1.676 0.316 1 1 1
v -0.5 1.344 0.504 1 1 1
v -0.5 1.844 0.504 1 1 1
v -0.5 1.458 0.728 1 1 1
v -0.5 1.958 0.728 1 1 1
v -0.5 1.5 1 1 1 1
v -0.5 2 1 1 1 1
v 0.5 0.528 -0.152 1 1 1
v 0.5 1.958 0.728 1 1 1
v 0.5 2 1 1 1 1
v 0.5 0.9719999 0.152 1 1 1
v 0.5 1.5 1 1 1 1
v 0.5 1.176 0.316 1 1 1
v 0.5 1.844 0.504 1 1 1
v 0.5 1.344 0.504 1 1 1
v 0.5 1.458 0.728 1 1 1

vn -0.1336012 0.8217822 -0.5539176
vn -0.1132313 0.6881952 -0.7166353
vn 0.1336012 0.8217822 -0.5539176
vn 0.1132313 0.6881952 -0.7166353
vn -0.6499906 0.6269527 -0.4294678
vn -0.9221982 0.3073994 -0.2346403
vn -0.6168079 0.5430611 -0.5697655
vn -0.8918148 0.2972716 -0.3410219
vn -0.1511329 0.9421509 -0.2991833
vn 0.1511329 0.9421509 -0.2991833
vn 0.09849066 0.595748 -0.7971097
vn 0.6168079 0.5430611 -0.5697655
vn 0.5870982 0.4841453 -0.6487827
vn 0.9475544 0.3158515 -0.04877118
vn 0.6817034 0.7230595 -0.1116489
vn 0.9425591 0.3141864 -0.1134429
vn 0.675246 0.7015929 -0.2276181
vn 0.6499906 0.6269527 -0.4294678
vn -0.09849066 0.595748 -0.7971097
vn 0.09735038 0.5908536 -0.8008838
vn 0.1117849 0.6796985 -0.7249235
vn 0.5882908 0.4799129 -0.6508437
vn 0.6280028 0.5323336 -0.567656
vn -0.5870982 0.4841453 -0.6487827
vn 0.9063383 0.3021127 -0.2954298
vn 0.930716 0.3102387 -0.1936994
vn 0.6796184 0.6028937 -0.4178974
vn -0.5882908 0.4799129 -0.6508437
vn -0.8783759 0.292792 -0.3777944
vn -0.6280028 0.5323336 -0.567656
vn -0.9063383 0.3021127 -0.2954298
vn -0.6796184 0.6028937 -0.4178974
vn -0.1117849 0.6796985 -0.7249235
vn -0.1339542 0.8136349 -0.5657336
vn -0.1559725 0.9761923 -0.1507356
vn 0.1559725 0.9761923 -0.1507356
vn 0.9221982 0.3073994 -0.2346403
vn 0.8918148 0.2972716 -0.3410219
vn 0.8783759 0.292792 -0.3777944
vn -0.154889 0.9386889 -0.3080142
vn -0.1608433 0.97542 -0.1506163
vn 0.154889 0.9386889 -0.3080142
vn 0.1608433 0.97542 -0.1506163
vn -0.8664856 0.2888285 -0.4071619
vn -0.09735038 0.5908536 -0.8008838
vn 0.718734 0.6610414 -0.2155125
vn 0.7254835 0.6801786 -0.1050276
vn 0.9446129 0.3148709 -0.09253544
vn -0.930716 0.3102387 -0.1936994
vn -0.718734 0.6610414 -0.2155125
vn -0.9446129 0.3148709 -0.09253544
vn 0.1339542 0.8136349 -0.5657336
vn -0.675246 0.7015929 -0.2276181
vn 0.8664856 0.2888285 -0.4071619
vn -0.6817034 0.7230595 -0.1116489
vn -0.9475544 0.3158515 -0.04877118
vn -0.9425591 0.3141864 -0.1134429
vn -0.7254835 0.6801786 -0.1050276
vn 0 0.8253237 -0.56466
vn 0 0.9517266 -0.3069468
vn 0 0.9882875 -0.1526032
vn 0 -0.8253237 0.56466
vn 0 -0.6884308 0.725302
vn 0 -0.9517266 0.3069468
vn 0 -0.9882875 0.1526032
vn 0 0.6884308 -0.725302
vn 0 0.5961926 -0.8028415
vn -1 0 0
vn 0 -0.5961926 0.8028415
vn 0 0 1
vn 1 0 0
vn 0 0 -1

vt 0.28125 0.375
vt 0.90625 0.375

usemtl colormap

f 3/1/3 2/1/2 1/1/1
f 2/1/2 3/1/3 4/1/4
f 7/1/7 6/1/6 5/1/5
f 6/1/6 7/1/7 8/1/8
f 9/1/9 3/1/3 1/1/1
f 3/1/3 9/1/9 10/1/10
f 12/1/12 11/1/11 4/1/4
f 11/1/11 12/1/12 13/1/13
f 16/1/16 15/1/15 14/1/14
f 15/1/15 16/1/16 17/1/17
f 10/1/10 18/1/18 3/1/3
f 18/1/18 10/1/10 17/1/17
f 11/1/11 2/1/2 4/1/4
f 2/1/2 11/1/11 19/1/19
f 1/1/1 7/1/7 5/1/5
f 7/1/7 1/1/1 2/1/2
f 22/1/22 21/1/21 20/1/20
f 21/1/21 22/1/22 23/1/23
f 19/1/19 7/1/7 2/1/2
f 7/1/7 19/1/19 24/1/24
f 26/1/26 23/1/23 25/1/25
f 23/1/23 26/1/26 27/1/27
f 30/1/30 29/1/29 28/1/28
f 29/1/29 30/1/30 31/1/31
f 33/1/33 32/1/32 30/1/30
f 32/1/32 33/1/33 34/1/34
f 36/1/36 9/1/9 35/1/35
f 9/1/9 36/1/36 10/1/10
f 38/1/38 18/1/18 37/1/37
f 18/1/18 38/1/38 12/1/12
f 13/1/13 20/1/20 11/1/11
f 20/1/20 13/1/13 22/1/22
f 25/1/25 22/1/22 39/1/39
f 22/1/22 25/1/25 23/1/23
f 42/1/42 41/1/41 40/1/40
f 41/1/41 42/1/42 43/1/43
f 28/1/28 44/1/44 24/1/24
f 44/1/44 28/1/28 29/1/29
f 20/1/20 19/1/19 11/1/11
f 19/1/19 20/1/20 45/1/45
f 46/1/46 43/1/43 42/1/42
f 43/1/43 46/1/46 47/1/47
f 49/1/14 46/1/46 48/1/48
f 46/1/46 49/1/14 47/1/47
f 51/1/50 50/1/49 32/1/32
f 50/1/49 51/1/50 52/1/51
f 48/1/48 27/1/27 26/1/26
f 27/1/27 48/1/48 46/1/46
f 33/1/33 28/1/28 45/1/45
f 28/1/28 33/1/33 30/1/30
f 21/1/21 34/1/34 33/1/33
f 34/1/34 21/1/21 53/1/52
f 54/1/53 1/1/1 5/1/5
f 1/1/1 54/1/53 9/1/9
f 32/1/32 31/1/31 30/1/30
f 31/1/31 32/1/32 50/1/49
f 23/1/23 53/1/52 21/1/21
f 53/1/52 23/1/23 27/1/27
f 45/1/45 24/1/24 19/1/19
f 24/1/24 45/1/45 28/1/28
f 39/1/39 13/1/13 55/1/54
f 13/1/13 39/1/39 22/1/22
f 53/1/52 40/1/40 34/1/34
f 40/1/40 53/1/52 42/1/42
f 15/1/15 10/1/10 36/1/36
f 10/1/10 15/1/15 17/1/17
f 54/1/53 57/1/56 56/1/55
f 57/1/56 54/1/53 58/1/57
f 27/1/27 42/1/42 53/1/52
f 42/1/42 27/1/27 46/1/46
f 24/1/24 8/1/8 7/1/7
f 8/1/8 24/1/24 44/1/44
f 35/1/35 54/1/53 56/1/55
f 54/1/53 35/1/35 9/1/9
f 5/1/5 58/1/57 54/1/53
f 58/1/57 5/1/5 6/1/6
f 37/1/37 17/1/17 16/1/16
f 17/1/17 37/1/37 18/1/18
f 40/1/40 59/1/58 51/1/50
f 59/1/58 40/1/40 41/1/41
f 34/1/34 51/1/50 32/1/32
f 51/1/50 34/1/34 40/1/40
f 59/1/58 52/1/51 51/1/50
f 52/1/51 59/1/58 60/1/56
f 18/1/18 4/1/4 3/1/3
f 4/1/4 18/1/18 12/1/12
f 55/1/54 12/1/12 38/1/38
f 12/1/12 55/1/54 13/1/13
f 21/1/21 45/1/45 20/1/20
f 45/1/45 21/1/21 33/1/33
f 62/2/60 6/2/59 61/2/59
f 6/2/59 62/2/60 58/2/60
f 57/2/61 62/2/60 63/2/61
f 62/2/60 57/2/61 58/2/60
f 64/2/61 16/2/60 14/2/61
f 16/2/60 64/2/61 65/2/60
f 68/2/63 67/2/62 66/2/62
f 67/2/62 68/2/63 69/2/63
f 72/2/64 71/2/65 70/2/64
f 71/2/65 72/2/64 73/2/65
f 74/2/59 38/2/66 37/2/59
f 38/2/66 74/2/59 75/2/66
f 44/2/67 76/2/66 8/2/66
f 76/2/66 44/2/67 77/2/67
f 31/2/66 78/2/67 29/2/67
f 78/2/67 31/2/66 79/2/66
f 72/2/68 64/2/68 73/2/68
f 64/2/68 72/2/68 65/2/68
f 65/2/68 72/2/68 67/2/68
f 65/2/68 67/2/68 74/2/68
f 74/2/68 67/2/68 69/2/68
f 74/2/68 69/2/68 75/2/68
f 75/2/68 69/2/68 80/2/68
f 75/2/68 80/2/68 81/2/68
f 81/2/68 80/2/68 82/2/68
f 81/2/68 82/2/68 83/2/68
f 83/2/68 82/2/68 84/2/68
f 83/2/68 84/2/68 85/2/68
f 85/2/68 84/2/68 86/2/68
f 85/2/68 86/2/68 87/2/68
f 87/2/68 86/2/68 88/2/68
f 87/2/68 88/2/68 89/2/68
f 89/2/68 88/2/68 90/2/68
f 89/2/68 90/2/68 91/2/68
f 92/2/69 69/2/63 68/2/63
f 69/2/63 92/2/69 80/2/69
f 52/2/60 94/2/61 93/2/60
f 94/2/61 52/2/60 60/2/61
f 95/2/69 80/2/69 92/2/69
f 80/2/69 95/2/69 82/2/69
f 59/2/70 94/2/70 60/2/70
f 59/2/70 96/2/70 94/2/70
f 96/2/70 59/2/70 90/2/70
f 90/2/70 59/2/70 41/2/70
f 43/2/70 90/2/70 41/2/70
f 47/2/70 90/2/70 43/2/70
f 90/2/70 47/2/70 91/2/70
f 91/2/70 47/2/70 49/2/70
f 62/2/71 71/2/71 63/2/71
f 71/2/71 62/2/71 70/2/71
f 70/2/71 62/2/71 61/2/71
f 70/2/71 61/2/71 66/2/71
f 66/2/71 61/2/71 76/2/71
f 66/2/71 76/2/71 68/2/71
f 68/2/71 76/2/71 77/2/71
f 68/2/71 77/2/71 92/2/71
f 92/2/71 77/2/71 78/2/71
f 92/2/71 78/2/71 95/2/71
f 95/2/71 78/2/71 79/2/71
f 95/2/71 79/2/71 97/2/71
f 97/2/71 79/2/71 98/2/71
f 97/2/71 98/2/71 99/2/71
f 99/2/71 98/2/71 93/2/71
f 99/2/71 93/2/71 100/2/71
f 100/2/71 93/2/71 94/2/71
f 100/2/71 94/2/71 96/2/71
f 6/2/59 76/2/66 61/2/59
f 76/2/66 6/2/59 8/2/66
f 86/2/62 97/2/63 99/2/62
f 97/2/63 86/2/62 84/2/63
f 85/2/66 26/2/59 25/2/66
f 26/2/59 85/2/66 87/2/59
f 85/2/66 39/2/67 83/2/67
f 39/2/67 85/2/66 25/2/66
f 81/2/67 38/2/66 75/2/66
f 38/2/66 81/2/67 55/2/67
f 15/2/72 64/2/72 14/2/72
f 15/2/72 73/2/72 64/2/72
f 73/2/72 15/2/72 71/2/72
f 71/2/72 15/2/72 36/2/72
f 35/2/72 71/2/72 36/2/72
f 56/2/72 71/2/72 35/2/72
f 71/2/72 56/2/72 63/2/72
f 63/2/72 56/2/72 57/2/72
f 88/2/64 99/2/62 100/2/64
f 99/2/62 88/2/64 86/2/62
f 16/2/60 74/2/59 37/2/59
f 74/2/59 16/2/60 65/2/60
f 29/2/67 77/2/67 44/2/67
f 77/2/67 29/2/67 78/2/67
f 67/2/62 70/2/64 66/2/62
f 70/2/64 67/2/62 72/2/64
f 87/2/59 48/2/60 26/2/59
f 48/2/60 87/2/59 89/2/60
f 83/2/67 55/2/67 81/2/67
f 55/2/67 83/2/67 39/2/67
f 31/2/66 98/2/59 79/2/66
f 98/2/59 31/2/66 50/2/59
f 89/2/60 49/2/61 48/2/60
f 49/2/61 89/2/60 91/2/61
f 90/2/65 100/2/64 96/2/65
f 100/2/64 90/2/65 88/2/64
f 97/2/63 82/2/69 95/2/69
f 82/2/69 97/2/63 84/2/63
f 50/2/59 93/2/60 98/2/59
f 93/2/60 50/2/59 52/2/60

g ramp-long-d




usemtl colormap

f 3/1/3 2/1/2 1/1/1
f 2/1/2 3/1/3 4/1/4
f 7/1/7 6/1/6 5/1/5
f 6/1/6 7/1/7 8/1/8
f 9/1/9 3/1/3 1/1/1
f 3/1/3 9/1/9 10/1/10
f 12/1/12 11/1/11 4/1/4
f 11/1/11 12/1/12 13/1/13
f 16/1/16 15/1/15 14/1/14
f 15/1/15 16/1/16 17/1/17
f 10/1/10 18/1/18 3/1/3
f 18/1/18 10/1/10 17/1/17
f 11/1/11 2/1/2 4/1/4
f 2/1/2 11/1/11 19/1/19
f 1/1/1 7/1/7 5/1/5
f 7/1/7 1/1/1 2/1/2
f 22/1/22 21/1/21 20/1/20
f 21/1/21 22/1/22 23/1/23
f 19/1/19 7/1/7 2/1/2
f 7/1/7 19/1/19 24/1/24
f 26/1/26 23/1/23 25/1/25
f 23/1/23 26/1/26 27/1/27
f 30/1/30 29/1/29 28/1/28
f 29/1/29 30/1/30 31/1/31
f 33/1/33 32/1/32 30/1/30
f 32/1/32 33/1/33 34/1/34
f 36/1/36 9/1/9 35/1/35
f 9/1/9 36/1/36 10/1/10
f 38/1/38 18/1/18 37/1/37
f 18/1/18 38/1/38 12/1/12
f 13/1/13 20/1/20 11/1/11
f 20/1/20 13/1/13 22/1/22
f 25/1/25 22/1/22 39/1/39
f 22/1/22 25/1/25 23/1/23
f 42/1/42 41/1/41 40/1/40
f 41/1/41 42/1/42 43/1/43
f 28/1/28 44/1/44 24/1/24
f 44/1/44 28/1/28 29/1/29
f 20/1/20 19/1/19 11/1/11
f 19/1/19 20/1/20 45/1/45
f 46/1/46 43/1/43 42/1/42
f 43/1/43 46/1/46 47/1/47
f 49/1/14 46/1/46 48/1/48
f 46/1/46 49/1/14 47/1/47
f 51/1/50 50/1/49 32/1/32
f 50/1/49 51/1/50 52/1/51
f 48/1/48 27/1/27 26/1/26
f 27/1/27 48/1/48 46/1/46
f 33/1/33 28/1/28 45/1/45
f 28/1/28 33/1/33 30/1/30
f 21/1/21 34/1/34 33/1/33
f 34/1/34 21/1/21 53/1/52
f 54/1/53 1/1/1 5/1/5
f 1/1/1 54/1/53 9/1/9
f 32/1/32 31/1/31 30/1/30
f 31/1/31 32/1/32 50/1/49
f 23/1/23 53/1/52 21/1/21
f 53/1/52 23/1/23 27/1/27
f 45/1/45 24/1/24 19/1/19
f 24/1/24 45/1/45 28/1/28
f 39/1/39 13/1/13 55/1/54
f 13/1/13 39/1/39 22/1/22
f 53/1/52 40/1/40 34/1/34
f 40/1/40 53/1/52 42/1/42
f 15/1/15 10/1/10 36/1/36
f 10/1/10 15/1/15 17/1/17
f 54/1/53 57/1/56 56/1/55
f 57/1/56 54/1/53 58/1/57
f 27/1/27 42/1/42 53/1/52
f 42/1/42 27/1/27 46/1/46
f 24/1/24 8/1/8 7/1/7
f 8/1/8 24/1/24 44/1/44
f 35/1/35 54/1/53 56/1/55
f 54/1/53 35/1/35 9/1/9
f 5/1/5 58/1/57 54/1/53
f 58/1/57 5/1/5 6/1/6
f 37/1/37 17/1/17 16/1/16
f 17/1/17 37/1/37 18/1/18
f 40/1/40 59/1/58 51/1/50
f 59/1/58 40/1/40 41/1/41
f 34/1/34 51/1/50 32/1/32
f 51/1/50 34/1/34 40/1/40
f 59/1/58 52/1/51 51/1/50
f 52/1/51 59/1/58 60/1/56
f 18/1/18 4/1/4 3/1/3
f 4/1/4 18/1/18 12/1/12
f 55/1/54 12/1/12 38/1/38
f 12/1/12 55/1/54 13/1/13
f 21/1/21 45/1/45 20/1/20
f 45/1/45 21/1/21 33/1/33
f 62/2/60 6/2/59 61/2/59
f 6/2/59 62/2/60 58/2/60
f 57/2/61 62/2/60 63/2/61
f 62/2/60 57/2/61 58/2/60
f 64/2/61 16/2/60 14/2/61
f 16/2/60 64/2/61 65/2/60
f 68/2/63 67/2/62 66/2/62
f 67/2/62 68/2/63 69/2/63
f 72/2/64 71/2/65 70/2/64
f 71/2/65 72/2/64 73/2/65
f 74/2/59 38/2/66 37/2/59
f 38/2/66 74/2/59 75/2/66
f 44/2/67 76/2/66 8/2/66
f 76/2/66 44/2/67 77/2/67
f 31/2/66 78/2/67 29/2/67
f 78/2/67 31/2/66 79/2/66
f 72/2/68 64/2/68 73/2/68
f 64/2/68 72/2/68 65/2/68
f 65/2/68 72/2/68 67/2/68
f 65/2/68 67/2/68 74/2/68
f 74/2/68 67/2/68 69/2/68
f 74/2/68 69/2/68 75/2/68
f 75/2/68 69/2/68 80/2/68
f 75/2/68 80/2/68 81/2/68
f 81/2/68 80/2/68 82/2/68
f 81/2/68 82/2/68 83/2/68
f 83/2/68 82/2/68 84/2/68
f 83/2/68 84/2/68 85/2/68
f 85/2/68 84/2/68 86/2/68
f 85/2/68 86/2/68 87/2/68
f 87/2/68 86/2/68 88/2/68
f 87/2/68 88/2/68 89/2/68
f 89/2/68 88/2/68 90/2/68
f 89/2/68 90/2/68 91/2/68
f 92/2/69 69/2/63 68/2/63
f 69/2/63 92/2/69 80/2/69
f 52/2/60 94/2/61 93/2/60
f 94/2/61 52/2/60 60/2/61
f 95/2/69 80/2/69 92/2/69
f 80/2/69 95/2/69 82/2/69
f 59/2/70 94/2/70 60/2/70
f 59/2/70 96/2/70 94/2/70
f 96/2/70 59/2/70 90/2/70
f 90/2/70 59/2/70 41/2/70
f 43/2/70 90/2/70 41/2/70
f 47/2/70 90/2/70 43/2/70
f 90/2/70 47/2/70 91/2/70
f 91/2/70 47/2/70 49/2/70
f 62/2/71 71/2/71 63/2/71
f 71/2/71 62/2/71 70/2/71
f 70/2/71 62/2/71 61/2/71
f 70/2/71 61/2/71 66/2/71
f 66/2/71 61/2/71 76/2/71
f 66/2/71 76/2/71 68/2/71
f 68/2/71 76/2/71 77/2/71
f 68/2/71 77/2/71 92/2/71
f 92/2/71 77/2/71 78/2/71
f 92/2/71 78/2/71 95/2/71
f 95/2/71 78/2/71 79/2/71
f 95/2/71 79/2/71 97/2/71
f 97/2/71 79/2/71 98/2/71
f 97/2/71 98/2/71 99/2/71
f 99/2/71 98/2/71 93/2/71
f 99/2/71 93/2/71 100/2/71
f 100/2/71 93/2/71 94/2/71
f 100/2/71 94/2/71 96/2/71
f 6/2/59 76/2/66 61/2/59
f 76/2/66 6/2/59 8/2/66
f 86/2/62 97/2/63 99/2/62
f 97/2/63 86/2/62 84/2/63
f 85/2/66 26/2/59 25/2/66
f 26/2/59 85/2/66 87/2/59
f 85/2/66 39/2/67 83/2/67
f 39/2/67 85/2/66 25/2/66
f 81/2/67 38/2/66 75/2/66
f 38/2/66 81/2/67 55/2/67
f 15/2/72 64/2/72 14/2/72
f 15/2/72 73/2/72 64/2/72
f 73/2/72 15/2/72 71/2/72
f 71/2/72 15/2/72 36/2/72
f 35/2/72 71/2/72 36/2/72
f 56/2/72 71/2/72 35/2/72
f 71/2/72 56/2/72 63/2/72
f 63/2/72 56/2/72 57/2/72
f 88/2/64 99/2/62 100/2/64
f 99/2/62 88/2/64 86/2/62
f 16/2/60 74/2/59 37/2/59
f 74/2/59 16/2/60 65/2/60
f 29/2/67 77/2/67 44/2/67
f 77/2/67 29/2/67 78/2/67
f 67/2/62 70/2/64 66/2/62
f 70/2/64 67/2/62 72/2/64
f 87/2/59 48/2/60 26/2/59
f 48/2/60 87/2/59 89/2/60
f 83/2/67 55/2/67 81/2/67
f 55/2/67 83/2/67 39/2/67
f 31/2/66 98/2/59 79/2/66
f 98/2/59 31/2/66 50/2/59
f 89/2/60 49/2/61 48/2/60
f 49/2/61 89/2/60 91/2/61
f 90/2/65 100/2/64 96/2/65
f 100/2/64 90/2/65 88/2/64
f 97/2/63 82/2/69 95/2/69
f 82/2/69 97/2/63 84/2/63
f 50/2/59 93/2/60 98/2/59
f 93/2/60 50/2/59 52/2/60

