# Created by Kenney (www.kenney.nl)

mtllib ramp-long-solid-a.mtl

g ramp-long-solid-a

v 0.1 0.25 -1 1 1 1
v 0.1 0.257 -0.728 1 1 1
v -0.1 0.25 -1 1 1 1
v -0.1 0.257 -0.728 1 1 1
v -0.1 0.276 -0.504 1 1 1
v -0.2875 0.3385 -0.504 1 1 1
v -0.2875 0.3195 -0.728 1 1 1
v 0.1 0.338 -0.152 1 1 1
v -0.1 0.338 -0.152 1 1 1
v 0.1 0.304 -0.316 1 1 1
v -0.1 0.304 -0.316 1 1 1
v -0.35 0.743 0.728 1 1 1
v -0.2875 0.5555 0.728 1 1 1
v -0.35 0.75 1 1 1 1
v -0.2875 0.5625 1 1 1 1
v 0.2875 0.3195 -0.728 1 1 1
v 0.35 0.507 -0.728 1 1 1
v 0.2875 0.3385 -0.504 1 1 1
v 0.35 0.526 -0.504 1 1 1
v 0.2875 0.3665 -0.316 1 1 1
v 0.35 0.554 -0.316 1 1 1
v -0.35 0.662 0.152 1 1 1
v -0.2875 0.4745 0.152 1 1 1
v -0.35 0.696 0.316 1 1 1
v -0.2875 0.5085 0.316 1 1 1
v -0.2875 0.4005 -0.152 1 1 1
v -0.2875 0.3665 -0.316 1 1 1
v 0.2875 0.4005 -0.152 1 1 1
v 0.2875 0.4745 0.152 1 1 1
v 0.1 0.412 0.152 1 1 1
v 0.1 0.276 -0.504 1 1 1
v -0.1 0.474 0.504 1 1 1
v -0.1 0.493 0.728 1 1 1
v -0.2875 0.5365 0.504 1 1 1
v -0.1 0.412 0.152 1 1 1
v -0.2875 0.3125 -1 1 1 1
v -0.35 0.526 -0.504 1 1 1
v -0.35 0.554 -0.316 1 1 1
v 0.2875 0.3125 -1 1 1 1
v 0.35 0.5 -1 1 1 1
v -0.35 0.5 -1 1 1 1
v -0.35 0.507 -0.728 1 1 1
v 0.1 0.474 0.504 1 1 1
v 0.1 0.493 0.728 1 1 1
v 0.35 0.588 -0.152 1 1 1
v -0.35 0.588 -0.152 1 1 1
v 0.2875 0.5085 0.316 1 1 1
v 0.35 0.696 0.316 1 1 1
v 0.2875 0.5365 0.504 1 1 1
v 0.35 0.724 0.504 1 1 1
v 0.1 0.5 1 1 1 1
v -0.1 0.5 1 1 1 1
v -0.1 0.446 0.316 1 1 1
v 0.2875 0.5555 0.728 1 1 1
v 0.35 0.743 0.728 1 1 1
v 0.2875 0.5625 1 1 1 1
v 0.35 0.75 1 1 1 1
v 0.35 0.662 0.152 1 1 1
v 0.1 0.446 0.316 1 1 1
v -0.35 0.724 0.504 1 1 1
v -0.5 0.5 -1 1 1 1
v -0.5 0 -1 1 1 1
v 0.5 0 -1 1 1 1
v 0.5 0.5 -1 1 1 1
v 0.5 0.588 -0.152 1 1 1
v 0.5 0.662 0.152 1 1 1
v 0.5 0.724 0.504 1 1 1
v 0.5 0.743 0.728 1 1 1
v 0.5 0.526 -0.504 1 1 1
v 0.5 0.554 -0.316 1 1 1
v -0.5 0.526 -0.504 1 1 1
v -0.5 0.554 -0.316 1 1 1
v -0.5 0.507 -0.728 1 1 1
v -0.5 0.588 -0.152 1 1 1
v -0.5 0.662 0.152 1 1 1
v 0.5 0.507 -0.728 1 1 1
v -0.5 0.696 0.316 1 1 1
v -0.5 0.724 0.504 1 1 1
v -0.5 0.743 0.728 1 1 1
v 0.5 0.696 0.316 1 1 1
v 0.5 2.712451E-16 1 1 1 1
v 0.5 0.75 1 1 1 1
v -0.5 0.75 1 1 1 1
v -0.5 0 1 1 1 1

vn -0.1597175 0.986836 -0.02539651
vn -0.1594882 0.9857062 -0.05428534
vn 0.1597175 0.986836 -0.02539651
vn 0.1594882 0.9857062 -0.05428534
vn 0.1586938 0.9807063 -0.1141548
vn 0.7012142 0.7081375 -0.08270402
vn 0.7026201 0.7104818 -0.03924984
vn -0.1563124 0.9636354 -0.2167334
vn 0.1563124 0.9636354 -0.2167334
vn -0.1574717 0.9723279 -0.1725721
vn 0.1574717 0.9723279 -0.1725721
vn 0.9485437 0.3161812 -0.01715959
vn 0.7109948 0.7021266 -0.03878931
vn 0.9486519 0.3162173 -0.008137945
vn 0.7106712 0.7032914 -0.01809941
vn -0.7026201 0.7104818 -0.03924984
vn -0.9485332 0.3161778 -0.01778206
vn -0.7012142 0.7081375 -0.08270402
vn -0.9480114 0.3160038 -0.03762801
vn -0.6998245 0.7032595 -0.125187
vn -0.9471303 0.3157101 -0.057195
vn 0.9463348 0.3154449 -0.07031984
vn 0.7042485 0.6925877 -0.1560651
vn 0.9472347 0.3157449 -0.05524095
vn 0.7077981 0.6954784 -0.1238212
vn 0.6994362 0.6972181 -0.1570859
vn 0.6998245 0.7032595 -0.125187
vn -0.6994362 0.6972181 -0.1570859
vn -0.7042485 0.6925877 -0.1560651
vn -0.156792 0.9634002 -0.2174312
vn -0.1586938 0.9807063 -0.1141548
vn 0.1596753 0.9804669 -0.1148415
vn 0.1604296 0.9855365 -0.05459066
vn 0.7101771 0.6992695 -0.08167526
vn 0.156792 0.9634002 -0.2174312
vn 0.703345 0.7106134 -0.01828784
vn 0.9480114 0.3160038 -0.03762801
vn 0.9471303 0.3157101 -0.057195
vn -0.703345 0.7106134 -0.01828784
vn -0.9486519 0.3162173 -0.008137945
vn 0.9485332 0.3161778 -0.01778206
vn -0.1596753 0.9804669 -0.1148415
vn -0.1604296 0.9855365 -0.05459066
vn -0.9462324 0.3154108 -0.07183516
vn 0.9462324 0.3154108 -0.07183516
vn -0.7077981 0.6954784 -0.1238212
vn -0.9472347 0.3157449 -0.05524095
vn -0.7101771 0.6992695 -0.08167526
vn -0.9480612 0.3160204 -0.0362075
vn -0.1605468 0.9867015 -0.02539305
vn 0.1605468 0.9867015 -0.02539305
vn 0.1583061 0.9720282 -0.1734945
vn -0.7109948 0.7021266 -0.03878931
vn -0.9485437 0.3161812 -0.01715959
vn -0.7106712 0.7032914 -0.01809941
vn -0.9463348 0.3154449 -0.07031984
vn -0.1583061 0.9720282 -0.1734945
vn 0.9480612 0.3160204 -0.0362075
vn 0 0 -1
vn 0 0.9755473 -0.21979
vn 0 0.9932525 -0.1159726
vn 0 0.9984784 -0.05514626
vn 0 0.9845282 -0.175226
vn 0 0.999669 -0.02572677
vn 1 0 0
vn 0 0 1
vn -1 0 0
vn 0 -1 0

vt 0.28125 0.375
vt 0.90625 0.375

usemtl colormap

f 3/1/3 2/1/2 1/1/1
f 2/1/2 3/1/3 4/1/4
f 4/1/4 6/1/6 5/1/5
f 6/1/6 4/1/4 7/1/7
f 10/1/10 9/1/9 8/1/8
f 9/1/9 10/1/10 11/1/11
f 14/1/14 13/1/13 12/1/12
f 13/1/13 14/1/14 15/1/15
f 18/1/18 17/1/17 16/1/16
f 17/1/17 18/1/18 19/1/19
f 20/1/20 19/1/19 18/1/18
f 19/1/19 20/1/20 21/1/21
f 24/1/24 23/1/23 22/1/22
f 23/1/23 24/1/24 25/1/25
f 11/1/11 26/1/26 9/1/9
f 26/1/26 11/1/11 27/1/27
f 8/1/8 29/1/29 28/1/28
f 29/1/29 8/1/8 30/1/30
f 4/1/4 31/1/31 2/1/2
f 31/1/31 4/1/4 5/1/5
f 34/1/34 33/1/33 32/1/32
f 33/1/33 34/1/34 13/1/13
f 26/1/26 35/1/35 9/1/9
f 35/1/35 26/1/26 23/1/23
f 36/1/36 4/1/4 3/1/3
f 4/1/4 36/1/36 7/1/7
f 38/1/38 6/1/6 37/1/37
f 6/1/6 38/1/38 27/1/27
f 16/1/16 40/1/40 39/1/39
f 40/1/40 16/1/16 17/1/17
f 20/1/20 8/1/8 28/1/28
f 8/1/8 20/1/20 10/1/10
f 16/1/16 31/1/31 18/1/18
f 31/1/31 16/1/16 2/1/2
f 42/1/41 36/1/36 41/1/14
f 36/1/36 42/1/41 7/1/7
f 1/1/1 16/1/16 39/1/39
f 16/1/16 1/1/1 2/1/2
f 32/1/32 44/1/43 43/1/42
f 44/1/43 32/1/32 33/1/33
f 31/1/31 20/1/20 18/1/18
f 20/1/20 31/1/31 10/1/10
f 28/1/28 21/1/21 20/1/20
f 21/1/21 28/1/28 45/1/44
f 5/1/5 10/1/10 31/1/31
f 10/1/10 5/1/5 11/1/11
f 46/1/45 27/1/27 38/1/38
f 27/1/27 46/1/45 26/1/26
f 6/1/6 11/1/11 5/1/5
f 11/1/11 6/1/6 27/1/27
f 37/1/37 7/1/7 42/1/41
f 7/1/7 37/1/37 6/1/6
f 49/1/48 48/1/47 47/1/46
f 48/1/47 49/1/48 50/1/49
f 33/1/33 51/1/50 44/1/43
f 51/1/50 33/1/33 52/1/51
f 25/1/25 32/1/32 53/1/52
f 32/1/32 25/1/25 34/1/34
f 56/1/55 55/1/54 54/1/53
f 55/1/54 56/1/55 57/1/40
f 9/1/9 30/1/30 8/1/8
f 30/1/30 9/1/9 35/1/35
f 29/1/29 45/1/44 28/1/28
f 45/1/44 29/1/29 58/1/56
f 13/1/13 52/1/51 33/1/33
f 52/1/51 13/1/13 15/1/15
f 43/1/42 54/1/53 49/1/48
f 54/1/53 43/1/42 44/1/43
f 59/1/57 49/1/48 47/1/46
f 49/1/48 59/1/57 43/1/42
f 23/1/23 53/1/52 35/1/35
f 53/1/52 23/1/23 25/1/25
f 12/1/12 34/1/34 60/1/58
f 34/1/34 12/1/12 13/1/13
f 22/1/22 26/1/26 46/1/45
f 26/1/26 22/1/22 23/1/23
f 54/1/53 50/1/49 49/1/48
f 50/1/49 54/1/53 55/1/54
f 60/1/58 25/1/25 24/1/24
f 25/1/25 60/1/58 34/1/34
f 47/1/46 58/1/56 29/1/29
f 58/1/56 47/1/46 48/1/47
f 35/1/35 59/1/57 30/1/30
f 59/1/57 35/1/35 53/1/52
f 30/1/30 47/1/46 29/1/29
f 47/1/46 30/1/30 59/1/57
f 44/1/43 56/1/55 54/1/53
f 56/1/55 44/1/43 51/1/50
f 53/1/52 43/1/42 59/1/57
f 43/1/42 53/1/52 32/1/32
f 36/2/59 61/2/59 41/2/59
f 36/2/59 62/2/59 61/2/59
f 62/2/59 36/2/59 63/2/59
f 63/2/59 36/2/59 3/2/59
f 1/2/59 63/2/59 3/2/59
f 39/2/59 63/2/59 1/2/59
f 63/2/59 39/2/59 64/2/59
f 64/2/59 39/2/59 40/2/59
f 45/2/60 66/2/60 65/2/60
f 66/2/60 45/2/60 58/2/60
f 50/2/61 68/2/62 67/2/61
f 68/2/62 50/2/61 55/2/62
f 19/2/61 70/2/63 69/2/61
f 70/2/63 19/2/61 21/2/63
f 71/2/61 38/2/63 37/2/61
f 38/2/63 71/2/61 72/2/63
f 42/2/62 71/2/61 37/2/61
f 71/2/61 42/2/62 73/2/62
f 38/2/63 74/2/60 46/2/60
f 74/2/60 38/2/63 72/2/63
f 74/2/60 22/2/60 46/2/60
f 22/2/60 74/2/60 75/2/60
f 61/2/64 42/2/62 41/2/64
f 42/2/62 61/2/64 73/2/62
f 70/2/63 45/2/60 65/2/60
f 45/2/60 70/2/63 21/2/63
f 40/2/64 76/2/62 64/2/64
f 76/2/62 40/2/64 17/2/62
f 17/2/62 69/2/61 76/2/62
f 69/2/61 17/2/62 19/2/61
f 75/2/60 24/2/63 22/2/60
f 24/2/63 75/2/60 77/2/63
f 78/2/61 12/2/62 60/2/61
f 12/2/62 78/2/61 79/2/62
f 58/2/60 80/2/63 66/2/60
f 80/2/63 58/2/60 48/2/63
f 76/2/65 63/2/65 64/2/65
f 63/2/65 76/2/65 81/2/65
f 81/2/65 76/2/65 69/2/65
f 81/2/65 69/2/65 70/2/65
f 81/2/65 70/2/65 65/2/65
f 81/2/65 65/2/65 66/2/65
f 81/2/65 66/2/65 80/2/65
f 81/2/65 80/2/65 67/2/65
f 81/2/65 67/2/65 68/2/65
f 81/2/65 68/2/65 82/2/65
f 79/2/62 14/2/64 12/2/62
f 14/2/64 79/2/62 83/2/64
f 56/2/66 82/2/66 57/2/66
f 56/2/66 81/2/66 82/2/66
f 81/2/66 56/2/66 51/2/66
f 52/2/66 81/2/66 51/2/66
f 15/2/66 81/2/66 52/2/66
f 15/2/66 84/2/66 81/2/66
f 84/2/66 15/2/66 83/2/66
f 83/2/66 15/2/66 14/2/66
f 48/2/63 67/2/61 80/2/63
f 67/2/61 48/2/63 50/2/61
f 55/2/62 82/2/64 68/2/62
f 82/2/64 55/2/62 57/2/64
f 84/2/67 61/2/67 62/2/67
f 61/2/67 84/2/67 73/2/67
f 73/2/67 84/2/67 71/2/67
f 71/2/67 84/2/67 72/2/67
f 72/2/67 84/2/67 74/2/67
f 74/2/67 84/2/67 75/2/67
f 75/2/67 84/2/67 77/2/67
f 77/2/67 84/2/67 78/2/67
f 78/2/67 84/2/67 79/2/67
f 79/2/67 84/2/67 83/2/67
f 84/2/68 63/2/68 81/2/68
f 63/2/68 84/2/68 62/2/68
f 77/2/63 60/2/61 24/2/63
f 60/2/61 77/2/63 78/2/61

g ramp-long-solid-a




usemtl colormap

f 3/1/3 2/1/2 1/1/1
f 2/1/2 3/1/3 4/1/4
f 4/1/4 6/1/6 5/1/5
f 6/1/6 4/1/4 7/1/7
f 10/1/10 9/1/9 8/1/8
f 9/1/9 10/1/10 11/1/11
f 14/1/14 13/1/13 12/1/12
f 13/1/13 14/1/14 15/1/15
f 18/1/18 17/1/17 16/1/16
f 17/1/17 18/1/18 19/1/19
f 20/1/20 19/1/19 18/1/18
f 19/1/19 20/1/20 21/1/21
f 24/1/24 23/1/23 22/1/22
f 23/1/23 24/1/24 25/1/25
f 11/1/11 26/1/26 9/1/9
f 26/1/26 11/1/11 27/1/27
f 8/1/8 29/1/29 28/1/28
f 29/1/29 8/1/8 30/1/30
f 4/1/4 31/1/31 2/1/2
f 31/1/31 4/1/4 5/1/5
f 34/1/34 33/1/33 32/1/32
f 33/1/33 34/1/34 13/1/13
f 26/1/26 35/1/35 9/1/9
f 35/1/35 26/1/26 23/1/23
f 36/1/36 4/1/4 3/1/3
f 4/1/4 36/1/36 7/1/7
f 38/1/38 6/1/6 37/1/37
f 6/1/6 38/1/38 27/1/27
f 16/1/16 40/1/40 39/1/39
f 40/1/40 16/1/16 17/1/17
f 20/1/20 8/1/8 28/1/28
f 8/1/8 20/1/20 10/1/10
f 16/1/16 31/1/31 18/1/18
f 31/1/31 16/1/16 2/1/2
f 42/1/41 36/1/36 41/1/14
f 36/1/36 42/1/41 7/1/7
f 1/1/1 16/1/16 39/1/39
f 16/1/16 1/1/1 2/1/2
f 32/1/32 44/1/43 43/1/42
f 44/1/43 32/1/32 33/1/33
f 31/1/31 20/1/20 18/1/18
f 20/1/20 31/1/31 10/1/10
f 28/1/28 21/1/21 20/1/20
f 21/1/21 28/1/28 45/1/44
f 5/1/5 10/1/10 31/1/31
f 10/1/10 5/1/5 11/1/11
f 46/1/45 27/1/27 38/1/38
f 27/1/27 46/1/45 26/1/26
f 6/1/6 11/1/11 5/1/5
f 11/1/11 6/1/6 27/1/27
f 37/1/37 7/1/7 42/1/41
f 7/1/7 37/1/37 6/1/6
f 49/1/48 48/1/47 47/1/46
f 48/1/47 49/1/48 50/1/49
f 33/1/33 51/1/50 44/1/43
f 51/1/50 33/1/33 52/1/51
f 25/1/25 32/1/32 53/1/52
f 32/1/32 25/1/25 34/1/34
f 56/1/55 55/1/54 54/1/53
f 55/1/54 56/1/55 57/1/40
f 9/1/9 30/1/30 8/1/8
f 30/1/30 9/1/9 35/1/35
f 29/1/29 45/1/44 28/1/28
f 45/1/44 29/1/29 58/1/56
f 13/1/13 52/1/51 33/1/33
f 52/1/51 13/1/13 15/1/15
f 43/1/42 54/1/53 49/1/48
f 54/1/53 43/1/42 44/1/43
f 59/1/57 49/1/48 47/1/46
f 49/1/48 59/1/57 43/1/42
f 23/1/23 53/1/52 35/1/35
f 53/1/52 23/1/23 25/1/25
f 12/1/12 34/1/34 60/1/58
f 34/1/34 12/1/12 13/1/13
f 22/1/22 26/1/26 46/1/45
f 26/1/26 22/1/22 23/1/23
f 54/1/53 50/1/49 49/1/48
f 50/1/49 54/1/53 55/1/54
f 60/1/58 25/1/25 24/1/24
f 25/1/25 60/1/58 34/1/34
f 47/1/46 58/1/56 29/1/29
f 58/1/56 47/1/46 48/1/47
f 35/1/35 59/1/57 30/1/30
f 59/1/57 35/1/35 53/1/52
f 30/1/30 47/1/46 29/1/29
f 47/1/46 30/1/30 59/1/57
f 44/1/43 56/1/55 54/1/53
f 56/1/55 44/1/43 51/1/50
f 53/1/52 43/1/42 59/1/57
f 43/1/42 53/1/52 32/1/32
f 36/2/59 61/2/59 41/2/59
f 36/2/59 62/2/59 61/2/59
f 62/2/59 36/2/59 63/2/59
f 63/2/59 36/2/59 3/2/59
f 1/2/59 63/2/59 3/2/59
f 39/2/59 63/2/59 1/2/59
f 63/2/59 39/2/59 64/2/59
f 64/2/59 39/2/59 40/2/59
f 45/2/60 66/2/60 65/2/60
f 66/2/60 45/2/60 58/2/60
f 50/2/61 68/2/62 67/2/61
f 68/2/62 50/2/61 55/2/62
f 19/2/61 70/2/63 69/2/61
f 70/2/63 19/2/61 21/2/63
f 71/2/61 38/2/63 37/2/61
f 38/2/63 71/2/61 72/2/63
f 42/2/62 71/2/61 37/2/61
f 71/2/61 42/2/62 73/2/62
f 38/2/63 74/2/60 46/2/60
f 74/2/60 38/2/63 72/2/63
f 74/2/60 22/2/60 46/2/60
f 22/2/60 74/2/60 75/2/60
f 61/2/64 42/2/62 41/2/64
f 42/2/62 61/2/64 73/2/62
f 70/2/63 45/2/60 65/2/60
f 45/2/60 70/2/63 21/2/63
f 40/2/64 76/2/62 64/2/64
f 76/2/62 40/2/64 17/2/62
f 17/2/62 69/2/61 76/2/62
f 69/2/61 17/2/62 19/2/61
f 75/2/60 24/2/63 22/2/60
f 24/2/63 75/2/60 77/2/63
f 78/2/61 12/2/62 60/2/61
f 12/2/62 78/2/61 79/2/62
f 58/2/60 80/2/63 66/2/60
f 80/2/63 58/2/60 48/2/63
f 76/2/65 63/2/65 64/2/65
f 63/2/65 76/2/65 81/2/65
f 81/2/65 76/2/65 69/2/65
f 81/2/65 69/2/65 70/2/65
f 81/2/65 70/2/65 65/2/65
f 81/2/65 65/2/65 66/2/65
f 81/2/65 66/2/65 80/2/65
f 81/2/65 80/2/65 67/2/65
f 81/2/65 67/2/65 68/2/65
f 81/2/65 68/2/65 82/2/65
f 79/2/62 14/2/64 12/2/62
f 14/2/64 79/2/62 83/2/64
f 56/2/66 82/2/66 57/2/66
f 56/2/66 81/2/66 82/2/66
f 81/2/66 56/2/66 51/2/66
f 52/2/66 81/2/66 51/2/66
f 15/2/66 81/2/66 52/2/66
f 15/2/66 84/2/66 81/2/66
f 84/2/66 15/2/66 83/2/66
f 83/2/66 15/2/66 14/2/66
f 48/2/63 67/2/61 80/2/63
f 67/2/61 48/2/63 50/2/61
f 55/2/62 82/2/64 68/2/62
f 82/2/64 55/2/62 57/2/64
f 84/2/67 61/2/67 62/2/67
f 61/2/67 84/2/67 73/2/67
f 73/2/67 84/2/67 71/2/67
f 71/2/67 84/2/67 72/2/67
f 72/2/67 84/2/67 74/2/67
f 74/2/67 84/2/67 75/2/67
f 75/2/67 84/2/67 77/2/67
f 77/2/67 84/2/67 78/2/67
f 78/2/67 84/2/67 79/2/67
f 79/2/67 84/2/67 83/2/67
f 84/2/68 63/2/68 81/2/68
f 63/2/68 84/2/68 62/2/68
f 77/2/63 60/2/61 24/2/63
f 60/2/61 77/2/63 78/2/61

