# Created by Kenney (www.kenney.nl)

mtllib ramp-long-solid-c.mtl

g ramp-long-solid-c

v -0.1 0.602 -0.152 1 1 1
v -0.1 0.898 0.152 1 1 1
v -0.2875 0.6645 -0.152 1 1 1
v -0.2875 0.9605 0.152 1 1 1
v 0.2875 0.3405 -0.728 1 1 1
v 0.35 0.528 -0.728 1 1 1
v 0.2875 0.4165 -0.504 1 1 1
v 0.35 0.604 -0.504 1 1 1
v -0.1 0.354 -0.504 1 1 1
v -0.1 0.466 -0.316 1 1 1
v -0.2875 0.4165 -0.504 1 1 1
v -0.2875 0.5285 -0.316 1 1 1
v 0.2875 0.6645 -0.152 1 1 1
v 0.2875 0.9605 0.152 1 1 1
v 0.1 0.602 -0.152 1 1 1
v 0.1 0.898 0.152 1 1 1
v 0.2875 1.2845 0.728 1 1 1
v 0.2875 1.3125 1 1 1 1
v 0.1 1.222 0.728 1 1 1
v 0.1 1.25 1 1 1 1
v 0.2875 0.5285 -0.316 1 1 1
v 0.1 0.354 -0.504 1 1 1
v 0.1 0.466 -0.316 1 1 1
v -0.1 1.222 0.728 1 1 1
v -0.1 1.25 1 1 1 1
v -0.2875 1.2845 0.728 1 1 1
v -0.2875 1.3125 1 1 1 1
v -0.1 0.25 -1 1 1 1
v -0.1 0.278 -0.728 1 1 1
v -0.2875 0.3125 -1 1 1 1
v -0.2875 0.3405 -0.728 1 1 1
v 0.1 1.034 0.316 1 1 1
v -0.1 1.034 0.316 1 1 1
v -0.35 1.284 0.316 1 1 1
v -0.2875 1.0965 0.316 1 1 1
v -0.35 1.396 0.504 1 1 1
v -0.2875 1.2085 0.504 1 1 1
v 0.35 0.852 -0.152 1 1 1
v 0.35 1.148 0.152 1 1 1
v 0.1 1.146 0.504 1 1 1
v -0.1 1.146 0.504 1 1 1
v 0.2875 1.0965 0.316 1 1 1
v 0.35 1.284 0.316 1 1 1
v -0.35 1.472 0.728 1 1 1
v -0.35 1.5 1 1 1 1
v 0.1 0.25 -1 1 1 1
v 0.1 0.278 -0.728 1 1 1
v 0.2875 0.3125 -1 1 1 1
v 0.35 0.5 -1 1 1 1
v 0.2875 1.2085 0.504 1 1 1
v 0.35 1.396 0.504 1 1 1
v -0.35 1.148 0.152 1 1 1
v 0.35 1.472 0.728 1 1 1
v 0.35 1.5 1 1 1 1
v -0.35 0.528 -0.728 1 1 1
v -0.35 0.604 -0.504 1 1 1
v -0.35 0.716 -0.316 1 1 1
v -0.35 0.852 -0.152 1 1 1
v 0.35 0.716 -0.316 1 1 1
v -0.35 0.5 -1 1 1 1
v 0.5 0.528 -0.728 1 1 1
v 0.5 0.604 -0.504 1 1 1
v -0.5 1.396 0.504 1 1 1
v -0.5 1.472 0.728 1 1 1
v -0.5 0 -1 1 1 1
v -0.5 0.5 -1 1 1 1
v -0.5 0 1 1 1 1
v -0.5 0.528 -0.728 1 1 1
v -0.5 0.604 -0.504 1 1 1
v -0.5 0.716 -0.316 1 1 1
v -0.5 0.852 -0.152 1 1 1
v -0.5 1.148 0.152 1 1 1
v -0.5 1.284 0.316 1 1 1
v -0.5 1.5 1 1 1 1
v 0.5 1.148 0.152 1 1 1
v 0.5 1.284 0.316 1 1 1
v 0.5 1.396 0.504 1 1 1
v 0.5 1.472 0.728 1 1 1
v 0.5 1.5 1 1 1 1
v 0.5 0.716 -0.316 1 1 1
v 0.5 0 -1 1 1 1
v 0.5 0.5 -1 1 1 1
v 0.5 0.852 -0.152 1 1 1
v 0.5 0 1 1 1 1

vn 0.1213882 0.7399483 -0.6616202
vn 0.1210018 0.7364502 -0.6655823
vn 0.6375691 0.5734488 -0.5144531
vn 0.6448728 0.5674946 -0.5119462
vn -0.6867336 0.7100955 -0.1554391
vn -0.9460712 0.3153571 -0.07415687
vn -0.6726325 0.6717279 -0.3103985
vn -0.9371259 0.3123753 -0.1556174
vn 0.145566 0.9001012 -0.410644
vn 0.1324577 0.8121527 -0.5682102
vn 0.6726325 0.6717279 -0.3103985
vn 0.6539167 0.6181989 -0.4361455
vn -0.6375691 0.5734488 -0.5144531
vn -0.6448728 0.5674946 -0.5119462
vn -0.1213882 0.7399483 -0.6616202
vn -0.1210018 0.7364502 -0.6655823
vn -0.7181703 0.6797222 -0.1490274
vn -0.7201624 0.6901583 -0.0710457
vn -0.1583669 0.9641622 -0.2128642
vn -0.1610298 0.9817615 -0.1010637
vn -0.6539167 0.6181989 -0.4361455
vn -0.145566 0.9001012 -0.410644
vn -0.1324577 0.8121527 -0.5682102
vn 0.1583669 0.9641622 -0.2128642
vn 0.1610298 0.9817615 -0.1010637
vn 0.7181703 0.6797222 -0.1490274
vn 0.7201624 0.6901583 -0.0710457
vn 0.1577428 0.9822893 -0.101118
vn 0.1552098 0.9656415 -0.208438
vn 0.6909083 0.7191422 -0.07402934
vn 0.6867336 0.7100955 -0.1554391
vn -0.1325687 0.8070593 -0.5753962
vn 0.1325687 0.8070593 -0.5753962
vn 0.9282804 0.3094268 -0.2062777
vn 0.6714745 0.6041134 -0.4291493
vn 0.9399827 0.3133276 -0.1351238
vn 0.7002212 0.6475765 -0.3005578
vn -0.909986 0.3033287 -0.2826963
vn -0.9147861 0.3049287 -0.2649241
vn -0.1472749 0.8962705 -0.4183411
vn 0.1472749 0.8962705 -0.4183411
vn -0.6714745 0.6041134 -0.4291493
vn -0.9282804 0.3094268 -0.2062777
vn 0.9467078 0.3155693 -0.06449965
vn 0.948181 0.3160603 -0.03253562
vn -0.1577428 0.9822893 -0.101118
vn -0.1552098 0.9656415 -0.208438
vn -0.6909083 0.7191422 -0.07402934
vn -0.948181 0.3160603 -0.03253562
vn -0.7002212 0.6475765 -0.3005578
vn -0.9399827 0.3133276 -0.1351238
vn 0.9147861 0.3049287 -0.2649241
vn -0.9467078 0.3155693 -0.06449965
vn 0.9460712 0.3153571 -0.07415687
vn 0.9371259 0.3123753 -0.1556174
vn 0.9228907 0.3076303 -0.2315949
vn 0.909986 0.3033287 -0.2826963
vn -0.9228907 0.3076303 -0.2315949
vn 0 0.9770107 -0.2131901
vn 0 0.9080501 -0.4188617
vn -1 0 0
vn 0 0.7437055 -0.6685074
vn 0 0.8168834 -0.576803
vn 0 0.9947433 -0.1024001
vn 0 0 -1
vn 0 0 1
vn 1 0 0
vn 0 -1 0

vt 0.28125 0.375
vt 0.90625 0.375

usemtl colormap

f 3/1/3 2/1/2 1/1/1
f 2/1/2 3/1/3 4/1/4
f 7/1/7 6/1/6 5/1/5
f 6/1/6 7/1/7 8/1/8
f 11/1/11 10/1/10 9/1/9
f 10/1/10 11/1/11 12/1/12
f 15/1/15 14/1/14 13/1/13
f 14/1/14 15/1/15 16/1/16
f 19/1/19 18/1/18 17/1/17
f 18/1/18 19/1/19 20/1/20
f 22/1/22 21/1/21 7/1/7
f 21/1/21 22/1/22 23/1/23
f 26/1/26 25/1/25 24/1/24
f 25/1/25 26/1/26 27/1/27
f 30/1/30 29/1/29 28/1/28
f 29/1/29 30/1/30 31/1/31
f 2/1/2 32/1/32 16/1/16
f 32/1/32 2/1/2 33/1/33
f 36/1/36 35/1/35 34/1/34
f 35/1/35 36/1/36 37/1/37
f 14/1/14 38/1/38 13/1/13
f 38/1/38 14/1/14 39/1/39
f 1/1/1 16/1/16 15/1/15
f 16/1/16 1/1/1 2/1/2
f 33/1/33 40/1/40 32/1/32
f 40/1/40 33/1/33 41/1/41
f 24/1/24 20/1/20 19/1/19
f 20/1/20 24/1/24 25/1/25
f 42/1/42 39/1/39 14/1/14
f 39/1/39 42/1/42 43/1/43
f 44/1/44 37/1/37 36/1/36
f 37/1/37 44/1/44 26/1/26
f 45/1/45 26/1/26 44/1/44
f 26/1/26 45/1/45 27/1/27
f 35/1/35 41/1/41 33/1/33
f 41/1/41 35/1/35 37/1/37
f 28/1/28 47/1/47 46/1/46
f 47/1/47 28/1/28 29/1/29
f 5/1/5 49/1/49 48/1/48
f 49/1/49 5/1/5 6/1/6
f 32/1/32 50/1/50 42/1/42
f 50/1/50 32/1/32 40/1/40
f 50/1/50 43/1/43 42/1/42
f 43/1/43 50/1/50 51/1/51
f 34/1/34 4/1/4 52/1/52
f 4/1/4 34/1/34 35/1/35
f 18/1/18 53/1/53 17/1/17
f 53/1/53 18/1/18 54/1/49
f 41/1/41 19/1/19 40/1/40
f 19/1/19 41/1/41 24/1/24
f 17/1/17 51/1/51 50/1/50
f 51/1/51 17/1/17 53/1/53
f 40/1/40 17/1/17 50/1/50
f 17/1/17 40/1/40 19/1/19
f 47/1/47 7/1/7 5/1/5
f 7/1/7 47/1/47 22/1/22
f 56/1/55 31/1/31 55/1/54
f 31/1/31 56/1/55 11/1/11
f 46/1/46 5/1/5 48/1/48
f 5/1/5 46/1/46 47/1/47
f 23/1/23 13/1/13 21/1/21
f 13/1/13 23/1/23 15/1/15
f 58/1/57 12/1/12 57/1/56
f 12/1/12 58/1/57 3/1/3
f 57/1/56 11/1/11 56/1/55
f 11/1/11 57/1/56 12/1/12
f 31/1/31 9/1/9 29/1/29
f 9/1/9 31/1/31 11/1/11
f 10/1/10 15/1/15 23/1/23
f 15/1/15 10/1/10 1/1/1
f 21/1/21 8/1/8 7/1/7
f 8/1/8 21/1/21 59/1/58
f 16/1/16 42/1/42 14/1/14
f 42/1/42 16/1/16 32/1/32
f 10/1/10 3/1/3 1/1/1
f 3/1/3 10/1/10 12/1/12
f 13/1/13 59/1/58 21/1/21
f 59/1/58 13/1/13 38/1/38
f 55/1/54 30/1/30 60/1/45
f 30/1/30 55/1/54 31/1/31
f 29/1/29 22/1/22 47/1/47
f 22/1/22 29/1/29 9/1/9
f 9/1/9 23/1/23 22/1/22
f 23/1/23 9/1/9 10/1/10
f 4/1/4 33/1/33 2/1/2
f 33/1/33 4/1/4 35/1/35
f 37/1/37 24/1/24 41/1/41
f 24/1/24 37/1/37 26/1/26
f 52/1/52 3/1/3 58/1/57
f 3/1/3 52/1/52 4/1/4
f 6/2/59 62/2/60 61/2/59
f 62/2/60 6/2/59 8/2/60
f 63/2/60 44/2/59 36/2/60
f 44/2/59 63/2/60 64/2/59
f 67/2/61 66/2/61 65/2/61
f 66/2/61 67/2/61 68/2/61
f 68/2/61 67/2/61 69/2/61
f 69/2/61 67/2/61 70/2/61
f 70/2/61 67/2/61 71/2/61
f 71/2/61 67/2/61 72/2/61
f 72/2/61 67/2/61 73/2/61
f 73/2/61 67/2/61 63/2/61
f 63/2/61 67/2/61 64/2/61
f 64/2/61 67/2/61 74/2/61
f 39/2/62 76/2/63 75/2/62
f 76/2/63 39/2/62 43/2/63
f 51/2/60 78/2/59 77/2/60
f 78/2/59 51/2/60 53/2/59
f 53/2/59 79/2/64 78/2/59
f 79/2/64 53/2/59 54/2/64
f 8/2/60 80/2/63 62/2/60
f 80/2/63 8/2/60 59/2/63
f 30/2/65 66/2/65 60/2/65
f 30/2/65 65/2/65 66/2/65
f 65/2/65 30/2/65 81/2/65
f 81/2/65 30/2/65 28/2/65
f 46/2/65 81/2/65 28/2/65
f 48/2/65 81/2/65 46/2/65
f 81/2/65 48/2/65 82/2/65
f 82/2/65 48/2/65 49/2/65
f 49/2/64 61/2/59 82/2/64
f 61/2/59 49/2/64 6/2/59
f 43/2/63 77/2/60 76/2/63
f 77/2/60 43/2/63 51/2/60
f 71/2/62 52/2/62 58/2/62
f 52/2/62 71/2/62 72/2/62
f 69/2/60 57/2/63 56/2/60
f 57/2/63 69/2/60 70/2/63
f 73/2/63 36/2/60 34/2/63
f 36/2/60 73/2/63 63/2/60
f 59/2/63 83/2/62 80/2/63
f 83/2/62 59/2/63 38/2/62
f 38/2/62 75/2/62 83/2/62
f 75/2/62 38/2/62 39/2/62
f 64/2/59 45/2/64 44/2/59
f 45/2/64 64/2/59 74/2/64
f 55/2/59 69/2/60 56/2/60
f 69/2/60 55/2/59 68/2/59
f 79/2/66 67/2/66 84/2/66
f 67/2/66 79/2/66 18/2/66
f 18/2/66 79/2/66 54/2/66
f 67/2/66 18/2/66 20/2/66
f 25/2/66 67/2/66 20/2/66
f 27/2/66 67/2/66 25/2/66
f 67/2/66 27/2/66 74/2/66
f 74/2/66 27/2/66 45/2/66
f 66/2/64 55/2/59 60/2/64
f 55/2/59 66/2/64 68/2/59
f 61/2/67 81/2/67 82/2/67
f 81/2/67 61/2/67 84/2/67
f 84/2/67 61/2/67 62/2/67
f 84/2/67 62/2/67 80/2/67
f 84/2/67 80/2/67 83/2/67
f 84/2/67 83/2/67 75/2/67
f 84/2/67 75/2/67 76/2/67
f 84/2/67 76/2/67 77/2/67
f 84/2/67 77/2/67 78/2/67
f 84/2/67 78/2/67 79/2/67
f 57/2/63 71/2/62 58/2/62
f 71/2/62 57/2/63 70/2/63
f 67/2/68 81/2/68 84/2/68
f 81/2/68 67/2/68 65/2/68
f 72/2/62 34/2/63 52/2/62
f 34/2/63 72/2/62 73/2/63

g ramp-long-solid-c




usemtl colormap

f 3/1/3 2/1/2 1/1/1
f 2/1/2 3/1/3 4/1/4
f 7/1/7 6/1/6 5/1/5
f 6/1/6 7/1/7 8/1/8
f 11/1/11 10/1/10 9/1/9
f 10/1/10 11/1/11 12/1/12
f 15/1/15 14/1/14 13/1/13
f 14/1/14 15/1/15 16/1/16
f 19/1/19 18/1/18 17/1/17
f 18/1/18 19/1/19 20/1/20
f 22/1/22 21/1/21 7/1/7
f 21/1/21 22/1/22 23/1/23
f 26/1/26 25/1/25 24/1/24
f 25/1/25 26/1/26 27/1/27
f 30/1/30 29/1/29 28/1/28
f 29/1/29 30/1/30 31/1/31
f 2/1/2 32/1/32 16/1/16
f 32/1/32 2/1/2 33/1/33
f 36/1/36 35/1/35 34/1/34
f 35/1/35 36/1/36 37/1/37
f 14/1/14 38/1/38 13/1/13
f 38/1/38 14/1/14 39/1/39
f 1/1/1 16/1/16 15/1/15
f 16/1/16 1/1/1 2/1/2
f 33/1/33 40/1/40 32/1/32
f 40/1/40 33/1/33 41/1/41
f 24/1/24 20/1/20 19/1/19
f 20/1/20 24/1/24 25/1/25
f 42/1/42 39/1/39 14/1/14
f 39/1/39 42/1/42 43/1/43
f 44/1/44 37/1/37 36/1/36
f 37/1/37 44/1/44 26/1/26
f 45/1/45 26/1/26 44/1/44
f 26/1/26 45/1/45 27/1/27
f 35/1/35 41/1/41 33/1/33
f 41/1/41 35/1/35 37/1/37
f 28/1/28 47/1/47 46/1/46
f 47/1/47 28/1/28 29/1/29
f 5/1/5 49/1/49 48/1/48
f 49/1/49 5/1/5 6/1/6
f 32/1/32 50/1/50 42/1/42
f 50/1/50 32/1/32 40/1/40
f 50/1/50 43/1/43 42/1/42
f 43/1/43 50/1/50 51/1/51
f 34/1/34 4/1/4 52/1/52
f 4/1/4 34/1/34 35/1/35
f 18/1/18 53/1/53 17/1/17
f 53/1/53 18/1/18 54/1/49
f 41/1/41 19/1/19 40/1/40
f 19/1/19 41/1/41 24/1/24
f 17/1/17 51/1/51 50/1/50
f 51/1/51 17/1/17 53/1/53
f 40/1/40 17/1/17 50/1/50
f 17/1/17 40/1/40 19/1/19
f 47/1/47 7/1/7 5/1/5
f 7/1/7 47/1/47 22/1/22
f 56/1/55 31/1/31 55/1/54
f 31/1/31 56/1/55 11/1/11
f 46/1/46 5/1/5 48/1/48
f 5/1/5 46/1/46 47/1/47
f 23/1/23 13/1/13 21/1/21
f 13/1/13 23/1/23 15/1/15
f 58/1/57 12/1/12 57/1/56
f 12/1/12 58/1/57 3/1/3
f 57/1/56 11/1/11 56/1/55
f 11/1/11 57/1/56 12/1/12
f 31/1/31 9/1/9 29/1/29
f 9/1/9 31/1/31 11/1/11
f 10/1/10 15/1/15 23/1/23
f 15/1/15 10/1/10 1/1/1
f 21/1/21 8/1/8 7/1/7
f 8/1/8 21/1/21 59/1/58
f 16/1/16 42/1/42 14/1/14
f 42/1/42 16/1/16 32/1/32
f 10/1/10 3/1/3 1/1/1
f 3/1/3 10/1/10 12/1/12
f 13/1/13 59/1/58 21/1/21
f 59/1/58 13/1/13 38/1/38
f 55/1/54 30/1/30 60/1/45
f 30/1/30 55/1/54 31/1/31
f 29/1/29 22/1/22 47/1/47
f 22/1/22 29/1/29 9/1/9
f 9/1/9 23/1/23 22/1/22
f 23/1/23 9/1/9 10/1/10
f 4/1/4 33/1/33 2/1/2
f 33/1/33 4/1/4 35/1/35
f 37/1/37 24/1/24 41/1/41
f 24/1/24 37/1/37 26/1/26
f 52/1/52 3/1/3 58/1/57
f 3/1/3 52/1/52 4/1/4
f 6/2/59 62/2/60 61/2/59
f 62/2/60 6/2/59 8/2/60
f 63/2/60 44/2/59 36/2/60
f 44/2/59 63/2/60 64/2/59
f 67/2/61 66/2/61 65/2/61
f 66/2/61 67/2/61 68/2/61
f 68/2/61 67/2/61 69/2/61
f 69/2/61 67/2/61 70/2/61
f 70/2/61 67/2/61 71/2/61
f 71/2/61 67/2/61 72/2/61
f 72/2/61 67/2/61 73/2/61
f 73/2/61 67/2/61 63/2/61
f 63/2/61 67/2/61 64/2/61
f 64/2/61 67/2/61 74/2/61
f 39/2/62 76/2/63 75/2/62
f 76/2/63 39/2/62 43/2/63
f 51/2/60 78/2/59 77/2/60
f 78/2/59 51/2/60 53/2/59
f 53/2/59 79/2/64 78/2/59
f 79/2/64 53/2/59 54/2/64
f 8/2/60 80/2/63 62/2/60
f 80/2/63 8/2/60 59/2/63
f 30/2/65 66/2/65 60/2/65
f 30/2/65 65/2/65 66/2/65
f 65/2/65 30/2/65 81/2/65
f 81/2/65 30/2/65 28/2/65
f 46/2/65 81/2/65 28/2/65
f 48/2/65 81/2/65 46/2/65
f 81/2/65 48/2/65 82/2/65
f 82/2/65 48/2/65 49/2/65
f 49/2/64 61/2/59 82/2/64
f 61/2/59 49/2/64 6/2/59
f 43/2/63 77/2/60 76/2/63
f 77/2/60 43/2/63 51/2/60
f 71/2/62 52/2/62 58/2/62
f 52/2/62 71/2/62 72/2/62
f 69/2/60 57/2/63 56/2/60
f 57/2/63 69/2/60 70/2/63
f 73/2/63 36/2/60 34/2/63
f 36/2/60 73/2/63 63/2/60
f 59/2/63 83/2/62 80/2/63
f 83/2/62 59/2/63 38/2/62
f 38/2/62 75/2/62 83/2/62
f 75/2/62 38/2/62 39/2/62
f 64/2/59 45/2/64 44/2/59
f 45/2/64 64/2/59 74/2/64
f 55/2/59 69/2/60 56/2/60
f 69/2/60 55/2/59 68/2/59
f 79/2/66 67/2/66 84/2/66
f 67/2/66 79/2/66 18/2/66
f 18/2/66 79/2/66 54/2/66
f 67/2/66 18/2/66 20/2/66
f 25/2/66 67/2/66 20/2/66
f 27/2/66 67/2/66 25/2/66
f 67/2/66 27/2/66 74/2/66
f 74/2/66 27/2/66 45/2/66
f 66/2/64 55/2/59 60/2/64
f 55/2/59 66/2/64 68/2/59
f 61/2/67 81/2/67 82/2/67
f 81/2/67 61/2/67 84/2/67
f 84/2/67 61/2/67 62/2/67
f 84/2/67 62/2/67 80/2/67
f 84/2/67 80/2/67 83/2/67
f 84/2/67 83/2/67 75/2/67
f 84/2/67 75/2/67 76/2/67
f 84/2/67 76/2/67 77/2/67
f 84/2/67 77/2/67 78/2/67
f 84/2/67 78/2/67 79/2/67
f 57/2/63 71/2/62 58/2/62
f 71/2/62 57/2/63 70/2/63
f 67/2/68 81/2/68 84/2/68
f 81/2/68 67/2/68 65/2/68
f 72/2/62 34/2/63 52/2/62
f 34/2/63 72/2/62 73/2/63

