# Created by Kenney (www.kenney.nl)

mtllib s-curve-short-left-b.mtl

g s-curve-short-left-b

v 0.3419915 0.3125 0.04754389 1 1 1
v 0.1672144 0.25 0.1156674 1 1 1
v 0.09204208 0.25 -0.03909291 1 1 1
v 0.5375 0.3125 1 1 1 1
v 0.5234973 0.3125 0.7111921 1 1 1
v 0.6 0.5 1 1 1 1
v -0.2522505 0.5 0.279164 1 1 1
v -0.1939915 0.3125 0.2564561 1 1 1
v -0.1338701 0.3125 0.3983004 1 1 1
v 0.41787 0.3125 0.2336995 1 1 1
v 0.4778418 0.5 0.2158081 1 1 1
v 0.543139 0.5 0.4421066 1 1 1
v -0.1 0.5 1 1 1 1
v -0.1139966 0.5 0.7484617 1 1 1
v -0.0375 0.3125 1 1 1 1
v 0.0460452 0.25 0.3446262 1 1 1
v 0.2379548 0.25 0.2873738 1 1 1
v 0.264621 0.3125 -0.1123921 1 1 1
v 0.1939915 0.3125 -0.2564561 1 1 1
v 0.2522505 0.5 -0.279164 1 1 1
v 0.3221473 0.5 -0.1368252 1 1 1
v -0.1672144 0.25 -0.1156674 1 1 1
v -0.09204208 0.25 0.03909291 1 1 1
v -0.3419915 0.3125 -0.04754389 1 1 1
v -0.264621 0.3125 0.1123921 1 1 1
v 0.481507 0.3125 0.453159 1 1 1
v 0.5859966 0.5 0.7075382 1 1 1
v -0.147139 0.5 0.5658934 1 1 1
v -0.05149724 0.3125 0.7448078 1 1 1
v 0.01921443 0.25 -0.1883326 1 1 1
v -0.0460452 0.25 -0.3446262 1 1 1
v -0.4002505 0.5 -0.02483604 1 1 1
v -0.3221473 0.5 0.1368252 1 1 1
v 0.2966111 0.25 0.4863162 1 1 1
v 0.335999 0.25 0.7221538 1 1 1
v 0.4002505 0.5 0.02483604 1 1 1
v -0.1938418 0.5 0.4161918 1 1 1
v -0.08550703 0.3125 0.554841 1 1 1
v 0.09938886 0.25 0.5216838 1 1 1
v 0.1360009 0.25 0.7338462 1 1 1
v 0.35 0.25 1 1 1 1
v 0.15 0.25 1 1 1 1
v -0.01921443 0.25 0.1883326 1 1 1
v -0.2966111 0.25 -0.4863162 1 1 1
v -0.481507 0.3125 -0.453159 1 1 1
v -0.5234973 0.3125 -0.7111921 1 1 1
v 0.0375 0.3125 -1 1 1 1
v 0.1139966 0.5 -0.7484617 1 1 1
v 0.05149724 0.3125 -0.7448078 1 1 1
v -0.5859966 0.5 -0.7075382 1 1 1
v 0.1338701 0.3125 -0.3983004 1 1 1
v -0.09938886 0.25 -0.5216838 1 1 1
v -0.543139 0.5 -0.4421066 1 1 1
v 0.08550703 0.3125 -0.554841 1 1 1
v -0.41787 0.3125 -0.2336995 1 1 1
v 0.147139 0.5 -0.5658934 1 1 1
v -0.4778418 0.5 -0.2158081 1 1 1
v -0.15 0.25 -1 1 1 1
v -0.2379548 0.25 -0.2873738 1 1 1
v -0.1360009 0.25 -0.7338462 1 1 1
v -0.35 0.25 -1 1 1 1
v -0.335999 0.25 -0.7221538 1 1 1
v -0.5375 0.3125 -1 1 1 1
v -0.6 0.5 -1 1 1 1
v 0.1938418 0.5 -0.4161918 1 1 1
v 0.1 0.5 -1 1 1 1
v -0.4602104 0 0.1954645 1 1 1
v -0.4602104 0.5 0.1954645 1 1 1
v -0.3920721 0 0.3336628 1 1 1
v -0.3920721 0.5 0.3336628 1 1 1
v 0.4602104 0.5 -0.1954645 1 1 1
v 0.4602104 0 -0.1954645 1 1 1
v 0.5400721 0.5 -0.0296628 1 1 1
v 0.5400721 0 -0.0296628 1 1 1
v -0.2639952 0 0.757231 1 1 1
v -0.2639952 0.5 0.757231 1 1 1
v -0.25 0 1 1 1 1
v -0.25 0.5 1 1 1 1
v 0.6910557 0.5 0.4155809 1 1 1
v 0.6910557 0 0.4155809 1 1 1
v 0.7359952 0.5 0.698769 1 1 1
v 0.7359952 0 0.698769 1 1 1
v -0.337774 0 0.4591312 1 1 1
v -0.337774 0.5 0.4591312 1 1 1
v -0.2950557 0 0.5924191 1 1 1
v -0.2950557 0.5 0.5924191 1 1 1
v 0.621774 0.5 0.1728688 1 1 1
v 0.621774 0 0.1728688 1 1 1
v 0.75 0 1 1 1 1
v 0.3920721 0 -0.3336628 1 1 1
v 0.337774 0 -0.4591312 1 1 1
v 0.2950557 9.023893E-17 -0.5924191 1 1 1
v 0.2639952 0 -0.757231 1 1 1
v 0.25 0 -1 1 1 1
v -0.75 0 -1 1 1 1
v -0.5400721 0 0.0296628 1 1 1
v -0.621774 0 -0.1728688 1 1 1
v -0.6910557 9.023893E-17 -0.4155809 1 1 1
v -0.7359952 0 -0.698769 1 1 1
v -0.5400721 0.5 0.0296628 1 1 1
v -0.621774 0.5 -0.1728688 1 1 1
v -0.75 0.5 -1 1 1 1
v -0.6910557 0.5 -0.4155809 1 1 1
v -0.7359952 0.5 -0.698769 1 1 1
v 0.75 0.5 1 1 1 1
v 0.3920721 0.5 -0.3336628 1 1 1
v 0.337774 0.5 -0.4591312 1 1 1
v 0.2950557 0.5 -0.5924191 1 1 1
v 0.2639952 0.5 -0.757231 1 1 1
v 0.25 0.5 -1 1 1 1

vn -0.6502817 0.7024208 0.2893765
vn -0.1491847 0.9865444 0.06688786
vn -0.1443516 0.9870319 0.07021973
vn -0.7133262 0.6999685 0.03478502
vn -0.7108338 0.6993558 0.07494357
vn -0.9475899 0.3162002 0.04572487
vn 0.8627124 0.3154702 -0.3952287
vn 0.6399846 0.7107034 -0.2920966
vn 0.6574253 0.7142379 -0.2401168
vn -0.6747438 0.6997777 0.2345888
vn -0.8963774 0.3165942 0.310283
vn -0.9255626 0.3167989 0.2072975
vn 0.9473642 0.3157881 -0.05271533
vn 0.9421461 0.3160118 -0.1117914
vn 0.6984719 0.7145986 -0.03854803
vn 0.1458491 0.9879303 -0.05217059
vn -0.1560825 0.9862083 0.05505728
vn -0.636448 0.7063664 0.3098072
vn -0.6399846 0.7107034 0.2920966
vn -0.8627124 0.3154702 0.3952287
vn -0.8531104 0.31572 0.4153595
vn 0.1491847 0.9865444 -0.06688786
vn 0.1443516 0.9870319 -0.07021973
vn 0.6502817 0.7024208 -0.2893765
vn 0.636448 0.7063664 -0.3098072
vn -0.6977997 0.6987948 0.1573579
vn -0.9434133 0.3167184 0.09828909
vn 0.9214137 0.3156377 -0.2266487
vn 0.6933444 0.7160405 -0.08099008
vn -0.1434008 0.9875431 0.0647677
vn -0.1458491 0.9879303 0.05217059
vn 0.8670968 0.3161617 -0.384948
vn 0.8531104 0.31572 -0.4153595
vn -0.1620197 0.9860794 0.03737707
vn -0.1649248 0.9861406 0.01807032
vn -0.8670968 0.3161617 0.384948
vn 0.8905189 0.315478 -0.327795
vn 0.6784026 0.7159436 -0.1649078
vn 0.1497344 0.9880973 -0.03526129
vn 0.15307 0.9880673 -0.01711062
vn -0.1651708 0.9862299 0.00832313
vn 0.154762 0.9879166 -0.008342051
vn 0.1434008 0.9875431 -0.0647677
vn 0.1620197 0.9860794 -0.03737707
vn 0.6977997 0.6987948 -0.1573579
vn 0.7108338 0.6993558 -0.07494357
vn -0.6984719 0.7145986 0.03854803
vn -0.9421461 0.3160118 0.1117914
vn -0.6933444 0.7160405 0.08099008
vn 0.9434133 0.3167184 -0.09828909
vn -0.6574253 0.7142379 0.2401168
vn -0.1497344 0.9880973 0.03526129
vn 0.9255626 0.3167989 -0.2072975
vn -0.6784026 0.7159436 0.1649078
vn 0.6747438 0.6997777 -0.2345888
vn -0.9214137 0.3156377 0.2266487
vn 0.8963774 0.3165942 -0.310283
vn -0.154762 0.9879166 0.008342051
vn 0.1560825 0.9862083 -0.05505728
vn -0.15307 0.9880673 0.01711062
vn 0.1651708 0.9862299 -0.00832313
vn 0.1649248 0.9861406 -0.01807032
vn 0.7133262 0.6999685 -0.03478502
vn 0.9475899 0.3162002 -0.04572487
vn -0.8905189 0.315478 0.327795
vn -0.9473642 0.3157881 0.05271533
vn -0.898931 0 0.4380903
vn -0.9076067 0 0.4198217
vn 0.898931 0 -0.4380903
vn 0.9146494 0 -0.404248
vn -0.9925758 0 0.1216281
vn -0.9983425 0 0.05755271
vn 0.9763933 0 -0.2160004
vn 0.9948108 0 -0.1017424
vn -0.9361466 0 0.3516101
vn -0.9693526 0 0.2456734
vn 0.9458007 0 -0.3247478
vn 0 -1 0
vn 0 1 0
vn 0 0 1
vn 0.998921 0 -0.0464417
vn 0 0 -1
vn 0.9693526 0 -0.2456734
vn 0.9361466 0 -0.3516101
vn -0.9458007 0 0.3247478
vn -0.9146494 0 0.404248
vn 0.9076067 0 -0.4198217
vn 0.9983425 0 -0.05755271
vn 0.9925758 0 -0.1216281
vn -0.998921 0 0.0464417
vn -0.9948108 0 0.1017424
vn -0.9763933 0 0.2160004

vt 0.28125 0.375
vt 0.90625 0.375

usemtl colormap

f 3/1/3 2/1/2 1/1/1
f 6/1/6 5/1/5 4/1/4
f 9/1/9 8/1/8 7/1/7
f 12/1/12 11/1/11 10/1/10
f 15/1/15 14/1/14 13/1/13
f 8/1/8 9/1/9 16/1/16
f 2/1/2 17/1/17 10/1/10
f 3/1/3 1/1/1 18/1/18
f 21/1/21 20/1/20 19/1/19
f 24/1/24 23/1/23 22/1/22
f 24/1/24 25/1/25 23/1/23
f 27/1/27 12/1/12 26/1/26
f 14/1/14 29/1/29 28/1/28
f 31/1/31 30/1/30 19/1/19
f 33/1/33 25/1/25 32/1/32
f 30/1/30 3/1/3 18/1/18
f 17/1/17 26/1/26 10/1/10
f 5/1/5 27/1/27 26/1/26
f 34/1/34 5/1/5 26/1/26
f 34/1/34 35/1/35 5/1/5
f 11/1/11 36/1/36 1/1/1
f 28/1/28 38/1/38 37/1/37
f 6/1/6 27/1/27 5/1/5
f 38/1/38 40/1/40 39/1/39
f 29/1/29 38/1/38 28/1/28
f 35/1/35 41/1/41 4/1/4
f 1/1/1 36/1/36 18/1/18
f 29/1/29 15/1/15 42/1/42
f 36/1/36 21/1/21 18/1/18
f 38/1/38 29/1/29 40/1/40
f 38/1/38 9/1/9 37/1/37
f 37/1/37 9/1/9 7/1/7
f 30/1/30 18/1/18 19/1/19
f 18/1/18 21/1/21 19/1/19
f 35/1/35 4/1/4 5/1/5
f 17/1/17 34/1/34 26/1/26
f 29/1/29 42/1/42 40/1/40
f 9/1/9 38/1/38 39/1/39
f 15/1/15 29/1/29 14/1/14
f 8/1/8 16/1/16 43/1/43
f 10/1/10 11/1/11 1/1/1
f 26/1/26 12/1/12 10/1/10
f 9/1/9 39/1/39 16/1/16
f 2/1/2 10/1/10 1/1/1
f 25/1/25 8/1/8 43/1/43
f 25/1/25 43/1/43 23/1/23
f 46/1/46 45/1/45 44/1/44
f 49/1/49 48/1/48 47/1/47
f 25/1/25 24/1/24 32/1/32
f 45/1/45 46/1/46 50/1/50
f 52/1/52 31/1/31 51/1/51
f 53/1/53 45/1/45 50/1/50
f 52/1/52 51/1/51 54/1/54
f 7/1/7 8/1/8 33/1/33
f 55/1/55 45/1/45 53/1/53
f 56/1/56 48/1/48 49/1/49
f 31/1/31 19/1/19 51/1/51
f 32/1/32 24/1/24 57/1/57
f 58/1/58 49/1/49 47/1/47
f 45/1/45 59/1/59 44/1/44
f 60/1/60 52/1/52 54/1/54
f 55/1/55 22/1/22 59/1/59
f 60/1/60 54/1/54 49/1/49
f 45/1/45 55/1/55 59/1/59
f 19/1/19 20/1/20 51/1/51
f 63/1/63 62/1/62 61/1/61
f 54/1/54 56/1/56 49/1/49
f 46/1/46 44/1/44 62/1/62
f 57/1/57 55/1/55 53/1/53
f 50/1/50 46/1/46 64/1/64
f 24/1/24 55/1/55 57/1/57
f 46/1/46 63/1/63 64/1/64
f 58/1/58 60/1/60 49/1/49
f 65/1/65 56/1/56 54/1/54
f 51/1/51 65/1/65 54/1/54
f 63/1/63 46/1/46 62/1/62
f 20/1/20 65/1/65 51/1/51
f 8/1/8 25/1/25 33/1/33
f 48/1/48 66/1/66 47/1/47
f 55/1/55 24/1/24 22/1/22
f 35/1/35 42/1/42 41/1/41
f 42/1/42 35/1/35 34/1/34
f 42/1/42 34/1/34 17/1/17
f 42/1/42 17/1/17 2/1/2
f 42/1/42 2/1/2 40/1/40
f 40/1/40 2/1/2 3/1/3
f 40/1/40 3/1/3 39/1/39
f 39/1/39 3/1/3 16/1/16
f 16/1/16 3/1/3 30/1/30
f 16/1/16 30/1/30 43/1/43
f 43/1/43 30/1/30 31/1/31
f 43/1/43 31/1/31 23/1/23
f 23/1/23 31/1/31 52/1/52
f 23/1/23 52/1/52 22/1/22
f 22/1/22 52/1/52 60/1/60
f 22/1/22 60/1/60 58/1/58
f 22/1/22 58/1/58 61/1/61
f 22/1/22 61/1/61 59/1/59
f 59/1/59 61/1/61 44/1/44
f 44/1/44 61/1/61 62/1/62
f 69/2/68 68/2/67 67/2/67
f 68/2/67 69/2/68 70/2/68
f 73/2/70 72/2/69 71/2/69
f 72/2/69 73/2/70 74/2/70
f 77/2/72 76/2/71 75/2/71
f 76/2/71 77/2/72 78/2/72
f 81/2/74 80/2/73 79/2/73
f 80/2/73 81/2/74 82/2/74
f 85/2/76 84/2/75 83/2/75
f 84/2/75 85/2/76 86/2/76
f 87/2/77 74/2/70 73/2/70
f 74/2/70 87/2/77 88/2/77
f 79/2/73 88/2/77 87/2/77
f 88/2/77 79/2/73 80/2/73
f 77/2/78 82/2/78 89/2/78
f 82/2/78 77/2/78 80/2/78
f 80/2/78 77/2/78 88/2/78
f 88/2/78 77/2/78 74/2/78
f 74/2/78 77/2/78 72/2/78
f 72/2/78 77/2/78 90/2/78
f 90/2/78 77/2/78 91/2/78
f 91/2/78 77/2/78 92/2/78
f 92/2/78 77/2/78 93/2/78
f 93/2/78 77/2/78 94/2/78
f 94/2/78 77/2/78 75/2/78
f 94/2/78 75/2/78 85/2/78
f 94/2/78 85/2/78 95/2/78
f 95/2/78 85/2/78 83/2/78
f 95/2/78 83/2/78 69/2/78
f 95/2/78 69/2/78 67/2/78
f 95/2/78 67/2/78 96/2/78
f 95/2/78 96/2/78 97/2/78
f 95/2/78 97/2/78 98/2/78
f 95/2/78 98/2/78 99/2/78
f 83/2/75 70/2/68 69/2/68
f 70/2/68 83/2/75 84/2/75
f 75/2/71 86/2/76 85/2/76
f 86/2/76 75/2/71 76/2/71
f 14/2/79 78/2/79 13/2/79
f 78/2/79 14/2/79 28/2/79
f 78/2/79 28/2/79 37/2/79
f 78/2/79 37/2/79 7/2/79
f 78/2/79 7/2/79 76/2/79
f 76/2/79 7/2/79 33/2/79
f 76/2/79 33/2/79 86/2/79
f 86/2/79 33/2/79 84/2/79
f 84/2/79 33/2/79 32/2/79
f 84/2/79 32/2/79 70/2/79
f 70/2/79 32/2/79 68/2/79
f 68/2/79 32/2/79 57/2/79
f 68/2/79 57/2/79 100/2/79
f 100/2/79 57/2/79 53/2/79
f 100/2/79 53/2/79 101/2/79
f 101/2/79 53/2/79 50/2/79
f 101/2/79 50/2/79 64/2/79
f 101/2/79 64/2/79 102/2/79
f 101/2/79 102/2/79 103/2/79
f 103/2/79 102/2/79 104/2/79
f 4/2/80 105/2/80 6/2/80
f 4/2/80 89/2/80 105/2/80
f 89/2/80 4/2/80 77/2/80
f 77/2/80 4/2/80 41/2/80
f 42/2/80 77/2/80 41/2/80
f 15/2/80 77/2/80 42/2/80
f 77/2/80 15/2/80 78/2/80
f 78/2/80 15/2/80 13/2/80
f 81/2/79 6/2/79 105/2/79
f 6/2/79 81/2/79 79/2/79
f 6/2/79 79/2/79 87/2/79
f 6/2/79 87/2/79 27/2/79
f 27/2/79 87/2/79 73/2/79
f 27/2/79 73/2/79 12/2/79
f 12/2/79 73/2/79 11/2/79
f 11/2/79 73/2/79 71/2/79
f 11/2/79 71/2/79 36/2/79
f 36/2/79 71/2/79 106/2/79
f 36/2/79 106/2/79 21/2/79
f 21/2/79 106/2/79 107/2/79
f 21/2/79 107/2/79 108/2/79
f 21/2/79 108/2/79 20/2/79
f 20/2/79 108/2/79 109/2/79
f 20/2/79 109/2/79 110/2/79
f 20/2/79 110/2/79 65/2/79
f 65/2/79 110/2/79 66/2/79
f 65/2/79 66/2/79 56/2/79
f 56/2/79 66/2/79 48/2/79
f 105/2/81 82/2/74 81/2/74
f 82/2/74 105/2/81 89/2/81
f 63/2/82 102/2/82 64/2/82
f 63/2/82 95/2/82 102/2/82
f 95/2/82 63/2/82 94/2/82
f 94/2/82 63/2/82 61/2/82
f 58/2/82 94/2/82 61/2/82
f 47/2/82 94/2/82 58/2/82
f 94/2/82 47/2/82 110/2/82
f 110/2/82 47/2/82 66/2/82
f 107/2/84 92/2/83 108/2/83
f 92/2/83 107/2/84 91/2/84
f 96/2/86 101/2/85 97/2/85
f 101/2/85 96/2/86 100/2/86
f 71/2/69 90/2/87 106/2/87
f 90/2/87 71/2/69 72/2/69
f 67/2/67 100/2/86 96/2/86
f 100/2/86 67/2/67 68/2/67
f 109/2/89 94/2/88 110/2/88
f 94/2/88 109/2/89 93/2/89
f 99/2/91 102/2/90 95/2/90
f 102/2/90 99/2/91 104/2/91
f 106/2/87 91/2/84 107/2/84
f 91/2/84 106/2/87 90/2/87
f 108/2/83 93/2/89 109/2/89
f 93/2/89 108/2/83 92/2/83
f 97/2/85 103/2/92 98/2/92
f 103/2/92 97/2/85 101/2/85
f 98/2/92 104/2/91 99/2/91
f 104/2/91 98/2/92 103/2/92

g s-curve-short-left-b




usemtl colormap

f 3/1/3 2/1/2 1/1/1
f 6/1/6 5/1/5 4/1/4
f 9/1/9 8/1/8 7/1/7
f 12/1/12 11/1/11 10/1/10
f 15/1/15 14/1/14 13/1/13
f 8/1/8 9/1/9 16/1/16
f 2/1/2 17/1/17 10/1/10
f 3/1/3 1/1/1 18/1/18
f 21/1/21 20/1/20 19/1/19
f 24/1/24 23/1/23 22/1/22
f 24/1/24 25/1/25 23/1/23
f 27/1/27 12/1/12 26/1/26
f 14/1/14 29/1/29 28/1/28
f 31/1/31 30/1/30 19/1/19
f 33/1/33 25/1/25 32/1/32
f 30/1/30 3/1/3 18/1/18
f 17/1/17 26/1/26 10/1/10
f 5/1/5 27/1/27 26/1/26
f 34/1/34 5/1/5 26/1/26
f 34/1/34 35/1/35 5/1/5
f 11/1/11 36/1/36 1/1/1
f 28/1/28 38/1/38 37/1/37
f 6/1/6 27/1/27 5/1/5
f 38/1/38 40/1/40 39/1/39
f 29/1/29 38/1/38 28/1/28
f 35/1/35 41/1/41 4/1/4
f 1/1/1 36/1/36 18/1/18
f 29/1/29 15/1/15 42/1/42
f 36/1/36 21/1/21 18/1/18
f 38/1/38 29/1/29 40/1/40
f 38/1/38 9/1/9 37/1/37
f 37/1/37 9/1/9 7/1/7
f 30/1/30 18/1/18 19/1/19
f 18/1/18 21/1/21 19/1/19
f 35/1/35 4/1/4 5/1/5
f 17/1/17 34/1/34 26/1/26
f 29/1/29 42/1/42 40/1/40
f 9/1/9 38/1/38 39/1/39
f 15/1/15 29/1/29 14/1/14
f 8/1/8 16/1/16 43/1/43
f 10/1/10 11/1/11 1/1/1
f 26/1/26 12/1/12 10/1/10
f 9/1/9 39/1/39 16/1/16
f 2/1/2 10/1/10 1/1/1
f 25/1/25 8/1/8 43/1/43
f 25/1/25 43/1/43 23/1/23
f 46/1/46 45/1/45 44/1/44
f 49/1/49 48/1/48 47/1/47
f 25/1/25 24/1/24 32/1/32
f 45/1/45 46/1/46 50/1/50
f 52/1/52 31/1/31 51/1/51
f 53/1/53 45/1/45 50/1/50
f 52/1/52 51/1/51 54/1/54
f 7/1/7 8/1/8 33/1/33
f 55/1/55 45/1/45 53/1/53
f 56/1/56 48/1/48 49/1/49
f 31/1/31 19/1/19 51/1/51
f 32/1/32 24/1/24 57/1/57
f 58/1/58 49/1/49 47/1/47
f 45/1/45 59/1/59 44/1/44
f 60/1/60 52/1/52 54/1/54
f 55/1/55 22/1/22 59/1/59
f 60/1/60 54/1/54 49/1/49
f 45/1/45 55/1/55 59/1/59
f 19/1/19 20/1/20 51/1/51
f 63/1/63 62/1/62 61/1/61
f 54/1/54 56/1/56 49/1/49
f 46/1/46 44/1/44 62/1/62
f 57/1/57 55/1/55 53/1/53
f 50/1/50 46/1/46 64/1/64
f 24/1/24 55/1/55 57/1/57
f 46/1/46 63/1/63 64/1/64
f 58/1/58 60/1/60 49/1/49
f 65/1/65 56/1/56 54/1/54
f 51/1/51 65/1/65 54/1/54
f 63/1/63 46/1/46 62/1/62
f 20/1/20 65/1/65 51/1/51
f 8/1/8 25/1/25 33/1/33
f 48/1/48 66/1/66 47/1/47
f 55/1/55 24/1/24 22/1/22
f 35/1/35 42/1/42 41/1/41
f 42/1/42 35/1/35 34/1/34
f 42/1/42 34/1/34 17/1/17
f 42/1/42 17/1/17 2/1/2
f 42/1/42 2/1/2 40/1/40
f 40/1/40 2/1/2 3/1/3
f 40/1/40 3/1/3 39/1/39
f 39/1/39 3/1/3 16/1/16
f 16/1/16 3/1/3 30/1/30
f 16/1/16 30/1/30 43/1/43
f 43/1/43 30/1/30 31/1/31
f 43/1/43 31/1/31 23/1/23
f 23/1/23 31/1/31 52/1/52
f 23/1/23 52/1/52 22/1/22
f 22/1/22 52/1/52 60/1/60
f 22/1/22 60/1/60 58/1/58
f 22/1/22 58/1/58 61/1/61
f 22/1/22 61/1/61 59/1/59
f 59/1/59 61/1/61 44/1/44
f 44/1/44 61/1/61 62/1/62
f 69/2/68 68/2/67 67/2/67
f 68/2/67 69/2/68 70/2/68
f 73/2/70 72/2/69 71/2/69
f 72/2/69 73/2/70 74/2/70
f 77/2/72 76/2/71 75/2/71
f 76/2/71 77/2/72 78/2/72
f 81/2/74 80/2/73 79/2/73
f 80/2/73 81/2/74 82/2/74
f 85/2/76 84/2/75 83/2/75
f 84/2/75 85/2/76 86/2/76
f 87/2/77 74/2/70 73/2/70
f 74/2/70 87/2/77 88/2/77
f 79/2/73 88/2/77 87/2/77
f 88/2/77 79/2/73 80/2/73
f 77/2/78 82/2/78 89/2/78
f 82/2/78 77/2/78 80/2/78
f 80/2/78 77/2/78 88/2/78
f 88/2/78 77/2/78 74/2/78
f 74/2/78 77/2/78 72/2/78
f 72/2/78 77/2/78 90/2/78
f 90/2/78 77/2/78 91/2/78
f 91/2/78 77/2/78 92/2/78
f 92/2/78 77/2/78 93/2/78
f 93/2/78 77/2/78 94/2/78
f 94/2/78 77/2/78 75/2/78
f 94/2/78 75/2/78 85/2/78
f 94/2/78 85/2/78 95/2/78
f 95/2/78 85/2/78 83/2/78
f 95/2/78 83/2/78 69/2/78
f 95/2/78 69/2/78 67/2/78
f 95/2/78 67/2/78 96/2/78
f 95/2/78 96/2/78 97/2/78
f 95/2/78 97/2/78 98/2/78
f 95/2/78 98/2/78 99/2/78
f 83/2/75 70/2/68 69/2/68
f 70/2/68 83/2/75 84/2/75
f 75/2/71 86/2/76 85/2/76
f 86/2/76 75/2/71 76/2/71
f 14/2/79 78/2/79 13/2/79
f 78/2/79 14/2/79 28/2/79
f 78/2/79 28/2/79 37/2/79
f 78/2/79 37/2/79 7/2/79
f 78/2/79 7/2/79 76/2/79
f 76/2/79 7/2/79 33/2/79
f 76/2/79 33/2/79 86/2/79
f 86/2/79 33/2/79 84/2/79
f 84/2/79 33/2/79 32/2/79
f 84/2/79 32/2/79 70/2/79
f 70/2/79 32/2/79 68/2/79
f 68/2/79 32/2/79 57/2/79
f 68/2/79 57/2/79 100/2/79
f 100/2/79 57/2/79 53/2/79
f 100/2/79 53/2/79 101/2/79
f 101/2/79 53/2/79 50/2/79
f 101/2/79 50/2/79 64/2/79
f 101/2/79 64/2/79 102/2/79
f 101/2/79 102/2/79 103/2/79
f 103/2/79 102/2/79 104/2/79
f 4/2/80 105/2/80 6/2/80
f 4/2/80 89/2/80 105/2/80
f 89/2/80 4/2/80 77/2/80
f 77/2/80 4/2/80 41/2/80
f 42/2/80 77/2/80 41/2/80
f 15/2/80 77/2/80 42/2/80
f 77/2/80 15/2/80 78/2/80
f 78/2/80 15/2/80 13/2/80
f 81/2/79 6/2/79 105/2/79
f 6/2/79 81/2/79 79/2/79
f 6/2/79 79/2/79 87/2/79
f 6/2/79 87/2/79 27/2/79
f 27/2/79 87/2/79 73/2/79
f 27/2/79 73/2/79 12/2/79
f 12/2/79 73/2/79 11/2/79
f 11/2/79 73/2/79 71/2/79
f 11/2/79 71/2/79 36/2/79
f 36/2/79 71/2/79 106/2/79
f 36/2/79 106/2/79 21/2/79
f 21/2/79 106/2/79 107/2/79
f 21/2/79 107/2/79 108/2/79
f 21/2/79 108/2/79 20/2/79
f 20/2/79 108/2/79 109/2/79
f 20/2/79 109/2/79 110/2/79
f 20/2/79 110/2/79 65/2/79
f 65/2/79 110/2/79 66/2/79
f 65/2/79 66/2/79 56/2/79
f 56/2/79 66/2/79 48/2/79
f 105/2/81 82/2/74 81/2/74
f 82/2/74 105/2/81 89/2/81
f 63/2/82 102/2/82 64/2/82
f 63/2/82 95/2/82 102/2/82
f 95/2/82 63/2/82 94/2/82
f 94/2/82 63/2/82 61/2/82
f 58/2/82 94/2/82 61/2/82
f 47/2/82 94/2/82 58/2/82
f 94/2/82 47/2/82 110/2/82
f 110/2/82 47/2/82 66/2/82
f 107/2/84 92/2/83 108/2/83
f 92/2/83 107/2/84 91/2/84
f 96/2/86 101/2/85 97/2/85
f 101/2/85 96/2/86 100/2/86
f 71/2/69 90/2/87 106/2/87
f 90/2/87 71/2/69 72/2/69
f 67/2/67 100/2/86 96/2/86
f 100/2/86 67/2/67 68/2/67
f 109/2/89 94/2/88 110/2/88
f 94/2/88 109/2/89 93/2/89
f 99/2/91 102/2/90 95/2/90
f 102/2/90 99/2/91 104/2/91
f 106/2/87 91/2/84 107/2/84
f 91/2/84 106/2/87 90/2/87
f 108/2/83 93/2/89 109/2/89
f 93/2/89 108/2/83 92/2/83
f 97/2/85 103/2/92 98/2/92
f 103/2/92 97/2/85 101/2/85
f 98/2/92 104/2/91 99/2/91
f 104/2/91 98/2/92 103/2/92

