# Created by Kenney (www.kenney.nl)

mtllib s-curve-right.mtl

g s-curve-right

v 1.228029 0 0.1003983 1 1 1
v 0.7719712 0 0.3637033 1 1 1
v 1.228029 0.5 0.1003983 1 1 1
v 0.7719712 0.5 0.3637033 1 1 1
v 2 0.5 -1.5 1 1 1
v 2 0 -1.5 1 1 1
v 2 0.5 -1.236695 1 1 1
v 2 0 -1.236695 1 1 1
v 1.15 0.5 -1.3486 1 1 1
v 1.071629 0.5 -1.056117 1 1 1
v 1.15 0.5 -1.5 1 1 1
v 1 0.5 -1.5 1 1 1
v 1 0.5 -1.368348 1 1 1
v 0.920229 0.5 -0.7938834 1 1 1
v 0.9318516 0.5 -1.114014 1 1 1
v 0.8001992 0.5 -0.8859856 1 1 1
v 0.7061166 0.5 -0.5797709 1 1 1
v 0.6140144 0.5 -0.6998008 1 1 1
v 0.4438834 0.5 -0.4283706 1 1 1
v 0.3859856 0.5 -0.5681484 1 1 1
v 0.1514004 0.5 -0.35 1 1 1
v 0.1316525 0.5 -0.5 1 1 1
v -0.2435571 0.5 -0.35 1 1 1
v -0.263305 0.5 -0.5 1 1 1
v -0.7140733 0.5 -0.2239255 1 1 1
v -0.7719712 0.5 -0.3637033 1 1 1
v -1.135927 0.5 0.01963156 1 1 1
v -1.228029 0.5 -0.1003983 1 1 1
v -1.480368 0.5 0.3640733 1 1 1
v -1.600398 0.5 0.2719712 1 1 1
v -1.723926 0.5 0.7859266 1 1 1
v -1.863703 0.5 0.7280288 1 1 1
v -1.85 0.5 1.256443 1 1 1
v -2 0.5 1.5 1 1 1
v -2 0.5 1.236695 1 1 1
v -1.85 0.5 1.5 1 1 1
v 0.9318516 0 -1.114014 1 1 1
v 0.8001992 0 -0.8859856 1 1 1
v 0.3859856 0 -0.5681484 1 1 1
v 0.6140144 0 -0.6998008 1 1 1
v 1 0 -1.5 1 1 1
v 1 0 -1.368348 1 1 1
v -0.8001992 0.5 0.8859856 1 1 1
v -0.8001992 0 0.8859856 1 1 1
v -0.9318516 0.5 1.114014 1 1 1
v -0.9318516 0 1.114014 1 1 1
v 1.2125 0.3125 -1.5 1 1 1
v 1.4 0.25 -1.5 1 1 1
v 1.6 0.25 -1.5 1 1 1
v 1.7875 0.3125 -1.5 1 1 1
v 1.85 0.5 -1.5 1 1 1
v 1.863703 0.5 -0.7280288 1 1 1
v 1.85 0.5 -1.256443 1 1 1
v 1.600398 0.5 -0.2719712 1 1 1
v 1.723926 0.5 -0.7859266 1 1 1
v 1.480368 0.5 -0.3640733 1 1 1
v 1.135927 0.5 -0.01963156 1 1 1
v 0.7140733 0.5 0.2239255 1 1 1
v 0.263305 0.5 0.5 1 1 1
v 0.2435571 0.5 0.35 1 1 1
v -0.1316525 0.5 0.5 1 1 1
v -0.1514004 0.5 0.35 1 1 1
v -0.3859856 0.5 0.5681484 1 1 1
v -0.4438834 0.5 0.4283706 1 1 1
v -0.6140144 0.5 0.6998008 1 1 1
v -0.7061166 0.5 0.5797709 1 1 1
v -0.920229 0.5 0.7938834 1 1 1
v -1.071629 0.5 1.056117 1 1 1
v -1 0.5 1.368348 1 1 1
v -1 0.5 1.5 1 1 1
v -1.15 0.5 1.5 1 1 1
v -1.15 0.5 1.3486 1 1 1
v 1.863703 0 -0.7280288 1 1 1
v 1.600398 0 -0.2719712 1 1 1
v 0.263305 0 0.5 1 1 1
v -0.7719712 0 -0.3637033 1 1 1
v -0.263305 0 -0.5 1 1 1
v -1 0 1.5 1 1 1
v -1 0 1.368348 1 1 1
v -2 0 1.5 1 1 1
v -1.228029 0 -0.1003983 1 1 1
v -1.600398 0 0.2719712 1 1 1
v -1.863703 0 0.7280288 1 1 1
v -2 0 1.236695 1 1 1
v -0.6140144 0 0.6998008 1 1 1
v -0.3859856 0 0.5681484 1 1 1
v -0.1316525 0 0.5 1 1 1
v 0.1316525 0 -0.5 1 1 1
v -1.2125 0.3125 1.5 1 1 1
v -1.4 0.25 1.5 1 1 1
v -1.6 0.25 1.5 1 1 1
v -1.7875 0.3125 1.5 1 1 1
v 1.2125 0.3125 -1.340371 1 1 1
v 1.12987 0.3125 -1.031992 1 1 1
v -0.210644 0.25 -0.1 1 1 1
v -0.617577 0.25 0.009037356 1 1 1
v -0.2353288 0.3125 -0.2875 1 1 1
v -0.6899493 0.3125 -0.1656848 1 1 1
v 0.7444925 0.3125 -0.5297585 1 1 1
v 0.4680075 0.3125 -0.3701299 1 1 1
v 1.7875 0.3125 -1.264671 1 1 1
v 1.6 0.25 -1.289356 1 1 1
v -0.1596286 0.3125 0.2875 1 1 1
v 0.2353288 0.3125 0.2875 1 1 1
v 1.097551 0.3125 -0.06964401 1 1 1
v 0.6899493 0.3125 0.1656848 1 1 1
v 0.9824231 0.25 -0.2196814 1 1 1
v 0.617577 0.25 -0.009037356 1 1 1
v 0.8596202 0.25 -0.3797212 1 1 1
v 0.5403798 0.25 -0.1954077 1 1 1
v 1.490963 0.25 -0.882423 1 1 1
v 1.4 0.25 -1.315686 1 1 1
v 1.280319 0.25 -0.5175769 1 1 1
v 1.304592 0.25 -0.9596202 1 1 1
v 1.120279 0.25 -0.6403798 1 1 1
v 0.210644 0.25 0.1 1 1 1
v 0.1843135 0.25 -0.1 1 1 1
v -0.1843135 0.25 0.1 1 1 1
v -0.5403798 0.25 0.1954077 1 1 1
v -0.8596202 0.25 0.3797212 1 1 1
v -0.9824231 0.25 0.2196814 1 1 1
v -1.120279 0.25 0.6403798 1 1 1
v -1.280319 0.25 0.5175769 1 1 1
v -1.304592 0.25 0.9596202 1 1 1
v -1.490963 0.25 0.882423 1 1 1
v -1.4 0.25 1.315686 1 1 1
v -1.6 0.25 1.289356 1 1 1
v 1.665685 0.3125 -0.8100507 1 1 1
v 1.430356 0.3125 -0.4024493 1 1 1
v 0.9702414 0.3125 -0.7555075 1 1 1
v -0.4680075 0.3125 0.3701299 1 1 1
v -1.430356 0.3125 0.4024493 1 1 1
v -1.665685 0.3125 0.8100507 1 1 1
v 0.1596286 0.3125 -0.2875 1 1 1
v -0.7444925 0.3125 0.5297585 1 1 1
v -0.9702414 0.3125 0.7555075 1 1 1
v -1.12987 0.3125 1.031992 1 1 1
v -1.2125 0.3125 1.340371 1 1 1
v -1.097551 0.3125 0.06964401 1 1 1
v -1.7875 0.3125 1.264671 1 1 1

vn 0.6087614 0 0.7933533
vn 0.3826834 0 0.9238795
vn 1 0 0
vn 0.9914449 0 0.1305262
vn 0 1 0
vn -0.9238795 0 -0.3826834
vn -0.7933533 0 -0.6087614
vn -0.3826834 0 -0.9238795
vn -0.6087614 0 -0.7933533
vn -1 0 0
vn -0.9914449 0 -0.1305262
vn 0.7933533 0 0.6087614
vn 0.9238795 0 0.3826834
vn 0 0 -1
vn 0.1305262 0 0.9914449
vn -0.1305262 0 -0.9914449
vn 0 -1 0
vn 0 0 1
vn 0.9397532 0.3186805 0.1237208
vn 0.6797101 0.7280018 0.08948553
vn 0.8757104 0.3186804 0.3627311
vn 0.633389 0.7280018 0.2623583
vn 0.02242002 0.9851377 0.170297
vn 0.06573217 0.9851377 0.1586915
vn 0.09437736 0.6907926 0.7168672
vn 0.2767004 0.6907926 0.6680139
vn 0.4173518 0.7280018 0.5439035
vn 0.2623583 0.7280018 0.6333889
vn 0.577022 0.3186804 0.7519897
vn 0.3627311 0.3186804 0.8757104
vn -0.7168672 0.6907926 -0.09437736
vn -0.170297 0.9851377 -0.02242002
vn -0.7071068 0.7071068 0
vn -0.1601822 0.9870875 0
vn -0.08948553 0.7280018 -0.6797101
vn -0.09437736 0.6907926 -0.7168672
vn -0.1237209 0.3186804 -0.9397532
vn -0.4401667 0.6907925 -0.5736365
vn -0.2767004 0.6907926 -0.6680139
vn -0.1045648 0.9851377 -0.1362715
vn -0.06573217 0.9851377 -0.1586915
vn 0.08885183 0.9892913 0.115794
vn 0.0558546 0.9892913 0.1348449
vn 0.7071068 0.7071068 0
vn 0.9486833 0.3162278 0
vn -0.1586915 0.9851377 -0.06573217
vn 0.1601822 0.9870875 0
vn 0.1447064 0.9892913 0.01905096
vn -0.1362715 0.9851377 -0.1045648
vn 0.1348449 0.9892913 0.0558546
vn 0.115794 0.9892913 0.08885183
vn -0.02242002 0.9851377 -0.170297
vn 0.01905096 0.9892913 0.1447064
vn -0.01905096 0.9892913 -0.1447064
vn -0.0558546 0.9892913 -0.1348449
vn -0.08885183 0.9892913 -0.115794
vn 0.1045648 0.9851377 0.1362715
vn -0.115794 0.9892913 -0.08885183
vn 0.1362715 0.9851377 0.1045648
vn -0.1348449 0.9892913 -0.0558546
vn 0.1586915 0.9851377 0.06573217
vn -0.1447064 0.9892913 -0.01905096
vn 0.170297 0.9851377 0.02242002
vn -0.3627311 0.3186804 -0.8757104
vn -0.577022 0.3186804 -0.7519897
vn -0.6680139 0.6907926 -0.2767004
vn -0.5736365 0.6907925 -0.4401667
vn 0.5439035 0.7280018 0.4173518
vn 0.7519897 0.3186804 0.577022
vn -0.7519897 0.3186804 -0.577022
vn -0.2623583 0.7280018 -0.6333889
vn 0.1237209 0.3186804 0.9397532
vn 0.5736365 0.6907925 0.4401667
vn 0.6680139 0.6907926 0.2767004
vn 0.08948553 0.7280018 0.6797101
vn -0.9397532 0.3186805 -0.1237208
vn -0.8757104 0.3186804 -0.3627311
vn -0.9486833 0.3162278 0
vn -0.4173518 0.7280018 -0.5439035
vn -0.5439035 0.7280018 -0.4173518
vn -0.633389 0.7280018 -0.2623583
vn -0.6797101 0.7280018 -0.08948553
vn 0.4401667 0.6907925 0.5736365
vn 0.7168672 0.6907926 0.09437736

vt 0.90625 0.375
vt 0.28125 0.375

usemtl colormap

f 3/1/1 2/1/2 1/1/1
f 2/1/2 3/1/1 4/1/2
f 7/1/4 6/1/3 5/1/3
f 6/1/3 7/1/4 8/1/4
f 11/1/5 10/1/5 9/1/5
f 10/1/5 11/1/5 12/1/5
f 10/1/5 12/1/5 13/1/5
f 10/1/5 13/1/5 14/1/5
f 14/1/5 13/1/5 15/1/5
f 14/1/5 15/1/5 16/1/5
f 14/1/5 16/1/5 17/1/5
f 17/1/5 16/1/5 18/1/5
f 17/1/5 18/1/5 19/1/5
f 19/1/5 18/1/5 20/1/5
f 19/1/5 20/1/5 21/1/5
f 21/1/5 20/1/5 22/1/5
f 21/1/5 22/1/5 23/1/5
f 23/1/5 22/1/5 24/1/5
f 23/1/5 24/1/5 25/1/5
f 25/1/5 24/1/5 26/1/5
f 25/1/5 26/1/5 27/1/5
f 27/1/5 26/1/5 28/1/5
f 27/1/5 28/1/5 29/1/5
f 29/1/5 28/1/5 30/1/5
f 29/1/5 30/1/5 31/1/5
f 31/1/5 30/1/5 32/1/5
f 31/1/5 32/1/5 33/1/5
f 34/1/5 33/1/5 32/1/5
f 34/1/5 32/1/5 35/1/5
f 33/1/5 34/1/5 36/1/5
f 38/1/7 15/1/6 37/1/6
f 15/1/6 38/1/7 16/1/7
f 20/1/8 40/1/9 39/1/8
f 40/1/9 20/1/8 18/1/9
f 18/1/9 38/1/7 40/1/9
f 38/1/7 18/1/9 16/1/7
f 42/1/11 12/1/10 41/1/10
f 12/1/10 42/1/11 13/1/11
f 45/1/13 44/1/12 43/1/12
f 44/1/12 45/1/13 46/1/13
f 47/1/14 12/1/14 11/1/14
f 47/1/14 41/1/14 12/1/14
f 41/1/14 47/1/14 6/1/14
f 6/1/14 47/1/14 48/1/14
f 49/1/14 6/1/14 48/1/14
f 50/1/14 6/1/14 49/1/14
f 6/1/14 50/1/14 5/1/14
f 5/1/14 50/1/14 51/1/14
f 5/1/5 52/1/5 7/1/5
f 52/1/5 5/1/5 51/1/5
f 52/1/5 51/1/5 53/1/5
f 53/1/5 54/1/5 52/1/5
f 54/1/5 53/1/5 55/1/5
f 54/1/5 55/1/5 56/1/5
f 54/1/5 56/1/5 3/1/5
f 3/1/5 56/1/5 57/1/5
f 3/1/5 57/1/5 4/1/5
f 4/1/5 57/1/5 58/1/5
f 4/1/5 58/1/5 59/1/5
f 59/1/5 58/1/5 60/1/5
f 59/1/5 60/1/5 61/1/5
f 61/1/5 60/1/5 62/1/5
f 61/1/5 62/1/5 63/1/5
f 63/1/5 62/1/5 64/1/5
f 63/1/5 64/1/5 65/1/5
f 65/1/5 64/1/5 66/1/5
f 65/1/5 66/1/5 43/1/5
f 43/1/5 66/1/5 67/1/5
f 43/1/5 67/1/5 45/1/5
f 45/1/5 67/1/5 68/1/5
f 45/1/5 68/1/5 69/1/5
f 69/1/5 68/1/5 70/1/5
f 70/1/5 68/1/5 71/1/5
f 71/1/5 68/1/5 72/1/5
f 52/1/13 8/1/4 7/1/4
f 8/1/4 52/1/13 73/1/13
f 54/1/12 73/1/13 52/1/13
f 73/1/13 54/1/12 74/1/12
f 4/1/2 75/1/15 2/1/2
f 75/1/15 4/1/2 59/1/15
f 37/1/6 13/1/11 42/1/11
f 13/1/11 37/1/6 15/1/6
f 3/1/1 74/1/12 54/1/12
f 74/1/12 3/1/1 1/1/1
f 26/1/8 77/1/16 76/1/8
f 77/1/16 26/1/8 24/1/16
f 80/1/17 79/1/17 78/1/17
f 79/1/17 80/1/17 81/1/17
f 81/1/17 46/1/17 79/1/17
f 81/1/17 44/1/17 46/1/17
f 81/1/17 80/1/17 82/1/17
f 82/1/17 80/1/17 83/1/17
f 83/1/17 80/1/17 84/1/17
f 76/1/17 44/1/17 81/1/17
f 76/1/17 85/1/17 44/1/17
f 76/1/17 86/1/17 85/1/17
f 77/1/17 86/1/17 76/1/17
f 77/1/17 87/1/17 86/1/17
f 88/1/17 87/1/17 77/1/17
f 88/1/17 75/1/17 87/1/17
f 39/1/17 75/1/17 88/1/17
f 40/1/17 75/1/17 39/1/17
f 40/1/17 2/1/17 75/1/17
f 38/1/17 2/1/17 40/1/17
f 37/1/17 2/1/17 38/1/17
f 42/1/17 2/1/17 37/1/17
f 2/1/17 42/1/17 1/1/17
f 41/1/17 1/1/17 42/1/17
f 41/1/17 74/1/17 1/1/17
f 41/1/17 73/1/17 74/1/17
f 6/1/17 73/1/17 41/1/17
f 73/1/17 6/1/17 8/1/17
f 22/1/16 39/1/8 88/1/16
f 39/1/8 22/1/16 20/1/8
f 24/1/16 88/1/16 77/1/16
f 88/1/16 24/1/16 22/1/16
f 59/1/15 87/1/15 75/1/15
f 87/1/15 59/1/15 61/1/15
f 83/1/6 30/1/7 82/1/7
f 30/1/7 83/1/6 32/1/6
f 28/1/9 76/1/8 81/1/9
f 76/1/8 28/1/9 26/1/8
f 61/1/15 86/1/2 87/1/15
f 86/1/2 61/1/15 63/1/2
f 84/1/11 32/1/6 83/1/6
f 32/1/6 84/1/11 35/1/11
f 82/1/7 28/1/9 81/1/9
f 28/1/9 82/1/7 30/1/7
f 65/1/1 44/1/12 85/1/1
f 44/1/12 65/1/1 43/1/12
f 80/1/10 35/1/11 84/1/11
f 35/1/11 80/1/10 34/1/10
f 69/1/4 46/1/13 45/1/13
f 46/1/13 69/1/4 79/1/4
f 70/1/3 79/1/4 69/1/4
f 79/1/4 70/1/3 78/1/3
f 89/1/18 70/1/18 71/1/18
f 89/1/18 78/1/18 70/1/18
f 78/1/18 89/1/18 80/1/18
f 80/1/18 89/1/18 90/1/18
f 91/1/18 80/1/18 90/1/18
f 92/1/18 80/1/18 91/1/18
f 80/1/18 92/1/18 34/1/18
f 34/1/18 92/1/18 36/1/18
f 63/1/2 85/1/1 86/1/2
f 85/1/1 63/1/2 65/1/1
f 10/2/21 93/2/20 9/2/19
f 93/2/20 10/2/21 94/2/22
f 97/2/25 96/2/24 95/2/23
f 96/2/24 97/2/25 98/2/26
f 17/2/29 100/2/28 99/2/27
f 100/2/28 17/2/29 19/2/30
f 50/2/33 102/2/32 101/2/31
f 102/2/32 50/2/33 49/2/34
f 62/2/37 104/2/36 103/2/35
f 104/2/36 62/2/37 60/2/37
f 107/2/40 106/2/39 105/2/38
f 106/2/39 107/2/40 108/2/41
f 99/2/27 110/2/43 109/2/42
f 110/2/43 99/2/27 100/2/28
f 11/2/45 93/2/20 47/2/44
f 93/2/20 11/2/45 9/2/19
f 49/2/34 111/2/46 102/2/32
f 111/2/46 49/2/34 48/2/47
f 111/2/46 48/2/47 112/2/48
f 112/2/48 113/2/49 111/2/46
f 113/2/49 112/2/48 114/2/50
f 113/2/49 114/2/50 115/2/51
f 113/2/49 115/2/51 107/2/40
f 107/2/40 115/2/51 109/2/42
f 107/2/40 109/2/42 108/2/41
f 108/2/41 109/2/42 110/2/43
f 108/2/41 110/2/43 116/2/52
f 116/2/52 110/2/43 117/2/53
f 116/2/52 117/2/53 118/2/54
f 118/2/54 117/2/53 95/2/23
f 118/2/54 95/2/23 119/2/55
f 119/2/55 95/2/23 96/2/24
f 119/2/55 96/2/24 120/2/56
f 120/2/56 96/2/24 121/2/57
f 120/2/56 121/2/57 122/2/58
f 122/2/58 121/2/57 123/2/59
f 122/2/58 123/2/59 124/2/60
f 124/2/60 123/2/59 125/2/61
f 124/2/60 125/2/61 126/2/62
f 91/2/47 126/2/62 125/2/61
f 91/2/47 125/2/61 127/2/63
f 126/2/62 91/2/47 90/2/34
f 108/2/41 104/2/36 106/2/39
f 104/2/36 108/2/41 116/2/52
f 58/2/64 105/2/38 106/2/39
f 105/2/38 58/2/64 57/2/65
f 48/2/47 93/2/20 112/2/48
f 93/2/20 48/2/47 47/2/44
f 102/2/32 128/2/66 101/2/31
f 128/2/66 102/2/32 111/2/46
f 111/2/46 129/2/67 128/2/66
f 129/2/67 111/2/46 113/2/49
f 94/2/22 115/2/51 114/2/50
f 115/2/51 94/2/22 130/2/68
f 130/2/68 109/2/42 115/2/51
f 109/2/42 130/2/68 99/2/27
f 14/2/69 99/2/27 130/2/68
f 99/2/27 14/2/69 17/2/29
f 105/2/38 56/2/70 129/2/67
f 56/2/70 105/2/38 57/2/65
f 64/2/64 103/2/35 131/2/71
f 103/2/35 64/2/64 62/2/37
f 14/2/69 94/2/22 10/2/21
f 94/2/22 14/2/69 130/2/68
f 23/2/72 98/2/26 97/2/25
f 98/2/26 23/2/72 25/2/30
f 31/2/21 132/2/73 29/2/69
f 132/2/73 31/2/21 133/2/74
f 134/2/75 95/2/23 117/2/53
f 95/2/23 134/2/75 97/2/25
f 113/2/49 105/2/38 129/2/67
f 105/2/38 113/2/49 107/2/40
f 128/2/66 53/2/76 101/2/31
f 53/2/76 128/2/66 55/2/77
f 118/2/54 131/2/71 103/2/35
f 131/2/71 118/2/54 119/2/55
f 60/2/37 106/2/39 104/2/36
f 106/2/39 60/2/37 58/2/64
f 93/2/20 114/2/50 112/2/48
f 114/2/50 93/2/20 94/2/22
f 50/2/33 53/2/76 51/2/78
f 53/2/76 50/2/33 101/2/31
f 100/2/28 117/2/53 110/2/43
f 117/2/53 100/2/28 134/2/75
f 129/2/67 55/2/77 128/2/66
f 55/2/77 129/2/67 56/2/70
f 21/2/72 97/2/25 134/2/75
f 97/2/25 21/2/72 23/2/72
f 19/2/30 134/2/75 100/2/28
f 134/2/75 19/2/30 21/2/72
f 116/2/52 103/2/35 104/2/36
f 103/2/35 116/2/52 118/2/54
f 120/2/56 136/2/80 135/2/79
f 136/2/80 120/2/56 122/2/58
f 124/2/60 138/2/82 137/2/81
f 138/2/82 124/2/60 126/2/62
f 89/2/33 72/2/76 138/2/82
f 72/2/76 89/2/33 71/2/78
f 138/2/82 90/2/34 89/2/33
f 90/2/34 138/2/82 126/2/62
f 139/2/83 123/2/59 121/2/57
f 123/2/59 139/2/83 132/2/73
f 137/2/81 67/2/70 136/2/80
f 67/2/70 137/2/81 68/2/77
f 27/2/29 132/2/73 139/2/83
f 132/2/73 27/2/29 29/2/69
f 138/2/82 68/2/77 137/2/81
f 68/2/77 138/2/82 72/2/76
f 25/2/30 139/2/83 98/2/26
f 139/2/83 25/2/30 27/2/29
f 33/2/19 133/2/74 31/2/21
f 133/2/74 33/2/19 140/2/84
f 122/2/58 137/2/81 136/2/80
f 137/2/81 122/2/58 124/2/60
f 127/2/63 92/2/44 91/2/47
f 92/2/44 127/2/63 140/2/84
f 98/2/26 121/2/57 96/2/24
f 121/2/57 98/2/26 139/2/83
f 119/2/55 135/2/79 131/2/71
f 135/2/79 119/2/55 120/2/56
f 132/2/73 125/2/61 123/2/59
f 125/2/61 132/2/73 133/2/74
f 66/2/65 131/2/71 135/2/79
f 131/2/71 66/2/65 64/2/64
f 67/2/70 135/2/79 136/2/80
f 135/2/79 67/2/70 66/2/65
f 36/2/45 140/2/84 33/2/19
f 140/2/84 36/2/45 92/2/44
f 133/2/74 127/2/63 125/2/61
f 127/2/63 133/2/74 140/2/84

g s-curve-right




usemtl colormap

f 3/1/1 2/1/2 1/1/1
f 2/1/2 3/1/1 4/1/2
f 7/1/4 6/1/3 5/1/3
f 6/1/3 7/1/4 8/1/4
f 11/1/5 10/1/5 9/1/5
f 10/1/5 11/1/5 12/1/5
f 10/1/5 12/1/5 13/1/5
f 10/1/5 13/1/5 14/1/5
f 14/1/5 13/1/5 15/1/5
f 14/1/5 15/1/5 16/1/5
f 14/1/5 16/1/5 17/1/5
f 17/1/5 16/1/5 18/1/5
f 17/1/5 18/1/5 19/1/5
f 19/1/5 18/1/5 20/1/5
f 19/1/5 20/1/5 21/1/5
f 21/1/5 20/1/5 22/1/5
f 21/1/5 22/1/5 23/1/5
f 23/1/5 22/1/5 24/1/5
f 23/1/5 24/1/5 25/1/5
f 25/1/5 24/1/5 26/1/5
f 25/1/5 26/1/5 27/1/5
f 27/1/5 26/1/5 28/1/5
f 27/1/5 28/1/5 29/1/5
f 29/1/5 28/1/5 30/1/5
f 29/1/5 30/1/5 31/1/5
f 31/1/5 30/1/5 32/1/5
f 31/1/5 32/1/5 33/1/5
f 34/1/5 33/1/5 32/1/5
f 34/1/5 32/1/5 35/1/5
f 33/1/5 34/1/5 36/1/5
f 38/1/7 15/1/6 37/1/6
f 15/1/6 38/1/7 16/1/7
f 20/1/8 40/1/9 39/1/8
f 40/1/9 20/1/8 18/1/9
f 18/1/9 38/1/7 40/1/9
f 38/1/7 18/1/9 16/1/7
f 42/1/11 12/1/10 41/1/10
f 12/1/10 42/1/11 13/1/11
f 45/1/13 44/1/12 43/1/12
f 44/1/12 45/1/13 46/1/13
f 47/1/14 12/1/14 11/1/14
f 47/1/14 41/1/14 12/1/14
f 41/1/14 47/1/14 6/1/14
f 6/1/14 47/1/14 48/1/14
f 49/1/14 6/1/14 48/1/14
f 50/1/14 6/1/14 49/1/14
f 6/1/14 50/1/14 5/1/14
f 5/1/14 50/1/14 51/1/14
f 5/1/5 52/1/5 7/1/5
f 52/1/5 5/1/5 51/1/5
f 52/1/5 51/1/5 53/1/5
f 53/1/5 54/1/5 52/1/5
f 54/1/5 53/1/5 55/1/5
f 54/1/5 55/1/5 56/1/5
f 54/1/5 56/1/5 3/1/5
f 3/1/5 56/1/5 57/1/5
f 3/1/5 57/1/5 4/1/5
f 4/1/5 57/1/5 58/1/5
f 4/1/5 58/1/5 59/1/5
f 59/1/5 58/1/5 60/1/5
f 59/1/5 60/1/5 61/1/5
f 61/1/5 60/1/5 62/1/5
f 61/1/5 62/1/5 63/1/5
f 63/1/5 62/1/5 64/1/5
f 63/1/5 64/1/5 65/1/5
f 65/1/5 64/1/5 66/1/5
f 65/1/5 66/1/5 43/1/5
f 43/1/5 66/1/5 67/1/5
f 43/1/5 67/1/5 45/1/5
f 45/1/5 67/1/5 68/1/5
f 45/1/5 68/1/5 69/1/5
f 69/1/5 68/1/5 70/1/5
f 70/1/5 68/1/5 71/1/5
f 71/1/5 68/1/5 72/1/5
f 52/1/13 8/1/4 7/1/4
f 8/1/4 52/1/13 73/1/13
f 54/1/12 73/1/13 52/1/13
f 73/1/13 54/1/12 74/1/12
f 4/1/2 75/1/15 2/1/2
f 75/1/15 4/1/2 59/1/15
f 37/1/6 13/1/11 42/1/11
f 13/1/11 37/1/6 15/1/6
f 3/1/1 74/1/12 54/1/12
f 74/1/12 3/1/1 1/1/1
f 26/1/8 77/1/16 76/1/8
f 77/1/16 26/1/8 24/1/16
f 80/1/17 79/1/17 78/1/17
f 79/1/17 80/1/17 81/1/17
f 81/1/17 46/1/17 79/1/17
f 81/1/17 44/1/17 46/1/17
f 81/1/17 80/1/17 82/1/17
f 82/1/17 80/1/17 83/1/17
f 83/1/17 80/1/17 84/1/17
f 76/1/17 44/1/17 81/1/17
f 76/1/17 85/1/17 44/1/17
f 76/1/17 86/1/17 85/1/17
f 77/1/17 86/1/17 76/1/17
f 77/1/17 87/1/17 86/1/17
f 88/1/17 87/1/17 77/1/17
f 88/1/17 75/1/17 87/1/17
f 39/1/17 75/1/17 88/1/17
f 40/1/17 75/1/17 39/1/17
f 40/1/17 2/1/17 75/1/17
f 38/1/17 2/1/17 40/1/17
f 37/1/17 2/1/17 38/1/17
f 42/1/17 2/1/17 37/1/17
f 2/1/17 42/1/17 1/1/17
f 41/1/17 1/1/17 42/1/17
f 41/1/17 74/1/17 1/1/17
f 41/1/17 73/1/17 74/1/17
f 6/1/17 73/1/17 41/1/17
f 73/1/17 6/1/17 8/1/17
f 22/1/16 39/1/8 88/1/16
f 39/1/8 22/1/16 20/1/8
f 24/1/16 88/1/16 77/1/16
f 88/1/16 24/1/16 22/1/16
f 59/1/15 87/1/15 75/1/15
f 87/1/15 59/1/15 61/1/15
f 83/1/6 30/1/7 82/1/7
f 30/1/7 83/1/6 32/1/6
f 28/1/9 76/1/8 81/1/9
f 76/1/8 28/1/9 26/1/8
f 61/1/15 86/1/2 87/1/15
f 86/1/2 61/1/15 63/1/2
f 84/1/11 32/1/6 83/1/6
f 32/1/6 84/1/11 35/1/11
f 82/1/7 28/1/9 81/1/9
f 28/1/9 82/1/7 30/1/7
f 65/1/1 44/1/12 85/1/1
f 44/1/12 65/1/1 43/1/12
f 80/1/10 35/1/11 84/1/11
f 35/1/11 80/1/10 34/1/10
f 69/1/4 46/1/13 45/1/13
f 46/1/13 69/1/4 79/1/4
f 70/1/3 79/1/4 69/1/4
f 79/1/4 70/1/3 78/1/3
f 89/1/18 70/1/18 71/1/18
f 89/1/18 78/1/18 70/1/18
f 78/1/18 89/1/18 80/1/18
f 80/1/18 89/1/18 90/1/18
f 91/1/18 80/1/18 90/1/18
f 92/1/18 80/1/18 91/1/18
f 80/1/18 92/1/18 34/1/18
f 34/1/18 92/1/18 36/1/18
f 63/1/2 85/1/1 86/1/2
f 85/1/1 63/1/2 65/1/1
f 10/2/21 93/2/20 9/2/19
f 93/2/20 10/2/21 94/2/22
f 97/2/25 96/2/24 95/2/23
f 96/2/24 97/2/25 98/2/26
f 17/2/29 100/2/28 99/2/27
f 100/2/28 17/2/29 19/2/30
f 50/2/33 102/2/32 101/2/31
f 102/2/32 50/2/33 49/2/34
f 62/2/37 104/2/36 103/2/35
f 104/2/36 62/2/37 60/2/37
f 107/2/40 106/2/39 105/2/38
f 106/2/39 107/2/40 108/2/41
f 99/2/27 110/2/43 109/2/42
f 110/2/43 99/2/27 100/2/28
f 11/2/45 93/2/20 47/2/44
f 93/2/20 11/2/45 9/2/19
f 49/2/34 111/2/46 102/2/32
f 111/2/46 49/2/34 48/2/47
f 111/2/46 48/2/47 112/2/48
f 112/2/48 113/2/49 111/2/46
f 113/2/49 112/2/48 114/2/50
f 113/2/49 114/2/50 115/2/51
f 113/2/49 115/2/51 107/2/40
f 107/2/40 115/2/51 109/2/42
f 107/2/40 109/2/42 108/2/41
f 108/2/41 109/2/42 110/2/43
f 108/2/41 110/2/43 116/2/52
f 116/2/52 110/2/43 117/2/53
f 116/2/52 117/2/53 118/2/54
f 118/2/54 117/2/53 95/2/23
f 118/2/54 95/2/23 119/2/55
f 119/2/55 95/2/23 96/2/24
f 119/2/55 96/2/24 120/2/56
f 120/2/56 96/2/24 121/2/57
f 120/2/56 121/2/57 122/2/58
f 122/2/58 121/2/57 123/2/59
f 122/2/58 123/2/59 124/2/60
f 124/2/60 123/2/59 125/2/61
f 124/2/60 125/2/61 126/2/62
f 91/2/47 126/2/62 125/2/61
f 91/2/47 125/2/61 127/2/63
f 126/2/62 91/2/47 90/2/34
f 108/2/41 104/2/36 106/2/39
f 104/2/36 108/2/41 116/2/52
f 58/2/64 105/2/38 106/2/39
f 105/2/38 58/2/64 57/2/65
f 48/2/47 93/2/20 112/2/48
f 93/2/20 48/2/47 47/2/44
f 102/2/32 128/2/66 101/2/31
f 128/2/66 102/2/32 111/2/46
f 111/2/46 129/2/67 128/2/66
f 129/2/67 111/2/46 113/2/49
f 94/2/22 115/2/51 114/2/50
f 115/2/51 94/2/22 130/2/68
f 130/2/68 109/2/42 115/2/51
f 109/2/42 130/2/68 99/2/27
f 14/2/69 99/2/27 130/2/68
f 99/2/27 14/2/69 17/2/29
f 105/2/38 56/2/70 129/2/67
f 56/2/70 105/2/38 57/2/65
f 64/2/64 103/2/35 131/2/71
f 103/2/35 64/2/64 62/2/37
f 14/2/69 94/2/22 10/2/21
f 94/2/22 14/2/69 130/2/68
f 23/2/72 98/2/26 97/2/25
f 98/2/26 23/2/72 25/2/30
f 31/2/21 132/2/73 29/2/69
f 132/2/73 31/2/21 133/2/74
f 134/2/75 95/2/23 117/2/53
f 95/2/23 134/2/75 97/2/25
f 113/2/49 105/2/38 129/2/67
f 105/2/38 113/2/49 107/2/40
f 128/2/66 53/2/76 101/2/31
f 53/2/76 128/2/66 55/2/77
f 118/2/54 131/2/71 103/2/35
f 131/2/71 118/2/54 119/2/55
f 60/2/37 106/2/39 104/2/36
f 106/2/39 60/2/37 58/2/64
f 93/2/20 114/2/50 112/2/48
f 114/2/50 93/2/20 94/2/22
f 50/2/33 53/2/76 51/2/78
f 53/2/76 50/2/33 101/2/31
f 100/2/28 117/2/53 110/2/43
f 117/2/53 100/2/28 134/2/75
f 129/2/67 55/2/77 128/2/66
f 55/2/77 129/2/67 56/2/70
f 21/2/72 97/2/25 134/2/75
f 97/2/25 21/2/72 23/2/72
f 19/2/30 134/2/75 100/2/28
f 134/2/75 19/2/30 21/2/72
f 116/2/52 103/2/35 104/2/36
f 103/2/35 116/2/52 118/2/54
f 120/2/56 136/2/80 135/2/79
f 136/2/80 120/2/56 122/2/58
f 124/2/60 138/2/82 137/2/81
f 138/2/82 124/2/60 126/2/62
f 89/2/33 72/2/76 138/2/82
f 72/2/76 89/2/33 71/2/78
f 138/2/82 90/2/34 89/2/33
f 90/2/34 138/2/82 126/2/62
f 139/2/83 123/2/59 121/2/57
f 123/2/59 139/2/83 132/2/73
f 137/2/81 67/2/70 136/2/80
f 67/2/70 137/2/81 68/2/77
f 27/2/29 132/2/73 139/2/83
f 132/2/73 27/2/29 29/2/69
f 138/2/82 68/2/77 137/2/81
f 68/2/77 138/2/82 72/2/76
f 25/2/30 139/2/83 98/2/26
f 139/2/83 25/2/30 27/2/29
f 33/2/19 133/2/74 31/2/21
f 133/2/74 33/2/19 140/2/84
f 122/2/58 137/2/81 136/2/80
f 137/2/81 122/2/58 124/2/60
f 127/2/63 92/2/44 91/2/47
f 92/2/44 127/2/63 140/2/84
f 98/2/26 121/2/57 96/2/24
f 121/2/57 98/2/26 139/2/83
f 119/2/55 135/2/79 131/2/71
f 135/2/79 119/2/55 120/2/56
f 132/2/73 125/2/61 123/2/59
f 125/2/61 132/2/73 133/2/74
f 66/2/65 131/2/71 135/2/79
f 131/2/71 66/2/65 64/2/64
f 67/2/70 135/2/79 136/2/80
f 135/2/79 67/2/70 66/2/65
f 36/2/45 140/2/84 33/2/19
f 140/2/84 36/2/45 92/2/44
f 133/2/74 127/2/63 125/2/61
f 127/2/63 133/2/74 140/2/84

