# Created by Kenney (www.kenney.nl)

mtllib slant-solid-a.mtl

g slant-solid-a

v -0.35 0.5 -0.5 1 1 1
v -0.2875 0.3125 -0.5 1 1 1
v -0.35 0.75 0.5 1 1 1
v -0.2875 0.5625 0.5 1 1 1
v 0.1 0.25 -0.5 1 1 1
v 0.1 0.5 0.5 1 1 1
v -0.1 0.25 -0.5 1 1 1
v -0.1 0.5 0.5 1 1 1
v 0.2875 0.3125 -0.5 1 1 1
v 0.2875 0.5625 0.5 1 1 1
v 0.35 0.5 -0.5 1 1 1
v 0.35 0.75 0.5 1 1 1
v -0.5 0 -0.5 1 1 1
v -0.5 0.5 -0.5 1 1 1
v -0.5 0 0.5 1 1 1
v -0.5 0.75 0.5 1 1 1
v 0.5 0.5 -0.5 1 1 1
v 0.5 0.75 0.5 1 1 1
v 0.5 0 0.5 1 1 1
v 0.5 0 -0.5 1 1 1

vn 0.9457324 0.3152441 -0.07881103
vn 0.662863 0.7263851 -0.1815963
vn 0.7332633 0.6596433 -0.1649108
vn -0.1518442 0.9588931 -0.2397233
vn -0.1594608 0.9577289 -0.2394322
vn 0.1518442 0.9588931 -0.2397233
vn 0.1594608 0.9577289 -0.2394322
vn -0.662863 0.7263851 -0.1815963
vn -0.7332633 0.6596433 -0.1649108
vn -0.9457324 0.3152441 -0.07881103
vn -1 0 0
vn 0 0.9701425 -0.2425356
vn 0 -1 0
vn 1 0 0
vn 0 0 1
vn 0 0 -1

vt 0.28125 0.375
vt 0.90625 0.375

usemtl colormap

f 3/1/1 2/1/2 1/1/1
f 2/1/2 3/1/1 4/1/3
f 7/1/6 6/1/5 5/1/4
f 6/1/5 7/1/6 8/1/7
f 5/1/4 10/1/9 9/1/8
f 10/1/9 5/1/4 6/1/5
f 2/1/2 8/1/7 7/1/6
f 8/1/7 2/1/2 4/1/3
f 10/1/9 11/1/10 9/1/8
f 11/1/10 10/1/9 12/1/10
f 15/2/11 14/2/11 13/2/11
f 14/2/11 15/2/11 16/2/11
f 11/2/12 18/2/12 17/2/12
f 18/2/12 11/2/12 12/2/12
f 15/2/13 20/2/13 19/2/13
f 20/2/13 15/2/13 13/2/13
f 18/2/14 20/2/14 17/2/14
f 20/2/14 18/2/14 19/2/14
f 10/2/15 18/2/15 12/2/15
f 10/2/15 19/2/15 18/2/15
f 19/2/15 10/2/15 15/2/15
f 15/2/15 10/2/15 6/2/15
f 8/2/15 15/2/15 6/2/15
f 4/2/15 15/2/15 8/2/15
f 15/2/15 4/2/15 16/2/15
f 16/2/15 4/2/15 3/2/15
f 14/2/12 3/2/12 1/2/12
f 3/2/12 14/2/12 16/2/12
f 2/2/16 14/2/16 1/2/16
f 2/2/16 13/2/16 14/2/16
f 13/2/16 2/2/16 20/2/16
f 20/2/16 2/2/16 7/2/16
f 5/2/16 20/2/16 7/2/16
f 9/2/16 20/2/16 5/2/16
f 20/2/16 9/2/16 17/2/16
f 17/2/16 9/2/16 11/2/16

g slant-solid-a




usemtl colormap

f 3/1/1 2/1/2 1/1/1
f 2/1/2 3/1/1 4/1/3
f 7/1/6 6/1/5 5/1/4
f 6/1/5 7/1/6 8/1/7
f 5/1/4 10/1/9 9/1/8
f 10/1/9 5/1/4 6/1/5
f 2/1/2 8/1/7 7/1/6
f 8/1/7 2/1/2 4/1/3
f 10/1/9 11/1/10 9/1/8
f 11/1/10 10/1/9 12/1/10
f 15/2/11 14/2/11 13/2/11
f 14/2/11 15/2/11 16/2/11
f 11/2/12 18/2/12 17/2/12
f 18/2/12 11/2/12 12/2/12
f 15/2/13 20/2/13 19/2/13
f 20/2/13 15/2/13 13/2/13
f 18/2/14 20/2/14 17/2/14
f 20/2/14 18/2/14 19/2/14
f 10/2/15 18/2/15 12/2/15
f 10/2/15 19/2/15 18/2/15
f 19/2/15 10/2/15 15/2/15
f 15/2/15 10/2/15 6/2/15
f 8/2/15 15/2/15 6/2/15
f 4/2/15 15/2/15 8/2/15
f 15/2/15 4/2/15 16/2/15
f 16/2/15 4/2/15 3/2/15
f 14/2/12 3/2/12 1/2/12
f 3/2/12 14/2/12 16/2/12
f 2/2/16 14/2/16 1/2/16
f 2/2/16 13/2/16 14/2/16
f 13/2/16 2/2/16 20/2/16
f 20/2/16 2/2/16 7/2/16
f 5/2/16 20/2/16 7/2/16
f 9/2/16 20/2/16 5/2/16
f 20/2/16 9/2/16 17/2/16
f 17/2/16 9/2/16 11/2/16

