# Created by Kenney (www.kenney.nl)

mtllib slant-long-d.mtl

g slant-long-d

v -0.35 0.5 -1 1 1 1
v -0.35 2 1 1 1 1
v -0.5 0.5 -1 1 1 1
v -0.5 2 1 1 1 1
v -0.2875 0.3125 -1 1 1 1
v -0.5 0 -1 1 1 1
v 0.5 0 -1 1 1 1
v -0.1 0.25 -1 1 1 1
v 0.1 0.25 -1 1 1 1
v 0.2875 0.3125 -1 1 1 1
v 0.5 0.5 -1 1 1 1
v 0.35 0.5 -1 1 1 1
v 0.5 1.5 1 1 1 1
v -0.5 1.5 1 1 1 1
v 0.5 2 1 1 1 1
v 0.35 2 1 1 1 1
v 0.2875 1.8125 1 1 1 1
v 0.1 1.75 1 1 1 1
v -0.1 1.75 1 1 1 1
v -0.2875 1.8125 1 1 1 1

vn 0 0.8 -0.6
vn 0 0 -1
vn 0 -0.8 0.6
vn -1 0 0
vn 1 0 0
vn 0 0 1
vn -0.5441849 0.6711723 -0.5033792
vn -0.9230769 0.3076923 -0.2307692
vn -0.7367001 0.5409757 -0.4057318
vn 0.9230769 0.3076923 -0.2307692
vn 0.5441849 0.6711723 -0.5033792
vn 0.7367001 0.5409757 -0.4057318
vn -0.1215225 0.794071 -0.5955532
vn -0.1373718 0.7924157 -0.5943118
vn 0.1215225 0.794071 -0.5955532
vn 0.1373718 0.7924157 -0.5943118

vt 0.90625 0.375
vt 0.28125 0.375

usemtl colormap

f 3/1/1 2/1/1 1/1/1
f 2/1/1 3/1/1 4/1/1
f 5/1/2 3/1/2 1/1/2
f 5/1/2 6/1/2 3/1/2
f 6/1/2 5/1/2 7/1/2
f 7/1/2 5/1/2 8/1/2
f 9/1/2 7/1/2 8/1/2
f 10/1/2 7/1/2 9/1/2
f 7/1/2 10/1/2 11/1/2
f 11/1/2 10/1/2 12/1/2
f 14/1/3 7/1/3 13/1/3
f 7/1/3 14/1/3 6/1/3
f 14/1/4 3/1/4 6/1/4
f 3/1/4 14/1/4 4/1/4
f 12/1/1 15/1/1 11/1/1
f 15/1/1 12/1/1 16/1/1
f 15/1/5 7/1/5 11/1/5
f 7/1/5 15/1/5 13/1/5
f 17/1/6 15/1/6 16/1/6
f 17/1/6 13/1/6 15/1/6
f 13/1/6 17/1/6 14/1/6
f 14/1/6 17/1/6 18/1/6
f 19/1/6 14/1/6 18/1/6
f 20/1/6 14/1/6 19/1/6
f 14/1/6 20/1/6 4/1/6
f 4/1/6 20/1/6 2/1/6
f 17/2/9 12/2/8 10/2/7
f 12/2/8 17/2/9 16/2/8
f 2/2/10 5/2/11 1/2/10
f 5/2/11 2/2/10 20/2/12
f 8/2/15 18/2/14 9/2/13
f 18/2/14 8/2/15 19/2/16
f 9/2/13 17/2/9 10/2/7
f 17/2/9 9/2/13 18/2/14
f 5/2/11 19/2/16 8/2/15
f 19/2/16 5/2/11 20/2/12

g slant-long-d




usemtl colormap

f 3/1/1 2/1/1 1/1/1
f 2/1/1 3/1/1 4/1/1
f 5/1/2 3/1/2 1/1/2
f 5/1/2 6/1/2 3/1/2
f 6/1/2 5/1/2 7/1/2
f 7/1/2 5/1/2 8/1/2
f 9/1/2 7/1/2 8/1/2
f 10/1/2 7/1/2 9/1/2
f 7/1/2 10/1/2 11/1/2
f 11/1/2 10/1/2 12/1/2
f 14/1/3 7/1/3 13/1/3
f 7/1/3 14/1/3 6/1/3
f 14/1/4 3/1/4 6/1/4
f 3/1/4 14/1/4 4/1/4
f 12/1/1 15/1/1 11/1/1
f 15/1/1 12/1/1 16/1/1
f 15/1/5 7/1/5 11/1/5
f 7/1/5 15/1/5 13/1/5
f 17/1/6 15/1/6 16/1/6
f 17/1/6 13/1/6 15/1/6
f 13/1/6 17/1/6 14/1/6
f 14/1/6 17/1/6 18/1/6
f 19/1/6 14/1/6 18/1/6
f 20/1/6 14/1/6 19/1/6
f 14/1/6 20/1/6 4/1/6
f 4/1/6 20/1/6 2/1/6
f 17/2/9 12/2/8 10/2/7
f 12/2/8 17/2/9 16/2/8
f 2/2/10 5/2/11 1/2/10
f 5/2/11 2/2/10 20/2/12
f 8/2/15 18/2/14 9/2/13
f 18/2/14 8/2/15 19/2/16
f 9/2/13 17/2/9 10/2/7
f 17/2/9 9/2/13 18/2/14
f 5/2/11 19/2/16 8/2/15
f 19/2/16 5/2/11 20/2/12

