# Created by Kenney (www.kenney.nl)

mtllib split-solid-right.mtl

g split-solid-right

v 0.02324413 0.2721608 -0.3335177 1 1 1
v -0.01757695 0.25 -0.2803186 1 1 1
v -0.2248711 0.25 -0.4 1 1 1
v -0.8156865 0.25 -0.4 1 1 1
v -0.8403714 0.3125 -0.2125 1 1 1
v -1 0.25 -0.4 1 1 1
v -1 0.3125 -0.2125 1 1 1
v 0.85 0.5 0.7564428 1 1 1
v 0.85 0.5 1 1 1 1
v 0.7875 0.3125 0.7646711 1 1 1
v 0.7875 0.3125 1 1 1 1
v 0.1202788 0.25 0.1403798 1 1 1
v -0.02975852 0.3125 0.2555075 1 1 1
v -0.1403798 0.25 -0.1202788 1 1 1
v -0.2555075 0.3125 0.02975852 1 1 1
v 0.3154067 0.3125 -0.2125 1 1 1
v 1 0.3125 -0.2125 1 1 1
v 0.4662951 0.5 -0.15 1 1 1
v 1 0.5 -0.15 1 1 1
v -1 0.5 -0.15 1 1 1
v -0.8485997 0.5 -0.15 1 1 1
v 0.6 0.25 0.789356 1 1 1
v 0.6656848 0.3125 0.3100508 1 1 1
v 0.4909627 0.25 0.382423 1 1 1
v 1 0.3125 -0.7875 1 1 1
v 1 0.25 -0.6 1 1 1
v -1 0.3125 -0.7875 1 1 1
v 0.2284271 0.25 -0.6 1 1 1
v -1 0.25 -0.6 1 1 1
v -0.5319925 0.3125 -0.1298701 1 1 1
v -0.5561166 0.5 -0.07162941 1 1 1
v 0.4 0.25 0.8156865 1 1 1
v 0.4 0.25 1 1 1 1
v 0.2125 0.3125 0.8403714 1 1 1
v 0.2125 0.3125 1 1 1 1
v -0.4596201 0.25 -0.3045923 1 1 1
v -0.2938834 0.5 0.07977097 1 1 1
v -0.07977097 0.5 0.2938834 1 1 1
v 0.4803684 0.5 -0.1359267 1 1 1
v 0.7239256 0.5 0.2859267 1 1 1
v 0.430356 0.3125 -0.09755076 1 1 1
v 0.2803186 0.25 0.01757695 1 1 1
v 1 0.25 -0.4 1 1 1
v 0.3045923 0.25 0.4596201 1 1 1
v 0.1298701 0.3125 0.5319925 1 1 1
v 0.07162941 0.5 0.5561166 1 1 1
v 0.15 0.5 0.8485997 1 1 1
v 0.6 0.25 1 1 1 1
v 1 0.5 -0.85 1 1 1
v -1 0.5 -0.85 1 1 1
v 0.15 0.5 1 1 1 1
v 1 0 -1 1 1 1
v -1 3.205931E-31 -1 1 1 1
v 1 0 1 1 1 1
v -1 0 1 1 1 1
v 1 0.5 -1 1 1 1
v -1 0.5 -1 1 1 1
v 1 0.5 1 1 1 1
v -1 0.5 1 1 1 1

vn -0.1984461 0.9494509 0.243233
vn -0.1045648 0.9851377 0.1362715
vn -0.006928394 0.9999743 -0.001856458
vn 0.01905096 0.9892913 -0.1447064
vn 0.08948553 0.7280018 -0.6797101
vn 0 0.9870875 -0.1601822
vn 0 0.7071068 -0.7071068
vn -0.9397532 0.3186805 0.1237208
vn -0.9486833 0.3162278 0
vn -0.7168672 0.6907926 0.09437736
vn -0.7071068 0.7071068 0
vn 0.115794 0.9892913 -0.08885183
vn 0.5439035 0.7280018 -0.4173518
vn 0.08885183 0.9892913 -0.115794
vn 0.4173518 0.7280018 -0.5439035
vn 0 0.856618 -0.5159512
vn 0 0.3162278 -0.9486833
vn 0.1237209 0.3186804 -0.9397532
vn -0.170297 0.9851377 0.02242002
vn -0.6680139 0.6907926 0.2767004
vn -0.1586915 0.9851377 0.06573217
vn 0 0.7071068 0.7071068
vn 0 0.9870875 0.1601822
vn 0.2623583 0.7280018 -0.6333889
vn 0.3627311 0.3186804 -0.8757104
vn 0.1447064 0.9892913 -0.01905096
vn 0.1601822 0.9870875 0
vn 0.6797101 0.7280018 -0.08948553
vn 0.7071068 0.7071068 0
vn 0.0558546 0.9892913 -0.1348449
vn 0.577022 0.3186804 -0.7519897
vn 0.7519897 0.3186804 -0.577022
vn -0.7519897 0.3186804 0.577022
vn -0.8757104 0.3186804 0.3627311
vn -0.5736365 0.6907925 0.4401667
vn -0.1362715 0.9851377 0.1045648
vn 0 0.9486833 -0.3162278
vn 0.1348449 0.9892913 -0.0558546
vn 0.633389 0.7280018 -0.2623583
vn 0.8757104 0.3186804 -0.3627311
vn 0.9397532 0.3186805 -0.1237208
vn -0.1601822 0.9870875 0
vn 0 0.3162278 0.9486833
vn -0.3648326 0.856618 0.3648326
vn -0.6708204 0.3162277 0.6708204
vn 0.9486833 0.3162278 0
vn 0 -1 0
vn 0 0 -1
vn 1 0 0
vn 0 1 0
vn 0 0 1
vn -1 0 0

vt 0.28125 0.375
vt 0.90625 0.375

usemtl colormap

f 3/1/3 2/1/2 1/1/1
f 6/1/6 5/1/5 4/1/4
f 5/1/5 6/1/6 7/1/7
f 10/1/10 9/1/9 8/1/8
f 9/1/9 10/1/10 11/1/11
f 14/1/14 13/1/13 12/1/12
f 13/1/13 14/1/14 15/1/15
f 18/1/17 17/1/7 16/1/16
f 17/1/7 18/1/17 19/1/17
f 20/1/17 5/1/5 7/1/7
f 5/1/5 20/1/17 21/1/18
f 23/1/20 22/1/19 10/1/10
f 22/1/19 23/1/20 24/1/21
f 27/1/22 26/1/23 25/1/22
f 26/1/23 27/1/22 28/1/23
f 28/1/23 27/1/22 29/1/23
f 21/1/18 30/1/24 5/1/5
f 30/1/24 21/1/18 31/1/25
f 34/1/28 33/1/27 32/1/26
f 33/1/27 34/1/28 35/1/29
f 36/1/30 15/1/15 14/1/14
f 15/1/15 36/1/30 30/1/24
f 37/1/31 13/1/13 15/1/15
f 13/1/13 37/1/31 38/1/32
f 41/1/35 40/1/34 39/1/33
f 40/1/34 41/1/35 23/1/20
f 31/1/25 15/1/15 30/1/24
f 15/1/15 31/1/25 37/1/31
f 41/1/35 24/1/21 23/1/20
f 24/1/21 41/1/35 42/1/36
f 3/1/3 17/1/7 43/1/6
f 17/1/7 3/1/3 1/1/37
f 17/1/7 1/1/37 16/1/16
f 44/1/38 34/1/28 32/1/26
f 34/1/28 44/1/38 45/1/39
f 12/1/12 45/1/39 44/1/38
f 45/1/39 12/1/12 13/1/13
f 38/1/32 45/1/39 13/1/13
f 45/1/39 38/1/32 46/1/40
f 4/1/4 30/1/24 36/1/30
f 30/1/24 4/1/4 5/1/5
f 23/1/20 8/1/8 40/1/34
f 8/1/8 23/1/20 10/1/10
f 46/1/40 34/1/28 45/1/39
f 34/1/28 46/1/40 47/1/41
f 22/1/19 11/1/11 10/1/10
f 11/1/11 22/1/19 48/1/42
f 28/1/23 43/1/6 26/1/23
f 43/1/6 28/1/23 3/1/3
f 3/1/3 28/1/23 29/1/23
f 3/1/3 29/1/23 36/1/30
f 36/1/30 29/1/23 4/1/4
f 4/1/4 29/1/23 6/1/6
f 14/1/14 3/1/3 36/1/30
f 14/1/14 2/1/2 3/1/3
f 12/1/12 2/1/2 14/1/14
f 12/1/12 42/1/36 2/1/2
f 44/1/38 42/1/36 12/1/12
f 32/1/26 42/1/36 44/1/38
f 42/1/36 32/1/26 24/1/21
f 33/1/27 24/1/21 32/1/26
f 48/1/42 24/1/21 33/1/27
f 24/1/21 48/1/42 22/1/19
f 49/1/43 27/1/22 25/1/22
f 27/1/22 49/1/43 50/1/43
f 16/1/44 42/1/36 41/1/35
f 42/1/36 16/1/44 1/1/1
f 42/1/36 1/1/1 2/1/2
f 41/1/35 18/1/45 16/1/44
f 18/1/45 41/1/35 39/1/33
f 47/1/41 35/1/29 34/1/28
f 35/1/29 47/1/41 51/1/46
f 54/2/47 53/2/47 52/2/47
f 53/2/47 54/2/47 55/2/47
f 53/2/48 56/2/48 52/2/48
f 56/2/48 53/2/48 57/2/48
f 49/2/49 52/2/49 56/2/49
f 52/2/49 49/2/49 25/2/49
f 52/2/49 25/2/49 26/2/49
f 52/2/49 26/2/49 54/2/49
f 54/2/49 26/2/49 43/2/49
f 54/2/49 43/2/49 17/2/49
f 54/2/49 17/2/49 19/2/49
f 54/2/49 19/2/49 58/2/49
f 39/2/50 19/2/50 18/2/50
f 40/2/50 19/2/50 39/2/50
f 19/2/50 40/2/50 58/2/50
f 58/2/50 40/2/50 8/2/50
f 9/2/50 58/2/50 8/2/50
f 57/2/50 49/2/50 56/2/50
f 49/2/50 57/2/50 50/2/50
f 46/2/50 51/2/50 47/2/50
f 51/2/50 46/2/50 59/2/50
f 59/2/50 46/2/50 38/2/50
f 59/2/50 38/2/50 37/2/50
f 59/2/50 37/2/50 31/2/50
f 59/2/50 31/2/50 21/2/50
f 59/2/50 21/2/50 20/2/50
f 11/2/51 58/2/51 9/2/51
f 11/2/51 54/2/51 58/2/51
f 48/2/51 54/2/51 11/2/51
f 54/2/51 48/2/51 55/2/51
f 33/2/51 55/2/51 48/2/51
f 55/2/51 33/2/51 59/2/51
f 59/2/51 33/2/51 35/2/51
f 59/2/51 35/2/51 51/2/51
f 57/2/52 27/2/52 50/2/52
f 53/2/52 27/2/52 57/2/52
f 27/2/52 53/2/52 29/2/52
f 29/2/52 53/2/52 55/2/52
f 29/2/52 55/2/52 6/2/52
f 6/2/52 55/2/52 7/2/52
f 7/2/52 55/2/52 20/2/52
f 20/2/52 55/2/52 59/2/52

g split-solid-right




usemtl colormap

f 3/1/3 2/1/2 1/1/1
f 6/1/6 5/1/5 4/1/4
f 5/1/5 6/1/6 7/1/7
f 10/1/10 9/1/9 8/1/8
f 9/1/9 10/1/10 11/1/11
f 14/1/14 13/1/13 12/1/12
f 13/1/13 14/1/14 15/1/15
f 18/1/17 17/1/7 16/1/16
f 17/1/7 18/1/17 19/1/17
f 20/1/17 5/1/5 7/1/7
f 5/1/5 20/1/17 21/1/18
f 23/1/20 22/1/19 10/1/10
f 22/1/19 23/1/20 24/1/21
f 27/1/22 26/1/23 25/1/22
f 26/1/23 27/1/22 28/1/23
f 28/1/23 27/1/22 29/1/23
f 21/1/18 30/1/24 5/1/5
f 30/1/24 21/1/18 31/1/25
f 34/1/28 33/1/27 32/1/26
f 33/1/27 34/1/28 35/1/29
f 36/1/30 15/1/15 14/1/14
f 15/1/15 36/1/30 30/1/24
f 37/1/31 13/1/13 15/1/15
f 13/1/13 37/1/31 38/1/32
f 41/1/35 40/1/34 39/1/33
f 40/1/34 41/1/35 23/1/20
f 31/1/25 15/1/15 30/1/24
f 15/1/15 31/1/25 37/1/31
f 41/1/35 24/1/21 23/1/20
f 24/1/21 41/1/35 42/1/36
f 3/1/3 17/1/7 43/1/6
f 17/1/7 3/1/3 1/1/37
f 17/1/7 1/1/37 16/1/16
f 44/1/38 34/1/28 32/1/26
f 34/1/28 44/1/38 45/1/39
f 12/1/12 45/1/39 44/1/38
f 45/1/39 12/1/12 13/1/13
f 38/1/32 45/1/39 13/1/13
f 45/1/39 38/1/32 46/1/40
f 4/1/4 30/1/24 36/1/30
f 30/1/24 4/1/4 5/1/5
f 23/1/20 8/1/8 40/1/34
f 8/1/8 23/1/20 10/1/10
f 46/1/40 34/1/28 45/1/39
f 34/1/28 46/1/40 47/1/41
f 22/1/19 11/1/11 10/1/10
f 11/1/11 22/1/19 48/1/42
f 28/1/23 43/1/6 26/1/23
f 43/1/6 28/1/23 3/1/3
f 3/1/3 28/1/23 29/1/23
f 3/1/3 29/1/23 36/1/30
f 36/1/30 29/1/23 4/1/4
f 4/1/4 29/1/23 6/1/6
f 14/1/14 3/1/3 36/1/30
f 14/1/14 2/1/2 3/1/3
f 12/1/12 2/1/2 14/1/14
f 12/1/12 42/1/36 2/1/2
f 44/1/38 42/1/36 12/1/12
f 32/1/26 42/1/36 44/1/38
f 42/1/36 32/1/26 24/1/21
f 33/1/27 24/1/21 32/1/26
f 48/1/42 24/1/21 33/1/27
f 24/1/21 48/1/42 22/1/19
f 49/1/43 27/1/22 25/1/22
f 27/1/22 49/1/43 50/1/43
f 16/1/44 42/1/36 41/1/35
f 42/1/36 16/1/44 1/1/1
f 42/1/36 1/1/1 2/1/2
f 41/1/35 18/1/45 16/1/44
f 18/1/45 41/1/35 39/1/33
f 47/1/41 35/1/29 34/1/28
f 35/1/29 47/1/41 51/1/46
f 54/2/47 53/2/47 52/2/47
f 53/2/47 54/2/47 55/2/47
f 53/2/48 56/2/48 52/2/48
f 56/2/48 53/2/48 57/2/48
f 49/2/49 52/2/49 56/2/49
f 52/2/49 49/2/49 25/2/49
f 52/2/49 25/2/49 26/2/49
f 52/2/49 26/2/49 54/2/49
f 54/2/49 26/2/49 43/2/49
f 54/2/49 43/2/49 17/2/49
f 54/2/49 17/2/49 19/2/49
f 54/2/49 19/2/49 58/2/49
f 39/2/50 19/2/50 18/2/50
f 40/2/50 19/2/50 39/2/50
f 19/2/50 40/2/50 58/2/50
f 58/2/50 40/2/50 8/2/50
f 9/2/50 58/2/50 8/2/50
f 57/2/50 49/2/50 56/2/50
f 49/2/50 57/2/50 50/2/50
f 46/2/50 51/2/50 47/2/50
f 51/2/50 46/2/50 59/2/50
f 59/2/50 46/2/50 38/2/50
f 59/2/50 38/2/50 37/2/50
f 59/2/50 37/2/50 31/2/50
f 59/2/50 31/2/50 21/2/50
f 59/2/50 21/2/50 20/2/50
f 11/2/51 58/2/51 9/2/51
f 11/2/51 54/2/51 58/2/51
f 48/2/51 54/2/51 11/2/51
f 54/2/51 48/2/51 55/2/51
f 33/2/51 55/2/51 48/2/51
f 55/2/51 33/2/51 59/2/51
f 59/2/51 33/2/51 35/2/51
f 59/2/51 35/2/51 51/2/51
f 57/2/52 27/2/52 50/2/52
f 53/2/52 27/2/52 57/2/52
f 27/2/52 53/2/52 29/2/52
f 29/2/52 53/2/52 55/2/52
f 29/2/52 55/2/52 6/2/52
f 6/2/52 55/2/52 7/2/52
f 7/2/52 55/2/52 20/2/52
f 20/2/52 55/2/52 59/2/52

