# Created by Kenney (www.kenney.nl)

mtllib split-large-solid-left.mtl

g split-large-solid-left

v -0.347582 0.25 0.8368726 1 1 1
v -0.3328461 0.261082 0.8667539 1 1 1
v -0.4999851 0.25 0.9 1 1 1
v -1.5 0.3125 1.2875 1 1 1
v 1.5 0.3125 1.2875 1 1 1
v -1.5 0.5 1.35 1 1 1
v 1.5 0.5 1.35 1 1 1
v 1.5 0.3125 0.7125 1 1 1
v 0.1955833 0.3125 0.7125 1 1 1
v 1.5 0.5 0.65 1 1 1
v 0.3797024 0.5 0.65 1 1 1
v 1.2875 0.3125 -1.317298 1 1 1
v 1.35 0.5 -1.313201 1 1 1
v 1.239805 0.3125 -0.9550188 1 1 1
v 1.301236 0.5 -0.9427995 1 1 1
v 0.34187 0.3125 0.6002502 1 1 1
v 0.3831676 0.5 0.6473411 1 1 1
v 0.9 0.25 -1.342696 1 1 1
v 0.7125 0.3125 -1.354985 1 1 1
v 0.9 0.25 -1.5 1 1 1
v 0.7125 0.3125 -1.5 1 1 1
v 0.5402681 0.5 -0.8074223 1 1 1
v 0.5995783 0.3125 -0.7872892 1 1 1
v 0.4324138 0.5 -0.5470389 1 1 1
v 0.4885887 0.3125 -0.5193366 1 1 1
v 0.119924 0.5 -0.07936481 1 1 1
v 0.1670148 0.3125 -0.03806727 1 1 1
v -0.07936481 0.5 0.119924 1 1 1
v -0.03806727 0.3125 0.1670148 1 1 1
v 0.08582533 0.25 0.3082872 1 1 1
v -0.1637705 0.25 0.4998088 1 1 1
v -0.2681634 0.3125 0.3435737 1 1 1
v 0.7775086 0.25 -0.72689 1 1 1
v 0.6571131 0.25 -0.4362295 1 1 1
v 0.4998088 0.25 -0.1637705 1 1 1
v 0.3082872 0.25 0.08582533 1 1 1
v 0.3435737 0.3125 -0.2681634 1 1 1
v 1.005397 0.3125 -0.2644749 1 1 1
v 0.8226947 0.3125 0.05197492 1 1 1
v 0.8368726 0.25 -0.347582 1 1 1
v 0.6664596 0.25 -0.05241801 1 1 1
v -0.5193366 0.3125 0.4885887 1 1 1
v -0.7872892 0.3125 0.5995783 1 1 1
v -0.5470389 0.5 0.4324138 1 1 1
v -0.8074223 0.5 0.5402681 1 1 1
v 1.2875 0.3125 -1.5 1 1 1
v 1.35 0.5 -1.5 1 1 1
v -0.72689 0.25 0.7775086 1 1 1
v -1.030779 0.25 0.8589354 1 1 1
v -1.067436 0.3125 0.6746435 1 1 1
v 0.2914954 0.5 -0.302961 1 1 1
v 0.6132129 0.5 -1.079656 1 1 1
v 0.6746435 0.3125 -1.067436 1 1 1
v 0.65 0.5 -1.359082 1 1 1
v 1.145231 0.3125 -0.602065 1 1 1
v 1.204541 0.5 -0.5819319 1 1 1
v 1.061572 0.5 -0.2367726 1 1 1
v -1.342696 0.25 0.9 1 1 1
v -1.5 0.25 0.9 1 1 1
v -1.354985 0.3125 0.7125 1 1 1
v -1.5 0.3125 0.7125 1 1 1
v 1.1 0.25 -1.329587 1 1 1
v 1.055513 0.25 -0.9916767 1 1 1
v 1.1 0.25 -1.5 1 1 1
v 0.967301 0.25 -0.6624641 1 1 1
v 0.8589354 0.25 -1.030779 1 1 1
v 0.4589778 0.25 0.2179774 1 1 1
v 0.2179774 0.25 0.4589778 1 1 1
v -0.05241801 0.25 0.6664596 1 1 1
v -0.4362295 0.25 0.6571131 1 1 1
v -1.5 0.25 1.1 1 1 1
v 1.5 0.25 1.1 1 1 1
v 1.5 0.25 0.9 1 1 1
v -1.079656 0.5 0.6132129 1 1 1
v 0.01850863 0.2924637 0.7726088 1 1 1
v 0.874773 0.5 0.08677257 1 1 1
v -1.359082 0.5 0.65 1 1 1
v 0.6002502 0.3125 0.34187 1 1 1
v 0.6473411 0.5 0.3831676 1 1 1
v -0.302961 0.5 0.2914954 1 1 1
v 0.65 0.5 -1.5 1 1 1
v -1.5 0.5 0.65 1 1 1
v 1.5 0.5 -1.5 1 1 1
v 1.5 0 -1.5 1 1 1
v 1.5 3.205931E-31 1.5 1 1 1
v 1.5 0.5 1.5 1 1 1
v -1.5 0 -1.5 1 1 1
v -1.5 0.5 -1.5 1 1 1
v -1.5 3.205931E-31 1.5 1 1 1
v -1.5 0.5 1.5 1 1 1

vn -0.07357119 0.9860681 -0.1491876
vn -0.1424912 0.9488813 -0.281639
vn -0.003980971 0.9999918 0.0007918643
vn 0 0.7071068 -0.7071068
vn 0 0.3162278 -0.9486833
vn 0 0.7071068 0.7071068
vn 0 0.8684527 0.4957721
vn 0 0.3162278 0.9486833
vn -0.714208 0.6983664 -0.04681166
vn -0.9464489 0.3168383 -0.06203353
vn -0.7019877 0.6983665 -0.139634
vn -0.9302548 0.3168382 -0.1850392
vn -0.3018069 0.8684527 -0.3933224
vn -0.4719205 0.6983665 -0.5381222
vn -0.5775218 0.3162277 -0.752641
vn -0.6253761 0.3168382 -0.7131047
vn 0.1530327 0.9881703 0.0100303
vn 0.6955878 0.7169931 0.04559122
vn 0.1601822 0.9870875 0
vn 0.7071068 0.7071068 0
vn 0.8981439 0.3168382 0.3048788
vn 0.6600862 0.7169931 0.2240691
vn 0.8506655 0.3168382 0.4195018
vn 0.6251922 0.7169931 0.3083107
vn 0.7131047 0.3168382 0.6253761
vn 0.5240926 0.7169931 0.4596169
vn 0.6253761 0.3168382 0.7131047
vn 0.4596169 0.7169931 0.5240926
vn 0.101118 0.9881703 0.115303
vn 0.08520286 0.9881703 0.1275151
vn 0.387277 0.7169931 0.579601
vn 0.1452222 0.9881703 0.04929631
vn 0.1375454 0.9881703 0.06782988
vn 0.1275151 0.9881703 0.08520286
vn 0.115303 0.9881703 0.101118
vn 0.579601 0.7169931 0.387277
vn -0.6419281 0.6983665 -0.3165639
vn -0.5951164 0.6983665 -0.3976441
vn -0.1491876 0.9860681 -0.07357119
vn -0.1383083 0.9860681 -0.09241468
vn 0.3083107 0.7169931 0.6251922
vn 0.2240691 0.7169931 0.6600862
vn 0.4195018 0.3168382 0.8506655
vn 0.3048788 0.3168382 0.8981439
vn -0.7071068 0.7071068 0
vn -0.9486833 0.3162278 0
vn 0.04929631 0.9881703 0.1452222
vn 0.02991926 0.9881703 0.1504143
vn 0.1359936 0.7169931 0.683686
vn 0.788632 0.3168382 0.526947
vn 0.9302548 0.3168382 0.1850392
vn 0.683686 0.7169931 0.1359936
vn 0.9464489 0.3168383 0.06203353
vn -0.6777562 0.6983665 -0.2300672
vn -0.8981439 0.3168382 -0.3048788
vn -0.8506655 0.3168382 -0.4195018
vn 0.0100303 0.9881703 0.1530327
vn 0 0.9870875 0.1601822
vn 0.04559122 0.7169931 0.6955878
vn -0.1659859 0.9860681 -0.01087929
vn -0.1631458 0.9860681 -0.03245172
vn -0.1601822 0.9870875 0
vn -0.1575143 0.9860681 -0.05346889
vn 0.1504143 0.9881703 0.02991926
vn -0.1250625 0.9860681 -0.1096769
vn -0.1096769 0.9860681 -0.1250625
vn -0.09241468 0.9860681 -0.1383083
vn 0.06782988 0.9881703 0.1375454
vn 0 0.9870875 -0.1601822
vn 0.1850392 0.3168382 0.9302548
vn -0.1787964 0.9488781 -0.2601196
vn -0.788632 0.3168382 -0.526947
vn 0.06203354 0.3168383 0.9464489
vn -0.5381222 0.6983665 -0.4719205
vn -0.7131047 0.3168382 -0.6253761
vn 0.526947 0.3168382 0.788632
vn 0.9486833 0.3162278 0
vn 0 0.9486833 0.3162278
vn 0 1 0
vn 1 0 0
vn 0 0 -1
vn 0 -1 0
vn 0 0 1
vn -1 0 0

vt 0.28125 0.375
vt 0.90625 0.375

usemtl colormap

f 3/1/3 2/1/2 1/1/1
f 6/1/5 5/1/4 4/1/4
f 5/1/4 6/1/5 7/1/5
f 10/1/8 9/1/7 8/1/6
f 9/1/7 10/1/8 11/1/8
f 14/1/11 13/1/10 12/1/9
f 13/1/10 14/1/11 15/1/12
f 11/1/15 16/1/14 9/1/13
f 16/1/14 11/1/15 17/1/16
f 20/1/19 19/1/18 18/1/17
f 19/1/18 20/1/19 21/1/20
f 24/1/23 23/1/22 22/1/21
f 23/1/22 24/1/23 25/1/24
f 28/1/27 27/1/26 26/1/25
f 27/1/26 28/1/27 29/1/28
f 29/1/28 31/1/30 30/1/29
f 31/1/30 29/1/28 32/1/31
f 23/1/22 34/1/33 33/1/32
f 34/1/33 23/1/22 25/1/24
f 37/1/36 36/1/35 35/1/34
f 36/1/35 37/1/36 27/1/26
f 40/1/39 39/1/38 38/1/37
f 39/1/38 40/1/39 41/1/40
f 27/1/26 30/1/29 36/1/35
f 30/1/29 27/1/26 29/1/28
f 44/1/43 43/1/42 42/1/41
f 43/1/42 44/1/43 45/1/44
f 12/1/9 47/1/46 46/1/45
f 47/1/46 12/1/9 13/1/10
f 43/1/42 49/1/48 48/1/47
f 49/1/48 43/1/42 50/1/49
f 26/1/25 37/1/36 51/1/50
f 37/1/36 26/1/25 27/1/26
f 22/1/21 53/1/52 52/1/51
f 53/1/52 22/1/21 23/1/22
f 52/1/51 19/1/18 54/1/53
f 19/1/18 52/1/51 53/1/52
f 38/1/37 56/1/55 55/1/54
f 56/1/55 38/1/37 57/1/56
f 51/1/50 25/1/24 24/1/23
f 25/1/24 51/1/50 37/1/36
f 60/1/59 59/1/58 58/1/57
f 59/1/58 60/1/59 61/1/6
f 64/1/62 63/1/61 62/1/60
f 63/1/61 64/1/62 20/1/19
f 63/1/61 20/1/19 65/1/63
f 65/1/63 20/1/19 18/1/17
f 18/1/17 40/1/39 65/1/63
f 40/1/39 18/1/17 66/1/64
f 40/1/39 66/1/64 33/1/32
f 40/1/39 33/1/32 41/1/40
f 41/1/40 33/1/32 34/1/33
f 41/1/40 34/1/33 67/1/65
f 67/1/65 34/1/33 35/1/34
f 67/1/65 35/1/34 36/1/35
f 67/1/65 36/1/35 68/1/66
f 68/1/66 36/1/35 30/1/29
f 68/1/66 30/1/29 69/1/67
f 69/1/67 30/1/29 31/1/30
f 69/1/67 31/1/30 1/1/1
f 1/1/1 31/1/30 70/1/68
f 1/1/1 70/1/68 3/1/3
f 3/1/3 70/1/68 48/1/47
f 71/1/69 3/1/3 48/1/47
f 71/1/69 48/1/47 49/1/48
f 71/1/69 49/1/48 58/1/57
f 71/1/69 58/1/57 59/1/58
f 72/1/69 3/1/3 71/1/69
f 3/1/3 72/1/69 73/1/58
f 32/1/31 70/1/68 31/1/30
f 70/1/68 32/1/31 42/1/41
f 45/1/44 50/1/49 43/1/42
f 50/1/49 45/1/44 74/1/70
f 63/1/61 55/1/54 14/1/11
f 55/1/54 63/1/61 65/1/63
f 68/1/66 9/1/13 16/1/14
f 9/1/13 68/1/66 69/1/67
f 9/1/13 69/1/67 75/1/71
f 46/1/45 62/1/60 12/1/9
f 62/1/60 46/1/45 64/1/62
f 39/1/38 57/1/56 38/1/37
f 57/1/56 39/1/38 76/1/72
f 74/1/70 60/1/59 50/1/49
f 60/1/59 74/1/70 77/1/73
f 67/1/65 16/1/14 78/1/74
f 16/1/14 67/1/65 68/1/66
f 42/1/41 48/1/47 70/1/68
f 48/1/47 42/1/41 43/1/42
f 16/1/14 79/1/75 78/1/74
f 79/1/75 16/1/14 17/1/16
f 80/1/76 42/1/41 32/1/31
f 42/1/41 80/1/76 44/1/43
f 62/1/60 14/1/11 12/1/9
f 14/1/11 62/1/60 63/1/61
f 25/1/24 35/1/34 34/1/33
f 35/1/34 25/1/24 37/1/36
f 65/1/63 38/1/37 55/1/54
f 38/1/37 65/1/63 40/1/39
f 19/1/18 66/1/64 18/1/17
f 66/1/64 19/1/18 53/1/52
f 54/1/53 21/1/20 81/1/77
f 21/1/20 54/1/53 19/1/18
f 71/1/69 5/1/4 72/1/69
f 5/1/4 71/1/69 4/1/4
f 69/1/67 2/1/2 75/1/71
f 2/1/2 69/1/67 1/1/1
f 9/1/7 73/1/58 8/1/6
f 73/1/58 9/1/7 75/1/78
f 73/1/58 75/1/78 2/1/78
f 73/1/58 2/1/78 3/1/3
f 53/1/52 33/1/32 66/1/64
f 33/1/32 53/1/52 23/1/22
f 77/1/73 61/1/6 60/1/59
f 61/1/6 77/1/73 82/1/8
f 41/1/40 78/1/74 39/1/38
f 78/1/74 41/1/40 67/1/65
f 50/1/49 58/1/57 49/1/48
f 58/1/57 50/1/49 60/1/59
f 55/1/54 15/1/12 14/1/11
f 15/1/12 55/1/54 56/1/55
f 28/1/27 32/1/31 29/1/28
f 32/1/31 28/1/27 80/1/76
f 78/1/74 76/1/72 39/1/38
f 76/1/72 78/1/74 79/1/75
f 47/2/79 10/2/79 83/2/79
f 10/2/79 47/2/79 13/2/79
f 15/2/79 10/2/79 13/2/79
f 56/2/79 10/2/79 15/2/79
f 57/2/79 10/2/79 56/2/79
f 76/2/79 10/2/79 57/2/79
f 79/2/79 10/2/79 76/2/79
f 17/2/79 10/2/79 79/2/79
f 10/2/79 17/2/79 11/2/79
f 10/2/80 84/2/80 83/2/80
f 84/2/80 10/2/80 8/2/80
f 84/2/80 8/2/80 85/2/80
f 85/2/80 8/2/80 73/2/80
f 85/2/80 73/2/80 72/2/80
f 85/2/80 72/2/80 5/2/80
f 85/2/80 5/2/80 7/2/80
f 85/2/80 7/2/80 86/2/80
f 88/2/81 84/2/81 87/2/81
f 84/2/81 88/2/81 20/2/81
f 20/2/81 88/2/81 21/2/81
f 21/2/81 88/2/81 81/2/81
f 64/2/81 84/2/81 20/2/81
f 46/2/81 84/2/81 64/2/81
f 84/2/81 46/2/81 83/2/81
f 83/2/81 46/2/81 47/2/81
f 81/2/79 52/2/79 54/2/79
f 52/2/79 81/2/79 88/2/79
f 52/2/79 88/2/79 22/2/79
f 22/2/79 88/2/79 24/2/79
f 24/2/79 88/2/79 51/2/79
f 51/2/79 88/2/79 26/2/79
f 26/2/79 88/2/79 28/2/79
f 28/2/79 88/2/79 80/2/79
f 80/2/79 88/2/79 44/2/79
f 44/2/79 88/2/79 45/2/79
f 45/2/79 88/2/79 74/2/79
f 74/2/79 88/2/79 77/2/79
f 77/2/79 88/2/79 82/2/79
f 85/2/82 87/2/82 84/2/82
f 87/2/82 85/2/82 89/2/82
f 6/2/79 86/2/79 7/2/79
f 86/2/79 6/2/79 90/2/79
f 86/2/83 89/2/83 85/2/83
f 89/2/83 86/2/83 90/2/83
f 89/2/84 88/2/84 87/2/84
f 88/2/84 89/2/84 61/2/84
f 88/2/84 61/2/84 82/2/84
f 61/2/84 89/2/84 59/2/84
f 59/2/84 89/2/84 71/2/84
f 71/2/84 89/2/84 4/2/84
f 4/2/84 89/2/84 6/2/84
f 6/2/84 89/2/84 90/2/84

g split-large-solid-left




usemtl colormap

f 3/1/3 2/1/2 1/1/1
f 6/1/5 5/1/4 4/1/4
f 5/1/4 6/1/5 7/1/5
f 10/1/8 9/1/7 8/1/6
f 9/1/7 10/1/8 11/1/8
f 14/1/11 13/1/10 12/1/9
f 13/1/10 14/1/11 15/1/12
f 11/1/15 16/1/14 9/1/13
f 16/1/14 11/1/15 17/1/16
f 20/1/19 19/1/18 18/1/17
f 19/1/18 20/1/19 21/1/20
f 24/1/23 23/1/22 22/1/21
f 23/1/22 24/1/23 25/1/24
f 28/1/27 27/1/26 26/1/25
f 27/1/26 28/1/27 29/1/28
f 29/1/28 31/1/30 30/1/29
f 31/1/30 29/1/28 32/1/31
f 23/1/22 34/1/33 33/1/32
f 34/1/33 23/1/22 25/1/24
f 37/1/36 36/1/35 35/1/34
f 36/1/35 37/1/36 27/1/26
f 40/1/39 39/1/38 38/1/37
f 39/1/38 40/1/39 41/1/40
f 27/1/26 30/1/29 36/1/35
f 30/1/29 27/1/26 29/1/28
f 44/1/43 43/1/42 42/1/41
f 43/1/42 44/1/43 45/1/44
f 12/1/9 47/1/46 46/1/45
f 47/1/46 12/1/9 13/1/10
f 43/1/42 49/1/48 48/1/47
f 49/1/48 43/1/42 50/1/49
f 26/1/25 37/1/36 51/1/50
f 37/1/36 26/1/25 27/1/26
f 22/1/21 53/1/52 52/1/51
f 53/1/52 22/1/21 23/1/22
f 52/1/51 19/1/18 54/1/53
f 19/1/18 52/1/51 53/1/52
f 38/1/37 56/1/55 55/1/54
f 56/1/55 38/1/37 57/1/56
f 51/1/50 25/1/24 24/1/23
f 25/1/24 51/1/50 37/1/36
f 60/1/59 59/1/58 58/1/57
f 59/1/58 60/1/59 61/1/6
f 64/1/62 63/1/61 62/1/60
f 63/1/61 64/1/62 20/1/19
f 63/1/61 20/1/19 65/1/63
f 65/1/63 20/1/19 18/1/17
f 18/1/17 40/1/39 65/1/63
f 40/1/39 18/1/17 66/1/64
f 40/1/39 66/1/64 33/1/32
f 40/1/39 33/1/32 41/1/40
f 41/1/40 33/1/32 34/1/33
f 41/1/40 34/1/33 67/1/65
f 67/1/65 34/1/33 35/1/34
f 67/1/65 35/1/34 36/1/35
f 67/1/65 36/1/35 68/1/66
f 68/1/66 36/1/35 30/1/29
f 68/1/66 30/1/29 69/1/67
f 69/1/67 30/1/29 31/1/30
f 69/1/67 31/1/30 1/1/1
f 1/1/1 31/1/30 70/1/68
f 1/1/1 70/1/68 3/1/3
f 3/1/3 70/1/68 48/1/47
f 71/1/69 3/1/3 48/1/47
f 71/1/69 48/1/47 49/1/48
f 71/1/69 49/1/48 58/1/57
f 71/1/69 58/1/57 59/1/58
f 72/1/69 3/1/3 71/1/69
f 3/1/3 72/1/69 73/1/58
f 32/1/31 70/1/68 31/1/30
f 70/1/68 32/1/31 42/1/41
f 45/1/44 50/1/49 43/1/42
f 50/1/49 45/1/44 74/1/70
f 63/1/61 55/1/54 14/1/11
f 55/1/54 63/1/61 65/1/63
f 68/1/66 9/1/13 16/1/14
f 9/1/13 68/1/66 69/1/67
f 9/1/13 69/1/67 75/1/71
f 46/1/45 62/1/60 12/1/9
f 62/1/60 46/1/45 64/1/62
f 39/1/38 57/1/56 38/1/37
f 57/1/56 39/1/38 76/1/72
f 74/1/70 60/1/59 50/1/49
f 60/1/59 74/1/70 77/1/73
f 67/1/65 16/1/14 78/1/74
f 16/1/14 67/1/65 68/1/66
f 42/1/41 48/1/47 70/1/68
f 48/1/47 42/1/41 43/1/42
f 16/1/14 79/1/75 78/1/74
f 79/1/75 16/1/14 17/1/16
f 80/1/76 42/1/41 32/1/31
f 42/1/41 80/1/76 44/1/43
f 62/1/60 14/1/11 12/1/9
f 14/1/11 62/1/60 63/1/61
f 25/1/24 35/1/34 34/1/33
f 35/1/34 25/1/24 37/1/36
f 65/1/63 38/1/37 55/1/54
f 38/1/37 65/1/63 40/1/39
f 19/1/18 66/1/64 18/1/17
f 66/1/64 19/1/18 53/1/52
f 54/1/53 21/1/20 81/1/77
f 21/1/20 54/1/53 19/1/18
f 71/1/69 5/1/4 72/1/69
f 5/1/4 71/1/69 4/1/4
f 69/1/67 2/1/2 75/1/71
f 2/1/2 69/1/67 1/1/1
f 9/1/7 73/1/58 8/1/6
f 73/1/58 9/1/7 75/1/78
f 73/1/58 75/1/78 2/1/78
f 73/1/58 2/1/78 3/1/3
f 53/1/52 33/1/32 66/1/64
f 33/1/32 53/1/52 23/1/22
f 77/1/73 61/1/6 60/1/59
f 61/1/6 77/1/73 82/1/8
f 41/1/40 78/1/74 39/1/38
f 78/1/74 41/1/40 67/1/65
f 50/1/49 58/1/57 49/1/48
f 58/1/57 50/1/49 60/1/59
f 55/1/54 15/1/12 14/1/11
f 15/1/12 55/1/54 56/1/55
f 28/1/27 32/1/31 29/1/28
f 32/1/31 28/1/27 80/1/76
f 78/1/74 76/1/72 39/1/38
f 76/1/72 78/1/74 79/1/75
f 47/2/79 10/2/79 83/2/79
f 10/2/79 47/2/79 13/2/79
f 15/2/79 10/2/79 13/2/79
f 56/2/79 10/2/79 15/2/79
f 57/2/79 10/2/79 56/2/79
f 76/2/79 10/2/79 57/2/79
f 79/2/79 10/2/79 76/2/79
f 17/2/79 10/2/79 79/2/79
f 10/2/79 17/2/79 11/2/79
f 10/2/80 84/2/80 83/2/80
f 84/2/80 10/2/80 8/2/80
f 84/2/80 8/2/80 85/2/80
f 85/2/80 8/2/80 73/2/80
f 85/2/80 73/2/80 72/2/80
f 85/2/80 72/2/80 5/2/80
f 85/2/80 5/2/80 7/2/80
f 85/2/80 7/2/80 86/2/80
f 88/2/81 84/2/81 87/2/81
f 84/2/81 88/2/81 20/2/81
f 20/2/81 88/2/81 21/2/81
f 21/2/81 88/2/81 81/2/81
f 64/2/81 84/2/81 20/2/81
f 46/2/81 84/2/81 64/2/81
f 84/2/81 46/2/81 83/2/81
f 83/2/81 46/2/81 47/2/81
f 81/2/79 52/2/79 54/2/79
f 52/2/79 81/2/79 88/2/79
f 52/2/79 88/2/79 22/2/79
f 22/2/79 88/2/79 24/2/79
f 24/2/79 88/2/79 51/2/79
f 51/2/79 88/2/79 26/2/79
f 26/2/79 88/2/79 28/2/79
f 28/2/79 88/2/79 80/2/79
f 80/2/79 88/2/79 44/2/79
f 44/2/79 88/2/79 45/2/79
f 45/2/79 88/2/79 74/2/79
f 74/2/79 88/2/79 77/2/79
f 77/2/79 88/2/79 82/2/79
f 85/2/82 87/2/82 84/2/82
f 87/2/82 85/2/82 89/2/82
f 6/2/79 86/2/79 7/2/79
f 86/2/79 6/2/79 90/2/79
f 86/2/83 89/2/83 85/2/83
f 89/2/83 86/2/83 90/2/83
f 89/2/84 88/2/84 87/2/84
f 88/2/84 89/2/84 61/2/84
f 88/2/84 61/2/84 82/2/84
f 61/2/84 89/2/84 59/2/84
f 59/2/84 89/2/84 71/2/84
f 71/2/84 89/2/84 4/2/84
f 4/2/84 89/2/84 6/2/84
f 6/2/84 89/2/84 90/2/84

