# Created by Kenney (www.kenney.nl)

mtllib straight-wide.mtl

g straight-wide

v -0.2 0.25 -0.5 1 1 1
v -0.2 0.25 0.5 1 1 1
v -0.575 0.3125 -0.5 1 1 1
v -0.575 0.3125 0.5 1 1 1
v -0.7 0.5 -0.5 1 1 1
v -0.7 0.5 0.5 1 1 1
v 0.2 0.25 -0.5 1 1 1
v 0.2 0.25 0.5 1 1 1
v 0.575 0.3125 -0.5 1 1 1
v 0.7 0.5 -0.5 1 1 1
v 0.575 0.3125 0.5 1 1 1
v 0.7 0.5 0.5 1 1 1
v -0.85 0.5 -0.5 1 1 1
v -0.85 0 -0.5 1 1 1
v 0.85 0 -0.5 1 1 1
v 0.85 0.5 -0.5 1 1 1
v 0.85 0 0.5 1 1 1
v -0.85 0 0.5 1 1 1
v 0.85 0.5 0.5 1 1 1
v -0.85 0.5 0.5 1 1 1

vn 0.08248053 0.9965927 0
vn 0.5429711 0.8397514 0
vn 0.8320503 0.5547002 0
vn -0.08248053 0.9965927 0
vn -0.5429711 0.8397514 0
vn -0.8320503 0.5547002 0
vn 0 0 -1
vn 0 -1 0
vn 0 0 1
vn 1 0 0
vn 0 1 0
vn -1 0 0

vt 0.28125 0.375
vt 0.90625 0.375

usemtl colormap

f 3/1/2 2/1/1 1/1/1
f 2/1/1 3/1/2 4/1/2
f 6/1/3 3/1/2 5/1/3
f 3/1/2 6/1/3 4/1/2
f 1/1/1 8/1/4 7/1/4
f 8/1/4 1/1/1 2/1/1
f 11/1/5 10/1/6 9/1/5
f 10/1/6 11/1/5 12/1/6
f 7/1/4 11/1/5 9/1/5
f 11/1/5 7/1/4 8/1/4
f 3/2/7 13/2/7 5/2/7
f 3/2/7 14/2/7 13/2/7
f 14/2/7 3/2/7 15/2/7
f 15/2/7 3/2/7 1/2/7
f 7/2/7 15/2/7 1/2/7
f 9/2/7 15/2/7 7/2/7
f 15/2/7 9/2/7 16/2/7
f 16/2/7 9/2/7 10/2/7
f 18/2/8 15/2/8 17/2/8
f 15/2/8 18/2/8 14/2/8
f 11/2/9 19/2/9 12/2/9
f 11/2/9 17/2/9 19/2/9
f 17/2/9 11/2/9 18/2/9
f 18/2/9 11/2/9 8/2/9
f 2/2/9 18/2/9 8/2/9
f 4/2/9 18/2/9 2/2/9
f 18/2/9 4/2/9 20/2/9
f 20/2/9 4/2/9 6/2/9
f 19/2/10 15/2/10 16/2/10
f 15/2/10 19/2/10 17/2/10
f 13/2/11 6/2/11 5/2/11
f 6/2/11 13/2/11 20/2/11
f 18/2/12 13/2/12 14/2/12
f 13/2/12 18/2/12 20/2/12
f 10/2/11 19/2/11 16/2/11
f 19/2/11 10/2/11 12/2/11

g straight-wide




usemtl colormap

f 3/1/2 2/1/1 1/1/1
f 2/1/1 3/1/2 4/1/2
f 6/1/3 3/1/2 5/1/3
f 3/1/2 6/1/3 4/1/2
f 1/1/1 8/1/4 7/1/4
f 8/1/4 1/1/1 2/1/1
f 11/1/5 10/1/6 9/1/5
f 10/1/6 11/1/5 12/1/6
f 7/1/4 11/1/5 9/1/5
f 11/1/5 7/1/4 8/1/4
f 3/2/7 13/2/7 5/2/7
f 3/2/7 14/2/7 13/2/7
f 14/2/7 3/2/7 15/2/7
f 15/2/7 3/2/7 1/2/7
f 7/2/7 15/2/7 1/2/7
f 9/2/7 15/2/7 7/2/7
f 15/2/7 9/2/7 16/2/7
f 16/2/7 9/2/7 10/2/7
f 18/2/8 15/2/8 17/2/8
f 15/2/8 18/2/8 14/2/8
f 11/2/9 19/2/9 12/2/9
f 11/2/9 17/2/9 19/2/9
f 17/2/9 11/2/9 18/2/9
f 18/2/9 11/2/9 8/2/9
f 2/2/9 18/2/9 8/2/9
f 4/2/9 18/2/9 2/2/9
f 18/2/9 4/2/9 20/2/9
f 20/2/9 4/2/9 6/2/9
f 19/2/10 15/2/10 16/2/10
f 15/2/10 19/2/10 17/2/10
f 13/2/11 6/2/11 5/2/11
f 6/2/11 13/2/11 20/2/11
f 18/2/12 13/2/12 14/2/12
f 13/2/12 18/2/12 20/2/12
f 10/2/11 19/2/11 16/2/11
f 19/2/11 10/2/11 12/2/11

