# Created by Kenney (www.kenney.nl)

mtllib straight-hole.mtl

g straight-hole

v 0.2875 0.3125 -0.5 1 1 1
v 0.35 0.5 -0.5 1 1 1
v 0.2875 0.3125 0.5 1 1 1
v 0.35 0.5 0.5 1 1 1
v 0.1 0.25 -0.2280772 1 1 1
v 0.1 0.25 -0.5 1 1 1
v 0.1767767 0.2755922 -0.1767767 1 1 1
v 0.2309699 0.2936566 -0.09567086 1 1 1
v 0.25 0.3 4.331469E-15 1 1 1
v 0.2309699 0.2936566 0.09567086 1 1 1
v 0.1 0.25 0.5 1 1 1
v 0.1767767 0.2755922 0.1767767 1 1 1
v 0.1 0.25 0.2280772 1 1 1
v 0.09567086 0.25 -0.2309699 1 1 1
v -0.1 0.25 -0.5 1 1 1
v 0 0.25 -0.25 1 1 1
v -0.09567086 0.25 -0.2309699 1 1 1
v -0.1 0.25 -0.2280772 1 1 1
v -0.35 0.5 -0.5 1 1 1
v -0.2875 0.3125 -0.5 1 1 1
v -0.35 0.5 0.5 1 1 1
v -0.2875 0.3125 0.5 1 1 1
v 0.09567086 0.25 0.2309699 1 1 1
v -0.1 0.25 0.5 1 1 1
v 0 0.25 0.25 1 1 1
v -0.09567086 0.25 0.2309699 1 1 1
v -0.1 0.25 0.2280772 1 1 1
v -0.1767767 0.2755922 -0.1767767 1 1 1
v -0.2309699 0.2936566 -0.09567086 1 1 1
v -0.25 0.3 5.775291E-15 1 1 1
v -0.2309699 0.2936566 0.09567086 1 1 1
v -0.1767767 0.2755922 0.1767767 1 1 1
v -0.25 0 2.887646E-15 1 1 1
v -0.2309699 0 0.09567086 1 1 1
v -0.1767767 0 -0.1767767 1 1 1
v -0.2309699 0 -0.09567086 1 1 1
v 0.1767767 0 -0.1767767 1 1 1
v 0.09567086 0 -0.2309699 1 1 1
v -0.09567086 0 -0.2309699 1 1 1
v 0 0 -0.25 1 1 1
v 0.2309699 0 -0.09567086 1 1 1
v 0.25 0 2.887646E-15 1 1 1
v 0.2309699 0 0.09567086 1 1 1
v -0.5 0.5 -0.5 1 1 1
v -0.5 0 -0.5 1 1 1
v 0.5 0 -0.5 1 1 1
v 0.5 0.5 -0.5 1 1 1
v 0.09567086 0 0.2309699 1 1 1
v 0.1767767 0 0.1767767 1 1 1
v -0.5 0.5 0.5 1 1 1
v -0.5 0 0.5 1 1 1
v 0.5 0.5 0.5 1 1 1
v -0.09567086 0 0.2309699 1 1 1
v 0 0 0.25 1 1 1
v 0.5 0 0.5 1 1 1
v -0.1767767 0 0.1767767 1 1 1

vn -0.7071068 0.7071068 0
vn -0.9486833 0.3162278 0
vn -0.2190823 0.9757063 0
vn -0.1601822 0.9870875 0
vn -0.3162278 0.9486833 0
vn 0 1 0
vn 0.1601822 0.9870875 0
vn 0.2190823 0.9757063 0
vn 0.9486833 0.3162278 0
vn 0.7071068 0.7071068 0
vn 0.3162278 0.9486833 0
vn 1 0 0
vn 0.9238795 0 -0.3826834
vn 0.930001 0 -0.3675571
vn 0.7276725 0 0.6859247
vn 0.7071068 0 0.7071068
vn 0.930001 0 0.3675571
vn 0.9238795 0 0.3826834
vn -0.7071068 0 0.7071068
vn -0.3826834 0 0.9238795
vn -0.7276725 0 0.6859247
vn -0.5555702 0 0.8314696
vn 0.3826834 0 0.9238795
vn 0.5555702 0 0.8314696
vn 0 0 1
vn -0.9238795 0 0.3826834
vn -0.930001 0 0.3675571
vn -1 0 0
vn -0.9238795 0 -0.3826834
vn -0.930001 0 -0.3675571
vn 0 0 -1
vn -0.3826834 0 -0.9238795
vn -0.7071068 0 -0.7071068
vn -0.5555702 0 -0.8314696
vn -0.7276725 0 -0.6859247
vn 0.3826834 0 -0.9238795
vn 0.7071068 0 -0.7071068
vn 0.7276725 0 -0.6859247
vn 0.5555702 0 -0.8314696
vn 0 -1 0

vt 0.28125 0.375
vt 0.90625 0.375

usemtl colormap

f 3/1/1 2/1/2 1/1/1
f 2/1/2 3/1/1 4/1/2
f 7/1/5 6/1/4 5/1/3
f 8/1/5 6/1/4 7/1/5
f 8/1/5 1/1/1 6/1/4
f 9/1/5 1/1/1 8/1/5
f 1/1/1 9/1/5 3/1/1
f 10/1/5 3/1/1 9/1/5
f 3/1/1 10/1/5 11/1/4
f 11/1/4 10/1/5 12/1/5
f 11/1/4 12/1/5 13/1/3
f 6/1/4 14/1/6 5/1/3
f 14/1/6 6/1/4 15/1/7
f 14/1/6 15/1/7 16/1/6
f 16/1/6 15/1/7 17/1/6
f 17/1/6 15/1/7 18/1/8
f 21/1/9 20/1/10 19/1/9
f 20/1/10 21/1/9 22/1/10
f 23/1/6 11/1/4 13/1/3
f 11/1/4 23/1/6 24/1/7
f 24/1/7 23/1/6 25/1/6
f 24/1/7 25/1/6 26/1/6
f 24/1/7 26/1/6 27/1/8
f 20/1/10 18/1/8 15/1/7
f 18/1/8 20/1/10 28/1/11
f 28/1/11 20/1/10 29/1/11
f 29/1/11 20/1/10 30/1/11
f 22/1/10 30/1/11 20/1/10
f 22/1/10 31/1/11 30/1/11
f 22/1/10 32/1/11 31/1/11
f 22/1/10 27/1/8 32/1/11
f 27/1/8 22/1/10 24/1/7
f 30/2/12 34/2/13 33/2/12
f 34/2/13 30/2/12 31/2/14
f 29/2/17 35/2/16 28/2/15
f 35/2/16 29/2/17 36/2/18
f 7/2/21 38/2/20 37/2/19
f 38/2/20 7/2/21 5/2/22
f 38/2/20 5/2/22 14/2/20
f 17/2/23 35/2/16 39/2/23
f 35/2/16 17/2/23 18/2/24
f 28/2/15 35/2/16 18/2/24
f 14/2/20 40/2/25 38/2/20
f 40/2/25 14/2/20 16/2/25
f 41/2/26 7/2/21 37/2/19
f 7/2/21 41/2/26 8/2/27
f 43/2/29 9/2/28 42/2/28
f 9/2/28 43/2/29 10/2/30
f 20/2/31 44/2/31 19/2/31
f 20/2/31 45/2/31 44/2/31
f 45/2/31 20/2/31 46/2/31
f 46/2/31 20/2/31 15/2/31
f 6/2/31 46/2/31 15/2/31
f 1/2/31 46/2/31 6/2/31
f 46/2/31 1/2/31 47/2/31
f 47/2/31 1/2/31 2/2/31
f 23/2/32 49/2/33 48/2/32
f 49/2/33 23/2/32 13/2/34
f 49/2/33 13/2/34 12/2/35
f 49/2/33 10/2/30 43/2/29
f 10/2/30 49/2/33 12/2/35
f 30/2/12 36/2/18 29/2/17
f 36/2/18 30/2/12 33/2/12
f 44/2/6 21/2/6 19/2/6
f 21/2/6 44/2/6 50/2/6
f 42/2/28 8/2/27 41/2/26
f 8/2/27 42/2/28 9/2/28
f 51/2/28 44/2/28 45/2/28
f 44/2/28 51/2/28 50/2/28
f 2/2/6 52/2/6 47/2/6
f 52/2/6 2/2/6 4/2/6
f 26/2/36 54/2/31 53/2/36
f 54/2/31 26/2/36 25/2/31
f 16/2/25 39/2/23 40/2/25
f 39/2/23 16/2/25 17/2/23
f 52/2/12 46/2/12 47/2/12
f 46/2/12 52/2/12 55/2/12
f 31/2/14 56/2/37 34/2/13
f 56/2/37 31/2/14 32/2/38
f 25/2/31 48/2/32 54/2/31
f 48/2/32 25/2/31 23/2/32
f 32/2/38 53/2/36 56/2/37
f 53/2/36 32/2/38 27/2/39
f 26/2/36 53/2/36 27/2/39
f 3/2/25 52/2/25 4/2/25
f 3/2/25 55/2/25 52/2/25
f 55/2/25 3/2/25 51/2/25
f 51/2/25 3/2/25 11/2/25
f 24/2/25 51/2/25 11/2/25
f 22/2/25 51/2/25 24/2/25
f 51/2/25 22/2/25 50/2/25
f 50/2/25 22/2/25 21/2/25
f 45/2/40 35/2/40 36/2/40
f 45/2/40 39/2/40 35/2/40
f 45/2/40 40/2/40 39/2/40
f 45/2/40 36/2/40 33/2/40
f 45/2/40 38/2/40 40/2/40
f 45/2/40 33/2/40 51/2/40
f 46/2/40 38/2/40 45/2/40
f 34/2/40 51/2/40 33/2/40
f 38/2/40 46/2/40 37/2/40
f 56/2/40 51/2/40 34/2/40
f 37/2/40 46/2/40 41/2/40
f 41/2/40 46/2/40 42/2/40
f 46/2/40 43/2/40 42/2/40
f 53/2/40 51/2/40 56/2/40
f 54/2/40 51/2/40 53/2/40
f 48/2/40 51/2/40 54/2/40
f 55/2/40 43/2/40 46/2/40
f 48/2/40 55/2/40 51/2/40
f 43/2/40 55/2/40 49/2/40
f 49/2/40 55/2/40 48/2/40

g straight-hole




usemtl colormap

f 3/1/1 2/1/2 1/1/1
f 2/1/2 3/1/1 4/1/2
f 7/1/5 6/1/4 5/1/3
f 8/1/5 6/1/4 7/1/5
f 8/1/5 1/1/1 6/1/4
f 9/1/5 1/1/1 8/1/5
f 1/1/1 9/1/5 3/1/1
f 10/1/5 3/1/1 9/1/5
f 3/1/1 10/1/5 11/1/4
f 11/1/4 10/1/5 12/1/5
f 11/1/4 12/1/5 13/1/3
f 6/1/4 14/1/6 5/1/3
f 14/1/6 6/1/4 15/1/7
f 14/1/6 15/1/7 16/1/6
f 16/1/6 15/1/7 17/1/6
f 17/1/6 15/1/7 18/1/8
f 21/1/9 20/1/10 19/1/9
f 20/1/10 21/1/9 22/1/10
f 23/1/6 11/1/4 13/1/3
f 11/1/4 23/1/6 24/1/7
f 24/1/7 23/1/6 25/1/6
f 24/1/7 25/1/6 26/1/6
f 24/1/7 26/1/6 27/1/8
f 20/1/10 18/1/8 15/1/7
f 18/1/8 20/1/10 28/1/11
f 28/1/11 20/1/10 29/1/11
f 29/1/11 20/1/10 30/1/11
f 22/1/10 30/1/11 20/1/10
f 22/1/10 31/1/11 30/1/11
f 22/1/10 32/1/11 31/1/11
f 22/1/10 27/1/8 32/1/11
f 27/1/8 22/1/10 24/1/7
f 30/2/12 34/2/13 33/2/12
f 34/2/13 30/2/12 31/2/14
f 29/2/17 35/2/16 28/2/15
f 35/2/16 29/2/17 36/2/18
f 7/2/21 38/2/20 37/2/19
f 38/2/20 7/2/21 5/2/22
f 38/2/20 5/2/22 14/2/20
f 17/2/23 35/2/16 39/2/23
f 35/2/16 17/2/23 18/2/24
f 28/2/15 35/2/16 18/2/24
f 14/2/20 40/2/25 38/2/20
f 40/2/25 14/2/20 16/2/25
f 41/2/26 7/2/21 37/2/19
f 7/2/21 41/2/26 8/2/27
f 43/2/29 9/2/28 42/2/28
f 9/2/28 43/2/29 10/2/30
f 20/2/31 44/2/31 19/2/31
f 20/2/31 45/2/31 44/2/31
f 45/2/31 20/2/31 46/2/31
f 46/2/31 20/2/31 15/2/31
f 6/2/31 46/2/31 15/2/31
f 1/2/31 46/2/31 6/2/31
f 46/2/31 1/2/31 47/2/31
f 47/2/31 1/2/31 2/2/31
f 23/2/32 49/2/33 48/2/32
f 49/2/33 23/2/32 13/2/34
f 49/2/33 13/2/34 12/2/35
f 49/2/33 10/2/30 43/2/29
f 10/2/30 49/2/33 12/2/35
f 30/2/12 36/2/18 29/2/17
f 36/2/18 30/2/12 33/2/12
f 44/2/6 21/2/6 19/2/6
f 21/2/6 44/2/6 50/2/6
f 42/2/28 8/2/27 41/2/26
f 8/2/27 42/2/28 9/2/28
f 51/2/28 44/2/28 45/2/28
f 44/2/28 51/2/28 50/2/28
f 2/2/6 52/2/6 47/2/6
f 52/2/6 2/2/6 4/2/6
f 26/2/36 54/2/31 53/2/36
f 54/2/31 26/2/36 25/2/31
f 16/2/25 39/2/23 40/2/25
f 39/2/23 16/2/25 17/2/23
f 52/2/12 46/2/12 47/2/12
f 46/2/12 52/2/12 55/2/12
f 31/2/14 56/2/37 34/2/13
f 56/2/37 31/2/14 32/2/38
f 25/2/31 48/2/32 54/2/31
f 48/2/32 25/2/31 23/2/32
f 32/2/38 53/2/36 56/2/37
f 53/2/36 32/2/38 27/2/39
f 26/2/36 53/2/36 27/2/39
f 3/2/25 52/2/25 4/2/25
f 3/2/25 55/2/25 52/2/25
f 55/2/25 3/2/25 51/2/25
f 51/2/25 3/2/25 11/2/25
f 24/2/25 51/2/25 11/2/25
f 22/2/25 51/2/25 24/2/25
f 51/2/25 22/2/25 50/2/25
f 50/2/25 22/2/25 21/2/25
f 45/2/40 35/2/40 36/2/40
f 45/2/40 39/2/40 35/2/40
f 45/2/40 40/2/40 39/2/40
f 45/2/40 36/2/40 33/2/40
f 45/2/40 38/2/40 40/2/40
f 45/2/40 33/2/40 51/2/40
f 46/2/40 38/2/40 45/2/40
f 34/2/40 51/2/40 33/2/40
f 38/2/40 46/2/40 37/2/40
f 56/2/40 51/2/40 34/2/40
f 37/2/40 46/2/40 41/2/40
f 41/2/40 46/2/40 42/2/40
f 46/2/40 43/2/40 42/2/40
f 53/2/40 51/2/40 56/2/40
f 54/2/40 51/2/40 53/2/40
f 48/2/40 51/2/40 54/2/40
f 55/2/40 43/2/40 46/2/40
f 48/2/40 55/2/40 51/2/40
f 43/2/40 55/2/40 49/2/40
f 49/2/40 55/2/40 48/2/40

