# Created by Kenney (www.kenney.nl)

mtllib support-two-middle.mtl

g support-two-middle

v -0.25 0.5 -0.05 1 1 1
v -0.25 0.5 0.05 1 1 1
v -0.3 0.5 -0.1 1 1 1
v -0.3 0.5 0.1 1 1 1
v -0.4 0.5 -0.1 1 1 1
v -0.4 0.5 0.1 1 1 1
v -0.45 0.5 -0.05 1 1 1
v -0.45 0.5 0.05 1 1 1
v -0.4 4.508361E-17 -0.1 1 1 1
v -0.45 4.508361E-17 -0.05 1 1 1
v -0.45 4.508361E-17 0.05 1 1 1
v -0.4 4.508361E-17 0.1 1 1 1
v -0.3 4.508361E-17 0.1 1 1 1
v -0.25 4.508361E-17 0.05 1 1 1
v -0.25 4.508361E-17 -0.05 1 1 1
v -0.3 4.508361E-17 -0.1 1 1 1
v 0.4468768 0.5 -0.05 1 1 1
v 0.4468768 0.5 0.05 1 1 1
v 0.3968768 0.5 -0.1 1 1 1
v 0.3968768 0.5 0.1 1 1 1
v 0.2968768 0.5 -0.1 1 1 1
v 0.2968768 0.5 0.1 1 1 1
v 0.2468768 0.5 -0.05 1 1 1
v 0.2468768 0.5 0.05 1 1 1
v 0.2968768 4.508361E-17 -0.1 1 1 1
v 0.2468768 4.508361E-17 -0.05 1 1 1
v 0.2468768 4.508361E-17 0.05 1 1 1
v 0.2968768 4.508361E-17 0.1 1 1 1
v 0.3968768 4.508361E-17 0.1 1 1 1
v 0.3968768 4.508361E-17 -0.1 1 1 1
v 0.4468768 4.508361E-17 -0.05 1 1 1
v 0.4468768 4.508361E-17 0.05 1 1 1

vn 0 1 0
vn -0.3826834 0 -0.9238795
vn -0.9238795 0 -0.3826834
vn -0.9238795 0 0.3826834
vn -0.3826834 0 0.9238795
vn 0.3826834 0 0.9238795
vn 0.9238795 0 0.3826834
vn 0.9238795 0 -0.3826834
vn 0.3826834 0 -0.9238795
vn 0 -1 0

vt 0.21875 0.225
vt 0.21875 0.025

usemtl colormap

f 3/1/1 2/1/1 1/1/1
f 2/1/1 3/1/1 4/1/1
f 4/1/1 3/1/1 5/1/1
f 4/1/1 5/1/1 6/1/1
f 6/1/1 5/1/1 7/1/1
f 6/1/1 7/1/1 8/1/1
f 10/2/3 5/1/2 9/2/2
f 5/1/2 10/2/3 7/1/3
f 11/2/4 7/1/3 10/2/3
f 7/1/3 11/2/4 8/1/4
f 12/2/5 8/1/4 11/2/4
f 8/1/4 12/2/5 6/1/5
f 4/1/6 12/2/5 13/2/6
f 12/2/5 4/1/6 6/1/5
f 4/1/6 14/2/7 2/1/7
f 14/2/7 4/1/6 13/2/6
f 2/1/7 15/2/8 1/1/8
f 15/2/8 2/1/7 14/2/7
f 1/1/8 16/2/9 3/1/9
f 16/2/9 1/1/8 15/2/8
f 5/1/2 16/2/9 9/2/2
f 16/2/9 5/1/2 3/1/9
f 19/1/1 18/1/1 17/1/1
f 18/1/1 19/1/1 20/1/1
f 20/1/1 19/1/1 21/1/1
f 20/1/1 21/1/1 22/1/1
f 22/1/1 21/1/1 23/1/1
f 22/1/1 23/1/1 24/1/1
f 26/2/3 21/1/2 25/2/2
f 21/1/2 26/2/3 23/1/3
f 27/2/4 23/1/3 26/2/3
f 23/1/3 27/2/4 24/1/4
f 28/2/5 24/1/4 27/2/4
f 24/1/4 28/2/5 22/1/5
f 20/1/6 28/2/5 29/2/6
f 28/2/5 20/1/6 22/1/5
f 17/1/8 30/2/9 19/1/9
f 30/2/9 17/1/8 31/2/8
f 21/1/2 30/2/9 25/2/2
f 30/2/9 21/1/2 19/1/9
f 20/1/6 32/2/7 18/1/7
f 32/2/7 20/1/6 29/2/6
f 18/1/7 31/2/8 17/1/8
f 31/2/8 18/1/7 32/2/7
f 29/2/10 31/2/10 32/2/10
f 31/2/10 29/2/10 30/2/10
f 30/2/10 29/2/10 28/2/10
f 30/2/10 28/2/10 25/2/10
f 25/2/10 28/2/10 27/2/10
f 25/2/10 27/2/10 26/2/10
f 13/2/10 15/2/10 14/2/10
f 15/2/10 13/2/10 16/2/10
f 16/2/10 13/2/10 12/2/10
f 16/2/10 12/2/10 9/2/10
f 9/2/10 12/2/10 11/2/10
f 9/2/10 11/2/10 10/2/10

g support-two-middle




usemtl colormap

f 3/1/1 2/1/1 1/1/1
f 2/1/1 3/1/1 4/1/1
f 4/1/1 3/1/1 5/1/1
f 4/1/1 5/1/1 6/1/1
f 6/1/1 5/1/1 7/1/1
f 6/1/1 7/1/1 8/1/1
f 10/2/3 5/1/2 9/2/2
f 5/1/2 10/2/3 7/1/3
f 11/2/4 7/1/3 10/2/3
f 7/1/3 11/2/4 8/1/4
f 12/2/5 8/1/4 11/2/4
f 8/1/4 12/2/5 6/1/5
f 4/1/6 12/2/5 13/2/6
f 12/2/5 4/1/6 6/1/5
f 4/1/6 14/2/7 2/1/7
f 14/2/7 4/1/6 13/2/6
f 2/1/7 15/2/8 1/1/8
f 15/2/8 2/1/7 14/2/7
f 1/1/8 16/2/9 3/1/9
f 16/2/9 1/1/8 15/2/8
f 5/1/2 16/2/9 9/2/2
f 16/2/9 5/1/2 3/1/9
f 19/1/1 18/1/1 17/1/1
f 18/1/1 19/1/1 20/1/1
f 20/1/1 19/1/1 21/1/1
f 20/1/1 21/1/1 22/1/1
f 22/1/1 21/1/1 23/1/1
f 22/1/1 23/1/1 24/1/1
f 26/2/3 21/1/2 25/2/2
f 21/1/2 26/2/3 23/1/3
f 27/2/4 23/1/3 26/2/3
f 23/1/3 27/2/4 24/1/4
f 28/2/5 24/1/4 27/2/4
f 24/1/4 28/2/5 22/1/5
f 20/1/6 28/2/5 29/2/6
f 28/2/5 20/1/6 22/1/5
f 17/1/8 30/2/9 19/1/9
f 30/2/9 17/1/8 31/2/8
f 21/1/2 30/2/9 25/2/2
f 30/2/9 21/1/2 19/1/9
f 20/1/6 32/2/7 18/1/7
f 32/2/7 20/1/6 29/2/6
f 18/1/7 31/2/8 17/1/8
f 31/2/8 18/1/7 32/2/7
f 29/2/10 31/2/10 32/2/10
f 31/2/10 29/2/10 30/2/10
f 30/2/10 29/2/10 28/2/10
f 30/2/10 28/2/10 25/2/10
f 25/2/10 28/2/10 27/2/10
f 25/2/10 27/2/10 26/2/10
f 13/2/10 15/2/10 14/2/10
f 15/2/10 13/2/10 16/2/10
f 16/2/10 13/2/10 12/2/10
f 16/2/10 12/2/10 9/2/10
f 9/2/10 12/2/10 11/2/10
f 9/2/10 11/2/10 10/2/10

