# Created by Kenney (www.kenney.nl)

mtllib support-color-two-bottom.mtl

g support-color-two-bottom

v 0.4468768 0.25 0.05 1 1 1
v 0.4968768 0.125 0.075 1 1 1
v 0.3968768 0.25 0.1 1 1 1
v 0.4218768 0.125 0.15 1 1 1
v 0.4968768 0.125 -0.075 1 1 1
v 0.4968768 2.784109E-18 -0.075 1 1 1
v 0.4968768 2.784109E-18 0.075 1 1 1
v 0.2718768 2.784109E-18 -0.15 1 1 1
v 0.2718768 0.125 -0.15 1 1 1
v 0.1968768 2.784109E-18 -0.075 1 1 1
v 0.1968768 0.125 -0.075 1 1 1
v 0.2468768 0.25 -0.05 1 1 1
v 0.1968768 0.125 0.075 1 1 1
v 0.2468768 0.25 0.05 1 1 1
v 0.2718768 0.125 0.15 1 1 1
v 0.2968768 0.25 0.1 1 1 1
v 0.4218768 0.125 -0.15 1 1 1
v 0.3968768 0.25 -0.1 1 1 1
v 0.4468768 0.25 -0.05 1 1 1
v 0.4218768 2.784109E-18 -0.15 1 1 1
v 0.2968768 0.25 -0.1 1 1 1
v 0.1968768 2.784109E-18 0.075 1 1 1
v 0.2718768 2.784109E-18 0.15 1 1 1
v 0.4218768 2.784109E-18 0.15 1 1 1
v -0.2 0.125 -0.075 1 1 1
v -0.2 0.125 0.075 1 1 1
v -0.25 0.25 -0.05 1 1 1
v -0.25 0.25 0.05 1 1 1
v -0.2 -3.585752E-20 0.075 1 1 1
v -0.275 0.125 0.15 1 1 1
v -0.275 -3.585752E-20 0.15 1 1 1
v -0.2 -3.585752E-20 -0.075 1 1 1
v -0.275 -3.585752E-20 -0.15 1 1 1
v -0.425 -3.585752E-20 0.15 1 1 1
v -0.425 -3.585752E-20 -0.15 1 1 1
v -0.5 -3.585752E-20 0.075 1 1 1
v -0.5 -3.585752E-20 -0.075 1 1 1
v -0.425 0.125 0.15 1 1 1
v -0.275 0.125 -0.15 1 1 1
v -0.3 0.25 -0.1 1 1 1
v -0.45 0.25 0.05 1 1 1
v -0.4 0.25 0.1 1 1 1
v -0.5 0.125 0.075 1 1 1
v -0.5 0.125 -0.075 1 1 1
v -0.45 0.25 -0.05 1 1 1
v -0.425 0.125 -0.15 1 1 1
v -0.4 0.25 -0.1 1 1 1
v -0.3 0.25 0.1 1 1 1
v -0.25 0.5 -0.05 1 1 1
v -0.25 0.5 0.05 1 1 1
v -0.3 0.5 -0.1 1 1 1
v -0.3 0.5 0.1 1 1 1
v -0.4 0.5 -0.1 1 1 1
v -0.4 0.5 0.1 1 1 1
v -0.45 0.5 -0.05 1 1 1
v -0.45 0.5 0.05 1 1 1
v 0.4468768 0.5 -0.05 1 1 1
v 0.4468768 0.5 0.05 1 1 1
v 0.3968768 0.5 -0.1 1 1 1
v 0.3968768 0.5 0.1 1 1 1
v 0.2968768 0.5 -0.1 1 1 1
v 0.2968768 0.5 0.1 1 1 1
v 0.2468768 0.5 -0.05 1 1 1
v 0.2468768 0.5 0.05 1 1 1

vn 0.8466818 0.4071807 0.3425401
vn 0.8415092 0.4075342 0.3546523
vn 0.3425401 0.4071807 0.8466818
vn 0.3546523 0.4075342 0.8415092
vn 0.9238795 0 -0.3826834
vn 0.9238795 0 0.3826834
vn -0.3826834 0 -0.9238795
vn -0.9238795 0 -0.3826834
vn -0.8415092 0.4075342 -0.3546523
vn -0.8466818 0.4071807 -0.3425401
vn -0.8415092 0.4075342 0.3546523
vn -0.8466818 0.4071807 0.3425401
vn -0.3546523 0.4075342 0.8415092
vn -0.3425401 0.4071807 0.8466818
vn 0.3546523 0.4075342 -0.8415092
vn 0.8415092 0.4075342 -0.3546523
vn 0.3425401 0.4071807 -0.8466818
vn 0.8466818 0.4071807 -0.3425401
vn 0.3826834 0 -0.9238795
vn -0.3546523 0.4075342 -0.8415092
vn -0.3425401 0.4071807 -0.8466818
vn -0.9238795 0 0.3826834
vn -0.3826834 0 0.9238795
vn 0.3826834 0 0.9238795
vn 0 -1 0
vn 0 1 0

vt 0.34375 0.375
vt 0.34375 0.325
vt 0.34375 0.275
vt 0.34375 0.475

usemtl colormap

f 3/1/3 2/2/2 1/1/1
f 2/2/2 3/1/3 4/2/4
f 2/2/6 6/3/5 5/2/5
f 6/3/5 2/2/6 7/3/6
f 10/3/8 9/2/7 8/3/7
f 9/2/7 10/3/8 11/2/8
f 13/2/11 12/1/10 11/2/9
f 12/1/10 13/2/11 14/1/12
f 3/1/3 15/2/13 4/2/4
f 15/2/13 3/1/3 16/1/14
f 13/2/11 16/1/14 14/1/12
f 16/1/14 13/2/11 15/2/13
f 18/1/17 5/2/16 17/2/15
f 5/2/16 18/1/17 19/1/18
f 9/2/7 20/3/19 8/3/7
f 20/3/19 9/2/7 17/2/19
f 21/1/21 17/2/15 9/2/20
f 17/2/15 21/1/21 18/1/17
f 22/3/22 11/2/8 10/3/8
f 11/2/8 22/3/22 13/2/22
f 19/1/18 2/2/2 5/2/16
f 2/2/2 19/1/18 1/1/1
f 23/3/23 13/2/22 22/3/22
f 13/2/22 23/3/23 15/2/23
f 5/2/5 20/3/19 17/2/19
f 20/3/19 5/2/5 6/3/5
f 11/2/9 21/1/21 9/2/20
f 21/1/21 11/2/9 12/1/10
f 4/2/24 23/3/23 24/3/24
f 23/3/23 4/2/24 15/2/23
f 4/2/24 7/3/6 2/2/6
f 7/3/6 4/2/24 24/3/24
f 24/3/25 6/3/25 7/3/25
f 6/3/25 24/3/25 20/3/25
f 20/3/25 24/3/25 23/3/25
f 20/3/25 23/3/25 8/3/25
f 8/3/25 23/3/25 22/3/25
f 8/3/25 22/3/25 10/3/25
f 27/1/18 26/2/2 25/2/16
f 26/2/2 27/1/18 28/1/1
f 30/2/24 29/3/6 26/2/6
f 29/3/6 30/2/24 31/3/24
f 31/3/25 32/3/25 29/3/25
f 32/3/25 31/3/25 33/3/25
f 33/3/25 31/3/25 34/3/25
f 33/3/25 34/3/25 35/3/25
f 35/3/25 34/3/25 36/3/25
f 35/3/25 36/3/25 37/3/25
f 30/2/24 34/3/23 31/3/24
f 34/3/23 30/2/24 38/2/23
f 40/1/17 25/2/16 39/2/15
f 25/2/16 40/1/17 27/1/18
f 43/2/11 42/1/14 41/1/12
f 42/1/14 43/2/11 38/2/13
f 34/3/23 43/2/22 36/3/22
f 43/2/22 34/3/23 38/2/23
f 43/2/11 45/1/10 44/2/9
f 45/1/10 43/2/11 41/1/12
f 26/2/6 32/3/5 25/2/5
f 32/3/5 26/2/6 29/3/6
f 47/1/21 39/2/15 46/2/20
f 39/2/15 47/1/21 40/1/17
f 46/2/7 33/3/19 35/3/7
f 33/3/19 46/2/7 39/2/19
f 25/2/5 33/3/19 39/2/19
f 33/3/19 25/2/5 32/3/5
f 37/3/8 46/2/7 35/3/7
f 46/2/7 37/3/8 44/2/8
f 36/3/22 44/2/8 37/3/8
f 44/2/8 36/3/22 43/2/22
f 44/2/9 47/1/21 46/2/20
f 47/1/21 44/2/9 45/1/10
f 48/1/3 26/2/2 28/1/1
f 26/2/2 48/1/3 30/2/4
f 48/1/3 38/2/13 30/2/4
f 38/2/13 48/1/3 42/1/14
f 51/4/26 50/4/26 49/4/26
f 50/4/26 51/4/26 52/4/26
f 52/4/26 51/4/26 53/4/26
f 52/4/26 53/4/26 54/4/26
f 54/4/26 53/4/26 55/4/26
f 54/4/26 55/4/26 56/4/26
f 45/1/8 53/4/7 47/1/7
f 53/4/7 45/1/8 55/4/8
f 41/1/22 55/4/8 45/1/8
f 55/4/8 41/1/22 56/4/22
f 42/1/23 56/4/22 41/1/22
f 56/4/22 42/1/23 54/4/23
f 52/4/24 42/1/23 48/1/24
f 42/1/23 52/4/24 54/4/23
f 52/4/24 28/1/6 50/4/6
f 28/1/6 52/4/24 48/1/24
f 50/4/6 27/1/5 49/4/5
f 27/1/5 50/4/6 28/1/6
f 49/4/5 40/1/19 51/4/19
f 40/1/19 49/4/5 27/1/5
f 53/4/7 40/1/19 47/1/7
f 40/1/19 53/4/7 51/4/19
f 59/4/26 58/4/26 57/4/26
f 58/4/26 59/4/26 60/4/26
f 60/4/26 59/4/26 61/4/26
f 60/4/26 61/4/26 62/4/26
f 62/4/26 61/4/26 63/4/26
f 62/4/26 63/4/26 64/4/26
f 12/1/8 61/4/7 21/1/7
f 61/4/7 12/1/8 63/4/8
f 14/1/22 63/4/8 12/1/8
f 63/4/8 14/1/22 64/4/22
f 16/1/23 64/4/22 14/1/22
f 64/4/22 16/1/23 62/4/23
f 60/4/24 16/1/23 3/1/24
f 16/1/23 60/4/24 62/4/23
f 57/4/5 18/1/19 59/4/19
f 18/1/19 57/4/5 19/1/5
f 61/4/7 18/1/19 21/1/7
f 18/1/19 61/4/7 59/4/19
f 60/4/24 1/1/6 58/4/6
f 1/1/6 60/4/24 3/1/24
f 58/4/6 19/1/5 57/4/5
f 19/1/5 58/4/6 1/1/6

g support-color-two-bottom




usemtl colormap

f 3/1/3 2/2/2 1/1/1
f 2/2/2 3/1/3 4/2/4
f 2/2/6 6/3/5 5/2/5
f 6/3/5 2/2/6 7/3/6
f 10/3/8 9/2/7 8/3/7
f 9/2/7 10/3/8 11/2/8
f 13/2/11 12/1/10 11/2/9
f 12/1/10 13/2/11 14/1/12
f 3/1/3 15/2/13 4/2/4
f 15/2/13 3/1/3 16/1/14
f 13/2/11 16/1/14 14/1/12
f 16/1/14 13/2/11 15/2/13
f 18/1/17 5/2/16 17/2/15
f 5/2/16 18/1/17 19/1/18
f 9/2/7 20/3/19 8/3/7
f 20/3/19 9/2/7 17/2/19
f 21/1/21 17/2/15 9/2/20
f 17/2/15 21/1/21 18/1/17
f 22/3/22 11/2/8 10/3/8
f 11/2/8 22/3/22 13/2/22
f 19/1/18 2/2/2 5/2/16
f 2/2/2 19/1/18 1/1/1
f 23/3/23 13/2/22 22/3/22
f 13/2/22 23/3/23 15/2/23
f 5/2/5 20/3/19 17/2/19
f 20/3/19 5/2/5 6/3/5
f 11/2/9 21/1/21 9/2/20
f 21/1/21 11/2/9 12/1/10
f 4/2/24 23/3/23 24/3/24
f 23/3/23 4/2/24 15/2/23
f 4/2/24 7/3/6 2/2/6
f 7/3/6 4/2/24 24/3/24
f 24/3/25 6/3/25 7/3/25
f 6/3/25 24/3/25 20/3/25
f 20/3/25 24/3/25 23/3/25
f 20/3/25 23/3/25 8/3/25
f 8/3/25 23/3/25 22/3/25
f 8/3/25 22/3/25 10/3/25
f 27/1/18 26/2/2 25/2/16
f 26/2/2 27/1/18 28/1/1
f 30/2/24 29/3/6 26/2/6
f 29/3/6 30/2/24 31/3/24
f 31/3/25 32/3/25 29/3/25
f 32/3/25 31/3/25 33/3/25
f 33/3/25 31/3/25 34/3/25
f 33/3/25 34/3/25 35/3/25
f 35/3/25 34/3/25 36/3/25
f 35/3/25 36/3/25 37/3/25
f 30/2/24 34/3/23 31/3/24
f 34/3/23 30/2/24 38/2/23
f 40/1/17 25/2/16 39/2/15
f 25/2/16 40/1/17 27/1/18
f 43/2/11 42/1/14 41/1/12
f 42/1/14 43/2/11 38/2/13
f 34/3/23 43/2/22 36/3/22
f 43/2/22 34/3/23 38/2/23
f 43/2/11 45/1/10 44/2/9
f 45/1/10 43/2/11 41/1/12
f 26/2/6 32/3/5 25/2/5
f 32/3/5 26/2/6 29/3/6
f 47/1/21 39/2/15 46/2/20
f 39/2/15 47/1/21 40/1/17
f 46/2/7 33/3/19 35/3/7
f 33/3/19 46/2/7 39/2/19
f 25/2/5 33/3/19 39/2/19
f 33/3/19 25/2/5 32/3/5
f 37/3/8 46/2/7 35/3/7
f 46/2/7 37/3/8 44/2/8
f 36/3/22 44/2/8 37/3/8
f 44/2/8 36/3/22 43/2/22
f 44/2/9 47/1/21 46/2/20
f 47/1/21 44/2/9 45/1/10
f 48/1/3 26/2/2 28/1/1
f 26/2/2 48/1/3 30/2/4
f 48/1/3 38/2/13 30/2/4
f 38/2/13 48/1/3 42/1/14
f 51/4/26 50/4/26 49/4/26
f 50/4/26 51/4/26 52/4/26
f 52/4/26 51/4/26 53/4/26
f 52/4/26 53/4/26 54/4/26
f 54/4/26 53/4/26 55/4/26
f 54/4/26 55/4/26 56/4/26
f 45/1/8 53/4/7 47/1/7
f 53/4/7 45/1/8 55/4/8
f 41/1/22 55/4/8 45/1/8
f 55/4/8 41/1/22 56/4/22
f 42/1/23 56/4/22 41/1/22
f 56/4/22 42/1/23 54/4/23
f 52/4/24 42/1/23 48/1/24
f 42/1/23 52/4/24 54/4/23
f 52/4/24 28/1/6 50/4/6
f 28/1/6 52/4/24 48/1/24
f 50/4/6 27/1/5 49/4/5
f 27/1/5 50/4/6 28/1/6
f 49/4/5 40/1/19 51/4/19
f 40/1/19 49/4/5 27/1/5
f 53/4/7 40/1/19 47/1/7
f 40/1/19 53/4/7 51/4/19
f 59/4/26 58/4/26 57/4/26
f 58/4/26 59/4/26 60/4/26
f 60/4/26 59/4/26 61/4/26
f 60/4/26 61/4/26 62/4/26
f 62/4/26 61/4/26 63/4/26
f 62/4/26 63/4/26 64/4/26
f 12/1/8 61/4/7 21/1/7
f 61/4/7 12/1/8 63/4/8
f 14/1/22 63/4/8 12/1/8
f 63/4/8 14/1/22 64/4/22
f 16/1/23 64/4/22 14/1/22
f 64/4/22 16/1/23 62/4/23
f 60/4/24 16/1/23 3/1/24
f 16/1/23 60/4/24 62/4/23
f 57/4/5 18/1/19 59/4/19
f 18/1/19 57/4/5 19/1/5
f 61/4/7 18/1/19 21/1/7
f 18/1/19 61/4/7 59/4/19
f 60/4/24 1/1/6 58/4/6
f 1/1/6 60/4/24 3/1/24
f 58/4/6 19/1/5 57/4/5
f 19/1/5 58/4/6 1/1/6

