# Created by Kenney (www.kenney.nl)

mtllib support-four-top.mtl

g support-four-top

v -0.25 0.4 -0.4 1 1 1
v -0.25 0.4 -0.3 1 1 1
v -0.3 0.4 -0.45 1 1 1
v -0.3 0.4 -0.25 1 1 1
v -0.4 0.4 -0.45 1 1 1
v -0.4 0.4 -0.25 1 1 1
v -0.45 0.4 -0.4 1 1 1
v -0.45 0.4 -0.3 1 1 1
v -0.4 -3.585745E-20 -0.45 1 1 1
v -0.45 -3.585745E-20 -0.4 1 1 1
v -0.45 -3.585745E-20 -0.3 1 1 1
v -0.4 -3.585745E-20 -0.25 1 1 1
v -0.3 -3.585745E-20 -0.25 1 1 1
v -0.25 -3.585745E-20 -0.3 1 1 1
v -0.25 -3.585745E-20 -0.4 1 1 1
v -0.3 -3.585745E-20 -0.45 1 1 1
v -0.25 0.4 0.3 1 1 1
v -0.25 0.4 0.4 1 1 1
v -0.3 0.4 0.25 1 1 1
v -0.3 0.4 0.45 1 1 1
v -0.4 0.4 0.25 1 1 1
v -0.4 0.4 0.45 1 1 1
v -0.45 0.4 0.3 1 1 1
v -0.45 0.4 0.4 1 1 1
v -0.4 -3.585745E-20 0.25 1 1 1
v -0.45 -3.585745E-20 0.3 1 1 1
v -0.45 -3.585745E-20 0.4 1 1 1
v -0.4 -3.585745E-20 0.45 1 1 1
v -0.3 -3.585745E-20 0.45 1 1 1
v -0.25 -3.585745E-20 0.4 1 1 1
v -0.25 -3.585745E-20 0.3 1 1 1
v -0.3 -3.585745E-20 0.25 1 1 1
v 0.4468768 0.4 0.3 1 1 1
v 0.4468768 0.4 0.4 1 1 1
v 0.3968768 0.4 0.25 1 1 1
v 0.3968768 0.4 0.45 1 1 1
v 0.2968768 0.4 0.25 1 1 1
v 0.2968768 0.4 0.45 1 1 1
v 0.2468768 0.4 0.3 1 1 1
v 0.2468768 0.4 0.4 1 1 1
v 0.2968768 -3.585745E-20 0.25 1 1 1
v 0.2468768 -3.585745E-20 0.3 1 1 1
v 0.2468768 -3.585745E-20 0.4 1 1 1
v 0.2968768 -3.585745E-20 0.45 1 1 1
v 0.3968768 -3.585745E-20 0.45 1 1 1
v 0.3968768 -3.585745E-20 0.25 1 1 1
v 0.4468768 -3.585745E-20 0.3 1 1 1
v 0.4468768 0.4 -0.4 1 1 1
v 0.4468768 0.4 -0.3 1 1 1
v 0.3968768 0.4 -0.45 1 1 1
v 0.3968768 0.4 -0.25 1 1 1
v 0.2968768 0.4 -0.45 1 1 1
v 0.2968768 0.4 -0.25 1 1 1
v 0.2468768 0.4 -0.4 1 1 1
v 0.2468768 0.4 -0.3 1 1 1
v 0.2968768 -3.585745E-20 -0.45 1 1 1
v 0.2468768 -3.585745E-20 -0.4 1 1 1
v 0.2468768 -3.585745E-20 -0.3 1 1 1
v 0.2968768 -3.585745E-20 -0.25 1 1 1
v 0.3968768 -3.585745E-20 -0.25 1 1 1
v 0.4468768 -3.585745E-20 -0.3 1 1 1
v 0.4468768 -3.585745E-20 -0.4 1 1 1
v 0.3968768 -3.585745E-20 -0.45 1 1 1
v 0.4468768 -3.585745E-20 0.4 1 1 1
v 0.5 0.5 -0.5 1 1 1
v 0.5 0.5 0.5 1 1 1
v -0.5 0.5 -0.5 1 1 1
v -0.5 0.5 0.5 1 1 1
v 0.5 0.4 0.5 1 1 1
v 0.5 0.4 -0.5 1 1 1
v -0.5 0.4 0.5 1 1 1
v -0.5 0.4 -0.5 1 1 1
v 0.5 0.7 0.5 1 1 1
v 0.6 0.7 0.5 1 1 1
v 0.6 0.5 0.5 1 1 1
v -0.6 0.5 0.5 1 1 1
v -0.5 0.7 0.5 1 1 1
v -0.6 0.7 0.5 1 1 1
v -0.5707107 0.4292893 0.5 1 1 1
v 0.5707107 0.4292893 0.5 1 1 1
v -0.5 0.7 -0.5 1 1 1
v -0.6 0.7 -0.5 1 1 1
v -0.6 0.5 -0.5 1 1 1
v 0.6 0.5 -0.5 1 1 1
v 0.5 0.7 -0.5 1 1 1
v 0.6 0.7 -0.5 1 1 1
v 0.5707107 0.4292893 -0.5 1 1 1
v -0.5707107 0.4292893 -0.5 1 1 1

vn 0 1 0
vn -0.3826834 0 -0.9238795
vn -0.9238795 0 -0.3826834
vn -0.9238795 0 0.3826834
vn -0.3826834 0 0.9238795
vn 0.3826834 0 0.9238795
vn 0.9238795 0 0.3826834
vn 0.9238795 0 -0.3826834
vn 0.3826834 0 -0.9238795
vn 0 -1 0
vn -0.7071068 0.7071068 0
vn 0.7071068 0.7071068 0
vn 0.1950903 -0.9807853 0
vn -0.1950903 -0.9807853 0
vn 0 0 1
vn 0 0 -1
vn -0.9807853 -0.1950903 0
vn -1 0 0
vn 1 0 0
vn -0.7071068 -0.7071068 0
vn 0.9807853 -0.1950903 0
vn 0.7071068 -0.7071068 0

vt 0.21875 0.225
vt 0.21875 0.025
vt 0.21875 0.09166666
vt 0.21875 0.04452622

usemtl colormap

f 3/1/1 2/1/1 1/1/1
f 2/1/1 3/1/1 4/1/1
f 4/1/1 3/1/1 5/1/1
f 4/1/1 5/1/1 6/1/1
f 6/1/1 5/1/1 7/1/1
f 6/1/1 7/1/1 8/1/1
f 10/2/3 5/1/2 9/2/2
f 5/1/2 10/2/3 7/1/3
f 11/2/4 7/1/3 10/2/3
f 7/1/3 11/2/4 8/1/4
f 12/2/5 8/1/4 11/2/4
f 8/1/4 12/2/5 6/1/5
f 4/1/6 12/2/5 13/2/6
f 12/2/5 4/1/6 6/1/5
f 4/1/6 14/2/7 2/1/7
f 14/2/7 4/1/6 13/2/6
f 2/1/7 15/2/8 1/1/8
f 15/2/8 2/1/7 14/2/7
f 1/1/8 16/2/9 3/1/9
f 16/2/9 1/1/8 15/2/8
f 5/1/2 16/2/9 9/2/2
f 16/2/9 5/1/2 3/1/9
f 19/1/1 18/1/1 17/1/1
f 18/1/1 19/1/1 20/1/1
f 20/1/1 19/1/1 21/1/1
f 20/1/1 21/1/1 22/1/1
f 22/1/1 21/1/1 23/1/1
f 22/1/1 23/1/1 24/1/1
f 26/2/3 21/1/2 25/2/2
f 21/1/2 26/2/3 23/1/3
f 27/2/4 23/1/3 26/2/3
f 23/1/3 27/2/4 24/1/4
f 28/2/5 24/1/4 27/2/4
f 24/1/4 28/2/5 22/1/5
f 20/1/6 28/2/5 29/2/6
f 28/2/5 20/1/6 22/1/5
f 20/1/6 30/2/7 18/1/7
f 30/2/7 20/1/6 29/2/6
f 18/1/7 31/2/8 17/1/8
f 31/2/8 18/1/7 30/2/7
f 17/1/8 32/2/9 19/1/9
f 32/2/9 17/1/8 31/2/8
f 21/1/2 32/2/9 25/2/2
f 32/2/9 21/1/2 19/1/9
f 35/1/1 34/1/1 33/1/1
f 34/1/1 35/1/1 36/1/1
f 36/1/1 35/1/1 37/1/1
f 36/1/1 37/1/1 38/1/1
f 38/1/1 37/1/1 39/1/1
f 38/1/1 39/1/1 40/1/1
f 42/2/3 37/1/2 41/2/2
f 37/1/2 42/2/3 39/1/3
f 43/2/4 39/1/3 42/2/3
f 39/1/3 43/2/4 40/1/4
f 44/2/5 40/1/4 43/2/4
f 40/1/4 44/2/5 38/1/5
f 36/1/6 44/2/5 45/2/6
f 44/2/5 36/1/6 38/1/5
f 33/1/8 46/2/9 35/1/9
f 46/2/9 33/1/8 47/2/8
f 37/1/2 46/2/9 41/2/2
f 46/2/9 37/1/2 35/1/9
f 50/1/1 49/1/1 48/1/1
f 49/1/1 50/1/1 51/1/1
f 51/1/1 50/1/1 52/1/1
f 51/1/1 52/1/1 53/1/1
f 53/1/1 52/1/1 54/1/1
f 53/1/1 54/1/1 55/1/1
f 57/2/3 52/1/2 56/2/2
f 52/1/2 57/2/3 54/1/3
f 58/2/4 54/1/3 57/2/3
f 54/1/3 58/2/4 55/1/4
f 59/2/5 55/1/4 58/2/4
f 55/1/4 59/2/5 53/1/5
f 51/1/6 59/2/5 60/2/6
f 59/2/5 51/1/6 53/1/5
f 51/1/6 61/2/7 49/1/7
f 61/2/7 51/1/6 60/2/6
f 49/1/7 62/2/8 48/1/8
f 62/2/8 49/1/7 61/2/7
f 48/1/8 63/2/9 50/1/9
f 63/2/9 48/1/8 62/2/8
f 52/1/2 63/2/9 56/2/2
f 63/2/9 52/1/2 50/1/9
f 36/1/6 64/2/7 34/1/7
f 64/2/7 36/1/6 45/2/6
f 34/1/7 47/2/8 33/1/8
f 47/2/8 34/1/7 64/2/7
f 60/2/10 62/2/10 61/2/10
f 62/2/10 60/2/10 63/2/10
f 63/2/10 60/2/10 59/2/10
f 63/2/10 59/2/10 56/2/10
f 56/2/10 59/2/10 58/2/10
f 56/2/10 58/2/10 57/2/10
f 13/2/10 15/2/10 14/2/10
f 15/2/10 13/2/10 16/2/10
f 16/2/10 13/2/10 12/2/10
f 16/2/10 12/2/10 9/2/10
f 9/2/10 12/2/10 11/2/10
f 9/2/10 11/2/10 10/2/10
f 29/2/10 31/2/10 30/2/10
f 31/2/10 29/2/10 32/2/10
f 32/2/10 29/2/10 28/2/10
f 32/2/10 28/2/10 25/2/10
f 25/2/10 28/2/10 27/2/10
f 25/2/10 27/2/10 26/2/10
f 45/2/10 47/2/10 64/2/10
f 47/2/10 45/2/10 46/2/10
f 46/2/10 45/2/10 44/2/10
f 46/2/10 44/2/10 41/2/10
f 41/2/10 44/2/10 43/2/10
f 41/2/10 43/2/10 42/2/10
f 67/3/12 66/3/11 65/3/11
f 66/3/11 67/3/12 68/3/12
f 71/2/14 70/2/13 69/2/13
f 70/2/13 71/2/14 72/2/14
f 66/3/15 74/1/15 73/1/15
f 74/1/15 66/3/15 75/3/15
f 76/3/15 75/3/15 66/3/15
f 76/3/15 66/3/15 68/3/15
f 76/3/15 68/3/15 77/1/15
f 76/3/15 77/1/15 78/1/15
f 79/4/15 75/3/15 76/3/15
f 79/4/15 80/4/15 75/3/15
f 71/2/15 80/4/15 79/4/15
f 80/4/15 71/2/15 69/2/15
f 67/3/16 82/1/16 81/1/16
f 82/1/16 67/3/16 83/3/16
f 84/3/16 83/3/16 67/3/16
f 84/3/16 67/3/16 65/3/16
f 84/3/16 65/3/16 85/1/16
f 84/3/16 85/1/16 86/1/16
f 87/4/16 83/3/16 84/3/16
f 87/4/16 88/4/16 83/3/16
f 70/2/16 88/4/16 87/4/16
f 88/4/16 70/2/16 72/2/16
f 76/3/17 82/1/18 83/3/17
f 82/1/18 76/3/17 78/1/18
f 82/1/1 77/1/1 81/1/1
f 77/1/1 82/1/1 78/1/1
f 77/1/19 67/3/12 81/1/19
f 67/3/12 77/1/19 68/3/12
f 85/1/1 74/1/1 86/1/1
f 74/1/1 85/1/1 73/1/1
f 66/3/11 85/1/18 65/3/11
f 85/1/18 66/3/11 73/1/18
f 79/4/20 72/2/14 71/2/14
f 72/2/14 79/4/20 88/4/20
f 79/4/20 83/3/17 88/4/20
f 83/3/17 79/4/20 76/3/17
f 75/3/21 87/4/22 84/3/21
f 87/4/22 75/3/21 80/4/22
f 69/2/13 87/4/22 80/4/22
f 87/4/22 69/2/13 70/2/13
f 74/1/19 84/3/21 86/1/19
f 84/3/21 74/1/19 75/3/21

g support-four-top




usemtl colormap

f 3/1/1 2/1/1 1/1/1
f 2/1/1 3/1/1 4/1/1
f 4/1/1 3/1/1 5/1/1
f 4/1/1 5/1/1 6/1/1
f 6/1/1 5/1/1 7/1/1
f 6/1/1 7/1/1 8/1/1
f 10/2/3 5/1/2 9/2/2
f 5/1/2 10/2/3 7/1/3
f 11/2/4 7/1/3 10/2/3
f 7/1/3 11/2/4 8/1/4
f 12/2/5 8/1/4 11/2/4
f 8/1/4 12/2/5 6/1/5
f 4/1/6 12/2/5 13/2/6
f 12/2/5 4/1/6 6/1/5
f 4/1/6 14/2/7 2/1/7
f 14/2/7 4/1/6 13/2/6
f 2/1/7 15/2/8 1/1/8
f 15/2/8 2/1/7 14/2/7
f 1/1/8 16/2/9 3/1/9
f 16/2/9 1/1/8 15/2/8
f 5/1/2 16/2/9 9/2/2
f 16/2/9 5/1/2 3/1/9
f 19/1/1 18/1/1 17/1/1
f 18/1/1 19/1/1 20/1/1
f 20/1/1 19/1/1 21/1/1
f 20/1/1 21/1/1 22/1/1
f 22/1/1 21/1/1 23/1/1
f 22/1/1 23/1/1 24/1/1
f 26/2/3 21/1/2 25/2/2
f 21/1/2 26/2/3 23/1/3
f 27/2/4 23/1/3 26/2/3
f 23/1/3 27/2/4 24/1/4
f 28/2/5 24/1/4 27/2/4
f 24/1/4 28/2/5 22/1/5
f 20/1/6 28/2/5 29/2/6
f 28/2/5 20/1/6 22/1/5
f 20/1/6 30/2/7 18/1/7
f 30/2/7 20/1/6 29/2/6
f 18/1/7 31/2/8 17/1/8
f 31/2/8 18/1/7 30/2/7
f 17/1/8 32/2/9 19/1/9
f 32/2/9 17/1/8 31/2/8
f 21/1/2 32/2/9 25/2/2
f 32/2/9 21/1/2 19/1/9
f 35/1/1 34/1/1 33/1/1
f 34/1/1 35/1/1 36/1/1
f 36/1/1 35/1/1 37/1/1
f 36/1/1 37/1/1 38/1/1
f 38/1/1 37/1/1 39/1/1
f 38/1/1 39/1/1 40/1/1
f 42/2/3 37/1/2 41/2/2
f 37/1/2 42/2/3 39/1/3
f 43/2/4 39/1/3 42/2/3
f 39/1/3 43/2/4 40/1/4
f 44/2/5 40/1/4 43/2/4
f 40/1/4 44/2/5 38/1/5
f 36/1/6 44/2/5 45/2/6
f 44/2/5 36/1/6 38/1/5
f 33/1/8 46/2/9 35/1/9
f 46/2/9 33/1/8 47/2/8
f 37/1/2 46/2/9 41/2/2
f 46/2/9 37/1/2 35/1/9
f 50/1/1 49/1/1 48/1/1
f 49/1/1 50/1/1 51/1/1
f 51/1/1 50/1/1 52/1/1
f 51/1/1 52/1/1 53/1/1
f 53/1/1 52/1/1 54/1/1
f 53/1/1 54/1/1 55/1/1
f 57/2/3 52/1/2 56/2/2
f 52/1/2 57/2/3 54/1/3
f 58/2/4 54/1/3 57/2/3
f 54/1/3 58/2/4 55/1/4
f 59/2/5 55/1/4 58/2/4
f 55/1/4 59/2/5 53/1/5
f 51/1/6 59/2/5 60/2/6
f 59/2/5 51/1/6 53/1/5
f 51/1/6 61/2/7 49/1/7
f 61/2/7 51/1/6 60/2/6
f 49/1/7 62/2/8 48/1/8
f 62/2/8 49/1/7 61/2/7
f 48/1/8 63/2/9 50/1/9
f 63/2/9 48/1/8 62/2/8
f 52/1/2 63/2/9 56/2/2
f 63/2/9 52/1/2 50/1/9
f 36/1/6 64/2/7 34/1/7
f 64/2/7 36/1/6 45/2/6
f 34/1/7 47/2/8 33/1/8
f 47/2/8 34/1/7 64/2/7
f 60/2/10 62/2/10 61/2/10
f 62/2/10 60/2/10 63/2/10
f 63/2/10 60/2/10 59/2/10
f 63/2/10 59/2/10 56/2/10
f 56/2/10 59/2/10 58/2/10
f 56/2/10 58/2/10 57/2/10
f 13/2/10 15/2/10 14/2/10
f 15/2/10 13/2/10 16/2/10
f 16/2/10 13/2/10 12/2/10
f 16/2/10 12/2/10 9/2/10
f 9/2/10 12/2/10 11/2/10
f 9/2/10 11/2/10 10/2/10
f 29/2/10 31/2/10 30/2/10
f 31/2/10 29/2/10 32/2/10
f 32/2/10 29/2/10 28/2/10
f 32/2/10 28/2/10 25/2/10
f 25/2/10 28/2/10 27/2/10
f 25/2/10 27/2/10 26/2/10
f 45/2/10 47/2/10 64/2/10
f 47/2/10 45/2/10 46/2/10
f 46/2/10 45/2/10 44/2/10
f 46/2/10 44/2/10 41/2/10
f 41/2/10 44/2/10 43/2/10
f 41/2/10 43/2/10 42/2/10
f 67/3/12 66/3/11 65/3/11
f 66/3/11 67/3/12 68/3/12
f 71/2/14 70/2/13 69/2/13
f 70/2/13 71/2/14 72/2/14
f 66/3/15 74/1/15 73/1/15
f 74/1/15 66/3/15 75/3/15
f 76/3/15 75/3/15 66/3/15
f 76/3/15 66/3/15 68/3/15
f 76/3/15 68/3/15 77/1/15
f 76/3/15 77/1/15 78/1/15
f 79/4/15 75/3/15 76/3/15
f 79/4/15 80/4/15 75/3/15
f 71/2/15 80/4/15 79/4/15
f 80/4/15 71/2/15 69/2/15
f 67/3/16 82/1/16 81/1/16
f 82/1/16 67/3/16 83/3/16
f 84/3/16 83/3/16 67/3/16
f 84/3/16 67/3/16 65/3/16
f 84/3/16 65/3/16 85/1/16
f 84/3/16 85/1/16 86/1/16
f 87/4/16 83/3/16 84/3/16
f 87/4/16 88/4/16 83/3/16
f 70/2/16 88/4/16 87/4/16
f 88/4/16 70/2/16 72/2/16
f 76/3/17 82/1/18 83/3/17
f 82/1/18 76/3/17 78/1/18
f 82/1/1 77/1/1 81/1/1
f 77/1/1 82/1/1 78/1/1
f 77/1/19 67/3/12 81/1/19
f 67/3/12 77/1/19 68/3/12
f 85/1/1 74/1/1 86/1/1
f 74/1/1 85/1/1 73/1/1
f 66/3/11 85/1/18 65/3/11
f 85/1/18 66/3/11 73/1/18
f 79/4/20 72/2/14 71/2/14
f 72/2/14 79/4/20 88/4/20
f 79/4/20 83/3/17 88/4/20
f 83/3/17 79/4/20 76/3/17
f 75/3/21 87/4/22 84/3/21
f 87/4/22 75/3/21 80/4/22
f 69/2/13 87/4/22 80/4/22
f 87/4/22 69/2/13 70/2/13
f 74/1/19 84/3/21 86/1/19
f 84/3/21 74/1/19 75/3/21

