# Created by Kenney (www.kenney.nl)

mtllib support-color-single-top-double.mtl

g support-color-single-top-double

v 0.5 0.5 0.1 1 1 1
v 0.5 0.5 0.3 1 1 1
v -0.5 0.5 0.1 1 1 1
v -0.5 0.5 0.3 1 1 1
v 0.5 0.4 0.3 1 1 1
v 0.5 0.4 0.1 1 1 1
v -0.5 0.4 0.3 1 1 1
v -0.5 0.4 0.1 1 1 1
v 0.5 0.7 0.3 1 1 1
v 0.6 0.7 0.3 1 1 1
v 0.6 0.5 0.3 1 1 1
v -0.6 0.5 0.3 1 1 1
v -0.5 0.7 0.3 1 1 1
v -0.6 0.7 0.3 1 1 1
v -0.5707107 0.4292893 0.3 1 1 1
v 0.5707107 0.4292893 0.3 1 1 1
v -0.5 0.7 0.1 1 1 1
v -0.6 0.7 0.1 1 1 1
v -0.6 0.5 0.1 1 1 1
v 0.6 0.5 0.1 1 1 1
v 0.5 0.7 0.1 1 1 1
v 0.6 0.7 0.1 1 1 1
v 0.5707107 0.4292893 0.1 1 1 1
v -0.5707107 0.4292893 0.1 1 1 1
v 0.5 0.5 -0.3 1 1 1
v 0.5 0.5 -0.09999999 1 1 1
v -0.5 0.5 -0.3 1 1 1
v -0.5 0.5 -0.09999999 1 1 1
v 0.5 0.4 -0.09999999 1 1 1
v 0.5 0.4 -0.3 1 1 1
v -0.5 0.4 -0.09999999 1 1 1
v -0.5 0.4 -0.3 1 1 1
v -0.5 0.7 -0.3 1 1 1
v -0.6 0.7 -0.3 1 1 1
v -0.6 0.5 -0.3 1 1 1
v 0.6 0.5 -0.3 1 1 1
v 0.5 0.7 -0.3 1 1 1
v 0.6 0.7 -0.3 1 1 1
v 0.5707107 0.4292893 -0.3 1 1 1
v -0.5707107 0.4292893 -0.3 1 1 1
v -0.6 0.5 -0.09999999 1 1 1
v -0.6 0.7 -0.09999999 1 1 1
v -0.5 0.7 -0.09999999 1 1 1
v 0.6 0.7 -0.09999999 1 1 1
v 0.5 0.7 -0.09999999 1 1 1
v -0.5707107 0.4292893 -0.09999999 1 1 1
v 0.6 0.5 -0.09999999 1 1 1
v 0.5707107 0.4292893 -0.09999999 1 1 1
v -0.1 -9.023893E-17 -0.2 1 1 1
v 0.1 -9.023893E-17 -0.2 1 1 1
v -0.1 0.4 -0.2 1 1 1
v 0.1 0.4 -0.2 1 1 1
v -0.2 -9.023893E-17 -0.1 1 1 1
v -0.2 0.4 -0.1 1 1 1
v 0.2 -9.023893E-17 0.1 1 1 1
v 0.2 -9.023893E-17 -0.1 1 1 1
v 0.1 -9.023893E-17 0.2 1 1 1
v -0.1 -9.023893E-17 0.2 1 1 1
v -0.2 -9.023893E-17 0.1 1 1 1
v 0.2 0.4 -0.1 1 1 1
v -0.2 0.45 -0.1 1 1 1
v -0.2 0.45 0.1 1 1 1
v -0.2 0.4 0.1 1 1 1
v 0.2 0.45 -0.1 1 1 1
v 0.2 0.45 0.1 1 1 1
v 0.2 0.4 0.1 1 1 1
v 0.1 0.4 0.2 1 1 1
v -0.1 0.4 0.2 1 1 1

vn -0.7071068 0.7071068 0
vn 0.7071068 0.7071068 0
vn 0.1950903 -0.9807853 0
vn -0.1950903 -0.9807853 0
vn 0 0 1
vn 0 0 -1
vn -0.9807853 -0.1950903 0
vn -1 0 0
vn 0 1 0
vn 1 0 0
vn -0.7071068 -0.7071068 0
vn 0.9807853 -0.1950903 0
vn 0.7071068 -0.7071068 0
vn -0.3826834 0 -0.9238795
vn 0.3826834 0 -0.9238795
vn -0.9238795 0 -0.3826834
vn -0.9675382 0 -0.2527247
vn 0 -1 0
vn 0.9675382 0 -0.2527247
vn 0.9238795 0 -0.3826834
vn -0.9238795 0 0.3826834
vn -0.9675382 0 0.2527247
vn 0.9238795 0 0.3826834
vn 0.9675382 0 0.2527247
vn 0.3826834 0 0.9238795
vn -0.3826834 0 0.9238795

vt 0.34375 0.3416667
vt 0.34375 0.275
vt 0.34375 0.475
vt 0.34375 0.2945262
vt 0.28125 0.375

usemtl colormap

f 3/1/2 2/1/1 1/1/1
f 2/1/1 3/1/2 4/1/2
f 7/2/4 6/2/3 5/2/3
f 6/2/3 7/2/4 8/2/4
f 2/1/5 10/3/5 9/3/5
f 10/3/5 2/1/5 11/1/5
f 12/1/5 11/1/5 2/1/5
f 12/1/5 2/1/5 4/1/5
f 12/1/5 4/1/5 13/3/5
f 12/1/5 13/3/5 14/3/5
f 15/4/5 11/1/5 12/1/5
f 15/4/5 16/4/5 11/1/5
f 7/2/5 16/4/5 15/4/5
f 16/4/5 7/2/5 5/2/5
f 3/1/6 18/3/6 17/3/6
f 18/3/6 3/1/6 19/1/6
f 20/1/6 19/1/6 3/1/6
f 20/1/6 3/1/6 1/1/6
f 20/1/6 1/1/6 21/3/6
f 20/1/6 21/3/6 22/3/6
f 23/4/6 19/1/6 20/1/6
f 23/4/6 24/4/6 19/1/6
f 6/2/6 24/4/6 23/4/6
f 24/4/6 6/2/6 8/2/6
f 12/1/7 18/3/8 19/1/7
f 18/3/8 12/1/7 14/3/8
f 18/3/9 13/3/9 17/3/9
f 13/3/9 18/3/9 14/3/9
f 13/3/10 3/1/2 17/3/10
f 3/1/2 13/3/10 4/1/2
f 21/3/9 10/3/9 22/3/9
f 10/3/9 21/3/9 9/3/9
f 2/1/1 21/3/8 1/1/1
f 21/3/8 2/1/1 9/3/8
f 15/4/11 8/2/4 7/2/4
f 8/2/4 15/4/11 24/4/11
f 15/4/11 19/1/7 24/4/11
f 19/1/7 15/4/11 12/1/7
f 11/1/12 23/4/13 20/1/12
f 23/4/13 11/1/12 16/4/13
f 5/2/3 23/4/13 16/4/13
f 23/4/13 5/2/3 6/2/3
f 10/3/10 20/1/12 22/3/10
f 20/1/12 10/3/10 11/1/12
f 27/1/2 26/1/1 25/1/1
f 26/1/1 27/1/2 28/1/2
f 31/2/4 30/2/3 29/2/3
f 30/2/3 31/2/4 32/2/4
f 27/1/6 34/3/6 33/3/6
f 34/3/6 27/1/6 35/1/6
f 36/1/6 35/1/6 27/1/6
f 36/1/6 27/1/6 25/1/6
f 36/1/6 25/1/6 37/3/6
f 36/1/6 37/3/6 38/3/6
f 39/4/6 35/1/6 36/1/6
f 39/4/6 40/4/6 35/1/6
f 30/2/6 40/4/6 39/4/6
f 40/4/6 30/2/6 32/2/6
f 41/1/7 34/3/8 35/1/7
f 34/3/8 41/1/7 42/3/8
f 34/3/9 43/3/9 33/3/9
f 43/3/9 34/3/9 42/3/9
f 43/3/10 27/1/2 33/3/10
f 27/1/2 43/3/10 28/1/2
f 37/3/9 44/3/9 38/3/9
f 44/3/9 37/3/9 45/3/9
f 26/1/1 37/3/8 25/1/1
f 37/3/8 26/1/1 45/3/8
f 46/4/11 32/2/4 31/2/4
f 32/2/4 46/4/11 40/4/11
f 46/4/11 35/1/7 40/4/11
f 35/1/7 46/4/11 41/1/7
f 47/1/12 39/4/13 36/1/12
f 39/4/13 47/1/12 48/4/13
f 29/2/3 39/4/13 48/4/13
f 39/4/13 29/2/3 30/2/3
f 44/3/10 36/1/12 38/3/10
f 36/1/12 44/3/10 47/1/12
f 26/1/5 44/3/5 45/3/5
f 44/3/5 26/1/5 47/1/5
f 41/1/5 47/1/5 26/1/5
f 41/1/5 26/1/5 28/1/5
f 41/1/5 28/1/5 43/3/5
f 41/1/5 43/3/5 42/3/5
f 46/4/5 47/1/5 41/1/5
f 46/4/5 48/4/5 47/1/5
f 31/2/5 48/4/5 46/4/5
f 48/4/5 31/2/5 29/2/5
f 51/5/14 50/5/15 49/5/14
f 50/5/15 51/5/14 52/5/15
f 53/5/16 51/5/14 49/5/14
f 51/5/14 53/5/16 54/5/17
f 57/5/18 56/5/18 55/5/18
f 56/5/18 57/5/18 50/5/18
f 50/5/18 57/5/18 58/5/18
f 50/5/18 58/5/18 49/5/18
f 49/5/18 58/5/18 59/5/18
f 49/5/18 59/5/18 53/5/18
f 60/5/19 50/5/15 52/5/15
f 50/5/15 60/5/19 56/5/20
f 59/5/21 54/5/17 53/5/16
f 54/5/17 59/5/21 61/5/8
f 61/5/8 59/5/21 62/5/8
f 62/5/8 59/5/21 63/5/22
f 65/5/10 60/5/19 64/5/10
f 60/5/19 65/5/10 56/5/20
f 56/5/20 65/5/10 55/5/23
f 55/5/23 65/5/10 66/5/24
f 67/5/25 58/5/26 57/5/25
f 58/5/26 67/5/25 68/5/26
f 58/5/26 63/5/22 59/5/21
f 63/5/22 58/5/26 68/5/26
f 67/5/25 55/5/23 66/5/24
f 55/5/23 67/5/25 57/5/25
f 61/5/9 65/5/9 64/5/9
f 65/5/9 61/5/9 62/5/9

g support-color-single-top-double




usemtl colormap

f 3/1/2 2/1/1 1/1/1
f 2/1/1 3/1/2 4/1/2
f 7/2/4 6/2/3 5/2/3
f 6/2/3 7/2/4 8/2/4
f 2/1/5 10/3/5 9/3/5
f 10/3/5 2/1/5 11/1/5
f 12/1/5 11/1/5 2/1/5
f 12/1/5 2/1/5 4/1/5
f 12/1/5 4/1/5 13/3/5
f 12/1/5 13/3/5 14/3/5
f 15/4/5 11/1/5 12/1/5
f 15/4/5 16/4/5 11/1/5
f 7/2/5 16/4/5 15/4/5
f 16/4/5 7/2/5 5/2/5
f 3/1/6 18/3/6 17/3/6
f 18/3/6 3/1/6 19/1/6
f 20/1/6 19/1/6 3/1/6
f 20/1/6 3/1/6 1/1/6
f 20/1/6 1/1/6 21/3/6
f 20/1/6 21/3/6 22/3/6
f 23/4/6 19/1/6 20/1/6
f 23/4/6 24/4/6 19/1/6
f 6/2/6 24/4/6 23/4/6
f 24/4/6 6/2/6 8/2/6
f 12/1/7 18/3/8 19/1/7
f 18/3/8 12/1/7 14/3/8
f 18/3/9 13/3/9 17/3/9
f 13/3/9 18/3/9 14/3/9
f 13/3/10 3/1/2 17/3/10
f 3/1/2 13/3/10 4/1/2
f 21/3/9 10/3/9 22/3/9
f 10/3/9 21/3/9 9/3/9
f 2/1/1 21/3/8 1/1/1
f 21/3/8 2/1/1 9/3/8
f 15/4/11 8/2/4 7/2/4
f 8/2/4 15/4/11 24/4/11
f 15/4/11 19/1/7 24/4/11
f 19/1/7 15/4/11 12/1/7
f 11/1/12 23/4/13 20/1/12
f 23/4/13 11/1/12 16/4/13
f 5/2/3 23/4/13 16/4/13
f 23/4/13 5/2/3 6/2/3
f 10/3/10 20/1/12 22/3/10
f 20/1/12 10/3/10 11/1/12
f 27/1/2 26/1/1 25/1/1
f 26/1/1 27/1/2 28/1/2
f 31/2/4 30/2/3 29/2/3
f 30/2/3 31/2/4 32/2/4
f 27/1/6 34/3/6 33/3/6
f 34/3/6 27/1/6 35/1/6
f 36/1/6 35/1/6 27/1/6
f 36/1/6 27/1/6 25/1/6
f 36/1/6 25/1/6 37/3/6
f 36/1/6 37/3/6 38/3/6
f 39/4/6 35/1/6 36/1/6
f 39/4/6 40/4/6 35/1/6
f 30/2/6 40/4/6 39/4/6
f 40/4/6 30/2/6 32/2/6
f 41/1/7 34/3/8 35/1/7
f 34/3/8 41/1/7 42/3/8
f 34/3/9 43/3/9 33/3/9
f 43/3/9 34/3/9 42/3/9
f 43/3/10 27/1/2 33/3/10
f 27/1/2 43/3/10 28/1/2
f 37/3/9 44/3/9 38/3/9
f 44/3/9 37/3/9 45/3/9
f 26/1/1 37/3/8 25/1/1
f 37/3/8 26/1/1 45/3/8
f 46/4/11 32/2/4 31/2/4
f 32/2/4 46/4/11 40/4/11
f 46/4/11 35/1/7 40/4/11
f 35/1/7 46/4/11 41/1/7
f 47/1/12 39/4/13 36/1/12
f 39/4/13 47/1/12 48/4/13
f 29/2/3 39/4/13 48/4/13
f 39/4/13 29/2/3 30/2/3
f 44/3/10 36/1/12 38/3/10
f 36/1/12 44/3/10 47/1/12
f 26/1/5 44/3/5 45/3/5
f 44/3/5 26/1/5 47/1/5
f 41/1/5 47/1/5 26/1/5
f 41/1/5 26/1/5 28/1/5
f 41/1/5 28/1/5 43/3/5
f 41/1/5 43/3/5 42/3/5
f 46/4/5 47/1/5 41/1/5
f 46/4/5 48/4/5 47/1/5
f 31/2/5 48/4/5 46/4/5
f 48/4/5 31/2/5 29/2/5
f 51/5/14 50/5/15 49/5/14
f 50/5/15 51/5/14 52/5/15
f 53/5/16 51/5/14 49/5/14
f 51/5/14 53/5/16 54/5/17
f 57/5/18 56/5/18 55/5/18
f 56/5/18 57/5/18 50/5/18
f 50/5/18 57/5/18 58/5/18
f 50/5/18 58/5/18 49/5/18
f 49/5/18 58/5/18 59/5/18
f 49/5/18 59/5/18 53/5/18
f 60/5/19 50/5/15 52/5/15
f 50/5/15 60/5/19 56/5/20
f 59/5/21 54/5/17 53/5/16
f 54/5/17 59/5/21 61/5/8
f 61/5/8 59/5/21 62/5/8
f 62/5/8 59/5/21 63/5/22
f 65/5/10 60/5/19 64/5/10
f 60/5/19 65/5/10 56/5/20
f 56/5/20 65/5/10 55/5/23
f 55/5/23 65/5/10 66/5/24
f 67/5/25 58/5/26 57/5/25
f 58/5/26 67/5/25 68/5/26
f 58/5/26 63/5/22 59/5/21
f 63/5/22 58/5/26 68/5/26
f 67/5/25 55/5/23 66/5/24
f 55/5/23 67/5/25 57/5/25
f 61/5/9 65/5/9 64/5/9
f 65/5/9 61/5/9 62/5/9

