# Created by Kenney (www.kenney.nl)

mtllib tree-tall-large.mtl

g tree-tall-large

v -0.07260257 0 -0.1452051 1 1 1
v -0.05149118 1.386184 -0.1029824 1 1 1
v -0.1452051 0 -0.07260257 1 1 1
v -0.1029824 1.386184 -0.05149118 1 1 1
v 0.07260257 0 0.1452051 1 1 1
v -0.07260257 0 0.1452051 1 1 1
v 0.05149118 1.386184 0.1029824 1 1 1
v -0.05149118 1.386184 0.1029824 1 1 1
v 0.07260257 0 -0.1452051 1 1 1
v 0.1452051 0 -0.07260257 1 1 1
v 0.05149118 1.386184 -0.1029824 1 1 1
v 0.1029824 1.386184 -0.05149118 1 1 1
v -0.1029824 1.386184 0.05149118 1 1 1
v -0.1452051 0 0.07260257 1 1 1
v 0.1452051 0 0.07260257 1 1 1
v 0.1029824 1.386184 0.05149118 1 1 1
v -0.25 1.386184 0.5 1 1 1
v -0.5 1.386184 0.25 1 1 1
v -0.149137 1.806564 0.298274 1 1 1
v -0.298274 1.806564 0.149137 1 1 1
v 0.25 1.386184 -0.5 1 1 1
v 0.5 1.386184 -0.25 1 1 1
v 0.149137 1.806564 -0.298274 1 1 1
v 0.298274 1.806564 -0.149137 1 1 1
v 0.5 1.386184 0.25 1 1 1
v 0.25 1.386184 0.5 1 1 1
v 0.298274 1.806564 0.149137 1 1 1
v 0.149137 1.806564 0.298274 1 1 1
v -0.5 1.386184 -0.25 1 1 1
v -0.25 1.386184 -0.5 1 1 1
v -0.298274 1.806564 -0.149137 1 1 1
v -0.149137 1.806564 -0.298274 1 1 1
v -0.1017637 2.230489 -0.2035273 1 1 1
v -0.2035273 2.230489 -0.1017637 1 1 1
v -0.2113095 1.806564 -0.4226191 1 1 1
v -0.4226191 1.806564 -0.2113095 1 1 1
v -0.4226191 1.806564 0.2113095 1 1 1
v -0.2035273 2.230489 0.1017637 1 1 1
v -0.1017637 2.230489 0.2035273 1 1 1
v -0.2113095 1.806564 0.4226191 1 1 1
v 0.2113095 1.806564 -0.4226191 1 1 1
v 0.2113095 1.806564 0.4226191 1 1 1
v 0.4226191 1.806564 -0.2113095 1 1 1
v 0.4226191 1.806564 0.2113095 1 1 1
v 0.1017637 2.230489 0.2035273 1 1 1
v 0.2035273 2.230489 0.1017637 1 1 1
v 0.2035273 2.230489 -0.1017637 1 1 1
v 0.1017637 2.230489 -0.2035273 1 1 1
v 0.1336955 2.230489 0.2673911 1 1 1
v -0.1336955 2.230489 0.2673911 1 1 1
v -2.887646E-15 2.91025 -7.146922E-14 1 1 1
v 0.1336955 2.230489 -0.2673911 1 1 1
v 0.2673911 2.230489 -0.1336955 1 1 1
v 0.2673911 2.230489 0.1336955 1 1 1
v -0.2673911 2.230489 -0.1336955 1 1 1
v -0.1336955 2.230489 -0.2673911 1 1 1
v -0.2673911 2.230489 0.1336955 1 1 1

vn -0.382999 0.03395114 -0.9231246
vn -0.3819134 0.0339483 -0.9235744
vn -0.9231246 0.03395114 -0.382999
vn -0.9235744 0.0339483 -0.3819134
vn 0.382999 0.03395114 0.9231246
vn -0.382999 0.03395114 0.9231246
vn 0.3819134 0.0339483 0.9235744
vn -0.3819134 0.0339483 0.9235744
vn 0.382999 0.03395114 -0.9231246
vn 0.9231246 0.03395114 -0.382999
vn 0.3819134 0.0339483 -0.9235744
vn 0.9235744 0.0339483 -0.3819134
vn -0.9235744 0.0339483 0.3819134
vn -0.9231246 0.03395114 0.382999
vn 0 -1 0
vn 0.9235744 0.0339483 0.3819134
vn 0.9231246 0.03395114 0.382999
vn -0.3430584 0.4720124 0.8121054
vn -0.8121054 0.4720124 0.3430584
vn -0.3294327 0.4715649 0.8179857
vn -0.8179857 0.4715649 0.3294327
vn 0.3430584 0.4720124 -0.8121054
vn 0.8121054 0.4720124 -0.3430584
vn 0.3294327 0.4715649 -0.8179857
vn 0.8179857 0.4715649 -0.3294327
vn 0.8121054 0.4720124 0.3430584
vn 0.3430584 0.4720124 0.8121054
vn 0.8179857 0.4715649 0.3294327
vn 0.3294327 0.4715649 0.8179857
vn -0.8121054 0.4720124 -0.3430584
vn -0.3430584 0.4720124 -0.8121054
vn -0.8179857 0.4715649 -0.3294327
vn -0.3294327 0.4715649 -0.8179857
vn -0.3231682 0.4990583 -0.8040541
vn -0.8040541 0.4990583 -0.3231682
vn -0.3373795 0.4995452 -0.7978907
vn -0.7978907 0.4995452 -0.3373795
vn -0.7978907 0.4995452 0.3373795
vn -0.8040541 0.4990583 0.3231682
vn -0.3231682 0.4990583 0.8040541
vn -0.3373795 0.4995452 0.7978907
vn 0.3231682 0.4990583 0.8040541
vn 0.8040541 0.4990583 0.3231682
vn 0.3373795 0.4995452 0.7978907
vn 0.7978907 0.4995452 0.3373795
vn 0.8040541 0.4990583 -0.3231682
vn 0.3231682 0.4990583 -0.8040541
vn 0.7978907 0.4995452 -0.3373795
vn 0.3373795 0.4995452 -0.7978907
vn 0.3555629 0.4018683 0.8438465
vn -0.3555629 0.4018683 0.8438465
vn 0 1 0
vn 0.3555629 0.4018683 -0.8438465
vn 0.8438465 0.4018683 -0.3555629
vn 0.8438465 0.4018683 0.3555629
vn -0.8438465 0.4018683 -0.3555629
vn -0.3555629 0.4018683 -0.8438465
vn -0.8438465 0.4018683 0.3555629

vt 0.09375 0.225
vt 0.09375 0.025
vt 0.09375 0.075
vt 0.09375 0.175

usemtl colormap

f 3/1/3 2/2/2 1/1/1
f 2/2/2 3/1/3 4/2/4
f 7/2/7 6/1/6 5/1/5
f 6/1/6 7/2/7 8/2/8
f 11/2/11 10/1/10 9/1/9
f 10/1/10 11/2/11 12/2/12
f 14/1/14 8/2/8 13/2/13
f 8/2/8 14/1/14 6/1/6
f 14/1/14 4/2/4 3/1/3
f 4/2/4 14/1/14 13/2/13
f 5/1/15 10/1/15 15/1/15
f 10/1/15 5/1/15 9/1/15
f 9/1/15 5/1/15 6/1/15
f 9/1/15 6/1/15 1/1/15
f 1/1/15 6/1/15 14/1/15
f 1/1/15 14/1/15 3/1/15
f 7/2/7 15/1/17 16/2/16
f 15/1/17 7/2/7 5/1/5
f 2/2/2 9/1/9 1/1/1
f 9/1/9 2/2/2 11/2/11
f 12/2/12 15/1/17 10/1/10
f 15/1/17 12/2/12 16/2/16
f 19/4/20 18/3/19 17/3/18
f 18/3/19 19/4/20 20/4/21
f 23/4/24 22/3/23 21/3/22
f 22/3/23 23/4/24 24/4/25
f 27/4/28 26/3/27 25/3/26
f 26/3/27 27/4/28 28/4/29
f 31/4/32 30/3/31 29/3/30
f 30/3/31 31/4/32 32/4/33
f 32/4/33 21/3/22 30/3/31
f 21/3/22 32/4/33 23/4/24
f 18/3/19 31/4/32 29/3/30
f 31/4/32 18/3/19 20/4/21
f 26/3/15 22/3/15 25/3/15
f 22/3/15 26/3/15 21/3/15
f 21/3/15 26/3/15 17/3/15
f 21/3/15 17/3/15 30/3/15
f 30/3/15 17/3/15 18/3/15
f 30/3/15 18/3/15 29/3/15
f 28/4/29 17/3/18 26/3/27
f 17/3/18 28/4/29 19/4/20
f 24/4/25 25/3/26 22/3/23
f 25/3/26 24/4/25 27/4/28
f 35/4/36 34/3/35 33/3/34
f 34/3/35 35/4/36 36/4/37
f 37/4/38 34/3/35 36/4/37
f 34/3/35 37/4/38 38/3/39
f 37/4/38 39/3/40 38/3/39
f 39/3/40 37/4/38 40/4/41
f 35/4/15 37/4/15 36/4/15
f 37/4/15 35/4/15 40/4/15
f 40/4/15 35/4/15 41/4/15
f 40/4/15 41/4/15 42/4/15
f 42/4/15 41/4/15 43/4/15
f 42/4/15 43/4/15 44/4/15
f 42/4/44 46/3/43 45/3/42
f 46/3/43 42/4/44 44/4/45
f 43/4/48 48/3/47 47/3/46
f 48/3/47 43/4/48 41/4/49
f 40/4/41 45/3/42 39/3/40
f 45/3/42 40/4/41 42/4/44
f 41/4/49 33/3/34 48/3/47
f 33/3/34 41/4/49 35/4/36
f 47/3/46 44/4/45 43/4/48
f 44/4/45 47/3/46 46/3/43
f 51/4/52 50/3/51 49/3/50
f 51/4/52 53/3/54 52/3/53
f 54/3/55 53/3/54 51/4/52
f 51/4/52 56/3/57 55/3/56
f 51/4/52 49/3/50 54/3/55
f 57/3/58 51/4/52 55/3/56
f 51/4/52 57/3/58 50/3/51
f 51/4/52 52/3/53 56/3/57
f 49/3/15 53/3/15 54/3/15
f 53/3/15 49/3/15 52/3/15
f 52/3/15 49/3/15 50/3/15
f 52/3/15 50/3/15 56/3/15
f 56/3/15 50/3/15 57/3/15
f 56/3/15 57/3/15 55/3/15

g tree-tall-large




usemtl colormap

f 3/1/3 2/2/2 1/1/1
f 2/2/2 3/1/3 4/2/4
f 7/2/7 6/1/6 5/1/5
f 6/1/6 7/2/7 8/2/8
f 11/2/11 10/1/10 9/1/9
f 10/1/10 11/2/11 12/2/12
f 14/1/14 8/2/8 13/2/13
f 8/2/8 14/1/14 6/1/6
f 14/1/14 4/2/4 3/1/3
f 4/2/4 14/1/14 13/2/13
f 5/1/15 10/1/15 15/1/15
f 10/1/15 5/1/15 9/1/15
f 9/1/15 5/1/15 6/1/15
f 9/1/15 6/1/15 1/1/15
f 1/1/15 6/1/15 14/1/15
f 1/1/15 14/1/15 3/1/15
f 7/2/7 15/1/17 16/2/16
f 15/1/17 7/2/7 5/1/5
f 2/2/2 9/1/9 1/1/1
f 9/1/9 2/2/2 11/2/11
f 12/2/12 15/1/17 10/1/10
f 15/1/17 12/2/12 16/2/16
f 19/4/20 18/3/19 17/3/18
f 18/3/19 19/4/20 20/4/21
f 23/4/24 22/3/23 21/3/22
f 22/3/23 23/4/24 24/4/25
f 27/4/28 26/3/27 25/3/26
f 26/3/27 27/4/28 28/4/29
f 31/4/32 30/3/31 29/3/30
f 30/3/31 31/4/32 32/4/33
f 32/4/33 21/3/22 30/3/31
f 21/3/22 32/4/33 23/4/24
f 18/3/19 31/4/32 29/3/30
f 31/4/32 18/3/19 20/4/21
f 26/3/15 22/3/15 25/3/15
f 22/3/15 26/3/15 21/3/15
f 21/3/15 26/3/15 17/3/15
f 21/3/15 17/3/15 30/3/15
f 30/3/15 17/3/15 18/3/15
f 30/3/15 18/3/15 29/3/15
f 28/4/29 17/3/18 26/3/27
f 17/3/18 28/4/29 19/4/20
f 24/4/25 25/3/26 22/3/23
f 25/3/26 24/4/25 27/4/28
f 35/4/36 34/3/35 33/3/34
f 34/3/35 35/4/36 36/4/37
f 37/4/38 34/3/35 36/4/37
f 34/3/35 37/4/38 38/3/39
f 37/4/38 39/3/40 38/3/39
f 39/3/40 37/4/38 40/4/41
f 35/4/15 37/4/15 36/4/15
f 37/4/15 35/4/15 40/4/15
f 40/4/15 35/4/15 41/4/15
f 40/4/15 41/4/15 42/4/15
f 42/4/15 41/4/15 43/4/15
f 42/4/15 43/4/15 44/4/15
f 42/4/44 46/3/43 45/3/42
f 46/3/43 42/4/44 44/4/45
f 43/4/48 48/3/47 47/3/46
f 48/3/47 43/4/48 41/4/49
f 40/4/41 45/3/42 39/3/40
f 45/3/42 40/4/41 42/4/44
f 41/4/49 33/3/34 48/3/47
f 33/3/34 41/4/49 35/4/36
f 47/3/46 44/4/45 43/4/48
f 44/4/45 47/3/46 46/3/43
f 51/4/52 50/3/51 49/3/50
f 51/4/52 53/3/54 52/3/53
f 54/3/55 53/3/54 51/4/52
f 51/4/52 56/3/57 55/3/56
f 51/4/52 49/3/50 54/3/55
f 57/3/58 51/4/52 55/3/56
f 51/4/52 57/3/58 50/3/51
f 51/4/52 52/3/53 56/3/57
f 49/3/15 53/3/15 54/3/15
f 53/3/15 49/3/15 52/3/15
f 52/3/15 49/3/15 50/3/15
f 52/3/15 50/3/15 56/3/15
f 56/3/15 50/3/15 57/3/15
f 56/3/15 57/3/15 55/3/15

