# Created by Kenney (www.kenney.nl)

mtllib tree.mtl

g tree

v -0.05445193 0 -0.1089039 1 1 1
v -0.03861839 0.2896379 -0.07723678 1 1 1
v -0.1089039 0 -0.05445193 1 1 1
v -0.07723678 0.2896379 -0.03861839 1 1 1
v 0.05445193 0 0.1089039 1 1 1
v -0.05445193 0 0.1089039 1 1 1
v 0.03861839 0.2896379 0.07723678 1 1 1
v -0.03861839 0.2896379 0.07723678 1 1 1
v 0.05445193 0 -0.1089039 1 1 1
v 0.03861839 0.2896379 -0.07723678 1 1 1
v 0.07723678 0.2896379 0.03861839 1 1 1
v 0.1089039 0 0.05445193 1 1 1
v 0.1089039 0 -0.05445193 1 1 1
v 0.07723678 0.2896379 -0.03861839 1 1 1
v -0.1089039 0 0.05445193 1 1 1
v -0.07723678 0.2896379 0.03861839 1 1 1
v 0.375 0.2896379 0.1875 1 1 1
v 0.1875 0.2896379 0.375 1 1 1
v 0.2237055 0.6049231 0.1118528 1 1 1
v 0.1118528 0.6049231 0.2237055 1 1 1
v -0.375 0.2896379 -0.1875 1 1 1
v -0.1875 0.2896379 -0.375 1 1 1
v -0.2237055 0.6049231 -0.1118528 1 1 1
v -0.1118528 0.6049231 -0.2237055 1 1 1
v 0.1875 0.2896379 -0.375 1 1 1
v 0.1118528 0.6049231 -0.2237055 1 1 1
v -0.375 0.2896379 0.1875 1 1 1
v -0.2237055 0.6049231 0.1118528 1 1 1
v 0.375 0.2896379 -0.1875 1 1 1
v 0.2237055 0.6049231 -0.1118528 1 1 1
v -0.1875 0.2896379 0.375 1 1 1
v -0.1118528 0.6049231 0.2237055 1 1 1
v 0.07632275 0.9228669 -0.1526455 1 1 1
v -0.07632275 0.9228669 -0.1526455 1 1 1
v 0.1584821 0.6049231 -0.3169643 1 1 1
v -0.1584821 0.6049231 -0.3169643 1 1 1
v 0.1526455 0.9228669 -0.07632275 1 1 1
v 0.3169643 0.6049231 -0.1584821 1 1 1
v -0.07632275 0.9228669 0.1526455 1 1 1
v 0.07632275 0.9228669 0.1526455 1 1 1
v -0.1584821 0.6049231 0.3169643 1 1 1
v 0.1584821 0.6049231 0.3169643 1 1 1
v -0.3169643 0.6049231 -0.1584821 1 1 1
v -0.3169643 0.6049231 0.1584821 1 1 1
v 0.3169643 0.6049231 0.1584821 1 1 1
v 0.1526455 0.9228669 0.07632275 1 1 1
v -0.1526455 0.9228669 0.07632275 1 1 1
v -0.1526455 0.9228669 -0.07632275 1 1 1
v 0.1002716 0.9228669 -0.2005433 1 1 1
v 0.2005433 0.9228669 -0.1002716 1 1 1
v -2.887646E-15 1.432687 -6.280629E-14 1 1 1
v 0.2005433 0.9228669 0.1002716 1 1 1
v -0.1002716 0.9228669 0.2005433 1 1 1
v -0.2005433 0.9228669 0.1002716 1 1 1
v -0.2005433 0.9228669 -0.1002716 1 1 1
v -0.1002716 0.9228669 -0.2005433 1 1 1
v 0.1002716 0.9228669 0.2005433 1 1 1

vn -0.3817107 0.1210512 -0.9163207
vn -0.3778612 0.1210156 -0.9179195
vn -0.9163207 0.1210512 -0.3817107
vn -0.9179195 0.1210156 -0.3778612
vn 0.3817107 0.1210512 0.9163207
vn -0.3817107 0.1210512 0.9163207
vn 0.3778612 0.1210156 0.9179195
vn -0.3778612 0.1210156 0.9179195
vn 0.3817107 0.1210512 -0.9163207
vn 0.3778612 0.1210156 -0.9179195
vn 0.9179195 0.1210156 0.3778612
vn 0.9163207 0.1210512 0.3817107
vn 0.9163207 0.1210512 -0.3817107
vn 0.9179195 0.1210156 -0.3778612
vn 0 -1 0
vn -0.9163207 0.1210512 0.3817107
vn -0.9179195 0.1210156 0.3778612
vn 0.8121054 0.4720124 0.3430584
vn 0.3430584 0.4720124 0.8121054
vn 0.8179857 0.4715649 0.3294327
vn 0.3294327 0.4715649 0.8179857
vn -0.8121054 0.4720124 -0.3430584
vn -0.3430584 0.4720124 -0.8121054
vn -0.8179857 0.4715649 -0.3294327
vn -0.3294327 0.4715649 -0.8179857
vn 0.3430584 0.4720124 -0.8121054
vn 0.3294327 0.4715649 -0.8179857
vn -0.8121054 0.4720124 0.3430584
vn -0.8179857 0.4715649 0.3294327
vn 0.8121054 0.4720124 -0.3430584
vn 0.8179857 0.4715649 -0.3294327
vn -0.3430584 0.4720124 0.8121054
vn -0.3294327 0.4715649 0.8179857
vn 0.3231682 0.4990583 -0.8040541
vn -0.3231682 0.4990583 -0.8040541
vn 0.3373795 0.4995452 -0.7978907
vn -0.3373795 0.4995452 -0.7978907
vn 0.8040541 0.4990583 -0.3231682
vn 0.7978907 0.4995452 -0.3373795
vn -0.3231682 0.4990583 0.8040541
vn 0.3231682 0.4990583 0.8040541
vn -0.3373795 0.4995452 0.7978907
vn 0.3373795 0.4995452 0.7978907
vn 0.8040541 0.4990583 0.3231682
vn 0.7978907 0.4995452 0.3373795
vn -0.8040541 0.4990583 0.3231682
vn -0.7978907 0.4995452 0.3373795
vn -0.7978907 0.4995452 -0.3373795
vn -0.8040541 0.4990583 -0.3231682
vn 0.3555629 0.4018683 -0.8438465
vn 0.8438465 0.4018683 -0.3555629
vn 0 1 0
vn 0.8438465 0.4018683 0.3555629
vn -0.3555629 0.4018683 0.8438465
vn -0.8438465 0.4018683 0.3555629
vn -0.8438465 0.4018683 -0.3555629
vn -0.3555629 0.4018683 -0.8438465
vn 0.3555629 0.4018683 0.8438465

vt 0.09375 0.225
vt 0.09375 0.025
vt 0.09375 0.075
vt 0.09375 0.175

usemtl colormap

f 3/1/3 2/2/2 1/1/1
f 2/2/2 3/1/3 4/2/4
f 7/2/7 6/1/6 5/1/5
f 6/1/6 7/2/7 8/2/8
f 2/2/2 9/1/9 1/1/1
f 9/1/9 2/2/2 10/2/10
f 7/2/7 12/1/12 11/2/11
f 12/1/12 7/2/7 5/1/5
f 10/2/10 13/1/13 9/1/9
f 13/1/13 10/2/10 14/2/14
f 14/2/14 12/1/12 13/1/13
f 12/1/12 14/2/14 11/2/11
f 5/1/15 13/1/15 12/1/15
f 13/1/15 5/1/15 9/1/15
f 9/1/15 5/1/15 6/1/15
f 9/1/15 6/1/15 1/1/15
f 1/1/15 6/1/15 15/1/15
f 1/1/15 15/1/15 3/1/15
f 15/1/16 4/2/4 3/1/3
f 4/2/4 15/1/16 16/2/17
f 15/1/16 8/2/8 16/2/17
f 8/2/8 15/1/16 6/1/6
f 19/4/20 18/3/19 17/3/18
f 18/3/19 19/4/20 20/4/21
f 23/4/24 22/3/23 21/3/22
f 22/3/23 23/4/24 24/4/25
f 24/4/25 25/3/26 22/3/23
f 25/3/26 24/4/25 26/4/27
f 27/3/28 23/4/24 21/3/22
f 23/4/24 27/3/28 28/4/29
f 30/4/31 17/3/18 29/3/30
f 17/3/18 30/4/31 19/4/20
f 18/3/15 29/3/15 17/3/15
f 29/3/15 18/3/15 25/3/15
f 25/3/15 18/3/15 31/3/15
f 25/3/15 31/3/15 22/3/15
f 22/3/15 31/3/15 27/3/15
f 22/3/15 27/3/15 21/3/15
f 26/4/27 29/3/30 25/3/26
f 29/3/30 26/4/27 30/4/31
f 20/4/21 31/3/32 18/3/19
f 31/3/32 20/4/21 32/4/33
f 32/4/33 27/3/28 31/3/32
f 27/3/28 32/4/33 28/4/29
f 35/4/36 34/3/35 33/3/34
f 34/3/35 35/4/36 36/4/37
f 38/4/39 33/3/34 37/3/38
f 33/3/34 38/4/39 35/4/36
f 41/4/42 40/3/41 39/3/40
f 40/3/41 41/4/42 42/4/43
f 36/4/15 44/4/15 43/4/15
f 44/4/15 36/4/15 41/4/15
f 41/4/15 36/4/15 35/4/15
f 41/4/15 35/4/15 42/4/15
f 42/4/15 35/4/15 38/4/15
f 42/4/15 38/4/15 45/4/15
f 42/4/43 46/3/44 40/3/41
f 46/3/44 42/4/43 45/4/45
f 37/3/38 45/4/45 38/4/39
f 45/4/45 37/3/38 46/3/44
f 44/4/47 39/3/40 47/3/46
f 39/3/40 44/4/47 41/4/42
f 44/4/47 48/3/49 43/4/48
f 48/3/49 44/4/47 47/3/46
f 36/4/37 48/3/49 34/3/35
f 48/3/49 36/4/37 43/4/48
f 51/4/52 50/3/51 49/3/50
f 52/3/53 50/3/51 51/4/52
f 51/4/52 54/3/55 53/3/54
f 54/3/55 51/4/52 55/3/56
f 51/4/52 49/3/50 56/3/57
f 51/4/52 57/3/58 52/3/53
f 51/4/52 56/3/57 55/3/56
f 51/4/52 53/3/54 57/3/58
f 57/3/15 50/3/15 52/3/15
f 50/3/15 57/3/15 49/3/15
f 49/3/15 57/3/15 53/3/15
f 49/3/15 53/3/15 56/3/15
f 56/3/15 53/3/15 54/3/15
f 56/3/15 54/3/15 55/3/15

g tree




usemtl colormap

f 3/1/3 2/2/2 1/1/1
f 2/2/2 3/1/3 4/2/4
f 7/2/7 6/1/6 5/1/5
f 6/1/6 7/2/7 8/2/8
f 2/2/2 9/1/9 1/1/1
f 9/1/9 2/2/2 10/2/10
f 7/2/7 12/1/12 11/2/11
f 12/1/12 7/2/7 5/1/5
f 10/2/10 13/1/13 9/1/9
f 13/1/13 10/2/10 14/2/14
f 14/2/14 12/1/12 13/1/13
f 12/1/12 14/2/14 11/2/11
f 5/1/15 13/1/15 12/1/15
f 13/1/15 5/1/15 9/1/15
f 9/1/15 5/1/15 6/1/15
f 9/1/15 6/1/15 1/1/15
f 1/1/15 6/1/15 15/1/15
f 1/1/15 15/1/15 3/1/15
f 15/1/16 4/2/4 3/1/3
f 4/2/4 15/1/16 16/2/17
f 15/1/16 8/2/8 16/2/17
f 8/2/8 15/1/16 6/1/6
f 19/4/20 18/3/19 17/3/18
f 18/3/19 19/4/20 20/4/21
f 23/4/24 22/3/23 21/3/22
f 22/3/23 23/4/24 24/4/25
f 24/4/25 25/3/26 22/3/23
f 25/3/26 24/4/25 26/4/27
f 27/3/28 23/4/24 21/3/22
f 23/4/24 27/3/28 28/4/29
f 30/4/31 17/3/18 29/3/30
f 17/3/18 30/4/31 19/4/20
f 18/3/15 29/3/15 17/3/15
f 29/3/15 18/3/15 25/3/15
f 25/3/15 18/3/15 31/3/15
f 25/3/15 31/3/15 22/3/15
f 22/3/15 31/3/15 27/3/15
f 22/3/15 27/3/15 21/3/15
f 26/4/27 29/3/30 25/3/26
f 29/3/30 26/4/27 30/4/31
f 20/4/21 31/3/32 18/3/19
f 31/3/32 20/4/21 32/4/33
f 32/4/33 27/3/28 31/3/32
f 27/3/28 32/4/33 28/4/29
f 35/4/36 34/3/35 33/3/34
f 34/3/35 35/4/36 36/4/37
f 38/4/39 33/3/34 37/3/38
f 33/3/34 38/4/39 35/4/36
f 41/4/42 40/3/41 39/3/40
f 40/3/41 41/4/42 42/4/43
f 36/4/15 44/4/15 43/4/15
f 44/4/15 36/4/15 41/4/15
f 41/4/15 36/4/15 35/4/15
f 41/4/15 35/4/15 42/4/15
f 42/4/15 35/4/15 38/4/15
f 42/4/15 38/4/15 45/4/15
f 42/4/43 46/3/44 40/3/41
f 46/3/44 42/4/43 45/4/45
f 37/3/38 45/4/45 38/4/39
f 45/4/45 37/3/38 46/3/44
f 44/4/47 39/3/40 47/3/46
f 39/3/40 44/4/47 41/4/42
f 44/4/47 48/3/49 43/4/48
f 48/3/49 44/4/47 47/3/46
f 36/4/37 48/3/49 34/3/35
f 48/3/49 36/4/37 43/4/48
f 51/4/52 50/3/51 49/3/50
f 52/3/53 50/3/51 51/4/52
f 51/4/52 54/3/55 53/3/54
f 54/3/55 51/4/52 55/3/56
f 51/4/52 49/3/50 56/3/57
f 51/4/52 57/3/58 52/3/53
f 51/4/52 56/3/57 55/3/56
f 51/4/52 53/3/54 57/3/58
f 57/3/15 50/3/15 52/3/15
f 50/3/15 57/3/15 49/3/15
f 49/3/15 57/3/15 53/3/15
f 49/3/15 53/3/15 56/3/15
f 56/3/15 53/3/15 54/3/15
f 56/3/15 54/3/15 55/3/15

