# Created by Kenney (www.kenney.nl)

mtllib tree-large.mtl

g tree-large

v -0.1029824 0.3861839 0.05149118 1 1 1
v -0.05149118 0.3861839 0.1029824 1 1 1
v -0.1452051 0 0.07260257 1 1 1
v -0.07260257 0 0.1452051 1 1 1
v -0.1452051 0 -0.07260257 1 1 1
v -0.1029824 0.3861839 -0.05149118 1 1 1
v 0.1029824 0.3861839 0.05149118 1 1 1
v 0.1452051 0 0.07260257 1 1 1
v 0.05149118 0.3861839 0.1029824 1 1 1
v 0.07260257 0 0.1452051 1 1 1
v 0.07260257 0 -0.1452051 1 1 1
v 0.1452051 0 -0.07260257 1 1 1
v 0.05149118 0.3861839 -0.1029824 1 1 1
v 0.1029824 0.3861839 -0.05149118 1 1 1
v -0.07260257 0 -0.1452051 1 1 1
v -0.05149118 0.3861839 -0.1029824 1 1 1
v 0.1336955 1.230489 0.2673911 1 1 1
v -0.1336955 1.230489 0.2673911 1 1 1
v -2.887646E-15 1.91025 -7.074732E-14 1 1 1
v -0.1336955 1.230489 -0.2673911 1 1 1
v 0.1336955 1.230489 -0.2673911 1 1 1
v -0.2673911 1.230489 -0.1336955 1 1 1
v -0.2673911 1.230489 0.1336955 1 1 1
v 0.2673911 1.230489 -0.1336955 1 1 1
v 0.2673911 1.230489 0.1336955 1 1 1
v -0.2113095 0.8065641 0.4226191 1 1 1
v -0.4226191 0.8065641 0.2113095 1 1 1
v -0.1017637 1.230489 0.2035273 1 1 1
v -0.2035273 1.230489 0.1017637 1 1 1
v -0.4226191 0.8065641 -0.2113095 1 1 1
v -0.2113095 0.8065641 -0.4226191 1 1 1
v -0.2035273 1.230489 -0.1017637 1 1 1
v -0.1017637 1.230489 -0.2035273 1 1 1
v 0.2113095 0.8065641 -0.4226191 1 1 1
v 0.4226191 0.8065641 -0.2113095 1 1 1
v 0.1017637 1.230489 -0.2035273 1 1 1
v 0.2035273 1.230489 -0.1017637 1 1 1
v 0.4226191 0.8065641 0.2113095 1 1 1
v 0.2113095 0.8065641 0.4226191 1 1 1
v 0.2035273 1.230489 0.1017637 1 1 1
v 0.1017637 1.230489 0.2035273 1 1 1
v 0.5 0.3861839 0.25 1 1 1
v 0.25 0.3861839 0.5 1 1 1
v 0.298274 0.8065641 0.149137 1 1 1
v 0.149137 0.8065641 0.298274 1 1 1
v 0.25 0.3861839 -0.5 1 1 1
v 0.5 0.3861839 -0.25 1 1 1
v 0.149137 0.8065641 -0.298274 1 1 1
v 0.298274 0.8065641 -0.149137 1 1 1
v -0.5 0.3861839 -0.25 1 1 1
v -0.25 0.3861839 -0.5 1 1 1
v -0.298274 0.8065641 -0.149137 1 1 1
v -0.149137 0.8065641 -0.298274 1 1 1
v -0.5 0.3861839 0.25 1 1 1
v -0.298274 0.8065641 0.149137 1 1 1
v -0.25 0.3861839 0.5 1 1 1
v -0.149137 0.8065641 0.298274 1 1 1

vn -0.9179195 0.1210156 0.3778612
vn -0.3778612 0.1210156 0.9179195
vn -0.9163207 0.1210512 0.3817107
vn -0.3817107 0.1210512 0.9163207
vn -0.9163207 0.1210512 -0.3817107
vn -0.9179195 0.1210156 -0.3778612
vn 0.9179195 0.1210156 0.3778612
vn 0.9163207 0.1210512 0.3817107
vn 0.3778612 0.1210156 0.9179195
vn 0.3817107 0.1210512 0.9163207
vn 0.3817107 0.1210512 -0.9163207
vn 0.9163207 0.1210512 -0.3817107
vn 0.3778612 0.1210156 -0.9179195
vn 0.9179195 0.1210156 -0.3778612
vn 0 -1 0
vn -0.3817107 0.1210512 -0.9163207
vn -0.3778612 0.1210156 -0.9179195
vn 0.3555629 0.4018683 0.8438465
vn -0.3555629 0.4018683 0.8438465
vn 0 1 0
vn -0.3555629 0.4018683 -0.8438465
vn 0.3555629 0.4018683 -0.8438465
vn -0.8438465 0.4018683 -0.3555629
vn -0.8438465 0.4018683 0.3555629
vn 0.8438465 0.4018683 -0.3555629
vn 0.8438465 0.4018683 0.3555629
vn -0.3373795 0.4995452 0.7978907
vn -0.7978907 0.4995452 0.3373795
vn -0.3231682 0.4990583 0.8040541
vn -0.8040541 0.4990583 0.3231682
vn -0.7978907 0.4995452 -0.3373795
vn -0.3373795 0.4995452 -0.7978907
vn -0.8040541 0.4990583 -0.3231682
vn -0.3231682 0.4990583 -0.8040541
vn 0.3373795 0.4995452 -0.7978907
vn 0.7978907 0.4995452 -0.3373795
vn 0.3231682 0.4990583 -0.8040541
vn 0.8040541 0.4990583 -0.3231682
vn 0.7978907 0.4995452 0.3373795
vn 0.3373795 0.4995452 0.7978907
vn 0.8040541 0.4990583 0.3231682
vn 0.3231682 0.4990583 0.8040541
vn 0.8121054 0.4720124 0.3430584
vn 0.3430584 0.4720124 0.8121054
vn 0.8179857 0.4715649 0.3294327
vn 0.3294327 0.4715649 0.8179857
vn 0.3430584 0.4720124 -0.8121054
vn 0.8121054 0.4720124 -0.3430584
vn 0.3294327 0.4715649 -0.8179857
vn 0.8179857 0.4715649 -0.3294327
vn -0.8121054 0.4720124 -0.3430584
vn -0.3430584 0.4720124 -0.8121054
vn -0.8179857 0.4715649 -0.3294327
vn -0.3294327 0.4715649 -0.8179857
vn -0.8121054 0.4720124 0.3430584
vn -0.8179857 0.4715649 0.3294327
vn -0.3430584 0.4720124 0.8121054
vn -0.3294327 0.4715649 0.8179857

vt 0.09375 0.025
vt 0.09375 0.225
vt 0.09375 0.075
vt 0.09375 0.175

usemtl colormap

f 3/2/3 2/1/2 1/1/1
f 2/1/2 3/2/3 4/2/4
f 3/2/3 6/1/6 5/2/5
f 6/1/6 3/2/3 1/1/1
f 9/1/9 8/2/8 7/1/7
f 8/2/8 9/1/9 10/2/10
f 9/1/9 4/2/4 10/2/10
f 4/2/4 9/1/9 2/1/2
f 13/1/13 12/2/12 11/2/11
f 12/2/12 13/1/13 14/1/14
f 14/1/14 8/2/8 12/2/12
f 8/2/8 14/1/14 7/1/7
f 10/2/15 12/2/15 8/2/15
f 12/2/15 10/2/15 11/2/15
f 11/2/15 10/2/15 4/2/15
f 11/2/15 4/2/15 15/2/15
f 15/2/15 4/2/15 3/2/15
f 15/2/15 3/2/15 5/2/15
f 5/2/5 16/1/17 15/2/16
f 16/1/17 5/2/5 6/1/6
f 16/1/17 11/2/11 15/2/16
f 11/2/11 16/1/17 13/1/13
f 19/4/20 18/3/19 17/3/18
f 19/4/20 21/3/22 20/3/21
f 23/3/24 19/4/20 22/3/23
f 19/4/20 20/3/21 22/3/23
f 25/3/26 24/3/25 19/4/20
f 19/4/20 24/3/25 21/3/22
f 19/4/20 17/3/18 25/3/26
f 19/4/20 23/3/24 18/3/19
f 17/3/15 24/3/15 25/3/15
f 24/3/15 17/3/15 21/3/15
f 21/3/15 17/3/15 18/3/15
f 21/3/15 18/3/15 20/3/15
f 20/3/15 18/3/15 23/3/15
f 20/3/15 23/3/15 22/3/15
f 28/4/29 27/3/28 26/3/27
f 27/3/28 28/4/29 29/4/30
f 32/4/33 31/3/32 30/3/31
f 31/3/32 32/4/33 33/4/34
f 36/4/37 35/3/36 34/3/35
f 35/3/36 36/4/37 37/4/38
f 27/3/28 32/4/33 30/3/31
f 32/4/33 27/3/28 29/4/30
f 39/3/15 35/3/15 38/3/15
f 35/3/15 39/3/15 34/3/15
f 34/3/15 39/3/15 26/3/15
f 34/3/15 26/3/15 31/3/15
f 31/3/15 26/3/15 27/3/15
f 31/3/15 27/3/15 30/3/15
f 40/4/41 39/3/40 38/3/39
f 39/3/40 40/4/41 41/4/42
f 33/4/34 34/3/35 31/3/32
f 34/3/35 33/4/34 36/4/37
f 37/4/38 38/3/39 35/3/36
f 38/3/39 37/4/38 40/4/41
f 41/4/42 26/3/27 39/3/40
f 26/3/27 41/4/42 28/4/29
f 44/4/45 43/3/44 42/3/43
f 43/3/44 44/4/45 45/4/46
f 48/4/49 47/3/48 46/3/47
f 47/3/48 48/4/49 49/4/50
f 52/4/53 51/3/52 50/3/51
f 51/3/52 52/4/53 53/4/54
f 54/3/55 52/4/53 50/3/51
f 52/4/53 54/3/55 55/4/56
f 57/4/58 54/3/55 56/3/57
f 54/3/55 57/4/58 55/4/56
f 45/4/46 56/3/57 43/3/44
f 56/3/57 45/4/46 57/4/58
f 43/3/15 47/3/15 42/3/15
f 47/3/15 43/3/15 46/3/15
f 46/3/15 43/3/15 56/3/15
f 46/3/15 56/3/15 51/3/15
f 51/3/15 56/3/15 54/3/15
f 51/3/15 54/3/15 50/3/15
f 49/4/50 42/3/43 47/3/48
f 42/3/43 49/4/50 44/4/45
f 53/4/54 46/3/47 51/3/52
f 46/3/47 53/4/54 48/4/49

g tree-large




usemtl colormap

f 3/2/3 2/1/2 1/1/1
f 2/1/2 3/2/3 4/2/4
f 3/2/3 6/1/6 5/2/5
f 6/1/6 3/2/3 1/1/1
f 9/1/9 8/2/8 7/1/7
f 8/2/8 9/1/9 10/2/10
f 9/1/9 4/2/4 10/2/10
f 4/2/4 9/1/9 2/1/2
f 13/1/13 12/2/12 11/2/11
f 12/2/12 13/1/13 14/1/14
f 14/1/14 8/2/8 12/2/12
f 8/2/8 14/1/14 7/1/7
f 10/2/15 12/2/15 8/2/15
f 12/2/15 10/2/15 11/2/15
f 11/2/15 10/2/15 4/2/15
f 11/2/15 4/2/15 15/2/15
f 15/2/15 4/2/15 3/2/15
f 15/2/15 3/2/15 5/2/15
f 5/2/5 16/1/17 15/2/16
f 16/1/17 5/2/5 6/1/6
f 16/1/17 11/2/11 15/2/16
f 11/2/11 16/1/17 13/1/13
f 19/4/20 18/3/19 17/3/18
f 19/4/20 21/3/22 20/3/21
f 23/3/24 19/4/20 22/3/23
f 19/4/20 20/3/21 22/3/23
f 25/3/26 24/3/25 19/4/20
f 19/4/20 24/3/25 21/3/22
f 19/4/20 17/3/18 25/3/26
f 19/4/20 23/3/24 18/3/19
f 17/3/15 24/3/15 25/3/15
f 24/3/15 17/3/15 21/3/15
f 21/3/15 17/3/15 18/3/15
f 21/3/15 18/3/15 20/3/15
f 20/3/15 18/3/15 23/3/15
f 20/3/15 23/3/15 22/3/15
f 28/4/29 27/3/28 26/3/27
f 27/3/28 28/4/29 29/4/30
f 32/4/33 31/3/32 30/3/31
f 31/3/32 32/4/33 33/4/34
f 36/4/37 35/3/36 34/3/35
f 35/3/36 36/4/37 37/4/38
f 27/3/28 32/4/33 30/3/31
f 32/4/33 27/3/28 29/4/30
f 39/3/15 35/3/15 38/3/15
f 35/3/15 39/3/15 34/3/15
f 34/3/15 39/3/15 26/3/15
f 34/3/15 26/3/15 31/3/15
f 31/3/15 26/3/15 27/3/15
f 31/3/15 27/3/15 30/3/15
f 40/4/41 39/3/40 38/3/39
f 39/3/40 40/4/41 41/4/42
f 33/4/34 34/3/35 31/3/32
f 34/3/35 33/4/34 36/4/37
f 37/4/38 38/3/39 35/3/36
f 38/3/39 37/4/38 40/4/41
f 41/4/42 26/3/27 39/3/40
f 26/3/27 41/4/42 28/4/29
f 44/4/45 43/3/44 42/3/43
f 43/3/44 44/4/45 45/4/46
f 48/4/49 47/3/48 46/3/47
f 47/3/48 48/4/49 49/4/50
f 52/4/53 51/3/52 50/3/51
f 51/3/52 52/4/53 53/4/54
f 54/3/55 52/4/53 50/3/51
f 52/4/53 54/3/55 55/4/56
f 57/4/58 54/3/55 56/3/57
f 54/3/55 57/4/58 55/4/56
f 45/4/46 56/3/57 43/3/44
f 56/3/57 45/4/46 57/4/58
f 43/3/15 47/3/15 42/3/15
f 47/3/15 43/3/15 46/3/15
f 46/3/15 43/3/15 56/3/15
f 46/3/15 56/3/15 51/3/15
f 51/3/15 56/3/15 54/3/15
f 51/3/15 54/3/15 50/3/15
f 49/4/50 42/3/43 47/3/48
f 42/3/43 49/4/50 44/4/45
f 53/4/54 46/3/47 51/3/52
f 46/3/47 53/4/54 48/4/49

