# Created by Kenney (www.kenney.nl)

mtllib track-striped-narrow-straight-hill-end.mtl

g track-striped-narrow-straight-hill-end

v 0.5 0.4855481 0.8656373 1 1 1
v 0.5 0.2862386 0.4071398 1 1 1
v -0.5 0.4855481 0.8656373 1 1 1
v -0.5 0.2862386 0.4071398 1 1 1
v -0.5 0.5515022 0.267014 1 1 1
v -0.5 0.7675424 0.7632694 1 1 1
v 0.3999996 0.3746598 0.3604312 1 1 1
v 0.3999996 0.5515022 0.267014 1 1 1
v 0.3999996 0.5795462 0.8315148 1 1 1
v 0.3999996 0.7675424 0.7632694 1 1 1
v -0.3999996 0.5515022 0.267014 1 1 1
v -0.3999996 0.7675424 0.7632694 1 1 1
v 0.5 0.5515022 0.267014 1 1 1
v 0.5 0.7675424 0.7632694 1 1 1
v -0.3999996 0.3746598 0.3604312 1 1 1
v -0.3999996 0.5795462 0.8315148 1 1 1
v 0.5 2.861023E-06 2.861023E-06 1 1 1
v -0.5 2.861023E-06 2.861023E-06 1 1 1
v 0.3999996 0.07071376 -0.07070732 1 1 1
v 0.3999996 0.2121357 -0.2121282 1 1 1
v 0.5 0.2121357 -0.2121282 1 1 1
v -0.3999996 0.07071376 -0.07070732 1 1 1
v -0.5 0.2121357 -0.2121282 1 1 1
v -0.3999996 0.2121357 -0.2121282 1 1 1
v 0.5 0.752373 1.828857 1 1 1
v 0.5 0.6354088 1.342743 1 1 1
v -0.5 0.752373 1.828857 1 1 1
v -0.5 0.6354088 1.342743 1 1 1
v -0.5 0.9248405 1.263818 1 1 1
v -0.5 1.045857 1.766671 1 1 1
v 0.3999996 0.7318859 1.316435 1 1 1
v 0.3999996 0.9248405 1.263818 1 1 1
v 0.3999996 0.8502009 1.808128 1 1 1
v 0.3999996 1.045857 1.766671 1 1 1
v -0.3999996 0.9248405 1.263818 1 1 1
v -0.3999996 1.045857 1.766671 1 1 1
v 0.5 0.9248405 1.263818 1 1 1
v 0.5 1.045857 1.766671 1 1 1
v -0.3999996 0.7318859 1.316435 1 1 1
v -0.3999996 0.8502009 1.808128 1 1 1
v 0.5 0.9160074 2.815408 1 1 1
v 0.5 0.8445864 2.320355 1 1 1
v -0.5 0.9160074 2.815408 1 1 1
v -0.5 0.8445864 2.320355 1 1 1
v -0.5 1.140586 2.271527 1 1 1
v -0.5 1.213722 2.778453 1 1 1
v 0.3999996 0.9432529 2.304079 1 1 1
v 0.3999996 1.140586 2.271527 1 1 1
v 0.3999996 1.015246 2.80309 1 1 1
v 0.3999996 1.213722 2.778453 1 1 1
v -0.3999996 1.140586 2.271527 1 1 1
v -0.3999996 1.213722 2.778453 1 1 1
v 0.5 1.140586 2.271527 1 1 1
v 0.5 1.213722 2.778453 1 1 1
v -0.3999996 0.9432529 2.304079 1 1 1
v -0.3999996 1.015246 2.80309 1 1 1
v 0.5 0.9969859 3.812372 1 1 1
v 0.5 0.9677281 3.313097 1 1 1
v -0.5 0.9969859 3.812372 1 1 1
v -0.5 0.9677281 3.313097 1 1 1
v -0.5 1.266698 3.288258 1 1 1
v -0.5 1.296848 3.803284 1 1 1
v 0.3999996 1.067385 3.304817 1 1 1
v 0.3999996 1.266698 3.288258 1 1 1
v 0.3999996 1.09694 3.809343 1 1 1
v 0.3999996 1.296848 3.803284 1 1 1
v -0.3999996 1.266698 3.288258 1 1 1
v -0.3999996 1.296848 3.803284 1 1 1
v 0.5 1.266698 3.288258 1 1 1
v 0.5 1.296848 3.803284 1 1 1
v -0.3999996 1.067385 3.304817 1 1 1
v -0.3999996 1.09694 3.809343 1 1 1
v 0.5 1 3.999996 1 1 1
v -0.5 1 3.999996 1 1 1
v -0.5 1.3 3.999996 1 1 1
v 0.3999996 1.1 3.999996 1 1 1
v 0.3999996 1.3 3.999996 1 1 1
v -0.3999996 1.3 3.999996 1 1 1
v 0.5 1.3 3.999996 1 1 1
v -0.3999996 1.1 3.999996 1 1 1
v -0.4 0.212132 -0.2121321 1 1 1
v -0.5 0.212132 -0.2121321 1 1 1
v -0.4 0.07071066 -0.07071068 1 1 1
v -0.5 0 0 1 1 1
v 0.5 0 0 1 1 1
v 0.4 0.07071066 -0.07071068 1 1 1
v 0.5 0.212132 -0.2121321 1 1 1
v 0.4 0.212132 -0.2121321 1 1 1
v -0.1207107 -0.1207107 -0.1207107 1 1 1
v -0.1207107 -0.0853554 -0.156066 1 1 1
v -0.15 -0.07071066 -0.07071067 1 1 1
v -0.15 -0.03535533 -0.106066 1 1 1
v -0.05 -0.1414213 -0.1414213 1 1 1
v -0.05 -0.106066 -0.1767767 1 1 1
v -0.05 0 5.104684E-16 1 1 1
v -0.05 -0.07071066 -0.07071067 1 1 1
v -0.15 0 7.657026E-16 1 1 1
v 0.05 -0.1414213 -0.1414213 1 1 1
v 0.05 -0.07071066 -0.07071067 1 1 1
v 0.05 0 2.552342E-16 1 1 1
v 0.1207107 -0.1207107 -0.1207107 1 1 1
v 0.15 -0.07071066 -0.07071067 1 1 1
v 0.15 0 -1.133468E-31 1 1 1
v 0.1207107 -0.0853554 -0.156066 1 1 1
v 0.15 -0.03535533 -0.106066 1 1 1
v 0.05 -0.106066 -0.1767767 1 1 1
v 0.15 0.03535533 -0.03535534 1 1 1
v -0.15 0.03535533 -0.03535534 1 1 1
v 0.05 -0.03535533 -0.106066 1 1 1
v 0.05 0.03535533 -0.03535534 1 1 1
v -0.05 -0.03535533 -0.106066 1 1 1
v -0.05 0.03535533 -0.03535534 1 1 1
v 0.4 1.3 4 1 1 1
v 0.5 1.3 4 1 1 1
v 0.4 1.1 4 1 1 1
v 0.5 1 4 1 1 1
v -0.5 1 4 1 1 1
v -0.4 1.1 4 1 1 1
v -0.5 1.3 4 1 1 1
v -0.4 1.3 4 1 1 1
v 0.1207107 1 4.170711 1 1 1
v 0.1207107 1.05 4.170711 1 1 1
v 0.15 1 4.1 1 1 1
v 0.15 1.05 4.1 1 1 1
v 0.05 1 4.2 1 1 1
v 0.05 1.05 4.2 1 1 1
v 0.05 1 4 1 1 1
v 0.05 1 4.1 1 1 1
v 0.15 1 4 1 1 1
v -0.05 1 4.2 1 1 1
v -0.05 1 4.1 1 1 1
v -0.05 1 4 1 1 1
v -0.1207107 1 4.170711 1 1 1
v -0.15 1 4.1 1 1 1
v -0.15 1 4 1 1 1
v -0.1207107 1.05 4.170711 1 1 1
v -0.15 1.05 4.1 1 1 1
v -0.05 1.05 4.2 1 1 1
v -0.15 1.05 4 1 1 1
v 0.15 1.05 4 1 1 1
v -0.05 1.05 4.1 1 1 1
v -0.05 1.05 4 1 1 1
v 0.05 1.05 4.1 1 1 1
v 0.05 1.05 4 1 1 1

vn 0 -0.9399807 0.3412275
vn 0 -0.8842121 0.4670857
vn -1 0 0
vn -0.7071068 0.6252323 -0.3302794
vn -0.7071068 0.6646668 -0.2412843
vn 0.7071068 0.6252323 -0.3302794
vn 0.7071068 0.6646668 -0.2412843
vn 1 0 0
vn 0 0.8842121 -0.4670857
vn 0 0.9399807 -0.3412275
vn 0 -0.7071094 0.7071041
vn -0.7071068 0.5000018 -0.4999981
vn 0.7071068 0.5000018 -0.4999981
vn 0 0.7071094 -0.7071041
vn 0 -0.9782799 0.2072885
vn 0 -0.9647723 0.2630862
vn -0.7071068 0.682197 -0.18603
vn -0.7071068 0.6917483 -0.1465751
vn 0.7071068 0.682197 -0.18603
vn 0.7071068 0.6917483 -0.1465751
vn 0 0.9647723 -0.2630862
vn 0 0.9782799 -0.2072885
vn 0 -0.9923837 0.1231851
vn 0 -0.9866653 0.1627623
vn -0.7071068 0.6976777 -0.1150903
vn -0.7071068 0.7017213 -0.08710499
vn 0.7071068 0.6976777 -0.1150903
vn 0.7071068 0.7017213 -0.08710499
vn 0 0.9866653 -0.1627623
vn 0 0.9923837 -0.1231851
vn 0 -0.999541 0.03029505
vn 0 -0.9965664 0.08279768
vn -0.7071068 0.7046788 -0.0585468
vn -0.7071068 0.7067822 -0.02142183
vn 0.7071068 0.7046788 -0.0585468
vn 0.7071068 0.7067822 -0.02142183
vn 0 0.9965664 -0.08279768
vn 0 0.999541 -0.03029505
vn 0 -1 8.741981E-07
vn -0.7071068 0.7071068 -6.181514E-07
vn 0.7071068 0.7071068 -6.181514E-07
vn 0 1 -8.741981E-07
vn 0 -0.7071068 -0.7071067
vn -0.7071068 -0.5 -0.4999999
vn -0.9807853 -0.1379497 -0.1379497
vn -0.1950903 -0.6935199 -0.6935198
vn 0 -0.7071067 0.7071068
vn 0.7071068 -0.5 -0.4999999
vn 0.9807853 -0.1379497 -0.1379497
vn 0.1950903 -0.6935199 -0.6935198
vn 0 0.7071068 0.7071067
vn 0 0.7071067 -0.7071068
vn 0 0 1
vn 0.7071068 0 0.7071068
vn 0.9807853 0 0.1950903
vn 0.1950903 0 0.9807853
vn 0 -1 0
vn -0.7071068 0 0.7071068
vn -0.9807853 0 0.1950903
vn -0.1950903 0 0.9807853
vn -1 0 7.21645E-16
vn 1 0 -7.21645E-16
vn -7.21645E-16 0 -1
vn 0 1 0

vt 0.59375 0.275
vt 0.59375 0.475
vt 0.59375 0.3416667
vt 0.59375 0.025
vt 0.59375 0.09166666
vt 0.59375 0.225
vt 0.34375 0.025
vt 0.34375 0.225

usemtl colormap

f 3/1/1 2/1/2 1/1/1
f 2/1/2 3/1/1 4/1/2
f 3/1/3 5/2/4 4/1/3
f 5/2/4 3/1/3 6/2/5
f 9/3/3 8/2/4 7/3/3
f 8/2/4 9/3/3 10/2/5
f 5/2/4 12/2/7 11/2/6
f 12/2/7 5/2/4 6/2/5
f 8/2/4 14/2/7 13/2/6
f 14/2/7 8/2/4 10/2/5
f 12/2/7 15/3/8 11/2/6
f 15/3/8 12/2/7 16/3/8
f 14/2/7 2/1/8 13/2/6
f 2/1/8 14/2/7 1/1/8
f 15/3/9 9/3/10 7/3/9
f 9/3/10 15/3/9 16/3/10
f 4/4/2 17/4/11 2/4/2
f 17/4/11 4/4/2 18/4/11
f 7/5/3 20/6/12 19/5/3
f 20/6/12 7/5/3 8/6/4
f 13/6/6 20/6/12 8/6/4
f 20/6/12 13/6/6 21/6/13
f 13/6/6 17/4/8 21/6/13
f 17/4/8 13/6/6 2/4/8
f 22/5/14 7/5/9 19/5/14
f 7/5/9 22/5/14 15/5/9
f 4/4/3 23/6/12 18/4/3
f 23/6/12 4/4/3 5/6/4
f 11/6/6 23/6/12 5/6/4
f 23/6/12 11/6/6 24/6/13
f 11/6/6 22/5/8 24/6/13
f 22/5/8 11/6/6 15/5/8
f 27/1/15 26/1/16 25/1/15
f 26/1/16 27/1/15 28/1/16
f 27/1/3 29/2/17 28/1/3
f 29/2/17 27/1/3 30/2/18
f 33/3/3 32/2/17 31/3/3
f 32/2/17 33/3/3 34/2/18
f 29/2/17 36/2/20 35/2/19
f 36/2/20 29/2/17 30/2/18
f 32/2/17 38/2/20 37/2/19
f 38/2/20 32/2/17 34/2/18
f 36/2/20 39/3/8 35/2/19
f 39/3/8 36/2/20 40/3/8
f 38/2/20 26/1/8 37/2/19
f 26/1/8 38/2/20 25/1/8
f 39/3/21 33/3/22 31/3/21
f 33/3/22 39/3/21 40/3/22
f 28/4/16 1/4/1 26/4/16
f 1/4/1 28/4/16 3/4/1
f 31/5/3 10/6/5 9/5/3
f 10/6/5 31/5/3 32/6/17
f 37/6/19 10/6/5 32/6/17
f 10/6/5 37/6/19 14/6/7
f 37/6/19 1/4/8 14/6/7
f 1/4/8 37/6/19 26/4/8
f 16/5/10 31/5/21 9/5/10
f 31/5/21 16/5/10 39/5/21
f 28/4/3 6/6/5 3/4/3
f 6/6/5 28/4/3 29/6/17
f 35/6/19 6/6/5 29/6/17
f 6/6/5 35/6/19 12/6/7
f 35/6/19 16/5/8 12/6/7
f 16/5/8 35/6/19 39/5/8
f 43/1/23 42/1/24 41/1/23
f 42/1/24 43/1/23 44/1/24
f 43/1/3 45/2/25 44/1/3
f 45/2/25 43/1/3 46/2/26
f 49/3/3 48/2/25 47/3/3
f 48/2/25 49/3/3 50/2/26
f 45/2/25 52/2/28 51/2/27
f 52/2/28 45/2/25 46/2/26
f 48/2/25 54/2/28 53/2/27
f 54/2/28 48/2/25 50/2/26
f 52/2/28 55/3/8 51/2/27
f 55/3/8 52/2/28 56/3/8
f 54/2/28 42/1/8 53/2/27
f 42/1/8 54/2/28 41/1/8
f 55/3/29 49/3/30 47/3/29
f 49/3/30 55/3/29 56/3/30
f 44/4/24 25/4/15 42/4/24
f 25/4/15 44/4/24 27/4/15
f 47/5/3 34/6/18 33/5/3
f 34/6/18 47/5/3 48/6/25
f 53/6/27 34/6/18 48/6/25
f 34/6/18 53/6/27 38/6/20
f 53/6/27 25/4/8 38/6/20
f 25/4/8 53/6/27 42/4/8
f 40/5/22 47/5/29 33/5/22
f 47/5/29 40/5/22 55/5/29
f 44/4/3 30/6/18 27/4/3
f 30/6/18 44/4/3 45/6/25
f 51/6/27 30/6/18 45/6/25
f 30/6/18 51/6/27 36/6/20
f 51/6/27 40/5/8 36/6/20
f 40/5/8 51/6/27 55/5/8
f 59/1/31 58/1/32 57/1/31
f 58/1/32 59/1/31 60/1/32
f 59/1/3 61/2/33 60/1/3
f 61/2/33 59/1/3 62/2/34
f 65/3/3 64/2/33 63/3/3
f 64/2/33 65/3/3 66/2/34
f 61/2/33 68/2/36 67/2/35
f 68/2/36 61/2/33 62/2/34
f 64/2/33 70/2/36 69/2/35
f 70/2/36 64/2/33 66/2/34
f 68/2/36 71/3/8 67/2/35
f 71/3/8 68/2/36 72/3/8
f 70/2/36 58/1/8 69/2/35
f 58/1/8 70/2/36 57/1/8
f 71/3/37 65/3/38 63/3/37
f 65/3/38 71/3/37 72/3/38
f 60/4/32 41/4/23 58/4/32
f 41/4/23 60/4/32 43/4/23
f 63/5/3 50/6/26 49/5/3
f 50/6/26 63/5/3 64/6/33
f 69/6/35 50/6/26 64/6/33
f 50/6/26 69/6/35 54/6/28
f 69/6/35 41/4/8 54/6/28
f 41/4/8 69/6/35 58/4/8
f 56/5/30 63/5/37 49/5/30
f 63/5/37 56/5/30 71/5/37
f 60/4/3 46/6/26 43/4/3
f 46/6/26 60/4/3 61/6/33
f 67/6/35 46/6/26 61/6/33
f 46/6/26 67/6/35 52/6/28
f 67/6/35 56/5/8 52/6/28
f 56/5/8 67/6/35 71/5/8
f 74/1/39 73/1/39 73/1/39
f 73/1/39 74/1/39 74/1/39
f 74/1/3 75/2/40 74/1/3
f 75/2/40 74/1/3 75/2/40
f 76/3/3 77/2/40 76/3/3
f 77/2/40 76/3/3 77/2/40
f 75/2/40 78/2/41 78/2/41
f 78/2/41 75/2/40 75/2/40
f 77/2/40 79/2/41 79/2/41
f 79/2/41 77/2/40 77/2/40
f 78/2/41 80/3/8 78/2/41
f 80/3/8 78/2/41 80/3/8
f 79/2/41 73/1/8 79/2/41
f 73/1/8 79/2/41 73/1/8
f 80/3/42 76/3/42 76/3/42
f 76/3/42 80/3/42 80/3/42
f 74/4/39 57/4/31 73/4/39
f 57/4/31 74/4/39 59/4/31
f 76/5/3 66/6/34 65/5/3
f 66/6/34 76/5/3 77/6/40
f 79/6/41 66/6/34 77/6/40
f 66/6/34 79/6/41 70/6/36
f 79/6/41 57/4/8 70/6/36
f 57/4/8 79/6/41 73/4/8
f 72/5/38 76/5/42 65/5/38
f 76/5/42 72/5/38 80/5/42
f 74/4/3 62/6/34 59/4/3
f 62/6/34 74/4/3 75/6/40
f 78/6/41 62/6/34 75/6/40
f 62/6/34 78/6/41 68/6/36
f 78/6/41 72/5/8 68/6/36
f 72/5/8 78/6/41 80/5/8
f 83/5/43 82/6/43 81/6/43
f 83/5/43 84/4/43 82/6/43
f 84/4/43 83/5/43 85/4/43
f 86/5/43 85/4/43 83/5/43
f 85/4/43 86/5/43 87/6/43
f 87/6/43 86/5/43 88/6/43
f 91/7/45 90/8/44 89/7/44
f 90/8/44 91/7/45 92/8/45
f 90/8/44 93/7/46 89/7/44
f 93/7/46 90/8/44 94/8/46
f 97/7/47 96/7/47 95/7/47
f 96/7/47 97/7/47 93/7/47
f 93/7/47 97/7/47 89/7/47
f 89/7/47 97/7/47 91/7/47
f 98/7/47 96/7/47 93/7/47
f 98/7/47 99/7/47 96/7/47
f 98/7/47 100/7/47 99/7/47
f 101/7/47 100/7/47 98/7/47
f 102/7/47 100/7/47 101/7/47
f 100/7/47 102/7/47 103/7/47
f 105/8/49 101/7/48 104/8/48
f 101/7/48 105/8/49 102/7/49
f 106/8/50 101/7/48 98/7/50
f 101/7/48 106/8/50 104/8/48
f 107/8/8 102/7/49 105/8/49
f 102/7/49 107/8/8 103/7/8
f 97/7/3 92/8/45 91/7/45
f 92/8/45 97/7/3 108/8/3
f 94/8/46 98/7/50 93/7/46
f 98/7/50 94/8/46 106/8/50
f 100/7/3 109/8/3 99/7/3
f 109/8/3 100/7/3 110/8/3
f 109/8/51 96/7/51 99/7/51
f 96/7/51 109/8/51 111/8/51
f 112/8/8 96/7/8 111/8/8
f 96/7/8 112/8/8 95/7/8
f 108/8/52 90/8/52 92/8/52
f 112/8/52 90/8/52 108/8/52
f 111/8/52 90/8/52 112/8/52
f 111/8/52 94/8/52 90/8/52
f 109/8/52 94/8/52 111/8/52
f 94/8/52 109/8/52 106/8/52
f 110/8/52 106/8/52 109/8/52
f 110/8/52 104/8/52 106/8/52
f 107/8/52 104/8/52 110/8/52
f 104/8/52 107/8/52 105/8/52
f 115/3/53 114/2/53 113/2/53
f 115/3/53 116/1/53 114/2/53
f 116/1/53 115/3/53 117/1/53
f 118/3/53 117/1/53 115/3/53
f 117/1/53 118/3/53 119/2/53
f 119/2/53 118/3/53 120/2/53
f 123/7/55 122/8/54 121/7/54
f 122/8/54 123/7/55 124/8/55
f 122/8/54 125/7/56 121/7/54
f 125/7/56 122/8/54 126/8/56
f 129/7/57 128/7/57 127/7/57
f 128/7/57 129/7/57 125/7/57
f 125/7/57 129/7/57 121/7/57
f 121/7/57 129/7/57 123/7/57
f 130/7/57 128/7/57 125/7/57
f 130/7/57 131/7/57 128/7/57
f 130/7/57 132/7/57 131/7/57
f 133/7/57 132/7/57 130/7/57
f 134/7/57 132/7/57 133/7/57
f 132/7/57 134/7/57 135/7/57
f 137/8/59 133/7/58 136/8/58
f 133/7/58 137/8/59 134/7/59
f 138/8/60 133/7/58 130/7/60
f 133/7/58 138/8/60 136/8/58
f 139/8/61 134/7/59 137/8/59
f 134/7/59 139/8/61 135/7/61
f 129/7/62 124/8/55 123/7/55
f 124/8/55 129/7/62 140/8/62
f 126/8/56 130/7/60 125/7/56
f 130/7/60 126/8/56 138/8/60
f 132/7/62 141/8/62 131/7/62
f 141/8/62 132/7/62 142/8/62
f 141/8/63 128/7/63 131/7/63
f 128/7/63 141/8/63 143/8/63
f 144/8/61 128/7/61 143/8/61
f 128/7/61 144/8/61 127/7/61
f 140/8/64 122/8/64 124/8/64
f 144/8/64 122/8/64 140/8/64
f 143/8/64 122/8/64 144/8/64
f 143/8/64 126/8/64 122/8/64
f 141/8/64 126/8/64 143/8/64
f 126/8/64 141/8/64 138/8/64
f 142/8/64 138/8/64 141/8/64
f 142/8/64 136/8/64 138/8/64
f 139/8/64 136/8/64 142/8/64
f 136/8/64 139/8/64 137/8/64

g track-striped-narrow-straight-hill-end




usemtl colormap

f 3/1/1 2/1/2 1/1/1
f 2/1/2 3/1/1 4/1/2
f 3/1/3 5/2/4 4/1/3
f 5/2/4 3/1/3 6/2/5
f 9/3/3 8/2/4 7/3/3
f 8/2/4 9/3/3 10/2/5
f 5/2/4 12/2/7 11/2/6
f 12/2/7 5/2/4 6/2/5
f 8/2/4 14/2/7 13/2/6
f 14/2/7 8/2/4 10/2/5
f 12/2/7 15/3/8 11/2/6
f 15/3/8 12/2/7 16/3/8
f 14/2/7 2/1/8 13/2/6
f 2/1/8 14/2/7 1/1/8
f 15/3/9 9/3/10 7/3/9
f 9/3/10 15/3/9 16/3/10
f 4/4/2 17/4/11 2/4/2
f 17/4/11 4/4/2 18/4/11
f 7/5/3 20/6/12 19/5/3
f 20/6/12 7/5/3 8/6/4
f 13/6/6 20/6/12 8/6/4
f 20/6/12 13/6/6 21/6/13
f 13/6/6 17/4/8 21/6/13
f 17/4/8 13/6/6 2/4/8
f 22/5/14 7/5/9 19/5/14
f 7/5/9 22/5/14 15/5/9
f 4/4/3 23/6/12 18/4/3
f 23/6/12 4/4/3 5/6/4
f 11/6/6 23/6/12 5/6/4
f 23/6/12 11/6/6 24/6/13
f 11/6/6 22/5/8 24/6/13
f 22/5/8 11/6/6 15/5/8
f 27/1/15 26/1/16 25/1/15
f 26/1/16 27/1/15 28/1/16
f 27/1/3 29/2/17 28/1/3
f 29/2/17 27/1/3 30/2/18
f 33/3/3 32/2/17 31/3/3
f 32/2/17 33/3/3 34/2/18
f 29/2/17 36/2/20 35/2/19
f 36/2/20 29/2/17 30/2/18
f 32/2/17 38/2/20 37/2/19
f 38/2/20 32/2/17 34/2/18
f 36/2/20 39/3/8 35/2/19
f 39/3/8 36/2/20 40/3/8
f 38/2/20 26/1/8 37/2/19
f 26/1/8 38/2/20 25/1/8
f 39/3/21 33/3/22 31/3/21
f 33/3/22 39/3/21 40/3/22
f 28/4/16 1/4/1 26/4/16
f 1/4/1 28/4/16 3/4/1
f 31/5/3 10/6/5 9/5/3
f 10/6/5 31/5/3 32/6/17
f 37/6/19 10/6/5 32/6/17
f 10/6/5 37/6/19 14/6/7
f 37/6/19 1/4/8 14/6/7
f 1/4/8 37/6/19 26/4/8
f 16/5/10 31/5/21 9/5/10
f 31/5/21 16/5/10 39/5/21
f 28/4/3 6/6/5 3/4/3
f 6/6/5 28/4/3 29/6/17
f 35/6/19 6/6/5 29/6/17
f 6/6/5 35/6/19 12/6/7
f 35/6/19 16/5/8 12/6/7
f 16/5/8 35/6/19 39/5/8
f 43/1/23 42/1/24 41/1/23
f 42/1/24 43/1/23 44/1/24
f 43/1/3 45/2/25 44/1/3
f 45/2/25 43/1/3 46/2/26
f 49/3/3 48/2/25 47/3/3
f 48/2/25 49/3/3 50/2/26
f 45/2/25 52/2/28 51/2/27
f 52/2/28 45/2/25 46/2/26
f 48/2/25 54/2/28 53/2/27
f 54/2/28 48/2/25 50/2/26
f 52/2/28 55/3/8 51/2/27
f 55/3/8 52/2/28 56/3/8
f 54/2/28 42/1/8 53/2/27
f 42/1/8 54/2/28 41/1/8
f 55/3/29 49/3/30 47/3/29
f 49/3/30 55/3/29 56/3/30
f 44/4/24 25/4/15 42/4/24
f 25/4/15 44/4/24 27/4/15
f 47/5/3 34/6/18 33/5/3
f 34/6/18 47/5/3 48/6/25
f 53/6/27 34/6/18 48/6/25
f 34/6/18 53/6/27 38/6/20
f 53/6/27 25/4/8 38/6/20
f 25/4/8 53/6/27 42/4/8
f 40/5/22 47/5/29 33/5/22
f 47/5/29 40/5/22 55/5/29
f 44/4/3 30/6/18 27/4/3
f 30/6/18 44/4/3 45/6/25
f 51/6/27 30/6/18 45/6/25
f 30/6/18 51/6/27 36/6/20
f 51/6/27 40/5/8 36/6/20
f 40/5/8 51/6/27 55/5/8
f 59/1/31 58/1/32 57/1/31
f 58/1/32 59/1/31 60/1/32
f 59/1/3 61/2/33 60/1/3
f 61/2/33 59/1/3 62/2/34
f 65/3/3 64/2/33 63/3/3
f 64/2/33 65/3/3 66/2/34
f 61/2/33 68/2/36 67/2/35
f 68/2/36 61/2/33 62/2/34
f 64/2/33 70/2/36 69/2/35
f 70/2/36 64/2/33 66/2/34
f 68/2/36 71/3/8 67/2/35
f 71/3/8 68/2/36 72/3/8
f 70/2/36 58/1/8 69/2/35
f 58/1/8 70/2/36 57/1/8
f 71/3/37 65/3/38 63/3/37
f 65/3/38 71/3/37 72/3/38
f 60/4/32 41/4/23 58/4/32
f 41/4/23 60/4/32 43/4/23
f 63/5/3 50/6/26 49/5/3
f 50/6/26 63/5/3 64/6/33
f 69/6/35 50/6/26 64/6/33
f 50/6/26 69/6/35 54/6/28
f 69/6/35 41/4/8 54/6/28
f 41/4/8 69/6/35 58/4/8
f 56/5/30 63/5/37 49/5/30
f 63/5/37 56/5/30 71/5/37
f 60/4/3 46/6/26 43/4/3
f 46/6/26 60/4/3 61/6/33
f 67/6/35 46/6/26 61/6/33
f 46/6/26 67/6/35 52/6/28
f 67/6/35 56/5/8 52/6/28
f 56/5/8 67/6/35 71/5/8
f 74/1/39 73/1/39 73/1/39
f 73/1/39 74/1/39 74/1/39
f 74/1/3 75/2/40 74/1/3
f 75/2/40 74/1/3 75/2/40
f 76/3/3 77/2/40 76/3/3
f 77/2/40 76/3/3 77/2/40
f 75/2/40 78/2/41 78/2/41
f 78/2/41 75/2/40 75/2/40
f 77/2/40 79/2/41 79/2/41
f 79/2/41 77/2/40 77/2/40
f 78/2/41 80/3/8 78/2/41
f 80/3/8 78/2/41 80/3/8
f 79/2/41 73/1/8 79/2/41
f 73/1/8 79/2/41 73/1/8
f 80/3/42 76/3/42 76/3/42
f 76/3/42 80/3/42 80/3/42
f 74/4/39 57/4/31 73/4/39
f 57/4/31 74/4/39 59/4/31
f 76/5/3 66/6/34 65/5/3
f 66/6/34 76/5/3 77/6/40
f 79/6/41 66/6/34 77/6/40
f 66/6/34 79/6/41 70/6/36
f 79/6/41 57/4/8 70/6/36
f 57/4/8 79/6/41 73/4/8
f 72/5/38 76/5/42 65/5/38
f 76/5/42 72/5/38 80/5/42
f 74/4/3 62/6/34 59/4/3
f 62/6/34 74/4/3 75/6/40
f 78/6/41 62/6/34 75/6/40
f 62/6/34 78/6/41 68/6/36
f 78/6/41 72/5/8 68/6/36
f 72/5/8 78/6/41 80/5/8
f 83/5/43 82/6/43 81/6/43
f 83/5/43 84/4/43 82/6/43
f 84/4/43 83/5/43 85/4/43
f 86/5/43 85/4/43 83/5/43
f 85/4/43 86/5/43 87/6/43
f 87/6/43 86/5/43 88/6/43
f 91/7/45 90/8/44 89/7/44
f 90/8/44 91/7/45 92/8/45
f 90/8/44 93/7/46 89/7/44
f 93/7/46 90/8/44 94/8/46
f 97/7/47 96/7/47 95/7/47
f 96/7/47 97/7/47 93/7/47
f 93/7/47 97/7/47 89/7/47
f 89/7/47 97/7/47 91/7/47
f 98/7/47 96/7/47 93/7/47
f 98/7/47 99/7/47 96/7/47
f 98/7/47 100/7/47 99/7/47
f 101/7/47 100/7/47 98/7/47
f 102/7/47 100/7/47 101/7/47
f 100/7/47 102/7/47 103/7/47
f 105/8/49 101/7/48 104/8/48
f 101/7/48 105/8/49 102/7/49
f 106/8/50 101/7/48 98/7/50
f 101/7/48 106/8/50 104/8/48
f 107/8/8 102/7/49 105/8/49
f 102/7/49 107/8/8 103/7/8
f 97/7/3 92/8/45 91/7/45
f 92/8/45 97/7/3 108/8/3
f 94/8/46 98/7/50 93/7/46
f 98/7/50 94/8/46 106/8/50
f 100/7/3 109/8/3 99/7/3
f 109/8/3 100/7/3 110/8/3
f 109/8/51 96/7/51 99/7/51
f 96/7/51 109/8/51 111/8/51
f 112/8/8 96/7/8 111/8/8
f 96/7/8 112/8/8 95/7/8
f 108/8/52 90/8/52 92/8/52
f 112/8/52 90/8/52 108/8/52
f 111/8/52 90/8/52 112/8/52
f 111/8/52 94/8/52 90/8/52
f 109/8/52 94/8/52 111/8/52
f 94/8/52 109/8/52 106/8/52
f 110/8/52 106/8/52 109/8/52
f 110/8/52 104/8/52 106/8/52
f 107/8/52 104/8/52 110/8/52
f 104/8/52 107/8/52 105/8/52
f 115/3/53 114/2/53 113/2/53
f 115/3/53 116/1/53 114/2/53
f 116/1/53 115/3/53 117/1/53
f 118/3/53 117/1/53 115/3/53
f 117/1/53 118/3/53 119/2/53
f 119/2/53 118/3/53 120/2/53
f 123/7/55 122/8/54 121/7/54
f 122/8/54 123/7/55 124/8/55
f 122/8/54 125/7/56 121/7/54
f 125/7/56 122/8/54 126/8/56
f 129/7/57 128/7/57 127/7/57
f 128/7/57 129/7/57 125/7/57
f 125/7/57 129/7/57 121/7/57
f 121/7/57 129/7/57 123/7/57
f 130/7/57 128/7/57 125/7/57
f 130/7/57 131/7/57 128/7/57
f 130/7/57 132/7/57 131/7/57
f 133/7/57 132/7/57 130/7/57
f 134/7/57 132/7/57 133/7/57
f 132/7/57 134/7/57 135/7/57
f 137/8/59 133/7/58 136/8/58
f 133/7/58 137/8/59 134/7/59
f 138/8/60 133/7/58 130/7/60
f 133/7/58 138/8/60 136/8/58
f 139/8/61 134/7/59 137/8/59
f 134/7/59 139/8/61 135/7/61
f 129/7/62 124/8/55 123/7/55
f 124/8/55 129/7/62 140/8/62
f 126/8/56 130/7/60 125/7/56
f 130/7/60 126/8/56 138/8/60
f 132/7/62 141/8/62 131/7/62
f 141/8/62 132/7/62 142/8/62
f 141/8/63 128/7/63 131/7/63
f 128/7/63 141/8/63 143/8/63
f 144/8/61 128/7/61 143/8/61
f 128/7/61 144/8/61 127/7/61
f 140/8/64 122/8/64 124/8/64
f 144/8/64 122/8/64 140/8/64
f 143/8/64 122/8/64 144/8/64
f 143/8/64 126/8/64 122/8/64
f 141/8/64 126/8/64 143/8/64
f 126/8/64 141/8/64 138/8/64
f 142/8/64 138/8/64 141/8/64
f 142/8/64 136/8/64 138/8/64
f 139/8/64 136/8/64 142/8/64
f 136/8/64 139/8/64 137/8/64

