# Created by Kenney (www.kenney.nl)

mtllib track-wide-straight-hill-end.mtl

g track-wide-straight-hill-end

v -1 2.861023E-06 2.861023E-06 1 1 1
v -1 0.2862386 0.4071398 1 1 1
v 1 2.861023E-06 2.861023E-06 1 1 1
v 1 0.2862386 0.4071398 1 1 1
v -1 0.4855481 0.8656373 1 1 1
v 1 0.4855481 0.8656373 1 1 1
v -1 0.2121357 -0.2121282 1 1 1
v -1 0.5515022 0.267014 1 1 1
v -1 0.7675424 0.7632694 1 1 1
v 1 0.2121357 -0.2121282 1 1 1
v 1 0.5515022 0.267014 1 1 1
v 1 0.7675424 0.7632694 1 1 1
v 0.8999996 0.07071376 -0.07070732 1 1 1
v 0.8999996 0.3746598 0.3604312 1 1 1
v -0.8999996 0.07071376 -0.07070732 1 1 1
v -0.8999996 0.3746598 0.3604312 1 1 1
v 0.8999996 0.5795462 0.8315148 1 1 1
v -0.8999996 0.5795462 0.8315148 1 1 1
v -0.8999996 0.2121357 -0.2121282 1 1 1
v -0.8999996 0.5515022 0.267014 1 1 1
v -0.8999996 0.7675424 0.7632694 1 1 1
v 0.8999996 0.2121357 -0.2121282 1 1 1
v 0.8999996 0.5515022 0.267014 1 1 1
v 0.8999996 0.7675424 0.7632694 1 1 1
v -1 0.6354088 1.342743 1 1 1
v 1 0.6354088 1.342743 1 1 1
v -1 0.752373 1.828857 1 1 1
v 1 0.752373 1.828857 1 1 1
v -1 0.9248405 1.263818 1 1 1
v -1 1.045857 1.766671 1 1 1
v 1 0.9248405 1.263818 1 1 1
v 1 1.045857 1.766671 1 1 1
v 0.8999996 0.7318859 1.316435 1 1 1
v -0.8999996 0.7318859 1.316435 1 1 1
v 0.8999996 0.8502009 1.808128 1 1 1
v -0.8999996 0.8502009 1.808128 1 1 1
v -0.8999996 0.9248405 1.263818 1 1 1
v -0.8999996 1.045857 1.766671 1 1 1
v 0.8999996 0.9248405 1.263818 1 1 1
v 0.8999996 1.045857 1.766671 1 1 1
v -1 0.8445864 2.320355 1 1 1
v 1 0.8445864 2.320355 1 1 1
v -1 0.9160074 2.815408 1 1 1
v 1 0.9160074 2.815408 1 1 1
v -1 1.140586 2.271527 1 1 1
v -1 1.213722 2.778453 1 1 1
v 1 1.140586 2.271527 1 1 1
v 1 1.213722 2.778453 1 1 1
v 0.8999996 0.9432529 2.304079 1 1 1
v -0.8999996 0.9432529 2.304079 1 1 1
v 0.8999996 1.015246 2.80309 1 1 1
v -0.8999996 1.015246 2.80309 1 1 1
v -0.8999996 1.140586 2.271527 1 1 1
v -0.8999996 1.213722 2.778453 1 1 1
v 0.8999996 1.140586 2.271527 1 1 1
v 0.8999996 1.213722 2.778453 1 1 1
v -1 0.9677281 3.313097 1 1 1
v 1 0.9677281 3.313097 1 1 1
v -1 0.9969859 3.812372 1 1 1
v 1 0.9969859 3.812372 1 1 1
v -1 1.266698 3.288258 1 1 1
v -1 1.296848 3.803284 1 1 1
v 1 1.266698 3.288258 1 1 1
v 1 1.296848 3.803284 1 1 1
v 0.8999996 1.067385 3.304817 1 1 1
v -0.8999996 1.067385 3.304817 1 1 1
v 0.8999996 1.09694 3.809343 1 1 1
v -0.8999996 1.09694 3.809343 1 1 1
v -0.8999996 1.266698 3.288258 1 1 1
v -0.8999996 1.296848 3.803284 1 1 1
v 0.8999996 1.266698 3.288258 1 1 1
v 0.8999996 1.296848 3.803284 1 1 1
v -1 1 3.999996 1 1 1
v 1 1 3.999996 1 1 1
v -1 1.3 3.999996 1 1 1
v 1 1.3 3.999996 1 1 1
v 0.8999996 1.1 3.999996 1 1 1
v -0.8999996 1.1 3.999996 1 1 1
v -0.8999996 1.3 3.999996 1 1 1
v 0.8999996 1.3 3.999996 1 1 1
v -0.9 0.212132 -0.2121321 1 1 1
v -1 0.212132 -0.2121321 1 1 1
v -0.9 0.07071066 -0.07071068 1 1 1
v -1 0 0 1 1 1
v 1 0 0 1 1 1
v 0.9 0.07071066 -0.07071068 1 1 1
v 1 0.212132 -0.2121321 1 1 1
v 0.9 0.212132 -0.2121321 1 1 1
v -0.1207107 -0.1207107 -0.1207107 1 1 1
v -0.1207107 -0.0853554 -0.156066 1 1 1
v -0.15 -0.07071066 -0.07071067 1 1 1
v -0.15 -0.03535533 -0.106066 1 1 1
v -0.05 -0.1414213 -0.1414213 1 1 1
v -0.05 -0.106066 -0.1767767 1 1 1
v -0.05 0 5.104684E-16 1 1 1
v -0.05 -0.07071066 -0.07071067 1 1 1
v -0.15 0 7.657026E-16 1 1 1
v 0.05 -0.1414213 -0.1414213 1 1 1
v 0.05 -0.07071066 -0.07071067 1 1 1
v 0.05 0 2.552342E-16 1 1 1
v 0.1207107 -0.1207107 -0.1207107 1 1 1
v 0.15 -0.07071066 -0.07071067 1 1 1
v 0.15 0 -1.133468E-31 1 1 1
v 0.1207107 -0.0853554 -0.156066 1 1 1
v 0.15 -0.03535533 -0.106066 1 1 1
v 0.05 -0.106066 -0.1767767 1 1 1
v 0.15 0.03535533 -0.03535534 1 1 1
v -0.15 0.03535533 -0.03535534 1 1 1
v 0.05 -0.03535533 -0.106066 1 1 1
v 0.05 0.03535533 -0.03535534 1 1 1
v -0.05 -0.03535533 -0.106066 1 1 1
v -0.05 0.03535533 -0.03535534 1 1 1
v 0.9 1.3 4 1 1 1
v 1 1.3 4 1 1 1
v 0.9 1.1 4 1 1 1
v 1 1 4 1 1 1
v -1 1 4 1 1 1
v -0.9 1.1 4 1 1 1
v -1 1.3 4 1 1 1
v -0.9 1.3 4 1 1 1
v 0.1207107 1 4.170711 1 1 1
v 0.1207107 1.05 4.170711 1 1 1
v 0.15 1 4.1 1 1 1
v 0.15 1.05 4.1 1 1 1
v 0.05 1 4.2 1 1 1
v 0.05 1.05 4.2 1 1 1
v 0.05 1 4 1 1 1
v 0.05 1 4.1 1 1 1
v 0.15 1 4 1 1 1
v -0.05 1 4.2 1 1 1
v -0.05 1 4.1 1 1 1
v -0.05 1 4 1 1 1
v -0.1207107 1 4.170711 1 1 1
v -0.15 1 4.1 1 1 1
v -0.15 1 4 1 1 1
v -0.1207107 1.05 4.170711 1 1 1
v -0.15 1.05 4.1 1 1 1
v -0.05 1.05 4.2 1 1 1
v -0.15 1.05 4 1 1 1
v 0.15 1.05 4 1 1 1
v -0.05 1.05 4.1 1 1 1
v -0.05 1.05 4 1 1 1
v 0.05 1.05 4.1 1 1 1
v 0.05 1.05 4 1 1 1

vn 0 -0.7071094 0.7071041
vn 0 -0.8842121 0.4670857
vn 0 -0.9399807 0.3412275
vn -1 0 0
vn -0.7071068 0.5000018 -0.4999981
vn -0.7071068 0.6252323 -0.3302794
vn -0.7071068 0.6646668 -0.2412843
vn 0.7071068 0.5000018 -0.4999981
vn 1 0 0
vn 0.7071068 0.6252323 -0.3302794
vn 0.7071068 0.6646668 -0.2412843
vn 0 0.7071094 -0.7071041
vn 0 0.8842121 -0.4670857
vn 0 0.9399807 -0.3412275
vn 0 -0.9647723 0.2630862
vn 0 -0.9782799 0.2072885
vn -0.7071068 0.682197 -0.18603
vn -0.7071068 0.6917483 -0.1465751
vn 0.7071068 0.682197 -0.18603
vn 0.7071068 0.6917483 -0.1465751
vn 0 0.9647723 -0.2630862
vn 0 0.9782799 -0.2072885
vn 0 -0.9866653 0.1627623
vn 0 -0.9923837 0.1231851
vn -0.7071068 0.6976777 -0.1150903
vn -0.7071068 0.7017213 -0.08710499
vn 0.7071068 0.6976777 -0.1150903
vn 0.7071068 0.7017213 -0.08710499
vn 0 0.9866653 -0.1627623
vn 0 0.9923837 -0.1231851
vn 0 -0.9965664 0.08279768
vn 0 -0.999541 0.03029505
vn -0.7071068 0.7046788 -0.0585468
vn -0.7071068 0.7067822 -0.02142183
vn 0.7071068 0.7046788 -0.0585468
vn 0.7071068 0.7067822 -0.02142183
vn 0 0.9965664 -0.08279768
vn 0 0.999541 -0.03029505
vn 0 -1 8.741981E-07
vn -0.7071068 0.7071068 -6.181514E-07
vn 0.7071068 0.7071068 -6.181514E-07
vn 0 1 -8.741981E-07
vn 0 -0.7071068 -0.7071067
vn -0.7071068 -0.5 -0.4999999
vn -0.9807853 -0.1379497 -0.1379497
vn -0.1950903 -0.6935199 -0.6935198
vn 0 -0.7071067 0.7071068
vn 0.7071068 -0.5 -0.4999999
vn 0.9807853 -0.1379497 -0.1379497
vn 0.1950903 -0.6935199 -0.6935198
vn 0 0.7071068 0.7071067
vn 0 0.7071067 -0.7071068
vn 0 0 1
vn 0.7071068 0 0.7071068
vn 0.9807853 0 0.1950903
vn 0.1950903 0 0.9807853
vn 0 -1 0
vn -0.7071068 0 0.7071068
vn -0.9807853 0 0.1950903
vn -0.1950903 0 0.9807853
vn -1 0 7.21645E-16
vn 1 0 -7.21645E-16
vn -7.21645E-16 0 -1
vn 0 1 0

vt 0.46875 0.275
vt 0.46875 0.475
vt 0.46875 0.3416667
vt 0.71875 0.275
vt 0.71875 0.475

usemtl colormap

f 3/1/1 2/1/2 1/1/1
f 2/1/2 3/1/1 4/1/2
f 4/1/2 5/1/3 2/1/2
f 5/1/3 4/1/2 6/1/3
f 2/1/4 7/2/5 1/1/4
f 7/2/5 2/1/4 8/2/6
f 5/1/4 8/2/6 2/1/4
f 8/2/6 5/1/4 9/2/7
f 11/2/10 3/1/9 10/2/8
f 3/1/9 11/2/10 4/1/9
f 12/2/11 4/1/9 11/2/10
f 4/1/9 12/2/11 6/1/9
f 15/3/12 14/3/13 13/3/12
f 14/3/13 15/3/12 16/3/13
f 16/3/13 17/3/14 14/3/13
f 17/3/14 16/3/13 18/3/14
f 7/2/5 20/2/10 19/2/8
f 20/2/10 7/2/5 8/2/6
f 8/2/6 21/2/11 20/2/10
f 21/2/11 8/2/6 9/2/7
f 20/2/10 15/3/9 19/2/8
f 15/3/9 20/2/10 16/3/9
f 21/2/11 16/3/9 20/2/10
f 16/3/9 21/2/11 18/3/9
f 22/2/5 11/2/10 10/2/8
f 11/2/10 22/2/5 23/2/6
f 23/2/6 12/2/11 11/2/10
f 12/2/11 23/2/6 24/2/7
f 14/3/4 22/2/5 13/3/4
f 22/2/5 14/3/4 23/2/6
f 17/3/4 23/2/6 14/3/4
f 23/2/6 17/3/4 24/2/7
f 6/1/3 25/1/15 5/1/3
f 25/1/15 6/1/3 26/1/15
f 26/1/15 27/1/16 25/1/15
f 27/1/16 26/1/15 28/1/16
f 25/1/4 9/2/7 5/1/4
f 9/2/7 25/1/4 29/2/17
f 27/1/4 29/2/17 25/1/4
f 29/2/17 27/1/4 30/2/18
f 31/2/19 6/1/9 12/2/11
f 6/1/9 31/2/19 26/1/9
f 32/2/20 26/1/9 31/2/19
f 26/1/9 32/2/20 28/1/9
f 18/3/14 33/3/21 17/3/14
f 33/3/21 18/3/14 34/3/21
f 34/3/21 35/3/22 33/3/21
f 35/3/22 34/3/21 36/3/22
f 9/2/7 37/2/19 21/2/11
f 37/2/19 9/2/7 29/2/17
f 29/2/17 38/2/20 37/2/19
f 38/2/20 29/2/17 30/2/18
f 37/2/19 18/3/9 21/2/11
f 18/3/9 37/2/19 34/3/9
f 38/2/20 34/3/9 37/2/19
f 34/3/9 38/2/20 36/3/9
f 24/2/7 31/2/19 12/2/11
f 31/2/19 24/2/7 39/2/17
f 39/2/17 32/2/20 31/2/19
f 32/2/20 39/2/17 40/2/18
f 33/3/4 24/2/7 17/3/4
f 24/2/7 33/3/4 39/2/17
f 35/3/4 39/2/17 33/3/4
f 39/2/17 35/3/4 40/2/18
f 28/1/16 41/1/23 27/1/16
f 41/1/23 28/1/16 42/1/23
f 42/1/23 43/1/24 41/1/23
f 43/1/24 42/1/23 44/1/24
f 41/1/4 30/2/18 27/1/4
f 30/2/18 41/1/4 45/2/25
f 43/1/4 45/2/25 41/1/4
f 45/2/25 43/1/4 46/2/26
f 47/2/27 28/1/9 32/2/20
f 28/1/9 47/2/27 42/1/9
f 48/2/28 42/1/9 47/2/27
f 42/1/9 48/2/28 44/1/9
f 36/3/22 49/3/29 35/3/22
f 49/3/29 36/3/22 50/3/29
f 50/3/29 51/3/30 49/3/29
f 51/3/30 50/3/29 52/3/30
f 30/2/18 53/2/27 38/2/20
f 53/2/27 30/2/18 45/2/25
f 45/2/25 54/2/28 53/2/27
f 54/2/28 45/2/25 46/2/26
f 53/2/27 36/3/9 38/2/20
f 36/3/9 53/2/27 50/3/9
f 54/2/28 50/3/9 53/2/27
f 50/3/9 54/2/28 52/3/9
f 40/2/18 47/2/27 32/2/20
f 47/2/27 40/2/18 55/2/25
f 55/2/25 48/2/28 47/2/27
f 48/2/28 55/2/25 56/2/26
f 49/3/4 40/2/18 35/3/4
f 40/2/18 49/3/4 55/2/25
f 51/3/4 55/2/25 49/3/4
f 55/2/25 51/3/4 56/2/26
f 44/1/24 57/1/31 43/1/24
f 57/1/31 44/1/24 58/1/31
f 58/1/31 59/1/32 57/1/31
f 59/1/32 58/1/31 60/1/32
f 57/1/4 46/2/26 43/1/4
f 46/2/26 57/1/4 61/2/33
f 59/1/4 61/2/33 57/1/4
f 61/2/33 59/1/4 62/2/34
f 63/2/35 44/1/9 48/2/28
f 44/1/9 63/2/35 58/1/9
f 64/2/36 58/1/9 63/2/35
f 58/1/9 64/2/36 60/1/9
f 52/3/30 65/3/37 51/3/30
f 65/3/37 52/3/30 66/3/37
f 66/3/37 67/3/38 65/3/37
f 67/3/38 66/3/37 68/3/38
f 46/2/26 69/2/35 54/2/28
f 69/2/35 46/2/26 61/2/33
f 61/2/33 70/2/36 69/2/35
f 70/2/36 61/2/33 62/2/34
f 69/2/35 52/3/9 54/2/28
f 52/3/9 69/2/35 66/3/9
f 70/2/36 66/3/9 69/2/35
f 66/3/9 70/2/36 68/3/9
f 56/2/26 63/2/35 48/2/28
f 63/2/35 56/2/26 71/2/33
f 71/2/33 64/2/36 63/2/35
f 64/2/36 71/2/33 72/2/34
f 65/3/4 56/2/26 51/3/4
f 56/2/26 65/3/4 71/2/33
f 67/3/4 71/2/33 65/3/4
f 71/2/33 67/3/4 72/2/34
f 60/1/32 73/1/39 59/1/32
f 73/1/39 60/1/32 74/1/39
f 74/1/39 73/1/39 73/1/39
f 73/1/39 74/1/39 74/1/39
f 73/1/4 62/2/34 59/1/4
f 62/2/34 73/1/4 75/2/40
f 73/1/4 75/2/40 73/1/4
f 75/2/40 73/1/4 75/2/40
f 76/2/41 60/1/9 64/2/36
f 60/1/9 76/2/41 74/1/9
f 76/2/41 74/1/9 76/2/41
f 74/1/9 76/2/41 74/1/9
f 68/3/38 77/3/42 67/3/38
f 77/3/42 68/3/38 78/3/42
f 78/3/42 77/3/42 77/3/42
f 77/3/42 78/3/42 78/3/42
f 62/2/34 79/2/41 70/2/36
f 79/2/41 62/2/34 75/2/40
f 75/2/40 79/2/41 79/2/41
f 79/2/41 75/2/40 75/2/40
f 79/2/41 68/3/9 70/2/36
f 68/3/9 79/2/41 78/3/9
f 79/2/41 78/3/9 79/2/41
f 78/3/9 79/2/41 78/3/9
f 72/2/34 76/2/41 64/2/36
f 76/2/41 72/2/34 80/2/40
f 80/2/40 76/2/41 76/2/41
f 76/2/41 80/2/40 80/2/40
f 77/3/4 72/2/34 67/3/4
f 72/2/34 77/3/4 80/2/40
f 77/3/4 80/2/40 77/3/4
f 80/2/40 77/3/4 80/2/40
f 83/3/43 82/2/43 81/2/43
f 83/3/43 84/1/43 82/2/43
f 84/1/43 83/3/43 85/1/43
f 86/3/43 85/1/43 83/3/43
f 85/1/43 86/3/43 87/2/43
f 87/2/43 86/3/43 88/2/43
f 91/4/45 90/5/44 89/4/44
f 90/5/44 91/4/45 92/5/45
f 90/5/44 93/4/46 89/4/44
f 93/4/46 90/5/44 94/5/46
f 97/4/47 96/4/47 95/4/47
f 96/4/47 97/4/47 93/4/47
f 93/4/47 97/4/47 89/4/47
f 89/4/47 97/4/47 91/4/47
f 98/4/47 96/4/47 93/4/47
f 98/4/47 99/4/47 96/4/47
f 98/4/47 100/4/47 99/4/47
f 101/4/47 100/4/47 98/4/47
f 102/4/47 100/4/47 101/4/47
f 100/4/47 102/4/47 103/4/47
f 105/5/49 101/4/48 104/5/48
f 101/4/48 105/5/49 102/4/49
f 106/5/50 101/4/48 98/4/50
f 101/4/48 106/5/50 104/5/48
f 107/5/9 102/4/49 105/5/49
f 102/4/49 107/5/9 103/4/9
f 97/4/4 92/5/45 91/4/45
f 92/5/45 97/4/4 108/5/4
f 94/5/46 98/4/50 93/4/46
f 98/4/50 94/5/46 106/5/50
f 100/4/4 109/5/4 99/4/4
f 109/5/4 100/4/4 110/5/4
f 109/5/51 96/4/51 99/4/51
f 96/4/51 109/5/51 111/5/51
f 112/5/9 96/4/9 111/5/9
f 96/4/9 112/5/9 95/4/9
f 108/5/52 90/5/52 92/5/52
f 112/5/52 90/5/52 108/5/52
f 111/5/52 90/5/52 112/5/52
f 111/5/52 94/5/52 90/5/52
f 109/5/52 94/5/52 111/5/52
f 94/5/52 109/5/52 106/5/52
f 110/5/52 106/5/52 109/5/52
f 110/5/52 104/5/52 106/5/52
f 107/5/52 104/5/52 110/5/52
f 104/5/52 107/5/52 105/5/52
f 115/3/53 114/2/53 113/2/53
f 115/3/53 116/1/53 114/2/53
f 116/1/53 115/3/53 117/1/53
f 118/3/53 117/1/53 115/3/53
f 117/1/53 118/3/53 119/2/53
f 119/2/53 118/3/53 120/2/53
f 123/4/55 122/5/54 121/4/54
f 122/5/54 123/4/55 124/5/55
f 122/5/54 125/4/56 121/4/54
f 125/4/56 122/5/54 126/5/56
f 129/4/57 128/4/57 127/4/57
f 128/4/57 129/4/57 125/4/57
f 125/4/57 129/4/57 121/4/57
f 121/4/57 129/4/57 123/4/57
f 130/4/57 128/4/57 125/4/57
f 130/4/57 131/4/57 128/4/57
f 130/4/57 132/4/57 131/4/57
f 133/4/57 132/4/57 130/4/57
f 134/4/57 132/4/57 133/4/57
f 132/4/57 134/4/57 135/4/57
f 137/5/59 133/4/58 136/5/58
f 133/4/58 137/5/59 134/4/59
f 138/5/60 133/4/58 130/4/60
f 133/4/58 138/5/60 136/5/58
f 139/5/61 134/4/59 137/5/59
f 134/4/59 139/5/61 135/4/61
f 129/4/62 124/5/55 123/4/55
f 124/5/55 129/4/62 140/5/62
f 126/5/56 130/4/60 125/4/56
f 130/4/60 126/5/56 138/5/60
f 132/4/62 141/5/62 131/4/62
f 141/5/62 132/4/62 142/5/62
f 141/5/63 128/4/63 131/4/63
f 128/4/63 141/5/63 143/5/63
f 144/5/61 128/4/61 143/5/61
f 128/4/61 144/5/61 127/4/61
f 140/5/64 122/5/64 124/5/64
f 144/5/64 122/5/64 140/5/64
f 143/5/64 122/5/64 144/5/64
f 143/5/64 126/5/64 122/5/64
f 141/5/64 126/5/64 143/5/64
f 126/5/64 141/5/64 138/5/64
f 142/5/64 138/5/64 141/5/64
f 142/5/64 136/5/64 138/5/64
f 139/5/64 136/5/64 142/5/64
f 136/5/64 139/5/64 137/5/64

g track-wide-straight-hill-end




usemtl colormap

f 3/1/1 2/1/2 1/1/1
f 2/1/2 3/1/1 4/1/2
f 4/1/2 5/1/3 2/1/2
f 5/1/3 4/1/2 6/1/3
f 2/1/4 7/2/5 1/1/4
f 7/2/5 2/1/4 8/2/6
f 5/1/4 8/2/6 2/1/4
f 8/2/6 5/1/4 9/2/7
f 11/2/10 3/1/9 10/2/8
f 3/1/9 11/2/10 4/1/9
f 12/2/11 4/1/9 11/2/10
f 4/1/9 12/2/11 6/1/9
f 15/3/12 14/3/13 13/3/12
f 14/3/13 15/3/12 16/3/13
f 16/3/13 17/3/14 14/3/13
f 17/3/14 16/3/13 18/3/14
f 7/2/5 20/2/10 19/2/8
f 20/2/10 7/2/5 8/2/6
f 8/2/6 21/2/11 20/2/10
f 21/2/11 8/2/6 9/2/7
f 20/2/10 15/3/9 19/2/8
f 15/3/9 20/2/10 16/3/9
f 21/2/11 16/3/9 20/2/10
f 16/3/9 21/2/11 18/3/9
f 22/2/5 11/2/10 10/2/8
f 11/2/10 22/2/5 23/2/6
f 23/2/6 12/2/11 11/2/10
f 12/2/11 23/2/6 24/2/7
f 14/3/4 22/2/5 13/3/4
f 22/2/5 14/3/4 23/2/6
f 17/3/4 23/2/6 14/3/4
f 23/2/6 17/3/4 24/2/7
f 6/1/3 25/1/15 5/1/3
f 25/1/15 6/1/3 26/1/15
f 26/1/15 27/1/16 25/1/15
f 27/1/16 26/1/15 28/1/16
f 25/1/4 9/2/7 5/1/4
f 9/2/7 25/1/4 29/2/17
f 27/1/4 29/2/17 25/1/4
f 29/2/17 27/1/4 30/2/18
f 31/2/19 6/1/9 12/2/11
f 6/1/9 31/2/19 26/1/9
f 32/2/20 26/1/9 31/2/19
f 26/1/9 32/2/20 28/1/9
f 18/3/14 33/3/21 17/3/14
f 33/3/21 18/3/14 34/3/21
f 34/3/21 35/3/22 33/3/21
f 35/3/22 34/3/21 36/3/22
f 9/2/7 37/2/19 21/2/11
f 37/2/19 9/2/7 29/2/17
f 29/2/17 38/2/20 37/2/19
f 38/2/20 29/2/17 30/2/18
f 37/2/19 18/3/9 21/2/11
f 18/3/9 37/2/19 34/3/9
f 38/2/20 34/3/9 37/2/19
f 34/3/9 38/2/20 36/3/9
f 24/2/7 31/2/19 12/2/11
f 31/2/19 24/2/7 39/2/17
f 39/2/17 32/2/20 31/2/19
f 32/2/20 39/2/17 40/2/18
f 33/3/4 24/2/7 17/3/4
f 24/2/7 33/3/4 39/2/17
f 35/3/4 39/2/17 33/3/4
f 39/2/17 35/3/4 40/2/18
f 28/1/16 41/1/23 27/1/16
f 41/1/23 28/1/16 42/1/23
f 42/1/23 43/1/24 41/1/23
f 43/1/24 42/1/23 44/1/24
f 41/1/4 30/2/18 27/1/4
f 30/2/18 41/1/4 45/2/25
f 43/1/4 45/2/25 41/1/4
f 45/2/25 43/1/4 46/2/26
f 47/2/27 28/1/9 32/2/20
f 28/1/9 47/2/27 42/1/9
f 48/2/28 42/1/9 47/2/27
f 42/1/9 48/2/28 44/1/9
f 36/3/22 49/3/29 35/3/22
f 49/3/29 36/3/22 50/3/29
f 50/3/29 51/3/30 49/3/29
f 51/3/30 50/3/29 52/3/30
f 30/2/18 53/2/27 38/2/20
f 53/2/27 30/2/18 45/2/25
f 45/2/25 54/2/28 53/2/27
f 54/2/28 45/2/25 46/2/26
f 53/2/27 36/3/9 38/2/20
f 36/3/9 53/2/27 50/3/9
f 54/2/28 50/3/9 53/2/27
f 50/3/9 54/2/28 52/3/9
f 40/2/18 47/2/27 32/2/20
f 47/2/27 40/2/18 55/2/25
f 55/2/25 48/2/28 47/2/27
f 48/2/28 55/2/25 56/2/26
f 49/3/4 40/2/18 35/3/4
f 40/2/18 49/3/4 55/2/25
f 51/3/4 55/2/25 49/3/4
f 55/2/25 51/3/4 56/2/26
f 44/1/24 57/1/31 43/1/24
f 57/1/31 44/1/24 58/1/31
f 58/1/31 59/1/32 57/1/31
f 59/1/32 58/1/31 60/1/32
f 57/1/4 46/2/26 43/1/4
f 46/2/26 57/1/4 61/2/33
f 59/1/4 61/2/33 57/1/4
f 61/2/33 59/1/4 62/2/34
f 63/2/35 44/1/9 48/2/28
f 44/1/9 63/2/35 58/1/9
f 64/2/36 58/1/9 63/2/35
f 58/1/9 64/2/36 60/1/9
f 52/3/30 65/3/37 51/3/30
f 65/3/37 52/3/30 66/3/37
f 66/3/37 67/3/38 65/3/37
f 67/3/38 66/3/37 68/3/38
f 46/2/26 69/2/35 54/2/28
f 69/2/35 46/2/26 61/2/33
f 61/2/33 70/2/36 69/2/35
f 70/2/36 61/2/33 62/2/34
f 69/2/35 52/3/9 54/2/28
f 52/3/9 69/2/35 66/3/9
f 70/2/36 66/3/9 69/2/35
f 66/3/9 70/2/36 68/3/9
f 56/2/26 63/2/35 48/2/28
f 63/2/35 56/2/26 71/2/33
f 71/2/33 64/2/36 63/2/35
f 64/2/36 71/2/33 72/2/34
f 65/3/4 56/2/26 51/3/4
f 56/2/26 65/3/4 71/2/33
f 67/3/4 71/2/33 65/3/4
f 71/2/33 67/3/4 72/2/34
f 60/1/32 73/1/39 59/1/32
f 73/1/39 60/1/32 74/1/39
f 74/1/39 73/1/39 73/1/39
f 73/1/39 74/1/39 74/1/39
f 73/1/4 62/2/34 59/1/4
f 62/2/34 73/1/4 75/2/40
f 73/1/4 75/2/40 73/1/4
f 75/2/40 73/1/4 75/2/40
f 76/2/41 60/1/9 64/2/36
f 60/1/9 76/2/41 74/1/9
f 76/2/41 74/1/9 76/2/41
f 74/1/9 76/2/41 74/1/9
f 68/3/38 77/3/42 67/3/38
f 77/3/42 68/3/38 78/3/42
f 78/3/42 77/3/42 77/3/42
f 77/3/42 78/3/42 78/3/42
f 62/2/34 79/2/41 70/2/36
f 79/2/41 62/2/34 75/2/40
f 75/2/40 79/2/41 79/2/41
f 79/2/41 75/2/40 75/2/40
f 79/2/41 68/3/9 70/2/36
f 68/3/9 79/2/41 78/3/9
f 79/2/41 78/3/9 79/2/41
f 78/3/9 79/2/41 78/3/9
f 72/2/34 76/2/41 64/2/36
f 76/2/41 72/2/34 80/2/40
f 80/2/40 76/2/41 76/2/41
f 76/2/41 80/2/40 80/2/40
f 77/3/4 72/2/34 67/3/4
f 72/2/34 77/3/4 80/2/40
f 77/3/4 80/2/40 77/3/4
f 80/2/40 77/3/4 80/2/40
f 83/3/43 82/2/43 81/2/43
f 83/3/43 84/1/43 82/2/43
f 84/1/43 83/3/43 85/1/43
f 86/3/43 85/1/43 83/3/43
f 85/1/43 86/3/43 87/2/43
f 87/2/43 86/3/43 88/2/43
f 91/4/45 90/5/44 89/4/44
f 90/5/44 91/4/45 92/5/45
f 90/5/44 93/4/46 89/4/44
f 93/4/46 90/5/44 94/5/46
f 97/4/47 96/4/47 95/4/47
f 96/4/47 97/4/47 93/4/47
f 93/4/47 97/4/47 89/4/47
f 89/4/47 97/4/47 91/4/47
f 98/4/47 96/4/47 93/4/47
f 98/4/47 99/4/47 96/4/47
f 98/4/47 100/4/47 99/4/47
f 101/4/47 100/4/47 98/4/47
f 102/4/47 100/4/47 101/4/47
f 100/4/47 102/4/47 103/4/47
f 105/5/49 101/4/48 104/5/48
f 101/4/48 105/5/49 102/4/49
f 106/5/50 101/4/48 98/4/50
f 101/4/48 106/5/50 104/5/48
f 107/5/9 102/4/49 105/5/49
f 102/4/49 107/5/9 103/4/9
f 97/4/4 92/5/45 91/4/45
f 92/5/45 97/4/4 108/5/4
f 94/5/46 98/4/50 93/4/46
f 98/4/50 94/5/46 106/5/50
f 100/4/4 109/5/4 99/4/4
f 109/5/4 100/4/4 110/5/4
f 109/5/51 96/4/51 99/4/51
f 96/4/51 109/5/51 111/5/51
f 112/5/9 96/4/9 111/5/9
f 96/4/9 112/5/9 95/4/9
f 108/5/52 90/5/52 92/5/52
f 112/5/52 90/5/52 108/5/52
f 111/5/52 90/5/52 112/5/52
f 111/5/52 94/5/52 90/5/52
f 109/5/52 94/5/52 111/5/52
f 94/5/52 109/5/52 106/5/52
f 110/5/52 106/5/52 109/5/52
f 110/5/52 104/5/52 106/5/52
f 107/5/52 104/5/52 110/5/52
f 104/5/52 107/5/52 105/5/52
f 115/3/53 114/2/53 113/2/53
f 115/3/53 116/1/53 114/2/53
f 116/1/53 115/3/53 117/1/53
f 118/3/53 117/1/53 115/3/53
f 117/1/53 118/3/53 119/2/53
f 119/2/53 118/3/53 120/2/53
f 123/4/55 122/5/54 121/4/54
f 122/5/54 123/4/55 124/5/55
f 122/5/54 125/4/56 121/4/54
f 125/4/56 122/5/54 126/5/56
f 129/4/57 128/4/57 127/4/57
f 128/4/57 129/4/57 125/4/57
f 125/4/57 129/4/57 121/4/57
f 121/4/57 129/4/57 123/4/57
f 130/4/57 128/4/57 125/4/57
f 130/4/57 131/4/57 128/4/57
f 130/4/57 132/4/57 131/4/57
f 133/4/57 132/4/57 130/4/57
f 134/4/57 132/4/57 133/4/57
f 132/4/57 134/4/57 135/4/57
f 137/5/59 133/4/58 136/5/58
f 133/4/58 137/5/59 134/4/59
f 138/5/60 133/4/58 130/4/60
f 133/4/58 138/5/60 136/5/58
f 139/5/61 134/4/59 137/5/59
f 134/4/59 139/5/61 135/4/61
f 129/4/62 124/5/55 123/4/55
f 124/5/55 129/4/62 140/5/62
f 126/5/56 130/4/60 125/4/56
f 130/4/60 126/5/56 138/5/60
f 132/4/62 141/5/62 131/4/62
f 141/5/62 132/4/62 142/5/62
f 141/5/63 128/4/63 131/4/63
f 128/4/63 141/5/63 143/5/63
f 144/5/61 128/4/61 143/5/61
f 128/4/61 144/5/61 127/4/61
f 140/5/64 122/5/64 124/5/64
f 144/5/64 122/5/64 140/5/64
f 143/5/64 122/5/64 144/5/64
f 143/5/64 126/5/64 122/5/64
f 141/5/64 126/5/64 143/5/64
f 126/5/64 141/5/64 138/5/64
f 142/5/64 138/5/64 141/5/64
f 142/5/64 136/5/64 138/5/64
f 139/5/64 136/5/64 142/5/64
f 136/5/64 139/5/64 137/5/64

