# Created by Kenney (www.kenney.nl)

mtllib track-wide-corner-large.mtl

g track-wide-corner-large

v -1 0 4.172325E-06 1 1 1
v -1.027706 0 0.3393309 1 1 1
v 1 0 8.225441E-06 1 1 1
v 0.9470159 0 0.6563085 1 1 1
v -1.109878 0 0.6860521 1 1 1
v 0.7992438 0 1.282083 1 1 1
v -1 0.3 4.172325E-06 1 1 1
v -1.027706 0.3 0.3393309 1 1 1
v -1.109878 0.3 0.6860521 1 1 1
v 1 0.3 8.225441E-06 1 1 1
v 0.9470159 0.3 0.6563085 1 1 1
v 0.7992438 0.3 1.282083 1 1 1
v 0.9 0.1 8.106232E-06 1 1 1
v 0.8482797 0.1 0.6404597 1 1 1
v -0.9000001 0.1 4.291534E-06 1 1 1
v -0.9289696 0.1 0.3551798 1 1 1
v 0.7037877 0.1 1.252282 1 1 1
v -1.014422 0.1 0.7158537 1 1 1
v -0.9000001 0.3 4.291534E-06 1 1 1
v -0.9289696 0.3 0.3551798 1 1 1
v -1.014422 0.3 0.7158537 1 1 1
v 0.9 0.3 8.106232E-06 1 1 1
v 0.8482797 0.3 0.6404597 1 1 1
v 0.7037877 0.3 1.252282 1 1 1
v -1.243477 0 1.031939 1 1 1
v 0.5730804 0 1.868671 1 1 1
v -1.423827 0 1.368826 1 1 1
v 0.2819434 0 2.413022 1 1 1
v -1.243477 0.3 1.031939 1 1 1
v -1.423827 0.3 1.368826 1 1 1
v 0.5730804 0.3 1.868671 1 1 1
v 0.2819434 0.3 2.413022 1 1 1
v 0.4822525 0.1 1.826834 1 1 1
v -1.152649 0.1 1.073776 1 1 1
v 0.1966548 0.1 2.360812 1 1 1
v -1.338539 0.1 1.421035 1 1 1
v -1.152649 0.3 1.073776 1 1 1
v -1.338539 0.3 1.421035 1 1 1
v 0.4822525 0.3 1.826834 1 1 1
v 0.1966548 0.3 2.360812 1 1 1
v -1.645612 0 1.689618 1 1 1
v -0.06469488 0 2.914648 1 1 1
v -1.903248 0 1.987924 1 1 1
v -0.4604769 0 3.372992 1 1 1
v -1.645612 0.3 1.689618 1 1 1
v -1.903248 0.3 1.987924 1 1 1
v -0.06469488 0.3 2.914648 1 1 1
v -0.4604769 0.3 3.372992 1 1 1
v -0.1437407 0.1 2.853397 1 1 1
v -1.566566 0.1 1.750869 1 1 1
v -0.5326154 0.1 3.303738 1 1 1
v -1.831109 0.1 2.057177 1 1 1
v -1.566566 0.3 1.750869 1 1 1
v -1.831109 0.3 2.057177 1 1 1
v -0.1437407 0.3 2.853397 1 1 1
v -0.5326154 0.3 3.303738 1 1 1
v -2.191233 0 2.258029 1 1 1
v -0.9016972 0 3.786786 1 1 1
v -2.503968 0 2.494424 1 1 1
v -1.386532 0 4.15314 1 1 1
v -2.191233 0.3 2.258029 1 1 1
v -2.503968 0.3 2.494424 1 1 1
v -0.9016972 0.3 3.786786 1 1 1
v -1.386532 0.3 4.15314 1 1 1
v -0.9661739 0.1 3.710348 1 1 1
v -2.126756 0.1 2.334467 1 1 1
v -1.442404 0.1 4.070204 1 1 1
v -2.448096 0.1 2.57736 1 1 1
v -2.126756 0.3 2.334467 1 1 1
v -2.448096 0.3 2.57736 1 1 1
v -0.9661739 0.3 3.710348 1 1 1
v -1.442404 0.3 4.070204 1 1 1
v -2.835344 0 2.691541 1 1 1
v -1.914207 0 4.466789 1 1 1
v -3.178721 0 2.843991 1 1 1
v -2.484633 0 4.719689 1 1 1
v -2.835344 0.3 2.691541 1 1 1
v -3.178721 0.3 2.843991 1 1 1
v -1.914207 0.3 4.466789 1 1 1
v -2.484633 0.3 4.719689 1 1 1
v -1.960264 0.1 4.378026 1 1 1
v -2.789288 0.1 2.780303 1 1 1
v -2.519338 0.1 4.625904 1 1 1
v -3.144017 0.1 2.937776 1 1 1
v -2.789288 0.3 2.780303 1 1 1
v -3.144017 0.3 2.937776 1 1 1
v -1.960264 0.3 4.378026 1 1 1
v -2.519338 0.3 4.625904 1 1 1
v -3.526104 0 2.946651 1 1 1
v -3.095748 0 4.899801 1 1 1
v -3.869174 0 2.995788 1 1 1
v -3.741625 0 4.991716 1 1 1
v -3.526104 0.3 2.946651 1 1 1
v -3.869174 0.3 2.995788 1 1 1
v -3.095748 0.3 4.899801 1 1 1
v -3.741625 0.3 4.991716 1 1 1
v -3.117266 0.1 4.802143 1 1 1
v -3.504587 0.1 3.044309 1 1 1
v -3.748002 0.1 4.89192 1 1 1
v -3.862797 0.1 3.095584 1 1 1
v -3.504587 0.3 3.044309 1 1 1
v -3.862797 0.3 3.095584 1 1 1
v -3.117266 0.3 4.802143 1 1 1
v -3.748002 0.3 4.89192 1 1 1
v -3.999996 0 3 1 1 1
v -3.999992 0 5 1 1 1
v -3.999996 0.3 3 1 1 1
v -3.999992 0.3 5 1 1 1
v -3.999992 0.1 4.9 1 1 1
v -3.999996 0.1 3.1 1 1 1
v -3.999996 0.3 3.1 1 1 1
v -3.999992 0.3 4.9 1 1 1
v -0.9 0.3 0 1 1 1
v -1 0.3 0 1 1 1
v -0.9 0.1 0 1 1 1
v -1 0 0 1 1 1
v 1 0 0 1 1 1
v 0.9 0.1 0 1 1 1
v 1 0.3 0 1 1 1
v 0.9 0.3 0 1 1 1
v -0.1207107 0 -0.1707107 1 1 1
v -0.1207107 0.05000001 -0.1707107 1 1 1
v -0.15 0 -0.1 1 1 1
v -0.15 0.05000001 -0.1 1 1 1
v -0.05 0 -0.2 1 1 1
v -0.05 0.05000001 -0.2 1 1 1
v -0.05 0 7.219114E-16 1 1 1
v -0.05 0 -0.1 1 1 1
v -0.15 0 1.082867E-15 1 1 1
v 0.05 0 -0.2 1 1 1
v 0.05 0 -0.1 1 1 1
v 0.05 0 3.609557E-16 1 1 1
v 0.1207107 0 -0.1707107 1 1 1
v 0.15 0 -0.1 1 1 1
v 0.15 0 0 1 1 1
v 0.1207107 0.05000001 -0.1707107 1 1 1
v 0.15 0.05000001 -0.1 1 1 1
v 0.05 0.05000001 -0.2 1 1 1
v 0.15 0.05000001 0 1 1 1
v -0.15 0.05000001 1.082867E-15 1 1 1
v 0.05 0.05000001 -0.1 1 1 1
v 0.05 0.05000001 3.609557E-16 1 1 1
v -0.05 0.05000001 -0.1 1 1 1
v -0.05 0.05000001 7.219114E-16 1 1 1
v -4 0.3 4.9 1 1 1
v -4 0.3 5 1 1 1
v -4 0.1 4.9 1 1 1
v -4 0 5 1 1 1
v -4 0 3 1 1 1
v -4 0.1 3.1 1 1 1
v -4 0.3 3 1 1 1
v -4 0.3 3.1 1 1 1
v -4.170711 0 4.120711 1 1 1
v -4.170711 0.05000001 4.120711 1 1 1
v -4.1 0 4.15 1 1 1
v -4.1 0.05000001 4.15 1 1 1
v -4.2 0 4.05 1 1 1
v -4.2 0.05000001 4.05 1 1 1
v -4 0 4.05 1 1 1
v -4.1 0 4.05 1 1 1
v -4 0 4.15 1 1 1
v -4.2 0 3.95 1 1 1
v -4.1 0 3.95 1 1 1
v -4 0 3.95 1 1 1
v -4.170711 0 3.879289 1 1 1
v -4.1 0 3.85 1 1 1
v -4 0 3.85 1 1 1
v -4.170711 0.05000001 3.879289 1 1 1
v -4.1 0.05000001 3.85 1 1 1
v -4.2 0.05000001 3.95 1 1 1
v -4 0.05000001 3.85 1 1 1
v -4 0.05000001 4.15 1 1 1
v -4.1 0.05000001 3.95 1 1 1
v -4 0.05000001 3.95 1 1 1
v -4.1 0.05000001 4.05 1 1 1
v -4 0.05000001 4.05 1 1 1

vn 0 -1 0
vn -1 0 -2.06452E-06
vn -0.7071068 0.7071068 -1.459836E-06
vn -0.9873608 0 -0.1584888
vn -0.6981695 0.7071068 -0.1120685
vn -0.954561 0 -0.2980156
vn -0.6749765 0.7071068 -0.2107289
vn 0.7071068 0.7071068 1.459836E-06
vn 1 0 2.06452E-06
vn 0.6981695 0.7071068 0.1120685
vn 0.9873608 0 0.1584888
vn 0.6749765 0.7071068 0.2107289
vn 0.954561 0 0.2980156
vn 0 1 0
vn -0.9082786 0 -0.4183657
vn -0.64225 0.7071068 -0.2958292
vn -0.8528852 0 -0.5220984
vn -0.603081 0.7071068 -0.3691793
vn 0.64225 0.7071068 0.2958292
vn 0.9082786 0 0.4183657
vn 0.603081 0.7071068 0.3691793
vn 0.8528852 0 0.5220984
vn -0.7904587 0 -0.6125153
vn -0.5589387 0.7071068 -0.4331137
vn -0.7213854 0 -0.6925339
vn -0.5100965 0.7071068 -0.4896954
vn 0.5589387 0.7071068 0.4331137
vn 0.7904587 0 0.6125153
vn 0.5100965 0.7071068 0.4896954
vn 0.7213854 0 0.6925339
vn -0.6447678 0 -0.7643784
vn -0.4559197 0.7071068 -0.5404972
vn -0.5587178 0 -0.8293579
vn -0.3950732 0.7071068 -0.5864446
vn 0.4559197 0.7071068 0.5404972
vn 0.6447678 0 0.7643784
vn 0.3950732 0.7071068 0.5864446
vn 0.5587178 0 0.8293579
vn -0.4605685 0 -0.8876241
vn -0.3256711 0.7071068 -0.627645
vn -0.3470438 0 -0.9378489
vn -0.245397 0.7071068 -0.6631593
vn 0.3256711 0.7071068 0.627645
vn 0.4605685 0 0.8876241
vn 0.245397 0.7071068 0.6631593
vn 0.3470438 0 0.9378489
vn -0.2151781 0 -0.9765748
vn -0.1521539 0.7071068 -0.6905427
vn -0.06377453 0 -0.9979644
vn -0.04509538 0.7071068 -0.7056673
vn 0.1521539 0.7071068 0.6905427
vn 0.2151781 0 0.9765748
vn 0.04509538 0.7071068 0.7056673
vn 0.06377453 0 0.9979644
vn -2.205372E-06 0 -0.9999999
vn -1.549721E-06 0.7071068 -0.7071067
vn 1.549721E-06 0.7071068 0.7071067
vn 2.205372E-06 0 0.9999999
vn 0 0 -1
vn -0.7071068 0 -0.7071068
vn -0.9807853 0 -0.1950903
vn -0.1950903 0 -0.9807853
vn 0.7071068 0 -0.7071068
vn 0.9807853 0 -0.1950903
vn 0.1950903 0 -0.9807853
vn 1 0 0
vn -1 0 0
vn 0 0 1
vn -0.9999999 0 3.576279E-07
vn -0.7071065 0 0.7071069
vn -0.19509 0 0.9807853
vn -0.9807851 0 0.1950907
vn -0.7071069 0 -0.7071065
vn -0.1950907 0 -0.9807851
vn -0.9807853 0 -0.19509
vn -3.576279E-07 0 -0.9999999
vn 3.576279E-07 0 0.9999999
vn 0.9999999 0 -3.576279E-07

vt 0.46875 0.275
vt 0.46875 0.475
vt 0.46875 0.3416667
vt 0.71875 0.275
vt 0.71875 0.475

usemtl colormap

f 3/1/1 2/1/1 1/1/1
f 2/1/1 3/1/1 4/1/1
f 4/1/1 5/1/1 2/1/1
f 5/1/1 4/1/1 6/1/1
f 2/1/4 7/2/3 1/1/2
f 7/2/3 2/1/4 8/2/5
f 5/1/6 8/2/5 2/1/4
f 8/2/5 5/1/6 9/2/7
f 11/2/10 3/1/9 10/2/8
f 3/1/9 11/2/10 4/1/11
f 12/2/12 4/1/11 11/2/10
f 4/1/11 12/2/12 6/1/13
f 15/3/14 14/3/14 13/3/14
f 14/3/14 15/3/14 16/3/14
f 16/3/14 17/3/14 14/3/14
f 17/3/14 16/3/14 18/3/14
f 7/2/3 20/2/10 19/2/8
f 20/2/10 7/2/3 8/2/5
f 8/2/5 21/2/12 20/2/10
f 21/2/12 8/2/5 9/2/7
f 20/2/10 15/3/9 19/2/8
f 15/3/9 20/2/10 16/3/11
f 21/2/12 16/3/11 20/2/10
f 16/3/11 21/2/12 18/3/13
f 22/2/3 11/2/10 10/2/8
f 11/2/10 22/2/3 23/2/5
f 23/2/5 12/2/12 11/2/10
f 12/2/12 23/2/5 24/2/7
f 14/3/4 22/2/3 13/3/2
f 22/2/3 14/3/4 23/2/5
f 17/3/6 23/2/5 14/3/4
f 23/2/5 17/3/6 24/2/7
f 6/1/1 25/1/1 5/1/1
f 25/1/1 6/1/1 26/1/1
f 26/1/1 27/1/1 25/1/1
f 27/1/1 26/1/1 28/1/1
f 25/1/15 9/2/7 5/1/6
f 9/2/7 25/1/15 29/2/16
f 27/1/17 29/2/16 25/1/15
f 29/2/16 27/1/17 30/2/18
f 31/2/19 6/1/13 12/2/12
f 6/1/13 31/2/19 26/1/20
f 32/2/21 26/1/20 31/2/19
f 26/1/20 32/2/21 28/1/22
f 18/3/14 33/3/14 17/3/14
f 33/3/14 18/3/14 34/3/14
f 34/3/14 35/3/14 33/3/14
f 35/3/14 34/3/14 36/3/14
f 9/2/7 37/2/19 21/2/12
f 37/2/19 9/2/7 29/2/16
f 29/2/16 38/2/21 37/2/19
f 38/2/21 29/2/16 30/2/18
f 37/2/19 18/3/13 21/2/12
f 18/3/13 37/2/19 34/3/20
f 38/2/21 34/3/20 37/2/19
f 34/3/20 38/2/21 36/3/22
f 24/2/7 31/2/19 12/2/12
f 31/2/19 24/2/7 39/2/16
f 39/2/16 32/2/21 31/2/19
f 32/2/21 39/2/16 40/2/18
f 33/3/15 24/2/7 17/3/6
f 24/2/7 33/3/15 39/2/16
f 35/3/17 39/2/16 33/3/15
f 39/2/16 35/3/17 40/2/18
f 28/1/1 41/1/1 27/1/1
f 41/1/1 28/1/1 42/1/1
f 42/1/1 43/1/1 41/1/1
f 43/1/1 42/1/1 44/1/1
f 41/1/23 30/2/18 27/1/17
f 30/2/18 41/1/23 45/2/24
f 43/1/25 45/2/24 41/1/23
f 45/2/24 43/1/25 46/2/26
f 47/2/27 28/1/22 32/2/21
f 28/1/22 47/2/27 42/1/28
f 48/2/29 42/1/28 47/2/27
f 42/1/28 48/2/29 44/1/30
f 36/3/14 49/3/14 35/3/14
f 49/3/14 36/3/14 50/3/14
f 50/3/14 51/3/14 49/3/14
f 51/3/14 50/3/14 52/3/14
f 30/2/18 53/2/27 38/2/21
f 53/2/27 30/2/18 45/2/24
f 45/2/24 54/2/29 53/2/27
f 54/2/29 45/2/24 46/2/26
f 53/2/27 36/3/22 38/2/21
f 36/3/22 53/2/27 50/3/28
f 54/2/29 50/3/28 53/2/27
f 50/3/28 54/2/29 52/3/30
f 40/2/18 47/2/27 32/2/21
f 47/2/27 40/2/18 55/2/24
f 55/2/24 48/2/29 47/2/27
f 48/2/29 55/2/24 56/2/26
f 49/3/23 40/2/18 35/3/17
f 40/2/18 49/3/23 55/2/24
f 51/3/25 55/2/24 49/3/23
f 55/2/24 51/3/25 56/2/26
f 44/1/1 57/1/1 43/1/1
f 57/1/1 44/1/1 58/1/1
f 58/1/1 59/1/1 57/1/1
f 59/1/1 58/1/1 60/1/1
f 57/1/31 46/2/26 43/1/25
f 46/2/26 57/1/31 61/2/32
f 59/1/33 61/2/32 57/1/31
f 61/2/32 59/1/33 62/2/34
f 63/2/35 44/1/30 48/2/29
f 44/1/30 63/2/35 58/1/36
f 64/2/37 58/1/36 63/2/35
f 58/1/36 64/2/37 60/1/38
f 52/3/14 65/3/14 51/3/14
f 65/3/14 52/3/14 66/3/14
f 66/3/14 67/3/14 65/3/14
f 67/3/14 66/3/14 68/3/14
f 46/2/26 69/2/35 54/2/29
f 69/2/35 46/2/26 61/2/32
f 61/2/32 70/2/37 69/2/35
f 70/2/37 61/2/32 62/2/34
f 69/2/35 52/3/30 54/2/29
f 52/3/30 69/2/35 66/3/36
f 70/2/37 66/3/36 69/2/35
f 66/3/36 70/2/37 68/3/38
f 56/2/26 63/2/35 48/2/29
f 63/2/35 56/2/26 71/2/32
f 71/2/32 64/2/37 63/2/35
f 64/2/37 71/2/32 72/2/34
f 65/3/31 56/2/26 51/3/25
f 56/2/26 65/3/31 71/2/32
f 67/3/33 71/2/32 65/3/31
f 71/2/32 67/3/33 72/2/34
f 60/1/1 73/1/1 59/1/1
f 73/1/1 60/1/1 74/1/1
f 74/1/1 75/1/1 73/1/1
f 75/1/1 74/1/1 76/1/1
f 73/1/39 62/2/34 59/1/33
f 62/2/34 73/1/39 77/2/40
f 75/1/41 77/2/40 73/1/39
f 77/2/40 75/1/41 78/2/42
f 79/2/43 60/1/38 64/2/37
f 60/1/38 79/2/43 74/1/44
f 80/2/45 74/1/44 79/2/43
f 74/1/44 80/2/45 76/1/46
f 68/3/14 81/3/14 67/3/14
f 81/3/14 68/3/14 82/3/14
f 82/3/14 83/3/14 81/3/14
f 83/3/14 82/3/14 84/3/14
f 62/2/34 85/2/43 70/2/37
f 85/2/43 62/2/34 77/2/40
f 77/2/40 86/2/45 85/2/43
f 86/2/45 77/2/40 78/2/42
f 85/2/43 68/3/38 70/2/37
f 68/3/38 85/2/43 82/3/44
f 86/2/45 82/3/44 85/2/43
f 82/3/44 86/2/45 84/3/46
f 72/2/34 79/2/43 64/2/37
f 79/2/43 72/2/34 87/2/40
f 87/2/40 80/2/45 79/2/43
f 80/2/45 87/2/40 88/2/42
f 81/3/39 72/2/34 67/3/33
f 72/2/34 81/3/39 87/2/40
f 83/3/41 87/2/40 81/3/39
f 87/2/40 83/3/41 88/2/42
f 76/1/1 89/1/1 75/1/1
f 89/1/1 76/1/1 90/1/1
f 90/1/1 91/1/1 89/1/1
f 91/1/1 90/1/1 92/1/1
f 89/1/47 78/2/42 75/1/41
f 78/2/42 89/1/47 93/2/48
f 91/1/49 93/2/48 89/1/47
f 93/2/48 91/1/49 94/2/50
f 95/2/51 76/1/46 80/2/45
f 76/1/46 95/2/51 90/1/52
f 96/2/53 90/1/52 95/2/51
f 90/1/52 96/2/53 92/1/54
f 84/3/14 97/3/14 83/3/14
f 97/3/14 84/3/14 98/3/14
f 98/3/14 99/3/14 97/3/14
f 99/3/14 98/3/14 100/3/14
f 78/2/42 101/2/51 86/2/45
f 101/2/51 78/2/42 93/2/48
f 93/2/48 102/2/53 101/2/51
f 102/2/53 93/2/48 94/2/50
f 101/2/51 84/3/46 86/2/45
f 84/3/46 101/2/51 98/3/52
f 102/2/53 98/3/52 101/2/51
f 98/3/52 102/2/53 100/3/54
f 88/2/42 95/2/51 80/2/45
f 95/2/51 88/2/42 103/2/48
f 103/2/48 96/2/53 95/2/51
f 96/2/53 103/2/48 104/2/50
f 97/3/47 88/2/42 83/3/41
f 88/2/42 97/3/47 103/2/48
f 99/3/49 103/2/48 97/3/47
f 103/2/48 99/3/49 104/2/50
f 92/1/1 105/1/1 91/1/1
f 105/1/1 92/1/1 106/1/1
f 106/1/1 105/1/1 105/1/1
f 105/1/1 106/1/1 106/1/1
f 105/1/55 94/2/50 91/1/49
f 94/2/50 105/1/55 107/2/56
f 105/1/55 107/2/56 105/1/55
f 107/2/56 105/1/55 107/2/56
f 108/2/57 92/1/54 96/2/53
f 92/1/54 108/2/57 106/1/58
f 108/2/57 106/1/58 108/2/57
f 106/1/58 108/2/57 106/1/58
f 100/3/14 109/3/14 99/3/14
f 109/3/14 100/3/14 110/3/14
f 110/3/14 109/3/14 109/3/14
f 109/3/14 110/3/14 110/3/14
f 94/2/50 111/2/57 102/2/53
f 111/2/57 94/2/50 107/2/56
f 107/2/56 111/2/57 111/2/57
f 111/2/57 107/2/56 107/2/56
f 111/2/57 100/3/54 102/2/53
f 100/3/54 111/2/57 110/3/58
f 111/2/57 110/3/58 111/2/57
f 110/3/58 111/2/57 110/3/58
f 104/2/50 108/2/57 96/2/53
f 108/2/57 104/2/50 112/2/56
f 112/2/56 108/2/57 108/2/57
f 108/2/57 112/2/56 112/2/56
f 109/3/55 104/2/50 99/3/49
f 104/2/50 109/3/55 112/2/56
f 109/3/55 112/2/56 109/3/55
f 112/2/56 109/3/55 112/2/56
f 115/3/59 114/2/59 113/2/59
f 115/3/59 116/1/59 114/2/59
f 116/1/59 115/3/59 117/1/59
f 118/3/59 117/1/59 115/3/59
f 117/1/59 118/3/59 119/2/59
f 119/2/59 118/3/59 120/2/59
f 123/4/61 122/5/60 121/4/60
f 122/5/60 123/4/61 124/5/61
f 122/5/60 125/4/62 121/4/60
f 125/4/62 122/5/60 126/5/62
f 129/4/1 128/4/1 127/4/1
f 128/4/1 129/4/1 125/4/1
f 125/4/1 129/4/1 121/4/1
f 121/4/1 129/4/1 123/4/1
f 130/4/1 128/4/1 125/4/1
f 130/4/1 131/4/1 128/4/1
f 130/4/1 132/4/1 131/4/1
f 133/4/1 132/4/1 130/4/1
f 134/4/1 132/4/1 133/4/1
f 132/4/1 134/4/1 135/4/1
f 137/5/64 133/4/63 136/5/63
f 133/4/63 137/5/64 134/4/64
f 138/5/65 133/4/63 130/4/65
f 133/4/63 138/5/65 136/5/63
f 139/5/66 134/4/64 137/5/64
f 134/4/64 139/5/66 135/4/66
f 129/4/67 124/5/61 123/4/61
f 124/5/61 129/4/67 140/5/67
f 126/5/62 130/4/65 125/4/62
f 130/4/65 126/5/62 138/5/65
f 132/4/67 141/5/67 131/4/67
f 141/5/67 132/4/67 142/5/67
f 141/5/68 128/4/68 131/4/68
f 128/4/68 141/5/68 143/5/68
f 144/5/66 128/4/66 143/5/66
f 128/4/66 144/5/66 127/4/66
f 140/5/14 122/5/14 124/5/14
f 144/5/14 122/5/14 140/5/14
f 143/5/14 122/5/14 144/5/14
f 143/5/14 126/5/14 122/5/14
f 141/5/14 126/5/14 143/5/14
f 126/5/14 141/5/14 138/5/14
f 142/5/14 138/5/14 141/5/14
f 142/5/14 136/5/14 138/5/14
f 139/5/14 136/5/14 142/5/14
f 136/5/14 139/5/14 137/5/14
f 147/3/69 146/2/69 145/2/69
f 147/3/69 148/1/69 146/2/69
f 148/1/69 147/3/69 149/1/69
f 150/3/69 149/1/69 147/3/69
f 149/1/69 150/3/69 151/2/69
f 151/2/69 150/3/69 152/2/69
f 155/4/71 154/5/70 153/4/70
f 154/5/70 155/4/71 156/5/71
f 154/5/70 157/4/72 153/4/70
f 157/4/72 154/5/70 158/5/72
f 161/4/1 160/4/1 159/4/1
f 160/4/1 161/4/1 157/4/1
f 157/4/1 161/4/1 153/4/1
f 153/4/1 161/4/1 155/4/1
f 162/4/1 160/4/1 157/4/1
f 162/4/1 163/4/1 160/4/1
f 162/4/1 164/4/1 163/4/1
f 165/4/1 164/4/1 162/4/1
f 166/4/1 164/4/1 165/4/1
f 164/4/1 166/4/1 167/4/1
f 169/5/74 165/4/73 168/5/73
f 165/4/73 169/5/74 166/4/74
f 170/5/75 165/4/73 162/4/75
f 165/4/73 170/5/75 168/5/73
f 171/5/76 166/4/74 169/5/74
f 166/4/74 171/5/76 167/4/76
f 161/4/77 156/5/71 155/4/71
f 156/5/71 161/4/77 172/5/77
f 158/5/72 162/4/75 157/4/72
f 162/4/75 158/5/72 170/5/75
f 164/4/77 173/5/77 163/4/77
f 173/5/77 164/4/77 174/5/77
f 173/5/78 160/4/78 163/4/78
f 160/4/78 173/5/78 175/5/78
f 176/5/76 160/4/76 175/5/76
f 160/4/76 176/5/76 159/4/76
f 172/5/14 154/5/14 156/5/14
f 176/5/14 154/5/14 172/5/14
f 175/5/14 154/5/14 176/5/14
f 175/5/14 158/5/14 154/5/14
f 173/5/14 158/5/14 175/5/14
f 158/5/14 173/5/14 170/5/14
f 174/5/14 170/5/14 173/5/14
f 174/5/14 168/5/14 170/5/14
f 171/5/14 168/5/14 174/5/14
f 168/5/14 171/5/14 169/5/14

g track-wide-corner-large




usemtl colormap

f 3/1/1 2/1/1 1/1/1
f 2/1/1 3/1/1 4/1/1
f 4/1/1 5/1/1 2/1/1
f 5/1/1 4/1/1 6/1/1
f 2/1/4 7/2/3 1/1/2
f 7/2/3 2/1/4 8/2/5
f 5/1/6 8/2/5 2/1/4
f 8/2/5 5/1/6 9/2/7
f 11/2/10 3/1/9 10/2/8
f 3/1/9 11/2/10 4/1/11
f 12/2/12 4/1/11 11/2/10
f 4/1/11 12/2/12 6/1/13
f 15/3/14 14/3/14 13/3/14
f 14/3/14 15/3/14 16/3/14
f 16/3/14 17/3/14 14/3/14
f 17/3/14 16/3/14 18/3/14
f 7/2/3 20/2/10 19/2/8
f 20/2/10 7/2/3 8/2/5
f 8/2/5 21/2/12 20/2/10
f 21/2/12 8/2/5 9/2/7
f 20/2/10 15/3/9 19/2/8
f 15/3/9 20/2/10 16/3/11
f 21/2/12 16/3/11 20/2/10
f 16/3/11 21/2/12 18/3/13
f 22/2/3 11/2/10 10/2/8
f 11/2/10 22/2/3 23/2/5
f 23/2/5 12/2/12 11/2/10
f 12/2/12 23/2/5 24/2/7
f 14/3/4 22/2/3 13/3/2
f 22/2/3 14/3/4 23/2/5
f 17/3/6 23/2/5 14/3/4
f 23/2/5 17/3/6 24/2/7
f 6/1/1 25/1/1 5/1/1
f 25/1/1 6/1/1 26/1/1
f 26/1/1 27/1/1 25/1/1
f 27/1/1 26/1/1 28/1/1
f 25/1/15 9/2/7 5/1/6
f 9/2/7 25/1/15 29/2/16
f 27/1/17 29/2/16 25/1/15
f 29/2/16 27/1/17 30/2/18
f 31/2/19 6/1/13 12/2/12
f 6/1/13 31/2/19 26/1/20
f 32/2/21 26/1/20 31/2/19
f 26/1/20 32/2/21 28/1/22
f 18/3/14 33/3/14 17/3/14
f 33/3/14 18/3/14 34/3/14
f 34/3/14 35/3/14 33/3/14
f 35/3/14 34/3/14 36/3/14
f 9/2/7 37/2/19 21/2/12
f 37/2/19 9/2/7 29/2/16
f 29/2/16 38/2/21 37/2/19
f 38/2/21 29/2/16 30/2/18
f 37/2/19 18/3/13 21/2/12
f 18/3/13 37/2/19 34/3/20
f 38/2/21 34/3/20 37/2/19
f 34/3/20 38/2/21 36/3/22
f 24/2/7 31/2/19 12/2/12
f 31/2/19 24/2/7 39/2/16
f 39/2/16 32/2/21 31/2/19
f 32/2/21 39/2/16 40/2/18
f 33/3/15 24/2/7 17/3/6
f 24/2/7 33/3/15 39/2/16
f 35/3/17 39/2/16 33/3/15
f 39/2/16 35/3/17 40/2/18
f 28/1/1 41/1/1 27/1/1
f 41/1/1 28/1/1 42/1/1
f 42/1/1 43/1/1 41/1/1
f 43/1/1 42/1/1 44/1/1
f 41/1/23 30/2/18 27/1/17
f 30/2/18 41/1/23 45/2/24
f 43/1/25 45/2/24 41/1/23
f 45/2/24 43/1/25 46/2/26
f 47/2/27 28/1/22 32/2/21
f 28/1/22 47/2/27 42/1/28
f 48/2/29 42/1/28 47/2/27
f 42/1/28 48/2/29 44/1/30
f 36/3/14 49/3/14 35/3/14
f 49/3/14 36/3/14 50/3/14
f 50/3/14 51/3/14 49/3/14
f 51/3/14 50/3/14 52/3/14
f 30/2/18 53/2/27 38/2/21
f 53/2/27 30/2/18 45/2/24
f 45/2/24 54/2/29 53/2/27
f 54/2/29 45/2/24 46/2/26
f 53/2/27 36/3/22 38/2/21
f 36/3/22 53/2/27 50/3/28
f 54/2/29 50/3/28 53/2/27
f 50/3/28 54/2/29 52/3/30
f 40/2/18 47/2/27 32/2/21
f 47/2/27 40/2/18 55/2/24
f 55/2/24 48/2/29 47/2/27
f 48/2/29 55/2/24 56/2/26
f 49/3/23 40/2/18 35/3/17
f 40/2/18 49/3/23 55/2/24
f 51/3/25 55/2/24 49/3/23
f 55/2/24 51/3/25 56/2/26
f 44/1/1 57/1/1 43/1/1
f 57/1/1 44/1/1 58/1/1
f 58/1/1 59/1/1 57/1/1
f 59/1/1 58/1/1 60/1/1
f 57/1/31 46/2/26 43/1/25
f 46/2/26 57/1/31 61/2/32
f 59/1/33 61/2/32 57/1/31
f 61/2/32 59/1/33 62/2/34
f 63/2/35 44/1/30 48/2/29
f 44/1/30 63/2/35 58/1/36
f 64/2/37 58/1/36 63/2/35
f 58/1/36 64/2/37 60/1/38
f 52/3/14 65/3/14 51/3/14
f 65/3/14 52/3/14 66/3/14
f 66/3/14 67/3/14 65/3/14
f 67/3/14 66/3/14 68/3/14
f 46/2/26 69/2/35 54/2/29
f 69/2/35 46/2/26 61/2/32
f 61/2/32 70/2/37 69/2/35
f 70/2/37 61/2/32 62/2/34
f 69/2/35 52/3/30 54/2/29
f 52/3/30 69/2/35 66/3/36
f 70/2/37 66/3/36 69/2/35
f 66/3/36 70/2/37 68/3/38
f 56/2/26 63/2/35 48/2/29
f 63/2/35 56/2/26 71/2/32
f 71/2/32 64/2/37 63/2/35
f 64/2/37 71/2/32 72/2/34
f 65/3/31 56/2/26 51/3/25
f 56/2/26 65/3/31 71/2/32
f 67/3/33 71/2/32 65/3/31
f 71/2/32 67/3/33 72/2/34
f 60/1/1 73/1/1 59/1/1
f 73/1/1 60/1/1 74/1/1
f 74/1/1 75/1/1 73/1/1
f 75/1/1 74/1/1 76/1/1
f 73/1/39 62/2/34 59/1/33
f 62/2/34 73/1/39 77/2/40
f 75/1/41 77/2/40 73/1/39
f 77/2/40 75/1/41 78/2/42
f 79/2/43 60/1/38 64/2/37
f 60/1/38 79/2/43 74/1/44
f 80/2/45 74/1/44 79/2/43
f 74/1/44 80/2/45 76/1/46
f 68/3/14 81/3/14 67/3/14
f 81/3/14 68/3/14 82/3/14
f 82/3/14 83/3/14 81/3/14
f 83/3/14 82/3/14 84/3/14
f 62/2/34 85/2/43 70/2/37
f 85/2/43 62/2/34 77/2/40
f 77/2/40 86/2/45 85/2/43
f 86/2/45 77/2/40 78/2/42
f 85/2/43 68/3/38 70/2/37
f 68/3/38 85/2/43 82/3/44
f 86/2/45 82/3/44 85/2/43
f 82/3/44 86/2/45 84/3/46
f 72/2/34 79/2/43 64/2/37
f 79/2/43 72/2/34 87/2/40
f 87/2/40 80/2/45 79/2/43
f 80/2/45 87/2/40 88/2/42
f 81/3/39 72/2/34 67/3/33
f 72/2/34 81/3/39 87/2/40
f 83/3/41 87/2/40 81/3/39
f 87/2/40 83/3/41 88/2/42
f 76/1/1 89/1/1 75/1/1
f 89/1/1 76/1/1 90/1/1
f 90/1/1 91/1/1 89/1/1
f 91/1/1 90/1/1 92/1/1
f 89/1/47 78/2/42 75/1/41
f 78/2/42 89/1/47 93/2/48
f 91/1/49 93/2/48 89/1/47
f 93/2/48 91/1/49 94/2/50
f 95/2/51 76/1/46 80/2/45
f 76/1/46 95/2/51 90/1/52
f 96/2/53 90/1/52 95/2/51
f 90/1/52 96/2/53 92/1/54
f 84/3/14 97/3/14 83/3/14
f 97/3/14 84/3/14 98/3/14
f 98/3/14 99/3/14 97/3/14
f 99/3/14 98/3/14 100/3/14
f 78/2/42 101/2/51 86/2/45
f 101/2/51 78/2/42 93/2/48
f 93/2/48 102/2/53 101/2/51
f 102/2/53 93/2/48 94/2/50
f 101/2/51 84/3/46 86/2/45
f 84/3/46 101/2/51 98/3/52
f 102/2/53 98/3/52 101/2/51
f 98/3/52 102/2/53 100/3/54
f 88/2/42 95/2/51 80/2/45
f 95/2/51 88/2/42 103/2/48
f 103/2/48 96/2/53 95/2/51
f 96/2/53 103/2/48 104/2/50
f 97/3/47 88/2/42 83/3/41
f 88/2/42 97/3/47 103/2/48
f 99/3/49 103/2/48 97/3/47
f 103/2/48 99/3/49 104/2/50
f 92/1/1 105/1/1 91/1/1
f 105/1/1 92/1/1 106/1/1
f 106/1/1 105/1/1 105/1/1
f 105/1/1 106/1/1 106/1/1
f 105/1/55 94/2/50 91/1/49
f 94/2/50 105/1/55 107/2/56
f 105/1/55 107/2/56 105/1/55
f 107/2/56 105/1/55 107/2/56
f 108/2/57 92/1/54 96/2/53
f 92/1/54 108/2/57 106/1/58
f 108/2/57 106/1/58 108/2/57
f 106/1/58 108/2/57 106/1/58
f 100/3/14 109/3/14 99/3/14
f 109/3/14 100/3/14 110/3/14
f 110/3/14 109/3/14 109/3/14
f 109/3/14 110/3/14 110/3/14
f 94/2/50 111/2/57 102/2/53
f 111/2/57 94/2/50 107/2/56
f 107/2/56 111/2/57 111/2/57
f 111/2/57 107/2/56 107/2/56
f 111/2/57 100/3/54 102/2/53
f 100/3/54 111/2/57 110/3/58
f 111/2/57 110/3/58 111/2/57
f 110/3/58 111/2/57 110/3/58
f 104/2/50 108/2/57 96/2/53
f 108/2/57 104/2/50 112/2/56
f 112/2/56 108/2/57 108/2/57
f 108/2/57 112/2/56 112/2/56
f 109/3/55 104/2/50 99/3/49
f 104/2/50 109/3/55 112/2/56
f 109/3/55 112/2/56 109/3/55
f 112/2/56 109/3/55 112/2/56
f 115/3/59 114/2/59 113/2/59
f 115/3/59 116/1/59 114/2/59
f 116/1/59 115/3/59 117/1/59
f 118/3/59 117/1/59 115/3/59
f 117/1/59 118/3/59 119/2/59
f 119/2/59 118/3/59 120/2/59
f 123/4/61 122/5/60 121/4/60
f 122/5/60 123/4/61 124/5/61
f 122/5/60 125/4/62 121/4/60
f 125/4/62 122/5/60 126/5/62
f 129/4/1 128/4/1 127/4/1
f 128/4/1 129/4/1 125/4/1
f 125/4/1 129/4/1 121/4/1
f 121/4/1 129/4/1 123/4/1
f 130/4/1 128/4/1 125/4/1
f 130/4/1 131/4/1 128/4/1
f 130/4/1 132/4/1 131/4/1
f 133/4/1 132/4/1 130/4/1
f 134/4/1 132/4/1 133/4/1
f 132/4/1 134/4/1 135/4/1
f 137/5/64 133/4/63 136/5/63
f 133/4/63 137/5/64 134/4/64
f 138/5/65 133/4/63 130/4/65
f 133/4/63 138/5/65 136/5/63
f 139/5/66 134/4/64 137/5/64
f 134/4/64 139/5/66 135/4/66
f 129/4/67 124/5/61 123/4/61
f 124/5/61 129/4/67 140/5/67
f 126/5/62 130/4/65 125/4/62
f 130/4/65 126/5/62 138/5/65
f 132/4/67 141/5/67 131/4/67
f 141/5/67 132/4/67 142/5/67
f 141/5/68 128/4/68 131/4/68
f 128/4/68 141/5/68 143/5/68
f 144/5/66 128/4/66 143/5/66
f 128/4/66 144/5/66 127/4/66
f 140/5/14 122/5/14 124/5/14
f 144/5/14 122/5/14 140/5/14
f 143/5/14 122/5/14 144/5/14
f 143/5/14 126/5/14 122/5/14
f 141/5/14 126/5/14 143/5/14
f 126/5/14 141/5/14 138/5/14
f 142/5/14 138/5/14 141/5/14
f 142/5/14 136/5/14 138/5/14
f 139/5/14 136/5/14 142/5/14
f 136/5/14 139/5/14 137/5/14
f 147/3/69 146/2/69 145/2/69
f 147/3/69 148/1/69 146/2/69
f 148/1/69 147/3/69 149/1/69
f 150/3/69 149/1/69 147/3/69
f 149/1/69 150/3/69 151/2/69
f 151/2/69 150/3/69 152/2/69
f 155/4/71 154/5/70 153/4/70
f 154/5/70 155/4/71 156/5/71
f 154/5/70 157/4/72 153/4/70
f 157/4/72 154/5/70 158/5/72
f 161/4/1 160/4/1 159/4/1
f 160/4/1 161/4/1 157/4/1
f 157/4/1 161/4/1 153/4/1
f 153/4/1 161/4/1 155/4/1
f 162/4/1 160/4/1 157/4/1
f 162/4/1 163/4/1 160/4/1
f 162/4/1 164/4/1 163/4/1
f 165/4/1 164/4/1 162/4/1
f 166/4/1 164/4/1 165/4/1
f 164/4/1 166/4/1 167/4/1
f 169/5/74 165/4/73 168/5/73
f 165/4/73 169/5/74 166/4/74
f 170/5/75 165/4/73 162/4/75
f 165/4/73 170/5/75 168/5/73
f 171/5/76 166/4/74 169/5/74
f 166/4/74 171/5/76 167/4/76
f 161/4/77 156/5/71 155/4/71
f 156/5/71 161/4/77 172/5/77
f 158/5/72 162/4/75 157/4/72
f 162/4/75 158/5/72 170/5/75
f 164/4/77 173/5/77 163/4/77
f 173/5/77 164/4/77 174/5/77
f 173/5/78 160/4/78 163/4/78
f 160/4/78 173/5/78 175/5/78
f 176/5/76 160/4/76 175/5/76
f 160/4/76 176/5/76 159/4/76
f 172/5/14 154/5/14 156/5/14
f 176/5/14 154/5/14 172/5/14
f 175/5/14 154/5/14 176/5/14
f 175/5/14 158/5/14 154/5/14
f 173/5/14 158/5/14 175/5/14
f 158/5/14 173/5/14 170/5/14
f 174/5/14 170/5/14 173/5/14
f 174/5/14 168/5/14 170/5/14
f 171/5/14 168/5/14 174/5/14
f 168/5/14 171/5/14 169/5/14

