# Created by Kenney (www.kenney.nl)

mtllib track-narrow-straight-bump-up.mtl

g track-narrow-straight-bump-up

v -0.5 0 4.291534E-06 1 1 1
v -0.5 0.05211258 0.4964781 1 1 1
v 0.5 0 4.291534E-06 1 1 1
v 0.5 0.05211258 0.4964781 1 1 1
v -0.5 0.2309359 0.9618058 1 1 1
v 0.5 0.2309359 0.9618058 1 1 1
v -0.5 0.3 3.814697E-06 1 1 1
v -0.5 0.3441179 0.4276819 1 1 1
v -0.5 0.4995409 0.828197 1 1 1
v 0.5 0.3 3.814697E-06 1 1 1
v 0.5 0.3441179 0.4276819 1 1 1
v 0.5 0.4995409 0.828197 1 1 1
v 0.4 0.1 4.291534E-06 1 1 1
v 0.4 0.1494477 0.473546 1 1 1
v -0.4 0.1 4.291534E-06 1 1 1
v -0.4 0.1494477 0.473546 1 1 1
v 0.4 0.3204709 0.9172697 1 1 1
v -0.4 0.3204709 0.9172697 1 1 1
v -0.4 0.3 3.814697E-06 1 1 1
v -0.4 0.3441179 0.4276819 1 1 1
v -0.4 0.4995409 0.828197 1 1 1
v 0.4 0.3 3.814697E-06 1 1 1
v 0.4 0.3441179 0.4276819 1 1 1
v 0.4 0.4995409 0.828197 1 1 1
v -0.5 0.4262695 1.42115 1 1 1
v 0.5 0.4262695 1.42115 1 1 1
v -0.5 0.4987233 1.914158 1 1 1
v 0.5 0.4987233 1.914158 1 1 1
v -0.5 0.7144088 1.337629 1 1 1
v -0.5 0.7985854 1.905063 1 1 1
v 0.5 0.7144088 1.337629 1 1 1
v 0.5 0.7985854 1.905063 1 1 1
v 0.4 0.522316 1.39331 1 1 1
v -0.4 0.522316 1.39331 1 1 1
v 0.4 0.5986774 1.911127 1 1 1
v -0.4 0.5986774 1.911127 1 1 1
v -0.4 0.7144088 1.337629 1 1 1
v -0.4 0.7985854 1.905063 1 1 1
v 0.4 0.7144088 1.337629 1 1 1
v 0.4 0.7985854 1.905063 1 1 1
v -0.5 0.4653884 2.413061 1 1 1
v 0.5 0.4653884 2.413061 1 1 1
v -0.5 0.3065712 2.885101 1 1 1
v 0.5 0.3065712 2.885101 1 1 1
v -0.5 0.7603946 2.467571 1 1 1
v -0.5 0.5773011 3.01435 1 1 1
v 0.5 0.7603946 2.467571 1 1 1
v 0.5 0.5773011 3.01435 1 1 1
v 0.4 0.5637238 2.431231 1 1 1
v -0.4 0.5637238 2.431231 1 1 1
v 0.4 0.3968146 2.928184 1 1 1
v -0.4 0.3968146 2.928184 1 1 1
v -0.4 0.7603946 2.467571 1 1 1
v -0.4 0.5773011 3.01435 1 1 1
v 0.4 0.7603946 2.467571 1 1 1
v 0.4 0.5773011 3.01435 1 1 1
v -0.5 0.09967113 3.339528 1 1 1
v 0.5 0.09967113 3.339528 1 1 1
v -0.5 0.005292058 3.828677 1 1 1
v 0.5 0.005292058 3.828677 1 1 1
v -0.5 0.3831878 3.437601 1 1 1
v -0.5 0.3046741 3.847922 1 1 1
v 0.5 0.3831878 3.437601 1 1 1
v 0.5 0.3046741 3.847922 1 1 1
v 0.4 0.1941767 3.372219 1 1 1
v -0.4 0.1941767 3.372219 1 1 1
v 0.4 0.1050861 3.835092 1 1 1
v -0.4 0.1050861 3.835092 1 1 1
v -0.4 0.3831878 3.437601 1 1 1
v -0.4 0.3046741 3.847922 1 1 1
v 0.4 0.3831878 3.437601 1 1 1
v 0.4 0.3046741 3.847922 1 1 1
v -0.5 0 3.999995 1 1 1
v 0.5 0 3.999995 1 1 1
v -0.5 0.3 3.999996 1 1 1
v 0.5 0.3 3.999996 1 1 1
v 0.4 0.1 3.999996 1 1 1
v -0.4 0.1 3.999996 1 1 1
v -0.4 0.3 3.999996 1 1 1
v 0.4 0.3 3.999996 1 1 1
v -0.4 0.3 0 1 1 1
v -0.5 0.3 0 1 1 1
v -0.4 0.1 0 1 1 1
v -0.5 0 0 1 1 1
v 0.5 0 0 1 1 1
v 0.4 0.1 0 1 1 1
v 0.5 0.3 0 1 1 1
v 0.4 0.3 0 1 1 1
v -0.1207107 0 -0.1707107 1 1 1
v -0.1207107 0.05000001 -0.1707107 1 1 1
v -0.15 0 -0.1 1 1 1
v -0.15 0.05000001 -0.1 1 1 1
v -0.05 0 -0.2 1 1 1
v -0.05 0.05000001 -0.2 1 1 1
v -0.05 0 7.219114E-16 1 1 1
v -0.05 0 -0.1 1 1 1
v -0.15 0 1.082867E-15 1 1 1
v 0.05 0 -0.2 1 1 1
v 0.05 0 -0.1 1 1 1
v 0.05 0 3.609557E-16 1 1 1
v 0.1207107 0 -0.1707107 1 1 1
v 0.15 0 -0.1 1 1 1
v 0.15 0 0 1 1 1
v 0.1207107 0.05000001 -0.1707107 1 1 1
v 0.15 0.05000001 -0.1 1 1 1
v 0.05 0.05000001 -0.2 1 1 1
v 0.15 0.05000001 0 1 1 1
v -0.15 0.05000001 1.082867E-15 1 1 1
v 0.05 0.05000001 -0.1 1 1 1
v 0.05 0.05000001 3.609557E-16 1 1 1
v -0.05 0.05000001 -0.1 1 1 1
v -0.05 0.05000001 7.219114E-16 1 1 1
v 0.4 0.3 4 1 1 1
v 0.5 0.3 4 1 1 1
v 0.4 0.1 4 1 1 1
v 0.5 0 4 1 1 1
v -0.5 0 4 1 1 1
v -0.4 0.1 4 1 1 1
v -0.5 0.3 4 1 1 1
v -0.4 0.3 4 1 1 1
v 0.1207107 0 4.170711 1 1 1
v 0.1207107 0.05000001 4.170711 1 1 1
v 0.15 0 4.1 1 1 1
v 0.15 0.05000001 4.1 1 1 1
v 0.05 0 4.2 1 1 1
v 0.05 0.05000001 4.2 1 1 1
v 0.05 0 4 1 1 1
v 0.05 0 4.1 1 1 1
v 0.15 0 4 1 1 1
v -0.05 0 4.2 1 1 1
v -0.05 0 4.1 1 1 1
v -0.05 0 4 1 1 1
v -0.1207107 0 4.170711 1 1 1
v -0.15 0 4.1 1 1 1
v -0.15 0 4 1 1 1
v -0.1207107 0.05000001 4.170711 1 1 1
v -0.15 0.05000001 4.1 1 1 1
v -0.05 0.05000001 4.2 1 1 1
v -0.15 0.05000001 4 1 1 1
v 0.15 0.05000001 4 1 1 1
v -0.05 0.05000001 4.1 1 1 1
v -0.05 0.05000001 4 1 1 1
v 0.05 0.05000001 4.1 1 1 1
v 0.05 0.05000001 4 1 1 1

vn 0 -1 1.438542E-06
vn 0 -0.9733511 0.2293198
vn 0 -0.8953501 0.445363
vn -1 0 0
vn -0.7071068 0.7071068 -1.017203E-06
vn -0.7071068 0.6882632 -0.1621536
vn -0.7071068 0.6331081 -0.3149192
vn 0.7071068 0.7071068 -1.017203E-06
vn 1 0 0
vn 0.7071068 0.6882632 -0.1621536
vn 0.7071068 0.6331081 -0.3149192
vn 0 1 -1.438542E-06
vn 0 0.9733511 -0.2293198
vn 0 0.8953501 -0.445363
vn 0 -0.9604643 0.2784032
vn 0 -0.9995403 0.03031754
vn -0.7071068 0.6791508 -0.1968608
vn -0.7071068 0.7067817 -0.02143774
vn 0.7071068 0.6791508 -0.1968608
vn 0.7071068 0.7067817 -0.02143774
vn 0 0.9604643 -0.2784032
vn 0 0.9995403 -0.03031754
vn 0 -0.983354 -0.1817003
vn 0 -0.902433 -0.4308302
vn -0.7071068 0.6953362 0.1284815
vn -0.7071068 0.6381165 0.304643
vn 0.7071068 0.6953362 0.1284815
vn 0.7071068 0.6381165 0.304643
vn 0 0.983354 0.1817003
vn 0 0.902433 0.4308302
vn 0 -0.9450554 -0.3269102
vn 0 -0.9979403 -0.06414936
vn -0.7071068 0.6682551 0.2311604
vn -0.7071068 0.7056503 0.04536045
vn 0.7071068 0.6682551 0.2311604
vn 0.7071068 0.7056503 0.04536045
vn 0 0.9450554 0.3269102
vn 0 0.9979403 0.06414936
vn 0 -1 -1.490121E-06
vn -0.7071068 0.7071068 1.053675E-06
vn 0.7071068 0.7071068 1.053675E-06
vn 0 1 1.490121E-06
vn 0 0 -1
vn -0.7071068 0 -0.7071068
vn -0.9807853 0 -0.1950903
vn -0.1950903 0 -0.9807853
vn 0 -1 0
vn 0.7071068 0 -0.7071068
vn 0.9807853 0 -0.1950903
vn 0.1950903 0 -0.9807853
vn 0 0 1
vn 0 1 0
vn 0.7071068 0 0.7071068
vn 0.9807853 0 0.1950903
vn 0.1950903 0 0.9807853
vn -0.7071068 0 0.7071068
vn -0.9807853 0 0.1950903
vn -0.1950903 0 0.9807853
vn -1 0 7.21645E-16
vn 1 0 -7.21645E-16
vn -7.21645E-16 0 -1

vt 0.46875 0.275
vt 0.46875 0.475
vt 0.46875 0.3416667
vt 0.71875 0.275
vt 0.71875 0.475

usemtl colormap

f 3/1/1 2/1/2 1/1/1
f 2/1/2 3/1/1 4/1/2
f 4/1/2 5/1/3 2/1/2
f 5/1/3 4/1/2 6/1/3
f 2/1/4 7/2/5 1/1/4
f 7/2/5 2/1/4 8/2/6
f 5/1/4 8/2/6 2/1/4
f 8/2/6 5/1/4 9/2/7
f 11/2/10 3/1/9 10/2/8
f 3/1/9 11/2/10 4/1/9
f 12/2/11 4/1/9 11/2/10
f 4/1/9 12/2/11 6/1/9
f 15/3/12 14/3/13 13/3/12
f 14/3/13 15/3/12 16/3/13
f 16/3/13 17/3/14 14/3/13
f 17/3/14 16/3/13 18/3/14
f 7/2/5 20/2/10 19/2/8
f 20/2/10 7/2/5 8/2/6
f 8/2/6 21/2/11 20/2/10
f 21/2/11 8/2/6 9/2/7
f 20/2/10 15/3/9 19/2/8
f 15/3/9 20/2/10 16/3/9
f 21/2/11 16/3/9 20/2/10
f 16/3/9 21/2/11 18/3/9
f 22/2/5 11/2/10 10/2/8
f 11/2/10 22/2/5 23/2/6
f 23/2/6 12/2/11 11/2/10
f 12/2/11 23/2/6 24/2/7
f 14/3/4 22/2/5 13/3/4
f 22/2/5 14/3/4 23/2/6
f 17/3/4 23/2/6 14/3/4
f 23/2/6 17/3/4 24/2/7
f 6/1/3 25/1/15 5/1/3
f 25/1/15 6/1/3 26/1/15
f 26/1/15 27/1/16 25/1/15
f 27/1/16 26/1/15 28/1/16
f 25/1/4 9/2/7 5/1/4
f 9/2/7 25/1/4 29/2/17
f 27/1/4 29/2/17 25/1/4
f 29/2/17 27/1/4 30/2/18
f 31/2/19 6/1/9 12/2/11
f 6/1/9 31/2/19 26/1/9
f 32/2/20 26/1/9 31/2/19
f 26/1/9 32/2/20 28/1/9
f 18/3/14 33/3/21 17/3/14
f 33/3/21 18/3/14 34/3/21
f 34/3/21 35/3/22 33/3/21
f 35/3/22 34/3/21 36/3/22
f 9/2/7 37/2/19 21/2/11
f 37/2/19 9/2/7 29/2/17
f 29/2/17 38/2/20 37/2/19
f 38/2/20 29/2/17 30/2/18
f 37/2/19 18/3/9 21/2/11
f 18/3/9 37/2/19 34/3/9
f 38/2/20 34/3/9 37/2/19
f 34/3/9 38/2/20 36/3/9
f 24/2/7 31/2/19 12/2/11
f 31/2/19 24/2/7 39/2/17
f 39/2/17 32/2/20 31/2/19
f 32/2/20 39/2/17 40/2/18
f 33/3/4 24/2/7 17/3/4
f 24/2/7 33/3/4 39/2/17
f 35/3/4 39/2/17 33/3/4
f 39/2/17 35/3/4 40/2/18
f 28/1/16 41/1/23 27/1/16
f 41/1/23 28/1/16 42/1/23
f 42/1/23 43/1/24 41/1/23
f 43/1/24 42/1/23 44/1/24
f 41/1/4 30/2/18 27/1/4
f 30/2/18 41/1/4 45/2/25
f 43/1/4 45/2/25 41/1/4
f 45/2/25 43/1/4 46/2/26
f 47/2/27 28/1/9 32/2/20
f 28/1/9 47/2/27 42/1/9
f 48/2/28 42/1/9 47/2/27
f 42/1/9 48/2/28 44/1/9
f 36/3/22 49/3/29 35/3/22
f 49/3/29 36/3/22 50/3/29
f 50/3/29 51/3/30 49/3/29
f 51/3/30 50/3/29 52/3/30
f 30/2/18 53/2/27 38/2/20
f 53/2/27 30/2/18 45/2/25
f 45/2/25 54/2/28 53/2/27
f 54/2/28 45/2/25 46/2/26
f 53/2/27 36/3/9 38/2/20
f 36/3/9 53/2/27 50/3/9
f 54/2/28 50/3/9 53/2/27
f 50/3/9 54/2/28 52/3/9
f 40/2/18 47/2/27 32/2/20
f 47/2/27 40/2/18 55/2/25
f 55/2/25 48/2/28 47/2/27
f 48/2/28 55/2/25 56/2/26
f 49/3/4 40/2/18 35/3/4
f 40/2/18 49/3/4 55/2/25
f 51/3/4 55/2/25 49/3/4
f 55/2/25 51/3/4 56/2/26
f 44/1/24 57/1/31 43/1/24
f 57/1/31 44/1/24 58/1/31
f 58/1/31 59/1/32 57/1/31
f 59/1/32 58/1/31 60/1/32
f 57/1/4 46/2/26 43/1/4
f 46/2/26 57/1/4 61/2/33
f 59/1/4 61/2/33 57/1/4
f 61/2/33 59/1/4 62/2/34
f 63/2/35 44/1/9 48/2/28
f 44/1/9 63/2/35 58/1/9
f 64/2/36 58/1/9 63/2/35
f 58/1/9 64/2/36 60/1/9
f 52/3/30 65/3/37 51/3/30
f 65/3/37 52/3/30 66/3/37
f 66/3/37 67/3/38 65/3/37
f 67/3/38 66/3/37 68/3/38
f 46/2/26 69/2/35 54/2/28
f 69/2/35 46/2/26 61/2/33
f 61/2/33 70/2/36 69/2/35
f 70/2/36 61/2/33 62/2/34
f 69/2/35 52/3/9 54/2/28
f 52/3/9 69/2/35 66/3/9
f 70/2/36 66/3/9 69/2/35
f 66/3/9 70/2/36 68/3/9
f 56/2/26 63/2/35 48/2/28
f 63/2/35 56/2/26 71/2/33
f 71/2/33 64/2/36 63/2/35
f 64/2/36 71/2/33 72/2/34
f 65/3/4 56/2/26 51/3/4
f 56/2/26 65/3/4 71/2/33
f 67/3/4 71/2/33 65/3/4
f 71/2/33 67/3/4 72/2/34
f 60/1/32 73/1/39 59/1/32
f 73/1/39 60/1/32 74/1/39
f 74/1/39 73/1/39 73/1/39
f 73/1/39 74/1/39 74/1/39
f 73/1/4 62/2/34 59/1/4
f 62/2/34 73/1/4 75/2/40
f 73/1/4 75/2/40 73/1/4
f 75/2/40 73/1/4 75/2/40
f 76/2/41 60/1/9 64/2/36
f 60/1/9 76/2/41 74/1/9
f 76/2/41 74/1/9 76/2/41
f 74/1/9 76/2/41 74/1/9
f 68/3/38 77/3/42 67/3/38
f 77/3/42 68/3/38 78/3/42
f 78/3/42 77/3/42 77/3/42
f 77/3/42 78/3/42 78/3/42
f 62/2/34 79/2/41 70/2/36
f 79/2/41 62/2/34 75/2/40
f 75/2/40 79/2/41 79/2/41
f 79/2/41 75/2/40 75/2/40
f 79/2/41 68/3/9 70/2/36
f 68/3/9 79/2/41 78/3/9
f 79/2/41 78/3/9 79/2/41
f 78/3/9 79/2/41 78/3/9
f 72/2/34 76/2/41 64/2/36
f 76/2/41 72/2/34 80/2/40
f 80/2/40 76/2/41 76/2/41
f 76/2/41 80/2/40 80/2/40
f 77/3/4 72/2/34 67/3/4
f 72/2/34 77/3/4 80/2/40
f 77/3/4 80/2/40 77/3/4
f 80/2/40 77/3/4 80/2/40
f 83/3/43 82/2/43 81/2/43
f 83/3/43 84/1/43 82/2/43
f 84/1/43 83/3/43 85/1/43
f 86/3/43 85/1/43 83/3/43
f 85/1/43 86/3/43 87/2/43
f 87/2/43 86/3/43 88/2/43
f 91/4/45 90/5/44 89/4/44
f 90/5/44 91/4/45 92/5/45
f 90/5/44 93/4/46 89/4/44
f 93/4/46 90/5/44 94/5/46
f 97/4/47 96/4/47 95/4/47
f 96/4/47 97/4/47 93/4/47
f 93/4/47 97/4/47 89/4/47
f 89/4/47 97/4/47 91/4/47
f 98/4/47 96/4/47 93/4/47
f 98/4/47 99/4/47 96/4/47
f 98/4/47 100/4/47 99/4/47
f 101/4/47 100/4/47 98/4/47
f 102/4/47 100/4/47 101/4/47
f 100/4/47 102/4/47 103/4/47
f 105/5/49 101/4/48 104/5/48
f 101/4/48 105/5/49 102/4/49
f 106/5/50 101/4/48 98/4/50
f 101/4/48 106/5/50 104/5/48
f 107/5/9 102/4/49 105/5/49
f 102/4/49 107/5/9 103/4/9
f 97/4/4 92/5/45 91/4/45
f 92/5/45 97/4/4 108/5/4
f 94/5/46 98/4/50 93/4/46
f 98/4/50 94/5/46 106/5/50
f 100/4/4 109/5/4 99/4/4
f 109/5/4 100/4/4 110/5/4
f 109/5/51 96/4/51 99/4/51
f 96/4/51 109/5/51 111/5/51
f 112/5/9 96/4/9 111/5/9
f 96/4/9 112/5/9 95/4/9
f 108/5/52 90/5/52 92/5/52
f 112/5/52 90/5/52 108/5/52
f 111/5/52 90/5/52 112/5/52
f 111/5/52 94/5/52 90/5/52
f 109/5/52 94/5/52 111/5/52
f 94/5/52 109/5/52 106/5/52
f 110/5/52 106/5/52 109/5/52
f 110/5/52 104/5/52 106/5/52
f 107/5/52 104/5/52 110/5/52
f 104/5/52 107/5/52 105/5/52
f 115/3/51 114/2/51 113/2/51
f 115/3/51 116/1/51 114/2/51
f 116/1/51 115/3/51 117/1/51
f 118/3/51 117/1/51 115/3/51
f 117/1/51 118/3/51 119/2/51
f 119/2/51 118/3/51 120/2/51
f 123/4/54 122/5/53 121/4/53
f 122/5/53 123/4/54 124/5/54
f 122/5/53 125/4/55 121/4/53
f 125/4/55 122/5/53 126/5/55
f 129/4/47 128/4/47 127/4/47
f 128/4/47 129/4/47 125/4/47
f 125/4/47 129/4/47 121/4/47
f 121/4/47 129/4/47 123/4/47
f 130/4/47 128/4/47 125/4/47
f 130/4/47 131/4/47 128/4/47
f 130/4/47 132/4/47 131/4/47
f 133/4/47 132/4/47 130/4/47
f 134/4/47 132/4/47 133/4/47
f 132/4/47 134/4/47 135/4/47
f 137/5/57 133/4/56 136/5/56
f 133/4/56 137/5/57 134/4/57
f 138/5/58 133/4/56 130/4/58
f 133/4/56 138/5/58 136/5/56
f 139/5/59 134/4/57 137/5/57
f 134/4/57 139/5/59 135/4/59
f 129/4/60 124/5/54 123/4/54
f 124/5/54 129/4/60 140/5/60
f 126/5/55 130/4/58 125/4/55
f 130/4/58 126/5/55 138/5/58
f 132/4/60 141/5/60 131/4/60
f 141/5/60 132/4/60 142/5/60
f 141/5/61 128/4/61 131/4/61
f 128/4/61 141/5/61 143/5/61
f 144/5/59 128/4/59 143/5/59
f 128/4/59 144/5/59 127/4/59
f 140/5/52 122/5/52 124/5/52
f 144/5/52 122/5/52 140/5/52
f 143/5/52 122/5/52 144/5/52
f 143/5/52 126/5/52 122/5/52
f 141/5/52 126/5/52 143/5/52
f 126/5/52 141/5/52 138/5/52
f 142/5/52 138/5/52 141/5/52
f 142/5/52 136/5/52 138/5/52
f 139/5/52 136/5/52 142/5/52
f 136/5/52 139/5/52 137/5/52

g track-narrow-straight-bump-up




usemtl colormap

f 3/1/1 2/1/2 1/1/1
f 2/1/2 3/1/1 4/1/2
f 4/1/2 5/1/3 2/1/2
f 5/1/3 4/1/2 6/1/3
f 2/1/4 7/2/5 1/1/4
f 7/2/5 2/1/4 8/2/6
f 5/1/4 8/2/6 2/1/4
f 8/2/6 5/1/4 9/2/7
f 11/2/10 3/1/9 10/2/8
f 3/1/9 11/2/10 4/1/9
f 12/2/11 4/1/9 11/2/10
f 4/1/9 12/2/11 6/1/9
f 15/3/12 14/3/13 13/3/12
f 14/3/13 15/3/12 16/3/13
f 16/3/13 17/3/14 14/3/13
f 17/3/14 16/3/13 18/3/14
f 7/2/5 20/2/10 19/2/8
f 20/2/10 7/2/5 8/2/6
f 8/2/6 21/2/11 20/2/10
f 21/2/11 8/2/6 9/2/7
f 20/2/10 15/3/9 19/2/8
f 15/3/9 20/2/10 16/3/9
f 21/2/11 16/3/9 20/2/10
f 16/3/9 21/2/11 18/3/9
f 22/2/5 11/2/10 10/2/8
f 11/2/10 22/2/5 23/2/6
f 23/2/6 12/2/11 11/2/10
f 12/2/11 23/2/6 24/2/7
f 14/3/4 22/2/5 13/3/4
f 22/2/5 14/3/4 23/2/6
f 17/3/4 23/2/6 14/3/4
f 23/2/6 17/3/4 24/2/7
f 6/1/3 25/1/15 5/1/3
f 25/1/15 6/1/3 26/1/15
f 26/1/15 27/1/16 25/1/15
f 27/1/16 26/1/15 28/1/16
f 25/1/4 9/2/7 5/1/4
f 9/2/7 25/1/4 29/2/17
f 27/1/4 29/2/17 25/1/4
f 29/2/17 27/1/4 30/2/18
f 31/2/19 6/1/9 12/2/11
f 6/1/9 31/2/19 26/1/9
f 32/2/20 26/1/9 31/2/19
f 26/1/9 32/2/20 28/1/9
f 18/3/14 33/3/21 17/3/14
f 33/3/21 18/3/14 34/3/21
f 34/3/21 35/3/22 33/3/21
f 35/3/22 34/3/21 36/3/22
f 9/2/7 37/2/19 21/2/11
f 37/2/19 9/2/7 29/2/17
f 29/2/17 38/2/20 37/2/19
f 38/2/20 29/2/17 30/2/18
f 37/2/19 18/3/9 21/2/11
f 18/3/9 37/2/19 34/3/9
f 38/2/20 34/3/9 37/2/19
f 34/3/9 38/2/20 36/3/9
f 24/2/7 31/2/19 12/2/11
f 31/2/19 24/2/7 39/2/17
f 39/2/17 32/2/20 31/2/19
f 32/2/20 39/2/17 40/2/18
f 33/3/4 24/2/7 17/3/4
f 24/2/7 33/3/4 39/2/17
f 35/3/4 39/2/17 33/3/4
f 39/2/17 35/3/4 40/2/18
f 28/1/16 41/1/23 27/1/16
f 41/1/23 28/1/16 42/1/23
f 42/1/23 43/1/24 41/1/23
f 43/1/24 42/1/23 44/1/24
f 41/1/4 30/2/18 27/1/4
f 30/2/18 41/1/4 45/2/25
f 43/1/4 45/2/25 41/1/4
f 45/2/25 43/1/4 46/2/26
f 47/2/27 28/1/9 32/2/20
f 28/1/9 47/2/27 42/1/9
f 48/2/28 42/1/9 47/2/27
f 42/1/9 48/2/28 44/1/9
f 36/3/22 49/3/29 35/3/22
f 49/3/29 36/3/22 50/3/29
f 50/3/29 51/3/30 49/3/29
f 51/3/30 50/3/29 52/3/30
f 30/2/18 53/2/27 38/2/20
f 53/2/27 30/2/18 45/2/25
f 45/2/25 54/2/28 53/2/27
f 54/2/28 45/2/25 46/2/26
f 53/2/27 36/3/9 38/2/20
f 36/3/9 53/2/27 50/3/9
f 54/2/28 50/3/9 53/2/27
f 50/3/9 54/2/28 52/3/9
f 40/2/18 47/2/27 32/2/20
f 47/2/27 40/2/18 55/2/25
f 55/2/25 48/2/28 47/2/27
f 48/2/28 55/2/25 56/2/26
f 49/3/4 40/2/18 35/3/4
f 40/2/18 49/3/4 55/2/25
f 51/3/4 55/2/25 49/3/4
f 55/2/25 51/3/4 56/2/26
f 44/1/24 57/1/31 43/1/24
f 57/1/31 44/1/24 58/1/31
f 58/1/31 59/1/32 57/1/31
f 59/1/32 58/1/31 60/1/32
f 57/1/4 46/2/26 43/1/4
f 46/2/26 57/1/4 61/2/33
f 59/1/4 61/2/33 57/1/4
f 61/2/33 59/1/4 62/2/34
f 63/2/35 44/1/9 48/2/28
f 44/1/9 63/2/35 58/1/9
f 64/2/36 58/1/9 63/2/35
f 58/1/9 64/2/36 60/1/9
f 52/3/30 65/3/37 51/3/30
f 65/3/37 52/3/30 66/3/37
f 66/3/37 67/3/38 65/3/37
f 67/3/38 66/3/37 68/3/38
f 46/2/26 69/2/35 54/2/28
f 69/2/35 46/2/26 61/2/33
f 61/2/33 70/2/36 69/2/35
f 70/2/36 61/2/33 62/2/34
f 69/2/35 52/3/9 54/2/28
f 52/3/9 69/2/35 66/3/9
f 70/2/36 66/3/9 69/2/35
f 66/3/9 70/2/36 68/3/9
f 56/2/26 63/2/35 48/2/28
f 63/2/35 56/2/26 71/2/33
f 71/2/33 64/2/36 63/2/35
f 64/2/36 71/2/33 72/2/34
f 65/3/4 56/2/26 51/3/4
f 56/2/26 65/3/4 71/2/33
f 67/3/4 71/2/33 65/3/4
f 71/2/33 67/3/4 72/2/34
f 60/1/32 73/1/39 59/1/32
f 73/1/39 60/1/32 74/1/39
f 74/1/39 73/1/39 73/1/39
f 73/1/39 74/1/39 74/1/39
f 73/1/4 62/2/34 59/1/4
f 62/2/34 73/1/4 75/2/40
f 73/1/4 75/2/40 73/1/4
f 75/2/40 73/1/4 75/2/40
f 76/2/41 60/1/9 64/2/36
f 60/1/9 76/2/41 74/1/9
f 76/2/41 74/1/9 76/2/41
f 74/1/9 76/2/41 74/1/9
f 68/3/38 77/3/42 67/3/38
f 77/3/42 68/3/38 78/3/42
f 78/3/42 77/3/42 77/3/42
f 77/3/42 78/3/42 78/3/42
f 62/2/34 79/2/41 70/2/36
f 79/2/41 62/2/34 75/2/40
f 75/2/40 79/2/41 79/2/41
f 79/2/41 75/2/40 75/2/40
f 79/2/41 68/3/9 70/2/36
f 68/3/9 79/2/41 78/3/9
f 79/2/41 78/3/9 79/2/41
f 78/3/9 79/2/41 78/3/9
f 72/2/34 76/2/41 64/2/36
f 76/2/41 72/2/34 80/2/40
f 80/2/40 76/2/41 76/2/41
f 76/2/41 80/2/40 80/2/40
f 77/3/4 72/2/34 67/3/4
f 72/2/34 77/3/4 80/2/40
f 77/3/4 80/2/40 77/3/4
f 80/2/40 77/3/4 80/2/40
f 83/3/43 82/2/43 81/2/43
f 83/3/43 84/1/43 82/2/43
f 84/1/43 83/3/43 85/1/43
f 86/3/43 85/1/43 83/3/43
f 85/1/43 86/3/43 87/2/43
f 87/2/43 86/3/43 88/2/43
f 91/4/45 90/5/44 89/4/44
f 90/5/44 91/4/45 92/5/45
f 90/5/44 93/4/46 89/4/44
f 93/4/46 90/5/44 94/5/46
f 97/4/47 96/4/47 95/4/47
f 96/4/47 97/4/47 93/4/47
f 93/4/47 97/4/47 89/4/47
f 89/4/47 97/4/47 91/4/47
f 98/4/47 96/4/47 93/4/47
f 98/4/47 99/4/47 96/4/47
f 98/4/47 100/4/47 99/4/47
f 101/4/47 100/4/47 98/4/47
f 102/4/47 100/4/47 101/4/47
f 100/4/47 102/4/47 103/4/47
f 105/5/49 101/4/48 104/5/48
f 101/4/48 105/5/49 102/4/49
f 106/5/50 101/4/48 98/4/50
f 101/4/48 106/5/50 104/5/48
f 107/5/9 102/4/49 105/5/49
f 102/4/49 107/5/9 103/4/9
f 97/4/4 92/5/45 91/4/45
f 92/5/45 97/4/4 108/5/4
f 94/5/46 98/4/50 93/4/46
f 98/4/50 94/5/46 106/5/50
f 100/4/4 109/5/4 99/4/4
f 109/5/4 100/4/4 110/5/4
f 109/5/51 96/4/51 99/4/51
f 96/4/51 109/5/51 111/5/51
f 112/5/9 96/4/9 111/5/9
f 96/4/9 112/5/9 95/4/9
f 108/5/52 90/5/52 92/5/52
f 112/5/52 90/5/52 108/5/52
f 111/5/52 90/5/52 112/5/52
f 111/5/52 94/5/52 90/5/52
f 109/5/52 94/5/52 111/5/52
f 94/5/52 109/5/52 106/5/52
f 110/5/52 106/5/52 109/5/52
f 110/5/52 104/5/52 106/5/52
f 107/5/52 104/5/52 110/5/52
f 104/5/52 107/5/52 105/5/52
f 115/3/51 114/2/51 113/2/51
f 115/3/51 116/1/51 114/2/51
f 116/1/51 115/3/51 117/1/51
f 118/3/51 117/1/51 115/3/51
f 117/1/51 118/3/51 119/2/51
f 119/2/51 118/3/51 120/2/51
f 123/4/54 122/5/53 121/4/53
f 122/5/53 123/4/54 124/5/54
f 122/5/53 125/4/55 121/4/53
f 125/4/55 122/5/53 126/5/55
f 129/4/47 128/4/47 127/4/47
f 128/4/47 129/4/47 125/4/47
f 125/4/47 129/4/47 121/4/47
f 121/4/47 129/4/47 123/4/47
f 130/4/47 128/4/47 125/4/47
f 130/4/47 131/4/47 128/4/47
f 130/4/47 132/4/47 131/4/47
f 133/4/47 132/4/47 130/4/47
f 134/4/47 132/4/47 133/4/47
f 132/4/47 134/4/47 135/4/47
f 137/5/57 133/4/56 136/5/56
f 133/4/56 137/5/57 134/4/57
f 138/5/58 133/4/56 130/4/58
f 133/4/56 138/5/58 136/5/56
f 139/5/59 134/4/57 137/5/57
f 134/4/57 139/5/59 135/4/59
f 129/4/60 124/5/54 123/4/54
f 124/5/54 129/4/60 140/5/60
f 126/5/55 130/4/58 125/4/55
f 130/4/58 126/5/55 138/5/58
f 132/4/60 141/5/60 131/4/60
f 141/5/60 132/4/60 142/5/60
f 141/5/61 128/4/61 131/4/61
f 128/4/61 141/5/61 143/5/61
f 144/5/59 128/4/59 143/5/59
f 128/4/59 144/5/59 127/4/59
f 140/5/52 122/5/52 124/5/52
f 144/5/52 122/5/52 140/5/52
f 143/5/52 122/5/52 144/5/52
f 143/5/52 126/5/52 122/5/52
f 141/5/52 126/5/52 143/5/52
f 126/5/52 141/5/52 138/5/52
f 142/5/52 138/5/52 141/5/52
f 142/5/52 136/5/52 138/5/52
f 139/5/52 136/5/52 142/5/52
f 136/5/52 139/5/52 137/5/52

