# Created by Kenney (www.kenney.nl)

mtllib track-striped-narrow-corner-small.mtl

g track-striped-narrow-corner-small

v 0.1409717 0 1.206511 1 1 1
v 0.399622 0 0.6410418 1 1 1
v -0.7119136 0 0.6844128 1 1 1
v -0.554939 0 0.343026 1 1 1
v -0.554939 0.3 0.343026 1 1 1
v -0.7119136 0.3 0.6844128 1 1 1
v 0.3041658 0.1 0.6112401 1 1 1
v 0.3041658 0.3 0.6112401 1 1 1
v 0.05568314 0.1 1.154301 1 1 1
v 0.05568314 0.3 1.154301 1 1 1
v -0.459483 0.3 0.3728276 1 1 1
v -0.6266251 0.3 0.7366226 1 1 1
v 0.399622 0.3 0.6410418 1 1 1
v 0.1409717 0.3 1.206511 1 1 1
v -0.459483 0.1 0.3728276 1 1 1
v -0.6266251 0.1 0.7366226 1 1 1
v 0.5 0 4.172325E-06 1 1 1
v -0.5 0 2.026558E-06 1 1 1
v 0.4000001 0.1 3.933907E-06 1 1 1
v 0.4000001 0.3 3.933907E-06 1 1 1
v 0.5 0.3 4.172325E-06 1 1 1
v -0.4 0.1 2.264977E-06 1 1 1
v -0.5 0.3 2.026558E-06 1 1 1
v -0.4 0.3 2.264977E-06 1 1 1
v -0.6932662 0 2.07657 1 1 1
v -0.2302382 0 1.686495 1 1 1
v -1.251984 0 1.247212 1 1 1
v -0.9516237 0 0.9939617 1 1 1
v -0.9516237 0.3 0.9939617 1 1 1
v -1.251984 0.3 1.247212 1 1 1
v -0.3023767 0.1 1.617242 1 1 1
v -0.3023767 0.3 1.617242 1 1 1
v -0.749138 0.1 1.993634 1 1 1
v -0.749138 0.3 1.993634 1 1 1
v -0.8794851 0.3 1.063215 1 1 1
v -1.196112 0.3 1.330148 1 1 1
v -0.2302382 0.3 1.686495 1 1 1
v -0.6932662 0.3 2.07657 1 1 1
v -0.8794851 0.1 1.063215 1 1 1
v -1.196112 0.1 1.330148 1 1 1
v -1.870812 0 2.495858 1 1 1
v -1.242316 0 2.359844 1 1 1
v -1.934587 0 1.497894 1 1 1
v -1.58936 0 1.421995 1 1 1
v -1.58936 0.3 1.421995 1 1 1
v -1.934587 0.3 1.497894 1 1 1
v -1.277021 0.1 2.266059 1 1 1
v -1.277021 0.3 2.266059 1 1 1
v -1.877189 0.1 2.396062 1 1 1
v -1.877189 0.3 2.396062 1 1 1
v -1.554656 0.3 1.51578 1 1 1
v -1.928209 0.3 1.59769 1 1 1
v -1.242316 0.3 2.359844 1 1 1
v -1.870812 0.3 2.495858 1 1 1
v -1.554656 0.1 1.51578 1 1 1
v -1.928209 0.1 1.59769 1 1 1
v -1.999996 0 2.5 1 1 1
v -1.999998 0 1.5 1 1 1
v -1.999998 0.3 1.5 1 1 1
v -1.999996 0.1 2.4 1 1 1
v -1.999996 0.3 2.4 1 1 1
v -1.999998 0.3 1.6 1 1 1
v -1.999996 0.3 2.5 1 1 1
v -1.999998 0.1 1.6 1 1 1
v -0.4 0.3 0 1 1 1
v -0.5 0.3 0 1 1 1
v -0.4 0.1 0 1 1 1
v -0.5 0 0 1 1 1
v 0.5 0 0 1 1 1
v 0.4 0.1 0 1 1 1
v 0.5 0.3 0 1 1 1
v 0.4 0.3 0 1 1 1
v -0.1207107 0 -0.1707107 1 1 1
v -0.1207107 0.05000001 -0.1707107 1 1 1
v -0.15 0 -0.1 1 1 1
v -0.15 0.05000001 -0.1 1 1 1
v -0.05 0 -0.2 1 1 1
v -0.05 0.05000001 -0.2 1 1 1
v -0.05 0 7.219114E-16 1 1 1
v -0.05 0 -0.1 1 1 1
v -0.15 0 1.082867E-15 1 1 1
v 0.05 0 -0.2 1 1 1
v 0.05 0 -0.1 1 1 1
v 0.05 0 3.609557E-16 1 1 1
v 0.1207107 0 -0.1707107 1 1 1
v 0.15 0 -0.1 1 1 1
v 0.15 0 0 1 1 1
v 0.1207107 0.05000001 -0.1707107 1 1 1
v 0.15 0.05000001 -0.1 1 1 1
v 0.05 0.05000001 -0.2 1 1 1
v 0.15 0.05000001 0 1 1 1
v -0.15 0.05000001 1.082867E-15 1 1 1
v 0.05 0.05000001 -0.1 1 1 1
v 0.05 0.05000001 3.609557E-16 1 1 1
v -0.05 0.05000001 -0.1 1 1 1
v -0.05 0.05000001 7.219114E-16 1 1 1
v -2 0.3 2.4 1 1 1
v -2 0.3 2.5 1 1 1
v -2 0.1 2.4 1 1 1
v -2 0 2.5 1 1 1
v -2 0 1.5 1 1 1
v -2 0.1 1.6 1 1 1
v -2 0.3 1.5 1 1 1
v -2 0.3 1.6 1 1 1
v -2.170711 0 2.120711 1 1 1
v -2.170711 0.05000001 2.120711 1 1 1
v -2.1 0 2.15 1 1 1
v -2.1 0.05000001 2.15 1 1 1
v -2.2 0 2.05 1 1 1
v -2.2 0.05000001 2.05 1 1 1
v -2 0 2.05 1 1 1
v -2.1 0 2.05 1 1 1
v -2 0 2.15 1 1 1
v -2.2 0 1.95 1 1 1
v -2.1 0 1.95 1 1 1
v -2 0 1.95 1 1 1
v -2.170711 0 1.879289 1 1 1
v -2.1 0 1.85 1 1 1
v -2 0 1.85 1 1 1
v -2.170711 0.05000001 1.879289 1 1 1
v -2.1 0.05000001 1.85 1 1 1
v -2.2 0.05000001 1.95 1 1 1
v -2 0.05000001 1.85 1 1 1
v -2 0.05000001 2.15 1 1 1
v -2.1 0.05000001 1.95 1 1 1
v -2 0.05000001 1.95 1 1 1
v -2.1 0.05000001 2.05 1 1 1
v -2 0.05000001 2.05 1 1 1

vn 0 -1 0
vn -0.954561 0 -0.2980156
vn -0.6749765 0.7071068 -0.2107289
vn -0.8528852 0 -0.5220984
vn -0.603081 0.7071068 -0.3691793
vn 0.6749765 0.7071068 0.2107289
vn 0.603081 0.7071068 0.3691793
vn 0.954561 0 0.2980156
vn 0.8528852 0 0.5220984
vn 0 1 0
vn -1 0 -2.06452E-06
vn -0.7071068 0.7071068 -1.459836E-06
vn 0.7071068 0.7071068 1.459836E-06
vn 1 0 2.06452E-06
vn -0.7213855 0 -0.6925338
vn -0.5100965 0.7071068 -0.4896953
vn -0.5587178 0 -0.8293579
vn -0.3950732 0.7071068 -0.5864446
vn 0.5100965 0.7071068 0.4896953
vn 0.3950732 0.7071068 0.5864446
vn 0.7213855 0 0.6925338
vn 0.5587178 0 0.8293579
vn -0.3470438 0 -0.937849
vn -0.245397 0.7071068 -0.6631594
vn -0.06377482 0 -0.9979642
vn -0.04509562 0.7071068 -0.7056673
vn 0.245397 0.7071068 0.6631594
vn 0.04509562 0.7071068 0.7056673
vn 0.3470438 0 0.937849
vn 0.06377482 0 0.9979642
vn -2.205372E-06 0 -0.9999999
vn -1.549721E-06 0.7071068 -0.7071067
vn 1.549721E-06 0.7071068 0.7071067
vn 2.205372E-06 0 0.9999999
vn 0 0 -1
vn -0.7071068 0 -0.7071068
vn -0.9807853 0 -0.1950903
vn -0.1950903 0 -0.9807853
vn 0.7071068 0 -0.7071068
vn 0.9807853 0 -0.1950903
vn 0.1950903 0 -0.9807853
vn 1 0 0
vn -1 0 0
vn 0 0 1
vn -0.9999999 0 3.576279E-07
vn -0.7071065 0 0.7071069
vn -0.19509 0 0.9807853
vn -0.9807851 0 0.1950907
vn -0.7071069 0 -0.7071065
vn -0.1950907 0 -0.9807851
vn -0.9807853 0 -0.19509
vn -3.576279E-07 0 -0.9999999
vn 3.576279E-07 0 0.9999999
vn 0.9999999 0 -3.576279E-07

vt 0.59375 0.275
vt 0.59375 0.475
vt 0.59375 0.3416667
vt 0.59375 0.025
vt 0.59375 0.09166666
vt 0.59375 0.225
vt 0.34375 0.025
vt 0.34375 0.225

usemtl colormap

f 3/1/1 2/1/1 1/1/1
f 2/1/1 3/1/1 4/1/1
f 3/1/4 5/2/3 4/1/2
f 5/2/3 3/1/4 6/2/5
f 9/3/4 8/2/3 7/3/2
f 8/2/3 9/3/4 10/2/5
f 5/2/3 12/2/7 11/2/6
f 12/2/7 5/2/3 6/2/5
f 8/2/3 14/2/7 13/2/6
f 14/2/7 8/2/3 10/2/5
f 12/2/7 15/3/8 11/2/6
f 15/3/8 12/2/7 16/3/9
f 14/2/7 2/1/8 13/2/6
f 2/1/8 14/2/7 1/1/9
f 15/3/10 9/3/10 7/3/10
f 9/3/10 15/3/10 16/3/10
f 4/4/1 17/4/1 2/4/1
f 17/4/1 4/4/1 18/4/1
f 7/5/2 20/6/12 19/5/11
f 20/6/12 7/5/2 8/6/3
f 13/6/6 20/6/12 8/6/3
f 20/6/12 13/6/6 21/6/13
f 13/6/6 17/4/14 21/6/13
f 17/4/14 13/6/6 2/4/8
f 22/5/10 7/5/10 19/5/10
f 7/5/10 22/5/10 15/5/10
f 4/4/2 23/6/12 18/4/11
f 23/6/12 4/4/2 5/6/3
f 11/6/6 23/6/12 5/6/3
f 23/6/12 11/6/6 24/6/13
f 11/6/6 22/5/14 24/6/13
f 22/5/14 11/6/6 15/5/8
f 27/1/1 26/1/1 25/1/1
f 26/1/1 27/1/1 28/1/1
f 27/1/17 29/2/16 28/1/15
f 29/2/16 27/1/17 30/2/18
f 33/3/17 32/2/16 31/3/15
f 32/2/16 33/3/17 34/2/18
f 29/2/16 36/2/20 35/2/19
f 36/2/20 29/2/16 30/2/18
f 32/2/16 38/2/20 37/2/19
f 38/2/20 32/2/16 34/2/18
f 36/2/20 39/3/21 35/2/19
f 39/3/21 36/2/20 40/3/22
f 38/2/20 26/1/21 37/2/19
f 26/1/21 38/2/20 25/1/22
f 39/3/10 33/3/10 31/3/10
f 33/3/10 39/3/10 40/3/10
f 28/4/1 1/4/1 26/4/1
f 1/4/1 28/4/1 3/4/1
f 31/5/15 10/6/5 9/5/4
f 10/6/5 31/5/15 32/6/16
f 37/6/19 10/6/5 32/6/16
f 10/6/5 37/6/19 14/6/7
f 37/6/19 1/4/9 14/6/7
f 1/4/9 37/6/19 26/4/21
f 16/5/10 31/5/10 9/5/10
f 31/5/10 16/5/10 39/5/10
f 28/4/15 6/6/5 3/4/4
f 6/6/5 28/4/15 29/6/16
f 35/6/19 6/6/5 29/6/16
f 6/6/5 35/6/19 12/6/7
f 35/6/19 16/5/9 12/6/7
f 16/5/9 35/6/19 39/5/21
f 43/1/1 42/1/1 41/1/1
f 42/1/1 43/1/1 44/1/1
f 43/1/25 45/2/24 44/1/23
f 45/2/24 43/1/25 46/2/26
f 49/3/25 48/2/24 47/3/23
f 48/2/24 49/3/25 50/2/26
f 45/2/24 52/2/28 51/2/27
f 52/2/28 45/2/24 46/2/26
f 48/2/24 54/2/28 53/2/27
f 54/2/28 48/2/24 50/2/26
f 52/2/28 55/3/29 51/2/27
f 55/3/29 52/2/28 56/3/30
f 54/2/28 42/1/29 53/2/27
f 42/1/29 54/2/28 41/1/30
f 55/3/10 49/3/10 47/3/10
f 49/3/10 55/3/10 56/3/10
f 44/4/1 25/4/1 42/4/1
f 25/4/1 44/4/1 27/4/1
f 47/5/23 34/6/18 33/5/17
f 34/6/18 47/5/23 48/6/24
f 53/6/27 34/6/18 48/6/24
f 34/6/18 53/6/27 38/6/20
f 53/6/27 25/4/22 38/6/20
f 25/4/22 53/6/27 42/4/29
f 40/5/10 47/5/10 33/5/10
f 47/5/10 40/5/10 55/5/10
f 44/4/23 30/6/18 27/4/17
f 30/6/18 44/4/23 45/6/24
f 51/6/27 30/6/18 45/6/24
f 30/6/18 51/6/27 36/6/20
f 51/6/27 40/5/22 36/6/20
f 40/5/22 51/6/27 55/5/29
f 58/1/1 57/1/1 57/1/1
f 57/1/1 58/1/1 58/1/1
f 58/1/31 59/2/32 58/1/31
f 59/2/32 58/1/31 59/2/32
f 60/3/31 61/2/32 60/3/31
f 61/2/32 60/3/31 61/2/32
f 59/2/32 62/2/33 62/2/33
f 62/2/33 59/2/32 59/2/32
f 61/2/32 63/2/33 63/2/33
f 63/2/33 61/2/32 61/2/32
f 62/2/33 64/3/34 62/2/33
f 64/3/34 62/2/33 64/3/34
f 63/2/33 57/1/34 63/2/33
f 57/1/34 63/2/33 57/1/34
f 64/3/10 60/3/10 60/3/10
f 60/3/10 64/3/10 64/3/10
f 58/4/1 41/4/1 57/4/1
f 41/4/1 58/4/1 43/4/1
f 60/5/31 50/6/26 49/5/25
f 50/6/26 60/5/31 61/6/32
f 63/6/33 50/6/26 61/6/32
f 50/6/26 63/6/33 54/6/28
f 63/6/33 41/4/30 54/6/28
f 41/4/30 63/6/33 57/4/34
f 56/5/10 60/5/10 49/5/10
f 60/5/10 56/5/10 64/5/10
f 58/4/31 46/6/26 43/4/25
f 46/6/26 58/4/31 59/6/32
f 62/6/33 46/6/26 59/6/32
f 46/6/26 62/6/33 52/6/28
f 62/6/33 56/5/30 52/6/28
f 56/5/30 62/6/33 64/5/34
f 67/5/35 66/6/35 65/6/35
f 67/5/35 68/4/35 66/6/35
f 68/4/35 67/5/35 69/4/35
f 70/5/35 69/4/35 67/5/35
f 69/4/35 70/5/35 71/6/35
f 71/6/35 70/5/35 72/6/35
f 75/7/37 74/8/36 73/7/36
f 74/8/36 75/7/37 76/8/37
f 74/8/36 77/7/38 73/7/36
f 77/7/38 74/8/36 78/8/38
f 81/7/1 80/7/1 79/7/1
f 80/7/1 81/7/1 77/7/1
f 77/7/1 81/7/1 73/7/1
f 73/7/1 81/7/1 75/7/1
f 82/7/1 80/7/1 77/7/1
f 82/7/1 83/7/1 80/7/1
f 82/7/1 84/7/1 83/7/1
f 85/7/1 84/7/1 82/7/1
f 86/7/1 84/7/1 85/7/1
f 84/7/1 86/7/1 87/7/1
f 89/8/40 85/7/39 88/8/39
f 85/7/39 89/8/40 86/7/40
f 90/8/41 85/7/39 82/7/41
f 85/7/39 90/8/41 88/8/39
f 91/8/42 86/7/40 89/8/40
f 86/7/40 91/8/42 87/7/42
f 81/7/43 76/8/37 75/7/37
f 76/8/37 81/7/43 92/8/43
f 78/8/38 82/7/41 77/7/38
f 82/7/41 78/8/38 90/8/41
f 84/7/43 93/8/43 83/7/43
f 93/8/43 84/7/43 94/8/43
f 93/8/44 80/7/44 83/7/44
f 80/7/44 93/8/44 95/8/44
f 96/8/42 80/7/42 95/8/42
f 80/7/42 96/8/42 79/7/42
f 92/8/10 74/8/10 76/8/10
f 96/8/10 74/8/10 92/8/10
f 95/8/10 74/8/10 96/8/10
f 95/8/10 78/8/10 74/8/10
f 93/8/10 78/8/10 95/8/10
f 78/8/10 93/8/10 90/8/10
f 94/8/10 90/8/10 93/8/10
f 94/8/10 88/8/10 90/8/10
f 91/8/10 88/8/10 94/8/10
f 88/8/10 91/8/10 89/8/10
f 99/3/45 98/2/45 97/2/45
f 99/3/45 100/1/45 98/2/45
f 100/1/45 99/3/45 101/1/45
f 102/3/45 101/1/45 99/3/45
f 101/1/45 102/3/45 103/2/45
f 103/2/45 102/3/45 104/2/45
f 107/7/47 106/8/46 105/7/46
f 106/8/46 107/7/47 108/8/47
f 106/8/46 109/7/48 105/7/46
f 109/7/48 106/8/46 110/8/48
f 113/7/1 112/7/1 111/7/1
f 112/7/1 113/7/1 109/7/1
f 109/7/1 113/7/1 105/7/1
f 105/7/1 113/7/1 107/7/1
f 114/7/1 112/7/1 109/7/1
f 114/7/1 115/7/1 112/7/1
f 114/7/1 116/7/1 115/7/1
f 117/7/1 116/7/1 114/7/1
f 118/7/1 116/7/1 117/7/1
f 116/7/1 118/7/1 119/7/1
f 121/8/50 117/7/49 120/8/49
f 117/7/49 121/8/50 118/7/50
f 122/8/51 117/7/49 114/7/51
f 117/7/49 122/8/51 120/8/49
f 123/8/52 118/7/50 121/8/50
f 118/7/50 123/8/52 119/7/52
f 113/7/53 108/8/47 107/7/47
f 108/8/47 113/7/53 124/8/53
f 110/8/48 114/7/51 109/7/48
f 114/7/51 110/8/48 122/8/51
f 116/7/53 125/8/53 115/7/53
f 125/8/53 116/7/53 126/8/53
f 125/8/54 112/7/54 115/7/54
f 112/7/54 125/8/54 127/8/54
f 128/8/52 112/7/52 127/8/52
f 112/7/52 128/8/52 111/7/52
f 124/8/10 106/8/10 108/8/10
f 128/8/10 106/8/10 124/8/10
f 127/8/10 106/8/10 128/8/10
f 127/8/10 110/8/10 106/8/10
f 125/8/10 110/8/10 127/8/10
f 110/8/10 125/8/10 122/8/10
f 126/8/10 122/8/10 125/8/10
f 126/8/10 120/8/10 122/8/10
f 123/8/10 120/8/10 126/8/10
f 120/8/10 123/8/10 121/8/10

g track-striped-narrow-corner-small




usemtl colormap

f 3/1/1 2/1/1 1/1/1
f 2/1/1 3/1/1 4/1/1
f 3/1/4 5/2/3 4/1/2
f 5/2/3 3/1/4 6/2/5
f 9/3/4 8/2/3 7/3/2
f 8/2/3 9/3/4 10/2/5
f 5/2/3 12/2/7 11/2/6
f 12/2/7 5/2/3 6/2/5
f 8/2/3 14/2/7 13/2/6
f 14/2/7 8/2/3 10/2/5
f 12/2/7 15/3/8 11/2/6
f 15/3/8 12/2/7 16/3/9
f 14/2/7 2/1/8 13/2/6
f 2/1/8 14/2/7 1/1/9
f 15/3/10 9/3/10 7/3/10
f 9/3/10 15/3/10 16/3/10
f 4/4/1 17/4/1 2/4/1
f 17/4/1 4/4/1 18/4/1
f 7/5/2 20/6/12 19/5/11
f 20/6/12 7/5/2 8/6/3
f 13/6/6 20/6/12 8/6/3
f 20/6/12 13/6/6 21/6/13
f 13/6/6 17/4/14 21/6/13
f 17/4/14 13/6/6 2/4/8
f 22/5/10 7/5/10 19/5/10
f 7/5/10 22/5/10 15/5/10
f 4/4/2 23/6/12 18/4/11
f 23/6/12 4/4/2 5/6/3
f 11/6/6 23/6/12 5/6/3
f 23/6/12 11/6/6 24/6/13
f 11/6/6 22/5/14 24/6/13
f 22/5/14 11/6/6 15/5/8
f 27/1/1 26/1/1 25/1/1
f 26/1/1 27/1/1 28/1/1
f 27/1/17 29/2/16 28/1/15
f 29/2/16 27/1/17 30/2/18
f 33/3/17 32/2/16 31/3/15
f 32/2/16 33/3/17 34/2/18
f 29/2/16 36/2/20 35/2/19
f 36/2/20 29/2/16 30/2/18
f 32/2/16 38/2/20 37/2/19
f 38/2/20 32/2/16 34/2/18
f 36/2/20 39/3/21 35/2/19
f 39/3/21 36/2/20 40/3/22
f 38/2/20 26/1/21 37/2/19
f 26/1/21 38/2/20 25/1/22
f 39/3/10 33/3/10 31/3/10
f 33/3/10 39/3/10 40/3/10
f 28/4/1 1/4/1 26/4/1
f 1/4/1 28/4/1 3/4/1
f 31/5/15 10/6/5 9/5/4
f 10/6/5 31/5/15 32/6/16
f 37/6/19 10/6/5 32/6/16
f 10/6/5 37/6/19 14/6/7
f 37/6/19 1/4/9 14/6/7
f 1/4/9 37/6/19 26/4/21
f 16/5/10 31/5/10 9/5/10
f 31/5/10 16/5/10 39/5/10
f 28/4/15 6/6/5 3/4/4
f 6/6/5 28/4/15 29/6/16
f 35/6/19 6/6/5 29/6/16
f 6/6/5 35/6/19 12/6/7
f 35/6/19 16/5/9 12/6/7
f 16/5/9 35/6/19 39/5/21
f 43/1/1 42/1/1 41/1/1
f 42/1/1 43/1/1 44/1/1
f 43/1/25 45/2/24 44/1/23
f 45/2/24 43/1/25 46/2/26
f 49/3/25 48/2/24 47/3/23
f 48/2/24 49/3/25 50/2/26
f 45/2/24 52/2/28 51/2/27
f 52/2/28 45/2/24 46/2/26
f 48/2/24 54/2/28 53/2/27
f 54/2/28 48/2/24 50/2/26
f 52/2/28 55/3/29 51/2/27
f 55/3/29 52/2/28 56/3/30
f 54/2/28 42/1/29 53/2/27
f 42/1/29 54/2/28 41/1/30
f 55/3/10 49/3/10 47/3/10
f 49/3/10 55/3/10 56/3/10
f 44/4/1 25/4/1 42/4/1
f 25/4/1 44/4/1 27/4/1
f 47/5/23 34/6/18 33/5/17
f 34/6/18 47/5/23 48/6/24
f 53/6/27 34/6/18 48/6/24
f 34/6/18 53/6/27 38/6/20
f 53/6/27 25/4/22 38/6/20
f 25/4/22 53/6/27 42/4/29
f 40/5/10 47/5/10 33/5/10
f 47/5/10 40/5/10 55/5/10
f 44/4/23 30/6/18 27/4/17
f 30/6/18 44/4/23 45/6/24
f 51/6/27 30/6/18 45/6/24
f 30/6/18 51/6/27 36/6/20
f 51/6/27 40/5/22 36/6/20
f 40/5/22 51/6/27 55/5/29
f 58/1/1 57/1/1 57/1/1
f 57/1/1 58/1/1 58/1/1
f 58/1/31 59/2/32 58/1/31
f 59/2/32 58/1/31 59/2/32
f 60/3/31 61/2/32 60/3/31
f 61/2/32 60/3/31 61/2/32
f 59/2/32 62/2/33 62/2/33
f 62/2/33 59/2/32 59/2/32
f 61/2/32 63/2/33 63/2/33
f 63/2/33 61/2/32 61/2/32
f 62/2/33 64/3/34 62/2/33
f 64/3/34 62/2/33 64/3/34
f 63/2/33 57/1/34 63/2/33
f 57/1/34 63/2/33 57/1/34
f 64/3/10 60/3/10 60/3/10
f 60/3/10 64/3/10 64/3/10
f 58/4/1 41/4/1 57/4/1
f 41/4/1 58/4/1 43/4/1
f 60/5/31 50/6/26 49/5/25
f 50/6/26 60/5/31 61/6/32
f 63/6/33 50/6/26 61/6/32
f 50/6/26 63/6/33 54/6/28
f 63/6/33 41/4/30 54/6/28
f 41/4/30 63/6/33 57/4/34
f 56/5/10 60/5/10 49/5/10
f 60/5/10 56/5/10 64/5/10
f 58/4/31 46/6/26 43/4/25
f 46/6/26 58/4/31 59/6/32
f 62/6/33 46/6/26 59/6/32
f 46/6/26 62/6/33 52/6/28
f 62/6/33 56/5/30 52/6/28
f 56/5/30 62/6/33 64/5/34
f 67/5/35 66/6/35 65/6/35
f 67/5/35 68/4/35 66/6/35
f 68/4/35 67/5/35 69/4/35
f 70/5/35 69/4/35 67/5/35
f 69/4/35 70/5/35 71/6/35
f 71/6/35 70/5/35 72/6/35
f 75/7/37 74/8/36 73/7/36
f 74/8/36 75/7/37 76/8/37
f 74/8/36 77/7/38 73/7/36
f 77/7/38 74/8/36 78/8/38
f 81/7/1 80/7/1 79/7/1
f 80/7/1 81/7/1 77/7/1
f 77/7/1 81/7/1 73/7/1
f 73/7/1 81/7/1 75/7/1
f 82/7/1 80/7/1 77/7/1
f 82/7/1 83/7/1 80/7/1
f 82/7/1 84/7/1 83/7/1
f 85/7/1 84/7/1 82/7/1
f 86/7/1 84/7/1 85/7/1
f 84/7/1 86/7/1 87/7/1
f 89/8/40 85/7/39 88/8/39
f 85/7/39 89/8/40 86/7/40
f 90/8/41 85/7/39 82/7/41
f 85/7/39 90/8/41 88/8/39
f 91/8/42 86/7/40 89/8/40
f 86/7/40 91/8/42 87/7/42
f 81/7/43 76/8/37 75/7/37
f 76/8/37 81/7/43 92/8/43
f 78/8/38 82/7/41 77/7/38
f 82/7/41 78/8/38 90/8/41
f 84/7/43 93/8/43 83/7/43
f 93/8/43 84/7/43 94/8/43
f 93/8/44 80/7/44 83/7/44
f 80/7/44 93/8/44 95/8/44
f 96/8/42 80/7/42 95/8/42
f 80/7/42 96/8/42 79/7/42
f 92/8/10 74/8/10 76/8/10
f 96/8/10 74/8/10 92/8/10
f 95/8/10 74/8/10 96/8/10
f 95/8/10 78/8/10 74/8/10
f 93/8/10 78/8/10 95/8/10
f 78/8/10 93/8/10 90/8/10
f 94/8/10 90/8/10 93/8/10
f 94/8/10 88/8/10 90/8/10
f 91/8/10 88/8/10 94/8/10
f 88/8/10 91/8/10 89/8/10
f 99/3/45 98/2/45 97/2/45
f 99/3/45 100/1/45 98/2/45
f 100/1/45 99/3/45 101/1/45
f 102/3/45 101/1/45 99/3/45
f 101/1/45 102/3/45 103/2/45
f 103/2/45 102/3/45 104/2/45
f 107/7/47 106/8/46 105/7/46
f 106/8/46 107/7/47 108/8/47
f 106/8/46 109/7/48 105/7/46
f 109/7/48 106/8/46 110/8/48
f 113/7/1 112/7/1 111/7/1
f 112/7/1 113/7/1 109/7/1
f 109/7/1 113/7/1 105/7/1
f 105/7/1 113/7/1 107/7/1
f 114/7/1 112/7/1 109/7/1
f 114/7/1 115/7/1 112/7/1
f 114/7/1 116/7/1 115/7/1
f 117/7/1 116/7/1 114/7/1
f 118/7/1 116/7/1 117/7/1
f 116/7/1 118/7/1 119/7/1
f 121/8/50 117/7/49 120/8/49
f 117/7/49 121/8/50 118/7/50
f 122/8/51 117/7/49 114/7/51
f 117/7/49 122/8/51 120/8/49
f 123/8/52 118/7/50 121/8/50
f 118/7/50 123/8/52 119/7/52
f 113/7/53 108/8/47 107/7/47
f 108/8/47 113/7/53 124/8/53
f 110/8/48 114/7/51 109/7/48
f 114/7/51 110/8/48 122/8/51
f 116/7/53 125/8/53 115/7/53
f 125/8/53 116/7/53 126/8/53
f 125/8/54 112/7/54 115/7/54
f 112/7/54 125/8/54 127/8/54
f 128/8/52 112/7/52 127/8/52
f 112/7/52 128/8/52 111/7/52
f 124/8/10 106/8/10 108/8/10
f 128/8/10 106/8/10 124/8/10
f 127/8/10 106/8/10 128/8/10
f 127/8/10 110/8/10 106/8/10
f 125/8/10 110/8/10 127/8/10
f 110/8/10 125/8/10 122/8/10
f 126/8/10 122/8/10 125/8/10
f 126/8/10 120/8/10 122/8/10
f 123/8/10 120/8/10 126/8/10
f 120/8/10 123/8/10 121/8/10

