# Created by Kenney (www.kenney.nl)

mtllib track-striped-narrow-curve.mtl

g track-striped-narrow-curve

v 0.255496 0 1.181028 1 1 1
v 0.444047 0 0.5952277 1 1 1
v -0.6535587 0 0.7643514 1 1 1
v -0.5369606 0 0.4012585 1 1 1
v -0.5369606 0.3 0.4012585 1 1 1
v -0.6535587 0.3 0.7643514 1 1 1
v 0.3459463 0.1 0.5758305 1 1 1
v 0.3459463 0.3 0.5758305 1 1 1
v 0.1645908 0.1 1.13936 1 1 1
v 0.1645908 0.3 1.13936 1 1 1
v -0.4388599 0.3 0.4206553 1 1 1
v -0.5626526 0.3 0.8060188 1 1 1
v 0.444047 0.3 0.5952277 1 1 1
v 0.255496 0.3 1.181028 1 1 1
v -0.4388599 0.1 0.4206553 1 1 1
v -0.5626526 0.1 0.8060188 1 1 1
v 0.5 0 5.722046E-06 1 1 1
v -0.5 0 3.814697E-06 1 1 1
v 0.3999996 0.1 5.245209E-06 1 1 1
v 0.3999996 0.3 5.245209E-06 1 1 1
v 0.5 0.3 5.722046E-06 1 1 1
v -0.3999996 0.1 4.291534E-06 1 1 1
v -0.5 0.3 3.814697E-06 1 1 1
v -0.3999996 0.3 4.291534E-06 1 1 1
v -0.4208527 0 2.124656 1 1 1
v -0.05494118 0 1.699225 1 1 1
v -1.142958 0 1.432873 1 1 1
v -0.856452 0 1.101245 1 1 1
v -0.856452 0.3 1.101245 1 1 1
v -1.142958 0.3 1.432873 1 1 1
v -0.1350918 0.1 1.639427 1 1 1
v -0.1350918 0.3 1.639427 1 1 1
v -0.493063 0.1 2.055478 1 1 1
v -0.493063 0.3 2.055478 1 1 1
v -0.7763014 0.3 1.161043 1 1 1
v -1.070747 0.3 1.502051 1 1 1
v -0.05494118 0.3 1.699225 1 1 1
v -0.4208527 0.3 2.124656 1 1 1
v -0.7763014 0.1 1.161043 1 1 1
v -1.070747 0.1 1.502051 1 1 1
v -1.081113 0 2.818521 1 1 1
v -0.7771597 0 2.484955 1 1 1
v -1.858409 0 2.189386 1 1 1
v -1.489877 0 1.783503 1 1 1
v -1.489877 0.3 1.783503 1 1 1
v -1.858409 0.3 2.189386 1 1 1
v -0.8484316 0.1 2.41481 1 1 1
v -0.8484316 0.3 2.41481 1 1 1
v -1.158842 0.1 2.755607 1 1 1
v -1.158842 0.3 2.755607 1 1 1
v -1.418605 0.3 1.853648 1 1 1
v -1.78068 0.3 2.2523 1 1 1
v -0.7771597 0.3 2.484955 1 1 1
v -1.081113 0.3 2.818521 1 1 1
v -1.418605 0.1 1.853648 1 1 1
v -1.78068 0.1 2.2523 1 1 1
v -1.442371 0 3.507336 1 1 1
v -1.305294 0 3.152232 1 1 1
v -2.41127 0 3.259881 1 1 1
v -2.189363 0 2.684877 1 1 1
v -2.189363 0.3 2.684877 1 1 1
v -2.41127 0.3 3.259881 1 1 1
v -1.393701 0.1 3.105497 1 1 1
v -1.393701 0.3 3.105497 1 1 1
v -1.539261 0.1 3.48259 1 1 1
v -1.539261 0.3 3.48259 1 1 1
v -2.100956 0.3 2.731613 1 1 1
v -2.314381 0.3 3.284627 1 1 1
v -1.305294 0.3 3.152232 1 1 1
v -1.442371 0.3 3.507336 1 1 1
v -2.100956 0.1 2.731613 1 1 1
v -2.314381 0.1 3.284627 1 1 1
v -1.5 0 3.999996 1 1 1
v -1.497867 0 3.898423 1 1 1
v -2.5 0 3.999994 1 1 1
v -2.496956 0 3.855755 1 1 1
v -2.496956 0.3 3.855755 1 1 1
v -2.5 0.3 3.999994 1 1 1
v -1.597775 0.1 3.894156 1 1 1
v -1.597775 0.3 3.894156 1 1 1
v -1.6 0.1 3.999996 1 1 1
v -1.6 0.3 3.999996 1 1 1
v -2.397047 0.3 3.860022 1 1 1
v -2.4 0.3 3.999994 1 1 1
v -1.497867 0.3 3.898423 1 1 1
v -1.5 0.3 3.999996 1 1 1
v -2.397047 0.1 3.860022 1 1 1
v -2.4 0.1 3.999994 1 1 1
v -0.4 0.3 0 1 1 1
v -0.5 0.3 0 1 1 1
v -0.4 0.1 0 1 1 1
v -0.5 0 0 1 1 1
v 0.5 0 0 1 1 1
v 0.4 0.1 0 1 1 1
v 0.5 0.3 0 1 1 1
v 0.4 0.3 0 1 1 1
v -0.1207107 0 -0.1707107 1 1 1
v -0.1207107 0.05000001 -0.1707107 1 1 1
v -0.15 0 -0.1 1 1 1
v -0.15 0.05000001 -0.1 1 1 1
v -0.05 0 -0.2 1 1 1
v -0.05 0.05000001 -0.2 1 1 1
v -0.05 0 7.219114E-16 1 1 1
v -0.05 0 -0.1 1 1 1
v -0.15 0 1.082867E-15 1 1 1
v 0.05 0 -0.2 1 1 1
v 0.05 0 -0.1 1 1 1
v 0.05 0 3.609557E-16 1 1 1
v 0.1207107 0 -0.1707107 1 1 1
v 0.15 0 -0.1 1 1 1
v 0.15 0 0 1 1 1
v 0.1207107 0.05000001 -0.1707107 1 1 1
v 0.15 0.05000001 -0.1 1 1 1
v 0.05 0.05000001 -0.2 1 1 1
v 0.15 0.05000001 0 1 1 1
v -0.15 0.05000001 1.082867E-15 1 1 1
v 0.05 0.05000001 -0.1 1 1 1
v 0.05 0.05000001 3.609557E-16 1 1 1
v -0.05 0.05000001 -0.1 1 1 1
v -0.05 0.05000001 7.219114E-16 1 1 1
v -1.6 0.3 4 1 1 1
v -1.5 0.3 4 1 1 1
v -1.6 0.1 4 1 1 1
v -1.5 0 4 1 1 1
v -2.5 0 4 1 1 1
v -2.4 0.1 4 1 1 1
v -2.5 0.3 4 1 1 1
v -2.4 0.3 4 1 1 1
v -1.879289 0 4.170711 1 1 1
v -1.879289 0.05000001 4.170711 1 1 1
v -1.85 0 4.1 1 1 1
v -1.85 0.05000001 4.1 1 1 1
v -1.95 0 4.2 1 1 1
v -1.95 0.05000001 4.2 1 1 1
v -1.95 0 4 1 1 1
v -1.95 0 4.1 1 1 1
v -1.85 0 4 1 1 1
v -2.05 0 4.2 1 1 1
v -2.05 0 4.1 1 1 1
v -2.05 0 4 1 1 1
v -2.120711 0 4.170711 1 1 1
v -2.15 0 4.1 1 1 1
v -2.15 0 4 1 1 1
v -2.120711 0.05000001 4.170711 1 1 1
v -2.15 0.05000001 4.1 1 1 1
v -2.05 0.05000001 4.2 1 1 1
v -2.15 0.05000001 4 1 1 1
v -1.85 0.05000001 4 1 1 1
v -2.05 0.05000001 4.1 1 1 1
v -2.05 0.05000001 4 1 1 1
v -1.95 0.05000001 4.1 1 1 1
v -1.95 0.05000001 4 1 1 1

vn 0 -1 0
vn -0.9810076 0 -0.1939691
vn -0.6936771 0.7071068 -0.1371569
vn -0.9090545 0 -0.4166771
vn -0.6427986 0.7071068 -0.2946352
vn 0.6936771 0.7071068 0.1371569
vn 0.6427986 0.7071068 0.2946352
vn 0.9810076 0 0.1939691
vn 0.9090545 0 0.4166771
vn 0 1 0
vn -1 0 -1.593189E-06
vn -0.7071068 0.7071068 -1.126555E-06
vn 0.7071068 0.7071068 1.126555E-06
vn 1 0 1.593189E-06
vn -0.8015112 0 -0.5979797
vn -0.566754 0.7071068 -0.4228355
vn -0.7221051 0 -0.6917834
vn -0.5106054 0.7071068 -0.4891647
vn 0.566754 0.7071068 0.4228355
vn 0.5106054 0.7071068 0.4891647
vn 0.8015112 0 0.5979797
vn 0.7221051 0 0.6917834
vn -0.7127166 0 -0.701452
vn -0.5039667 0.7071068 -0.4960015
vn -0.7772968 0 -0.6291341
vn -0.5496318 0.7071068 -0.444865
vn 0.5039667 0.7071068 0.4960015
vn 0.5496318 0.7071068 0.444865
vn 0.7127166 0 0.701452
vn 0.7772968 0 0.6291341
vn -0.8840697 0 -0.4673552
vn -0.6251316 0.7071068 -0.33047
vn -0.9688994 0 -0.2474548
vn -0.6851153 0.7071068 -0.1749769
vn 0.6251316 0.7071068 0.33047
vn 0.6851153 0.7071068 0.1749769
vn 0.8840697 0 0.4673552
vn 0.9688994 0 0.2474548
vn -0.9990893 0 -0.04266848
vn -0.7064628 0.7071068 -0.03017117
vn -1 0 -1.668933E-06
vn -0.7071068 0.7071068 -1.180114E-06
vn 0.7064628 0.7071068 0.03017117
vn 0.7071068 0.7071068 1.180114E-06
vn 0.9990893 0 0.04266848
vn 1 0 1.668933E-06
vn 0 0 -1
vn -0.7071068 0 -0.7071068
vn -0.9807853 0 -0.1950903
vn -0.1950903 0 -0.9807853
vn 0.7071068 0 -0.7071068
vn 0.9807853 0 -0.1950903
vn 0.1950903 0 -0.9807853
vn 1 0 0
vn -1 0 0
vn 0 0 1
vn 0.7071068 0 0.7071068
vn 0.9807853 0 0.1950903
vn 0.1950903 0 0.9807853
vn -0.7071068 0 0.7071068
vn -0.9807853 0 0.1950903
vn -0.1950903 0 0.9807853
vn -1 0 7.21645E-16
vn 1 0 -7.21645E-16
vn -7.21645E-16 0 -1

vt 0.59375 0.275
vt 0.59375 0.475
vt 0.59375 0.3416667
vt 0.59375 0.025
vt 0.59375 0.09166666
vt 0.59375 0.225
vt 0.34375 0.025
vt 0.34375 0.225

usemtl colormap

f 3/1/1 2/1/1 1/1/1
f 2/1/1 3/1/1 4/1/1
f 3/1/4 5/2/3 4/1/2
f 5/2/3 3/1/4 6/2/5
f 9/3/4 8/2/3 7/3/2
f 8/2/3 9/3/4 10/2/5
f 5/2/3 12/2/7 11/2/6
f 12/2/7 5/2/3 6/2/5
f 8/2/3 14/2/7 13/2/6
f 14/2/7 8/2/3 10/2/5
f 12/2/7 15/3/8 11/2/6
f 15/3/8 12/2/7 16/3/9
f 14/2/7 2/1/8 13/2/6
f 2/1/8 14/2/7 1/1/9
f 15/3/10 9/3/10 7/3/10
f 9/3/10 15/3/10 16/3/10
f 4/4/1 17/4/1 2/4/1
f 17/4/1 4/4/1 18/4/1
f 7/5/2 20/6/12 19/5/11
f 20/6/12 7/5/2 8/6/3
f 13/6/6 20/6/12 8/6/3
f 20/6/12 13/6/6 21/6/13
f 13/6/6 17/4/14 21/6/13
f 17/4/14 13/6/6 2/4/8
f 22/5/10 7/5/10 19/5/10
f 7/5/10 22/5/10 15/5/10
f 4/4/2 23/6/12 18/4/11
f 23/6/12 4/4/2 5/6/3
f 11/6/6 23/6/12 5/6/3
f 23/6/12 11/6/6 24/6/13
f 11/6/6 22/5/14 24/6/13
f 22/5/14 11/6/6 15/5/8
f 27/1/1 26/1/1 25/1/1
f 26/1/1 27/1/1 28/1/1
f 27/1/17 29/2/16 28/1/15
f 29/2/16 27/1/17 30/2/18
f 33/3/17 32/2/16 31/3/15
f 32/2/16 33/3/17 34/2/18
f 29/2/16 36/2/20 35/2/19
f 36/2/20 29/2/16 30/2/18
f 32/2/16 38/2/20 37/2/19
f 38/2/20 32/2/16 34/2/18
f 36/2/20 39/3/21 35/2/19
f 39/3/21 36/2/20 40/3/22
f 38/2/20 26/1/21 37/2/19
f 26/1/21 38/2/20 25/1/22
f 39/3/10 33/3/10 31/3/10
f 33/3/10 39/3/10 40/3/10
f 28/4/1 1/4/1 26/4/1
f 1/4/1 28/4/1 3/4/1
f 31/5/15 10/6/5 9/5/4
f 10/6/5 31/5/15 32/6/16
f 37/6/19 10/6/5 32/6/16
f 10/6/5 37/6/19 14/6/7
f 37/6/19 1/4/9 14/6/7
f 1/4/9 37/6/19 26/4/21
f 16/5/10 31/5/10 9/5/10
f 31/5/10 16/5/10 39/5/10
f 28/4/15 6/6/5 3/4/4
f 6/6/5 28/4/15 29/6/16
f 35/6/19 6/6/5 29/6/16
f 6/6/5 35/6/19 12/6/7
f 35/6/19 16/5/9 12/6/7
f 16/5/9 35/6/19 39/5/21
f 43/1/1 42/1/1 41/1/1
f 42/1/1 43/1/1 44/1/1
f 43/1/25 45/2/24 44/1/23
f 45/2/24 43/1/25 46/2/26
f 49/3/25 48/2/24 47/3/23
f 48/2/24 49/3/25 50/2/26
f 45/2/24 52/2/28 51/2/27
f 52/2/28 45/2/24 46/2/26
f 48/2/24 54/2/28 53/2/27
f 54/2/28 48/2/24 50/2/26
f 52/2/28 55/3/29 51/2/27
f 55/3/29 52/2/28 56/3/30
f 54/2/28 42/1/29 53/2/27
f 42/1/29 54/2/28 41/1/30
f 55/3/10 49/3/10 47/3/10
f 49/3/10 55/3/10 56/3/10
f 44/4/1 25/4/1 42/4/1
f 25/4/1 44/4/1 27/4/1
f 47/5/23 34/6/18 33/5/17
f 34/6/18 47/5/23 48/6/24
f 53/6/27 34/6/18 48/6/24
f 34/6/18 53/6/27 38/6/20
f 53/6/27 25/4/22 38/6/20
f 25/4/22 53/6/27 42/4/29
f 40/5/10 47/5/10 33/5/10
f 47/5/10 40/5/10 55/5/10
f 44/4/23 30/6/18 27/4/17
f 30/6/18 44/4/23 45/6/24
f 51/6/27 30/6/18 45/6/24
f 30/6/18 51/6/27 36/6/20
f 51/6/27 40/5/22 36/6/20
f 40/5/22 51/6/27 55/5/29
f 59/1/1 58/1/1 57/1/1
f 58/1/1 59/1/1 60/1/1
f 59/1/33 61/2/32 60/1/31
f 61/2/32 59/1/33 62/2/34
f 65/3/33 64/2/32 63/3/31
f 64/2/32 65/3/33 66/2/34
f 61/2/32 68/2/36 67/2/35
f 68/2/36 61/2/32 62/2/34
f 64/2/32 70/2/36 69/2/35
f 70/2/36 64/2/32 66/2/34
f 68/2/36 71/3/37 67/2/35
f 71/3/37 68/2/36 72/3/38
f 70/2/36 58/1/37 69/2/35
f 58/1/37 70/2/36 57/1/38
f 71/3/10 65/3/10 63/3/10
f 65/3/10 71/3/10 72/3/10
f 60/4/1 41/4/1 58/4/1
f 41/4/1 60/4/1 43/4/1
f 63/5/31 50/6/26 49/5/25
f 50/6/26 63/5/31 64/6/32
f 69/6/35 50/6/26 64/6/32
f 50/6/26 69/6/35 54/6/28
f 69/6/35 41/4/30 54/6/28
f 41/4/30 69/6/35 58/4/37
f 56/5/10 63/5/10 49/5/10
f 63/5/10 56/5/10 71/5/10
f 60/4/31 46/6/26 43/4/25
f 46/6/26 60/4/31 61/6/32
f 67/6/35 46/6/26 61/6/32
f 46/6/26 67/6/35 52/6/28
f 67/6/35 56/5/30 52/6/28
f 56/5/30 67/6/35 71/5/37
f 75/1/1 74/1/1 73/1/1
f 74/1/1 75/1/1 76/1/1
f 75/1/41 77/2/40 76/1/39
f 77/2/40 75/1/41 78/2/42
f 81/3/41 80/2/40 79/3/39
f 80/2/40 81/3/41 82/2/42
f 77/2/40 84/2/44 83/2/43
f 84/2/44 77/2/40 78/2/42
f 80/2/40 86/2/44 85/2/43
f 86/2/44 80/2/40 82/2/42
f 84/2/44 87/3/45 83/2/43
f 87/3/45 84/2/44 88/3/46
f 86/2/44 74/1/45 85/2/43
f 74/1/45 86/2/44 73/1/46
f 87/3/10 81/3/10 79/3/10
f 81/3/10 87/3/10 88/3/10
f 76/4/1 57/4/1 74/4/1
f 57/4/1 76/4/1 59/4/1
f 79/5/39 66/6/34 65/5/33
f 66/6/34 79/5/39 80/6/40
f 85/6/43 66/6/34 80/6/40
f 66/6/34 85/6/43 70/6/36
f 85/6/43 57/4/38 70/6/36
f 57/4/38 85/6/43 74/4/45
f 72/5/10 79/5/10 65/5/10
f 79/5/10 72/5/10 87/5/10
f 76/4/39 62/6/34 59/4/33
f 62/6/34 76/4/39 77/6/40
f 83/6/43 62/6/34 77/6/40
f 62/6/34 83/6/43 68/6/36
f 83/6/43 72/5/38 68/6/36
f 72/5/38 83/6/43 87/5/45
f 91/5/47 90/6/47 89/6/47
f 91/5/47 92/4/47 90/6/47
f 92/4/47 91/5/47 93/4/47
f 94/5/47 93/4/47 91/5/47
f 93/4/47 94/5/47 95/6/47
f 95/6/47 94/5/47 96/6/47
f 99/7/49 98/8/48 97/7/48
f 98/8/48 99/7/49 100/8/49
f 98/8/48 101/7/50 97/7/48
f 101/7/50 98/8/48 102/8/50
f 105/7/1 104/7/1 103/7/1
f 104/7/1 105/7/1 101/7/1
f 101/7/1 105/7/1 97/7/1
f 97/7/1 105/7/1 99/7/1
f 106/7/1 104/7/1 101/7/1
f 106/7/1 107/7/1 104/7/1
f 106/7/1 108/7/1 107/7/1
f 109/7/1 108/7/1 106/7/1
f 110/7/1 108/7/1 109/7/1
f 108/7/1 110/7/1 111/7/1
f 113/8/52 109/7/51 112/8/51
f 109/7/51 113/8/52 110/7/52
f 114/8/53 109/7/51 106/7/53
f 109/7/51 114/8/53 112/8/51
f 115/8/54 110/7/52 113/8/52
f 110/7/52 115/8/54 111/7/54
f 105/7/55 100/8/49 99/7/49
f 100/8/49 105/7/55 116/8/55
f 102/8/50 106/7/53 101/7/50
f 106/7/53 102/8/50 114/8/53
f 108/7/55 117/8/55 107/7/55
f 117/8/55 108/7/55 118/8/55
f 117/8/56 104/7/56 107/7/56
f 104/7/56 117/8/56 119/8/56
f 120/8/54 104/7/54 119/8/54
f 104/7/54 120/8/54 103/7/54
f 116/8/10 98/8/10 100/8/10
f 120/8/10 98/8/10 116/8/10
f 119/8/10 98/8/10 120/8/10
f 119/8/10 102/8/10 98/8/10
f 117/8/10 102/8/10 119/8/10
f 102/8/10 117/8/10 114/8/10
f 118/8/10 114/8/10 117/8/10
f 118/8/10 112/8/10 114/8/10
f 115/8/10 112/8/10 118/8/10
f 112/8/10 115/8/10 113/8/10
f 123/3/56 122/2/56 121/2/56
f 123/3/56 124/1/56 122/2/56
f 124/1/56 123/3/56 125/1/56
f 126/3/56 125/1/56 123/3/56
f 125/1/56 126/3/56 127/2/56
f 127/2/56 126/3/56 128/2/56
f 131/7/58 130/8/57 129/7/57
f 130/8/57 131/7/58 132/8/58
f 130/8/57 133/7/59 129/7/57
f 133/7/59 130/8/57 134/8/59
f 137/7/1 136/7/1 135/7/1
f 136/7/1 137/7/1 133/7/1
f 133/7/1 137/7/1 129/7/1
f 129/7/1 137/7/1 131/7/1
f 138/7/1 136/7/1 133/7/1
f 138/7/1 139/7/1 136/7/1
f 138/7/1 140/7/1 139/7/1
f 141/7/1 140/7/1 138/7/1
f 142/7/1 140/7/1 141/7/1
f 140/7/1 142/7/1 143/7/1
f 145/8/61 141/7/60 144/8/60
f 141/7/60 145/8/61 142/7/61
f 146/8/62 141/7/60 138/7/62
f 141/7/60 146/8/62 144/8/60
f 147/8/63 142/7/61 145/8/61
f 142/7/61 147/8/63 143/7/63
f 137/7/64 132/8/58 131/7/58
f 132/8/58 137/7/64 148/8/64
f 134/8/59 138/7/62 133/7/59
f 138/7/62 134/8/59 146/8/62
f 140/7/64 149/8/64 139/7/64
f 149/8/64 140/7/64 150/8/64
f 149/8/65 136/7/65 139/7/65
f 136/7/65 149/8/65 151/8/65
f 152/8/63 136/7/63 151/8/63
f 136/7/63 152/8/63 135/7/63
f 148/8/10 130/8/10 132/8/10
f 152/8/10 130/8/10 148/8/10
f 151/8/10 130/8/10 152/8/10
f 151/8/10 134/8/10 130/8/10
f 149/8/10 134/8/10 151/8/10
f 134/8/10 149/8/10 146/8/10
f 150/8/10 146/8/10 149/8/10
f 150/8/10 144/8/10 146/8/10
f 147/8/10 144/8/10 150/8/10
f 144/8/10 147/8/10 145/8/10

g track-striped-narrow-curve




usemtl colormap

f 3/1/1 2/1/1 1/1/1
f 2/1/1 3/1/1 4/1/1
f 3/1/4 5/2/3 4/1/2
f 5/2/3 3/1/4 6/2/5
f 9/3/4 8/2/3 7/3/2
f 8/2/3 9/3/4 10/2/5
f 5/2/3 12/2/7 11/2/6
f 12/2/7 5/2/3 6/2/5
f 8/2/3 14/2/7 13/2/6
f 14/2/7 8/2/3 10/2/5
f 12/2/7 15/3/8 11/2/6
f 15/3/8 12/2/7 16/3/9
f 14/2/7 2/1/8 13/2/6
f 2/1/8 14/2/7 1/1/9
f 15/3/10 9/3/10 7/3/10
f 9/3/10 15/3/10 16/3/10
f 4/4/1 17/4/1 2/4/1
f 17/4/1 4/4/1 18/4/1
f 7/5/2 20/6/12 19/5/11
f 20/6/12 7/5/2 8/6/3
f 13/6/6 20/6/12 8/6/3
f 20/6/12 13/6/6 21/6/13
f 13/6/6 17/4/14 21/6/13
f 17/4/14 13/6/6 2/4/8
f 22/5/10 7/5/10 19/5/10
f 7/5/10 22/5/10 15/5/10
f 4/4/2 23/6/12 18/4/11
f 23/6/12 4/4/2 5/6/3
f 11/6/6 23/6/12 5/6/3
f 23/6/12 11/6/6 24/6/13
f 11/6/6 22/5/14 24/6/13
f 22/5/14 11/6/6 15/5/8
f 27/1/1 26/1/1 25/1/1
f 26/1/1 27/1/1 28/1/1
f 27/1/17 29/2/16 28/1/15
f 29/2/16 27/1/17 30/2/18
f 33/3/17 32/2/16 31/3/15
f 32/2/16 33/3/17 34/2/18
f 29/2/16 36/2/20 35/2/19
f 36/2/20 29/2/16 30/2/18
f 32/2/16 38/2/20 37/2/19
f 38/2/20 32/2/16 34/2/18
f 36/2/20 39/3/21 35/2/19
f 39/3/21 36/2/20 40/3/22
f 38/2/20 26/1/21 37/2/19
f 26/1/21 38/2/20 25/1/22
f 39/3/10 33/3/10 31/3/10
f 33/3/10 39/3/10 40/3/10
f 28/4/1 1/4/1 26/4/1
f 1/4/1 28/4/1 3/4/1
f 31/5/15 10/6/5 9/5/4
f 10/6/5 31/5/15 32/6/16
f 37/6/19 10/6/5 32/6/16
f 10/6/5 37/6/19 14/6/7
f 37/6/19 1/4/9 14/6/7
f 1/4/9 37/6/19 26/4/21
f 16/5/10 31/5/10 9/5/10
f 31/5/10 16/5/10 39/5/10
f 28/4/15 6/6/5 3/4/4
f 6/6/5 28/4/15 29/6/16
f 35/6/19 6/6/5 29/6/16
f 6/6/5 35/6/19 12/6/7
f 35/6/19 16/5/9 12/6/7
f 16/5/9 35/6/19 39/5/21
f 43/1/1 42/1/1 41/1/1
f 42/1/1 43/1/1 44/1/1
f 43/1/25 45/2/24 44/1/23
f 45/2/24 43/1/25 46/2/26
f 49/3/25 48/2/24 47/3/23
f 48/2/24 49/3/25 50/2/26
f 45/2/24 52/2/28 51/2/27
f 52/2/28 45/2/24 46/2/26
f 48/2/24 54/2/28 53/2/27
f 54/2/28 48/2/24 50/2/26
f 52/2/28 55/3/29 51/2/27
f 55/3/29 52/2/28 56/3/30
f 54/2/28 42/1/29 53/2/27
f 42/1/29 54/2/28 41/1/30
f 55/3/10 49/3/10 47/3/10
f 49/3/10 55/3/10 56/3/10
f 44/4/1 25/4/1 42/4/1
f 25/4/1 44/4/1 27/4/1
f 47/5/23 34/6/18 33/5/17
f 34/6/18 47/5/23 48/6/24
f 53/6/27 34/6/18 48/6/24
f 34/6/18 53/6/27 38/6/20
f 53/6/27 25/4/22 38/6/20
f 25/4/22 53/6/27 42/4/29
f 40/5/10 47/5/10 33/5/10
f 47/5/10 40/5/10 55/5/10
f 44/4/23 30/6/18 27/4/17
f 30/6/18 44/4/23 45/6/24
f 51/6/27 30/6/18 45/6/24
f 30/6/18 51/6/27 36/6/20
f 51/6/27 40/5/22 36/6/20
f 40/5/22 51/6/27 55/5/29
f 59/1/1 58/1/1 57/1/1
f 58/1/1 59/1/1 60/1/1
f 59/1/33 61/2/32 60/1/31
f 61/2/32 59/1/33 62/2/34
f 65/3/33 64/2/32 63/3/31
f 64/2/32 65/3/33 66/2/34
f 61/2/32 68/2/36 67/2/35
f 68/2/36 61/2/32 62/2/34
f 64/2/32 70/2/36 69/2/35
f 70/2/36 64/2/32 66/2/34
f 68/2/36 71/3/37 67/2/35
f 71/3/37 68/2/36 72/3/38
f 70/2/36 58/1/37 69/2/35
f 58/1/37 70/2/36 57/1/38
f 71/3/10 65/3/10 63/3/10
f 65/3/10 71/3/10 72/3/10
f 60/4/1 41/4/1 58/4/1
f 41/4/1 60/4/1 43/4/1
f 63/5/31 50/6/26 49/5/25
f 50/6/26 63/5/31 64/6/32
f 69/6/35 50/6/26 64/6/32
f 50/6/26 69/6/35 54/6/28
f 69/6/35 41/4/30 54/6/28
f 41/4/30 69/6/35 58/4/37
f 56/5/10 63/5/10 49/5/10
f 63/5/10 56/5/10 71/5/10
f 60/4/31 46/6/26 43/4/25
f 46/6/26 60/4/31 61/6/32
f 67/6/35 46/6/26 61/6/32
f 46/6/26 67/6/35 52/6/28
f 67/6/35 56/5/30 52/6/28
f 56/5/30 67/6/35 71/5/37
f 75/1/1 74/1/1 73/1/1
f 74/1/1 75/1/1 76/1/1
f 75/1/41 77/2/40 76/1/39
f 77/2/40 75/1/41 78/2/42
f 81/3/41 80/2/40 79/3/39
f 80/2/40 81/3/41 82/2/42
f 77/2/40 84/2/44 83/2/43
f 84/2/44 77/2/40 78/2/42
f 80/2/40 86/2/44 85/2/43
f 86/2/44 80/2/40 82/2/42
f 84/2/44 87/3/45 83/2/43
f 87/3/45 84/2/44 88/3/46
f 86/2/44 74/1/45 85/2/43
f 74/1/45 86/2/44 73/1/46
f 87/3/10 81/3/10 79/3/10
f 81/3/10 87/3/10 88/3/10
f 76/4/1 57/4/1 74/4/1
f 57/4/1 76/4/1 59/4/1
f 79/5/39 66/6/34 65/5/33
f 66/6/34 79/5/39 80/6/40
f 85/6/43 66/6/34 80/6/40
f 66/6/34 85/6/43 70/6/36
f 85/6/43 57/4/38 70/6/36
f 57/4/38 85/6/43 74/4/45
f 72/5/10 79/5/10 65/5/10
f 79/5/10 72/5/10 87/5/10
f 76/4/39 62/6/34 59/4/33
f 62/6/34 76/4/39 77/6/40
f 83/6/43 62/6/34 77/6/40
f 62/6/34 83/6/43 68/6/36
f 83/6/43 72/5/38 68/6/36
f 72/5/38 83/6/43 87/5/45
f 91/5/47 90/6/47 89/6/47
f 91/5/47 92/4/47 90/6/47
f 92/4/47 91/5/47 93/4/47
f 94/5/47 93/4/47 91/5/47
f 93/4/47 94/5/47 95/6/47
f 95/6/47 94/5/47 96/6/47
f 99/7/49 98/8/48 97/7/48
f 98/8/48 99/7/49 100/8/49
f 98/8/48 101/7/50 97/7/48
f 101/7/50 98/8/48 102/8/50
f 105/7/1 104/7/1 103/7/1
f 104/7/1 105/7/1 101/7/1
f 101/7/1 105/7/1 97/7/1
f 97/7/1 105/7/1 99/7/1
f 106/7/1 104/7/1 101/7/1
f 106/7/1 107/7/1 104/7/1
f 106/7/1 108/7/1 107/7/1
f 109/7/1 108/7/1 106/7/1
f 110/7/1 108/7/1 109/7/1
f 108/7/1 110/7/1 111/7/1
f 113/8/52 109/7/51 112/8/51
f 109/7/51 113/8/52 110/7/52
f 114/8/53 109/7/51 106/7/53
f 109/7/51 114/8/53 112/8/51
f 115/8/54 110/7/52 113/8/52
f 110/7/52 115/8/54 111/7/54
f 105/7/55 100/8/49 99/7/49
f 100/8/49 105/7/55 116/8/55
f 102/8/50 106/7/53 101/7/50
f 106/7/53 102/8/50 114/8/53
f 108/7/55 117/8/55 107/7/55
f 117/8/55 108/7/55 118/8/55
f 117/8/56 104/7/56 107/7/56
f 104/7/56 117/8/56 119/8/56
f 120/8/54 104/7/54 119/8/54
f 104/7/54 120/8/54 103/7/54
f 116/8/10 98/8/10 100/8/10
f 120/8/10 98/8/10 116/8/10
f 119/8/10 98/8/10 120/8/10
f 119/8/10 102/8/10 98/8/10
f 117/8/10 102/8/10 119/8/10
f 102/8/10 117/8/10 114/8/10
f 118/8/10 114/8/10 117/8/10
f 118/8/10 112/8/10 114/8/10
f 115/8/10 112/8/10 118/8/10
f 112/8/10 115/8/10 113/8/10
f 123/3/56 122/2/56 121/2/56
f 123/3/56 124/1/56 122/2/56
f 124/1/56 123/3/56 125/1/56
f 126/3/56 125/1/56 123/3/56
f 125/1/56 126/3/56 127/2/56
f 127/2/56 126/3/56 128/2/56
f 131/7/58 130/8/57 129/7/57
f 130/8/57 131/7/58 132/8/58
f 130/8/57 133/7/59 129/7/57
f 133/7/59 130/8/57 134/8/59
f 137/7/1 136/7/1 135/7/1
f 136/7/1 137/7/1 133/7/1
f 133/7/1 137/7/1 129/7/1
f 129/7/1 137/7/1 131/7/1
f 138/7/1 136/7/1 133/7/1
f 138/7/1 139/7/1 136/7/1
f 138/7/1 140/7/1 139/7/1
f 141/7/1 140/7/1 138/7/1
f 142/7/1 140/7/1 141/7/1
f 140/7/1 142/7/1 143/7/1
f 145/8/61 141/7/60 144/8/60
f 141/7/60 145/8/61 142/7/61
f 146/8/62 141/7/60 138/7/62
f 141/7/60 146/8/62 144/8/60
f 147/8/63 142/7/61 145/8/61
f 142/7/61 147/8/63 143/7/63
f 137/7/64 132/8/58 131/7/58
f 132/8/58 137/7/64 148/8/64
f 134/8/59 138/7/62 133/7/59
f 138/7/62 134/8/59 146/8/62
f 140/7/64 149/8/64 139/7/64
f 149/8/64 140/7/64 150/8/64
f 149/8/65 136/7/65 139/7/65
f 136/7/65 149/8/65 151/8/65
f 152/8/63 136/7/63 151/8/63
f 136/7/63 152/8/63 135/7/63
f 148/8/10 130/8/10 132/8/10
f 152/8/10 130/8/10 148/8/10
f 151/8/10 130/8/10 152/8/10
f 151/8/10 134/8/10 130/8/10
f 149/8/10 134/8/10 151/8/10
f 134/8/10 149/8/10 146/8/10
f 150/8/10 146/8/10 149/8/10
f 150/8/10 144/8/10 146/8/10
f 147/8/10 144/8/10 150/8/10
f 144/8/10 147/8/10 145/8/10

