# Created by Kenney (www.kenney.nl)

mtllib track-striped-narrow-straight-bend.mtl

g track-striped-narrow-straight-bend

v 0.5 0.2855189 0.9454323 1 1 1
v 0.5 0.07768583 0.4920253 1 1 1
v -0.5 0.2854226 0.9454913 1 1 1
v -0.5 0.07763124 0.4920423 1 1 1
v -0.5000172 0.3639996 0.4026377 1 1 1
v -0.5000343 0.5412881 0.7888619 1 1 1
v 0.3999939 0.1731365 0.4622254 1 1 1
v 0.3999825 0.3640487 0.4026223 1 1 1
v 0.3999891 0.3707979 0.8932284 1 1 1
v 0.3999662 0.5413749 0.7888088 1 1 1
v -0.4000168 0.364005 0.4026359 1 1 1
v -0.400034 0.5412978 0.788856 1 1 1
v 0.4999828 0.3640542 0.4026206 1 1 1
v 0.4999657 0.5413846 0.7888029 1 1 1
v -0.4000053 0.1730928 0.4622391 1 1 1
v -0.4000111 0.3707207 0.8932756 1 1 1
v 0.5 0 3.099442E-06 1 1 1
v -0.5 0 3.099442E-06 1 1 1
v 0.3999996 0.1 2.861023E-06 1 1 1
v 0.3999996 0.3 2.503395E-06 1 1 1
v 0.5 0.3 2.503395E-06 1 1 1
v -0.3999996 0.1 2.861023E-06 1 1 1
v -0.5 0.3 2.503395E-06 1 1 1
v -0.3999996 0.3 2.503395E-06 1 1 1
v 0.5 0.9726869 1.661799 1 1 1
v 0.5 0.5909913 1.340171 1 1 1
v -0.5 0.9725629 1.661983 1 1 1
v -0.5 0.5908704 1.340286 1 1 1
v -0.5000505 0.8072861 1.132526 1 1 1
v -0.5000668 1.140178 1.413175 1 1 1
v 0.3999834 0.6631176 1.270929 1 1 1
v 0.39995 0.8073949 1.132422 1 1 1
v 0.3999777 1.028546 1.578881 1 1 1
v 0.3999338 1.14029 1.41301 1 1 1
v -0.4000502 0.8072982 1.132515 1 1 1
v -0.4000664 1.140191 1.413157 1 1 1
v 0.4999495 0.8074069 1.13241 1 1 1
v 0.4999332 1.140302 1.412991 1 1 1
v -0.4000168 0.6630211 1.271021 1 1 1
v -0.4000225 1.028447 1.579029 1 1 1
v 0.5 1.90271 1.996719 1 1 1
v 0.5 1.415887 1.89079 1 1 1
v -0.5 1.90269 1.997033 1 1 1
v -0.5 1.415791 1.89105 1 1 1
v -0.500083 1.519904 1.609695 1 1 1
v -0.5000944 1.921822 1.697644 1 1 1
v 0.399972 1.450582 1.797031 1 1 1
v 0.3999166 1.51999 1.609461 1 1 1
v 0.3999681 1.909085 1.896954 1 1 1
v 0.3999062 1.92184 1.697361 1 1 1
v -0.4000835 1.519913 1.609669 1 1 1
v -0.400094 1.921824 1.697612 1 1 1
v 0.499917 1.52 1.609435 1 1 1
v 0.4999056 1.921842 1.69733 1 1 1
v -0.4000273 1.450504 1.797239 1 1 1
v -0.4000311 1.909069 1.897205 1 1 1
v 0.5 1.999997 2 1 1 1
v -0.5 1.999997 2 1 1 1
v -0.5 1.999998 1.7 1 1 1
v 0.3999996 1.999997 1.9 1 1 1
v 0.3999996 1.999998 1.7 1 1 1
v -0.3999996 1.999998 1.7 1 1 1
v 0.5 1.999998 1.7 1 1 1
v -0.3999996 1.999997 1.9 1 1 1
v -0.4 0.3 0 1 1 1
v -0.5 0.3 0 1 1 1
v -0.4 0.1 0 1 1 1
v -0.5 0 0 1 1 1
v 0.5 0 0 1 1 1
v 0.4 0.1 0 1 1 1
v 0.5 0.3 0 1 1 1
v 0.4 0.3 0 1 1 1
v -0.1207107 0 -0.1707107 1 1 1
v -0.1207107 0.05000001 -0.1707107 1 1 1
v -0.15 0 -0.1 1 1 1
v -0.15 0.05000001 -0.1 1 1 1
v -0.05 0 -0.2 1 1 1
v -0.05 0.05000001 -0.2 1 1 1
v -0.05 0 7.219114E-16 1 1 1
v -0.05 0 -0.1 1 1 1
v -0.15 0 1.082867E-15 1 1 1
v 0.05 0 -0.2 1 1 1
v 0.05 0 -0.1 1 1 1
v 0.05 0 3.609557E-16 1 1 1
v 0.1207107 0 -0.1707107 1 1 1
v 0.15 0 -0.1 1 1 1
v 0.15 0 0 1 1 1
v 0.1207107 0.05000001 -0.1707107 1 1 1
v 0.15 0.05000001 -0.1 1 1 1
v 0.05 0.05000001 -0.2 1 1 1
v 0.15 0.05000001 0 1 1 1
v -0.15 0.05000001 1.082867E-15 1 1 1
v 0.05 0.05000001 -0.1 1 1 1
v 0.05 0.05000001 3.609557E-16 1 1 1
v -0.05 0.05000001 -0.1 1 1 1
v -0.05 0.05000001 7.219114E-16 1 1 1
v 0.4 2 1.7 1 1 1
v 0.5 2 1.7 1 1 1
v 0.4 2 1.9 1 1 1
v 0.5 2 2 1 1 1
v -0.5 2 2 1 1 1
v -0.4 2 1.9 1 1 1
v -0.5 2 1.7 1 1 1
v -0.4 2 1.7 1 1 1
v 0.1207107 2.170711 2 1 1 1
v 0.1207107 2.170711 1.95 1 1 1
v 0.15 2.1 2 1 1 1
v 0.15 2.1 1.95 1 1 1
v 0.05 2.2 2 1 1 1
v 0.05 2.2 1.95 1 1 1
v 0.05 2 2 1 1 1
v 0.05 2.1 2 1 1 1
v 0.15 2 2 1 1 1
v -0.05 2.2 2 1 1 1
v -0.05 2.1 2 1 1 1
v -0.05 2 2 1 1 1
v -0.1207107 2.170711 2 1 1 1
v -0.15 2.1 2 1 1 1
v -0.15 2 2 1 1 1
v -0.1207107 2.170711 1.95 1 1 1
v -0.15 2.1 1.95 1 1 1
v -0.05 2.2 1.95 1 1 1
v -0.15 2 1.95 1 1 1
v 0.15 2 1.95 1 1 1
v -0.05 2.1 1.95 1 1 1
v -0.05 2 1.95 1 1 1
v 0.05 2.1 1.95 1 1 1
v 0.05 2 1.95 1 1 1

vn 0.0001129571 -0.8528854 0.5220981
vn 5.723807E-05 -0.954561 0.2980156
vn -1 -5.463722E-05 1.705784E-05
vn -0.7071472 0.6749379 -0.2107168
vn -1 -9.633944E-05 5.897469E-05
vn -0.7071866 0.6030129 -0.3691374
vn 0.7070663 0.6750152 -0.2107409
vn 0.7070269 0.6031491 -0.3692208
vn 1 5.463722E-05 -1.705784E-05
vn 1 9.633944E-05 -5.897469E-05
vn -5.723807E-05 0.954561 -0.2980156
vn -0.0001129571 0.8528854 -0.5220981
vn 3.571274E-10 -1 2.064519E-06
vn -1 -3.571274E-10 7.372964E-16
vn -0.7071068 0.7071068 -1.459836E-06
vn 0.7071068 0.7071068 -1.459836E-06
vn 1 3.571274E-10 -7.372964E-16
vn -3.571274E-10 1 -2.064519E-06
vn 0.0002219777 -0.5587181 0.8293576
vn 0.0001674844 -0.7213856 0.6925336
vn -1 -0.0001208208 0.0001159886
vn -0.7072252 0.5100113 -0.4896131
vn -1 -0.0001240229 0.0001840989
vn -0.7072637 0.3949857 -0.5863142
vn 0.7069883 0.5101821 -0.4897772
vn 0.7069498 0.3951611 -0.5865746
vn 1 0.0001208208 -0.0001159886
vn 1 0.0001240229 -0.0001840989
vn -0.0001674844 0.7213856 -0.6925336
vn -0.0002219777 0.5587181 -0.8293576
vn 0.0003143509 -0.0637747 0.9979643
vn 0.0002774554 -0.3470438 0.9378489
vn -0.9999999 -9.628916E-05 0.0002602113
vn -0.7073029 0.2453289 -0.6629753
vn -0.9999999 -2.004761E-05 0.000313711
vn -0.707329 0.04508126 -0.7054455
vn 0.7069106 0.245465 -0.6633433
vn 0.7068844 0.04510975 -0.7058891
vn 0.9999999 9.628916E-05 -0.0002602113
vn 0.9999999 2.004761E-05 -0.000313711
vn -0.0002774554 0.3470438 -0.9378489
vn -0.0003143509 0.0637747 -0.9979643
vn 1.136924E-08 -2.384186E-06 0.9999999
vn -1 -2.575717E-14 1.136924E-08
vn -0.7071068 1.66893E-06 -0.7071067
vn 0.7071068 1.66893E-06 -0.7071067
vn 1 2.575717E-14 -1.136924E-08
vn -1.136924E-08 2.384186E-06 -0.9999999
vn 0 0 -1
vn -0.7071068 0 -0.7071068
vn -0.9807853 0 -0.1950903
vn -0.1950903 0 -0.9807853
vn 0 -1 0
vn 0.7071068 0 -0.7071068
vn 0.9807853 0 -0.1950903
vn 0.1950903 0 -0.9807853
vn 1 0 0
vn -1 0 0
vn 0 0 1
vn 0 1 0
vn 1.110223E-16 0.9999999 3.576279E-07
vn 0.7071068 0.7071067 2.517829E-07
vn 0.9807853 0.1950903 6.824651E-08
vn 0.1950903 0.9807852 3.504531E-07
vn 1.553066E-09 -3.576279E-07 0.9999999
vn -0.7071068 0.7071067 2.539793E-07
vn -0.9807853 0.1950903 7.129297E-08
vn -0.1950903 0.9807852 3.510591E-07
vn -1 2.775557E-16 1.553066E-09
vn 1 -2.775557E-16 -1.553066E-09
vn -8.326673E-16 -0.9999999 -3.576279E-07
vn -1.553066E-09 3.576279E-07 -0.9999999

vt 0.59375 0.275
vt 0.59375 0.475
vt 0.59375 0.3416667
vt 0.59375 0.025
vt 0.59375 0.09166666
vt 0.59375 0.225
vt 0.34375 0.025
vt 0.34375 0.225

usemtl colormap

f 3/1/1 2/1/2 1/1/1
f 2/1/2 3/1/1 4/1/2
f 3/1/5 5/2/4 4/1/3
f 5/2/4 3/1/5 6/2/6
f 9/3/5 8/2/4 7/3/3
f 8/2/4 9/3/5 10/2/6
f 5/2/4 12/2/8 11/2/7
f 12/2/8 5/2/4 6/2/6
f 8/2/4 14/2/8 13/2/7
f 14/2/8 8/2/4 10/2/6
f 12/2/8 15/3/9 11/2/7
f 15/3/9 12/2/8 16/3/10
f 14/2/8 2/1/9 13/2/7
f 2/1/9 14/2/8 1/1/10
f 15/3/11 9/3/12 7/3/11
f 9/3/12 15/3/11 16/3/12
f 4/4/2 17/4/13 2/4/2
f 17/4/13 4/4/2 18/4/13
f 7/5/3 20/6/15 19/5/14
f 20/6/15 7/5/3 8/6/4
f 13/6/7 20/6/15 8/6/4
f 20/6/15 13/6/7 21/6/16
f 13/6/7 17/4/17 21/6/16
f 17/4/17 13/6/7 2/4/9
f 22/5/18 7/5/11 19/5/18
f 7/5/11 22/5/18 15/5/11
f 4/4/3 23/6/15 18/4/14
f 23/6/15 4/4/3 5/6/4
f 11/6/7 23/6/15 5/6/4
f 23/6/15 11/6/7 24/6/16
f 11/6/7 22/5/17 24/6/16
f 22/5/17 11/6/7 15/5/9
f 27/1/19 26/1/20 25/1/19
f 26/1/20 27/1/19 28/1/20
f 27/1/23 29/2/22 28/1/21
f 29/2/22 27/1/23 30/2/24
f 33/3/23 32/2/22 31/3/21
f 32/2/22 33/3/23 34/2/24
f 29/2/22 36/2/26 35/2/25
f 36/2/26 29/2/22 30/2/24
f 32/2/22 38/2/26 37/2/25
f 38/2/26 32/2/22 34/2/24
f 36/2/26 39/3/27 35/2/25
f 39/3/27 36/2/26 40/3/28
f 38/2/26 26/1/27 37/2/25
f 26/1/27 38/2/26 25/1/28
f 39/3/29 33/3/30 31/3/29
f 33/3/30 39/3/29 40/3/30
f 28/4/20 1/4/1 26/4/20
f 1/4/1 28/4/20 3/4/1
f 31/5/21 10/6/6 9/5/5
f 10/6/6 31/5/21 32/6/22
f 37/6/25 10/6/6 32/6/22
f 10/6/6 37/6/25 14/6/8
f 37/6/25 1/4/10 14/6/8
f 1/4/10 37/6/25 26/4/27
f 16/5/12 31/5/29 9/5/12
f 31/5/29 16/5/12 39/5/29
f 28/4/21 6/6/6 3/4/5
f 6/6/6 28/4/21 29/6/22
f 35/6/25 6/6/6 29/6/22
f 6/6/6 35/6/25 12/6/8
f 35/6/25 16/5/10 12/6/8
f 16/5/10 35/6/25 39/5/27
f 43/1/31 42/1/32 41/1/31
f 42/1/32 43/1/31 44/1/32
f 43/1/35 45/2/34 44/1/33
f 45/2/34 43/1/35 46/2/36
f 49/3/35 48/2/34 47/3/33
f 48/2/34 49/3/35 50/2/36
f 45/2/34 52/2/38 51/2/37
f 52/2/38 45/2/34 46/2/36
f 48/2/34 54/2/38 53/2/37
f 54/2/38 48/2/34 50/2/36
f 52/2/38 55/3/39 51/2/37
f 55/3/39 52/2/38 56/3/40
f 54/2/38 42/1/39 53/2/37
f 42/1/39 54/2/38 41/1/40
f 55/3/41 49/3/42 47/3/41
f 49/3/42 55/3/41 56/3/42
f 44/4/32 25/4/19 42/4/32
f 25/4/19 44/4/32 27/4/19
f 47/5/33 34/6/24 33/5/23
f 34/6/24 47/5/33 48/6/34
f 53/6/37 34/6/24 48/6/34
f 34/6/24 53/6/37 38/6/26
f 53/6/37 25/4/28 38/6/26
f 25/4/28 53/6/37 42/4/39
f 40/5/30 47/5/41 33/5/30
f 47/5/41 40/5/30 55/5/41
f 44/4/33 30/6/24 27/4/23
f 30/6/24 44/4/33 45/6/34
f 51/6/37 30/6/24 45/6/34
f 30/6/24 51/6/37 36/6/26
f 51/6/37 40/5/28 36/6/26
f 40/5/28 51/6/37 55/5/39
f 58/1/43 57/1/43 57/1/43
f 57/1/43 58/1/43 58/1/43
f 58/1/44 59/2/45 58/1/44
f 59/2/45 58/1/44 59/2/45
f 60/3/44 61/2/45 60/3/44
f 61/2/45 60/3/44 61/2/45
f 59/2/45 62/2/46 62/2/46
f 62/2/46 59/2/45 59/2/45
f 61/2/45 63/2/46 63/2/46
f 63/2/46 61/2/45 61/2/45
f 62/2/46 64/3/47 62/2/46
f 64/3/47 62/2/46 64/3/47
f 63/2/46 57/1/47 63/2/46
f 57/1/47 63/2/46 57/1/47
f 64/3/48 60/3/48 60/3/48
f 60/3/48 64/3/48 64/3/48
f 58/4/43 41/4/31 57/4/43
f 41/4/31 58/4/43 43/4/31
f 60/5/44 50/6/36 49/5/35
f 50/6/36 60/5/44 61/6/45
f 63/6/46 50/6/36 61/6/45
f 50/6/36 63/6/46 54/6/38
f 63/6/46 41/4/40 54/6/38
f 41/4/40 63/6/46 57/4/47
f 56/5/42 60/5/48 49/5/42
f 60/5/48 56/5/42 64/5/48
f 58/4/44 46/6/36 43/4/35
f 46/6/36 58/4/44 59/6/45
f 62/6/46 46/6/36 59/6/45
f 46/6/36 62/6/46 52/6/38
f 62/6/46 56/5/40 52/6/38
f 56/5/40 62/6/46 64/5/47
f 67/5/49 66/6/49 65/6/49
f 67/5/49 68/4/49 66/6/49
f 68/4/49 67/5/49 69/4/49
f 70/5/49 69/4/49 67/5/49
f 69/4/49 70/5/49 71/6/49
f 71/6/49 70/5/49 72/6/49
f 75/7/51 74/8/50 73/7/50
f 74/8/50 75/7/51 76/8/51
f 74/8/50 77/7/52 73/7/50
f 77/7/52 74/8/50 78/8/52
f 81/7/53 80/7/53 79/7/53
f 80/7/53 81/7/53 77/7/53
f 77/7/53 81/7/53 73/7/53
f 73/7/53 81/7/53 75/7/53
f 82/7/53 80/7/53 77/7/53
f 82/7/53 83/7/53 80/7/53
f 82/7/53 84/7/53 83/7/53
f 85/7/53 84/7/53 82/7/53
f 86/7/53 84/7/53 85/7/53
f 84/7/53 86/7/53 87/7/53
f 89/8/55 85/7/54 88/8/54
f 85/7/54 89/8/55 86/7/55
f 90/8/56 85/7/54 82/7/56
f 85/7/54 90/8/56 88/8/54
f 91/8/57 86/7/55 89/8/55
f 86/7/55 91/8/57 87/7/57
f 81/7/58 76/8/51 75/7/51
f 76/8/51 81/7/58 92/8/58
f 78/8/52 82/7/56 77/7/52
f 82/7/56 78/8/52 90/8/56
f 84/7/58 93/8/58 83/7/58
f 93/8/58 84/7/58 94/8/58
f 93/8/59 80/7/59 83/7/59
f 80/7/59 93/8/59 95/8/59
f 96/8/57 80/7/57 95/8/57
f 80/7/57 96/8/57 79/7/57
f 92/8/60 74/8/60 76/8/60
f 96/8/60 74/8/60 92/8/60
f 95/8/60 74/8/60 96/8/60
f 95/8/60 78/8/60 74/8/60
f 93/8/60 78/8/60 95/8/60
f 78/8/60 93/8/60 90/8/60
f 94/8/60 90/8/60 93/8/60
f 94/8/60 88/8/60 90/8/60
f 91/8/60 88/8/60 94/8/60
f 88/8/60 91/8/60 89/8/60
f 99/3/61 98/2/61 97/2/61
f 99/3/61 100/1/61 98/2/61
f 100/1/61 99/3/61 101/1/61
f 102/3/61 101/1/61 99/3/61
f 101/1/61 102/3/61 103/2/61
f 103/2/61 102/3/61 104/2/61
f 107/7/63 106/8/62 105/7/62
f 106/8/62 107/7/63 108/8/63
f 106/8/62 109/7/64 105/7/62
f 109/7/64 106/8/62 110/8/64
f 113/7/65 112/7/65 111/7/65
f 112/7/65 113/7/65 109/7/65
f 109/7/65 113/7/65 105/7/65
f 105/7/65 113/7/65 107/7/65
f 114/7/65 112/7/65 109/7/65
f 114/7/65 115/7/65 112/7/65
f 114/7/65 116/7/65 115/7/65
f 117/7/65 116/7/65 114/7/65
f 118/7/65 116/7/65 117/7/65
f 116/7/65 118/7/65 119/7/65
f 121/8/67 117/7/66 120/8/66
f 117/7/66 121/8/67 118/7/67
f 122/8/68 117/7/66 114/7/68
f 117/7/66 122/8/68 120/8/66
f 123/8/69 118/7/67 121/8/67
f 118/7/67 123/8/69 119/7/69
f 113/7/70 108/8/63 107/7/63
f 108/8/63 113/7/70 124/8/70
f 110/8/64 114/7/68 109/7/64
f 114/7/68 110/8/64 122/8/68
f 116/7/70 125/8/70 115/7/70
f 125/8/70 116/7/70 126/8/70
f 125/8/71 112/7/71 115/7/71
f 112/7/71 125/8/71 127/8/71
f 128/8/69 112/7/69 127/8/69
f 112/7/69 128/8/69 111/7/69
f 124/8/72 106/8/72 108/8/72
f 128/8/72 106/8/72 124/8/72
f 127/8/72 106/8/72 128/8/72
f 127/8/72 110/8/72 106/8/72
f 125/8/72 110/8/72 127/8/72
f 110/8/72 125/8/72 122/8/72
f 126/8/72 122/8/72 125/8/72
f 126/8/72 120/8/72 122/8/72
f 123/8/72 120/8/72 126/8/72
f 120/8/72 123/8/72 121/8/72

g track-striped-narrow-straight-bend




usemtl colormap

f 3/1/1 2/1/2 1/1/1
f 2/1/2 3/1/1 4/1/2
f 3/1/5 5/2/4 4/1/3
f 5/2/4 3/1/5 6/2/6
f 9/3/5 8/2/4 7/3/3
f 8/2/4 9/3/5 10/2/6
f 5/2/4 12/2/8 11/2/7
f 12/2/8 5/2/4 6/2/6
f 8/2/4 14/2/8 13/2/7
f 14/2/8 8/2/4 10/2/6
f 12/2/8 15/3/9 11/2/7
f 15/3/9 12/2/8 16/3/10
f 14/2/8 2/1/9 13/2/7
f 2/1/9 14/2/8 1/1/10
f 15/3/11 9/3/12 7/3/11
f 9/3/12 15/3/11 16/3/12
f 4/4/2 17/4/13 2/4/2
f 17/4/13 4/4/2 18/4/13
f 7/5/3 20/6/15 19/5/14
f 20/6/15 7/5/3 8/6/4
f 13/6/7 20/6/15 8/6/4
f 20/6/15 13/6/7 21/6/16
f 13/6/7 17/4/17 21/6/16
f 17/4/17 13/6/7 2/4/9
f 22/5/18 7/5/11 19/5/18
f 7/5/11 22/5/18 15/5/11
f 4/4/3 23/6/15 18/4/14
f 23/6/15 4/4/3 5/6/4
f 11/6/7 23/6/15 5/6/4
f 23/6/15 11/6/7 24/6/16
f 11/6/7 22/5/17 24/6/16
f 22/5/17 11/6/7 15/5/9
f 27/1/19 26/1/20 25/1/19
f 26/1/20 27/1/19 28/1/20
f 27/1/23 29/2/22 28/1/21
f 29/2/22 27/1/23 30/2/24
f 33/3/23 32/2/22 31/3/21
f 32/2/22 33/3/23 34/2/24
f 29/2/22 36/2/26 35/2/25
f 36/2/26 29/2/22 30/2/24
f 32/2/22 38/2/26 37/2/25
f 38/2/26 32/2/22 34/2/24
f 36/2/26 39/3/27 35/2/25
f 39/3/27 36/2/26 40/3/28
f 38/2/26 26/1/27 37/2/25
f 26/1/27 38/2/26 25/1/28
f 39/3/29 33/3/30 31/3/29
f 33/3/30 39/3/29 40/3/30
f 28/4/20 1/4/1 26/4/20
f 1/4/1 28/4/20 3/4/1
f 31/5/21 10/6/6 9/5/5
f 10/6/6 31/5/21 32/6/22
f 37/6/25 10/6/6 32/6/22
f 10/6/6 37/6/25 14/6/8
f 37/6/25 1/4/10 14/6/8
f 1/4/10 37/6/25 26/4/27
f 16/5/12 31/5/29 9/5/12
f 31/5/29 16/5/12 39/5/29
f 28/4/21 6/6/6 3/4/5
f 6/6/6 28/4/21 29/6/22
f 35/6/25 6/6/6 29/6/22
f 6/6/6 35/6/25 12/6/8
f 35/6/25 16/5/10 12/6/8
f 16/5/10 35/6/25 39/5/27
f 43/1/31 42/1/32 41/1/31
f 42/1/32 43/1/31 44/1/32
f 43/1/35 45/2/34 44/1/33
f 45/2/34 43/1/35 46/2/36
f 49/3/35 48/2/34 47/3/33
f 48/2/34 49/3/35 50/2/36
f 45/2/34 52/2/38 51/2/37
f 52/2/38 45/2/34 46/2/36
f 48/2/34 54/2/38 53/2/37
f 54/2/38 48/2/34 50/2/36
f 52/2/38 55/3/39 51/2/37
f 55/3/39 52/2/38 56/3/40
f 54/2/38 42/1/39 53/2/37
f 42/1/39 54/2/38 41/1/40
f 55/3/41 49/3/42 47/3/41
f 49/3/42 55/3/41 56/3/42
f 44/4/32 25/4/19 42/4/32
f 25/4/19 44/4/32 27/4/19
f 47/5/33 34/6/24 33/5/23
f 34/6/24 47/5/33 48/6/34
f 53/6/37 34/6/24 48/6/34
f 34/6/24 53/6/37 38/6/26
f 53/6/37 25/4/28 38/6/26
f 25/4/28 53/6/37 42/4/39
f 40/5/30 47/5/41 33/5/30
f 47/5/41 40/5/30 55/5/41
f 44/4/33 30/6/24 27/4/23
f 30/6/24 44/4/33 45/6/34
f 51/6/37 30/6/24 45/6/34
f 30/6/24 51/6/37 36/6/26
f 51/6/37 40/5/28 36/6/26
f 40/5/28 51/6/37 55/5/39
f 58/1/43 57/1/43 57/1/43
f 57/1/43 58/1/43 58/1/43
f 58/1/44 59/2/45 58/1/44
f 59/2/45 58/1/44 59/2/45
f 60/3/44 61/2/45 60/3/44
f 61/2/45 60/3/44 61/2/45
f 59/2/45 62/2/46 62/2/46
f 62/2/46 59/2/45 59/2/45
f 61/2/45 63/2/46 63/2/46
f 63/2/46 61/2/45 61/2/45
f 62/2/46 64/3/47 62/2/46
f 64/3/47 62/2/46 64/3/47
f 63/2/46 57/1/47 63/2/46
f 57/1/47 63/2/46 57/1/47
f 64/3/48 60/3/48 60/3/48
f 60/3/48 64/3/48 64/3/48
f 58/4/43 41/4/31 57/4/43
f 41/4/31 58/4/43 43/4/31
f 60/5/44 50/6/36 49/5/35
f 50/6/36 60/5/44 61/6/45
f 63/6/46 50/6/36 61/6/45
f 50/6/36 63/6/46 54/6/38
f 63/6/46 41/4/40 54/6/38
f 41/4/40 63/6/46 57/4/47
f 56/5/42 60/5/48 49/5/42
f 60/5/48 56/5/42 64/5/48
f 58/4/44 46/6/36 43/4/35
f 46/6/36 58/4/44 59/6/45
f 62/6/46 46/6/36 59/6/45
f 46/6/36 62/6/46 52/6/38
f 62/6/46 56/5/40 52/6/38
f 56/5/40 62/6/46 64/5/47
f 67/5/49 66/6/49 65/6/49
f 67/5/49 68/4/49 66/6/49
f 68/4/49 67/5/49 69/4/49
f 70/5/49 69/4/49 67/5/49
f 69/4/49 70/5/49 71/6/49
f 71/6/49 70/5/49 72/6/49
f 75/7/51 74/8/50 73/7/50
f 74/8/50 75/7/51 76/8/51
f 74/8/50 77/7/52 73/7/50
f 77/7/52 74/8/50 78/8/52
f 81/7/53 80/7/53 79/7/53
f 80/7/53 81/7/53 77/7/53
f 77/7/53 81/7/53 73/7/53
f 73/7/53 81/7/53 75/7/53
f 82/7/53 80/7/53 77/7/53
f 82/7/53 83/7/53 80/7/53
f 82/7/53 84/7/53 83/7/53
f 85/7/53 84/7/53 82/7/53
f 86/7/53 84/7/53 85/7/53
f 84/7/53 86/7/53 87/7/53
f 89/8/55 85/7/54 88/8/54
f 85/7/54 89/8/55 86/7/55
f 90/8/56 85/7/54 82/7/56
f 85/7/54 90/8/56 88/8/54
f 91/8/57 86/7/55 89/8/55
f 86/7/55 91/8/57 87/7/57
f 81/7/58 76/8/51 75/7/51
f 76/8/51 81/7/58 92/8/58
f 78/8/52 82/7/56 77/7/52
f 82/7/56 78/8/52 90/8/56
f 84/7/58 93/8/58 83/7/58
f 93/8/58 84/7/58 94/8/58
f 93/8/59 80/7/59 83/7/59
f 80/7/59 93/8/59 95/8/59
f 96/8/57 80/7/57 95/8/57
f 80/7/57 96/8/57 79/7/57
f 92/8/60 74/8/60 76/8/60
f 96/8/60 74/8/60 92/8/60
f 95/8/60 74/8/60 96/8/60
f 95/8/60 78/8/60 74/8/60
f 93/8/60 78/8/60 95/8/60
f 78/8/60 93/8/60 90/8/60
f 94/8/60 90/8/60 93/8/60
f 94/8/60 88/8/60 90/8/60
f 91/8/60 88/8/60 94/8/60
f 88/8/60 91/8/60 89/8/60
f 99/3/61 98/2/61 97/2/61
f 99/3/61 100/1/61 98/2/61
f 100/1/61 99/3/61 101/1/61
f 102/3/61 101/1/61 99/3/61
f 101/1/61 102/3/61 103/2/61
f 103/2/61 102/3/61 104/2/61
f 107/7/63 106/8/62 105/7/62
f 106/8/62 107/7/63 108/8/63
f 106/8/62 109/7/64 105/7/62
f 109/7/64 106/8/62 110/8/64
f 113/7/65 112/7/65 111/7/65
f 112/7/65 113/7/65 109/7/65
f 109/7/65 113/7/65 105/7/65
f 105/7/65 113/7/65 107/7/65
f 114/7/65 112/7/65 109/7/65
f 114/7/65 115/7/65 112/7/65
f 114/7/65 116/7/65 115/7/65
f 117/7/65 116/7/65 114/7/65
f 118/7/65 116/7/65 117/7/65
f 116/7/65 118/7/65 119/7/65
f 121/8/67 117/7/66 120/8/66
f 117/7/66 121/8/67 118/7/67
f 122/8/68 117/7/66 114/7/68
f 117/7/66 122/8/68 120/8/66
f 123/8/69 118/7/67 121/8/67
f 118/7/67 123/8/69 119/7/69
f 113/7/70 108/8/63 107/7/63
f 108/8/63 113/7/70 124/8/70
f 110/8/64 114/7/68 109/7/64
f 114/7/68 110/8/64 122/8/68
f 116/7/70 125/8/70 115/7/70
f 125/8/70 116/7/70 126/8/70
f 125/8/71 112/7/71 115/7/71
f 112/7/71 125/8/71 127/8/71
f 128/8/69 112/7/69 127/8/69
f 112/7/69 128/8/69 111/7/69
f 124/8/72 106/8/72 108/8/72
f 128/8/72 106/8/72 124/8/72
f 127/8/72 106/8/72 128/8/72
f 127/8/72 110/8/72 106/8/72
f 125/8/72 110/8/72 127/8/72
f 110/8/72 125/8/72 122/8/72
f 126/8/72 122/8/72 125/8/72
f 126/8/72 120/8/72 122/8/72
f 123/8/72 120/8/72 126/8/72
f 120/8/72 123/8/72 121/8/72

