# Created by Kenney (www.kenney.nl)

mtllib track-striped-narrow-corner-small-ramp.mtl

g track-striped-narrow-corner-small-ramp

v 0.1606979 0.225691 1.173529 1 1 1
v 0.4006429 0.05575359 0.6368976 1 1 1
v -0.6957674 0.2464492 0.6577418 1 1 1
v -0.5520271 0.08691299 0.3344922 1 1 1
v -0.5198846 0.3765094 0.263073 1 1 1
v -0.631719 0.5236412 0.5625451 1 1 1
v 0.3160901 0.1554017 0.5828505 1 1 1
v 0.3375185 0.3484662 0.5352377 1 1 1
v 0.09640074 0.3201641 1.090218 1 1 1
v 0.1390998 0.5049587 1.026753 1 1 1
v -0.4246175 0.3733935 0.2933135 1 1 1
v -0.5460725 0.5215654 0.6141237 1 1 1
v 0.4327855 0.3453501 0.5654782 1 1 1
v 0.2247462 0.502883 1.078332 1 1 1
v -0.4460459 0.1803292 0.3409264 1 1 1
v -0.5887715 0.3367708 0.6775882 1 1 1
v 0.5 -2.384186E-07 4.410744E-06 1 1 1
v -0.5 3.576279E-07 2.145767E-06 1 1 1
v 0.4000001 0.09999979 3.933907E-06 1 1 1
v 0.4000001 0.2999997 3.457069E-06 1 1 1
v 0.5000002 0.2999997 3.695488E-06 1 1 1
v -0.4 0.1000003 2.145767E-06 1 1 1
v -0.4999998 0.3000003 1.549721E-06 1 1 1
v -0.3999999 0.3000002 1.788139E-06 1 1 1
v -0.5669873 0.6576962 1.98623 1 1 1
v -0.1663907 0.4378936 1.617775 1 1 1
v -1.174367 0.6459169 1.191906 1 1 1
v -0.9087343 0.4425006 0.947772 1 1 1
v -0.8224955 0.7141372 0.8540897 1 1 1
v -1.077866 0.919099 1.114066 1 1 1
v -0.2118788 0.5288999 1.519547 1 1 1
v -0.154386 0.709991 1.457093 1 1 1
v -0.5955584 0.747579 1.880851 1 1 1
v -0.5312245 0.9297004 1.828958 1 1 1
v -0.7482611 0.7136765 0.9210899 1 1 1
v -1.017128 0.9202769 1.193498 1 1 1
v -0.0801518 0.7095302 1.524093 1 1 1
v -0.4704864 0.9308784 1.90839 1 1 1
v -0.8057537 0.5325854 0.9835448 1 1 1
v -1.081462 0.7381555 1.245392 1 1 1
v -1.631911 0.9892955 2.466521 1 1 1
v -1.049011 0.8569698 2.278574 1 1 1
v -1.812257 0.9621228 1.483293 1 1 1
v -1.48091 0.8299981 1.377055 1 1 1
v -1.391916 1.111906 1.325986 1 1 1
v -1.764981 1.257895 1.466448 1 1 1
v -1.062536 0.9482419 2.171399 1 1 1
v -1.003207 1.13618 2.137353 1 1 1
v -1.634187 1.085169 2.362583 1 1 1
v -1.60267 1.282351 2.351353 1 1 1
v -1.348726 1.114603 1.416138 1 1 1
v -1.746946 1.260612 1.564771 1 1 1
v -0.9600167 1.138878 2.227504 1 1 1
v -1.584635 1.285068 2.449676 1 1 1
v -1.408056 0.9266646 1.450184 1 1 1
v -1.778463 1.063431 1.576001 1 1 1
v -1.999995 1 2.5 1 1 1
v -1.999998 0.9999996 1.5 1 1 1
v -1.999997 1.3 1.5 1 1 1
v -1.999995 1.1 2.4 1 1 1
v -1.999995 1.3 2.4 1 1 1
v -1.999997 1.3 1.6 1 1 1
v -1.999995 1.3 2.5 1 1 1
v -1.999997 1.1 1.6 1 1 1
v -0.4 0.3 0 1 1 1
v -0.5 0.3 0 1 1 1
v -0.4 0.1 0 1 1 1
v -0.5 0 0 1 1 1
v 0.5 0 0 1 1 1
v 0.4 0.1 0 1 1 1
v 0.5 0.3 0 1 1 1
v 0.4 0.3 0 1 1 1
v -0.1207107 0 -0.1707107 1 1 1
v -0.1207107 0.05000001 -0.1707107 1 1 1
v -0.15 0 -0.1 1 1 1
v -0.15 0.05000001 -0.1 1 1 1
v -0.05 0 -0.2 1 1 1
v -0.05 0.05000001 -0.2 1 1 1
v -0.05 0 7.219114E-16 1 1 1
v -0.05 0 -0.1 1 1 1
v -0.15 0 1.082867E-15 1 1 1
v 0.05 0 -0.2 1 1 1
v 0.05 0 -0.1 1 1 1
v 0.05 0 3.609557E-16 1 1 1
v 0.1207107 0 -0.1707107 1 1 1
v 0.15 0 -0.1 1 1 1
v 0.15 0 0 1 1 1
v 0.1207107 0.05000001 -0.1707107 1 1 1
v 0.15 0.05000001 -0.1 1 1 1
v 0.05 0.05000001 -0.2 1 1 1
v 0.15 0.05000001 0 1 1 1
v -0.15 0.05000001 1.082867E-15 1 1 1
v 0.05 0.05000001 -0.1 1 1 1
v 0.05 0.05000001 3.609557E-16 1 1 1
v -0.05 0.05000001 -0.1 1 1 1
v -0.05 0.05000001 7.219114E-16 1 1 1
v -2 1.3 2.4 1 1 1
v -2 1.3 2.5 1 1 1
v -2 1.1 2.4 1 1 1
v -2 1 2.5 1 1 1
v -2 0.9999999 1.5 1 1 1
v -2 1.1 1.6 1 1 1
v -2 1.3 1.5 1 1 1
v -2 1.3 1.6 1 1 1
v -2.170711 1 2.120711 1 1 1
v -2.170711 1.05 2.120711 1 1 1
v -2.1 1 2.15 1 1 1
v -2.1 1.05 2.15 1 1 1
v -2.2 1 2.05 1 1 1
v -2.2 1.05 2.05 1 1 1
v -2 1 2.05 1 1 1
v -2.1 1 2.05 1 1 1
v -2 1 2.15 1 1 1
v -2.2 1 1.95 1 1 1
v -2.1 1 1.95 1 1 1
v -2 1 1.95 1 1 1
v -2.170711 1 1.879289 1 1 1
v -2.1 1 1.85 1 1 1
v -2 1 1.85 1 1 1
v -2.170711 1.05 1.879289 1 1 1
v -2.1 1.05 1.85 1 1 1
v -2.2 1.05 1.95 1 1 1
v -2 1.05 1.85 1 1 1
v -2 1.05 2.15 1 1 1
v -2.1 1.05 1.95 1 1 1
v -2 1.05 1.95 1 1 1
v -2.1 1.05 2.05 1 1 1
v -2 1.05 2.05 1 1 1

vn -0.2134948 -0.9239732 0.3173224
vn -0.1071417 -0.9653217 0.2380644
vn -0.95267 0.03115931 -0.3024052
vn -0.5978788 0.7046185 -0.3821698
vn -0.8564653 0.02075831 -0.515787
vn -0.4546488 0.668026 -0.5890973
vn 0.7494 0.6605526 0.04549586
vn 0.7565761 0.6386693 0.1403356
vn 0.95267 -0.03115931 0.3024052
vn 0.8564653 -0.02075831 0.515787
vn 0.1071417 0.9653217 -0.2380644
vn 0.2134948 0.9239732 -0.3173224
vn -6.090656E-07 -1 2.185581E-06
vn -1 6.090609E-07 -2.185584E-06
vn -0.7071064 0.7071072 -3.09088E-06
vn 0.7071072 0.7071064 2.646573E-12
vn 1 -6.090609E-07 2.185584E-06
vn 6.090656E-07 1 -2.185581E-06
vn -0.3216693 -0.910607 0.2594681
vn -0.2874629 -0.9054555 0.3122744
vn -0.7423437 0.004606932 -0.6700034
vn -0.3216493 0.6435114 -0.6945753
vn -0.6073799 -0.01177932 -0.7943242
vn -0.2020279 0.6355672 -0.7451437
vn 0.7281833 0.6369962 0.2529526
vn 0.6569369 0.6522257 0.3782004
vn 0.7423437 -0.004606932 0.6700034
vn 0.6073799 0.01177932 0.7943242
vn 0.2874629 0.9054555 -0.3122744
vn 0.3216693 0.910607 -0.2594681
vn -0.1575852 -0.9859077 0.05615138
vn -0.2966458 -0.9396929 0.1702309
vn -0.4318997 -0.02697165 -0.9015182
vn -0.09563893 0.6453913 -0.7578411
vn -0.180346 -0.02717268 -0.9832278
vn -0.01609433 0.677928 -0.7349521
vn 0.5151594 0.683535 0.5170982
vn 0.2389534 0.716356 0.655542
vn 0.4318997 0.02697165 0.9015182
vn 0.180346 0.02717268 0.9832278
vn 0.2966458 0.9396929 -0.1702309
vn 0.1575852 0.9859077 -0.05615138
vn -2.304711E-06 -1 7.20561E-07
vn -2.741814E-06 -7.205546E-07 -1
vn -3.576279E-07 0.7071062 -0.7071073
vn 3.516674E-06 0.7071073 0.7071063
vn 2.741814E-06 7.205546E-07 1
vn 2.304711E-06 1 -7.20561E-07
vn 0 0 -1
vn -0.7071068 0 -0.7071068
vn -0.9807853 0 -0.1950903
vn -0.1950903 0 -0.9807853
vn 0 -1 0
vn 0.7071068 0 -0.7071068
vn 0.9807853 0 -0.1950903
vn 0.1950903 0 -0.9807853
vn 1 0 0
vn -1 0 0
vn 0 0 1
vn 0 1 0
vn -0.9999999 0 3.576279E-07
vn -0.7071065 6.318283E-08 0.7071069
vn -0.19509 8.76371E-08 0.9807853
vn -0.9807851 1.74321E-08 0.1950907
vn 3.197442E-14 -1 8.935402E-08
vn -0.7071069 -6.318283E-08 -0.7071065
vn -0.1950907 -8.76371E-08 -0.9807851
vn -0.9807853 -1.74321E-08 -0.19509
vn -3.576279E-07 -8.935402E-08 -0.9999999
vn 3.576279E-07 8.935402E-08 0.9999999
vn 0.9999999 -6.448188E-23 -3.576279E-07
vn -3.197442E-14 1 -8.935402E-08

vt 0.59375 0.275
vt 0.59375 0.475
vt 0.59375 0.3416667
vt 0.59375 0.025
vt 0.59375 0.09166666
vt 0.59375 0.225
vt 0.34375 0.025
vt 0.34375 0.225

usemtl colormap

f 3/1/1 2/1/2 1/1/1
f 2/1/2 3/1/1 4/1/2
f 3/1/5 5/2/4 4/1/3
f 5/2/4 3/1/5 6/2/6
f 9/3/5 8/2/4 7/3/3
f 8/2/4 9/3/5 10/2/6
f 5/2/4 12/2/8 11/2/7
f 12/2/8 5/2/4 6/2/6
f 8/2/4 14/2/8 13/2/7
f 14/2/8 8/2/4 10/2/6
f 12/2/8 15/3/9 11/2/7
f 15/3/9 12/2/8 16/3/10
f 14/2/8 2/1/9 13/2/7
f 2/1/9 14/2/8 1/1/10
f 15/3/11 9/3/12 7/3/11
f 9/3/12 15/3/11 16/3/12
f 4/4/2 17/4/13 2/4/2
f 17/4/13 4/4/2 18/4/13
f 7/5/3 20/6/15 19/5/14
f 20/6/15 7/5/3 8/6/4
f 13/6/7 20/6/15 8/6/4
f 20/6/15 13/6/7 21/6/16
f 13/6/7 17/4/17 21/6/16
f 17/4/17 13/6/7 2/4/9
f 22/5/18 7/5/11 19/5/18
f 7/5/11 22/5/18 15/5/11
f 4/4/3 23/6/15 18/4/14
f 23/6/15 4/4/3 5/6/4
f 11/6/7 23/6/15 5/6/4
f 23/6/15 11/6/7 24/6/16
f 11/6/7 22/5/17 24/6/16
f 22/5/17 11/6/7 15/5/9
f 27/1/19 26/1/20 25/1/19
f 26/1/20 27/1/19 28/1/20
f 27/1/23 29/2/22 28/1/21
f 29/2/22 27/1/23 30/2/24
f 33/3/23 32/2/22 31/3/21
f 32/2/22 33/3/23 34/2/24
f 29/2/22 36/2/26 35/2/25
f 36/2/26 29/2/22 30/2/24
f 32/2/22 38/2/26 37/2/25
f 38/2/26 32/2/22 34/2/24
f 36/2/26 39/3/27 35/2/25
f 39/3/27 36/2/26 40/3/28
f 38/2/26 26/1/27 37/2/25
f 26/1/27 38/2/26 25/1/28
f 39/3/29 33/3/30 31/3/29
f 33/3/30 39/3/29 40/3/30
f 28/4/20 1/4/1 26/4/20
f 1/4/1 28/4/20 3/4/1
f 31/5/21 10/6/6 9/5/5
f 10/6/6 31/5/21 32/6/22
f 37/6/25 10/6/6 32/6/22
f 10/6/6 37/6/25 14/6/8
f 37/6/25 1/4/10 14/6/8
f 1/4/10 37/6/25 26/4/27
f 16/5/12 31/5/29 9/5/12
f 31/5/29 16/5/12 39/5/29
f 28/4/21 6/6/6 3/4/5
f 6/6/6 28/4/21 29/6/22
f 35/6/25 6/6/6 29/6/22
f 6/6/6 35/6/25 12/6/8
f 35/6/25 16/5/10 12/6/8
f 16/5/10 35/6/25 39/5/27
f 43/1/31 42/1/32 41/1/31
f 42/1/32 43/1/31 44/1/32
f 43/1/35 45/2/34 44/1/33
f 45/2/34 43/1/35 46/2/36
f 49/3/35 48/2/34 47/3/33
f 48/2/34 49/3/35 50/2/36
f 45/2/34 52/2/38 51/2/37
f 52/2/38 45/2/34 46/2/36
f 48/2/34 54/2/38 53/2/37
f 54/2/38 48/2/34 50/2/36
f 52/2/38 55/3/39 51/2/37
f 55/3/39 52/2/38 56/3/40
f 54/2/38 42/1/39 53/2/37
f 42/1/39 54/2/38 41/1/40
f 55/3/41 49/3/42 47/3/41
f 49/3/42 55/3/41 56/3/42
f 44/4/32 25/4/19 42/4/32
f 25/4/19 44/4/32 27/4/19
f 47/5/33 34/6/24 33/5/23
f 34/6/24 47/5/33 48/6/34
f 53/6/37 34/6/24 48/6/34
f 34/6/24 53/6/37 38/6/26
f 53/6/37 25/4/28 38/6/26
f 25/4/28 53/6/37 42/4/39
f 40/5/30 47/5/41 33/5/30
f 47/5/41 40/5/30 55/5/41
f 44/4/33 30/6/24 27/4/23
f 30/6/24 44/4/33 45/6/34
f 51/6/37 30/6/24 45/6/34
f 30/6/24 51/6/37 36/6/26
f 51/6/37 40/5/28 36/6/26
f 40/5/28 51/6/37 55/5/39
f 58/1/43 57/1/43 57/1/43
f 57/1/43 58/1/43 58/1/43
f 58/1/44 59/2/45 58/1/44
f 59/2/45 58/1/44 59/2/45
f 60/3/44 61/2/45 60/3/44
f 61/2/45 60/3/44 61/2/45
f 59/2/45 62/2/46 62/2/46
f 62/2/46 59/2/45 59/2/45
f 61/2/45 63/2/46 63/2/46
f 63/2/46 61/2/45 61/2/45
f 62/2/46 64/3/47 62/2/46
f 64/3/47 62/2/46 64/3/47
f 63/2/46 57/1/47 63/2/46
f 57/1/47 63/2/46 57/1/47
f 64/3/48 60/3/48 60/3/48
f 60/3/48 64/3/48 64/3/48
f 58/4/43 41/4/31 57/4/43
f 41/4/31 58/4/43 43/4/31
f 60/5/44 50/6/36 49/5/35
f 50/6/36 60/5/44 61/6/45
f 63/6/46 50/6/36 61/6/45
f 50/6/36 63/6/46 54/6/38
f 63/6/46 41/4/40 54/6/38
f 41/4/40 63/6/46 57/4/47
f 56/5/42 60/5/48 49/5/42
f 60/5/48 56/5/42 64/5/48
f 58/4/44 46/6/36 43/4/35
f 46/6/36 58/4/44 59/6/45
f 62/6/46 46/6/36 59/6/45
f 46/6/36 62/6/46 52/6/38
f 62/6/46 56/5/40 52/6/38
f 56/5/40 62/6/46 64/5/47
f 67/5/49 66/6/49 65/6/49
f 67/5/49 68/4/49 66/6/49
f 68/4/49 67/5/49 69/4/49
f 70/5/49 69/4/49 67/5/49
f 69/4/49 70/5/49 71/6/49
f 71/6/49 70/5/49 72/6/49
f 75/7/51 74/8/50 73/7/50
f 74/8/50 75/7/51 76/8/51
f 74/8/50 77/7/52 73/7/50
f 77/7/52 74/8/50 78/8/52
f 81/7/53 80/7/53 79/7/53
f 80/7/53 81/7/53 77/7/53
f 77/7/53 81/7/53 73/7/53
f 73/7/53 81/7/53 75/7/53
f 82/7/53 80/7/53 77/7/53
f 82/7/53 83/7/53 80/7/53
f 82/7/53 84/7/53 83/7/53
f 85/7/53 84/7/53 82/7/53
f 86/7/53 84/7/53 85/7/53
f 84/7/53 86/7/53 87/7/53
f 89/8/55 85/7/54 88/8/54
f 85/7/54 89/8/55 86/7/55
f 90/8/56 85/7/54 82/7/56
f 85/7/54 90/8/56 88/8/54
f 91/8/57 86/7/55 89/8/55
f 86/7/55 91/8/57 87/7/57
f 81/7/58 76/8/51 75/7/51
f 76/8/51 81/7/58 92/8/58
f 78/8/52 82/7/56 77/7/52
f 82/7/56 78/8/52 90/8/56
f 84/7/58 93/8/58 83/7/58
f 93/8/58 84/7/58 94/8/58
f 93/8/59 80/7/59 83/7/59
f 80/7/59 93/8/59 95/8/59
f 96/8/57 80/7/57 95/8/57
f 80/7/57 96/8/57 79/7/57
f 92/8/60 74/8/60 76/8/60
f 96/8/60 74/8/60 92/8/60
f 95/8/60 74/8/60 96/8/60
f 95/8/60 78/8/60 74/8/60
f 93/8/60 78/8/60 95/8/60
f 78/8/60 93/8/60 90/8/60
f 94/8/60 90/8/60 93/8/60
f 94/8/60 88/8/60 90/8/60
f 91/8/60 88/8/60 94/8/60
f 88/8/60 91/8/60 89/8/60
f 99/3/61 98/2/61 97/2/61
f 99/3/61 100/1/61 98/2/61
f 100/1/61 99/3/61 101/1/61
f 102/3/61 101/1/61 99/3/61
f 101/1/61 102/3/61 103/2/61
f 103/2/61 102/3/61 104/2/61
f 107/7/63 106/8/62 105/7/62
f 106/8/62 107/7/63 108/8/63
f 106/8/62 109/7/64 105/7/62
f 109/7/64 106/8/62 110/8/64
f 113/7/65 112/7/65 111/7/65
f 112/7/65 113/7/65 109/7/65
f 109/7/65 113/7/65 105/7/65
f 105/7/65 113/7/65 107/7/65
f 114/7/65 112/7/65 109/7/65
f 114/7/65 115/7/65 112/7/65
f 114/7/65 116/7/65 115/7/65
f 117/7/65 116/7/65 114/7/65
f 118/7/65 116/7/65 117/7/65
f 116/7/65 118/7/65 119/7/65
f 121/8/67 117/7/66 120/8/66
f 117/7/66 121/8/67 118/7/67
f 122/8/68 117/7/66 114/7/68
f 117/7/66 122/8/68 120/8/66
f 123/8/69 118/7/67 121/8/67
f 118/7/67 123/8/69 119/7/69
f 113/7/70 108/8/63 107/7/63
f 108/8/63 113/7/70 124/8/70
f 110/8/64 114/7/68 109/7/64
f 114/7/68 110/8/64 122/8/68
f 116/7/70 125/8/70 115/7/70
f 125/8/70 116/7/70 126/8/70
f 125/8/71 112/7/71 115/7/71
f 112/7/71 125/8/71 127/8/71
f 128/8/69 112/7/69 127/8/69
f 112/7/69 128/8/69 111/7/69
f 124/8/72 106/8/72 108/8/72
f 128/8/72 106/8/72 124/8/72
f 127/8/72 106/8/72 128/8/72
f 127/8/72 110/8/72 106/8/72
f 125/8/72 110/8/72 127/8/72
f 110/8/72 125/8/72 122/8/72
f 126/8/72 122/8/72 125/8/72
f 126/8/72 120/8/72 122/8/72
f 123/8/72 120/8/72 126/8/72
f 120/8/72 123/8/72 121/8/72

g track-striped-narrow-corner-small-ramp




usemtl colormap

f 3/1/1 2/1/2 1/1/1
f 2/1/2 3/1/1 4/1/2
f 3/1/5 5/2/4 4/1/3
f 5/2/4 3/1/5 6/2/6
f 9/3/5 8/2/4 7/3/3
f 8/2/4 9/3/5 10/2/6
f 5/2/4 12/2/8 11/2/7
f 12/2/8 5/2/4 6/2/6
f 8/2/4 14/2/8 13/2/7
f 14/2/8 8/2/4 10/2/6
f 12/2/8 15/3/9 11/2/7
f 15/3/9 12/2/8 16/3/10
f 14/2/8 2/1/9 13/2/7
f 2/1/9 14/2/8 1/1/10
f 15/3/11 9/3/12 7/3/11
f 9/3/12 15/3/11 16/3/12
f 4/4/2 17/4/13 2/4/2
f 17/4/13 4/4/2 18/4/13
f 7/5/3 20/6/15 19/5/14
f 20/6/15 7/5/3 8/6/4
f 13/6/7 20/6/15 8/6/4
f 20/6/15 13/6/7 21/6/16
f 13/6/7 17/4/17 21/6/16
f 17/4/17 13/6/7 2/4/9
f 22/5/18 7/5/11 19/5/18
f 7/5/11 22/5/18 15/5/11
f 4/4/3 23/6/15 18/4/14
f 23/6/15 4/4/3 5/6/4
f 11/6/7 23/6/15 5/6/4
f 23/6/15 11/6/7 24/6/16
f 11/6/7 22/5/17 24/6/16
f 22/5/17 11/6/7 15/5/9
f 27/1/19 26/1/20 25/1/19
f 26/1/20 27/1/19 28/1/20
f 27/1/23 29/2/22 28/1/21
f 29/2/22 27/1/23 30/2/24
f 33/3/23 32/2/22 31/3/21
f 32/2/22 33/3/23 34/2/24
f 29/2/22 36/2/26 35/2/25
f 36/2/26 29/2/22 30/2/24
f 32/2/22 38/2/26 37/2/25
f 38/2/26 32/2/22 34/2/24
f 36/2/26 39/3/27 35/2/25
f 39/3/27 36/2/26 40/3/28
f 38/2/26 26/1/27 37/2/25
f 26/1/27 38/2/26 25/1/28
f 39/3/29 33/3/30 31/3/29
f 33/3/30 39/3/29 40/3/30
f 28/4/20 1/4/1 26/4/20
f 1/4/1 28/4/20 3/4/1
f 31/5/21 10/6/6 9/5/5
f 10/6/6 31/5/21 32/6/22
f 37/6/25 10/6/6 32/6/22
f 10/6/6 37/6/25 14/6/8
f 37/6/25 1/4/10 14/6/8
f 1/4/10 37/6/25 26/4/27
f 16/5/12 31/5/29 9/5/12
f 31/5/29 16/5/12 39/5/29
f 28/4/21 6/6/6 3/4/5
f 6/6/6 28/4/21 29/6/22
f 35/6/25 6/6/6 29/6/22
f 6/6/6 35/6/25 12/6/8
f 35/6/25 16/5/10 12/6/8
f 16/5/10 35/6/25 39/5/27
f 43/1/31 42/1/32 41/1/31
f 42/1/32 43/1/31 44/1/32
f 43/1/35 45/2/34 44/1/33
f 45/2/34 43/1/35 46/2/36
f 49/3/35 48/2/34 47/3/33
f 48/2/34 49/3/35 50/2/36
f 45/2/34 52/2/38 51/2/37
f 52/2/38 45/2/34 46/2/36
f 48/2/34 54/2/38 53/2/37
f 54/2/38 48/2/34 50/2/36
f 52/2/38 55/3/39 51/2/37
f 55/3/39 52/2/38 56/3/40
f 54/2/38 42/1/39 53/2/37
f 42/1/39 54/2/38 41/1/40
f 55/3/41 49/3/42 47/3/41
f 49/3/42 55/3/41 56/3/42
f 44/4/32 25/4/19 42/4/32
f 25/4/19 44/4/32 27/4/19
f 47/5/33 34/6/24 33/5/23
f 34/6/24 47/5/33 48/6/34
f 53/6/37 34/6/24 48/6/34
f 34/6/24 53/6/37 38/6/26
f 53/6/37 25/4/28 38/6/26
f 25/4/28 53/6/37 42/4/39
f 40/5/30 47/5/41 33/5/30
f 47/5/41 40/5/30 55/5/41
f 44/4/33 30/6/24 27/4/23
f 30/6/24 44/4/33 45/6/34
f 51/6/37 30/6/24 45/6/34
f 30/6/24 51/6/37 36/6/26
f 51/6/37 40/5/28 36/6/26
f 40/5/28 51/6/37 55/5/39
f 58/1/43 57/1/43 57/1/43
f 57/1/43 58/1/43 58/1/43
f 58/1/44 59/2/45 58/1/44
f 59/2/45 58/1/44 59/2/45
f 60/3/44 61/2/45 60/3/44
f 61/2/45 60/3/44 61/2/45
f 59/2/45 62/2/46 62/2/46
f 62/2/46 59/2/45 59/2/45
f 61/2/45 63/2/46 63/2/46
f 63/2/46 61/2/45 61/2/45
f 62/2/46 64/3/47 62/2/46
f 64/3/47 62/2/46 64/3/47
f 63/2/46 57/1/47 63/2/46
f 57/1/47 63/2/46 57/1/47
f 64/3/48 60/3/48 60/3/48
f 60/3/48 64/3/48 64/3/48
f 58/4/43 41/4/31 57/4/43
f 41/4/31 58/4/43 43/4/31
f 60/5/44 50/6/36 49/5/35
f 50/6/36 60/5/44 61/6/45
f 63/6/46 50/6/36 61/6/45
f 50/6/36 63/6/46 54/6/38
f 63/6/46 41/4/40 54/6/38
f 41/4/40 63/6/46 57/4/47
f 56/5/42 60/5/48 49/5/42
f 60/5/48 56/5/42 64/5/48
f 58/4/44 46/6/36 43/4/35
f 46/6/36 58/4/44 59/6/45
f 62/6/46 46/6/36 59/6/45
f 46/6/36 62/6/46 52/6/38
f 62/6/46 56/5/40 52/6/38
f 56/5/40 62/6/46 64/5/47
f 67/5/49 66/6/49 65/6/49
f 67/5/49 68/4/49 66/6/49
f 68/4/49 67/5/49 69/4/49
f 70/5/49 69/4/49 67/5/49
f 69/4/49 70/5/49 71/6/49
f 71/6/49 70/5/49 72/6/49
f 75/7/51 74/8/50 73/7/50
f 74/8/50 75/7/51 76/8/51
f 74/8/50 77/7/52 73/7/50
f 77/7/52 74/8/50 78/8/52
f 81/7/53 80/7/53 79/7/53
f 80/7/53 81/7/53 77/7/53
f 77/7/53 81/7/53 73/7/53
f 73/7/53 81/7/53 75/7/53
f 82/7/53 80/7/53 77/7/53
f 82/7/53 83/7/53 80/7/53
f 82/7/53 84/7/53 83/7/53
f 85/7/53 84/7/53 82/7/53
f 86/7/53 84/7/53 85/7/53
f 84/7/53 86/7/53 87/7/53
f 89/8/55 85/7/54 88/8/54
f 85/7/54 89/8/55 86/7/55
f 90/8/56 85/7/54 82/7/56
f 85/7/54 90/8/56 88/8/54
f 91/8/57 86/7/55 89/8/55
f 86/7/55 91/8/57 87/7/57
f 81/7/58 76/8/51 75/7/51
f 76/8/51 81/7/58 92/8/58
f 78/8/52 82/7/56 77/7/52
f 82/7/56 78/8/52 90/8/56
f 84/7/58 93/8/58 83/7/58
f 93/8/58 84/7/58 94/8/58
f 93/8/59 80/7/59 83/7/59
f 80/7/59 93/8/59 95/8/59
f 96/8/57 80/7/57 95/8/57
f 80/7/57 96/8/57 79/7/57
f 92/8/60 74/8/60 76/8/60
f 96/8/60 74/8/60 92/8/60
f 95/8/60 74/8/60 96/8/60
f 95/8/60 78/8/60 74/8/60
f 93/8/60 78/8/60 95/8/60
f 78/8/60 93/8/60 90/8/60
f 94/8/60 90/8/60 93/8/60
f 94/8/60 88/8/60 90/8/60
f 91/8/60 88/8/60 94/8/60
f 88/8/60 91/8/60 89/8/60
f 99/3/61 98/2/61 97/2/61
f 99/3/61 100/1/61 98/2/61
f 100/1/61 99/3/61 101/1/61
f 102/3/61 101/1/61 99/3/61
f 101/1/61 102/3/61 103/2/61
f 103/2/61 102/3/61 104/2/61
f 107/7/63 106/8/62 105/7/62
f 106/8/62 107/7/63 108/8/63
f 106/8/62 109/7/64 105/7/62
f 109/7/64 106/8/62 110/8/64
f 113/7/65 112/7/65 111/7/65
f 112/7/65 113/7/65 109/7/65
f 109/7/65 113/7/65 105/7/65
f 105/7/65 113/7/65 107/7/65
f 114/7/65 112/7/65 109/7/65
f 114/7/65 115/7/65 112/7/65
f 114/7/65 116/7/65 115/7/65
f 117/7/65 116/7/65 114/7/65
f 118/7/65 116/7/65 117/7/65
f 116/7/65 118/7/65 119/7/65
f 121/8/67 117/7/66 120/8/66
f 117/7/66 121/8/67 118/7/67
f 122/8/68 117/7/66 114/7/68
f 117/7/66 122/8/68 120/8/66
f 123/8/69 118/7/67 121/8/67
f 118/7/67 123/8/69 119/7/69
f 113/7/70 108/8/63 107/7/63
f 108/8/63 113/7/70 124/8/70
f 110/8/64 114/7/68 109/7/64
f 114/7/68 110/8/64 122/8/68
f 116/7/70 125/8/70 115/7/70
f 125/8/70 116/7/70 126/8/70
f 125/8/71 112/7/71 115/7/71
f 112/7/71 125/8/71 127/8/71
f 128/8/69 112/7/69 127/8/69
f 112/7/69 128/8/69 111/7/69
f 124/8/72 106/8/72 108/8/72
f 128/8/72 106/8/72 124/8/72
f 127/8/72 106/8/72 128/8/72
f 127/8/72 110/8/72 106/8/72
f 125/8/72 110/8/72 127/8/72
f 110/8/72 125/8/72 122/8/72
f 126/8/72 122/8/72 125/8/72
f 126/8/72 120/8/72 122/8/72
f 123/8/72 120/8/72 126/8/72
f 120/8/72 123/8/72 121/8/72

