# Created by Kenney (www.kenney.nl)

mtllib track-striped-wide-straight-hill-beginning.mtl

g track-striped-wide-straight-hill-beginning

v 0.9999914 0.3064985 0.4923711 1 1 1
v 0.9999819 0.3279123 0.9813108 1 1 1
v 0.899991 0.3064955 0.4923711 1 1 1
v 0.8999815 0.3279063 0.9813108 1 1 1
v -0.9000092 0.3064421 0.4923725 1 1 1
v -0.9000034 0.1065166 0.4978294 1 1 1
v -0.9000187 0.327796 0.981318 1 1 1
v -0.9000063 0.1281741 0.993609 1 1 1
v 1 0.02847946 0.9997473 1 1 1
v 1 0.006610155 0.5005565 1 1 1
v -1 0.02835691 0.9997549 1 1 1
v -1 0.006550789 0.5005579 1 1 1
v -1.000009 0.3064392 0.4923725 1 1 1
v -1.000018 0.3277899 0.9813185 1 1 1
v 0.8999968 0.10657 0.497828 1 1 1
v 0.8999939 0.1282843 0.9936023 1 1 1
v -1 0 4.291534E-06 1 1 1
v -1 0.3 4.291534E-06 1 1 1
v -0.8999996 0.3 4.291534E-06 1 1 1
v -0.8999996 0.1 4.291534E-06 1 1 1
v 0.8999996 0.1 4.291534E-06 1 1 1
v 0.8999996 0.3 4.291534E-06 1 1 1
v 1 0.3 4.291534E-06 1 1 1
v 1 0 4.291534E-06 1 1 1
v 0.9999714 0.3680012 1.466202 1 1 1
v 0.9999599 0.4318542 1.944885 1 1 1
v 0.899971 0.3679917 1.466203 1 1 1
v 0.8999605 0.4318411 1.944887 1 1 1
v -0.9000282 0.367821 1.466221 1 1 1
v -0.9000092 0.168928 1.487235 1 1 1
v -0.9000397 0.4316063 1.944926 1 1 1
v -0.900013 0.2342434 1.977297 1 1 1
v 1 0.1358099 1.993442 1 1 1
v 1 0.06966174 1.497723 1 1 1
v -1 0.1355488 1.993485 1 1 1
v -1 0.06947207 1.497743 1 1 1
v -1.000029 0.3678116 1.466222 1 1 1
v -1.00004 0.4315932 1.944928 1 1 1
v 0.8999901 0.1690987 1.487217 1 1 1
v 0.8999863 0.2344782 1.977259 1 1 1
v 0.9999485 0.5261862 2.412591 1 1 1
v 0.9999352 0.659586 2.861222 1 1 1
v 0.8999481 0.5261694 2.412595 1 1 1
v 0.8999348 0.6595654 2.86123 1 1 1
v -0.9000521 0.5258676 2.412669 1 1 1
v -0.9000168 0.3315706 2.460089 1 1 1
v -0.9000654 0.6591978 2.861362 1 1 1
v -0.9000216 0.4709493 2.928908 1 1 1
v 1 0.3772132 2.962542 1 1 1
v 1 0.2347407 2.483721 1 1 1
v -1 0.3768046 2.962688 1 1 1
v -1 0.2344053 2.483803 1 1 1
v -1.000051 0.5258508 2.412673 1 1 1
v -1.000065 0.6591773 2.861369 1 1 1
v 0.8999825 0.3318725 2.460015 1 1 1
v 0.8999786 0.4713171 2.928776 1 1 1
v 0.9999199 0.842625 3.278848 1 1 1
v 0.9999037 1.085075 3.646686 1 1 1
v 0.8999205 0.8426015 3.27886 1 1 1
v 0.8999043 1.08505 3.646706 1 1 1
v -0.9000797 0.8421785 3.279086 1 1 1
v -0.9000263 0.6657025 3.373193 1 1 1
v -0.9000959 1.084604 3.647071 1 1 1
v -0.900032 0.9297107 3.773594 1 1 1
v 1 0.8527355 3.836471 1 1 1
v 1 0.5779109 3.420009 1 1 1
v -1 0.8522394 3.836876 1 1 1
v -1 0.577441 3.420259 1 1 1
v -1.00008 0.842155 3.279098 1 1 1
v -1.000096 1.084579 3.647091 1 1 1
v 0.8999729 0.6661255 3.372967 1 1 1
v 0.8999681 0.9301572 3.773229 1 1 1
v 1 1.212129 3.787865 1 1 1
v 0.8999996 1.212129 3.787865 1 1 1
v -0.8999996 1.212129 3.787865 1 1 1
v -0.8999996 1.070708 3.929286 1 1 1
v 1 0.9999969 3.999997 1 1 1
v -1 0.9999969 3.999997 1 1 1
v -1 1.212129 3.787865 1 1 1
v 0.8999996 1.070708 3.929286 1 1 1
v -0.9 0.3 0 1 1 1
v -1 0.3 0 1 1 1
v -0.9 0.1 0 1 1 1
v -1 0 0 1 1 1
v 1 0 0 1 1 1
v 0.9 0.1 0 1 1 1
v 1 0.3 0 1 1 1
v 0.9 0.3 0 1 1 1
v -0.1207107 0 -0.1707107 1 1 1
v -0.1207107 0.05000001 -0.1707107 1 1 1
v -0.15 0 -0.1 1 1 1
v -0.15 0.05000001 -0.1 1 1 1
v -0.05 0 -0.2 1 1 1
v -0.05 0.05000001 -0.2 1 1 1
v -0.05 0 7.219114E-16 1 1 1
v -0.05 0 -0.1 1 1 1
v -0.15 0 1.082867E-15 1 1 1
v 0.05 0 -0.2 1 1 1
v 0.05 0 -0.1 1 1 1
v 0.05 0 3.609557E-16 1 1 1
v 0.1207107 0 -0.1707107 1 1 1
v 0.15 0 -0.1 1 1 1
v 0.15 0 0 1 1 1
v 0.1207107 0.05000001 -0.1707107 1 1 1
v 0.15 0.05000001 -0.1 1 1 1
v 0.05 0.05000001 -0.2 1 1 1
v 0.15 0.05000001 0 1 1 1
v -0.15 0.05000001 1.082867E-15 1 1 1
v 0.05 0.05000001 -0.1 1 1 1
v 0.05 0.05000001 3.609557E-16 1 1 1
v -0.05 0.05000001 -0.1 1 1 1
v -0.05 0.05000001 7.219114E-16 1 1 1
v 0.9 1.212132 3.787868 1 1 1
v 1 1.212132 3.787868 1 1 1
v 0.9 1.070711 3.929289 1 1 1
v 1 1 4 1 1 1
v -1 1 4 1 1 1
v -0.9 1.070711 3.929289 1 1 1
v -1 1.212132 3.787868 1 1 1
v -0.9 1.212132 3.787868 1 1 1
v 0.1207107 1.120711 4.120711 1 1 1
v 0.1207107 1.156066 4.085355 1 1 1
v 0.15 1.070711 4.070711 1 1 1
v 0.15 1.106066 4.035356 1 1 1
v 0.05 1.141421 4.141421 1 1 1
v 0.05 1.176777 4.106066 1 1 1
v 0.05 1 4 1 1 1
v 0.05 1.070711 4.070711 1 1 1
v 0.15 1 4 1 1 1
v -0.05 1.141421 4.141421 1 1 1
v -0.05 1.070711 4.070711 1 1 1
v -0.05 1 4 1 1 1
v -0.1207107 1.120711 4.120711 1 1 1
v -0.15 1.070711 4.070711 1 1 1
v -0.15 1 4 1 1 1
v -0.1207107 1.156066 4.085355 1 1 1
v -0.15 1.106066 4.035356 1 1 1
v -0.05 1.176777 4.106066 1 1 1
v -0.15 1.035355 3.964645 1 1 1
v 0.15 1.035355 3.964645 1 1 1
v -0.05 1.106066 4.035356 1 1 1
v -0.05 1.035355 3.964645 1 1 1
v 0.05 1.106066 4.035356 1 1 1
v 0.05 1.035355 3.964645 1 1 1

vn 0.7070858 0.7068645 -0.01929367
vn 0.7070634 0.7058135 -0.04345801
vn -0.7071277 0.7068225 -0.01929253
vn -0.7071502 0.7057269 -0.04345268
vn 1 2.969357E-05 -8.104776E-07
vn 1 6.123271E-05 -3.770191E-06
vn 6.134868E-05 -0.9981098 0.06145514
vn 2.970463E-05 -0.9996277 0.02728456
vn -1 -2.969357E-05 8.104776E-07
vn -1 -6.123271E-05 3.770191E-06
vn -2.970463E-05 0.9996277 -0.02728456
vn -6.134868E-05 0.9981098 -0.06145514
vn -1 -2.458389E-10 5.126905E-17
vn -0.7071068 0.7071068 -1.474652E-07
vn 0.7071068 0.7071068 -1.474652E-07
vn 1 2.458389E-10 -5.126905E-17
vn -2.458389E-10 1 -2.085473E-07
vn 2.458389E-10 -1 2.085473E-07
vn 0.7070394 0.7032599 -0.07430243
vn 0.7070132 0.6978754 -0.1144645
vn -0.7071742 0.7031258 -0.07428826
vn -0.7072003 0.6976908 -0.1144343
vn 1 9.482798E-05 -1.001898E-05
vn 1 0.000130502 -2.140476E-05
vn 0.0001322458 -0.9868144 0.1618559
vn 9.535579E-05 -0.9944649 0.1050695
vn -1 -9.482798E-05 1.001898E-05
vn -1 -0.000130502 2.140476E-05
vn -9.535579E-05 0.9944649 -0.1050695
vn -0.0001322458 0.9868144 -0.1618559
vn 0.7069848 0.6870621 -0.1676849
vn 0.7069533 0.6657032 -0.2388644
vn -0.7072288 0.686825 -0.167627
vn -0.7072602 0.6654143 -0.2387608
vn 1 0.0001676699 -4.092166E-05
vn 1 0.0002042916 -7.330294E-05
vn 0.0002170447 -0.9412423 0.337732
vn 0.0001725914 -0.9714849 0.2371014
vn -1 -0.0001676699 4.092166E-05
vn -1 -0.0002042916 7.330294E-05
vn -0.0001725914 0.9714849 -0.2371014
vn -0.0002170447 0.9412423 -0.337732
vn 0.7069184 0.6241031 -0.3328087
vn 0.7068803 0.5478048 -0.4474708
vn -0.7072951 0.6237707 -0.3326315
vn -0.7073332 0.5474541 -0.4471843
vn 0.9999999 0.0002350039 -0.000125318
vn 0.9999999 0.0002480592 -0.0002026255
vn 0.0003202975 -0.774465 0.6326167
vn 0.0002663295 -0.8823801 0.4705373
vn -0.9999999 -0.0002350039 0.000125318
vn -0.9999999 -0.0002480592 0.0002026255
vn -0.0002663295 0.8823801 -0.4705373
vn -0.0003202975 0.774465 -0.6326167
vn 0.7071068 0.5000009 -0.4999991
vn -0.7071068 0.5000009 -0.4999991
vn 1 1.088644E-08 -1.08864E-08
vn 1.539572E-08 -0.707108 0.7071056
vn -1 -1.088644E-08 1.08864E-08
vn -1.539572E-08 0.707108 -0.7071056
vn 0 0 -1
vn -0.7071068 0 -0.7071068
vn -0.9807853 0 -0.1950903
vn -0.1950903 0 -0.9807853
vn 0 -1 0
vn 0.7071068 0 -0.7071068
vn 0.9807853 0 -0.1950903
vn 0.1950903 0 -0.9807853
vn 1 0 0
vn -1 0 0
vn 0 0 1
vn 0 1 0
vn 0 0.7071068 0.7071067
vn 0.7071068 0.5 0.4999999
vn 0.9807853 0.1379497 0.1379497
vn 0.1950903 0.6935199 0.6935198
vn 1.551507E-09 -0.7071067 0.7071068
vn -0.7071068 0.5 0.4999999
vn -0.9807853 0.1379497 0.1379497
vn -0.1950903 0.6935199 0.6935198
vn -1 -1.09708E-09 1.097082E-09
vn 1 1.09708E-09 -1.097082E-09
vn -7.21645E-16 -0.7071068 -0.7071067
vn -1.551507E-09 0.7071067 -0.7071068

vt 0.59375 0.475
vt 0.59375 0.3416667
vt 0.59375 0.275
vt 0.59375 0.025
vt 0.59375 0.225
vt 0.59375 0.09166666
vt 0.34375 0.025
vt 0.34375 0.225

usemtl colormap

f 3/1/3 2/1/2 1/1/1
f 2/1/2 3/1/3 4/1/4
f 7/1/2 6/2/5 5/1/1
f 6/2/5 7/1/2 8/2/6
f 11/3/7 10/3/8 9/3/7
f 10/3/8 11/3/7 12/3/8
f 11/3/10 13/1/3 12/3/9
f 13/1/3 11/3/10 14/1/4
f 13/1/3 7/1/2 5/1/1
f 7/1/2 13/1/3 14/1/4
f 2/1/2 10/3/5 1/1/1
f 10/3/5 2/1/2 9/3/6
f 16/2/10 3/1/3 15/2/9
f 3/1/3 16/2/10 4/1/4
f 6/2/11 16/2/12 15/2/11
f 16/2/12 6/2/11 8/2/12
f 12/4/9 18/5/14 17/4/13
f 18/5/14 12/4/9 13/5/3
f 5/5/1 18/5/14 13/5/3
f 18/5/14 5/5/1 19/5/15
f 5/5/1 20/6/16 19/5/15
f 20/6/16 5/5/1 6/6/5
f 20/6/17 15/6/11 21/6/17
f 15/6/11 20/6/17 6/6/11
f 15/6/9 22/5/14 21/6/13
f 22/5/14 15/6/9 3/5/3
f 1/5/1 22/5/14 3/5/3
f 22/5/14 1/5/1 23/5/15
f 1/5/1 24/4/16 23/5/15
f 24/4/16 1/5/1 10/4/5
f 12/4/8 24/4/18 10/4/8
f 24/4/18 12/4/8 17/4/18
f 27/1/21 26/1/20 25/1/19
f 26/1/20 27/1/21 28/1/22
f 31/1/20 30/2/23 29/1/19
f 30/2/23 31/1/20 32/2/24
f 35/3/25 34/3/26 33/3/25
f 34/3/26 35/3/25 36/3/26
f 35/3/28 37/1/21 36/3/27
f 37/1/21 35/3/28 38/1/22
f 37/1/21 31/1/20 29/1/19
f 31/1/20 37/1/21 38/1/22
f 26/1/20 34/3/23 25/1/19
f 34/3/23 26/1/20 33/3/24
f 40/2/28 27/1/21 39/2/27
f 27/1/21 40/2/28 28/1/22
f 30/2/29 40/2/30 39/2/29
f 40/2/30 30/2/29 32/2/30
f 36/4/27 14/5/4 11/4/10
f 14/5/4 36/4/27 37/5/21
f 29/5/19 14/5/4 37/5/21
f 14/5/4 29/5/19 7/5/2
f 29/5/19 8/6/6 7/5/2
f 8/6/6 29/5/19 30/6/23
f 8/6/12 39/6/29 16/6/12
f 39/6/29 8/6/12 30/6/29
f 39/6/27 4/5/4 16/6/10
f 4/5/4 39/6/27 27/5/21
f 25/5/19 4/5/4 27/5/21
f 4/5/4 25/5/19 2/5/2
f 25/5/19 9/4/6 2/5/2
f 9/4/6 25/5/19 34/4/23
f 36/4/26 9/4/7 34/4/26
f 9/4/7 36/4/26 11/4/7
f 43/1/33 42/1/32 41/1/31
f 42/1/32 43/1/33 44/1/34
f 47/1/32 46/2/35 45/1/31
f 46/2/35 47/1/32 48/2/36
f 51/3/37 50/3/38 49/3/37
f 50/3/38 51/3/37 52/3/38
f 51/3/40 53/1/33 52/3/39
f 53/1/33 51/3/40 54/1/34
f 53/1/33 47/1/32 45/1/31
f 47/1/32 53/1/33 54/1/34
f 42/1/32 50/3/35 41/1/31
f 50/3/35 42/1/32 49/3/36
f 56/2/40 43/1/33 55/2/39
f 43/1/33 56/2/40 44/1/34
f 46/2/41 56/2/42 55/2/41
f 56/2/42 46/2/41 48/2/42
f 52/4/39 38/5/22 35/4/28
f 38/5/22 52/4/39 53/5/33
f 45/5/31 38/5/22 53/5/33
f 38/5/22 45/5/31 31/5/20
f 45/5/31 32/6/24 31/5/20
f 32/6/24 45/5/31 46/6/35
f 32/6/30 55/6/41 40/6/30
f 55/6/41 32/6/30 46/6/41
f 55/6/39 28/5/22 40/6/28
f 28/5/22 55/6/39 43/5/33
f 41/5/31 28/5/22 43/5/33
f 28/5/22 41/5/31 26/5/20
f 41/5/31 33/4/24 26/5/20
f 33/4/24 41/5/31 50/4/35
f 52/4/38 33/4/25 50/4/38
f 33/4/25 52/4/38 35/4/25
f 59/1/45 58/1/44 57/1/43
f 58/1/44 59/1/45 60/1/46
f 63/1/44 62/2/47 61/1/43
f 62/2/47 63/1/44 64/2/48
f 67/3/49 66/3/50 65/3/49
f 66/3/50 67/3/49 68/3/50
f 67/3/52 69/1/45 68/3/51
f 69/1/45 67/3/52 70/1/46
f 69/1/45 63/1/44 61/1/43
f 63/1/44 69/1/45 70/1/46
f 58/1/44 66/3/47 57/1/43
f 66/3/47 58/1/44 65/3/48
f 72/2/52 59/1/45 71/2/51
f 59/1/45 72/2/52 60/1/46
f 62/2/53 72/2/54 71/2/53
f 72/2/54 62/2/53 64/2/54
f 68/4/51 54/5/34 51/4/40
f 54/5/34 68/4/51 69/5/45
f 61/5/43 54/5/34 69/5/45
f 54/5/34 61/5/43 47/5/32
f 61/5/43 48/6/36 47/5/32
f 48/6/36 61/5/43 62/6/47
f 48/6/42 71/6/53 56/6/42
f 71/6/53 48/6/42 62/6/53
f 71/6/51 44/5/34 56/6/40
f 44/5/34 71/6/51 59/5/45
f 57/5/43 44/5/34 59/5/45
f 44/5/34 57/5/43 42/5/32
f 57/5/43 49/4/36 42/5/32
f 49/4/36 57/5/43 66/4/47
f 68/4/50 49/4/37 66/4/50
f 49/4/37 68/4/50 51/4/37
f 74/1/56 73/1/55 73/1/55
f 73/1/55 74/1/56 74/1/56
f 75/1/55 76/2/57 75/1/55
f 76/2/57 75/1/55 76/2/57
f 78/3/58 77/3/58 77/3/58
f 77/3/58 78/3/58 78/3/58
f 78/3/59 79/1/56 78/3/59
f 79/1/56 78/3/59 79/1/56
f 79/1/56 75/1/55 75/1/55
f 75/1/55 79/1/56 79/1/56
f 73/1/55 77/3/57 73/1/55
f 77/3/57 73/1/55 77/3/57
f 80/2/59 74/1/56 80/2/59
f 74/1/56 80/2/59 74/1/56
f 76/2/60 80/2/60 80/2/60
f 80/2/60 76/2/60 76/2/60
f 78/4/59 70/5/46 67/4/52
f 70/5/46 78/4/59 79/5/56
f 75/5/55 70/5/46 79/5/56
f 70/5/46 75/5/55 63/5/44
f 75/5/55 64/6/48 63/5/44
f 64/6/48 75/5/55 76/6/57
f 64/6/54 80/6/60 72/6/54
f 80/6/60 64/6/54 76/6/60
f 80/6/59 60/5/46 72/6/52
f 60/5/46 80/6/59 74/5/56
f 73/5/55 60/5/46 74/5/56
f 60/5/46 73/5/55 58/5/44
f 73/5/55 65/4/48 58/5/44
f 65/4/48 73/5/55 77/4/57
f 78/4/58 65/4/49 77/4/58
f 65/4/49 78/4/58 67/4/49
f 83/6/61 82/5/61 81/5/61
f 83/6/61 84/4/61 82/5/61
f 84/4/61 83/6/61 85/4/61
f 86/6/61 85/4/61 83/6/61
f 85/4/61 86/6/61 87/5/61
f 87/5/61 86/6/61 88/5/61
f 91/7/63 90/8/62 89/7/62
f 90/8/62 91/7/63 92/8/63
f 90/8/62 93/7/64 89/7/62
f 93/7/64 90/8/62 94/8/64
f 97/7/65 96/7/65 95/7/65
f 96/7/65 97/7/65 93/7/65
f 93/7/65 97/7/65 89/7/65
f 89/7/65 97/7/65 91/7/65
f 98/7/65 96/7/65 93/7/65
f 98/7/65 99/7/65 96/7/65
f 98/7/65 100/7/65 99/7/65
f 101/7/65 100/7/65 98/7/65
f 102/7/65 100/7/65 101/7/65
f 100/7/65 102/7/65 103/7/65
f 105/8/67 101/7/66 104/8/66
f 101/7/66 105/8/67 102/7/67
f 106/8/68 101/7/66 98/7/68
f 101/7/66 106/8/68 104/8/66
f 107/8/69 102/7/67 105/8/67
f 102/7/67 107/8/69 103/7/69
f 97/7/70 92/8/63 91/7/63
f 92/8/63 97/7/70 108/8/70
f 94/8/64 98/7/68 93/7/64
f 98/7/68 94/8/64 106/8/68
f 100/7/70 109/8/70 99/7/70
f 109/8/70 100/7/70 110/8/70
f 109/8/71 96/7/71 99/7/71
f 96/7/71 109/8/71 111/8/71
f 112/8/69 96/7/69 111/8/69
f 96/7/69 112/8/69 95/7/69
f 108/8/72 90/8/72 92/8/72
f 112/8/72 90/8/72 108/8/72
f 111/8/72 90/8/72 112/8/72
f 111/8/72 94/8/72 90/8/72
f 109/8/72 94/8/72 111/8/72
f 94/8/72 109/8/72 106/8/72
f 110/8/72 106/8/72 109/8/72
f 110/8/72 104/8/72 106/8/72
f 107/8/72 104/8/72 110/8/72
f 104/8/72 107/8/72 105/8/72
f 115/2/73 114/1/73 113/1/73
f 115/2/73 116/3/73 114/1/73
f 116/3/73 115/2/73 117/3/73
f 118/2/73 117/3/73 115/2/73
f 117/3/73 118/2/73 119/1/73
f 119/1/73 118/2/73 120/1/73
f 123/7/75 122/8/74 121/7/74
f 122/8/74 123/7/75 124/8/75
f 122/8/74 125/7/76 121/7/74
f 125/7/76 122/8/74 126/8/76
f 129/7/77 128/7/77 127/7/77
f 128/7/77 129/7/77 125/7/77
f 125/7/77 129/7/77 121/7/77
f 121/7/77 129/7/77 123/7/77
f 130/7/77 128/7/77 125/7/77
f 130/7/77 131/7/77 128/7/77
f 130/7/77 132/7/77 131/7/77
f 133/7/77 132/7/77 130/7/77
f 134/7/77 132/7/77 133/7/77
f 132/7/77 134/7/77 135/7/77
f 137/8/79 133/7/78 136/8/78
f 133/7/78 137/8/79 134/7/79
f 138/8/80 133/7/78 130/7/80
f 133/7/78 138/8/80 136/8/78
f 139/8/81 134/7/79 137/8/79
f 134/7/79 139/8/81 135/7/81
f 129/7/82 124/8/75 123/7/75
f 124/8/75 129/7/82 140/8/82
f 126/8/76 130/7/80 125/7/76
f 130/7/80 126/8/76 138/8/80
f 132/7/82 141/8/82 131/7/82
f 141/8/82 132/7/82 142/8/82
f 141/8/83 128/7/83 131/7/83
f 128/7/83 141/8/83 143/8/83
f 144/8/81 128/7/81 143/8/81
f 128/7/81 144/8/81 127/7/81
f 140/8/84 122/8/84 124/8/84
f 144/8/84 122/8/84 140/8/84
f 143/8/84 122/8/84 144/8/84
f 143/8/84 126/8/84 122/8/84
f 141/8/84 126/8/84 143/8/84
f 126/8/84 141/8/84 138/8/84
f 142/8/84 138/8/84 141/8/84
f 142/8/84 136/8/84 138/8/84
f 139/8/84 136/8/84 142/8/84
f 136/8/84 139/8/84 137/8/84

g track-striped-wide-straight-hill-beginning




usemtl colormap

f 3/1/3 2/1/2 1/1/1
f 2/1/2 3/1/3 4/1/4
f 7/1/2 6/2/5 5/1/1
f 6/2/5 7/1/2 8/2/6
f 11/3/7 10/3/8 9/3/7
f 10/3/8 11/3/7 12/3/8
f 11/3/10 13/1/3 12/3/9
f 13/1/3 11/3/10 14/1/4
f 13/1/3 7/1/2 5/1/1
f 7/1/2 13/1/3 14/1/4
f 2/1/2 10/3/5 1/1/1
f 10/3/5 2/1/2 9/3/6
f 16/2/10 3/1/3 15/2/9
f 3/1/3 16/2/10 4/1/4
f 6/2/11 16/2/12 15/2/11
f 16/2/12 6/2/11 8/2/12
f 12/4/9 18/5/14 17/4/13
f 18/5/14 12/4/9 13/5/3
f 5/5/1 18/5/14 13/5/3
f 18/5/14 5/5/1 19/5/15
f 5/5/1 20/6/16 19/5/15
f 20/6/16 5/5/1 6/6/5
f 20/6/17 15/6/11 21/6/17
f 15/6/11 20/6/17 6/6/11
f 15/6/9 22/5/14 21/6/13
f 22/5/14 15/6/9 3/5/3
f 1/5/1 22/5/14 3/5/3
f 22/5/14 1/5/1 23/5/15
f 1/5/1 24/4/16 23/5/15
f 24/4/16 1/5/1 10/4/5
f 12/4/8 24/4/18 10/4/8
f 24/4/18 12/4/8 17/4/18
f 27/1/21 26/1/20 25/1/19
f 26/1/20 27/1/21 28/1/22
f 31/1/20 30/2/23 29/1/19
f 30/2/23 31/1/20 32/2/24
f 35/3/25 34/3/26 33/3/25
f 34/3/26 35/3/25 36/3/26
f 35/3/28 37/1/21 36/3/27
f 37/1/21 35/3/28 38/1/22
f 37/1/21 31/1/20 29/1/19
f 31/1/20 37/1/21 38/1/22
f 26/1/20 34/3/23 25/1/19
f 34/3/23 26/1/20 33/3/24
f 40/2/28 27/1/21 39/2/27
f 27/1/21 40/2/28 28/1/22
f 30/2/29 40/2/30 39/2/29
f 40/2/30 30/2/29 32/2/30
f 36/4/27 14/5/4 11/4/10
f 14/5/4 36/4/27 37/5/21
f 29/5/19 14/5/4 37/5/21
f 14/5/4 29/5/19 7/5/2
f 29/5/19 8/6/6 7/5/2
f 8/6/6 29/5/19 30/6/23
f 8/6/12 39/6/29 16/6/12
f 39/6/29 8/6/12 30/6/29
f 39/6/27 4/5/4 16/6/10
f 4/5/4 39/6/27 27/5/21
f 25/5/19 4/5/4 27/5/21
f 4/5/4 25/5/19 2/5/2
f 25/5/19 9/4/6 2/5/2
f 9/4/6 25/5/19 34/4/23
f 36/4/26 9/4/7 34/4/26
f 9/4/7 36/4/26 11/4/7
f 43/1/33 42/1/32 41/1/31
f 42/1/32 43/1/33 44/1/34
f 47/1/32 46/2/35 45/1/31
f 46/2/35 47/1/32 48/2/36
f 51/3/37 50/3/38 49/3/37
f 50/3/38 51/3/37 52/3/38
f 51/3/40 53/1/33 52/3/39
f 53/1/33 51/3/40 54/1/34
f 53/1/33 47/1/32 45/1/31
f 47/1/32 53/1/33 54/1/34
f 42/1/32 50/3/35 41/1/31
f 50/3/35 42/1/32 49/3/36
f 56/2/40 43/1/33 55/2/39
f 43/1/33 56/2/40 44/1/34
f 46/2/41 56/2/42 55/2/41
f 56/2/42 46/2/41 48/2/42
f 52/4/39 38/5/22 35/4/28
f 38/5/22 52/4/39 53/5/33
f 45/5/31 38/5/22 53/5/33
f 38/5/22 45/5/31 31/5/20
f 45/5/31 32/6/24 31/5/20
f 32/6/24 45/5/31 46/6/35
f 32/6/30 55/6/41 40/6/30
f 55/6/41 32/6/30 46/6/41
f 55/6/39 28/5/22 40/6/28
f 28/5/22 55/6/39 43/5/33
f 41/5/31 28/5/22 43/5/33
f 28/5/22 41/5/31 26/5/20
f 41/5/31 33/4/24 26/5/20
f 33/4/24 41/5/31 50/4/35
f 52/4/38 33/4/25 50/4/38
f 33/4/25 52/4/38 35/4/25
f 59/1/45 58/1/44 57/1/43
f 58/1/44 59/1/45 60/1/46
f 63/1/44 62/2/47 61/1/43
f 62/2/47 63/1/44 64/2/48
f 67/3/49 66/3/50 65/3/49
f 66/3/50 67/3/49 68/3/50
f 67/3/52 69/1/45 68/3/51
f 69/1/45 67/3/52 70/1/46
f 69/1/45 63/1/44 61/1/43
f 63/1/44 69/1/45 70/1/46
f 58/1/44 66/3/47 57/1/43
f 66/3/47 58/1/44 65/3/48
f 72/2/52 59/1/45 71/2/51
f 59/1/45 72/2/52 60/1/46
f 62/2/53 72/2/54 71/2/53
f 72/2/54 62/2/53 64/2/54
f 68/4/51 54/5/34 51/4/40
f 54/5/34 68/4/51 69/5/45
f 61/5/43 54/5/34 69/5/45
f 54/5/34 61/5/43 47/5/32
f 61/5/43 48/6/36 47/5/32
f 48/6/36 61/5/43 62/6/47
f 48/6/42 71/6/53 56/6/42
f 71/6/53 48/6/42 62/6/53
f 71/6/51 44/5/34 56/6/40
f 44/5/34 71/6/51 59/5/45
f 57/5/43 44/5/34 59/5/45
f 44/5/34 57/5/43 42/5/32
f 57/5/43 49/4/36 42/5/32
f 49/4/36 57/5/43 66/4/47
f 68/4/50 49/4/37 66/4/50
f 49/4/37 68/4/50 51/4/37
f 74/1/56 73/1/55 73/1/55
f 73/1/55 74/1/56 74/1/56
f 75/1/55 76/2/57 75/1/55
f 76/2/57 75/1/55 76/2/57
f 78/3/58 77/3/58 77/3/58
f 77/3/58 78/3/58 78/3/58
f 78/3/59 79/1/56 78/3/59
f 79/1/56 78/3/59 79/1/56
f 79/1/56 75/1/55 75/1/55
f 75/1/55 79/1/56 79/1/56
f 73/1/55 77/3/57 73/1/55
f 77/3/57 73/1/55 77/3/57
f 80/2/59 74/1/56 80/2/59
f 74/1/56 80/2/59 74/1/56
f 76/2/60 80/2/60 80/2/60
f 80/2/60 76/2/60 76/2/60
f 78/4/59 70/5/46 67/4/52
f 70/5/46 78/4/59 79/5/56
f 75/5/55 70/5/46 79/5/56
f 70/5/46 75/5/55 63/5/44
f 75/5/55 64/6/48 63/5/44
f 64/6/48 75/5/55 76/6/57
f 64/6/54 80/6/60 72/6/54
f 80/6/60 64/6/54 76/6/60
f 80/6/59 60/5/46 72/6/52
f 60/5/46 80/6/59 74/5/56
f 73/5/55 60/5/46 74/5/56
f 60/5/46 73/5/55 58/5/44
f 73/5/55 65/4/48 58/5/44
f 65/4/48 73/5/55 77/4/57
f 78/4/58 65/4/49 77/4/58
f 65/4/49 78/4/58 67/4/49
f 83/6/61 82/5/61 81/5/61
f 83/6/61 84/4/61 82/5/61
f 84/4/61 83/6/61 85/4/61
f 86/6/61 85/4/61 83/6/61
f 85/4/61 86/6/61 87/5/61
f 87/5/61 86/6/61 88/5/61
f 91/7/63 90/8/62 89/7/62
f 90/8/62 91/7/63 92/8/63
f 90/8/62 93/7/64 89/7/62
f 93/7/64 90/8/62 94/8/64
f 97/7/65 96/7/65 95/7/65
f 96/7/65 97/7/65 93/7/65
f 93/7/65 97/7/65 89/7/65
f 89/7/65 97/7/65 91/7/65
f 98/7/65 96/7/65 93/7/65
f 98/7/65 99/7/65 96/7/65
f 98/7/65 100/7/65 99/7/65
f 101/7/65 100/7/65 98/7/65
f 102/7/65 100/7/65 101/7/65
f 100/7/65 102/7/65 103/7/65
f 105/8/67 101/7/66 104/8/66
f 101/7/66 105/8/67 102/7/67
f 106/8/68 101/7/66 98/7/68
f 101/7/66 106/8/68 104/8/66
f 107/8/69 102/7/67 105/8/67
f 102/7/67 107/8/69 103/7/69
f 97/7/70 92/8/63 91/7/63
f 92/8/63 97/7/70 108/8/70
f 94/8/64 98/7/68 93/7/64
f 98/7/68 94/8/64 106/8/68
f 100/7/70 109/8/70 99/7/70
f 109/8/70 100/7/70 110/8/70
f 109/8/71 96/7/71 99/7/71
f 96/7/71 109/8/71 111/8/71
f 112/8/69 96/7/69 111/8/69
f 96/7/69 112/8/69 95/7/69
f 108/8/72 90/8/72 92/8/72
f 112/8/72 90/8/72 108/8/72
f 111/8/72 90/8/72 112/8/72
f 111/8/72 94/8/72 90/8/72
f 109/8/72 94/8/72 111/8/72
f 94/8/72 109/8/72 106/8/72
f 110/8/72 106/8/72 109/8/72
f 110/8/72 104/8/72 106/8/72
f 107/8/72 104/8/72 110/8/72
f 104/8/72 107/8/72 105/8/72
f 115/2/73 114/1/73 113/1/73
f 115/2/73 116/3/73 114/1/73
f 116/3/73 115/2/73 117/3/73
f 118/2/73 117/3/73 115/2/73
f 117/3/73 118/2/73 119/1/73
f 119/1/73 118/2/73 120/1/73
f 123/7/75 122/8/74 121/7/74
f 122/8/74 123/7/75 124/8/75
f 122/8/74 125/7/76 121/7/74
f 125/7/76 122/8/74 126/8/76
f 129/7/77 128/7/77 127/7/77
f 128/7/77 129/7/77 125/7/77
f 125/7/77 129/7/77 121/7/77
f 121/7/77 129/7/77 123/7/77
f 130/7/77 128/7/77 125/7/77
f 130/7/77 131/7/77 128/7/77
f 130/7/77 132/7/77 131/7/77
f 133/7/77 132/7/77 130/7/77
f 134/7/77 132/7/77 133/7/77
f 132/7/77 134/7/77 135/7/77
f 137/8/79 133/7/78 136/8/78
f 133/7/78 137/8/79 134/7/79
f 138/8/80 133/7/78 130/7/80
f 133/7/78 138/8/80 136/8/78
f 139/8/81 134/7/79 137/8/79
f 134/7/79 139/8/81 135/7/81
f 129/7/82 124/8/75 123/7/75
f 124/8/75 129/7/82 140/8/82
f 126/8/76 130/7/80 125/7/76
f 130/7/80 126/8/76 138/8/80
f 132/7/82 141/8/82 131/7/82
f 141/8/82 132/7/82 142/8/82
f 141/8/83 128/7/83 131/7/83
f 128/7/83 141/8/83 143/8/83
f 144/8/81 128/7/81 143/8/81
f 128/7/81 144/8/81 127/7/81
f 140/8/84 122/8/84 124/8/84
f 144/8/84 122/8/84 140/8/84
f 143/8/84 122/8/84 144/8/84
f 143/8/84 126/8/84 122/8/84
f 141/8/84 126/8/84 143/8/84
f 126/8/84 141/8/84 138/8/84
f 142/8/84 138/8/84 141/8/84
f 142/8/84 136/8/84 138/8/84
f 139/8/84 136/8/84 142/8/84
f 136/8/84 139/8/84 137/8/84

