# Created by Kenney (www.kenney.nl)

mtllib track-striped-wide-corner-small-ramp.mtl

g track-striped-wide-corner-small-ramp

v 0.9091206 0.3297706 0.7166808 1 1 1
v 0.6529789 0.4925038 1.336226 1 1 1
v 0.8138533 0.3328865 0.6864402 1 1 1
v 0.5673325 0.4945796 1.284647 1 1 1
v -0.9009526 0.3889732 0.1421108 1 1 1
v -0.9223809 0.1959088 0.1897237 1 1 1
v -0.9743052 0.5319445 0.3562303 1 1 1
v -1.017004 0.3471498 0.4196948 1 1 1
v 0.5889306 0.2153118 1.431422 1 1 1
v 0.8769779 0.04017401 0.7881002 1 1 1
v -1.124 0.2568284 0.3998482 1 1 1
v -1.028362 0.1024926 0.1832896 1 1 1
v -0.9962196 0.3920891 0.1118703 1 1 1
v -1.059952 0.5340204 0.3046515 1 1 1
v 0.7924252 0.1398221 0.7340531 1 1 1
v 0.5246334 0.3097849 1.348111 1 1 1
v -1 5.960464E-07 1.072884E-06 1 1 1
v -0.9999998 0.3000007 4.768372E-07 1 1 1
v -0.8999999 0.3000005 7.152557E-07 1 1 1
v -0.8999999 0.1000005 1.072884E-06 1 1 1
v 0.9000001 0.09999943 5.00679E-06 1 1 1
v 0.9000001 0.2999995 4.649162E-06 1 1 1
v 1 0.2999995 4.768372E-06 1 1 1
v 1 -5.960464E-07 5.483627E-06 1 1 1
v 0.2910202 0.7072268 1.859095 1 1 1
v -0.1667967 0.9367681 2.305552 1 1 1
v 0.2167857 0.7076875 1.792094 1 1 1
v -0.2275345 0.93559 2.22612 1 1 1
v -1.119433 0.7159799 0.5860883 1 1 1
v -1.176926 0.5348889 0.6485431 1 1 1
v -1.320818 0.9143872 0.7963359 1 1 1
v -1.385152 0.7322658 0.8482296 1 1 1
v -0.2632973 0.6635859 2.383392 1 1 1
v 0.2047811 0.4355901 1.952777 1 1 1
v -1.478057 0.6400273 0.794744 1 1 1
v -1.279906 0.444804 0.6127703 1 1 1
v -1.193667 0.7164407 0.5190879 1 1 1
v -1.381556 0.9132093 0.7169036 1 1 1
v 0.1592932 0.5265963 1.854549 1 1 1
v -0.2918684 0.7534686 2.278013 1 1 1
v -0.7440668 1.152364 2.678264 1 1 1
v -1.494462 1.298654 2.94129 1 1 1
v -0.787257 1.149666 2.588112 1 1 1
v -1.512497 1.295937 2.842967 1 1 1
v -1.564676 1.101117 0.965379 1 1 1
v -1.624005 0.9131788 0.9994252 1 1 1
v -1.837119 1.247026 1.073157 1 1 1
v -1.868636 1.049845 1.084387 1 1 1
v -1.541738 1.002882 2.958135 1 1 1
v -0.8330606 0.8704556 2.729333 1 1 1
v -1.90243 0.9485364 0.9916792 1 1 1
v -1.69686 0.8165123 0.9262962 1 1 1
v -1.607866 1.09842 0.875227 1 1 1
v -1.855154 1.244309 0.974834 1 1 1
v -0.8465861 0.9617277 2.622158 1 1 1
v -1.544014 1.098755 2.854197 1 1 1
v -1.999993 1.300001 3 1 1 1
v -1.999994 1.300001 2.9 1 1 1
v -1.999998 1.299999 1.1 1 1 1
v -1.999999 1.099999 1.1 1 1 1
v -1.999994 1.000001 3 1 1 1
v -1.999999 0.9999993 1 1 1 1
v -1.999999 1.299999 0.9999998 1 1 1
v -1.999994 1.100001 2.9 1 1 1
v -0.9 0.3 0 1 1 1
v -1 0.3 0 1 1 1
v -0.9 0.1 0 1 1 1
v -1 0 0 1 1 1
v 1 0 0 1 1 1
v 0.9 0.1 0 1 1 1
v 1 0.3 0 1 1 1
v 0.9 0.3 0 1 1 1
v -0.1207107 0 -0.1707107 1 1 1
v -0.1207107 0.05000001 -0.1707107 1 1 1
v -0.15 0 -0.1 1 1 1
v -0.15 0.05000001 -0.1 1 1 1
v -0.05 0 -0.2 1 1 1
v -0.05 0.05000001 -0.2 1 1 1
v -0.05 0 7.219114E-16 1 1 1
v -0.05 0 -0.1 1 1 1
v -0.15 0 1.082867E-15 1 1 1
v 0.05 0 -0.2 1 1 1
v 0.05 0 -0.1 1 1 1
v 0.05 0 3.609557E-16 1 1 1
v 0.1207107 0 -0.1707107 1 1 1
v 0.15 0 -0.1 1 1 1
v 0.15 0 0 1 1 1
v 0.1207107 0.05000001 -0.1707107 1 1 1
v 0.15 0.05000001 -0.1 1 1 1
v 0.05 0.05000001 -0.2 1 1 1
v 0.15 0.05000001 0 1 1 1
v -0.15 0.05000001 1.082867E-15 1 1 1
v 0.05 0.05000001 -0.1 1 1 1
v 0.05 0.05000001 3.609557E-16 1 1 1
v -0.05 0.05000001 -0.1 1 1 1
v -0.05 0.05000001 7.219114E-16 1 1 1
v -2 1.3 2.9 1 1 1
v -2 1.3 3 1 1 1
v -2 1.1 2.9 1 1 1
v -2 1 3 1 1 1
v -2 0.9999999 1 1 1 1
v -2 1.1 1.1 1 1 1
v -2 1.3 1 1 1 1
v -2 1.3 1.1 1 1 1
v -2.170711 1 2.120711 1 1 1
v -2.170711 1.05 2.120711 1 1 1
v -2.1 1 2.15 1 1 1
v -2.1 1.05 2.15 1 1 1
v -2.2 1 2.05 1 1 1
v -2.2 1.05 2.05 1 1 1
v -2 1 2.05 1 1 1
v -2.1 1 2.05 1 1 1
v -2 1 2.15 1 1 1
v -2.2 1 1.95 1 1 1
v -2.1 1 1.95 1 1 1
v -2 1 1.95 1 1 1
v -2.170711 1 1.879289 1 1 1
v -2.1 1 1.85 1 1 1
v -2 1 1.85 1 1 1
v -2.170711 1.05 1.879289 1 1 1
v -2.1 1.05 1.85 1 1 1
v -2.2 1.05 1.95 1 1 1
v -2 1.05 1.85 1 1 1
v -2 1.05 2.15 1 1 1
v -2.1 1.05 1.95 1 1 1
v -2 1.05 1.95 1 1 1
v -2.1 1.05 2.05 1 1 1
v -2 1.05 2.05 1 1 1

vn 0.7494 0.6605526 0.04549586
vn 0.7565761 0.6386693 0.1403356
vn -0.5978788 0.7046185 -0.3821698
vn -0.4546488 0.668026 -0.5890973
vn 0.95267 -0.03115931 0.3024052
vn 0.8564653 -0.02075831 0.515787
vn -0.2134948 -0.9239732 0.3173224
vn -0.1071417 -0.9653217 0.2380644
vn -0.95267 0.03115931 -0.3024052
vn -0.8564653 0.02075831 -0.515787
vn 0.1071417 0.9653217 -0.2380644
vn 0.2134948 0.9239732 -0.3173224
vn -1 6.090609E-07 -2.185584E-06
vn -0.7071064 0.7071072 -3.09088E-06
vn 0.7071072 0.7071064 2.646573E-12
vn 1 -6.090609E-07 2.185584E-06
vn 6.090656E-07 1 -2.185581E-06
vn -6.090656E-07 -1 2.185581E-06
vn 0.7281833 0.6369962 0.2529526
vn 0.6569369 0.6522257 0.3782004
vn -0.3216493 0.6435114 -0.6945753
vn -0.2020279 0.6355672 -0.7451437
vn 0.7423437 -0.004606932 0.6700034
vn 0.6073799 0.01177932 0.7943242
vn -0.3216693 -0.910607 0.2594681
vn -0.2874629 -0.9054555 0.3122744
vn -0.7423437 0.004606932 -0.6700034
vn -0.6073799 -0.01177932 -0.7943242
vn 0.2874629 0.9054555 -0.3122744
vn 0.3216693 0.910607 -0.2594681
vn 0.5151594 0.683535 0.5170982
vn 0.2389534 0.716356 0.655542
vn -0.09563893 0.6453913 -0.7578411
vn -0.01609433 0.677928 -0.7349521
vn 0.4318997 0.02697165 0.9015182
vn 0.180346 0.02717268 0.9832278
vn -0.1575852 -0.9859077 0.05615138
vn -0.2966458 -0.9396929 0.1702309
vn -0.4318997 -0.02697165 -0.9015182
vn -0.180346 -0.02717268 -0.9832278
vn 0.2966458 0.9396929 -0.1702309
vn 0.1575852 0.9859077 -0.05615138
vn 3.516674E-06 0.7071073 0.7071063
vn -3.576279E-07 0.7071062 -0.7071073
vn 2.741814E-06 7.205546E-07 1
vn -2.304711E-06 -1 7.20561E-07
vn -2.741814E-06 -7.205546E-07 -1
vn 2.304711E-06 1 -7.20561E-07
vn 0 0 -1
vn -0.7071068 0 -0.7071068
vn -0.9807853 0 -0.1950903
vn -0.1950903 0 -0.9807853
vn 0 -1 0
vn 0.7071068 0 -0.7071068
vn 0.9807853 0 -0.1950903
vn 0.1950903 0 -0.9807853
vn 1 0 0
vn -1 0 0
vn 0 0 1
vn 0 1 0
vn -0.9999999 0 3.576279E-07
vn -0.7071065 6.318283E-08 0.7071069
vn -0.19509 8.76371E-08 0.9807853
vn -0.9807851 1.74321E-08 0.1950907
vn 3.197442E-14 -1 8.935402E-08
vn -0.7071069 -6.318283E-08 -0.7071065
vn -0.1950907 -8.76371E-08 -0.9807851
vn -0.9807853 -1.74321E-08 -0.19509
vn -3.576279E-07 -8.935402E-08 -0.9999999
vn 3.576279E-07 8.935402E-08 0.9999999
vn 0.9999999 -6.448188E-23 -3.576279E-07
vn -3.197442E-14 1 -8.935402E-08

vt 0.59375 0.475
vt 0.59375 0.3416667
vt 0.59375 0.275
vt 0.59375 0.025
vt 0.59375 0.225
vt 0.59375 0.09166666
vt 0.34375 0.025
vt 0.34375 0.225

usemtl colormap

f 3/1/3 2/1/2 1/1/1
f 2/1/2 3/1/3 4/1/4
f 7/1/2 6/2/5 5/1/1
f 6/2/5 7/1/2 8/2/6
f 11/3/7 10/3/8 9/3/7
f 10/3/8 11/3/7 12/3/8
f 11/3/10 13/1/3 12/3/9
f 13/1/3 11/3/10 14/1/4
f 13/1/3 7/1/2 5/1/1
f 7/1/2 13/1/3 14/1/4
f 2/1/2 10/3/5 1/1/1
f 10/3/5 2/1/2 9/3/6
f 16/2/10 3/1/3 15/2/9
f 3/1/3 16/2/10 4/1/4
f 6/2/11 16/2/12 15/2/11
f 16/2/12 6/2/11 8/2/12
f 12/4/9 18/5/14 17/4/13
f 18/5/14 12/4/9 13/5/3
f 5/5/1 18/5/14 13/5/3
f 18/5/14 5/5/1 19/5/15
f 5/5/1 20/6/16 19/5/15
f 20/6/16 5/5/1 6/6/5
f 20/6/17 15/6/11 21/6/17
f 15/6/11 20/6/17 6/6/11
f 15/6/9 22/5/14 21/6/13
f 22/5/14 15/6/9 3/5/3
f 1/5/1 22/5/14 3/5/3
f 22/5/14 1/5/1 23/5/15
f 1/5/1 24/4/16 23/5/15
f 24/4/16 1/5/1 10/4/5
f 12/4/8 24/4/18 10/4/8
f 24/4/18 12/4/8 17/4/18
f 27/1/21 26/1/20 25/1/19
f 26/1/20 27/1/21 28/1/22
f 31/1/20 30/2/23 29/1/19
f 30/2/23 31/1/20 32/2/24
f 35/3/25 34/3/26 33/3/25
f 34/3/26 35/3/25 36/3/26
f 35/3/28 37/1/21 36/3/27
f 37/1/21 35/3/28 38/1/22
f 37/1/21 31/1/20 29/1/19
f 31/1/20 37/1/21 38/1/22
f 26/1/20 34/3/23 25/1/19
f 34/3/23 26/1/20 33/3/24
f 40/2/28 27/1/21 39/2/27
f 27/1/21 40/2/28 28/1/22
f 30/2/29 40/2/30 39/2/29
f 40/2/30 30/2/29 32/2/30
f 36/4/27 14/5/4 11/4/10
f 14/5/4 36/4/27 37/5/21
f 29/5/19 14/5/4 37/5/21
f 14/5/4 29/5/19 7/5/2
f 29/5/19 8/6/6 7/5/2
f 8/6/6 29/5/19 30/6/23
f 8/6/12 39/6/29 16/6/12
f 39/6/29 8/6/12 30/6/29
f 39/6/27 4/5/4 16/6/10
f 4/5/4 39/6/27 27/5/21
f 25/5/19 4/5/4 27/5/21
f 4/5/4 25/5/19 2/5/2
f 25/5/19 9/4/6 2/5/2
f 9/4/6 25/5/19 34/4/23
f 36/4/26 9/4/7 34/4/26
f 9/4/7 36/4/26 11/4/7
f 43/1/33 42/1/32 41/1/31
f 42/1/32 43/1/33 44/1/34
f 47/1/32 46/2/35 45/1/31
f 46/2/35 47/1/32 48/2/36
f 51/3/37 50/3/38 49/3/37
f 50/3/38 51/3/37 52/3/38
f 51/3/40 53/1/33 52/3/39
f 53/1/33 51/3/40 54/1/34
f 53/1/33 47/1/32 45/1/31
f 47/1/32 53/1/33 54/1/34
f 42/1/32 50/3/35 41/1/31
f 50/3/35 42/1/32 49/3/36
f 56/2/40 43/1/33 55/2/39
f 43/1/33 56/2/40 44/1/34
f 46/2/41 56/2/42 55/2/41
f 56/2/42 46/2/41 48/2/42
f 52/4/39 38/5/22 35/4/28
f 38/5/22 52/4/39 53/5/33
f 45/5/31 38/5/22 53/5/33
f 38/5/22 45/5/31 31/5/20
f 45/5/31 32/6/24 31/5/20
f 32/6/24 45/5/31 46/6/35
f 32/6/30 55/6/41 40/6/30
f 55/6/41 32/6/30 46/6/41
f 55/6/39 28/5/22 40/6/28
f 28/5/22 55/6/39 43/5/33
f 41/5/31 28/5/22 43/5/33
f 28/5/22 41/5/31 26/5/20
f 41/5/31 33/4/24 26/5/20
f 33/4/24 41/5/31 50/4/35
f 52/4/38 33/4/25 50/4/38
f 33/4/25 52/4/38 35/4/25
f 58/1/44 57/1/43 57/1/43
f 57/1/43 58/1/44 58/1/44
f 59/1/43 60/2/45 59/1/43
f 60/2/45 59/1/43 60/2/45
f 62/3/46 61/3/46 61/3/46
f 61/3/46 62/3/46 62/3/46
f 62/3/47 63/1/44 62/3/47
f 63/1/44 62/3/47 63/1/44
f 63/1/44 59/1/43 59/1/43
f 59/1/43 63/1/44 63/1/44
f 57/1/43 61/3/45 57/1/43
f 61/3/45 57/1/43 61/3/45
f 64/2/47 58/1/44 64/2/47
f 58/1/44 64/2/47 58/1/44
f 60/2/48 64/2/48 64/2/48
f 64/2/48 60/2/48 60/2/48
f 62/4/47 54/5/34 51/4/40
f 54/5/34 62/4/47 63/5/44
f 59/5/43 54/5/34 63/5/44
f 54/5/34 59/5/43 47/5/32
f 59/5/43 48/6/36 47/5/32
f 48/6/36 59/5/43 60/6/45
f 48/6/42 64/6/48 56/6/42
f 64/6/48 48/6/42 60/6/48
f 64/6/47 44/5/34 56/6/40
f 44/5/34 64/6/47 58/5/44
f 57/5/43 44/5/34 58/5/44
f 44/5/34 57/5/43 42/5/32
f 57/5/43 49/4/36 42/5/32
f 49/4/36 57/5/43 61/4/45
f 62/4/46 49/4/37 61/4/46
f 49/4/37 62/4/46 51/4/37
f 67/6/49 66/5/49 65/5/49
f 67/6/49 68/4/49 66/5/49
f 68/4/49 67/6/49 69/4/49
f 70/6/49 69/4/49 67/6/49
f 69/4/49 70/6/49 71/5/49
f 71/5/49 70/6/49 72/5/49
f 75/7/51 74/8/50 73/7/50
f 74/8/50 75/7/51 76/8/51
f 74/8/50 77/7/52 73/7/50
f 77/7/52 74/8/50 78/8/52
f 81/7/53 80/7/53 79/7/53
f 80/7/53 81/7/53 77/7/53
f 77/7/53 81/7/53 73/7/53
f 73/7/53 81/7/53 75/7/53
f 82/7/53 80/7/53 77/7/53
f 82/7/53 83/7/53 80/7/53
f 82/7/53 84/7/53 83/7/53
f 85/7/53 84/7/53 82/7/53
f 86/7/53 84/7/53 85/7/53
f 84/7/53 86/7/53 87/7/53
f 89/8/55 85/7/54 88/8/54
f 85/7/54 89/8/55 86/7/55
f 90/8/56 85/7/54 82/7/56
f 85/7/54 90/8/56 88/8/54
f 91/8/57 86/7/55 89/8/55
f 86/7/55 91/8/57 87/7/57
f 81/7/58 76/8/51 75/7/51
f 76/8/51 81/7/58 92/8/58
f 78/8/52 82/7/56 77/7/52
f 82/7/56 78/8/52 90/8/56
f 84/7/58 93/8/58 83/7/58
f 93/8/58 84/7/58 94/8/58
f 93/8/59 80/7/59 83/7/59
f 80/7/59 93/8/59 95/8/59
f 96/8/57 80/7/57 95/8/57
f 80/7/57 96/8/57 79/7/57
f 92/8/60 74/8/60 76/8/60
f 96/8/60 74/8/60 92/8/60
f 95/8/60 74/8/60 96/8/60
f 95/8/60 78/8/60 74/8/60
f 93/8/60 78/8/60 95/8/60
f 78/8/60 93/8/60 90/8/60
f 94/8/60 90/8/60 93/8/60
f 94/8/60 88/8/60 90/8/60
f 91/8/60 88/8/60 94/8/60
f 88/8/60 91/8/60 89/8/60
f 99/2/61 98/1/61 97/1/61
f 99/2/61 100/3/61 98/1/61
f 100/3/61 99/2/61 101/3/61
f 102/2/61 101/3/61 99/2/61
f 101/3/61 102/2/61 103/1/61
f 103/1/61 102/2/61 104/1/61
f 107/7/63 106/8/62 105/7/62
f 106/8/62 107/7/63 108/8/63
f 106/8/62 109/7/64 105/7/62
f 109/7/64 106/8/62 110/8/64
f 113/7/65 112/7/65 111/7/65
f 112/7/65 113/7/65 109/7/65
f 109/7/65 113/7/65 105/7/65
f 105/7/65 113/7/65 107/7/65
f 114/7/65 112/7/65 109/7/65
f 114/7/65 115/7/65 112/7/65
f 114/7/65 116/7/65 115/7/65
f 117/7/65 116/7/65 114/7/65
f 118/7/65 116/7/65 117/7/65
f 116/7/65 118/7/65 119/7/65
f 121/8/67 117/7/66 120/8/66
f 117/7/66 121/8/67 118/7/67
f 122/8/68 117/7/66 114/7/68
f 117/7/66 122/8/68 120/8/66
f 123/8/69 118/7/67 121/8/67
f 118/7/67 123/8/69 119/7/69
f 113/7/70 108/8/63 107/7/63
f 108/8/63 113/7/70 124/8/70
f 110/8/64 114/7/68 109/7/64
f 114/7/68 110/8/64 122/8/68
f 116/7/70 125/8/70 115/7/70
f 125/8/70 116/7/70 126/8/70
f 125/8/71 112/7/71 115/7/71
f 112/7/71 125/8/71 127/8/71
f 128/8/69 112/7/69 127/8/69
f 112/7/69 128/8/69 111/7/69
f 124/8/72 106/8/72 108/8/72
f 128/8/72 106/8/72 124/8/72
f 127/8/72 106/8/72 128/8/72
f 127/8/72 110/8/72 106/8/72
f 125/8/72 110/8/72 127/8/72
f 110/8/72 125/8/72 122/8/72
f 126/8/72 122/8/72 125/8/72
f 126/8/72 120/8/72 122/8/72
f 123/8/72 120/8/72 126/8/72
f 120/8/72 123/8/72 121/8/72

g track-striped-wide-corner-small-ramp




usemtl colormap

f 3/1/3 2/1/2 1/1/1
f 2/1/2 3/1/3 4/1/4
f 7/1/2 6/2/5 5/1/1
f 6/2/5 7/1/2 8/2/6
f 11/3/7 10/3/8 9/3/7
f 10/3/8 11/3/7 12/3/8
f 11/3/10 13/1/3 12/3/9
f 13/1/3 11/3/10 14/1/4
f 13/1/3 7/1/2 5/1/1
f 7/1/2 13/1/3 14/1/4
f 2/1/2 10/3/5 1/1/1
f 10/3/5 2/1/2 9/3/6
f 16/2/10 3/1/3 15/2/9
f 3/1/3 16/2/10 4/1/4
f 6/2/11 16/2/12 15/2/11
f 16/2/12 6/2/11 8/2/12
f 12/4/9 18/5/14 17/4/13
f 18/5/14 12/4/9 13/5/3
f 5/5/1 18/5/14 13/5/3
f 18/5/14 5/5/1 19/5/15
f 5/5/1 20/6/16 19/5/15
f 20/6/16 5/5/1 6/6/5
f 20/6/17 15/6/11 21/6/17
f 15/6/11 20/6/17 6/6/11
f 15/6/9 22/5/14 21/6/13
f 22/5/14 15/6/9 3/5/3
f 1/5/1 22/5/14 3/5/3
f 22/5/14 1/5/1 23/5/15
f 1/5/1 24/4/16 23/5/15
f 24/4/16 1/5/1 10/4/5
f 12/4/8 24/4/18 10/4/8
f 24/4/18 12/4/8 17/4/18
f 27/1/21 26/1/20 25/1/19
f 26/1/20 27/1/21 28/1/22
f 31/1/20 30/2/23 29/1/19
f 30/2/23 31/1/20 32/2/24
f 35/3/25 34/3/26 33/3/25
f 34/3/26 35/3/25 36/3/26
f 35/3/28 37/1/21 36/3/27
f 37/1/21 35/3/28 38/1/22
f 37/1/21 31/1/20 29/1/19
f 31/1/20 37/1/21 38/1/22
f 26/1/20 34/3/23 25/1/19
f 34/3/23 26/1/20 33/3/24
f 40/2/28 27/1/21 39/2/27
f 27/1/21 40/2/28 28/1/22
f 30/2/29 40/2/30 39/2/29
f 40/2/30 30/2/29 32/2/30
f 36/4/27 14/5/4 11/4/10
f 14/5/4 36/4/27 37/5/21
f 29/5/19 14/5/4 37/5/21
f 14/5/4 29/5/19 7/5/2
f 29/5/19 8/6/6 7/5/2
f 8/6/6 29/5/19 30/6/23
f 8/6/12 39/6/29 16/6/12
f 39/6/29 8/6/12 30/6/29
f 39/6/27 4/5/4 16/6/10
f 4/5/4 39/6/27 27/5/21
f 25/5/19 4/5/4 27/5/21
f 4/5/4 25/5/19 2/5/2
f 25/5/19 9/4/6 2/5/2
f 9/4/6 25/5/19 34/4/23
f 36/4/26 9/4/7 34/4/26
f 9/4/7 36/4/26 11/4/7
f 43/1/33 42/1/32 41/1/31
f 42/1/32 43/1/33 44/1/34
f 47/1/32 46/2/35 45/1/31
f 46/2/35 47/1/32 48/2/36
f 51/3/37 50/3/38 49/3/37
f 50/3/38 51/3/37 52/3/38
f 51/3/40 53/1/33 52/3/39
f 53/1/33 51/3/40 54/1/34
f 53/1/33 47/1/32 45/1/31
f 47/1/32 53/1/33 54/1/34
f 42/1/32 50/3/35 41/1/31
f 50/3/35 42/1/32 49/3/36
f 56/2/40 43/1/33 55/2/39
f 43/1/33 56/2/40 44/1/34
f 46/2/41 56/2/42 55/2/41
f 56/2/42 46/2/41 48/2/42
f 52/4/39 38/5/22 35/4/28
f 38/5/22 52/4/39 53/5/33
f 45/5/31 38/5/22 53/5/33
f 38/5/22 45/5/31 31/5/20
f 45/5/31 32/6/24 31/5/20
f 32/6/24 45/5/31 46/6/35
f 32/6/30 55/6/41 40/6/30
f 55/6/41 32/6/30 46/6/41
f 55/6/39 28/5/22 40/6/28
f 28/5/22 55/6/39 43/5/33
f 41/5/31 28/5/22 43/5/33
f 28/5/22 41/5/31 26/5/20
f 41/5/31 33/4/24 26/5/20
f 33/4/24 41/5/31 50/4/35
f 52/4/38 33/4/25 50/4/38
f 33/4/25 52/4/38 35/4/25
f 58/1/44 57/1/43 57/1/43
f 57/1/43 58/1/44 58/1/44
f 59/1/43 60/2/45 59/1/43
f 60/2/45 59/1/43 60/2/45
f 62/3/46 61/3/46 61/3/46
f 61/3/46 62/3/46 62/3/46
f 62/3/47 63/1/44 62/3/47
f 63/1/44 62/3/47 63/1/44
f 63/1/44 59/1/43 59/1/43
f 59/1/43 63/1/44 63/1/44
f 57/1/43 61/3/45 57/1/43
f 61/3/45 57/1/43 61/3/45
f 64/2/47 58/1/44 64/2/47
f 58/1/44 64/2/47 58/1/44
f 60/2/48 64/2/48 64/2/48
f 64/2/48 60/2/48 60/2/48
f 62/4/47 54/5/34 51/4/40
f 54/5/34 62/4/47 63/5/44
f 59/5/43 54/5/34 63/5/44
f 54/5/34 59/5/43 47/5/32
f 59/5/43 48/6/36 47/5/32
f 48/6/36 59/5/43 60/6/45
f 48/6/42 64/6/48 56/6/42
f 64/6/48 48/6/42 60/6/48
f 64/6/47 44/5/34 56/6/40
f 44/5/34 64/6/47 58/5/44
f 57/5/43 44/5/34 58/5/44
f 44/5/34 57/5/43 42/5/32
f 57/5/43 49/4/36 42/5/32
f 49/4/36 57/5/43 61/4/45
f 62/4/46 49/4/37 61/4/46
f 49/4/37 62/4/46 51/4/37
f 67/6/49 66/5/49 65/5/49
f 67/6/49 68/4/49 66/5/49
f 68/4/49 67/6/49 69/4/49
f 70/6/49 69/4/49 67/6/49
f 69/4/49 70/6/49 71/5/49
f 71/5/49 70/6/49 72/5/49
f 75/7/51 74/8/50 73/7/50
f 74/8/50 75/7/51 76/8/51
f 74/8/50 77/7/52 73/7/50
f 77/7/52 74/8/50 78/8/52
f 81/7/53 80/7/53 79/7/53
f 80/7/53 81/7/53 77/7/53
f 77/7/53 81/7/53 73/7/53
f 73/7/53 81/7/53 75/7/53
f 82/7/53 80/7/53 77/7/53
f 82/7/53 83/7/53 80/7/53
f 82/7/53 84/7/53 83/7/53
f 85/7/53 84/7/53 82/7/53
f 86/7/53 84/7/53 85/7/53
f 84/7/53 86/7/53 87/7/53
f 89/8/55 85/7/54 88/8/54
f 85/7/54 89/8/55 86/7/55
f 90/8/56 85/7/54 82/7/56
f 85/7/54 90/8/56 88/8/54
f 91/8/57 86/7/55 89/8/55
f 86/7/55 91/8/57 87/7/57
f 81/7/58 76/8/51 75/7/51
f 76/8/51 81/7/58 92/8/58
f 78/8/52 82/7/56 77/7/52
f 82/7/56 78/8/52 90/8/56
f 84/7/58 93/8/58 83/7/58
f 93/8/58 84/7/58 94/8/58
f 93/8/59 80/7/59 83/7/59
f 80/7/59 93/8/59 95/8/59
f 96/8/57 80/7/57 95/8/57
f 80/7/57 96/8/57 79/7/57
f 92/8/60 74/8/60 76/8/60
f 96/8/60 74/8/60 92/8/60
f 95/8/60 74/8/60 96/8/60
f 95/8/60 78/8/60 74/8/60
f 93/8/60 78/8/60 95/8/60
f 78/8/60 93/8/60 90/8/60
f 94/8/60 90/8/60 93/8/60
f 94/8/60 88/8/60 90/8/60
f 91/8/60 88/8/60 94/8/60
f 88/8/60 91/8/60 89/8/60
f 99/2/61 98/1/61 97/1/61
f 99/2/61 100/3/61 98/1/61
f 100/3/61 99/2/61 101/3/61
f 102/2/61 101/3/61 99/2/61
f 101/3/61 102/2/61 103/1/61
f 103/1/61 102/2/61 104/1/61
f 107/7/63 106/8/62 105/7/62
f 106/8/62 107/7/63 108/8/63
f 106/8/62 109/7/64 105/7/62
f 109/7/64 106/8/62 110/8/64
f 113/7/65 112/7/65 111/7/65
f 112/7/65 113/7/65 109/7/65
f 109/7/65 113/7/65 105/7/65
f 105/7/65 113/7/65 107/7/65
f 114/7/65 112/7/65 109/7/65
f 114/7/65 115/7/65 112/7/65
f 114/7/65 116/7/65 115/7/65
f 117/7/65 116/7/65 114/7/65
f 118/7/65 116/7/65 117/7/65
f 116/7/65 118/7/65 119/7/65
f 121/8/67 117/7/66 120/8/66
f 117/7/66 121/8/67 118/7/67
f 122/8/68 117/7/66 114/7/68
f 117/7/66 122/8/68 120/8/66
f 123/8/69 118/7/67 121/8/67
f 118/7/67 123/8/69 119/7/69
f 113/7/70 108/8/63 107/7/63
f 108/8/63 113/7/70 124/8/70
f 110/8/64 114/7/68 109/7/64
f 114/7/68 110/8/64 122/8/68
f 116/7/70 125/8/70 115/7/70
f 125/8/70 116/7/70 126/8/70
f 125/8/71 112/7/71 115/7/71
f 112/7/71 125/8/71 127/8/71
f 128/8/69 112/7/69 127/8/69
f 112/7/69 128/8/69 111/7/69
f 124/8/72 106/8/72 108/8/72
f 128/8/72 106/8/72 124/8/72
f 127/8/72 106/8/72 128/8/72
f 127/8/72 110/8/72 106/8/72
f 125/8/72 110/8/72 127/8/72
f 110/8/72 125/8/72 122/8/72
f 126/8/72 122/8/72 125/8/72
f 126/8/72 120/8/72 122/8/72
f 123/8/72 120/8/72 126/8/72
f 120/8/72 123/8/72 121/8/72

