# Created by Kenney (www.kenney.nl)

mtllib track-striped-wide-straight-bend.mtl

g track-striped-wide-straight-bend

v 0.9999828 0.3640815 0.4026121 1 1 1
v 0.9999657 0.5414327 0.7887734 1 1 1
v 0.8999825 0.364076 0.4026138 1 1 1
v 0.8999662 0.5414231 0.7887793 1 1 1
v -0.9000168 0.3639777 0.4026445 1 1 1
v -0.9000053 0.1730654 0.4622476 1 1 1
v -0.900034 0.5412498 0.7888855 1 1 1
v -0.9000111 0.3706726 0.8933051 1 1 1
v 1 0.285567 0.9454029 1 1 1
v 1 0.07771325 0.4920168 1 1 1
v -1 0.2853744 0.9455208 1 1 1
v -1 0.07760394 0.4920509 1 1 1
v -1.000017 0.3639722 0.4026462 1 1 1
v -1.000034 0.5412401 0.7888913 1 1 1
v 0.8999939 0.1731639 0.4622169 1 1 1
v 0.8999882 0.370846 0.8931989 1 1 1
v -1 0 3.099442E-06 1 1 1
v -1 0.3 2.503395E-06 1 1 1
v -0.8999996 0.3 2.503395E-06 1 1 1
v -0.8999996 0.1 2.861023E-06 1 1 1
v 0.8999996 0.1 2.861023E-06 1 1 1
v 0.8999996 0.3 2.503395E-06 1 1 1
v 1 0.3 2.503395E-06 1 1 1
v 1 0 3.099442E-06 1 1 1
v 0.9999495 0.8074673 1.132352 1 1 1
v 0.9999332 1.140364 1.412899 1 1 1
v 0.89995 0.8074553 1.132364 1 1 1
v 0.8999329 1.140352 1.412918 1 1 1
v -0.9000502 0.8072379 1.132573 1 1 1
v -0.9000168 0.6629606 1.271079 1 1 1
v -0.9000664 1.140129 1.413249 1 1 1
v -0.9000225 1.028385 1.579121 1 1 1
v 1 0.972749 1.661707 1 1 1
v 1 0.5910516 1.340112 1 1 1
v -1 0.9725008 1.662075 1 1 1
v -1 0.5908101 1.340344 1 1 1
v -1.000051 0.8072257 1.132584 1 1 1
v -1.000067 1.140116 1.413268 1 1 1
v 0.8999834 0.6631782 1.270871 1 1 1
v 0.8999777 1.028608 1.578789 1 1 1
v 0.999917 1.520048 1.609305 1 1 1
v 0.9999056 1.921852 1.697173 1 1 1
v 0.8999166 1.520038 1.609331 1 1 1
v 0.8999052 1.92185 1.697204 1 1 1
v -0.9000835 1.519865 1.6098 1 1 1
v -0.9000273 1.450456 1.797369 1 1 1
v -0.900094 1.921814 1.697769 1 1 1
v -0.9000311 1.909059 1.897362 1 1 1
v 1 1.90272 1.996562 1 1 1
v 1 1.415935 1.89066 1 1 1
v -1 1.90268 1.99719 1 1 1
v -1 1.415742 1.89118 1 1 1
v -1.000083 1.519855 1.609825 1 1 1
v -1.000094 1.921812 1.697801 1 1 1
v 0.899972 1.45063 1.796901 1 1 1
v 0.8999681 1.909095 1.896797 1 1 1
v 1 1.999998 1.7 1 1 1
v 0.8999996 1.999998 1.7 1 1 1
v -0.8999996 1.999998 1.7 1 1 1
v -0.8999996 1.999997 1.9 1 1 1
v 1 1.999997 2 1 1 1
v -1 1.999997 2 1 1 1
v -1 1.999998 1.7 1 1 1
v 0.8999996 1.999997 1.9 1 1 1
v -0.9 0.3 0 1 1 1
v -1 0.3 0 1 1 1
v -0.9 0.1 0 1 1 1
v -1 0 0 1 1 1
v 1 0 0 1 1 1
v 0.9 0.1 0 1 1 1
v 1 0.3 0 1 1 1
v 0.9 0.3 0 1 1 1
v -0.1207107 0 -0.1707107 1 1 1
v -0.1207107 0.05000001 -0.1707107 1 1 1
v -0.15 0 -0.1 1 1 1
v -0.15 0.05000001 -0.1 1 1 1
v -0.05 0 -0.2 1 1 1
v -0.05 0.05000001 -0.2 1 1 1
v -0.05 0 7.219114E-16 1 1 1
v -0.05 0 -0.1 1 1 1
v -0.15 0 1.082867E-15 1 1 1
v 0.05 0 -0.2 1 1 1
v 0.05 0 -0.1 1 1 1
v 0.05 0 3.609557E-16 1 1 1
v 0.1207107 0 -0.1707107 1 1 1
v 0.15 0 -0.1 1 1 1
v 0.15 0 0 1 1 1
v 0.1207107 0.05000001 -0.1707107 1 1 1
v 0.15 0.05000001 -0.1 1 1 1
v 0.05 0.05000001 -0.2 1 1 1
v 0.15 0.05000001 0 1 1 1
v -0.15 0.05000001 1.082867E-15 1 1 1
v 0.05 0.05000001 -0.1 1 1 1
v 0.05 0.05000001 3.609557E-16 1 1 1
v -0.05 0.05000001 -0.1 1 1 1
v -0.05 0.05000001 7.219114E-16 1 1 1
v 0.9 2 1.7 1 1 1
v 1 2 1.7 1 1 1
v 0.9 2 1.9 1 1 1
v 1 2 2 1 1 1
v -1 2 2 1 1 1
v -0.9 2 1.9 1 1 1
v -1 2 1.7 1 1 1
v -0.9 2 1.7 1 1 1
v 0.1207107 2.170711 2 1 1 1
v 0.1207107 2.170711 1.95 1 1 1
v 0.15 2.1 2 1 1 1
v 0.15 2.1 1.95 1 1 1
v 0.05 2.2 2 1 1 1
v 0.05 2.2 1.95 1 1 1
v 0.05 2 2 1 1 1
v 0.05 2.1 2 1 1 1
v 0.15 2 2 1 1 1
v -0.05 2.2 2 1 1 1
v -0.05 2.1 2 1 1 1
v -0.05 2 2 1 1 1
v -0.1207107 2.170711 2 1 1 1
v -0.15 2.1 2 1 1 1
v -0.15 2 2 1 1 1
v -0.1207107 2.170711 1.95 1 1 1
v -0.15 2.1 1.95 1 1 1
v -0.05 2.2 1.95 1 1 1
v -0.15 2 1.95 1 1 1
v 0.15 2 1.95 1 1 1
v -0.05 2.1 1.95 1 1 1
v -0.05 2 1.95 1 1 1
v 0.05 2.1 1.95 1 1 1
v 0.05 2 1.95 1 1 1

vn 0.7070663 0.6750152 -0.2107409
vn 0.7070269 0.6031491 -0.3692208
vn -0.7071472 0.6749379 -0.2107168
vn -0.7071866 0.6030129 -0.3691374
vn 1 5.463722E-05 -1.705784E-05
vn 1 9.633944E-05 -5.897469E-05
vn 0.0001129571 -0.8528854 0.5220981
vn 5.723807E-05 -0.954561 0.2980156
vn -1 -5.463722E-05 1.705784E-05
vn -1 -9.633944E-05 5.897469E-05
vn -5.723807E-05 0.954561 -0.2980156
vn -0.0001129571 0.8528854 -0.5220981
vn -1 -3.571274E-10 7.372964E-16
vn -0.7071068 0.7071068 -1.459836E-06
vn 0.7071068 0.7071068 -1.459836E-06
vn 1 3.571274E-10 -7.372964E-16
vn -3.571274E-10 1 -2.064519E-06
vn 3.571274E-10 -1 2.064519E-06
vn 0.7069883 0.5101821 -0.4897772
vn 0.7069498 0.3951611 -0.5865746
vn -0.7072252 0.5100113 -0.4896131
vn -0.7072637 0.3949857 -0.5863142
vn 1 0.0001208208 -0.0001159886
vn 1 0.0001240229 -0.0001840989
vn 0.0002219777 -0.5587181 0.8293576
vn 0.0001674844 -0.7213856 0.6925336
vn -1 -0.0001208208 0.0001159886
vn -1 -0.0001240229 0.0001840989
vn -0.0001674844 0.7213856 -0.6925336
vn -0.0002219777 0.5587181 -0.8293576
vn 0.7069106 0.245465 -0.6633433
vn 0.7068844 0.04510975 -0.7058891
vn -0.7073029 0.2453289 -0.6629753
vn -0.707329 0.04508126 -0.7054455
vn 0.9999999 9.628916E-05 -0.0002602113
vn 0.9999999 2.004761E-05 -0.000313711
vn 0.0003143509 -0.0637747 0.9979643
vn 0.0002774554 -0.3470438 0.9378489
vn -0.9999999 -9.628916E-05 0.0002602113
vn -0.9999999 -2.004761E-05 0.000313711
vn -0.0002774554 0.3470438 -0.9378489
vn -0.0003143509 0.0637747 -0.9979643
vn 0.7071068 1.66893E-06 -0.7071067
vn -0.7071068 1.66893E-06 -0.7071067
vn 1 2.575717E-14 -1.136924E-08
vn 1.136924E-08 -2.384186E-06 0.9999999
vn -1 -2.575717E-14 1.136924E-08
vn -1.136924E-08 2.384186E-06 -0.9999999
vn 0 0 -1
vn -0.7071068 0 -0.7071068
vn -0.9807853 0 -0.1950903
vn -0.1950903 0 -0.9807853
vn 0 -1 0
vn 0.7071068 0 -0.7071068
vn 0.9807853 0 -0.1950903
vn 0.1950903 0 -0.9807853
vn 1 0 0
vn -1 0 0
vn 0 0 1
vn 0 1 0
vn 1.110223E-16 0.9999999 3.576279E-07
vn 0.7071068 0.7071067 2.517829E-07
vn 0.9807853 0.1950903 6.824651E-08
vn 0.1950903 0.9807852 3.504531E-07
vn 1.553066E-09 -3.576279E-07 0.9999999
vn -0.7071068 0.7071067 2.539793E-07
vn -0.9807853 0.1950903 7.129297E-08
vn -0.1950903 0.9807852 3.510591E-07
vn -1 2.775557E-16 1.553066E-09
vn 1 -2.775557E-16 -1.553066E-09
vn -8.326673E-16 -0.9999999 -3.576279E-07
vn -1.553066E-09 3.576279E-07 -0.9999999

vt 0.59375 0.475
vt 0.59375 0.3416667
vt 0.59375 0.275
vt 0.59375 0.025
vt 0.59375 0.225
vt 0.59375 0.09166666
vt 0.34375 0.025
vt 0.34375 0.225

usemtl colormap

f 3/1/3 2/1/2 1/1/1
f 2/1/2 3/1/3 4/1/4
f 7/1/2 6/2/5 5/1/1
f 6/2/5 7/1/2 8/2/6
f 11/3/7 10/3/8 9/3/7
f 10/3/8 11/3/7 12/3/8
f 11/3/10 13/1/3 12/3/9
f 13/1/3 11/3/10 14/1/4
f 13/1/3 7/1/2 5/1/1
f 7/1/2 13/1/3 14/1/4
f 2/1/2 10/3/5 1/1/1
f 10/3/5 2/1/2 9/3/6
f 16/2/10 3/1/3 15/2/9
f 3/1/3 16/2/10 4/1/4
f 6/2/11 16/2/12 15/2/11
f 16/2/12 6/2/11 8/2/12
f 12/4/9 18/5/14 17/4/13
f 18/5/14 12/4/9 13/5/3
f 5/5/1 18/5/14 13/5/3
f 18/5/14 5/5/1 19/5/15
f 5/5/1 20/6/16 19/5/15
f 20/6/16 5/5/1 6/6/5
f 20/6/17 15/6/11 21/6/17
f 15/6/11 20/6/17 6/6/11
f 15/6/9 22/5/14 21/6/13
f 22/5/14 15/6/9 3/5/3
f 1/5/1 22/5/14 3/5/3
f 22/5/14 1/5/1 23/5/15
f 1/5/1 24/4/16 23/5/15
f 24/4/16 1/5/1 10/4/5
f 12/4/8 24/4/18 10/4/8
f 24/4/18 12/4/8 17/4/18
f 27/1/21 26/1/20 25/1/19
f 26/1/20 27/1/21 28/1/22
f 31/1/20 30/2/23 29/1/19
f 30/2/23 31/1/20 32/2/24
f 35/3/25 34/3/26 33/3/25
f 34/3/26 35/3/25 36/3/26
f 35/3/28 37/1/21 36/3/27
f 37/1/21 35/3/28 38/1/22
f 37/1/21 31/1/20 29/1/19
f 31/1/20 37/1/21 38/1/22
f 26/1/20 34/3/23 25/1/19
f 34/3/23 26/1/20 33/3/24
f 40/2/28 27/1/21 39/2/27
f 27/1/21 40/2/28 28/1/22
f 30/2/29 40/2/30 39/2/29
f 40/2/30 30/2/29 32/2/30
f 36/4/27 14/5/4 11/4/10
f 14/5/4 36/4/27 37/5/21
f 29/5/19 14/5/4 37/5/21
f 14/5/4 29/5/19 7/5/2
f 29/5/19 8/6/6 7/5/2
f 8/6/6 29/5/19 30/6/23
f 8/6/12 39/6/29 16/6/12
f 39/6/29 8/6/12 30/6/29
f 39/6/27 4/5/4 16/6/10
f 4/5/4 39/6/27 27/5/21
f 25/5/19 4/5/4 27/5/21
f 4/5/4 25/5/19 2/5/2
f 25/5/19 9/4/6 2/5/2
f 9/4/6 25/5/19 34/4/23
f 36/4/26 9/4/7 34/4/26
f 9/4/7 36/4/26 11/4/7
f 43/1/33 42/1/32 41/1/31
f 42/1/32 43/1/33 44/1/34
f 47/1/32 46/2/35 45/1/31
f 46/2/35 47/1/32 48/2/36
f 51/3/37 50/3/38 49/3/37
f 50/3/38 51/3/37 52/3/38
f 51/3/40 53/1/33 52/3/39
f 53/1/33 51/3/40 54/1/34
f 53/1/33 47/1/32 45/1/31
f 47/1/32 53/1/33 54/1/34
f 42/1/32 50/3/35 41/1/31
f 50/3/35 42/1/32 49/3/36
f 56/2/40 43/1/33 55/2/39
f 43/1/33 56/2/40 44/1/34
f 46/2/41 56/2/42 55/2/41
f 56/2/42 46/2/41 48/2/42
f 52/4/39 38/5/22 35/4/28
f 38/5/22 52/4/39 53/5/33
f 45/5/31 38/5/22 53/5/33
f 38/5/22 45/5/31 31/5/20
f 45/5/31 32/6/24 31/5/20
f 32/6/24 45/5/31 46/6/35
f 32/6/30 55/6/41 40/6/30
f 55/6/41 32/6/30 46/6/41
f 55/6/39 28/5/22 40/6/28
f 28/5/22 55/6/39 43/5/33
f 41/5/31 28/5/22 43/5/33
f 28/5/22 41/5/31 26/5/20
f 41/5/31 33/4/24 26/5/20
f 33/4/24 41/5/31 50/4/35
f 52/4/38 33/4/25 50/4/38
f 33/4/25 52/4/38 35/4/25
f 58/1/44 57/1/43 57/1/43
f 57/1/43 58/1/44 58/1/44
f 59/1/43 60/2/45 59/1/43
f 60/2/45 59/1/43 60/2/45
f 62/3/46 61/3/46 61/3/46
f 61/3/46 62/3/46 62/3/46
f 62/3/47 63/1/44 62/3/47
f 63/1/44 62/3/47 63/1/44
f 63/1/44 59/1/43 59/1/43
f 59/1/43 63/1/44 63/1/44
f 57/1/43 61/3/45 57/1/43
f 61/3/45 57/1/43 61/3/45
f 64/2/47 58/1/44 64/2/47
f 58/1/44 64/2/47 58/1/44
f 60/2/48 64/2/48 64/2/48
f 64/2/48 60/2/48 60/2/48
f 62/4/47 54/5/34 51/4/40
f 54/5/34 62/4/47 63/5/44
f 59/5/43 54/5/34 63/5/44
f 54/5/34 59/5/43 47/5/32
f 59/5/43 48/6/36 47/5/32
f 48/6/36 59/5/43 60/6/45
f 48/6/42 64/6/48 56/6/42
f 64/6/48 48/6/42 60/6/48
f 64/6/47 44/5/34 56/6/40
f 44/5/34 64/6/47 58/5/44
f 57/5/43 44/5/34 58/5/44
f 44/5/34 57/5/43 42/5/32
f 57/5/43 49/4/36 42/5/32
f 49/4/36 57/5/43 61/4/45
f 62/4/46 49/4/37 61/4/46
f 49/4/37 62/4/46 51/4/37
f 67/6/49 66/5/49 65/5/49
f 67/6/49 68/4/49 66/5/49
f 68/4/49 67/6/49 69/4/49
f 70/6/49 69/4/49 67/6/49
f 69/4/49 70/6/49 71/5/49
f 71/5/49 70/6/49 72/5/49
f 75/7/51 74/8/50 73/7/50
f 74/8/50 75/7/51 76/8/51
f 74/8/50 77/7/52 73/7/50
f 77/7/52 74/8/50 78/8/52
f 81/7/53 80/7/53 79/7/53
f 80/7/53 81/7/53 77/7/53
f 77/7/53 81/7/53 73/7/53
f 73/7/53 81/7/53 75/7/53
f 82/7/53 80/7/53 77/7/53
f 82/7/53 83/7/53 80/7/53
f 82/7/53 84/7/53 83/7/53
f 85/7/53 84/7/53 82/7/53
f 86/7/53 84/7/53 85/7/53
f 84/7/53 86/7/53 87/7/53
f 89/8/55 85/7/54 88/8/54
f 85/7/54 89/8/55 86/7/55
f 90/8/56 85/7/54 82/7/56
f 85/7/54 90/8/56 88/8/54
f 91/8/57 86/7/55 89/8/55
f 86/7/55 91/8/57 87/7/57
f 81/7/58 76/8/51 75/7/51
f 76/8/51 81/7/58 92/8/58
f 78/8/52 82/7/56 77/7/52
f 82/7/56 78/8/52 90/8/56
f 84/7/58 93/8/58 83/7/58
f 93/8/58 84/7/58 94/8/58
f 93/8/59 80/7/59 83/7/59
f 80/7/59 93/8/59 95/8/59
f 96/8/57 80/7/57 95/8/57
f 80/7/57 96/8/57 79/7/57
f 92/8/60 74/8/60 76/8/60
f 96/8/60 74/8/60 92/8/60
f 95/8/60 74/8/60 96/8/60
f 95/8/60 78/8/60 74/8/60
f 93/8/60 78/8/60 95/8/60
f 78/8/60 93/8/60 90/8/60
f 94/8/60 90/8/60 93/8/60
f 94/8/60 88/8/60 90/8/60
f 91/8/60 88/8/60 94/8/60
f 88/8/60 91/8/60 89/8/60
f 99/2/61 98/1/61 97/1/61
f 99/2/61 100/3/61 98/1/61
f 100/3/61 99/2/61 101/3/61
f 102/2/61 101/3/61 99/2/61
f 101/3/61 102/2/61 103/1/61
f 103/1/61 102/2/61 104/1/61
f 107/7/63 106/8/62 105/7/62
f 106/8/62 107/7/63 108/8/63
f 106/8/62 109/7/64 105/7/62
f 109/7/64 106/8/62 110/8/64
f 113/7/65 112/7/65 111/7/65
f 112/7/65 113/7/65 109/7/65
f 109/7/65 113/7/65 105/7/65
f 105/7/65 113/7/65 107/7/65
f 114/7/65 112/7/65 109/7/65
f 114/7/65 115/7/65 112/7/65
f 114/7/65 116/7/65 115/7/65
f 117/7/65 116/7/65 114/7/65
f 118/7/65 116/7/65 117/7/65
f 116/7/65 118/7/65 119/7/65
f 121/8/67 117/7/66 120/8/66
f 117/7/66 121/8/67 118/7/67
f 122/8/68 117/7/66 114/7/68
f 117/7/66 122/8/68 120/8/66
f 123/8/69 118/7/67 121/8/67
f 118/7/67 123/8/69 119/7/69
f 113/7/70 108/8/63 107/7/63
f 108/8/63 113/7/70 124/8/70
f 110/8/64 114/7/68 109/7/64
f 114/7/68 110/8/64 122/8/68
f 116/7/70 125/8/70 115/7/70
f 125/8/70 116/7/70 126/8/70
f 125/8/71 112/7/71 115/7/71
f 112/7/71 125/8/71 127/8/71
f 128/8/69 112/7/69 127/8/69
f 112/7/69 128/8/69 111/7/69
f 124/8/72 106/8/72 108/8/72
f 128/8/72 106/8/72 124/8/72
f 127/8/72 106/8/72 128/8/72
f 127/8/72 110/8/72 106/8/72
f 125/8/72 110/8/72 127/8/72
f 110/8/72 125/8/72 122/8/72
f 126/8/72 122/8/72 125/8/72
f 126/8/72 120/8/72 122/8/72
f 123/8/72 120/8/72 126/8/72
f 120/8/72 123/8/72 121/8/72

g track-striped-wide-straight-bend




usemtl colormap

f 3/1/3 2/1/2 1/1/1
f 2/1/2 3/1/3 4/1/4
f 7/1/2 6/2/5 5/1/1
f 6/2/5 7/1/2 8/2/6
f 11/3/7 10/3/8 9/3/7
f 10/3/8 11/3/7 12/3/8
f 11/3/10 13/1/3 12/3/9
f 13/1/3 11/3/10 14/1/4
f 13/1/3 7/1/2 5/1/1
f 7/1/2 13/1/3 14/1/4
f 2/1/2 10/3/5 1/1/1
f 10/3/5 2/1/2 9/3/6
f 16/2/10 3/1/3 15/2/9
f 3/1/3 16/2/10 4/1/4
f 6/2/11 16/2/12 15/2/11
f 16/2/12 6/2/11 8/2/12
f 12/4/9 18/5/14 17/4/13
f 18/5/14 12/4/9 13/5/3
f 5/5/1 18/5/14 13/5/3
f 18/5/14 5/5/1 19/5/15
f 5/5/1 20/6/16 19/5/15
f 20/6/16 5/5/1 6/6/5
f 20/6/17 15/6/11 21/6/17
f 15/6/11 20/6/17 6/6/11
f 15/6/9 22/5/14 21/6/13
f 22/5/14 15/6/9 3/5/3
f 1/5/1 22/5/14 3/5/3
f 22/5/14 1/5/1 23/5/15
f 1/5/1 24/4/16 23/5/15
f 24/4/16 1/5/1 10/4/5
f 12/4/8 24/4/18 10/4/8
f 24/4/18 12/4/8 17/4/18
f 27/1/21 26/1/20 25/1/19
f 26/1/20 27/1/21 28/1/22
f 31/1/20 30/2/23 29/1/19
f 30/2/23 31/1/20 32/2/24
f 35/3/25 34/3/26 33/3/25
f 34/3/26 35/3/25 36/3/26
f 35/3/28 37/1/21 36/3/27
f 37/1/21 35/3/28 38/1/22
f 37/1/21 31/1/20 29/1/19
f 31/1/20 37/1/21 38/1/22
f 26/1/20 34/3/23 25/1/19
f 34/3/23 26/1/20 33/3/24
f 40/2/28 27/1/21 39/2/27
f 27/1/21 40/2/28 28/1/22
f 30/2/29 40/2/30 39/2/29
f 40/2/30 30/2/29 32/2/30
f 36/4/27 14/5/4 11/4/10
f 14/5/4 36/4/27 37/5/21
f 29/5/19 14/5/4 37/5/21
f 14/5/4 29/5/19 7/5/2
f 29/5/19 8/6/6 7/5/2
f 8/6/6 29/5/19 30/6/23
f 8/6/12 39/6/29 16/6/12
f 39/6/29 8/6/12 30/6/29
f 39/6/27 4/5/4 16/6/10
f 4/5/4 39/6/27 27/5/21
f 25/5/19 4/5/4 27/5/21
f 4/5/4 25/5/19 2/5/2
f 25/5/19 9/4/6 2/5/2
f 9/4/6 25/5/19 34/4/23
f 36/4/26 9/4/7 34/4/26
f 9/4/7 36/4/26 11/4/7
f 43/1/33 42/1/32 41/1/31
f 42/1/32 43/1/33 44/1/34
f 47/1/32 46/2/35 45/1/31
f 46/2/35 47/1/32 48/2/36
f 51/3/37 50/3/38 49/3/37
f 50/3/38 51/3/37 52/3/38
f 51/3/40 53/1/33 52/3/39
f 53/1/33 51/3/40 54/1/34
f 53/1/33 47/1/32 45/1/31
f 47/1/32 53/1/33 54/1/34
f 42/1/32 50/3/35 41/1/31
f 50/3/35 42/1/32 49/3/36
f 56/2/40 43/1/33 55/2/39
f 43/1/33 56/2/40 44/1/34
f 46/2/41 56/2/42 55/2/41
f 56/2/42 46/2/41 48/2/42
f 52/4/39 38/5/22 35/4/28
f 38/5/22 52/4/39 53/5/33
f 45/5/31 38/5/22 53/5/33
f 38/5/22 45/5/31 31/5/20
f 45/5/31 32/6/24 31/5/20
f 32/6/24 45/5/31 46/6/35
f 32/6/30 55/6/41 40/6/30
f 55/6/41 32/6/30 46/6/41
f 55/6/39 28/5/22 40/6/28
f 28/5/22 55/6/39 43/5/33
f 41/5/31 28/5/22 43/5/33
f 28/5/22 41/5/31 26/5/20
f 41/5/31 33/4/24 26/5/20
f 33/4/24 41/5/31 50/4/35
f 52/4/38 33/4/25 50/4/38
f 33/4/25 52/4/38 35/4/25
f 58/1/44 57/1/43 57/1/43
f 57/1/43 58/1/44 58/1/44
f 59/1/43 60/2/45 59/1/43
f 60/2/45 59/1/43 60/2/45
f 62/3/46 61/3/46 61/3/46
f 61/3/46 62/3/46 62/3/46
f 62/3/47 63/1/44 62/3/47
f 63/1/44 62/3/47 63/1/44
f 63/1/44 59/1/43 59/1/43
f 59/1/43 63/1/44 63/1/44
f 57/1/43 61/3/45 57/1/43
f 61/3/45 57/1/43 61/3/45
f 64/2/47 58/1/44 64/2/47
f 58/1/44 64/2/47 58/1/44
f 60/2/48 64/2/48 64/2/48
f 64/2/48 60/2/48 60/2/48
f 62/4/47 54/5/34 51/4/40
f 54/5/34 62/4/47 63/5/44
f 59/5/43 54/5/34 63/5/44
f 54/5/34 59/5/43 47/5/32
f 59/5/43 48/6/36 47/5/32
f 48/6/36 59/5/43 60/6/45
f 48/6/42 64/6/48 56/6/42
f 64/6/48 48/6/42 60/6/48
f 64/6/47 44/5/34 56/6/40
f 44/5/34 64/6/47 58/5/44
f 57/5/43 44/5/34 58/5/44
f 44/5/34 57/5/43 42/5/32
f 57/5/43 49/4/36 42/5/32
f 49/4/36 57/5/43 61/4/45
f 62/4/46 49/4/37 61/4/46
f 49/4/37 62/4/46 51/4/37
f 67/6/49 66/5/49 65/5/49
f 67/6/49 68/4/49 66/5/49
f 68/4/49 67/6/49 69/4/49
f 70/6/49 69/4/49 67/6/49
f 69/4/49 70/6/49 71/5/49
f 71/5/49 70/6/49 72/5/49
f 75/7/51 74/8/50 73/7/50
f 74/8/50 75/7/51 76/8/51
f 74/8/50 77/7/52 73/7/50
f 77/7/52 74/8/50 78/8/52
f 81/7/53 80/7/53 79/7/53
f 80/7/53 81/7/53 77/7/53
f 77/7/53 81/7/53 73/7/53
f 73/7/53 81/7/53 75/7/53
f 82/7/53 80/7/53 77/7/53
f 82/7/53 83/7/53 80/7/53
f 82/7/53 84/7/53 83/7/53
f 85/7/53 84/7/53 82/7/53
f 86/7/53 84/7/53 85/7/53
f 84/7/53 86/7/53 87/7/53
f 89/8/55 85/7/54 88/8/54
f 85/7/54 89/8/55 86/7/55
f 90/8/56 85/7/54 82/7/56
f 85/7/54 90/8/56 88/8/54
f 91/8/57 86/7/55 89/8/55
f 86/7/55 91/8/57 87/7/57
f 81/7/58 76/8/51 75/7/51
f 76/8/51 81/7/58 92/8/58
f 78/8/52 82/7/56 77/7/52
f 82/7/56 78/8/52 90/8/56
f 84/7/58 93/8/58 83/7/58
f 93/8/58 84/7/58 94/8/58
f 93/8/59 80/7/59 83/7/59
f 80/7/59 93/8/59 95/8/59
f 96/8/57 80/7/57 95/8/57
f 80/7/57 96/8/57 79/7/57
f 92/8/60 74/8/60 76/8/60
f 96/8/60 74/8/60 92/8/60
f 95/8/60 74/8/60 96/8/60
f 95/8/60 78/8/60 74/8/60
f 93/8/60 78/8/60 95/8/60
f 78/8/60 93/8/60 90/8/60
f 94/8/60 90/8/60 93/8/60
f 94/8/60 88/8/60 90/8/60
f 91/8/60 88/8/60 94/8/60
f 88/8/60 91/8/60 89/8/60
f 99/2/61 98/1/61 97/1/61
f 99/2/61 100/3/61 98/1/61
f 100/3/61 99/2/61 101/3/61
f 102/2/61 101/3/61 99/2/61
f 101/3/61 102/2/61 103/1/61
f 103/1/61 102/2/61 104/1/61
f 107/7/63 106/8/62 105/7/62
f 106/8/62 107/7/63 108/8/63
f 106/8/62 109/7/64 105/7/62
f 109/7/64 106/8/62 110/8/64
f 113/7/65 112/7/65 111/7/65
f 112/7/65 113/7/65 109/7/65
f 109/7/65 113/7/65 105/7/65
f 105/7/65 113/7/65 107/7/65
f 114/7/65 112/7/65 109/7/65
f 114/7/65 115/7/65 112/7/65
f 114/7/65 116/7/65 115/7/65
f 117/7/65 116/7/65 114/7/65
f 118/7/65 116/7/65 117/7/65
f 116/7/65 118/7/65 119/7/65
f 121/8/67 117/7/66 120/8/66
f 117/7/66 121/8/67 118/7/67
f 122/8/68 117/7/66 114/7/68
f 117/7/66 122/8/68 120/8/66
f 123/8/69 118/7/67 121/8/67
f 118/7/67 123/8/69 119/7/69
f 113/7/70 108/8/63 107/7/63
f 108/8/63 113/7/70 124/8/70
f 110/8/64 114/7/68 109/7/64
f 114/7/68 110/8/64 122/8/68
f 116/7/70 125/8/70 115/7/70
f 125/8/70 116/7/70 126/8/70
f 125/8/71 112/7/71 115/7/71
f 112/7/71 125/8/71 127/8/71
f 128/8/69 112/7/69 127/8/69
f 112/7/69 128/8/69 111/7/69
f 124/8/72 106/8/72 108/8/72
f 128/8/72 106/8/72 124/8/72
f 127/8/72 106/8/72 128/8/72
f 127/8/72 110/8/72 106/8/72
f 125/8/72 110/8/72 127/8/72
f 110/8/72 125/8/72 122/8/72
f 126/8/72 122/8/72 125/8/72
f 126/8/72 120/8/72 122/8/72
f 123/8/72 120/8/72 126/8/72
f 120/8/72 123/8/72 121/8/72

