# Created by Kenney (www.kenney.nl)

mtllib track-striped-wide-corner-large.mtl

g track-striped-wide-corner-large

v 0.9470159 0.3 0.6563085 1 1 1
v 0.7992438 0.3 1.282083 1 1 1
v 0.8482797 0.3 0.6404597 1 1 1
v 0.7037877 0.3 1.252282 1 1 1
v -0.9289696 0.3 0.3551798 1 1 1
v -0.9289696 0.1 0.3551798 1 1 1
v -1.014422 0.3 0.7158537 1 1 1
v -1.014422 0.1 0.7158537 1 1 1
v 0.7992438 0 1.282083 1 1 1
v 0.9470159 0 0.6563085 1 1 1
v -1.109878 0 0.6860521 1 1 1
v -1.027706 0 0.3393309 1 1 1
v -1.027706 0.3 0.3393309 1 1 1
v -1.109878 0.3 0.6860521 1 1 1
v 0.8482797 0.1 0.6404597 1 1 1
v 0.7037877 0.1 1.252282 1 1 1
v -1 0 4.172325E-06 1 1 1
v -1 0.3 4.172325E-06 1 1 1
v -0.9000001 0.3 4.291534E-06 1 1 1
v -0.9000001 0.1 4.291534E-06 1 1 1
v 0.9 0.1 8.106232E-06 1 1 1
v 0.9 0.3 8.106232E-06 1 1 1
v 1 0.3 8.225441E-06 1 1 1
v 1 0 8.225441E-06 1 1 1
v 0.5730804 0.3 1.868671 1 1 1
v 0.2819434 0.3 2.413022 1 1 1
v 0.4822525 0.3 1.826834 1 1 1
v 0.1966548 0.3 2.360812 1 1 1
v -1.152649 0.3 1.073776 1 1 1
v -1.152649 0.1 1.073776 1 1 1
v -1.338539 0.3 1.421035 1 1 1
v -1.338539 0.1 1.421035 1 1 1
v 0.2819434 0 2.413022 1 1 1
v 0.5730804 0 1.868671 1 1 1
v -1.423827 0 1.368826 1 1 1
v -1.243477 0 1.031939 1 1 1
v -1.243477 0.3 1.031939 1 1 1
v -1.423827 0.3 1.368826 1 1 1
v 0.4822525 0.1 1.826834 1 1 1
v 0.1966548 0.1 2.360812 1 1 1
v -0.06469488 0.3 2.914648 1 1 1
v -0.4604769 0.3 3.372992 1 1 1
v -0.1437407 0.3 2.853397 1 1 1
v -0.5326154 0.3 3.303738 1 1 1
v -1.566566 0.3 1.750869 1 1 1
v -1.566566 0.1 1.750869 1 1 1
v -1.831109 0.3 2.057177 1 1 1
v -1.831109 0.1 2.057177 1 1 1
v -0.4604769 0 3.372992 1 1 1
v -0.06469488 0 2.914648 1 1 1
v -1.903248 0 1.987924 1 1 1
v -1.645612 0 1.689618 1 1 1
v -1.645612 0.3 1.689618 1 1 1
v -1.903248 0.3 1.987924 1 1 1
v -0.1437407 0.1 2.853397 1 1 1
v -0.5326154 0.1 3.303738 1 1 1
v -0.9016972 0.3 3.786786 1 1 1
v -1.386532 0.3 4.15314 1 1 1
v -0.9661739 0.3 3.710348 1 1 1
v -1.442404 0.3 4.070204 1 1 1
v -2.126756 0.3 2.334467 1 1 1
v -2.126756 0.1 2.334467 1 1 1
v -2.448096 0.3 2.57736 1 1 1
v -2.448096 0.1 2.57736 1 1 1
v -1.386532 0 4.15314 1 1 1
v -0.9016972 0 3.786786 1 1 1
v -2.503968 0 2.494424 1 1 1
v -2.191233 0 2.258029 1 1 1
v -2.191233 0.3 2.258029 1 1 1
v -2.503968 0.3 2.494424 1 1 1
v -0.9661739 0.1 3.710348 1 1 1
v -1.442404 0.1 4.070204 1 1 1
v -1.914207 0.3 4.466789 1 1 1
v -2.484633 0.3 4.719689 1 1 1
v -1.960264 0.3 4.378026 1 1 1
v -2.519338 0.3 4.625904 1 1 1
v -2.789288 0.3 2.780303 1 1 1
v -2.789288 0.1 2.780303 1 1 1
v -3.144017 0.3 2.937776 1 1 1
v -3.144017 0.1 2.937776 1 1 1
v -2.484633 0 4.719689 1 1 1
v -1.914207 0 4.466789 1 1 1
v -3.178721 0 2.843991 1 1 1
v -2.835344 0 2.691541 1 1 1
v -2.835344 0.3 2.691541 1 1 1
v -3.178721 0.3 2.843991 1 1 1
v -1.960264 0.1 4.378026 1 1 1
v -2.519338 0.1 4.625904 1 1 1
v -3.095748 0.3 4.899801 1 1 1
v -3.741625 0.3 4.991716 1 1 1
v -3.117266 0.3 4.802143 1 1 1
v -3.748002 0.3 4.89192 1 1 1
v -3.504587 0.3 3.044309 1 1 1
v -3.504587 0.1 3.044309 1 1 1
v -3.862797 0.3 3.095584 1 1 1
v -3.862797 0.1 3.095584 1 1 1
v -3.741625 0 4.991716 1 1 1
v -3.095748 0 4.899801 1 1 1
v -3.869174 0 2.995788 1 1 1
v -3.526104 0 2.946651 1 1 1
v -3.526104 0.3 2.946651 1 1 1
v -3.869174 0.3 2.995788 1 1 1
v -3.117266 0.1 4.802143 1 1 1
v -3.748002 0.1 4.89192 1 1 1
v -3.999992 0.3 5 1 1 1
v -3.999992 0.3 4.9 1 1 1
v -3.999996 0.3 3.1 1 1 1
v -3.999996 0.1 3.1 1 1 1
v -3.999992 0 5 1 1 1
v -3.999996 0 3 1 1 1
v -3.999996 0.3 3 1 1 1
v -3.999992 0.1 4.9 1 1 1
v -0.9 0.3 0 1 1 1
v -1 0.3 0 1 1 1
v -0.9 0.1 0 1 1 1
v -1 0 0 1 1 1
v 1 0 0 1 1 1
v 0.9 0.1 0 1 1 1
v 1 0.3 0 1 1 1
v 0.9 0.3 0 1 1 1
v -0.1207107 0 -0.1707107 1 1 1
v -0.1207107 0.05000001 -0.1707107 1 1 1
v -0.15 0 -0.1 1 1 1
v -0.15 0.05000001 -0.1 1 1 1
v -0.05 0 -0.2 1 1 1
v -0.05 0.05000001 -0.2 1 1 1
v -0.05 0 7.219114E-16 1 1 1
v -0.05 0 -0.1 1 1 1
v -0.15 0 1.082867E-15 1 1 1
v 0.05 0 -0.2 1 1 1
v 0.05 0 -0.1 1 1 1
v 0.05 0 3.609557E-16 1 1 1
v 0.1207107 0 -0.1707107 1 1 1
v 0.15 0 -0.1 1 1 1
v 0.15 0 0 1 1 1
v 0.1207107 0.05000001 -0.1707107 1 1 1
v 0.15 0.05000001 -0.1 1 1 1
v 0.05 0.05000001 -0.2 1 1 1
v 0.15 0.05000001 0 1 1 1
v -0.15 0.05000001 1.082867E-15 1 1 1
v 0.05 0.05000001 -0.1 1 1 1
v 0.05 0.05000001 3.609557E-16 1 1 1
v -0.05 0.05000001 -0.1 1 1 1
v -0.05 0.05000001 7.219114E-16 1 1 1
v -4 0.3 4.9 1 1 1
v -4 0.3 5 1 1 1
v -4 0.1 4.9 1 1 1
v -4 0 5 1 1 1
v -4 0 3 1 1 1
v -4 0.1 3.1 1 1 1
v -4 0.3 3 1 1 1
v -4 0.3 3.1 1 1 1
v -4.170711 0 4.120711 1 1 1
v -4.170711 0.05000001 4.120711 1 1 1
v -4.1 0 4.15 1 1 1
v -4.1 0.05000001 4.15 1 1 1
v -4.2 0 4.05 1 1 1
v -4.2 0.05000001 4.05 1 1 1
v -4 0 4.05 1 1 1
v -4.1 0 4.05 1 1 1
v -4 0 4.15 1 1 1
v -4.2 0 3.95 1 1 1
v -4.1 0 3.95 1 1 1
v -4 0 3.95 1 1 1
v -4.170711 0 3.879289 1 1 1
v -4.1 0 3.85 1 1 1
v -4 0 3.85 1 1 1
v -4.170711 0.05000001 3.879289 1 1 1
v -4.1 0.05000001 3.85 1 1 1
v -4.2 0.05000001 3.95 1 1 1
v -4 0.05000001 3.85 1 1 1
v -4 0.05000001 4.15 1 1 1
v -4.1 0.05000001 3.95 1 1 1
v -4 0.05000001 3.95 1 1 1
v -4.1 0.05000001 4.05 1 1 1
v -4 0.05000001 4.05 1 1 1

vn 0.6981695 0.7071068 0.1120685
vn 0.6749765 0.7071068 0.2107289
vn -0.6981695 0.7071068 -0.1120685
vn -0.6749765 0.7071068 -0.2107289
vn 0.9873608 0 0.1584888
vn 0.954561 0 0.2980156
vn 0 -1 0
vn -0.9873608 0 -0.1584888
vn -0.954561 0 -0.2980156
vn 0 1 0
vn -1 0 -2.06452E-06
vn -0.7071068 0.7071068 -1.459836E-06
vn 0.7071068 0.7071068 1.459836E-06
vn 1 0 2.06452E-06
vn 0.64225 0.7071068 0.2958292
vn 0.603081 0.7071068 0.3691793
vn -0.64225 0.7071068 -0.2958292
vn -0.603081 0.7071068 -0.3691793
vn 0.9082786 0 0.4183657
vn 0.8528852 0 0.5220984
vn -0.9082786 0 -0.4183657
vn -0.8528852 0 -0.5220984
vn 0.5589387 0.7071068 0.4331137
vn 0.5100965 0.7071068 0.4896954
vn -0.5589387 0.7071068 -0.4331137
vn -0.5100965 0.7071068 -0.4896954
vn 0.7904587 0 0.6125153
vn 0.7213854 0 0.6925339
vn -0.7904587 0 -0.6125153
vn -0.7213854 0 -0.6925339
vn 0.4559197 0.7071068 0.5404972
vn 0.3950732 0.7071068 0.5864446
vn -0.4559197 0.7071068 -0.5404972
vn -0.3950732 0.7071068 -0.5864446
vn 0.6447678 0 0.7643784
vn 0.5587178 0 0.8293579
vn -0.6447678 0 -0.7643784
vn -0.5587178 0 -0.8293579
vn 0.3256711 0.7071068 0.627645
vn 0.245397 0.7071068 0.6631593
vn -0.3256711 0.7071068 -0.627645
vn -0.245397 0.7071068 -0.6631593
vn 0.4605685 0 0.8876241
vn 0.3470438 0 0.9378489
vn -0.4605685 0 -0.8876241
vn -0.3470438 0 -0.9378489
vn 0.1521539 0.7071068 0.6905427
vn 0.04509538 0.7071068 0.7056673
vn -0.1521539 0.7071068 -0.6905427
vn -0.04509538 0.7071068 -0.7056673
vn 0.2151781 0 0.9765748
vn 0.06377453 0 0.9979644
vn -0.2151781 0 -0.9765748
vn -0.06377453 0 -0.9979644
vn 1.549721E-06 0.7071068 0.7071067
vn -1.549721E-06 0.7071068 -0.7071067
vn 2.205372E-06 0 0.9999999
vn -2.205372E-06 0 -0.9999999
vn 0 0 -1
vn -0.7071068 0 -0.7071068
vn -0.9807853 0 -0.1950903
vn -0.1950903 0 -0.9807853
vn 0.7071068 0 -0.7071068
vn 0.9807853 0 -0.1950903
vn 0.1950903 0 -0.9807853
vn 1 0 0
vn -1 0 0
vn 0 0 1
vn -0.9999999 0 3.576279E-07
vn -0.7071065 0 0.7071069
vn -0.19509 0 0.9807853
vn -0.9807851 0 0.1950907
vn -0.7071069 0 -0.7071065
vn -0.1950907 0 -0.9807851
vn -0.9807853 0 -0.19509
vn -3.576279E-07 0 -0.9999999
vn 3.576279E-07 0 0.9999999
vn 0.9999999 0 -3.576279E-07

vt 0.59375 0.475
vt 0.59375 0.3416667
vt 0.59375 0.275
vt 0.59375 0.025
vt 0.59375 0.225
vt 0.59375 0.09166666
vt 0.34375 0.025
vt 0.34375 0.225

usemtl colormap

f 3/1/3 2/1/2 1/1/1
f 2/1/2 3/1/3 4/1/4
f 7/1/2 6/2/5 5/1/1
f 6/2/5 7/1/2 8/2/6
f 11/3/7 10/3/7 9/3/7
f 10/3/7 11/3/7 12/3/7
f 11/3/9 13/1/3 12/3/8
f 13/1/3 11/3/9 14/1/4
f 13/1/3 7/1/2 5/1/1
f 7/1/2 13/1/3 14/1/4
f 2/1/2 10/3/5 1/1/1
f 10/3/5 2/1/2 9/3/6
f 16/2/9 3/1/3 15/2/8
f 3/1/3 16/2/9 4/1/4
f 6/2/10 16/2/10 15/2/10
f 16/2/10 6/2/10 8/2/10
f 12/4/8 18/5/12 17/4/11
f 18/5/12 12/4/8 13/5/3
f 5/5/1 18/5/12 13/5/3
f 18/5/12 5/5/1 19/5/13
f 5/5/1 20/6/14 19/5/13
f 20/6/14 5/5/1 6/6/5
f 20/6/10 15/6/10 21/6/10
f 15/6/10 20/6/10 6/6/10
f 15/6/8 22/5/12 21/6/11
f 22/5/12 15/6/8 3/5/3
f 1/5/1 22/5/12 3/5/3
f 22/5/12 1/5/1 23/5/13
f 1/5/1 24/4/14 23/5/13
f 24/4/14 1/5/1 10/4/5
f 12/4/7 24/4/7 10/4/7
f 24/4/7 12/4/7 17/4/7
f 27/1/17 26/1/16 25/1/15
f 26/1/16 27/1/17 28/1/18
f 31/1/16 30/2/19 29/1/15
f 30/2/19 31/1/16 32/2/20
f 35/3/7 34/3/7 33/3/7
f 34/3/7 35/3/7 36/3/7
f 35/3/22 37/1/17 36/3/21
f 37/1/17 35/3/22 38/1/18
f 37/1/17 31/1/16 29/1/15
f 31/1/16 37/1/17 38/1/18
f 26/1/16 34/3/19 25/1/15
f 34/3/19 26/1/16 33/3/20
f 40/2/22 27/1/17 39/2/21
f 27/1/17 40/2/22 28/1/18
f 30/2/10 40/2/10 39/2/10
f 40/2/10 30/2/10 32/2/10
f 36/4/21 14/5/4 11/4/9
f 14/5/4 36/4/21 37/5/17
f 29/5/15 14/5/4 37/5/17
f 14/5/4 29/5/15 7/5/2
f 29/5/15 8/6/6 7/5/2
f 8/6/6 29/5/15 30/6/19
f 8/6/10 39/6/10 16/6/10
f 39/6/10 8/6/10 30/6/10
f 39/6/21 4/5/4 16/6/9
f 4/5/4 39/6/21 27/5/17
f 25/5/15 4/5/4 27/5/17
f 4/5/4 25/5/15 2/5/2
f 25/5/15 9/4/6 2/5/2
f 9/4/6 25/5/15 34/4/19
f 36/4/7 9/4/7 34/4/7
f 9/4/7 36/4/7 11/4/7
f 43/1/25 42/1/24 41/1/23
f 42/1/24 43/1/25 44/1/26
f 47/1/24 46/2/27 45/1/23
f 46/2/27 47/1/24 48/2/28
f 51/3/7 50/3/7 49/3/7
f 50/3/7 51/3/7 52/3/7
f 51/3/30 53/1/25 52/3/29
f 53/1/25 51/3/30 54/1/26
f 53/1/25 47/1/24 45/1/23
f 47/1/24 53/1/25 54/1/26
f 42/1/24 50/3/27 41/1/23
f 50/3/27 42/1/24 49/3/28
f 56/2/30 43/1/25 55/2/29
f 43/1/25 56/2/30 44/1/26
f 46/2/10 56/2/10 55/2/10
f 56/2/10 46/2/10 48/2/10
f 52/4/29 38/5/18 35/4/22
f 38/5/18 52/4/29 53/5/25
f 45/5/23 38/5/18 53/5/25
f 38/5/18 45/5/23 31/5/16
f 45/5/23 32/6/20 31/5/16
f 32/6/20 45/5/23 46/6/27
f 32/6/10 55/6/10 40/6/10
f 55/6/10 32/6/10 46/6/10
f 55/6/29 28/5/18 40/6/22
f 28/5/18 55/6/29 43/5/25
f 41/5/23 28/5/18 43/5/25
f 28/5/18 41/5/23 26/5/16
f 41/5/23 33/4/20 26/5/16
f 33/4/20 41/5/23 50/4/27
f 52/4/7 33/4/7 50/4/7
f 33/4/7 52/4/7 35/4/7
f 59/1/33 58/1/32 57/1/31
f 58/1/32 59/1/33 60/1/34
f 63/1/32 62/2/35 61/1/31
f 62/2/35 63/1/32 64/2/36
f 67/3/7 66/3/7 65/3/7
f 66/3/7 67/3/7 68/3/7
f 67/3/38 69/1/33 68/3/37
f 69/1/33 67/3/38 70/1/34
f 69/1/33 63/1/32 61/1/31
f 63/1/32 69/1/33 70/1/34
f 58/1/32 66/3/35 57/1/31
f 66/3/35 58/1/32 65/3/36
f 72/2/38 59/1/33 71/2/37
f 59/1/33 72/2/38 60/1/34
f 62/2/10 72/2/10 71/2/10
f 72/2/10 62/2/10 64/2/10
f 68/4/37 54/5/26 51/4/30
f 54/5/26 68/4/37 69/5/33
f 61/5/31 54/5/26 69/5/33
f 54/5/26 61/5/31 47/5/24
f 61/5/31 48/6/28 47/5/24
f 48/6/28 61/5/31 62/6/35
f 48/6/10 71/6/10 56/6/10
f 71/6/10 48/6/10 62/6/10
f 71/6/37 44/5/26 56/6/30
f 44/5/26 71/6/37 59/5/33
f 57/5/31 44/5/26 59/5/33
f 44/5/26 57/5/31 42/5/24
f 57/5/31 49/4/28 42/5/24
f 49/4/28 57/5/31 66/4/35
f 68/4/7 49/4/7 66/4/7
f 49/4/7 68/4/7 51/4/7
f 75/1/41 74/1/40 73/1/39
f 74/1/40 75/1/41 76/1/42
f 79/1/40 78/2/43 77/1/39
f 78/2/43 79/1/40 80/2/44
f 83/3/7 82/3/7 81/3/7
f 82/3/7 83/3/7 84/3/7
f 83/3/46 85/1/41 84/3/45
f 85/1/41 83/3/46 86/1/42
f 85/1/41 79/1/40 77/1/39
f 79/1/40 85/1/41 86/1/42
f 74/1/40 82/3/43 73/1/39
f 82/3/43 74/1/40 81/3/44
f 88/2/46 75/1/41 87/2/45
f 75/1/41 88/2/46 76/1/42
f 78/2/10 88/2/10 87/2/10
f 88/2/10 78/2/10 80/2/10
f 84/4/45 70/5/34 67/4/38
f 70/5/34 84/4/45 85/5/41
f 77/5/39 70/5/34 85/5/41
f 70/5/34 77/5/39 63/5/32
f 77/5/39 64/6/36 63/5/32
f 64/6/36 77/5/39 78/6/43
f 64/6/10 87/6/10 72/6/10
f 87/6/10 64/6/10 78/6/10
f 87/6/45 60/5/34 72/6/38
f 60/5/34 87/6/45 75/5/41
f 73/5/39 60/5/34 75/5/41
f 60/5/34 73/5/39 58/5/32
f 73/5/39 65/4/36 58/5/32
f 65/4/36 73/5/39 82/4/43
f 84/4/7 65/4/7 82/4/7
f 65/4/7 84/4/7 67/4/7
f 91/1/49 90/1/48 89/1/47
f 90/1/48 91/1/49 92/1/50
f 95/1/48 94/2/51 93/1/47
f 94/2/51 95/1/48 96/2/52
f 99/3/7 98/3/7 97/3/7
f 98/3/7 99/3/7 100/3/7
f 99/3/54 101/1/49 100/3/53
f 101/1/49 99/3/54 102/1/50
f 101/1/49 95/1/48 93/1/47
f 95/1/48 101/1/49 102/1/50
f 90/1/48 98/3/51 89/1/47
f 98/3/51 90/1/48 97/3/52
f 104/2/54 91/1/49 103/2/53
f 91/1/49 104/2/54 92/1/50
f 94/2/10 104/2/10 103/2/10
f 104/2/10 94/2/10 96/2/10
f 100/4/53 86/5/42 83/4/46
f 86/5/42 100/4/53 101/5/49
f 93/5/47 86/5/42 101/5/49
f 86/5/42 93/5/47 79/5/40
f 93/5/47 80/6/44 79/5/40
f 80/6/44 93/5/47 94/6/51
f 80/6/10 103/6/10 88/6/10
f 103/6/10 80/6/10 94/6/10
f 103/6/53 76/5/42 88/6/46
f 76/5/42 103/6/53 91/5/49
f 89/5/47 76/5/42 91/5/49
f 76/5/42 89/5/47 74/5/40
f 89/5/47 81/4/44 74/5/40
f 81/4/44 89/5/47 98/4/51
f 100/4/7 81/4/7 98/4/7
f 81/4/7 100/4/7 83/4/7
f 106/1/56 105/1/55 105/1/55
f 105/1/55 106/1/56 106/1/56
f 107/1/55 108/2/57 107/1/55
f 108/2/57 107/1/55 108/2/57
f 110/3/7 109/3/7 109/3/7
f 109/3/7 110/3/7 110/3/7
f 110/3/58 111/1/56 110/3/58
f 111/1/56 110/3/58 111/1/56
f 111/1/56 107/1/55 107/1/55
f 107/1/55 111/1/56 111/1/56
f 105/1/55 109/3/57 105/1/55
f 109/3/57 105/1/55 109/3/57
f 112/2/58 106/1/56 112/2/58
f 106/1/56 112/2/58 106/1/56
f 108/2/10 112/2/10 112/2/10
f 112/2/10 108/2/10 108/2/10
f 110/4/58 102/5/50 99/4/54
f 102/5/50 110/4/58 111/5/56
f 107/5/55 102/5/50 111/5/56
f 102/5/50 107/5/55 95/5/48
f 107/5/55 96/6/52 95/5/48
f 96/6/52 107/5/55 108/6/57
f 96/6/10 112/6/10 104/6/10
f 112/6/10 96/6/10 108/6/10
f 112/6/58 92/5/50 104/6/54
f 92/5/50 112/6/58 106/5/56
f 105/5/55 92/5/50 106/5/56
f 92/5/50 105/5/55 90/5/48
f 105/5/55 97/4/52 90/5/48
f 97/4/52 105/5/55 109/4/57
f 110/4/7 97/4/7 109/4/7
f 97/4/7 110/4/7 99/4/7
f 115/6/59 114/5/59 113/5/59
f 115/6/59 116/4/59 114/5/59
f 116/4/59 115/6/59 117/4/59
f 118/6/59 117/4/59 115/6/59
f 117/4/59 118/6/59 119/5/59
f 119/5/59 118/6/59 120/5/59
f 123/7/61 122/8/60 121/7/60
f 122/8/60 123/7/61 124/8/61
f 122/8/60 125/7/62 121/7/60
f 125/7/62 122/8/60 126/8/62
f 129/7/7 128/7/7 127/7/7
f 128/7/7 129/7/7 125/7/7
f 125/7/7 129/7/7 121/7/7
f 121/7/7 129/7/7 123/7/7
f 130/7/7 128/7/7 125/7/7
f 130/7/7 131/7/7 128/7/7
f 130/7/7 132/7/7 131/7/7
f 133/7/7 132/7/7 130/7/7
f 134/7/7 132/7/7 133/7/7
f 132/7/7 134/7/7 135/7/7
f 137/8/64 133/7/63 136/8/63
f 133/7/63 137/8/64 134/7/64
f 138/8/65 133/7/63 130/7/65
f 133/7/63 138/8/65 136/8/63
f 139/8/66 134/7/64 137/8/64
f 134/7/64 139/8/66 135/7/66
f 129/7/67 124/8/61 123/7/61
f 124/8/61 129/7/67 140/8/67
f 126/8/62 130/7/65 125/7/62
f 130/7/65 126/8/62 138/8/65
f 132/7/67 141/8/67 131/7/67
f 141/8/67 132/7/67 142/8/67
f 141/8/68 128/7/68 131/7/68
f 128/7/68 141/8/68 143/8/68
f 144/8/66 128/7/66 143/8/66
f 128/7/66 144/8/66 127/7/66
f 140/8/10 122/8/10 124/8/10
f 144/8/10 122/8/10 140/8/10
f 143/8/10 122/8/10 144/8/10
f 143/8/10 126/8/10 122/8/10
f 141/8/10 126/8/10 143/8/10
f 126/8/10 141/8/10 138/8/10
f 142/8/10 138/8/10 141/8/10
f 142/8/10 136/8/10 138/8/10
f 139/8/10 136/8/10 142/8/10
f 136/8/10 139/8/10 137/8/10
f 147/2/69 146/1/69 145/1/69
f 147/2/69 148/3/69 146/1/69
f 148/3/69 147/2/69 149/3/69
f 150/2/69 149/3/69 147/2/69
f 149/3/69 150/2/69 151/1/69
f 151/1/69 150/2/69 152/1/69
f 155/7/71 154/8/70 153/7/70
f 154/8/70 155/7/71 156/8/71
f 154/8/70 157/7/72 153/7/70
f 157/7/72 154/8/70 158/8/72
f 161/7/7 160/7/7 159/7/7
f 160/7/7 161/7/7 157/7/7
f 157/7/7 161/7/7 153/7/7
f 153/7/7 161/7/7 155/7/7
f 162/7/7 160/7/7 157/7/7
f 162/7/7 163/7/7 160/7/7
f 162/7/7 164/7/7 163/7/7
f 165/7/7 164/7/7 162/7/7
f 166/7/7 164/7/7 165/7/7
f 164/7/7 166/7/7 167/7/7
f 169/8/74 165/7/73 168/8/73
f 165/7/73 169/8/74 166/7/74
f 170/8/75 165/7/73 162/7/75
f 165/7/73 170/8/75 168/8/73
f 171/8/76 166/7/74 169/8/74
f 166/7/74 171/8/76 167/7/76
f 161/7/77 156/8/71 155/7/71
f 156/8/71 161/7/77 172/8/77
f 158/8/72 162/7/75 157/7/72
f 162/7/75 158/8/72 170/8/75
f 164/7/77 173/8/77 163/7/77
f 173/8/77 164/7/77 174/8/77
f 173/8/78 160/7/78 163/7/78
f 160/7/78 173/8/78 175/8/78
f 176/8/76 160/7/76 175/8/76
f 160/7/76 176/8/76 159/7/76
f 172/8/10 154/8/10 156/8/10
f 176/8/10 154/8/10 172/8/10
f 175/8/10 154/8/10 176/8/10
f 175/8/10 158/8/10 154/8/10
f 173/8/10 158/8/10 175/8/10
f 158/8/10 173/8/10 170/8/10
f 174/8/10 170/8/10 173/8/10
f 174/8/10 168/8/10 170/8/10
f 171/8/10 168/8/10 174/8/10
f 168/8/10 171/8/10 169/8/10

g track-striped-wide-corner-large




usemtl colormap

f 3/1/3 2/1/2 1/1/1
f 2/1/2 3/1/3 4/1/4
f 7/1/2 6/2/5 5/1/1
f 6/2/5 7/1/2 8/2/6
f 11/3/7 10/3/7 9/3/7
f 10/3/7 11/3/7 12/3/7
f 11/3/9 13/1/3 12/3/8
f 13/1/3 11/3/9 14/1/4
f 13/1/3 7/1/2 5/1/1
f 7/1/2 13/1/3 14/1/4
f 2/1/2 10/3/5 1/1/1
f 10/3/5 2/1/2 9/3/6
f 16/2/9 3/1/3 15/2/8
f 3/1/3 16/2/9 4/1/4
f 6/2/10 16/2/10 15/2/10
f 16/2/10 6/2/10 8/2/10
f 12/4/8 18/5/12 17/4/11
f 18/5/12 12/4/8 13/5/3
f 5/5/1 18/5/12 13/5/3
f 18/5/12 5/5/1 19/5/13
f 5/5/1 20/6/14 19/5/13
f 20/6/14 5/5/1 6/6/5
f 20/6/10 15/6/10 21/6/10
f 15/6/10 20/6/10 6/6/10
f 15/6/8 22/5/12 21/6/11
f 22/5/12 15/6/8 3/5/3
f 1/5/1 22/5/12 3/5/3
f 22/5/12 1/5/1 23/5/13
f 1/5/1 24/4/14 23/5/13
f 24/4/14 1/5/1 10/4/5
f 12/4/7 24/4/7 10/4/7
f 24/4/7 12/4/7 17/4/7
f 27/1/17 26/1/16 25/1/15
f 26/1/16 27/1/17 28/1/18
f 31/1/16 30/2/19 29/1/15
f 30/2/19 31/1/16 32/2/20
f 35/3/7 34/3/7 33/3/7
f 34/3/7 35/3/7 36/3/7
f 35/3/22 37/1/17 36/3/21
f 37/1/17 35/3/22 38/1/18
f 37/1/17 31/1/16 29/1/15
f 31/1/16 37/1/17 38/1/18
f 26/1/16 34/3/19 25/1/15
f 34/3/19 26/1/16 33/3/20
f 40/2/22 27/1/17 39/2/21
f 27/1/17 40/2/22 28/1/18
f 30/2/10 40/2/10 39/2/10
f 40/2/10 30/2/10 32/2/10
f 36/4/21 14/5/4 11/4/9
f 14/5/4 36/4/21 37/5/17
f 29/5/15 14/5/4 37/5/17
f 14/5/4 29/5/15 7/5/2
f 29/5/15 8/6/6 7/5/2
f 8/6/6 29/5/15 30/6/19
f 8/6/10 39/6/10 16/6/10
f 39/6/10 8/6/10 30/6/10
f 39/6/21 4/5/4 16/6/9
f 4/5/4 39/6/21 27/5/17
f 25/5/15 4/5/4 27/5/17
f 4/5/4 25/5/15 2/5/2
f 25/5/15 9/4/6 2/5/2
f 9/4/6 25/5/15 34/4/19
f 36/4/7 9/4/7 34/4/7
f 9/4/7 36/4/7 11/4/7
f 43/1/25 42/1/24 41/1/23
f 42/1/24 43/1/25 44/1/26
f 47/1/24 46/2/27 45/1/23
f 46/2/27 47/1/24 48/2/28
f 51/3/7 50/3/7 49/3/7
f 50/3/7 51/3/7 52/3/7
f 51/3/30 53/1/25 52/3/29
f 53/1/25 51/3/30 54/1/26
f 53/1/25 47/1/24 45/1/23
f 47/1/24 53/1/25 54/1/26
f 42/1/24 50/3/27 41/1/23
f 50/3/27 42/1/24 49/3/28
f 56/2/30 43/1/25 55/2/29
f 43/1/25 56/2/30 44/1/26
f 46/2/10 56/2/10 55/2/10
f 56/2/10 46/2/10 48/2/10
f 52/4/29 38/5/18 35/4/22
f 38/5/18 52/4/29 53/5/25
f 45/5/23 38/5/18 53/5/25
f 38/5/18 45/5/23 31/5/16
f 45/5/23 32/6/20 31/5/16
f 32/6/20 45/5/23 46/6/27
f 32/6/10 55/6/10 40/6/10
f 55/6/10 32/6/10 46/6/10
f 55/6/29 28/5/18 40/6/22
f 28/5/18 55/6/29 43/5/25
f 41/5/23 28/5/18 43/5/25
f 28/5/18 41/5/23 26/5/16
f 41/5/23 33/4/20 26/5/16
f 33/4/20 41/5/23 50/4/27
f 52/4/7 33/4/7 50/4/7
f 33/4/7 52/4/7 35/4/7
f 59/1/33 58/1/32 57/1/31
f 58/1/32 59/1/33 60/1/34
f 63/1/32 62/2/35 61/1/31
f 62/2/35 63/1/32 64/2/36
f 67/3/7 66/3/7 65/3/7
f 66/3/7 67/3/7 68/3/7
f 67/3/38 69/1/33 68/3/37
f 69/1/33 67/3/38 70/1/34
f 69/1/33 63/1/32 61/1/31
f 63/1/32 69/1/33 70/1/34
f 58/1/32 66/3/35 57/1/31
f 66/3/35 58/1/32 65/3/36
f 72/2/38 59/1/33 71/2/37
f 59/1/33 72/2/38 60/1/34
f 62/2/10 72/2/10 71/2/10
f 72/2/10 62/2/10 64/2/10
f 68/4/37 54/5/26 51/4/30
f 54/5/26 68/4/37 69/5/33
f 61/5/31 54/5/26 69/5/33
f 54/5/26 61/5/31 47/5/24
f 61/5/31 48/6/28 47/5/24
f 48/6/28 61/5/31 62/6/35
f 48/6/10 71/6/10 56/6/10
f 71/6/10 48/6/10 62/6/10
f 71/6/37 44/5/26 56/6/30
f 44/5/26 71/6/37 59/5/33
f 57/5/31 44/5/26 59/5/33
f 44/5/26 57/5/31 42/5/24
f 57/5/31 49/4/28 42/5/24
f 49/4/28 57/5/31 66/4/35
f 68/4/7 49/4/7 66/4/7
f 49/4/7 68/4/7 51/4/7
f 75/1/41 74/1/40 73/1/39
f 74/1/40 75/1/41 76/1/42
f 79/1/40 78/2/43 77/1/39
f 78/2/43 79/1/40 80/2/44
f 83/3/7 82/3/7 81/3/7
f 82/3/7 83/3/7 84/3/7
f 83/3/46 85/1/41 84/3/45
f 85/1/41 83/3/46 86/1/42
f 85/1/41 79/1/40 77/1/39
f 79/1/40 85/1/41 86/1/42
f 74/1/40 82/3/43 73/1/39
f 82/3/43 74/1/40 81/3/44
f 88/2/46 75/1/41 87/2/45
f 75/1/41 88/2/46 76/1/42
f 78/2/10 88/2/10 87/2/10
f 88/2/10 78/2/10 80/2/10
f 84/4/45 70/5/34 67/4/38
f 70/5/34 84/4/45 85/5/41
f 77/5/39 70/5/34 85/5/41
f 70/5/34 77/5/39 63/5/32
f 77/5/39 64/6/36 63/5/32
f 64/6/36 77/5/39 78/6/43
f 64/6/10 87/6/10 72/6/10
f 87/6/10 64/6/10 78/6/10
f 87/6/45 60/5/34 72/6/38
f 60/5/34 87/6/45 75/5/41
f 73/5/39 60/5/34 75/5/41
f 60/5/34 73/5/39 58/5/32
f 73/5/39 65/4/36 58/5/32
f 65/4/36 73/5/39 82/4/43
f 84/4/7 65/4/7 82/4/7
f 65/4/7 84/4/7 67/4/7
f 91/1/49 90/1/48 89/1/47
f 90/1/48 91/1/49 92/1/50
f 95/1/48 94/2/51 93/1/47
f 94/2/51 95/1/48 96/2/52
f 99/3/7 98/3/7 97/3/7
f 98/3/7 99/3/7 100/3/7
f 99/3/54 101/1/49 100/3/53
f 101/1/49 99/3/54 102/1/50
f 101/1/49 95/1/48 93/1/47
f 95/1/48 101/1/49 102/1/50
f 90/1/48 98/3/51 89/1/47
f 98/3/51 90/1/48 97/3/52
f 104/2/54 91/1/49 103/2/53
f 91/1/49 104/2/54 92/1/50
f 94/2/10 104/2/10 103/2/10
f 104/2/10 94/2/10 96/2/10
f 100/4/53 86/5/42 83/4/46
f 86/5/42 100/4/53 101/5/49
f 93/5/47 86/5/42 101/5/49
f 86/5/42 93/5/47 79/5/40
f 93/5/47 80/6/44 79/5/40
f 80/6/44 93/5/47 94/6/51
f 80/6/10 103/6/10 88/6/10
f 103/6/10 80/6/10 94/6/10
f 103/6/53 76/5/42 88/6/46
f 76/5/42 103/6/53 91/5/49
f 89/5/47 76/5/42 91/5/49
f 76/5/42 89/5/47 74/5/40
f 89/5/47 81/4/44 74/5/40
f 81/4/44 89/5/47 98/4/51
f 100/4/7 81/4/7 98/4/7
f 81/4/7 100/4/7 83/4/7
f 106/1/56 105/1/55 105/1/55
f 105/1/55 106/1/56 106/1/56
f 107/1/55 108/2/57 107/1/55
f 108/2/57 107/1/55 108/2/57
f 110/3/7 109/3/7 109/3/7
f 109/3/7 110/3/7 110/3/7
f 110/3/58 111/1/56 110/3/58
f 111/1/56 110/3/58 111/1/56
f 111/1/56 107/1/55 107/1/55
f 107/1/55 111/1/56 111/1/56
f 105/1/55 109/3/57 105/1/55
f 109/3/57 105/1/55 109/3/57
f 112/2/58 106/1/56 112/2/58
f 106/1/56 112/2/58 106/1/56
f 108/2/10 112/2/10 112/2/10
f 112/2/10 108/2/10 108/2/10
f 110/4/58 102/5/50 99/4/54
f 102/5/50 110/4/58 111/5/56
f 107/5/55 102/5/50 111/5/56
f 102/5/50 107/5/55 95/5/48
f 107/5/55 96/6/52 95/5/48
f 96/6/52 107/5/55 108/6/57
f 96/6/10 112/6/10 104/6/10
f 112/6/10 96/6/10 108/6/10
f 112/6/58 92/5/50 104/6/54
f 92/5/50 112/6/58 106/5/56
f 105/5/55 92/5/50 106/5/56
f 92/5/50 105/5/55 90/5/48
f 105/5/55 97/4/52 90/5/48
f 97/4/52 105/5/55 109/4/57
f 110/4/7 97/4/7 109/4/7
f 97/4/7 110/4/7 99/4/7
f 115/6/59 114/5/59 113/5/59
f 115/6/59 116/4/59 114/5/59
f 116/4/59 115/6/59 117/4/59
f 118/6/59 117/4/59 115/6/59
f 117/4/59 118/6/59 119/5/59
f 119/5/59 118/6/59 120/5/59
f 123/7/61 122/8/60 121/7/60
f 122/8/60 123/7/61 124/8/61
f 122/8/60 125/7/62 121/7/60
f 125/7/62 122/8/60 126/8/62
f 129/7/7 128/7/7 127/7/7
f 128/7/7 129/7/7 125/7/7
f 125/7/7 129/7/7 121/7/7
f 121/7/7 129/7/7 123/7/7
f 130/7/7 128/7/7 125/7/7
f 130/7/7 131/7/7 128/7/7
f 130/7/7 132/7/7 131/7/7
f 133/7/7 132/7/7 130/7/7
f 134/7/7 132/7/7 133/7/7
f 132/7/7 134/7/7 135/7/7
f 137/8/64 133/7/63 136/8/63
f 133/7/63 137/8/64 134/7/64
f 138/8/65 133/7/63 130/7/65
f 133/7/63 138/8/65 136/8/63
f 139/8/66 134/7/64 137/8/64
f 134/7/64 139/8/66 135/7/66
f 129/7/67 124/8/61 123/7/61
f 124/8/61 129/7/67 140/8/67
f 126/8/62 130/7/65 125/7/62
f 130/7/65 126/8/62 138/8/65
f 132/7/67 141/8/67 131/7/67
f 141/8/67 132/7/67 142/8/67
f 141/8/68 128/7/68 131/7/68
f 128/7/68 141/8/68 143/8/68
f 144/8/66 128/7/66 143/8/66
f 128/7/66 144/8/66 127/7/66
f 140/8/10 122/8/10 124/8/10
f 144/8/10 122/8/10 140/8/10
f 143/8/10 122/8/10 144/8/10
f 143/8/10 126/8/10 122/8/10
f 141/8/10 126/8/10 143/8/10
f 126/8/10 141/8/10 138/8/10
f 142/8/10 138/8/10 141/8/10
f 142/8/10 136/8/10 138/8/10
f 139/8/10 136/8/10 142/8/10
f 136/8/10 139/8/10 137/8/10
f 147/2/69 146/1/69 145/1/69
f 147/2/69 148/3/69 146/1/69
f 148/3/69 147/2/69 149/3/69
f 150/2/69 149/3/69 147/2/69
f 149/3/69 150/2/69 151/1/69
f 151/1/69 150/2/69 152/1/69
f 155/7/71 154/8/70 153/7/70
f 154/8/70 155/7/71 156/8/71
f 154/8/70 157/7/72 153/7/70
f 157/7/72 154/8/70 158/8/72
f 161/7/7 160/7/7 159/7/7
f 160/7/7 161/7/7 157/7/7
f 157/7/7 161/7/7 153/7/7
f 153/7/7 161/7/7 155/7/7
f 162/7/7 160/7/7 157/7/7
f 162/7/7 163/7/7 160/7/7
f 162/7/7 164/7/7 163/7/7
f 165/7/7 164/7/7 162/7/7
f 166/7/7 164/7/7 165/7/7
f 164/7/7 166/7/7 167/7/7
f 169/8/74 165/7/73 168/8/73
f 165/7/73 169/8/74 166/7/74
f 170/8/75 165/7/73 162/7/75
f 165/7/73 170/8/75 168/8/73
f 171/8/76 166/7/74 169/8/74
f 166/7/74 171/8/76 167/7/76
f 161/7/77 156/8/71 155/7/71
f 156/8/71 161/7/77 172/8/77
f 158/8/72 162/7/75 157/7/72
f 162/7/75 158/8/72 170/8/75
f 164/7/77 173/8/77 163/7/77
f 173/8/77 164/7/77 174/8/77
f 173/8/78 160/7/78 163/7/78
f 160/7/78 173/8/78 175/8/78
f 176/8/76 160/7/76 175/8/76
f 160/7/76 176/8/76 159/7/76
f 172/8/10 154/8/10 156/8/10
f 176/8/10 154/8/10 172/8/10
f 175/8/10 154/8/10 176/8/10
f 175/8/10 158/8/10 154/8/10
f 173/8/10 158/8/10 175/8/10
f 158/8/10 173/8/10 170/8/10
f 174/8/10 170/8/10 173/8/10
f 174/8/10 168/8/10 170/8/10
f 171/8/10 168/8/10 174/8/10
f 168/8/10 171/8/10 169/8/10

